<?xml version="1.0" encoding="UTF-8"?>
<!DOCTYPE svg PUBLIC "-//W3C//DTD SVG 1.1//EN" "http://www.w3.org/Graphics/SVG/1.1/DTD/svg11.dtd">
<svg xmlns="http://www.w3.org/2000/svg" version="1.1" width="64px" height="64px" style="shape-rendering:geometricPrecision; text-rendering:geometricPrecision; image-rendering:optimizeQuality; fill-rule:evenodd; clip-rule:evenodd" xmlns:xlink="http://www.w3.org/1999/xlink">
<g><path style="opacity:0.787" fill="#020508" d="M 33.5,47.5 C 33.1667,42.1667 32.8333,42.1667 32.5,47.5C 31.1667,47.8333 31.1667,48.1667 32.5,48.5C 32.6695,50.8484 33.0029,53.1817 33.5,55.5C 33.4008,57.7986 32.7342,59.7986 31.5,61.5C 25.5,60.1667 19.5,60.1667 13.5,61.5C 12.2658,59.7986 11.5992,57.7986 11.5,55.5C 12.3956,50.1869 12.3956,44.8535 11.5,39.5C 16.0836,38.7227 20.7503,38.2227 25.5,38C 20.0838,37.8407 14.7504,37.174 9.5,36C 7.624,31.4585 6.95734,26.9585 7.5,22.5C 8.26231,20.7376 9.59565,19.7376 11.5,19.5C 11.8333,20.8333 12.1667,20.8333 12.5,19.5C 13.1667,19.5 13.5,19.1667 13.5,18.5C 14.4734,18.0133 15.4734,17.5133 16.5,17C 13.9615,16.2042 11.6282,16.3709 9.5,17.5C 7.02898,12.3744 6.86232,7.04106 9,1.5C 18,2.83333 27,2.83333 36,1.5C 37.5845,5.81393 37.9179,10.1473 37,14.5C 37.3333,14.1667 37.6667,13.8333 38,13.5C 43.3333,14.1667 48.6667,14.8333 54,15.5C 56.0293,20.7545 55.8626,25.9211 53.5,31C 55.9425,35.7254 56.1091,40.5587 54,45.5C 47.1677,46.1841 40.3344,46.8508 33.5,47.5 Z"/></g>
<g><path style="opacity:0.004" fill="#000000" d="M 5.5,4.5 C 6.64084,7.63995 6.8075,10.9733 6,14.5C 5.50166,11.1832 5.33499,7.8499 5.5,4.5 Z"/></g>
<g><path style="opacity:0.004" fill="#000000" d="M 38.5,4.5 C 39.6341,6.96638 39.8007,9.63305 39,12.5C 38.5026,9.85397 38.3359,7.1873 38.5,4.5 Z"/></g>
<g><path style="opacity:1" fill="#299cf9" d="M 10.5,5.5 C 18.5,5.5 26.5,5.5 34.5,5.5C 34.6633,7.85684 34.4966,10.1902 34,12.5C 29.3257,16.3431 24.8257,20.3431 20.5,24.5C 25.1254,25.824 29.792,26.824 34.5,27.5C 34.67,28.8221 34.3366,29.9887 33.5,31C 25.8406,31.4997 18.1739,31.6664 10.5,31.5C 10.3367,29.1432 10.5034,26.8098 11,24.5C 15.0065,21.3242 18.8398,17.9908 22.5,14.5C 18.5546,13.5091 14.5546,13.1758 10.5,13.5C 10.5,10.8333 10.5,8.16667 10.5,5.5 Z"/></g>
<g><path style="opacity:0.009" fill="#000000" d="M 9.5,17.5 C 11.099,17.2322 12.4324,17.5655 13.5,18.5C 12.8333,18.5 12.5,18.8333 12.5,19.5C 12.1667,19.5 11.8333,19.5 11.5,19.5C 10.8333,18.8333 10.1667,18.1667 9.5,17.5 Z"/></g>
<g><path style="opacity:0.004" fill="#000000" d="M 56.5,18.5 C 57.6341,20.9664 57.8007,23.633 57,26.5C 56.5026,23.854 56.3359,21.1873 56.5,18.5 Z"/></g>
<g><path style="opacity:1" fill="#2899f3" d="M 30.5,19.5 C 37.8333,19.5 45.1667,19.5 52.5,19.5C 52.6633,21.8568 52.4966,24.1902 52,26.5C 48.0287,28.9718 44.1954,31.6385 40.5,34.5C 44.4454,35.4909 48.4454,35.8242 52.5,35.5C 52.5,37.5 52.5,39.5 52.5,41.5C 45.4684,41.8303 38.4684,41.497 31.5,40.5C 30.2941,38.4841 30.2941,36.4841 31.5,34.5C 35.1667,32 38.8333,29.5 42.5,27C 38.5138,26.5012 34.5138,26.3345 30.5,26.5C 30.5,24.1667 30.5,21.8333 30.5,19.5 Z"/></g>
<g><path style="opacity:0.004" fill="#000000" d="M 7.5,22.5 C 6.83333,23.1667 6.83333,23.1667 7.5,22.5 Z"/></g>
<g><path style="opacity:0.004" fill="#000000" d="M 5.5,24.5 C 6.63406,26.9664 6.80073,29.633 6,32.5C 5.50258,29.854 5.33591,27.1873 5.5,24.5 Z"/></g>
<g><path style="opacity:0.004" fill="#000000" d="M 55.5,27.5 C 56.8333,28.1667 56.8333,28.1667 55.5,27.5 Z"/></g>
<g><path style="opacity:0.004" fill="#000000" d="M 56.5,34.5 C 57.6341,36.9664 57.8007,39.633 57,42.5C 56.5026,39.854 56.3359,37.1873 56.5,34.5 Z"/></g>
<g><path style="opacity:0.004" fill="#000000" d="M 11.5,39.5 C 10.8333,38.1667 10.8333,38.1667 11.5,39.5 Z"/></g>
<g><path style="opacity:0.004" fill="#000000" d="M 10.5,39.5 C 10.6633,41.8568 10.4966,44.1902 10,46.5C 9.20419,43.9615 9.37086,41.6282 10.5,39.5 Z"/></g>
<g><path style="opacity:0.981" fill="#144f7f" d="M 14.5,41.5 C 19.6405,40.5119 24.9738,40.1786 30.5,40.5C 30.7947,42.7354 30.4614,44.7354 29.5,46.5C 29.5,44.8333 29.5,43.1667 29.5,41.5C 24.5,41.5 19.5,41.5 14.5,41.5 Z"/></g>
<g><path style="opacity:1" fill="#299df8" d="M 14.5,41.5 C 19.5,41.5 24.5,41.5 29.5,41.5C 29.5,43.1667 29.5,44.8333 29.5,46.5C 27.161,48.5065 24.8277,50.5065 22.5,52.5C 25.0865,53.48 27.7531,53.8134 30.5,53.5C 30.5,54.8333 30.5,56.1667 30.5,57.5C 25.1667,57.5 19.8333,57.5 14.5,57.5C 14.3398,55.8008 14.5065,54.1341 15,52.5C 17.6687,50.6596 20.1687,48.6596 22.5,46.5C 19.9135,45.52 17.2469,45.1866 14.5,45.5C 14.5,44.1667 14.5,42.8333 14.5,41.5 Z"/></g>
<g><path style="opacity:0.004" fill="#000000" d="M 32.5,47.5 C 32.8333,47.5 33.1667,47.5 33.5,47.5C 33.3147,48.1701 32.9813,48.1701 32.5,47.5 Z"/></g>
<g><path style="opacity:0.004" fill="#000000" d="M 10.5,50.5 C 11.8333,51.1667 11.8333,51.1667 10.5,50.5 Z"/></g>
<g><path style="opacity:0.004" fill="#000000" d="M 9.5,52.5 C 10.6225,54.2884 10.7891,56.2884 10,58.5C 9.50454,56.5273 9.33788,54.5273 9.5,52.5 Z"/></g>
<g><path style="opacity:0.004" fill="#000000" d="M 34.5,52.5 C 35.6225,54.2884 35.7891,56.2884 35,58.5C 34.5045,56.5273 34.3379,54.5273 34.5,52.5 Z"/></g>
<g><path style="opacity:0.004" fill="#000000" d="M 13.5,61.5 C 19.5,61.5 25.5,61.5 31.5,61.5C 25.5,62.8333 19.5,62.8333 13.5,61.5 Z"/></g>
</svg>
