<?xml version="1.0" encoding="UTF-8"?>
<!DOCTYPE svg PUBLIC "-//W3C//DTD SVG 1.1//EN" "http://www.w3.org/Graphics/SVG/1.1/DTD/svg11.dtd">
<svg xmlns="http://www.w3.org/2000/svg" version="1.1" width="40px" height="37px" style="shape-rendering:geometricPrecision; text-rendering:geometricPrecision; image-rendering:optimizeQuality; fill-rule:evenodd; clip-rule:evenodd" xmlns:xlink="http://www.w3.org/1999/xlink">
<g><path style="opacity:0.602" fill="#0b0805" d="M 5.5,-0.5 C 6.83333,-0.5 8.16667,-0.5 9.5,-0.5C 12.1288,2.63064 14.9621,5.63064 18,8.5C 20.0383,5.75675 21.5383,2.75675 22.5,-0.5C 23.5,-0.5 24.5,-0.5 25.5,-0.5C 26.6013,3.49733 27.768,7.49733 29,11.5C 31.3974,9.21772 34.2307,7.88438 37.5,7.5C 37.6129,11.3268 36.6129,14.8268 34.5,18C 36.1075,17.9813 37.7741,17.8146 39.5,17.5C 39.5,19.1667 39.5,20.8333 39.5,22.5C 38.2745,23.937 37.2745,25.6036 36.5,27.5C 38.124,28.8689 38.624,30.5355 38,32.5C 35.833,33.4881 33.9997,34.8214 32.5,36.5C 24.1667,36.5 15.8333,36.5 7.5,36.5C 6.52134,34.8546 5.188,33.5213 3.5,32.5C 2.57131,31.3112 2.23798,29.9778 2.5,28.5C 3.55198,28.6495 4.55198,28.4828 5.5,28C 3.63604,25.3123 1.63604,22.8123 -0.5,20.5C -0.5,18.8333 -0.5,17.1667 -0.5,15.5C 2.12717,16.0916 4.79384,16.4249 7.5,16.5C 6.94214,10.8197 6.27547,5.15305 5.5,-0.5 Z"/></g>
<g><path style="opacity:1" fill="#8e6a4f" d="M 6.5,32.5 C 7.39836,31.8423 8.39836,31.1757 9.5,30.5C 9.37642,29.8933 9.04309,29.56 8.5,29.5C 6.54905,25.7706 4.21572,22.2706 1.5,19C 4.53139,18.5046 7.53139,18.6713 10.5,19.5C 9.29176,13.8812 8.79176,8.21452 9,2.5C 12.0155,5.68276 15.1822,8.68276 18.5,11.5C 20.3333,8.5 22.1667,5.5 24,2.5C 25.0605,6.52648 26.2272,10.5265 27.5,14.5C 30.136,13.0295 32.636,11.3628 35,9.5C 34.3223,13.1753 33.1556,16.8419 31.5,20.5C 33.4244,20.567 35.4244,20.9003 37.5,21.5C 35.5797,24.3388 33.9131,27.3388 32.5,30.5C 33.0253,31.1924 33.6919,31.6924 34.5,32C 33.1667,33 31.8333,34 30.5,35C 23.5,35.6667 16.5,35.6667 9.5,35C 8.62656,33.955 7.62656,33.1217 6.5,32.5 Z"/></g>
<g><path style="opacity:1" fill="#814e29" d="M 24.5,34.5 C 25.9462,32.2965 26.7796,29.9631 27,27.5C 26,28.1667 25,28.8333 24,29.5C 23.6948,27.4432 23.6948,25.4432 24,23.5C 23.2613,24.5742 22.2613,25.2409 21,25.5C 19.6736,24.2011 18.3402,22.8678 17,21.5C 16.8184,24.2263 16.3184,26.8929 15.5,29.5C 14.6043,28.4937 13.9377,28.4937 13.5,29.5C 14.4565,31.0754 15.1231,32.742 15.5,34.5C 14.6236,34.6309 13.9569,34.2975 13.5,33.5C 12.4435,30.8114 11.1101,28.3114 9.5,26C 10.8989,25.4054 12.2322,25.5721 13.5,26.5C 14.122,22.8736 14.2886,19.207 14,15.5C 16.3551,17.8551 18.6884,20.1884 21,22.5C 22.9439,21.5606 24.6106,20.2273 26,18.5C 26.3333,21.1667 26.6667,23.8333 27,26.5C 28.0113,25.6634 29.1779,25.33 30.5,25.5C 30.1858,29.8393 28.1858,32.8393 24.5,34.5 Z"/></g>
<g><path style="opacity:1" fill="#c9936b" d="M 24.5,34.5 C 21.5,34.5 18.5,34.5 15.5,34.5C 15.1231,32.742 14.4565,31.0754 13.5,29.5C 13.9377,28.4937 14.6043,28.4937 15.5,29.5C 16.3184,26.8929 16.8184,24.2263 17,21.5C 18.3402,22.8678 19.6736,24.2011 21,25.5C 22.2613,25.2409 23.2613,24.5742 24,23.5C 23.6948,25.4432 23.6948,27.4432 24,29.5C 25,28.8333 26,28.1667 27,27.5C 26.7796,29.9631 25.9462,32.2965 24.5,34.5 Z"/></g>
<g><path style="opacity:1" fill="#543f30" d="M 8.5,29.5 C 9.04309,29.56 9.37642,29.8933 9.5,30.5C 8.39836,31.1757 7.39836,31.8423 6.5,32.5C 5.71087,32.2172 5.0442,31.7172 4.5,31C 6.05814,30.79 7.39147,30.29 8.5,29.5 Z"/></g>
</svg>
