<?xml version="1.0" encoding="UTF-8"?>
<!DOCTYPE svg PUBLIC "-//W3C//DTD SVG 1.1//EN" "http://www.w3.org/Graphics/SVG/1.1/DTD/svg11.dtd">
<svg xmlns="http://www.w3.org/2000/svg" version="1.1" width="50px" height="50px" style="shape-rendering:geometricPrecision; text-rendering:geometricPrecision; image-rendering:optimizeQuality; fill-rule:evenodd; clip-rule:evenodd" xmlns:xlink="http://www.w3.org/1999/xlink">
<g><path style="opacity:1" fill="#010101" d="M 7.5,3.5 C 18.8333,3.5 30.1667,3.5 41.5,3.5C 41.3339,9.17645 41.5006,14.8431 42,20.5C 43,22.8333 44,25.1667 45,27.5C 45.4995,33.4908 45.6662,39.4908 45.5,45.5C 33.7727,46.7682 28.7727,41.4349 30.5,29.5C 29.5052,34.7921 29.1718,40.1254 29.5,45.5C 26.1667,45.5 22.8333,45.5 19.5,45.5C 19.8282,40.1254 19.4948,34.7921 18.5,29.5C 20.2273,41.4349 15.2273,46.7682 3.5,45.5C 3.33385,39.4908 3.50051,33.4908 4,27.5C 5,25.1667 6,22.8333 7,20.5C 7.49942,14.8431 7.66609,9.17645 7.5,3.5 Z"/></g>
<g><path style="opacity:1" fill="#beb7be" d="M 9.5,6.5 C 19.3247,5.34174 29.3247,5.17508 39.5,6C 38.5,6.5 37.5,7 36.5,7.5C 27.5408,6.86743 18.5408,6.53409 9.5,6.5 Z"/></g>
<g><path style="opacity:1" fill="#9b969b" d="M 11.5,9.5 C 19.8685,9.79814 28.2019,9.79814 36.5,9.5C 37.5,10 38.5,10.5 39.5,11C 29.5,11.6667 19.5,11.6667 9.5,11C 10.4158,10.7216 11.0825,10.2216 11.5,9.5 Z"/></g>
<g><path style="opacity:1" fill="#d4d0d4" d="M 15.5,13.5 C 18.1667,13.5 20.8333,13.5 23.5,13.5C 23.5,16.1667 23.5,18.8333 23.5,21.5C 20.8333,21.5 18.1667,21.5 15.5,21.5C 15.5,18.8333 15.5,16.1667 15.5,13.5 Z"/></g>
<g><path style="opacity:1" fill="#d4d0d4" d="M 25.5,13.5 C 28.1667,13.5 30.8333,13.5 33.5,13.5C 33.5,16.1667 33.5,18.8333 33.5,21.5C 30.8333,21.5 28.1667,21.5 25.5,21.5C 25.5,18.8333 25.5,16.1667 25.5,13.5 Z"/></g>
<g><path style="opacity:1" fill="#e0dee0" d="M 35.5,13.5 C 36.8734,13.3433 38.2068,13.51 39.5,14C 35.5,16.3333 35.5,18.6667 39.5,21C 38.2068,21.49 36.8734,21.6567 35.5,21.5C 35.5,18.8333 35.5,16.1667 35.5,13.5 Z"/></g>
<g><path style="opacity:1" fill="#b1abb1" d="M 9.5,14.5 C 10.5676,13.5655 11.901,13.2322 13.5,13.5C 13.5,16.1667 13.5,18.8333 13.5,21.5C 12.1266,21.6567 10.7932,21.49 9.5,21C 12.1997,20.0508 13.033,18.2175 12,15.5C 11.3292,14.7476 10.4959,14.4142 9.5,14.5 Z"/></g>
<g><path style="opacity:1" fill="#000000" d="M 17.5,14.5 C 22.1585,14.0146 23.4919,15.848 21.5,20C 16.7282,20.8104 15.3948,18.9771 17.5,14.5 Z"/></g>
<g><path style="opacity:1" fill="#000000" d="M 27.5,14.5 C 32.1585,14.0146 33.4919,15.848 31.5,20C 26.7282,20.8104 25.3948,18.9771 27.5,14.5 Z"/></g>
<g><path style="opacity:1" fill="#cbc6cb" d="M 18.5,16.5 C 20.337,16.6395 20.6704,17.3061 19.5,18.5C 18.7025,18.0431 18.3691,17.3764 18.5,16.5 Z"/></g>
<g><path style="opacity:1" fill="#cbc6cb" d="M 28.5,16.5 C 30.337,16.6395 30.6704,17.3061 29.5,18.5C 28.7025,18.0431 28.3691,17.3764 28.5,16.5 Z"/></g>
<g><path style="opacity:1" fill="#cbc6cb" d="M 13.5,23.5 C 15.337,23.6395 15.6704,24.3061 14.5,25.5C 13.7025,25.0431 13.3691,24.3764 13.5,23.5 Z"/></g>
<g><path style="opacity:1" fill="#cbc6cb" d="M 33.5,23.5 C 35.337,23.6395 35.6704,24.3061 34.5,25.5C 33.7025,25.0431 33.3691,24.3764 33.5,23.5 Z"/></g>
<g><path style="opacity:1" fill="#cac5ca" d="M 7.5,23.5 C 8.83333,23.5 10.1667,23.5 11.5,23.5C 11.5,24.8333 11.5,26.1667 11.5,27.5C 10.1667,27.5 8.83333,27.5 7.5,27.5C 7.5,26.1667 7.5,24.8333 7.5,23.5 Z"/></g>
<g><path style="opacity:1" fill="#cac5ca" d="M 17.5,23.5 C 19.5,23.5 21.5,23.5 23.5,23.5C 23.5,24.8333 23.5,26.1667 23.5,27.5C 21.5,27.5 19.5,27.5 17.5,27.5C 17.5,26.1667 17.5,24.8333 17.5,23.5 Z"/></g>
<g><path style="opacity:1" fill="#cac5ca" d="M 25.5,23.5 C 27.5,23.5 29.5,23.5 31.5,23.5C 31.5,24.8333 31.5,26.1667 31.5,27.5C 29.5,27.5 27.5,27.5 25.5,27.5C 25.5,26.1667 25.5,24.8333 25.5,23.5 Z"/></g>
<g><path style="opacity:1" fill="#cac5ca" d="M 37.5,23.5 C 38.8333,23.5 40.1667,23.5 41.5,23.5C 41.5,24.8333 41.5,26.1667 41.5,27.5C 40.1667,27.5 38.8333,27.5 37.5,27.5C 37.5,26.1667 37.5,24.8333 37.5,23.5 Z"/></g>
<g><path style="opacity:1" fill="#bcb6bc" d="M 13.5,27.5 C 14.8001,29.223 15.4668,31.3897 15.5,34C 16.2296,41.7765 12.8963,44.6098 5.5,42.5C 7.56685,41.8659 9.40018,40.8659 11,39.5C 12.7846,35.6952 13.618,31.6952 13.5,27.5 Z"/></g>
<g><path style="opacity:1" fill="#bbb4bb" d="M 33.5,27.5 C 35.2754,31.1668 36.7754,35.1668 38,39.5C 39.5998,40.8659 41.4332,41.8659 43.5,42.5C 39.7795,44.1859 36.6128,43.5192 34,40.5C 33.501,36.1794 33.3343,31.8461 33.5,27.5 Z"/></g>
<g><path style="opacity:1" fill="#a7a0a7" d="M 5.5,29.5 C 7.5,29.5 9.5,29.5 11.5,29.5C 11.5,30.8333 11.5,32.1667 11.5,33.5C 9.5,33.5 7.5,33.5 5.5,33.5C 5.5,32.1667 5.5,30.8333 5.5,29.5 Z"/></g>
<g><path style="opacity:1" fill="#e2dee2" d="M 27.5,30.5 C 26.596,31.209 26.2627,32.209 26.5,33.5C 24.7704,32.0243 23.4371,32.3576 22.5,34.5C 23.3302,36.1349 23.4969,37.8016 23,39.5C 24.1455,40.6843 25.3121,40.6843 26.5,39.5C 26.5,40.5 26.5,41.5 26.5,42.5C 24.901,42.2322 23.5676,42.5655 22.5,43.5C 21.5139,39.03 21.1805,34.3633 21.5,29.5C 23.7354,29.2053 25.7354,29.5386 27.5,30.5 Z"/></g>
<g><path style="opacity:1" fill="#a7a0a7" d="M 37.5,29.5 C 39.5,29.5 41.5,29.5 43.5,29.5C 43.5,30.8333 43.5,32.1667 43.5,33.5C 41.5,33.5 39.5,33.5 37.5,33.5C 37.5,32.1667 37.5,30.8333 37.5,29.5 Z"/></g>
<g><path style="opacity:1" fill="#a09aa0" d="M 27.5,30.5 C 27.5,34.8333 27.5,39.1667 27.5,43.5C 25.8333,43.5 24.1667,43.5 22.5,43.5C 23.5676,42.5655 24.901,42.2322 26.5,42.5C 26.5,41.5 26.5,40.5 26.5,39.5C 25.1667,37.5 25.1667,35.5 26.5,33.5C 26.2627,32.209 26.596,31.209 27.5,30.5 Z"/></g>
<g><path style="opacity:1" fill="#000000" d="M 26.5,33.5 C 25.1667,35.5 25.1667,37.5 26.5,39.5C 25.3121,40.6843 24.1455,40.6843 23,39.5C 23.4969,37.8016 23.3302,36.1349 22.5,34.5C 23.4371,32.3576 24.7704,32.0243 26.5,33.5 Z"/></g>
<g><path style="opacity:1" fill="#a8a2a8" d="M 5.5,35.5 C 6.83333,35.5 8.16667,35.5 9.5,35.5C 9.83333,38.5 8.5,39.8333 5.5,39.5C 5.5,38.1667 5.5,36.8333 5.5,35.5 Z"/></g>
<g><path style="opacity:1" fill="#a8a2a8" d="M 39.5,35.5 C 40.8333,35.5 42.1667,35.5 43.5,35.5C 43.5,36.8333 43.5,38.1667 43.5,39.5C 40.5,39.8333 39.1667,38.5 39.5,35.5 Z"/></g>
</svg>
