<?xml version="1.0" encoding="UTF-8"?>
<!DOCTYPE svg PUBLIC "-//W3C//DTD SVG 1.1//EN" "http://www.w3.org/Graphics/SVG/1.1/DTD/svg11.dtd">
<svg xmlns="http://www.w3.org/2000/svg" version="1.1" width="65px" height="65px" style="shape-rendering:geometricPrecision; text-rendering:geometricPrecision; image-rendering:optimizeQuality; fill-rule:evenodd; clip-rule:evenodd" xmlns:xlink="http://www.w3.org/1999/xlink">
<g><path style="opacity:0.834" fill="#110e0c" d="M 50.5,11.5 C 51.1847,13.4144 51.6847,15.4144 52,17.5C 54.7433,19.7879 57.5767,21.9545 60.5,24C 54.5889,26.7093 50.9222,30.876 49.5,36.5C 45.0355,37.0053 40.7022,37.8386 36.5,39C 37.5331,46.5858 37.5331,54.0858 36.5,61.5C 35.5,62.1667 34.5,62.8333 33.5,63.5C 31.9579,62.2532 30.4579,62.2532 29,63.5C 28.1841,62.1772 27.0174,61.5106 25.5,61.5C 24.5632,53.555 24.2299,45.555 24.5,37.5C 20.7604,37.7592 17.0938,37.4259 13.5,36.5C 12.3764,34.6314 11.5431,32.6314 11,30.5C 8.40659,28.4514 5.90659,26.2848 3.5,24C 5.87058,21.294 8.53724,18.9606 11.5,17C 11.1667,16.6667 10.8333,16.3333 10.5,16C 12.0368,14.8904 12.7035,13.3904 12.5,11.5C 16.4155,10.7332 20.4155,10.2332 24.5,10C 27.1176,7.26053 29.6176,4.4272 32,1.5C 33.7088,4.41846 35.5421,7.25179 37.5,10C 41.9171,10.2275 46.2504,10.7275 50.5,11.5 Z"/></g>
<g><path style="opacity:0.004" fill="#000000" d="M 12.5,11.5 C 11.8333,10.1667 11.8333,10.1667 12.5,11.5 Z"/></g>
<g><path style="opacity:1" fill="#b2b1af" d="M 30.5,8.5 C 31.6431,8.90814 32.6431,9.57481 33.5,10.5C 32.1667,11.8333 30.8333,11.8333 29.5,10.5C 29.8627,9.81654 30.1961,9.14987 30.5,8.5 Z"/></g>
<g><path style="opacity:0.004" fill="#fe00ff" d="M 50.5,10.5 C 51.8333,11.1667 51.8333,11.1667 50.5,10.5 Z"/></g>
<g><path style="opacity:1" fill="#9c9c9c" d="M 15.5,14.5 C 25.8333,14.5 36.1667,14.5 46.5,14.5C 46.5,20.8333 46.5,27.1667 46.5,33.5C 36.4944,33.6665 26.4944,33.4998 16.5,33C 15.5236,26.9242 15.1903,20.7576 15.5,14.5 Z"/></g>
<g><path style="opacity:0.004" fill="#000000" d="M 1.5,23.5 C 2.83333,24.1667 2.83333,24.1667 1.5,23.5 Z"/></g>
<g><path style="opacity:1" fill="#d2d1cf" d="M 11.5,21.5 C 12.782,22.7082 12.782,24.0416 11.5,25.5C 9.2064,24.3746 9.2064,23.0412 11.5,21.5 Z"/></g>
<g><path style="opacity:1" fill="#a3a2a0" d="M 49.5,21.5 C 54.0165,22.6253 54.3498,24.292 50.5,26.5C 49.5481,24.9547 49.2148,23.288 49.5,21.5 Z"/></g>
<g><path style="opacity:1" fill="#1b1c1b" d="M 24.5,17.5 C 28.8461,17.3343 33.1794,17.501 37.5,18C 40.1667,21.6667 40.1667,25.3333 37.5,29C 25.8009,32.7892 21.4675,28.9559 24.5,17.5 Z"/></g>
<g><path style="opacity:1" fill="#d0d0ce" d="M 25.5,19.5 C 29.1667,19.5 32.8333,19.5 36.5,19.5C 36.5,22.1667 36.5,24.8333 36.5,27.5C 32.8333,27.5 29.1667,27.5 25.5,27.5C 25.5,24.8333 25.5,22.1667 25.5,19.5 Z"/></g>
<g><path style="opacity:1" fill="#040403" d="M 29.5,22.5 C 30.9778,22.238 32.3112,22.5713 33.5,23.5C 32.8333,23.8333 32.1667,24.1667 31.5,24.5C 30.2867,24.2528 29.62,23.5862 29.5,22.5 Z"/></g>
<g><path style="opacity:1" fill="#c4c3c1" d="M 28.5,36.5 C 30.1667,36.5 31.8333,36.5 33.5,36.5C 33.5,37.5 33.5,38.5 33.5,39.5C 31.8333,39.5 30.1667,39.5 28.5,39.5C 28.5,38.5 28.5,37.5 28.5,36.5 Z"/></g>
<g><path style="opacity:0.004" fill="#000000" d="M 38.5,38.5 C 39.8333,39.1667 39.8333,39.1667 38.5,38.5 Z"/></g>
<g><path style="opacity:1" fill="#898887" d="M 28.5,41.5 C 30.1667,41.5 31.8333,41.5 33.5,41.5C 33.5,42.5 33.5,43.5 33.5,44.5C 31.8333,44.5 30.1667,44.5 28.5,44.5C 28.5,43.5 28.5,42.5 28.5,41.5 Z"/></g>
<g><path style="opacity:1" fill="#929191" d="M 28.5,46.5 C 30.1667,46.5 31.8333,46.5 33.5,46.5C 33.5,47.5 33.5,48.5 33.5,49.5C 31.8333,49.5 30.1667,49.5 28.5,49.5C 28.5,48.5 28.5,47.5 28.5,46.5 Z"/></g>
<g><path style="opacity:1" fill="#c8c8c7" d="M 28.5,51.5 C 30.1667,51.5 31.8333,51.5 33.5,51.5C 33.5,53.5 33.5,55.5 33.5,57.5C 31.8333,57.5 30.1667,57.5 28.5,57.5C 28.5,55.5 28.5,53.5 28.5,51.5 Z"/></g>
<g><path style="opacity:0.004" fill="#feff00" d="M 25.5,61.5 C 24.8333,62.1667 24.8333,62.1667 25.5,61.5 Z"/></g>
</svg>
