<?xml version="1.0" encoding="UTF-8"?>
<!DOCTYPE svg PUBLIC "-//W3C//DTD SVG 1.1//EN" "http://www.w3.org/Graphics/SVG/1.1/DTD/svg11.dtd">
<svg xmlns="http://www.w3.org/2000/svg" version="1.1" width="66px" height="65px" style="shape-rendering:geometricPrecision; text-rendering:geometricPrecision; image-rendering:optimizeQuality; fill-rule:evenodd; clip-rule:evenodd" xmlns:xlink="http://www.w3.org/1999/xlink">
<g><path style="opacity:0.004" fill="#fe00ff" d="M 39.5,-0.5 C 39.8333,-0.5 40.1667,-0.5 40.5,-0.5C 40.3147,0.170143 39.9813,0.170143 39.5,-0.5 Z"/></g>
<g><path style="opacity:0.004" fill="#ffe7ad" d="M 41.5,-0.5 C 42.1667,-0.5 42.8333,-0.5 43.5,-0.5C 42.8333,0.833333 42.1667,0.833333 41.5,-0.5 Z"/></g>
<g><path style="opacity:0.982" fill="#17120f" d="M 28.5,39.5 C 28.427,41.0269 29.0937,42.0269 30.5,42.5C 31.0001,46.1638 29.8334,49.1638 27,51.5C 26.586,51.0426 26.086,50.7093 25.5,50.5C 25.0533,54.2834 24.0533,57.7834 22.5,61C 18.9952,61.1652 15.6618,61.1652 12.5,61C 10.9663,58.034 9.79965,54.8673 9,51.5C 3.82555,50.048 1.65888,46.8814 2.5,42C 4.95754,39.7156 7.45754,38.2156 10,37.5C 10.2877,29.5482 10.121,22.0482 9.5,15C 11.5423,7.25509 16.3756,4.08843 24,5.5C 24.1676,16.5151 24.6676,27.5151 25.5,38.5C 26.4168,39.1272 27.4168,39.4606 28.5,39.5 Z"/></g>
<g><path style="opacity:1" fill="#ededec" d="M 19.5,9.5 C 19.5,19.5 19.5,29.5 19.5,39.5C 18.1667,39.5 16.8333,39.5 15.5,39.5C 15.3335,30.1607 15.5002,20.8274 16,11.5C 16.8159,10.1772 17.9826,9.51056 19.5,9.5 Z"/></g>
<g><path style="opacity:1" fill="#7d7c78" d="M 19.5,9.5 C 20.4942,19.6532 20.8276,29.9865 20.5,40.5C 18.5853,40.7845 16.9187,40.4511 15.5,39.5C 16.8333,39.5 18.1667,39.5 19.5,39.5C 19.5,29.5 19.5,19.5 19.5,9.5 Z"/></g>
<g><path style="opacity:0.927" fill="#15100e" d="M 30.5,42.5 C 29.0937,42.0269 28.427,41.0269 28.5,39.5C 29.3635,40.463 30.0302,40.463 30.5,39.5C 29.4626,27.6859 34.9626,21.0192 47,19.5C 62.0374,24.232 66.0374,33.5653 59,47.5C 47.6464,55.5219 38.1464,53.8552 30.5,42.5 Z"/></g>
<g><path style="opacity:0.004" fill="#000000" d="M 25.5,35.5 C 26.8333,36.1667 26.8333,36.1667 25.5,35.5 Z"/></g>
<g><path style="opacity:1" fill="#514e4c" d="M 7.5,43.5 C 13.3188,42.3475 19.3188,42.1808 25.5,43C 26.3366,44.0113 26.67,45.1779 26.5,46.5C 24.2967,46.0651 22.2967,46.0651 20.5,46.5C 20.5,45.5 20.5,44.5 20.5,43.5C 16.1667,43.5 11.8333,43.5 7.5,43.5 Z"/></g>
<g><path style="opacity:1" fill="#c8c7c4" d="M 7.5,43.5 C 11.8333,43.5 16.1667,43.5 20.5,43.5C 20.5,44.5 20.5,45.5 20.5,46.5C 16.1667,46.5 11.8333,46.5 7.5,46.5C 7.5,45.5 7.5,44.5 7.5,43.5 Z"/></g>
<g><path style="opacity:1" fill="#d1d0ce" d="M 40.5,25.5 C 42.5695,25.4486 44.4029,26.1153 46,27.5C 51.9743,24.7945 55.8077,26.7945 57.5,33.5C 54.8333,35.5 54.8333,37.5 57.5,39.5C 55.9729,46.0923 52.3062,48.0923 46.5,45.5C 41.9721,48.4911 38.4721,47.4911 36,42.5C 33.8728,40.4305 34.0394,38.5971 36.5,37C 34.9361,35.3951 34.4361,33.5618 35,31.5C 37.0396,29.6298 38.8729,27.6298 40.5,25.5 Z"/></g>
<g><path style="opacity:1" fill="#1c1c1b" d="M 39.5,30.5 C 43.8333,30.5 48.1667,30.5 52.5,30.5C 52.5,34.8333 52.5,39.1667 52.5,43.5C 48.1667,43.5 43.8333,43.5 39.5,43.5C 39.5,39.1667 39.5,34.8333 39.5,30.5 Z"/></g>
<g><path style="opacity:1" fill="#828383" d="M 41.5,31.5 C 44.5,31.5 47.5,31.5 50.5,31.5C 50.5,34.8333 50.5,38.1667 50.5,41.5C 47.5,41.5 44.5,41.5 41.5,41.5C 41.5,38.1667 41.5,34.8333 41.5,31.5 Z"/></g>
<g><path style="opacity:1" fill="#5f5f5f" d="M 15.5,49.5 C 17.1667,49.5 18.8333,49.5 20.5,49.5C 20.5,50.5 20.5,51.5 20.5,52.5C 18.8333,52.5 17.1667,52.5 15.5,52.5C 15.5,51.5 15.5,50.5 15.5,49.5 Z"/></g>
<g><path style="opacity:1" fill="#646664" d="M 15.5,53.5 C 17.6648,53.1159 19.3315,53.7826 20.5,55.5C 18.9547,56.4519 17.288,56.7852 15.5,56.5C 15.5,55.5 15.5,54.5 15.5,53.5 Z"/></g>
</svg>
