<?xml version="1.0" encoding="UTF-8"?>
<!DOCTYPE svg PUBLIC "-//W3C//DTD SVG 1.1//EN" "http://www.w3.org/Graphics/SVG/1.1/DTD/svg11.dtd">
<svg xmlns="http://www.w3.org/2000/svg" version="1.1" width="500px" height="500px" style="shape-rendering:geometricPrecision; text-rendering:geometricPrecision; image-rendering:optimizeQuality; fill-rule:evenodd; clip-rule:evenodd" xmlns:xlink="http://www.w3.org/1999/xlink">
<g><path style="opacity:0.165" fill="#513d29" d="M 51.5,15.5 C 64.5043,15.3334 77.5043,15.5001 90.5,16C 107.592,30.956 124.758,45.7894 142,60.5C 157.459,46.0416 172.626,31.2083 187.5,16C 200.496,15.5001 213.496,15.3334 226.5,15.5C 226.667,80.5009 226.5,145.501 226,210.5C 224.813,214.709 222.313,217.876 218.5,220C 206.208,221.086 193.875,221.919 181.5,222.5C 190.58,259.002 207.746,291.002 233,318.5C 233.667,332.167 233.667,345.833 233,359.5C 226,365.833 219,372.167 212,378.5C 208.118,410.827 196.785,440.161 178,466.5C 174.535,470.967 170.702,475.133 166.5,479C 147.833,479.667 129.167,479.667 110.5,479C 89.8783,458.263 76.7117,433.43 71,404.5C 69.1462,394.189 67.4796,383.856 66,373.5C 61.3333,368.833 56.6667,364.167 52,359.5C 51.3333,345.833 51.3333,332.167 52,318.5C 69.5172,298.687 82.1839,276.021 90,250.5C 93.0178,240.95 95.5178,231.283 97.5,221.5C 86.1618,221.667 74.8284,221.5 63.5,221C 57.8488,220.014 54.0154,216.847 52,211.5C 51.5,146.168 51.3333,80.8342 51.5,15.5 Z"/></g>
<g><path style="opacity:0.163" fill="#513d29" d="M 263.5,19.5 C 276.837,19.3334 290.171,19.5001 303.5,20C 320.352,35.0198 337.352,49.8531 354.5,64.5C 369.653,49.8474 384.653,35.0141 399.5,20C 412.829,19.5001 426.163,19.3334 439.5,19.5C 439.667,84.1675 439.5,148.834 439,213.5C 437.167,219.333 433.333,223.167 427.5,225C 416.505,225.5 405.505,225.667 394.5,225.5C 403.298,262.438 420.465,294.771 446,322.5C 446.667,335.833 446.667,349.167 446,362.5C 438.667,369.167 431.333,375.833 424,382.5C 420.554,421.215 405.721,454.715 379.5,483C 360.833,483.667 342.167,483.667 323.5,483C 301.737,461.646 288.237,435.813 283,405.5C 281.503,396.19 280.17,386.857 279,377.5C 274,372.5 269,367.5 264,362.5C 263.333,349.5 263.333,336.5 264,323.5C 281.32,303.944 293.987,281.611 302,256.5C 305.049,246.359 307.882,236.193 310.5,226C 297.777,225.921 285.111,225.254 272.5,224C 268.183,221.685 265.35,218.185 264,213.5C 263.5,148.834 263.333,84.1675 263.5,19.5 Z"/></g>
<g><path style="opacity:0.953" fill="#79614d" d="M 132.5,87.5 C 112.037,90.6476 94.2036,99.3143 79,113.5C 75.0937,117.989 72.2604,122.989 70.5,128.5C 70.3334,97.1649 70.5,65.8316 71,34.5C 90.8019,53.1468 111.302,70.8135 132.5,87.5 Z"/></g>
<g><path style="opacity:0.953" fill="#78604c" d="M 205.5,125.5 C 205.5,124.833 205.167,124.5 204.5,124.5C 196.315,110.894 184.981,100.727 170.5,94C 164.627,92.4301 158.96,90.5968 153.5,88.5C 170.785,70.548 188.452,52.8814 206.5,35.5C 206.833,50.5 207.167,65.5 207.5,80.5C 207.499,95.8485 206.833,110.849 205.5,125.5 Z"/></g>
<g><path style="opacity:0.953" fill="#79614d" d="M 345.5,91.5 C 324.034,94.7627 305.534,104.096 290,119.5C 287.539,123.096 285.373,126.763 283.5,130.5C 283.167,100.159 283.5,69.826 284.5,39.5C 303.649,56.1476 322.649,72.9809 341.5,90C 342.745,90.7914 344.078,91.2914 345.5,91.5 Z"/></g>
<g><path style="opacity:0.953" fill="#79614d" d="M 418.5,129.5 C 405.307,108.894 386.64,96.2271 362.5,91.5C 364.199,91.6602 365.866,91.4935 367.5,91C 384.708,73.9592 401.708,56.7926 418.5,39.5C 419.83,69.664 419.83,99.664 418.5,129.5 Z"/></g>
<g><path style="opacity:0.953" fill="#e3d5a6" d="M 132.5,87.5 C 139.524,87.4351 146.524,87.7684 153.5,88.5C 158.96,90.5968 164.627,92.4301 170.5,94C 184.981,100.727 196.315,110.894 204.5,124.5C 204.372,126.655 204.872,128.655 206,130.5C 206.788,151.524 206.621,172.524 205.5,193.5C 203.989,197.176 201.323,199.676 197.5,201C 190.508,201.5 183.508,201.666 176.5,201.5C 163.835,186.665 151.335,171.665 139,156.5C 126.143,171.055 113.643,185.889 101.5,201C 95.5092,201.499 89.5092,201.666 83.5,201.5C 76.3988,201.235 72.2321,197.569 71,190.5C 70.5,169.836 70.3334,149.169 70.5,128.5C 72.2604,122.989 75.0937,117.989 79,113.5C 94.2036,99.3143 112.037,90.6476 132.5,87.5 Z"/></g>
<g><path style="opacity:0.953" fill="#e3d5a6" d="M 345.5,91.5 C 351.167,91.5 356.833,91.5 362.5,91.5C 386.64,96.2271 405.307,108.894 418.5,129.5C 418.5,129.833 418.5,130.167 418.5,130.5C 419.455,151.807 419.788,173.14 419.5,194.5C 418.242,199.528 415.242,203.028 410.5,205C 403.174,205.5 395.841,205.666 388.5,205.5C 376.561,190.223 364.228,175.223 351.5,160.5C 338.772,175.223 326.439,190.223 314.5,205.5C 307.159,205.666 299.826,205.5 292.5,205C 288.333,203.5 285.5,200.667 284,196.5C 283.5,174.503 283.333,152.503 283.5,130.5C 285.373,126.763 287.539,123.096 290,119.5C 305.534,104.096 324.034,94.7627 345.5,91.5 Z"/></g>
<g><path style="opacity:0.898" fill="#b4a47e" d="M 204.5,124.5 C 205.167,124.5 205.5,124.833 205.5,125.5C 205.987,126.473 206.487,127.473 207,128.5C 207.667,149.167 207.667,169.833 207,190.5C 206.768,191.737 206.268,192.737 205.5,193.5C 206.621,172.524 206.788,151.524 206,130.5C 204.872,128.655 204.372,126.655 204.5,124.5 Z"/></g>
<g><path style="opacity:0.858" fill="#907f5f" d="M 418.5,130.5 C 419.268,131.263 419.768,132.263 420,133.5C 420.829,154.004 420.663,174.337 419.5,194.5C 419.788,173.14 419.455,151.807 418.5,130.5 Z"/></g>
<g><path style="opacity:0.953" fill="#7a624d" d="M 176.5,201.5 C 168.981,201.175 161.648,201.508 154.5,202.5C 144.249,201.525 133.915,201.192 123.5,201.5C 123.795,203.735 123.461,205.735 122.5,207.5C 122.5,205.833 122.5,204.167 122.5,202.5C 109.323,202.829 96.3226,202.495 83.5,201.5C 89.5092,201.666 95.5092,201.499 101.5,201C 113.643,185.889 126.143,171.055 139,156.5C 151.335,171.665 163.835,186.665 176.5,201.5 Z"/></g>
<g><path style="opacity:0.953" fill="#7a624e" d="M 388.5,205.5 C 381.313,205.175 374.313,205.509 367.5,206.5C 367.167,206.5 366.833,206.5 366.5,206.5C 356.5,205.167 346.5,205.167 336.5,206.5C 336.167,206.5 335.833,206.5 335.5,206.5C 328.687,205.509 321.687,205.175 314.5,205.5C 326.439,190.223 338.772,175.223 351.5,160.5C 364.228,175.223 376.561,190.223 388.5,205.5 Z"/></g>
<g><path style="opacity:0.953" fill="#e2d4a5" d="M 154.5,202.5 C 159.553,241.161 172.053,277.161 192,310.5C 198.752,320.586 206.252,330.086 214.5,339C 206.657,346.01 198.991,353.177 191.5,360.5C 178.176,371.825 165.176,383.492 152.5,395.5C 147.558,399.103 142.892,403.103 138.5,407.5C 134.479,402.812 130.146,398.479 125.5,394.5C 112.5,380.833 99.1667,367.5 85.5,354.5C 80.681,349.181 75.681,344.014 70.5,339C 89.4224,317.331 102.756,292.498 110.5,264.5C 112.806,260.915 114.139,256.915 114.5,252.5C 117.68,237.6 120.346,222.6 122.5,207.5C 123.461,205.735 123.795,203.735 123.5,201.5C 133.915,201.192 144.249,201.525 154.5,202.5 Z"/></g>
<g><path style="opacity:0.953" fill="#e2d4a5" d="M 366.5,206.5 C 366.24,212.194 367.24,217.527 369.5,222.5C 370.829,228.812 372.163,235.145 373.5,241.5C 373.528,244.916 374.528,247.916 376.5,250.5C 386.202,285.238 403.202,315.905 427.5,342.5C 420.139,349.863 412.472,356.863 404.5,363.5C 389.508,376.492 374.842,389.826 360.5,403.5C 357.82,406.013 354.987,408.346 352,410.5C 347.343,406.676 342.843,402.676 338.5,398.5C 325.5,384.833 312.167,371.5 298.5,358.5C 293.522,353.187 288.522,347.854 283.5,342.5C 302.045,320.749 315.378,296.082 323.5,268.5C 325.61,264.498 326.943,260.165 327.5,255.5C 329.673,243.806 332.007,232.139 334.5,220.5C 335.972,216.081 336.638,211.414 336.5,206.5C 346.5,205.167 356.5,205.167 366.5,206.5 Z"/></g>
<g><path style="opacity:0.941" fill="#af9f79" d="M 335.5,206.5 C 335.833,206.5 336.167,206.5 336.5,206.5C 336.638,211.414 335.972,216.081 334.5,220.5C 334.669,215.819 335.002,211.152 335.5,206.5 Z"/></g>
<g><path style="opacity:0.937" fill="#b5a57f" d="M 366.5,206.5 C 366.833,206.5 367.167,206.5 367.5,206.5C 368.073,211.847 368.74,217.18 369.5,222.5C 367.24,217.527 366.24,212.194 366.5,206.5 Z"/></g>
<g><path style="opacity:0.925" fill="#9f8e6b" d="M 373.5,241.5 C 375.072,244.215 376.072,247.215 376.5,250.5C 374.528,247.916 373.528,244.916 373.5,241.5 Z"/></g>
<g><path style="opacity:0.933" fill="#a99874" d="M 114.5,252.5 C 114.139,256.915 112.806,260.915 110.5,264.5C 111.261,260.216 112.595,256.216 114.5,252.5 Z"/></g>
<g><path style="opacity:0.922" fill="#aa9975" d="M 327.5,255.5 C 326.943,260.165 325.61,264.498 323.5,268.5C 324.057,263.835 325.39,259.502 327.5,255.5 Z"/></g>
<g><path style="opacity:0.953" fill="#7b634f" d="M 139.5,270.5 C 150.354,270.518 154.854,275.851 153,286.5C 145.482,296.078 138.482,295.744 132,285.5C 130.289,278.254 132.789,273.254 139.5,270.5 Z"/></g>
<g><path style="opacity:0.953" fill="#7b634e" d="M 350.5,274.5 C 361.876,273.378 367.043,278.378 366,289.5C 362.677,295.908 357.511,298.075 350.5,296C 344.954,292.268 343.121,287.101 345,280.5C 346.36,277.977 348.193,275.977 350.5,274.5 Z"/></g>
<g><path style="opacity:0.953" fill="#7c644f" d="M 116.5,285.5 C 126.195,285.364 131.029,290.031 131,299.5C 127.126,308.236 120.959,310.402 112.5,306C 106.292,297.605 107.625,290.772 116.5,285.5 Z"/></g>
<g><path style="opacity:0.953" fill="#7b634f" d="M 162.5,285.5 C 175.547,286.262 179.381,292.595 174,304.5C 166.498,310.572 160.165,309.572 155,301.5C 152.965,293.907 155.465,288.573 162.5,285.5 Z"/></g>
<g><path style="opacity:0.953" fill="#7b634f" d="M 328.5,289.5 C 342.121,289.62 346.288,295.954 341,308.5C 340.097,309.701 338.931,310.535 337.5,311C 325.609,313.444 320.442,308.61 322,296.5C 323.694,293.642 325.861,291.309 328.5,289.5 Z"/></g>
<g><path style="opacity:0.953" fill="#7c644f" d="M 373.5,289.5 C 386.186,288.677 391.019,294.343 388,306.5C 379.61,315.088 372.61,314.088 367,303.5C 366.333,301.5 366.333,299.5 367,297.5C 368.359,294.097 370.526,291.431 373.5,289.5 Z"/></g>
<g><path style="opacity:0.953" fill="#7b634e" d="M 138.5,300.5 C 157.718,301.637 164.552,311.304 159,329.5C 153.257,337.776 145.424,340.61 135.5,338C 122.047,329.466 120.047,318.8 129.5,306C 132.263,303.626 135.263,301.792 138.5,300.5 Z"/></g>
<g><path style="opacity:0.953" fill="#7b634e" d="M 349.5,304.5 C 366.511,303.678 374.677,311.678 374,328.5C 367.388,342.391 357.222,345.891 343.5,339C 332.526,325.184 334.526,313.684 349.5,304.5 Z"/></g>
<g><path style="opacity:0.953" fill="#78604c" d="M 85.5,354.5 C 99.1667,367.5 112.5,380.833 125.5,394.5C 124.837,396.473 124.504,398.639 124.5,401C 125.747,420.637 128.08,440.137 131.5,459.5C 130.998,460.521 130.332,460.688 129.5,460C 110.618,440.741 98.1176,417.908 92,391.5C 89.5065,379.209 87.3398,366.875 85.5,354.5 Z"/></g>
<g><path style="opacity:0.953" fill="#78604c" d="M 298.5,358.5 C 312.167,371.5 325.5,384.833 338.5,398.5C 337.836,400.81 337.503,403.31 337.5,406C 338.874,424.57 340.874,443.07 343.5,461.5C 343.267,462.932 342.6,463.432 341.5,463C 321.835,442.615 309.002,418.448 303,390.5C 301.813,379.764 300.313,369.097 298.5,358.5 Z"/></g>
<g><path style="opacity:0.953" fill="#78604c" d="M 191.5,360.5 C 187.962,398.977 173.129,432.311 147,460.5C 147.802,449.81 149.135,439.143 151,428.5C 151.28,418.451 152.114,408.451 153.5,398.5C 153.48,397.274 153.147,396.274 152.5,395.5C 165.176,383.492 178.176,371.825 191.5,360.5 Z"/></g>
<g><path style="opacity:0.953" fill="#78604c" d="M 404.5,363.5 C 401.343,402.138 386.509,435.472 360,463.5C 361.595,444.848 363.429,426.181 365.5,407.5C 365.333,405.167 365.167,402.833 365,400.5C 363.871,402.141 362.371,403.141 360.5,403.5C 374.842,389.826 389.508,376.492 404.5,363.5 Z"/></g>
</svg>
