<?xml version="1.0" encoding="UTF-8"?>
<!DOCTYPE svg PUBLIC "-//W3C//DTD SVG 1.1//EN" "http://www.w3.org/Graphics/SVG/1.1/DTD/svg11.dtd">
<svg xmlns="http://www.w3.org/2000/svg" version="1.1" width="500px" height="500px" style="shape-rendering:geometricPrecision; text-rendering:geometricPrecision; image-rendering:optimizeQuality; fill-rule:evenodd; clip-rule:evenodd" xmlns:xlink="http://www.w3.org/1999/xlink">
<g><path style="opacity:0.03" fill="#4e3b27" d="M 452.5,147.5 C 451.167,147.833 451.167,148.167 452.5,148.5C 449.168,152.664 445.335,156.331 441,159.5C 440.598,160.872 440.098,162.205 439.5,163.5C 441.12,181.208 441.954,199.208 442,217.5C 448.504,228.307 449.004,238.974 443.5,249.5C 442.833,249.5 442.5,249.833 442.5,250.5C 441.167,250.833 441.167,251.167 442.5,251.5C 442.047,252.458 441.381,253.292 440.5,254C 435.203,254.778 431.87,257.611 430.5,262.5C 428.278,262.178 426.444,262.845 425,264.5C 424.667,264.167 424.333,263.833 424,263.5C 414.216,271.28 403.882,278.28 393,284.5C 392.06,293.27 392.393,301.936 394,310.5C 394.667,309.167 395.333,309.167 396,310.5C 397.119,309.448 397.619,308.281 397.5,307C 399.275,305.561 401.275,304.561 403.5,304C 403.167,303.667 402.833,303.333 402.5,303C 408.028,298.834 413.195,294.334 418,289.5C 418.483,288.552 418.649,287.552 418.5,286.5C 421.833,285.359 424.833,283.526 427.5,281C 430.053,280.239 432.553,279.406 435,278.5C 439.72,278.467 444.887,278.8 450.5,279.5C 452.865,280.085 454.865,281.252 456.5,283C 456.167,283.333 455.833,283.667 455.5,284C 456.667,284.5 457.5,285.333 458,286.5C 458.287,288.891 458.787,291.224 459.5,293.5C 459.157,312.308 459.157,331.308 459.5,350.5C 458.331,365.376 456.997,380.209 455.5,395C 455.833,395.333 456.167,395.667 456.5,396C 454.155,405.599 452.322,415.099 451,424.5C 450.339,427.95 448.505,431.116 445.5,434C 446.705,436.234 446.039,437.901 443.5,439C 444.774,439.977 444.774,440.811 443.5,441.5C 443.167,440.167 442.833,440.167 442.5,441.5C 440.863,443.475 439.196,445.475 437.5,447.5C 436.023,449.807 434.023,451.64 431.5,453C 429.721,452.021 428.055,452.354 426.5,454C 426.833,454.333 427.167,454.667 427.5,455C 423.58,456.313 419.58,457.313 415.5,458C 400.875,458.227 386.542,460.227 372.5,464C 345.841,465.066 318.841,465.399 291.5,465C 282.058,465.427 275.392,461.427 271.5,453C 267.294,452.739 263.127,452.239 259,451.5C 240.433,451.522 221.6,452.022 202.5,453C 195.21,456.949 187.377,459.115 179,459.5C 153.587,459.602 128.087,459.435 102.5,459C 89.4174,457.737 78.084,453.404 68.5,446C 64.7127,440.544 60.546,435.377 56,430.5C 53.088,421.842 52.9213,413.175 55.5,404.5C 54.6667,402.833 53.8333,401.167 53,399.5C 47.142,395.456 44.142,389.789 44,382.5C 41.7415,370.085 42.0748,357.751 45,345.5C 53.8222,328.867 63.9889,313.201 75.5,298.5C 96.6793,287.744 118.013,277.244 139.5,267C 146.799,263.095 154.465,260.262 162.5,258.5C 160.8,255.961 159.3,253.295 158,250.5C 153.868,237.105 149.535,223.771 145,210.5C 142.266,202.491 140.432,194.324 139.5,186C 127.174,185.912 114.841,186.079 102.5,186.5C 93.1288,186.555 83.7954,186.055 74.5,185C 65.3852,181.558 58.3852,175.558 53.5,167C 40.3884,139.152 33.7217,109.486 33.5,78C 30.722,66.1195 30.8887,54.2862 34,42.5C 35.8186,37.6643 39.3186,34.831 44.5,34C 63.3015,32.8805 82.1349,32.3805 101,32.5C 128.592,32.8861 155.425,33.0527 181.5,33C 186.806,33.2428 191.806,34.5762 196.5,37C 205.167,44.6667 213.833,52.3333 222.5,60C 241.407,60.1734 260.24,60.6734 279,61.5C 299.536,59.98 320.203,60.3133 341,62.5C 344.684,64.3794 348.517,65.8794 352.5,67C 361.65,75.9773 370.317,84.8106 378.5,93.5C 380.659,91.9554 381.325,90.1221 380.5,88C 382.08,78.9491 386.08,71.9491 392.5,67C 405.198,60.3184 417.865,53.6518 430.5,47C 441.22,42.6044 451.887,42.6044 462.5,47C 465.849,52.5108 467.182,58.5108 466.5,65C 466.662,72.0312 465.662,78.8645 463.5,85.5C 464.737,87.5002 464.403,89.3336 462.5,91C 463.059,91.7247 463.392,92.5581 463.5,93.5C 462.685,99.2639 461.352,105.097 459.5,111C 460.059,111.725 460.392,112.558 460.5,113.5C 459.138,122.535 457.638,131.535 456,140.5C 455.483,143.256 454.316,145.589 452.5,147.5 Z M 181.5,262.5 C 187.87,262.781 194.204,263.448 200.5,264.5C 195.193,265.714 190.193,267.714 185.5,270.5C 182.845,268.556 181.511,265.89 181.5,262.5 Z M 217.5,263.5 C 221.703,263.076 225.703,263.576 229.5,265C 224.877,266.844 220.211,266.844 215.5,265C 216.416,264.722 217.082,264.222 217.5,263.5 Z"/></g>
<g><path style="opacity:0.119" fill="#473524" d="M 242.5,443.5 C 242.423,444.75 241.756,445.583 240.5,446C 230.127,447.63 219.46,447.797 208.5,446.5C 198.133,448.604 187.967,451.27 178,454.5C 174.764,453.614 171.764,453.614 169,454.5C 168.333,453.833 167.667,453.167 167,452.5C 162.075,454.196 157.075,454.529 152,453.5C 150.908,454.296 149.741,454.963 148.5,455.5C 147.137,454.802 145.971,454.802 145,455.5C 144.333,452.833 143.667,452.833 143,455.5C 132.253,455.422 121.42,455.255 110.5,455C 88.8531,453.591 72.6864,443.424 62,424.5C 61.042,421.925 60.542,419.259 60.5,416.5C 61.665,411.423 62.3317,406.423 62.5,401.5C 61.5267,399.36 60.0267,397.693 58,396.5C 55.7694,391.269 53.1027,386.269 50,381.5C 46.0428,368.89 47.2095,357.224 53.5,346.5C 53.2907,345.914 52.9574,345.414 52.5,345C 59.2111,335.08 65.5444,324.913 71.5,314.5C 73.1667,313.333 74.8333,312.167 76.5,311C 76.1667,310.667 75.8333,310.333 75.5,310C 81.34,303.817 88.0067,298.817 95.5,295C 115.088,285.704 134.755,276.704 154.5,268C 160.167,267.333 165.833,267.333 171.5,268C 174.567,272.68 178.567,276.18 183.5,278.5C 188.435,276.273 193.435,274.106 198.5,272C 203.833,271.333 209.167,271.333 214.5,272C 219.077,273.531 223.243,274.364 227,274.5C 229.258,272.57 231.758,271.07 234.5,270C 238.323,269.246 241.989,268.746 245.5,268.5C 246.711,267.126 247.711,265.626 248.5,264C 247.144,262.433 246.477,260.6 246.5,258.5C 227.508,257.617 208.508,257.617 189.5,258.5C 185.34,256.767 181.007,255.6 176.5,255C 174.667,253.833 172.833,252.667 171,251.5C 170.667,251.833 170.333,252.167 170,252.5C 164.444,246.384 160.777,239.384 159,231.5C 153.667,219.168 149.334,206.502 146,193.5C 148.416,183.746 144.583,179.412 134.5,180.5C 125.167,180.5 115.833,180.5 106.5,180.5C 96.1854,182.618 85.852,182.118 75.5,179C 73.4486,175.947 70.6152,174.114 67,173.5C 65.8106,169.64 63.4773,166.64 60,164.5C 57.2203,156.939 53.887,149.606 50,142.5C 45.8831,126.705 42.0498,110.871 38.5,95C 37.9329,86.7663 37.9329,78.433 38.5,70C 37.8333,68.6667 37.1667,67.3333 36.5,66C 37.3052,61.2512 37.8052,56.4179 38,51.5C 39.4065,48.3152 40.9065,45.3152 42.5,42.5C 48.4177,40.1374 54.5843,38.4708 61,37.5C 101.389,37.7273 141.889,37.894 182.5,38C 188.157,41.3044 193.323,45.1378 198,49.5C 198.333,49.1667 198.667,48.8333 199,48.5C 204.159,53.9344 209.659,59.1011 215.5,64C 218.734,64.1997 221.734,65.0331 224.5,66.5C 239.947,65.7295 254.78,65.3962 269,65.5C 270.5,65.6667 272,65.8333 273.5,66C 271.167,66.3333 268.833,66.6667 266.5,67C 270.14,68.4203 273.806,68.9203 277.5,68.5C 280.719,65.5106 284.053,65.1773 287.5,67.5C 291.313,66.2378 295.313,65.5712 299.5,65.5C 308.6,66.7935 317.6,66.7935 326.5,65.5C 330.063,65.846 333.563,66.5126 337,67.5C 340.784,69.6415 344.617,71.6415 348.5,73.5C 350.881,77.3118 354.047,80.3118 358,82.5C 362.486,87.3283 366.652,92.495 370.5,98C 374.276,99.2748 376.943,101.775 378.5,105.5C 380.071,106.309 381.738,106.643 383.5,106.5C 385.381,99.5597 387.214,92.2263 389,84.5C 391.495,82.3411 393.161,79.6745 394,76.5C 398.885,70.6164 405.052,66.7831 412.5,65C 414.548,63.3189 416.715,61.8189 419,60.5C 419.333,60.8333 419.667,61.1667 420,61.5C 422.518,59.5362 425.184,58.8695 428,59.5C 428.483,58.552 428.649,57.552 428.5,56.5C 433.214,54.3987 438.047,52.3987 443,50.5C 447.844,51.2397 452.01,53.2397 455.5,56.5C 456.386,57.325 456.719,58.325 456.5,59.5C 457.552,59.3505 458.552,59.5172 459.5,60C 459.167,60.3333 458.833,60.6667 458.5,61C 461.034,63.7467 461.034,66.4133 458.5,69C 459.554,70.3876 459.72,71.8876 459,73.5C 457.455,72.1787 456.289,72.5121 455.5,74.5C 456.397,74.6691 457.397,75.0024 458.5,75.5C 460.255,79.4111 459.588,83.2444 456.5,87C 457.167,89.6667 457.833,92.3333 458.5,95C 456.242,99.5294 455.075,104.363 455,109.5C 454.075,110.047 453.242,110.713 452.5,111.5C 454.831,114.411 455.165,117.578 453.5,121C 453.095,121.945 452.428,122.612 451.5,123C 452.602,125.401 452.769,127.901 452,130.5C 448.814,136.609 445.48,142.609 442,148.5C 440.74,150.817 438.74,153.151 436,155.5C 435.727,157.101 435.227,158.601 434.5,160C 435.298,166.321 435.298,172.821 434.5,179.5C 435.33,184.29 435.996,189.124 436.5,194C 435.722,199.881 435.389,205.881 435.5,212C 436.182,215.42 437.182,218.754 438.5,222C 437.446,223.388 437.28,224.888 438,226.5C 441.162,231.456 441.162,236.789 438,242.5C 435.518,245.949 432.685,249.116 429.5,252C 428.216,252.684 427.049,252.517 426,251.5C 424.398,253.395 422.898,255.395 421.5,257.5C 417.034,258.8 413.201,261.133 410,264.5C 409.667,264.167 409.333,263.833 409,263.5C 407.128,264.824 406.295,266.324 406.5,268C 402.513,269.152 399.18,271.318 396.5,274.5C 394.293,275.635 391.96,276.301 389.5,276.5C 389.509,278.308 389.009,279.975 388,281.5C 387.82,291.41 387.32,301.244 386.5,311C 387.845,313.324 388.178,315.658 387.5,318C 388.904,319.337 390.404,320.503 392,321.5C 395.6,319.125 399.1,316.625 402.5,314C 410.349,306.317 418.349,298.817 426.5,291.5C 429.527,290.639 432.194,289.139 434.5,287C 437.602,286.652 440.602,287.152 443.5,288.5C 445.546,290.196 447.879,291.529 450.5,292.5C 453.391,298.971 454.058,305.638 452.5,312.5C 454.271,316.769 454.604,321.103 453.5,325.5C 452.975,326.192 452.308,326.692 451.5,327C 453.957,328.154 453.957,329.488 451.5,331C 452.5,331.333 453.5,331.667 454.5,332C 453.359,332.741 453.359,333.575 454.5,334.5C 454.122,338.376 453.122,342.043 451.5,345.5C 453.9,349.297 453.9,353.13 451.5,357C 452.167,358 452.833,359 453.5,360C 451.379,362.198 449.712,364.698 448.5,367.5C 449.723,369.46 451.056,371.293 452.5,373C 450.695,373.972 449.028,375.139 447.5,376.5C 448.263,377.719 449.263,378.719 450.5,379.5C 449.426,384.112 449.426,388.612 450.5,393C 449.101,395.96 448.768,398.96 449.5,402C 448.574,404.262 447.241,406.262 445.5,408C 446.167,408.667 446.833,409.333 447.5,410C 445.052,412.574 445.052,415.074 447.5,417.5C 445.283,420.88 443.783,424.547 443,428.5C 439.085,431.24 436.585,434.907 435.5,439.5C 432.773,440.367 430.773,442.201 429.5,445C 417.815,451.695 404.815,454.695 390.5,454C 383.244,455.644 376.077,457.477 369,459.5C 365.32,458.955 361.654,458.621 358,458.5C 356.333,459.167 354.667,459.833 353,460.5C 335.193,459.623 317.36,459.623 299.5,460.5C 289.782,459.094 281.615,454.76 275,447.5C 267.06,447.933 259.394,446.933 252,444.5C 249.73,445.275 247.563,445.608 245.5,445.5C 244.735,444.388 243.735,443.721 242.5,443.5 Z"/></g>
<g><path style="opacity:0.195" fill="#3f2f20" d="M 442.5,60.5 C 441.71,61.4013 440.71,62.0679 439.5,62.5C 434.82,64.2749 430.487,66.6082 426.5,69.5C 422.849,70.6589 419.515,72.3256 416.5,74.5C 412.698,75.3197 409.364,76.9864 406.5,79.5C 400.987,82.3407 397.32,86.674 395.5,92.5C 394.708,87.6588 393.708,87.4921 392.5,92C 391.481,103.314 391.481,114.481 392.5,125.5C 392.392,126.442 392.059,127.275 391.5,128C 389.103,129.724 386.769,129.724 384.5,128C 385.167,127.667 385.833,127.333 386.5,127C 382.877,123.343 379.877,119.176 377.5,114.5C 370.402,105.492 362.402,97.8253 353.5,91.5C 353.067,88.7147 351.734,86.3813 349.5,84.5C 348.583,85.1272 347.583,85.4606 346.5,85.5C 346.559,82.9512 345.559,80.9512 343.5,79.5C 343.709,78.914 344.043,78.414 344.5,78C 334.207,75.1718 323.707,73.6718 313,73.5C 310.293,73.6278 307.793,74.2945 305.5,75.5C 304.216,74.415 302.716,73.7483 301,73.5C 291.322,74.8295 281.655,74.8295 272,73.5C 269.12,75.2859 266.286,75.4525 263.5,74C 254.588,73.1837 245.755,73.3503 237,74.5C 231.801,73.4084 226.634,72.075 221.5,70.5C 220.914,70.7093 220.414,71.0426 220,71.5C 209.663,65.8294 200.496,58.6627 192.5,50C 185.379,45.8097 177.712,43.3097 169.5,42.5C 144.011,43.6632 118.178,43.6632 92,42.5C 85,43.1667 78,43.8333 71,44.5C 68.6667,43.8333 66.3333,43.1667 64,42.5C 60.5951,43.5823 57.0951,44.4156 53.5,45C 51.5743,45.4224 50.5743,46.5891 50.5,48.5C 49.5,49.1667 48.5,49.8333 47.5,50.5C 44.9195,51.618 43.2528,53.618 42.5,56.5C 42.5322,60.946 42.5322,65.446 42.5,70C 44.0647,74.6704 44.398,79.3371 43.5,84C 44.9455,87.6404 45.2789,91.307 44.5,95C 46.4425,96.9719 46.7758,99.1385 45.5,101.5C 46.0736,103.059 46.7402,104.559 47.5,106C 47.1667,106.333 46.8333,106.667 46.5,107C 49.2583,109.009 49.5916,111.009 47.5,113C 49.7821,122.186 52.2821,131.353 55,140.5C 58.9328,149.363 63.0995,158.03 67.5,166.5C 69.1992,166.34 70.8659,166.506 72.5,167C 77.0279,170.05 81.6946,172.717 86.5,175C 90.2222,175.238 93.8889,175.738 97.5,176.5C 110.464,175.73 123.464,175.063 136.5,174.5C 142.048,175.089 147.381,175.589 152.5,176C 152.834,183.42 153.001,190.92 153,198.5C 157,210.5 161,222.5 165,234.5C 167.762,242.763 173.262,248.097 181.5,250.5C 182.086,250.291 182.586,249.957 183,249.5C 185.709,250.792 188.542,251.792 191.5,252.5C 205.179,252.523 219.012,252.19 233,251.5C 238.913,251.404 244.746,251.904 250.5,253C 253.453,255.063 255.286,257.896 256,261.5C 255.646,265.401 255.813,269.234 256.5,273C 255.13,274.441 254.13,276.108 253.5,278C 251.079,279.812 249.079,279.646 247.5,277.5C 247.5,276.833 247.167,276.5 246.5,276.5C 246.565,276.062 246.399,275.728 246,275.5C 236.317,280.84 226.651,286.174 217,291.5C 214.502,287.838 212.502,283.838 211,279.5C 210.439,278.978 209.772,278.645 209,278.5C 195.871,284.81 182.704,290.81 169.5,296.5C 168.637,290.545 168.303,284.545 168.5,278.5C 168.5,277.167 168.5,275.833 168.5,274.5C 167.5,274.5 166.5,274.5 165.5,274.5C 162.532,272.154 159.366,272.154 156,274.5C 143.957,279.438 132.457,285.271 121.5,292C 119.5,292.333 117.5,292.667 115.5,293C 108.022,297.24 100.356,301.24 92.5,305C 87.0516,308.448 82.2183,312.615 78,317.5C 72.3164,326.213 66.6498,334.879 61,343.5C 59.1405,349.601 56.9738,355.601 54.5,361.5C 55.0402,362.748 55.7069,363.915 56.5,365C 55.4258,365.739 54.7591,366.739 54.5,368C 55.1271,370.135 55.6271,372.302 56,374.5C 56.6633,378.035 58.1633,381.035 60.5,383.5C 65.7351,385.45 71.4018,386.117 77.5,385.5C 77.634,387.292 77.3007,388.958 76.5,390.5C 75.8379,393.148 75.1712,395.815 74.5,398.5C 74.6082,399.442 74.9415,400.275 75.5,401C 73.5832,403.122 71.5832,404.955 69.5,406.5C 69.5858,405.504 69.2524,404.671 68.5,404C 69.1667,403.667 69.8333,403.333 70.5,403C 67.0422,398.54 63.2089,394.373 59,390.5C 50.7714,378.005 49.1048,364.671 54,350.5C 62.1591,333.671 72.6591,318.504 85.5,305C 103.709,295.396 122.042,286.062 140.5,277C 146.402,274.548 152.402,272.382 158.5,270.5C 161.292,270.75 164.292,271.25 167.5,272C 171.723,275.894 176.223,279.394 181,282.5C 183.5,282 186,281.5 188.5,281C 197.884,273.898 207.884,272.898 218.5,278C 224.225,278.485 229.558,277.151 234.5,274C 238.795,273.088 243.128,272.421 247.5,272C 252.775,266.786 252.775,261.452 247.5,256C 246.5,255.667 245.5,255.333 244.5,255C 229.325,254.746 213.992,254.746 198.5,255C 189.036,254.564 180.036,252.397 171.5,248.5C 169.144,245.978 166.977,243.312 165,240.5C 160.673,227.843 156.34,215.176 152,202.5C 150.637,194.571 150.137,186.571 150.5,178.5C 134.706,176.723 118.872,176.723 103,178.5C 97.5915,178.387 92.0915,177.72 86.5,176.5C 78.7921,176.4 72.2921,173.4 67,167.5C 53.4884,146.965 45.9884,124.465 44.5,100C 43.0005,91.0715 41.6672,82.0715 40.5,73C 40.7374,67.2161 40.9041,61.3828 41,55.5C 42.0174,50.2884 44.8508,46.4551 49.5,44C 54.8122,42.0305 60.3122,40.8639 66,40.5C 102.59,40.6465 139.256,40.6465 176,40.5C 182.047,42.472 187.88,44.972 193.5,48C 200.085,53.9809 206.751,59.9809 213.5,66C 217.415,67.4576 221.415,68.6243 225.5,69.5C 234.041,69.7867 242.707,69.4534 251.5,68.5C 259.131,69.2766 266.798,69.9433 274.5,70.5C 280.401,69.6185 286.234,69.9518 292,71.5C 306.836,68.3605 321.67,68.1938 336.5,71C 336.982,72.0084 337.148,73.175 337,74.5C 339.19,71.7514 340.857,72.0847 342,75.5C 342.333,75.1667 342.667,74.8333 343,74.5C 343.71,75.9733 344.876,76.6399 346.5,76.5C 346.809,79.3455 348.475,80.8455 351.5,81C 354.2,83.3656 356.534,86.0323 358.5,89C 358.355,89.772 358.022,90.4387 357.5,91C 362.116,90.7841 364.783,92.9507 365.5,97.5C 367.63,98.4672 369.63,99.6338 371.5,101C 374.649,106.649 378.983,111.149 384.5,114.5C 385.646,113.855 386.646,113.022 387.5,112C 387.786,109.572 387.786,107.072 387.5,104.5C 388.977,95.5994 391.644,87.0994 395.5,79C 403.915,71.6255 413.582,66.6255 424.5,64C 428.575,61.9358 432.408,59.4358 436,56.5C 437.465,55.6705 438.965,55.5038 440.5,56C 439.692,56.3076 439.025,56.8076 438.5,57.5C 439.973,58.3865 441.306,59.3865 442.5,60.5 Z"/></g>
<g><path style="opacity:0.968" fill="#2b3a43" d="M 50.5,48.5 C 93.5,48.5 136.5,48.5 179.5,48.5C 178.935,60.1729 178.269,71.8396 177.5,83.5C 189.922,82.0154 202.256,80.0154 214.5,77.5C 231.265,76.1763 247.931,76.1763 264.5,77.5C 264.666,87.1724 264.5,96.8391 264,106.5C 252,113.167 240,119.833 228,126.5C 228.758,137.191 230.925,147.524 234.5,157.5C 234.083,158.124 233.416,158.457 232.5,158.5C 228.358,154.693 223.691,151.693 218.5,149.5C 216.719,146.954 214.386,145.454 211.5,145C 207.312,148.992 205.312,153.825 205.5,159.5C 204.71,158.391 204.21,157.058 204,155.5C 202.365,158.632 200.532,161.632 198.5,164.5C 200.743,165.474 203.076,165.808 205.5,165.5C 205.5,164.167 205.5,162.833 205.5,161.5C 206.451,162.919 206.784,164.585 206.5,166.5C 203.5,166.5 200.5,166.5 197.5,166.5C 187.66,156.493 177.993,146.326 168.5,136C 174.964,127.202 181.798,118.702 189,110.5C 194.479,113.24 199.813,116.24 205,119.5C 204.282,124.586 203.282,129.586 202,134.5C 205.667,131.167 209.333,127.833 213,124.5C 213.52,122.711 213.187,121.044 212,119.5C 206.636,112.478 200.97,105.811 195,99.5C 186.493,104.421 177.826,109.088 169,113.5C 162.396,109.234 156.063,104.567 150,99.5C 138.666,108.006 127.5,116.673 116.5,125.5C 120.302,132.94 124.968,139.774 130.5,146C 137.167,149.667 143.833,153.333 150.5,157C 142.823,155.328 135.156,153.662 127.5,152C 121.935,158.058 116.601,164.225 111.5,170.5C 110.5,170.5 109.5,170.5 108.5,170.5C 112.176,161.647 116.509,153.147 121.5,145C 116.025,139.691 110.692,134.191 105.5,128.5C 109.578,120.009 113.912,111.676 118.5,103.5C 112.444,94.6001 105.777,86.1001 98.5,78C 102.431,71.7313 106.765,65.7313 111.5,60C 103.588,61.8636 96.0879,65.0303 89,69.5C 88.3333,71.1667 88.3333,72.8333 89,74.5C 91.8971,79.1909 93.5637,84.1909 94,89.5C 88.5897,93.7881 83.0897,97.9548 77.5,102C 76.1667,102.667 74.8333,102.667 73.5,102C 65.6219,95.9486 57.6219,90.1153 49.5,84.5C 48.2539,73.2269 47.5872,61.8936 47.5,50.5C 48.5,49.8333 49.5,49.1667 50.5,48.5 Z"/></g>
<g><path style="opacity:0.261" fill="#36291b" d="M 47.5,50.5 C 47.5872,61.8936 48.2539,73.2269 49.5,84.5C 50.5396,100.171 53.2063,115.504 57.5,130.5C 58.995,134.998 60.6617,139.332 62.5,143.5C 65.6547,153.297 70.988,161.797 78.5,169C 81.3508,170.289 84.3508,170.789 87.5,170.5C 89.984,171.369 92.6507,172.036 95.5,172.5C 100.627,172.119 105.46,171.785 110,171.5C 110.689,172.357 111.522,173.023 112.5,173.5C 114.295,172.735 116.128,172.068 118,171.5C 131.004,171.389 144.17,171.556 157.5,172C 159.997,172.412 161.997,173.578 163.5,175.5C 161.81,177.519 160.144,179.519 158.5,181.5C 157.791,182.404 156.791,182.737 155.5,182.5C 156.21,189.007 157.71,195.34 160,201.5C 160.417,202.756 161.25,203.423 162.5,203.5C 162.185,207.371 162.518,211.038 163.5,214.5C 165.681,220.22 168.015,225.887 170.5,231.5C 171.211,236.304 172.544,240.97 174.5,245.5C 175.365,246.583 176.365,246.749 177.5,246C 179.66,244.668 181.66,243.168 183.5,241.5C 184.353,244.518 186.353,246.351 189.5,247C 212.831,247.5 236.164,247.667 259.5,247.5C 259.5,247.833 259.5,248.167 259.5,248.5C 259.181,253.363 259.514,258.03 260.5,262.5C 260.5,265.167 260.5,267.833 260.5,270.5C 260.181,275.363 260.514,280.03 261.5,284.5C 260.833,287.833 260.167,291.167 259.5,294.5C 256.548,295.654 253.548,296.654 250.5,297.5C 250.217,296.711 249.717,296.044 249,295.5C 248.576,289.485 248.076,283.485 247.5,277.5C 249.079,279.646 251.079,279.812 253.5,278C 254.13,276.108 255.13,274.441 256.5,273C 255.813,269.234 255.646,265.401 256,261.5C 255.286,257.896 253.453,255.063 250.5,253C 244.746,251.904 238.913,251.404 233,251.5C 219.012,252.19 205.179,252.523 191.5,252.5C 188.542,251.792 185.709,250.792 183,249.5C 182.586,249.957 182.086,250.291 181.5,250.5C 173.262,248.097 167.762,242.763 165,234.5C 161,222.5 157,210.5 153,198.5C 153.001,190.92 152.834,183.42 152.5,176C 147.381,175.589 142.048,175.089 136.5,174.5C 123.464,175.063 110.464,175.73 97.5,176.5C 93.8889,175.738 90.2222,175.238 86.5,175C 81.6946,172.717 77.0279,170.05 72.5,167C 70.8659,166.506 69.1992,166.34 67.5,166.5C 63.0995,158.03 58.9328,149.363 55,140.5C 52.2821,131.353 49.7821,122.186 47.5,113C 49.5916,111.009 49.2583,109.009 46.5,107C 46.8333,106.667 47.1667,106.333 47.5,106C 46.7402,104.559 46.0736,103.059 45.5,101.5C 46.7758,99.1385 46.4425,96.9719 44.5,95C 45.2789,91.307 44.9455,87.6404 43.5,84C 44.398,79.3371 44.0647,74.6704 42.5,70C 42.5322,65.446 42.5322,60.946 42.5,56.5C 43.2528,53.618 44.9195,51.618 47.5,50.5 Z"/></g>
<g><path style="opacity:0.89" fill="#b19968" d="M 446.5,93.5 C 444.142,107.791 441.976,122.124 440,136.5C 439.292,137.381 438.458,138.047 437.5,138.5C 436.226,123.98 436.226,109.313 437.5,94.5C 438.094,92.1447 439.094,89.978 440.5,88C 440.164,86.9701 439.497,86.4701 438.5,86.5C 438.062,86.5654 437.728,86.3988 437.5,86C 438.496,78.2449 439.162,70.4116 439.5,62.5C 440.71,62.0679 441.71,61.4013 442.5,60.5C 445.012,59.0721 447.678,58.5721 450.5,59C 451.059,59.7247 451.392,60.5581 451.5,61.5C 449.996,72.2047 448.329,82.8713 446.5,93.5 Z"/></g>
<g><path style="opacity:0.972" fill="#131313" d="M 138.5,51.5 C 139.5,51.5 140.5,51.5 141.5,51.5C 142.859,58.2687 144.525,64.9353 146.5,71.5C 142.015,72.6141 137.682,73.7808 133.5,75C 130.874,70.9162 128.374,66.7495 126,62.5C 125.289,60.6332 125.789,59.1332 127.5,58C 131.23,55.807 134.897,53.6404 138.5,51.5 Z"/></g>
<g><path style="opacity:0.812" fill="#1c1916" d="M 72.5,61.5 C 74.5,61.5 76.5,61.5 78.5,61.5C 78.5,66.8333 78.5,72.1667 78.5,77.5C 73.4603,76.989 68.4603,76.1557 63.5,75C 62.572,74.6121 61.9054,73.9454 61.5,73C 62.8048,70.2237 63.9715,67.3904 65,64.5C 67.3785,63.0331 69.8785,62.0331 72.5,61.5 Z"/></g>
<g><path style="opacity:0.925" fill="#161413" d="M 179.5,48.5 C 180.447,50.4554 181.781,50.7887 183.5,49.5C 192.65,57.4819 201.65,65.6486 210.5,74C 211.793,74.49 213.127,74.6567 214.5,74.5C 214.5,75.5 214.5,76.5 214.5,77.5C 202.256,80.0154 189.922,82.0154 177.5,83.5C 178.269,71.8396 178.935,60.1729 179.5,48.5 Z"/></g>
<g><path style="opacity:0.741" fill="#776540" d="M 439.5,62.5 C 439.162,70.4116 438.496,78.2449 437.5,86C 437.728,86.3988 438.062,86.5654 438.5,86.5C 435.912,88.6246 432.912,89.9579 429.5,90.5C 429.666,83.825 429.5,77.1583 429,70.5C 428.329,69.7476 427.496,69.4142 426.5,69.5C 430.487,66.6082 434.82,64.2749 439.5,62.5 Z"/></g>
<g><path style="opacity:0.349" fill="#34281b" d="M 346.5,85.5 C 344.037,83.5389 341.703,81.3722 339.5,79C 337.975,77.9914 336.308,77.4914 334.5,77.5C 312.083,77.7674 289.749,77.7674 267.5,77.5C 266.5,77.5 265.5,77.5 264.5,77.5C 247.931,76.1763 231.265,76.1763 214.5,77.5C 214.5,76.5 214.5,75.5 214.5,74.5C 213.127,74.6567 211.793,74.49 210.5,74C 201.65,65.6486 192.65,57.4819 183.5,49.5C 181.781,50.7887 180.447,50.4554 179.5,48.5C 136.5,48.5 93.5,48.5 50.5,48.5C 50.5743,46.5891 51.5743,45.4224 53.5,45C 57.0951,44.4156 60.5951,43.5823 64,42.5C 66.3333,43.1667 68.6667,43.8333 71,44.5C 78,43.8333 85,43.1667 92,42.5C 118.178,43.6632 144.011,43.6632 169.5,42.5C 177.712,43.3097 185.379,45.8097 192.5,50C 200.496,58.6627 209.663,65.8294 220,71.5C 220.414,71.0426 220.914,70.7093 221.5,70.5C 226.634,72.075 231.801,73.4084 237,74.5C 245.755,73.3503 254.588,73.1837 263.5,74C 266.286,75.4525 269.12,75.2859 272,73.5C 281.655,74.8295 291.322,74.8295 301,73.5C 302.716,73.7483 304.216,74.415 305.5,75.5C 307.793,74.2945 310.293,73.6278 313,73.5C 323.707,73.6718 334.207,75.1718 344.5,78C 344.043,78.414 343.709,78.914 343.5,79.5C 345.559,80.9512 346.559,82.9512 346.5,85.5 Z"/></g>
<g><path style="opacity:0.893" fill="#b69f6c" d="M 406.5,79.5 C 407.493,87.9839 407.826,96.6506 407.5,105.5C 404.129,108.871 400.463,111.871 396.5,114.5C 395.508,107.352 395.175,100.019 395.5,92.5C 397.32,86.674 400.987,82.3407 406.5,79.5 Z"/></g>
<g><path style="opacity:0.87" fill="#796841" d="M 416.5,74.5 C 416.174,82.6841 416.508,90.6841 417.5,98.5C 414.204,100.821 410.871,103.154 407.5,105.5C 407.826,96.6506 407.493,87.9839 406.5,79.5C 409.364,76.9864 412.698,75.3197 416.5,74.5 Z"/></g>
<g><path style="opacity:0.745" fill="#b19968" d="M 426.5,69.5 C 427.496,69.4142 428.329,69.7476 429,70.5C 429.5,77.1583 429.666,83.825 429.5,90.5C 425.881,93.6496 421.881,96.3163 417.5,98.5C 416.508,90.6841 416.174,82.6841 416.5,74.5C 419.515,72.3256 422.849,70.6589 426.5,69.5 Z"/></g>
<g><path style="opacity:0.92" fill="#151413" d="M 225.5,84.5 C 232.658,87.9117 239.658,91.5784 246.5,95.5C 243.398,102.615 239.064,108.948 233.5,114.5C 226.734,110.798 220.401,106.631 214.5,102C 218.296,96.2393 221.963,90.406 225.5,84.5 Z"/></g>
<g><path style="opacity:0.911" fill="#181614" d="M 264.5,77.5 C 265.5,77.5 266.5,77.5 267.5,77.5C 271.116,94.7003 274.782,111.867 278.5,129C 286.411,131.974 294.411,134.307 302.5,136C 297.013,130.012 292.013,123.679 287.5,117C 289.597,113.232 292.097,109.732 295,106.5C 296.389,104.773 298.056,103.439 300,102.5C 303.787,105.284 307.287,108.451 310.5,112C 318.827,112.5 327.16,112.666 335.5,112.5C 335.889,105.173 336.222,97.84 336.5,90.5C 336.435,85.9136 335.768,81.5803 334.5,77.5C 336.308,77.4914 337.975,77.9914 339.5,79C 341.703,81.3722 344.037,83.5389 346.5,85.5C 358.202,97.7018 369.369,110.368 380,123.5C 381.335,128.858 382.669,134.191 384,139.5C 384.667,145.167 384.667,150.833 384,156.5C 381.963,158.706 379.797,160.706 377.5,162.5C 368.167,156.833 358.833,151.167 349.5,145.5C 349.158,144.662 348.492,144.328 347.5,144.5C 346.694,143.272 345.694,142.272 344.5,141.5C 347.217,135.756 350.717,130.422 355,125.5C 355.711,123.633 355.211,122.133 353.5,121C 349.018,118.675 344.518,116.508 340,114.5C 333.749,116.704 328.249,120.037 323.5,124.5C 320.489,125.669 317.822,127.336 315.5,129.5C 303.023,137.576 290.689,145.909 278.5,154.5C 270.149,149.14 261.816,143.807 253.5,138.5C 248.815,135.4 243.981,132.4 239,129.5C 237.442,137.995 236.608,146.662 236.5,155.5C 236.167,156.5 235.5,157.167 234.5,157.5C 230.925,147.524 228.758,137.191 228,126.5C 240,119.833 252,113.167 264,106.5C 264.5,96.8391 264.666,87.1724 264.5,77.5 Z"/></g>
<g><path style="opacity:0.883" fill="#2d3a42" d="M 267.5,77.5 C 289.749,77.7674 312.083,77.7674 334.5,77.5C 335.768,81.5803 336.435,85.9136 336.5,90.5C 336.222,97.84 335.889,105.173 335.5,112.5C 327.16,112.666 318.827,112.5 310.5,112C 307.287,108.451 303.787,105.284 300,102.5C 298.056,103.439 296.389,104.773 295,106.5C 292.097,109.732 289.597,113.232 287.5,117C 292.013,123.679 297.013,130.012 302.5,136C 294.411,134.307 286.411,131.974 278.5,129C 274.782,111.867 271.116,94.7003 267.5,77.5 Z"/></g>
<g><path style="opacity:0.932" fill="#161413" d="M 322.5,87.5 C 323.75,87.5774 324.583,88.244 325,89.5C 325.631,92.3926 326.464,95.2259 327.5,98C 327.167,98.5 326.833,99 326.5,99.5C 322.068,98.4157 317.734,97.0824 313.5,95.5C 316.545,92.7823 319.545,90.1156 322.5,87.5 Z"/></g>
<g><path style="opacity:0.887" fill="#7a6942" d="M 437.5,94.5 C 436.226,109.313 436.226,123.98 437.5,138.5C 435.766,141.2 433.432,143.2 430.5,144.5C 430.316,133.318 429.65,122.318 428.5,111.5C 431.106,105.578 434.106,99.9115 437.5,94.5 Z"/></g>
<g><path style="opacity:0.89" fill="#b49d6a" d="M 428.5,111.5 C 429.65,122.318 430.316,133.318 430.5,144.5C 428.116,146.885 425.45,148.885 422.5,150.5C 422.334,141.827 422.5,133.16 423,124.5C 423.8,119.596 425.633,115.263 428.5,111.5 Z"/></g>
<g><path style="opacity:0.923" fill="#2a3942" d="M 62.5,143.5 C 60.6617,139.332 58.995,134.998 57.5,130.5C 65.9817,125.895 74.6483,122.562 83.5,120.5C 76.8185,128.512 69.8185,136.179 62.5,143.5 Z"/></g>
<g><path style="opacity:0.97" fill="#2a3a43" d="M 344.5,141.5 C 339.5,137.5 334.5,133.5 329.5,129.5C 327.54,127.844 325.54,126.177 323.5,124.5C 328.249,120.037 333.749,116.704 340,114.5C 344.518,116.508 349.018,118.675 353.5,121C 355.211,122.133 355.711,123.633 355,125.5C 350.717,130.422 347.217,135.756 344.5,141.5 Z"/></g>
<g><path style="opacity:0.906" fill="#bc5615" d="M 397.5,123.5 C 403.122,124.666 408.789,126.166 414.5,128C 409.3,131.361 403.967,134.528 398.5,137.5C 397.195,135.603 396.529,133.269 396.5,130.5C 396.503,127.975 396.837,125.641 397.5,123.5 Z"/></g>
<g><path style="opacity:0.956" fill="#151413" d="M 108.5,170.5 C 101.5,170.5 94.5,170.5 87.5,170.5C 84.3508,170.789 81.3508,170.289 78.5,169C 70.988,161.797 65.6547,153.297 62.5,143.5C 69.8185,136.179 76.8185,128.512 83.5,120.5C 74.6483,122.562 65.9817,125.895 57.5,130.5C 53.2063,115.504 50.5396,100.171 49.5,84.5C 57.6219,90.1153 65.6219,95.9486 73.5,102C 74.8333,102.667 76.1667,102.667 77.5,102C 83.0897,97.9548 88.5897,93.7881 94,89.5C 93.5637,84.1909 91.8971,79.1909 89,74.5C 88.3333,72.8333 88.3333,71.1667 89,69.5C 96.0879,65.0303 103.588,61.8636 111.5,60C 106.765,65.7313 102.431,71.7313 98.5,78C 105.777,86.1001 112.444,94.6001 118.5,103.5C 113.912,111.676 109.578,120.009 105.5,128.5C 110.692,134.191 116.025,139.691 121.5,145C 116.509,153.147 112.176,161.647 108.5,170.5 Z"/></g>
<g><path style="opacity:0.886" fill="#2e3a41" d="M 253.5,138.5 C 252.075,139.922 251.075,141.589 250.5,143.5C 246.5,145.5 243.5,148.5 241.5,152.5C 239.589,153.075 237.922,154.075 236.5,155.5C 236.608,146.662 237.442,137.995 239,129.5C 243.981,132.4 248.815,135.4 253.5,138.5 Z"/></g>
<g><path style="opacity:0.978" fill="#3c556f" d="M 315.5,129.5 C 318.807,134.482 322.141,139.482 325.5,144.5C 321.221,150.282 316.388,155.615 311,160.5C 310.312,161.332 310.479,161.998 311.5,162.5C 319.125,158.701 326.625,154.701 334,150.5C 333.044,143.444 331.544,136.444 329.5,129.5C 334.5,133.5 339.5,137.5 344.5,141.5C 345.694,142.272 346.694,143.272 347.5,144.5C 347.5,152.5 347.5,160.5 347.5,168.5C 336.517,175.14 325.517,181.806 314.5,188.5C 305.617,181.901 296.617,175.568 287.5,169.5C 287.389,168.883 287.056,168.383 286.5,168C 278.323,167.829 270.323,167.329 262.5,166.5C 258.768,158.703 254.768,151.036 250.5,143.5C 251.075,141.589 252.075,139.922 253.5,138.5C 261.816,143.807 270.149,149.14 278.5,154.5C 290.689,145.909 303.023,137.576 315.5,129.5 Z"/></g>
<g><path style="opacity:0.926" fill="#2a3941" d="M 368.5,125.5 C 369.833,125.5 371.167,125.5 372.5,125.5C 372.637,129.876 372.804,134.209 373,138.5C 370.272,140.767 367.272,141.434 364,140.5C 363.356,136.779 362.523,133.113 361.5,129.5C 363.482,127.436 365.816,126.103 368.5,125.5 Z"/></g>
<g><path style="opacity:0.43" fill="#322519" d="M 395.5,92.5 C 395.175,100.019 395.508,107.352 396.5,114.5C 396.264,117.609 396.597,120.609 397.5,123.5C 396.837,125.641 396.503,127.975 396.5,130.5C 396.529,133.269 397.195,135.603 398.5,137.5C 397.032,138.779 396.365,140.446 396.5,142.5C 396.5,146.5 396.5,150.5 396.5,154.5C 397.5,154.5 398.5,154.5 399.5,154.5C 398.449,155.222 397.782,156.222 397.5,157.5C 397.5,161.5 397.5,165.5 397.5,169.5C 397.5,170.167 397.167,170.5 396.5,170.5C 396.5,169.167 396.5,167.833 396.5,166.5C 392.783,168.839 388.783,170.839 384.5,172.5C 383.446,172.32 382.446,171.987 381.5,171.5C 379.688,168.945 378.355,166.278 377.5,163.5C 377.5,163.167 377.5,162.833 377.5,162.5C 379.797,160.706 381.963,158.706 384,156.5C 384.667,150.833 384.667,145.167 384,139.5C 382.669,134.191 381.335,128.858 380,123.5C 369.369,110.368 358.202,97.7018 346.5,85.5C 347.583,85.4606 348.583,85.1272 349.5,84.5C 351.734,86.3813 353.067,88.7147 353.5,91.5C 362.402,97.8253 370.402,105.492 377.5,114.5C 379.877,119.176 382.877,123.343 386.5,127C 385.833,127.333 385.167,127.667 384.5,128C 386.769,129.724 389.103,129.724 391.5,128C 392.059,127.275 392.392,126.442 392.5,125.5C 391.481,114.481 391.481,103.314 392.5,92C 393.708,87.4921 394.708,87.6588 395.5,92.5 Z"/></g>
<g><path style="opacity:0.983" fill="#131312" d="M 197.5,166.5 C 168.841,168.055 140.174,169.388 111.5,170.5C 116.601,164.225 121.935,158.058 127.5,152C 135.156,153.662 142.823,155.328 150.5,157C 143.833,153.333 137.167,149.667 130.5,146C 124.968,139.774 120.302,132.94 116.5,125.5C 127.5,116.673 138.666,108.006 150,99.5C 156.063,104.567 162.396,109.234 169,113.5C 177.826,109.088 186.493,104.421 195,99.5C 200.97,105.811 206.636,112.478 212,119.5C 213.187,121.044 213.52,122.711 213,124.5C 209.333,127.833 205.667,131.167 202,134.5C 203.282,129.586 204.282,124.586 205,119.5C 199.813,116.24 194.479,113.24 189,110.5C 181.798,118.702 174.964,127.202 168.5,136C 177.993,146.326 187.66,156.493 197.5,166.5 Z"/></g>
<g><path style="opacity:0.953" fill="#2a3941" d="M 143.5,111.5 C 147.812,115.146 151.812,119.146 155.5,123.5C 150.344,125.465 145.01,126.799 139.5,127.5C 140.519,122.089 141.853,116.756 143.5,111.5 Z"/></g>
<g><path style="opacity:0.958" fill="#c75916" d="M 323.5,124.5 C 325.54,126.177 327.54,127.844 329.5,129.5C 331.544,136.444 333.044,143.444 334,150.5C 326.625,154.701 319.125,158.701 311.5,162.5C 310.479,161.998 310.312,161.332 311,160.5C 316.388,155.615 321.221,150.282 325.5,144.5C 322.141,139.482 318.807,134.482 315.5,129.5C 317.822,127.336 320.489,125.669 323.5,124.5 Z"/></g>
<g><path style="opacity:0.958" fill="#be5715" d="M 396.5,142.5 C 401.614,145.209 406.947,147.543 412.5,149.5C 408.231,151.367 403.898,153.034 399.5,154.5C 398.5,154.5 397.5,154.5 396.5,154.5C 396.5,150.5 396.5,146.5 396.5,142.5 Z"/></g>
<g><path style="opacity:0.942" fill="#bf5715" d="M 250.5,143.5 C 254.768,151.036 258.768,158.703 262.5,166.5C 259.5,166.5 256.5,166.5 253.5,166.5C 253.167,166.5 252.833,166.5 252.5,166.5C 249.589,161.254 245.922,156.587 241.5,152.5C 243.5,148.5 246.5,145.5 250.5,143.5 Z"/></g>
<g><path style="opacity:0.008" fill="#4f3d28" d="M 452.5,147.5 C 453.833,148.167 453.833,148.167 452.5,147.5 Z"/></g>
<g><path style="opacity:0.976" fill="#afae7c" d="M 349.5,145.5 C 358.833,151.167 368.167,156.833 377.5,162.5C 377.5,162.833 377.5,163.167 377.5,163.5C 376.542,169.744 376.209,176.077 376.5,182.5C 370.155,182.347 363.822,182.014 357.5,181.5C 357.665,184.85 357.498,188.183 357,191.5C 355.348,192.399 353.848,193.399 352.5,194.5C 350.917,192.337 349.584,190.004 348.5,187.5C 348.171,173.323 348.504,159.323 349.5,145.5 Z"/></g>
<g><path style="opacity:0.92" fill="#3f536a" d="M 438.5,86.5 C 439.497,86.4701 440.164,86.9701 440.5,88C 439.094,89.978 438.094,92.1447 437.5,94.5C 434.106,99.9115 431.106,105.578 428.5,111.5C 425.633,115.263 423.8,119.596 423,124.5C 422.5,133.16 422.334,141.827 422.5,150.5C 423.602,156.448 424.269,162.448 424.5,168.5C 424.667,187.836 424.5,207.17 424,226.5C 420.019,223.353 416.186,220.02 412.5,216.5C 411.833,209.011 411.167,201.678 410.5,194.5C 410.5,189.167 410.5,183.833 410.5,178.5C 410.211,174.894 410.544,171.394 411.5,168C 410.244,167.583 409.577,166.75 409.5,165.5C 410.773,164.923 410.773,164.257 409.5,163.5C 405.473,161.487 401.473,159.487 397.5,157.5C 397.782,156.222 398.449,155.222 399.5,154.5C 403.898,153.034 408.231,151.367 412.5,149.5C 406.947,147.543 401.614,145.209 396.5,142.5C 396.365,140.446 397.032,138.779 398.5,137.5C 403.967,134.528 409.3,131.361 414.5,128C 408.789,126.166 403.122,124.666 397.5,123.5C 396.597,120.609 396.264,117.609 396.5,114.5C 400.463,111.871 404.129,108.871 407.5,105.5C 410.871,103.154 414.204,100.821 417.5,98.5C 421.881,96.3163 425.881,93.6496 429.5,90.5C 432.912,89.9579 435.912,88.6246 438.5,86.5 Z"/></g>
<g><path style="opacity:0.969" fill="#3d546e" d="M 218.5,149.5 C 223.691,151.693 228.358,154.693 232.5,158.5C 233.416,158.457 234.083,158.124 234.5,157.5C 235.5,157.167 236.167,156.5 236.5,155.5C 237.922,154.075 239.589,153.075 241.5,152.5C 245.922,156.587 249.589,161.254 252.5,166.5C 239.252,167.118 226.252,166.452 213.5,164.5C 212.865,161.507 212.699,158.507 213,155.5C 214.617,153.237 216.45,151.237 218.5,149.5 Z"/></g>
<g><path style="opacity:0.964" fill="#c55913" d="M 397.5,157.5 C 401.473,159.487 405.473,161.487 409.5,163.5C 410.773,164.257 410.773,164.923 409.5,165.5C 405.426,166.636 401.426,167.969 397.5,169.5C 397.5,165.5 397.5,161.5 397.5,157.5 Z"/></g>
<g><path style="opacity:0.972" fill="#c45815" d="M 218.5,149.5 C 216.45,151.237 214.617,153.237 213,155.5C 212.699,158.507 212.865,161.507 213.5,164.5C 211.721,166.344 209.388,167.01 206.5,166.5C 206.784,164.585 206.451,162.919 205.5,161.5C 205.5,160.833 205.5,160.167 205.5,159.5C 205.312,153.825 207.312,148.992 211.5,145C 214.386,145.454 216.719,146.954 218.5,149.5 Z"/></g>
<g><path style="opacity:0.969" fill="#3a5470" d="M 205.5,159.5 C 205.5,160.167 205.5,160.833 205.5,161.5C 205.5,162.833 205.5,164.167 205.5,165.5C 203.076,165.808 200.743,165.474 198.5,164.5C 200.532,161.632 202.365,158.632 204,155.5C 204.21,157.058 204.71,158.391 205.5,159.5 Z"/></g>
<g><path style="opacity:0.495" fill="#2c2117" d="M 213.5,164.5 C 226.252,166.452 239.252,167.118 252.5,166.5C 252.833,166.5 253.167,166.5 253.5,166.5C 254.234,167.708 254.567,169.041 254.5,170.5C 242.851,169.77 231.184,169.937 219.5,171C 216.808,173.632 217.141,175.966 220.5,178C 225.4,178.522 230.066,179.855 234.5,182C 236.527,182.498 238.527,182.331 240.5,181.5C 245.13,182.974 249.796,183.974 254.5,184.5C 244.725,184.879 235.058,184.213 225.5,182.5C 216.151,179.83 206.818,177.163 197.5,174.5C 196.791,173.596 195.791,173.263 194.5,173.5C 191.15,173.335 187.817,173.502 184.5,174C 176.006,177.123 167.339,179.623 158.5,181.5C 160.144,179.519 161.81,177.519 163.5,175.5C 161.997,173.578 159.997,172.412 157.5,172C 144.17,171.556 131.004,171.389 118,171.5C 116.128,172.068 114.295,172.735 112.5,173.5C 111.522,173.023 110.689,172.357 110,171.5C 105.46,171.785 100.627,172.119 95.5,172.5C 92.6507,172.036 89.984,171.369 87.5,170.5C 94.5,170.5 101.5,170.5 108.5,170.5C 109.5,170.5 110.5,170.5 111.5,170.5C 140.174,169.388 168.841,168.055 197.5,166.5C 200.5,166.5 203.5,166.5 206.5,166.5C 209.388,167.01 211.721,166.344 213.5,164.5 Z"/></g>
<g><path style="opacity:0.263" fill="#382a1c" d="M 253.5,166.5 C 256.5,166.5 259.5,166.5 262.5,166.5C 270.323,167.329 278.323,167.829 286.5,168C 287.056,168.383 287.389,168.883 287.5,169.5C 285.877,180.898 283.71,192.232 281,203.5C 275.634,197.304 270.134,191.304 264.5,185.5C 261.375,184.521 258.042,184.187 254.5,184.5C 249.796,183.974 245.13,182.974 240.5,181.5C 238.527,182.331 236.527,182.498 234.5,182C 230.066,179.855 225.4,178.522 220.5,178C 217.141,175.966 216.808,173.632 219.5,171C 231.184,169.937 242.851,169.77 254.5,170.5C 254.567,169.041 254.234,167.708 253.5,166.5 Z"/></g>
<g><path style="opacity:0.983" fill="#293a44" d="M 194.5,173.5 C 190.958,182.252 186.624,190.585 181.5,198.5C 175.483,201.169 169.149,202.836 162.5,203.5C 161.25,203.423 160.417,202.756 160,201.5C 157.71,195.34 156.21,189.007 155.5,182.5C 156.791,182.737 157.791,182.404 158.5,181.5C 167.339,179.623 176.006,177.123 184.5,174C 187.817,173.502 191.15,173.335 194.5,173.5 Z"/></g>
<g><path style="opacity:0.985" fill="#283a44" d="M 197.5,174.5 C 206.818,177.163 216.151,179.83 225.5,182.5C 226.172,183.267 227.005,183.934 228,184.5C 232.751,194.281 237.584,203.948 242.5,213.5C 235.271,213.659 228.105,212.659 221,210.5C 213.234,212.567 205.4,214.234 197.5,215.5C 195.437,210.873 194.104,206.04 193.5,201C 194.756,192.147 196.089,183.314 197.5,174.5 Z"/></g>
<g><path style="opacity:0.981" fill="#7a826a" d="M 347.5,144.5 C 348.492,144.328 349.158,144.662 349.5,145.5C 348.504,159.323 348.171,173.323 348.5,187.5C 347.51,181.355 347.177,175.022 347.5,168.5C 347.5,160.5 347.5,152.5 347.5,144.5 Z"/></g>
<g><path style="opacity:0.966" fill="#c85a14" d="M 376.5,182.5 C 376.5,185.833 376.5,189.167 376.5,192.5C 375.508,192.328 374.842,192.662 374.5,193.5C 368.26,195.62 362.26,198.287 356.5,201.5C 354.412,199.664 353.079,197.331 352.5,194.5C 353.848,193.399 355.348,192.399 357,191.5C 357.498,188.183 357.665,184.85 357.5,181.5C 363.822,182.014 370.155,182.347 376.5,182.5 Z"/></g>
<g><path style="opacity:0.977" fill="#b1b17e" d="M 374.5,193.5 C 375.833,208.5 375.833,223.5 374.5,238.5C 371.134,231.768 367.801,225.101 364.5,218.5C 362.405,213.973 360.072,209.639 357.5,205.5C 356.766,204.292 356.433,202.959 356.5,201.5C 362.26,198.287 368.26,195.62 374.5,193.5 Z"/></g>
<g><path style="opacity:0.895" fill="#2c3a43" d="M 409.5,165.5 C 409.577,166.75 410.244,167.583 411.5,168C 410.544,171.394 410.211,174.894 410.5,178.5C 405.219,182.444 400.219,186.777 395.5,191.5C 400.167,195.167 404.833,198.833 409.5,202.5C 410.48,199.914 410.813,197.247 410.5,194.5C 411.167,201.678 411.833,209.011 412.5,216.5C 416.186,220.02 420.019,223.353 424,226.5C 424.5,207.17 424.667,187.836 424.5,168.5C 425.332,188.329 425.832,208.329 426,228.5C 428.566,231.066 431.066,233.566 433.5,236C 428.887,240.31 423.887,244.144 418.5,247.5C 412.771,246.823 407.105,245.823 401.5,244.5C 401.825,237.313 401.491,230.313 400.5,223.5C 394.09,220.922 387.424,218.922 380.5,217.5C 380.333,204.496 380.5,191.496 381,178.5C 385.274,174.113 390.441,171.446 396.5,170.5C 397.167,170.5 397.5,170.167 397.5,169.5C 401.426,167.969 405.426,166.636 409.5,165.5 Z"/></g>
<g><path style="opacity:0.929" fill="#161413" d="M 410.5,178.5 C 410.5,183.833 410.5,189.167 410.5,194.5C 410.813,197.247 410.48,199.914 409.5,202.5C 404.833,198.833 400.167,195.167 395.5,191.5C 400.219,186.777 405.219,182.444 410.5,178.5 Z"/></g>
<g><path style="opacity:0.49" fill="#2b2016" d="M 377.5,163.5 C 378.355,166.278 379.688,168.945 381.5,171.5C 382.446,171.987 383.446,172.32 384.5,172.5C 388.783,170.839 392.783,168.839 396.5,166.5C 396.5,167.833 396.5,169.167 396.5,170.5C 390.441,171.446 385.274,174.113 381,178.5C 380.5,191.496 380.333,204.496 380.5,217.5C 380.5,232.5 380.5,247.5 380.5,262.5C 380.337,264.857 380.503,267.19 381,269.5C 381.383,270.056 381.883,270.389 382.5,270.5C 380.462,273.808 378.795,277.308 377.5,281C 378.629,290.798 378.796,300.632 378,310.5C 377.79,308.942 377.29,307.609 376.5,306.5C 376.5,305.833 376.5,305.167 376.5,304.5C 376.5,300.167 376.5,295.833 376.5,291.5C 376.5,275.5 376.5,259.5 376.5,243.5C 376.5,242.5 376.5,241.5 376.5,240.5C 376.5,224.5 376.5,208.5 376.5,192.5C 376.5,189.167 376.5,185.833 376.5,182.5C 376.209,176.077 376.542,169.744 377.5,163.5 Z"/></g>
<g><path style="opacity:0.859" fill="#81805f" d="M 374.5,193.5 C 374.842,192.662 375.508,192.328 376.5,192.5C 376.5,208.5 376.5,224.5 376.5,240.5C 375.5,240.167 374.833,239.5 374.5,238.5C 375.833,223.5 375.833,208.5 374.5,193.5 Z"/></g>
<g><path style="opacity:0.989" fill="#131212" d="M 194.5,173.5 C 195.791,173.263 196.791,173.596 197.5,174.5C 196.089,183.314 194.756,192.147 193.5,201C 194.104,206.04 195.437,210.873 197.5,215.5C 205.4,214.234 213.234,212.567 221,210.5C 228.105,212.659 235.271,213.659 242.5,213.5C 237.584,203.948 232.751,194.281 228,184.5C 227.005,183.934 226.172,183.267 225.5,182.5C 235.058,184.213 244.725,184.879 254.5,184.5C 258.042,184.187 261.375,184.521 264.5,185.5C 257.677,195.805 250.844,206.138 244,216.5C 238.055,219.886 232.222,223.386 226.5,227C 228.826,231.318 231.159,235.651 233.5,240C 232.906,240.464 232.239,240.631 231.5,240.5C 225.973,238.102 220.306,236.102 214.5,234.5C 208.064,229.331 201.731,229.331 195.5,234.5C 191.5,236.833 187.5,239.167 183.5,241.5C 181.66,243.168 179.66,244.668 177.5,246C 176.365,246.749 175.365,246.583 174.5,245.5C 172.544,240.97 171.211,236.304 170.5,231.5C 173.683,227.48 176.683,223.314 179.5,219C 174.676,215.939 169.509,213.439 164,211.5C 163.517,212.448 163.351,213.448 163.5,214.5C 162.518,211.038 162.185,207.371 162.5,203.5C 169.149,202.836 175.483,201.169 181.5,198.5C 186.624,190.585 190.958,182.252 194.5,173.5 Z"/></g>
<g><path style="opacity:0.988" fill="#121212" d="M 215.5,187.5 C 216.5,187.5 217.5,187.5 218.5,187.5C 219.424,191.941 220.758,196.275 222.5,200.5C 218.15,201.408 213.816,202.408 209.5,203.5C 208.833,203.167 208.167,202.833 207.5,202.5C 206.079,198.972 205.412,195.306 205.5,191.5C 209.116,190.686 212.449,189.352 215.5,187.5 Z"/></g>
<g><path style="opacity:0.985" fill="#293943" d="M 170.5,231.5 C 168.015,225.887 165.681,220.22 163.5,214.5C 163.351,213.448 163.517,212.448 164,211.5C 169.509,213.439 174.676,215.939 179.5,219C 176.683,223.314 173.683,227.48 170.5,231.5 Z"/></g>
<g><path style="opacity:0.954" fill="#141312" d="M 380.5,217.5 C 387.424,218.922 394.09,220.922 400.5,223.5C 400.83,229.868 400.496,236.202 399.5,242.5C 398.833,242.167 398.167,241.833 397.5,241.5C 395.257,245.402 392.09,246.402 388,244.5C 387.383,245.449 387.549,246.282 388.5,247C 389.833,247.333 391.167,247.667 392.5,248C 391.74,249.441 391.074,250.941 390.5,252.5C 388.803,253.364 387.637,254.697 387,256.5C 386.667,255.833 386.333,255.167 386,254.5C 385.305,257.972 383.472,260.639 380.5,262.5C 380.5,247.5 380.5,232.5 380.5,217.5 Z"/></g>
<g><path style="opacity:0.984" fill="#817048" d="M 214.5,234.5 C 208.167,234.5 201.833,234.5 195.5,234.5C 201.731,229.331 208.064,229.331 214.5,234.5 Z"/></g>
<g><path style="opacity:0.979" fill="#3d5570" d="M 283.5,232.5 C 283.5,247.833 283.5,263.167 283.5,278.5C 283.598,282.25 282.431,285.583 280,288.5C 276.572,290.145 273.072,291.478 269.5,292.5C 266.306,293.758 262.973,294.424 259.5,294.5C 260.167,291.167 260.833,287.833 261.5,284.5C 265.64,282.261 269.64,279.761 273.5,277C 269.423,274.295 265.09,272.128 260.5,270.5C 260.5,267.833 260.5,265.167 260.5,262.5C 260.5,262.167 260.5,261.833 260.5,261.5C 264.966,259.434 269.299,257.1 273.5,254.5C 270.416,252.582 267.082,251.249 263.5,250.5C 262.486,249.326 261.153,248.66 259.5,248.5C 259.5,248.167 259.5,247.833 259.5,247.5C 265.754,243.918 271.754,239.918 277.5,235.5C 279.517,234.471 281.517,233.471 283.5,232.5 Z"/></g>
<g><path style="opacity:0.983" fill="#c6ad76" d="M 195.5,234.5 C 201.833,234.5 208.167,234.5 214.5,234.5C 220.306,236.102 225.973,238.102 231.5,240.5C 232.251,241.573 233.251,241.74 234.5,241C 237.691,238.574 241.025,236.407 244.5,234.5C 255.679,234.172 266.679,234.505 277.5,235.5C 271.754,239.918 265.754,243.918 259.5,247.5C 236.164,247.667 212.831,247.5 189.5,247C 186.353,246.351 184.353,244.518 183.5,241.5C 187.5,239.167 191.5,236.833 195.5,234.5 Z"/></g>
<g><path style="opacity:0.008" fill="#4f3d28" d="M 443.5,249.5 C 444.833,250.167 444.833,250.167 443.5,249.5 Z"/></g>
<g><path style="opacity:0.698" fill="#643a1f" d="M 259.5,248.5 C 261.153,248.66 262.486,249.326 263.5,250.5C 262.5,250.5 261.5,250.5 260.5,250.5C 260.5,254.167 260.5,257.833 260.5,261.5C 260.5,261.833 260.5,262.167 260.5,262.5C 259.514,258.03 259.181,253.363 259.5,248.5 Z"/></g>
<g><path style="opacity:0.008" fill="#4f3d28" d="M 442.5,250.5 C 442.833,250.5 443.167,250.5 443.5,250.5C 443.315,251.17 442.981,251.17 442.5,250.5 Z"/></g>
<g><path style="opacity:0.962" fill="#c75a15" d="M 263.5,250.5 C 267.082,251.249 270.416,252.582 273.5,254.5C 269.299,257.1 264.966,259.434 260.5,261.5C 260.5,257.833 260.5,254.167 260.5,250.5C 261.5,250.5 262.5,250.5 263.5,250.5 Z"/></g>
<g><path style="opacity:0.856" fill="#1c1816" d="M 400.5,223.5 C 401.491,230.313 401.825,237.313 401.5,244.5C 407.105,245.823 412.771,246.823 418.5,247.5C 418.5,248.5 418.5,249.5 418.5,250.5C 416.473,250.338 414.473,250.505 412.5,251C 402.606,257.773 392.606,264.273 382.5,270.5C 381.883,270.389 381.383,270.056 381,269.5C 380.503,267.19 380.337,264.857 380.5,262.5C 383.472,260.639 385.305,257.972 386,254.5C 386.333,255.167 386.667,255.833 387,256.5C 387.637,254.697 388.803,253.364 390.5,252.5C 391.074,250.941 391.74,249.441 392.5,248C 391.167,247.667 389.833,247.333 388.5,247C 387.549,246.282 387.383,245.449 388,244.5C 392.09,246.402 395.257,245.402 397.5,241.5C 398.167,241.833 398.833,242.167 399.5,242.5C 400.496,236.202 400.83,229.868 400.5,223.5 Z"/></g>
<g><path style="opacity:0.475" fill="#2b2219" d="M 284.5,231.5 C 288.894,242.645 291.061,254.311 291,266.5C 289.463,270.229 287.963,273.895 286.5,277.5C 285.609,278.11 284.609,278.443 283.5,278.5C 283.5,263.167 283.5,247.833 283.5,232.5C 284.167,232.5 284.5,232.167 284.5,231.5 Z"/></g>
<g><path style="opacity:0.915" fill="#151413" d="M 357.5,205.5 C 360.072,209.639 362.405,213.973 364.5,218.5C 364.063,220.074 363.063,221.241 361.5,222C 350.116,229.018 339.116,236.518 328.5,244.5C 335.809,248.607 343.476,252.107 351.5,255C 353.504,257.841 354.004,261.007 353,264.5C 343.709,268.2 334.209,271.367 324.5,274C 323.892,275.231 323.559,276.564 323.5,278C 324.742,282.45 325.242,286.95 325,291.5C 320.333,286.167 315.667,280.833 311,275.5C 310.289,273.633 310.789,272.133 312.5,271C 316.931,269.371 320.764,266.871 324,263.5C 324.333,256.833 324.667,250.167 325,243.5C 335.698,230.642 346.531,217.975 357.5,205.5 Z"/></g>
<g><path style="opacity:0.807" fill="#7f7d5a" d="M 376.5,243.5 C 376.5,259.5 376.5,275.5 376.5,291.5C 375.508,291.672 374.842,291.338 374.5,290.5C 375.833,275.5 375.833,260.5 374.5,245.5C 374.833,244.5 375.5,243.833 376.5,243.5 Z"/></g>
<g><path style="opacity:0.981" fill="#2a3a44" d="M 347.5,168.5 C 347.177,175.022 347.51,181.355 348.5,187.5C 349.584,190.004 350.917,192.337 352.5,194.5C 353.079,197.331 354.412,199.664 356.5,201.5C 356.433,202.959 356.766,204.292 357.5,205.5C 346.531,217.975 335.698,230.642 325,243.5C 324.667,250.167 324.333,256.833 324,263.5C 320.764,266.871 316.931,269.371 312.5,271C 310.789,272.133 310.289,273.633 311,275.5C 315.667,280.833 320.333,286.167 325,291.5C 325.242,286.95 324.742,282.45 323.5,278C 323.559,276.564 323.892,275.231 324.5,274C 334.209,271.367 343.709,268.2 353,264.5C 354.004,261.007 353.504,257.841 351.5,255C 343.476,252.107 335.809,248.607 328.5,244.5C 339.116,236.518 350.116,229.018 361.5,222C 363.063,221.241 364.063,220.074 364.5,218.5C 367.801,225.101 371.134,231.768 374.5,238.5C 374.833,239.5 375.5,240.167 376.5,240.5C 376.5,241.5 376.5,242.5 376.5,243.5C 375.5,243.833 374.833,244.5 374.5,245.5C 367.91,259.016 361.576,272.683 355.5,286.5C 353.566,290.303 352.232,294.303 351.5,298.5C 342.097,302.588 332.43,306.421 322.5,310C 321.106,310.956 320.439,312.289 320.5,314C 321.866,317.712 323.699,321.212 326,324.5C 326.749,325.635 326.583,326.635 325.5,327.5C 315.833,332.333 306.167,337.167 296.5,342C 295.167,342.667 293.833,342.667 292.5,342C 285.833,336.667 279.167,331.333 272.5,326C 282.828,325.5 293.161,325.334 303.5,325.5C 302.191,308.914 300.191,292.414 297.5,276C 297.167,275.5 296.833,275 296.5,274.5C 293.137,275.506 289.804,276.506 286.5,277.5C 287.963,273.895 289.463,270.229 291,266.5C 291.061,254.311 288.894,242.645 284.5,231.5C 284.091,224.408 283.091,217.408 281.5,210.5C 280.893,210.624 280.56,210.957 280.5,211.5C 274.167,215.5 267.833,219.5 261.5,223.5C 255.541,226.807 249.875,230.473 244.5,234.5C 241.025,236.407 237.691,238.574 234.5,241C 233.251,241.74 232.251,241.573 231.5,240.5C 232.239,240.631 232.906,240.464 233.5,240C 231.159,235.651 228.826,231.318 226.5,227C 232.222,223.386 238.055,219.886 244,216.5C 250.844,206.138 257.677,195.805 264.5,185.5C 270.134,191.304 275.634,197.304 281,203.5C 283.71,192.232 285.877,180.898 287.5,169.5C 296.617,175.568 305.617,181.901 314.5,188.5C 325.517,181.806 336.517,175.14 347.5,168.5 Z"/></g>
<g><path style="opacity:0.978" fill="#817047" d="M 280.5,211.5 C 280.56,210.957 280.893,210.624 281.5,210.5C 283.091,217.408 284.091,224.408 284.5,231.5C 284.5,232.167 284.167,232.5 283.5,232.5C 281.517,233.471 279.517,234.471 277.5,235.5C 266.679,234.505 255.679,234.172 244.5,234.5C 249.875,230.473 255.541,226.807 261.5,223.5C 268.313,224.491 275.313,224.825 282.5,224.5C 282.562,219.924 281.895,215.591 280.5,211.5 Z"/></g>
<g><path style="opacity:0.976" fill="#c4ac75" d="M 280.5,211.5 C 281.895,215.591 282.562,219.924 282.5,224.5C 275.313,224.825 268.313,224.491 261.5,223.5C 267.833,219.5 274.167,215.5 280.5,211.5 Z"/></g>
<g><path style="opacity:0.984" fill="#121211" d="M 297.5,202.5 C 304.992,206.079 312.325,209.912 319.5,214C 319.241,215.261 318.574,216.261 317.5,217C 311.167,220.833 304.833,224.667 298.5,228.5C 297.502,219.859 297.169,211.192 297.5,202.5 Z"/></g>
<g><path style="opacity:0.973" fill="#adab7a" d="M 374.5,245.5 C 375.833,260.5 375.833,275.5 374.5,290.5C 368.2,289.008 361.866,287.675 355.5,286.5C 361.576,272.683 367.91,259.016 374.5,245.5 Z"/></g>
<g><path style="opacity:0.965" fill="#c65915" d="M 260.5,270.5 C 265.09,272.128 269.423,274.295 273.5,277C 269.64,279.761 265.64,282.261 261.5,284.5C 260.514,280.03 260.181,275.363 260.5,270.5 Z"/></g>
<g><path style="opacity:0.976" fill="#2a3a44" d="M 246.5,276.5 C 241.34,283.839 236.34,291.339 231.5,299C 236.705,303.197 242.205,307.03 248,310.5C 247.892,305.72 248.725,301.386 250.5,297.5C 253.548,296.654 256.548,295.654 259.5,294.5C 262.973,294.424 266.306,293.758 269.5,292.5C 270.288,296.868 271.288,301.201 272.5,305.5C 272.167,306.5 271.833,307.5 271.5,308.5C 256.67,316.747 242.003,325.247 227.5,334C 225.888,334.72 224.388,334.554 223,333.5C 217.956,323.798 212.123,314.631 205.5,306C 202.167,305.333 198.833,305.333 195.5,306C 186.167,311.333 176.833,316.667 167.5,322C 164.928,325.819 165.095,329.652 168,333.5C 174.728,344.229 182.228,354.396 190.5,364C 191.908,364.315 193.241,363.982 194.5,363C 198.078,359.394 202.078,356.561 206.5,354.5C 204.375,363.89 200.709,372.556 195.5,380.5C 187.177,374.009 179.01,367.342 171,360.5C 165.234,363.929 159.734,367.762 154.5,372C 153.167,372.667 151.833,372.667 150.5,372C 145.457,367.288 140.123,362.955 134.5,359C 132.291,357.127 130.458,354.96 129,352.5C 127.67,346.201 127.004,339.868 127,333.5C 133.009,328.323 138.842,322.989 144.5,317.5C 140.539,311.871 135.873,306.871 130.5,302.5C 130.739,307.91 130.406,313.41 129.5,319C 116.868,320.254 104.368,322.087 92,324.5C 91.798,332.524 92.298,340.524 93.5,348.5C 93.4604,350.429 93.1271,352.262 92.5,354C 84.9111,355.918 77.2444,357.585 69.5,359C 74.2815,362.475 79.4482,365.309 85,367.5C 88.4877,364.012 91.9877,360.512 95.5,357C 105.173,356.315 114.839,355.982 124.5,356C 130.658,365.306 136.324,374.972 141.5,385C 140.552,385.483 139.552,385.649 138.5,385.5C 135.5,385.5 132.5,385.5 129.5,385.5C 126.941,385.198 124.607,385.532 122.5,386.5C 107.432,385.902 92.4324,385.569 77.5,385.5C 71.4018,386.117 65.7351,385.45 60.5,383.5C 58.915,374.225 58.415,364.892 59,355.5C 67.716,339.894 77.5494,325.061 88.5,311C 102.909,303.693 117.576,296.86 132.5,290.5C 138.849,292.896 145.182,295.396 151.5,298C 153.167,298.667 154.833,298.667 156.5,298C 160.149,291.185 164.149,284.685 168.5,278.5C 168.303,284.545 168.637,290.545 169.5,296.5C 182.704,290.81 195.871,284.81 209,278.5C 209.772,278.645 210.439,278.978 211,279.5C 212.502,283.838 214.502,287.838 217,291.5C 226.651,286.174 236.317,280.84 246,275.5C 246.399,275.728 246.565,276.062 246.5,276.5 Z"/></g>
<g><path style="opacity:0.967" fill="#c95913" d="M 355.5,286.5 C 361.866,287.675 368.2,289.008 374.5,290.5C 374.842,291.338 375.508,291.672 376.5,291.5C 376.5,295.833 376.5,300.167 376.5,304.5C 369.504,304.894 362.504,305.227 355.5,305.5C 354.404,302.968 353.071,300.635 351.5,298.5C 352.232,294.303 353.566,290.303 355.5,286.5 Z"/></g>
<g><path style="opacity:0.976" fill="#141313" d="M 165.5,274.5 C 166.5,274.5 167.5,274.5 168.5,274.5C 168.5,275.833 168.5,277.167 168.5,278.5C 164.149,284.685 160.149,291.185 156.5,298C 154.833,298.667 153.167,298.667 151.5,298C 145.182,295.396 138.849,292.896 132.5,290.5C 143.099,284.367 154.099,279.034 165.5,274.5 Z"/></g>
<g><path style="opacity:0.939" fill="#151514" d="M 246.5,276.5 C 247.167,276.5 247.5,276.833 247.5,277.5C 248.076,283.485 248.576,289.485 249,295.5C 249.717,296.044 250.217,296.711 250.5,297.5C 248.725,301.386 247.892,305.72 248,310.5C 242.205,307.03 236.705,303.197 231.5,299C 236.34,291.339 241.34,283.839 246.5,276.5 Z"/></g>
<g><path style="opacity:0.693" fill="#897957" d="M 441.5,292.5 C 441.56,291.957 441.893,291.624 442.5,291.5C 443.826,305.328 443.826,318.994 442.5,332.5C 442.829,318.99 442.496,305.656 441.5,292.5 Z"/></g>
<g><path style="opacity:0.35" fill="#33261b" d="M 165.5,274.5 C 154.099,279.034 143.099,284.367 132.5,290.5C 117.576,296.86 102.909,303.693 88.5,311C 77.5494,325.061 67.716,339.894 59,355.5C 58.415,364.892 58.915,374.225 60.5,383.5C 58.1633,381.035 56.6633,378.035 56,374.5C 55.6271,372.302 55.1271,370.135 54.5,368C 54.7591,366.739 55.4258,365.739 56.5,365C 55.7069,363.915 55.0402,362.748 54.5,361.5C 56.9738,355.601 59.1405,349.601 61,343.5C 66.6498,334.879 72.3164,326.213 78,317.5C 82.2183,312.615 87.0516,308.448 92.5,305C 100.356,301.24 108.022,297.24 115.5,293C 117.5,292.667 119.5,292.333 121.5,292C 132.457,285.271 143.957,279.438 156,274.5C 159.366,272.154 162.532,272.154 165.5,274.5 Z"/></g>
<g><path style="opacity:0.802" fill="#b8a06c" d="M 418.5,313.5 C 419.324,316.764 419.658,320.098 419.5,323.5C 419.771,328.913 419.271,334.246 418,339.5C 416.49,341.208 414.99,342.874 413.5,344.5C 413.154,342.366 414.154,340.533 416.5,339C 414.165,338.843 411.665,338.343 409,337.5C 407.564,337.559 406.231,337.892 405,338.5C 404.501,334.179 404.334,329.846 404.5,325.5C 408.847,321.155 413.514,317.155 418.5,313.5 Z"/></g>
<g><path style="opacity:0.879" fill="#b59d6b" d="M 441.5,292.5 C 442.496,305.656 442.829,318.99 442.5,332.5C 442.5,339.5 442.5,346.5 442.5,353.5C 441.317,354.504 439.984,355.338 438.5,356C 438.501,357.399 438.835,358.899 439.5,360.5C 437.813,361.568 436.146,361.401 434.5,360C 436.878,359.026 436.544,358.359 433.5,358C 433.833,357.667 434.167,357.333 434.5,357C 433.552,356.517 432.552,356.351 431.5,356.5C 431.688,348.645 431.854,340.645 432,332.5C 432.535,334.271 433.369,334.604 434.5,333.5C 433.492,331.501 432.159,329.834 430.5,328.5C 430.373,320.433 429.706,312.433 428.5,304.5C 430.5,302.5 432.5,300.5 434.5,298.5C 436.858,296.471 439.192,294.471 441.5,292.5 Z"/></g>
<g><path style="opacity:0.906" fill="#bca46e" d="M 394.5,334.5 C 394.5,344.5 394.5,354.5 394.5,364.5C 389.982,365.536 388.648,368.203 390.5,372.5C 390.154,373.696 389.654,373.696 389,372.5C 387.9,364.759 387.066,357.092 386.5,349.5C 386.335,346.482 386.502,343.482 387,340.5C 389.439,338.371 391.939,336.371 394.5,334.5 Z"/></g>
<g><path style="opacity:0.983" fill="#141312" d="M 351.5,298.5 C 353.071,300.635 354.404,302.968 355.5,305.5C 358.653,311.807 361.82,318.14 365,324.5C 365.058,329.74 363.891,334.74 361.5,339.5C 356.777,341.359 352.11,343.526 347.5,346C 343.601,349.698 342.101,354.198 343,359.5C 344.689,363.56 346.856,367.227 349.5,370.5C 347.983,376.555 346.149,382.555 344,388.5C 338.171,390.959 332.171,392.959 326,394.5C 313.877,387.1 301.877,379.434 290,371.5C 289.055,371.905 288.388,372.572 288,373.5C 286.771,386.212 285.104,398.879 283,411.5C 281.951,412.517 280.784,412.684 279.5,412C 275.423,409.295 271.09,407.128 266.5,405.5C 262.167,402.331 257.5,399.664 252.5,397.5C 249.451,395.137 246.118,393.137 242.5,391.5C 240.458,389.409 238.125,389.076 235.5,390.5C 233.928,386.06 232.428,381.726 231,377.5C 237.856,374.181 245.023,371.514 252.5,369.5C 253.356,366.861 253.19,364.194 252,361.5C 249.898,355.508 247.231,349.841 244,344.5C 236.336,347.722 228.503,350.555 220.5,353C 218.697,353.637 217.364,354.803 216.5,356.5C 219,362.833 221.5,369.167 224,375.5C 224.667,376.833 224.667,378.167 224,379.5C 215.578,388.09 207.078,396.424 198.5,404.5C 197.833,404.5 197.167,404.5 196.5,404.5C 195.109,402.11 193.109,400.443 190.5,399.5C 188.858,398.197 187.191,396.864 185.5,395.5C 181.833,393.5 178.167,391.5 174.5,389.5C 173.942,388.21 172.942,387.377 171.5,387C 160.29,386.264 149.29,385.764 138.5,385.5C 139.552,385.649 140.552,385.483 141.5,385C 136.324,374.972 130.658,365.306 124.5,356C 114.839,355.982 105.173,356.315 95.5,357C 91.9877,360.512 88.4877,364.012 85,367.5C 79.4482,365.309 74.2815,362.475 69.5,359C 77.2444,357.585 84.9111,355.918 92.5,354C 93.1271,352.262 93.4604,350.429 93.5,348.5C 92.298,340.524 91.798,332.524 92,324.5C 104.368,322.087 116.868,320.254 129.5,319C 130.406,313.41 130.739,307.91 130.5,302.5C 135.873,306.871 140.539,311.871 144.5,317.5C 138.842,322.989 133.009,328.323 127,333.5C 127.004,339.868 127.67,346.201 129,352.5C 130.458,354.96 132.291,357.127 134.5,359C 140.123,362.955 145.457,367.288 150.5,372C 151.833,372.667 153.167,372.667 154.5,372C 159.734,367.762 165.234,363.929 171,360.5C 179.01,367.342 187.177,374.009 195.5,380.5C 200.709,372.556 204.375,363.89 206.5,354.5C 202.078,356.561 198.078,359.394 194.5,363C 193.241,363.982 191.908,364.315 190.5,364C 182.228,354.396 174.728,344.229 168,333.5C 165.095,329.652 164.928,325.819 167.5,322C 176.833,316.667 186.167,311.333 195.5,306C 198.833,305.333 202.167,305.333 205.5,306C 212.123,314.631 217.956,323.798 223,333.5C 224.388,334.554 225.888,334.72 227.5,334C 242.003,325.247 256.67,316.747 271.5,308.5C 271.833,307.5 272.167,306.5 272.5,305.5C 271.288,301.201 270.288,296.868 269.5,292.5C 273.072,291.478 276.572,290.145 280,288.5C 282.431,285.583 283.598,282.25 283.5,278.5C 284.609,278.443 285.609,278.11 286.5,277.5C 289.804,276.506 293.137,275.506 296.5,274.5C 296.833,275 297.167,275.5 297.5,276C 300.191,292.414 302.191,308.914 303.5,325.5C 293.161,325.334 282.828,325.5 272.5,326C 279.167,331.333 285.833,336.667 292.5,342C 293.833,342.667 295.167,342.667 296.5,342C 306.167,337.167 315.833,332.333 325.5,327.5C 326.583,326.635 326.749,325.635 326,324.5C 323.699,321.212 321.866,317.712 320.5,314C 320.439,312.289 321.106,310.956 322.5,310C 332.43,306.421 342.097,302.588 351.5,298.5 Z"/></g>
<g><path style="opacity:0.988" fill="#97f1e3" d="M 153.5,337.5 C 165.109,337.247 168.109,342.081 162.5,352C 152.951,355.126 148.785,351.626 150,341.5C 151.376,340.295 152.542,338.962 153.5,337.5 Z"/></g>
<g><path style="opacity:0.984" fill="#283943" d="M 205.5,323.5 C 209.663,327.957 212.996,333.124 215.5,339C 215.355,339.772 215.022,340.439 214.5,341C 209.071,342.548 203.737,344.381 198.5,346.5C 199.366,338.555 201.699,330.889 205.5,323.5 Z"/></g>
<g><path style="opacity:0.985" fill="#283943" d="M 282.5,351.5 C 284.167,351.5 285.833,351.5 287.5,351.5C 287.666,355.514 287.499,359.514 287,363.5C 284.579,364.961 282.079,366.294 279.5,367.5C 276.677,363.864 274.344,359.864 272.5,355.5C 272.709,354.914 273.043,354.414 273.5,354C 276.797,353.796 279.797,352.963 282.5,351.5 Z"/></g>
<g><path style="opacity:0.975" fill="#293841" d="M 317.5,342.5 C 322.783,343.446 327.95,344.779 333,346.5C 333.158,350.861 331.992,354.861 329.5,358.5C 325.007,353.503 321.007,348.17 317.5,342.5 Z"/></g>
<g><path style="opacity:0.962" fill="#2b3a43" d="M 361.5,339.5 C 357.872,350.061 353.872,360.394 349.5,370.5C 346.856,367.227 344.689,363.56 343,359.5C 342.101,354.198 343.601,349.698 347.5,346C 352.11,343.526 356.777,341.359 361.5,339.5 Z"/></g>
<g><path style="opacity:0.894" fill="#2c3a42" d="M 235.5,390.5 C 231.047,392.226 226.714,394.226 222.5,396.5C 218.882,397.803 215.549,399.47 212.5,401.5C 208.368,402.769 204.368,404.435 200.5,406.5C 199.287,406.253 198.62,405.586 198.5,404.5C 207.078,396.424 215.578,388.09 224,379.5C 224.667,378.167 224.667,376.833 224,375.5C 221.5,369.167 219,362.833 216.5,356.5C 217.364,354.803 218.697,353.637 220.5,353C 228.503,350.555 236.336,347.722 244,344.5C 247.231,349.841 249.898,355.508 252,361.5C 253.19,364.194 253.356,366.861 252.5,369.5C 245.023,371.514 237.856,374.181 231,377.5C 232.428,381.726 233.928,386.06 235.5,390.5 Z"/></g>
<g><path style="opacity:0.827" fill="#a79061" d="M 419.5,323.5 C 421.25,338.482 421.583,353.482 420.5,368.5C 420.956,364.889 420.289,361.556 418.5,358.5C 420.184,357.146 420.684,355.479 420,353.5C 417.36,355.895 414.86,358.395 412.5,361C 413.862,363.439 415.695,363.939 418,362.5C 418.692,363.025 419.192,363.692 419.5,364.5C 415.722,366.255 411.722,366.922 407.5,366.5C 406.546,363.447 406.546,360.614 407.5,358C 409.421,357.64 411.088,356.806 412.5,355.5C 411.975,354.808 411.308,354.308 410.5,354C 414.126,352.278 414.959,349.778 413,346.5C 412.163,348.007 410.996,348.507 409.5,348C 410.833,347 410.833,346 409.5,345C 410.687,343.981 411.687,342.814 412.5,341.5C 412,341.167 411.5,340.833 411,340.5C 410.807,341.805 409.807,343.139 408,344.5C 407.259,343.359 406.425,343.359 405.5,344.5C 404.526,346.743 404.192,349.076 404.5,351.5C 403.507,343.35 403.174,335.017 403.5,326.5C 403.5,325.833 403.833,325.5 404.5,325.5C 404.334,329.846 404.501,334.179 405,338.5C 406.231,337.892 407.564,337.559 409,337.5C 411.665,338.343 414.165,338.843 416.5,339C 414.154,340.533 413.154,342.366 413.5,344.5C 414.99,342.874 416.49,341.208 418,339.5C 419.271,334.246 419.771,328.913 419.5,323.5 Z"/></g>
<g><path style="opacity:0.909" fill="#b9a06d" d="M 420.5,368.5 C 420.741,370.886 420.075,372.886 418.5,374.5C 416.364,376.812 414.364,379.312 412.5,382C 415.881,382.182 416.881,383.682 415.5,386.5C 412.825,385.149 410.159,384.815 407.5,385.5C 408.711,386.72 408.711,387.887 407.5,389C 411.275,389.358 414.941,390.691 418.5,393C 417.695,394.972 416.361,396.472 414.5,397.5C 411.972,396.483 411.972,395.316 414.5,394C 411.032,393.566 407.698,394.066 404.5,395.5C 404.5,380.833 404.5,366.167 404.5,351.5C 404.192,349.076 404.526,346.743 405.5,344.5C 406.425,343.359 407.259,343.359 408,344.5C 409.807,343.139 410.807,341.805 411,340.5C 411.5,340.833 412,341.167 412.5,341.5C 411.687,342.814 410.687,343.981 409.5,345C 410.833,346 410.833,347 409.5,348C 410.996,348.507 412.163,348.007 413,346.5C 414.959,349.778 414.126,352.278 410.5,354C 411.308,354.308 411.975,354.808 412.5,355.5C 411.088,356.806 409.421,357.64 407.5,358C 406.546,360.614 406.546,363.447 407.5,366.5C 411.722,366.922 415.722,366.255 419.5,364.5C 419.192,363.692 418.692,363.025 418,362.5C 415.695,363.939 413.862,363.439 412.5,361C 414.86,358.395 417.36,355.895 420,353.5C 420.684,355.479 420.184,357.146 418.5,358.5C 420.289,361.556 420.956,364.889 420.5,368.5 Z"/></g>
<g><path style="opacity:0.557" fill="#937c54" d="M 430.5,328.5 C 432.159,329.834 433.492,331.501 434.5,333.5C 433.369,334.604 432.535,334.271 432,332.5C 431.854,340.645 431.688,348.645 431.5,356.5C 432.552,356.351 433.552,356.517 434.5,357C 434.167,357.333 433.833,357.667 433.5,358C 436.544,358.359 436.878,359.026 434.5,360C 436.146,361.401 437.813,361.568 439.5,360.5C 438.835,358.899 438.501,357.399 438.5,356C 439.984,355.338 441.317,354.504 442.5,353.5C 442.913,364.587 442.247,375.587 440.5,386.5C 437.635,386.945 435.135,386.278 433,384.5C 432.333,383.833 432.333,383.167 433,382.5C 435.179,382.479 437.345,382.979 439.5,384C 438.167,382.667 436.833,381.333 435.5,380C 433.893,380.019 432.226,380.185 430.5,380.5C 430.5,363.167 430.5,345.833 430.5,328.5 Z"/></g>
<g><path style="opacity:0.845" fill="#76643f" d="M 403.5,326.5 C 403.174,335.017 403.507,343.35 404.5,351.5C 404.5,366.167 404.5,380.833 404.5,395.5C 404.363,406.946 400.363,416.613 392.5,424.5C 389.833,422.5 387.5,420.167 385.5,417.5C 388.104,415.4 390.604,413.067 393,410.5C 394.379,395.206 394.879,379.873 394.5,364.5C 394.5,354.5 394.5,344.5 394.5,334.5C 396.88,331.119 399.88,328.453 403.5,326.5 Z"/></g>
<g><path style="opacity:0.774" fill="#a58e61" d="M 386.5,349.5 C 387.066,357.092 387.9,364.759 389,372.5C 389.654,373.696 390.154,373.696 390.5,372.5C 388.648,368.203 389.982,365.536 394.5,364.5C 394.879,379.873 394.379,395.206 393,410.5C 390.604,413.067 388.104,415.4 385.5,417.5C 383.5,416.167 381.833,414.5 380.5,412.5C 383.912,410.148 385.746,406.815 386,402.5C 386.5,384.836 386.667,367.17 386.5,349.5 Z"/></g>
<g><path style="opacity:0.903" fill="#2f3d44" d="M 301.5,432.5 C 296.349,434.576 291.349,436.91 286.5,439.5C 286.5,438.833 286.5,438.167 286.5,437.5C 288.788,420.658 290.955,403.658 293,386.5C 293.036,384.059 293.869,382.059 295.5,380.5C 306.644,389.144 317.644,397.977 328.5,407C 331.221,409.361 333.388,411.861 335,414.5C 325.7,419.567 316.2,424.233 306.5,428.5C 305.504,422.537 305.171,416.537 305.5,410.5C 309.882,411.859 313.882,414.026 317.5,417C 318.793,417.49 320.127,417.657 321.5,417.5C 320.608,414.073 318.608,411.239 315.5,409C 312.167,406.333 308.833,403.667 305.5,401C 304.5,400.333 303.5,400.333 302.5,401C 301.513,411.418 301.18,421.918 301.5,432.5 Z"/></g>
<g><path style="opacity:0.352" fill="#32261a" d="M 77.5,385.5 C 92.4324,385.569 107.432,385.902 122.5,386.5C 122.779,389.118 123.446,391.618 124.5,394C 123.101,394.595 121.768,394.428 120.5,393.5C 118.772,395.226 116.772,396.559 114.5,397.5C 113.5,395.5 112.5,393.5 111.5,391.5C 108.908,397.196 107.241,403.196 106.5,409.5C 101.5,409.5 96.5,409.5 91.5,409.5C 90.0173,403.856 88.5173,398.189 87,392.5C 83.5452,391.713 80.0452,391.046 76.5,390.5C 77.3007,388.958 77.634,387.292 77.5,385.5 Z"/></g>
<g><path style="opacity:0.347" fill="#32261a" d="M 129.5,385.5 C 132.5,385.5 135.5,385.5 138.5,385.5C 149.29,385.764 160.29,386.264 171.5,387C 172.942,387.377 173.942,388.21 174.5,389.5C 174.666,395.176 174.499,400.843 174,406.5C 172.961,407.71 171.794,408.71 170.5,409.5C 169.351,409.209 168.684,408.376 168.5,407C 166.979,401.457 165.312,395.957 163.5,390.5C 161.478,396.445 159.645,402.445 158,408.5C 153.55,409.8 149.05,409.8 144.5,408.5C 143.254,403.166 141.254,398.166 138.5,393.5C 134.79,393.645 131.123,393.645 127.5,393.5C 128.295,390.856 128.962,388.189 129.5,385.5 Z"/></g>
<g><path style="opacity:0.847" fill="#786640" d="M 428.5,304.5 C 429.706,312.433 430.373,320.433 430.5,328.5C 430.5,345.833 430.5,363.167 430.5,380.5C 429.646,386.121 429.313,391.788 429.5,397.5C 430.552,397.351 431.552,397.517 432.5,398C 431.234,398.309 430.067,398.809 429,399.5C 428.722,405.949 427.722,412.282 426,418.5C 423.871,425.626 419.371,430.459 412.5,433C 405.221,434.247 397.888,434.747 390.5,434.5C 391.833,432.167 393.167,429.833 394.5,427.5C 404.044,428.898 411.544,425.564 417,417.5C 418.896,407.574 420.062,397.574 420.5,387.5C 419.91,386.201 418.91,385.368 417.5,385C 418.574,384.261 419.241,383.261 419.5,382C 418.576,380.85 418.576,379.85 419.5,379C 416.833,378 416.833,377 419.5,376C 418.944,375.617 418.611,375.117 418.5,374.5C 420.075,372.886 420.741,370.886 420.5,368.5C 421.583,353.482 421.25,338.482 419.5,323.5C 419.658,320.098 419.324,316.764 418.5,313.5C 421.211,309.788 424.544,306.788 428.5,304.5 Z"/></g>
<g><path style="opacity:0.269" fill="#3c3023" d="M 129.5,385.5 C 128.962,388.189 128.295,390.856 127.5,393.5C 131.123,393.645 134.79,393.645 138.5,393.5C 141.254,398.166 143.254,403.166 144.5,408.5C 149.05,409.8 153.55,409.8 158,408.5C 159.645,402.445 161.478,396.445 163.5,390.5C 165.312,395.957 166.979,401.457 168.5,407C 168.684,408.376 169.351,409.209 170.5,409.5C 137.002,410.332 103.336,410.832 69.5,411C 68.944,411.383 68.6107,411.883 68.5,412.5C 67.7784,412.918 67.2784,413.584 67,414.5C 66.8333,413.833 66.6667,413.167 66.5,412.5C 67.9634,410.711 68.9634,408.711 69.5,406.5C 71.5832,404.955 73.5832,403.122 75.5,401C 74.9415,400.275 74.6082,399.442 74.5,398.5C 75.1712,395.815 75.8379,393.148 76.5,390.5C 80.0452,391.046 83.5452,391.713 87,392.5C 88.5173,398.189 90.0173,403.856 91.5,409.5C 96.5,409.5 101.5,409.5 106.5,409.5C 107.241,403.196 108.908,397.196 111.5,391.5C 112.5,393.5 113.5,395.5 114.5,397.5C 116.772,396.559 118.772,395.226 120.5,393.5C 121.768,394.428 123.101,394.595 124.5,394C 123.446,391.618 122.779,389.118 122.5,386.5C 124.607,385.532 126.941,385.198 129.5,385.5 Z"/></g>
<g><path style="opacity:0.83" fill="#405366" d="M 242.5,391.5 C 246.118,393.137 249.451,395.137 252.5,397.5C 252.34,399.153 251.674,400.486 250.5,401.5C 246.029,402.089 242.029,401.423 238.5,399.5C 239.833,396.833 241.167,394.167 242.5,391.5 Z"/></g>
<g><path style="opacity:0.914" fill="#3f5468" d="M 222.5,396.5 C 222.702,398.95 222.369,401.283 221.5,403.5C 218.167,403.5 214.833,403.5 211.5,403.5C 211.833,402.833 212.167,402.167 212.5,401.5C 215.549,399.47 218.882,397.803 222.5,396.5 Z"/></g>
<g><path style="opacity:0.34" fill="#392b1d" d="M 434.5,298.5 C 432.5,300.5 430.5,302.5 428.5,304.5C 424.544,306.788 421.211,309.788 418.5,313.5C 413.514,317.155 408.847,321.155 404.5,325.5C 403.833,325.5 403.5,325.833 403.5,326.5C 399.88,328.453 396.88,331.119 394.5,334.5C 391.939,336.371 389.439,338.371 387,340.5C 386.502,343.482 386.335,346.482 386.5,349.5C 386.667,367.17 386.5,384.836 386,402.5C 385.746,406.815 383.912,410.148 380.5,412.5C 379.005,412.989 377.671,413.655 376.5,414.5C 374.565,415.15 372.565,415.483 370.5,415.5C 367.904,416.265 365.237,416.599 362.5,416.5C 360.409,416.318 358.409,416.652 356.5,417.5C 355.513,420.768 355.18,424.102 355.5,427.5C 354.833,427.5 354.5,427.167 354.5,426.5C 354.5,423.167 354.5,419.833 354.5,416.5C 351.5,416.5 348.5,416.5 345.5,416.5C 344.833,415.833 344.167,415.167 343.5,414.5C 343.343,413.127 343.51,411.793 344,410.5C 348.58,404.34 352.914,398.007 357,391.5C 363.727,374.655 370.06,357.655 376,340.5C 376.5,329.172 376.667,317.838 376.5,306.5C 377.29,307.609 377.79,308.942 378,310.5C 378.796,300.632 378.629,290.798 377.5,281C 378.795,277.308 380.462,273.808 382.5,270.5C 392.606,264.273 402.606,257.773 412.5,251C 414.473,250.505 416.473,250.338 418.5,250.5C 418.5,249.5 418.5,248.5 418.5,247.5C 423.887,244.144 428.887,240.31 433.5,236C 431.066,233.566 428.566,231.066 426,228.5C 425.832,208.329 425.332,188.329 424.5,168.5C 424.269,162.448 423.602,156.448 422.5,150.5C 425.45,148.885 428.116,146.885 430.5,144.5C 433.432,143.2 435.766,141.2 437.5,138.5C 438.458,138.047 439.292,137.381 440,136.5C 441.976,122.124 444.142,107.791 446.5,93.5C 447.404,92.791 447.737,91.791 447.5,90.5C 450.205,90.3802 450.872,91.3802 449.5,93.5C 450.689,94.4287 452.022,94.762 453.5,94.5C 452.396,100.078 451.062,105.578 449.5,111C 450.307,116.109 450.14,121.276 449,126.5C 448.464,128.869 447.297,130.869 445.5,132.5C 445.977,133.478 446.643,134.311 447.5,135C 444.101,139.772 440.435,144.272 436.5,148.5C 434.885,149.154 433.218,149.654 431.5,150C 432.574,150.739 433.241,151.739 433.5,153C 432.217,154.136 431.217,155.469 430.5,157C 430.538,162.77 431.205,168.603 432.5,174.5C 432.473,178.276 432.139,182.109 431.5,186C 432.211,188.796 432.878,191.63 433.5,194.5C 431.632,206.357 432.465,218.023 436,229.5C 436.887,234.072 436.22,238.405 434,242.5C 431.241,245.946 428.241,248.28 425,249.5C 421.803,251.667 418.97,254.167 416.5,257C 415.128,257.402 413.795,257.902 412.5,258.5C 412.089,257.738 411.923,256.738 412,255.5C 410.088,257.657 408.421,259.991 407,262.5C 405.951,261.483 404.784,261.316 403.5,262C 400.124,265.356 396.124,267.69 391.5,269C 387.473,271.694 384.139,275.027 381.5,279C 382.119,294.498 382.119,309.498 381.5,324C 383.874,326.332 385.208,328.832 385.5,331.5C 388.07,330.366 390.736,329.532 393.5,329C 400.961,321.367 408.628,314.034 416.5,307C 421.116,304.21 425.45,301.21 429.5,298C 429.167,297.667 428.833,297.333 428.5,297C 430.345,295.872 432.345,295.372 434.5,295.5C 434.5,296.5 434.5,297.5 434.5,298.5 Z"/></g>
<g><path style="opacity:0.12" fill="#463523" d="M 376.5,363.5 C 377.749,365.136 379.416,366.303 381.5,367C 381.756,371.028 381.756,375.361 381.5,380C 382.022,380.95 382.689,381.784 383.5,382.5C 383.789,384.218 383.456,386.052 382.5,388C 382.68,390.241 383.513,390.741 385,389.5C 383.735,393.618 382.235,397.785 380.5,402C 383.156,404.229 382.823,406.062 379.5,407.5C 380.025,408.192 380.692,408.692 381.5,409C 377.844,409.079 374.51,410.079 371.5,412C 366.679,412.128 362.012,412.128 357.5,412C 358.308,411.692 358.975,411.192 359.5,410.5C 357.418,409.634 356.085,408.134 355.5,406C 356.569,402.226 357.236,398.393 357.5,394.5C 358.675,394.719 359.675,394.386 360.5,393.5C 362.635,386.562 365.802,380.229 370,374.5C 370.333,372.5 370.667,370.5 371,368.5C 373.328,367.336 375.162,365.67 376.5,363.5 Z"/></g>
<g><path style="opacity:0.859" fill="#be5715" d="M 242.5,391.5 C 241.167,394.167 239.833,396.833 238.5,399.5C 232.814,411.202 225.148,421.536 215.5,430.5C 215.167,430.333 214.833,430.167 214.5,430C 217.955,421.467 220.289,412.633 221.5,403.5C 222.369,401.283 222.702,398.95 222.5,396.5C 226.714,394.226 231.047,392.226 235.5,390.5C 238.125,389.076 240.458,389.409 242.5,391.5 Z"/></g>
<g><path style="opacity:0.949" fill="#3d5268" d="M 190.5,399.5 C 193.109,400.443 195.109,402.11 196.5,404.5C 194.167,404.5 191.833,404.5 189.5,404.5C 189.216,402.585 189.549,400.919 190.5,399.5 Z"/></g>
<g><path style="opacity:0.946" fill="#c15815" d="M 252.5,397.5 C 257.5,399.664 262.167,402.331 266.5,405.5C 261.167,410.833 255.833,416.167 250.5,421.5C 247.203,424.296 244.036,427.296 241,430.5C 240.833,430.167 240.667,429.833 240.5,429.5C 244.411,420.35 247.745,411.017 250.5,401.5C 251.674,400.486 252.34,399.153 252.5,397.5 Z"/></g>
<g><path style="opacity:0.965" fill="#abaa79" d="M 376.5,304.5 C 376.5,305.167 376.5,305.833 376.5,306.5C 376.667,317.838 376.5,329.172 376,340.5C 370.06,357.655 363.727,374.655 357,391.5C 352.914,398.007 348.58,404.34 344,410.5C 343.51,411.793 343.343,413.127 343.5,414.5C 343.167,415.167 342.833,415.833 342.5,416.5C 329.851,422.992 316.851,428.658 303.5,433.5C 302.833,433.167 302.167,432.833 301.5,432.5C 301.18,421.918 301.513,411.418 302.5,401C 303.5,400.333 304.5,400.333 305.5,401C 308.833,403.667 312.167,406.333 315.5,409C 318.608,411.239 320.608,414.073 321.5,417.5C 320.127,417.657 318.793,417.49 317.5,417C 313.882,414.026 309.882,411.859 305.5,410.5C 305.171,416.537 305.504,422.537 306.5,428.5C 316.2,424.233 325.7,419.567 335,414.5C 333.388,411.861 331.221,409.361 328.5,407C 317.644,397.977 306.644,389.144 295.5,380.5C 293.869,382.059 293.036,384.059 293,386.5C 290.955,403.658 288.788,420.658 286.5,437.5C 285.711,437.217 285.044,436.717 284.5,436C 277.174,435.5 269.841,435.334 262.5,435.5C 263.091,434.849 263.757,434.182 264.5,433.5C 263.167,432.833 261.833,432.167 260.5,431.5C 261.326,430.549 261.492,429.549 261,428.5C 257.085,426.819 256.419,424.819 259,422.5C 261.033,423.016 261.033,422.35 259,420.5C 256.423,424.029 253.59,424.363 250.5,421.5C 255.833,416.167 261.167,410.833 266.5,405.5C 271.09,407.128 275.423,409.295 279.5,412C 280.784,412.684 281.951,412.517 283,411.5C 285.104,398.879 286.771,386.212 288,373.5C 288.388,372.572 289.055,371.905 290,371.5C 301.877,379.434 313.877,387.1 326,394.5C 332.171,392.959 338.171,390.959 344,388.5C 346.149,382.555 347.983,376.555 349.5,370.5C 353.872,360.394 357.872,350.061 361.5,339.5C 363.891,334.74 365.058,329.74 365,324.5C 361.82,318.14 358.653,311.807 355.5,305.5C 362.504,305.227 369.504,304.894 376.5,304.5 Z"/></g>
<g><path style="opacity:0.968" fill="#aead7b" d="M 174.5,389.5 C 178.167,391.5 181.833,393.5 185.5,395.5C 185.296,402.32 184.129,408.987 182,415.5C 180.149,419.157 177.316,421.49 173.5,422.5C 139.094,422.826 104.76,422.493 70.5,421.5C 69.0712,418.692 68.4045,415.692 68.5,412.5C 68.6107,411.883 68.944,411.383 69.5,411C 103.336,410.832 137.002,410.332 170.5,409.5C 171.794,408.71 172.961,407.71 174,406.5C 174.499,400.843 174.666,395.176 174.5,389.5 Z"/></g>
<g><path style="opacity:0.862" fill="#ba5616" d="M 212.5,401.5 C 212.167,402.167 211.833,402.833 211.5,403.5C 205.328,414.179 198.161,424.179 190,433.5C 191.639,426.51 193.639,419.51 196,412.5C 196.497,409.854 196.664,407.187 196.5,404.5C 197.167,404.5 197.833,404.5 198.5,404.5C 198.62,405.586 199.287,406.253 200.5,406.5C 204.368,404.435 208.368,402.769 212.5,401.5 Z"/></g>
<g><path style="opacity:0.966" fill="#a6a474" d="M 238.5,399.5 C 242.029,401.423 246.029,402.089 250.5,401.5C 247.745,411.017 244.411,420.35 240.5,429.5C 240.667,429.833 240.833,430.167 241,430.5C 244.036,427.296 247.203,424.296 250.5,421.5C 253.59,424.363 256.423,424.029 259,420.5C 261.033,422.35 261.033,423.016 259,422.5C 256.419,424.819 257.085,426.819 261,428.5C 261.492,429.549 261.326,430.549 260.5,431.5C 261.833,432.167 263.167,432.833 264.5,433.5C 263.757,434.182 263.091,434.849 262.5,435.5C 239.831,435.333 217.164,435.5 194.5,436C 190.759,438.732 186.759,441.066 182.5,443C 155.997,443.83 129.663,443.663 103.5,442.5C 109.724,443.061 115.724,442.395 121.5,440.5C 122.696,440.846 122.696,441.346 121.5,442C 127.196,442.83 132.863,442.663 138.5,441.5C 143.141,434.697 146.807,435.03 149.5,442.5C 153.182,442.665 156.848,442.499 160.5,442C 160.031,440.038 160.697,438.205 162.5,436.5C 166.727,438.286 167.727,437.619 165.5,434.5C 164.311,433.571 162.978,433.238 161.5,433.5C 161.884,431.335 161.217,429.668 159.5,428.5C 158.948,430.003 158.948,431.669 159.5,433.5C 156.737,433.744 154.571,435.077 153,437.5C 152.376,435.536 152.876,433.869 154.5,432.5C 153.738,432.089 152.738,431.923 151.5,432C 152.543,430.024 153.877,429.524 155.5,430.5C 156.711,429.726 156.711,428.893 155.5,428C 138.662,427.832 121.995,427.332 105.5,426.5C 109.833,426.5 114.167,426.5 118.5,426.5C 138.503,426.667 158.503,426.5 178.5,426C 185.977,420.882 189.643,413.715 189.5,404.5C 191.833,404.5 194.167,404.5 196.5,404.5C 196.664,407.187 196.497,409.854 196,412.5C 193.639,419.51 191.639,426.51 190,433.5C 198.161,424.179 205.328,414.179 211.5,403.5C 214.833,403.5 218.167,403.5 221.5,403.5C 220.289,412.633 217.955,421.467 214.5,430C 214.833,430.167 215.167,430.333 215.5,430.5C 225.148,421.536 232.814,411.202 238.5,399.5 Z"/></g>
<g><path style="opacity:0.846" fill="#b09867" d="M 418.5,374.5 C 418.611,375.117 418.944,375.617 419.5,376C 416.833,377 416.833,378 419.5,379C 418.576,379.85 418.576,380.85 419.5,382C 419.241,383.261 418.574,384.261 417.5,385C 418.91,385.368 419.91,386.201 420.5,387.5C 420.062,397.574 418.896,407.574 417,417.5C 411.544,425.564 404.044,428.898 394.5,427.5C 393.833,426.5 393.167,425.5 392.5,424.5C 400.363,416.613 404.363,406.946 404.5,395.5C 407.698,394.066 411.032,393.566 414.5,394C 411.972,395.316 411.972,396.483 414.5,397.5C 416.361,396.472 417.695,394.972 418.5,393C 414.941,390.691 411.275,389.358 407.5,389C 408.711,387.887 408.711,386.72 407.5,385.5C 410.159,384.815 412.825,385.149 415.5,386.5C 416.881,383.682 415.881,382.182 412.5,382C 414.364,379.312 416.364,376.812 418.5,374.5 Z"/></g>
<g><path style="opacity:0.483" fill="#2c2218" d="M 185.5,395.5 C 187.191,396.864 188.858,398.197 190.5,399.5C 189.549,400.919 189.216,402.585 189.5,404.5C 189.643,413.715 185.977,420.882 178.5,426C 158.503,426.5 138.503,426.667 118.5,426.5C 103.994,425.833 89.3278,425.167 74.5,424.5C 107.664,423.833 140.664,423.167 173.5,422.5C 177.316,421.49 180.149,419.157 182,415.5C 184.129,408.987 185.296,402.32 185.5,395.5 Z"/></g>
<g><path style="opacity:0.885" fill="#b59d6b" d="M 440.5,386.5 C 440.058,390.154 439.724,393.821 439.5,397.5C 438.333,407.502 435.833,417.169 432,426.5C 427.958,434.209 421.791,439.376 413.5,442C 404.506,442.5 395.506,442.666 386.5,442.5C 387.399,439.605 388.733,436.938 390.5,434.5C 397.888,434.747 405.221,434.247 412.5,433C 419.371,430.459 423.871,425.626 426,418.5C 427.722,412.282 428.722,405.949 429,399.5C 430.067,398.809 431.234,398.309 432.5,398C 431.552,397.517 430.552,397.351 429.5,397.5C 429.313,391.788 429.646,386.121 430.5,380.5C 432.226,380.185 433.893,380.019 435.5,380C 436.833,381.333 438.167,382.667 439.5,384C 437.345,382.979 435.179,382.479 433,382.5C 432.333,383.167 432.333,383.833 433,384.5C 435.135,386.278 437.635,386.945 440.5,386.5 Z"/></g>
<g><path style="opacity:0.008" fill="#4f3d28" d="M 442.5,441.5 C 442.833,441.5 443.167,441.5 443.5,441.5C 443.315,442.17 442.981,442.17 442.5,441.5 Z"/></g>
<g><path style="opacity:0.207" fill="#403121" d="M 242.5,443.5 C 239.728,443.78 237.228,443.113 235,441.5C 232.539,442.218 230.039,442.885 227.5,443.5C 217.224,443.901 207.058,443.901 197,443.5C 190.962,447.925 184.128,450.258 176.5,450.5C 166.742,450.789 157.242,450.455 148,449.5C 146.941,449.63 146.108,450.13 145.5,451C 130.459,451.896 115.459,451.563 100.5,450C 83.6188,445.78 71.6188,435.78 64.5,420C 65.1567,418.305 65.1567,416.472 64.5,414.5C 64.6569,410.846 66.3236,408.179 69.5,406.5C 68.9634,408.711 67.9634,410.711 66.5,412.5C 66.6667,413.167 66.8333,413.833 67,414.5C 67.2784,413.584 67.7784,412.918 68.5,412.5C 68.4045,415.692 69.0712,418.692 70.5,421.5C 69.2613,422.212 68.7613,423.212 69,424.5C 71.6566,427.147 73.8232,430.147 75.5,433.5C 78.3418,434.004 79.6751,435.671 79.5,438.5C 84.3369,441.131 89.3369,443.631 94.5,446C 101.379,447.857 108.379,449.024 115.5,449.5C 125.114,448.271 134.781,448.271 144.5,449.5C 146.5,448.833 148.5,448.167 150.5,447.5C 157.211,448.077 163.877,448.411 170.5,448.5C 174.779,447.726 179.113,447.226 183.5,447C 190.589,444.606 198.089,442.439 206,440.5C 219.1,440.311 232.267,440.311 245.5,440.5C 246.167,439.833 246.833,439.167 247.5,438.5C 257.527,439.753 267.527,441.253 277.5,443C 290.678,454.576 305.845,458.076 323,453.5C 334.401,454.101 345.735,454.435 357,454.5C 361.469,454.022 365.802,453.022 370,451.5C 374.852,452.009 379.518,451.009 384,448.5C 384.561,449.022 385.228,449.355 386,449.5C 389.58,448.614 392.913,447.28 396,445.5C 398.041,445.357 400.208,445.691 402.5,446.5C 403.931,446.023 405.264,445.357 406.5,444.5C 399.532,443.503 392.532,443.17 385.5,443.5C 385.5,442.833 385.833,442.5 386.5,442.5C 395.506,442.666 404.506,442.5 413.5,442C 421.791,439.376 427.958,434.209 432,426.5C 435.833,417.169 438.333,407.502 439.5,397.5C 440.375,395.432 441.541,393.432 443,391.5C 443.085,389.915 443.251,388.582 443.5,387.5C 444.354,388.522 445.354,389.355 446.5,390C 445.313,391.019 444.313,392.186 443.5,393.5C 443.846,394.696 444.346,394.696 445,393.5C 445.44,395.076 446.273,396.41 447.5,397.5C 445.02,398.415 444.353,399.915 445.5,402C 442.554,406.459 441.887,411.292 443.5,416.5C 442.05,419.343 440.884,422.343 440,425.5C 439.107,424.289 438.274,424.289 437.5,425.5C 439.13,430.075 437.463,432.908 432.5,434C 432.167,437 430.5,438.667 427.5,439C 426.624,440.586 425.624,442.086 424.5,443.5C 418.331,445.96 411.998,447.96 405.5,449.5C 402.957,449.36 400.623,448.694 398.5,447.5C 395.851,449.206 393.018,450.539 390,451.5C 386.905,451.022 383.905,451.022 381,451.5C 379.274,451.946 377.774,452.779 376.5,454C 374.231,454.758 372.064,454.591 370,453.5C 368.207,455.806 366.04,456.139 363.5,454.5C 361.833,455.167 360.167,455.833 358.5,456.5C 352.64,455.793 346.473,455.459 340,455.5C 335,456.167 330,456.833 325,457.5C 317.687,457.108 310.187,457.108 302.5,457.5C 298.065,456.76 293.731,455.593 289.5,454C 284.328,450.915 279.328,447.581 274.5,444C 269.803,443.72 265.137,443.22 260.5,442.5C 254.391,442.403 248.391,442.737 242.5,443.5 Z"/></g>
<g><path style="opacity:0.265" fill="#392c1d" d="M 70.5,421.5 C 104.76,422.493 139.094,422.826 173.5,422.5C 140.664,423.167 107.664,423.833 74.5,424.5C 89.3278,425.167 103.994,425.833 118.5,426.5C 114.167,426.5 109.833,426.5 105.5,426.5C 95.1613,426.334 84.828,426.5 74.5,427C 82.5108,435.338 92.1775,440.504 103.5,442.5C 129.663,443.663 155.997,443.83 182.5,443C 186.759,441.066 190.759,438.732 194.5,436C 217.164,435.5 239.831,435.333 262.5,435.5C 269.841,435.334 277.174,435.5 284.5,436C 285.044,436.717 285.711,437.217 286.5,437.5C 286.5,438.167 286.5,438.833 286.5,439.5C 285.527,441.068 285.36,442.735 286,444.5C 287.5,446 289,447.5 290.5,449C 295.489,449.499 300.489,449.666 305.5,449.5C 311.167,449.5 316.833,449.5 322.5,449.5C 322.917,450.124 323.584,450.457 324.5,450.5C 341.139,449.443 357.806,448.777 374.5,448.5C 374.5,447.5 374.5,446.5 374.5,445.5C 378.167,444.833 381.833,444.167 385.5,443.5C 392.532,443.17 399.532,443.503 406.5,444.5C 405.264,445.357 403.931,446.023 402.5,446.5C 400.208,445.691 398.041,445.357 396,445.5C 392.913,447.28 389.58,448.614 386,449.5C 385.228,449.355 384.561,449.022 384,448.5C 379.518,451.009 374.852,452.009 370,451.5C 365.802,453.022 361.469,454.022 357,454.5C 345.735,454.435 334.401,454.101 323,453.5C 305.845,458.076 290.678,454.576 277.5,443C 267.527,441.253 257.527,439.753 247.5,438.5C 246.833,439.167 246.167,439.833 245.5,440.5C 232.267,440.311 219.1,440.311 206,440.5C 198.089,442.439 190.589,444.606 183.5,447C 179.113,447.226 174.779,447.726 170.5,448.5C 163.877,448.411 157.211,448.077 150.5,447.5C 148.5,448.167 146.5,448.833 144.5,449.5C 134.781,448.271 125.114,448.271 115.5,449.5C 108.379,449.024 101.379,447.857 94.5,446C 89.3369,443.631 84.3369,441.131 79.5,438.5C 79.6751,435.671 78.3418,434.004 75.5,433.5C 73.8232,430.147 71.6566,427.147 69,424.5C 68.7613,423.212 69.2613,422.212 70.5,421.5 Z"/></g>
<g><path style="opacity:0.911" fill="#171514" d="M 301.5,432.5 C 302.167,432.833 302.833,433.167 303.5,433.5C 304.26,438.82 304.927,444.153 305.5,449.5C 300.489,449.666 295.489,449.499 290.5,449C 289,447.5 287.5,446 286,444.5C 285.36,442.735 285.527,441.068 286.5,439.5C 291.349,436.91 296.349,434.576 301.5,432.5 Z"/></g>
<g><path style="opacity:0.854" fill="#1b1815" d="M 343.5,414.5 C 344.167,415.167 344.833,415.833 345.5,416.5C 348.529,419.859 351.529,423.192 354.5,426.5C 354.5,427.167 354.833,427.5 355.5,427.5C 357.5,430.167 359.833,432.5 362.5,434.5C 365.895,438.898 369.895,442.564 374.5,445.5C 374.5,446.5 374.5,447.5 374.5,448.5C 357.806,448.777 341.139,449.443 324.5,450.5C 323.584,450.457 322.917,450.124 322.5,449.5C 324.624,448.969 326.124,447.635 327,445.5C 332.207,435.748 337.373,426.081 342.5,416.5C 342.833,415.833 343.167,415.167 343.5,414.5 Z"/></g>
<g><path style="opacity:0.875" fill="#b85618" d="M 362.5,416.5 C 362.5,422.5 362.5,428.5 362.5,434.5C 359.833,432.5 357.5,430.167 355.5,427.5C 355.18,424.102 355.513,420.768 356.5,417.5C 358.409,416.652 360.409,416.318 362.5,416.5 Z"/></g>
<g><path style="opacity:0.898" fill="#2d3a42" d="M 342.5,416.5 C 337.373,426.081 332.207,435.748 327,445.5C 326.124,447.635 324.624,448.969 322.5,449.5C 316.833,449.5 311.167,449.5 305.5,449.5C 304.927,444.153 304.26,438.82 303.5,433.5C 316.851,428.658 329.851,422.992 342.5,416.5 Z"/></g>
<g><path style="opacity:0.969" fill="#afae7c" d="M 105.5,426.5 C 121.995,427.332 138.662,427.832 155.5,428C 156.711,428.893 156.711,429.726 155.5,430.5C 153.877,429.524 152.543,430.024 151.5,432C 152.738,431.923 153.738,432.089 154.5,432.5C 152.876,433.869 152.376,435.536 153,437.5C 154.571,435.077 156.737,433.744 159.5,433.5C 158.948,431.669 158.948,430.003 159.5,428.5C 161.217,429.668 161.884,431.335 161.5,433.5C 162.978,433.238 164.311,433.571 165.5,434.5C 167.727,437.619 166.727,438.286 162.5,436.5C 160.697,438.205 160.031,440.038 160.5,442C 156.848,442.499 153.182,442.665 149.5,442.5C 146.807,435.03 143.141,434.697 138.5,441.5C 132.863,442.663 127.196,442.83 121.5,442C 122.696,441.346 122.696,440.846 121.5,440.5C 115.724,442.395 109.724,443.061 103.5,442.5C 92.1775,440.504 82.5108,435.338 74.5,427C 84.828,426.5 95.1613,426.334 105.5,426.5 Z"/></g>
<g><path style="opacity:0.91" fill="#bb5515" d="M 376.5,414.5 C 377.492,421.982 377.825,429.648 377.5,437.5C 375.167,437.5 372.833,437.5 370.5,437.5C 370.5,430.167 370.5,422.833 370.5,415.5C 372.565,415.483 374.565,415.15 376.5,414.5 Z"/></g>
<g><path style="opacity:0.906" fill="#3f5368" d="M 380.5,412.5 C 381.833,414.5 383.5,416.167 385.5,417.5C 387.5,420.167 389.833,422.5 392.5,424.5C 393.167,425.5 393.833,426.5 394.5,427.5C 393.167,429.833 391.833,432.167 390.5,434.5C 388.733,436.938 387.399,439.605 386.5,442.5C 385.833,442.5 385.5,442.833 385.5,443.5C 381.833,444.167 378.167,444.833 374.5,445.5C 369.895,442.564 365.895,438.898 362.5,434.5C 362.5,428.5 362.5,422.5 362.5,416.5C 365.237,416.599 367.904,416.265 370.5,415.5C 370.5,422.833 370.5,430.167 370.5,437.5C 372.833,437.5 375.167,437.5 377.5,437.5C 377.825,429.648 377.492,421.982 376.5,414.5C 377.671,413.655 379.005,412.989 380.5,412.5 Z"/></g>
<g><path style="opacity:0.895" fill="#3a5167" d="M 345.5,416.5 C 348.5,416.5 351.5,416.5 354.5,416.5C 354.5,419.833 354.5,423.167 354.5,426.5C 351.529,423.192 348.529,419.859 345.5,416.5 Z"/></g>
<g><path style="opacity:0.008" fill="#503d28" d="M 437.5,447.5 C 438.833,448.167 438.833,448.167 437.5,447.5 Z"/></g>
</svg>
