<?xml version="1.0" encoding="UTF-8"?>
<!DOCTYPE svg PUBLIC "-//W3C//DTD SVG 1.1//EN" "http://www.w3.org/Graphics/SVG/1.1/DTD/svg11.dtd">
<svg xmlns="http://www.w3.org/2000/svg" version="1.1" width="500px" height="500px" style="shape-rendering:geometricPrecision; text-rendering:geometricPrecision; image-rendering:optimizeQuality; fill-rule:evenodd; clip-rule:evenodd" xmlns:xlink="http://www.w3.org/1999/xlink">
<g><path style="opacity:0.04" fill="#4e3a27" d="M 436.5,404.5 C 433.515,406.255 431.015,408.588 429,411.5C 427.136,423.134 423.469,433.467 418,442.5C 409.985,449.411 400.485,453.578 389.5,455C 379.5,455.856 369.5,456.689 359.5,457.5C 324.271,457.244 289.271,457.244 254.5,457.5C 251.547,457.349 248.714,456.683 246,455.5C 245.127,455.735 244.293,456.069 243.5,456.5C 239.761,454.842 236.261,453.509 233,452.5C 228.448,452.267 223.948,450.933 219.5,448.5C 218.614,447.675 218.281,446.675 218.5,445.5C 216.856,445.714 215.356,445.38 214,444.5C 210.638,439.092 207.304,433.759 204,428.5C 201.379,421.091 200.212,413.591 200.5,406C 199.285,389.765 197.451,389.598 195,405.5C 193.64,407.105 192.14,408.605 190.5,410C 185.331,409.78 180.331,410.78 175.5,413C 172.422,415.752 169.089,418.086 165.5,420C 153.85,422.628 142.517,421.628 131.5,417C 127.863,412.942 125.863,408.109 125.5,402.5C 126.282,399.398 126.282,396.232 125.5,393C 126.21,385.874 127.543,378.874 129.5,372C 128.596,363.172 128.429,354.338 129,345.5C 123.658,338.161 118.325,330.827 113,323.5C 103.62,304.314 98.4533,283.981 97.5,262.5C 93.7845,262.32 90.1178,262.654 86.5,263.5C 74.2994,264.059 64.2994,259.893 56.5,251C 56.8333,250.667 57.1667,250.333 57.5,250C 54.6258,247.314 52.4591,244.148 51,240.5C 48.7978,229.409 49.1311,218.409 52,207.5C 53.526,203.888 55.6926,200.721 58.5,198C 66.8023,192.999 75.8023,189.666 85.5,188C 94.295,183.015 101.795,176.515 108,168.5C 109.653,163.109 108.153,158.942 103.5,156C 101.365,155.365 99.3646,155.699 97.5,157C 95.5406,163.983 93.0406,170.816 90,177.5C 82.8576,184.543 74.1909,187.876 64,187.5C 55.3952,187.713 47.5619,185.546 40.5,181C 36.1241,176.749 33.4574,171.582 32.5,165.5C 32.4217,158.34 32.5883,151.007 33,143.5C 34.087,139.234 35.7536,135.234 38,131.5C 39.1096,129.963 40.6096,129.297 42.5,129.5C 42.33,128.178 42.6634,127.011 43.5,126C 48.619,123.348 53.9524,121.181 59.5,119.5C 47.8539,116.947 39.6873,110.281 35,99.5C 34.594,95.7279 33.7607,92.0613 32.5,88.5C 33.419,86.2581 33.419,83.7581 32.5,81C 33.8821,58.1348 46.2154,47.3014 69.5,48.5C 73.1667,48.6667 76.8333,48.8333 80.5,49C 86.5236,50.784 92.357,52.9507 98,55.5C 122.869,47.2882 148.369,42.6215 174.5,41.5C 186.368,41.6859 198.035,43.1859 209.5,46C 219.171,49.0017 228.838,52.0017 238.5,55C 239.667,55.5 240.5,56.3333 241,57.5C 252.122,55.434 263.289,52.1006 274.5,47.5C 275.086,47.7093 275.586,48.0426 276,48.5C 286.218,44.3501 296.884,42.0167 308,41.5C 322.434,41.4662 336.934,42.6329 351.5,45C 365.221,47.8828 378.388,51.3828 391,55.5C 398.435,54.187 405.435,51.8536 412,48.5C 420.762,48.2551 429.596,48.7551 438.5,50C 441.305,51.9795 444.305,53.6461 447.5,55C 447.167,55.3333 446.833,55.6667 446.5,56C 453.006,59.3559 455.673,64.3559 454.5,71C 455.13,72.892 456.13,74.5587 457.5,76C 457.559,80.9648 457.393,86.1315 457,91.5C 456,95.5 455,99.5 454,103.5C 451.09,104.45 449.923,106.45 450.5,109.5C 446.095,110.553 442.428,112.886 439.5,116.5C 436.446,117.347 433.446,118.347 430.5,119.5C 434.064,120.966 437.73,122.132 441.5,123C 446.835,124.993 451.001,128.493 454,133.5C 455.218,137.545 456.552,141.545 458,145.5C 462.293,178.192 447.793,191.692 414.5,186C 409.699,185.016 405.532,182.85 402,179.5C 398.638,173.177 396.138,166.51 394.5,159.5C 390.897,154.328 387.064,154.328 383,159.5C 381,162.833 381,166.167 383,169.5C 389.721,177.574 397.554,184.074 406.5,189C 433.704,191.547 445.204,206.381 441,233.5C 435.721,253.343 423.221,263.343 403.5,263.5C 400.595,262.187 397.595,261.687 394.5,262C 392.847,266.803 391.847,271.803 391.5,277C 391.333,279.5 392.5,280.667 395,280.5C 404.987,278.927 414.487,280.427 423.5,285C 424.687,286.019 425.687,287.186 426.5,288.5C 439.644,292.506 448.477,300.506 453,312.5C 455.485,313.987 457.652,315.821 459.5,318C 459.167,318.333 458.833,318.667 458.5,319C 461.364,321.913 462.364,325.247 461.5,329C 462.654,335.402 463.988,341.736 465.5,348C 464.926,355.245 464.76,362.412 465,369.5C 464.165,373.065 462.665,376.232 460.5,379C 460.833,379.333 461.167,379.667 461.5,380C 458.189,384.076 455.522,388.576 453.5,393.5C 450.341,396.255 447.174,398.922 444,401.5C 441.466,403.386 438.966,404.386 436.5,404.5 Z M 424.5,118.5 C 427.001,118.511 427.168,119.178 425,120.5C 424.536,119.906 424.369,119.239 424.5,118.5 Z M 265.5,99.5 C 269.888,100.88 274.222,103.047 278.5,106C 281.02,107.763 283.353,109.763 285.5,112C 272.785,110.079 259.952,108.912 247,108.5C 233.862,108.562 220.862,109.895 208,112.5C 207.167,112.167 206.333,111.833 205.5,111.5C 207.5,110.167 209.167,108.5 210.5,106.5C 220.711,101.469 231.044,96.6361 241.5,92C 243.833,91.3333 246.167,91.3333 248.5,92C 254.454,93.9797 260.12,96.4797 265.5,99.5 Z M 287.5,392.5 C 289.467,392.261 291.301,392.594 293,393.5C 293.662,395.813 294.162,398.146 294.5,400.5C 288.834,400.425 286.501,397.758 287.5,392.5 Z"/></g>
<g><path style="opacity:0.204" fill="#473323" d="M 180.5,397.5 C 181.446,381.357 189.446,375.857 204.5,381C 205.469,382.758 206.636,383.258 208,382.5C 208.815,384.623 209.815,386.623 211,388.5C 211.031,393.188 211.864,397.688 213.5,402C 213.355,402.772 213.022,403.439 212.5,404C 213.562,407.149 214.895,409.982 216.5,412.5C 217.507,415.322 218.34,418.322 219,421.5C 220.011,422.337 221.178,422.67 222.5,422.5C 224.262,423.262 225.262,424.596 225.5,426.5C 223.915,427.002 223.415,428.002 224,429.5C 228.255,432.377 232.422,435.377 236.5,438.5C 238.073,438.248 239.406,437.582 240.5,436.5C 241.609,436.557 242.609,436.89 243.5,437.5C 244.975,439.41 246.975,440.576 249.5,441C 256.346,441.821 263.013,441.654 269.5,440.5C 272.167,440.5 274.833,440.5 277.5,440.5C 282.64,441.488 287.974,441.821 293.5,441.5C 294.167,441.5 294.833,441.5 295.5,441.5C 301.271,442.113 306.604,441.446 311.5,439.5C 313.167,439.5 314.833,439.5 316.5,439.5C 320.029,441.423 324.029,442.089 328.5,441.5C 328.281,440.325 328.614,439.325 329.5,438.5C 331.623,439.694 333.957,440.36 336.5,440.5C 338.952,440.461 340.952,439.794 342.5,438.5C 344.5,438.5 346.5,438.5 348.5,438.5C 348.414,439.496 348.748,440.329 349.5,441C 351,441.167 352.5,441.333 354,441.5C 355.986,441.431 357.486,440.765 358.5,439.5C 359.167,439.5 359.833,439.5 360.5,439.5C 362.117,440.972 364.117,441.639 366.5,441.5C 368.045,441.489 369.378,441.156 370.5,440.5C 377.488,438.987 384.321,436.653 391,433.5C 392.046,435.195 393.213,435.528 394.5,434.5C 395.695,434.678 396.862,435.011 398,435.5C 401.965,433.276 405.298,430.276 408,426.5C 408.384,424.803 408.218,423.137 407.5,421.5C 408.434,420.432 408.768,419.099 408.5,417.5C 409.833,417.5 411.167,417.5 412.5,417.5C 413.477,412.101 413.477,406.768 412.5,401.5C 412.557,400.391 412.89,399.391 413.5,398.5C 418.114,396.206 422.114,393.206 425.5,389.5C 426.609,389.443 427.609,389.11 428.5,388.5C 435.814,388.867 439.814,385.201 440.5,377.5C 441.906,377.027 442.573,376.027 442.5,374.5C 445.48,374.359 447.48,372.859 448.5,370C 448.095,369.055 447.428,368.388 446.5,368C 447.667,367.5 448.5,366.667 449,365.5C 449.499,361.514 449.666,357.514 449.5,353.5C 448.065,350.972 447.065,348.305 446.5,345.5C 449.452,338.302 448.285,331.635 443,325.5C 441.53,324.733 440.03,324.067 438.5,323.5C 438.167,322.833 437.833,322.167 437.5,321.5C 437.319,317.305 435.653,313.805 432.5,311C 428.565,308.054 424.398,305.554 420,303.5C 418.97,303.836 418.47,304.503 418.5,305.5C 417.292,304.766 415.959,304.433 414.5,304.5C 415.145,301.453 414.145,299.287 411.5,298C 408.376,296.686 405.209,295.52 402,294.5C 399.889,294.701 398.055,295.367 396.5,296.5C 392.24,294.719 388.573,295.552 385.5,299C 383.098,299.814 380.765,299.647 378.5,298.5C 377.885,296.884 376.885,295.551 375.5,294.5C 376.212,291.352 376.879,288.186 377.5,285C 376.294,282.983 376.627,281.149 378.5,279.5C 376.645,269.884 377.312,260.551 380.5,251.5C 380.392,250.558 380.059,249.725 379.5,249C 380.728,246.428 382.395,244.262 384.5,242.5C 387.495,243.664 390.495,244.83 393.5,246C 394.337,247.011 394.67,248.178 394.5,249.5C 398.57,250.329 402.57,250.662 406.5,250.5C 409.109,249.77 411.776,249.27 414.5,249C 416.845,246.986 418.845,244.653 420.5,242C 421.449,241.383 422.282,241.549 423,242.5C 424.185,240.13 425.351,237.797 426.5,235.5C 426.32,234.446 425.987,233.446 425.5,232.5C 426.143,227.302 426.81,222.135 427.5,217C 423.794,209.97 418.127,204.97 410.5,202C 401.091,200.167 392.758,196.167 385.5,190C 383.028,188.54 380.361,187.54 377.5,187C 374.934,183.929 372.767,180.095 371,175.5C 370.667,176.167 370.333,176.833 370,177.5C 370.59,171.738 370.423,166.238 369.5,161C 371.31,157.243 373.31,153.576 375.5,150C 380.998,146.394 386.831,143.561 393,141.5C 395.329,143.759 397.829,144.926 400.5,145C 399.833,145.333 399.167,145.667 398.5,146C 402.241,148.922 404.574,152.755 405.5,157.5C 406.675,157.281 407.675,157.614 408.5,158.5C 409.167,160.5 409.833,162.5 410.5,164.5C 411.325,165.386 412.325,165.719 413.5,165.5C 415.046,168.2 417.379,170.033 420.5,171C 430.935,173.53 438.435,170.03 443,160.5C 444.479,149.57 440.313,141.736 430.5,137C 412.209,137.52 395.876,132.353 381.5,121.5C 378.871,118.369 376.038,115.369 373,112.5C 368.052,105.075 367.385,97.4085 371,89.5C 373.805,86.8493 376.971,84.8493 380.5,83.5C 387.463,82.4734 394.13,83.6401 400.5,87C 404.456,93.2904 409.456,98.6237 415.5,103C 430.783,105.219 439.783,98.7189 442.5,83.5C 442.22,75.4364 438.553,69.6031 431.5,66C 420.885,61.9869 411.552,63.9869 403.5,72C 397.833,72.6667 392.167,72.6667 386.5,72C 370.68,67.0354 354.68,62.7021 338.5,59C 319.845,56.2413 301.512,57.2413 283.5,62C 274.015,66.3021 270.015,73.6354 271.5,84C 280.435,87.4662 288.768,91.9662 296.5,97.5C 295.789,100.864 296.956,103.197 300,104.5C 303.977,110.788 307.144,117.454 309.5,124.5C 309.045,127.251 307.711,129.418 305.5,131C 302.167,131.667 298.833,131.667 295.5,131C 284.14,126.988 272.473,123.821 260.5,121.5C 247.865,121.348 235.199,121.682 222.5,122.5C 211.389,126.811 199.889,129.811 188,131.5C 180.693,130.186 178.693,126.186 182,119.5C 183.968,115.589 186.301,111.922 189,108.5C 193.267,103.559 198.1,99.392 203.5,96C 213.144,93.2204 220.811,88.0538 226.5,80.5C 230.082,78.6931 233.416,76.3597 236.5,73.5C 233.852,71.9618 231.185,70.6285 228.5,69.5C 228.586,68.5041 228.252,67.6708 227.5,67C 223.053,66.3653 219.053,64.6987 215.5,62C 206.701,58.5225 197.701,55.6892 188.5,53.5C 187.833,53.8333 187.167,54.1667 186.5,54.5C 180.833,53.8333 175.167,53.1667 169.5,52.5C 166.525,54.7028 163.358,55.0361 160,53.5C 152.19,54.7349 144.356,55.7349 136.5,56.5C 136.64,58.1238 135.973,59.2904 134.5,60C 135.167,60.3333 135.833,60.6667 136.5,61C 124.479,61.3394 112.813,63.3394 101.5,67C 97.5,67.6667 93.5,67.6667 89.5,67C 85.8333,65.3333 82.1667,63.6667 78.5,62C 74.389,61.6975 70.389,60.8642 66.5,59.5C 60.9353,60.9518 55.602,62.9518 50.5,65.5C 47.9442,71.5076 45.9442,77.8409 44.5,84.5C 48.4959,102.932 59.8292,109.765 78.5,105C 80.5081,102.467 83.0081,100.634 86,99.5C 87.9426,96.3881 90.4426,93.7214 93.5,91.5C 92.4937,90.6043 92.4937,89.9377 93.5,89.5C 94.6681,91.3969 96.3348,91.5636 98.5,90C 114.925,89.3202 119.425,96.4869 112,111.5C 106.839,115.661 102.006,120.161 97.5,125C 86.5544,130.556 74.8877,132.889 62.5,132C 46.1809,137.812 41.0142,148.979 47,165.5C 48.0113,166.337 49.1779,166.67 50.5,166.5C 51.1785,170.016 53.1785,172.516 56.5,174C 60.7223,173.96 64.889,174.126 69,174.5C 70.8882,174.204 72.7216,173.704 74.5,173C 77.5378,169.302 80.5378,165.636 83.5,162C 83.1667,161.667 82.8333,161.333 82.5,161C 84.6462,158.205 85.8128,155.039 86,151.5C 87.3613,149.972 88.528,148.305 89.5,146.5C 89.1667,145.833 88.8333,145.167 88.5,144.5C 94.0657,142.238 99.7324,142.071 105.5,144C 107.49,145.751 109.823,146.751 112.5,147C 114.293,149.795 116.46,152.295 119,154.5C 119.417,158.925 120.251,163.258 121.5,167.5C 120.822,172.311 119.822,176.978 118.5,181.5C 117.167,181.5 115.833,181.5 114.5,181.5C 114.5,182.833 114.5,184.167 114.5,185.5C 107.981,188.771 101.648,192.605 95.5,197C 92.3428,198.578 89.0094,199.578 85.5,200C 82.6469,202.596 79.3135,204.429 75.5,205.5C 74.0656,206.588 73.0656,207.922 72.5,209.5C 70.8061,211.861 68.8061,213.861 66.5,215.5C 63.3921,216.048 61.7255,217.882 61.5,221C 61.402,225.75 61.902,230.584 63,235.5C 65.3062,240.306 68.8062,243.973 73.5,246.5C 74.3857,247.325 74.719,248.325 74.5,249.5C 80.5043,251.35 86.5043,251.516 92.5,250C 95.2791,247.737 98.4458,246.237 102,245.5C 104.436,247.246 106.936,247.913 109.5,247.5C 107.697,249.205 107.031,251.038 107.5,253C 109.569,253.324 109.902,254.158 108.5,255.5C 109.945,265.157 111.445,274.824 113,284.5C 114.069,287.208 115.236,289.875 116.5,292.5C 115.238,294.575 115.405,296.575 117,298.5C 117.333,298.167 117.667,297.833 118,297.5C 118.333,300.167 118.667,302.833 119,305.5C 125.659,317.474 133.325,328.807 142,339.5C 142.869,341.581 143.369,343.747 143.5,346C 142.48,352.48 142.314,358.98 143,365.5C 143.383,366.056 143.883,366.389 144.5,366.5C 145.11,367.391 145.443,368.391 145.5,369.5C 145.622,371.228 145.622,373.061 145.5,375C 146.509,376.168 147.509,377.335 148.5,378.5C 147.365,380.799 146.032,382.966 144.5,385C 144.728,385.399 145.062,385.565 145.5,385.5C 144.469,386.249 143.302,386.915 142,387.5C 141.602,393.856 141.935,400.189 143,406.5C 145.713,402.908 148.547,399.408 151.5,396C 152.448,395.517 153.448,395.351 154.5,395.5C 153.577,399.861 153.577,404.194 154.5,408.5C 157.91,405.335 160.577,401.668 162.5,397.5C 162.369,398.239 162.536,398.906 163,399.5C 166.464,396.851 170.297,394.851 174.5,393.5C 176.819,394.793 178.152,396.793 178.5,399.5C 171.152,402.095 164.486,405.262 158.5,409C 132.755,410.906 126.422,400.24 139.5,377C 137.147,371.421 135.814,365.588 135.5,359.5C 140.028,347.991 137.528,338.324 128,330.5C 123.127,323.924 118.627,317.09 114.5,310C 114.833,309.667 115.167,309.333 115.5,309C 111.89,301.548 108.89,293.881 106.5,286C 106.833,285.667 107.167,285.333 107.5,285C 105.477,275.257 103.811,265.423 102.5,255.5C 100.703,251.233 98.3695,250.733 95.5,254C 92.0815,254.521 88.7481,255.355 85.5,256.5C 74.7902,254.388 66.1236,248.555 59.5,239C 57.2989,235.177 55.9656,231.344 55.5,227.5C 56.1633,224.194 56.6633,220.861 57,217.5C 59.7369,213.43 62.5702,209.097 65.5,204.5C 77.5416,198.391 89.875,192.724 102.5,187.5C 109.49,182.154 114.156,175.154 116.5,166.5C 115.919,162.586 114.753,158.586 113,154.5C 106.831,147.323 99.9974,146.656 92.5,152.5C 89.2855,156.992 87.1188,161.992 86,167.5C 84.2866,168.878 82.9533,170.545 82,172.5C 79.8333,173.333 78.3333,174.833 77.5,177C 72.3378,178.673 67.1711,180.173 62,181.5C 58.927,180.142 55.7603,178.975 52.5,178C 51.2567,176.846 50.2567,175.512 49.5,174C 48.062,173.781 46.7287,173.281 45.5,172.5C 44.8257,170.483 43.6591,168.817 42,167.5C 40.0203,163.432 38.8537,159.432 38.5,155.5C 39.3972,151.514 40.2306,147.514 41,143.5C 43.5574,140.608 45.724,137.441 47.5,134C 53.2514,130.691 59.2514,127.858 65.5,125.5C 75.2048,125.793 84.5381,123.959 93.5,120C 97.3097,117.687 100.976,115.187 104.5,112.5C 107.421,109.158 109.421,105.325 110.5,101C 109.584,95.2465 106.251,92.9131 100.5,94C 97.9861,95.7573 95.3194,97.2573 92.5,98.5C 89.3407,102.492 85.674,105.992 81.5,109C 78.1776,109.059 75.3443,110.226 73,112.5C 65.4542,112.154 57.9542,109.987 50.5,106C 35.5948,90.6964 35.9281,75.3631 51.5,60C 56.1526,57.4597 60.986,55.293 66,53.5C 73.4846,55.1366 80.9846,57.6366 88.5,61C 97.2364,63.24 105.57,62.0733 113.5,57.5C 114.086,57.7093 114.586,58.0426 115,58.5C 134.48,52.4767 154.48,48.8101 175,47.5C 177.279,47.4387 179.279,48.1054 181,49.5C 183.054,48.9212 185.054,48.5879 187,48.5C 187.689,49.3567 188.522,50.0233 189.5,50.5C 191.768,49.4557 194.101,49.289 196.5,50C 199.778,50.9193 202.945,52.0859 206,53.5C 206.414,53.0426 206.914,52.7093 207.5,52.5C 215.785,55.7276 224.118,58.8943 232.5,62C 234.241,63.6196 236.075,65.1196 238,66.5C 239.462,72.7003 238.629,78.7003 235.5,84.5C 229.5,88.1667 223.5,91.8333 217.5,95.5C 206.091,100.434 195.924,107.101 187,115.5C 185.498,119.15 185.331,122.816 186.5,126.5C 188.341,127.23 190.175,127.897 192,128.5C 202.263,123.301 213.429,119.634 225.5,117.5C 238.134,117.711 250.8,117.711 263.5,117.5C 268.672,120.026 274.006,121.026 279.5,120.5C 281.733,121.742 283.899,123.076 286,124.5C 286.414,124.043 286.914,123.709 287.5,123.5C 292.183,126.232 297.183,127.399 302.5,127C 303.899,125.938 304.899,124.605 305.5,123C 304.338,119.853 303.338,116.686 302.5,113.5C 301.022,113.762 299.689,113.429 298.5,112.5C 294.958,109.07 291.958,105.237 289.5,101C 283.691,97.429 277.691,94.429 271.5,92C 270.019,91.0197 268.685,89.853 267.5,88.5C 264.834,89.7378 262.168,89.7378 259.5,88.5C 256.678,84.8721 253.845,81.2054 251,77.5C 248.474,73.3997 249.307,70.2331 253.5,68C 252.359,67.2588 252.359,66.4255 253.5,65.5C 259.101,61.3404 265.434,58.8404 272.5,58C 274.001,56.7485 275.668,55.7485 277.5,55C 281.211,54.8253 284.878,54.3253 288.5,53.5C 288.977,52.5224 289.643,51.6891 290.5,51C 295.137,50.0037 299.804,49.1704 304.5,48.5C 312.753,48.5124 320.919,48.5124 329,48.5C 330.981,48.6292 332.647,49.2958 334,50.5C 337.667,50.6334 341.334,50.6334 345,50.5C 349.773,51.9017 354.607,53.0683 359.5,54C 362.99,54.8904 366.157,56.3904 369,58.5C 371.737,57.3895 374.571,57.2228 377.5,58C 381.05,59.6981 384.716,61.1981 388.5,62.5C 392.471,61.8028 396.471,61.3028 400.5,61C 406.309,58.1702 412.475,56.3368 419,55.5C 422.063,56.4693 425.23,57.4693 428.5,58.5C 432.622,57.0685 435.622,58.7352 437.5,63.5C 439.496,62.3904 441.329,62.7237 443,64.5C 443.878,67.2154 445.378,69.5487 447.5,71.5C 447.291,72.086 446.957,72.586 446.5,73C 448.019,74.3513 449.352,75.8513 450.5,77.5C 450.39,79.0982 450.057,80.7648 449.5,82.5C 450.167,83.1667 450.833,83.8333 451.5,84.5C 449.807,85.2283 448.307,86.2283 447,87.5C 447.149,90.6842 446.816,94.0175 446,97.5C 443.756,99.3206 442.59,101.654 442.5,104.5C 441.448,104.351 440.448,104.517 439.5,105C 438.833,107 437.5,108.333 435.5,109C 431.838,110.163 428.172,111.33 424.5,112.5C 420.204,111.474 415.871,110.641 411.5,110C 408.751,107.577 405.751,105.577 402.5,104C 399.465,97.4921 393.965,93.6588 386,92.5C 383.402,93.3009 381.069,94.6342 379,96.5C 379.404,98.6403 378.904,100.807 377.5,103C 378.472,105.111 379.305,107.278 380,109.5C 384.729,113.794 389.562,117.961 394.5,122C 399.74,123.413 404.74,125.413 409.5,128C 418.166,127.744 426.833,128.41 435.5,130C 438.298,131.63 440.965,133.463 443.5,135.5C 447.078,140.785 449.745,146.118 451.5,151.5C 450.227,153.984 450.227,156.484 451.5,159C 450.353,163.223 448.686,167.223 446.5,171C 441.251,173.098 435.918,175.098 430.5,177C 423.362,178.09 416.862,176.59 411,172.5C 406.967,165.147 402.967,157.813 399,150.5C 397.355,148.338 395.188,147.005 392.5,146.5C 389.178,146.795 385.678,147.462 382,148.5C 380.6,150.396 378.767,151.729 376.5,152.5C 374.974,156.66 373.641,160.827 372.5,165C 373.096,168.882 373.929,172.716 375,176.5C 384.915,188.888 397.748,196.555 413.5,199.5C 417.421,202.043 421.254,204.71 425,207.5C 428.768,212.86 431.268,218.694 432.5,225C 432.259,228.207 431.759,231.374 431,234.5C 426.459,242.04 420.293,247.874 412.5,252C 410.001,252.286 407.835,252.119 406,251.5C 405.5,252 405,252.5 404.5,253C 401.693,253.037 399.026,253.204 396.5,253.5C 395.353,253.182 394.519,252.516 394,251.5C 391.43,252.009 389.097,253.009 387,254.5C 385.972,265.239 384.805,276.073 383.5,287C 384,288.833 385.167,290 387,290.5C 391.84,288.553 396.84,287.22 402,286.5C 413.499,288.334 423.332,293.501 431.5,302C 433.246,302.471 434.913,303.138 436.5,304C 440.373,310.218 445.04,315.884 450.5,321C 449.833,321.333 449.167,321.667 448.5,322C 450.005,324.67 452.005,326.836 454.5,328.5C 453.624,329.251 452.624,329.751 451.5,330C 454.81,330.791 455.81,332.624 454.5,335.5C 454.875,337.459 455.541,339.293 456.5,341C 452.903,343.991 452.57,347.324 455.5,351C 453.586,352.854 452.92,354.854 453.5,357C 457.565,359.47 457.231,361.303 452.5,362.5C 453.263,363.719 454.263,364.719 455.5,365.5C 452.841,366.159 451.174,367.826 450.5,370.5C 451.025,371.192 451.692,371.692 452.5,372C 450.156,372.837 448.156,374.171 446.5,376C 447.167,376.667 447.833,377.333 448.5,378C 446.561,378.908 445.561,380.408 445.5,382.5C 444.5,382.5 443.5,382.5 442.5,382.5C 442.983,386.577 441.316,388.91 437.5,389.5C 437.44,393.396 435.44,395.562 431.5,396C 426.665,400.506 422.998,405.84 420.5,412C 421.815,413.395 421.481,414.395 419.5,415C 419.833,415.333 420.167,415.667 420.5,416C 419.166,418.66 418.332,421.494 418,424.5C 415.148,426.871 413.314,429.871 412.5,433.5C 406.321,436.879 400.321,440.379 394.5,444C 391.458,444.178 388.625,445.012 386,446.5C 383.719,444.027 381.386,444.027 379,446.5C 375.277,446.195 371.61,446.195 368,446.5C 366.667,447.167 365.333,447.833 364,448.5C 354.52,448.938 345.02,448.272 335.5,446.5C 331.987,447.121 328.487,447.787 325,448.5C 324.228,448.355 323.561,448.022 323,447.5C 315.667,448.167 308.333,448.833 301,449.5C 291.786,448.909 282.453,448.909 273,449.5C 265.685,449.499 258.851,447.832 252.5,444.5C 251.707,445.355 252.04,446.189 253.5,447C 251.65,449.033 250.984,449.033 251.5,447C 248.987,444.209 246.487,443.709 244,445.5C 236.758,443.663 230.091,440.663 224,436.5C 222.991,434.975 222.491,433.308 222.5,431.5C 220.516,431.617 218.85,430.95 217.5,429.5C 215.468,426.632 213.635,423.632 212,420.5C 211.529,415.638 210.362,410.971 208.5,406.5C 209.718,403.522 209.385,400.688 207.5,398C 209.857,390.017 207.023,384.85 199,382.5C 196.036,382.883 193.37,383.883 191,385.5C 190.667,385.167 190.333,384.833 190,384.5C 188.673,388.802 186.34,392.468 183,395.5C 182.667,394.833 182.333,394.167 182,393.5C 181.79,395.058 181.29,396.391 180.5,397.5 Z M 265.5,99.5 C 260.12,96.4797 254.454,93.9797 248.5,92C 246.167,91.3333 243.833,91.3333 241.5,92C 231.044,96.6361 220.711,101.469 210.5,106.5C 209.167,108.5 207.5,110.167 205.5,111.5C 206.333,111.833 207.167,112.167 208,112.5C 220.862,109.895 233.862,108.562 247,108.5C 259.952,108.912 272.785,110.079 285.5,112C 283.353,109.763 281.02,107.763 278.5,106C 274.222,103.047 269.888,100.88 265.5,99.5 Z M 287.5,392.5 C 286.501,397.758 288.834,400.425 294.5,400.5C 294.162,398.146 293.662,395.813 293,393.5C 291.301,392.594 289.467,392.261 287.5,392.5 Z"/></g>
<g><path style="opacity:0.339" fill="#432e21" d="M 94.5,138.5 C 118.018,137.688 128.351,149.021 125.5,172.5C 118.433,185.401 108.433,195.568 95.5,203C 89.1945,204.461 82.8611,205.794 76.5,207C 75.5291,208.481 74.1958,209.315 72.5,209.5C 73.0656,207.922 74.0656,206.588 75.5,205.5C 79.3135,204.429 82.6469,202.596 85.5,200C 89.0094,199.578 92.3428,198.578 95.5,197C 101.648,192.605 107.981,188.771 114.5,185.5C 114.5,184.167 114.5,182.833 114.5,181.5C 115.833,181.5 117.167,181.5 118.5,181.5C 119.822,176.978 120.822,172.311 121.5,167.5C 120.251,163.258 119.417,158.925 119,154.5C 116.46,152.295 114.293,149.795 112.5,147C 109.823,146.751 107.49,145.751 105.5,144C 99.7324,142.071 94.0657,142.238 88.5,144.5C 88.8333,145.167 89.1667,145.833 89.5,146.5C 88.528,148.305 87.3613,149.972 86,151.5C 85.8128,155.039 84.6462,158.205 82.5,161C 82.8333,161.333 83.1667,161.667 83.5,162C 80.5378,165.636 77.5378,169.302 74.5,173C 72.7216,173.704 70.8882,174.204 69,174.5C 64.889,174.126 60.7223,173.96 56.5,174C 53.1785,172.516 51.1785,170.016 50.5,166.5C 55.9606,170.947 62.294,172.447 69.5,171C 72.9024,169.6 75.7357,167.433 78,164.5C 79.8196,158.616 81.1529,152.616 82,146.5C 85.3365,142.422 89.5032,139.755 94.5,138.5 Z"/></g>
<g><path style="opacity:0.974" fill="#557061" d="M 125.5,172.5 C 128.351,149.021 118.018,137.688 94.5,138.5C 108.766,132.397 123.766,129.564 139.5,130C 141.002,130.583 142.335,131.416 143.5,132.5C 144.585,135.773 144.752,139.106 144,142.5C 139.567,154.031 133.567,164.698 126,174.5C 125.536,173.906 125.369,173.239 125.5,172.5 Z"/></g>
<g><path style="opacity:0.934" fill="#557060" d="M 394.5,138.5 C 379.579,136.209 369.746,142.209 365,156.5C 364.215,162.249 364.382,167.916 365.5,173.5C 365.225,175.842 364.392,175.842 363,173.5C 358.032,165.187 353.032,156.854 348,148.5C 342.347,132.916 347.514,126.75 363.5,130C 374.142,132.153 384.476,134.987 394.5,138.5 Z"/></g>
<g><path style="opacity:0.924" fill="#443b42" d="M 380.5,83.5 C 381.263,82.7321 382.263,82.2321 383.5,82C 383.167,81.6667 382.833,81.3333 382.5,81C 373.852,79.9057 365.185,79.5724 356.5,80C 351.481,80.1176 346.815,81.4509 342.5,84C 339.329,89.4311 340.329,94.0978 345.5,98C 357.434,106.132 369.434,113.966 381.5,121.5C 395.876,132.353 412.209,137.52 430.5,137C 440.313,141.736 444.479,149.57 443,160.5C 438.435,170.03 430.935,173.53 420.5,171C 417.379,170.033 415.046,168.2 413.5,165.5C 412.68,163.86 411.847,162.193 411,160.5C 411.814,148.476 406.314,141.143 394.5,138.5C 384.476,134.987 374.142,132.153 363.5,130C 347.514,126.75 342.347,132.916 348,148.5C 353.032,156.854 358.032,165.187 363,173.5C 364.392,175.842 365.225,175.842 365.5,173.5C 375.845,193.323 392.178,204.823 414.5,208C 423.543,212.752 427.043,220.252 425,230.5C 419.924,245.292 410.091,250.125 395.5,245C 392.37,242.872 389.537,240.372 387,237.5C 384.494,228.636 382.494,219.636 381,210.5C 366.31,180.476 344.644,156.809 316,139.5C 315.667,132.833 315.333,126.167 315,119.5C 310.413,110.754 304.246,103.421 296.5,97.5C 288.768,91.9662 280.435,87.4662 271.5,84C 270.015,73.6354 274.015,66.3021 283.5,62C 301.512,57.2413 319.845,56.2413 338.5,59C 354.68,62.7021 370.68,67.0354 386.5,72C 392.167,72.6667 397.833,72.6667 403.5,72C 411.552,63.9869 420.885,61.9869 431.5,66C 438.553,69.6031 442.22,75.4364 442.5,83.5C 439.783,98.7189 430.783,105.219 415.5,103C 409.456,98.6237 404.456,93.2904 400.5,87C 394.13,83.6401 387.463,82.4734 380.5,83.5 Z"/></g>
<g><path style="opacity:0.828" fill="#546c5c" d="M 380.5,83.5 C 376.971,84.8493 373.805,86.8493 371,89.5C 367.385,97.4085 368.052,105.075 373,112.5C 376.038,115.369 378.871,118.369 381.5,121.5C 369.434,113.966 357.434,106.132 345.5,98C 340.329,94.0978 339.329,89.4311 342.5,84C 346.815,81.4509 351.481,80.1176 356.5,80C 365.185,79.5724 373.852,79.9057 382.5,81C 382.833,81.3333 383.167,81.6667 383.5,82C 382.263,82.2321 381.263,82.7321 380.5,83.5 Z"/></g>
<g><path style="opacity:0.826" fill="#7e3f60" d="M 419.5,72.5 C 426.032,72.3552 430.532,75.3552 433,81.5C 434.998,92.4995 430.498,97.3329 419.5,96C 413.925,94.2491 411.258,90.4158 411.5,84.5C 411.936,81.8214 412.436,79.1547 413,76.5C 415.617,75.7807 417.784,74.4474 419.5,72.5 Z"/></g>
<g><path style="opacity:0.934" fill="#187a88" d="M 280.5,77.5 C 283.909,77.2493 287.242,77.5827 290.5,78.5C 292.139,87.764 288.806,89.9307 280.5,85C 277.901,82.4213 277.901,79.9213 280.5,77.5 Z"/></g>
<g><path style="opacity:0.837" fill="#1e727f" d="M 273.5,76.5 C 277.161,76.3501 278.161,77.8501 276.5,81C 272.707,81.4866 271.707,79.9866 273.5,76.5 Z"/></g>
<g><path style="opacity:0.964" fill="#433b43" d="M 66.5,215.5 C 68.8061,213.861 70.8061,211.861 72.5,209.5C 74.1958,209.315 75.5291,208.481 76.5,207C 82.8611,205.794 89.1945,204.461 95.5,203C 108.433,195.568 118.433,185.401 125.5,172.5C 125.369,173.239 125.536,173.906 126,174.5C 133.567,164.698 139.567,154.031 144,142.5C 144.752,139.106 144.585,135.773 143.5,132.5C 142.335,131.416 141.002,130.583 139.5,130C 123.766,129.564 108.766,132.397 94.5,138.5C 89.5032,139.755 85.3365,142.422 82,146.5C 81.1529,152.616 79.8196,158.616 78,164.5C 75.7357,167.433 72.9024,169.6 69.5,171C 62.294,172.447 55.9606,170.947 50.5,166.5C 44.6697,153.319 48.003,143.153 60.5,136C 79.1641,136.943 95.8308,131.777 110.5,120.5C 121.784,113.852 132.784,106.685 143.5,99C 151.787,92.2098 151.454,86.2098 142.5,81C 132.54,79.538 122.54,79.2047 112.5,80C 110.389,80.8447 108.389,81.678 106.5,82.5C 100.856,82.5776 95.5229,83.9109 90.5,86.5C 86.7684,92.0741 82.4351,97.2408 77.5,102C 60.0428,106.448 50.3762,99.7812 48.5,82C 48.4429,79.0403 48.9429,76.207 50,73.5C 61.7746,60.8737 73.9412,60.3737 86.5,72C 89.2686,72.8632 92.102,73.3632 95,73.5C 107.426,70.0288 119.926,66.5288 132.5,63C 158.988,55.3519 185.321,55.6852 211.5,64C 217.894,69.0134 220.227,75.5134 218.5,83.5C 200.677,90.1454 186.51,101.479 176,117.5C 175.831,124.856 175.331,132.189 174.5,139.5C 150.191,153.976 130.691,173.309 116,197.5C 113.651,202.198 111.318,206.864 109,211.5C 107.086,219.39 105.752,227.39 105,235.5C 92.0848,251.414 79.4181,251.414 67,235.5C 63.895,228.925 63.7283,222.258 66.5,215.5 Z"/></g>
<g><path style="opacity:0.823" fill="#1c7781" d="M 287.5,64.5 C 294.004,64.1377 295.671,66.6377 292.5,72C 288.639,74.492 286.306,73.492 285.5,69C 285.519,67.167 286.185,65.667 287.5,64.5 Z"/></g>
<g><path style="opacity:0.902" fill="#1b7784" d="M 277.5,68.5 C 279.167,68.5 280.833,68.5 282.5,68.5C 282.66,70.1992 282.494,71.8659 282,73.5C 280.667,74.8333 279.333,74.8333 278,73.5C 277.506,71.8659 277.34,70.1992 277.5,68.5 Z"/></g>
<g><path style="opacity:0.846" fill="#443b3f" d="M 268.5,67.5 C 269.978,67.238 271.311,67.5713 272.5,68.5C 270.855,72.6009 269.522,76.7676 268.5,81C 263.945,80.2351 259.612,78.5684 255.5,76C 254.643,75.3109 253.977,74.4776 253.5,73.5C 258.296,70.7567 263.296,68.7567 268.5,67.5 Z"/></g>
<g><path style="opacity:0.936" fill="#433b42" d="M 228.5,69.5 C 231.185,70.6285 233.852,71.9618 236.5,73.5C 233.416,76.3597 230.082,78.6931 226.5,80.5C 224.914,81.4132 223.414,81.4132 222,80.5C 220.997,75.9903 219.497,71.6569 217.5,67.5C 217.833,67.1667 218.167,66.8333 218.5,66.5C 221.846,67.5045 225.179,68.5045 228.5,69.5 Z"/></g>
<g><path style="opacity:0.417" fill="#402c20" d="M 228.5,69.5 C 225.179,68.5045 221.846,67.5045 218.5,66.5C 218.167,66.8333 217.833,67.1667 217.5,67.5C 219.497,71.6569 220.997,75.9903 222,80.5C 223.414,81.4132 224.914,81.4132 226.5,80.5C 220.811,88.0538 213.144,93.2204 203.5,96C 198.1,99.392 193.267,103.559 189,108.5C 186.301,111.922 183.968,115.589 182,119.5C 178.693,126.186 180.693,130.186 188,131.5C 199.889,129.811 211.389,126.811 222.5,122.5C 235.199,121.682 247.865,121.348 260.5,121.5C 272.473,123.821 284.14,126.988 295.5,131C 298.833,131.667 302.167,131.667 305.5,131C 307.711,129.418 309.045,127.251 309.5,124.5C 307.144,117.454 303.977,110.788 300,104.5C 296.956,103.197 295.789,100.864 296.5,97.5C 304.246,103.421 310.413,110.754 315,119.5C 315.333,126.167 315.667,132.833 316,139.5C 344.644,156.809 366.31,180.476 381,210.5C 382.494,219.636 384.494,228.636 387,237.5C 389.537,240.372 392.37,242.872 395.5,245C 410.091,250.125 419.924,245.292 425,230.5C 427.043,220.252 423.543,212.752 414.5,208C 392.178,204.823 375.845,193.323 365.5,173.5C 364.382,167.916 364.215,162.249 365,156.5C 369.746,142.209 379.579,136.209 394.5,138.5C 406.314,141.143 411.814,148.476 411,160.5C 411.847,162.193 412.68,163.86 413.5,165.5C 412.325,165.719 411.325,165.386 410.5,164.5C 409.833,162.5 409.167,160.5 408.5,158.5C 407.675,157.614 406.675,157.281 405.5,157.5C 404.574,152.755 402.241,148.922 398.5,146C 399.167,145.667 399.833,145.333 400.5,145C 397.829,144.926 395.329,143.759 393,141.5C 386.831,143.561 380.998,146.394 375.5,150C 373.31,153.576 371.31,157.243 369.5,161C 370.423,166.238 370.59,171.738 370,177.5C 370.333,176.833 370.667,176.167 371,175.5C 372.767,180.095 374.934,183.929 377.5,187C 380.361,187.54 383.028,188.54 385.5,190C 392.758,196.167 401.091,200.167 410.5,202C 418.127,204.97 423.794,209.97 427.5,217C 426.81,222.135 426.143,227.302 425.5,232.5C 425.987,233.446 426.32,234.446 426.5,235.5C 425.351,237.797 424.185,240.13 423,242.5C 422.282,241.549 421.449,241.383 420.5,242C 418.845,244.653 416.845,246.986 414.5,249C 411.776,249.27 409.109,249.77 406.5,250.5C 402.57,250.662 398.57,250.329 394.5,249.5C 394.67,248.178 394.337,247.011 393.5,246C 390.495,244.83 387.495,243.664 384.5,242.5C 382.395,244.262 380.728,246.428 379.5,249C 380.059,249.725 380.392,250.558 380.5,251.5C 377.312,260.551 376.645,269.884 378.5,279.5C 376.627,281.149 376.294,282.983 377.5,285C 376.879,288.186 376.212,291.352 375.5,294.5C 376.885,295.551 377.885,296.884 378.5,298.5C 380.765,299.647 383.098,299.814 385.5,299C 388.573,295.552 392.24,294.719 396.5,296.5C 394.259,297.621 391.925,298.787 389.5,300C 388.029,301.583 387.029,303.417 386.5,305.5C 385.508,305.328 384.842,305.662 384.5,306.5C 383.417,306.461 382.417,306.127 381.5,305.5C 375.312,308.258 370.312,312.425 366.5,318C 367.337,319.011 367.67,320.178 367.5,321.5C 365.806,322.527 364.473,323.861 363.5,325.5C 362.178,325.33 361.011,325.663 360,326.5C 357.416,331.833 355.916,337.5 355.5,343.5C 355.573,345.59 355.906,347.59 356.5,349.5C 356.5,351.5 356.5,353.5 356.5,355.5C 354.384,364.261 356.051,372.594 361.5,380.5C 360.448,380.649 359.448,380.483 358.5,380C 356.76,375.692 353.593,372.859 349,371.5C 347.354,373.141 346.354,372.807 346,370.5C 345.797,372.937 344.963,375.271 343.5,377.5C 343.709,378.086 344.043,378.586 344.5,379C 341.572,379.36 340.906,380.693 342.5,383C 340.836,384.767 339.669,384.267 339,381.5C 338.768,382.737 338.268,383.737 337.5,384.5C 333.108,382.482 328.441,381.482 323.5,381.5C 318.735,381.514 314.068,382.181 309.5,383.5C 313.155,389.671 318.488,393.171 325.5,394C 327.657,395.981 329.324,398.314 330.5,401C 332.473,401.495 334.473,401.662 336.5,401.5C 336.5,399.5 336.5,397.5 336.5,395.5C 338.973,395.799 341.14,396.799 343,398.5C 344.766,397.767 346.599,397.433 348.5,397.5C 348.817,400.572 348.484,403.572 347.5,406.5C 346.175,403.671 344.175,403.004 341.5,404.5C 341.118,406.875 341.618,409.208 343,411.5C 345.681,412.372 348.347,413.372 351,414.5C 354.783,413.098 358.117,413.765 361,416.5C 361.308,415.692 361.808,415.025 362.5,414.5C 364.359,414.112 366.359,414.112 368.5,414.5C 372.833,412.667 377.166,410.833 381.5,409C 382.167,407.667 383.167,406.667 384.5,406C 383.833,405.667 383.167,405.333 382.5,405C 383.833,404 383.833,403 382.5,402C 383.167,401.667 383.833,401.333 384.5,401C 382.061,399.149 379.728,397.149 377.5,395C 376.552,394.517 375.552,394.351 374.5,394.5C 374.5,393.5 374.5,392.5 374.5,391.5C 376.415,391.784 378.081,391.451 379.5,390.5C 380.609,390.557 381.609,390.89 382.5,391.5C 382.511,393.017 383.177,394.184 384.5,395C 386.455,395.953 388.122,397.287 389.5,399C 390.448,399.483 391.448,399.649 392.5,399.5C 392.5,400.167 392.5,400.833 392.5,401.5C 390.603,403.269 389.436,405.602 389,408.5C 385.421,410.513 382.254,412.846 379.5,415.5C 378.167,416.167 376.833,416.833 375.5,417.5C 371.351,415.164 367.017,415.164 362.5,417.5C 361.614,418.325 361.281,419.325 361.5,420.5C 360.5,420.5 359.5,420.5 358.5,420.5C 358.389,419.883 358.056,419.383 357.5,419C 352.416,418.222 347.416,418.389 342.5,419.5C 341.5,419.5 340.5,419.5 339.5,419.5C 336.742,418.182 333.576,417.515 330,417.5C 326.424,417.515 323.258,418.182 320.5,419.5C 319.833,419.5 319.167,419.5 318.5,419.5C 312.654,420.473 306.654,420.473 300.5,419.5C 297.833,419.5 295.167,419.5 292.5,419.5C 289.229,417.158 285.562,416.824 281.5,418.5C 281.5,417.833 281.167,417.5 280.5,417.5C 279.166,414.645 277.166,412.145 274.5,410C 273.551,409.383 272.718,409.549 272,410.5C 271.873,409.223 272.373,408.057 273.5,407C 272.86,404.88 271.86,403.046 270.5,401.5C 269.662,401.158 269.328,400.492 269.5,399.5C 269.771,397.179 269.104,395.179 267.5,393.5C 269.167,389.058 268.834,384.892 266.5,381C 249.17,380.5 231.837,380.333 214.5,380.5C 214.183,384.702 214.517,388.702 215.5,392.5C 217.075,394.114 217.741,396.114 217.5,398.5C 215.748,398.418 214.748,399.251 214.5,401C 215.307,404.816 215.974,408.65 216.5,412.5C 214.895,409.982 213.562,407.149 212.5,404C 213.022,403.439 213.355,402.772 213.5,402C 211.864,397.688 211.031,393.188 211,388.5C 209.815,386.623 208.815,384.623 208,382.5C 206.636,383.258 205.469,382.758 204.5,381C 189.446,375.857 181.446,381.357 180.5,397.5C 180.5,398.833 179.833,399.5 178.5,399.5C 178.152,396.793 176.819,394.793 174.5,393.5C 170.297,394.851 166.464,396.851 163,399.5C 162.536,398.906 162.369,398.239 162.5,397.5C 163.031,395.376 164.365,393.876 166.5,393C 172.901,392.439 177.567,389.273 180.5,383.5C 175.152,383.257 169.652,382.59 164,381.5C 158.026,383.662 151.86,384.995 145.5,385.5C 145.062,385.565 144.728,385.399 144.5,385C 146.032,382.966 147.365,380.799 148.5,378.5C 147.509,377.335 146.509,376.168 145.5,375C 145.622,373.061 145.622,371.228 145.5,369.5C 149.718,373.416 154.718,375.916 160.5,377C 168.392,379.099 176.392,380.099 184.5,380C 185.727,377.73 187.394,375.897 189.5,374.5C 174.461,367.49 161.461,357.823 150.5,345.5C 149.522,345.977 148.689,346.643 148,347.5C 144.918,353.41 143.751,359.743 144.5,366.5C 143.883,366.389 143.383,366.056 143,365.5C 142.314,358.98 142.48,352.48 143.5,346C 143.369,343.747 142.869,341.581 142,339.5C 133.325,328.807 125.659,317.474 119,305.5C 118.667,302.833 118.333,300.167 118,297.5C 117.667,297.833 117.333,298.167 117,298.5C 115.405,296.575 115.238,294.575 116.5,292.5C 115.236,289.875 114.069,287.208 113,284.5C 111.445,274.824 109.945,265.157 108.5,255.5C 109.902,254.158 109.569,253.324 107.5,253C 107.031,251.038 107.697,249.205 109.5,247.5C 106.936,247.913 104.436,247.246 102,245.5C 98.4458,246.237 95.2791,247.737 92.5,250C 86.5043,251.516 80.5043,251.35 74.5,249.5C 74.719,248.325 74.3857,247.325 73.5,246.5C 68.8062,243.973 65.3062,240.306 63,235.5C 61.902,230.584 61.402,225.75 61.5,221C 61.7255,217.882 63.3921,216.048 66.5,215.5C 63.7283,222.258 63.895,228.925 67,235.5C 79.4181,251.414 92.0848,251.414 105,235.5C 105.752,227.39 107.086,219.39 109,211.5C 111.318,206.864 113.651,202.198 116,197.5C 130.691,173.309 150.191,153.976 174.5,139.5C 175.331,132.189 175.831,124.856 176,117.5C 186.51,101.479 200.677,90.1454 218.5,83.5C 220.227,75.5134 217.894,69.0134 211.5,64C 185.321,55.6852 158.988,55.3519 132.5,63C 119.926,66.5288 107.426,70.0288 95,73.5C 92.102,73.3632 89.2686,72.8632 86.5,72C 73.9412,60.3737 61.7746,60.8737 50,73.5C 48.9429,76.207 48.4429,79.0403 48.5,82C 50.3762,99.7812 60.0428,106.448 77.5,102C 82.4351,97.2408 86.7684,92.0741 90.5,86.5C 95.5229,83.9109 100.856,82.5776 106.5,82.5C 123.823,87.7557 127.323,98.089 117,113.5C 114.628,115.703 112.461,118.037 110.5,120.5C 95.8308,131.777 79.1641,136.943 60.5,136C 48.003,143.153 44.6697,153.319 50.5,166.5C 49.1779,166.67 48.0113,166.337 47,165.5C 41.0142,148.979 46.1809,137.812 62.5,132C 74.8877,132.889 86.5544,130.556 97.5,125C 102.006,120.161 106.839,115.661 112,111.5C 119.425,96.4869 114.925,89.3202 98.5,90C 96.3348,91.5636 94.6681,91.3969 93.5,89.5C 92.4937,89.9377 92.4937,90.6043 93.5,91.5C 90.4426,93.7214 87.9426,96.3881 86,99.5C 83.0081,100.634 80.5081,102.467 78.5,105C 59.8292,109.765 48.4959,102.932 44.5,84.5C 45.9442,77.8409 47.9442,71.5076 50.5,65.5C 55.602,62.9518 60.9353,60.9518 66.5,59.5C 70.389,60.8642 74.389,61.6975 78.5,62C 82.1667,63.6667 85.8333,65.3333 89.5,67C 93.5,67.6667 97.5,67.6667 101.5,67C 112.813,63.3394 124.479,61.3394 136.5,61C 135.833,60.6667 135.167,60.3333 134.5,60C 135.973,59.2904 136.64,58.1238 136.5,56.5C 144.356,55.7349 152.19,54.7349 160,53.5C 163.358,55.0361 166.525,54.7028 169.5,52.5C 175.167,53.1667 180.833,53.8333 186.5,54.5C 187.167,54.1667 187.833,53.8333 188.5,53.5C 197.701,55.6892 206.701,58.5225 215.5,62C 219.053,64.6987 223.053,66.3653 227.5,67C 228.252,67.6708 228.586,68.5041 228.5,69.5 Z M 287.5,392.5 C 286.501,397.758 288.834,400.425 294.5,400.5C 294.162,398.146 293.662,395.813 293,393.5C 291.301,392.594 289.467,392.261 287.5,392.5 Z"/></g>
<g><path style="opacity:0.98" fill="#433c45" d="M 288.5,132.5 C 319.484,143.748 343.65,163.415 361,191.5C 374.754,216.394 379.754,243.061 376,271.5C 373.684,291.131 366.684,308.798 355,324.5C 345.177,336.323 334.677,347.489 323.5,358C 300.178,373.881 274.345,381.047 246,379.5C 235.508,378.84 225.008,378.34 214.5,378C 196.646,374.574 180.313,367.574 165.5,357C 151.172,343.347 138.339,328.514 127,312.5C 114.92,287.479 110.92,261.146 115,233.5C 116.794,218.121 121.794,203.787 130,190.5C 143.931,168.397 162.431,151.397 185.5,139.5C 187.599,139.972 189.599,139.972 191.5,139.5C 193.134,139.032 194.3,138.032 195,136.5C 195.333,137.167 195.667,137.833 196,138.5C 197.062,137.101 198.395,136.101 200,135.5C 203.662,136.024 207.162,137.024 210.5,138.5C 209.264,140.311 209.264,142.144 210.5,144C 209.43,146.806 208.097,149.473 206.5,152C 208.125,152.853 208.458,153.853 207.5,155C 208.5,155.667 209.5,155.667 210.5,155C 211.211,153.745 212.044,152.579 213,151.5C 216.341,153.671 220.008,155.005 224,155.5C 226.518,153.972 228.685,154.306 230.5,156.5C 229.675,157.386 228.675,157.719 227.5,157.5C 227.343,158.873 227.51,160.207 228,161.5C 228.654,160.304 229.154,160.304 229.5,161.5C 228.687,162.814 227.687,163.981 226.5,165C 227.833,165.333 229.167,165.667 230.5,166C 228.071,166.451 227.904,167.285 230,168.5C 231.836,167.331 233.002,165.664 233.5,163.5C 235.558,161.599 237.724,159.932 240,158.5C 240.833,158.833 241.667,159.167 242.5,159.5C 241.395,160.892 240.061,162.059 238.5,163C 239.763,164.705 240.097,166.372 239.5,168C 240.959,167.645 242.293,167.811 243.5,168.5C 238.442,175.949 234.442,183.949 231.5,192.5C 240.839,192.666 250.173,192.5 259.5,192C 260.332,190.091 259.999,188.258 258.5,186.5C 258.116,184.335 258.783,182.668 260.5,181.5C 261.594,182.868 261.26,184.035 259.5,185C 260.448,185.483 261.448,185.649 262.5,185.5C 262.562,190.702 264.896,191.869 269.5,189C 268.692,188.692 268.025,188.192 267.5,187.5C 269.193,186.772 270.693,185.772 272,184.5C 273.794,186.464 273.294,187.964 270.5,189C 272.167,189.667 273.833,189.667 275.5,189C 276.167,187 276.833,185 277.5,183C 280.833,181.667 284.167,180.333 287.5,179C 285.152,178.89 283.652,177.723 283,175.5C 281.691,177.891 280.691,177.891 280,175.5C 275.689,176.103 271.855,177.769 268.5,180.5C 266.494,180.868 264.494,180.368 262.5,179C 264.007,178.163 264.507,176.996 264,175.5C 263.259,176.641 262.425,176.641 261.5,175.5C 260.289,176.274 260.289,177.107 261.5,178C 260.975,178.692 260.308,179.192 259.5,179.5C 258.158,177.995 256.492,177.328 254.5,177.5C 254.238,176.022 254.571,174.689 255.5,173.5C 263.676,175.423 270.342,172.756 275.5,165.5C 276.594,166.868 276.26,168.035 274.5,169C 277.255,168.665 279.922,167.665 282.5,166C 281.464,164.383 280.297,164.216 279,165.5C 278.5,164.5 278,163.5 277.5,162.5C 279.347,161.17 280.847,161.503 282,163.5C 283.008,161.741 284.508,160.574 286.5,160C 287.646,157.443 286.646,156.11 283.5,156C 285.174,151.989 288.174,149.989 292.5,150C 291.08,148.544 289.747,147.044 288.5,145.5C 287.335,146.491 286.168,147.491 285,148.5C 284.5,148.333 284,148.167 283.5,148C 285.376,145.954 287.376,144.121 289.5,142.5C 288.833,141.833 288.167,141.167 287.5,140.5C 288.737,139.719 289.737,138.719 290.5,137.5C 288.639,136.472 287.305,134.972 286.5,133C 287.094,132.536 287.761,132.369 288.5,132.5 Z"/></g>
<g><path style="opacity:0.971" fill="#557162" d="M 110.5,120.5 C 112.461,118.037 114.628,115.703 117,113.5C 127.323,98.089 123.823,87.7557 106.5,82.5C 108.389,81.678 110.389,80.8447 112.5,80C 122.54,79.2047 132.54,79.538 142.5,81C 151.454,86.2098 151.787,92.2098 143.5,99C 132.784,106.685 121.784,113.852 110.5,120.5 Z"/></g>
<g><path style="opacity:0.95" fill="#167d8c" d="M 201.5,76.5 C 205.192,75.9712 208.358,76.9712 211,79.5C 210.608,86.1296 207.108,88.4629 200.5,86.5C 197.696,82.8516 198.03,79.5182 201.5,76.5 Z"/></g>
<g><path style="opacity:0.961" fill="#19798a" d="M 213.5,76.5 C 214.833,76.5 216.167,76.5 217.5,76.5C 217.5,78.1667 217.5,79.8333 217.5,81.5C 216.167,81.5 214.833,81.5 213.5,81.5C 213.5,79.8333 213.5,78.1667 213.5,76.5 Z"/></g>
<g><path style="opacity:0.94" fill="#834065" d="M 65.5,72.5 C 77.6035,72.7912 81.7702,78.7912 78,90.5C 73.4654,97.1898 67.6321,98.6898 60.5,95C 55.1274,85.7481 56.794,78.2481 65.5,72.5 Z"/></g>
<g><path style="opacity:0.965" fill="#1d7787" d="M 209.5,67.5 C 211.849,67.4583 213.182,68.6249 213.5,71C 211.526,75.2973 209.526,75.464 207.5,71.5C 207.752,69.9271 208.418,68.5938 209.5,67.5 Z"/></g>
<g><path style="opacity:0.973" fill="#187c8d" d="M 197.5,64.5 C 204.94,63.7533 206.94,66.5866 203.5,73C 201.153,73.3336 198.819,73.167 196.5,72.5C 196.401,69.7628 196.735,67.0961 197.5,64.5 Z"/></g>
<g><path style="opacity:0.946" fill="#834066" d="M 62.5,142.5 C 77.056,143.842 80.556,150.842 73,163.5C 65.715,168.269 59.3817,167.269 54,160.5C 51.6183,151.734 54.4516,145.734 62.5,142.5 Z"/></g>
<g><path style="opacity:0.936" fill="#443b42" d="M 288.5,132.5 C 287.761,132.369 287.094,132.536 286.5,133C 287.305,134.972 288.639,136.472 290.5,137.5C 289.737,138.719 288.737,139.719 287.5,140.5C 288.167,141.167 288.833,141.833 289.5,142.5C 287.376,144.121 285.376,145.954 283.5,148C 284,148.167 284.5,148.333 285,148.5C 286.168,147.491 287.335,146.491 288.5,145.5C 289.747,147.044 291.08,148.544 292.5,150C 288.174,149.989 285.174,151.989 283.5,156C 286.646,156.11 287.646,157.443 286.5,160C 284.508,160.574 283.008,161.741 282,163.5C 280.847,161.503 279.347,161.17 277.5,162.5C 278,163.5 278.5,164.5 279,165.5C 280.297,164.216 281.464,164.383 282.5,166C 279.922,167.665 277.255,168.665 274.5,169C 276.26,168.035 276.594,166.868 275.5,165.5C 270.342,172.756 263.676,175.423 255.5,173.5C 254.571,174.689 254.238,176.022 254.5,177.5C 256.492,177.328 258.158,177.995 259.5,179.5C 260.308,179.192 260.975,178.692 261.5,178C 260.289,177.107 260.289,176.274 261.5,175.5C 262.425,176.641 263.259,176.641 264,175.5C 264.507,176.996 264.007,178.163 262.5,179C 264.494,180.368 266.494,180.868 268.5,180.5C 271.855,177.769 275.689,176.103 280,175.5C 280.691,177.891 281.691,177.891 283,175.5C 283.652,177.723 285.152,178.89 287.5,179C 284.167,180.333 280.833,181.667 277.5,183C 276.833,185 276.167,187 275.5,189C 273.833,189.667 272.167,189.667 270.5,189C 273.294,187.964 273.794,186.464 272,184.5C 270.693,185.772 269.193,186.772 267.5,187.5C 268.025,188.192 268.692,188.692 269.5,189C 264.896,191.869 262.562,190.702 262.5,185.5C 261.448,185.649 260.448,185.483 259.5,185C 261.26,184.035 261.594,182.868 260.5,181.5C 258.783,182.668 258.116,184.335 258.5,186.5C 254.563,179.624 249.896,173.291 244.5,167.5C 243.893,167.624 243.56,167.957 243.5,168.5C 242.293,167.811 240.959,167.645 239.5,168C 240.097,166.372 239.763,164.705 238.5,163C 240.061,162.059 241.395,160.892 242.5,159.5C 241.667,159.167 240.833,158.833 240,158.5C 237.724,159.932 235.558,161.599 233.5,163.5C 233.002,165.664 231.836,167.331 230,168.5C 227.904,167.285 228.071,166.451 230.5,166C 229.167,165.667 227.833,165.333 226.5,165C 227.687,163.981 228.687,162.814 229.5,161.5C 229.154,160.304 228.654,160.304 228,161.5C 227.51,160.207 227.343,158.873 227.5,157.5C 228.675,157.719 229.675,157.386 230.5,156.5C 228.685,154.306 226.518,153.972 224,155.5C 220.008,155.005 216.341,153.671 213,151.5C 212.044,152.579 211.211,153.745 210.5,155C 209.5,155.667 208.5,155.667 207.5,155C 208.458,153.853 208.125,152.853 206.5,152C 208.097,149.473 209.43,146.806 210.5,144C 209.264,142.144 209.264,140.311 210.5,138.5C 207.162,137.024 203.662,136.024 200,135.5C 198.395,136.101 197.062,137.101 196,138.5C 195.667,137.833 195.333,137.167 195,136.5C 194.3,138.032 193.134,139.032 191.5,139.5C 189.599,139.972 187.599,139.972 185.5,139.5C 210.793,125.679 237.793,121.179 266.5,126C 274.171,127.353 281.504,129.52 288.5,132.5 Z"/></g>
<g><path style="opacity:0.929" fill="#2d6263" d="M 245.5,136.5 C 251.576,142.298 255.909,149.298 258.5,157.5C 249.808,157.831 241.141,157.498 232.5,156.5C 236.844,149.805 241.177,143.138 245.5,136.5 Z"/></g>
<g><path style="opacity:0.839" fill="#7d3f5f" d="M 424.5,142.5 C 437.901,144.759 441.068,151.759 434,163.5C 422.81,169.265 415.977,165.931 413.5,153.5C 414.544,147.123 418.211,143.456 424.5,142.5 Z"/></g>
<g><path style="opacity:0.965" fill="#296768" d="M 258.5,186.5 C 259.999,188.258 260.332,190.091 259.5,192C 250.173,192.5 240.839,192.666 231.5,192.5C 234.442,183.949 238.442,175.949 243.5,168.5C 243.56,167.957 243.893,167.624 244.5,167.5C 249.896,173.291 254.563,179.624 258.5,186.5 Z"/></g>
<g><path style="opacity:0.988" fill="#28676a" d="M 153.5,174.5 C 156.812,177.146 159.812,180.146 162.5,183.5C 162.291,184.086 161.957,184.586 161.5,185C 157.168,185.583 152.835,186.083 148.5,186.5C 149.393,182.148 151.06,178.148 153.5,174.5 Z"/></g>
<g><path style="opacity:0.981" fill="#296668" d="M 182.5,176.5 C 183.822,176.33 184.989,176.663 186,177.5C 187.504,180.684 189.004,183.851 190.5,187C 185.522,187.087 180.688,186.254 176,184.5C 175.333,183.833 175.333,183.167 176,182.5C 178.664,181.002 180.83,179.002 182.5,176.5 Z"/></g>
<g><path style="opacity:0.977" fill="#2a6567" d="M 305.5,175.5 C 309.415,177.743 312.749,180.743 315.5,184.5C 311.15,185.408 306.816,186.408 302.5,187.5C 301.833,187.167 301.167,186.833 300.5,186.5C 301.907,182.688 303.574,179.022 305.5,175.5 Z"/></g>
<g><path style="opacity:0.991" fill="#296668" d="M 335.5,174.5 C 336.496,174.414 337.329,174.748 338,175.5C 338.956,178.377 340.289,181.044 342,183.5C 342.667,184.833 342.667,186.167 342,187.5C 337.35,186.407 332.684,185.407 328,184.5C 327.333,183.833 327.333,183.167 328,182.5C 331.044,180.291 333.544,177.625 335.5,174.5 Z"/></g>
<g><path style="opacity:0.954" fill="#2b6465" d="M 278.5,189.5 C 282.717,189.589 286.717,190.423 290.5,192C 287.537,193.961 284.871,196.294 282.5,199C 281.552,199.483 280.552,199.649 279.5,199.5C 279.167,196.167 278.833,192.833 278.5,189.5 Z"/></g>
<g><path style="opacity:0.983" fill="#5db665" d="M 322.5,190.5 C 346.423,195.93 359.59,210.93 362,235.5C 362.814,240.02 362.647,244.354 361.5,248.5C 360.532,246.393 360.198,244.059 360.5,241.5C 359.448,241.351 358.448,241.517 357.5,242C 356.845,243.487 355.845,244.653 354.5,245.5C 350.246,243.767 347.579,245.1 346.5,249.5C 345.178,249.33 344.011,249.663 343,250.5C 342.283,249.956 341.783,249.289 341.5,248.5C 348.89,230.492 343.557,217.992 325.5,211C 306.671,210.326 297.004,219.492 296.5,238.5C 296.756,240.937 297.423,243.271 298.5,245.5C 301.768,246.487 305.102,246.82 308.5,246.5C 308.82,249.898 308.487,253.232 307.5,256.5C 307.26,251.201 305.76,250.535 303,254.5C 302.349,256.235 302.515,257.902 303.5,259.5C 303.192,260.308 302.692,260.975 302,261.5C 299.931,260.736 297.764,260.236 295.5,260C 296.711,258.887 296.711,257.72 295.5,256.5C 296.5,255.667 297.5,254.833 298.5,254C 298.048,252.388 296.715,251.388 294.5,251C 295.167,250 295.833,249 296.5,248C 292.185,247.821 288.019,247.654 284,247.5C 282.417,248.971 280.583,249.971 278.5,250.5C 271.565,226.615 278.565,208.282 299.5,195.5C 306.85,192.384 314.516,190.717 322.5,190.5 Z"/></g>
<g><path style="opacity:0.981" fill="#5db564" d="M 191.5,196.5 C 202.382,201.572 209.549,209.906 213,221.5C 213.667,229.833 213.667,238.167 213,246.5C 212.356,250.619 210.856,254.285 208.5,257.5C 207.069,257.881 206.236,258.881 206,260.5C 202.849,258.948 202.682,257.115 205.5,255C 204.552,254.517 203.552,254.351 202.5,254.5C 202.451,257.099 201.451,259.266 199.5,261C 200.5,261.833 201.5,262.667 202.5,263.5C 200.594,265.242 198.26,266.242 195.5,266.5C 194.833,266.833 194.167,267.167 193.5,267.5C 194.167,267.833 194.833,268.167 195.5,268.5C 194.38,270.596 192.88,270.93 191,269.5C 187.643,271.677 184.143,273.677 180.5,275.5C 179.062,275.281 177.729,274.781 176.5,274C 177.451,273.282 177.617,272.449 177,271.5C 175.601,271.501 174.101,271.835 172.5,272.5C 169.078,270.501 165.745,268.501 162.5,266.5C 163.624,265.086 164.624,263.586 165.5,262C 169.025,261.821 172.359,261.321 175.5,260.5C 176.641,259.661 177.974,258.994 179.5,258.5C 180.491,254.555 180.824,250.555 180.5,246.5C 184.5,246.5 188.5,246.5 192.5,246.5C 192.833,244.5 193.167,242.5 193.5,240.5C 195.443,230.18 192.11,221.68 183.5,215C 168.026,206.381 156.193,209.881 148,225.5C 146.04,233.2 146.207,240.866 148.5,248.5C 147.365,250.088 146.031,250.421 144.5,249.5C 142.265,250.752 139.931,251.252 137.5,251C 138.956,250.577 139.456,249.744 139,248.5C 138.667,248.833 138.333,249.167 138,249.5C 137.632,248.09 136.799,247.09 135.5,246.5C 133.757,248.038 131.757,249.038 129.5,249.5C 129.5,248.833 129.167,248.5 128.5,248.5C 126.01,226.333 133.676,208.833 151.5,196C 155.203,193.646 159.203,192.146 163.5,191.5C 173.472,189.48 182.805,191.147 191.5,196.5 Z"/></g>
<g><path style="opacity:0.985" fill="#2a6567" d="M 207.5,189.5 C 209.167,189.5 210.833,189.5 212.5,189.5C 212.309,193.074 211.309,196.407 209.5,199.5C 205.895,197.528 202.895,194.861 200.5,191.5C 202.969,190.832 205.302,190.165 207.5,189.5 Z"/></g>
<g><path style="opacity:0.984" fill="#723db6" d="M 322.5,190.5 C 337.196,190.083 349.696,195.416 360,206.5C 365.959,220.79 366.959,235.456 363,250.5C 362.31,251.738 361.81,251.738 361.5,250.5C 361.5,249.833 361.5,249.167 361.5,248.5C 362.647,244.354 362.814,240.02 362,235.5C 359.59,210.93 346.423,195.93 322.5,190.5 Z"/></g>
<g><path style="opacity:0.991" fill="#286769" d="M 244.5,205.5 C 245.496,205.414 246.329,205.748 247,206.5C 250.471,211.477 253.304,216.811 255.5,222.5C 248.5,223.833 241.5,223.833 234.5,222.5C 237.829,216.836 241.162,211.17 244.5,205.5 Z"/></g>
<g><path style="opacity:0.973" fill="#2b6567" d="M 261.5,209.5 C 265.226,209.177 268.893,209.511 272.5,210.5C 270.921,213.994 269.087,217.327 267,220.5C 264.689,217.063 262.855,213.396 261.5,209.5 Z"/></g>
<g><path style="opacity:0.99" fill="#296768" d="M 217.5,210.5 C 221.019,209.192 224.685,209.192 228.5,210.5C 227.361,214.112 225.694,217.446 223.5,220.5C 221.474,217.103 219.474,213.77 217.5,210.5 Z"/></g>
<g><path style="opacity:0.983" fill="#ab4b10" d="M 193.5,240.5 C 185.348,237.495 177.015,234.328 168.5,231C 165.166,229.669 162.166,227.835 159.5,225.5C 158.386,226.723 158.219,228.056 159,229.5C 166.804,238.397 171.637,248.73 173.5,260.5C 167.928,261.01 162.595,260.177 157.5,258C 154.268,254.938 151.268,251.771 148.5,248.5C 146.207,240.866 146.04,233.2 148,225.5C 156.193,209.881 168.026,206.381 183.5,215C 192.11,221.68 195.443,230.18 193.5,240.5 Z"/></g>
<g><path style="opacity:0.983" fill="#aa4b11" d="M 341.5,248.5 C 335.808,257.51 327.475,261.51 316.5,260.5C 319.09,248.549 324.257,237.883 332,228.5C 332.601,227.035 332.101,226.035 330.5,225.5C 320.237,232.568 308.904,236.902 296.5,238.5C 297.004,219.492 306.671,210.326 325.5,211C 343.557,217.992 348.89,230.492 341.5,248.5 Z"/></g>
<g><path style="opacity:0.944" fill="#854067" d="M 401.5,211.5 C 406.41,212.243 411.076,213.743 415.5,216C 416.126,216.75 416.626,217.584 417,218.5C 417.667,223.5 417.667,228.5 417,233.5C 411.697,240.563 404.863,242.396 396.5,239C 388.455,227.762 390.122,218.595 401.5,211.5 Z"/></g>
<g><path style="opacity:0.963" fill="#723bb5" d="M 163.5,191.5 C 159.203,192.146 155.203,193.646 151.5,196C 133.676,208.833 126.01,226.333 128.5,248.5C 128.607,250.379 128.107,250.712 127,249.5C 124.747,236.418 125.08,223.418 128,210.5C 136.098,199.369 146.931,192.702 160.5,190.5C 161.726,190.52 162.726,190.853 163.5,191.5 Z"/></g>
<g><path style="opacity:0.978" fill="#6f2107" d="M 193.5,240.5 C 193.167,242.5 192.833,244.5 192.5,246.5C 188.5,246.5 184.5,246.5 180.5,246.5C 180.824,250.555 180.491,254.555 179.5,258.5C 177.974,258.994 176.641,259.661 175.5,260.5C 174.833,260.5 174.167,260.5 173.5,260.5C 171.637,248.73 166.804,238.397 159,229.5C 158.219,228.056 158.386,226.723 159.5,225.5C 162.166,227.835 165.166,229.669 168.5,231C 177.015,234.328 185.348,237.495 193.5,240.5 Z"/></g>
<g><path style="opacity:0.979" fill="#6f2107" d="M 316.5,260.5 C 313.901,260.451 311.734,259.451 310,257.5C 309.823,253.644 309.323,249.977 308.5,246.5C 305.102,246.82 301.768,246.487 298.5,245.5C 297.423,243.271 296.756,240.937 296.5,238.5C 308.904,236.902 320.237,232.568 330.5,225.5C 332.101,226.035 332.601,227.035 332,228.5C 324.257,237.883 319.09,248.549 316.5,260.5 Z"/></g>
<g><path style="opacity:0.889" fill="#814063" d="M 84.5,211.5 C 92.6052,211.76 97.6052,215.927 99.5,224C 98.9705,238.567 91.9705,243.567 78.5,239C 76.2911,237.127 74.4578,234.96 73,232.5C 72.112,227.382 72.4453,222.382 74,217.5C 77.3507,215.079 80.8507,213.079 84.5,211.5 Z"/></g>
<g><path style="opacity:0.937" fill="#5cb162" d="M 361.5,248.5 C 361.5,249.167 361.5,249.833 361.5,250.5C 359.049,260.064 354.049,268.064 346.5,274.5C 327.031,283.658 308.364,282.158 290.5,270C 284.848,264.531 280.848,258.031 278.5,250.5C 280.583,249.971 282.417,248.971 284,247.5C 288.019,247.654 292.185,247.821 296.5,248C 295.833,249 295.167,250 294.5,251C 296.715,251.388 298.048,252.388 298.5,254C 297.5,254.833 296.5,255.667 295.5,256.5C 296.711,257.72 296.711,258.887 295.5,260C 297.764,260.236 299.931,260.736 302,261.5C 302.692,260.975 303.192,260.308 303.5,259.5C 302.515,257.902 302.349,256.235 303,254.5C 305.76,250.535 307.26,251.201 307.5,256.5C 308.487,253.232 308.82,249.898 308.5,246.5C 309.323,249.977 309.823,253.644 310,257.5C 311.734,259.451 313.901,260.451 316.5,260.5C 327.475,261.51 335.808,257.51 341.5,248.5C 341.783,249.289 342.283,249.956 343,250.5C 344.011,249.663 345.178,249.33 346.5,249.5C 347.579,245.1 350.246,243.767 354.5,245.5C 355.845,244.653 356.845,243.487 357.5,242C 358.448,241.517 359.448,241.351 360.5,241.5C 360.198,244.059 360.532,246.393 361.5,248.5 Z"/></g>
<g><path style="opacity:0.958" fill="#713bb4" d="M 191.5,196.5 C 191.56,195.957 191.893,195.624 192.5,195.5C 206.18,201.68 215.013,212.014 219,226.5C 221.883,242.334 220.383,257.668 214.5,272.5C 213.596,273.209 213.263,274.209 213.5,275.5C 212.209,275.263 211.209,275.596 210.5,276.5C 204.078,278.363 197.745,280.53 191.5,283C 177.104,287.09 163.104,286.09 149.5,280C 147.237,278.383 145.237,276.55 143.5,274.5C 162.291,283.192 180.625,282.026 198.5,271C 203.233,267.448 206.566,262.948 208.5,257.5C 210.856,254.285 212.356,250.619 213,246.5C 213.667,238.167 213.667,229.833 213,221.5C 209.549,209.906 202.382,201.572 191.5,196.5 Z"/></g>
<g><path style="opacity:0.973" fill="#29627e" d="M 258.5,281.5 C 254.407,288.952 252.073,296.952 251.5,305.5C 247.5,305.5 243.5,305.5 239.5,305.5C 238.243,297.466 235.91,289.799 232.5,282.5C 235.966,270.604 240.132,258.937 245,247.5C 249.815,258.791 254.315,270.125 258.5,281.5 Z"/></g>
<g><path style="opacity:0.938" fill="#5caf61" d="M 148.5,248.5 C 151.268,251.771 154.268,254.938 157.5,258C 162.595,260.177 167.928,261.01 173.5,260.5C 174.167,260.5 174.833,260.5 175.5,260.5C 172.359,261.321 169.025,261.821 165.5,262C 164.624,263.586 163.624,265.086 162.5,266.5C 165.745,268.501 169.078,270.501 172.5,272.5C 174.101,271.835 175.601,271.501 177,271.5C 177.617,272.449 177.451,273.282 176.5,274C 177.729,274.781 179.062,275.281 180.5,275.5C 184.143,273.677 187.643,271.677 191,269.5C 192.88,270.93 194.38,270.596 195.5,268.5C 194.833,268.167 194.167,267.833 193.5,267.5C 194.167,267.167 194.833,266.833 195.5,266.5C 198.26,266.242 200.594,265.242 202.5,263.5C 201.5,262.667 200.5,261.833 199.5,261C 201.451,259.266 202.451,257.099 202.5,254.5C 203.552,254.351 204.552,254.517 205.5,255C 202.682,257.115 202.849,258.948 206,260.5C 206.236,258.881 207.069,257.881 208.5,257.5C 206.566,262.948 203.233,267.448 198.5,271C 180.625,282.026 162.291,283.192 143.5,274.5C 135.967,267.768 131.301,259.434 129.5,249.5C 131.757,249.038 133.757,248.038 135.5,246.5C 136.799,247.09 137.632,248.09 138,249.5C 138.333,249.167 138.667,248.833 139,248.5C 139.456,249.744 138.956,250.577 137.5,251C 139.931,251.252 142.265,250.752 144.5,249.5C 146.031,250.421 147.365,250.088 148.5,248.5 Z"/></g>
<g><path style="opacity:0.981" fill="#723ab5" d="M 299.5,195.5 C 278.565,208.282 271.565,226.615 278.5,250.5C 280.848,258.031 284.848,264.531 290.5,270C 308.364,282.158 327.031,283.658 346.5,274.5C 346.938,274.435 347.272,274.601 347.5,275C 332.589,285.511 316.256,288.178 298.5,283C 292.106,280.924 285.773,278.758 279.5,276.5C 277.926,275.016 276.593,273.349 275.5,271.5C 274.144,265.74 272.644,260.074 271,254.5C 266.42,231.877 272.92,213.377 290.5,199C 293.353,197.466 296.186,195.966 299,194.5C 299.399,194.728 299.565,195.062 299.5,195.5 Z"/></g>
<g><path style="opacity:0.97" fill="#645983" d="M 214.5,272.5 C 214.369,273.376 214.702,274.043 215.5,274.5C 223.327,272.676 228.994,275.343 232.5,282.5C 235.91,289.799 238.243,297.466 239.5,305.5C 232.98,300.523 228.314,301.856 225.5,309.5C 213.487,307.893 207.154,300.893 206.5,288.5C 206.795,283.742 208.795,279.909 212.5,277C 211.906,276.536 211.239,276.369 210.5,276.5C 211.209,275.596 212.209,275.263 213.5,275.5C 213.263,274.209 213.596,273.209 214.5,272.5 Z"/></g>
<g><path style="opacity:0.979" fill="#645983" d="M 275.5,271.5 C 276.593,273.349 277.926,275.016 279.5,276.5C 279.062,276.435 278.728,276.601 278.5,277C 282.278,279.936 283.944,283.769 283.5,288.5C 283.229,300.436 277.229,307.436 265.5,309.5C 265.36,302.858 262.027,300.024 255.5,301C 253.93,302.397 252.596,303.897 251.5,305.5C 252.073,296.952 254.407,288.952 258.5,281.5C 262.932,275.794 268.598,272.46 275.5,271.5 Z"/></g>
<g><path style="opacity:0.89" fill="#422b3f" d="M 414.5,304.5 C 413.527,306.948 413.194,309.615 413.5,312.5C 405.329,312.481 397.329,313.481 389.5,315.5C 389.493,312.962 389.159,310.462 388.5,308C 388.316,306.624 387.649,305.791 386.5,305.5C 387.029,303.417 388.029,301.583 389.5,300C 391.925,298.787 394.259,297.621 396.5,296.5C 398.055,295.367 399.889,294.701 402,294.5C 405.209,295.52 408.376,296.686 411.5,298C 414.145,299.287 415.145,301.453 414.5,304.5 Z"/></g>
<g><path style="opacity:0.985" fill="#286769" d="M 132.5,300.5 C 138.5,300.5 144.5,300.5 150.5,300.5C 148.735,305.042 147.235,309.709 146,314.5C 145.477,316.223 144.477,317.556 143,318.5C 138.094,314.213 134.26,309.046 131.5,303C 131.743,302.098 132.077,301.265 132.5,300.5 Z"/></g>
<g><path style="opacity:0.964" fill="#296768" d="M 339.5,300.5 C 345.863,300.407 352.196,300.74 358.5,301.5C 358.509,303.308 358.009,304.975 357,306.5C 353.969,311.239 350.469,315.572 346.5,319.5C 343.72,313.367 341.387,307.034 339.5,300.5 Z"/></g>
<g><path style="opacity:0.943" fill="#402941" d="M 384.5,306.5 C 385.423,310.861 385.423,315.194 384.5,319.5C 380.189,321.985 376.022,324.652 372,327.5C 370.06,325.908 368.56,323.908 367.5,321.5C 367.67,320.178 367.337,319.011 366.5,318C 370.312,312.425 375.312,308.258 381.5,305.5C 382.417,306.127 383.417,306.461 384.5,306.5 Z"/></g>
<g><path style="opacity:0.891" fill="#412b3f" d="M 437.5,321.5 C 430.993,320.419 424.993,317.919 419.5,314C 418.556,311.281 418.223,308.448 418.5,305.5C 418.47,304.503 418.97,303.836 420,303.5C 424.398,305.554 428.565,308.054 432.5,311C 435.653,313.805 437.319,317.305 437.5,321.5 Z"/></g>
<g><path style="opacity:0.961" fill="#296768" d="M 311.5,324.5 C 321.352,325.475 331.019,327.308 340.5,330C 333.489,339.189 325.155,346.689 315.5,352.5C 313.366,343.3 312.033,333.967 311.5,324.5 Z"/></g>
<g><path style="opacity:0.958" fill="#402940" d="M 363.5,325.5 C 365.03,327.906 366.03,330.572 366.5,333.5C 364.285,338.819 362.285,344.153 360.5,349.5C 359.167,349.5 357.833,349.5 356.5,349.5C 355.906,347.59 355.573,345.59 355.5,343.5C 355.916,337.5 357.416,331.833 360,326.5C 361.011,325.663 362.178,325.33 363.5,325.5 Z"/></g>
<g><path style="opacity:0.985" fill="#286769" d="M 174.5,324.5 C 175.833,324.5 177.167,324.5 178.5,324.5C 177.493,333.887 176.16,343.22 174.5,352.5C 165.026,346.708 156.693,339.374 149.5,330.5C 157.684,327.635 166.018,325.635 174.5,324.5 Z"/></g>
<g><path style="opacity:0.939" fill="#b09ab7" d="M 265.5,309.5 C 267.506,322.638 263.506,333.471 253.5,342C 250.826,343.588 247.992,344.755 245,345.5C 228.904,338.99 222.404,326.99 225.5,309.5C 228.314,301.856 232.98,300.523 239.5,305.5C 243.5,305.5 247.5,305.5 251.5,305.5C 252.596,303.897 253.93,302.397 255.5,301C 262.027,300.024 265.36,302.858 265.5,309.5 Z"/></g>
<g><path style="opacity:0.939" fill="#655a83" d="M 258.5,317.5 C 259.833,317.5 261.167,317.5 262.5,317.5C 262.96,324.618 259.96,329.284 253.5,331.5C 252.927,325.99 254.593,321.323 258.5,317.5 Z"/></g>
<g><path style="opacity:0.967" fill="#675b86" d="M 228.5,317.5 C 236.137,319.771 238.804,324.771 236.5,332.5C 230.838,329.238 228.172,324.238 228.5,317.5 Z"/></g>
<g><path style="opacity:0.677" fill="#432d3d" d="M 438.5,323.5 C 440.03,324.067 441.53,324.733 443,325.5C 448.285,331.635 449.452,338.302 446.5,345.5C 443.733,346.051 441.4,347.384 439.5,349.5C 436.946,346.953 434.446,344.287 432,341.5C 431.333,340.167 431.333,338.833 432,337.5C 434.474,332.89 436.641,328.223 438.5,323.5 Z"/></g>
<g><path style="opacity:0.98" fill="#403841" d="M 145.5,369.5 C 145.443,368.391 145.11,367.391 144.5,366.5C 143.751,359.743 144.918,353.41 148,347.5C 148.689,346.643 149.522,345.977 150.5,345.5C 161.461,357.823 174.461,367.49 189.5,374.5C 187.394,375.897 185.727,377.73 184.5,380C 176.392,380.099 168.392,379.099 160.5,377C 154.718,375.916 149.718,373.416 145.5,369.5 Z"/></g>
<g><path style="opacity:0.985" fill="#2a6668" d="M 201.5,349.5 C 203.48,350.848 204.647,352.848 205,355.5C 206.268,359.84 206.435,364.174 205.5,368.5C 201.088,367.262 196.755,365.762 192.5,364C 190.36,363.027 188.693,361.527 187.5,359.5C 191.928,355.724 196.594,352.391 201.5,349.5 Z"/></g>
<g><path style="opacity:0.916" fill="#412a40" d="M 356.5,355.5 C 359.724,357.842 362.557,360.509 365,363.5C 366.828,369.335 366.661,375.002 364.5,380.5C 363.5,380.5 362.5,380.5 361.5,380.5C 356.051,372.594 354.384,364.261 356.5,355.5 Z"/></g>
<g><path style="opacity:0.967" fill="#296768" d="M 286.5,349.5 C 292.114,352.311 297.447,355.644 302.5,359.5C 297.221,364.222 291.054,367.222 284,368.5C 283.744,362.035 284.577,355.701 286.5,349.5 Z"/></g>
<g><path style="opacity:0.977" fill="#403841" d="M 338.5,345.5 C 339.675,345.281 340.675,345.614 341.5,346.5C 347.501,354.908 347.834,363.408 342.5,372C 331.526,376.863 320.026,379.696 308,380.5C 305.699,378.878 303.366,377.212 301,375.5C 300.312,374.668 300.479,374.002 301.5,373.5C 316.702,367.756 329.035,358.423 338.5,345.5 Z"/></g>
<g><path style="opacity:0.487" fill="#473137" d="M 449.5,353.5 C 449.666,357.514 449.499,361.514 449,365.5C 448.5,366.667 447.667,367.5 446.5,368C 447.428,368.388 448.095,369.055 448.5,370C 447.48,372.859 445.48,374.359 442.5,374.5C 439.641,373.076 436.975,371.409 434.5,369.5C 435.552,363.395 438.219,358.062 442.5,353.5C 444.771,352.637 447.105,352.637 449.5,353.5 Z"/></g>
<g><path style="opacity:0.749" fill="#3d4339" d="M 414.5,304.5 C 415.959,304.433 417.292,304.766 418.5,305.5C 418.223,308.448 418.556,311.281 419.5,314C 424.993,317.919 430.993,320.419 437.5,321.5C 437.833,322.167 438.167,322.833 438.5,323.5C 436.641,328.223 434.474,332.89 432,337.5C 431.333,338.833 431.333,340.167 432,341.5C 434.446,344.287 436.946,346.953 439.5,349.5C 441.4,347.384 443.733,346.051 446.5,345.5C 447.065,348.305 448.065,350.972 449.5,353.5C 447.105,352.637 444.771,352.637 442.5,353.5C 438.219,358.062 435.552,363.395 434.5,369.5C 436.975,371.409 439.641,373.076 442.5,374.5C 442.573,376.027 441.906,377.027 440.5,377.5C 439.163,376.685 438.163,375.518 437.5,374C 435.783,373.039 434.116,372.372 432.5,372C 429.5,375.5 426.5,379 423.5,382.5C 425.19,384.519 426.856,386.519 428.5,388.5C 427.609,389.11 426.609,389.443 425.5,389.5C 423.616,389.288 422.283,388.288 421.5,386.5C 416.804,388.53 413.47,391.863 411.5,396.5C 411.747,397.713 412.414,398.38 413.5,398.5C 412.89,399.391 412.557,400.391 412.5,401.5C 410.5,401.5 408.5,401.5 406.5,401.5C 406.334,406.179 406.501,410.845 407,415.5C 407.717,416.044 408.217,416.711 408.5,417.5C 408.768,419.099 408.434,420.432 407.5,421.5C 405.016,419.88 403.516,417.547 403,414.5C 401.938,413.101 400.605,412.101 399,411.5C 395.762,414.533 392.262,417.199 388.5,419.5C 389.806,423.446 391.639,427.112 394,430.5C 394.49,431.793 394.657,433.127 394.5,434.5C 393.213,435.528 392.046,435.195 391,433.5C 384.321,436.653 377.488,438.987 370.5,440.5C 370.267,435.106 369.601,429.773 368.5,424.5C 365.881,424.232 363.381,424.565 361,425.5C 360.501,430.155 360.334,434.821 360.5,439.5C 359.833,439.5 359.167,439.5 358.5,439.5C 358.67,438.178 358.337,437.011 357.5,436C 354.518,435.502 351.518,435.335 348.5,435.5C 348.5,436.5 348.5,437.5 348.5,438.5C 346.5,438.5 344.5,438.5 342.5,438.5C 341.874,435.328 341.207,432.161 340.5,429C 337.183,428.502 333.85,428.335 330.5,428.5C 330.5,431.5 330.5,434.5 330.5,437.5C 329.5,437.5 328.5,437.5 327.5,437.5C 327.5,435.833 327.5,434.167 327.5,432.5C 324.482,432.335 321.482,432.502 318.5,433C 316.771,434.789 316.104,436.956 316.5,439.5C 314.833,439.5 313.167,439.5 311.5,439.5C 311.5,437.833 311.5,436.167 311.5,434.5C 305.87,433.708 300.203,433.375 294.5,433.5C 294.279,436.279 294.612,438.946 295.5,441.5C 294.833,441.5 294.167,441.5 293.5,441.5C 292.771,436.87 292.437,432.203 292.5,427.5C 288.445,427.176 284.445,427.509 280.5,428.5C 279.184,432.429 278.184,436.429 277.5,440.5C 274.833,440.5 272.167,440.5 269.5,440.5C 271.128,437.581 272.462,434.581 273.5,431.5C 267.717,429.905 262.051,427.905 256.5,425.5C 252.146,429.522 247.813,433.522 243.5,437.5C 242.609,436.89 241.609,436.557 240.5,436.5C 241.81,434.852 243.143,433.186 244.5,431.5C 241.261,428.017 238.261,424.35 235.5,420.5C 231.887,422.129 228.554,424.129 225.5,426.5C 225.262,424.596 224.262,423.262 222.5,422.5C 225.908,421.98 229.241,420.98 232.5,419.5C 232.833,419 233.167,418.5 233.5,418C 232.449,411.462 230.783,405.128 228.5,399C 224.679,399.497 221.013,399.331 217.5,398.5C 217.741,396.114 217.075,394.114 215.5,392.5C 223.833,392.5 232.167,392.5 240.5,392.5C 240.177,388.774 240.511,385.107 241.5,381.5C 243.255,385.278 243.922,389.278 243.5,393.5C 251.174,393.334 258.841,393.5 266.5,394C 262.028,395.437 257.361,395.937 252.5,395.5C 252.5,397.833 252.5,400.167 252.5,402.5C 258.279,401.97 263.946,400.97 269.5,399.5C 269.328,400.492 269.662,401.158 270.5,401.5C 268.052,402.473 265.385,402.806 262.5,402.5C 263.14,405.774 264.807,408.441 267.5,410.5C 269.167,408.833 270.167,409.167 270.5,411.5C 270.392,412.442 270.059,413.275 269.5,414C 266.042,416.138 262.876,418.638 260,421.5C 259.517,422.448 259.351,423.448 259.5,424.5C 262.166,424.933 264.832,425.433 267.5,426C 269.579,427.64 271.912,428.806 274.5,429.5C 277.055,425.723 279.055,421.723 280.5,417.5C 281.167,417.5 281.5,417.833 281.5,418.5C 281.5,420.5 281.5,422.5 281.5,424.5C 285.167,424.5 288.833,424.5 292.5,424.5C 292.5,422.833 292.5,421.167 292.5,419.5C 295.167,419.5 297.833,419.5 300.5,419.5C 300.5,423.5 300.5,427.5 300.5,431.5C 306.516,431.407 312.516,431.074 318.5,430.5C 318.5,426.833 318.5,423.167 318.5,419.5C 319.167,419.5 319.833,419.5 320.5,419.5C 320.244,421.792 320.577,423.959 321.5,426C 327.48,425.928 333.48,425.761 339.5,425.5C 339.5,423.5 339.5,421.5 339.5,419.5C 340.5,419.5 341.5,419.5 342.5,419.5C 342.335,423.182 342.501,426.848 343,430.5C 343.374,431.416 343.874,432.25 344.5,433C 348.871,433.629 353.204,433.463 357.5,432.5C 357.237,428.4 357.57,424.4 358.5,420.5C 359.5,420.5 360.5,420.5 361.5,420.5C 362.552,421.53 363.886,422.197 365.5,422.5C 368.5,422 371.5,421.5 374.5,421C 375.337,419.989 375.67,418.822 375.5,417.5C 376.833,416.833 378.167,416.167 379.5,415.5C 379.856,416.87 380.69,417.87 382,418.5C 388.947,416.38 393.78,412.047 396.5,405.5C 396.152,403.152 394.818,401.818 392.5,401.5C 392.5,400.833 392.5,400.167 392.5,399.5C 392.918,398.778 393.584,398.278 394.5,398C 392.743,395.154 390.743,392.488 388.5,390C 386.126,389.257 384.126,389.757 382.5,391.5C 381.609,390.89 380.609,390.557 379.5,390.5C 380.511,388.598 380.678,386.598 380,384.5C 377.065,380.746 373.898,377.079 370.5,373.5C 369.751,376.527 369.084,379.527 368.5,382.5C 367.395,381.4 366.062,380.733 364.5,380.5C 366.661,375.002 366.828,369.335 365,363.5C 362.557,360.509 359.724,357.842 356.5,355.5C 356.5,353.5 356.5,351.5 356.5,349.5C 357.833,349.5 359.167,349.5 360.5,349.5C 362.285,344.153 364.285,338.819 366.5,333.5C 366.03,330.572 365.03,327.906 363.5,325.5C 364.473,323.861 365.806,322.527 367.5,321.5C 368.56,323.908 370.06,325.908 372,327.5C 376.022,324.652 380.189,321.985 384.5,319.5C 385.423,315.194 385.423,310.861 384.5,306.5C 384.842,305.662 385.508,305.328 386.5,305.5C 387.649,305.791 388.316,306.624 388.5,308C 389.159,310.462 389.493,312.962 389.5,315.5C 397.329,313.481 405.329,312.481 413.5,312.5C 413.194,309.615 413.527,306.948 414.5,304.5 Z M 287.5,392.5 C 286.501,397.758 288.834,400.425 294.5,400.5C 294.162,398.146 293.662,395.813 293,393.5C 291.301,392.594 289.467,392.261 287.5,392.5 Z"/></g>
<g><path style="opacity:0.899" fill="#422c40" d="M 411.5,358.5 C 413.527,358.338 415.527,358.505 417.5,359C 418.428,359.388 419.095,360.055 419.5,361C 417.722,366.165 416.056,371.332 414.5,376.5C 413.167,376.5 411.833,376.5 410.5,376.5C 410.579,375.07 410.246,373.736 409.5,372.5C 410.632,367.909 411.299,363.242 411.5,358.5 Z"/></g>
<g><path style="opacity:0.811" fill="#422d3f" d="M 389.5,360.5 C 390.586,360.62 391.253,361.287 391.5,362.5C 392.016,367.359 393.016,372.026 394.5,376.5C 392.396,376.799 390.396,376.466 388.5,375.5C 387.361,371.888 385.694,368.554 383.5,365.5C 385.544,363.781 387.544,362.114 389.5,360.5 Z"/></g>
<g><path style="opacity:0.501" fill="#453138" d="M 428.5,347.5 C 432.372,347.601 435.039,349.435 436.5,353C 434.39,358.053 431.89,362.886 429,367.5C 426.562,365.571 424.728,363.238 423.5,360.5C 425.318,356.229 426.985,351.896 428.5,347.5 Z"/></g>
<g><path style="opacity:0.876" fill="#422c3f" d="M 397.5,357.5 C 401.226,357.177 404.893,357.511 408.5,358.5C 407.615,363.126 406.949,367.793 406.5,372.5C 403.881,372.232 401.381,372.565 399,373.5C 398.328,368.965 397.494,364.465 396.5,360C 396.743,359.098 397.077,358.265 397.5,357.5 Z"/></g>
<g><path style="opacity:0.937" fill="#412a40" d="M 373.5,354.5 C 374.675,354.281 375.675,354.614 376.5,355.5C 380.851,363.723 384.517,372.223 387.5,381C 386.941,383.188 385.607,383.854 383.5,383C 378.553,377.462 374.053,371.629 370,365.5C 370.057,361.496 371.224,357.829 373.5,354.5 Z"/></g>
<g><path style="opacity:0.919" fill="#412b40" d="M 386.5,341.5 C 387.496,341.414 388.329,341.748 389,342.5C 390.529,347.809 390.696,353.142 389.5,358.5C 385.127,361.765 382.294,360.765 381,355.5C 379.405,352.012 378.905,348.512 379.5,345C 381.925,343.787 384.259,342.621 386.5,341.5 Z"/></g>
<g><path style="opacity:0.77" fill="#432d3d" d="M 413.5,335.5 C 418.267,335.945 422.6,337.445 426.5,340C 426.307,341.645 426.14,343.479 426,345.5C 424.437,349.19 422.937,352.857 421.5,356.5C 418.607,355.26 415.773,353.926 413,352.5C 413.169,346.836 413.336,341.169 413.5,335.5 Z"/></g>
<g><path style="opacity:0.948" fill="#402a42" d="M 368.5,339.5 C 371.231,340.388 373.231,342.221 374.5,345C 372.006,349.798 369.506,354.631 367,359.5C 362.155,356.536 361.155,352.536 364,347.5C 365.259,344.644 366.759,341.977 368.5,339.5 Z"/></g>
<g><path style="opacity:0.907" fill="#422c3f" d="M 394.5,338.5 C 407.922,335.748 411.922,340.581 406.5,353C 402.909,353.789 399.409,353.622 396,352.5C 393.842,347.917 393.342,343.251 394.5,338.5 Z"/></g>
<g><path style="opacity:0.837" fill="#422d3e" d="M 414.5,317.5 C 420.013,318.395 424.846,320.728 429,324.5C 429.492,336.246 424.825,338.579 415,331.5C 414.501,326.845 414.334,322.179 414.5,317.5 Z"/></g>
<g><path style="opacity:0.932" fill="#412a41" d="M 383.5,324.5 C 384.822,324.33 385.989,324.663 387,325.5C 387.584,329.095 388.418,332.595 389.5,336C 386.371,337.399 383.371,339.065 380.5,341C 379.167,341.667 377.833,341.667 376.5,341C 374.554,338.325 372.887,335.492 371.5,332.5C 375.218,329.315 379.218,326.648 383.5,324.5 Z"/></g>
<g><path style="opacity:0.896" fill="#422b40" d="M 404.5,316.5 C 407.187,316.336 409.854,316.503 412.5,317C 411.271,322.763 410.271,328.597 409.5,334.5C 403.833,334.5 398.167,334.5 392.5,334.5C 391.399,329.227 390.733,323.894 390.5,318.5C 395.353,318.187 400.02,317.521 404.5,316.5 Z"/></g>
<g><path style="opacity:0.65" fill="#45303a" d="M 420.5,367.5 C 423.207,367.848 425.207,369.181 426.5,371.5C 424.494,376.704 421.661,381.371 418,385.5C 416.72,385.387 415.887,384.72 415.5,383.5C 417.669,378.316 419.336,372.982 420.5,367.5 Z"/></g>
<g><path style="opacity:0.656" fill="#463039" d="M 440.5,377.5 C 439.814,385.201 435.814,388.867 428.5,388.5C 426.856,386.519 425.19,384.519 423.5,382.5C 426.5,379 429.5,375.5 432.5,372C 434.116,372.372 435.783,373.039 437.5,374C 438.163,375.518 439.163,376.685 440.5,377.5 Z"/></g>
<g><path style="opacity:0.784" fill="#422c3e" d="M 401.5,374.5 C 402.833,374.5 404.167,374.5 405.5,374.5C 404.74,380.804 404.407,387.137 404.5,393.5C 403.5,393.5 402.5,393.5 401.5,393.5C 400.465,388.427 399.132,383.427 397.5,378.5C 398.368,376.603 399.701,375.27 401.5,374.5 Z"/></g>
<g><path style="opacity:0.947" fill="#3b453b" d="M 162.5,397.5 C 160.577,401.668 157.91,405.335 154.5,408.5C 153.577,404.194 153.577,399.861 154.5,395.5C 153.448,395.351 152.448,395.517 151.5,396C 148.547,399.408 145.713,402.908 143,406.5C 141.935,400.189 141.602,393.856 142,387.5C 143.302,386.915 144.469,386.249 145.5,385.5C 151.86,384.995 158.026,383.662 164,381.5C 169.652,382.59 175.152,383.257 180.5,383.5C 177.567,389.273 172.901,392.439 166.5,393C 164.365,393.876 163.031,395.376 162.5,397.5 Z"/></g>
<g><path style="opacity:0.94" fill="#133342" d="M 269.5,399.5 C 263.946,400.97 258.279,401.97 252.5,402.5C 252.5,400.167 252.5,397.833 252.5,395.5C 257.361,395.937 262.028,395.437 266.5,394C 258.841,393.5 251.174,393.334 243.5,393.5C 243.922,389.278 243.255,385.278 241.5,381.5C 240.511,385.107 240.177,388.774 240.5,392.5C 232.167,392.5 223.833,392.5 215.5,392.5C 214.517,388.702 214.183,384.702 214.5,380.5C 231.837,380.333 249.17,380.5 266.5,381C 268.834,384.892 269.167,389.058 267.5,393.5C 269.104,395.179 269.771,397.179 269.5,399.5 Z"/></g>
<g><path style="opacity:0.936" fill="#3a463a" d="M 337.5,384.5 C 340.909,385.903 344.575,386.57 348.5,386.5C 348.5,390.167 348.5,393.833 348.5,397.5C 346.599,397.433 344.766,397.767 343,398.5C 341.14,396.799 338.973,395.799 336.5,395.5C 336.5,397.5 336.5,399.5 336.5,401.5C 334.473,401.662 332.473,401.495 330.5,401C 329.324,398.314 327.657,395.981 325.5,394C 318.488,393.171 313.155,389.671 309.5,383.5C 314.068,382.181 318.735,381.514 323.5,381.5C 328.441,381.482 333.108,382.482 337.5,384.5 Z"/></g>
<g><path style="opacity:0.687" fill="#412f3d" d="M 392.5,380.5 C 393.5,380.5 394.5,380.5 395.5,380.5C 396.243,385.884 397.243,391.217 398.5,396.5C 397.132,397.594 395.965,397.26 395,395.5C 392.799,391.934 391.299,388.1 390.5,384C 390.862,382.566 391.528,381.399 392.5,380.5 Z"/></g>
<g><path style="opacity:0.052" fill="#4c3826" d="M 286.5,379.5 C 290.182,379.335 293.848,379.501 297.5,380C 300.97,382.317 304.637,384.151 308.5,385.5C 308.551,390.378 309.385,395.045 311,399.5C 312.268,397.283 313.768,395.283 315.5,393.5C 316.5,394 317.5,394.5 318.5,395C 318.167,395.333 317.833,395.667 317.5,396C 320.105,397.021 322.772,397.855 325.5,398.5C 326.521,400.619 328.021,402.286 330,403.5C 330.667,405.5 330.667,407.5 330,409.5C 325.547,411.219 321.047,412.886 316.5,414.5C 311.286,414.752 305.952,414.418 300.5,413.5C 299.5,414.167 298.5,414.833 297.5,415.5C 288.385,413.58 281.051,408.913 275.5,401.5C 272.594,394.443 273.927,388.277 279.5,383C 281.713,381.384 284.047,380.217 286.5,379.5 Z M 287.5,392.5 C 286.501,397.758 288.834,400.425 294.5,400.5C 294.162,398.146 293.662,395.813 293,393.5C 291.301,392.594 289.467,392.261 287.5,392.5 Z"/></g>
<g><path style="opacity:0.842" fill="#422d3d" d="M 379.5,390.5 C 378.081,391.451 376.415,391.784 374.5,391.5C 374.631,390.624 374.298,389.957 373.5,389.5C 369.15,389.114 367.483,386.781 368.5,382.5C 369.084,379.527 369.751,376.527 370.5,373.5C 373.898,377.079 377.065,380.746 380,384.5C 380.678,386.598 380.511,388.598 379.5,390.5 Z"/></g>
<g><path style="opacity:0.86" fill="#432d3d" d="M 425.5,389.5 C 422.114,393.206 418.114,396.206 413.5,398.5C 412.414,398.38 411.747,397.713 411.5,396.5C 413.47,391.863 416.804,388.53 421.5,386.5C 422.283,388.288 423.616,389.288 425.5,389.5 Z"/></g>
<g><path style="opacity:0.758" fill="#432e3d" d="M 408.5,380.5 C 410.665,380.116 412.332,380.783 413.5,382.5C 412.103,387.192 410.603,391.859 409,396.5C 408.586,396.957 408.086,397.291 407.5,397.5C 405.994,394.059 406.327,390.892 408.5,388C 407.221,385.502 407.221,383.002 408.5,380.5 Z"/></g>
<g><path style="opacity:0.672" fill="#443039" d="M 392.5,399.5 C 391.448,399.649 390.448,399.483 389.5,399C 388.122,397.287 386.455,395.953 384.5,395C 383.177,394.184 382.511,393.017 382.5,391.5C 384.126,389.757 386.126,389.257 388.5,390C 390.743,392.488 392.743,395.154 394.5,398C 393.584,398.278 392.918,398.778 392.5,399.5 Z"/></g>
<g><path style="opacity:0.852" fill="#183441" d="M 239.5,395.5 C 242.518,395.335 245.518,395.502 248.5,396C 249.777,398.466 249.777,400.966 248.5,403.5C 243.592,404.963 238.592,405.963 233.5,406.5C 233.5,403.167 233.5,399.833 233.5,396.5C 235.735,396.795 237.735,396.461 239.5,395.5 Z"/></g>
<g><path style="opacity:0.759" fill="#322b32" d="M 401.5,396.5 C 402.117,396.611 402.617,396.944 403,397.5C 404.801,402.273 404.801,406.94 403,411.5C 401.5,410 400,408.5 398.5,407C 399.801,403.596 400.801,400.096 401.5,396.5 Z"/></g>
<g><path style="opacity:0.122" fill="#4a3525" d="M 361.5,380.5 C 362.5,380.5 363.5,380.5 364.5,380.5C 366.062,380.733 367.395,381.4 368.5,382.5C 367.483,386.781 369.15,389.114 373.5,389.5C 374.298,389.957 374.631,390.624 374.5,391.5C 374.5,392.5 374.5,393.5 374.5,394.5C 375.552,394.351 376.552,394.517 377.5,395C 379.728,397.149 382.061,399.149 384.5,401C 383.833,401.333 383.167,401.667 382.5,402C 383.833,403 383.833,404 382.5,405C 383.167,405.333 383.833,405.667 384.5,406C 383.167,406.667 382.167,407.667 381.5,409C 377.166,410.833 372.833,412.667 368.5,414.5C 366.359,414.112 364.359,414.112 362.5,414.5C 361.808,415.025 361.308,415.692 361,416.5C 358.117,413.765 354.783,413.098 351,414.5C 348.347,413.372 345.681,412.372 343,411.5C 341.618,409.208 341.118,406.875 341.5,404.5C 344.175,403.004 346.175,403.671 347.5,406.5C 348.484,403.572 348.817,400.572 348.5,397.5C 348.5,393.833 348.5,390.167 348.5,386.5C 344.575,386.57 340.909,385.903 337.5,384.5C 338.268,383.737 338.768,382.737 339,381.5C 339.669,384.267 340.836,384.767 342.5,383C 340.906,380.693 341.572,379.36 344.5,379C 344.043,378.586 343.709,378.086 343.5,377.5C 344.963,375.271 345.797,372.937 346,370.5C 346.354,372.807 347.354,373.141 349,371.5C 353.593,372.859 356.76,375.692 358.5,380C 359.448,380.483 360.448,380.649 361.5,380.5 Z"/></g>
<g><path style="opacity:0.847" fill="#302935" d="M 412.5,401.5 C 413.477,406.768 413.477,412.101 412.5,417.5C 411.167,417.5 409.833,417.5 408.5,417.5C 408.217,416.711 407.717,416.044 407,415.5C 406.501,410.845 406.334,406.179 406.5,401.5C 408.5,401.5 410.5,401.5 412.5,401.5 Z"/></g>
<g><path style="opacity:0.008" fill="#503d28" d="M 436.5,404.5 C 437.833,405.167 437.833,405.167 436.5,404.5 Z"/></g>
<g><path style="opacity:0.849" fill="#322a33" d="M 392.5,401.5 C 394.818,401.818 396.152,403.152 396.5,405.5C 393.78,412.047 388.947,416.38 382,418.5C 380.69,417.87 379.856,416.87 379.5,415.5C 382.254,412.846 385.421,410.513 389,408.5C 389.436,405.602 390.603,403.269 392.5,401.5 Z"/></g>
<g><path style="opacity:0.868" fill="#163341" d="M 217.5,398.5 C 221.013,399.331 224.679,399.497 228.5,399C 230.783,405.128 232.449,411.462 233.5,418C 233.167,418.5 232.833,419 232.5,419.5C 229.241,420.98 225.908,421.98 222.5,422.5C 221.178,422.67 220.011,422.337 219,421.5C 218.34,418.322 217.507,415.322 216.5,412.5C 215.974,408.65 215.307,404.816 214.5,401C 214.748,399.251 215.748,398.418 217.5,398.5 Z"/></g>
<g><path style="opacity:0.86" fill="#183441" d="M 254.5,405.5 C 257.044,405.104 259.211,405.771 261,407.5C 262.314,410.089 262.981,412.756 263,415.5C 257.183,419.925 251.349,424.259 245.5,428.5C 241.143,423.563 237.81,418.063 235.5,412C 241.789,409.354 248.122,407.188 254.5,405.5 Z"/></g>
<g><path style="opacity:0.727" fill="#312933" d="M 375.5,417.5 C 375.67,418.822 375.337,419.989 374.5,421C 371.5,421.5 368.5,422 365.5,422.5C 363.886,422.197 362.552,421.53 361.5,420.5C 361.281,419.325 361.614,418.325 362.5,417.5C 367.017,415.164 371.351,415.164 375.5,417.5 Z"/></g>
<g><path style="opacity:0.949" fill="#2c2536" d="M 292.5,419.5 C 292.5,421.167 292.5,422.833 292.5,424.5C 288.833,424.5 285.167,424.5 281.5,424.5C 281.5,422.5 281.5,420.5 281.5,418.5C 285.562,416.824 289.229,417.158 292.5,419.5 Z"/></g>
<g><path style="opacity:0.951" fill="#2b2536" d="M 339.5,419.5 C 339.5,421.5 339.5,423.5 339.5,425.5C 333.48,425.761 327.48,425.928 321.5,426C 320.577,423.959 320.244,421.792 320.5,419.5C 323.258,418.182 326.424,417.515 330,417.5C 333.576,417.515 336.742,418.182 339.5,419.5 Z"/></g>
<g><path style="opacity:0.915" fill="#133343" d="M 270.5,401.5 C 271.86,403.046 272.86,404.88 273.5,407C 272.373,408.057 271.873,409.223 272,410.5C 272.718,409.549 273.551,409.383 274.5,410C 277.166,412.145 279.166,414.645 280.5,417.5C 279.055,421.723 277.055,425.723 274.5,429.5C 271.912,428.806 269.579,427.64 267.5,426C 264.832,425.433 262.166,424.933 259.5,424.5C 259.351,423.448 259.517,422.448 260,421.5C 262.876,418.638 266.042,416.138 269.5,414C 270.059,413.275 270.392,412.442 270.5,411.5C 270.167,409.167 269.167,408.833 267.5,410.5C 264.807,408.441 263.14,405.774 262.5,402.5C 265.385,402.806 268.052,402.473 270.5,401.5 Z"/></g>
<g><path style="opacity:0.847" fill="#2e2835" d="M 358.5,420.5 C 357.57,424.4 357.237,428.4 357.5,432.5C 353.204,433.463 348.871,433.629 344.5,433C 343.874,432.25 343.374,431.416 343,430.5C 342.501,426.848 342.335,423.182 342.5,419.5C 347.416,418.389 352.416,418.222 357.5,419C 358.056,419.383 358.389,419.883 358.5,420.5 Z"/></g>
<g><path style="opacity:0.88" fill="#2c2636" d="M 318.5,419.5 C 318.5,423.167 318.5,426.833 318.5,430.5C 312.516,431.074 306.516,431.407 300.5,431.5C 300.5,427.5 300.5,423.5 300.5,419.5C 306.654,420.473 312.654,420.473 318.5,419.5 Z"/></g>
<g><path style="opacity:0.87" fill="#2e2836" d="M 384.5,419.5 C 385.376,419.369 386.043,419.702 386.5,420.5C 388.292,423.634 389.625,426.967 390.5,430.5C 385.041,434.032 379.041,435.699 372.5,435.5C 372.206,431.9 371.54,428.4 370.5,425C 375.242,423.158 379.908,421.324 384.5,419.5 Z"/></g>
<g><path style="opacity:0.777" fill="#1b343f" d="M 240.5,436.5 C 239.406,437.582 238.073,438.248 236.5,438.5C 232.422,435.377 228.255,432.377 224,429.5C 223.415,428.002 223.915,427.002 225.5,426.5C 228.554,424.129 231.887,422.129 235.5,420.5C 238.261,424.35 241.261,428.017 244.5,431.5C 243.143,433.186 241.81,434.852 240.5,436.5 Z"/></g>
<g><path style="opacity:0.859" fill="#2d2735" d="M 370.5,440.5 C 369.378,441.156 368.045,441.489 366.5,441.5C 364.117,441.639 362.117,440.972 360.5,439.5C 360.334,434.821 360.501,430.155 361,425.5C 363.381,424.565 365.881,424.232 368.5,424.5C 369.601,429.773 370.267,435.106 370.5,440.5 Z"/></g>
<g><path style="opacity:0.855" fill="#183340" d="M 269.5,440.5 C 263.013,441.654 256.346,441.821 249.5,441C 246.975,440.576 244.975,439.41 243.5,437.5C 247.813,433.522 252.146,429.522 256.5,425.5C 262.051,427.905 267.717,429.905 273.5,431.5C 272.462,434.581 271.128,437.581 269.5,440.5 Z"/></g>
<g><path style="opacity:0.929" fill="#143342" d="M 293.5,441.5 C 287.974,441.821 282.64,441.488 277.5,440.5C 278.184,436.429 279.184,432.429 280.5,428.5C 284.445,427.509 288.445,427.176 292.5,427.5C 292.437,432.203 292.771,436.87 293.5,441.5 Z"/></g>
<g><path style="opacity:0.856" fill="#282c38" d="M 342.5,438.5 C 340.952,439.794 338.952,440.461 336.5,440.5C 333.957,440.36 331.623,439.694 329.5,438.5C 328.614,439.325 328.281,440.325 328.5,441.5C 324.029,442.089 320.029,441.423 316.5,439.5C 316.104,436.956 316.771,434.789 318.5,433C 321.482,432.502 324.482,432.335 327.5,432.5C 327.5,434.167 327.5,435.833 327.5,437.5C 328.5,437.5 329.5,437.5 330.5,437.5C 330.5,434.5 330.5,431.5 330.5,428.5C 333.85,428.335 337.183,428.502 340.5,429C 341.207,432.161 341.874,435.328 342.5,438.5 Z"/></g>
<g><path style="opacity:0.845" fill="#322a34" d="M 407.5,421.5 C 408.218,423.137 408.384,424.803 408,426.5C 405.298,430.276 401.965,433.276 398,435.5C 396.862,435.011 395.695,434.678 394.5,434.5C 394.657,433.127 394.49,431.793 394,430.5C 391.639,427.112 389.806,423.446 388.5,419.5C 392.262,417.199 395.762,414.533 399,411.5C 400.605,412.101 401.938,413.101 403,414.5C 403.516,417.547 405.016,419.88 407.5,421.5 Z"/></g>
<g><path style="opacity:0.864" fill="#173341" d="M 311.5,439.5 C 306.604,441.446 301.271,442.113 295.5,441.5C 294.612,438.946 294.279,436.279 294.5,433.5C 300.203,433.375 305.87,433.708 311.5,434.5C 311.5,436.167 311.5,437.833 311.5,439.5 Z"/></g>
<g><path style="opacity:0.901" fill="#2f2735" d="M 358.5,439.5 C 357.486,440.765 355.986,441.431 354,441.5C 352.5,441.333 351,441.167 349.5,441C 348.748,440.329 348.414,439.496 348.5,438.5C 348.5,437.5 348.5,436.5 348.5,435.5C 351.518,435.335 354.518,435.502 357.5,436C 358.337,437.011 358.67,438.178 358.5,439.5 Z"/></g>
</svg>
