<?xml version="1.0" encoding="UTF-8"?>
<!DOCTYPE svg PUBLIC "-//W3C//DTD SVG 1.1//EN" "http://www.w3.org/Graphics/SVG/1.1/DTD/svg11.dtd">
<svg xmlns="http://www.w3.org/2000/svg" version="1.1" width="500px" height="500px" style="shape-rendering:geometricPrecision; text-rendering:geometricPrecision; image-rendering:optimizeQuality; fill-rule:evenodd; clip-rule:evenodd" xmlns:xlink="http://www.w3.org/1999/xlink">
<g><path style="opacity:0.041" fill="#4f3b27" d="M 427.5,398.5 C 425.783,400.517 423.783,400.85 421.5,399.5C 420.304,399.846 420.304,400.346 421.5,401C 415.776,401.06 410.11,400.394 404.5,399C 404.833,398.667 405.167,398.333 405.5,398C 403.944,396.401 402.277,394.901 400.5,393.5C 399.786,391.189 398.786,389.022 397.5,387C 396.365,386.251 395.365,386.417 394.5,387.5C 394.02,393.129 393.02,398.629 391.5,404C 391.419,412.903 391.419,421.57 391.5,430C 390.593,438.771 388.926,447.438 386.5,456C 387.583,463.723 383.916,468.89 375.5,471.5C 374.833,471.167 374.167,470.833 373.5,470.5C 372.312,471.84 370.812,472.507 369,472.5C 358.985,472.566 348.818,472.4 338.5,472C 330.914,471.744 326.414,467.911 325,460.5C 322.795,439.523 324.962,419.023 331.5,399C 331.415,397.893 331.081,396.893 330.5,396C 324.54,394.308 318.54,392.808 312.5,391.5C 293.706,400.937 273.872,403.937 253,400.5C 250.172,413.302 247.339,426.136 244.5,439C 245.285,441.042 244.952,443.042 243.5,445C 243.87,448.742 243.87,452.742 243.5,457C 242.816,458.693 241.816,460.193 240.5,461.5C 240.709,462.086 241.043,462.586 241.5,463C 238.153,465.653 234.987,467.82 232,469.5C 227.81,470.438 223.644,471.438 219.5,472.5C 218.522,472.023 217.689,471.357 217,470.5C 210.886,471.228 204.72,471.895 198.5,472.5C 193.646,472.022 188.979,470.856 184.5,469C 183.842,467.095 182.675,465.595 181,464.5C 177.071,451.898 176.738,439.231 180,426.5C 183.196,420.077 185.696,413.41 187.5,406.5C 185.823,399.314 181.823,393.814 175.5,390C 168.574,387.702 161.574,385.702 154.5,384C 147.439,384.011 140.439,384.844 133.5,386.5C 128.983,385.971 124.65,384.804 120.5,383C 119.54,381.581 118.707,380.081 118,378.5C 116.875,356.631 115.708,334.798 114.5,313C 115.352,303.724 117.019,294.558 119.5,285.5C 111.482,284.98 103.482,284.647 95.5,284.5C 84.681,286.246 73.8476,287.913 63,289.5C 56.949,289.901 51.7823,288.068 47.5,284C 46.9732,281.809 46.9732,279.475 47.5,277C 46.6433,276.311 45.9767,275.478 45.5,274.5C 47.1972,270.064 48.0305,265.397 48,260.5C 52.6374,254.882 53.9707,248.549 52,241.5C 51.5828,232.171 51.4162,223.005 51.5,214C 52.5215,204.794 54.6882,195.628 58,186.5C 61.2486,179.711 65.7486,173.878 71.5,169C 79.8275,164.614 88.4942,161.114 97.5,158.5C 99.0291,155.246 100.362,151.913 101.5,148.5C 101.023,147.522 100.357,146.689 99.5,146C 90.3657,143.654 81.6991,140.321 73.5,136C 69.6019,133.027 67.1019,129.194 66,124.5C 63.7949,114.067 62.6283,103.901 62.5,94C 62.5244,84.0424 64.5244,74.5424 68.5,65.5C 69.5,65.5 70.5,65.5 71.5,65.5C 72.5593,62.9576 74.8926,60.7909 78.5,59C 101.649,48.8388 125.149,39.6722 149,31.5C 150,31.8333 151,32.1667 152,32.5C 156.203,30.2714 160.703,28.7714 165.5,28C 178.82,26.3301 192.154,26.3301 205.5,28C 212.654,28.6815 219.654,30.0148 226.5,32C 229.181,34.194 230.681,37.0273 231,40.5C 232.034,47.3667 231.367,54.0333 229,60.5C 227.316,62.3513 225.483,64.018 223.5,65.5C 227.334,67.2977 231.334,68.7977 235.5,70C 237.09,71.0458 238.59,72.2125 240,73.5C 248.086,92.191 250.086,111.524 246,131.5C 240.74,142.355 235.24,153.021 229.5,163.5C 232.926,165.601 236.593,167.434 240.5,169C 241.667,170.167 242.833,171.333 244,172.5C 246.771,178.581 248.771,184.914 250,191.5C 256.631,196.566 263.797,200.733 271.5,204C 283.952,207.262 296.286,210.929 308.5,215C 314.367,218.531 318.367,223.531 320.5,230C 340.319,232.186 359.652,230.186 378.5,224C 391.558,221.949 404.558,222.282 417.5,225C 423.391,226.612 428.725,229.279 433.5,233C 441.529,242.231 447.529,252.231 451.5,263C 451.167,263.333 450.833,263.667 450.5,264C 451.242,269.112 451.908,274.278 452.5,279.5C 452.393,285.435 452.393,291.101 452.5,296.5C 451.81,301.986 451.143,307.486 450.5,313C 450.833,314 451.167,315 451.5,316C 450.253,322.722 449.253,329.389 448.5,336C 448.721,337.799 449.054,339.632 449.5,341.5C 447.591,349.889 445.757,358.555 444,367.5C 443.293,369.081 442.46,370.581 441.5,372C 441.833,372.333 442.167,372.667 442.5,373C 439.994,376.631 437.994,380.631 436.5,385C 437.022,385.561 437.355,386.228 437.5,387C 436.494,388.338 435.494,389.671 434.5,391C 434.833,391.333 435.167,391.667 435.5,392C 434.36,393.973 433.027,395.807 431.5,397.5C 429.969,396.579 428.635,396.912 427.5,398.5 Z"/></g>
<g><path style="opacity:0.95" fill="#231e18" d="M 188.5,43.5 C 183.967,52.4487 179.634,61.4487 175.5,70.5C 172.749,73.5718 169.415,75.9052 165.5,77.5C 166.238,66.8497 166.572,56.183 166.5,45.5C 165.737,44.7321 164.737,44.2321 163.5,44C 171.827,43.5003 180.16,43.3336 188.5,43.5 Z"/></g>
<g><path style="opacity:0.962" fill="#4e453d" d="M 188.5,43.5 C 191.388,42.9898 193.721,43.6565 195.5,45.5C 193.267,51.0616 190.601,56.3949 187.5,61.5C 186.512,62.795 185.512,64.1283 184.5,65.5C 181.661,67.4203 178.661,69.0869 175.5,70.5C 179.634,61.4487 183.967,52.4487 188.5,43.5 Z"/></g>
<g><path style="opacity:0.937" fill="#241e17" d="M 209.5,44.5 C 211.717,45.3686 214.05,45.702 216.5,45.5C 217.686,46.7054 217.686,48.0387 216.5,49.5C 214.421,49.9707 212.421,50.6373 210.5,51.5C 202.115,51.7765 195.281,55.1098 190,61.5C 188.869,62.3353 188.036,62.3353 187.5,61.5C 190.601,56.3949 193.267,51.0616 195.5,45.5C 196.819,44.1032 198.486,43.4365 200.5,43.5C 203.468,44.1616 206.468,44.495 209.5,44.5 Z"/></g>
<g><path style="opacity:0.966" fill="#4f463e" d="M 166.5,45.5 C 166.572,56.183 166.238,66.8497 165.5,77.5C 163.393,79.7267 161.06,81.7267 158.5,83.5C 157.86,72.1298 156.86,60.7965 155.5,49.5C 156.122,47.665 157.456,46.4983 159.5,46C 161.81,45.5034 164.143,45.3367 166.5,45.5 Z"/></g>
<g><path style="opacity:0.34" fill="#422d20" d="M 209.5,44.5 C 206.468,44.495 203.468,44.1616 200.5,43.5C 198.486,43.4365 196.819,44.1032 195.5,45.5C 193.721,43.6565 191.388,42.9898 188.5,43.5C 180.16,43.3336 171.827,43.5003 163.5,44C 164.737,44.2321 165.737,44.7321 166.5,45.5C 164.143,45.3367 161.81,45.5034 159.5,46C 157.456,46.4983 156.122,47.665 155.5,49.5C 154.844,48.7222 154.011,48.0556 153,47.5C 137.728,53.4201 122.561,59.4201 107.5,65.5C 103.316,67.2053 99.3163,69.2053 95.5,71.5C 95.8627,72.1835 96.1961,72.8501 96.5,73.5C 93.8872,72.5651 91.2205,72.3985 88.5,73C 86.3907,74.6455 84.0573,75.8122 81.5,76.5C 81.3893,75.8826 81.056,75.3826 80.5,75C 83.1667,73 85.8333,71 88.5,69C 98.4455,64.5631 108.612,59.7298 119,54.5C 119.333,54.8333 119.667,55.1667 120,55.5C 123.111,53.2285 126.611,52.0619 130.5,52C 145.055,45.2076 160.389,40.7076 176.5,38.5C 184.492,39.1613 192.325,39.1613 200,38.5C 203.475,40.1462 206.642,42.1462 209.5,44.5 Z"/></g>
<g><path style="opacity:0.96" fill="#221d17" d="M 155.5,49.5 C 156.86,60.7965 157.86,72.1298 158.5,83.5C 156.482,84.8592 154.482,86.1925 152.5,87.5C 138.031,79.4335 123.031,72.1002 107.5,65.5C 122.561,59.4201 137.728,53.4201 153,47.5C 154.011,48.0556 154.844,48.7222 155.5,49.5 Z"/></g>
<g><path style="opacity:0.964" fill="#4e463e" d="M 107.5,65.5 C 123.031,72.1002 138.031,79.4335 152.5,87.5C 152.81,90.7131 152.477,93.7131 151.5,96.5C 133.728,87.4657 115.395,79.799 96.5,73.5C 96.1961,72.8501 95.8627,72.1835 95.5,71.5C 99.3163,69.2053 103.316,67.2053 107.5,65.5 Z"/></g>
<g><path style="opacity:0.202" fill="#483324" d="M 216.5,45.5 C 214.05,45.702 211.717,45.3686 209.5,44.5C 206.642,42.1462 203.475,40.1462 200,38.5C 192.325,39.1613 184.492,39.1613 176.5,38.5C 160.389,40.7076 145.055,45.2076 130.5,52C 126.611,52.0619 123.111,53.2285 120,55.5C 119.667,55.1667 119.333,54.8333 119,54.5C 108.612,59.7298 98.4455,64.5631 88.5,69C 85.8333,71 83.1667,73 80.5,75C 81.056,75.3826 81.3893,75.8826 81.5,76.5C 81.3404,78.153 80.6737,79.4863 79.5,80.5C 78.8826,80.6107 78.3826,80.944 78,81.5C 76.8099,86.928 75.3099,92.2614 73.5,97.5C 74.2618,101.111 74.7618,104.778 75,108.5C 77.1223,109.22 77.6223,110.387 76.5,112C 78.4127,115.661 79.9127,119.494 81,123.5C 86.8609,127.32 93.0276,130.82 99.5,134C 106.703,134.719 113.703,136.219 120.5,138.5C 120.472,140.582 121.139,142.416 122.5,144C 121.366,145.016 121.699,145.683 123.5,146C 120.299,149.536 116.799,152.703 113,155.5C 112.654,157.218 112.154,158.885 111.5,160.5C 108.976,162.19 106.976,164.357 105.5,167C 98.6666,170.781 91.6666,174.281 84.5,177.5C 83.1667,178.167 83.1667,178.833 84.5,179.5C 85.6868,178.347 86.6868,178.347 87.5,179.5C 74.1089,188.433 67.6089,201.099 68,217.5C 67.5003,225.827 67.3336,234.16 67.5,242.5C 74.7395,241.953 81.7395,242.62 88.5,244.5C 91.6363,252.37 94.4697,260.37 97,268.5C 107.134,270.274 116.301,268.108 124.5,262C 131.479,256.181 137.145,249.348 141.5,241.5C 141.167,241.167 140.833,240.833 140.5,240.5C 138.971,241.763 137.305,242.763 135.5,243.5C 131.254,233.935 134.254,229.435 144.5,230C 146.658,231.457 148.491,233.29 150,235.5C 149.959,241.3 151.125,246.8 153.5,252C 152.674,258.199 151.507,264.032 150,269.5C 142.964,275.705 136.797,282.705 131.5,290.5C 125.663,302.357 124.33,314.69 127.5,327.5C 127.594,334.303 127.26,341.136 126.5,348C 126.99,349.982 127.99,351.649 129.5,353C 128.383,356.073 128.216,359.24 129,362.5C 129.377,363.942 130.21,364.942 131.5,365.5C 131.662,367.527 131.495,369.527 131,371.5C 126.427,369.142 123.594,365.476 122.5,360.5C 122.709,359.914 123.043,359.414 123.5,359C 122.159,340.967 121.659,323.134 122,305.5C 124.142,290.876 131.142,279.21 143,270.5C 145.072,267.068 145.738,263.402 145,259.5C 144.261,258.426 143.261,257.759 142,257.5C 140.296,257.974 138.462,258.141 136.5,258C 129.465,267.893 120.298,274.06 109,276.5C 106.789,276.377 104.622,276.377 102.5,276.5C 98.3837,275.46 94.5504,274.46 91,273.5C 83.5753,276.787 75.9087,278.121 68,277.5C 67.51,276.207 67.3433,274.873 67.5,273.5C 69.7345,273.38 71.9011,273.713 74,274.5C 76.7342,273.404 78.9009,271.737 80.5,269.5C 83.3915,268.597 86.3915,268.264 89.5,268.5C 87.3437,262.379 86.3437,256.046 86.5,249.5C 80.7969,249.375 75.1302,249.708 69.5,250.5C 68.9609,258.576 65.9609,265.576 60.5,271.5C 59.1696,270.168 57.5029,269.335 55.5,269C 56.6872,267.981 57.6872,266.814 58.5,265.5C 57.9747,264.808 57.3081,264.308 56.5,264C 56.5981,258.736 59.2647,255.902 64.5,255.5C 64.6427,253.738 64.3094,252.071 63.5,250.5C 67.0364,250.021 67.0364,248.855 63.5,247C 63.9574,246.586 64.2907,246.086 64.5,245.5C 62.9709,242.246 61.6376,238.913 60.5,235.5C 60.2724,232.122 60.6057,228.622 61.5,225C 59.1308,220.17 59.7974,215.67 63.5,211.5C 63.234,189.735 73.5673,175.735 94.5,169.5C 95.086,169.709 95.586,170.043 96,170.5C 100.626,167.542 104.626,163.876 108,159.5C 110.824,154.672 113.658,149.839 116.5,145C 116.415,143.893 116.081,142.893 115.5,142C 106.98,138.383 98.3133,135.383 89.5,133C 88.1667,132.333 88.1667,131.667 89.5,131C 85.101,129.485 81.101,127.319 77.5,124.5C 75.6085,120.773 73.9419,116.939 72.5,113C 72.8333,112.667 73.1667,112.333 73.5,112C 70.8966,110.425 69.5633,108.092 69.5,105C 69.5616,99.3388 69.5616,93.6721 69.5,88C 70.3298,85.1983 71.1632,82.365 72,79.5C 74.1801,77.1367 75.8468,74.47 77,71.5C 78.7998,69.683 80.9664,68.5163 83.5,68C 89.3718,62.3159 96.3718,58.8159 104.5,57.5C 107.89,56.9767 111.223,56.1434 114.5,55C 118.88,52.0953 123.547,49.762 128.5,48C 136.728,45.8788 144.728,43.2121 152.5,40C 162.148,37.948 171.815,36.1147 181.5,34.5C 184.126,35.2923 186.792,35.9589 189.5,36.5C 191.852,34.6866 194.518,34.6866 197.5,36.5C 202.559,35.9305 207.559,36.7639 212.5,39C 214.666,40.678 215.999,42.8447 216.5,45.5 Z"/></g>
<g><path style="opacity:0.943" fill="#221d17" d="M 96.5,73.5 C 115.395,79.799 133.728,87.4657 151.5,96.5C 153.242,99.1445 153.909,102.145 153.5,105.5C 146.435,100.613 139.768,95.1127 133.5,89C 132.552,88.5172 131.552,88.3505 130.5,88.5C 129.637,94.4549 129.303,100.455 129.5,106.5C 112.371,102.389 95.704,97.0555 79.5,90.5C 79.5,87.1667 79.5,83.8333 79.5,80.5C 80.6737,79.4863 81.3404,78.153 81.5,76.5C 84.0573,75.8122 86.3907,74.6455 88.5,73C 91.2205,72.3985 93.8872,72.5651 96.5,73.5 Z"/></g>
<g><path style="opacity:0.956" fill="#221d17" d="M 187.5,77.5 C 200.62,79.3757 213.62,81.7091 226.5,84.5C 229.968,93.8029 231.968,103.47 232.5,113.5C 219.207,118.809 205.874,124.142 192.5,129.5C 183.734,126.283 175.401,122.283 167.5,117.5C 167.389,116.883 167.056,116.383 166.5,116C 175.556,106.609 184.89,97.6086 194.5,89C 188.472,88.1697 182.472,88.3364 176.5,89.5C 176.833,90.1667 177.167,90.8333 177.5,91.5C 180.167,92.1667 182.833,92.8333 185.5,93.5C 180.131,99.8705 174.131,105.537 167.5,110.5C 166.335,101.518 166.168,92.5185 167,83.5C 171.064,79.006 176.23,76.6727 182.5,76.5C 184.071,77.3094 185.738,77.6427 187.5,77.5 Z"/></g>
<g><path style="opacity:0.957" fill="#4f463e" d="M 153.5,105.5 C 154.203,107.716 155.536,109.549 157.5,111C 160.72,113.437 164.053,115.603 167.5,117.5C 175.401,122.283 183.734,126.283 192.5,129.5C 205.874,124.142 219.207,118.809 232.5,113.5C 232.675,115.621 232.341,117.621 231.5,119.5C 218.988,124.173 206.654,129.34 194.5,135C 192.5,135.667 190.5,135.667 188.5,135C 184.469,133.827 180.469,132.66 176.5,131.5C 176.942,135.154 177.276,138.821 177.5,142.5C 172.657,142.117 167.991,142.783 163.5,144.5C 165.171,147.492 167.171,150.159 169.5,152.5C 160.301,153.031 151.301,152.031 142.5,149.5C 140.414,147.178 137.914,145.178 135,143.5C 133.128,140.404 131.295,137.404 129.5,134.5C 129.49,129.085 128.823,123.752 127.5,118.5C 111.476,113.828 95.4758,109.162 79.5,104.5C 78.1667,99.8333 78.1667,95.1667 79.5,90.5C 95.704,97.0555 112.371,102.389 129.5,106.5C 129.303,100.455 129.637,94.4549 130.5,88.5C 131.552,88.3505 132.552,88.5172 133.5,89C 139.768,95.1127 146.435,100.613 153.5,105.5 Z"/></g>
<g><path style="opacity:0.477" fill="#3d281d" d="M 184.5,65.5 C 185.586,65.62 186.253,66.2867 186.5,67.5C 184.551,69.7918 183.551,72.4585 183.5,75.5C 185.38,75.2291 186.713,75.8958 187.5,77.5C 185.738,77.6427 184.071,77.3094 182.5,76.5C 176.23,76.6727 171.064,79.006 167,83.5C 166.168,92.5185 166.335,101.518 167.5,110.5C 174.131,105.537 180.131,99.8705 185.5,93.5C 182.833,92.8333 180.167,92.1667 177.5,91.5C 177.167,90.8333 176.833,90.1667 176.5,89.5C 182.472,88.3364 188.472,88.1697 194.5,89C 184.89,97.6086 175.556,106.609 166.5,116C 167.056,116.383 167.389,116.883 167.5,117.5C 164.053,115.603 160.72,113.437 157.5,111C 155.536,109.549 154.203,107.716 153.5,105.5C 153.909,102.145 153.242,99.1445 151.5,96.5C 152.477,93.7131 152.81,90.7131 152.5,87.5C 154.482,86.1925 156.482,84.8592 158.5,83.5C 161.06,81.7267 163.393,79.7267 165.5,77.5C 169.415,75.9052 172.749,73.5718 175.5,70.5C 178.661,69.0869 181.661,67.4203 184.5,65.5 Z"/></g>
<g><path style="opacity:0.113" fill="#4b3725" d="M 436.5,255.5 C 434.058,255.881 433.391,255.214 434.5,253.5C 433.167,252.833 431.833,252.167 430.5,251.5C 430.39,249.902 430.057,248.235 429.5,246.5C 420.085,234.565 407.585,229.565 392,231.5C 382.613,231.026 373.447,233.026 364.5,237.5C 361.643,236.831 358.81,237.164 356,238.5C 344.371,238.622 332.538,238.456 320.5,238C 313.631,236.278 308.631,232.278 305.5,226C 301.924,223.81 298.257,221.81 294.5,220C 276.857,216.624 260.857,210.457 246.5,201.5C 241.619,194.618 237.619,187.284 234.5,179.5C 232.641,177.808 230.641,176.308 228.5,175C 224.686,174.981 221.353,173.314 218.5,170C 218.626,168.026 218.792,165.859 219,163.5C 224.757,150.745 230.757,138.078 237,125.5C 240.738,114.587 240.238,104.253 235.5,94.5C 236.485,92.9017 236.651,91.235 236,89.5C 234.92,87.0038 233.586,84.6705 232,82.5C 231.667,82.8333 231.333,83.1667 231,83.5C 228.481,80.6119 225.648,78.1119 222.5,76C 215.909,74.2462 209.242,72.9129 202.5,72C 199.125,70.9705 197.958,68.8039 199,65.5C 206.256,61.7451 212.089,56.4118 216.5,49.5C 217.686,48.0387 217.686,46.7054 216.5,45.5C 215.999,42.8447 214.666,40.678 212.5,39C 207.559,36.7639 202.559,35.9305 197.5,36.5C 194.518,34.6866 191.852,34.6866 189.5,36.5C 186.792,35.9589 184.126,35.2923 181.5,34.5C 171.815,36.1147 162.148,37.948 152.5,40C 144.728,43.2121 136.728,45.8788 128.5,48C 123.547,49.762 118.88,52.0953 114.5,55C 111.223,56.1434 107.89,56.9767 104.5,57.5C 112.796,53.0236 121.462,49.0236 130.5,45.5C 131.086,45.7093 131.586,46.0426 132,46.5C 158.081,33.4336 185.248,30.267 213.5,37C 222.743,44.4144 222.743,51.7477 213.5,59C 210.938,61.4133 207.938,63.08 204.5,64C 202.789,65.1332 202.289,66.6332 203,68.5C 207.141,70.0237 211.141,71.6903 215,73.5C 215.561,72.9781 216.228,72.6448 217,72.5C 219.774,73.5358 222.607,74.3691 225.5,75C 227.658,76.457 229.491,78.2903 231,80.5C 231.667,79.1667 232.333,79.1667 233,80.5C 241.752,95.4776 243.752,111.144 239,127.5C 233.08,139.454 227.08,151.454 221,163.5C 219.827,167.305 220.993,170.139 224.5,172C 228.514,172.233 232.014,174.067 235,177.5C 239.686,185.222 244.186,193.056 248.5,201C 253.124,202.31 257.124,204.644 260.5,208C 271.8,211.33 283.133,214.663 294.5,218C 297.833,219.667 301.167,221.333 304.5,223C 307.833,226.667 311.167,230.333 314.5,234C 316.246,234.471 317.913,235.138 319.5,236C 332.205,236.458 344.705,236.625 357,236.5C 365.452,235.259 373.952,233.093 382.5,230C 391.257,229.631 399.923,229.465 408.5,229.5C 415.624,232.561 422.291,236.395 428.5,241C 430.668,244.174 432.168,247.674 433,251.5C 434.587,250.273 435.921,250.606 437,252.5C 437.47,253.577 437.303,254.577 436.5,255.5 Z"/></g>
<g><path style="opacity:0.952" fill="#221d17" d="M 79.5,104.5 C 95.4758,109.162 111.476,113.828 127.5,118.5C 128.823,123.752 129.49,129.085 129.5,134.5C 115.422,132.824 101.756,129.658 88.5,125C 81.0517,120.325 78.0517,113.492 79.5,104.5 Z"/></g>
<g><path style="opacity:0.961" fill="#221d18" d="M 231.5,119.5 C 224.531,135.559 216.697,151.225 208,166.5C 207.187,168.436 206.687,170.436 206.5,172.5C 204.265,172.205 202.265,172.539 200.5,173.5C 178.164,173.333 155.831,173.5 133.5,174C 121.41,175.475 110.077,179.141 99.5,185C 88.708,194.722 85.0413,206.555 88.5,220.5C 90.5299,217.904 92.1966,215.071 93.5,212C 96.3534,211.341 98.0201,212.508 98.5,215.5C 96.6627,219.172 94.3294,222.506 91.5,225.5C 89.4969,228.498 86.8303,230.831 83.5,232.5C 77.7589,216.375 79.5923,201.042 89,186.5C 92.136,182.522 95.9694,179.522 100.5,177.5C 104.377,175.315 108.377,173.315 112.5,171.5C 116.426,170.288 120.426,169.288 124.5,168.5C 125.314,165.581 126.314,162.748 127.5,160C 140.073,157.977 152.739,156.977 165.5,157C 167.041,155.629 168.375,154.129 169.5,152.5C 167.171,150.159 165.171,147.492 163.5,144.5C 167.991,142.783 172.657,142.117 177.5,142.5C 177.276,138.821 176.942,135.154 176.5,131.5C 180.469,132.66 184.469,133.827 188.5,135C 190.5,135.667 192.5,135.667 194.5,135C 206.654,129.34 218.988,124.173 231.5,119.5 Z"/></g>
<g><path style="opacity:0.93" fill="#251e19" d="M 164.5,123.5 C 166.117,124.038 167.784,124.371 169.5,124.5C 166.492,132.811 164.825,132.477 164.5,123.5 Z"/></g>
<g><path style="opacity:0.378" fill="#412c20" d="M 79.5,80.5 C 79.5,83.8333 79.5,87.1667 79.5,90.5C 78.1667,95.1667 78.1667,99.8333 79.5,104.5C 78.0517,113.492 81.0517,120.325 88.5,125C 101.756,129.658 115.422,132.824 129.5,134.5C 131.295,137.404 133.128,140.404 135,143.5C 137.914,145.178 140.414,147.178 142.5,149.5C 137.156,149.334 131.823,149.501 126.5,150C 120.391,150.464 116.558,153.631 115,159.5C 113.846,163.447 113.013,167.447 112.5,171.5C 108.377,173.315 104.377,175.315 100.5,177.5C 100.083,176.876 99.4164,176.543 98.5,176.5C 94.6983,177.125 91.0316,178.125 87.5,179.5C 86.6868,178.347 85.6868,178.347 84.5,179.5C 83.1667,178.833 83.1667,178.167 84.5,177.5C 91.6666,174.281 98.6666,170.781 105.5,167C 106.976,164.357 108.976,162.19 111.5,160.5C 112.154,158.885 112.654,157.218 113,155.5C 116.799,152.703 120.299,149.536 123.5,146C 121.699,145.683 121.366,145.016 122.5,144C 121.139,142.416 120.472,140.582 120.5,138.5C 113.703,136.219 106.703,134.719 99.5,134C 93.0276,130.82 86.8609,127.32 81,123.5C 79.9127,119.494 78.4127,115.661 76.5,112C 77.6223,110.387 77.1223,109.22 75,108.5C 74.7618,104.778 74.2618,101.111 73.5,97.5C 75.3099,92.2614 76.8099,86.928 78,81.5C 78.3826,80.944 78.8826,80.6107 79.5,80.5 Z"/></g>
<g><path style="opacity:0.965" fill="#231e18" d="M 156.5,132.5 C 163.758,132.445 164.425,134.445 158.5,138.5C 156.914,136.827 156.247,134.827 156.5,132.5 Z"/></g>
<g><path style="opacity:0.963" fill="#211c17" d="M 147.5,142.5 C 153.745,141.822 154.745,143.489 150.5,147.5C 148.738,146.312 147.738,144.645 147.5,142.5 Z"/></g>
<g><path style="opacity:0.343" fill="#412c20" d="M 210.5,51.5 C 210.082,52.2216 209.416,52.7216 208.5,53C 209.34,54.6665 208.84,54.8331 207,53.5C 203.565,58.7717 198.731,61.7717 192.5,62.5C 192.527,65.2298 191.86,67.7298 190.5,70C 190.439,71.7106 191.106,73.044 192.5,74C 198.611,74.1549 204.444,75.3216 210,77.5C 212.521,76.3267 215.021,76.3267 217.5,77.5C 220.491,78.9956 223.491,80.4956 226.5,82C 228.329,84.5722 230.329,86.9055 232.5,89C 232.167,89.3333 231.833,89.6667 231.5,90C 234.393,100.17 235.893,110.337 236,120.5C 234.451,123.138 233.285,125.971 232.5,129C 228.958,131.418 227.624,134.584 228.5,138.5C 227.758,139.287 226.925,139.953 226,140.5C 223.477,148.548 219.643,155.881 214.5,162.5C 215.833,165.167 215.833,167.833 214.5,170.5C 215.863,171.893 216.696,173.559 217,175.5C 218.645,175.693 220.479,175.86 222.5,176C 224.421,176.36 226.088,177.194 227.5,178.5C 225.585,178.316 223.585,178.65 221.5,179.5C 217.833,179.5 214.167,179.5 210.5,179.5C 210.5,181.167 210.5,182.833 210.5,184.5C 206.965,196.036 199.298,203.036 187.5,205.5C 187.5,204.167 187.5,202.833 187.5,201.5C 197.214,200.631 203.547,195.465 206.5,186C 205.944,184.989 205.278,184.156 204.5,183.5C 206.402,180.663 207.069,177.329 206.5,173.5C 204.5,173.5 202.5,173.5 200.5,173.5C 202.265,172.539 204.265,172.205 206.5,172.5C 206.687,170.436 207.187,168.436 208,166.5C 216.697,151.225 224.531,135.559 231.5,119.5C 232.341,117.621 232.675,115.621 232.5,113.5C 231.968,103.47 229.968,93.8029 226.5,84.5C 213.62,81.7091 200.62,79.3757 187.5,77.5C 186.713,75.8958 185.38,75.2291 183.5,75.5C 183.551,72.4585 184.551,69.7918 186.5,67.5C 186.253,66.2867 185.586,65.62 184.5,65.5C 185.512,64.1283 186.512,62.795 187.5,61.5C 188.036,62.3353 188.869,62.3353 190,61.5C 195.281,55.1098 202.115,51.7765 210.5,51.5 Z"/></g>
<g><path style="opacity:0.973" fill="#b0a494" d="M 142.5,149.5 C 151.301,152.031 160.301,153.031 169.5,152.5C 168.375,154.129 167.041,155.629 165.5,157C 152.739,156.977 140.073,157.977 127.5,160C 126.314,162.748 125.314,165.581 124.5,168.5C 120.426,169.288 116.426,170.288 112.5,171.5C 113.013,167.447 113.846,163.447 115,159.5C 116.558,153.631 120.391,150.464 126.5,150C 131.823,149.501 137.156,149.334 142.5,149.5 Z"/></g>
<g><path style="opacity:0.703" fill="#867567" d="M 221.5,179.5 C 221.5,179.833 221.5,180.167 221.5,180.5C 218.167,180.5 214.833,180.5 211.5,180.5C 211.768,182.099 211.434,183.432 210.5,184.5C 210.5,182.833 210.5,181.167 210.5,179.5C 214.167,179.5 217.833,179.5 221.5,179.5 Z"/></g>
<g><path style="opacity:0.966" fill="#674821" d="M 201.5,182.5 C 199.027,182.088 197.694,183.088 197.5,185.5C 187.189,184.463 176.856,184.296 166.5,185C 164.686,187.481 164.02,190.315 164.5,193.5C 163.883,193.611 163.383,193.944 163,194.5C 161.506,199.526 162.673,203.692 166.5,207C 171.191,207.944 175.858,208.778 180.5,209.5C 181.332,223.357 182.332,237.357 183.5,251.5C 188.781,248.22 193.781,244.553 198.5,240.5C 199.676,248.124 200.343,255.791 200.5,263.5C 193.369,263.31 188.202,266.31 185,272.5C 183.575,296.154 182.908,319.82 183,343.5C 183.907,350.181 184.907,356.848 186,363.5C 189.213,365.913 192.88,366.913 197,366.5C 205.882,367.193 213.549,364.527 220,358.5C 221.619,338.218 221.952,317.885 221,297.5C 219.829,296.107 218.329,295.273 216.5,295C 212.514,294.501 208.514,294.334 204.5,294.5C 210.856,287.312 217.022,279.979 223,272.5C 226.41,276.551 228.577,281.218 229.5,286.5C 229.5,296.833 229.5,307.167 229.5,317.5C 228.833,334.833 228.167,352.167 227.5,369.5C 225.847,369.66 224.514,370.326 223.5,371.5C 221.927,375.641 220.593,379.974 219.5,384.5C 216.126,381.955 212.626,379.622 209,377.5C 206.542,379.714 204.542,382.381 203,385.5C 201.122,383.957 199.622,382.124 198.5,380C 196.846,379.392 195.179,378.892 193.5,378.5C 190.375,376.775 187.042,375.275 183.5,374C 169.603,372.055 156.603,367.555 144.5,360.5C 147.676,355.501 151.342,350.834 155.5,346.5C 157.043,349.086 158.709,351.586 160.5,354C 161.483,354.591 162.15,354.257 162.5,353C 166.999,335.838 171.499,318.672 176,301.5C 176.818,298.773 176.652,296.106 175.5,293.5C 161.145,308.187 146.812,322.854 132.5,337.5C 132.487,330.105 131.821,322.772 130.5,315.5C 131.125,308.081 132.292,300.748 134,293.5C 138.402,286.045 144.569,280.545 152.5,277C 154.041,275.421 155.208,273.587 156,271.5C 156.246,255.813 156.746,240.147 157.5,224.5C 147.201,223.406 136.867,223.24 126.5,224C 125.851,227.583 125.517,231.25 125.5,235C 125.576,239.092 126.243,242.925 127.5,246.5C 120.822,249.749 113.822,250.582 106.5,249C 105.667,248.167 104.833,247.333 104,246.5C 103.333,232.167 103.333,217.833 104,203.5C 108.001,193.737 115.167,187.57 125.5,185C 150.841,180.104 176.174,179.271 201.5,182.5 Z"/></g>
<g><path style="opacity:0.971" fill="#b3a696" d="M 200.5,173.5 C 202.5,173.5 204.5,173.5 206.5,173.5C 207.069,177.329 206.402,180.663 204.5,183.5C 203.609,182.89 202.609,182.557 201.5,182.5C 176.174,179.271 150.841,180.104 125.5,185C 115.167,187.57 108.001,193.737 104,203.5C 103.333,217.833 103.333,232.167 104,246.5C 104.833,247.333 105.667,248.167 106.5,249C 113.822,250.582 120.822,249.749 127.5,246.5C 130.167,245.5 132.833,244.5 135.5,243.5C 137.305,242.763 138.971,241.763 140.5,240.5C 140.833,240.833 141.167,241.167 141.5,241.5C 137.145,249.348 131.479,256.181 124.5,262C 116.301,268.108 107.134,270.274 97,268.5C 94.4697,260.37 91.6363,252.37 88.5,244.5C 88.3893,243.883 88.056,243.383 87.5,243C 89.5,242.333 91.5,241.667 93.5,241C 90.1522,239.031 86.4856,238.031 82.5,238C 82.0426,237.586 81.7093,237.086 81.5,236.5C 85.7302,235.507 89.7302,234.674 93.5,234C 93.8333,233.667 94.1667,233.333 94.5,233C 91.4081,232.066 91.0747,230.9 93.5,229.5C 95.7214,230.116 96.3881,231.283 95.5,233C 97.519,233.45 99.3523,234.283 101,235.5C 101.667,234.167 101.667,232.833 101,231.5C 100.586,231.957 100.086,232.291 99.5,232.5C 97.3319,229.314 94.6652,226.981 91.5,225.5C 94.3294,222.506 96.6627,219.172 98.5,215.5C 98.0201,212.508 96.3534,211.341 93.5,212C 92.1966,215.071 90.5299,217.904 88.5,220.5C 85.0413,206.555 88.708,194.722 99.5,185C 110.077,179.141 121.41,175.475 133.5,174C 155.831,173.5 178.164,173.333 200.5,173.5 Z"/></g>
<g><path style="opacity:0.976" fill="#b4a797" d="M 197.5,185.5 C 198.209,186.404 199.209,186.737 200.5,186.5C 200.727,188.933 199.727,190.599 197.5,191.5C 192.167,190.167 186.833,190.167 181.5,191.5C 175.697,191.209 170.031,191.875 164.5,193.5C 164.02,190.315 164.686,187.481 166.5,185C 176.856,184.296 187.189,184.463 197.5,185.5 Z"/></g>
<g><path style="opacity:0.983" fill="#664823" d="M 181.5,191.5 C 186.833,190.167 192.167,190.167 197.5,191.5C 193.219,195.578 188.219,198.745 182.5,201C 178.129,201.828 173.795,201.661 169.5,200.5C 170.167,199.5 170.833,198.5 171.5,197.5C 175.107,196.511 178.774,196.177 182.5,196.5C 182.421,195.07 182.754,193.736 183.5,192.5C 183.043,191.702 182.376,191.369 181.5,191.5 Z"/></g>
<g><path style="opacity:0.984" fill="#32261a" d="M 201.5,182.5 C 202.609,182.557 203.609,182.89 204.5,183.5C 205.278,184.156 205.944,184.989 206.5,186C 203.547,195.465 197.214,200.631 187.5,201.5C 187.5,202.833 187.5,204.167 187.5,205.5C 184.836,206.397 182.502,207.73 180.5,209.5C 175.858,208.778 171.191,207.944 166.5,207C 162.673,203.692 161.506,199.526 163,194.5C 163.383,193.944 163.883,193.611 164.5,193.5C 170.031,191.875 175.697,191.209 181.5,191.5C 182.376,191.369 183.043,191.702 183.5,192.5C 182.754,193.736 182.421,195.07 182.5,196.5C 178.774,196.177 175.107,196.511 171.5,197.5C 170.833,198.5 170.167,199.5 169.5,200.5C 173.795,201.661 178.129,201.828 182.5,201C 188.219,198.745 193.219,195.578 197.5,191.5C 199.727,190.599 200.727,188.933 200.5,186.5C 199.209,186.737 198.209,186.404 197.5,185.5C 197.694,183.088 199.027,182.088 201.5,182.5 Z"/></g>
<g><path style="opacity:0.916" fill="#ada090" d="M 100.5,177.5 C 95.9694,179.522 92.136,182.522 89,186.5C 79.5923,201.042 77.7589,216.375 83.5,232.5C 86.8303,230.831 89.4969,228.498 91.5,225.5C 94.6652,226.981 97.3319,229.314 99.5,232.5C 100.086,232.291 100.586,231.957 101,231.5C 101.667,232.833 101.667,234.167 101,235.5C 99.3523,234.283 97.519,233.45 95.5,233C 96.3881,231.283 95.7214,230.116 93.5,229.5C 91.0747,230.9 91.4081,232.066 94.5,233C 94.1667,233.333 93.8333,233.667 93.5,234C 89.7302,234.674 85.7302,235.507 81.5,236.5C 81.7093,237.086 82.0426,237.586 82.5,238C 86.4856,238.031 90.1522,239.031 93.5,241C 91.5,241.667 89.5,242.333 87.5,243C 88.056,243.383 88.3893,243.883 88.5,244.5C 81.7395,242.62 74.7395,241.953 67.5,242.5C 67.3336,234.16 67.5003,225.827 68,217.5C 67.6089,201.099 74.1089,188.433 87.5,179.5C 91.0316,178.125 94.6983,177.125 98.5,176.5C 99.4164,176.543 100.083,176.876 100.5,177.5 Z"/></g>
<g><path style="opacity:0.342" fill="#422c1f" d="M 132.5,337.5 C 132.5,341.833 132.5,346.167 132.5,350.5C 131.513,355.305 131.179,360.305 131.5,365.5C 130.21,364.942 129.377,363.942 129,362.5C 128.216,359.24 128.383,356.073 129.5,353C 127.99,351.649 126.99,349.982 126.5,348C 127.26,341.136 127.594,334.303 127.5,327.5C 124.33,314.69 125.663,302.357 131.5,290.5C 136.797,282.705 142.964,275.705 150,269.5C 151.507,264.032 152.674,258.199 153.5,252C 151.125,246.8 149.959,241.3 150,235.5C 148.491,233.29 146.658,231.457 144.5,230C 134.254,229.435 131.254,233.935 135.5,243.5C 132.833,244.5 130.167,245.5 127.5,246.5C 126.243,242.925 125.576,239.092 125.5,235C 125.517,231.25 125.851,227.583 126.5,224C 136.867,223.24 147.201,223.406 157.5,224.5C 156.746,240.147 156.246,255.813 156,271.5C 155.208,273.587 154.041,275.421 152.5,277C 144.569,280.545 138.402,286.045 134,293.5C 132.292,300.748 131.125,308.081 130.5,315.5C 131.821,322.772 132.487,330.105 132.5,337.5 Z"/></g>
<g><path style="opacity:0.338" fill="#442e21" d="M 409.5,239.5 C 407.833,239.5 406.167,239.5 404.5,239.5C 397.679,238.345 390.679,238.179 383.5,239C 376.127,242.18 368.46,244.514 360.5,246C 342.836,246.5 325.17,246.667 307.5,246.5C 306.035,243.634 305.035,240.634 304.5,237.5C 304.21,233.039 301.877,230.205 297.5,229C 286.514,225.74 275.514,222.74 264.5,220C 253.744,215.456 243.744,209.622 234.5,202.5C 233.513,199.232 233.18,195.898 233.5,192.5C 233.729,190.567 234.562,188.9 236,187.5C 237.919,194.016 241.086,199.85 245.5,205C 260.796,212.986 276.796,218.986 293.5,223C 300.672,225.838 306.338,230.505 310.5,237C 314.299,240.588 318.632,241.755 323.5,240.5C 328.774,240.687 328.774,241.187 323.5,242C 335.515,242.466 347.515,242.133 359.5,241C 368.218,239.012 376.884,236.845 385.5,234.5C 393.135,235.086 400.635,235.086 408,234.5C 410.412,235.956 412.912,237.29 415.5,238.5C 413.585,238.316 411.585,238.65 409.5,239.5 Z"/></g>
<g><path style="opacity:0.817" fill="#a59786" d="M 404.5,239.5 C 406.167,239.5 407.833,239.5 409.5,239.5C 413.928,240.587 417.594,242.92 420.5,246.5C 419.522,246.811 418.855,247.478 418.5,248.5C 419.713,250.851 419.047,252.684 416.5,254C 418.405,254.826 418.739,255.993 417.5,257.5C 415.128,254.879 414.462,255.212 415.5,258.5C 413.604,259.466 411.604,259.799 409.5,259.5C 406.36,255.6 402.36,253.266 397.5,252.5C 399.229,251.047 400.229,249.047 400.5,246.5C 398.874,245.01 397.208,243.51 395.5,242C 398.76,242.482 402.093,242.482 405.5,242C 403.381,241.658 403.047,240.825 404.5,239.5 Z"/></g>
<g><path style="opacity:0.939" fill="#b0a393" d="M 404.5,239.5 C 403.047,240.825 403.381,241.658 405.5,242C 402.093,242.482 398.76,242.482 395.5,242C 397.208,243.51 398.874,245.01 400.5,246.5C 400.229,249.047 399.229,251.047 397.5,252.5C 383.423,253.07 369.423,254.403 355.5,256.5C 358.084,259.349 360.417,262.349 362.5,265.5C 363.248,267.332 364.248,268.999 365.5,270.5C 362.104,276.475 358.604,282.475 355,288.5C 351.4,282.952 347.566,277.619 343.5,272.5C 340.559,278.101 337.226,283.435 333.5,288.5C 328.876,283.375 324.043,278.375 319,273.5C 315.31,277.689 311.81,282.022 308.5,286.5C 307.501,273.183 307.167,259.85 307.5,246.5C 325.17,246.667 342.836,246.5 360.5,246C 368.46,244.514 376.127,242.18 383.5,239C 390.679,238.179 397.679,238.345 404.5,239.5 Z"/></g>
<g><path style="opacity:0.488" fill="#3f281c" d="M 200.5,263.5 C 200.5,264.5 200.5,265.5 200.5,266.5C 200.67,267.822 200.337,268.989 199.5,270C 195.439,269.696 192.273,271.196 190,274.5C 188.546,298.152 187.88,321.819 188,345.5C 188.481,349.531 189.147,353.531 190,357.5C 190.318,359.061 191.151,360.228 192.5,361C 199.485,362.093 206.151,361.093 212.5,358C 214.049,356.786 215.215,355.286 216,353.5C 216.667,336.833 216.667,320.167 216,303.5C 215.626,302.584 215.126,301.75 214.5,301C 212.167,300.333 209.833,300.333 207.5,301C 206.333,301.5 205.5,302.333 205,303.5C 204.5,315.162 204.333,326.829 204.5,338.5C 208.938,337.425 210.938,339.092 210.5,343.5C 204.062,345.244 200.228,342.91 199,336.5C 197.87,323.381 198.537,310.381 201,297.5C 201.985,296.186 203.152,295.186 204.5,294.5C 208.514,294.334 212.514,294.501 216.5,295C 218.329,295.273 219.829,296.107 221,297.5C 221.952,317.885 221.619,338.218 220,358.5C 213.549,364.527 205.882,367.193 197,366.5C 192.88,366.913 189.213,365.913 186,363.5C 184.907,356.848 183.907,350.181 183,343.5C 182.908,319.82 183.575,296.154 185,272.5C 188.202,266.31 193.369,263.31 200.5,263.5 Z"/></g>
<g><path style="opacity:0.748" fill="#998a79" d="M 420.5,246.5 C 422.853,248.101 425.02,250.101 427,252.5C 430.252,257.334 433.252,262.334 436,267.5C 436.824,276.676 436.657,285.676 435.5,294.5C 435.666,289.821 435.499,285.155 435,280.5C 434.282,281.451 433.449,281.617 432.5,281C 432.835,279.223 432.001,277.723 430,276.5C 427.039,278.032 423.872,278.866 420.5,279C 419.646,280.022 418.646,280.855 417.5,281.5C 415.65,279.591 413.65,278.924 411.5,279.5C 411.414,278.504 411.748,277.671 412.5,277C 408.789,276.825 405.122,276.325 401.5,275.5C 404.372,270.182 407.039,264.848 409.5,259.5C 411.604,259.799 413.604,259.466 415.5,258.5C 414.462,255.212 415.128,254.879 417.5,257.5C 418.739,255.993 418.405,254.826 416.5,254C 419.047,252.684 419.713,250.851 418.5,248.5C 418.855,247.478 419.522,246.811 420.5,246.5 Z"/></g>
<g><path style="opacity:0.804" fill="#a79a8a" d="M 80.5,269.5 C 74.1012,270.782 67.7679,272.449 61.5,274.5C 59.1966,274.124 58.8632,273.124 60.5,271.5C 65.9609,265.576 68.9609,258.576 69.5,250.5C 75.1302,249.708 80.7969,249.375 86.5,249.5C 86.3437,256.046 87.3437,262.379 89.5,268.5C 86.3915,268.264 83.3915,268.597 80.5,269.5 Z"/></g>
<g><path style="opacity:0.342" fill="#422d20" d="M 382.5,333.5 C 381.127,333.343 379.793,333.51 378.5,334C 378.833,334.333 379.167,334.667 379.5,335C 378.234,335.309 377.067,335.809 376,336.5C 374.061,341.26 372.894,346.26 372.5,351.5C 372.789,354.752 373.122,357.752 373.5,360.5C 376.263,361.104 378.597,362.438 380.5,364.5C 381.191,367.353 382.524,369.853 384.5,372C 380.86,373.134 381.193,374.134 385.5,375C 384.167,376 382.833,377 381.5,378C 381.588,379.946 381.921,381.946 382.5,384C 382.241,385.261 381.574,386.261 380.5,387C 380.957,387.414 381.291,387.914 381.5,388.5C 378.872,392.035 378.872,395.535 381.5,399C 380.897,401.071 379.564,402.238 377.5,402.5C 377.666,397.821 377.499,393.155 377,388.5C 376.667,388.833 376.333,389.167 376,389.5C 374.594,387.636 374.094,385.803 374.5,384C 377.943,384.524 378.277,383.358 375.5,380.5C 375.938,379.494 376.604,379.494 377.5,380.5C 378.66,376.541 378.827,372.541 378,368.5C 376.188,367.023 374.355,365.69 372.5,364.5C 370.377,360.16 367.377,356.827 363.5,354.5C 365.5,354.5 367.5,354.5 369.5,354.5C 370.018,330.166 370.185,305.832 370,281.5C 369.667,278.833 369.333,276.167 369,273.5C 367.961,272.29 366.794,271.29 365.5,270.5C 364.248,268.999 363.248,267.332 362.5,265.5C 373.204,264.145 383.871,264.312 394.5,266C 395.191,267.067 395.691,268.234 396,269.5C 395.669,287.825 393.003,305.825 388,323.5C 385.938,326.723 384.104,330.057 382.5,333.5 Z"/></g>
<g><path style="opacity:0.963" fill="#664721" d="M 304.5,237.5 C 305.035,240.634 306.035,243.634 307.5,246.5C 307.167,259.85 307.501,273.183 308.5,286.5C 311.81,282.022 315.31,277.689 319,273.5C 324.043,278.375 328.876,283.375 333.5,288.5C 337.226,283.435 340.559,278.101 343.5,272.5C 347.566,277.619 351.4,282.952 355,288.5C 358.604,282.475 362.104,276.475 365.5,270.5C 366.794,271.29 367.961,272.29 369,273.5C 369.333,276.167 369.667,278.833 370,281.5C 370.185,305.832 370.018,330.166 369.5,354.5C 367.5,354.5 365.5,354.5 363.5,354.5C 348.319,353.717 333.652,350.551 319.5,345C 314.374,342.934 311.541,339.1 311,333.5C 310.333,326.5 310.333,319.5 311,312.5C 311.085,306.516 313.585,302.016 318.5,299C 323.5,298.333 328.5,298.333 333.5,299C 337.482,299.979 339.648,302.479 340,306.5C 340.667,314.167 340.667,321.833 340,329.5C 339.626,330.416 339.126,331.25 338.5,332C 335.007,333.004 331.841,332.504 329,330.5C 327.788,323.913 327.121,317.246 327,310.5C 325.413,309.273 324.079,309.606 323,311.5C 319.81,319.567 319.81,327.567 323,335.5C 325.536,338.766 328.869,340.1 333,339.5C 338.467,340.139 342.467,338.139 345,333.5C 345.833,320.82 345.666,308.154 344.5,295.5C 334.116,292.049 323.449,290.882 312.5,292C 311.069,292.465 309.903,293.299 309,294.5C 307.039,304.055 306.206,313.721 306.5,323.5C 306.667,329.5 306.833,335.5 307,341.5C 309.282,344.568 312.116,347.068 315.5,349C 329.345,354.124 343.345,358.291 357.5,361.5C 358.237,363.305 359.237,364.971 360.5,366.5C 357.694,367.105 355.36,368.438 353.5,370.5C 355.316,372.817 357.316,374.984 359.5,377C 355.668,378.696 351.668,379.862 347.5,380.5C 346.033,380.894 344.533,381.227 343,381.5C 328.097,379.086 313.597,375.253 299.5,370C 297.04,368.542 294.873,366.709 293,364.5C 290.413,359.739 288.413,354.739 287,349.5C 285.336,334.881 284.503,320.215 284.5,305.5C 286.354,308.51 288.687,311.176 291.5,313.5C 295.273,306.288 298.773,298.955 302,291.5C 303.498,273.528 304.331,255.528 304.5,237.5 Z"/></g>
<g><path style="opacity:0.977" fill="#664721" d="M 200.5,266.5 C 201.321,274.167 201.987,282 202.5,290C 202.569,291.986 203.235,293.486 204.5,294.5C 203.152,295.186 201.985,296.186 201,297.5C 198.537,310.381 197.87,323.381 199,336.5C 200.228,342.91 204.062,345.244 210.5,343.5C 210.938,339.092 208.938,337.425 204.5,338.5C 204.333,326.829 204.5,315.162 205,303.5C 205.5,302.333 206.333,301.5 207.5,301C 209.833,300.333 212.167,300.333 214.5,301C 215.126,301.75 215.626,302.584 216,303.5C 216.667,320.167 216.667,336.833 216,353.5C 215.215,355.286 214.049,356.786 212.5,358C 206.151,361.093 199.485,362.093 192.5,361C 191.151,360.228 190.318,359.061 190,357.5C 189.147,353.531 188.481,349.531 188,345.5C 187.88,321.819 188.546,298.152 190,274.5C 192.273,271.196 195.439,269.696 199.5,270C 200.337,268.989 200.67,267.822 200.5,266.5 Z"/></g>
<g><path style="opacity:0.208" fill="#483424" d="M 216.5,49.5 C 212.089,56.4118 206.256,61.7451 199,65.5C 197.958,68.8039 199.125,70.9705 202.5,72C 209.242,72.9129 215.909,74.2462 222.5,76C 225.648,78.1119 228.481,80.6119 231,83.5C 231.333,83.1667 231.667,82.8333 232,82.5C 233.586,84.6705 234.92,87.0038 236,89.5C 236.651,91.235 236.485,92.9017 235.5,94.5C 240.238,104.253 240.738,114.587 237,125.5C 230.757,138.078 224.757,150.745 219,163.5C 218.792,165.859 218.626,168.026 218.5,170C 221.353,173.314 224.686,174.981 228.5,175C 230.641,176.308 232.641,177.808 234.5,179.5C 237.619,187.284 241.619,194.618 246.5,201.5C 260.857,210.457 276.857,216.624 294.5,220C 298.257,221.81 301.924,223.81 305.5,226C 308.631,232.278 313.631,236.278 320.5,238C 332.538,238.456 344.371,238.622 356,238.5C 358.81,237.164 361.643,236.831 364.5,237.5C 373.447,233.026 382.613,231.026 392,231.5C 407.585,229.565 420.085,234.565 429.5,246.5C 430.057,248.235 430.39,249.902 430.5,251.5C 431.833,252.167 433.167,252.833 434.5,253.5C 433.391,255.214 434.058,255.881 436.5,255.5C 438.394,258.63 440.56,261.63 443,264.5C 443.892,267.453 443.392,270.119 441.5,272.5C 443.513,274.174 445.18,276.174 446.5,278.5C 445.359,279.425 445.359,280.259 446.5,281C 445.552,281.483 444.552,281.649 443.5,281.5C 443.786,283.277 444.453,284.944 445.5,286.5C 444.101,288.891 444.434,291.057 446.5,293C 445.426,293.739 444.759,294.739 444.5,296C 445.165,302.336 445.165,308.836 444.5,315.5C 442.559,317.533 442.225,319.7 443.5,322C 443.245,323.326 442.578,324.326 441.5,325C 442.672,325.419 443.672,326.085 444.5,327C 443.167,327.667 443.167,328.333 444.5,329C 441.429,330.568 441.096,332.402 443.5,334.5C 443.032,336.134 442.032,337.3 440.5,338C 441.711,339.113 441.711,340.28 440.5,341.5C 442.991,342.541 442.991,343.374 440.5,344C 441.571,348.447 440.238,352.113 436.5,355C 440.304,356.494 439.971,357.328 435.5,357.5C 435.636,365.59 433.303,372.757 428.5,379C 429.138,380.707 429.138,382.54 428.5,384.5C 427.167,384.5 425.833,384.5 424.5,384.5C 424.649,385.552 424.483,386.552 424,387.5C 423.667,387.167 423.333,386.833 423,386.5C 420.975,388.879 418.475,389.713 415.5,389C 416.416,388.722 417.082,388.222 417.5,387.5C 426.511,374.095 431.177,359.429 431.5,343.5C 431.987,342.527 432.487,341.527 433,340.5C 433.812,329.49 434.645,318.49 435.5,307.5C 435.5,303.167 435.5,298.833 435.5,294.5C 436.657,285.676 436.824,276.676 436,267.5C 433.252,262.334 430.252,257.334 427,252.5C 425.02,250.101 422.853,248.101 420.5,246.5C 417.594,242.92 413.928,240.587 409.5,239.5C 411.585,238.65 413.585,238.316 415.5,238.5C 412.912,237.29 410.412,235.956 408,234.5C 400.635,235.086 393.135,235.086 385.5,234.5C 376.884,236.845 368.218,239.012 359.5,241C 347.515,242.133 335.515,242.466 323.5,242C 328.774,241.187 328.774,240.687 323.5,240.5C 318.632,241.755 314.299,240.588 310.5,237C 306.338,230.505 300.672,225.838 293.5,223C 276.796,218.986 260.796,212.986 245.5,205C 241.086,199.85 237.919,194.016 236,187.5C 234.562,188.9 233.729,190.567 233.5,192.5C 233.934,184.267 229.934,180.267 221.5,180.5C 221.5,180.167 221.5,179.833 221.5,179.5C 223.585,178.65 225.585,178.316 227.5,178.5C 226.088,177.194 224.421,176.36 222.5,176C 220.479,175.86 218.645,175.693 217,175.5C 216.696,173.559 215.863,171.893 214.5,170.5C 215.833,167.833 215.833,165.167 214.5,162.5C 219.643,155.881 223.477,148.548 226,140.5C 226.925,139.953 227.758,139.287 228.5,138.5C 227.624,134.584 228.958,131.418 232.5,129C 233.285,125.971 234.451,123.138 236,120.5C 235.893,110.337 234.393,100.17 231.5,90C 231.833,89.6667 232.167,89.3333 232.5,89C 230.329,86.9055 228.329,84.5722 226.5,82C 223.491,80.4956 220.491,78.9956 217.5,77.5C 215.021,76.3267 212.521,76.3267 210,77.5C 204.444,75.3216 198.611,74.1549 192.5,74C 191.106,73.044 190.439,71.7106 190.5,70C 191.86,67.7298 192.527,65.2298 192.5,62.5C 198.731,61.7717 203.565,58.7717 207,53.5C 208.84,54.8331 209.34,54.6665 208.5,53C 209.416,52.7216 210.082,52.2216 210.5,51.5C 212.421,50.6373 214.421,49.9707 216.5,49.5 Z"/></g>
<g><path style="opacity:0.117" fill="#4a3625" d="M 380.5,269.5 C 385.721,269.335 388.888,271.668 390,276.5C 390.897,287.467 389.897,298.133 387,308.5C 386.502,311.482 386.335,314.482 386.5,317.5C 384.319,317.284 382.653,318.117 381.5,320C 383.172,324.474 381.172,326.307 375.5,325.5C 375.328,323.508 375.995,321.842 377.5,320.5C 376.422,318.599 375.422,317.099 374.5,316C 375.197,310.475 375.53,304.975 375.5,299.5C 374.612,291.857 373.945,284.357 373.5,277C 374.191,275.933 374.691,274.766 375,273.5C 375.333,273.833 375.667,274.167 376,274.5C 377.193,272.503 378.693,270.836 380.5,269.5 Z"/></g>
<g><path style="opacity:0.976" fill="#b6aa9a" d="M 221.5,180.5 C 229.934,180.267 233.934,184.267 233.5,192.5C 233.18,195.898 233.513,199.232 234.5,202.5C 243.744,209.622 253.744,215.456 264.5,220C 275.514,222.74 286.514,225.74 297.5,229C 301.877,230.205 304.21,233.039 304.5,237.5C 304.331,255.528 303.498,273.528 302,291.5C 298.773,298.955 295.273,306.288 291.5,313.5C 288.687,311.176 286.354,308.51 284.5,305.5C 284.068,304.29 283.401,303.29 282.5,302.5C 282.5,301.833 282.167,301.5 281.5,301.5C 280.969,299.456 279.802,297.789 278,296.5C 274.155,301.539 270.322,306.539 266.5,311.5C 261.482,304.13 256.982,296.463 253,288.5C 248.833,295.333 244.667,302.167 240.5,309C 239.551,309.617 238.718,309.451 238,308.5C 237.1,305.282 235.933,302.282 234.5,299.5C 233.01,295.018 231.343,290.684 229.5,286.5C 228.577,281.218 226.41,276.551 223,272.5C 217.022,279.979 210.856,287.312 204.5,294.5C 203.235,293.486 202.569,291.986 202.5,290C 201.987,282 201.321,274.167 200.5,266.5C 200.5,265.5 200.5,264.5 200.5,263.5C 200.343,255.791 199.676,248.124 198.5,240.5C 193.781,244.553 188.781,248.22 183.5,251.5C 182.332,237.357 181.332,223.357 180.5,209.5C 182.502,207.73 184.836,206.397 187.5,205.5C 199.298,203.036 206.965,196.036 210.5,184.5C 211.434,183.432 211.768,182.099 211.5,180.5C 214.833,180.5 218.167,180.5 221.5,180.5 Z"/></g>
<g><path style="opacity:0.966" fill="#8e8273" d="M 278.5,273.5 C 280.5,273.5 282.5,273.5 284.5,273.5C 282.821,281.206 280.154,288.54 276.5,295.5C 272.579,290.665 269.413,285.332 267,279.5C 266.506,277.866 266.34,276.199 266.5,274.5C 270.702,274.817 274.702,274.483 278.5,273.5 Z"/></g>
<g><path style="opacity:0.969" fill="#8e8374" d="M 239.5,255.5 C 246.28,256.472 252.946,257.805 259.5,259.5C 256.372,265.59 253.372,271.757 250.5,278C 249.365,278.749 248.365,278.583 247.5,277.5C 243.83,270.488 241.164,263.154 239.5,255.5 Z"/></g>
<g><path style="opacity:0.961" fill="#8d8273" d="M 274.5,243.5 C 281.833,243.5 289.167,243.5 296.5,243.5C 294.023,251.771 291.023,259.771 287.5,267.5C 281.591,260.348 277.257,252.348 274.5,243.5 Z"/></g>
<g><path style="opacity:0.964" fill="#8d8272" d="M 210.5,235.5 C 217.173,239.502 224.506,241.335 232.5,241C 229.205,247.758 226.038,254.591 223,261.5C 221.302,264.19 219.302,266.523 217,268.5C 216.228,268.355 215.561,268.022 215,267.5C 213.334,256.838 211.834,246.171 210.5,235.5 Z"/></g>
<g><path style="opacity:0.987" fill="#8f8475" d="M 239.5,226.5 C 245.893,226.78 252.06,228.113 258,230.5C 255.719,236.609 253.886,242.943 252.5,249.5C 251.325,249.719 250.325,249.386 249.5,248.5C 245.607,241.383 242.273,234.05 239.5,226.5 Z"/></g>
<g><path style="opacity:0.979" fill="#8f8475" d="M 213.5,204.5 C 215.833,204.5 218.167,204.5 220.5,204.5C 219.106,210.681 217.106,216.681 214.5,222.5C 210.601,217.716 206.934,212.716 203.5,207.5C 206.832,206.135 210.165,205.135 213.5,204.5 Z"/></g>
<g><path style="opacity:0.961" fill="#664721" d="M 281.5,301.5 C 280.167,314.833 280.167,328.167 281.5,341.5C 281.5,344.167 281.5,346.833 281.5,349.5C 277.686,351.913 274.019,354.579 270.5,357.5C 267.5,354.167 264.5,350.833 261.5,347.5C 258.213,350.076 255.38,353.076 253,356.5C 250.62,353.076 247.787,350.076 244.5,347.5C 241.118,350.215 238.118,353.215 235.5,356.5C 234.503,337.674 234.17,318.674 234.5,299.5C 235.933,302.282 237.1,305.282 238,308.5C 238.718,309.451 239.551,309.617 240.5,309C 244.667,302.167 248.833,295.333 253,288.5C 256.982,296.463 261.482,304.13 266.5,311.5C 270.322,306.539 274.155,301.539 278,296.5C 279.802,297.789 280.969,299.456 281.5,301.5 Z"/></g>
<g><path style="opacity:0.489" fill="#3e281c" d="M 363.5,354.5 C 367.377,356.827 370.377,360.16 372.5,364.5C 368.266,362.374 363.766,361.041 359,360.5C 358.235,360.57 357.735,360.903 357.5,361.5C 343.345,358.291 329.345,354.124 315.5,349C 312.116,347.068 309.282,344.568 307,341.5C 306.833,335.5 306.667,329.5 306.5,323.5C 306.206,313.721 307.039,304.055 309,294.5C 309.903,293.299 311.069,292.465 312.5,292C 323.449,290.882 334.116,292.049 344.5,295.5C 345.666,308.154 345.833,320.82 345,333.5C 342.467,338.139 338.467,340.139 333,339.5C 328.869,340.1 325.536,338.766 323,335.5C 319.81,327.567 319.81,319.567 323,311.5C 324.079,309.606 325.413,309.273 327,310.5C 327.121,317.246 327.788,323.913 329,330.5C 331.841,332.504 335.007,333.004 338.5,332C 339.126,331.25 339.626,330.416 340,329.5C 340.667,321.833 340.667,314.167 340,306.5C 339.648,302.479 337.482,299.979 333.5,299C 328.5,298.333 323.5,298.333 318.5,299C 313.585,302.016 311.085,306.516 311,312.5C 310.333,319.5 310.333,326.5 311,333.5C 311.541,339.1 314.374,342.934 319.5,345C 333.652,350.551 348.319,353.717 363.5,354.5 Z"/></g>
<g><path style="opacity:0.483" fill="#3f281d" d="M 229.5,286.5 C 231.343,290.684 233.01,295.018 234.5,299.5C 234.17,318.674 234.503,337.674 235.5,356.5C 232.503,362.524 233.17,368.19 237.5,373.5C 234.595,374.8 231.929,376.466 229.5,378.5C 230.888,382.181 232.555,385.681 234.5,389C 233.748,389.671 233.414,390.504 233.5,391.5C 228.852,385.597 225.518,378.93 223.5,371.5C 224.514,370.326 225.847,369.66 227.5,369.5C 227.56,370.043 227.893,370.376 228.5,370.5C 229.5,352.846 229.833,335.179 229.5,317.5C 229.5,307.167 229.5,296.833 229.5,286.5 Z"/></g>
<g><path style="opacity:0.891" fill="#644622" d="M 397.5,252.5 C 402.36,253.266 406.36,255.6 409.5,259.5C 407.039,264.848 404.372,270.182 401.5,275.5C 405.122,276.325 408.789,276.825 412.5,277C 411.748,277.671 411.414,278.504 411.5,279.5C 409.038,284.852 406.371,290.185 403.5,295.5C 404,295.833 404.5,296.167 405,296.5C 409.306,294.453 413.806,293.12 418.5,292.5C 418.647,297.214 418.314,301.881 417.5,306.5C 415.036,311.408 412.036,316.075 408.5,320.5C 414.076,321.572 419.409,321.572 424.5,320.5C 423.425,325.816 421.591,330.816 419,335.5C 415.692,340.308 412.192,344.975 408.5,349.5C 416.818,350.17 424.485,348.17 431.5,343.5C 431.177,359.429 426.511,374.095 417.5,387.5C 415.973,387.573 414.973,386.906 414.5,385.5C 413.185,377.718 411.351,370.051 409,362.5C 402.609,366.779 395.776,370.112 388.5,372.5C 390.996,360.828 394.663,349.495 399.5,338.5C 393.872,337.505 388.206,337.171 382.5,337.5C 382.5,336.167 382.5,334.833 382.5,333.5C 384.104,330.057 385.938,326.723 388,323.5C 393.003,305.825 395.669,287.825 396,269.5C 395.691,268.234 395.191,267.067 394.5,266C 383.871,264.312 373.204,264.145 362.5,265.5C 360.417,262.349 358.084,259.349 355.5,256.5C 369.423,254.403 383.423,253.07 397.5,252.5 Z"/></g>
<g><path style="opacity:0.882" fill="#ada08f" d="M 435.5,294.5 C 435.5,298.833 435.5,303.167 435.5,307.5C 430.774,308.601 430.44,307.768 434.5,305C 431.79,303.245 430.123,300.745 429.5,297.5C 428.5,298.833 427.5,298.833 426.5,297.5C 425.758,299.108 425.591,300.775 426,302.5C 424.5,304 423,305.5 421.5,307C 419.916,306.684 418.583,306.517 417.5,306.5C 418.314,301.881 418.647,297.214 418.5,292.5C 413.806,293.12 409.306,294.453 405,296.5C 404.5,296.167 404,295.833 403.5,295.5C 406.371,290.185 409.038,284.852 411.5,279.5C 413.65,278.924 415.65,279.591 417.5,281.5C 418.646,280.855 419.646,280.022 420.5,279C 423.872,278.866 427.039,278.032 430,276.5C 432.001,277.723 432.835,279.223 432.5,281C 433.449,281.617 434.282,281.451 435,280.5C 435.499,285.155 435.666,289.821 435.5,294.5 Z"/></g>
<g><path style="opacity:0.976" fill="#b5a998" d="M 144.5,360.5 C 142.367,362.091 140.701,364.091 139.5,366.5C 137.457,367.579 136.124,369.246 135.5,371.5C 134.85,371.804 134.183,372.137 133.5,372.5C 132.503,365.197 132.169,357.863 132.5,350.5C 132.5,346.167 132.5,341.833 132.5,337.5C 146.812,322.854 161.145,308.187 175.5,293.5C 176.652,296.106 176.818,298.773 176,301.5C 171.499,318.672 166.999,335.838 162.5,353C 162.15,354.257 161.483,354.591 160.5,354C 158.709,351.586 157.043,349.086 155.5,346.5C 151.342,350.834 147.676,355.501 144.5,360.5 Z"/></g>
<g><path style="opacity:0.717" fill="#55391e" d="M 281.5,301.5 C 282.167,301.5 282.5,301.833 282.5,302.5C 281.505,315.323 281.171,328.323 281.5,341.5C 280.167,328.167 280.167,314.833 281.5,301.5 Z"/></g>
<g><path style="opacity:0.971" fill="#908576" d="M 162.5,326.5 C 163.833,326.5 165.167,326.5 166.5,326.5C 165.308,332.242 163.808,337.909 162,343.5C 161.439,344.022 160.772,344.355 160,344.5C 155.737,340.234 152.237,335.401 149.5,330C 149.645,329.228 149.978,328.561 150.5,328C 154.688,327.824 158.688,327.324 162.5,326.5 Z"/></g>
<g><path style="opacity:0.981" fill="#312518" d="M 267.5,325.5 C 270.857,328.499 273.524,332.166 275.5,336.5C 271.217,337.492 266.884,337.826 262.5,337.5C 264.143,333.541 265.809,329.541 267.5,325.5 Z"/></g>
<g><path style="opacity:0.786" fill="#a49685" d="M 435.5,307.5 C 434.645,318.49 433.812,329.49 433,340.5C 432.487,341.527 431.987,342.527 431.5,343.5C 424.485,348.17 416.818,350.17 408.5,349.5C 412.192,344.975 415.692,340.308 419,335.5C 421.591,330.816 423.425,325.816 424.5,320.5C 419.409,321.572 414.076,321.572 408.5,320.5C 412.036,316.075 415.036,311.408 417.5,306.5C 418.583,306.517 419.916,306.684 421.5,307C 423,305.5 424.5,304 426,302.5C 425.591,300.775 425.758,299.108 426.5,297.5C 427.5,298.833 428.5,298.833 429.5,297.5C 430.123,300.745 431.79,303.245 434.5,305C 430.44,307.768 430.774,308.601 435.5,307.5 Z"/></g>
<g><path style="opacity:0.946" fill="#342618" d="M 246.5,326.5 C 249.303,329.417 251.637,332.75 253.5,336.5C 249.217,337.492 244.884,337.826 240.5,337.5C 241.706,333.423 243.706,329.757 246.5,326.5 Z"/></g>
<g><path style="opacity:0.973" fill="#908475" d="M 141.5,344.5 C 143.5,344.5 145.5,344.5 147.5,344.5C 147.047,348.693 145.881,352.693 144,356.5C 143.022,358.475 141.689,360.142 140,361.5C 139.228,361.355 138.561,361.022 138,360.5C 136.89,355.836 135.39,351.336 133.5,347C 136.166,345.939 138.833,345.106 141.5,344.5 Z"/></g>
<g><path style="opacity:0.668" fill="#50361e" d="M 229.5,317.5 C 229.833,335.179 229.5,352.846 228.5,370.5C 227.893,370.376 227.56,370.043 227.5,369.5C 228.167,352.167 228.833,334.833 229.5,317.5 Z"/></g>
<g><path style="opacity:0.981" fill="#312518" d="M 281.5,349.5 C 282.802,357.894 285.802,365.728 290.5,373C 292.579,374.64 294.912,375.806 297.5,376.5C 298.731,377.651 298.731,378.817 297.5,380C 285.908,384.326 273.908,386.326 261.5,386C 252.467,383.797 244.467,379.631 237.5,373.5C 233.17,368.19 232.503,362.524 235.5,356.5C 238.118,353.215 241.118,350.215 244.5,347.5C 247.787,350.076 250.62,353.076 253,356.5C 255.38,353.076 258.213,350.076 261.5,347.5C 264.5,350.833 267.5,354.167 270.5,357.5C 274.019,354.579 277.686,351.913 281.5,349.5 Z"/></g>
<g><path style="opacity:0.835" fill="#34281a" d="M 372.5,364.5 C 374.355,365.69 376.188,367.023 378,368.5C 378.827,372.541 378.66,376.541 377.5,380.5C 376.604,379.494 375.938,379.494 375.5,380.5C 378.277,383.358 377.943,384.524 374.5,384C 374.094,385.803 374.594,387.636 376,389.5C 376.333,389.167 376.667,388.833 377,388.5C 377.499,393.155 377.666,397.821 377.5,402.5C 376.064,408.947 375.397,415.614 375.5,422.5C 374.448,422.351 373.448,422.517 372.5,423C 374.516,424.028 375.516,425.695 375.5,428C 374.744,431.125 374.411,434.291 374.5,437.5C 373.5,437.5 372.5,437.5 371.5,437.5C 371.5,436.5 371.5,435.5 371.5,434.5C 366.78,434.775 366.446,433.941 370.5,432C 369.057,430.933 367.724,429.766 366.5,428.5C 364.151,432.528 361.317,436.194 358,439.5C 356.137,435.47 353.637,431.47 350.5,427.5C 349.145,428.188 348.145,429.188 347.5,430.5C 344.98,433.04 342.48,435.707 340,438.5C 339.506,436.866 339.34,435.199 339.5,433.5C 343.649,417.244 347.983,400.91 352.5,384.5C 351.293,382.459 349.626,381.126 347.5,380.5C 351.668,379.862 355.668,378.696 359.5,377C 357.316,374.984 355.316,372.817 353.5,370.5C 355.36,368.438 357.694,367.105 360.5,366.5C 359.237,364.971 358.237,363.305 357.5,361.5C 357.735,360.903 358.235,360.57 359,360.5C 363.766,361.041 368.266,362.374 372.5,364.5 Z"/></g>
<g><path style="opacity:0.204" fill="#483423" d="M 382.5,333.5 C 382.5,334.833 382.5,336.167 382.5,337.5C 388.206,337.171 393.872,337.505 399.5,338.5C 394.663,349.495 390.996,360.828 388.5,372.5C 395.776,370.112 402.609,366.779 409,362.5C 411.351,370.051 413.185,377.718 414.5,385.5C 410.049,385.699 406.715,383.866 404.5,380C 401.382,379.127 398.382,377.961 395.5,376.5C 392.891,377.23 390.224,377.73 387.5,378C 388.167,378.333 388.833,378.667 389.5,379C 388.31,381.116 386.977,383.116 385.5,385C 387.891,386.309 387.891,387.309 385.5,388C 385.957,388.414 386.291,388.914 386.5,389.5C 384.165,392.049 383.832,394.883 385.5,398C 385.043,401.085 384.377,404.085 383.5,407C 384.494,408.329 385.494,409.662 386.5,411C 385.119,414.301 383.453,417.467 381.5,420.5C 382.641,421.425 382.641,422.259 381.5,423C 382.333,423.833 383.167,424.667 384,425.5C 384.705,437.437 382.038,448.771 376,459.5C 373.597,460.781 371.763,462.614 370.5,465C 365.761,465.867 360.761,466.367 355.5,466.5C 345.505,467.183 338.172,463.183 333.5,454.5C 335.024,452.208 334.691,450.208 332.5,448.5C 332.827,441.691 332.827,434.524 332.5,427C 333.34,416.95 335.673,407.283 339.5,398C 338.887,395.853 338.221,393.686 337.5,391.5C 325.419,386.019 312.753,384.019 299.5,385.5C 299.719,386.675 299.386,387.675 298.5,388.5C 294.746,390.81 290.746,392.643 286.5,394C 273.225,396.707 260.225,395.874 247.5,391.5C 244.579,393.118 242.912,395.618 242.5,399C 243.894,400.739 244.561,402.739 244.5,405C 242.791,409.158 241.458,414.158 240.5,420C 241.496,422.98 240.496,425.313 237.5,427C 237.846,432.56 238.179,437.893 238.5,443C 236.129,445.674 234.963,448.841 235,452.5C 234.021,455.625 232.187,458.125 229.5,460C 226.549,460.096 223.882,460.929 221.5,462.5C 220.808,461.975 220.308,461.308 220,460.5C 219.804,462.286 218.971,463.619 217.5,464.5C 215.024,463.771 212.524,463.104 210,462.5C 206.424,463.78 202.924,464.447 199.5,464.5C 196.082,462.785 192.582,460.451 189,457.5C 188.446,455.39 187.612,453.39 186.5,451.5C 186.68,450.446 187.013,449.446 187.5,448.5C 186.109,446.38 185.442,444.047 185.5,441.5C 186.072,436.065 187.072,430.732 188.5,425.5C 189.5,425.5 190.5,425.5 191.5,425.5C 191.579,424.07 191.246,422.736 190.5,421.5C 193.89,416.827 195.89,411.827 196.5,406.5C 194.077,395.912 188.077,388.079 178.5,383C 171.752,382.42 165.752,380.087 160.5,376C 157.57,375.394 154.737,374.56 152,373.5C 145.59,373.521 139.09,373.688 132.5,374C 134.119,373.764 135.119,372.931 135.5,371.5C 136.124,369.246 137.457,367.579 139.5,366.5C 139.5,367.833 139.5,369.167 139.5,370.5C 143.275,370.928 146.775,370.261 150,368.5C 160.946,373.571 172.279,377.571 184,380.5C 185.3,382.459 187.133,383.626 189.5,384C 191.719,387.721 194.719,390.554 198.5,392.5C 197.975,393.192 197.308,393.692 196.5,394C 198,394.833 199.167,396 200,397.5C 200.697,402.013 201.864,406.347 203.5,410.5C 201.983,412.185 200.316,413.685 198.5,415C 199.517,416.049 199.684,417.216 199,418.5C 194.494,421.49 192.828,425.49 194,430.5C 189.922,435.864 189.588,441.531 193,447.5C 194.308,446.849 195.141,447.515 195.5,449.5C 194.838,451.47 194.172,453.47 193.5,455.5C 204.814,456.499 216.147,456.832 227.5,456.5C 227.5,455.5 227.5,454.5 227.5,453.5C 231.38,450.145 232.714,445.978 231.5,441C 232.43,439.806 233.097,438.473 233.5,437C 233.282,433.776 233.282,430.609 233.5,427.5C 234.783,424.599 235.783,421.599 236.5,418.5C 235.881,415.326 235.547,412.16 235.5,409C 238.516,407.471 239.849,404.971 239.5,401.5C 239.617,398.403 238.617,395.736 236.5,393.5C 237.73,389.845 238.897,386.178 240,382.5C 248.242,386.203 256.742,389.203 265.5,391.5C 266.611,390.389 267.945,389.722 269.5,389.5C 281.281,391.086 291.781,387.752 301,379.5C 302.626,378.982 304.293,378.648 306,378.5C 316.914,380.516 327.747,382.849 338.5,385.5C 344.441,390.233 345.774,396.067 342.5,403C 342.645,403.772 342.978,404.439 343.5,405C 341.352,407.075 341.018,409.408 342.5,412C 341.584,412.374 340.75,412.874 340,413.5C 338.544,417.829 338.377,422.163 339.5,426.5C 338.696,427.941 338.029,429.441 337.5,431C 337.639,432.301 338.305,433.134 339.5,433.5C 339.34,435.199 339.506,436.866 340,438.5C 342.48,435.707 344.98,433.04 347.5,430.5C 345.024,438.987 342.024,447.32 338.5,455.5C 349.48,456.499 360.48,456.832 371.5,456.5C 371.334,452.486 371.501,448.486 372,444.5C 372.168,441.823 373.001,439.49 374.5,437.5C 374.411,434.291 374.744,431.125 375.5,428C 375.516,425.695 374.516,424.028 372.5,423C 373.448,422.517 374.448,422.351 375.5,422.5C 375.397,415.614 376.064,408.947 377.5,402.5C 379.564,402.238 380.897,401.071 381.5,399C 378.872,395.535 378.872,392.035 381.5,388.5C 381.291,387.914 380.957,387.414 380.5,387C 381.574,386.261 382.241,385.261 382.5,384C 381.921,381.946 381.588,379.946 381.5,378C 382.833,377 384.167,376 385.5,375C 381.193,374.134 380.86,373.134 384.5,372C 382.524,369.853 381.191,367.353 380.5,364.5C 378.597,362.438 376.263,361.104 373.5,360.5C 373.122,357.752 372.789,354.752 372.5,351.5C 372.894,346.26 374.061,341.26 376,336.5C 377.067,335.809 378.234,335.309 379.5,335C 379.167,334.667 378.833,334.333 378.5,334C 379.793,333.51 381.127,333.343 382.5,333.5 Z"/></g>
<g><path style="opacity:0.856" fill="#33271a" d="M 223.5,371.5 C 225.518,378.93 228.852,385.597 233.5,391.5C 234.924,393.725 235.591,396.225 235.5,399C 232.313,416.148 229.646,433.314 227.5,450.5C 226.041,445.201 222.874,441.201 218,438.5C 215.353,442.348 211.853,444.681 207.5,445.5C 206.372,442.562 205.205,439.562 204,436.5C 201.345,437.369 199.512,439.036 198.5,441.5C 198.565,441.062 198.399,440.728 198,440.5C 196.333,441.5 194.667,442.5 193,443.5C 192.333,441.833 192.333,440.167 193,438.5C 198.919,427.234 203.752,415.568 207.5,403.5C 206.25,399.379 204.25,395.545 201.5,392C 198.656,388.126 195.656,383.793 192.5,379C 192.728,378.601 193.062,378.435 193.5,378.5C 195.179,378.892 196.846,379.392 198.5,380C 199.622,382.124 201.122,383.957 203,385.5C 204.542,382.381 206.542,379.714 209,377.5C 212.626,379.622 216.126,381.955 219.5,384.5C 220.593,379.974 221.927,375.641 223.5,371.5 Z"/></g>
<g><path style="opacity:0.336" fill="#422d1f" d="M 144.5,360.5 C 156.603,367.555 169.603,372.055 183.5,374C 187.042,375.275 190.375,376.775 193.5,378.5C 193.062,378.435 192.728,378.601 192.5,379C 195.656,383.793 198.656,388.126 201.5,392C 204.25,395.545 206.25,399.379 207.5,403.5C 203.752,415.568 198.919,427.234 193,438.5C 192.333,440.167 192.333,441.833 193,443.5C 194.667,442.5 196.333,441.5 198,440.5C 198.399,440.728 198.565,441.062 198.5,441.5C 197.488,444.252 196.488,446.919 195.5,449.5C 195.141,447.515 194.308,446.849 193,447.5C 189.588,441.531 189.922,435.864 194,430.5C 192.828,425.49 194.494,421.49 199,418.5C 199.684,417.216 199.517,416.049 198.5,415C 200.316,413.685 201.983,412.185 203.5,410.5C 201.864,406.347 200.697,402.013 200,397.5C 199.167,396 198,394.833 196.5,394C 197.308,393.692 197.975,393.192 198.5,392.5C 194.719,390.554 191.719,387.721 189.5,384C 187.133,383.626 185.3,382.459 184,380.5C 172.279,377.571 160.946,373.571 150,368.5C 146.775,370.261 143.275,370.928 139.5,370.5C 139.5,369.167 139.5,367.833 139.5,366.5C 140.701,364.091 142.367,362.091 144.5,360.5 Z"/></g>
<g><path style="opacity:0.008" fill="#503d28" d="M 427.5,398.5 C 428.833,399.167 428.833,399.167 427.5,398.5 Z"/></g>
<g><path style="opacity:0.282" fill="#422d20" d="M 282.5,302.5 C 283.401,303.29 284.068,304.29 284.5,305.5C 284.503,320.215 285.336,334.881 287,349.5C 288.413,354.739 290.413,359.739 293,364.5C 294.873,366.709 297.04,368.542 299.5,370C 313.597,375.253 328.097,379.086 343,381.5C 344.533,381.227 346.033,380.894 347.5,380.5C 349.626,381.126 351.293,382.459 352.5,384.5C 347.983,400.91 343.649,417.244 339.5,433.5C 338.305,433.134 337.639,432.301 337.5,431C 338.029,429.441 338.696,427.941 339.5,426.5C 338.377,422.163 338.544,417.829 340,413.5C 340.75,412.874 341.584,412.374 342.5,412C 341.018,409.408 341.352,407.075 343.5,405C 342.978,404.439 342.645,403.772 342.5,403C 345.774,396.067 344.441,390.233 338.5,385.5C 327.747,382.849 316.914,380.516 306,378.5C 304.293,378.648 302.626,378.982 301,379.5C 291.781,387.752 281.281,391.086 269.5,389.5C 267.945,389.722 266.611,390.389 265.5,391.5C 256.742,389.203 248.242,386.203 240,382.5C 238.897,386.178 237.73,389.845 236.5,393.5C 238.617,395.736 239.617,398.403 239.5,401.5C 239.849,404.971 238.516,407.471 235.5,409C 235.547,412.16 235.881,415.326 236.5,418.5C 235.783,421.599 234.783,424.599 233.5,427.5C 233.282,430.609 233.282,433.776 233.5,437C 233.097,438.473 232.43,439.806 231.5,441C 232.714,445.978 231.38,450.145 227.5,453.5C 227.5,452.5 227.5,451.5 227.5,450.5C 229.646,433.314 232.313,416.148 235.5,399C 235.591,396.225 234.924,393.725 233.5,391.5C 233.414,390.504 233.748,389.671 234.5,389C 232.555,385.681 230.888,382.181 229.5,378.5C 231.929,376.466 234.595,374.8 237.5,373.5C 244.467,379.631 252.467,383.797 261.5,386C 273.908,386.326 285.908,384.326 297.5,380C 298.731,378.817 298.731,377.651 297.5,376.5C 294.912,375.806 292.579,374.64 290.5,373C 285.802,365.728 282.802,357.894 281.5,349.5C 281.5,346.833 281.5,344.167 281.5,341.5C 281.171,328.323 281.505,315.323 282.5,302.5 Z"/></g>
<g><path style="opacity:0.899" fill="#231d16" d="M 374.5,437.5 C 373.001,439.49 372.168,441.823 372,444.5C 371.501,448.486 371.334,452.486 371.5,456.5C 360.48,456.832 349.48,456.499 338.5,455.5C 342.024,447.32 345.024,438.987 347.5,430.5C 348.145,429.188 349.145,428.188 350.5,427.5C 353.637,431.47 356.137,435.47 358,439.5C 361.317,436.194 364.151,432.528 366.5,428.5C 367.724,429.766 369.057,430.933 370.5,432C 366.446,433.941 366.78,434.775 371.5,434.5C 371.5,435.5 371.5,436.5 371.5,437.5C 372.5,437.5 373.5,437.5 374.5,437.5 Z"/></g>
<g><path style="opacity:0.901" fill="#241e16" d="M 227.5,450.5 C 227.5,451.5 227.5,452.5 227.5,453.5C 227.5,454.5 227.5,455.5 227.5,456.5C 216.147,456.832 204.814,456.499 193.5,455.5C 194.172,453.47 194.838,451.47 195.5,449.5C 196.488,446.919 197.488,444.252 198.5,441.5C 199.512,439.036 201.345,437.369 204,436.5C 205.205,439.562 206.372,442.562 207.5,445.5C 211.853,444.681 215.353,442.348 218,438.5C 222.874,441.201 226.041,445.201 227.5,450.5 Z"/></g>
</svg>
