<?xml version="1.0" encoding="UTF-8"?>
<!DOCTYPE svg PUBLIC "-//W3C//DTD SVG 1.1//EN" "http://www.w3.org/Graphics/SVG/1.1/DTD/svg11.dtd">
<svg xmlns="http://www.w3.org/2000/svg" version="1.1" width="500px" height="500px" style="shape-rendering:geometricPrecision; text-rendering:geometricPrecision; image-rendering:optimizeQuality; fill-rule:evenodd; clip-rule:evenodd" xmlns:xlink="http://www.w3.org/1999/xlink">
<g><path style="opacity:0.04" fill="#4e3a27" d="M 240.5,40.5 C 249.628,40.1325 258.628,40.9659 267.5,43C 270.876,45.6941 274.543,48.0274 278.5,50C 280.037,51.1096 280.703,52.6096 280.5,54.5C 281.552,54.3505 282.552,54.5172 283.5,55C 287.667,59.1667 291.833,63.3333 296,67.5C 310.675,86.173 325.341,104.84 340,123.5C 342.031,119.958 343.865,116.292 345.5,112.5C 353.291,109.155 361.291,108.655 369.5,111C 383.318,115.152 395.485,121.986 406,131.5C 415.791,128.678 425.291,128.844 434.5,132C 440.675,137.543 446.509,143.376 452,149.5C 452.49,150.793 452.657,152.127 452.5,153.5C 453.675,153.281 454.675,153.614 455.5,154.5C 466.798,172.951 473.465,191.784 475.5,211C 477.484,219.193 478.817,227.526 479.5,236C 479.156,244.325 478.989,253.158 479,262.5C 478.562,270.901 477.562,279.234 476,287.5C 471.575,300.347 466.075,312.681 459.5,324.5C 458.019,325.48 456.685,326.647 455.5,328C 455.755,331.258 453.755,333.925 449.5,336C 449.833,336.333 450.167,336.667 450.5,337C 446.429,340.601 442.762,344.601 439.5,349C 438.552,349.483 437.552,349.649 436.5,349.5C 436.688,351.103 436.188,352.437 435,353.5C 432.645,353.6 430.478,354.767 428.5,357C 425.099,356.734 423.433,358.234 423.5,361.5C 422.127,361.343 420.793,361.51 419.5,362C 416.855,364.431 413.855,366.431 410.5,368C 403.926,369.13 397.592,371.463 391.5,375C 382.158,376.945 372.825,378.778 363.5,380.5C 361.398,387.639 359.398,394.806 357.5,402C 358.108,403.231 358.441,404.564 358.5,406C 357.46,418.702 356.627,431.202 356,443.5C 355.474,446.883 354.141,449.883 352,452.5C 350.421,454.041 348.587,455.208 346.5,456C 324.217,457.624 301.884,457.957 279.5,457C 274.588,456.077 270.755,453.577 268,449.5C 266.528,445.277 265.528,440.943 265,436.5C 263.869,422.193 263.203,407.859 263,393.5C 262.586,393.043 262.086,392.709 261.5,392.5C 253.119,393.391 244.786,393.725 236.5,393.5C 235.844,404.03 235.178,414.53 234.5,425C 234.978,429.098 235.311,433.098 235.5,437C 234.944,441.23 234.11,445.397 233,449.5C 232.228,450.849 231.061,451.682 229.5,452C 230.458,453.147 230.125,454.147 228.5,455C 226.5,455.667 224.5,456.333 222.5,457C 204.635,457.186 186.802,457.686 169,458.5C 167.739,458.241 166.739,457.574 166,456.5C 160.084,458.199 154.251,457.366 148.5,454C 147.687,452.686 146.687,451.519 145.5,450.5C 145.709,449.914 146.043,449.414 146.5,449C 144.789,447.565 143.622,445.731 143,443.5C 141.798,428.185 140.798,412.852 140,397.5C 137.623,391.916 135.623,386.249 134,380.5C 108.559,377.334 85.3928,368.5 64.5,354C 46.4737,337.463 33.307,317.63 25,294.5C 22.4866,283.623 20.6533,272.79 19.5,262C 20.0118,248.159 21.0118,234.326 22.5,220.5C 22.0133,219.554 21.6799,218.554 21.5,217.5C 23.1267,205.978 26.1267,194.978 30.5,184.5C 29.3318,183.094 29.6652,181.928 31.5,181C 31.1667,180.667 30.8333,180.333 30.5,180C 36.0505,166.263 43.5505,153.763 53,142.5C 54.0113,141.663 55.1779,141.33 56.5,141.5C 56.1667,138.5 57.5,137.167 60.5,137.5C 60.33,136.178 60.6634,135.011 61.5,134C 66.7118,130.922 72.3784,129.422 78.5,129.5C 82.7244,129.621 86.5577,130.287 90,131.5C 101.525,123.994 113.692,117.494 126.5,112C 136.014,108.354 145.348,108.687 154.5,113C 155.926,116.545 157.426,120.045 159,123.5C 166.691,113.976 174.191,104.31 181.5,94.5C 182.325,93.6143 183.325,93.281 184.5,93.5C 184.343,92.1266 184.51,90.7932 185,89.5C 196.192,74.7205 208.692,60.8872 222.5,48C 228.114,44.4111 234.114,41.9111 240.5,40.5 Z M 360.5,159.5 C 366.223,166.244 371.223,173.577 375.5,181.5C 383.708,199.97 389.208,219.304 392,239.5C 392.674,248.23 392.174,256.897 390.5,265.5C 388.741,256.591 387.241,247.258 386,237.5C 379.211,210.964 370.711,184.964 360.5,159.5 Z M 137.5,159.5 C 138.097,159.735 138.43,160.235 138.5,161C 124.373,193.22 114.373,226.72 108.5,261.5C 106.721,254.255 106.221,246.921 107,239.5C 110.224,209.969 120.39,183.303 137.5,159.5 Z M 356.5,153.5 C 361.195,156.025 361.195,157.358 356.5,157.5C 356.5,156.167 356.5,154.833 356.5,153.5 Z"/></g>
<g><path style="opacity:0.202" fill="#493424" d="M 354.5,125.5 C 356.833,128.167 359.167,130.833 361.5,133.5C 360.402,134.601 360.235,135.934 361,137.5C 366.276,143.87 371.443,150.37 376.5,157C 376.167,157.333 375.833,157.667 375.5,158C 376.973,158.71 377.64,159.876 377.5,161.5C 380.55,160.923 382.55,162.09 383.5,165C 382.446,166.388 382.28,167.888 383,169.5C 385.5,174 388,178.5 390.5,183C 390.167,183.333 389.833,183.667 389.5,184C 398.005,204.261 403.005,225.261 404.5,247C 404.75,249.974 405.75,252.641 407.5,255C 406.17,256.965 404.836,258.965 403.5,261C 404.239,265.127 404.739,269.294 405,273.5C 405.311,269.91 406.144,266.577 407.5,263.5C 407.167,266.833 406.833,270.167 406.5,273.5C 405.89,274.391 405.557,275.391 405.5,276.5C 405.142,279.689 404.475,282.689 403.5,285.5C 402.472,285.074 401.139,285.074 399.5,285.5C 399.353,288.443 398.687,291.276 397.5,294C 397.645,294.772 397.978,295.439 398.5,296C 395.568,296.295 393.568,297.795 392.5,300.5C 392.709,301.086 393.043,301.586 393.5,302C 391.68,302.979 390.513,304.479 390,306.5C 388.933,307.191 387.766,307.691 386.5,308C 386.07,308.92 385.736,309.753 385.5,310.5C 383.336,309.586 381.336,308.419 379.5,307C 380.804,306.196 381.471,305.029 381.5,303.5C 379.221,297.102 378.888,290.602 380.5,284C 380.665,281.083 379.998,278.417 378.5,276C 379.682,271.328 379.016,266.828 376.5,262.5C 376.833,261.167 377.167,259.833 377.5,258.5C 375.737,253.664 375.07,248.831 375.5,244C 374.818,240.58 373.818,237.246 372.5,234C 372.833,233.667 373.167,233.333 373.5,233C 368.213,215.47 362.38,198.303 356,181.5C 350.464,168.761 344.131,156.428 337,144.5C 324.39,124.83 310.39,105.83 295,87.5C 291.346,83.3154 287.179,79.8154 282.5,77C 282.957,76.586 283.291,76.086 283.5,75.5C 281.585,73.9288 280.585,71.9288 280.5,69.5C 277.672,68.5033 275.005,68.5033 272.5,69.5C 271.662,69.1583 271.328,68.4916 271.5,67.5C 272.376,67.6309 273.043,67.2975 273.5,66.5C 271.527,64.7186 270.193,62.5519 269.5,60C 265.499,59.0043 262.166,57.0043 259.5,54C 255.376,52.86 251.376,52.36 247.5,52.5C 242.353,53.6667 237.353,55.5 232.5,58C 228.833,61 225.167,64 221.5,67C 208.311,82.8517 195.145,98.685 182,114.5C 177.348,123.718 171.515,132.051 164.5,139.5C 163.515,141.772 162.681,144.105 162,146.5C 157.08,152.34 153.747,159.007 152,166.5C 148.905,169.692 146.572,173.359 145,177.5C 134.185,203.365 126.352,229.532 121.5,256C 122.059,256.725 122.392,257.558 122.5,258.5C 121.833,260.167 121.167,261.833 120.5,263.5C 121.473,265.464 121.306,267.464 120,269.5C 119.167,281.5 118.333,293.5 117.5,305.5C 116.757,306.908 115.923,308.241 115,309.5C 112.763,308.944 110.763,307.944 109,306.5C 106.332,300.488 103.666,294.488 101,288.5C 100.316,287.216 100.483,286.049 101.5,285C 99.4377,282.486 97.9377,279.653 97,276.5C 96.3292,277.252 95.4959,277.586 94.5,277.5C 93.8333,277.5 93.5,277.167 93.5,276.5C 92.962,274.883 92.6287,273.216 92.5,271.5C 89.1491,250.624 90.1491,229.958 95.5,209.5C 98.3522,199.441 101.519,189.441 105,179.5C 109.909,170.015 115.075,160.682 120.5,151.5C 126.826,143.508 133.826,136.175 141.5,129.5C 143.49,129.993 143.49,131.16 141.5,133C 142.167,133.333 142.833,133.667 143.5,134C 142.167,134.667 142.167,135.333 143.5,136C 141.999,137.252 140.332,138.252 138.5,139C 139.956,139.423 140.456,140.256 140,141.5C 138.59,143.884 136.59,145.55 134,146.5C 131.545,151.028 128.878,155.362 126,159.5C 124.333,161.167 122.667,162.833 121,164.5C 110.496,186.358 102.996,209.192 98.5,233C 98.5852,234.107 98.9186,235.107 99.5,236C 98.79,241.051 97.79,246.051 96.5,251C 99.4696,253.828 99.8029,256.828 97.5,260C 98,260.5 98.5,261 99,261.5C 100.597,270.814 102.264,279.814 104,288.5C 105.804,291.325 107.304,294.325 108.5,297.5C 112.562,300.72 114.729,299.72 115,294.5C 115.784,291.24 115.617,288.073 114.5,285C 115.459,283.293 116.125,281.459 116.5,279.5C 116.242,277.37 115.909,275.204 115.5,273C 117.245,269.434 118.411,265.601 119,261.5C 119.814,252.095 121.147,242.762 123,233.5C 126.104,225.505 128.437,217.171 130,208.5C 138.381,185.334 147.715,163 158,141.5C 174.103,117.653 191.437,94.6525 210,72.5C 216.946,66.0979 223.779,59.5979 230.5,53C 247.268,44.0583 262.435,46.225 276,59.5C 276.36,61.4211 277.194,63.0878 278.5,64.5C 280.614,65.0339 282.448,66.0339 284,67.5C 289.14,75.6334 295.307,82.8001 302.5,89C 307.166,96.4121 312.999,103.579 320,110.5C 325.978,120.292 332.478,129.625 339.5,138.5C 345.806,152.445 352.639,166.112 360,179.5C 371.179,206.172 379.012,234.172 383.5,263.5C 382.044,266.683 382.377,269.683 384.5,272.5C 384.167,273.167 383.833,273.833 383.5,274.5C 385.086,280.611 386.42,286.778 387.5,293C 387.043,293.414 386.709,293.914 386.5,294.5C 387.247,294.736 388.08,295.07 389,295.5C 390.619,291.859 392.286,288.193 394,284.5C 394.874,278.338 396.374,272.338 398.5,266.5C 398.167,265.833 397.833,265.167 397.5,264.5C 398.77,257.469 399.437,250.469 399.5,243.5C 396.794,217.55 389.461,192.717 377.5,169C 371.113,158.285 363.613,148.452 355,139.5C 353.296,134.997 352.129,130.663 351.5,126.5C 352.325,125.614 353.325,125.281 354.5,125.5 Z M 360.5,159.5 C 370.711,184.964 379.211,210.964 386,237.5C 387.241,247.258 388.741,256.591 390.5,265.5C 392.174,256.897 392.674,248.23 392,239.5C 389.208,219.304 383.708,199.97 375.5,181.5C 371.223,173.577 366.223,166.244 360.5,159.5 Z M 137.5,159.5 C 120.39,183.303 110.224,209.969 107,239.5C 106.221,246.921 106.721,254.255 108.5,261.5C 114.373,226.72 124.373,193.22 138.5,161C 138.43,160.235 138.097,159.735 137.5,159.5 Z M 356.5,153.5 C 356.5,154.833 356.5,156.167 356.5,157.5C 361.195,157.358 361.195,156.025 356.5,153.5 Z"/></g>
<g><path style="opacity:0.339" fill="#422c20" d="M 271.5,67.5 C 261.501,55.5999 249.501,53.0999 235.5,60C 213.416,81.9099 193.749,105.743 176.5,131.5C 169.482,140.866 163.482,150.866 158.5,161.5C 155.516,167.469 152.516,173.469 149.5,179.5C 144.371,192.379 139.705,205.546 135.5,219C 135.57,219.765 135.903,220.265 136.5,220.5C 135.828,221.267 134.995,221.934 134,222.5C 131.677,230.79 129.511,239.124 127.5,247.5C 128.156,249.453 128.489,251.453 128.5,253.5C 127.307,253.97 126.64,254.97 126.5,256.5C 125.668,261.821 125.002,267.154 124.5,272.5C 121.467,286.97 121.967,301.303 126,315.5C 129.862,320.036 134.695,322.869 140.5,324C 149.584,325.767 158.584,325.601 167.5,323.5C 168.842,325.005 170.508,325.672 172.5,325.5C 172.5,324.167 172.5,322.833 172.5,321.5C 175.505,321.747 178.005,320.747 180,318.5C 180.483,319.448 180.649,320.448 180.5,321.5C 181.5,321.5 182.5,321.5 183.5,321.5C 183.586,322.496 183.252,323.329 182.5,324C 172.671,329.809 162.004,332.309 150.5,331.5C 140.042,332.135 130.376,329.802 121.5,324.5C 113.551,321.051 107.717,315.384 104,307.5C 98.9804,298.089 95.8137,288.089 94.5,277.5C 95.4959,277.586 96.3292,277.252 97,276.5C 97.9377,279.653 99.4377,282.486 101.5,285C 100.483,286.049 100.316,287.216 101,288.5C 103.666,294.488 106.332,300.488 109,306.5C 110.763,307.944 112.763,308.944 115,309.5C 115.923,308.241 116.757,306.908 117.5,305.5C 118.333,293.5 119.167,281.5 120,269.5C 121.306,267.464 121.473,265.464 120.5,263.5C 121.167,261.833 121.833,260.167 122.5,258.5C 122.392,257.558 122.059,256.725 121.5,256C 126.352,229.532 134.185,203.365 145,177.5C 146.572,173.359 148.905,169.692 152,166.5C 153.747,159.007 157.08,152.34 162,146.5C 162.681,144.105 163.515,141.772 164.5,139.5C 171.515,132.051 177.348,123.718 182,114.5C 195.145,98.685 208.311,82.8517 221.5,67C 225.167,64 228.833,61 232.5,58C 237.353,55.5 242.353,53.6667 247.5,52.5C 251.376,52.36 255.376,52.86 259.5,54C 262.166,57.0043 265.499,59.0043 269.5,60C 270.193,62.5519 271.527,64.7186 273.5,66.5C 273.043,67.2975 272.376,67.6309 271.5,67.5 Z"/></g>
<g><path style="opacity:0.831" fill="#6a5644" d="M 271.5,67.5 C 271.328,68.4916 271.662,69.1583 272.5,69.5C 291.365,89.0274 308.365,110.027 323.5,132.5C 323.5,134.833 323.5,137.167 323.5,139.5C 316.054,136.526 308.887,132.86 302,128.5C 298.516,133.176 296.516,138.509 296,144.5C 295.167,145.5 294.333,146.5 293.5,147.5C 286.167,142.5 278.833,137.5 271.5,132.5C 264.513,141.485 257.179,150.152 249.5,158.5C 241.945,150.382 235.111,141.715 229,132.5C 221.284,137.612 213.451,142.612 205.5,147.5C 203.692,142.999 202.192,138.332 201,133.5C 200.359,131.187 199.026,129.52 197,128.5C 190.324,132.586 183.491,136.253 176.5,139.5C 176.5,136.833 176.5,134.167 176.5,131.5C 193.749,105.743 213.416,81.9099 235.5,60C 249.501,53.0999 261.501,55.5999 271.5,67.5 Z"/></g>
<g><path style="opacity:0.976" fill="#816a52" d="M 213.5,87.5 C 215.5,87.8333 217.5,88.1667 219.5,88.5C 217.885,93.7255 216.885,99.0589 216.5,104.5C 212.818,104.665 209.152,104.499 205.5,104C 204.978,103.439 204.645,102.772 204.5,102C 208.132,97.5398 211.132,92.7065 213.5,87.5 Z"/></g>
<g><path style="opacity:0.851" fill="#7a634c" d="M 277.5,87.5 C 279.199,87.3398 280.866,87.5065 282.5,88C 285.975,92.9753 289.641,97.8086 293.5,102.5C 289.345,104.185 285.012,104.851 280.5,104.5C 279.372,98.859 278.372,93.1924 277.5,87.5 Z"/></g>
<g><path style="opacity:0.904" fill="#7c664e" d="M 248.5,88.5 C 249.833,88.5 251.167,88.5 252.5,88.5C 253.021,94.1898 253.688,99.8565 254.5,105.5C 250.445,105.824 246.445,105.491 242.5,104.5C 243.458,99.5504 244.124,94.5504 244.5,89.5C 246.099,89.7678 247.432,89.4345 248.5,88.5 Z"/></g>
<g><path style="opacity:0.201" fill="#463223" d="M 140.5,124.5 C 130.463,128.352 120.796,133.018 111.5,138.5C 103.689,144.477 96.0221,150.644 88.5,157C 86.2992,157.825 84.4659,157.325 83,155.5C 81.8011,152.274 81.3011,148.941 81.5,145.5C 83.6607,145.174 85.4941,144.174 87,142.5C 90.2307,143.246 93.3974,142.746 96.5,141C 99.1019,138.978 101.602,136.812 104,134.5C 110.047,131.539 116.213,128.039 122.5,124C 128.341,122.049 134.341,121.216 140.5,121.5C 140.5,122.5 140.5,123.5 140.5,124.5 Z"/></g>
<g><path style="opacity:0.976" fill="#5a4232" d="M 323.5,132.5 C 340.886,158.281 353.72,186.281 362,216.5C 361.722,215.584 361.222,214.918 360.5,214.5C 358.757,211.25 356.423,208.416 353.5,206C 346.731,201.289 339.731,197.122 332.5,193.5C 332.666,200.508 332.5,207.508 332,214.5C 331.934,218.233 331.101,221.733 329.5,225C 328.5,225.667 327.5,225.667 326.5,225C 318.343,218.755 310.01,212.755 301.5,207C 299.421,206.192 297.421,206.359 295.5,207.5C 304.243,218.654 312.743,229.988 321,241.5C 324.082,249.662 326.582,257.995 328.5,266.5C 328.598,279.01 328.432,291.677 328,304.5C 325.807,308.886 323.64,313.22 321.5,317.5C 319.003,318.129 317.67,319.796 317.5,322.5C 314.683,325.426 311.849,328.426 309,331.5C 305.623,328.292 302.456,324.958 299.5,321.5C 297.146,323.188 295.146,325.188 293.5,327.5C 290.187,330.478 286.853,333.478 283.5,336.5C 280.833,333.167 277.833,330.167 274.5,327.5C 266.228,332.441 258.228,337.774 250.5,343.5C 242.343,339.921 235.01,335.088 228.5,329C 227.167,328.333 225.833,328.333 224.5,329C 222.284,331.553 219.784,333.72 217,335.5C 213.634,332.632 210.134,329.965 206.5,327.5C 205.521,325.855 204.188,324.521 202.5,323.5C 199.736,324.761 197.403,326.595 195.5,329C 194.167,329.667 192.833,329.667 191.5,329C 189.579,325.612 186.913,323.112 183.5,321.5C 181.678,317.487 179.178,313.82 176,310.5C 174.725,308.283 173.725,305.949 173,303.5C 172.333,289.167 172.333,274.833 173,260.5C 175.544,255.452 177.211,250.119 178,244.5C 186.343,231.814 195.176,219.481 204.5,207.5C 202.102,206.276 199.769,206.442 197.5,208C 188.565,214.465 179.565,220.632 170.5,226.5C 168.375,215.591 166.708,204.591 165.5,193.5C 153.224,199.778 143.558,208.778 136.5,220.5C 135.903,220.265 135.57,219.765 135.5,219C 139.705,205.546 144.371,192.379 149.5,179.5C 149.5,180.5 149.5,181.5 149.5,182.5C 151.06,182.519 152.56,182.852 154,183.5C 154.945,183.095 155.612,182.428 156,181.5C 157.778,174.799 159.944,168.299 162.5,162C 161.207,161.51 159.873,161.343 158.5,161.5C 163.482,150.866 169.482,140.866 176.5,131.5C 176.5,134.167 176.5,136.833 176.5,139.5C 183.491,136.253 190.324,132.586 197,128.5C 199.026,129.52 200.359,131.187 201,133.5C 202.192,138.332 203.692,142.999 205.5,147.5C 213.451,142.612 221.284,137.612 229,132.5C 235.111,141.715 241.945,150.382 249.5,158.5C 257.179,150.152 264.513,141.485 271.5,132.5C 278.833,137.5 286.167,142.5 293.5,147.5C 294.333,146.5 295.167,145.5 296,144.5C 296.516,138.509 298.516,133.176 302,128.5C 308.887,132.86 316.054,136.526 323.5,139.5C 323.5,137.167 323.5,134.833 323.5,132.5 Z"/></g>
<g><path style="opacity:0.35" fill="#422c20" d="M 272.5,69.5 C 275.005,68.5033 277.672,68.5033 280.5,69.5C 280.585,71.9288 281.585,73.9288 283.5,75.5C 283.291,76.086 282.957,76.586 282.5,77C 287.179,79.8154 291.346,83.3154 295,87.5C 310.39,105.83 324.39,124.83 337,144.5C 344.131,156.428 350.464,168.761 356,181.5C 362.38,198.303 368.213,215.47 373.5,233C 373.167,233.333 372.833,233.667 372.5,234C 373.818,237.246 374.818,240.58 375.5,244C 375.07,248.831 375.737,253.664 377.5,258.5C 377.167,259.833 376.833,261.167 376.5,262.5C 379.016,266.828 379.682,271.328 378.5,276C 379.998,278.417 380.665,281.083 380.5,284C 378.888,290.602 379.221,297.102 381.5,303.5C 381.471,305.029 380.804,306.196 379.5,307C 381.336,308.419 383.336,309.586 385.5,310.5C 385.736,309.753 386.07,308.92 386.5,308C 387.766,307.691 388.933,307.191 390,306.5C 390.513,304.479 391.68,302.979 393.5,302C 393.043,301.586 392.709,301.086 392.5,300.5C 393.568,297.795 395.568,296.295 398.5,296C 397.978,295.439 397.645,294.772 397.5,294C 398.687,291.276 399.353,288.443 399.5,285.5C 401.139,285.074 402.472,285.074 403.5,285.5C 400.529,298.61 394.529,310.11 385.5,320C 383.102,321.524 380.769,323.024 378.5,324.5C 377.833,324.5 377.5,324.833 377.5,325.5C 366.767,330.681 355.433,332.681 343.5,331.5C 333.764,331.394 325.098,328.394 317.5,322.5C 317.67,319.796 319.003,318.129 321.5,317.5C 336.077,326.193 351.41,327.693 367.5,322C 372.789,317.821 375.623,312.321 376,305.5C 375.287,295.32 375.454,285.32 376.5,275.5C 376.333,274.833 376.167,274.167 376,273.5C 375.722,274.416 375.222,275.082 374.5,275.5C 374.132,268.784 373.465,262.117 372.5,255.5C 372.219,251.812 371.719,248.145 371,244.5C 368.051,235.567 365.551,226.567 363.5,217.5C 362.5,217.5 361.5,217.5 360.5,217.5C 360.5,216.5 360.5,215.5 360.5,214.5C 361.222,214.918 361.722,215.584 362,216.5C 353.72,186.281 340.886,158.281 323.5,132.5C 308.365,110.027 291.365,89.0274 272.5,69.5 Z"/></g>
<g><path style="opacity:0.977" fill="#ab9770" d="M 361.5,125.5 C 379.696,132.507 395.696,143.007 409.5,157C 411.134,157.494 412.801,157.66 414.5,157.5C 416.179,157.892 417.846,158.392 419.5,159C 419.167,159.333 418.833,159.667 418.5,160C 412.373,160.098 406.373,160.931 400.5,162.5C 401.025,163.192 401.692,163.692 402.5,164C 402.167,164.333 401.833,164.667 401.5,165C 403.5,165 405.5,165 407.5,165C 407.982,166.008 408.148,167.175 408,168.5C 409.972,167.695 411.472,166.361 412.5,164.5C 414.5,163.833 416.5,163.167 418.5,162.5C 419.425,163.357 420.092,164.357 420.5,165.5C 413.786,165.05 410.62,168.05 411,174.5C 413.333,182.233 417.833,184.066 424.5,180C 425.252,179.329 425.586,178.496 425.5,177.5C 427.167,177.5 428.833,177.5 430.5,177.5C 429.69,181.776 429.023,186.109 428.5,190.5C 427.679,193.641 427.179,196.975 427,200.5C 426.577,201.956 425.744,202.456 424.5,202C 414.452,182.136 400.119,166.969 381.5,156.5C 375.994,147.817 369.327,140.151 361.5,133.5C 359.167,130.833 356.833,128.167 354.5,125.5C 356.662,124.583 358.995,124.583 361.5,125.5 Z"/></g>
<g><path style="opacity:0.955" fill="#ab9770" d="M 141.5,129.5 C 133.826,136.175 126.826,143.508 120.5,151.5C 99.802,161.865 84.4687,177.532 74.5,198.5C 73.7924,200.378 72.6257,202.045 71,203.5C 70.0853,202.672 69.4186,201.672 69,200.5C 68.8195,197.305 68.3195,194.305 67.5,191.5C 66.9264,188.154 66.2598,184.821 65.5,181.5C 67.0034,178.849 66.1701,177.516 63,177.5C 56.3081,180.851 50.8081,185.684 46.5,192C 45.9056,192.464 45.2389,192.631 44.5,192.5C 47.1141,184.979 50.2808,177.646 54,170.5C 59.9194,161.745 66.7527,153.745 74.5,146.5C 75.9108,145.092 77.5775,144.092 79.5,143.5C 80.7133,143.747 81.38,144.414 81.5,145.5C 81.3011,148.941 81.8011,152.274 83,155.5C 84.4659,157.325 86.2992,157.825 88.5,157C 96.0221,150.644 103.689,144.477 111.5,138.5C 120.796,133.018 130.463,128.352 140.5,124.5C 142.342,122.966 143.675,123.3 144.5,125.5C 143.476,126.852 142.476,128.185 141.5,129.5 Z"/></g>
<g><path style="opacity:0.359" fill="#452f22" d="M 361.5,133.5 C 369.327,140.151 375.994,147.817 381.5,156.5C 391.758,173.266 399.091,191.266 403.5,210.5C 406.637,220.923 408.303,231.59 408.5,242.5C 408.72,249.543 408.386,256.543 407.5,263.5C 406.144,266.577 405.311,269.91 405,273.5C 404.739,269.294 404.239,265.127 403.5,261C 404.836,258.965 406.17,256.965 407.5,255C 405.75,252.641 404.75,249.974 404.5,247C 403.005,225.261 398.005,204.261 389.5,184C 389.833,183.667 390.167,183.333 390.5,183C 388,178.5 385.5,174 383,169.5C 382.28,167.888 382.446,166.388 383.5,165C 382.55,162.09 380.55,160.923 377.5,161.5C 377.64,159.876 376.973,158.71 375.5,158C 375.833,157.667 376.167,157.333 376.5,157C 371.443,150.37 366.276,143.87 361,137.5C 360.235,135.934 360.402,134.601 361.5,133.5 Z"/></g>
<g><path style="opacity:0.204" fill="#483323" d="M 74.5,146.5 C 66.7527,153.745 59.9194,161.745 54,170.5C 50.2808,177.646 47.1141,184.979 44.5,192.5C 40.9861,199.045 39.3195,206.045 39.5,213.5C 37.8923,219.94 36.8923,226.607 36.5,233.5C 35.5119,238.64 35.1786,243.974 35.5,249.5C 35.5,252.167 35.5,254.833 35.5,257.5C 36.6585,264.744 37.4918,272.078 38,279.5C 38.8993,283.793 40.3993,287.793 42.5,291.5C 45.9728,299.248 49.6395,306.914 53.5,314.5C 52.7321,315.263 52.2321,316.263 52,317.5C 51.3457,316.304 50.8457,316.304 50.5,317.5C 68.7717,346.512 95.4383,362.679 130.5,366C 133.234,367.338 136.234,368.505 139.5,369.5C 141.19,372.024 143.357,374.024 146,375.5C 147.309,377.686 147.476,379.853 146.5,382C 149.207,387.775 151.54,393.775 153.5,400C 153.094,405.708 152.427,411.541 151.5,417.5C 153.362,423.701 154.529,430.035 155,436.5C 155.98,438.059 156.813,439.726 157.5,441.5C 158.107,441.376 158.44,441.043 158.5,440.5C 164.428,442.396 170.428,443.063 176.5,442.5C 177.833,442.5 179.167,442.5 180.5,442.5C 185.817,441.384 191.151,441.384 196.5,442.5C 197.5,442.5 198.5,442.5 199.5,442.5C 205.919,442.461 212.252,442.128 218.5,441.5C 219.483,437.702 219.817,433.702 219.5,429.5C 220.302,430.952 220.802,432.618 221,434.5C 221.637,431.893 222.804,429.56 224.5,427.5C 223.233,425.629 223.233,423.796 224.5,422C 222.076,419.446 222.076,416.946 224.5,414.5C 222.542,411.863 222.542,409.529 224.5,407.5C 223.167,404.833 223.167,402.167 224.5,399.5C 223.963,398.259 223.296,397.092 222.5,396C 224.058,392.323 225.058,388.489 225.5,384.5C 225.291,383.914 224.957,383.414 224.5,383C 225.833,381.333 227.167,379.667 228.5,378C 230.556,377.689 232.556,377.189 234.5,376.5C 238.888,379.574 243.721,381.574 249,382.5C 254.506,380.697 260.173,379.363 266,378.5C 268.151,378.773 270.151,379.439 272,380.5C 272.333,380.167 272.667,379.833 273,379.5C 273.1,386.412 273.933,393.245 275.5,400C 274.63,406.111 274.296,412.111 274.5,418C 274.603,425.669 276.437,432.836 280,439.5C 280.498,436.183 280.665,432.85 280.5,429.5C 281.483,433.298 281.817,437.298 281.5,441.5C 282.5,441.5 283.5,441.5 284.5,441.5C 290.033,441.775 295.699,442.109 301.5,442.5C 301.833,442.5 302.167,442.5 302.5,442.5C 308.827,441.276 315.16,441.276 321.5,442.5C 322.791,442.737 323.791,442.404 324.5,441.5C 329.459,442.262 334.459,442.095 339.5,441C 340.056,440.617 340.389,440.117 340.5,439.5C 341.482,425.245 341.816,410.912 341.5,396.5C 343.124,398.137 344.124,397.803 344.5,395.5C 343.56,392.868 343.393,390.202 344,387.5C 346.303,381.413 348.47,375.413 350.5,369.5C 352.519,368.434 354.519,367.268 356.5,366C 363.158,365.5 369.825,365.334 376.5,365.5C 376.5,364.5 376.5,363.5 376.5,362.5C 375.5,362.5 374.5,362.5 373.5,362.5C 377.102,361.225 380.769,360.225 384.5,359.5C 391.49,357.328 398.156,354.661 404.5,351.5C 405.167,351.5 405.5,351.167 405.5,350.5C 410.465,348.351 415.132,345.684 419.5,342.5C 436.125,329.545 448.125,313.211 455.5,293.5C 458.002,289.141 459.836,284.474 461,279.5C 462.43,268.206 463.263,256.872 463.5,245.5C 463.817,241.298 463.483,237.298 462.5,233.5C 461.979,225.429 460.979,217.429 459.5,209.5C 454.692,183.043 442.025,161.209 421.5,144C 420.207,143.51 418.873,143.343 417.5,143.5C 418.09,148.6 417.09,153.267 414.5,157.5C 412.801,157.66 411.134,157.494 409.5,157C 395.696,143.007 379.696,132.507 361.5,125.5C 363.975,123.994 366.642,122.661 369.5,121.5C 382.106,127.136 393.773,134.303 404.5,143C 406.891,143.287 409.224,143.787 411.5,144.5C 415.5,142.5 419.5,140.5 423.5,138.5C 424.799,139.09 425.632,140.09 426,141.5C 426.333,141.167 426.667,140.833 427,140.5C 429.667,141.833 432.333,143.167 435,144.5C 436.495,146.11 436.661,147.776 435.5,149.5C 440.028,152.195 442.861,156.195 444,161.5C 444.423,160.044 445.256,159.544 446.5,160C 450.583,166.702 454.583,173.535 458.5,180.5C 459.958,188.04 462.292,195.206 465.5,202C 465.384,203.268 465.051,204.602 464.5,206C 466.442,207.972 466.776,210.139 465.5,212.5C 466.737,213.281 467.737,214.281 468.5,215.5C 469.42,221.087 469.42,226.587 468.5,232C 470.83,234.173 471.163,236.673 469.5,239.5C 470.636,241.318 471.303,243.318 471.5,245.5C 471.078,248.369 470.911,251.369 471,254.5C 468.023,257.953 467.856,261.619 470.5,265.5C 469.704,268.427 469.704,271.26 470.5,274C 469.939,275.676 468.939,277.009 467.5,278C 467.833,278.333 468.167,278.667 468.5,279C 466.565,284.764 464.898,290.597 463.5,296.5C 461.897,296.312 460.563,296.812 459.5,298C 461.251,301.138 460.418,303.972 457,306.5C 456.457,309.607 455.291,312.44 453.5,315C 453.336,318.087 451.669,320.587 448.5,322.5C 447.564,327.275 444.898,330.775 440.5,333C 440.833,333.333 441.167,333.667 441.5,334C 439.072,337.098 436.072,339.431 432.5,341C 434.301,341.317 434.634,341.984 433.5,343C 427.983,345.957 423.317,349.29 419.5,353C 418.24,354.113 417.073,354.28 416,353.5C 414,355.167 412,356.833 410,358.5C 409.667,357.833 409.333,357.167 409,356.5C 406.686,360.986 403.186,362.319 398.5,360.5C 397.5,360.833 396.833,361.5 396.5,362.5C 383.404,367.183 370.07,370.85 356.5,373.5C 355.874,376.315 354.54,378.815 352.5,381C 352.978,385.611 353.311,390.277 353.5,395C 351.76,398.09 351.426,401.257 352.5,404.5C 351.689,405.216 351.022,406.05 350.5,407C 350.525,408.988 350.525,410.988 350.5,413C 351.167,413.333 351.833,413.667 352.5,414C 350.348,418.691 350.015,423.524 351.5,428.5C 349.665,429.428 349.332,430.594 350.5,432C 349.736,434.069 349.236,436.236 349,438.5C 344.307,442.44 339.474,446.273 334.5,450C 332.687,449.954 331.021,450.12 329.5,450.5C 328.059,449.696 326.559,449.029 325,448.5C 320.182,448.36 315.349,449.026 310.5,450.5C 305.611,449.914 300.777,449.248 296,448.5C 283.919,450.493 276.585,445.16 274,432.5C 272.567,425.737 271.734,418.904 271.5,412C 271.68,404.727 272.014,397.393 272.5,390C 271.253,385.918 268.586,383.418 264.5,382.5C 259.672,383.705 254.838,384.705 250,385.5C 244.388,383.836 238.721,382.169 233,380.5C 231.379,380.725 230.212,381.558 229.5,383C 228.212,388.029 227.212,393.029 226.5,398C 226.44,401.305 226.773,404.472 227.5,407.5C 226.907,409.382 226.24,411.215 225.5,413C 227.8,414.113 228.133,415.613 226.5,417.5C 226.86,421.412 227.86,425.079 229.5,428.5C 227.934,430.962 227.601,433.462 228.5,436C 225.573,439.862 222.907,443.862 220.5,448C 218.731,449.019 217.064,449.186 215.5,448.5C 214.304,448.846 214.304,449.346 215.5,450C 210.914,450.197 206.414,450.697 202,451.5C 199,451.84 196,451.173 193,449.5C 191.209,451.513 189.875,451.513 189,449.5C 185.446,451.309 181.946,452.309 178.5,452.5C 174.61,451.158 170.61,450.325 166.5,450C 157.568,448.235 151.568,443.068 148.5,434.5C 149.661,432.776 149.495,431.11 148,429.5C 148.963,411.236 146.296,393.57 140,376.5C 138.681,374.513 136.848,373.346 134.5,373C 91.9055,368.398 60.5721,347.398 40.5,310C 40.8333,309.667 41.1667,309.333 41.5,309C 33.7979,297.22 29.4646,284.22 28.5,270C 28.5356,267.906 28.8689,265.906 29.5,264C 26.9211,262.271 26.9211,260.438 29.5,258.5C 29.2923,255.882 27.9589,253.549 25.5,251.5C 25.946,248.724 26.946,246.224 28.5,244C 27.8333,243.667 27.1667,243.333 26.5,243C 27.3161,241.077 27.9828,239.077 28.5,237C 27.3552,231.805 27.6885,226.638 29.5,221.5C 28.619,216.498 29.2857,211.665 31.5,207C 30.9781,206.439 30.6448,205.772 30.5,205C 33.1948,199.232 35.1948,193.566 36.5,188C 38.5653,183.226 40.3986,178.393 42,173.5C 46.7163,164.056 52.8829,155.723 60.5,148.5C 64.782,147.309 68.6153,145.309 72,142.5C 72.4796,144.133 73.3129,145.466 74.5,146.5 Z M 360.5,159.5 C 370.711,184.964 379.211,210.964 386,237.5C 387.241,247.258 388.741,256.591 390.5,265.5C 392.174,256.897 392.674,248.23 392,239.5C 389.208,219.304 383.708,199.97 375.5,181.5C 371.223,173.577 366.223,166.244 360.5,159.5 Z M 137.5,159.5 C 120.39,183.303 110.224,209.969 107,239.5C 106.221,246.921 106.721,254.255 108.5,261.5C 114.373,226.72 124.373,193.22 138.5,161C 138.43,160.235 138.097,159.735 137.5,159.5 Z M 356.5,153.5 C 356.5,154.833 356.5,156.167 356.5,157.5C 361.195,157.358 361.195,156.025 356.5,153.5 Z"/></g>
<g><path style="opacity:0.349" fill="#432d21" d="M 53.5,314.5 C 57.803,319.647 61.9696,324.98 66,330.5C 70.0937,335.102 74.5937,339.102 79.5,342.5C 90.4816,350.251 102.482,355.918 115.5,359.5C 124.574,362.888 134.074,364.221 144,363.5C 151.54,363.515 159.04,363.015 166.5,362C 168.315,361.243 169.981,360.41 171.5,359.5C 184.313,356.761 194.979,350.428 203.5,340.5C 212.221,358.727 226.221,371.227 245.5,378C 247.167,378.167 248.833,378.333 250.5,378.5C 255.13,378.012 259.463,376.679 263.5,374.5C 262.537,375.363 262.537,376.03 263.5,376.5C 272.406,372.79 276.739,375.79 276.5,385.5C 277.5,385.5 278.5,385.5 279.5,385.5C 279.5,386.5 279.5,387.5 279.5,388.5C 279.24,402.196 279.573,415.863 280.5,429.5C 280.665,432.85 280.498,436.183 280,439.5C 276.437,432.836 274.603,425.669 274.5,418C 274.296,412.111 274.63,406.111 275.5,400C 273.933,393.245 273.1,386.412 273,379.5C 272.667,379.833 272.333,380.167 272,380.5C 270.151,379.439 268.151,378.773 266,378.5C 260.173,379.363 254.506,380.697 249,382.5C 243.721,381.574 238.888,379.574 234.5,376.5C 232.556,377.189 230.556,377.689 228.5,378C 227.167,379.667 225.833,381.333 224.5,383C 224.957,383.414 225.291,383.914 225.5,384.5C 225.058,388.489 224.058,392.323 222.5,396C 223.296,397.092 223.963,398.259 224.5,399.5C 223.167,402.167 223.167,404.833 224.5,407.5C 222.542,409.529 222.542,411.863 224.5,414.5C 222.076,416.946 222.076,419.446 224.5,422C 223.233,423.796 223.233,425.629 224.5,427.5C 222.804,429.56 221.637,431.893 221,434.5C 220.802,432.618 220.302,430.952 219.5,429.5C 219.5,416.167 219.5,402.833 219.5,389.5C 219.912,383.829 220.078,377.829 220,371.5C 213.343,364.163 207.177,356.497 201.5,348.5C 199.338,351.494 196.672,353.994 193.5,356C 182.173,361.307 171.839,364.974 162.5,367C 160.78,368.434 158.78,369.267 156.5,369.5C 153.824,369.163 151.157,368.83 148.5,368.5C 151.22,377.906 153.887,387.239 156.5,396.5C 157.151,410.932 157.818,425.265 158.5,439.5C 158.5,439.833 158.5,440.167 158.5,440.5C 158.44,441.043 158.107,441.376 157.5,441.5C 156.813,439.726 155.98,438.059 155,436.5C 154.529,430.035 153.362,423.701 151.5,417.5C 152.427,411.541 153.094,405.708 153.5,400C 151.54,393.775 149.207,387.775 146.5,382C 147.476,379.853 147.309,377.686 146,375.5C 143.357,374.024 141.19,372.024 139.5,369.5C 136.234,368.505 133.234,367.338 130.5,366C 95.4383,362.679 68.7717,346.512 50.5,317.5C 50.8457,316.304 51.3457,316.304 52,317.5C 52.2321,316.263 52.7321,315.263 53.5,314.5 Z"/></g>
<g><path style="opacity:0.937" fill="#aa9670" d="M 377.5,325.5 C 371.753,333.42 365.42,340.92 358.5,348C 358.833,349 359.167,350 359.5,351C 364.072,352.373 368.739,353.206 373.5,353.5C 376.962,354.482 380.629,354.815 384.5,354.5C 384.703,356.39 384.037,357.89 382.5,359C 383.094,359.464 383.761,359.631 384.5,359.5C 380.769,360.225 377.102,361.225 373.5,362.5C 356.831,364.479 340.498,363.479 324.5,359.5C 328.048,359.905 331.381,359.405 334.5,358C 330.667,355.5 327.5,352.333 325,348.5C 324.333,347.5 324.333,346.5 325,345.5C 332.913,341.461 340.746,337.294 348.5,333C 346.618,332.802 344.952,332.302 343.5,331.5C 355.433,332.681 366.767,330.681 377.5,325.5 Z"/></g>
<g><path style="opacity:0.792" fill="#c0b097" d="M 404.5,351.5 C 398.156,354.661 391.49,357.328 384.5,359.5C 383.761,359.631 383.094,359.464 382.5,359C 384.037,357.89 384.703,356.39 384.5,354.5C 380.629,354.815 376.962,354.482 373.5,353.5C 375.669,350.753 378.002,350.42 380.5,352.5C 381.258,351.189 382.258,350.689 383.5,351C 382.289,351.893 382.289,352.726 383.5,353.5C 384.519,352.313 385.686,351.313 387,350.5C 388.997,351.672 390.83,353.005 392.5,354.5C 395.232,353.017 398.065,351.684 401,350.5C 402.138,350.989 403.305,351.322 404.5,351.5 Z"/></g>
<g><path style="opacity:0.958" fill="#3b2b22" d="M 219.5,389.5 C 219.631,388.761 219.464,388.094 219,387.5C 215.915,391.093 212.415,394.093 208.5,396.5C 207.062,396.281 205.729,395.781 204.5,395C 202.284,392.447 199.784,390.28 197,388.5C 193.936,391.061 191.436,394.061 189.5,397.5C 188.577,398.303 187.577,398.47 186.5,398C 183.462,395.297 180.795,392.297 178.5,389C 174.415,388.562 171.748,390.395 170.5,394.5C 169.833,394.833 169.167,395.167 168.5,395.5C 166.177,393.678 164.011,391.678 162,389.5C 160.158,391.864 158.325,394.197 156.5,396.5C 153.887,387.239 151.22,377.906 148.5,368.5C 151.157,368.83 153.824,369.163 156.5,369.5C 158.78,369.267 160.78,368.434 162.5,367C 171.839,364.974 182.173,361.307 193.5,356C 196.672,353.994 199.338,351.494 201.5,348.5C 207.177,356.497 213.343,364.163 220,371.5C 220.078,377.829 219.912,383.829 219.5,389.5 Z"/></g>
<g><path style="opacity:0.961" fill="#d3c5ab" d="M 404.5,325.5 C 404.5,326.167 404.167,326.5 403.5,326.5C 400.921,326.917 398.754,326.25 397,324.5C 396.517,325.448 396.351,326.448 396.5,327.5C 394.857,327.52 393.524,326.853 392.5,325.5C 391.585,326.328 390.919,327.328 390.5,328.5C 391.529,328.296 392.529,328.796 393.5,330C 391.129,330.735 388.795,331.568 386.5,332.5C 384.866,332.032 383.7,331.032 383,329.5C 382.308,330.025 381.808,330.692 381.5,331.5C 382.803,333.589 382.303,335.256 380,336.5C 378.817,335.269 377.651,335.269 376.5,336.5C 377.441,336.489 378.108,336.989 378.5,338C 377.275,340.09 378.108,340.923 381,340.5C 383.617,340.873 385.45,339.873 386.5,337.5C 385.45,335.898 386.117,335.065 388.5,335C 388.167,334.667 387.833,334.333 387.5,334C 391.011,333.88 391.345,335.214 388.5,338C 388.957,338.414 389.291,338.914 389.5,339.5C 385.726,340.822 381.893,341.822 378,342.5C 376.844,341.007 376.01,341.174 375.5,343C 375.613,344.28 376.28,345.113 377.5,345.5C 379.042,341.665 380.542,341.998 382,346.5C 383.667,345.5 385,344.167 386,342.5C 386.691,344.891 387.691,344.891 389,342.5C 387.78,350.106 389.113,350.439 393,343.5C 393.49,342.207 393.657,340.873 393.5,339.5C 397.256,339.876 400.256,341.543 402.5,344.5C 403.086,344.291 403.586,343.957 404,343.5C 404.29,345.92 404.79,348.254 405.5,350.5C 405.5,351.167 405.167,351.5 404.5,351.5C 403.305,351.322 402.138,350.989 401,350.5C 398.065,351.684 395.232,353.017 392.5,354.5C 390.83,353.005 388.997,351.672 387,350.5C 385.686,351.313 384.519,352.313 383.5,353.5C 382.289,352.726 382.289,351.893 383.5,351C 382.258,350.689 381.258,351.189 380.5,352.5C 378.002,350.42 375.669,350.753 373.5,353.5C 368.739,353.206 364.072,352.373 359.5,351C 359.167,350 358.833,349 358.5,348C 365.42,340.92 371.753,333.42 377.5,325.5C 377.5,324.833 377.833,324.5 378.5,324.5C 381.044,324.896 383.211,324.229 385,322.5C 385.163,324.387 384.329,325.887 382.5,327C 383.935,326.689 385.268,326.855 386.5,327.5C 387.5,327.167 388.167,326.5 388.5,325.5C 387.674,324.549 387.508,323.549 388,322.5C 389.667,322.833 391.333,323.167 393,323.5C 393.5,323 394,322.5 394.5,322C 392.603,320.89 390.77,320.724 389,321.5C 388.388,319.763 389.054,318.763 391,318.5C 395.372,321.121 399.872,323.454 404.5,325.5 Z"/></g>
<g><path style="opacity:0.957" fill="#3b2b22" d="M 350.5,369.5 C 348.47,375.413 346.303,381.413 344,387.5C 343.393,390.202 343.56,392.868 344.5,395.5C 344.124,397.803 343.124,398.137 341.5,396.5C 340.007,395.555 338.507,394.555 337,393.5C 334.315,395.26 331.482,396.594 328.5,397.5C 327.5,395.833 326.167,394.5 324.5,393.5C 323.162,391.887 321.495,391.387 319.5,392C 317.284,394.553 314.784,396.72 312,398.5C 307.963,394.958 303.796,391.625 299.5,388.5C 295.412,390.305 291.912,392.972 289,396.5C 286.234,393.223 283.067,390.557 279.5,388.5C 279.5,387.5 279.5,386.5 279.5,385.5C 278.996,381.469 278.33,377.469 277.5,373.5C 281.123,369.375 284.957,365.375 289,361.5C 292.394,357.102 295.394,352.435 298,347.5C 301.167,353.333 305.667,357.833 311.5,361C 324.29,365.456 337.29,368.289 350.5,369.5 Z"/></g>
<g><path style="opacity:0.96" fill="#d5c7ac" d="M 341.5,344.5 C 343.857,344.337 346.19,344.503 348.5,345C 350.362,348.264 351.695,351.764 352.5,355.5C 345.063,358.568 339.73,356.568 336.5,349.5C 336.667,348.833 336.833,348.167 337,347.5C 338.652,346.601 340.152,345.601 341.5,344.5 Z"/></g>
<g><path style="opacity:0.988" fill="#d7c9af" d="M 317.5,322.5 C 325.098,328.394 333.764,331.394 343.5,331.5C 344.952,332.302 346.618,332.802 348.5,333C 340.746,337.294 332.913,341.461 325,345.5C 324.333,346.5 324.333,347.5 325,348.5C 327.5,352.333 330.667,355.5 334.5,358C 331.381,359.405 328.048,359.905 324.5,359.5C 312.301,356.924 303.301,350.258 297.5,339.5C 295.863,335.624 294.529,331.624 293.5,327.5C 295.146,325.188 297.146,323.188 299.5,321.5C 302.456,324.958 305.623,328.292 309,331.5C 311.849,328.426 314.683,325.426 317.5,322.5 Z"/></g>
<g><path style="opacity:0.499" fill="#3f291e" d="M 297.5,339.5 C 303.301,350.258 312.301,356.924 324.5,359.5C 340.498,363.479 356.831,364.479 373.5,362.5C 374.5,362.5 375.5,362.5 376.5,362.5C 376.5,363.5 376.5,364.5 376.5,365.5C 369.825,365.334 363.158,365.5 356.5,366C 354.519,367.268 352.519,368.434 350.5,369.5C 337.29,368.289 324.29,365.456 311.5,361C 305.667,357.833 301.167,353.333 298,347.5C 295.394,352.435 292.394,357.102 289,361.5C 284.957,365.375 281.123,369.375 277.5,373.5C 278.33,377.469 278.996,381.469 279.5,385.5C 278.5,385.5 277.5,385.5 276.5,385.5C 276.739,375.79 272.406,372.79 263.5,376.5C 262.537,376.03 262.537,375.363 263.5,374.5C 278.218,366.115 289.551,354.449 297.5,339.5 Z"/></g>
<g><path style="opacity:0.817" fill="#beaf96" d="M 424.5,327.5 C 424.082,328.222 423.416,328.722 422.5,329C 423.022,329.561 423.355,330.228 423.5,331C 421.843,334.806 420.51,338.64 419.5,342.5C 415.132,345.684 410.465,348.351 405.5,350.5C 404.79,348.254 404.29,345.92 404,343.5C 403.586,343.957 403.086,344.291 402.5,344.5C 400.256,341.543 397.256,339.876 393.5,339.5C 394.476,338.185 395.476,336.852 396.5,335.5C 394.252,333.775 394.752,332.442 398,331.5C 398.75,332.126 399.584,332.626 400.5,333C 396.105,336.276 396.605,338.442 402,339.5C 402.758,337.09 404.425,336.09 407,336.5C 410.117,338.728 412.95,338.561 415.5,336C 414.981,333.974 414.647,331.974 414.5,330C 416.379,328.556 418.045,329.056 419.5,331.5C 419.833,331.167 420.167,330.833 420.5,330.5C 419.58,328.214 419.58,325.881 420.5,323.5C 424.584,322.945 425.251,323.945 422.5,326.5C 422.957,327.298 423.624,327.631 424.5,327.5 Z"/></g>
<g><path style="opacity:0.918" fill="#ccbea4" d="M 425.5,324.5 C 424.89,325.391 424.557,326.391 424.5,327.5C 423.624,327.631 422.957,327.298 422.5,326.5C 425.251,323.945 424.584,322.945 420.5,323.5C 419.58,325.881 419.58,328.214 420.5,330.5C 420.167,330.833 419.833,331.167 419.5,331.5C 418.045,329.056 416.379,328.556 414.5,330C 414.647,331.974 414.981,333.974 415.5,336C 412.95,338.561 410.117,338.728 407,336.5C 404.425,336.09 402.758,337.09 402,339.5C 396.605,338.442 396.105,336.276 400.5,333C 399.584,332.626 398.75,332.126 398,331.5C 394.752,332.442 394.252,333.775 396.5,335.5C 395.476,336.852 394.476,338.185 393.5,339.5C 393.657,340.873 393.49,342.207 393,343.5C 389.113,350.439 387.78,350.106 389,342.5C 387.691,344.891 386.691,344.891 386,342.5C 385,344.167 383.667,345.5 382,346.5C 380.542,341.998 379.042,341.665 377.5,345.5C 376.28,345.113 375.613,344.28 375.5,343C 376.01,341.174 376.844,341.007 378,342.5C 381.893,341.822 385.726,340.822 389.5,339.5C 389.291,338.914 388.957,338.414 388.5,338C 391.345,335.214 391.011,333.88 387.5,334C 387.833,334.333 388.167,334.667 388.5,335C 386.117,335.065 385.45,335.898 386.5,337.5C 385.45,339.873 383.617,340.873 381,340.5C 378.108,340.923 377.275,340.09 378.5,338C 378.108,336.989 377.441,336.489 376.5,336.5C 377.651,335.269 378.817,335.269 380,336.5C 382.303,335.256 382.803,333.589 381.5,331.5C 381.808,330.692 382.308,330.025 383,329.5C 383.7,331.032 384.866,332.032 386.5,332.5C 388.795,331.568 391.129,330.735 393.5,330C 392.529,328.796 391.529,328.296 390.5,328.5C 390.919,327.328 391.585,326.328 392.5,325.5C 393.524,326.853 394.857,327.52 396.5,327.5C 396.351,326.448 396.517,325.448 397,324.5C 398.754,326.25 400.921,326.917 403.5,326.5C 402.972,327.847 402.805,329.181 403,330.5C 409.869,327.315 416.369,323.481 422.5,319C 423.793,318.51 425.127,318.343 426.5,318.5C 426.167,320.5 425.833,322.5 425.5,324.5 Z"/></g>
<g><path style="opacity:0.966" fill="#d7caaf" d="M 93.5,276.5 C 93.5,277.167 93.8333,277.5 94.5,277.5C 95.8137,288.089 98.9804,298.089 104,307.5C 107.717,315.384 113.551,321.051 121.5,324.5C 127.179,334.02 134.512,342.186 143.5,349C 141.089,350.583 138.422,351.583 135.5,352C 128.595,353.681 121.595,354.515 114.5,354.5C 114.297,356.39 114.963,357.89 116.5,359C 116.272,359.399 115.938,359.565 115.5,359.5C 102.482,355.918 90.4816,350.251 79.5,342.5C 76.5746,335.054 74.2412,327.387 72.5,319.5C 73,319.167 73.5,318.833 74,318.5C 80.9214,324.062 88.4214,327.729 96.5,329.5C 88.3088,312.119 87.3088,294.452 93.5,276.5 Z"/></g>
<g><path style="opacity:0.978" fill="#ae9972" d="M 121.5,324.5 C 130.376,329.802 140.042,332.135 150.5,331.5C 150.369,332.376 150.702,333.043 151.5,333.5C 159.329,337.58 166.996,341.913 174.5,346.5C 172.17,350.324 169.337,353.658 166,356.5C 165.517,357.448 165.351,358.448 165.5,359.5C 167.5,359.5 169.5,359.5 171.5,359.5C 169.981,360.41 168.315,361.243 166.5,362C 159.04,363.015 151.54,363.515 144,363.5C 134.074,364.221 124.574,362.888 115.5,359.5C 115.938,359.565 116.272,359.399 116.5,359C 114.963,357.89 114.297,356.39 114.5,354.5C 121.595,354.515 128.595,353.681 135.5,352C 138.422,351.583 141.089,350.583 143.5,349C 134.512,342.186 127.179,334.02 121.5,324.5 Z"/></g>
<g><path style="opacity:0.979" fill="#d9ccb0" d="M 150.5,349.5 C 161.047,350.629 162.047,354.129 153.5,360C 150.833,360.667 148.167,360.667 145.5,360C 144.196,359.196 143.529,358.029 143.5,356.5C 145.63,353.941 147.963,351.607 150.5,349.5 Z"/></g>
<g><path style="opacity:0.981" fill="#827e79" d="M 206.5,327.5 C 210.134,329.965 213.634,332.632 217,335.5C 219.784,333.72 222.284,331.553 224.5,329C 225.833,328.333 227.167,328.333 228.5,329C 235.01,335.088 242.343,339.921 250.5,343.5C 258.228,337.774 266.228,332.441 274.5,327.5C 277.833,330.167 280.833,333.167 283.5,336.5C 286.853,333.478 290.187,330.478 293.5,327.5C 294.529,331.624 295.863,335.624 297.5,339.5C 289.551,354.449 278.218,366.115 263.5,374.5C 259.463,376.679 255.13,378.012 250.5,378.5C 248.833,378.333 247.167,378.167 245.5,378C 226.221,371.227 212.221,358.727 203.5,340.5C 205.881,336.519 206.881,332.186 206.5,327.5 Z"/></g>
<g><path style="opacity:0.859" fill="#58544e" d="M 218.5,349.5 C 224.137,353.657 229.804,357.824 235.5,362C 239.919,365.085 244.753,367.252 250,368.5C 252.5,368 255,367.5 257.5,367C 264.68,361.909 271.68,356.576 278.5,351C 279.833,350.333 281.167,350.333 282.5,351C 273.583,360.033 263.416,367.2 252,372.5C 239.276,368.796 228.276,362.129 219,352.5C 218.517,351.552 218.351,350.552 218.5,349.5 Z"/></g>
<g><path style="opacity:0.914" fill="#58554e" d="M 218.5,340.5 C 218.897,339.475 219.563,339.308 220.5,340C 226.191,343.513 231.524,347.513 236.5,352C 240.746,354.542 245.246,356.376 250,357.5C 252.253,357.369 254.419,356.869 256.5,356C 264.443,351.056 272.109,345.723 279.5,340C 280.635,339.251 281.635,339.417 282.5,340.5C 277.645,344.432 272.978,348.599 268.5,353C 263.586,356.921 258.419,360.421 253,363.5C 239.408,358.955 227.908,351.289 218.5,340.5 Z"/></g>
<g><path style="opacity:0.946" fill="#57544e" d="M 272.5,331.5 C 274.355,331.272 275.188,331.939 275,333.5C 270.867,336.631 267.034,340.131 263.5,344C 259.472,347.365 254.972,349.865 250,351.5C 246.823,351.109 243.99,349.943 241.5,348C 235.421,343.631 229.755,338.797 224.5,333.5C 225.365,332.417 226.365,332.251 227.5,333C 234.358,338.593 241.692,343.426 249.5,347.5C 258.381,343.894 266.048,338.561 272.5,331.5 Z"/></g>
<g><path style="opacity:0.989" fill="#d9cbb0" d="M 183.5,321.5 C 186.913,323.112 189.579,325.612 191.5,329C 192.833,329.667 194.167,329.667 195.5,329C 197.403,326.595 199.736,324.761 202.5,323.5C 204.188,324.521 205.521,325.855 206.5,327.5C 206.881,332.186 205.881,336.519 203.5,340.5C 194.979,350.428 184.313,356.761 171.5,359.5C 169.5,359.5 167.5,359.5 165.5,359.5C 165.351,358.448 165.517,357.448 166,356.5C 169.337,353.658 172.17,350.324 174.5,346.5C 166.996,341.913 159.329,337.58 151.5,333.5C 150.702,333.043 150.369,332.376 150.5,331.5C 162.004,332.309 172.671,329.809 182.5,324C 183.252,323.329 183.586,322.496 183.5,321.5 Z"/></g>
<g><path style="opacity:0.835" fill="#c7b99f" d="M 405.5,276.5 C 411.037,292.983 410.704,309.316 404.5,325.5C 399.872,323.454 395.372,321.121 391,318.5C 389.054,318.763 388.388,319.763 389,321.5C 390.77,320.724 392.603,320.89 394.5,322C 394,322.5 393.5,323 393,323.5C 391.333,323.167 389.667,322.833 388,322.5C 387.508,323.549 387.674,324.549 388.5,325.5C 388.167,326.5 387.5,327.167 386.5,327.5C 385.268,326.855 383.935,326.689 382.5,327C 384.329,325.887 385.163,324.387 385,322.5C 383.211,324.229 381.044,324.896 378.5,324.5C 380.769,323.024 383.102,321.524 385.5,320C 394.529,310.11 400.529,298.61 403.5,285.5C 404.475,282.689 405.142,279.689 405.5,276.5 Z"/></g>
<g><path style="opacity:0.975" fill="#ac9871" d="M 92.5,271.5 C 92.6287,273.216 92.962,274.883 93.5,276.5C 87.3088,294.452 88.3088,312.119 96.5,329.5C 88.4214,327.729 80.9214,324.062 74,318.5C 73.5,318.833 73,319.167 72.5,319.5C 74.2412,327.387 76.5746,335.054 79.5,342.5C 74.5937,339.102 70.0937,335.102 66,330.5C 61.9696,324.98 57.803,319.647 53.5,314.5C 49.6395,306.914 45.9728,299.248 42.5,291.5C 43.2389,291.631 43.9056,291.464 44.5,291C 43.5939,289.301 43.2606,287.467 43.5,285.5C 46.0252,284.952 48.3585,283.952 50.5,282.5C 53.6502,282.766 56.3168,283.766 58.5,285.5C 55.0649,286.489 53.7315,288.822 54.5,292.5C 53.8848,296.95 55.5515,299.95 59.5,301.5C 62.8892,301.047 66.2225,300.38 69.5,299.5C 69.8333,298.667 70.1667,297.833 70.5,297C 69.5169,293.888 68.8503,290.722 68.5,287.5C 69.5113,285.801 70.8446,284.301 72.5,283C 72.0946,282.055 71.428,281.388 70.5,281C 72.3921,280.027 74.3921,279.36 76.5,279C 75.062,278.781 73.7287,278.281 72.5,277.5C 76.4948,275.909 77.1615,273.576 74.5,270.5C 75.723,269.386 77.0563,269.219 78.5,270C 77.6598,271.666 78.1598,271.833 80,270.5C 80.3333,271.167 80.6667,271.833 81,272.5C 82.9364,269.187 85.7697,268.021 89.5,269C 88.5,269.833 87.5,270.667 86.5,271.5C 86.7093,272.086 87.0426,272.586 87.5,273C 89.3302,273.182 90.9969,272.682 92.5,271.5 Z"/></g>
<g><path style="opacity:0.741" fill="#bdae94" d="M 428.5,311.5 C 427.218,308.269 427.218,304.936 428.5,301.5C 437.227,299.577 439.894,302.91 436.5,311.5C 433.833,311.5 431.167,311.5 428.5,311.5 Z"/></g>
<g><path style="opacity:0.947" fill="#cfc1a5" d="M 75.5,301.5 C 78.7067,302.026 81.2067,303.692 83,306.5C 83.7112,308.367 83.2112,309.867 81.5,311C 72.9643,311.659 70.9643,308.492 75.5,301.5 Z"/></g>
<g><path style="opacity:0.912" fill="#a7926d" d="M 424.5,278.5 C 425.473,278.987 426.473,279.487 427.5,280C 425.754,280.471 424.087,281.138 422.5,282C 424.689,282.677 425.022,283.844 423.5,285.5C 425.778,286.311 426.945,288.311 427,291.5C 424.958,291.818 422.791,291.985 420.5,292C 422.946,293.483 422.612,294.649 419.5,295.5C 416.929,292.767 414.596,292.934 412.5,296C 413.549,296.492 414.549,296.326 415.5,295.5C 417.208,297.691 419.208,298.024 421.5,296.5C 422.604,297.631 422.271,298.465 420.5,299C 421.783,302.048 423.449,302.215 425.5,299.5C 426.518,300.193 427.518,300.859 428.5,301.5C 427.218,304.936 427.218,308.269 428.5,311.5C 428.721,312.735 429.388,313.735 430.5,314.5C 429.494,315.396 429.494,316.062 430.5,316.5C 431.386,315.675 431.719,314.675 431.5,313.5C 436.536,315.162 436.536,316.495 431.5,317.5C 431.5,318.5 431.5,319.5 431.5,320.5C 430.448,320.351 429.448,320.517 428.5,321C 428.833,321.333 429.167,321.667 429.5,322C 427.867,322.48 426.534,323.313 425.5,324.5C 425.833,322.5 426.167,320.5 426.5,318.5C 425.127,318.343 423.793,318.51 422.5,319C 416.369,323.481 409.869,327.315 403,330.5C 402.805,329.181 402.972,327.847 403.5,326.5C 404.167,326.5 404.5,326.167 404.5,325.5C 410.704,309.316 411.037,292.983 405.5,276.5C 405.557,275.391 405.89,274.391 406.5,273.5C 407.117,273.389 407.617,273.056 408,272.5C 409.626,276.547 411.959,277.214 415,274.5C 416.319,275.319 417.485,276.319 418.5,277.5C 417.355,278.891 417.355,280.224 418.5,281.5C 420.071,279.585 422.071,278.585 424.5,278.5 Z"/></g>
<g><path style="opacity:0.923" fill="#6e5438" d="M 245.5,292.5 C 248.167,292.5 250.833,292.5 253.5,292.5C 253.827,303.283 255.494,313.783 258.5,324C 253.177,324.499 247.844,324.666 242.5,324.5C 242.78,313.755 243.78,303.088 245.5,292.5 Z"/></g>
<g><path style="opacity:0.986" fill="#705539" d="M 189.5,278.5 C 192.226,278.264 194.559,279.097 196.5,281C 197.894,281.956 198.561,283.289 198.5,285C 197.195,293.362 195.195,301.529 192.5,309.5C 190.44,307.804 188.107,306.637 185.5,306C 184.484,304.323 183.484,302.657 182.5,301C 184.777,293.412 187.11,285.912 189.5,278.5 Z"/></g>
<g><path style="opacity:0.889" fill="#a18d68" d="M 450.5,248.5 C 452.467,254.704 453.967,261.037 455,267.5C 455.448,269.224 456.282,269.891 457.5,269.5C 456.337,271.285 455.67,273.285 455.5,275.5C 455.65,281.566 455.65,287.566 455.5,293.5C 448.125,313.211 436.125,329.545 419.5,342.5C 420.51,338.64 421.843,334.806 423.5,331C 423.355,330.228 423.022,329.561 422.5,329C 423.416,328.722 424.082,328.222 424.5,327.5C 424.557,326.391 424.89,325.391 425.5,324.5C 426.534,323.313 427.867,322.48 429.5,322C 429.167,321.667 428.833,321.333 428.5,321C 429.448,320.517 430.448,320.351 431.5,320.5C 431.5,319.5 431.5,318.5 431.5,317.5C 436.536,316.495 436.536,315.162 431.5,313.5C 431.719,314.675 431.386,315.675 430.5,316.5C 429.494,316.062 429.494,315.396 430.5,314.5C 429.388,313.735 428.721,312.735 428.5,311.5C 431.167,311.5 433.833,311.5 436.5,311.5C 439.894,302.91 437.227,299.577 428.5,301.5C 427.518,300.859 426.518,300.193 425.5,299.5C 423.449,302.215 421.783,302.048 420.5,299C 422.271,298.465 422.604,297.631 421.5,296.5C 419.208,298.024 417.208,297.691 415.5,295.5C 414.549,296.326 413.549,296.492 412.5,296C 414.596,292.934 416.929,292.767 419.5,295.5C 422.612,294.649 422.946,293.483 420.5,292C 422.791,291.985 424.958,291.818 427,291.5C 426.945,288.311 425.778,286.311 423.5,285.5C 425.022,283.844 424.689,282.677 422.5,282C 424.087,281.138 425.754,280.471 427.5,280C 426.473,279.487 425.473,278.987 424.5,278.5C 423.923,275.45 425.09,273.45 428,272.5C 428.483,271.552 428.649,270.552 428.5,269.5C 429.652,270.625 430.652,270.625 431.5,269.5C 432.239,269.369 432.906,269.536 433.5,270C 433.435,274.096 435.769,276.263 440.5,276.5C 440.5,276.833 440.5,277.167 440.5,277.5C 436.68,278.156 434.346,280.323 433.5,284C 433.899,287.53 434.899,290.863 436.5,294C 440.89,294.772 445.223,294.606 449.5,293.5C 450.484,290.572 450.817,287.572 450.5,284.5C 449.499,281.162 448.499,277.829 447.5,274.5C 448.376,274.631 449.043,274.298 449.5,273.5C 448.233,271.629 448.233,269.796 449.5,268C 447.888,267.28 446.388,267.446 445,268.5C 443.795,267.929 442.628,267.262 441.5,266.5C 442.167,264.833 442.833,263.167 443.5,261.5C 441.041,259.95 440.374,257.95 441.5,255.5C 441.043,254.702 440.376,254.369 439.5,254.5C 440.831,251.171 442.164,247.838 443.5,244.5C 444.212,243.261 445.212,242.761 446.5,243C 448.469,244.5 449.802,246.333 450.5,248.5 Z"/></g>
<g><path style="opacity:0.946" fill="#ccbda3" d="M 58.5,285.5 C 59.8333,285.5 61.1667,285.5 62.5,285.5C 64.5,286.167 66.5,286.833 68.5,287.5C 68.8503,290.722 69.5169,293.888 70.5,297C 70.1667,297.833 69.8333,298.667 69.5,299.5C 66.2225,300.38 62.8892,301.047 59.5,301.5C 55.5515,299.95 53.8848,296.95 54.5,292.5C 53.7315,288.822 55.0649,286.489 58.5,285.5 Z"/></g>
<g><path style="opacity:0.906" fill="#cabca2" d="M 450.5,284.5 C 450.817,287.572 450.484,290.572 449.5,293.5C 445.223,294.606 440.89,294.772 436.5,294C 434.899,290.863 433.899,287.53 433.5,284C 434.346,280.323 436.68,278.156 440.5,277.5C 441.496,277.414 442.329,277.748 443,278.5C 443.667,277.833 444.333,277.167 445,276.5C 444.852,277.825 445.018,278.992 445.5,280C 444.552,280.483 443.552,280.649 442.5,280.5C 442.079,282.91 440.746,284.743 438.5,286C 442.135,285.945 445.635,285.111 449,283.5C 449.383,284.056 449.883,284.389 450.5,284.5 Z"/></g>
<g><path style="opacity:0.993" fill="#715639" d="M 310.5,283.5 C 311.75,283.577 312.583,284.244 313,285.5C 315.299,292.731 317.799,299.898 320.5,307C 317.708,310.396 314.041,312.23 309.5,312.5C 308.391,304.23 306.725,296.064 304.5,288C 304.585,286.893 304.919,285.893 305.5,285C 307.382,284.802 309.048,284.302 310.5,283.5 Z"/></g>
<g><path style="opacity:0.905" fill="#6f5539" d="M 269.5,268.5 C 272.119,268.232 274.619,268.565 277,269.5C 279.794,277.385 282.294,285.385 284.5,293.5C 280.239,294.051 276.072,294.051 272,293.5C 271.027,291.608 270.36,289.608 270,287.5C 269.81,281.584 269.31,275.751 268.5,270C 269.056,269.617 269.389,269.117 269.5,268.5 Z"/></g>
<g><path style="opacity:0.811" fill="#9a8562" d="M 45.5,263.5 C 47.5492,263.706 47.8825,264.539 46.5,266C 49.6895,266.495 52.5228,265.661 55,263.5C 58.0937,264.566 61.2604,265.232 64.5,265.5C 64.5,267.833 64.5,270.167 64.5,272.5C 62.3222,273.204 60.3222,273.537 58.5,273.5C 61.062,274.799 63.3953,275.466 65.5,275.5C 65.4134,277.963 65.4134,280.463 65.5,283C 64.4293,283.852 63.4293,284.685 62.5,285.5C 61.1667,285.5 59.8333,285.5 58.5,285.5C 56.3168,283.766 53.6502,282.766 50.5,282.5C 48.3585,283.952 46.0252,284.952 43.5,285.5C 43.7564,283.208 43.4231,281.041 42.5,279C 43.0526,273.655 44.0526,268.488 45.5,263.5 Z"/></g>
<g><path style="opacity:0.742" fill="#b4a58c" d="M 447.5,274.5 C 448.499,277.829 449.499,281.162 450.5,284.5C 449.883,284.389 449.383,284.056 449,283.5C 445.635,285.111 442.135,285.945 438.5,286C 440.746,284.743 442.079,282.91 442.5,280.5C 443.552,280.649 444.552,280.483 445.5,280C 445.018,278.992 444.852,277.825 445,276.5C 444.333,277.167 443.667,277.833 443,278.5C 442.329,277.748 441.496,277.414 440.5,277.5C 440.5,277.167 440.5,276.833 440.5,276.5C 442.746,275.545 445.079,274.878 447.5,274.5 Z"/></g>
<g><path style="opacity:0.876" fill="#c6b79c" d="M 463.5,245.5 C 463.263,256.872 462.43,268.206 461,279.5C 459.836,284.474 458.002,289.141 455.5,293.5C 455.65,287.566 455.65,281.566 455.5,275.5C 455.67,273.285 456.337,271.285 457.5,269.5C 456.282,269.891 455.448,269.224 455,267.5C 453.967,261.037 452.467,254.704 450.5,248.5C 450.791,247.351 451.624,246.684 453,246.5C 455.163,246.495 456.663,247.495 457.5,249.5C 458.728,246.929 460.728,245.595 463.5,245.5 Z"/></g>
<g><path style="opacity:0.955" fill="#6f5439" d="M 224.5,266.5 C 226.435,267.15 228.435,267.483 230.5,267.5C 230.397,275.883 229.731,284.216 228.5,292.5C 224.5,291.833 220.5,291.167 216.5,290.5C 219.132,282.551 221.798,274.551 224.5,266.5 Z"/></g>
<g><path style="opacity:0.69" fill="#95815e" d="M 422.5,242.5 C 422.5,242.833 422.5,243.167 422.5,243.5C 424.154,246.628 425.321,249.961 426,253.5C 426.671,254.252 427.504,254.586 428.5,254.5C 428.5,254.833 428.5,255.167 428.5,255.5C 427.976,260.07 427.976,264.737 428.5,269.5C 428.649,270.552 428.483,271.552 428,272.5C 425.09,273.45 423.923,275.45 424.5,278.5C 422.071,278.585 420.071,279.585 418.5,281.5C 417.355,280.224 417.355,278.891 418.5,277.5C 417.485,276.319 416.319,275.319 415,274.5C 411.959,277.214 409.626,276.547 408,272.5C 407.617,273.056 407.117,273.389 406.5,273.5C 406.833,270.167 407.167,266.833 407.5,263.5C 408.386,256.543 408.72,249.543 408.5,242.5C 411.291,244.079 414.291,245.412 417.5,246.5C 419.636,245.528 420.803,243.861 421,241.5C 421.383,242.056 421.883,242.389 422.5,242.5 Z"/></g>
<g><path style="opacity:0.949" fill="#a5916b" d="M 95.5,209.5 C 90.1491,229.958 89.1491,250.624 92.5,271.5C 90.9969,272.682 89.3302,273.182 87.5,273C 87.0426,272.586 86.7093,272.086 86.5,271.5C 87.5,270.667 88.5,269.833 89.5,269C 85.7697,268.021 82.9364,269.187 81,272.5C 80.6667,271.833 80.3333,271.167 80,270.5C 78.1598,271.833 77.6598,271.666 78.5,270C 77.0563,269.219 75.723,269.386 74.5,270.5C 77.1615,273.576 76.4948,275.909 72.5,277.5C 73.7287,278.281 75.062,278.781 76.5,279C 74.3921,279.36 72.3921,280.027 70.5,281C 71.428,281.388 72.0946,282.055 72.5,283C 70.8446,284.301 69.5113,285.801 68.5,287.5C 66.5,286.833 64.5,286.167 62.5,285.5C 63.4293,284.685 64.4293,283.852 65.5,283C 65.4134,280.463 65.4134,277.963 65.5,275.5C 63.3953,275.466 61.062,274.799 58.5,273.5C 60.3222,273.537 62.3222,273.204 64.5,272.5C 64.5,270.167 64.5,267.833 64.5,265.5C 61.2604,265.232 58.0937,264.566 55,263.5C 52.5228,265.661 49.6895,266.495 46.5,266C 47.8825,264.539 47.5492,263.706 45.5,263.5C 45.2531,258.497 46.2531,253.83 48.5,249.5C 49.4432,246.6 51.1099,244.267 53.5,242.5C 56.6864,248.052 59.6864,253.718 62.5,259.5C 64.4535,262.141 65.9535,265.141 67,268.5C 68.0113,269.337 69.1779,269.67 70.5,269.5C 70.7154,263.943 71.3821,258.443 72.5,253C 76.4851,241.793 81.3184,230.626 87,219.5C 89.698,215.975 92.5314,212.642 95.5,209.5 Z"/></g>
<g><path style="opacity:0.657" fill="#ac9c83" d="M 428.5,255.5 C 430.312,255.771 431.978,256.438 433.5,257.5C 432.624,258.251 431.624,258.751 430.5,259C 431,259.5 431.5,260 432,260.5C 433.356,259.62 434.856,259.286 436.5,259.5C 433.944,262.389 432.277,265.722 431.5,269.5C 430.652,270.625 429.652,270.625 428.5,269.5C 427.976,264.737 427.976,260.07 428.5,255.5 Z"/></g>
<g><path style="opacity:0.69" fill="#b5a58c" d="M 36.5,233.5 C 36.9445,237.989 37.1111,242.323 37,246.5C 37.8333,245 39,243.833 40.5,243C 37.9485,241.484 38.2819,240.651 41.5,240.5C 41.3398,238.801 41.5065,237.134 42,235.5C 44.4836,236.886 46.817,238.553 49,240.5C 49.6877,241.332 49.521,241.998 48.5,242.5C 45.6686,240.871 43.3353,241.371 41.5,244C 44.2441,243.009 46.9107,243.343 49.5,245C 44.5479,245.572 44.2146,247.072 48.5,249.5C 46.2531,253.83 45.2531,258.497 45.5,263.5C 44.0526,268.488 43.0526,273.655 42.5,279C 43.4231,281.041 43.7564,283.208 43.5,285.5C 43.2606,287.467 43.5939,289.301 44.5,291C 43.9056,291.464 43.2389,291.631 42.5,291.5C 40.3993,287.793 38.8993,283.793 38,279.5C 37.4918,272.078 36.6585,264.744 35.5,257.5C 36.4584,257.047 37.2917,256.381 38,255.5C 38.3333,256.833 38.6667,258.167 39,259.5C 44.9485,257.324 45.6152,254.324 41,250.5C 40.0497,251.022 39.2164,251.689 38.5,252.5C 37.8589,251.007 36.8589,250.007 35.5,249.5C 35.1786,243.974 35.5119,238.64 36.5,233.5 Z"/></g>
<g><path style="opacity:0.766" fill="#907b5a" d="M 439.5,254.5 C 440.376,254.369 441.043,254.702 441.5,255.5C 440.374,257.95 441.041,259.95 443.5,261.5C 442.833,263.167 442.167,264.833 441.5,266.5C 442.628,267.262 443.795,267.929 445,268.5C 446.388,267.446 447.888,267.28 449.5,268C 448.233,269.796 448.233,271.629 449.5,273.5C 449.043,274.298 448.376,274.631 447.5,274.5C 445.079,274.878 442.746,275.545 440.5,276.5C 435.769,276.263 433.435,274.096 433.5,270C 432.906,269.536 432.239,269.369 431.5,269.5C 432.277,265.722 433.944,262.389 436.5,259.5C 437.752,257.999 438.752,256.332 439.5,254.5 Z"/></g>
<g><path style="opacity:0.964" fill="#3b2a22" d="M 183.5,321.5 C 182.5,321.5 181.5,321.5 180.5,321.5C 180.649,320.448 180.483,319.448 180,318.5C 178.005,320.747 175.505,321.747 172.5,321.5C 172.5,322.833 172.5,324.167 172.5,325.5C 170.508,325.672 168.842,325.005 167.5,323.5C 158.584,325.601 149.584,325.767 140.5,324C 134.695,322.869 129.862,320.036 126,315.5C 121.967,301.303 121.467,286.97 124.5,272.5C 125.575,273.562 126.575,273.562 127.5,272.5C 129.05,268.339 130.884,264.339 133,260.5C 133.997,256.58 132.497,254.247 128.5,253.5C 128.489,251.453 128.156,249.453 127.5,247.5C 129.511,239.124 131.677,230.79 134,222.5C 134.995,221.934 135.828,221.267 136.5,220.5C 143.558,208.778 153.224,199.778 165.5,193.5C 166.708,204.591 168.375,215.591 170.5,226.5C 179.565,220.632 188.565,214.465 197.5,208C 199.769,206.442 202.102,206.276 204.5,207.5C 195.176,219.481 186.343,231.814 178,244.5C 177.211,250.119 175.544,255.452 173,260.5C 172.333,274.833 172.333,289.167 173,303.5C 173.725,305.949 174.725,308.283 176,310.5C 179.178,313.82 181.678,317.487 183.5,321.5 Z"/></g>
<g><path style="opacity:0.986" fill="#564234" d="M 127.5,297.5 C 129.833,297.5 132.167,297.5 134.5,297.5C 133.873,302.141 133.54,306.807 133.5,311.5C 131.856,311.714 130.356,311.38 129,310.5C 128.631,306.137 128.131,301.804 127.5,297.5 Z"/></g>
<g><path style="opacity:0.954" fill="#574234" d="M 140.5,272.5 C 141.649,272.791 142.316,273.624 142.5,275C 141.723,280.161 141.056,285.327 140.5,290.5C 135.07,290.41 133.07,287.576 134.5,282C 134.667,279.833 134.833,277.667 135,275.5C 136.876,274.391 138.709,273.391 140.5,272.5 Z"/></g>
<g><path style="opacity:0.963" fill="#3b2a22" d="M 360.5,214.5 C 360.5,215.5 360.5,216.5 360.5,217.5C 361.5,217.5 362.5,217.5 363.5,217.5C 365.551,226.567 368.051,235.567 371,244.5C 371.719,248.145 372.219,251.812 372.5,255.5C 369.57,255.795 367.57,257.295 366.5,260C 368.35,264.714 369.684,269.547 370.5,274.5C 371.959,274.433 373.292,274.766 374.5,275.5C 375.222,275.082 375.722,274.416 376,273.5C 376.167,274.167 376.333,274.833 376.5,275.5C 375.454,285.32 375.287,295.32 376,305.5C 375.623,312.321 372.789,317.821 367.5,322C 351.41,327.693 336.077,326.193 321.5,317.5C 323.64,313.22 325.807,308.886 328,304.5C 328.432,291.677 328.598,279.01 328.5,266.5C 326.582,257.995 324.082,249.662 321,241.5C 312.743,229.988 304.243,218.654 295.5,207.5C 297.421,206.359 299.421,206.192 301.5,207C 310.01,212.755 318.343,218.755 326.5,225C 327.5,225.667 328.5,225.667 329.5,225C 331.101,221.733 331.934,218.233 332,214.5C 332.5,207.508 332.666,200.508 332.5,193.5C 339.731,197.122 346.731,201.289 353.5,206C 356.423,208.416 358.757,211.25 360.5,214.5 Z"/></g>
<g><path style="opacity:0.961" fill="#564234" d="M 367.5,297.5 C 370.187,297.336 372.854,297.503 375.5,298C 374.005,301.817 372.505,305.65 371,309.5C 369.644,310.38 368.144,310.714 366.5,310.5C 366.294,306.102 366.627,301.768 367.5,297.5 Z"/></g>
<g><path style="opacity:0.967" fill="#564133" d="M 358.5,276.5 C 363.145,275.416 366.145,277.083 367.5,281.5C 366.925,284.865 366.258,288.198 365.5,291.5C 363.955,292.452 362.288,292.785 360.5,292.5C 360.113,287.126 359.446,281.793 358.5,276.5 Z"/></g>
<g><path style="opacity:0.907" fill="#554132" d="M 372.5,255.5 C 373.465,262.117 374.132,268.784 374.5,275.5C 373.292,274.766 371.959,274.433 370.5,274.5C 369.684,269.547 368.35,264.714 366.5,260C 367.57,257.295 369.57,255.795 372.5,255.5 Z"/></g>
<g><path style="opacity:0.899" fill="#564133" d="M 128.5,253.5 C 132.497,254.247 133.997,256.58 133,260.5C 130.884,264.339 129.05,268.339 127.5,272.5C 126.575,273.562 125.575,273.562 124.5,272.5C 125.002,267.154 125.668,261.821 126.5,256.5C 126.64,254.97 127.307,253.97 128.5,253.5 Z"/></g>
<g><path style="opacity:0.875" fill="#c9baa1" d="M 35.5,249.5 C 36.8589,250.007 37.8589,251.007 38.5,252.5C 39.2164,251.689 40.0497,251.022 41,250.5C 45.6152,254.324 44.9485,257.324 39,259.5C 38.6667,258.167 38.3333,256.833 38,255.5C 37.2917,256.381 36.4584,257.047 35.5,257.5C 35.5,254.833 35.5,252.167 35.5,249.5 Z"/></g>
<g><path style="opacity:0.667" fill="#b2a289" d="M 53.5,242.5 C 53.5,241.833 53.8333,241.5 54.5,241.5C 57.7936,243.997 61.7936,246.163 66.5,248C 67.727,249.587 67.3937,250.921 65.5,252C 67.2785,251.021 68.9452,251.354 70.5,253C 69.3508,254.744 68.0175,254.911 66.5,253.5C 64.7224,255.264 63.3891,257.264 62.5,259.5C 59.6864,253.718 56.6864,248.052 53.5,242.5 Z"/></g>
<g><path style="opacity:0.592" fill="#ad9d84" d="M 428.5,254.5 C 427.504,254.586 426.671,254.252 426,253.5C 425.321,249.961 424.154,246.628 422.5,243.5C 425.044,243.896 427.211,243.229 429,241.5C 429.333,242.167 429.667,242.833 430,243.5C 430.689,242.643 431.522,241.977 432.5,241.5C 434.702,242.78 436.868,242.78 439,241.5C 440.238,244.926 439.071,246.592 435.5,246.5C 435.421,247.93 435.754,249.264 436.5,250.5C 433.956,251.937 433.956,253.437 436.5,255C 434.323,255.345 432.323,254.845 430.5,253.5C 429.584,253.543 428.917,253.876 428.5,254.5 Z"/></g>
<g><path style="opacity:0.74" fill="#b7a78e" d="M 462.5,233.5 C 463.483,237.298 463.817,241.298 463.5,245.5C 460.728,245.595 458.728,246.929 457.5,249.5C 456.663,247.495 455.163,246.495 453,246.5C 451.624,246.684 450.791,247.351 450.5,248.5C 449.802,246.333 448.469,244.5 446.5,243C 445.212,242.761 444.212,243.261 443.5,244.5C 443.279,243.265 442.612,242.265 441.5,241.5C 441.863,240.817 442.196,240.15 442.5,239.5C 443.756,239.904 444.923,240.571 446,241.5C 447.744,239.371 449.911,238.538 452.5,239C 451.672,239.915 450.672,240.581 449.5,241C 452.365,241.837 455.198,242.67 458,243.5C 458.928,241.665 460.094,241.332 461.5,242.5C 462.484,239.572 462.817,236.572 462.5,233.5 Z"/></g>
<g><path style="opacity:0.826" fill="#a6916c" d="M 403.5,210.5 C 407.549,213.384 410.716,217.051 413,221.5C 416.269,228.482 419.436,235.482 422.5,242.5C 421.883,242.389 421.383,242.056 421,241.5C 420.803,243.861 419.636,245.528 417.5,246.5C 414.291,245.412 411.291,244.079 408.5,242.5C 408.303,231.59 406.637,220.923 403.5,210.5 Z"/></g>
<g><path style="opacity:0.911" fill="#d2c4aa" d="M 459.5,209.5 C 460.979,217.429 461.979,225.429 462.5,233.5C 462.817,236.572 462.484,239.572 461.5,242.5C 460.094,241.332 458.928,241.665 458,243.5C 455.198,242.67 452.365,241.837 449.5,241C 450.672,240.581 451.672,239.915 452.5,239C 449.911,238.538 447.744,239.371 446,241.5C 444.923,240.571 443.756,239.904 442.5,239.5C 439.706,238.415 439.039,236.582 440.5,234C 439.258,233.689 438.258,234.189 437.5,235.5C 435.694,234.141 434.194,234.475 433,236.5C 427.917,233.969 423.417,230.636 419.5,226.5C 420.729,225.719 422.062,225.219 423.5,225C 422.978,224.439 422.645,223.772 422.5,223C 424.405,223.13 426.072,222.13 427.5,220C 426.167,219 426.167,218 427.5,217C 428.744,216.544 429.577,217.044 430,218.5C 431.703,216.653 431.536,214.819 429.5,213C 428.216,212.316 427.049,212.483 426,213.5C 424.796,212.141 423.296,211.141 421.5,210.5C 422.718,209.197 422.385,208.197 420.5,207.5C 422.167,206.167 423.833,204.833 425.5,203.5C 426.842,204.902 427.676,204.569 428,202.5C 429.976,203.543 430.476,204.877 429.5,206.5C 427.577,207.308 425.577,207.808 423.5,208C 425.061,208.318 426.228,209.151 427,210.5C 428.87,208.781 431.037,207.781 433.5,207.5C 433.34,205.801 433.506,204.134 434,202.5C 435.657,203.171 437.657,203.171 440,202.5C 440.251,200.567 440.751,198.734 441.5,197C 438.876,194.641 438.209,194.975 439.5,198C 436.8,198.767 434.3,199.933 432,201.5C 428.966,198.486 427.799,194.819 428.5,190.5C 429.023,186.109 429.69,181.776 430.5,177.5C 430.517,175.972 431.184,175.472 432.5,176C 444.714,184.7 453.714,195.866 459.5,209.5 Z"/></g>
<g><path style="opacity:0.823" fill="#c1b299" d="M 39.5,213.5 C 41.1652,215.797 43.4985,217.13 46.5,217.5C 46.1667,218.5 45.5,219.167 44.5,219.5C 42.5841,218.752 40.5841,218.752 38.5,219.5C 38.7657,223.079 40.099,223.413 42.5,220.5C 44.5879,221.179 46.5879,221.512 48.5,221.5C 46.0284,222.896 43.3617,223.73 40.5,224C 37.7387,227.316 38.4054,228.482 42.5,227.5C 41.9747,226.808 41.3081,226.308 40.5,226C 43.36,225.81 46.0267,225.81 48.5,226C 47.3146,228.057 46.3146,230.057 45.5,232C 48.379,234.333 50.379,233.833 51.5,230.5C 49.6409,226.934 50.6409,224.6 54.5,223.5C 55.1924,224.025 55.6924,224.692 56,225.5C 60.0953,223.355 64.2619,223.188 68.5,225C 67.9535,225.925 67.2868,226.758 66.5,227.5C 64.9579,226.253 63.4579,226.253 62,227.5C 62.379,229.075 62.2123,230.575 61.5,232C 65.75,232.232 66.4167,233.732 63.5,236.5C 61.678,232.898 60.678,232.898 60.5,236.5C 59.5,236.5 58.5,236.5 57.5,236.5C 57.1367,234.089 58.1367,232.589 60.5,232C 57.9974,230.451 57.9974,228.784 60.5,227C 57.7547,226.782 55.088,227.282 52.5,228.5C 57.5184,230.289 57.5184,231.456 52.5,232C 54.3684,232.899 55.3684,234.399 55.5,236.5C 54.9537,238.135 54.6204,239.801 54.5,241.5C 53.8333,241.5 53.5,241.833 53.5,242.5C 51.1099,244.267 49.4432,246.6 48.5,249.5C 44.2146,247.072 44.5479,245.572 49.5,245C 46.9107,243.343 44.2441,243.009 41.5,244C 43.3353,241.371 45.6686,240.871 48.5,242.5C 49.521,241.998 49.6877,241.332 49,240.5C 46.817,238.553 44.4836,236.886 42,235.5C 41.5065,237.134 41.3398,238.801 41.5,240.5C 38.2819,240.651 37.9485,241.484 40.5,243C 39,243.833 37.8333,245 37,246.5C 37.1111,242.323 36.9445,237.989 36.5,233.5C 36.8923,226.607 37.8923,219.94 39.5,213.5 Z"/></g>
<g><path style="opacity:0.961" fill="#d2c4aa" d="M 120.5,151.5 C 115.075,160.682 109.909,170.015 105,179.5C 101.519,189.441 98.3522,199.441 95.5,209.5C 92.5314,212.642 89.698,215.975 87,219.5C 81.3184,230.626 76.4851,241.793 72.5,253C 71.3821,258.443 70.7154,263.943 70.5,269.5C 69.1779,269.67 68.0113,269.337 67,268.5C 65.9535,265.141 64.4535,262.141 62.5,259.5C 63.3891,257.264 64.7224,255.264 66.5,253.5C 68.0175,254.911 69.3508,254.744 70.5,253C 68.9452,251.354 67.2785,251.021 65.5,252C 67.3937,250.921 67.727,249.587 66.5,248C 61.7936,246.163 57.7936,243.997 54.5,241.5C 54.6204,239.801 54.9537,238.135 55.5,236.5C 55.3684,234.399 54.3684,232.899 52.5,232C 57.5184,231.456 57.5184,230.289 52.5,228.5C 55.088,227.282 57.7547,226.782 60.5,227C 57.9974,228.784 57.9974,230.451 60.5,232C 58.1367,232.589 57.1367,234.089 57.5,236.5C 58.5,236.5 59.5,236.5 60.5,236.5C 60.678,232.898 61.678,232.898 63.5,236.5C 66.4167,233.732 65.75,232.232 61.5,232C 62.2123,230.575 62.379,229.075 62,227.5C 63.4579,226.253 64.9579,226.253 66.5,227.5C 67.2868,226.758 67.9535,225.925 68.5,225C 64.2619,223.188 60.0953,223.355 56,225.5C 55.6924,224.692 55.1924,224.025 54.5,223.5C 50.6409,224.6 49.6409,226.934 51.5,230.5C 50.379,233.833 48.379,234.333 45.5,232C 46.3146,230.057 47.3146,228.057 48.5,226C 46.0267,225.81 43.36,225.81 40.5,226C 41.3081,226.308 41.9747,226.808 42.5,227.5C 38.4054,228.482 37.7387,227.316 40.5,224C 43.3617,223.73 46.0284,222.896 48.5,221.5C 46.5879,221.512 44.5879,221.179 42.5,220.5C 40.099,223.413 38.7657,223.079 38.5,219.5C 40.5841,218.752 42.5841,218.752 44.5,219.5C 45.5,219.167 46.1667,218.5 46.5,217.5C 43.4985,217.13 41.1652,215.797 39.5,213.5C 39.3195,206.045 40.9861,199.045 44.5,192.5C 45.2389,192.631 45.9056,192.464 46.5,192C 50.8081,185.684 56.3081,180.851 63,177.5C 66.1701,177.516 67.0034,178.849 65.5,181.5C 66.2598,184.821 66.9264,188.154 67.5,191.5C 66.8826,191.389 66.3826,191.056 66,190.5C 65.1667,192 64,193.167 62.5,194C 64.3126,193.954 65.9793,194.12 67.5,194.5C 64.7367,195.104 62.4034,196.438 60.5,198.5C 59.707,197.645 60.0403,196.811 61.5,196C 60.9747,195.308 60.3081,194.808 59.5,194.5C 58.684,196.287 57.684,197.954 56.5,199.5C 60.1248,200.643 60.2915,201.976 57,203.5C 55.7635,201.896 54.5968,200.229 53.5,198.5C 51.5188,199.105 51.1854,200.105 52.5,201.5C 52.032,203.134 51.032,204.3 49.5,205C 50.3081,205.308 50.9747,205.808 51.5,206.5C 50.9478,208.003 50.9478,209.669 51.5,211.5C 52.9778,211.238 54.3112,211.571 55.5,212.5C 55.1667,213.5 54.5,214.167 53.5,214.5C 51.1829,213.18 49.1829,211.514 47.5,209.5C 46.354,210.145 45.354,210.978 44.5,212C 47.29,212.561 49.6234,213.894 51.5,216C 53.0349,216.496 54.5349,216.33 56,215.5C 56.9503,216.022 57.7836,216.689 58.5,217.5C 58.5,215.833 58.5,214.167 58.5,212.5C 63.5752,211.154 64.2418,211.987 60.5,215C 64.3616,217.323 66.0282,216.156 65.5,211.5C 67.604,211.799 69.604,211.466 71.5,210.5C 70.8333,209.833 70.1667,209.167 69.5,208.5C 72.5,206.833 74.8333,204.5 76.5,201.5C 76.1543,200.304 75.6543,200.304 75,201.5C 74.5172,200.552 74.3505,199.552 74.5,198.5C 84.4687,177.532 99.802,161.865 120.5,151.5 Z"/></g>
<g><path style="opacity:0.835" fill="#c4b59c" d="M 67.5,191.5 C 68.3195,194.305 68.8195,197.305 69,200.5C 69.4186,201.672 70.0853,202.672 71,203.5C 72.6257,202.045 73.7924,200.378 74.5,198.5C 74.3505,199.552 74.5172,200.552 75,201.5C 75.6543,200.304 76.1543,200.304 76.5,201.5C 74.8333,204.5 72.5,206.833 69.5,208.5C 70.1667,209.167 70.8333,209.833 71.5,210.5C 69.604,211.466 67.604,211.799 65.5,211.5C 66.0282,216.156 64.3616,217.323 60.5,215C 64.2418,211.987 63.5752,211.154 58.5,212.5C 58.5,214.167 58.5,215.833 58.5,217.5C 57.7836,216.689 56.9503,216.022 56,215.5C 54.5349,216.33 53.0349,216.496 51.5,216C 49.6234,213.894 47.29,212.561 44.5,212C 45.354,210.978 46.354,210.145 47.5,209.5C 49.1829,211.514 51.1829,213.18 53.5,214.5C 54.5,214.167 55.1667,213.5 55.5,212.5C 54.3112,211.571 52.9778,211.238 51.5,211.5C 50.9478,209.669 50.9478,208.003 51.5,206.5C 50.9747,205.808 50.3081,205.308 49.5,205C 51.032,204.3 52.032,203.134 52.5,201.5C 51.1854,200.105 51.5188,199.105 53.5,198.5C 54.5968,200.229 55.7635,201.896 57,203.5C 60.2915,201.976 60.1248,200.643 56.5,199.5C 57.684,197.954 58.684,196.287 59.5,194.5C 60.3081,194.808 60.9747,195.308 61.5,196C 60.0403,196.811 59.707,197.645 60.5,198.5C 62.4034,196.438 64.7367,195.104 67.5,194.5C 65.9793,194.12 64.3126,193.954 62.5,194C 64,193.167 65.1667,192 66,190.5C 66.3826,191.056 66.8826,191.389 67.5,191.5 Z"/></g>
<g><path style="opacity:0.92" fill="#cec0a6" d="M 428.5,190.5 C 427.799,194.819 428.966,198.486 432,201.5C 434.3,199.933 436.8,198.767 439.5,198C 438.209,194.975 438.876,194.641 441.5,197C 440.751,198.734 440.251,200.567 440,202.5C 437.657,203.171 435.657,203.171 434,202.5C 433.506,204.134 433.34,205.801 433.5,207.5C 431.037,207.781 428.87,208.781 427,210.5C 426.228,209.151 425.061,208.318 423.5,208C 425.577,207.808 427.577,207.308 429.5,206.5C 430.476,204.877 429.976,203.543 428,202.5C 427.676,204.569 426.842,204.902 425.5,203.5C 423.833,204.833 422.167,206.167 420.5,207.5C 422.385,208.197 422.718,209.197 421.5,210.5C 423.296,211.141 424.796,212.141 426,213.5C 427.049,212.483 428.216,212.316 429.5,213C 431.536,214.819 431.703,216.653 430,218.5C 429.577,217.044 428.744,216.544 427.5,217C 426.167,218 426.167,219 427.5,220C 426.072,222.13 424.405,223.13 422.5,223C 422.645,223.772 422.978,224.439 423.5,225C 422.062,225.219 420.729,225.719 419.5,226.5C 423.417,230.636 427.917,233.969 433,236.5C 434.194,234.475 435.694,234.141 437.5,235.5C 438.258,234.189 439.258,233.689 440.5,234C 439.039,236.582 439.706,238.415 442.5,239.5C 442.196,240.15 441.863,240.817 441.5,241.5C 442.612,242.265 443.279,243.265 443.5,244.5C 442.164,247.838 440.831,251.171 439.5,254.5C 438.752,256.332 437.752,257.999 436.5,259.5C 434.856,259.286 433.356,259.62 432,260.5C 431.5,260 431,259.5 430.5,259C 431.624,258.751 432.624,258.251 433.5,257.5C 431.978,256.438 430.312,255.771 428.5,255.5C 428.5,255.167 428.5,254.833 428.5,254.5C 428.917,253.876 429.584,253.543 430.5,253.5C 432.323,254.845 434.323,255.345 436.5,255C 433.956,253.437 433.956,251.937 436.5,250.5C 435.754,249.264 435.421,247.93 435.5,246.5C 439.071,246.592 440.238,244.926 439,241.5C 436.868,242.78 434.702,242.78 432.5,241.5C 431.522,241.977 430.689,242.643 430,243.5C 429.667,242.833 429.333,242.167 429,241.5C 427.211,243.229 425.044,243.896 422.5,243.5C 422.5,243.167 422.5,242.833 422.5,242.5C 419.436,235.482 416.269,228.482 413,221.5C 410.716,217.051 407.549,213.384 403.5,210.5C 399.091,191.266 391.758,173.266 381.5,156.5C 400.119,166.969 414.452,182.136 424.5,202C 425.744,202.456 426.577,201.956 427,200.5C 427.179,196.975 427.679,193.641 428.5,190.5 Z"/></g>
<g><path style="opacity:0.897" fill="#a4906b" d="M 459.5,209.5 C 453.714,195.866 444.714,184.7 432.5,176C 431.184,175.472 430.517,175.972 430.5,177.5C 428.833,177.5 427.167,177.5 425.5,177.5C 425.665,174.15 425.498,170.817 425,167.5C 423.89,165.963 422.39,165.297 420.5,165.5C 420.092,164.357 419.425,163.357 418.5,162.5C 416.5,163.167 414.5,163.833 412.5,164.5C 411.472,166.361 409.972,167.695 408,168.5C 408.148,167.175 407.982,166.008 407.5,165C 405.5,165 403.5,165 401.5,165C 401.833,164.667 402.167,164.333 402.5,164C 401.692,163.692 401.025,163.192 400.5,162.5C 406.373,160.931 412.373,160.098 418.5,160C 418.833,159.667 419.167,159.333 419.5,159C 417.846,158.392 416.179,157.892 414.5,157.5C 417.09,153.267 418.09,148.6 417.5,143.5C 418.873,143.343 420.207,143.51 421.5,144C 442.025,161.209 454.692,183.043 459.5,209.5 Z"/></g>
<g><path style="opacity:0.965" fill="#684f35" d="M 246.5,173.5 C 249.167,173.5 251.833,173.5 254.5,173.5C 255.072,179.519 255.739,185.519 256.5,191.5C 252.283,192.912 247.95,193.579 243.5,193.5C 244.5,186.833 245.5,180.167 246.5,173.5 Z"/></g>
<g><path style="opacity:0.961" fill="#d4c5ab" d="M 420.5,165.5 C 422.39,165.297 423.89,165.963 425,167.5C 425.498,170.817 425.665,174.15 425.5,177.5C 425.586,178.496 425.252,179.329 424.5,180C 417.833,184.066 413.333,182.233 411,174.5C 410.62,168.05 413.786,165.05 420.5,165.5 Z"/></g>
<g><path style="opacity:0.986" fill="#d7caae" d="M 76.5,163.5 C 81.0386,162.539 83.372,164.373 83.5,169C 82.4734,174.299 79.3068,177.799 74,179.5C 72.3468,179.18 71.3468,178.18 71,176.5C 69.5708,170.7 71.4041,166.367 76.5,163.5 Z"/></g>
<g><path style="opacity:0.984" fill="#685035" d="M 303.5,166.5 C 304.983,168.094 306.483,169.76 308,171.5C 309.984,176.469 312.151,181.302 314.5,186C 311.219,186.455 308.052,187.289 305,188.5C 303.893,188.415 302.893,188.081 302,187.5C 300.393,181.519 298.893,175.519 297.5,169.5C 299.282,168.016 301.282,167.016 303.5,166.5 Z"/></g>
<g><path style="opacity:0.973" fill="#674f35" d="M 195.5,165.5 C 197.467,165.261 199.301,165.594 201,166.5C 199.654,171.953 198.821,177.62 198.5,183.5C 194.625,183.915 190.958,183.415 187.5,182C 190.359,176.627 193.026,171.127 195.5,165.5 Z"/></g>
<g><path style="opacity:0.803" fill="#c3b298" d="M 428.5,159.5 C 430.833,159.5 433.167,159.5 435.5,159.5C 437.137,168.744 434.637,170.411 428,164.5C 427.36,162.735 427.527,161.068 428.5,159.5 Z"/></g>
<g><path style="opacity:0.976" fill="#674e35" d="M 158.5,161.5 C 159.873,161.343 161.207,161.51 162.5,162C 159.944,168.299 157.778,174.799 156,181.5C 155.612,182.428 154.945,183.095 154,183.5C 152.56,182.852 151.06,182.519 149.5,182.5C 149.5,181.5 149.5,180.5 149.5,179.5C 152.516,173.469 155.516,167.469 158.5,161.5 Z"/></g>
<g><path style="opacity:0.967" fill="#d1c3a8" d="M 66.5,158.5 C 68.1667,158.5 69.8333,158.5 71.5,158.5C 71.3573,160.262 71.6906,161.929 72.5,163.5C 68.1868,169.328 65.1868,168.828 63.5,162C 64.5442,160.826 65.5442,159.659 66.5,158.5 Z"/></g>
<g><path style="opacity:0.954" fill="#674f35" d="M 223.5,150.5 C 225.792,150.244 227.959,150.577 230,151.5C 230.499,156.823 230.666,162.156 230.5,167.5C 226.445,167.824 222.445,167.491 218.5,166.5C 219.668,160.974 221.335,155.641 223.5,150.5 Z"/></g>
<g><path style="opacity:0.885" fill="#664d33" d="M 274.5,149.5 C 277.019,149.848 278.853,151.181 280,153.5C 281.261,157.062 282.094,160.729 282.5,164.5C 279.5,164.5 276.5,164.5 273.5,164.5C 272.996,160.978 272.329,157.478 271.5,154C 271.957,152.06 272.957,150.56 274.5,149.5 Z"/></g>
<g><path style="opacity:0.968" fill="#684f35" d="M 185.5,145.5 C 188.513,145.72 190.847,147.053 192.5,149.5C 189.88,154.519 187.213,158.853 184.5,162.5C 181.68,161.618 179.014,160.452 176.5,159C 179.722,154.618 182.722,150.118 185.5,145.5 Z"/></g>
<g><path style="opacity:0.967" fill="#674f35" d="M 307.5,143.5 C 310.272,143.22 312.772,143.887 315,145.5C 316.565,149.4 318.565,153.066 321,156.5C 321.684,157.784 321.517,158.951 320.5,160C 317.648,160.269 314.982,161.103 312.5,162.5C 311.914,162.291 311.414,161.957 311,161.5C 309.297,155.619 308.131,149.619 307.5,143.5 Z"/></g>
<g><path style="opacity:0.941" fill="#817c77" d="M 189.5,397.5 C 191.319,399.472 192.319,401.805 192.5,404.5C 188.61,405.914 184.61,407.08 180.5,408C 183.264,408.532 185.93,409.366 188.5,410.5C 191.276,409.911 193.61,408.578 195.5,406.5C 195.833,407 196.167,407.5 196.5,408C 195.728,409.221 194.728,410.221 193.5,411C 195.307,412.236 197.307,412.57 199.5,412C 200.5,412.833 201.5,413.667 202.5,414.5C 202.043,415.298 201.376,415.631 200.5,415.5C 194.189,412.639 187.522,411.806 180.5,413C 175.802,415.349 171.136,417.682 166.5,420C 173.932,417.884 181.598,416.718 189.5,416.5C 190.398,417.158 191.398,417.824 192.5,418.5C 189.924,419.883 190.258,420.717 193.5,421C 190.629,421.131 188.295,422.297 186.5,424.5C 187.243,425.182 187.909,425.849 188.5,426.5C 185.606,427.882 183.106,429.882 181,432.5C 180.502,435.817 180.335,439.15 180.5,442.5C 179.167,442.5 177.833,442.5 176.5,442.5C 177.839,435.17 175.172,429.837 168.5,426.5C 165.833,428.167 163.167,429.833 160.5,431.5C 159.832,434.306 159.166,436.972 158.5,439.5C 157.818,425.265 157.151,410.932 156.5,396.5C 158.325,394.197 160.158,391.864 162,389.5C 164.011,391.678 166.177,393.678 168.5,395.5C 168.389,396.117 168.056,396.617 167.5,397C 169.788,399.743 171.955,402.577 174,405.5C 176.106,403.54 178.273,401.706 180.5,400C 179.132,397.433 177.632,394.933 176,392.5C 174.333,393.5 172.667,394.5 171,395.5C 170.601,395.272 170.435,394.938 170.5,394.5C 171.748,390.395 174.415,388.562 178.5,389C 180.795,392.297 183.462,395.297 186.5,398C 187.577,398.47 188.577,398.303 189.5,397.5 Z"/></g>
<g><path style="opacity:0.87" fill="#6c6561" d="M 164.5,401.5 C 167.101,402.28 169.101,403.946 170.5,406.5C 166.218,412.059 162.885,411.392 160.5,404.5C 162.184,403.85 163.517,402.85 164.5,401.5 Z"/></g>
<g><path style="opacity:0.937" fill="#6d6562" d="M 168.5,395.5 C 169.167,395.167 169.833,394.833 170.5,394.5C 170.435,394.938 170.601,395.272 171,395.5C 172.667,394.5 174.333,393.5 176,392.5C 177.632,394.933 179.132,397.433 180.5,400C 178.273,401.706 176.106,403.54 174,405.5C 171.955,402.577 169.788,399.743 167.5,397C 168.056,396.617 168.389,396.117 168.5,395.5 Z"/></g>
<g><path style="opacity:0.872" fill="#57524b" d="M 200.5,415.5 C 203.074,416.464 205.408,417.964 207.5,420C 206.833,420.167 206.167,420.333 205.5,420.5C 200.258,418.785 194.924,417.452 189.5,416.5C 181.598,416.718 173.932,417.884 166.5,420C 171.136,417.682 175.802,415.349 180.5,413C 187.522,411.806 194.189,412.639 200.5,415.5 Z"/></g>
<g><path style="opacity:0.912" fill="#7f7a75" d="M 279.5,388.5 C 283.067,390.557 286.234,393.223 289,396.5C 291.912,392.972 295.412,390.305 299.5,388.5C 303.796,391.625 307.963,394.958 312,398.5C 314.784,396.72 317.284,394.553 319.5,392C 321.495,391.387 323.162,391.887 324.5,393.5C 322.662,395.807 320.662,398.14 318.5,400.5C 320.197,401.364 321.363,402.697 322,404.5C 323.049,405.517 324.216,405.684 325.5,405C 326.667,403.833 327.833,402.667 329,401.5C 329.507,400.004 329.007,398.837 327.5,398C 327.728,397.601 328.062,397.435 328.5,397.5C 331.482,396.594 334.315,395.26 337,393.5C 338.507,394.555 340.007,395.555 341.5,396.5C 341.816,410.912 341.482,425.245 340.5,439.5C 339.835,437.302 339.168,434.969 338.5,432.5C 336.417,431.041 334.25,429.708 332,428.5C 329.691,429.975 327.524,431.642 325.5,433.5C 324.52,436.086 324.187,438.753 324.5,441.5C 323.791,442.404 322.791,442.737 321.5,442.5C 321.987,435.896 319.321,431.23 313.5,428.5C 306.69,430.306 304.023,434.639 305.5,441.5C 304.209,441.263 303.209,441.596 302.5,442.5C 302.167,442.5 301.833,442.5 301.5,442.5C 302.799,434.895 299.799,430.228 292.5,428.5C 285.666,430.131 283,434.464 284.5,441.5C 283.5,441.5 282.5,441.5 281.5,441.5C 281.817,437.298 281.483,433.298 280.5,429.5C 279.573,415.863 279.24,402.196 279.5,388.5 Z"/></g>
<g><path style="opacity:0.961" fill="#58564f" d="M 303.5,413.5 C 309.509,413.334 315.509,413.501 321.5,414C 327.333,416.491 333,419.157 338.5,422C 333.363,421.465 328.363,420.131 323.5,418C 313.254,416.711 303.254,417.544 293.5,420.5C 292.304,420.154 292.304,419.654 293.5,419C 297.056,417.392 300.389,415.559 303.5,413.5 Z"/></g>
<g><path style="opacity:0.956" fill="#6c6563" d="M 324.5,393.5 C 326.167,394.5 327.5,395.833 328.5,397.5C 328.062,397.435 327.728,397.601 327.5,398C 329.007,398.837 329.507,400.004 329,401.5C 327.833,402.667 326.667,403.833 325.5,405C 324.216,405.684 323.049,405.517 322,404.5C 321.363,402.697 320.197,401.364 318.5,400.5C 320.662,398.14 322.662,395.807 324.5,393.5 Z"/></g>
<g><path style="opacity:0.874" fill="#544e47" d="M 218.5,441.5 C 212.252,442.128 205.919,442.461 199.5,442.5C 198.23,434.591 201.396,429.257 209,426.5C 211.476,428.655 214.309,430.155 217.5,431C 216.873,432.738 216.54,434.571 216.5,436.5C 216.556,438.64 217.223,440.306 218.5,441.5 Z"/></g>
<g><path style="opacity:0.885" fill="#7d7771" d="M 219.5,389.5 C 219.5,402.833 219.5,416.167 219.5,429.5C 219.817,433.702 219.483,437.702 218.5,441.5C 217.223,440.306 216.556,438.64 216.5,436.5C 216.54,434.571 216.873,432.738 217.5,431C 214.309,430.155 211.476,428.655 209,426.5C 201.396,429.257 198.23,434.591 199.5,442.5C 198.5,442.5 197.5,442.5 196.5,442.5C 195.748,439.253 195.248,435.919 195,432.5C 192.937,430.266 190.771,428.266 188.5,426.5C 187.909,425.849 187.243,425.182 186.5,424.5C 188.295,422.297 190.629,421.131 193.5,421C 190.258,420.717 189.924,419.883 192.5,418.5C 191.398,417.824 190.398,417.158 189.5,416.5C 194.924,417.452 200.258,418.785 205.5,420.5C 206.167,420.333 206.833,420.167 207.5,420C 205.408,417.964 203.074,416.464 200.5,415.5C 201.376,415.631 202.043,415.298 202.5,414.5C 201.5,413.667 200.5,412.833 199.5,412C 197.307,412.57 195.307,412.236 193.5,411C 194.728,410.221 195.728,409.221 196.5,408C 196.167,407.5 195.833,407 195.5,406.5C 193.61,408.578 191.276,409.911 188.5,410.5C 185.93,409.366 183.264,408.532 180.5,408C 184.61,407.08 188.61,405.914 192.5,404.5C 192.319,401.805 191.319,399.472 189.5,397.5C 191.436,394.061 193.936,391.061 197,388.5C 199.784,390.28 202.284,392.447 204.5,395C 205.729,395.781 207.062,396.281 208.5,396.5C 212.415,394.093 215.915,391.093 219,387.5C 219.464,388.094 219.631,388.761 219.5,389.5 Z"/></g>
<g><path style="opacity:0.84" fill="#6a625d" d="M 199.5,396.5 C 200.978,396.238 202.311,396.571 203.5,397.5C 204.693,399.527 206.36,401.027 208.5,402C 206,403.833 203.833,406 202,408.5C 199.356,406.69 196.856,404.69 194.5,402.5C 196.19,400.481 197.856,398.481 199.5,396.5 Z"/></g>
<g><path style="opacity:0.863" fill="#544f49" d="M 188.5,426.5 C 190.771,428.266 192.937,430.266 195,432.5C 195.248,435.919 195.748,439.253 196.5,442.5C 191.151,441.384 185.817,441.384 180.5,442.5C 180.335,439.15 180.502,435.817 181,432.5C 183.106,429.882 185.606,427.882 188.5,426.5 Z"/></g>
<g><path style="opacity:0.863" fill="#554f48" d="M 301.5,442.5 C 295.699,442.109 290.033,441.775 284.5,441.5C 283,434.464 285.666,430.131 292.5,428.5C 299.799,430.228 302.799,434.895 301.5,442.5 Z"/></g>
<g><path style="opacity:0.899" fill="#544f49" d="M 321.5,442.5 C 315.16,441.276 308.827,441.276 302.5,442.5C 303.209,441.596 304.209,441.263 305.5,441.5C 304.023,434.639 306.69,430.306 313.5,428.5C 319.321,431.23 321.987,435.896 321.5,442.5 Z"/></g>
<g><path style="opacity:0.87" fill="#565049" d="M 340.5,439.5 C 340.389,440.117 340.056,440.617 339.5,441C 334.459,442.095 329.459,442.262 324.5,441.5C 324.187,438.753 324.52,436.086 325.5,433.5C 327.524,431.642 329.691,429.975 332,428.5C 334.25,429.708 336.417,431.041 338.5,432.5C 339.168,434.969 339.835,437.302 340.5,439.5 Z"/></g>
<g><path style="opacity:0.937" fill="#555049" d="M 176.5,442.5 C 170.428,443.063 164.428,442.396 158.5,440.5C 158.5,440.167 158.5,439.833 158.5,439.5C 159.166,436.972 159.832,434.306 160.5,431.5C 163.167,429.833 165.833,428.167 168.5,426.5C 175.172,429.837 177.839,435.17 176.5,442.5 Z"/></g>
</svg>
