<?xml version="1.0" encoding="UTF-8"?>
<!DOCTYPE svg PUBLIC "-//W3C//DTD SVG 1.1//EN" "http://www.w3.org/Graphics/SVG/1.1/DTD/svg11.dtd">
<svg xmlns="http://www.w3.org/2000/svg" version="1.1" width="500px" height="500px" style="shape-rendering:geometricPrecision; text-rendering:geometricPrecision; image-rendering:optimizeQuality; fill-rule:evenodd; clip-rule:evenodd" xmlns:xlink="http://www.w3.org/1999/xlink">
<g><path style="opacity:0.03" fill="#4e3b27" d="M 81.5,30.5 C 101.47,30.7796 121.47,30.9463 141.5,31C 148.723,32.249 155.723,33.4156 162.5,34.5C 164.245,38.3387 165.745,42.3387 167,46.5C 167.841,54.9988 169.174,63.3321 171,71.5C 185.736,69.7298 200.569,69.2298 215.5,70C 220.981,70.147 224.815,72.647 227,77.5C 230.374,90.6352 227.874,102.468 219.5,113C 215.628,115.435 211.628,117.602 207.5,119.5C 211.264,122.692 213.764,126.692 215,131.5C 216.155,144.135 216.821,156.801 217,169.5C 219.965,163.659 222.631,157.659 225,151.5C 227.751,146.41 231.917,143.243 237.5,142C 242.833,141.333 248.167,141.333 253.5,142C 260.03,143.888 266.696,144.721 273.5,144.5C 288.174,143.957 302.84,143.29 317.5,142.5C 323.365,142.911 329.198,143.578 335,144.5C 351.994,143.391 368.994,143.391 386,144.5C 390.2,145.172 394.367,146.006 398.5,147C 401.28,149.865 404.28,152.532 407.5,155C 412.563,155.248 417.563,155.915 422.5,157C 421.346,157.914 421.513,158.747 423,159.5C 423.333,159.167 423.667,158.833 424,158.5C 425.275,160.548 426.608,162.548 428,164.5C 428.388,168.219 429.055,171.886 430,175.5C 434.745,176.54 438.745,178.873 442,182.5C 444.316,189.733 444.982,197.066 444,204.5C 446.618,210.037 448.118,215.87 448.5,222C 447.552,232.226 447.552,242.059 448.5,251.5C 448.146,254.251 447.479,256.917 446.5,259.5C 447.368,262.468 447.701,265.301 447.5,268C 447.004,269.996 446.004,271.663 444.5,273C 447.626,276.135 447.96,279.469 445.5,283C 446.207,286.822 446.874,290.655 447.5,294.5C 446.802,295.863 446.802,297.029 447.5,298C 446.833,298.667 446.167,299.333 445.5,300C 446.833,303 446.833,306 445.5,309C 446.894,310.739 447.561,312.739 447.5,315C 447.163,322.15 447.163,329.484 447.5,337C 446.457,346.081 445.123,354.914 443.5,363.5C 444.347,365.061 444.014,366.561 442.5,368C 443,368.5 443.5,369 444,369.5C 444.667,374.167 444.667,378.833 444,383.5C 443.111,382.112 442.611,382.278 442.5,384C 442.95,385.285 443.617,386.452 444.5,387.5C 444.512,389.412 444.179,391.412 443.5,393.5C 444.383,394.548 445.05,395.715 445.5,397C 445.108,398.011 444.441,398.511 443.5,398.5C 444.574,402.962 444.574,407.462 443.5,412C 444.459,413.707 445.125,415.541 445.5,417.5C 444.621,421.9 443.621,426.233 442.5,430.5C 438.738,431.262 437.738,433.429 439.5,437C 438.885,439.515 437.885,441.848 436.5,444C 437.167,444.333 437.833,444.667 438.5,445C 436.332,447.384 434.832,449.884 434,452.5C 433.667,452.167 433.333,451.833 433,451.5C 432.047,453.592 430.714,453.925 429,452.5C 424.585,455.004 419.752,456.171 414.5,456C 410.554,457.306 406.888,459.139 403.5,461.5C 401.671,460.718 400.171,461.384 399,463.5C 398.586,463.043 398.086,462.709 397.5,462.5C 394.484,464.536 391.318,465.202 388,464.5C 382.277,466.019 376.444,466.853 370.5,467C 355.311,467.15 340.477,467.317 326,467.5C 301.621,466.831 277.288,465.498 253,463.5C 243.029,465.197 233.029,464.53 223,461.5C 221.249,462.174 219.583,462.507 218,462.5C 215.734,461.044 213.234,460.21 210.5,460C 209.12,458.676 208.786,457.343 209.5,456C 207.671,455.727 206.171,454.893 205,453.5C 194.812,454.526 184.645,455.86 174.5,457.5C 173.914,457.291 173.414,456.957 173,456.5C 156.858,465.407 138.691,468.241 118.5,465C 111.132,463.321 104.132,460.655 97.5,457C 89.8554,455.899 82.1887,454.899 74.5,454C 66.9653,452.111 62.7987,447.278 62,439.5C 61.1815,432.074 59.8482,424.741 58,417.5C 57.2165,409.963 57.3831,402.463 58.5,395C 55.6554,388.789 53.8221,382.289 53,375.5C 52.0825,360.121 52.4158,344.787 54,329.5C 55.6381,322.261 60.1381,318.094 67.5,317C 74.1607,315.565 80.8274,315.399 87.5,316.5C 92.0791,315.434 95.7458,312.934 98.5,309C 102.674,306.412 107.007,304.079 111.5,302C 112.108,300.769 112.441,299.436 112.5,298C 111.644,280.84 110.81,263.673 110,246.5C 102.662,241.005 95.1624,235.671 87.5,230.5C 86.0999,226.467 84.5999,222.467 83,218.5C 84.0842,187.878 84.7508,157.212 85,126.5C 85.567,123.832 86.067,121.166 86.5,118.5C 77.7156,119.353 69.3823,117.853 61.5,114C 49.3827,100.698 46.216,85.5313 52,68.5C 53.3782,66.7866 55.0448,65.4533 57,64.5C 57.1234,55.7727 57.79,47.1061 59,38.5C 60.5,37 62,35.5 63.5,34C 69.5287,32.2687 75.5287,31.102 81.5,30.5 Z M 196.5,367.5 C 199.167,367.5 201.833,367.5 204.5,367.5C 204.5,369.5 204.5,371.5 204.5,373.5C 201.833,373.5 199.167,373.5 196.5,373.5C 196.5,371.5 196.5,369.5 196.5,367.5 Z M 253.5,378.5 C 255.833,378.5 258.167,378.5 260.5,378.5C 257.005,391.577 256.672,404.744 259.5,418C 259.245,419.326 258.578,420.326 257.5,421C 254.308,421.197 251.308,422.03 248.5,423.5C 246.694,422.141 245.194,422.475 244,424.5C 242.764,423.601 241.93,422.434 241.5,421C 245.148,417.54 247.648,413.373 249,408.5C 250.904,398.515 252.404,388.515 253.5,378.5 Z M 328.5,355.5 C 332.167,355.5 335.833,355.5 339.5,355.5C 339.5,358.5 339.5,361.5 339.5,364.5C 334.736,364.524 329.903,364.857 325,365.5C 319.414,363.935 319.914,362.935 326.5,362.5C 326.394,359.921 327.061,357.588 328.5,355.5 Z"/></g>
<g><path style="opacity:0.12" fill="#463423" d="M 110.5,35.5 C 115.874,35.523 121.207,36.023 126.5,37C 127,37.5 127.5,38 128,38.5C 129.364,37.3039 130.864,36.3039 132.5,35.5C 141.323,35.5198 149.656,38.0198 157.5,43C 160.056,49.3841 162.389,56.2174 164.5,63.5C 164.167,64.8333 163.833,66.1667 163.5,67.5C 163.923,70.6026 164.923,73.436 166.5,76C 172.469,77.706 178.303,77.206 184,74.5C 185.261,74.7591 186.261,75.4258 187,76.5C 196.372,72.5742 205.205,73.2409 213.5,78.5C 216.388,77.9401 218.721,79.1068 220.5,82C 219.978,82.5613 219.645,83.228 219.5,84C 220.875,86.3154 221.875,88.8154 222.5,91.5C 220.705,95.3837 219.205,99.3837 218,103.5C 212.632,108.433 206.465,111.6 199.5,113C 197.453,114.073 195.453,115.239 193.5,116.5C 197.127,121.794 201.46,126.461 206.5,130.5C 209.63,135.789 210.63,141.789 209.5,148.5C 210.167,151.167 210.833,153.833 211.5,156.5C 211.81,164.291 211.477,172.125 210.5,180C 210.667,182.167 210.833,184.333 211,186.5C 211.196,188.286 212.029,189.619 213.5,190.5C 220.006,179.687 225.839,168.353 231,156.5C 232.878,154.957 234.378,153.124 235.5,151C 241.442,149.594 247.442,149.261 253.5,150C 252.304,150.654 252.304,151.154 253.5,151.5C 254.446,151.013 255.446,150.68 256.5,150.5C 263.221,151.703 269.888,153.036 276.5,154.5C 281.336,154.168 285.836,152.834 290,150.5C 297.278,150.753 304.611,151.42 312,152.5C 313.574,151.152 315.407,150.486 317.5,150.5C 322.967,150.942 328.634,151.609 334.5,152.5C 341.817,152.495 349.15,152.161 356.5,151.5C 358.414,153.594 360.581,153.594 363,151.5C 370.391,154.43 377.558,154.763 384.5,152.5C 389.5,152.986 393.833,154.82 397.5,158C 404.207,161.01 410.874,163.343 417.5,165C 418.453,166.955 419.787,168.622 421.5,170C 420.978,170.561 420.645,171.228 420.5,172C 421.713,173.63 422.546,175.464 423,177.5C 427.798,181.786 432.131,186.453 436,191.5C 436.35,195.256 435.85,198.923 434.5,202.5C 435.676,205.096 437.01,207.596 438.5,210C 437.833,210.333 437.167,210.667 436.5,211C 441.152,218.437 441.819,226.27 438.5,234.5C 438.709,238.291 438.709,242.124 438.5,246C 438.975,247.763 439.642,249.43 440.5,251C 438.686,253.557 438.352,256.224 439.5,259C 438.167,259.667 436.833,260.333 435.5,261C 437.422,262.46 438.089,264.127 437.5,266C 438.973,266.71 439.64,267.876 439.5,269.5C 438.325,269.281 437.325,269.614 436.5,270.5C 437.59,274.046 437.59,277.546 436.5,281C 437.827,286.278 438.827,291.612 439.5,297C 436.857,300.529 436.191,304.029 437.5,307.5C 437.023,308.478 436.357,309.311 435.5,310C 436.833,312.28 438.166,314.614 439.5,317C 438.167,318.333 438.167,319.667 439.5,321C 439.05,322.285 438.383,323.452 437.5,324.5C 438.415,325.328 439.081,326.328 439.5,327.5C 438.502,334.345 438.502,341.012 439.5,347.5C 438.745,350.415 437.412,353.082 435.5,355.5C 435.709,356.086 436.043,356.586 436.5,357C 433.388,357.851 433.054,359.017 435.5,360.5C 435.291,361.086 434.957,361.586 434.5,362C 435.894,362.956 436.561,364.289 436.5,366C 434.508,369.59 434.175,373.256 435.5,377C 434.833,377.333 434.167,377.667 433.5,378C 436.08,380.12 436.08,382.287 433.5,384.5C 434.381,385.971 435.714,386.804 437.5,387C 436.833,387.333 436.167,387.667 435.5,388C 437.923,393.274 437.923,398.608 435.5,404C 437.133,408.52 436.799,412.854 434.5,417C 435.061,418.566 434.394,419.899 432.5,421C 433.167,422 433.833,423 434.5,424C 432.614,428.622 431.448,433.456 431,438.5C 429.073,441.35 426.906,444.017 424.5,446.5C 420.555,447.268 416.555,447.768 412.5,448C 413.833,448.667 413.833,449.333 412.5,450C 405.329,451.84 398.495,454.673 392,458.5C 391.127,458.265 390.293,457.931 389.5,457.5C 385.114,459.656 380.447,460.99 375.5,461.5C 374.833,461.167 374.167,460.833 373.5,460.5C 366.519,460.96 359.519,461.96 352.5,463.5C 346.207,462.504 339.873,461.837 333.5,461.5C 317.266,461.918 300.933,461.918 284.5,461.5C 271.92,458.562 259.42,457.895 247,459.5C 245.755,458.358 243.755,457.691 241,457.5C 239.5,457.667 238,457.833 236.5,458C 237.888,458.889 237.722,459.389 236,459.5C 234.632,458.297 233.132,457.297 231.5,456.5C 230.808,457.025 230.308,457.692 230,458.5C 226.497,456.666 222.997,454.833 219.5,453C 217.963,451.89 217.297,450.39 217.5,448.5C 202.374,449.292 187.208,449.292 172,448.5C 169.266,449.362 169.099,450.195 171.5,451C 166.078,452.559 160.911,454.726 156,457.5C 154.893,457.415 153.893,457.081 153,456.5C 152.223,458.215 150.89,459.215 149,459.5C 138.145,460.701 127.478,460.701 117,459.5C 112.791,457.244 107.958,454.744 102.5,452C 98.3593,451.159 94.3593,450.826 90.5,451C 91.5,450.667 92.5,450.333 93.5,450C 89.8333,449.667 86.1667,449.333 82.5,449C 81.0337,448.365 79.7003,447.531 78.5,446.5C 77.914,446.709 77.414,447.043 77,447.5C 75.4933,445.992 73.8267,444.659 72,443.5C 69.5777,439.495 67.9111,435.162 67,430.5C 67.5586,425.904 66.5586,421.57 64,417.5C 62.1811,409.671 62.5145,402.004 65,394.5C 65.6099,390.764 65.2765,387.097 64,383.5C 61.0688,382.431 59.9021,380.598 60.5,378C 59.6705,376.184 58.8372,374.351 58,372.5C 56.6647,360.513 56.9981,348.513 59,336.5C 60.3333,333.833 61.6667,331.167 63,328.5C 65.5,326.667 68,324.833 70.5,323C 79.5,322 88.5,321 97.5,320C 102.808,315.009 108.808,311.009 115.5,308C 117.249,305.914 118.583,303.581 119.5,301C 119.095,300.055 118.428,299.388 117.5,299C 118.549,295.854 118.383,292.688 117,289.5C 117.262,275.019 116.928,260.686 116,246.5C 114.167,239.333 109.667,234.833 102.5,233C 96.4246,227.278 92.0913,220.445 89.5,212.5C 89.3634,187.134 89.3634,161.967 89.5,137C 90.6556,131.903 92.4889,126.736 95,121.5C 98.0699,119.553 100.57,117.053 102.5,114C 96.8673,111.333 91.0339,111.167 85,113.5C 80.8487,112.614 76.6821,111.78 72.5,111C 70.0627,108.899 67.396,107.066 64.5,105.5C 63.1378,102.764 61.3044,100.431 59,98.5C 58.9326,95.953 58.0993,93.7863 56.5,92C 56.9847,89.3199 57.3181,86.6532 57.5,84C 56.6433,83.3109 55.9767,82.4776 55.5,81.5C 57.6917,76.1469 60.8584,71.4803 65,67.5C 65.7166,61.7527 64.8833,56.2527 62.5,51C 64.6459,47.3581 66.9792,43.8581 69.5,40.5C 73.335,38.2713 77.5017,36.938 82,36.5C 86.7055,36.6241 91.7055,36.9575 97,37.5C 101.601,36.858 106.101,36.1913 110.5,35.5 Z M 196.5,367.5 C 196.5,369.5 196.5,371.5 196.5,373.5C 199.167,373.5 201.833,373.5 204.5,373.5C 204.5,371.5 204.5,369.5 204.5,367.5C 201.833,367.5 199.167,367.5 196.5,367.5 Z M 253.5,378.5 C 252.404,388.515 250.904,398.515 249,408.5C 247.648,413.373 245.148,417.54 241.5,421C 241.93,422.434 242.764,423.601 244,424.5C 245.194,422.475 246.694,422.141 248.5,423.5C 251.308,422.03 254.308,421.197 257.5,421C 258.578,420.326 259.245,419.326 259.5,418C 256.672,404.744 257.005,391.577 260.5,378.5C 258.167,378.5 255.833,378.5 253.5,378.5 Z M 328.5,355.5 C 327.061,357.588 326.394,359.921 326.5,362.5C 319.914,362.935 319.414,363.935 325,365.5C 329.903,364.857 334.736,364.524 339.5,364.5C 339.5,361.5 339.5,358.5 339.5,355.5C 335.833,355.5 332.167,355.5 328.5,355.5 Z"/></g>
<g><path style="opacity:0.82" fill="#ac4a36" d="M 152.5,64.5 C 153.167,74.1667 153.833,83.8333 154.5,93.5C 154.44,94.0431 154.107,94.3764 153.5,94.5C 152.501,84.5222 152.168,74.5222 152.5,64.5 Z"/></g>
<g><path style="opacity:0.946" fill="#d55641" d="M 98.5,79.5 C 98.5,80.1667 98.8333,80.5 99.5,80.5C 99.5858,81.4959 99.2524,82.3292 98.5,83C 95.57,83.6063 92.7367,84.4396 90,85.5C 89.3848,87.1161 88.3848,88.4495 87,89.5C 86.3162,90.7839 86.4829,91.9505 87.5,93C 82.8149,94.7393 78.4816,97.0727 74.5,100C 75.756,100.417 76.4226,101.25 76.5,102.5C 74.629,102.141 73.129,101.141 72,99.5C 69.8988,94.1944 67.2321,89.1944 64,84.5C 62.9581,81.1961 64.1247,79.0295 67.5,78C 68.8333,77.8333 70.1667,77.6667 71.5,77.5C 80.4357,79.0376 89.4357,79.7043 98.5,79.5 Z"/></g>
<g><path style="opacity:0.972" fill="#dd5843" d="M 78.5,47.5 C 101.836,47.3334 125.169,47.5 148.5,48C 149.667,49.1667 150.833,50.3333 152,51.5C 152.499,55.8206 152.666,60.1539 152.5,64.5C 152.168,74.5222 152.501,84.5222 153.5,94.5C 154.107,94.3764 154.44,94.0431 154.5,93.5C 155.625,91.8712 156.959,90.3712 158.5,89C 176.87,86.5331 195.203,85.3665 213.5,85.5C 213.127,88.5739 212.461,91.5739 211.5,94.5C 209.249,96.1462 207.582,98.3129 206.5,101C 205.167,101.667 203.833,102.333 202.5,103C 188.027,101.189 173.36,100.356 158.5,100.5C 158.5,102.5 158.5,104.5 158.5,106.5C 151.833,106.5 145.167,106.5 138.5,106.5C 138.929,102.743 138.263,99.2432 136.5,96C 128.806,96.4198 121.139,97.2532 113.5,98.5C 101.175,99.9806 88.8413,101.314 76.5,102.5C 76.4226,101.25 75.756,100.417 74.5,100C 78.4816,97.0727 82.8149,94.7393 87.5,93C 86.4829,91.9505 86.3162,90.7839 87,89.5C 88.3848,88.4495 89.3848,87.1161 90,85.5C 92.7367,84.4396 95.57,83.6063 98.5,83C 99.2524,82.3292 99.5858,81.4959 99.5,80.5C 114.236,79.6145 128.902,79.6145 143.5,80.5C 143.56,81.0431 143.893,81.3764 144.5,81.5C 145.811,77.0162 145.811,72.6829 144.5,68.5C 134.329,67.4686 123.996,67.4686 113.5,68.5C 110.396,69.0289 108.063,68.0289 106.5,65.5C 105.009,64.7564 103.509,64.0897 102,63.5C 101.316,62.2161 101.483,61.0495 102.5,60C 101.5,59.6667 100.5,59.3333 99.5,59C 101.418,57.2298 101.918,55.0631 101,52.5C 100.667,52.8333 100.333,53.1667 100,53.5C 96.1525,50.9813 91.9858,49.8147 87.5,50C 89.0368,51.1096 89.7035,52.6096 89.5,54.5C 87.857,54.5198 86.5237,53.8532 85.5,52.5C 84.8333,53.1667 84.1667,53.8333 83.5,54.5C 80.9089,52.2612 77.9089,50.7612 74.5,50C 76.3197,49.7996 77.653,48.9663 78.5,47.5 Z"/></g>
<g><path style="opacity:0.209" fill="#3f2d1e" d="M 213.5,85.5 C 195.203,85.3665 176.87,86.5331 158.5,89C 156.959,90.3712 155.625,91.8712 154.5,93.5C 153.833,83.8333 153.167,74.1667 152.5,64.5C 152.666,60.1539 152.499,55.8206 152,51.5C 150.833,50.3333 149.667,49.1667 148.5,48C 125.169,47.5 101.836,47.3334 78.5,47.5C 76.4727,47.3379 74.4727,47.5045 72.5,48C 71.4464,49.3876 71.2797,50.8876 72,52.5C 74.5074,60.1507 79.0074,66.1507 85.5,70.5C 84.603,71.5981 83.7697,71.5981 83,70.5C 82.6258,71.4162 82.1258,72.2496 81.5,73C 82.6721,73.4186 83.6721,74.0853 84.5,75C 83.3595,75.7412 83.3595,76.5745 84.5,77.5C 89.3167,78.1669 93.9834,78.8335 98.5,79.5C 89.4357,79.7043 80.4357,79.0376 71.5,77.5C 70.1667,77.6667 68.8333,77.8333 67.5,78C 64.1247,79.0295 62.9581,81.1961 64,84.5C 67.2321,89.1944 69.8988,94.1944 72,99.5C 73.129,101.141 74.629,102.141 76.5,102.5C 88.8413,101.314 101.175,99.9806 113.5,98.5C 106.784,100.534 99.784,101.701 92.5,102C 100.746,102.815 108.912,102.648 117,101.5C 119.087,102.794 121.254,103.961 123.5,105C 122.773,106.399 122.273,107.899 122,109.5C 116.584,112.911 111.75,117.078 107.5,122C 108.056,122.383 108.389,122.883 108.5,123.5C 105.991,124.921 103.657,126.588 101.5,128.5C 100.053,129.134 99.3866,130.301 99.5,132C 99.528,133.07 99.8614,133.903 100.5,134.5C 100.333,153.836 100.5,173.17 101,192.5C 102.095,193.693 102.928,195.027 103.5,196.5C 100.806,199.86 97.8062,202.86 94.5,205.5C 93.5222,205.189 92.8555,204.522 92.5,203.5C 93.2118,195.919 93.2118,188.252 92.5,180.5C 92.9767,179.522 93.6433,178.689 94.5,178C 93.3759,177.161 92.7092,175.994 92.5,174.5C 92.6187,162.71 92.6187,151.043 92.5,139.5C 93.2305,136.891 93.7305,134.224 94,131.5C 96.139,129.194 97.639,126.527 98.5,123.5C 102.791,119.342 107.125,115.176 111.5,111C 111.043,110.586 110.709,110.086 110.5,109.5C 102.007,108.349 93.5072,108.349 85,109.5C 81.7649,109.418 78.5982,108.918 75.5,108C 73.9739,106.113 71.9739,105.113 69.5,105C 65.105,100.576 61.9383,95.4096 60,89.5C 59.3333,86.8333 59.3333,84.1667 60,81.5C 64.409,77.3383 68.2424,73.1717 71.5,69C 70.0091,66.9783 70.3424,65.3117 72.5,64C 66.3745,58.4182 65.8745,52.2515 71,45.5C 75.5475,41.5657 80.8809,39.5657 87,39.5C 106.114,39.2749 125.614,39.7749 145.5,41C 150.935,43.0126 154.768,46.1793 157,50.5C 158.75,53.2464 159.75,56.2464 160,59.5C 160.148,65.2488 160.814,70.9155 162,76.5C 163.41,77.7875 164.91,78.9542 166.5,80C 174.818,80.3849 182.985,79.5516 191,77.5C 195,78.1667 199,78.8333 203,79.5C 207.783,78.3299 211.616,79.8299 214.5,84C 214.43,84.7648 214.097,85.2648 213.5,85.5 Z"/></g>
<g><path style="opacity:0.447" fill="#2f2217" d="M 144.5,68.5 C 144.817,72.7016 144.483,76.7016 143.5,80.5C 128.902,79.6145 114.236,79.6145 99.5,80.5C 98.8333,80.5 98.5,80.1667 98.5,79.5C 93.9834,78.8335 89.3167,78.1669 84.5,77.5C 83.3595,76.5745 83.3595,75.7412 84.5,75C 83.6721,74.0853 82.6721,73.4186 81.5,73C 82.1258,72.2496 82.6258,71.4162 83,70.5C 83.7697,71.5981 84.603,71.5981 85.5,70.5C 95.0236,70.3992 104.357,69.7325 113.5,68.5C 123.996,67.4686 134.329,67.4686 144.5,68.5 Z"/></g>
<g><path style="opacity:0.707" fill="#813b2b" d="M 144.5,68.5 C 145.811,72.6829 145.811,77.0162 144.5,81.5C 143.893,81.3764 143.56,81.0431 143.5,80.5C 144.483,76.7016 144.817,72.7016 144.5,68.5 Z"/></g>
<g><path style="opacity:0.943" fill="#d45641" d="M 78.5,47.5 C 77.653,48.9663 76.3197,49.7996 74.5,50C 77.9089,50.7612 80.9089,52.2612 83.5,54.5C 84.1667,53.8333 84.8333,53.1667 85.5,52.5C 86.5237,53.8532 87.857,54.5198 89.5,54.5C 89.7035,52.6096 89.0368,51.1096 87.5,50C 91.9858,49.8147 96.1525,50.9813 100,53.5C 100.333,53.1667 100.667,52.8333 101,52.5C 101.918,55.0631 101.418,57.2298 99.5,59C 100.5,59.3333 101.5,59.6667 102.5,60C 101.483,61.0495 101.316,62.2161 102,63.5C 103.509,64.0897 105.009,64.7564 106.5,65.5C 108.063,68.0289 110.396,69.0289 113.5,68.5C 104.357,69.7325 95.0236,70.3992 85.5,70.5C 79.0074,66.1507 74.5074,60.1507 72,52.5C 71.2797,50.8876 71.4464,49.3876 72.5,48C 74.4727,47.5045 76.4727,47.3379 78.5,47.5 Z"/></g>
<g><path style="opacity:0.353" fill="#35271b" d="M 138.5,106.5 C 134.76,107.719 131.093,109.219 127.5,111C 121.284,115.389 114.951,119.556 108.5,123.5C 108.389,122.883 108.056,122.383 107.5,122C 111.75,117.078 116.584,112.911 122,109.5C 122.273,107.899 122.773,106.399 123.5,105C 121.254,103.961 119.087,102.794 117,101.5C 108.912,102.648 100.746,102.815 92.5,102C 99.784,101.701 106.784,100.534 113.5,98.5C 121.139,97.2532 128.806,96.4198 136.5,96C 138.263,99.2432 138.929,102.743 138.5,106.5 Z"/></g>
<g><path style="opacity:0.975" fill="#e2d8be" d="M 138.5,106.5 C 145.167,106.5 151.833,106.5 158.5,106.5C 159.29,107.794 160.29,108.961 161.5,110C 174.513,117.198 186.513,125.698 197.5,135.5C 190.781,140.038 184.448,145.204 178.5,151C 177.128,151.402 175.795,151.902 174.5,152.5C 171.785,155.882 168.785,158.882 165.5,161.5C 164.448,161.649 163.448,161.483 162.5,161C 158,156.5 153.5,152 149,147.5C 144.139,151.992 139.306,156.325 134.5,160.5C 124.063,150.393 113.729,140.393 103.5,130.5C 102.833,129.833 102.167,129.167 101.5,128.5C 103.657,126.588 105.991,124.921 108.5,123.5C 114.951,119.556 121.284,115.389 127.5,111C 131.093,109.219 134.76,107.719 138.5,106.5 Z"/></g>
<g><path style="opacity:0.208" fill="#3d2c1e" d="M 202.5,198.5 C 200.611,197.396 198.945,196.063 197.5,194.5C 199.232,177.017 200.232,159.184 200.5,141C 200.333,139.5 200.167,138 200,136.5C 199.329,135.748 198.496,135.414 197.5,135.5C 186.513,125.698 174.513,117.198 161.5,110C 160.29,108.961 159.29,107.794 158.5,106.5C 158.5,104.5 158.5,102.5 158.5,100.5C 173.36,100.356 188.027,101.189 202.5,103C 203.833,102.333 205.167,101.667 206.5,101C 207.582,98.3129 209.249,96.1462 211.5,94.5C 212.496,94.4142 213.329,94.7476 214,95.5C 214.973,93.6079 215.64,91.6079 216,89.5C 216.667,92.5 216.667,95.5 216,98.5C 213.872,101.63 211.372,104.463 208.5,107C 200.378,108.795 192.378,110.795 184.5,113C 188.112,117.946 192.446,122.279 197.5,126C 199.322,128.821 201.489,131.321 204,133.5C 205.325,149.611 205.825,165.611 205.5,181.5C 205.333,186.5 205.167,191.5 205,196.5C 204.583,197.756 203.75,198.423 202.5,198.5 Z"/></g>
<g><path style="opacity:0.729" fill="#ab7a6b" d="M 101.5,128.5 C 102.167,129.167 102.833,129.833 103.5,130.5C 102.5,130.5 101.5,130.5 100.5,130.5C 100.5,131.833 100.5,133.167 100.5,134.5C 99.8614,133.903 99.528,133.07 99.5,132C 99.3866,130.301 100.053,129.134 101.5,128.5 Z"/></g>
<g><path style="opacity:0.979" fill="#df5a44" d="M 197.5,135.5 C 198.496,135.414 199.329,135.748 200,136.5C 200.167,138 200.333,139.5 200.5,141C 200.232,159.184 199.232,177.017 197.5,194.5C 192.316,189.815 187.316,184.981 182.5,180C 181.099,179.59 179.766,179.09 178.5,178.5C 174.28,173.776 169.78,169.109 165,164.5C 164.53,163.423 164.697,162.423 165.5,161.5C 168.785,158.882 171.785,155.882 174.5,152.5C 175.795,151.902 177.128,151.402 178.5,151C 184.448,145.204 190.781,140.038 197.5,135.5 Z"/></g>
<g><path style="opacity:0.977" fill="#564e36" d="M 165.5,161.5 C 164.697,162.423 164.53,163.423 165,164.5C 169.78,169.109 174.28,173.776 178.5,178.5C 178.5,187.5 178.5,196.5 178.5,205.5C 180.5,205.5 182.5,205.5 184.5,205.5C 182.031,206.317 179.365,206.817 176.5,207C 175.194,209.573 173.527,211.906 171.5,214C 165.033,218.635 159.033,223.802 153.5,229.5C 144.594,221.759 135.261,214.592 125.5,208C 123.846,207.392 122.179,206.892 120.5,206.5C 120.5,198.167 120.5,189.833 120.5,181.5C 124.783,175.377 129.283,169.377 134,163.5C 134.483,162.552 134.649,161.552 134.5,160.5C 139.306,156.325 144.139,151.992 149,147.5C 153.5,152 158,156.5 162.5,161C 163.448,161.483 164.448,161.649 165.5,161.5 Z"/></g>
<g><path style="opacity:0.989" fill="#9eefd2" d="M 183.5,156.5 C 186.325,156.081 188.491,157.081 190,159.5C 190.667,162.5 190.667,165.5 190,168.5C 186.446,173.684 183.113,173.35 180,167.5C 178.662,162.96 179.829,159.293 183.5,156.5 Z"/></g>
<g><path style="opacity:0.988" fill="#d9a54e" d="M 322.5,163.5 C 324.098,165.698 325.431,168.031 326.5,170.5C 323.686,171.165 320.686,171.498 317.5,171.5C 314.087,171.483 311.087,170.816 308.5,169.5C 310.926,165.392 313.259,161.225 315.5,157C 316.635,156.251 317.635,156.417 318.5,157.5C 319.857,159.565 321.19,161.565 322.5,163.5 Z"/></g>
<g><path style="opacity:0.763" fill="#c29448" d="M 257.5,171.5 C 257.5,170.833 257.5,170.167 257.5,169.5C 260.825,165.531 264.159,161.531 267.5,157.5C 269.506,161.513 272.006,165.18 275,168.5C 275.483,169.448 275.649,170.448 275.5,171.5C 269.5,171.5 263.5,171.5 257.5,171.5 Z"/></g>
<g><path style="opacity:0.987" fill="#d5a24d" d="M 366.5,163.5 C 367.787,166.406 368.787,169.406 369.5,172.5C 364.125,172.828 358.792,172.495 353.5,171.5C 355.12,168.596 356.453,165.596 357.5,162.5C 359.137,160.684 360.637,158.684 362,156.5C 363.524,158.898 365.024,161.231 366.5,163.5 Z"/></g>
<g><path style="opacity:0.964" fill="#d6a34d" d="M 394.5,171.5 C 394.5,172.5 394.5,173.5 394.5,174.5C 392.5,174.167 390.5,173.833 388.5,173.5C 384.5,172.833 380.5,172.167 376.5,171.5C 377.167,170.167 377.833,168.833 378.5,167.5C 381.144,164.52 383.811,161.52 386.5,158.5C 389.429,162.694 392.095,167.027 394.5,171.5 Z"/></g>
<g><path style="opacity:0.959" fill="#d4a24d" d="M 241.5,171.5 C 239.139,171.674 236.806,172.007 234.5,172.5C 234.5,172.167 234.5,171.833 234.5,171.5C 236.924,165.067 240.591,159.4 245.5,154.5C 249.49,159.113 252.156,164.446 253.5,170.5C 249.298,170.183 245.298,170.517 241.5,171.5 Z"/></g>
<g><path style="opacity:0.976" fill="#d9a64f" d="M 302.5,169.5 C 302.5,169.833 302.5,170.167 302.5,170.5C 299.686,171.165 296.686,171.498 293.5,171.5C 290.087,171.483 287.087,170.816 284.5,169.5C 286.406,164.685 289.073,160.351 292.5,156.5C 296.096,160.722 299.429,165.055 302.5,169.5 Z"/></g>
<g><path style="opacity:0.966" fill="#d8a44e" d="M 344.5,163.5 C 346.156,166.139 347.822,168.805 349.5,171.5C 343.5,172.833 337.5,172.833 331.5,171.5C 332.513,169.473 333.513,167.473 334.5,165.5C 336.064,162.726 337.897,160.059 340,157.5C 341.764,159.389 343.264,161.389 344.5,163.5 Z"/></g>
<g><path style="opacity:0.455" fill="#372a1c" d="M 357.5,162.5 C 356.453,165.596 355.12,168.596 353.5,171.5C 358.792,172.495 364.125,172.828 369.5,172.5C 368.787,169.406 367.787,166.406 366.5,163.5C 366.435,163.062 366.601,162.728 367,162.5C 369.116,163.69 371.116,165.023 373,166.5C 374.584,165.139 376.418,164.472 378.5,164.5C 378.5,165.5 378.5,166.5 378.5,167.5C 377.833,168.833 377.167,170.167 376.5,171.5C 375.957,171.56 375.624,171.893 375.5,172.5C 379.783,173.492 384.116,173.826 388.5,173.5C 390.5,173.833 392.5,174.167 394.5,174.5C 394.5,173.5 394.5,172.5 394.5,171.5C 395.568,170.566 396.901,170.232 398.5,170.5C 398.5,171.5 398.5,172.5 398.5,173.5C 398.369,174.239 398.536,174.906 399,175.5C 403.26,179.049 407.427,182.716 411.5,186.5C 412.429,185.311 412.762,183.978 412.5,182.5C 413.552,182.351 414.552,182.517 415.5,183C 415.167,183.333 414.833,183.667 414.5,184C 415.973,184.71 416.64,185.876 416.5,187.5C 418.681,187.284 420.347,188.117 421.5,190C 418.774,190.182 416.107,190.682 413.5,191.5C 413.624,192.107 413.957,192.44 414.5,192.5C 416.628,197.083 418.461,201.75 420,206.5C 420.852,205.429 421.685,204.429 422.5,203.5C 424.573,206.902 426.573,210.402 428.5,214C 427.552,214.483 426.552,214.649 425.5,214.5C 423.685,213.37 421.685,212.704 419.5,212.5C 419.5,218.833 419.5,225.167 419.5,231.5C 420.959,231.567 422.292,231.234 423.5,230.5C 424.239,230.369 424.906,230.536 425.5,231C 424.53,233.565 423.196,235.732 421.5,237.5C 420.184,240.087 419.517,243.087 419.5,246.5C 419.539,249.917 419.873,253.25 420.5,256.5C 420.918,257.222 421.584,257.722 422.5,258C 419.922,260.157 419.922,261.323 422.5,261.5C 421.311,262.429 419.978,262.762 418.5,262.5C 418.194,265.385 418.527,268.052 419.5,270.5C 419.5,273.833 419.5,277.167 419.5,280.5C 420.82,282.717 421.82,284.883 422.5,287C 421.552,287.483 420.552,287.649 419.5,287.5C 419.178,293.358 419.511,299.025 420.5,304.5C 420.5,305.167 420.833,305.5 421.5,305.5C 423.035,308.33 422.035,309.663 418.5,309.5C 418.177,315.69 418.51,321.69 419.5,327.5C 419.369,328.376 419.702,329.043 420.5,329.5C 423.366,327.568 426.366,325.901 429.5,324.5C 430.043,324.56 430.376,324.893 430.5,325.5C 429.687,326.814 428.687,327.981 427.5,329C 428.784,332.064 428.451,334.898 426.5,337.5C 424.527,336.513 422.527,335.513 420.5,334.5C 419.614,335.325 419.281,336.325 419.5,337.5C 419.5,342.5 419.5,347.5 419.5,352.5C 420.5,352.5 421.5,352.5 422.5,352.5C 422.137,354.911 423.137,356.411 425.5,357C 423.26,357.977 420.927,358.477 418.5,358.5C 419.422,363.472 419.588,368.472 419,373.5C 417.595,374.731 416.429,376.064 415.5,377.5C 415.5,354.5 415.5,331.5 415.5,308.5C 415.5,304.167 415.5,299.833 415.5,295.5C 415.5,283.833 415.5,272.167 415.5,260.5C 415.5,256.5 415.5,252.5 415.5,248.5C 415.373,237.148 415.706,225.815 416.5,214.5C 416.884,210.511 416.217,206.845 414.5,203.5C 410.777,189.777 402.11,181.11 388.5,177.5C 385.375,176.521 382.042,176.187 378.5,176.5C 366.833,176.5 355.167,176.5 343.5,176.5C 341.167,176.5 338.833,176.5 336.5,176.5C 324.5,176.5 312.5,176.5 300.5,176.5C 297.833,176.5 295.167,176.5 292.5,176.5C 280.5,176.5 268.5,176.5 256.5,176.5C 248.747,176.201 241.08,176.534 233.5,177.5C 233.216,175.585 233.549,173.919 234.5,172.5C 236.806,172.007 239.139,171.674 241.5,171.5C 245.833,171.5 250.167,171.5 254.5,171.5C 254.5,169.5 254.5,167.5 254.5,165.5C 255.552,165.351 256.552,165.517 257.5,166C 256.829,166.986 256.829,168.153 257.5,169.5C 257.5,170.167 257.5,170.833 257.5,171.5C 260.482,172.165 263.648,172.498 267,172.5C 270.693,172.416 274.193,171.75 277.5,170.5C 278.167,171.167 278.833,171.833 279.5,172.5C 280.865,171.193 282.198,171.193 283.5,172.5C 290.2,172.83 296.866,172.497 303.5,171.5C 303.376,170.893 303.043,170.56 302.5,170.5C 302.5,170.167 302.5,169.833 302.5,169.5C 304.357,168.235 306.024,168.568 307.5,170.5C 310.428,171.82 313.761,172.486 317.5,172.5C 320.833,172.167 324.167,171.833 327.5,171.5C 327.376,170.893 327.043,170.56 326.5,170.5C 325.431,168.031 324.098,165.698 322.5,163.5C 322.369,162.624 322.702,161.957 323.5,161.5C 327.094,162.426 330.76,162.759 334.5,162.5C 334.5,163.5 334.5,164.5 334.5,165.5C 333.513,167.473 332.513,169.473 331.5,171.5C 337.5,172.833 343.5,172.833 349.5,171.5C 347.822,168.805 346.156,166.139 344.5,163.5C 344.312,161.897 344.812,160.563 346,159.5C 350.271,160.355 354.104,161.355 357.5,162.5 Z"/></g>
<g><path style="opacity:0.682" fill="#74582d" d="M 376.5,171.5 C 380.5,172.167 384.5,172.833 388.5,173.5C 384.116,173.826 379.783,173.492 375.5,172.5C 375.624,171.893 375.957,171.56 376.5,171.5 Z"/></g>
<g><path style="opacity:0.612" fill="#71562c" d="M 308.5,169.5 C 311.087,170.816 314.087,171.483 317.5,171.5C 320.686,171.498 323.686,171.165 326.5,170.5C 327.043,170.56 327.376,170.893 327.5,171.5C 324.167,171.833 320.833,172.167 317.5,172.5C 313.761,172.486 310.428,171.82 307.5,170.5C 307.5,169.833 307.833,169.5 308.5,169.5 Z"/></g>
<g><path style="opacity:0.757" fill="#816231" d="M 284.5,169.5 C 287.087,170.816 290.087,171.483 293.5,171.5C 296.686,171.498 299.686,171.165 302.5,170.5C 303.043,170.56 303.376,170.893 303.5,171.5C 296.866,172.497 290.2,172.83 283.5,172.5C 283.263,171.209 283.596,170.209 284.5,169.5 Z"/></g>
<g><path style="opacity:0.897" fill="#cf9e4b" d="M 412.5,182.5 C 412.762,183.978 412.429,185.311 411.5,186.5C 407.427,182.716 403.26,179.049 399,175.5C 398.536,174.906 398.369,174.239 398.5,173.5C 403.273,171.467 408.273,170.467 413.5,170.5C 413.354,174.519 413.021,178.519 412.5,182.5 Z"/></g>
<g><path style="opacity:0.97" fill="#f6b481" d="M 343.5,176.5 C 355.167,176.5 366.833,176.5 378.5,176.5C 374.696,184.103 370.362,191.436 365.5,198.5C 364.836,200.487 363.669,202.154 362,203.5C 355.587,194.601 349.42,185.601 343.5,176.5 Z"/></g>
<g><path style="opacity:0.946" fill="#dc5943" d="M 103.5,130.5 C 113.729,140.393 124.063,150.393 134.5,160.5C 134.649,161.552 134.483,162.552 134,163.5C 129.283,169.377 124.783,175.377 120.5,181.5C 115.095,186.912 109.428,191.912 103.5,196.5C 102.928,195.027 102.095,193.693 101,192.5C 100.5,173.17 100.333,153.836 100.5,134.5C 100.5,133.167 100.5,131.833 100.5,130.5C 101.5,130.5 102.5,130.5 103.5,130.5 Z"/></g>
<g><path style="opacity:0.948" fill="#9aebcf" d="M 109.5,157.5 C 117.121,157.946 119.621,161.946 117,169.5C 115.666,173.104 113.166,174.271 109.5,173C 105.603,167.735 105.603,162.569 109.5,157.5 Z"/></g>
<g><path style="opacity:0.988" fill="#e4dac0" d="M 256.5,176.5 C 262.657,185.471 268.823,194.471 275,203.5C 280.832,194.505 286.665,185.505 292.5,176.5C 295.167,176.5 297.833,176.5 300.5,176.5C 306.153,185.79 312.319,194.79 319,203.5C 324.663,194.348 330.496,185.348 336.5,176.5C 338.833,176.5 341.167,176.5 343.5,176.5C 349.42,185.601 355.587,194.601 362,203.5C 363.669,202.154 364.836,200.487 365.5,198.5C 368.609,198.655 371.609,199.322 374.5,200.5C 375.633,203.256 374.633,205.089 371.5,206C 374.035,206.348 376.369,207.681 378.5,210C 377.035,211.893 375.369,213.56 373.5,215C 373.667,215.5 373.833,216 374,216.5C 374.667,215.167 375.333,215.167 376,216.5C 376.483,217.448 376.649,218.448 376.5,219.5C 379.866,219.212 383.2,219.046 386.5,219C 384.694,220.806 382.86,222.64 381,224.5C 378.915,223.353 377.415,224.02 376.5,226.5C 375.808,225.975 375.308,225.308 375,224.5C 374.184,225.823 373.017,226.489 371.5,226.5C 354.658,226.637 337.824,226.303 321,225.5C 315.445,225.48 309.945,225.98 304.5,227C 301.338,229.759 299.504,233.259 299,237.5C 298.5,256.164 298.333,274.83 298.5,293.5C 297.733,294.172 297.066,295.005 296.5,296C 292.179,296.499 287.846,296.666 283.5,296.5C 283.167,296.5 282.833,296.5 282.5,296.5C 281.791,295.596 280.791,295.263 279.5,295.5C 279.5,290.5 279.5,285.5 279.5,280.5C 279.268,267.816 279.602,255.149 280.5,242.5C 279.661,233.746 278.494,225.08 277,216.5C 275.2,214.683 273.034,213.516 270.5,213C 262.125,212.262 253.792,212.595 245.5,214C 243.232,215.558 242.066,217.724 242,220.5C 241.333,241.5 241.333,262.5 242,283.5C 242.18,286.956 242.847,290.289 244,293.5C 244.5,294 245,294.5 245.5,295C 250.813,295.999 256.146,296.332 261.5,296C 262.191,294.933 262.691,293.766 263,292.5C 263.816,275.475 263.483,258.475 262,241.5C 259.959,240.577 257.792,240.244 255.5,240.5C 256.635,257.501 257.635,274.501 258.5,291.5C 254.894,291.789 251.394,291.456 248,290.5C 246.2,266.509 246.033,242.509 247.5,218.5C 256.109,216.997 264.609,217.33 273,219.5C 273.751,227.176 274.584,234.842 275.5,242.5C 275.186,272.148 274.519,301.815 273.5,331.5C 272.833,331.5 272.5,331.833 272.5,332.5C 267.167,332.5 261.833,332.5 256.5,332.5C 256.823,326.31 256.49,320.31 255.5,314.5C 255.389,313.883 255.056,313.383 254.5,313C 246.118,312.804 237.785,312.304 229.5,311.5C 228.383,279.146 227.05,246.813 225.5,214.5C 222.34,200.815 225.007,188.482 233.5,177.5C 241.08,176.534 248.747,176.201 256.5,176.5 Z"/></g>
<g><path style="opacity:0.99" fill="#f9b682" d="M 300.5,176.5 C 312.5,176.5 324.5,176.5 336.5,176.5C 330.496,185.348 324.663,194.348 319,203.5C 312.319,194.79 306.153,185.79 300.5,176.5 Z"/></g>
<g><path style="opacity:0.898" fill="#f0af7d" d="M 256.5,176.5 C 268.5,176.5 280.5,176.5 292.5,176.5C 286.665,185.505 280.832,194.505 275,203.5C 268.823,194.471 262.657,185.471 256.5,176.5 Z"/></g>
<g><path style="opacity:0.989" fill="#dea950" d="M 178.5,178.5 C 179.766,179.09 181.099,179.59 182.5,180C 187.316,184.981 192.316,189.815 197.5,194.5C 198.945,196.063 200.611,197.396 202.5,198.5C 203.141,199.482 203.807,200.482 204.5,201.5C 201.694,202.168 199.028,202.834 196.5,203.5C 192.443,203.848 188.443,204.514 184.5,205.5C 182.5,205.5 180.5,205.5 178.5,205.5C 178.5,196.5 178.5,187.5 178.5,178.5 Z"/></g>
<g><path style="opacity:0.968" fill="#cf9d4b" d="M 422.5,203.5 C 421.685,204.429 420.852,205.429 420,206.5C 418.461,201.75 416.628,197.083 414.5,192.5C 419.79,191.128 425.124,191.461 430.5,193.5C 428.19,197.141 425.523,200.474 422.5,203.5 Z"/></g>
<g><path style="opacity:0.965" fill="#dba64f" d="M 120.5,181.5 C 120.5,189.833 120.5,198.167 120.5,206.5C 119.833,206.5 119.167,206.5 118.5,206.5C 110.521,206.653 102.521,206.32 94.5,205.5C 97.8062,202.86 100.806,199.86 103.5,196.5C 109.428,191.912 115.095,186.912 120.5,181.5 Z"/></g>
<g><path style="opacity:0.899" fill="#ecad7c" d="M 388.5,177.5 C 402.11,181.11 410.777,189.777 414.5,203.5C 404.126,204.009 393.792,205.009 383.5,206.5C 384.931,196.676 386.598,187.009 388.5,177.5 Z"/></g>
<g><path style="opacity:0.99" fill="#d5a34e" d="M 197.5,210.5 C 199.199,210.34 200.866,210.506 202.5,211C 199.798,213.995 196.798,216.495 193.5,218.5C 189.142,221.013 185.142,224.013 181.5,227.5C 179.558,222.944 178.892,217.944 179.5,212.5C 185.463,211.655 191.463,210.988 197.5,210.5 Z"/></g>
<g><path style="opacity:0.976" fill="#e1d7bd" d="M 378.5,176.5 C 382.042,176.187 385.375,176.521 388.5,177.5C 386.598,187.009 384.931,196.676 383.5,206.5C 393.792,205.009 404.126,204.009 414.5,203.5C 416.217,206.845 416.884,210.511 416.5,214.5C 409.325,219.324 402.658,224.991 396.5,231.5C 399.828,234.494 403.161,237.494 406.5,240.5C 406.209,241.649 405.376,242.316 404,242.5C 402.333,242.167 400.667,241.833 399,241.5C 396.976,242.513 395.143,243.846 393.5,245.5C 393.089,244.738 392.923,243.738 393,242.5C 391.5,244 390,245.5 388.5,247C 389.833,247.333 391.167,247.667 392.5,248C 391.469,251.529 389.469,254.362 386.5,256.5C 385.914,256.291 385.414,255.957 385,255.5C 384.64,257.608 383.973,259.608 383,261.5C 382.768,260.263 382.268,259.263 381.5,258.5C 381.666,249.827 381.5,241.16 381,232.5C 378.157,229.837 374.991,227.837 371.5,226.5C 373.017,226.489 374.184,225.823 375,224.5C 375.308,225.308 375.808,225.975 376.5,226.5C 377.415,224.02 378.915,223.353 381,224.5C 382.86,222.64 384.694,220.806 386.5,219C 383.2,219.046 379.866,219.212 376.5,219.5C 376.649,218.448 376.483,217.448 376,216.5C 375.333,215.167 374.667,215.167 374,216.5C 373.833,216 373.667,215.5 373.5,215C 375.369,213.56 377.035,211.893 378.5,210C 376.369,207.681 374.035,206.348 371.5,206C 374.633,205.089 375.633,203.256 374.5,200.5C 371.609,199.322 368.609,198.655 365.5,198.5C 370.362,191.436 374.696,184.103 378.5,176.5 Z"/></g>
<g><path style="opacity:0.967" fill="#554d35" d="M 122.5,212.5 C 130.988,219.821 139.322,227.321 147.5,235C 149.833,237 152.167,237 154.5,235C 162.724,227.271 171.057,219.771 179.5,212.5C 178.892,217.944 179.558,222.944 181.5,227.5C 172.204,237.815 162.704,247.815 153,257.5C 149.704,256.87 146.87,255.37 144.5,253C 136.864,246.365 129.53,239.365 122.5,232C 120.685,231.243 119.019,230.41 117.5,229.5C 119.144,229.714 120.644,229.38 122,228.5C 122.461,223.816 122.295,219.149 121.5,214.5C 122.338,214.158 122.672,213.492 122.5,212.5 Z"/></g>
<g><path style="opacity:0.486" fill="#2c2217" d="M 196.5,203.5 C 198.288,203.215 199.955,203.548 201.5,204.5C 199.554,206.085 198.221,208.085 197.5,210.5C 191.463,210.988 185.463,211.655 179.5,212.5C 171.057,219.771 162.724,227.271 154.5,235C 152.167,237 149.833,237 147.5,235C 139.322,227.321 130.988,219.821 122.5,212.5C 113.346,212.987 104.346,212.32 95.5,210.5C 95.5,209.5 95.5,208.5 95.5,207.5C 100.511,207.334 105.511,207.501 110.5,208C 110.93,208.92 111.264,209.753 111.5,210.5C 113.381,208.266 115.715,206.933 118.5,206.5C 119.167,206.5 119.833,206.5 120.5,206.5C 122.179,206.892 123.846,207.392 125.5,208C 135.261,214.592 144.594,221.759 153.5,229.5C 159.033,223.802 165.033,218.635 171.5,214C 173.527,211.906 175.194,209.573 176.5,207C 179.365,206.817 182.031,206.317 184.5,205.5C 188.443,204.514 192.443,203.848 196.5,203.5 Z"/></g>
<g><path style="opacity:0.941" fill="#d5a24d" d="M 121.5,214.5 C 122.295,219.149 122.461,223.816 122,228.5C 120.644,229.38 119.144,229.714 117.5,229.5C 116.167,228.833 114.833,228.167 113.5,227.5C 111.178,225.336 108.511,223.669 105.5,222.5C 102.362,220.193 99.6952,217.359 97.5,214C 105.677,213.177 113.677,213.344 121.5,214.5 Z"/></g>
<g><path style="opacity:0.944" fill="#d2a04c" d="M 425.5,214.5 C 429.032,216.454 432.032,219.121 434.5,222.5C 430.792,225.223 427.125,227.89 423.5,230.5C 422.292,231.234 420.959,231.567 419.5,231.5C 419.5,225.167 419.5,218.833 419.5,212.5C 421.685,212.704 423.685,213.37 425.5,214.5 Z"/></g>
<g><path style="opacity:0.937" fill="#afa590" d="M 217.5,214.5 C 218.209,213.596 219.209,213.263 220.5,213.5C 221.486,217.97 221.819,222.637 221.5,227.5C 220.515,223.366 220.182,219.032 220.5,214.5C 219.5,214.5 218.5,214.5 217.5,214.5 Z"/></g>
<g><path style="opacity:0.492" fill="#30261b" d="M 371.5,226.5 C 374.991,227.837 378.157,229.837 381,232.5C 381.5,241.16 381.666,249.827 381.5,258.5C 381.187,262.042 381.521,265.375 382.5,268.5C 382.5,288.833 382.5,309.167 382.5,329.5C 382.667,347.17 382.5,364.836 382,382.5C 380.062,380.022 377.895,379.855 375.5,382C 376.696,382.654 376.696,383.154 375.5,383.5C 374.501,369.85 374.167,356.183 374.5,342.5C 374.032,336.671 373.365,331.004 372.5,325.5C 372.389,324.883 372.056,324.383 371.5,324C 361.5,323.667 351.5,323.333 341.5,323C 340.594,321.301 340.261,319.467 340.5,317.5C 349.839,317.666 359.173,317.5 368.5,317C 370.378,315.457 371.878,313.624 373,311.5C 373.426,286.816 373.759,262.149 374,237.5C 372.039,234.865 369.539,233.031 366.5,232C 348.167,231.333 329.833,231.333 311.5,232C 309.622,233.543 308.122,235.376 307,237.5C 305.73,251.804 305.23,266.137 305.5,280.5C 304.833,287.678 304.167,295.011 303.5,302.5C 301.756,299.453 300.089,296.453 298.5,293.5C 298.333,274.83 298.5,256.164 299,237.5C 299.504,233.259 301.338,229.759 304.5,227C 309.945,225.98 315.445,225.48 321,225.5C 337.824,226.303 354.658,226.637 371.5,226.5 Z"/></g>
<g><path style="opacity:0.919" fill="#eeaf7d" d="M 416.5,214.5 C 415.706,225.815 415.373,237.148 415.5,248.5C 412.5,245.833 409.5,243.167 406.5,240.5C 403.161,237.494 399.828,234.494 396.5,231.5C 402.658,224.991 409.325,219.324 416.5,214.5 Z"/></g>
<g><path style="opacity:0.789" fill="#c09348" d="M 421.5,238.5 C 426.016,241.256 430.349,244.256 434.5,247.5C 432.988,250.349 430.655,252.016 427.5,252.5C 427.631,251.761 427.464,251.094 427,250.5C 425.974,253.693 423.808,255.026 420.5,254.5C 420.179,248.974 420.512,243.64 421.5,238.5 Z"/></g>
<g><path style="opacity:0.627" fill="#8f6d38" d="M 421.5,237.5 C 421.5,237.833 421.5,238.167 421.5,238.5C 420.512,243.64 420.179,248.974 420.5,254.5C 423.808,255.026 425.974,253.693 427,250.5C 427.464,251.094 427.631,251.761 427.5,252.5C 425.948,255.112 423.614,256.445 420.5,256.5C 419.873,253.25 419.539,249.917 419.5,246.5C 419.517,243.087 420.184,240.087 421.5,237.5 Z"/></g>
<g><path style="opacity:0.769" fill="#cbc0a7" d="M 406.5,240.5 C 409.5,243.167 412.5,245.833 415.5,248.5C 415.5,252.5 415.5,256.5 415.5,260.5C 409.894,265.431 404.227,270.431 398.5,275.5C 398.617,273.516 397.95,271.85 396.5,270.5C 394.497,272.133 393.164,274.133 392.5,276.5C 389.813,276.664 387.146,276.497 384.5,276C 386.396,274.192 386.896,272.025 386,269.5C 385.282,270.451 384.449,270.617 383.5,270C 384.227,268.601 384.727,267.101 385,265.5C 387.256,269.489 388.756,269.323 389.5,265C 389.333,264.167 389.167,263.333 389,262.5C 386.959,263.423 384.792,263.756 382.5,263.5C 382.5,265.167 382.5,266.833 382.5,268.5C 381.521,265.375 381.187,262.042 381.5,258.5C 382.268,259.263 382.768,260.263 383,261.5C 383.973,259.608 384.64,257.608 385,255.5C 385.414,255.957 385.914,256.291 386.5,256.5C 389.469,254.362 391.469,251.529 392.5,248C 391.167,247.667 389.833,247.333 388.5,247C 390,245.5 391.5,244 393,242.5C 392.923,243.738 393.089,244.738 393.5,245.5C 395.143,243.846 396.976,242.513 399,241.5C 400.667,241.833 402.333,242.167 404,242.5C 405.376,242.316 406.209,241.649 406.5,240.5 Z"/></g>
<g><path style="opacity:0.51" fill="#745830" d="M 422.5,265.5 C 420.57,269.373 419.903,273.706 420.5,278.5C 421.833,278.5 423.167,278.5 424.5,278.5C 423.07,279.537 421.403,280.204 419.5,280.5C 419.5,277.167 419.5,273.833 419.5,270.5C 419.337,268.143 419.503,265.81 420,263.5C 420.995,264.066 421.828,264.733 422.5,265.5 Z"/></g>
<g><path style="opacity:0.69" fill="#b18743" d="M 422.5,265.5 C 426.757,266.962 430.757,268.962 434.5,271.5C 431.149,273.859 427.815,276.192 424.5,278.5C 423.167,278.5 421.833,278.5 420.5,278.5C 419.903,273.706 420.57,269.373 422.5,265.5 Z"/></g>
<g><path style="opacity:0.976" fill="#e1d7bd" d="M 372.5,325.5 C 372.666,330.179 372.499,334.845 372,339.5C 370.235,341.774 368.068,343.441 365.5,344.5C 362.709,343.27 360.042,341.77 357.5,340C 344.5,339.667 331.5,339.333 318.5,339C 314.333,337.5 311.5,334.667 310,330.5C 309,327.5 308,324.5 307,321.5C 306.022,307.849 305.522,294.183 305.5,280.5C 305.23,266.137 305.73,251.804 307,237.5C 308.122,235.376 309.622,233.543 311.5,232C 329.833,231.333 348.167,231.333 366.5,232C 369.539,233.031 372.039,234.865 374,237.5C 373.759,262.149 373.426,286.816 373,311.5C 371.878,313.624 370.378,315.457 368.5,317C 359.173,317.5 349.839,317.666 340.5,317.5C 340.261,319.467 340.594,321.301 341.5,323C 351.5,323.333 361.5,323.667 371.5,324C 372.056,324.383 372.389,324.883 372.5,325.5 Z"/></g>
<g><path style="opacity:0.964" fill="#5a533a" d="M 319.5,268.5 C 325.905,270.543 331.905,273.543 337.5,277.5C 331.977,281.595 325.977,284.595 319.5,286.5C 319.5,280.5 319.5,274.5 319.5,268.5 Z"/></g>
<g><path style="opacity:0.94" fill="#585038" d="M 319.5,239.5 C 325.813,241.158 331.48,244.158 336.5,248.5C 331.639,252.365 326.306,255.365 320.5,257.5C 319.637,251.545 319.303,245.545 319.5,239.5 Z"/></g>
<g><path style="opacity:0.897" fill="#e1a675" d="M 415.5,260.5 C 415.5,272.167 415.5,283.833 415.5,295.5C 412.86,292.194 409.86,289.194 406.5,286.5C 403.499,283.668 400.333,281.002 397,278.5C 396.415,277.002 396.915,276.002 398.5,275.5C 404.227,270.431 409.894,265.431 415.5,260.5 Z"/></g>
<g><path style="opacity:0.975" fill="#e1d8be" d="M 217.5,214.5 C 218.5,214.5 219.5,214.5 220.5,214.5C 220.182,219.032 220.515,223.366 221.5,227.5C 222.238,247.329 222.904,267.162 223.5,287C 223.498,295.196 222.831,303.03 221.5,310.5C 216.637,310.181 211.97,310.514 207.5,311.5C 188.509,312.568 169.509,313.068 150.5,313C 145.002,311.916 140.002,309.749 135.5,306.5C 132.471,304.628 130.305,301.961 129,298.5C 127.652,285.875 127.152,273.209 127.5,260.5C 130.346,261.334 132.513,263 134,265.5C 134.689,264.643 135.522,263.977 136.5,263.5C 137.551,264.885 138.884,265.885 140.5,266.5C 142.898,266.899 145.398,266.899 148,266.5C 148.5,267 149,267.5 149.5,268C 149.166,270.001 149.166,271.835 149.5,273.5C 151.167,272.167 152.833,270.833 154.5,269.5C 155.293,269.931 156.127,270.265 157,270.5C 158.482,268.888 160.315,267.888 162.5,267.5C 161.561,264.197 160.561,260.864 159.5,257.5C 165.12,250.042 170.953,242.708 177,235.5C 177.837,233.993 179.004,233.493 180.5,234C 181.041,248.826 181.875,263.66 183,278.5C 183.465,279.931 184.299,281.097 185.5,282C 198.849,285.762 206.349,280.929 208,267.5C 208.333,252.833 208.667,238.167 209,223.5C 209.607,218.393 212.44,215.393 217.5,214.5 Z"/></g>
<g><path style="opacity:0.705" fill="#7b7060" d="M 279.5,280.5 C 279.5,285.5 279.5,290.5 279.5,295.5C 280.791,295.263 281.791,295.596 282.5,296.5C 281.167,296.5 279.833,296.5 278.5,296.5C 278.179,290.974 278.512,285.64 279.5,280.5 Z"/></g>
<g><path style="opacity:0.986" fill="#e2ad54" d="M 198.5,289.5 C 203.728,291.248 208.728,293.581 213.5,296.5C 208.941,300.074 203.941,302.741 198.5,304.5C 198.5,299.5 198.5,294.5 198.5,289.5 Z"/></g>
<g><path style="opacity:0.489" fill="#32271c" d="M 279.5,280.5 C 278.512,285.64 278.179,290.974 278.5,296.5C 279.833,296.5 281.167,296.5 282.5,296.5C 282.833,296.5 283.167,296.5 283.5,296.5C 285.631,297.314 287.964,297.814 290.5,298C 287.347,299.157 284.681,300.991 282.5,303.5C 281.167,303.5 279.833,303.5 278.5,303.5C 277.911,307.971 278.577,311.971 280.5,315.5C 281.376,315.369 282.043,315.702 282.5,316.5C 281.051,317.172 279.718,317.839 278.5,318.5C 277.176,323.234 277.176,328.067 278.5,333C 284.45,332.185 290.45,331.352 296.5,330.5C 297.261,334.363 299.261,337.363 302.5,339.5C 301.675,340.386 300.675,340.719 299.5,340.5C 292.569,339.28 285.736,337.613 279,335.5C 278.228,335.645 277.561,335.978 277,336.5C 276.506,338.134 276.34,339.801 276.5,341.5C 275.85,341.804 275.183,342.137 274.5,342.5C 273.511,338.893 273.177,335.226 273.5,331.5C 274.519,301.815 275.186,272.148 275.5,242.5C 274.584,234.842 273.751,227.176 273,219.5C 264.609,217.33 256.109,216.997 247.5,218.5C 246.033,242.509 246.2,266.509 248,290.5C 251.394,291.456 254.894,291.789 258.5,291.5C 257.635,274.501 256.635,257.501 255.5,240.5C 257.792,240.244 259.959,240.577 262,241.5C 263.483,258.475 263.816,275.475 263,292.5C 262.691,293.766 262.191,294.933 261.5,296C 256.146,296.332 250.813,295.999 245.5,295C 245,294.5 244.5,294 244,293.5C 242.847,290.289 242.18,286.956 242,283.5C 241.333,262.5 241.333,241.5 242,220.5C 242.066,217.724 243.232,215.558 245.5,214C 253.792,212.595 262.125,212.262 270.5,213C 273.034,213.516 275.2,214.683 277,216.5C 278.494,225.08 279.661,233.746 280.5,242.5C 279.602,255.149 279.268,267.816 279.5,280.5 Z"/></g>
<g><path style="opacity:0.913" fill="#cf9d4b" d="M 421.5,305.5 C 420.833,305.5 420.5,305.167 420.5,304.5C 420.334,299.156 420.501,293.823 421,288.5C 425.871,290.352 430.371,292.852 434.5,296C 429.423,298.257 425.09,301.424 421.5,305.5 Z"/></g>
<g><path style="opacity:0.983" fill="#e0ae59" d="M 173.5,288.5 C 179.699,290.264 185.699,292.598 191.5,295.5C 187.324,298.088 183.324,300.921 179.5,304C 177.956,305.187 176.289,305.52 174.5,305C 173.527,299.593 173.193,294.093 173.5,288.5 Z"/></g>
<g><path style="opacity:0.979" fill="#5c553d" d="M 319.5,295.5 C 325.488,297.965 331.155,301.131 336.5,305C 331.059,308.717 325.392,311.884 319.5,314.5C 319.5,308.167 319.5,301.833 319.5,295.5 Z"/></g>
<g><path style="opacity:0.987" fill="#dc5742" d="M 282.5,303.5 C 286.571,305.635 290.905,306.968 295.5,307.5C 295.714,309.144 295.38,310.644 294.5,312C 289.5,312.364 284.834,313.53 280.5,315.5C 278.577,311.971 277.911,307.971 278.5,303.5C 279.833,303.5 281.167,303.5 282.5,303.5 Z"/></g>
<g><path style="opacity:0.341" fill="#35291c" d="M 225.5,214.5 C 227.05,246.813 228.383,279.146 229.5,311.5C 237.785,312.304 246.118,312.804 254.5,313C 255.056,313.383 255.389,313.883 255.5,314.5C 255.5,320.167 255.5,325.833 255.5,331.5C 249.833,331.5 244.167,331.5 238.5,331.5C 234.167,331.5 229.833,331.5 225.5,331.5C 206.483,330.016 187.483,330.182 168.5,332C 159.028,333.47 154.194,338.97 154,348.5C 153.271,358.527 153.437,368.527 154.5,378.5C 162.174,378.666 169.841,378.5 177.5,378C 178.333,377.167 179.167,376.333 180,375.5C 180.333,368.5 180.667,361.5 181,354.5C 183.196,351.875 186.03,350.875 189.5,351.5C 198.839,351.334 208.173,351.5 217.5,352C 218.333,352.833 219.167,353.667 220,354.5C 221.217,363.459 221.717,372.459 221.5,381.5C 221.43,386.071 219.096,388.571 214.5,389C 211.518,389.498 208.518,389.665 205.5,389.5C 204.602,388.842 203.602,388.176 202.5,387.5C 214.124,384.935 218.957,377.602 217,365.5C 214.091,358.111 208.591,354.444 200.5,354.5C 187.804,355.479 181.804,362.479 182.5,375.5C 182.225,382.392 185.558,385.892 192.5,386C 194.473,386.495 196.473,386.662 198.5,386.5C 198.5,387.5 198.5,388.5 198.5,389.5C 192.974,389.179 187.64,389.512 182.5,390.5C 168.339,391.194 163.172,398.527 167,412.5C 167.708,413.381 168.542,414.047 169.5,414.5C 184.995,415.661 200.661,415.828 216.5,415C 219.336,414.079 222.002,412.912 224.5,411.5C 225.497,411.47 226.164,411.97 226.5,413C 225.767,414.766 225.433,416.599 225.5,418.5C 211.656,418.171 197.99,418.504 184.5,419.5C 183.84,420.964 183.507,422.631 183.5,424.5C 184.009,428.867 184.676,433.201 185.5,437.5C 184.432,438.434 183.099,438.768 181.5,438.5C 181.5,436.5 181.5,434.5 181.5,432.5C 181.5,428.5 181.5,424.5 181.5,420.5C 173.262,421.286 165.928,424.286 159.5,429.5C 165.648,434.431 172.315,438.431 179.5,441.5C 177.074,442.788 172.741,442.788 166.5,441.5C 167.028,440.153 167.195,438.819 167,437.5C 164.287,435.28 161.454,433.28 158.5,431.5C 157.71,430.599 156.71,429.932 155.5,429.5C 155.511,427.983 156.177,426.816 157.5,426C 160.509,424.496 163.509,422.996 166.5,421.5C 157.989,413.823 149.989,405.656 142.5,397C 144.922,392.244 147.756,387.744 151,383.5C 150,368.818 150.334,354.152 152,339.5C 154.685,336.563 157.519,333.73 160.5,331C 152.425,322.771 142.759,317.271 131.5,314.5C 131.082,313.778 130.416,313.278 129.5,313C 132.95,312.101 133.95,310.101 132.5,307C 133.448,306.517 134.448,306.351 135.5,306.5C 140.002,309.749 145.002,311.916 150.5,313C 169.509,313.068 188.509,312.568 207.5,311.5C 208.5,311.5 209.5,311.5 210.5,311.5C 210.5,312.5 210.5,313.5 210.5,314.5C 204.257,315.008 198.09,316.008 192,317.5C 190.538,317.006 189.038,316.673 187.5,316.5C 179.632,317.378 171.966,318.212 164.5,319C 159.828,321.188 159.828,323.854 164.5,327C 167,327.167 169.5,327.333 172,327.5C 196.231,326.507 220.397,326.34 244.5,327C 247.306,325.695 248.14,323.528 247,320.5C 245.442,318.641 243.609,317.141 241.5,316C 233.905,314.644 226.238,314.144 218.5,314.5C 218.5,313.5 218.5,312.5 218.5,311.5C 219.791,311.737 220.791,311.404 221.5,310.5C 222.831,303.03 223.498,295.196 223.5,287C 222.904,267.162 222.238,247.329 221.5,227.5C 221.819,222.637 221.486,217.97 220.5,213.5C 220.694,211.088 222.027,210.088 224.5,210.5C 224.232,212.099 224.566,213.432 225.5,214.5 Z M 196.5,367.5 C 196.5,369.5 196.5,371.5 196.5,373.5C 199.167,373.5 201.833,373.5 204.5,373.5C 204.5,371.5 204.5,369.5 204.5,367.5C 201.833,367.5 199.167,367.5 196.5,367.5 Z"/></g>
<g><path style="opacity:0.855" fill="#d1c5ac" d="M 406.5,286.5 C 409.86,289.194 412.86,292.194 415.5,295.5C 415.5,299.833 415.5,304.167 415.5,308.5C 414.833,308.5 414.5,308.833 414.5,309.5C 408.497,313.171 402.497,316.838 396.5,320.5C 396.082,319.778 395.416,319.278 394.5,319C 398.86,317.788 400.027,315.288 398,311.5C 396.989,312.337 395.822,312.67 394.5,312.5C 394.169,307.151 396.169,302.985 400.5,300C 398.802,300.497 397.135,300.33 395.5,299.5C 395.255,297.683 395.255,296.016 395.5,294.5C 396.083,292.998 396.916,291.665 398,290.5C 401.854,291.491 404.687,290.158 406.5,286.5 Z"/></g>
<g><path style="opacity:0.258" fill="#3d2e1f" d="M 207.5,311.5 C 211.97,310.514 216.637,310.181 221.5,310.5C 220.791,311.404 219.791,311.737 218.5,311.5C 218.5,312.5 218.5,313.5 218.5,314.5C 226.238,314.144 233.905,314.644 241.5,316C 243.609,317.141 245.442,318.641 247,320.5C 248.14,323.528 247.306,325.695 244.5,327C 220.397,326.34 196.231,326.507 172,327.5C 169.5,327.333 167,327.167 164.5,327C 159.828,323.854 159.828,321.188 164.5,319C 171.966,318.212 179.632,317.378 187.5,316.5C 189.038,316.673 190.538,317.006 192,317.5C 198.09,316.008 204.257,315.008 210.5,314.5C 210.5,313.5 210.5,312.5 210.5,311.5C 209.5,311.5 208.5,311.5 207.5,311.5 Z"/></g>
<g><path style="opacity:0.88" fill="#c8994a" d="M 429.5,324.5 C 426.366,325.901 423.366,327.568 420.5,329.5C 419.702,329.043 419.369,328.376 419.5,327.5C 419.172,322.125 419.505,316.792 420.5,311.5C 425.704,313.712 430.371,316.712 434.5,320.5C 432.79,321.887 431.123,323.221 429.5,324.5 Z"/></g>
<g><path style="opacity:0.988" fill="#db5742" d="M 278.5,318.5 C 287.902,319.851 297.235,321.518 306.5,323.5C 306.719,324.675 306.386,325.675 305.5,326.5C 302.518,328.164 299.518,329.497 296.5,330.5C 290.45,331.352 284.45,332.185 278.5,333C 277.176,328.067 277.176,323.234 278.5,318.5 Z"/></g>
<g><path style="opacity:0.267" fill="#382b1d" d="M 234.5,171.5 C 234.5,171.833 234.5,172.167 234.5,172.5C 233.549,173.919 233.216,175.585 233.5,177.5C 225.007,188.482 222.34,200.815 225.5,214.5C 224.566,213.432 224.232,212.099 224.5,210.5C 222.027,210.088 220.694,211.088 220.5,213.5C 219.209,213.263 218.209,213.596 217.5,214.5C 212.44,215.393 209.607,218.393 209,223.5C 208.667,238.167 208.333,252.833 208,267.5C 206.349,280.929 198.849,285.762 185.5,282C 184.299,281.097 183.465,279.931 183,278.5C 181.875,263.66 181.041,248.826 180.5,234C 179.004,233.493 177.837,233.993 177,235.5C 170.953,242.708 165.12,250.042 159.5,257.5C 157.548,260.118 155.215,262.452 152.5,264.5C 144.658,258.491 137.658,251.658 131.5,244C 129.919,243.293 128.419,242.46 127,241.5C 126.18,248.014 126.347,254.347 127.5,260.5C 127.152,273.209 127.652,285.875 129,298.5C 130.305,301.961 132.471,304.628 135.5,306.5C 134.448,306.351 133.448,306.517 132.5,307C 133.95,310.101 132.95,312.101 129.5,313C 130.416,313.278 131.082,313.778 131.5,314.5C 124.431,315.356 117.764,317.523 111.5,321C 108.113,324.387 104.779,327.721 101.5,331C 105.33,331.816 108.996,333.149 112.5,335C 113.126,335.75 113.626,336.584 114,337.5C 114.947,351.569 114.614,365.569 113,379.5C 111.642,382.788 109.142,384.288 105.5,384C 98.8333,384.333 92.1667,384.667 85.5,385C 84.193,386.943 84.193,388.777 85.5,390.5C 92.3447,391.167 99.3447,391.833 106.5,392.5C 104.955,393.452 103.288,393.785 101.5,393.5C 92.8269,393.334 84.1603,393.5 75.5,394C 73.7732,396.904 73.1065,400.07 73.5,403.5C 72.8337,407.021 72.1671,410.687 71.5,414.5C 70.52,411.914 70.1866,409.247 70.5,406.5C 71.2618,400.275 72.0951,394.275 73,388.5C 73.5354,390.271 74.3687,390.604 75.5,389.5C 73.8333,386.833 72.1667,384.167 70.5,381.5C 70.6236,380.893 70.9569,380.56 71.5,380.5C 84.6127,382.281 97.6127,381.615 110.5,378.5C 111.818,364.482 111.651,350.482 110,336.5C 107.734,335.044 105.234,334.21 102.5,334C 95.6947,333.874 89.0281,333.04 82.5,331.5C 71.9009,329.63 72.2343,327.963 83.5,326.5C 86.8399,326.185 90.0065,326.518 93,327.5C 96.4726,326.342 99.9726,325.176 103.5,324C 105.5,321.667 107.5,319.333 109.5,317C 114.908,314.213 120.075,311.047 125,307.5C 125.53,302.343 124.863,297.343 123,292.5C 122.176,276.926 122.343,261.426 123.5,246C 122.231,239.971 119.064,235.138 114,231.5C 113.51,230.207 113.343,228.873 113.5,227.5C 114.833,228.167 116.167,228.833 117.5,229.5C 119.019,230.41 120.685,231.243 122.5,232C 129.53,239.365 136.864,246.365 144.5,253C 146.87,255.37 149.704,256.87 153,257.5C 162.704,247.815 172.204,237.815 181.5,227.5C 185.142,224.013 189.142,221.013 193.5,218.5C 195.527,218.338 197.527,218.505 199.5,219C 194.615,223.218 190.448,228.052 187,233.5C 186.5,236 186,238.5 185.5,241C 186.096,249.291 186.596,257.791 187,266.5C 188.07,269.242 189.57,271.742 191.5,274C 194.472,274.288 197.139,273.455 199.5,271.5C 201.898,267.366 203.231,262.866 203.5,258C 203.167,247.258 202.5,236.092 201.5,224.5C 202,222.5 202.5,220.5 203,218.5C 208.211,215.557 212.878,211.89 217,207.5C 219.625,198.037 222.625,188.703 226,179.5C 226.333,179.833 226.667,180.167 227,180.5C 228.198,176.806 230.032,173.472 232.5,170.5C 233.183,170.863 233.85,171.196 234.5,171.5 Z"/></g>
<g><path style="opacity:0.89" fill="#d5cbb2" d="M 159.5,257.5 C 160.561,260.864 161.561,264.197 162.5,267.5C 160.315,267.888 158.482,268.888 157,270.5C 156.127,270.265 155.293,269.931 154.5,269.5C 152.833,270.833 151.167,272.167 149.5,273.5C 149.166,271.835 149.166,270.001 149.5,268C 149,267.5 148.5,267 148,266.5C 145.398,266.899 142.898,266.899 140.5,266.5C 138.884,265.885 137.551,264.885 136.5,263.5C 135.522,263.977 134.689,264.643 134,265.5C 132.513,263 130.346,261.334 127.5,260.5C 126.347,254.347 126.18,248.014 127,241.5C 128.419,242.46 129.919,243.293 131.5,244C 137.658,251.658 144.658,258.491 152.5,264.5C 155.215,262.452 157.548,260.118 159.5,257.5 Z"/></g>
<g><path style="opacity:0.875" fill="#e3a776" d="M 414.5,309.5 C 414.832,320.52 414.499,331.52 413.5,342.5C 411.147,340.477 408.814,338.477 406.5,336.5C 403.18,332.404 399.68,328.404 396,324.5C 395.421,323.072 395.588,321.738 396.5,320.5C 402.497,316.838 408.497,313.171 414.5,309.5 Z"/></g>
<g><path style="opacity:0.529" fill="#5c4a30" d="M 255.5,314.5 C 256.49,320.31 256.823,326.31 256.5,332.5C 250.31,332.823 244.31,332.49 238.5,331.5C 244.167,331.5 249.833,331.5 255.5,331.5C 255.5,325.833 255.5,320.167 255.5,314.5 Z"/></g>
<g><path style="opacity:0.946" fill="#ddd3b9" d="M 398.5,275.5 C 396.915,276.002 396.415,277.002 397,278.5C 400.333,281.002 403.499,283.668 406.5,286.5C 404.687,290.158 401.854,291.491 398,290.5C 396.916,291.665 396.083,292.998 395.5,294.5C 395.255,296.016 395.255,297.683 395.5,299.5C 397.135,300.33 398.802,300.497 400.5,300C 396.169,302.985 394.169,307.151 394.5,312.5C 395.822,312.67 396.989,312.337 398,311.5C 400.027,315.288 398.86,317.788 394.5,319C 395.416,319.278 396.082,319.778 396.5,320.5C 395.588,321.738 395.421,323.072 396,324.5C 399.68,328.404 403.18,332.404 406.5,336.5C 405.268,341.191 402.935,341.691 399.5,338C 402.446,335.851 402.613,334.018 400,332.5C 398.745,333.211 397.579,334.044 396.5,335C 399.043,337.351 398.377,338.517 394.5,338.5C 392.74,342.01 391.573,345.676 391,349.5C 393.863,346.499 396.03,343.166 397.5,339.5C 398.696,339.846 398.696,340.346 397.5,341C 399.286,341.196 400.619,342.029 401.5,343.5C 398.8,346.429 399.3,347.096 403,345.5C 405.241,345.68 405.741,346.513 404.5,348C 406.891,348.691 406.891,349.691 404.5,351C 401.175,350.775 398.842,352.108 397.5,355C 398.759,355.923 400.092,356.757 401.5,357.5C 398.561,359.983 395.227,360.817 391.5,360C 390.044,359.577 389.544,358.744 390,357.5C 391.814,358.76 393.647,358.76 395.5,357.5C 392.88,352.856 388.88,350.856 383.5,351.5C 383.825,343.981 383.492,336.648 382.5,329.5C 382.5,309.167 382.5,288.833 382.5,268.5C 382.5,266.833 382.5,265.167 382.5,263.5C 384.792,263.756 386.959,263.423 389,262.5C 389.167,263.333 389.333,264.167 389.5,265C 388.756,269.323 387.256,269.489 385,265.5C 384.727,267.101 384.227,268.601 383.5,270C 384.449,270.617 385.282,270.451 386,269.5C 386.896,272.025 386.396,274.192 384.5,276C 387.146,276.497 389.813,276.664 392.5,276.5C 393.164,274.133 394.497,272.133 396.5,270.5C 397.95,271.85 398.617,273.516 398.5,275.5 Z"/></g>
<g><path style="opacity:0.204" fill="#403020" d="M 105.5,222.5 C 108.511,223.669 111.178,225.336 113.5,227.5C 113.343,228.873 113.51,230.207 114,231.5C 119.064,235.138 122.231,239.971 123.5,246C 122.343,261.426 122.176,276.926 123,292.5C 124.863,297.343 125.53,302.343 125,307.5C 120.075,311.047 114.908,314.213 109.5,317C 107.5,319.333 105.5,321.667 103.5,324C 99.9726,325.176 96.4726,326.342 93,327.5C 90.0065,326.518 86.8399,326.185 83.5,326.5C 72.2343,327.963 71.9009,329.63 82.5,331.5C 77.2346,330.571 72.7346,331.904 69,335.5C 68.3333,348.167 68.3333,360.833 69,373.5C 69.3793,376.03 70.2126,378.363 71.5,380.5C 70.9569,380.56 70.6236,380.893 70.5,381.5C 72.1667,384.167 73.8333,386.833 75.5,389.5C 74.3687,390.604 73.5354,390.271 73,388.5C 72.0951,394.275 71.2618,400.275 70.5,406.5C 68.2988,406.142 66.9655,404.808 66.5,402.5C 67.5485,398.735 68.8819,395.068 70.5,391.5C 69.3869,388.508 68.0536,385.675 66.5,383C 66.8333,382.667 67.1667,382.333 67.5,382C 63.3605,378.388 61.0271,373.722 60.5,368C 60.4565,359.936 60.6232,351.769 61,343.5C 62.3676,334.085 67.5343,327.918 76.5,325C 82.5,324.667 88.5,324.333 94.5,324C 96.5,323.333 98.5,322.667 100.5,322C 107.273,316.205 114.439,311.039 122,306.5C 122.671,302.364 122.171,298.364 120.5,294.5C 120.833,293.833 121.167,293.167 121.5,292.5C 120.58,289.566 119.913,286.566 119.5,283.5C 119.759,270.743 120.092,258.076 120.5,245.5C 116.972,238.472 111.639,233.305 104.5,230C 102.262,227.896 101.262,225.562 101.5,223C 102.793,222.51 104.127,222.343 105.5,222.5 Z"/></g>
<g><path style="opacity:0.855" fill="#bf9248" d="M 426.5,337.5 C 429.102,339.142 431.769,340.808 434.5,342.5C 430.509,345.497 426.509,348.497 422.5,351.5C 420.862,347.087 419.862,342.421 419.5,337.5C 419.281,336.325 419.614,335.325 420.5,334.5C 422.527,335.513 424.527,336.513 426.5,337.5 Z"/></g>
<g><path style="opacity:0.959" fill="#daa64f" d="M 225.5,331.5 C 229.833,331.5 234.167,331.5 238.5,331.5C 244.31,332.49 250.31,332.823 256.5,332.5C 261.833,332.5 267.167,332.5 272.5,332.5C 273.554,343.075 270.554,352.242 263.5,360C 262.167,360.667 260.833,361.333 259.5,362C 251.862,362.985 244.196,363.485 236.5,363.5C 236.913,374.587 236.247,385.587 234.5,396.5C 233.542,396.953 232.708,397.619 232,398.5C 230.506,397.253 229.006,397.253 227.5,398.5C 229.078,399.298 230.744,399.798 232.5,400C 231.929,401.205 231.262,402.372 230.5,403.5C 227.335,402.629 224.002,402.296 220.5,402.5C 221.833,401.167 221.833,399.833 220.5,398.5C 221.263,397.281 222.263,396.281 223.5,395.5C 222.359,394.575 222.359,393.741 223.5,393C 222.833,392.333 222.167,391.667 221.5,391C 223.819,387.664 223.819,384.497 221.5,381.5C 221.717,372.459 221.217,363.459 220,354.5C 219.167,353.667 218.333,352.833 217.5,352C 208.173,351.5 198.839,351.334 189.5,351.5C 196.321,350.671 203.321,350.171 210.5,350C 211.253,348.513 212.086,348.346 213,349.5C 213.492,348.451 213.326,347.451 212.5,346.5C 215.631,345.203 217.964,343.036 219.5,340C 220.449,339.383 221.282,339.549 222,340.5C 224.026,339.142 226.193,338.309 228.5,338C 227.449,336.615 226.116,335.615 224.5,335C 226.373,334.047 226.706,332.88 225.5,331.5 Z"/></g>
<g><path style="opacity:0.541" fill="#6b522b" d="M 419.5,337.5 C 419.862,342.421 420.862,347.087 422.5,351.5C 422.5,351.833 422.5,352.167 422.5,352.5C 421.5,352.5 420.5,352.5 419.5,352.5C 419.5,347.5 419.5,342.5 419.5,337.5 Z"/></g>
<g><path style="opacity:0.125" fill="#453423" d="M 205.5,389.5 C 203.167,389.5 200.833,389.5 198.5,389.5C 198.5,388.5 198.5,387.5 198.5,386.5C 196.473,386.662 194.473,386.495 192.5,386C 185.558,385.892 182.225,382.392 182.5,375.5C 181.804,362.479 187.804,355.479 200.5,354.5C 208.591,354.444 214.091,358.111 217,365.5C 218.957,377.602 214.124,384.935 202.5,387.5C 203.602,388.176 204.602,388.842 205.5,389.5 Z M 196.5,367.5 C 196.5,369.5 196.5,371.5 196.5,373.5C 199.167,373.5 201.833,373.5 204.5,373.5C 204.5,371.5 204.5,369.5 204.5,367.5C 201.833,367.5 199.167,367.5 196.5,367.5 Z"/></g>
<g><path style="opacity:0.98" fill="#dda84f" d="M 225.5,331.5 C 226.706,332.88 226.373,334.047 224.5,335C 226.116,335.615 227.449,336.615 228.5,338C 226.193,338.309 224.026,339.142 222,340.5C 221.282,339.549 220.449,339.383 219.5,340C 217.964,343.036 215.631,345.203 212.5,346.5C 213.326,347.451 213.492,348.451 213,349.5C 212.086,348.346 211.253,348.513 210.5,350C 203.321,350.171 196.321,350.671 189.5,351.5C 186.03,350.875 183.196,351.875 181,354.5C 180.667,361.5 180.333,368.5 180,375.5C 179.167,376.333 178.333,377.167 177.5,378C 169.841,378.5 162.174,378.666 154.5,378.5C 153.437,368.527 153.271,358.527 154,348.5C 154.194,338.97 159.028,333.47 168.5,332C 187.483,330.182 206.483,330.016 225.5,331.5 Z"/></g>
<g><path style="opacity:0.747" fill="#b68b45" d="M 419.5,359.5 C 424.327,361.32 428.661,363.986 432.5,367.5C 429.057,370.885 425.057,373.218 420.5,374.5C 420.726,369.438 420.392,364.438 419.5,359.5 Z"/></g>
<g><path style="opacity:0.433" fill="#35281b" d="M 305.5,280.5 C 305.522,294.183 306.022,307.849 307,321.5C 308,324.5 309,327.5 310,330.5C 311.5,334.667 314.333,337.5 318.5,339C 331.5,339.333 344.5,339.667 357.5,340C 360.042,341.77 362.709,343.27 365.5,344.5C 368.068,343.441 370.235,341.774 372,339.5C 372.499,334.845 372.666,330.179 372.5,325.5C 373.365,331.004 374.032,336.671 374.5,342.5C 374.167,342.5 373.833,342.5 373.5,342.5C 371.152,344.68 368.652,346.68 366,348.5C 363.209,345.87 360.042,343.87 356.5,342.5C 355.505,354.989 355.171,367.656 355.5,380.5C 348.167,380.5 340.833,380.5 333.5,380.5C 324.904,379.166 316.238,378.332 307.5,378C 318.5,377.667 329.5,377.333 340.5,377C 344.062,376.261 347.228,374.761 350,372.5C 352.966,364.118 352.966,355.784 350,347.5C 344.529,342.42 338.362,341.087 331.5,343.5C 324.969,343.011 318.469,342.344 312,341.5C 310.989,342.056 310.156,342.722 309.5,343.5C 306.06,342.489 302.726,341.489 299.5,340.5C 300.675,340.719 301.675,340.386 302.5,339.5C 299.261,337.363 297.261,334.363 296.5,330.5C 299.518,329.497 302.518,328.164 305.5,326.5C 306.386,325.675 306.719,324.675 306.5,323.5C 297.235,321.518 287.902,319.851 278.5,318.5C 279.718,317.839 281.051,317.172 282.5,316.5C 282.043,315.702 281.376,315.369 280.5,315.5C 284.834,313.53 289.5,312.364 294.5,312C 295.38,310.644 295.714,309.144 295.5,307.5C 290.905,306.968 286.571,305.635 282.5,303.5C 284.681,300.991 287.347,299.157 290.5,298C 287.964,297.814 285.631,297.314 283.5,296.5C 287.846,296.666 292.179,296.499 296.5,296C 297.066,295.005 297.733,294.172 298.5,293.5C 300.089,296.453 301.756,299.453 303.5,302.5C 304.167,295.011 304.833,287.678 305.5,280.5 Z"/></g>
<g><path style="opacity:0.965" fill="#dca84f" d="M 82.5,331.5 C 89.0281,333.04 95.6947,333.874 102.5,334C 105.234,334.21 107.734,335.044 110,336.5C 111.651,350.482 111.818,364.482 110.5,378.5C 97.6127,381.615 84.6127,382.281 71.5,380.5C 70.2126,378.363 69.3793,376.03 69,373.5C 68.3333,360.833 68.3333,348.167 69,335.5C 72.7346,331.904 77.2346,330.571 82.5,331.5 Z"/></g>
<g><path style="opacity:0.948" fill="#544c35" d="M 154.5,380.5 C 163.192,380.169 171.859,380.502 180.5,381.5C 175.021,386.735 169.354,391.735 163.5,396.5C 163.321,402.435 163.154,408.435 163,414.5C 158,408.833 153,403.167 148,397.5C 147.333,395.833 147.333,394.167 148,392.5C 150.635,388.767 152.802,384.767 154.5,380.5 Z"/></g>
<g><path style="opacity:0.963" fill="#e2d8be" d="M 131.5,314.5 C 142.759,317.271 152.425,322.771 160.5,331C 157.519,333.73 154.685,336.563 152,339.5C 150.334,354.152 150,368.818 151,383.5C 147.756,387.744 144.922,392.244 142.5,397C 149.989,405.656 157.989,413.823 166.5,421.5C 163.509,422.996 160.509,424.496 157.5,426C 156.177,426.816 155.511,427.983 155.5,429.5C 155.649,430.552 155.483,431.552 155,432.5C 151.667,429.167 148.333,425.833 145,422.5C 141.373,426.767 138.539,431.434 136.5,436.5C 143.131,435.669 149.798,435.336 156.5,435.5C 156.157,433.517 156.824,432.183 158.5,431.5C 161.454,433.28 164.287,435.28 167,437.5C 167.195,438.819 167.028,440.153 166.5,441.5C 159.559,445.396 152.226,448.063 144.5,449.5C 131.001,452.272 118.501,449.939 107,442.5C 107.708,436.969 107.541,431.469 106.5,426C 100.732,423.772 94.7316,422.939 88.5,423.5C 96.3872,421.154 104.554,419.154 113,417.5C 113.823,408.99 113.657,400.656 112.5,392.5C 111.737,391.732 110.737,391.232 109.5,391C 101.507,390.5 93.5069,390.334 85.5,390.5C 84.193,388.777 84.193,386.943 85.5,385C 92.1667,384.667 98.8333,384.333 105.5,384C 109.142,384.288 111.642,382.788 113,379.5C 114.614,365.569 114.947,351.569 114,337.5C 113.626,336.584 113.126,335.75 112.5,335C 108.996,333.149 105.33,331.816 101.5,331C 104.779,327.721 108.113,324.387 111.5,321C 117.764,317.523 124.431,315.356 131.5,314.5 Z"/></g>
<g><path style="opacity:0.709" fill="#b38a44" d="M 420.5,381.5 C 424.787,383.65 428.787,386.317 432.5,389.5C 428.939,392.862 425.105,395.862 421,398.5C 420.501,392.843 420.334,387.176 420.5,381.5 Z"/></g>
<g><path style="opacity:0.478" fill="#554634" d="M 85.5,390.5 C 93.5069,390.334 101.507,390.5 109.5,391C 110.737,391.232 111.737,391.732 112.5,392.5C 111.167,392.5 110.5,393.167 110.5,394.5C 107.287,394.81 104.287,394.477 101.5,393.5C 103.288,393.785 104.955,393.452 106.5,392.5C 99.3447,391.833 92.3447,391.167 85.5,390.5 Z"/></g>
<g><path style="opacity:0.974" fill="#a09678" d="M 131.5,395.5 C 132.5,395.5 133.5,395.5 134.5,395.5C 136.833,400.167 139.167,404.833 141.5,409.5C 135.571,410.71 129.571,411.71 123.5,412.5C 125.41,406.418 128.076,400.751 131.5,395.5 Z"/></g>
<g><path style="opacity:0.875" fill="#ce9d4b" d="M 221.5,381.5 C 223.819,384.497 223.819,387.664 221.5,391C 222.167,391.667 222.833,392.333 223.5,393C 222.359,393.741 222.359,394.575 223.5,395.5C 222.263,396.281 221.263,397.281 220.5,398.5C 221.833,399.833 221.833,401.167 220.5,402.5C 224.002,402.296 227.335,402.629 230.5,403.5C 231.262,402.372 231.929,401.205 232.5,400C 230.744,399.798 229.078,399.298 227.5,398.5C 229.006,397.253 230.506,397.253 232,398.5C 232.708,397.619 233.542,396.953 234.5,396.5C 234.477,398.927 233.977,401.26 233,403.5C 230.271,406.399 227.438,409.066 224.5,411.5C 222.002,412.912 219.336,414.079 216.5,415C 200.661,415.828 184.995,415.661 169.5,414.5C 171.865,413.992 174.199,413.325 176.5,412.5C 176.212,410.952 176.212,409.285 176.5,407.5C 178.638,408.429 179.804,410.096 180,412.5C 180.5,411.5 181,410.5 181.5,409.5C 186.508,408.429 191.175,406.596 195.5,404C 194.167,402.333 192.833,400.667 191.5,399C 193.651,398.809 195.651,397.642 197.5,395.5C 200.399,396.494 201.066,395.494 199.5,392.5C 200.729,391.719 202.062,391.219 203.5,391C 196.508,390.5 189.508,390.334 182.5,390.5C 187.64,389.512 192.974,389.179 198.5,389.5C 200.833,389.5 203.167,389.5 205.5,389.5C 208.518,389.665 211.518,389.498 214.5,389C 219.096,388.571 221.43,386.071 221.5,381.5 Z"/></g>
<g><path style="opacity:0.729" fill="#c7baa1" d="M 415.5,308.5 C 415.5,331.5 415.5,354.5 415.5,377.5C 415.447,387.512 415.113,397.512 414.5,407.5C 409.531,408.627 404.531,409.627 399.5,410.5C 399.461,409.417 399.127,408.417 398.5,407.5C 400.77,406.407 401.103,404.907 399.5,403C 400.022,402.05 400.689,401.216 401.5,400.5C 401,400.167 400.5,399.833 400,399.5C 397.312,401.878 394.479,402.045 391.5,400C 395.525,398.428 395.358,397.261 391,396.5C 391.148,395.175 390.982,394.008 390.5,393C 389.062,392.781 387.729,392.281 386.5,391.5C 387.325,390.614 388.325,390.281 389.5,390.5C 389.48,388.857 390.147,387.524 391.5,386.5C 390.833,386.167 390.167,385.833 389.5,385.5C 387.506,387.16 385.506,388.827 383.5,390.5C 383.5,377.5 383.5,364.5 383.5,351.5C 388.88,350.856 392.88,352.856 395.5,357.5C 393.647,358.76 391.814,358.76 390,357.5C 389.544,358.744 390.044,359.577 391.5,360C 395.227,360.817 398.561,359.983 401.5,357.5C 400.092,356.757 398.759,355.923 397.5,355C 398.842,352.108 401.175,350.775 404.5,351C 406.891,349.691 406.891,348.691 404.5,348C 405.741,346.513 405.241,345.68 403,345.5C 399.3,347.096 398.8,346.429 401.5,343.5C 400.619,342.029 399.286,341.196 397.5,341C 398.696,340.346 398.696,339.846 397.5,339.5C 396.03,343.166 393.863,346.499 391,349.5C 391.573,345.676 392.74,342.01 394.5,338.5C 398.377,338.517 399.043,337.351 396.5,335C 397.579,334.044 398.745,333.211 400,332.5C 402.613,334.018 402.446,335.851 399.5,338C 402.935,341.691 405.268,341.191 406.5,336.5C 408.814,338.477 411.147,340.477 413.5,342.5C 414.499,331.52 414.832,320.52 414.5,309.5C 414.5,308.833 414.833,308.5 415.5,308.5 Z"/></g>
<g><path style="opacity:0.824" fill="#daa072" d="M 413.5,358.5 C 414.659,369.326 414.826,380.326 414,391.5C 408.979,385.398 403.812,379.398 398.5,373.5C 399,372.5 399.5,371.5 400,370.5C 404.694,366.635 409.194,362.635 413.5,358.5 Z"/></g>
<g><path style="opacity:0.958" fill="#d8a54e" d="M 182.5,390.5 C 189.508,390.334 196.508,390.5 203.5,391C 202.062,391.219 200.729,391.719 199.5,392.5C 201.066,395.494 200.399,396.494 197.5,395.5C 195.651,397.642 193.651,398.809 191.5,399C 192.833,400.667 194.167,402.333 195.5,404C 191.175,406.596 186.508,408.429 181.5,409.5C 181,410.5 180.5,411.5 180,412.5C 179.804,410.096 178.638,408.429 176.5,407.5C 176.212,409.285 176.212,410.952 176.5,412.5C 174.199,413.325 171.865,413.992 169.5,414.5C 168.542,414.047 167.708,413.381 167,412.5C 163.172,398.527 168.339,391.194 182.5,390.5 Z"/></g>
<g><path style="opacity:0.596" fill="#afa28a" d="M 399.5,410.5 C 398.833,410.5 398.167,410.5 397.5,410.5C 395.239,409.383 393.072,408.05 391,406.5C 390.167,407.5 389.333,408.5 388.5,409.5C 385.573,407.345 382.906,407.345 380.5,409.5C 381.256,403.117 382.256,396.784 383.5,390.5C 385.506,388.827 387.506,387.16 389.5,385.5C 390.167,385.833 390.833,386.167 391.5,386.5C 390.147,387.524 389.48,388.857 389.5,390.5C 388.325,390.281 387.325,390.614 386.5,391.5C 387.729,392.281 389.062,392.781 390.5,393C 390.982,394.008 391.148,395.175 391,396.5C 395.358,397.261 395.525,398.428 391.5,400C 394.479,402.045 397.312,401.878 400,399.5C 400.5,399.833 401,400.167 401.5,400.5C 400.689,401.216 400.022,402.05 399.5,403C 401.103,404.907 400.77,406.407 398.5,407.5C 399.127,408.417 399.461,409.417 399.5,410.5 Z"/></g>
<g><path style="opacity:0.965" fill="#dba74f" d="M 101.5,393.5 C 104.287,394.477 107.287,394.81 110.5,394.5C 110.726,401.876 110.392,409.209 109.5,416.5C 98.1984,417.805 86.865,418.305 75.5,418C 73.7283,413.369 73.0616,408.536 73.5,403.5C 73.1065,400.07 73.7732,396.904 75.5,394C 84.1603,393.5 92.8269,393.334 101.5,393.5 Z"/></g>
<g><path style="opacity:0.786" fill="#d59e70" d="M 414.5,407.5 C 412.966,415.304 410.966,422.97 408.5,430.5C 407.033,431.292 405.7,431.292 404.5,430.5C 402.753,427.506 401.42,424.339 400.5,421C 400.164,419.97 399.497,419.47 398.5,419.5C 398.713,416.549 398.046,413.882 396.5,411.5C 397.167,411.5 397.5,411.167 397.5,410.5C 398.167,410.5 398.833,410.5 399.5,410.5C 404.531,409.627 409.531,408.627 414.5,407.5 Z"/></g>
<g><path style="opacity:0.792" fill="#bd9046" d="M 418.5,406.5 C 423.694,407.433 428.027,409.933 431.5,414C 427.794,417.522 423.461,420.022 418.5,421.5C 418.5,416.5 418.5,411.5 418.5,406.5 Z"/></g>
<g><path style="opacity:0.909" fill="#534a33" d="M 181.5,432.5 C 180.755,435.39 180.088,438.39 179.5,441.5C 172.315,438.431 165.648,434.431 159.5,429.5C 165.928,424.286 173.262,421.286 181.5,420.5C 181.5,424.5 181.5,428.5 181.5,432.5 Z"/></g>
<g><path style="opacity:0.533" fill="#ab9c85" d="M 396.5,411.5 C 398.046,413.882 398.713,416.549 398.5,419.5C 396.236,420.219 393.903,420.552 391.5,420.5C 391.33,421.822 391.663,422.989 392.5,424C 391.584,424.278 390.918,424.778 390.5,425.5C 390.167,425.5 389.833,425.5 389.5,425.5C 387.312,424.464 387.312,422.964 389.5,421C 382.792,417.194 383.125,415.861 390.5,417C 387.716,419.08 388.049,419.747 391.5,419C 392.212,417.575 392.379,416.075 392,414.5C 393.615,413.614 395.115,412.614 396.5,411.5 Z"/></g>
<g><path style="opacity:0.916" fill="#d2a04c" d="M 184.5,419.5 C 198.5,419.5 212.5,419.5 226.5,419.5C 225.892,423.472 225.392,427.472 225,431.5C 223.833,432.667 222.667,433.833 221.5,435C 209.632,438.463 197.632,439.296 185.5,437.5C 184.676,433.201 184.009,428.867 183.5,424.5C 183.507,422.631 183.84,420.964 184.5,419.5 Z"/></g>
<g><path style="opacity:0.967" fill="#9f9476" d="M 117.5,422.5 C 120.41,424.239 122.91,426.572 125,429.5C 126.559,431.217 127.392,433.217 127.5,435.5C 122.5,435.5 117.5,435.5 112.5,435.5C 112.676,430.636 114.343,426.302 117.5,422.5 Z"/></g>
<g><path style="opacity:0.82" fill="#cabea5" d="M 398.5,419.5 C 399.497,419.47 400.164,419.97 400.5,421C 401.42,424.339 402.753,427.506 404.5,430.5C 405.7,431.292 407.033,431.292 408.5,430.5C 405.691,436.452 401.691,441.452 396.5,445.5C 394.317,443.144 391.65,442.811 388.5,444.5C 386.618,440.585 387.618,437.752 391.5,436C 391.167,435.833 390.833,435.667 390.5,435.5C 385.83,436.075 381.497,437.241 377.5,439C 379.53,437.104 381.197,434.937 382.5,432.5C 385.762,436.3 387.762,435.967 388.5,431.5C 389.425,432.641 390.259,432.641 391,431.5C 391.789,429.288 391.622,427.288 390.5,425.5C 390.918,424.778 391.584,424.278 392.5,424C 391.663,422.989 391.33,421.822 391.5,420.5C 393.903,420.552 396.236,420.219 398.5,419.5 Z"/></g>
<g><path style="opacity:0.963" fill="#d7a44e" d="M 100.5,426.5 C 101.209,427.404 102.209,427.737 103.5,427.5C 103.5,431.167 103.5,434.833 103.5,438.5C 103.5,439.167 103.167,439.5 102.5,439.5C 94.8045,439.831 87.1378,439.497 79.5,438.5C 76.8847,434.96 75.8847,430.96 76.5,426.5C 84.4304,425.618 92.4304,425.618 100.5,426.5 Z"/></g>
<g><path style="opacity:0.747" fill="#806131" d="M 100.5,426.5 C 101.833,426.5 103.167,426.5 104.5,426.5C 104.817,430.702 104.483,434.702 103.5,438.5C 103.5,434.833 103.5,431.167 103.5,427.5C 102.209,427.737 101.209,427.404 100.5,426.5 Z"/></g>
<g><path style="opacity:0.839" fill="#c39549" d="M 418.5,426.5 C 421.703,430.026 424.036,434.026 425.5,438.5C 422.572,438.565 419.905,439.232 417.5,440.5C 414.753,440.813 412.086,440.48 409.5,439.5C 411.763,435.21 413.929,430.877 416,426.5C 416.977,425.226 417.811,425.226 418.5,426.5 Z"/></g>
<g><path style="opacity:0.905" fill="#544c34" d="M 329.5,427.5 C 326.223,432.446 322.223,436.779 317.5,440.5C 318.832,442.833 320.832,444.166 323.5,444.5C 327.038,446.769 330.705,448.769 334.5,450.5C 331.367,451.011 328.2,451.344 325,451.5C 292.878,449.096 260.711,448.096 228.5,448.5C 225.61,447.755 222.61,447.088 219.5,446.5C 219.414,445.504 219.748,444.671 220.5,444C 256.668,437.416 293.001,431.916 329.5,427.5 Z"/></g>
<g><path style="opacity:0.948" fill="#9e9476" d="M 155.5,429.5 C 156.71,429.932 157.71,430.599 158.5,431.5C 156.824,432.183 156.157,433.517 156.5,435.5C 149.798,435.336 143.131,435.669 136.5,436.5C 138.539,431.434 141.373,426.767 145,422.5C 148.333,425.833 151.667,429.167 155,432.5C 155.483,431.552 155.649,430.552 155.5,429.5 Z"/></g>
<g><path style="opacity:0.941" fill="#dcd2b8" d="M 329.5,427.5 C 329.833,427.5 330.167,427.5 330.5,427.5C 334.167,427.5 337.833,427.5 341.5,427.5C 341.799,429.604 341.466,431.604 340.5,433.5C 339.833,432.5 339.167,431.5 338.5,430.5C 336.774,433.227 334.441,435.227 331.5,436.5C 332.025,437.192 332.692,437.692 333.5,438C 332.549,438.718 332.383,439.551 333,440.5C 334,438.833 335.333,437.5 337,436.5C 337.333,437.167 337.667,437.833 338,438.5C 338.718,437.549 339.551,437.383 340.5,438C 337.79,439.46 337.124,441.46 338.5,444C 340.809,444.756 342.809,444.256 344.5,442.5C 344.833,442.833 345.167,443.167 345.5,443.5C 343.159,445.545 340.826,447.545 338.5,449.5C 338.167,449.167 337.833,448.833 337.5,448.5C 338.5,447.667 339.5,446.833 340.5,446C 337.808,445.57 335.141,445.737 332.5,446.5C 332.5,444.833 332.5,443.167 332.5,441.5C 329.618,442.77 326.618,443.77 323.5,444.5C 320.832,444.166 318.832,442.833 317.5,440.5C 322.223,436.779 326.223,432.446 329.5,427.5 Z"/></g>
<g><path style="opacity:0.91" fill="#cec4ab" d="M 397.5,410.5 C 397.5,411.167 397.167,411.5 396.5,411.5C 395.115,412.614 393.615,413.614 392,414.5C 392.379,416.075 392.212,417.575 391.5,419C 388.049,419.747 387.716,419.08 390.5,417C 383.125,415.861 382.792,417.194 389.5,421C 387.312,422.964 387.312,424.464 389.5,425.5C 387.354,426.431 385.188,426.097 383,424.5C 378.047,424.907 373.547,426.407 369.5,429C 368.167,430 368.167,431 369.5,432C 372.466,433.266 375.466,434.433 378.5,435.5C 378.333,435.833 378.167,436.167 378,436.5C 372.976,437.668 367.976,437.335 363,435.5C 362.5,435.833 362,436.167 361.5,436.5C 362.313,437.814 363.313,438.981 364.5,440C 363.348,442.149 361.848,443.982 360,445.5C 359.405,444.101 359.572,442.768 360.5,441.5C 358.288,438.758 356.955,439.258 356.5,443C 354.403,444.61 352.07,445.777 349.5,446.5C 348.05,447.85 347.383,449.516 347.5,451.5C 343.069,451.769 338.735,451.436 334.5,450.5C 330.705,448.769 327.038,446.769 323.5,444.5C 326.618,443.77 329.618,442.77 332.5,441.5C 332.5,443.167 332.5,444.833 332.5,446.5C 335.141,445.737 337.808,445.57 340.5,446C 339.5,446.833 338.5,447.667 337.5,448.5C 337.833,448.833 338.167,449.167 338.5,449.5C 340.826,447.545 343.159,445.545 345.5,443.5C 345.167,443.167 344.833,442.833 344.5,442.5C 342.809,444.256 340.809,444.756 338.5,444C 337.124,441.46 337.79,439.46 340.5,438C 339.551,437.383 338.718,437.549 338,438.5C 337.667,437.833 337.333,437.167 337,436.5C 335.333,437.5 334,438.833 333,440.5C 332.383,439.551 332.549,438.718 333.5,438C 332.692,437.692 332.025,437.192 331.5,436.5C 334.441,435.227 336.774,433.227 338.5,430.5C 339.167,431.5 339.833,432.5 340.5,433.5C 341.466,431.604 341.799,429.604 341.5,427.5C 337.833,427.5 334.167,427.5 330.5,427.5C 341.365,426.495 352.365,425.328 363.5,424C 371.464,421.87 377.13,417.037 380.5,409.5C 382.906,407.345 385.573,407.345 388.5,409.5C 389.333,408.5 390.167,407.5 391,406.5C 393.072,408.05 395.239,409.383 397.5,410.5 Z"/></g>
<g><path style="opacity:0.879" fill="#d9ceb5" d="M 389.5,425.5 C 389.833,425.5 390.167,425.5 390.5,425.5C 391.622,427.288 391.789,429.288 391,431.5C 390.259,432.641 389.425,432.641 388.5,431.5C 387.762,435.967 385.762,436.3 382.5,432.5C 381.197,434.937 379.53,437.104 377.5,439C 381.497,437.241 385.83,436.075 390.5,435.5C 390.833,435.667 391.167,435.833 391.5,436C 387.618,437.752 386.618,440.585 388.5,444.5C 391.65,442.811 394.317,443.144 396.5,445.5C 390.889,448.325 384.889,449.825 378.5,450C 368.19,451.017 357.857,451.517 347.5,451.5C 347.383,449.516 348.05,447.85 349.5,446.5C 352.07,445.777 354.403,444.61 356.5,443C 356.955,439.258 358.288,438.758 360.5,441.5C 359.572,442.768 359.405,444.101 360,445.5C 361.848,443.982 363.348,442.149 364.5,440C 363.313,438.981 362.313,437.814 361.5,436.5C 362,436.167 362.5,435.833 363,435.5C 367.976,437.335 372.976,437.668 378,436.5C 378.167,436.167 378.333,435.833 378.5,435.5C 375.466,434.433 372.466,433.266 369.5,432C 368.167,431 368.167,430 369.5,429C 373.547,426.407 378.047,424.907 383,424.5C 385.188,426.097 387.354,426.431 389.5,425.5 Z"/></g>
<g><path style="opacity:0.345" fill="#392c1f" d="M 88.5,423.5 C 94.7316,422.939 100.732,423.772 106.5,426C 107.541,431.469 107.708,436.969 107,442.5C 118.501,449.939 131.001,452.272 144.5,449.5C 147.621,450.548 150.621,451.048 153.5,451C 135.13,458.528 117.964,456.361 102,444.5C 100.644,445.38 99.1439,445.714 97.5,445.5C 93.6475,444.834 89.6475,444.167 85.5,443.5C 84.5,442.833 83.5,442.167 82.5,441.5C 89.3214,440.833 95.9881,440.167 102.5,439.5C 103.167,439.5 103.5,439.167 103.5,438.5C 104.483,434.702 104.817,430.702 104.5,426.5C 103.167,426.5 101.833,426.5 100.5,426.5C 92.4304,425.618 84.4304,425.618 76.5,426.5C 75.3882,424.401 74.7215,422.067 74.5,419.5C 78.5,419.5 82.5,419.5 86.5,419.5C 86.2291,421.38 86.8958,422.713 88.5,423.5 Z"/></g>
<g><path style="opacity:0.203" fill="#403020" d="M 382.5,329.5 C 383.492,336.648 383.825,343.981 383.5,351.5C 383.5,364.5 383.5,377.5 383.5,390.5C 382.256,396.784 381.256,403.117 380.5,409.5C 377.13,417.037 371.464,421.87 363.5,424C 352.365,425.328 341.365,426.495 330.5,427.5C 330.167,427.5 329.833,427.5 329.5,427.5C 293.001,431.916 256.668,437.416 220.5,444C 219.748,444.671 219.414,445.504 219.5,446.5C 205.389,445.617 191.222,445.284 177,445.5C 172.531,446.662 168.031,447.829 163.5,449C 147.921,458.476 131.588,460.143 114.5,454C 109.833,452 105.167,450 100.5,448C 95.7709,447.727 91.1042,447.061 86.5,446C 90.2542,446.086 93.9209,445.92 97.5,445.5C 99.1439,445.714 100.644,445.38 102,444.5C 117.964,456.361 135.13,458.528 153.5,451C 150.621,451.048 147.621,450.548 144.5,449.5C 152.226,448.063 159.559,445.396 166.5,441.5C 172.741,442.788 177.074,442.788 179.5,441.5C 180.088,438.39 180.755,435.39 181.5,432.5C 181.5,434.5 181.5,436.5 181.5,438.5C 183.099,438.768 184.432,438.434 185.5,437.5C 197.632,439.296 209.632,438.463 221.5,435C 222.667,433.833 223.833,432.667 225,431.5C 225.392,427.472 225.892,423.472 226.5,419.5C 212.5,419.5 198.5,419.5 184.5,419.5C 197.99,418.504 211.656,418.171 225.5,418.5C 225.433,416.599 225.767,414.766 226.5,413C 226.164,411.97 225.497,411.47 224.5,411.5C 227.438,409.066 230.271,406.399 233,403.5C 233.977,401.26 234.477,398.927 234.5,396.5C 236.247,385.587 236.913,374.587 236.5,363.5C 244.196,363.485 251.862,362.985 259.5,362C 260.833,361.333 262.167,360.667 263.5,360C 270.554,352.242 273.554,343.075 272.5,332.5C 272.5,331.833 272.833,331.5 273.5,331.5C 273.177,335.226 273.511,338.893 274.5,342.5C 275.183,342.137 275.85,341.804 276.5,341.5C 275.728,345.452 275.395,349.452 275.5,353.5C 287.315,353.321 298.982,351.988 310.5,349.5C 311.978,349.238 313.311,349.571 314.5,350.5C 309.253,356.427 302.586,359.594 294.5,360C 287.449,360.211 280.449,360.878 273.5,362C 265.056,365.983 256.389,369.483 247.5,372.5C 244.758,374.897 243.758,377.73 244.5,381C 243.712,384.076 243.212,387.242 243,390.5C 242.727,392.329 241.893,393.829 240.5,395C 241.476,397.147 241.309,399.314 240,401.5C 238.724,404.28 237.224,406.947 235.5,409.5C 234.069,409.977 232.736,410.643 231.5,411.5C 232.025,412.192 232.692,412.692 233.5,413C 232.061,417.634 230.727,422.301 229.5,427C 230.833,429.667 232.833,431.667 235.5,433C 234.269,434.183 234.269,435.349 235.5,436.5C 238.012,434.533 240.679,434.2 243.5,435.5C 244.428,433.665 245.594,433.332 247,434.5C 254.276,431.453 261.776,428.953 269.5,427C 272.115,426.145 274.448,424.812 276.5,423C 272.933,417.876 269.599,412.543 266.5,407C 263.823,387.987 272.156,377.321 291.5,375C 305.225,374.643 318.891,373.81 332.5,372.5C 334.382,373.093 336.215,373.76 338,374.5C 340.64,372.68 343.473,371.346 346.5,370.5C 348.289,364.981 348.789,359.315 348,353.5C 343.914,346.555 338.247,344.555 331,347.5C 326.343,345.219 321.509,344.885 316.5,346.5C 313.982,345.736 311.649,344.736 309.5,343.5C 310.156,342.722 310.989,342.056 312,341.5C 318.469,342.344 324.969,343.011 331.5,343.5C 338.362,341.087 344.529,342.42 350,347.5C 352.966,355.784 352.966,364.118 350,372.5C 347.228,374.761 344.062,376.261 340.5,377C 329.5,377.333 318.5,377.667 307.5,378C 316.238,378.332 324.904,379.166 333.5,380.5C 333.5,380.833 333.5,381.167 333.5,381.5C 317.085,381.028 300.751,381.695 284.5,383.5C 280.252,383.332 277.085,384.999 275,388.5C 271.954,400.56 273.454,411.893 279.5,422.5C 280.434,414.582 281.768,406.748 283.5,399C 284.13,397.69 285.13,396.856 286.5,396.5C 288.517,397.529 290.517,398.529 292.5,399.5C 292.586,403.857 292.92,408.19 293.5,412.5C 292.504,412.414 291.671,412.748 291,413.5C 291.266,416.901 289.766,418.567 286.5,418.5C 286.33,419.822 286.663,420.989 287.5,422C 291.674,423.221 295.674,424.054 299.5,424.5C 304.297,422.24 309.297,421.907 314.5,423.5C 315.308,423.192 315.975,422.692 316.5,422C 331.376,419.934 346.376,418.101 361.5,416.5C 363.908,415.547 366.075,414.213 368,412.5C 368.561,413.022 369.228,413.355 370,413.5C 372.672,411.161 375.338,408.828 378,406.5C 377.848,404.924 377.015,403.591 375.5,402.5C 375.709,401.914 376.043,401.414 376.5,401C 374.603,399.89 372.77,399.724 371,400.5C 370.536,399.906 370.369,399.239 370.5,398.5C 373.273,393.282 374.273,387.616 373.5,381.5C 373.5,368.5 373.5,355.5 373.5,342.5C 373.833,342.5 374.167,342.5 374.5,342.5C 374.167,356.183 374.501,369.85 375.5,383.5C 376.696,383.154 376.696,382.654 375.5,382C 377.895,379.855 380.062,380.022 382,382.5C 382.5,364.836 382.667,347.17 382.5,329.5 Z M 253.5,378.5 C 252.404,388.515 250.904,398.515 249,408.5C 247.648,413.373 245.148,417.54 241.5,421C 241.93,422.434 242.764,423.601 244,424.5C 245.194,422.475 246.694,422.141 248.5,423.5C 251.308,422.03 254.308,421.197 257.5,421C 258.578,420.326 259.245,419.326 259.5,418C 256.672,404.744 257.005,391.577 260.5,378.5C 258.167,378.5 255.833,378.5 253.5,378.5 Z M 328.5,355.5 C 327.061,357.588 326.394,359.921 326.5,362.5C 319.914,362.935 319.414,363.935 325,365.5C 329.903,364.857 334.736,364.524 339.5,364.5C 339.5,361.5 339.5,358.5 339.5,355.5C 335.833,355.5 332.167,355.5 328.5,355.5 Z"/></g>
<g><path style="opacity:0.118" fill="#463423" d="M 370.5,398.5 C 370.369,399.239 370.536,399.906 371,400.5C 372.77,399.724 374.603,399.89 376.5,401C 376.043,401.414 375.709,401.914 375.5,402.5C 377.015,403.591 377.848,404.924 378,406.5C 375.338,408.828 372.672,411.161 370,413.5C 369.228,413.355 368.561,413.022 368,412.5C 366.075,414.213 363.908,415.547 361.5,416.5C 346.376,418.101 331.376,419.934 316.5,422C 315.975,422.692 315.308,423.192 314.5,423.5C 309.297,421.907 304.297,422.24 299.5,424.5C 295.674,424.054 291.674,423.221 287.5,422C 286.663,420.989 286.33,419.822 286.5,418.5C 289.766,418.567 291.266,416.901 291,413.5C 291.671,412.748 292.504,412.414 293.5,412.5C 294.161,413.718 294.828,415.051 295.5,416.5C 295.923,412.386 297.256,408.72 299.5,405.5C 301.628,406.629 303.961,406.796 306.5,406C 307.5,402.667 308.5,402.667 309.5,406C 328.671,406.81 347.671,405.31 366.5,401.5C 364.604,400.534 362.604,400.201 360.5,400.5C 363.725,399.763 367.059,399.097 370.5,398.5 Z"/></g>
<g><path style="opacity:0.352" fill="#35281b" d="M 360.5,400.5 C 362.604,400.201 364.604,400.534 366.5,401.5C 347.671,405.31 328.671,406.81 309.5,406C 308.5,402.667 307.5,402.667 306.5,406C 303.961,406.796 301.628,406.629 299.5,405.5C 300.527,403.806 301.861,402.473 303.5,401.5C 305.5,401.5 307.5,401.5 309.5,401.5C 318.833,402.833 328.167,402.833 337.5,401.5C 338.5,401.5 339.5,401.5 340.5,401.5C 347.202,401.664 353.869,401.331 360.5,400.5 Z"/></g>
<g><path style="opacity:0.888" fill="#5d5034" d="M 337.5,401.5 C 328.167,402.833 318.833,402.833 309.5,401.5C 313.638,398.594 317.971,395.927 322.5,393.5C 323.48,396.086 323.813,398.753 323.5,401.5C 328.167,401.5 332.833,401.5 337.5,401.5 Z"/></g>
<g><path style="opacity:0.945" fill="#574e35" d="M 303.5,401.5 C 301.861,402.473 300.527,403.806 299.5,405.5C 297.256,408.72 295.923,412.386 295.5,416.5C 294.828,415.051 294.161,413.718 293.5,412.5C 292.92,408.19 292.586,403.857 292.5,399.5C 293.023,392.642 296.69,389.308 303.5,389.5C 303.5,393.5 303.5,397.5 303.5,401.5 Z"/></g>
<g><path style="opacity:0.919" fill="#d7a44e" d="M 333.5,381.5 C 335.924,381.192 338.257,381.526 340.5,382.5C 340.032,384.134 339.032,385.3 337.5,386C 341.172,386.795 343.838,385.461 345.5,382C 347.807,381.221 349.807,381.721 351.5,383.5C 353.017,382.089 354.351,382.256 355.5,384C 352.332,384.582 351.999,385.582 354.5,387C 353.207,387.49 351.873,387.657 350.5,387.5C 349.311,392.442 350.977,395.775 355.5,397.5C 354.833,398.167 354.167,398.833 353.5,399.5C 349.018,400.167 344.684,400.834 340.5,401.5C 339.5,401.5 338.5,401.5 337.5,401.5C 332.833,401.5 328.167,401.5 323.5,401.5C 323.813,398.753 323.48,396.086 322.5,393.5C 317.971,395.927 313.638,398.594 309.5,401.5C 307.5,401.5 305.5,401.5 303.5,401.5C 303.5,397.5 303.5,393.5 303.5,389.5C 296.69,389.308 293.023,392.642 292.5,399.5C 290.517,398.529 288.517,397.529 286.5,396.5C 286.946,391.929 286.28,387.596 284.5,383.5C 300.751,381.695 317.085,381.028 333.5,381.5 Z"/></g>
<g><path style="opacity:0.949" fill="#554d35" d="M 284.5,383.5 C 286.28,387.596 286.946,391.929 286.5,396.5C 285.13,396.856 284.13,397.69 283.5,399C 281.768,406.748 280.434,414.582 279.5,422.5C 273.454,411.893 271.954,400.56 275,388.5C 277.085,384.999 280.252,383.332 284.5,383.5 Z"/></g>
<g><path style="opacity:0.871" fill="#c09247" d="M 356.5,342.5 C 356.333,355.171 356.5,367.838 357,380.5C 360.411,381.293 363.911,381.793 367.5,382C 364.952,384.801 361.952,385.301 358.5,383.5C 358.52,385.143 357.853,386.476 356.5,387.5C 358.296,388.141 359.796,389.141 361,390.5C 365.349,388.747 366.182,389.58 363.5,393C 366.011,393.582 368.011,392.749 369.5,390.5C 369.291,389.914 368.957,389.414 368.5,389C 370.234,386.411 371.9,383.911 373.5,381.5C 374.273,387.616 373.273,393.282 370.5,398.5C 367.059,399.097 363.725,399.763 360.5,400.5C 353.869,401.331 347.202,401.664 340.5,401.5C 344.684,400.834 349.018,400.167 353.5,399.5C 354.167,398.833 354.833,398.167 355.5,397.5C 350.977,395.775 349.311,392.442 350.5,387.5C 351.873,387.657 353.207,387.49 354.5,387C 351.999,385.582 352.332,384.582 355.5,384C 354.351,382.256 353.017,382.089 351.5,383.5C 349.807,381.721 347.807,381.221 345.5,382C 343.838,385.461 341.172,386.795 337.5,386C 339.032,385.3 340.032,384.134 340.5,382.5C 338.257,381.526 335.924,381.192 333.5,381.5C 333.5,381.167 333.5,380.833 333.5,380.5C 340.833,380.5 348.167,380.5 355.5,380.5C 355.171,367.656 355.505,354.989 356.5,342.5 Z"/></g>
<g><path style="opacity:0.959" fill="#d6a44e" d="M 356.5,342.5 C 360.042,343.87 363.209,345.87 366,348.5C 368.652,346.68 371.152,344.68 373.5,342.5C 373.5,355.5 373.5,368.5 373.5,381.5C 371.9,383.911 370.234,386.411 368.5,389C 368.957,389.414 369.291,389.914 369.5,390.5C 368.011,392.749 366.011,393.582 363.5,393C 366.182,389.58 365.349,388.747 361,390.5C 359.796,389.141 358.296,388.141 356.5,387.5C 357.853,386.476 358.52,385.143 358.5,383.5C 361.952,385.301 364.952,384.801 367.5,382C 363.911,381.793 360.411,381.293 357,380.5C 356.5,367.838 356.333,355.171 356.5,342.5 Z"/></g>
<g><path style="opacity:0.12" fill="#483624" d="M 310.5,349.5 C 312.629,348.797 314.629,347.797 316.5,346.5C 321.509,344.885 326.343,345.219 331,347.5C 338.247,344.555 343.914,346.555 348,353.5C 348.789,359.315 348.289,364.981 346.5,370.5C 343.473,371.346 340.64,372.68 338,374.5C 336.215,373.76 334.382,373.093 332.5,372.5C 318.891,373.81 305.225,374.643 291.5,375C 272.156,377.321 263.823,387.987 266.5,407C 269.599,412.543 272.933,417.876 276.5,423C 274.448,424.812 272.115,426.145 269.5,427C 261.776,428.953 254.276,431.453 247,434.5C 245.594,433.332 244.428,433.665 243.5,435.5C 240.679,434.2 238.012,434.533 235.5,436.5C 234.269,435.349 234.269,434.183 235.5,433C 232.833,431.667 230.833,429.667 229.5,427C 230.727,422.301 232.061,417.634 233.5,413C 232.692,412.692 232.025,412.192 231.5,411.5C 232.736,410.643 234.069,409.977 235.5,409.5C 237.224,406.947 238.724,404.28 240,401.5C 241.309,399.314 241.476,397.147 240.5,395C 241.893,393.829 242.727,392.329 243,390.5C 243.212,387.242 243.712,384.076 244.5,381C 243.758,377.73 244.758,374.897 247.5,372.5C 256.389,369.483 265.056,365.983 273.5,362C 280.449,360.878 287.449,360.211 294.5,360C 302.586,359.594 309.253,356.427 314.5,350.5C 313.311,349.571 311.978,349.238 310.5,349.5 Z M 253.5,378.5 C 252.404,388.515 250.904,398.515 249,408.5C 247.648,413.373 245.148,417.54 241.5,421C 241.93,422.434 242.764,423.601 244,424.5C 245.194,422.475 246.694,422.141 248.5,423.5C 251.308,422.03 254.308,421.197 257.5,421C 258.578,420.326 259.245,419.326 259.5,418C 256.672,404.744 257.005,391.577 260.5,378.5C 258.167,378.5 255.833,378.5 253.5,378.5 Z M 328.5,355.5 C 327.061,357.588 326.394,359.921 326.5,362.5C 319.914,362.935 319.414,363.935 325,365.5C 329.903,364.857 334.736,364.524 339.5,364.5C 339.5,361.5 339.5,358.5 339.5,355.5C 335.833,355.5 332.167,355.5 328.5,355.5 Z"/></g>
<g><path style="opacity:0.034" fill="#4e3a27" d="M 338.5,349.5 C 341.091,350.254 342.924,351.921 344,354.5C 344.667,358.167 344.667,361.833 344,365.5C 342.641,368.699 340.141,370.365 336.5,370.5C 329.827,370.17 323.16,369.837 316.5,369.5C 306.536,370.748 296.536,371.581 286.5,372C 273.704,374.13 265.704,381.463 262.5,394C 262.566,398.466 262.566,402.966 262.5,407.5C 264.05,411.661 265.884,415.661 268,419.5C 268.667,420.5 268.667,421.5 268,422.5C 264.575,424.656 260.908,426.322 257,427.5C 255.657,426.786 254.324,427.12 253,428.5C 252.586,428.043 252.086,427.709 251.5,427.5C 237.161,434.153 232.161,429.819 236.5,414.5C 244.573,404.374 247.906,392.874 246.5,380C 250.282,373.624 255.948,370.624 263.5,371C 271.532,364.939 280.865,362.773 291.5,364.5C 299.805,364.175 307.472,361.842 314.5,357.5C 316.707,354.795 319.374,352.629 322.5,351C 328.016,350.827 333.349,350.327 338.5,349.5 Z M 253.5,378.5 C 252.404,388.515 250.904,398.515 249,408.5C 247.648,413.373 245.148,417.54 241.5,421C 241.93,422.434 242.764,423.601 244,424.5C 245.194,422.475 246.694,422.141 248.5,423.5C 251.308,422.03 254.308,421.197 257.5,421C 258.578,420.326 259.245,419.326 259.5,418C 256.672,404.744 257.005,391.577 260.5,378.5C 258.167,378.5 255.833,378.5 253.5,378.5 Z M 328.5,355.5 C 327.061,357.588 326.394,359.921 326.5,362.5C 319.914,362.935 319.414,363.935 325,365.5C 329.903,364.857 334.736,364.524 339.5,364.5C 339.5,361.5 339.5,358.5 339.5,355.5C 335.833,355.5 332.167,355.5 328.5,355.5 Z"/></g>
<g><path style="opacity:0.988" fill="#de5843" d="M 299.5,340.5 C 302.726,341.489 306.06,342.489 309.5,343.5C 311.649,344.736 313.982,345.736 316.5,346.5C 314.629,347.797 312.629,348.797 310.5,349.5C 298.982,351.988 287.315,353.321 275.5,353.5C 275.395,349.452 275.728,345.452 276.5,341.5C 276.34,339.801 276.506,338.134 277,336.5C 277.561,335.978 278.228,335.645 279,335.5C 285.736,337.613 292.569,339.28 299.5,340.5 Z"/></g>
<g><path style="opacity:0.168" fill="#3d2e1f" d="M 418.5,406.5 C 418.5,411.5 418.5,416.5 418.5,421.5C 423.809,423.187 423.809,424.854 418.5,426.5C 417.811,425.226 416.977,425.226 416,426.5C 413.929,430.877 411.763,435.21 409.5,439.5C 412.086,440.48 414.753,440.813 417.5,440.5C 418.043,440.56 418.376,440.893 418.5,441.5C 414.983,444.257 410.983,445.923 406.5,446.5C 403.374,448.902 400.04,451.069 396.5,453C 390.228,454.775 383.894,456.275 377.5,457.5C 374.373,456.365 371.54,457.032 369,459.5C 362.65,458.491 356.15,458.491 349.5,459.5C 344.867,459.517 340.367,458.85 336,457.5C 331.896,457.8 327.896,458.466 324,459.5C 322.667,458.833 321.333,458.167 320,457.5C 312.718,458.225 305.718,458.558 299,458.5C 289.194,457.444 279.527,456.444 270,455.5C 266.93,456.492 263.93,456.159 261,454.5C 259.527,454.903 258.194,455.57 257,456.5C 255.667,455.833 254.667,454.833 254,453.5C 249.084,455.471 243.917,455.471 238.5,453.5C 237.833,452.5 237.167,451.5 236.5,450.5C 235.784,451.311 234.95,451.978 234,452.5C 231.251,452.026 228.751,451.026 226.5,449.5C 226.957,448.702 227.624,448.369 228.5,448.5C 260.711,448.096 292.878,449.096 325,451.5C 328.2,451.344 331.367,451.011 334.5,450.5C 338.735,451.436 343.069,451.769 347.5,451.5C 357.857,451.517 368.19,451.017 378.5,450C 384.889,449.825 390.889,448.325 396.5,445.5C 401.691,441.452 405.691,436.452 408.5,430.5C 410.966,422.97 412.966,415.304 414.5,407.5C 415.708,406.766 417.041,406.433 418.5,406.5 Z"/></g>
</svg>
