<?xml version="1.0" encoding="UTF-8"?>
<!DOCTYPE svg PUBLIC "-//W3C//DTD SVG 1.1//EN" "http://www.w3.org/Graphics/SVG/1.1/DTD/svg11.dtd">
<svg xmlns="http://www.w3.org/2000/svg" version="1.1" width="500px" height="500px" style="shape-rendering:geometricPrecision; text-rendering:geometricPrecision; image-rendering:optimizeQuality; fill-rule:evenodd; clip-rule:evenodd" xmlns:xlink="http://www.w3.org/1999/xlink">
<g><path style="opacity:0.03" fill="#4e3b27" d="M 459.5,71.5 C 461.037,76.3097 462.037,81.3097 462.5,86.5C 461.558,113.051 461.558,139.217 462.5,165C 462.256,173.09 461.589,181.09 460.5,189C 461.097,190.062 461.43,191.228 461.5,192.5C 460.869,209.056 460.203,225.556 459.5,242C 459.63,245.786 459.964,249.786 460.5,254C 459.721,259.814 458.555,265.647 457,271.5C 455.643,274.357 453.476,276.357 450.5,277.5C 449.167,277.833 449.167,278.167 450.5,278.5C 441.372,287.424 431.372,296.924 420.5,307C 420.324,308.66 420.991,310.326 422.5,312C 429.006,316.842 435.506,321.675 442,326.5C 443.536,330.99 445.036,335.823 446.5,341C 445.552,354.808 445.552,368.308 446.5,381.5C 444.192,387.535 442.692,393.535 442,399.5C 430.912,415.346 420.079,431.346 409.5,447.5C 405.515,452.662 400.182,455.495 393.5,456C 367.85,457.477 342.183,457.811 316.5,457C 305.312,456.813 299.979,451.146 300.5,440C 301.291,435.867 302.124,431.7 303,427.5C 304.122,425.376 305.622,423.543 307.5,422C 331.973,409.007 354.64,393.507 375.5,375.5C 363.514,374.667 351.514,374.167 339.5,374C 336.107,373.202 332.774,372.202 329.5,371C 324.692,367.692 320.025,364.192 315.5,360.5C 313.007,362.58 310.341,364.414 307.5,366C 301.836,367.617 296.336,369.451 291,371.5C 290.689,377.874 290.023,384.207 289,390.5C 287.924,394.146 285.757,396.98 282.5,399C 271.542,400.184 260.542,400.851 249.5,401C 235.487,407.004 221.987,405.837 209,397.5C 207.907,399.349 206.574,401.016 205,402.5C 207.695,393.346 206.195,385.179 200.5,378C 187.88,379.179 175.214,379.513 162.5,379C 157.135,378.548 152.469,376.548 148.5,373C 125.102,372.888 101.769,371.888 78.5,370C 73.4076,366.204 71.0742,361.037 71.5,354.5C 71.3793,346.068 74.8793,339.734 82,335.5C 82.6667,334.5 82.6667,333.5 82,332.5C 70,317.833 58,303.167 46,288.5C 44.8591,285.938 44.0257,283.272 43.5,280.5C 44.5824,278.327 44.5824,276.327 43.5,274.5C 43.0766,273.735 42.7432,272.902 42.5,272C 44.3654,269.266 45.6988,266.266 46.5,263C 46.3552,262.228 46.0219,261.561 45.5,261C 46.9774,258.852 48.9774,257.518 51.5,257C 46.8131,246.412 42.1464,235.245 37.5,223.5C 38.4994,220.098 38.166,216.764 36.5,213.5C 37.1197,209.78 37.953,206.114 39,202.5C 41.887,199.958 44.7204,197.292 47.5,194.5C 45.2633,192.638 44.5966,190.471 45.5,188C 43.357,185.242 42.1903,182.076 42,178.5C 41.5794,171.464 41.4127,164.63 41.5,158C 42.3608,155.132 44.0275,152.798 46.5,151C 50.6496,149.705 54.8163,148.538 59,147.5C 60.9295,130.586 63.9295,113.919 68,97.5C 69.6374,95.1898 71.804,93.6898 74.5,93C 77.682,92.5931 80.8486,92.0931 84,91.5C 87.8045,92.4787 91.6378,92.6454 95.5,92C 101,85.8333 106.5,79.6667 112,73.5C 113.559,71.7834 114.392,69.7834 114.5,67.5C 117.787,66.736 120.454,64.9027 122.5,62C 124.957,60.4379 127.624,59.4379 130.5,59C 138.843,58.779 147.176,58.779 155.5,59C 162.731,54.6995 170.398,51.3662 178.5,49C 184.833,48.3333 191.167,48.3333 197.5,49C 203.498,51.3121 207.165,55.6454 208.5,62C 219.833,62.3333 231.167,62.6667 242.5,63C 249.026,63.4386 255.36,64.7719 261.5,67C 264.754,69.3419 266.588,72.5085 267,76.5C 267.499,81.4889 267.666,86.4889 267.5,91.5C 275.882,91.5159 284.215,92.0159 292.5,93C 295.548,93.6064 298.048,95.1064 300,97.5C 303.081,106.745 303.247,116.079 300.5,125.5C 304.578,123.943 308.578,122.11 312.5,120C 323.263,117.003 333.263,118.503 342.5,124.5C 351.39,121.462 360.056,121.962 368.5,126C 371.032,129.421 372.699,133.255 373.5,137.5C 375.984,138.861 378.317,138.694 380.5,137C 378.864,128.974 378.031,120.807 378,112.5C 376.289,106.271 375.122,99.9375 374.5,93.5C 375.374,91.0315 376.708,88.8648 378.5,87C 377.5,84.6667 376.5,82.3333 375.5,80C 375.833,79.6667 376.167,79.3333 376.5,79C 374.321,78.5581 373.655,77.5581 374.5,76C 373.552,75.5172 372.552,75.3505 371.5,75.5C 368.66,69.9598 366.993,63.9598 366.5,57.5C 366.699,52.2396 368.365,47.5729 371.5,43.5C 380.981,40.018 390.648,39.518 400.5,42C 415.828,44.4333 431.162,47.6 446.5,51.5C 446.325,54.3289 447.658,55.9955 450.5,56.5C 452.38,59.0913 454.38,61.5913 456.5,64C 456.167,64.3333 455.833,64.6667 455.5,65C 456.313,66.3139 457.313,67.4805 458.5,68.5C 457.189,69.2575 456.689,70.2575 457,71.5C 457.77,70.4019 458.603,70.4019 459.5,71.5 Z"/></g>
<g><path style="opacity:0.12" fill="#463423" d="M 427.5,56.5 C 424.658,57.6125 421.992,57.1125 419.5,55C 411.627,54.2662 404.127,52.4329 397,49.5C 392.838,51.8698 388.671,53.3698 384.5,54C 385.381,54.7083 386.047,55.5416 386.5,56.5C 384.144,55.4249 381.811,55.4249 379.5,56.5C 380.243,57.1818 380.909,57.8485 381.5,58.5C 380.501,66.5481 383.001,73.5481 389,79.5C 389.436,81.8474 389.936,84.1807 390.5,86.5C 389.925,90.8932 388.591,94.8932 386.5,98.5C 387.914,104.569 389.581,110.569 391.5,116.5C 389.544,126.527 390.544,136.193 394.5,145.5C 394.167,146.167 393.833,146.833 393.5,147.5C 397.36,154.534 402.527,160.534 409,165.5C 409.718,164.549 410.551,164.383 411.5,165C 410.549,165.718 410.383,166.551 411,167.5C 413.228,170.64 415.895,173.306 419,175.5C 419.761,179.357 420.261,183.023 420.5,186.5C 420.203,189.874 418.87,192.707 416.5,195C 417.706,196.018 417.373,196.518 415.5,196.5C 413.864,195.696 412.364,194.696 411,193.5C 409.312,188.89 407.812,184.223 406.5,179.5C 402.347,175.925 398.014,172.591 393.5,169.5C 390.805,165.604 390.139,161.771 391.5,158C 389.859,153.692 386.859,150.692 382.5,149C 376.147,147.915 370.147,145.915 364.5,143C 358.526,133.245 350.193,130.745 339.5,135.5C 332.869,134.262 326.536,132.262 320.5,129.5C 314.083,131.416 307.749,133.583 301.5,136C 297.5,136.667 293.5,136.667 289.5,136C 287.686,135.08 286.686,133.58 286.5,131.5C 287.878,126.53 289.545,121.697 291.5,117C 291.156,115.635 290.489,114.468 289.5,113.5C 291.185,110.952 290.852,108.952 288.5,107.5C 287.167,107.5 285.833,107.5 284.5,107.5C 281.865,105.672 278.865,104.505 275.5,104C 270.472,102.804 265.472,102.137 260.5,102C 258.91,100.954 257.41,99.7875 256,98.5C 253.981,94.9207 252.481,91.254 251.5,87.5C 251.877,85.742 252.544,84.0754 253.5,82.5C 251.971,81.2371 250.305,80.2371 248.5,79.5C 247.194,78.5326 246.527,77.1993 246.5,75.5C 243.989,75.162 241.655,75.162 239.5,75.5C 235.252,71.6814 230.252,70.6814 224.5,72.5C 211.862,74.673 201.862,70.673 194.5,60.5C 186.12,56.4531 177.787,57.2865 169.5,63C 164.038,65.9811 159.038,69.4811 154.5,73.5C 149.766,72.5212 144.766,71.8545 139.5,71.5C 139.167,71.5 138.833,71.5 138.5,71.5C 132.779,70.2371 127.779,71.7371 123.5,76C 116.735,84.7439 109.402,93.0773 101.5,101C 97.6995,102.424 93.5328,103.591 89,104.5C 86.3599,102.9 84.1933,103.234 82.5,105.5C 81.6618,105.842 81.3284,106.508 81.5,107.5C 79.5165,107.383 77.8498,108.05 76.5,109.5C 74.7169,112.673 73.2169,116.006 72,119.5C 70.6668,129.861 69.0001,140.527 67,151.5C 64.4343,156.158 60.6009,159.325 55.5,161C 54.5917,163.232 53.5917,165.399 52.5,167.5C 52.8178,168.647 53.4844,169.481 54.5,170C 53.376,170.249 52.376,170.749 51.5,171.5C 51.5513,174.665 51.718,177.998 52,181.5C 54.3236,188.807 56.8236,195.974 59.5,203C 57.9363,205.971 56.2696,208.804 54.5,211.5C 53.1417,210.374 51.8084,210.374 50.5,211.5C 58.7694,231.954 67.7694,252.121 77.5,272C 70.5,272.333 63.5,272.667 56.5,273C 59.3826,276.376 62.0493,279.876 64.5,283.5C 65.1307,286.786 66.464,289.786 68.5,292.5C 67.3318,293.906 67.6652,295.072 69.5,296C 70.7932,296.49 72.1266,296.657 73.5,296.5C 73.268,301.402 75.4347,304.735 80,306.5C 81.0055,311.509 83.3388,315.842 87,319.5C 90.4531,324.355 94.9531,327.521 100.5,329C 101.667,330.833 103.167,332.333 105,333.5C 105.651,335.235 105.485,336.902 104.5,338.5C 100.753,341.872 97.7533,345.205 95.5,348.5C 92.0601,350.724 88.3934,352.724 84.5,354.5C 84.1667,354.5 83.8333,354.5 83.5,354.5C 82.9033,354.265 82.5699,353.765 82.5,353C 83.1271,350.865 83.6271,348.698 84,346.5C 87.1667,342.667 90.3333,338.833 93.5,335C 87.2688,326.75 80.4354,318.917 73,311.5C 72.5983,310.128 72.0983,308.795 71.5,307.5C 65.4102,301.47 59.9102,294.803 55,287.5C 52.8291,283.984 51.6624,280.151 51.5,276C 51.6095,273.745 52.6095,272.078 54.5,271C 53.306,268.342 54.306,267.176 57.5,267.5C 58.4462,264.19 58.6129,260.856 58,257.5C 58.3333,258.167 58.6667,258.833 59,259.5C 59.3095,258.234 59.8095,257.067 60.5,256C 58.0113,253.677 55.6779,251.177 53.5,248.5C 53.9767,247.522 54.6433,246.689 55.5,246C 52.4256,242.15 50.0922,237.816 48.5,233C 48.8333,232.667 49.1667,232.333 49.5,232C 47.9544,230.56 47.121,228.727 47,226.5C 46.6667,226.833 46.3333,227.167 46,227.5C 45.296,225.722 44.796,223.888 44.5,222C 45.2842,218.215 45.2842,214.548 44.5,211C 45.6667,209.833 46.8333,208.667 48,207.5C 48.3333,207.833 48.6667,208.167 49,208.5C 49.9533,206.545 51.2866,204.878 53,203.5C 53.2511,201.567 53.7511,199.734 54.5,198C 50.734,189.868 48.0674,181.368 46.5,172.5C 47.1153,169.961 47.7819,167.461 48.5,165C 48.1667,164.667 47.8333,164.333 47.5,164C 52.2776,158.684 57.7776,154.184 64,150.5C 64.4497,148.481 65.283,146.648 66.5,145C 64.6631,136.498 65.6631,128.164 69.5,120C 69.1667,119.667 68.8333,119.333 68.5,119C 70.1552,113.659 72.3219,108.492 75,103.5C 81.4121,98.489 88.4121,97.1556 96,99.5C 97.8928,98.8037 99.7262,97.9704 101.5,97C 106.015,90.9916 110.682,85.1583 115.5,79.5C 119.527,76.1396 123.194,72.4729 126.5,68.5C 134.377,64.4784 142.044,64.8117 149.5,69.5C 154.93,67.2443 160.263,64.7443 165.5,62C 166.5,61 167.5,60 168.5,59C 172.988,56.5409 177.822,55.0409 183,54.5C 191.178,54.5819 197.678,58.0819 202.5,65C 204.443,66.5555 206.61,67.7221 209,68.5C 219.981,65.5295 230.814,65.8629 241.5,69.5C 242.192,68.9747 242.692,68.3081 243,67.5C 246.073,68.8584 249.24,70.0251 252.5,71C 252.167,71.3333 251.833,71.6667 251.5,72C 254.35,73.9271 257.017,76.0938 259.5,78.5C 259.291,79.086 258.957,79.586 258.5,80C 260.021,83.6442 260.855,87.4775 261,91.5C 262.699,95.1136 265.533,97.447 269.5,98.5C 276.34,97.0506 283.006,97.7173 289.5,100.5C 290.415,102.918 291.915,104.918 294,106.5C 296.209,114.636 295.376,122.136 291.5,129C 291.735,129.873 292.069,130.707 292.5,131.5C 297.131,132.662 301.798,132.828 306.5,132C 315.734,124 325.067,123.667 334.5,131C 340.254,131.724 345.587,131.224 350.5,129.5C 354.25,130.181 357.916,131.181 361.5,132.5C 364.513,135.349 367.18,138.515 369.5,142C 374.5,143.676 379.5,145.176 384.5,146.5C 386.167,144.833 387.833,143.167 389.5,141.5C 387.817,137.764 386.984,133.764 387,129.5C 386.237,132.063 385.737,132.063 385.5,129.5C 386.615,127.267 386.615,125.101 385.5,123C 385.977,120.101 386.977,117.434 388.5,115C 384.564,108.751 383.064,101.917 384,94.5C 387.57,89.6198 387.903,84.2865 385,78.5C 383.8,76.5884 382.133,75.2551 380,74.5C 379.784,72.6161 379.117,70.9494 378,69.5C 377.83,67.2852 377.163,65.2852 376,63.5C 375.333,60.5 375.333,57.5 376,54.5C 378.593,52.7739 380.927,50.7739 383,48.5C 383.333,48.8333 383.667,49.1667 384,49.5C 385.747,48.6699 387.413,47.6699 389,46.5C 389.945,46.9054 390.612,47.572 391,48.5C 393.944,47.7434 396.944,47.0767 400,46.5C 405.907,48.6827 411.907,50.6827 418,52.5C 420.838,51.3247 423.671,51.4914 426.5,53C 426.167,53.3333 425.833,53.6667 425.5,54C 426.381,54.7083 427.047,55.5416 427.5,56.5 Z"/></g>
<g><path style="opacity:0.226" fill="#392b1d" d="M 248.5,79.5 C 240.175,79.0558 231.842,78.7225 223.5,78.5C 214.763,78.579 206.096,79.079 197.5,80C 193.995,74.6499 191.995,68.8166 191.5,62.5C 183.669,64.0545 176.336,66.8878 169.5,71C 161.833,76.5 154.167,82 146.5,87.5C 144.854,86.2214 143.687,84.5547 143,82.5C 141.816,78.8082 140.649,75.1415 139.5,71.5C 144.766,71.8545 149.766,72.5212 154.5,73.5C 159.038,69.4811 164.038,65.9811 169.5,63C 177.787,57.2865 186.12,56.4531 194.5,60.5C 201.862,70.673 211.862,74.673 224.5,72.5C 230.252,70.6814 235.252,71.6814 239.5,75.5C 241.655,75.162 243.989,75.162 246.5,75.5C 246.527,77.1993 247.194,78.5326 248.5,79.5 Z"/></g>
<g><path style="opacity:0.954" fill="#4c3734" d="M 248.5,79.5 C 250.305,80.2371 251.971,81.2371 253.5,82.5C 252.544,84.0754 251.877,85.742 251.5,87.5C 247.887,93.5185 246.554,100.185 247.5,107.5C 259.833,107.5 272.167,107.5 284.5,107.5C 285.833,107.5 287.167,107.5 288.5,107.5C 287.805,110.28 286.805,112.947 285.5,115.5C 280.849,125.471 275.183,134.805 268.5,143.5C 281.168,144.292 293.835,144.958 306.5,145.5C 305.703,158.789 305.203,172.122 305,185.5C 298.464,207.607 291.631,229.607 284.5,251.5C 284.624,252.107 284.957,252.44 285.5,252.5C 283.59,253.975 282.424,255.975 282,258.5C 276.446,282.8 270.78,307.134 265,331.5C 262.333,325.5 259.667,319.5 257,313.5C 249.213,338.364 241.713,363.364 234.5,388.5C 232.968,391.858 231.302,391.525 229.5,387.5C 230.748,386.666 231.415,385.333 231.5,383.5C 230.117,365.461 228.45,347.461 226.5,329.5C 219.775,323.943 213.941,317.61 209,310.5C 208.333,309.167 208.333,307.833 209,306.5C 212.863,302.971 216.363,299.138 219.5,295C 214.981,286.8 210.314,278.633 205.5,270.5C 208.859,267.471 212.192,264.471 215.5,261.5C 219.161,260.658 222.494,259.158 225.5,257C 230.571,253.476 235.571,249.976 240.5,246.5C 225.98,244.744 211.647,242.077 197.5,238.5C 199.187,223.891 199.854,209.225 199.5,194.5C 198.127,194.343 196.793,194.51 195.5,195C 186.453,200.524 177.12,205.524 167.5,210C 164.688,211.977 162.022,214.144 159.5,216.5C 156.834,201.535 153.167,186.868 148.5,172.5C 147.252,173.04 146.085,173.707 145,174.5C 136.11,187.227 125.943,198.894 114.5,209.5C 110.569,204.024 106.402,198.691 102,193.5C 98.6781,186.773 94.8448,180.44 90.5,174.5C 89.6667,175.5 88.8333,176.5 88,177.5C 84.214,191.414 80.5474,205.414 77,219.5C 76.3992,221.359 75.5659,221.692 74.5,220.5C 74.9382,220.565 75.2716,220.399 75.5,220C 72.5704,216.075 70.0704,211.908 68,207.5C 63.2497,193.334 59.0831,179 55.5,164.5C 56.1667,164.167 56.8333,163.833 57.5,163.5C 63.0496,165.126 68.7162,165.792 74.5,165.5C 75.3118,145.967 77.6451,126.634 81.5,107.5C 81.3284,106.508 81.6618,105.842 82.5,105.5C 87.9709,109.805 94.1376,112.805 101,114.5C 108.022,106.475 114.689,98.1416 121,89.5C 126.392,82.9427 132.226,76.9427 138.5,71.5C 138.833,71.5 139.167,71.5 139.5,71.5C 140.649,75.1415 141.816,78.8082 143,82.5C 143.687,84.5547 144.854,86.2214 146.5,87.5C 154.167,82 161.833,76.5 169.5,71C 176.336,66.8878 183.669,64.0545 191.5,62.5C 191.995,68.8166 193.995,74.6499 197.5,80C 206.096,79.079 214.763,78.579 223.5,78.5C 231.842,78.7225 240.175,79.0558 248.5,79.5 Z"/></g>
<g><path style="opacity:0.008" fill="#4f3d28" d="M 459.5,70.5 C 460.833,71.1667 460.833,71.1667 459.5,70.5 Z"/></g>
<g><path style="opacity:0.174" fill="#3b2c1e" d="M 138.5,71.5 C 132.226,76.9427 126.392,82.9427 121,89.5C 114.689,98.1416 108.022,106.475 101,114.5C 94.1376,112.805 87.9709,109.805 82.5,105.5C 84.1933,103.234 86.3599,102.9 89,104.5C 93.5328,103.591 97.6995,102.424 101.5,101C 109.402,93.0773 116.735,84.7439 123.5,76C 127.779,71.7371 132.779,70.2371 138.5,71.5 Z"/></g>
<g><path style="opacity:0.954" fill="#302b23" d="M 165.5,102.5 C 166.777,103.694 167.444,105.36 167.5,107.5C 168.599,115.485 169.099,123.485 169,131.5C 161.647,130.536 154.48,128.703 147.5,126C 146.446,124.612 146.28,123.112 147,121.5C 152.698,115.468 158.698,109.801 165,104.5C 165.464,103.906 165.631,103.239 165.5,102.5 Z"/></g>
<g><path style="opacity:0.269" fill="#36281b" d="M 251.5,87.5 C 252.481,91.254 253.981,94.9207 256,98.5C 257.41,99.7875 258.91,100.954 260.5,102C 265.472,102.137 270.472,102.804 275.5,104C 278.865,104.505 281.865,105.672 284.5,107.5C 272.167,107.5 259.833,107.5 247.5,107.5C 246.554,100.185 247.887,93.5185 251.5,87.5 Z"/></g>
<g><path style="opacity:0.841" fill="#442924" d="M 386.5,56.5 C 403.111,59.6527 419.778,62.4861 436.5,65C 435.549,65.7175 435.383,66.5509 436,67.5C 439.333,71.5 442.667,75.5 446,79.5C 446.312,105.556 446.479,131.556 446.5,157.5C 446.619,165.385 445.952,173.052 444.5,180.5C 442.708,179.691 440.708,179.191 438.5,179C 435.122,175.985 431.456,173.485 427.5,171.5C 417.519,163.518 407.852,155.185 398.5,146.5C 397.71,145.206 396.71,144.039 395.5,143C 395.833,142.667 396.167,142.333 396.5,142C 399.882,141.824 403.215,141.324 406.5,140.5C 401.461,135.463 396.794,130.129 392.5,124.5C 392.709,123.914 393.043,123.414 393.5,123C 397.863,122.106 402.196,121.106 406.5,120C 406.957,119.586 407.291,119.086 407.5,118.5C 401.381,111.21 395.048,104.044 388.5,97C 394.144,94.1778 399.811,91.3444 405.5,88.5C 397.826,78.168 389.826,68.168 381.5,58.5C 380.909,57.8485 380.243,57.1818 379.5,56.5C 381.811,55.4249 384.144,55.4249 386.5,56.5 Z"/></g>
<g><path style="opacity:0.863" fill="#6b3c25" d="M 413.5,109.5 C 419.979,108.509 426.646,108.176 433.5,108.5C 433.666,115.508 433.5,122.508 433,129.5C 426.243,122.911 419.743,116.245 413.5,109.5 Z"/></g>
<g><path style="opacity:0.813" fill="#6c3c25" d="M 414.5,75.5 C 420.645,74.5098 426.978,74.1765 433.5,74.5C 433.666,81.5079 433.5,88.5079 433,95.5C 426.26,89.2639 420.093,82.5972 414.5,75.5 Z"/></g>
<g><path style="opacity:0.175" fill="#3a2c1d" d="M 81.5,107.5 C 77.6451,126.634 75.3118,145.967 74.5,165.5C 68.7162,165.792 63.0496,165.126 57.5,163.5C 56.8333,163.833 56.1667,164.167 55.5,164.5C 59.0831,179 63.2497,193.334 68,207.5C 70.0704,211.908 72.5704,216.075 75.5,220C 75.2716,220.399 74.9382,220.565 74.5,220.5C 67.5277,218.011 60.861,215.011 54.5,211.5C 56.2696,208.804 57.9363,205.971 59.5,203C 56.8236,195.974 54.3236,188.807 52,181.5C 51.718,177.998 51.5513,174.665 51.5,171.5C 52.376,170.749 53.376,170.249 54.5,170C 53.4844,169.481 52.8178,168.647 52.5,167.5C 53.5917,165.399 54.5917,163.232 55.5,161C 60.6009,159.325 64.4343,156.158 67,151.5C 69.0001,140.527 70.6668,129.861 72,119.5C 73.2169,116.006 74.7169,112.673 76.5,109.5C 77.8498,108.05 79.5165,107.383 81.5,107.5 Z"/></g>
<g><path style="opacity:0.172" fill="#3e2e1f" d="M 381.5,58.5 C 389.826,68.168 397.826,78.168 405.5,88.5C 399.811,91.3444 394.144,94.1778 388.5,97C 395.048,104.044 401.381,111.21 407.5,118.5C 407.291,119.086 406.957,119.586 406.5,120C 402.196,121.106 397.863,122.106 393.5,123C 393.043,123.414 392.709,123.914 392.5,124.5C 396.794,130.129 401.461,135.463 406.5,140.5C 403.215,141.324 399.882,141.824 396.5,142C 396.167,142.333 395.833,142.667 395.5,143C 396.71,144.039 397.71,145.206 398.5,146.5C 398.5,148.167 398.5,149.833 398.5,151.5C 400.914,152.751 403.247,154.251 405.5,156C 406.337,157.011 406.67,158.178 406.5,159.5C 410.794,160.461 413.461,163.128 414.5,167.5C 415.552,167.351 416.552,167.517 417.5,168C 419.333,170.5 421.167,173 423,175.5C 423.246,178.89 423.746,182.223 424.5,185.5C 424.04,191.16 423.54,196.493 423,201.5C 418.281,204.327 413.947,203.66 410,199.5C 407.018,196.515 404.852,193.015 403.5,189C 404.418,186.914 405.085,184.747 405.5,182.5C 401.861,182.578 399.194,181.078 397.5,178C 391.196,175.317 387.863,170.483 387.5,163.5C 386.448,163.649 385.448,163.483 384.5,163C 385.627,161.247 386.627,159.413 387.5,157.5C 382.052,155.482 376.386,154.482 370.5,154.5C 370.5,153.5 370.5,152.5 370.5,151.5C 368.801,151.66 367.134,151.494 365.5,151C 363.597,148.595 361.264,146.761 358.5,145.5C 357.516,142.572 357.183,139.572 357.5,136.5C 351.084,134.596 345.084,135.262 339.5,138.5C 334.04,137.184 328.874,135.184 324,132.5C 322.343,133.484 320.677,134.484 319,135.5C 318.586,135.043 318.086,134.709 317.5,134.5C 312.757,136.061 308.09,137.894 303.5,140C 296.295,140.049 289.462,140.216 283,140.5C 282.5,139.333 281.667,138.5 280.5,138C 280.694,136.097 280.694,134.263 280.5,132.5C 283.44,128.581 285.606,124.581 287,120.5C 287.167,119.667 287.333,118.833 287.5,118C 287.316,116.624 286.649,115.791 285.5,115.5C 286.805,112.947 287.805,110.28 288.5,107.5C 290.852,108.952 291.185,110.952 289.5,113.5C 290.489,114.468 291.156,115.635 291.5,117C 289.545,121.697 287.878,126.53 286.5,131.5C 286.686,133.58 287.686,135.08 289.5,136C 293.5,136.667 297.5,136.667 301.5,136C 307.749,133.583 314.083,131.416 320.5,129.5C 326.536,132.262 332.869,134.262 339.5,135.5C 350.193,130.745 358.526,133.245 364.5,143C 370.147,145.915 376.147,147.915 382.5,149C 386.859,150.692 389.859,153.692 391.5,158C 390.139,161.771 390.805,165.604 393.5,169.5C 398.014,172.591 402.347,175.925 406.5,179.5C 407.812,184.223 409.312,188.89 411,193.5C 412.364,194.696 413.864,195.696 415.5,196.5C 417.373,196.518 417.706,196.018 416.5,195C 418.87,192.707 420.203,189.874 420.5,186.5C 420.261,183.023 419.761,179.357 419,175.5C 415.895,173.306 413.228,170.64 411,167.5C 410.383,166.551 410.549,165.718 411.5,165C 410.551,164.383 409.718,164.549 409,165.5C 402.527,160.534 397.36,154.534 393.5,147.5C 393.833,146.833 394.167,146.167 394.5,145.5C 390.544,136.193 389.544,126.527 391.5,116.5C 389.581,110.569 387.914,104.569 386.5,98.5C 388.591,94.8932 389.925,90.8932 390.5,86.5C 389.936,84.1807 389.436,81.8474 389,79.5C 383.001,73.5481 380.501,66.5481 381.5,58.5 Z"/></g>
<g><path style="opacity:0.955" fill="#2f2b23" d="M 234.5,137.5 C 235.552,137.351 236.552,137.517 237.5,138C 236.853,139.609 236.02,141.109 235,142.5C 233.057,150.988 230.724,159.321 228,167.5C 221.125,162.293 215.292,156.126 210.5,149C 218.295,144.472 226.295,140.639 234.5,137.5 Z"/></g>
<g><path style="opacity:0.976" fill="#772e2d" d="M 306.5,145.5 C 325.563,145.621 344.23,148.455 362.5,154C 366.984,157.154 371.151,160.654 375,164.5C 386.929,182.702 399.096,200.702 411.5,218.5C 410.054,219.613 408.387,219.78 406.5,219C 405.888,217.697 405.554,216.53 405.5,215.5C 403.845,218.153 401.845,220.486 399.5,222.5C 399.667,222.833 399.833,223.167 400,223.5C 401.789,221.771 403.956,221.104 406.5,221.5C 407.516,224.2 407.516,226.866 406.5,229.5C 406.808,230.308 407.308,230.975 408,231.5C 408.923,230.241 409.757,228.908 410.5,227.5C 410.489,228.441 410.989,229.108 412,229.5C 414.44,229.393 416.94,229.393 419.5,229.5C 420.59,230.391 420.59,231.391 419.5,232.5C 416.677,233.974 413.844,234.308 411,233.5C 406.567,240.359 401.567,241.026 396,235.5C 394.745,236.211 393.579,237.044 392.5,238C 392.833,238.333 393.167,238.667 393.5,239C 392.333,240.167 391.167,241.333 390,242.5C 389.809,240.292 389.309,238.292 388.5,236.5C 385.864,234.4 383.031,233.733 380,234.5C 379.209,235.745 378.709,237.078 378.5,238.5C 377.292,239.234 375.959,239.567 374.5,239.5C 374.948,243.724 373.281,245.391 369.5,244.5C 365.864,246.207 365.864,247.374 369.5,248C 367.545,251.108 365.712,250.941 364,247.5C 361.226,248.523 358.393,248.523 355.5,247.5C 353.498,250.878 351.998,254.211 351,257.5C 348.574,254.315 349.074,251.815 352.5,250C 350.109,249.309 350.109,248.309 352.5,247C 351.833,246.667 351.167,246.333 350.5,246C 352.007,245.163 352.507,243.996 352,242.5C 350.829,243.893 349.329,244.727 347.5,245C 349.301,245.317 349.634,245.984 348.5,247C 346.913,247.862 345.246,248.529 343.5,249C 346.028,249.669 346.028,250.502 343.5,251.5C 341.885,250.846 340.218,250.346 338.5,250C 339.711,249.107 339.711,248.274 338.5,247.5C 337.28,246.289 336.113,246.289 335,247.5C 334.583,246.244 333.75,245.577 332.5,245.5C 332.541,232.813 332.708,220.146 333,207.5C 332.311,206.643 331.478,205.977 330.5,205.5C 329.675,209.122 329.175,212.789 329,216.5C 328.667,235.167 328.333,253.833 328,272.5C 324.555,276.783 320.388,280.117 315.5,282.5C 314.916,273.446 314.083,264.446 313,255.5C 312.167,254.667 311.333,253.833 310.5,253C 302.173,252.5 293.84,252.334 285.5,252.5C 284.957,252.44 284.624,252.107 284.5,251.5C 291.631,229.607 298.464,207.607 305,185.5C 305.203,172.122 305.703,158.789 306.5,145.5 Z"/></g>
<g><path style="opacity:0.805" fill="#6a3c25" d="M 414.5,141.5 C 420.833,141.5 427.167,141.5 433.5,141.5C 433.666,148.508 433.5,155.508 433,162.5C 426.603,155.609 420.436,148.609 414.5,141.5 Z"/></g>
<g><path style="opacity:0.966" fill="#2f2b23" d="M 118.5,145.5 C 123.952,153.272 127.285,161.938 128.5,171.5C 121.364,171.951 114.364,171.284 107.5,169.5C 110.768,161.382 114.435,153.382 118.5,145.5 Z"/></g>
<g><path style="opacity:0.961" fill="#31281e" d="M 285.5,115.5 C 286.649,115.791 287.316,116.624 287.5,118C 287.333,118.833 287.167,119.667 287,120.5C 285.606,124.581 283.44,128.581 280.5,132.5C 280.694,134.263 280.694,136.097 280.5,138C 281.667,138.5 282.5,139.333 283,140.5C 289.462,140.216 296.295,140.049 303.5,140C 308.09,137.894 312.757,136.061 317.5,134.5C 318.086,134.709 318.586,135.043 319,135.5C 320.677,134.484 322.343,133.484 324,132.5C 328.874,135.184 334.04,137.184 339.5,138.5C 345.084,135.262 351.084,134.596 357.5,136.5C 357.183,139.572 357.516,142.572 358.5,145.5C 361.264,146.761 363.597,148.595 365.5,151C 367.134,151.494 368.801,151.66 370.5,151.5C 370.5,152.5 370.5,153.5 370.5,154.5C 376.386,154.482 382.052,155.482 387.5,157.5C 386.627,159.413 385.627,161.247 384.5,163C 385.448,163.483 386.448,163.649 387.5,163.5C 387.863,170.483 391.196,175.317 397.5,178C 399.194,181.078 401.861,182.578 405.5,182.5C 405.085,184.747 404.418,186.914 403.5,189C 404.852,193.015 407.018,196.515 410,199.5C 413.947,203.66 418.281,204.327 423,201.5C 423.54,196.493 424.04,191.16 424.5,185.5C 423.746,182.223 423.246,178.89 423,175.5C 421.167,173 419.333,170.5 417.5,168C 416.552,167.517 415.552,167.351 414.5,167.5C 413.461,163.128 410.794,160.461 406.5,159.5C 406.67,158.178 406.337,157.011 405.5,156C 403.247,154.251 400.914,152.751 398.5,151.5C 398.5,149.833 398.5,148.167 398.5,146.5C 407.852,155.185 417.519,163.518 427.5,171.5C 427.667,188.503 427.5,205.503 427,222.5C 425.002,224.663 422.668,226.33 420,227.5C 416.957,224.626 414.123,221.626 411.5,218.5C 399.096,200.702 386.929,182.702 375,164.5C 371.151,160.654 366.984,157.154 362.5,154C 344.23,148.455 325.563,145.621 306.5,145.5C 293.835,144.958 281.168,144.292 268.5,143.5C 275.183,134.805 280.849,125.471 285.5,115.5 Z"/></g>
<g><path style="opacity:0.983" fill="#2e2a23" d="M 180.5,160.5 C 181.812,162.743 182.478,165.41 182.5,168.5C 182.034,174.496 181.7,180.496 181.5,186.5C 175.703,185.179 170.037,183.346 164.5,181C 161.527,179.776 160.86,177.776 162.5,175C 169.119,170.867 175.119,166.034 180.5,160.5 Z"/></g>
<g><path style="opacity:0.966" fill="#652120" d="M 229.5,387.5 C 228.299,385.091 226.633,383.091 224.5,381.5C 214.264,366.716 203.764,352.049 193,337.5C 193.033,332.206 192.2,327.206 190.5,322.5C 192.017,322.489 193.184,321.823 194,320.5C 197.5,314.167 201,307.833 204.5,301.5C 199.5,297 194.5,292.5 189.5,288C 193.707,280.418 198.04,272.918 202.5,265.5C 195.866,264.503 189.2,264.17 182.5,264.5C 182.567,254.144 182.733,243.811 183,233.5C 174.038,238.3 165.205,243.3 156.5,248.5C 154.15,237.768 151.484,227.101 148.5,216.5C 141.143,225.356 133.977,234.356 127,243.5C 121,234.833 115,226.167 109,217.5C 105.377,222.412 102.544,227.745 100.5,233.5C 97.5653,230.062 94.3986,226.729 91,223.5C 89.8148,239.68 90.8148,255.68 94,271.5C 95.9522,273.894 98.4522,275.394 101.5,276C 110.186,276.418 118.853,277.085 127.5,278C 131.126,278.278 133.126,280.112 133.5,283.5C 121.925,281.578 110.258,280.411 98.5,280C 104.024,286.69 109.358,293.523 114.5,300.5C 103.007,301.167 91.6738,301.833 80.5,302.5C 75.1667,296.167 69.8333,289.833 64.5,283.5C 62.0493,279.876 59.3826,276.376 56.5,273C 63.5,272.667 70.5,272.333 77.5,272C 67.7694,252.121 58.7694,231.954 50.5,211.5C 51.8084,210.374 53.1417,210.374 54.5,211.5C 60.861,215.011 67.5277,218.011 74.5,220.5C 75.5659,221.692 76.3992,221.359 77,219.5C 80.5474,205.414 84.214,191.414 88,177.5C 88.8333,176.5 89.6667,175.5 90.5,174.5C 94.8448,180.44 98.6781,186.773 102,193.5C 106.402,198.691 110.569,204.024 114.5,209.5C 125.943,198.894 136.11,187.227 145,174.5C 146.085,173.707 147.252,173.04 148.5,172.5C 153.167,186.868 156.834,201.535 159.5,216.5C 162.022,214.144 164.688,211.977 167.5,210C 177.12,205.524 186.453,200.524 195.5,195C 196.793,194.51 198.127,194.343 199.5,194.5C 199.854,209.225 199.187,223.891 197.5,238.5C 211.647,242.077 225.98,244.744 240.5,246.5C 235.571,249.976 230.571,253.476 225.5,257C 222.494,259.158 219.161,260.658 215.5,261.5C 212.192,264.471 208.859,267.471 205.5,270.5C 210.314,278.633 214.981,286.8 219.5,295C 216.363,299.138 212.863,302.971 209,306.5C 208.333,307.833 208.333,309.167 209,310.5C 213.941,317.61 219.775,323.943 226.5,329.5C 228.45,347.461 230.117,365.461 231.5,383.5C 231.415,385.333 230.748,386.666 229.5,387.5 Z"/></g>
<g><path style="opacity:0.88" fill="#732f2d" d="M 427.5,171.5 C 431.456,173.485 435.122,175.985 438.5,179C 440.708,179.191 442.708,179.691 444.5,180.5C 444.5,188.5 444.5,196.5 444.5,204.5C 443.766,205.878 443.099,207.378 442.5,209C 443.189,219.833 443.355,231 443,242.5C 443.213,240.249 442.213,238.249 440,236.5C 437.904,237.715 438.071,238.549 440.5,239C 439.5,239.5 438.5,240 437.5,240.5C 434.933,239.761 432.6,239.761 430.5,240.5C 428.866,240.968 427.7,241.968 427,243.5C 423.473,240.379 421.973,241.045 422.5,245.5C 420.335,245.116 418.668,245.783 417.5,247.5C 419.006,248.747 420.506,248.747 422,247.5C 422.617,248.449 422.451,249.282 421.5,250C 418.89,250.224 416.39,249.724 414,248.5C 412.981,249.687 411.814,250.687 410.5,251.5C 407.675,250.246 405.175,248.579 403,246.5C 403.058,249.943 404.558,252.776 407.5,255C 406.975,255.692 406.308,256.192 405.5,256.5C 404.032,254.667 402.365,254.334 400.5,255.5C 403.539,256.378 403.706,258.044 401,260.5C 400.581,259.328 399.915,258.328 399,257.5C 397.211,257.623 395.378,257.623 393.5,257.5C 393.167,256.833 392.833,256.167 392.5,255.5C 393.38,253.571 394.38,251.737 395.5,250C 393.745,248.58 393.079,247.08 393.5,245.5C 392.618,246.76 391.618,247.926 390.5,249C 391.167,249.333 391.833,249.667 392.5,250C 390.492,252.366 388.492,254.699 386.5,257C 386.716,259.507 387.716,260.34 389.5,259.5C 393.231,260.09 396.898,260.924 400.5,262C 398.516,263.803 396.516,264.803 394.5,265C 395.047,265.925 395.713,266.758 396.5,267.5C 398.833,266.5 400.5,264.833 401.5,262.5C 404.175,261.004 406.175,261.671 407.5,264.5C 406.282,265.803 406.615,266.803 408.5,267.5C 407.509,269.123 408.176,270.123 410.5,270.5C 411.584,271.665 412.417,272.998 413,274.5C 414.599,272.964 416.433,272.464 418.5,273C 417.833,274 417.167,275 416.5,276C 418.424,277.75 420.091,279.583 421.5,281.5C 410.881,291.452 400.548,301.785 390.5,312.5C 402.767,320.1 414.767,328.1 426.5,336.5C 426.586,337.496 426.252,338.329 425.5,339C 427.891,339.691 427.891,340.691 425.5,342C 426.333,343.5 427.5,344.667 429,345.5C 429.595,346.899 429.428,348.232 428.5,349.5C 426.579,350.641 424.579,350.808 422.5,350C 423.167,349.333 423.833,348.667 424.5,348C 422.765,347.349 421.098,347.515 419.5,348.5C 418.304,348.154 418.304,347.654 419.5,347C 418.833,346.833 418.167,346.667 417.5,346.5C 415.837,348.927 413.504,350.427 410.5,351C 411.646,353.557 410.646,354.89 407.5,355C 408.451,355.718 408.617,356.551 408,357.5C 406.054,358.747 404.22,360.08 402.5,361.5C 403.594,363.836 404.927,363.836 406.5,361.5C 407.192,362.025 407.692,362.692 408,363.5C 409.405,361.809 410.572,359.976 411.5,358C 410.939,356.434 411.606,355.101 413.5,354C 416.126,353.005 418.793,352.672 421.5,353C 420.167,353.667 418.833,354.333 417.5,355C 419.547,356.073 421.547,357.239 423.5,358.5C 419.474,360.684 419.807,362.184 424.5,363C 422.515,363.916 420.515,365.583 418.5,368C 421.707,367.864 425.04,368.364 428.5,369.5C 426.238,370.345 425.571,371.678 426.5,373.5C 425.675,374.386 424.675,374.719 423.5,374.5C 423.421,373.07 423.754,371.736 424.5,370.5C 421.107,369.184 418.441,370.184 416.5,373.5C 415.289,375.422 413.956,377.255 412.5,379C 415.447,379.112 416.78,380.612 416.5,383.5C 413.262,383.651 410.929,382.318 409.5,379.5C 411.799,377.303 411.799,374.969 409.5,372.5C 408.069,372.977 406.736,373.643 405.5,374.5C 406.61,376.496 406.276,378.329 404.5,380C 405.951,379.737 407.284,379.904 408.5,380.5C 408.208,382.356 408.208,384.022 408.5,385.5C 406.519,387.303 404.352,388.97 402,390.5C 400.663,386.974 400.163,383.308 400.5,379.5C 397.256,379.749 395.256,381.416 394.5,384.5C 393.671,376.677 393.171,368.677 393,360.5C 392.5,360 392,359.5 391.5,359C 385.175,358.5 378.842,358.334 372.5,358.5C 370.899,355.23 368.566,352.563 365.5,350.5C 366.833,348.167 368.167,345.833 369.5,343.5C 368.051,342.828 366.718,342.161 365.5,341.5C 368.93,341.893 372.096,341.227 375,339.5C 376.364,340.258 377.531,339.758 378.5,338C 377.833,336.667 376.833,335.667 375.5,335C 378.544,334.641 378.878,333.974 376.5,333C 378.14,330.661 380.14,329.828 382.5,330.5C 383.48,329.019 384.647,327.685 386,326.5C 386.526,329.306 386.526,332.306 386,335.5C 386.506,332.329 388.172,329.996 391,328.5C 391.333,328.833 391.667,329.167 392,329.5C 393.067,328.809 394.234,328.309 395.5,328C 394.675,326.312 393.675,326.145 392.5,327.5C 391.803,325.615 390.803,325.282 389.5,326.5C 388.522,326.023 387.689,325.357 387,324.5C 386.282,325.451 385.449,325.617 384.5,325C 386.616,323.829 387.282,322.329 386.5,320.5C 385.476,321.853 384.143,322.52 382.5,322.5C 382.778,324.346 382.111,325.68 380.5,326.5C 379.575,325.359 378.741,325.359 378,326.5C 377.517,325.552 377.351,324.552 377.5,323.5C 375.856,323.286 374.356,323.62 373,324.5C 373.311,323.065 373.145,321.732 372.5,320.5C 372.808,319.692 373.308,319.025 374,318.5C 375.268,318.616 376.602,318.949 378,319.5C 381.934,318.961 385.767,318.127 389.5,317C 387.597,315.553 385.93,313.886 384.5,312C 380.835,311.888 377.501,311.888 374.5,312C 377.361,310.754 380.361,309.754 383.5,309C 380.584,308.951 379.584,307.784 380.5,305.5C 385.944,303.754 390.278,301.254 393.5,298C 391.209,296.123 389.209,296.29 387.5,298.5C 386.304,298.154 386.304,297.654 387.5,297C 386.007,295.632 384.507,295.465 383,296.5C 380.697,294.256 381.03,292.59 384,291.5C 385.398,292.051 386.732,292.384 388,292.5C 388.237,287.985 389.903,287.318 393,290.5C 395.382,287.709 398.215,286.709 401.5,287.5C 402.711,286.726 402.711,285.893 401.5,285C 402.833,284.667 404.167,284.333 405.5,284C 403.671,283.727 402.171,282.893 401,281.5C 399.676,282.88 398.343,283.214 397,282.5C 397.575,279.726 397.408,277.226 396.5,275C 397.167,274.667 397.833,274.333 398.5,274C 397.027,273.29 396.36,272.124 396.5,270.5C 393.886,270.277 392.219,271.444 391.5,274C 388.571,274.777 385.737,274.61 383,273.5C 382.383,274.449 382.549,275.282 383.5,276C 381.996,277.491 381.163,279.324 381,281.5C 380.365,280.034 379.531,278.7 378.5,277.5C 379.025,276.808 379.692,276.308 380.5,276C 380.888,274.475 380.888,272.808 380.5,271C 381.678,270.033 383.011,269.533 384.5,269.5C 383.41,267.997 382.243,267.664 381,268.5C 380.667,267.833 380.333,267.167 380,266.5C 379.261,267.574 378.261,268.241 377,268.5C 374.519,268.047 373.186,267.047 373,265.5C 370.589,266.624 368.422,268.124 366.5,270C 364.331,268.886 362.498,269.386 361,271.5C 359.842,271.002 359.009,270.169 358.5,269C 359.33,267.535 359.496,266.035 359,264.5C 358,265.833 357,265.833 356,264.5C 355.51,265.793 355.343,267.127 355.5,268.5C 350.939,266.526 346.273,265.859 341.5,266.5C 341.157,270.438 339.157,271.438 335.5,269.5C 333.491,271.557 332.157,273.89 331.5,276.5C 332.305,266.188 332.638,255.854 332.5,245.5C 333.75,245.577 334.583,246.244 335,247.5C 336.113,246.289 337.28,246.289 338.5,247.5C 339.711,248.274 339.711,249.107 338.5,250C 340.218,250.346 341.885,250.846 343.5,251.5C 346.028,250.502 346.028,249.669 343.5,249C 345.246,248.529 346.913,247.862 348.5,247C 349.634,245.984 349.301,245.317 347.5,245C 349.329,244.727 350.829,243.893 352,242.5C 352.507,243.996 352.007,245.163 350.5,246C 351.167,246.333 351.833,246.667 352.5,247C 350.109,248.309 350.109,249.309 352.5,250C 349.074,251.815 348.574,254.315 351,257.5C 351.998,254.211 353.498,250.878 355.5,247.5C 358.393,248.523 361.226,248.523 364,247.5C 365.712,250.941 367.545,251.108 369.5,248C 365.864,247.374 365.864,246.207 369.5,244.5C 373.281,245.391 374.948,243.724 374.5,239.5C 375.959,239.567 377.292,239.234 378.5,238.5C 377.587,240.086 377.587,241.586 378.5,243C 381.312,244.549 384.312,245.382 387.5,245.5C 388.159,242.545 388.492,239.545 388.5,236.5C 389.309,238.292 389.809,240.292 390,242.5C 391.167,241.333 392.333,240.167 393.5,239C 393.167,238.667 392.833,238.333 392.5,238C 393.579,237.044 394.745,236.211 396,235.5C 401.567,241.026 406.567,240.359 411,233.5C 413.844,234.308 416.677,233.974 419.5,232.5C 420.59,231.391 420.59,230.391 419.5,229.5C 416.94,229.393 414.44,229.393 412,229.5C 410.989,229.108 410.489,228.441 410.5,227.5C 409.757,228.908 408.923,230.241 408,231.5C 407.308,230.975 406.808,230.308 406.5,229.5C 407.516,226.866 407.516,224.2 406.5,221.5C 403.956,221.104 401.789,221.771 400,223.5C 399.833,223.167 399.667,222.833 399.5,222.5C 401.845,220.486 403.845,218.153 405.5,215.5C 405.554,216.53 405.888,217.697 406.5,219C 408.387,219.78 410.054,219.613 411.5,218.5C 414.123,221.626 416.957,224.626 420,227.5C 422.668,226.33 425.002,224.663 427,222.5C 427.5,205.503 427.667,188.503 427.5,171.5 Z"/></g>
<g><path style="opacity:0.2" fill="#3c2d1e" d="M 427.5,56.5 C 426.683,58.3077 427.35,59.8077 429.5,61C 429.167,61.3333 428.833,61.6667 428.5,62C 430.163,62.2649 431.663,61.7649 433,60.5C 434.648,61.717 436.481,62.5503 438.5,63C 442.633,66.4659 446.466,70.2992 450,74.5C 450.456,75.7441 449.956,76.5774 448.5,77C 450.477,79.0429 451.477,81.5429 451.5,84.5C 450.448,84.3505 449.448,84.5172 448.5,85C 449.833,85.6667 451.167,86.3333 452.5,87C 452.043,87.414 451.709,87.914 451.5,88.5C 453.856,91.9634 453.856,95.4634 451.5,99C 452.574,99.7387 453.241,100.739 453.5,102C 451.021,104.868 451.021,107.701 453.5,110.5C 452.873,119.694 452.873,129.027 453.5,138.5C 452.752,140.332 451.752,141.999 450.5,143.5C 451.035,145.271 451.869,145.604 453,144.5C 453.167,145.167 453.333,145.833 453.5,146.5C 452.366,148.538 452.366,150.538 453.5,152.5C 452.975,153.192 452.308,153.692 451.5,154C 453.054,156.224 454.054,158.724 454.5,161.5C 454.128,173.095 453.128,184.762 451.5,196.5C 451.82,208.504 452.153,220.004 452.5,231C 451.565,234.503 450.565,238.003 449.5,241.5C 450.063,244.357 450.73,247.19 451.5,250C 450.667,255.52 449.001,260.686 446.5,265.5C 445.448,265.351 444.448,265.517 443.5,266C 440.156,270.342 436.49,274.342 432.5,278C 431.167,278.333 429.833,278.667 428.5,279C 426.043,282.058 423.043,284.392 419.5,286C 418.167,287 418.167,288 419.5,289C 414.277,295.548 408.777,301.715 403,307.5C 402.107,306.289 401.274,306.289 400.5,307.5C 401.833,308.5 401.833,309.5 400.5,310.5C 401.716,311.096 403.049,311.263 404.5,311C 404.043,311.414 403.709,311.914 403.5,312.5C 405.441,314.834 407.107,317.334 408.5,320C 409.449,320.617 410.282,320.451 411,319.5C 415.676,324.252 421.176,327.585 427.5,329.5C 429.031,332.365 431.197,334.698 434,336.5C 435.509,339.329 435.675,342.162 434.5,345C 436.215,345.777 437.215,347.11 437.5,349C 436.167,351 436.167,353 437.5,355C 437.156,356.365 436.489,357.532 435.5,358.5C 438.024,361.598 437.69,364.431 434.5,367C 435.308,367.308 435.975,367.808 436.5,368.5C 433.882,371.68 433.549,374.847 435.5,378C 435.05,379.285 434.383,380.452 433.5,381.5C 433.5,384.747 433.667,388.081 434,391.5C 432.237,392.944 430.237,393.944 428,394.5C 428.991,397.244 428.657,399.911 427,402.5C 418.201,416.773 408.701,429.94 398.5,442C 395.937,443.079 393.271,443.579 390.5,443.5C 386.768,441.869 382.768,440.869 378.5,440.5C 383.179,440.666 387.845,440.499 392.5,440C 402.441,425.979 412.108,411.812 421.5,397.5C 424.596,393.122 427.43,388.455 430,383.5C 430.833,368.489 430.666,353.489 429.5,338.5C 428.482,337.807 427.482,337.141 426.5,336.5C 414.767,328.1 402.767,320.1 390.5,312.5C 400.548,301.785 410.881,291.452 421.5,281.5C 429.185,274.314 436.685,266.981 444,259.5C 444.5,241.17 444.667,222.836 444.5,204.5C 444.5,196.5 444.5,188.5 444.5,180.5C 445.952,173.052 446.619,165.385 446.5,157.5C 446.479,131.556 446.312,105.556 446,79.5C 442.667,75.5 439.333,71.5 436,67.5C 435.383,66.5509 435.549,65.7175 436.5,65C 419.778,62.4861 403.111,59.6527 386.5,56.5C 386.047,55.5416 385.381,54.7083 384.5,54C 388.671,53.3698 392.838,51.8698 397,49.5C 404.127,52.4329 411.627,54.2662 419.5,55C 421.992,57.1125 424.658,57.6125 427.5,56.5 Z"/></g>
<g><path style="opacity:0.989" fill="#2d2a23" d="M 230.5,204.5 C 233.518,204.335 236.518,204.502 239.5,205C 236.302,213.239 231.969,220.739 226.5,227.5C 222.179,221.538 217.845,215.538 213.5,209.5C 219.191,207.482 224.858,205.815 230.5,204.5 Z"/></g>
<g><path style="opacity:0.975" fill="#2f2a23" d="M 274.5,207.5 C 278.514,207.334 282.514,207.501 286.5,208C 282.219,215.389 277.552,222.556 272.5,229.5C 269.466,223.48 266.466,217.48 263.5,211.5C 263.709,210.914 264.043,210.414 264.5,210C 267.991,209.262 271.325,208.429 274.5,207.5 Z"/></g>
<g><path style="opacity:0.981" fill="#2d2922" d="M 315.5,223.5 C 318.5,223.5 321.5,223.5 324.5,223.5C 324.5,226.5 324.5,229.5 324.5,232.5C 321.5,232.5 318.5,232.5 315.5,232.5C 315.5,229.5 315.5,226.5 315.5,223.5 Z"/></g>
<g><path style="opacity:0.985" fill="#302a23" d="M 295.5,223.5 C 298.187,223.336 300.854,223.503 303.5,224C 304.444,226.719 304.777,229.552 304.5,232.5C 301.5,232.5 298.5,232.5 295.5,232.5C 295.5,229.5 295.5,226.5 295.5,223.5 Z"/></g>
<g><path style="opacity:0.954" fill="#322a23" d="M 388.5,236.5 C 388.492,239.545 388.159,242.545 387.5,245.5C 384.312,245.382 381.312,244.549 378.5,243C 377.587,241.586 377.587,240.086 378.5,238.5C 378.709,237.078 379.209,235.745 380,234.5C 383.031,233.733 385.864,234.4 388.5,236.5 Z"/></g>
<g><path style="opacity:0.71" fill="#6c322c" d="M 444.5,204.5 C 444.667,222.836 444.5,241.17 444,259.5C 436.685,266.981 429.185,274.314 421.5,281.5C 420.091,279.583 418.424,277.75 416.5,276C 417.167,275 417.833,274 418.5,273C 416.433,272.464 414.599,272.964 413,274.5C 412.417,272.998 411.584,271.665 410.5,270.5C 408.176,270.123 407.509,269.123 408.5,267.5C 406.615,266.803 406.282,265.803 407.5,264.5C 406.175,261.671 404.175,261.004 401.5,262.5C 400.5,264.833 398.833,266.5 396.5,267.5C 395.713,266.758 395.047,265.925 394.5,265C 396.516,264.803 398.516,263.803 400.5,262C 396.898,260.924 393.231,260.09 389.5,259.5C 387.716,260.34 386.716,259.507 386.5,257C 388.492,254.699 390.492,252.366 392.5,250C 391.833,249.667 391.167,249.333 390.5,249C 391.618,247.926 392.618,246.76 393.5,245.5C 393.079,247.08 393.745,248.58 395.5,250C 394.38,251.737 393.38,253.571 392.5,255.5C 392.833,256.167 393.167,256.833 393.5,257.5C 395.378,257.623 397.211,257.623 399,257.5C 399.915,258.328 400.581,259.328 401,260.5C 403.706,258.044 403.539,256.378 400.5,255.5C 402.365,254.334 404.032,254.667 405.5,256.5C 406.308,256.192 406.975,255.692 407.5,255C 404.558,252.776 403.058,249.943 403,246.5C 405.175,248.579 407.675,250.246 410.5,251.5C 411.814,250.687 412.981,249.687 414,248.5C 416.39,249.724 418.89,250.224 421.5,250C 422.451,249.282 422.617,248.449 422,247.5C 420.506,248.747 419.006,248.747 417.5,247.5C 418.668,245.783 420.335,245.116 422.5,245.5C 421.973,241.045 423.473,240.379 427,243.5C 427.7,241.968 428.866,240.968 430.5,240.5C 432.6,239.761 434.933,239.761 437.5,240.5C 438.5,240 439.5,239.5 440.5,239C 438.071,238.549 437.904,237.715 440,236.5C 442.213,238.249 443.213,240.249 443,242.5C 443.355,231 443.189,219.833 442.5,209C 443.099,207.378 443.766,205.878 444.5,204.5 Z"/></g>
<g><path style="opacity:0.948" fill="#b86433" d="M 190.5,322.5 C 186.818,322.665 183.152,322.499 179.5,322C 179,321.5 178.5,321 178,320.5C 177.801,313.115 177.135,305.782 176,298.5C 174.989,297.663 173.822,297.33 172.5,297.5C 172.666,289.826 172.5,282.159 172,274.5C 167.626,267.967 162.46,262.3 156.5,257.5C 153.637,252.47 149.637,248.637 144.5,246C 133.5,245.667 122.5,245.333 111.5,245C 107.63,241.298 103.963,237.464 100.5,233.5C 102.544,227.745 105.377,222.412 109,217.5C 115,226.167 121,234.833 127,243.5C 133.977,234.356 141.143,225.356 148.5,216.5C 151.484,227.101 154.15,237.768 156.5,248.5C 165.205,243.3 174.038,238.3 183,233.5C 182.733,243.811 182.567,254.144 182.5,264.5C 189.2,264.17 195.866,264.503 202.5,265.5C 198.04,272.918 193.707,280.418 189.5,288C 194.5,292.5 199.5,297 204.5,301.5C 201,307.833 197.5,314.167 194,320.5C 193.184,321.823 192.017,322.489 190.5,322.5 Z"/></g>
<g><path style="opacity:0.845" fill="#342c24" d="M 374.5,252.5 C 383.36,253.054 385.36,256.887 380.5,264C 377.507,263.447 374.507,262.447 371.5,261C 372.798,258.273 373.798,255.44 374.5,252.5 Z"/></g>
<g><path style="opacity:0.959" fill="#4c3933" d="M 156.5,257.5 C 162.46,262.3 167.626,267.967 172,274.5C 172.5,282.159 172.666,289.826 172.5,297.5C 167.489,297.666 162.489,297.499 157.5,297C 157,296.5 156.5,296 156,295.5C 155.188,282.758 155.354,270.091 156.5,257.5 Z"/></g>
<g><path style="opacity:0.973" fill="#2f2a23" d="M 234.5,263.5 C 242.488,266.106 250.488,268.606 258.5,271C 252.655,273.511 247.322,276.844 242.5,281C 240.323,282.202 237.989,282.702 235.5,282.5C 234.74,276.196 234.407,269.863 234.5,263.5 Z"/></g>
<g><path style="opacity:0.969" fill="#762e2d" d="M 365.5,341.5 C 362.216,341.277 359.049,340.61 356,339.5C 355.829,334.136 355.329,328.802 354.5,323.5C 349.821,326.179 344.821,327.679 339.5,328C 335.923,323.934 332.589,319.768 329.5,315.5C 329.209,302.423 329.876,289.423 331.5,276.5C 332.157,273.89 333.491,271.557 335.5,269.5C 339.157,271.438 341.157,270.438 341.5,266.5C 346.273,265.859 350.939,266.526 355.5,268.5C 355.343,267.127 355.51,265.793 356,264.5C 357,265.833 358,265.833 359,264.5C 359.496,266.035 359.33,267.535 358.5,269C 359.009,270.169 359.842,271.002 361,271.5C 362.498,269.386 364.331,268.886 366.5,270C 368.422,268.124 370.589,266.624 373,265.5C 373.186,267.047 374.519,268.047 377,268.5C 378.261,268.241 379.261,267.574 380,266.5C 380.333,267.167 380.667,267.833 381,268.5C 382.243,267.664 383.41,267.997 384.5,269.5C 383.011,269.533 381.678,270.033 380.5,271C 380.888,272.808 380.888,274.475 380.5,276C 379.692,276.308 379.025,276.808 378.5,277.5C 379.531,278.7 380.365,280.034 381,281.5C 381.163,279.324 381.996,277.491 383.5,276C 382.549,275.282 382.383,274.449 383,273.5C 385.737,274.61 388.571,274.777 391.5,274C 392.219,271.444 393.886,270.277 396.5,270.5C 396.36,272.124 397.027,273.29 398.5,274C 397.833,274.333 397.167,274.667 396.5,275C 397.408,277.226 397.575,279.726 397,282.5C 398.343,283.214 399.676,282.88 401,281.5C 402.171,282.893 403.671,283.727 405.5,284C 404.167,284.333 402.833,284.667 401.5,285C 402.711,285.893 402.711,286.726 401.5,287.5C 398.215,286.709 395.382,287.709 393,290.5C 389.903,287.318 388.237,287.985 388,292.5C 386.732,292.384 385.398,292.051 384,291.5C 381.03,292.59 380.697,294.256 383,296.5C 384.507,295.465 386.007,295.632 387.5,297C 386.304,297.654 386.304,298.154 387.5,298.5C 389.209,296.29 391.209,296.123 393.5,298C 390.278,301.254 385.944,303.754 380.5,305.5C 379.584,307.784 380.584,308.951 383.5,309C 380.361,309.754 377.361,310.754 374.5,312C 377.501,311.888 380.835,311.888 384.5,312C 385.93,313.886 387.597,315.553 389.5,317C 385.767,318.127 381.934,318.961 378,319.5C 376.602,318.949 375.268,318.616 374,318.5C 373.308,319.025 372.808,319.692 372.5,320.5C 373.145,321.732 373.311,323.065 373,324.5C 374.356,323.62 375.856,323.286 377.5,323.5C 377.351,324.552 377.517,325.552 378,326.5C 378.741,325.359 379.575,325.359 380.5,326.5C 382.111,325.68 382.778,324.346 382.5,322.5C 384.143,322.52 385.476,321.853 386.5,320.5C 387.282,322.329 386.616,323.829 384.5,325C 385.449,325.617 386.282,325.451 387,324.5C 387.689,325.357 388.522,326.023 389.5,326.5C 390.803,325.282 391.803,325.615 392.5,327.5C 393.675,326.145 394.675,326.312 395.5,328C 394.234,328.309 393.067,328.809 392,329.5C 391.667,329.167 391.333,328.833 391,328.5C 388.172,329.996 386.506,332.329 386,335.5C 386.526,332.306 386.526,329.306 386,326.5C 384.647,327.685 383.48,329.019 382.5,330.5C 380.14,329.828 378.14,330.661 376.5,333C 378.878,333.974 378.544,334.641 375.5,335C 376.833,335.667 377.833,336.667 378.5,338C 377.531,339.758 376.364,340.258 375,339.5C 372.096,341.227 368.93,341.893 365.5,341.5 Z"/></g>
<g><path style="opacity:0.965" fill="#322a23" d="M 366.5,271.5 C 369.619,272.317 372.619,273.317 375.5,274.5C 375.041,277.877 374.374,281.211 373.5,284.5C 369.558,284.246 366.225,282.746 363.5,280C 364.803,277.256 365.803,274.423 366.5,271.5 Z"/></g>
<g><path style="opacity:0.008" fill="#503d28" d="M 43.5,274.5 C 42.8333,275.167 42.8333,275.167 43.5,274.5 Z"/></g>
<g><path style="opacity:0.977" fill="#474950" d="M 133.5,248.5 C 137.555,248.176 141.555,248.509 145.5,249.5C 147.483,251.984 149.65,254.317 152,256.5C 152.333,270.5 152.667,284.5 153,298.5C 154.214,300.049 155.714,301.215 157.5,302C 162.833,302.333 168.167,302.667 173.5,303C 174.314,309.753 174.814,316.586 175,323.5C 175.5,324 176,324.5 176.5,325C 180.753,325.2 184.92,325.7 189,326.5C 189.217,337.56 190.05,348.56 191.5,359.5C 191.737,360.791 191.404,361.791 190.5,362.5C 183.191,363.248 175.858,363.582 168.5,363.5C 163.386,355.879 158.053,348.379 152.5,341C 157,337.833 161.5,334.667 166,331.5C 166.667,327.167 166.667,322.833 166,318.5C 160.915,312.743 155.249,307.743 149,303.5C 148.228,303.645 147.561,303.978 147,304.5C 146.167,316.514 146.334,328.514 147.5,340.5C 150.859,345.518 154.193,350.518 157.5,355.5C 149.167,355.5 140.833,355.5 132.5,355.5C 128.38,352.553 124.38,349.387 120.5,346C 122.03,342.439 123.697,338.939 125.5,335.5C 125.376,334.893 125.043,334.56 124.5,334.5C 128.32,332.331 132.154,329.998 136,327.5C 136.667,312.167 136.667,296.833 136,281.5C 135.634,279.548 134.801,277.882 133.5,276.5C 133.938,276.565 134.272,276.399 134.5,276C 131.025,271.025 127.359,266.191 123.5,261.5C 127.264,257.414 130.598,253.081 133.5,248.5 Z"/></g>
<g><path style="opacity:0.008" fill="#4f3d28" d="M 450.5,277.5 C 451.833,278.167 451.833,278.167 450.5,277.5 Z"/></g>
<g><path style="opacity:0.982" fill="#b86433" d="M 133.5,283.5 C 134.633,297.789 134.799,312.122 134,326.5C 133.5,327 133,327.5 132.5,328C 123.84,328.5 115.173,328.666 106.5,328.5C 104.801,328.66 103.134,328.494 101.5,328C 94.3724,319.561 87.3724,311.061 80.5,302.5C 91.6738,301.833 103.007,301.167 114.5,300.5C 109.358,293.523 104.024,286.69 98.5,280C 110.258,280.411 121.925,281.578 133.5,283.5 Z"/></g>
<g><path style="opacity:0.969" fill="#312a23" d="M 361.5,291.5 C 365.033,292.762 368.033,294.762 370.5,297.5C 367.929,307.279 363.595,308.113 357.5,300C 358.711,297.08 360.044,294.247 361.5,291.5 Z"/></g>
<g><path style="opacity:0.118" fill="#463523" d="M 83.5,356.5 C 88.5,356.5 93.5,356.5 98.5,356.5C 98.281,357.675 98.6143,358.675 99.5,359.5C 101.776,360.213 104.109,360.713 106.5,361C 119.411,361.033 132.411,361.366 145.5,362C 151.623,362.279 157.29,363.946 162.5,367C 170.176,368.954 177.842,368.954 185.5,367C 187.708,365.953 189.374,364.453 190.5,362.5C 191.404,361.791 191.737,360.791 191.5,359.5C 193.255,358.928 194.922,358.094 196.5,357C 198.167,356.333 199.833,356.333 201.5,357C 207.104,362.44 211.77,368.606 215.5,375.5C 217.193,378.012 219.526,379.512 222.5,380C 222.167,380.333 221.833,380.667 221.5,381C 222.416,381.374 223.25,381.874 224,382.5C 224.399,382.272 224.565,381.938 224.5,381.5C 226.633,383.091 228.299,385.091 229.5,387.5C 231.302,391.525 232.968,391.858 234.5,388.5C 237.926,386.256 241.26,383.756 244.5,381C 246.891,380.713 249.224,380.213 251.5,379.5C 252.25,382.658 253.583,385.325 255.5,387.5C 261.767,387.1 268.1,387.1 274.5,387.5C 276.035,384.768 277.869,382.102 280,379.5C 281.072,374.617 282.739,369.95 285,365.5C 290.907,361.489 297.074,357.989 303.5,355C 309.747,346.978 312.413,337.811 311.5,327.5C 310.258,319.607 311.424,311.941 315,304.5C 316.11,302.963 317.61,302.297 319.5,302.5C 319.938,306.072 320.604,309.572 321.5,313C 320.903,314.628 321.237,316.295 322.5,318C 321.353,325.754 321.186,333.587 322,341.5C 323.447,351.395 328.28,358.229 336.5,362C 341.34,364.09 346.34,365.59 351.5,366.5C 360.205,365.534 369.039,365.2 378,365.5C 379.399,366.227 380.899,366.727 382.5,367C 384.46,369.866 386.126,372.866 387.5,376C 385.311,376.677 384.978,377.844 386.5,379.5C 383.875,381.081 382.542,383.415 382.5,386.5C 381.448,386.351 380.448,386.517 379.5,387C 361.87,401.613 342.87,414.28 322.5,425C 320.333,427.167 318.167,429.333 316,431.5C 315.503,433.81 315.337,436.143 315.5,438.5C 314.596,439.209 314.263,440.209 314.5,441.5C 320.68,440.829 326.514,441.829 332,444.5C 334.801,443.205 337.634,443.205 340.5,444.5C 341.611,443.389 342.945,442.722 344.5,442.5C 346.974,443.269 349.474,443.936 352,444.5C 364.715,443.723 377.548,443.39 390.5,443.5C 393.271,443.579 395.937,443.079 398.5,442C 408.701,429.94 418.201,416.773 427,402.5C 428.657,399.911 428.991,397.244 428,394.5C 430.237,393.944 432.237,392.944 434,391.5C 433.667,388.081 433.5,384.747 433.5,381.5C 434.383,380.452 435.05,379.285 435.5,378C 433.549,374.847 433.882,371.68 436.5,368.5C 435.975,367.808 435.308,367.308 434.5,367C 437.69,364.431 438.024,361.598 435.5,358.5C 436.489,357.532 437.156,356.365 437.5,355C 436.167,353 436.167,351 437.5,349C 437.215,347.11 436.215,345.777 434.5,345C 435.675,342.162 435.509,339.329 434,336.5C 431.197,334.698 429.031,332.365 427.5,329.5C 421.176,327.585 415.676,324.252 411,319.5C 410.282,320.451 409.449,320.617 408.5,320C 407.107,317.334 405.441,314.834 403.5,312.5C 403.709,311.914 404.043,311.414 404.5,311C 403.049,311.263 401.716,311.096 400.5,310.5C 401.833,309.5 401.833,308.5 400.5,307.5C 401.274,306.289 402.107,306.289 403,307.5C 408.777,301.715 414.277,295.548 419.5,289C 418.167,288 418.167,287 419.5,286C 423.043,284.392 426.043,282.058 428.5,279C 429.833,278.667 431.167,278.333 432.5,278C 436.49,274.342 440.156,270.342 443.5,266C 444.448,265.517 445.448,265.351 446.5,265.5C 449.001,260.686 450.667,255.52 451.5,250C 450.73,247.19 450.063,244.357 449.5,241.5C 450.565,238.003 451.565,234.503 452.5,231C 452.153,220.004 451.82,208.504 451.5,196.5C 453.128,184.762 454.128,173.095 454.5,161.5C 454.054,158.724 453.054,156.224 451.5,154C 452.308,153.692 452.975,153.192 453.5,152.5C 452.366,150.538 452.366,148.538 453.5,146.5C 453.333,145.833 453.167,145.167 453,144.5C 451.869,145.604 451.035,145.271 450.5,143.5C 451.752,141.999 452.752,140.332 453.5,138.5C 452.873,129.027 452.873,119.694 453.5,110.5C 451.021,107.701 451.021,104.868 453.5,102C 453.241,100.739 452.574,99.7387 451.5,99C 453.856,95.4634 453.856,91.9634 451.5,88.5C 451.709,87.914 452.043,87.414 452.5,87C 451.167,86.3333 449.833,85.6667 448.5,85C 449.448,84.5172 450.448,84.3505 451.5,84.5C 451.477,81.5429 450.477,79.0429 448.5,77C 449.956,76.5774 450.456,75.7441 450,74.5C 446.466,70.2992 442.633,66.4659 438.5,63C 436.481,62.5503 434.648,61.717 433,60.5C 431.663,61.7649 430.163,62.2649 428.5,62C 428.833,61.6667 429.167,61.3333 429.5,61C 427.35,59.8077 426.683,58.3077 427.5,56.5C 432.224,54.7152 435.724,56.3819 438,61.5C 438.423,60.0439 439.256,59.5439 440.5,60C 441.759,60.9234 443.092,61.7568 444.5,62.5C 445.641,63.4255 445.641,64.2588 444.5,65C 446.421,65.3603 448.088,66.1936 449.5,67.5C 449.291,68.086 448.957,68.586 448.5,69C 453.296,72.3558 454.963,76.8558 453.5,82.5C 454.098,83.7946 454.598,85.1279 455,86.5C 455.333,86.1667 455.667,85.8333 456,85.5C 456.333,87.5 456.667,89.5 457,91.5C 456.346,100.965 456.512,110.298 457.5,119.5C 455.788,126.506 455.121,133.506 455.5,140.5C 456.167,141.167 456.833,141.833 457.5,142.5C 456.253,144.042 456.253,145.542 457.5,147C 455.809,151.636 455.142,156.303 455.5,161C 456.573,162.313 457.24,163.813 457.5,165.5C 456.193,170.674 456.193,175.841 457.5,181C 455.946,186.096 454.946,191.096 454.5,196C 455.391,216.651 455.391,236.984 454.5,257C 452.405,261.196 450.072,265.196 447.5,269C 446.175,268.852 445.008,269.018 444,269.5C 443.415,271.129 442.581,272.629 441.5,274C 441.735,274.873 442.069,275.707 442.5,276.5C 431.766,286.414 421.266,296.414 411,306.5C 410.333,308.5 410.333,310.5 411,312.5C 421.294,319.294 430.461,327.461 438.5,337C 439.233,341.23 440.233,345.396 441.5,349.5C 440.99,351.088 439.99,352.255 438.5,353C 439.259,358.31 438.925,363.644 437.5,369C 437.767,372.032 438.767,374.699 440.5,377C 437.804,379.463 437.471,381.963 439.5,384.5C 437.889,387.22 437.056,390.22 437,393.5C 431.836,401.817 426.169,409.817 420,417.5C 419.667,418.833 419.333,420.167 419,421.5C 412.962,427.883 407.629,434.883 403,442.5C 400.33,443.224 398.83,444.891 398.5,447.5C 393.105,449.129 387.605,450.462 382,451.5C 381.127,451.265 380.293,450.931 379.5,450.5C 368.21,451.388 356.877,452.054 345.5,452.5C 338.776,451.472 332.276,451.472 326,452.5C 321.743,451.449 317.743,449.782 314,447.5C 312.733,444.725 311.233,442.059 309.5,439.5C 309.977,438.522 310.643,437.689 311.5,437C 310.483,435.951 310.316,434.784 311,433.5C 313.479,431.749 314.312,429.582 313.5,427C 324.753,419.467 336.253,412.301 348,405.5C 348.561,406.022 349.228,406.355 350,406.5C 353.663,401.098 358.497,397.264 364.5,395C 367.385,391.568 371.052,388.235 375.5,385C 376.833,384.667 378.167,384.333 379.5,384C 380.96,380.83 381.96,377.497 382.5,374C 381.864,370.446 379.697,368.613 376,368.5C 366.911,369.65 357.745,369.817 348.5,369C 345.15,368.75 341.983,367.917 339,366.5C 338.667,366.833 338.333,367.167 338,367.5C 333.554,363.603 328.887,359.937 324,356.5C 320.422,350.179 317.755,343.512 316,336.5C 314.589,345.108 311.089,352.608 305.5,359C 302.371,360.399 299.371,362.065 296.5,364C 293.341,364.011 290.507,364.845 288,366.5C 286.429,373.278 284.429,379.945 282,386.5C 276.932,391.105 270.932,393.105 264,392.5C 258.709,392.786 253.709,391.786 249,389.5C 246.259,390.789 243.759,392.455 241.5,394.5C 239.936,393.814 238.269,393.981 236.5,395C 236.833,395.333 237.167,395.667 237.5,396C 233.375,397.01 229.375,397.177 225.5,396.5C 225.62,393.795 224.62,393.128 222.5,394.5C 220.729,393.965 220.396,393.131 221.5,392C 217.961,391.664 215.794,389.831 215,386.5C 213.145,384.645 211.312,382.812 209.5,381C 209.645,380.228 209.978,379.561 210.5,379C 207.691,374.912 204.358,371.246 200.5,368C 197.239,367.293 194.572,368.293 192.5,371C 181.979,375.32 171.313,375.653 160.5,372C 156.034,369.734 151.368,368.067 146.5,367C 130.653,367.481 114.819,367.648 99,367.5C 95.1292,365.778 91.2958,364.611 87.5,364C 86.186,361.688 84.5194,359.688 82.5,358C 82.5699,357.235 82.9033,356.735 83.5,356.5 Z"/></g>
<g><path style="opacity:0.973" fill="#76302f" d="M 168.5,363.5 C 163.748,362.426 160.081,359.76 157.5,355.5C 154.193,350.518 150.859,345.518 147.5,340.5C 146.334,328.514 146.167,316.514 147,304.5C 147.561,303.978 148.228,303.645 149,303.5C 155.249,307.743 160.915,312.743 166,318.5C 166.667,322.833 166.667,327.167 166,331.5C 161.5,334.667 157,337.833 152.5,341C 158.053,348.379 163.386,355.879 168.5,363.5 Z"/></g>
<g><path style="opacity:0.973" fill="#484035" d="M 302.5,320.5 C 302.666,329.839 302.5,339.173 302,348.5C 298.676,350.692 295.176,352.359 291.5,353.5C 278.292,354.386 265.292,356.386 252.5,359.5C 252.334,354.821 252.501,350.155 253,345.5C 253.833,344.667 254.667,343.833 255.5,343C 264.28,340.44 272.947,337.606 281.5,334.5C 282.493,329.88 282.827,325.214 282.5,320.5C 285.845,317.322 289.345,314.322 293,311.5C 296.672,314.007 299.839,317.007 302.5,320.5 Z"/></g>
<g><path style="opacity:0.963" fill="#2f2a22" d="M 329.5,315.5 C 332.589,319.768 335.923,323.934 339.5,328C 344.821,327.679 349.821,326.179 354.5,323.5C 355.329,328.802 355.829,334.136 356,339.5C 359.049,340.61 362.216,341.277 365.5,341.5C 366.718,342.161 368.051,342.828 369.5,343.5C 368.167,345.833 366.833,348.167 365.5,350.5C 368.566,352.563 370.899,355.23 372.5,358.5C 362.161,358.666 351.828,358.5 341.5,358C 336.793,355.172 332.793,351.672 329.5,347.5C 328.203,336.705 328.203,326.039 329.5,315.5 Z"/></g>
<g><path style="opacity:0.263" fill="#382a1c" d="M 64.5,283.5 C 69.8333,289.833 75.1667,296.167 80.5,302.5C 87.3724,311.061 94.3724,319.561 101.5,328C 103.134,328.494 104.801,328.66 106.5,328.5C 107.478,330.664 108.478,332.83 109.5,335C 108.252,337.41 107.252,339.91 106.5,342.5C 103.354,345.244 99.6874,347.244 95.5,348.5C 97.7533,345.205 100.753,341.872 104.5,338.5C 105.485,336.902 105.651,335.235 105,333.5C 103.167,332.333 101.667,330.833 100.5,329C 94.9531,327.521 90.4531,324.355 87,319.5C 83.3388,315.842 81.0055,311.509 80,306.5C 75.4347,304.735 73.268,301.402 73.5,296.5C 72.1266,296.657 70.7932,296.49 69.5,296C 67.6652,295.072 67.3318,293.906 68.5,292.5C 66.464,289.786 65.1307,286.786 64.5,283.5 Z"/></g>
<g><path style="opacity:0.494" fill="#302319" d="M 100.5,233.5 C 103.963,237.464 107.63,241.298 111.5,245C 122.5,245.333 133.5,245.667 144.5,246C 149.637,248.637 153.637,252.47 156.5,257.5C 155.354,270.091 155.188,282.758 156,295.5C 156.5,296 157,296.5 157.5,297C 162.489,297.499 167.489,297.666 172.5,297.5C 173.822,297.33 174.989,297.663 176,298.5C 177.135,305.782 177.801,313.115 178,320.5C 178.5,321 179,321.5 179.5,322C 183.152,322.499 186.818,322.665 190.5,322.5C 192.2,327.206 193.033,332.206 193,337.5C 203.764,352.049 214.264,366.716 224.5,381.5C 224.565,381.938 224.399,382.272 224,382.5C 223.25,381.874 222.416,381.374 221.5,381C 221.833,380.667 222.167,380.333 222.5,380C 219.526,379.512 217.193,378.012 215.5,375.5C 211.77,368.606 207.104,362.44 201.5,357C 199.833,356.333 198.167,356.333 196.5,357C 194.922,358.094 193.255,358.928 191.5,359.5C 190.05,348.56 189.217,337.56 189,326.5C 184.92,325.7 180.753,325.2 176.5,325C 176,324.5 175.5,324 175,323.5C 174.814,316.586 174.314,309.753 173.5,303C 168.167,302.667 162.833,302.333 157.5,302C 155.714,301.215 154.214,300.049 153,298.5C 152.667,284.5 152.333,270.5 152,256.5C 149.65,254.317 147.483,251.984 145.5,249.5C 141.555,248.509 137.555,248.176 133.5,248.5C 125.826,248.666 118.159,248.5 110.5,248C 104.624,242.292 98.9576,236.459 93.5,230.5C 93.1667,231.5 92.8333,232.5 92.5,233.5C 93.7063,243.8 94.5397,254.134 95,264.5C 95.1308,267.371 96.2975,269.705 98.5,271.5C 109.997,274.333 121.664,275.999 133.5,276.5C 134.801,277.882 135.634,279.548 136,281.5C 136.667,296.833 136.667,312.167 136,327.5C 132.154,329.998 128.32,332.331 124.5,334.5C 118.47,337.184 112.47,339.85 106.5,342.5C 107.252,339.91 108.252,337.41 109.5,335C 108.478,332.83 107.478,330.664 106.5,328.5C 115.173,328.666 123.84,328.5 132.5,328C 133,327.5 133.5,327 134,326.5C 134.799,312.122 134.633,297.789 133.5,283.5C 133.126,280.112 131.126,278.278 127.5,278C 118.853,277.085 110.186,276.418 101.5,276C 98.4522,275.394 95.9522,273.894 94,271.5C 90.8148,255.68 89.8148,239.68 91,223.5C 94.3986,226.729 97.5653,230.062 100.5,233.5 Z"/></g>
<g><path style="opacity:0.954" fill="#d9d7d7" d="M 133.5,248.5 C 130.598,253.081 127.264,257.414 123.5,261.5C 127.359,266.191 131.025,271.025 134.5,276C 134.272,276.399 133.938,276.565 133.5,276.5C 121.664,275.999 109.997,274.333 98.5,271.5C 96.2975,269.705 95.1308,267.371 95,264.5C 94.5397,254.134 93.7063,243.8 92.5,233.5C 92.8333,232.5 93.1667,231.5 93.5,230.5C 98.9576,236.459 104.624,242.292 110.5,248C 118.159,248.5 125.826,248.666 133.5,248.5 Z"/></g>
<g><path style="opacity:0.443" fill="#2f2318" d="M 332.5,245.5 C 332.638,255.854 332.305,266.188 331.5,276.5C 329.876,289.423 329.209,302.423 329.5,315.5C 328.203,326.039 328.203,336.705 329.5,347.5C 328.5,347.5 327.5,347.5 326.5,347.5C 327.069,329.908 327.069,312.574 326.5,295.5C 326.787,293.514 327.453,291.68 328.5,290C 322.773,281.504 317.773,282.004 313.5,291.5C 312.833,281.675 312.167,272.008 311.5,262.5C 311.919,259.675 310.919,257.509 308.5,256C 301.167,255.333 293.833,255.333 286.5,256C 285.692,256.308 285.025,256.808 284.5,257.5C 283.365,265.451 283.198,273.451 284,281.5C 284.5,282 285,282.5 285.5,283C 289.833,283.667 294.167,283.667 298.5,283C 299,282.5 299.5,282 300,281.5C 300.499,276.177 300.666,270.844 300.5,265.5C 297.833,265.5 295.167,265.5 292.5,265.5C 292.817,268.572 292.484,271.572 291.5,274.5C 289.739,271.004 289.239,267.337 290,263.5C 294.401,262.533 298.901,262.2 303.5,262.5C 303.666,269.175 303.5,275.842 303,282.5C 301.954,284.09 300.787,285.59 299.5,287C 294.167,287.333 288.833,287.667 283.5,288C 283,288.5 282.5,289 282,289.5C 281.192,299.91 281.359,310.243 282.5,320.5C 282.827,325.214 282.493,329.88 281.5,334.5C 272.947,337.606 264.28,340.44 255.5,343C 254.667,343.833 253.833,344.667 253,345.5C 252.501,350.155 252.334,354.821 252.5,359.5C 252.5,360.833 252.5,362.167 252.5,363.5C 255.336,363.202 255.836,363.869 254,365.5C 253.333,368.833 253.333,372.167 254,375.5C 256.198,373.625 258.031,373.625 259.5,375.5C 260.799,374.91 261.632,373.91 262,372.5C 266.052,374.919 267.552,378.252 266.5,382.5C 263.154,383.003 259.821,383.67 256.5,384.5C 255.873,385.417 255.539,386.417 255.5,387.5C 253.583,385.325 252.25,382.658 251.5,379.5C 249.224,380.213 246.891,380.713 244.5,381C 241.26,383.756 237.926,386.256 234.5,388.5C 241.713,363.364 249.213,338.364 257,313.5C 259.667,319.5 262.333,325.5 265,331.5C 270.78,307.134 276.446,282.8 282,258.5C 282.424,255.975 283.59,253.975 285.5,252.5C 293.84,252.334 302.173,252.5 310.5,253C 311.333,253.833 312.167,254.667 313,255.5C 314.083,264.446 314.916,273.446 315.5,282.5C 320.388,280.117 324.555,276.783 328,272.5C 328.333,253.833 328.667,235.167 329,216.5C 329.175,212.789 329.675,209.122 330.5,205.5C 331.478,205.977 332.311,206.643 333,207.5C 332.708,220.146 332.541,232.813 332.5,245.5 Z"/></g>
<g><path style="opacity:0.984" fill="#752d2d" d="M 311.5,262.5 C 311.667,274.171 311.5,285.838 311,297.5C 309.005,299.747 306.505,300.747 303.5,300.5C 303.824,307.354 303.491,314.021 302.5,320.5C 299.839,317.007 296.672,314.007 293,311.5C 289.345,314.322 285.845,317.322 282.5,320.5C 281.359,310.243 281.192,299.91 282,289.5C 282.5,289 283,288.5 283.5,288C 288.833,287.667 294.167,287.333 299.5,287C 300.787,285.59 301.954,284.09 303,282.5C 303.5,275.842 303.666,269.175 303.5,262.5C 298.901,262.2 294.401,262.533 290,263.5C 289.239,267.337 289.739,271.004 291.5,274.5C 292.484,271.572 292.817,268.572 292.5,265.5C 295.167,265.5 297.833,265.5 300.5,265.5C 300.666,270.844 300.499,276.177 300,281.5C 299.5,282 299,282.5 298.5,283C 294.167,283.667 289.833,283.667 285.5,283C 285,282.5 284.5,282 284,281.5C 283.198,273.451 283.365,265.451 284.5,257.5C 285.025,256.808 285.692,256.308 286.5,256C 293.833,255.333 301.167,255.333 308.5,256C 310.919,257.509 311.919,259.675 311.5,262.5 Z"/></g>
<g><path style="opacity:0.973" fill="#e2d621" d="M 152.5,316.5 C 159.68,317.857 161.346,321.69 157.5,328C 150.717,329.218 147.884,326.384 149,319.5C 150.145,318.364 151.312,317.364 152.5,316.5 Z"/></g>
<g><path style="opacity:0.976" fill="#332f23" d="M 152.5,319.5 C 156.35,319.701 157.35,321.534 155.5,325C 151.537,325.118 150.537,323.284 152.5,319.5 Z"/></g>
<g><path style="opacity:0.962" fill="#deddde" d="M 124.5,334.5 C 125.043,334.56 125.376,334.893 125.5,335.5C 123.697,338.939 122.03,342.439 120.5,346C 124.38,349.387 128.38,352.553 132.5,355.5C 116.325,355.83 100.325,355.496 84.5,354.5C 88.3934,352.724 92.0601,350.724 95.5,348.5C 99.6874,347.244 103.354,345.244 106.5,342.5C 112.47,339.85 118.47,337.184 124.5,334.5 Z"/></g>
<g><path style="opacity:0.532" fill="#675e56" d="M 83.5,354.5 C 83.8333,354.5 84.1667,354.5 84.5,354.5C 100.325,355.496 116.325,355.83 132.5,355.5C 121.346,356.495 110.012,356.828 98.5,356.5C 93.5,356.5 88.5,356.5 83.5,356.5C 83.5,355.833 83.5,355.167 83.5,354.5 Z"/></g>
<g><path style="opacity:0.95" fill="#2e2920" d="M 266.5,382.5 C 267.552,378.252 266.052,374.919 262,372.5C 261.632,373.91 260.799,374.91 259.5,375.5C 258.031,373.625 256.198,373.625 254,375.5C 253.333,372.167 253.333,368.833 254,365.5C 255.836,363.869 255.336,363.202 252.5,363.5C 252.5,362.167 252.5,360.833 252.5,359.5C 265.292,356.386 278.292,354.386 291.5,353.5C 293.861,353.326 296.194,352.993 298.5,352.5C 298.5,353.5 298.5,354.5 298.5,355.5C 290.141,355.841 283.807,359.508 279.5,366.5C 278.311,367.429 276.978,367.762 275.5,367.5C 274.995,373.869 274.162,380.202 273,386.5C 271.954,384.91 270.787,383.41 269.5,382C 268.423,381.53 267.423,381.697 266.5,382.5 Z"/></g>
<g><path style="opacity:0.254" fill="#382a1c" d="M 132.5,355.5 C 140.833,355.5 149.167,355.5 157.5,355.5C 160.081,359.76 163.748,362.426 168.5,363.5C 175.858,363.582 183.191,363.248 190.5,362.5C 189.374,364.453 187.708,365.953 185.5,367C 177.842,368.954 170.176,368.954 162.5,367C 157.29,363.946 151.623,362.279 145.5,362C 132.411,361.366 119.411,361.033 106.5,361C 104.109,360.713 101.776,360.213 99.5,359.5C 98.6143,358.675 98.281,357.675 98.5,356.5C 110.012,356.828 121.346,356.495 132.5,355.5 Z"/></g>
<g><path style="opacity:0.716" fill="#6b322c" d="M 426.5,336.5 C 427.482,337.141 428.482,337.807 429.5,338.5C 430.666,353.489 430.833,368.489 430,383.5C 427.43,388.455 424.596,393.122 421.5,397.5C 421.5,395.5 421.5,393.5 421.5,391.5C 418.995,391.98 416.662,392.98 414.5,394.5C 413.453,390.888 412.62,387.221 412,383.5C 411.184,384.823 410.017,385.489 408.5,385.5C 408.208,384.022 408.208,382.356 408.5,380.5C 407.284,379.904 405.951,379.737 404.5,380C 406.276,378.329 406.61,376.496 405.5,374.5C 406.736,373.643 408.069,372.977 409.5,372.5C 411.799,374.969 411.799,377.303 409.5,379.5C 410.929,382.318 413.262,383.651 416.5,383.5C 416.78,380.612 415.447,379.112 412.5,379C 413.956,377.255 415.289,375.422 416.5,373.5C 418.441,370.184 421.107,369.184 424.5,370.5C 423.754,371.736 423.421,373.07 423.5,374.5C 424.675,374.719 425.675,374.386 426.5,373.5C 425.571,371.678 426.238,370.345 428.5,369.5C 425.04,368.364 421.707,367.864 418.5,368C 420.515,365.583 422.515,363.916 424.5,363C 419.807,362.184 419.474,360.684 423.5,358.5C 421.547,357.239 419.547,356.073 417.5,355C 418.833,354.333 420.167,353.667 421.5,353C 418.793,352.672 416.126,353.005 413.5,354C 411.606,355.101 410.939,356.434 411.5,358C 410.572,359.976 409.405,361.809 408,363.5C 407.692,362.692 407.192,362.025 406.5,361.5C 404.927,363.836 403.594,363.836 402.5,361.5C 404.22,360.08 406.054,358.747 408,357.5C 408.617,356.551 408.451,355.718 407.5,355C 410.646,354.89 411.646,353.557 410.5,351C 413.504,350.427 415.837,348.927 417.5,346.5C 418.167,346.667 418.833,346.833 419.5,347C 418.304,347.654 418.304,348.154 419.5,348.5C 421.098,347.515 422.765,347.349 424.5,348C 423.833,348.667 423.167,349.333 422.5,350C 424.579,350.808 426.579,350.641 428.5,349.5C 429.428,348.232 429.595,346.899 429,345.5C 427.5,344.667 426.333,343.5 425.5,342C 427.891,340.691 427.891,339.691 425.5,339C 426.252,338.329 426.586,337.496 426.5,336.5 Z"/></g>
<g><path style="opacity:0.207" fill="#3b2c1e" d="M 311.5,262.5 C 312.167,272.008 312.833,281.675 313.5,291.5C 317.773,282.004 322.773,281.504 328.5,290C 327.453,291.68 326.787,293.514 326.5,295.5C 327.069,312.574 327.069,329.908 326.5,347.5C 327.5,347.5 328.5,347.5 329.5,347.5C 332.793,351.672 336.793,355.172 341.5,358C 351.828,358.5 362.161,358.666 372.5,358.5C 378.842,358.334 385.175,358.5 391.5,359C 392,359.5 392.5,360 393,360.5C 393.171,368.677 393.671,376.677 394.5,384.5C 394.5,385.5 394.5,386.5 394.5,387.5C 391.436,387.144 388.769,387.977 386.5,390C 372.242,401.429 357.576,412.263 342.5,422.5C 332.779,426.531 323.779,431.864 315.5,438.5C 315.337,436.143 315.503,433.81 316,431.5C 318.167,429.333 320.333,427.167 322.5,425C 342.87,414.28 361.87,401.613 379.5,387C 380.448,386.517 381.448,386.351 382.5,386.5C 382.542,383.415 383.875,381.081 386.5,379.5C 384.978,377.844 385.311,376.677 387.5,376C 386.126,372.866 384.46,369.866 382.5,367C 380.899,366.727 379.399,366.227 378,365.5C 369.039,365.2 360.205,365.534 351.5,366.5C 346.34,365.59 341.34,364.09 336.5,362C 328.28,358.229 323.447,351.395 322,341.5C 321.186,333.587 321.353,325.754 322.5,318C 321.237,316.295 320.903,314.628 321.5,313C 320.604,309.572 319.938,306.072 319.5,302.5C 317.61,302.297 316.11,302.963 315,304.5C 311.424,311.941 310.258,319.607 311.5,327.5C 312.413,337.811 309.747,346.978 303.5,355C 297.074,357.989 290.907,361.489 285,365.5C 282.739,369.95 281.072,374.617 280,379.5C 277.869,382.102 276.035,384.768 274.5,387.5C 268.1,387.1 261.767,387.1 255.5,387.5C 255.539,386.417 255.873,385.417 256.5,384.5C 259.821,383.67 263.154,383.003 266.5,382.5C 267.423,381.697 268.423,381.53 269.5,382C 270.787,383.41 271.954,384.91 273,386.5C 274.162,380.202 274.995,373.869 275.5,367.5C 276.978,367.762 278.311,367.429 279.5,366.5C 283.807,359.508 290.141,355.841 298.5,355.5C 298.5,354.5 298.5,353.5 298.5,352.5C 296.194,352.993 293.861,353.326 291.5,353.5C 295.176,352.359 298.676,350.692 302,348.5C 302.5,339.173 302.666,329.839 302.5,320.5C 303.491,314.021 303.824,307.354 303.5,300.5C 306.505,300.747 309.005,299.747 311,297.5C 311.5,285.838 311.667,274.171 311.5,262.5 Z"/></g>
<g><path style="opacity:0.772" fill="#4a3f32" d="M 408.5,385.5 C 410.017,385.489 411.184,384.823 412,383.5C 412.62,387.221 413.453,390.888 414.5,394.5C 416.662,392.98 418.995,391.98 421.5,391.5C 421.5,393.5 421.5,395.5 421.5,397.5C 412.108,411.812 402.441,425.979 392.5,440C 387.845,440.499 383.179,440.666 378.5,440.5C 375.833,440.5 373.167,440.5 370.5,440.5C 369.776,435.285 369.109,430.285 368.5,425.5C 363.874,429.152 358.874,432.319 353.5,435C 351.5,436.333 349.833,438 348.5,440C 346.527,440.495 344.527,440.662 342.5,440.5C 342.5,434.5 342.5,428.5 342.5,422.5C 357.576,412.263 372.242,401.429 386.5,390C 388.769,387.977 391.436,387.144 394.5,387.5C 394.5,386.5 394.5,385.5 394.5,384.5C 395.256,381.416 397.256,379.749 400.5,379.5C 400.163,383.308 400.663,386.974 402,390.5C 404.352,388.97 406.519,387.303 408.5,385.5 Z"/></g>
<g><path style="opacity:0.02" fill="#503d28" d="M 199.5,399.5 C 201.646,399.696 201.812,400.696 200,402.5C 199.517,401.552 199.351,400.552 199.5,399.5 Z"/></g>
<g><path style="opacity:0.022" fill="#513c29" d="M 292.5,415.5 C 294.028,415.517 294.528,416.184 294,417.5C 290.9,421.356 287.567,425.023 284,428.5C 283.333,427.833 283.333,427.167 284,426.5C 287.073,422.939 289.906,419.272 292.5,415.5 Z"/></g>
<g><path style="opacity:0.008" fill="#503d28" d="M 281.5,430.5 C 281.897,429.475 282.563,429.308 283.5,430C 282.906,430.464 282.239,430.631 281.5,430.5 Z"/></g>
<g><path style="opacity:0.376" fill="#332a1f" d="M 342.5,422.5 C 342.5,428.5 342.5,434.5 342.5,440.5C 344.527,440.662 346.527,440.495 348.5,440C 349.833,438 351.5,436.333 353.5,435C 358.874,432.319 363.874,429.152 368.5,425.5C 369.109,430.285 369.776,435.285 370.5,440.5C 373.167,440.5 375.833,440.5 378.5,440.5C 382.768,440.869 386.768,441.869 390.5,443.5C 377.548,443.39 364.715,443.723 352,444.5C 349.474,443.936 346.974,443.269 344.5,442.5C 342.945,442.722 341.611,443.389 340.5,444.5C 337.634,443.205 334.801,443.205 332,444.5C 326.514,441.829 320.68,440.829 314.5,441.5C 314.263,440.209 314.596,439.209 315.5,438.5C 323.779,431.864 332.779,426.531 342.5,422.5 Z"/></g>
</svg>
