<?xml version="1.0" encoding="UTF-8"?>
<!DOCTYPE svg PUBLIC "-//W3C//DTD SVG 1.1//EN" "http://www.w3.org/Graphics/SVG/1.1/DTD/svg11.dtd">
<svg xmlns="http://www.w3.org/2000/svg" version="1.1" width="500px" height="500px" style="shape-rendering:geometricPrecision; text-rendering:geometricPrecision; image-rendering:optimizeQuality; fill-rule:evenodd; clip-rule:evenodd" xmlns:xlink="http://www.w3.org/1999/xlink">
<g><path style="opacity:0.03" fill="#4e3b27" d="M 453.5,126.5 C 452.167,126.833 452.167,127.167 453.5,127.5C 454.429,128.315 455.429,129.148 456.5,130C 456.167,130.333 455.833,130.667 455.5,131C 458.09,133.004 460.09,135.504 461.5,138.5C 461.291,139.086 460.957,139.586 460.5,140C 462.872,141.375 464.539,143.375 465.5,146C 468.723,160.758 467.89,175.258 463,189.5C 460.684,199.778 457.017,209.445 452,218.5C 453.161,234.816 453.661,250.983 453.5,267C 452.691,271.292 451.358,275.292 449.5,279C 449.957,279.414 450.291,279.914 450.5,280.5C 446.099,290.971 440.932,300.971 435,310.5C 427.689,318.143 420.023,325.476 412,332.5C 411.667,332.167 411.333,331.833 411,331.5C 409.333,333.167 407.667,334.833 406,336.5C 405.637,340.622 405.47,344.789 405.5,349C 405.892,350.011 406.559,350.511 407.5,350.5C 406.23,361.754 405.73,372.754 406,383.5C 405.293,385.081 404.46,386.581 403.5,388C 404.634,389.016 404.301,389.683 402.5,390C 403.833,391.84 403.666,392.34 402,391.5C 401.626,392.416 401.126,393.25 400.5,394C 397.134,395.1 393.967,396.6 391,398.5C 388.309,397.708 385.642,398.041 383,399.5C 381.538,399.006 380.038,398.673 378.5,398.5C 364.805,401.142 350.805,400.642 336.5,397C 332.99,394.831 330.823,391.664 330,387.5C 329.406,383.679 328.906,379.845 328.5,376C 329.292,371.843 329.458,367.677 329,363.5C 328.25,362.874 327.416,362.374 326.5,362C 313.852,363.295 301.186,363.629 288.5,363C 285.035,365.463 281.869,368.296 279,371.5C 277.667,376.167 276.333,380.833 275,385.5C 271.942,390.423 267.442,392.923 261.5,393C 244.37,394.986 227.37,394.653 210.5,392C 207.417,391.214 205.251,389.381 204,386.5C 200.832,376.505 200.665,366.172 203.5,355.5C 203.43,354.228 203.097,353.062 202.5,352C 188.171,353.129 173.837,354.296 159.5,355.5C 134.279,352.232 108.946,349.898 83.5,348.5C 69.0332,349.848 54.6998,349.014 40.5,346C 38.9194,345.293 37.4194,344.46 36,343.5C 35.2689,341.101 34.1022,338.935 32.5,337C 33.0219,336.439 33.3552,335.772 33.5,335C 31.9343,332.088 31.101,328.921 31,325.5C 30.3333,314.167 30.3333,302.833 31,291.5C 32.0529,285.447 35.5529,281.613 41.5,280C 46.4814,279.252 51.4814,278.752 56.5,278.5C 56.1459,276.459 56.1459,274.626 56.5,273C 55.5838,272.626 54.7504,272.126 54,271.5C 53.3065,266.921 52.4731,262.421 51.5,258C 47.4378,231.52 50.6044,205.353 61,179.5C 65.9075,168.922 72.7409,159.755 81.5,152C 94.7678,141.418 109.101,132.418 124.5,125C 147.261,117.651 170.594,113.317 194.5,112C 197.167,111.333 199.833,110.667 202.5,110C 214.187,102.938 226.854,98.771 240.5,97.5C 244.213,97.9092 247.88,98.5759 251.5,99.5C 253.663,100.832 255.33,102.666 256.5,105C 257.5,105.333 258.5,105.667 259.5,106C 296.742,103.863 333.075,108.53 368.5,120C 376.191,122.928 383.358,126.761 390,131.5C 391.37,123.56 392.704,115.56 394,107.5C 395.952,105.106 398.452,103.606 401.5,103C 406.5,102.333 411.5,102.333 416.5,103C 419.525,103.133 422.192,104.133 424.5,106C 427.833,110 431.167,114 434.5,118C 440.158,119.939 445.324,122.105 450,124.5C 451.579,123.828 452.746,124.495 453.5,126.5 Z"/></g>
<g><path style="opacity:0.118" fill="#453423" d="M 458.5,148.5 C 455.738,148.114 454.738,146.781 455.5,144.5C 454.5,141.833 453.5,141.833 452.5,144.5C 454.688,149.396 457.022,154.396 459.5,159.5C 458.475,166.72 456.808,173.72 454.5,180.5C 453.574,190.768 450.408,200.768 445,210.5C 443.5,211.333 442.333,212.5 441.5,214C 441.125,220.641 441.792,227.308 443.5,234C 443.265,234.873 442.931,235.707 442.5,236.5C 443.937,238.021 444.604,239.855 444.5,242C 443.838,244.317 443.838,246.484 444.5,248.5C 444.081,249.672 443.415,250.672 442.5,251.5C 443.611,252.611 444.278,253.945 444.5,255.5C 442.938,258.592 441.605,261.759 440.5,265C 443.806,266.995 444.139,269.162 441.5,271.5C 441.47,268.148 440.137,265.482 437.5,263.5C 437.216,261.585 437.549,259.919 438.5,258.5C 440.246,257.751 441.246,256.417 441.5,254.5C 441.033,252.432 440.366,250.432 439.5,248.5C 440.603,248.002 441.603,247.669 442.5,247.5C 442.737,243.875 442.237,240.208 441,236.5C 439.842,236.002 439.009,235.169 438.5,234C 438.514,229.639 438.514,225.305 438.5,221C 439.709,217.963 440.543,214.796 441,211.5C 444.98,206.227 447.814,200.393 449.5,194C 447.403,190.937 448.237,188.437 452,186.5C 454.197,179.719 455.697,172.719 456.5,165.5C 456.795,158.391 454.462,152.558 449.5,148C 448.563,147.308 447.897,147.475 447.5,148.5C 444.889,144.136 441.889,139.969 438.5,136C 434.848,135.501 431.182,135.335 427.5,135.5C 429.369,134.835 431.369,134.169 433.5,133.5C 433.333,133.167 433.167,132.833 433,132.5C 429.871,130.776 427.038,128.61 424.5,126C 423.216,125.316 422.049,125.483 421,126.5C 420.221,123.903 419.721,123.903 419.5,126.5C 415.483,122.982 411.649,119.315 408,115.5C 407.888,123.16 408.054,130.827 408.5,138.5C 407.842,137.602 407.176,136.602 406.5,135.5C 406.089,139.333 404.422,142.333 401.5,144.5C 399.537,145.96 397.704,147.627 396,149.5C 388.55,146.53 382.05,142.196 376.5,136.5C 350.824,124.825 323.824,118.159 295.5,116.5C 289.946,117.097 284.446,117.764 279,118.5C 269.631,118.063 260.131,117.563 250.5,117C 249.636,115.303 248.303,114.137 246.5,113.5C 245.476,114.853 244.143,115.52 242.5,115.5C 243.626,114.142 243.626,112.808 242.5,111.5C 239.641,113.051 236.641,114.051 233.5,114.5C 233.5,113.5 233.5,112.5 233.5,111.5C 224.763,113.205 216.43,116.038 208.5,120C 209.696,120.654 209.696,121.154 208.5,121.5C 207.707,121.069 206.873,120.735 206,120.5C 201.139,121.757 196.306,123.09 191.5,124.5C 168.078,124.097 145.078,128.93 122.5,139C 118.521,141.636 114.521,144.303 110.5,147C 109.207,147.49 107.873,147.657 106.5,147.5C 116.539,139.313 127.872,133.48 140.5,130C 138.846,129.392 137.179,128.892 135.5,128.5C 154.091,121.618 173.424,118.118 193.5,118C 195.397,116.89 197.23,116.724 199,117.5C 200.316,114.972 201.483,114.972 202.5,117.5C 206.76,113.768 211.76,111.602 217.5,111C 228.761,103.903 240.094,103.569 251.5,110C 270.14,110.451 288.807,111.117 307.5,112C 317.553,113.347 327.553,115.013 337.5,117C 347.114,120.315 356.781,123.315 366.5,126C 374.986,131.146 383.486,136.312 392,141.5C 393.605,140.899 394.938,139.899 396,138.5C 397.661,134.892 397.995,131.225 397,127.5C 397.333,128.5 397.667,129.5 398,130.5C 397.307,126.765 398.14,123.265 400.5,120C 399.833,119.667 399.167,119.333 398.5,119C 400.455,115.209 403.455,112.709 407.5,111.5C 411.486,112.397 415.486,113.231 419.5,114C 423.106,116.601 426.439,119.601 429.5,123C 432.836,125.165 436.503,126.498 440.5,127C 445.034,131.199 449.201,135.699 453,140.5C 453.333,140.167 453.667,139.833 454,139.5C 456.041,142.248 457.541,145.248 458.5,148.5 Z"/></g>
<g><path style="opacity:0.908" fill="#ae9768" d="M 242.5,115.5 C 241.514,117.426 240.514,119.426 239.5,121.5C 238.596,122.209 238.263,123.209 238.5,124.5C 237.08,128.346 234.913,131.68 232,134.5C 226.253,130.543 220.086,127.543 213.5,125.5C 219.599,120.784 226.265,117.118 233.5,114.5C 236.641,114.051 239.641,113.051 242.5,111.5C 243.626,112.808 243.626,114.142 242.5,115.5 Z"/></g>
<g><path style="opacity:0.809" fill="#5f713d" d="M 239.5,121.5 C 240.871,122.787 242.705,123.453 245,123.5C 257.15,122.619 269.317,122.285 281.5,122.5C 281.389,123.117 281.056,123.617 280.5,124C 284.134,124.156 287.467,125.156 290.5,127C 289.853,128.609 289.02,130.109 288,131.5C 286.989,130.663 285.822,130.33 284.5,130.5C 279.5,130.5 274.5,130.5 269.5,130.5C 265.944,130.278 263.277,131.611 261.5,134.5C 261.5,133.5 261.5,132.5 261.5,131.5C 258.455,131.508 255.455,131.841 252.5,132.5C 248.673,132.56 248.006,131.393 250.5,129C 249.551,128.383 248.718,128.549 248,129.5C 248,128.167 248,126.833 248,125.5C 244.665,126.834 241.499,126.501 238.5,124.5C 238.263,123.209 238.596,122.209 239.5,121.5 Z"/></g>
<g><path style="opacity:0.753" fill="#ad937e" d="M 419.5,126.5 C 420.823,128.471 422.156,130.471 423.5,132.5C 418.477,134.506 413.477,136.506 408.5,138.5C 408.054,130.827 407.888,123.16 408,115.5C 411.649,119.315 415.483,122.982 419.5,126.5 Z"/></g>
<g><path style="opacity:0.008" fill="#4f3d28" d="M 453.5,126.5 C 454.833,127.167 454.833,127.167 453.5,126.5 Z"/></g>
<g><path style="opacity:0.388" fill="#372a1d" d="M 233.5,114.5 C 226.265,117.118 219.599,120.784 213.5,125.5C 207.527,124.742 202.194,126.075 197.5,129.5C 183.797,128.667 170.464,130 157.5,133.5C 155.379,133.325 153.379,133.659 151.5,134.5C 141.242,136.292 131.576,139.792 122.5,145C 107.906,153.253 94.7394,163.42 83,175.5C 75.7219,186.498 70.8886,198.498 68.5,211.5C 66.7543,217.926 65.7543,224.593 65.5,231.5C 64.5655,232.568 64.2322,233.901 64.5,235.5C 63.5,235.5 62.5,235.5 61.5,235.5C 61.8019,228.236 61.8019,221.069 61.5,214C 62.1667,212.667 63.1667,211.667 64.5,211C 63.1308,208.761 63.6308,206.927 66,205.5C 65.9771,199.329 67.9771,193.662 72,188.5C 72.4219,184.991 73.4219,181.657 75,178.5C 75.7096,177.027 76.8762,176.36 78.5,176.5C 79.7735,172.303 82.2735,168.97 86,166.5C 88.4751,162.365 91.9751,159.199 96.5,157C 100.174,154.032 103.507,150.866 106.5,147.5C 107.873,147.657 109.207,147.49 110.5,147C 114.521,144.303 118.521,141.636 122.5,139C 145.078,128.93 168.078,124.097 191.5,124.5C 196.306,123.09 201.139,121.757 206,120.5C 206.873,120.735 207.707,121.069 208.5,121.5C 209.696,121.154 209.696,120.654 208.5,120C 216.43,116.038 224.763,113.205 233.5,111.5C 233.5,112.5 233.5,113.5 233.5,114.5 Z"/></g>
<g><path style="opacity:0.119" fill="#483624" d="M 135.5,128.5 C 137.179,128.892 138.846,129.392 140.5,130C 127.872,133.48 116.539,139.313 106.5,147.5C 104.22,148.64 101.886,149.807 99.5,151C 93.0257,156.805 86.5257,162.638 80,168.5C 78,171.167 76,173.833 74,176.5C 71.6439,183.077 68.8106,189.41 65.5,195.5C 65.3062,197.263 65.3062,199.097 65.5,201C 64.0695,204.07 62.4028,207.07 60.5,210C 60.4205,211.907 60.7539,213.907 61.5,216C 59.3199,218.418 58.9865,221.084 60.5,224C 57.769,228.601 58.1024,232.934 61.5,237C 60.5,239.333 59.5,241.667 58.5,244C 58.6651,248.337 59.9984,252.504 62.5,256.5C 62.5,258.833 62.5,261.167 62.5,263.5C 65.2972,265.257 66.2972,267.59 65.5,270.5C 67.2196,275.202 67.8863,279.868 67.5,284.5C 65.0891,285.088 63.0891,286.255 61.5,288C 53.691,287.329 47.191,289.829 42,295.5C 36.6073,309.219 37.6073,321.885 45,333.5C 46.3885,328.628 46.8885,323.628 46.5,318.5C 47.4849,322.634 47.8182,326.968 47.5,331.5C 49.5,331.833 51.5,332.167 53.5,332.5C 68.0097,332.171 82.3431,332.504 96.5,333.5C 82.1667,333.5 67.8333,333.5 53.5,333.5C 52.1938,333.879 50.8605,334.212 49.5,334.5C 52.7973,335.142 53.1307,336.309 50.5,338C 53.4245,338.988 56.4245,339.654 59.5,340C 66.1958,340.242 72.8625,340.742 79.5,341.5C 87.2822,341.093 95.1156,340.759 103,340.5C 117.583,341.963 132.416,343.796 147.5,346C 156.167,346.667 164.833,346.667 173.5,346C 184.936,344.442 196.27,342.775 207.5,341C 212.573,342.486 215.573,345.82 216.5,351C 212.66,358.177 210.993,365.677 211.5,373.5C 211.855,374.522 212.522,375.189 213.5,375.5C 213.167,378.5 214.5,379.833 217.5,379.5C 217.414,380.496 217.748,381.329 218.5,382C 225.511,385.905 232.678,386.405 240,383.5C 242.166,384.75 244.499,385.416 247,385.5C 253.795,385.019 259.795,382.686 265,378.5C 268.829,370.837 273.163,363.504 278,356.5C 280.402,354.307 283.236,352.974 286.5,352.5C 299.598,355.78 312.765,355.447 326,351.5C 330.775,351.086 334.442,352.753 337,356.5C 338.289,363.949 338.956,371.282 339,378.5C 341.575,385.207 346.409,389.207 353.5,390.5C 358.655,389.637 363.989,389.637 369.5,390.5C 373.238,390.155 376.905,389.488 380.5,388.5C 381.293,388.931 382.127,389.265 383,389.5C 384.194,387.976 385.694,386.81 387.5,386C 386.383,384.108 384.716,383.275 382.5,383.5C 384.893,382.79 387.393,382.123 390,381.5C 390.498,378.183 390.665,374.85 390.5,371.5C 391.166,374.028 391.832,376.694 392.5,379.5C 393.783,376.628 393.783,373.795 392.5,371C 395.668,370.418 396.001,369.418 393.5,368C 394,367.5 394.5,367 395,366.5C 395.302,362.389 396.136,358.389 397.5,354.5C 397.935,349.098 397.269,343.765 395.5,338.5C 395.445,334.944 396.278,331.611 398,328.5C 403.95,323.473 410.117,318.64 416.5,314C 417.249,312.266 417.749,310.433 418,308.5C 421.408,305.417 425.075,302.751 429,300.5C 429.272,297.568 430.438,295.068 432.5,293C 437.406,287.254 440.406,280.087 441.5,271.5C 444.139,269.162 443.806,266.995 440.5,265C 441.605,261.759 442.938,258.592 444.5,255.5C 444.278,253.945 443.611,252.611 442.5,251.5C 443.415,250.672 444.081,249.672 444.5,248.5C 443.838,246.484 443.838,244.317 444.5,242C 444.604,239.855 443.937,238.021 442.5,236.5C 442.931,235.707 443.265,234.873 443.5,234C 441.792,227.308 441.125,220.641 441.5,214C 442.333,212.5 443.5,211.333 445,210.5C 450.408,200.768 453.574,190.768 454.5,180.5C 456.808,173.72 458.475,166.72 459.5,159.5C 457.022,154.396 454.688,149.396 452.5,144.5C 453.5,141.833 454.5,141.833 455.5,144.5C 454.738,146.781 455.738,148.114 458.5,148.5C 459.072,149.973 459.905,151.307 461,152.5C 462.752,164.197 461.252,175.364 456.5,186C 458.068,188.631 457.568,190.797 455,192.5C 454.461,195.529 453.794,198.529 453,201.5C 449.957,207.719 447.124,214.052 444.5,220.5C 444.587,224.709 445.254,229.042 446.5,233.5C 446.291,234.086 445.957,234.586 445.5,235C 447.081,238.292 448.081,241.792 448.5,245.5C 448.182,246.647 447.516,247.481 446.5,248C 448.761,252.334 449.094,256.834 447.5,261.5C 446.022,261.238 444.689,261.571 443.5,262.5C 444.325,263.386 445.325,263.719 446.5,263.5C 446.824,267.704 445.824,271.537 443.5,275C 444.167,275.333 444.833,275.667 445.5,276C 442.442,282.063 439.609,288.229 437,294.5C 435.915,295.293 434.748,295.96 433.5,296.5C 432.212,302.599 428.879,307.099 423.5,310C 417.46,318.037 410.127,324.704 401.5,330C 400.5,331.667 399.5,333.333 398.5,335C 399.276,340.157 400.276,345.491 401.5,351C 400.801,354.8 400.135,358.633 399.5,362.5C 400.415,363.328 401.081,364.328 401.5,365.5C 399.412,368.453 399.078,371.62 400.5,375C 399.499,380.339 397.165,385.006 393.5,389C 380.284,393.376 366.951,395.209 353.5,394.5C 338.422,390.623 332.088,381.123 334.5,366C 335.181,356.649 331.348,353.482 323,356.5C 322.127,356.265 321.293,355.931 320.5,355.5C 315.134,357.216 309.634,358.216 304,358.5C 297.178,357.499 290.344,356.999 283.5,357C 280.333,358.833 277.833,361.333 276,364.5C 273.597,372.313 269.431,378.98 263.5,384.5C 259.713,386.929 255.546,388.262 251,388.5C 240.686,388.369 230.519,388.369 220.5,388.5C 217.167,385.5 213.833,382.5 210.5,379.5C 209.594,377.614 208.594,375.78 207.5,374C 208.133,366.767 209.8,359.6 212.5,352.5C 212.021,348.262 209.688,345.762 205.5,345C 201.171,344.914 196.837,345.248 192.5,346C 185.527,347.581 178.527,349.081 171.5,350.5C 162.214,349.693 152.881,349.193 143.5,349C 137.507,348.442 131.674,347.275 126,345.5C 125.275,346.059 124.442,346.392 123.5,346.5C 107.536,344.982 91.5359,343.982 75.5,343.5C 66.7271,345.015 58.0604,344.515 49.5,342C 45.2382,338.144 41.4048,333.977 38,329.5C 35.9331,319.327 35.2664,308.994 36,298.5C 38.5995,295.241 40.7662,291.741 42.5,288C 46.0317,286.551 49.5317,286.051 53,286.5C 55.7033,283.921 58.7033,282.921 62,283.5C 63.4705,282.619 64.3038,281.286 64.5,279.5C 63.8433,277.528 63.8433,275.695 64.5,274C 62.2993,272.316 61.6327,270.316 62.5,268C 61.3279,267.581 60.3279,266.915 59.5,266C 59.493,264.417 59.8263,262.751 60.5,261C 56.9561,259.747 56.6228,257.913 59.5,255.5C 58.0098,254.174 56.6765,252.674 55.5,251C 56.1667,250 56.8333,249 57.5,248C 56.8333,245.667 56.1667,243.333 55.5,241C 57.229,239.211 57.8957,237.044 57.5,234.5C 56.448,234.649 55.448,234.483 54.5,234C 55.0622,228.288 56.0622,222.621 57.5,217C 57.0889,215.856 56.7556,214.689 56.5,213.5C 57.9414,209.225 59.6081,205.058 61.5,201C 60.9186,200.107 60.5852,199.107 60.5,198C 63.6631,189.503 67.4964,181.337 72,173.5C 75.1215,169.901 77.9549,166.234 80.5,162.5C 81.8734,162.657 83.2068,162.49 84.5,162C 84.1667,161.667 83.8333,161.333 83.5,161C 86.473,158.027 89.473,155.027 92.5,152C 98.3623,147.567 104.696,143.901 111.5,141C 115.081,138.686 118.415,136.019 121.5,133C 126.295,131.762 130.961,130.262 135.5,128.5 Z"/></g>
<g><path style="opacity:0.26" fill="#3a2d1e" d="M 401.5,144.5 C 399.713,149.723 396.046,151.556 390.5,150C 379.448,140.979 367.282,133.812 354,128.5C 353.667,128.833 353.333,129.167 353,129.5C 324.654,119.723 295.487,116.723 265.5,120.5C 277.66,121.167 289.66,121.833 301.5,122.5C 294.833,122.5 288.167,122.5 281.5,122.5C 269.317,122.285 257.15,122.619 245,123.5C 242.705,123.453 240.871,122.787 239.5,121.5C 240.514,119.426 241.514,117.426 242.5,115.5C 244.143,115.52 245.476,114.853 246.5,113.5C 248.303,114.137 249.636,115.303 250.5,117C 260.131,117.563 269.631,118.063 279,118.5C 284.446,117.764 289.946,117.097 295.5,116.5C 323.824,118.159 350.824,124.825 376.5,136.5C 382.05,142.196 388.55,146.53 396,149.5C 397.704,147.627 399.537,145.96 401.5,144.5 Z"/></g>
<g><path style="opacity:0.82" fill="#ac937e" d="M 427.5,135.5 C 431.182,135.335 434.848,135.501 438.5,136C 441.889,139.969 444.889,144.136 447.5,148.5C 447.5,149.167 447.5,149.833 447.5,150.5C 445.824,151.183 445.157,152.517 445.5,154.5C 444.5,154.5 443.5,154.5 442.5,154.5C 442.429,157.139 441.429,159.306 439.5,161C 439.667,161.5 439.833,162 440,162.5C 440.423,161.044 441.256,160.544 442.5,161C 443.26,162.441 443.926,163.941 444.5,165.5C 443.125,168.547 440.792,169.88 437.5,169.5C 437.238,170.978 437.571,172.311 438.5,173.5C 442.347,174.397 445.68,176.063 448.5,178.5C 448.011,179.995 447.345,181.329 446.5,182.5C 445.226,181.811 445.226,180.977 446.5,180C 444.375,179.184 442.541,178.017 441,176.5C 438.99,177.923 436.824,178.923 434.5,179.5C 435.766,173.338 437.099,167.171 438.5,161C 437.466,155.436 435.466,150.27 432.5,145.5C 429.802,144.176 427.136,144.176 424.5,145.5C 424.423,144.25 423.756,143.417 422.5,143C 419.207,142.174 415.874,141.674 412.5,141.5C 417.105,138.738 422.105,136.738 427.5,135.5 Z"/></g>
<g><path style="opacity:0.971" fill="#dad0ba" d="M 197.5,129.5 C 206.785,129.559 214.285,133.226 220,140.5C 224.58,146.66 228.914,152.993 233,159.5C 234.888,163.996 236.055,168.663 236.5,173.5C 235.678,171.611 234.845,169.611 234,167.5C 233.259,166.359 232.425,166.359 231.5,167.5C 230.416,166.335 229.583,165.002 229,163.5C 227.312,167.026 225.145,167.359 222.5,164.5C 222.744,169.34 221.244,169.673 218,165.5C 216.012,168.838 213.679,169.172 211,166.5C 210.755,162.178 209.588,158.178 207.5,154.5C 207.808,153.692 208.308,153.025 209,152.5C 211.905,155.193 214.571,154.86 217,151.5C 216.848,149.924 216.015,148.591 214.5,147.5C 214.977,146.522 215.643,145.689 216.5,145C 216.167,144.833 215.833,144.667 215.5,144.5C 214.167,144.5 212.833,144.5 211.5,144.5C 209.579,146.469 209.579,147.969 211.5,149C 209.833,150.167 208.167,151.333 206.5,152.5C 205.247,155.257 203.413,157.591 201,159.5C 199.084,156.967 197.084,156.967 195,159.5C 194.493,158.004 194.993,156.837 196.5,156C 193.648,155.731 190.982,154.897 188.5,153.5C 186.809,155.256 184.809,155.756 182.5,155C 181.253,153.506 181.253,152.006 182.5,150.5C 183.711,151.274 183.711,152.107 182.5,153C 183,153.167 183.5,153.333 184,153.5C 185.52,152.303 186.687,150.803 187.5,149C 184.964,148.965 182.298,148.465 179.5,147.5C 179.5,146.5 179.5,145.5 179.5,144.5C 182.42,143.558 185.086,142.224 187.5,140.5C 187.67,139.178 187.337,138.011 186.5,137C 189.264,134.043 188.43,132.543 184,132.5C 181.371,133.639 178.871,134.972 176.5,136.5C 173.434,136.913 170.434,137.58 167.5,138.5C 166.667,137.5 165.833,136.5 165,135.5C 164.29,136.973 163.124,137.64 161.5,137.5C 161.36,135.876 162.027,134.71 163.5,134C 161.527,133.505 159.527,133.338 157.5,133.5C 170.464,130 183.797,128.667 197.5,129.5 Z"/></g>
<g><path style="opacity:0.921" fill="#b79d87" d="M 412.5,141.5 C 415.874,141.674 419.207,142.174 422.5,143C 423.756,143.417 424.423,144.25 424.5,145.5C 415.106,147.6 412.106,153.267 415.5,162.5C 417.467,162.739 419.301,162.406 421,161.5C 421.041,157.57 421.207,153.737 421.5,150C 424.077,148.75 426.743,148.416 429.5,149C 435.145,165.716 428.978,173.549 411,172.5C 407.359,172.192 405.359,170.192 405,166.5C 404.231,161.822 403.398,157.155 402.5,152.5C 403.03,146.303 406.363,142.636 412.5,141.5 Z"/></g>
<g><path style="opacity:0.966" fill="#617b41" d="M 281.5,122.5 C 288.167,122.5 294.833,122.5 301.5,122.5C 325.562,124.585 348.562,130.418 370.5,140C 386.645,149.145 399.478,161.645 409,177.5C 410.649,178.648 412.149,179.981 413.5,181.5C 421.221,194.944 427.887,208.944 433.5,223.5C 434.234,224.708 434.567,226.041 434.5,227.5C 434.431,230.084 433.265,232.084 431,233.5C 430.667,232.833 430.333,232.167 430,231.5C 428.43,232.614 427.097,233.947 426,235.5C 424.667,234.833 423.333,234.167 422,233.5C 421.665,235.503 420.832,237.17 419.5,238.5C 416.921,235.865 413.921,233.699 410.5,232C 405.443,231.278 401.61,233.112 399,237.5C 398.466,241.859 398.632,246.192 399.5,250.5C 397.758,250.348 395.924,250.348 394,250.5C 393.727,248.899 393.227,247.399 392.5,246C 395.408,243.201 395.074,241.035 391.5,239.5C 390.175,240.791 388.842,242.124 387.5,243.5C 387.846,244.696 388.346,244.696 389,243.5C 389.667,244.167 389.667,244.833 389,245.5C 387.167,246.667 385.667,248.167 384.5,250C 385.756,250.417 386.423,251.25 386.5,252.5C 386.565,252.938 386.399,253.272 386,253.5C 385.081,251.761 383.915,251.094 382.5,251.5C 381.416,241.914 376.083,237.081 366.5,237C 356.765,241.925 355.098,248.758 361.5,257.5C 361.338,259.527 361.505,261.527 362,263.5C 365.706,266.277 369.54,268.943 373.5,271.5C 377.094,270.112 378.427,267.445 377.5,263.5C 378.833,263.5 380.167,263.5 381.5,263.5C 381.263,262.209 381.596,261.209 382.5,260.5C 383.995,260.415 384.995,261.081 385.5,262.5C 383.96,263.532 383.46,264.865 384,266.5C 384.333,266.167 384.667,265.833 385,265.5C 385.71,266.973 386.876,267.64 388.5,267.5C 383.22,277.273 375.554,279.773 365.5,275C 361.117,269.274 355.617,265.107 349,262.5C 348.167,262.667 347.333,262.833 346.5,263C 342.044,267.946 337.377,272.613 332.5,277C 318.776,279.884 309.276,274.718 304,261.5C 301.283,258.679 298.95,259.013 297,262.5C 295.153,267.694 292.653,272.528 289.5,277C 283.075,282.186 276.409,282.686 269.5,278.5C 265.225,275.055 261.391,271.055 258,266.5C 256.192,263.562 254.692,260.562 253.5,257.5C 255.062,251.754 256.395,245.92 257.5,240C 257.167,238.833 256.833,237.667 256.5,236.5C 246.628,233.298 236.628,231.632 226.5,231.5C 236.068,213.18 239.401,193.846 236.5,173.5C 236.055,168.663 234.888,163.996 233,159.5C 228.914,152.993 224.58,146.66 220,140.5C 214.285,133.226 206.785,129.559 197.5,129.5C 202.194,126.075 207.527,124.742 213.5,125.5C 220.086,127.543 226.253,130.543 232,134.5C 234.913,131.68 237.08,128.346 238.5,124.5C 241.499,126.501 244.665,126.834 248,125.5C 248,126.833 248,128.167 248,129.5C 248.718,128.549 249.551,128.383 250.5,129C 248.006,131.393 248.673,132.56 252.5,132.5C 251.282,133.161 249.949,133.828 248.5,134.5C 252.302,137.206 256.635,138.539 261.5,138.5C 261.5,137.167 261.5,135.833 261.5,134.5C 263.277,131.611 265.944,130.278 269.5,130.5C 269.5,131.833 269.5,133.167 269.5,134.5C 268.577,133.697 267.577,133.53 266.5,134C 266.833,134.333 267.167,134.667 267.5,135C 265.321,135.442 264.655,136.442 265.5,138C 263.668,138.748 262.001,139.748 260.5,141C 261.167,141.333 261.833,141.667 262.5,142C 259.328,143.424 256.494,143.258 254,141.5C 251.787,142.5 249.954,141.833 248.5,139.5C 246.277,142.686 243.277,144.353 239.5,144.5C 240.379,151.86 242.713,158.693 246.5,165C 250.481,163.206 253.814,160.373 256.5,156.5C 258.857,156.337 261.19,156.503 263.5,157C 261,157.833 260.833,159 263,160.5C 264.378,158.146 265.878,158.146 267.5,160.5C 270.359,159.57 272.693,157.904 274.5,155.5C 275.451,156.326 276.451,156.492 277.5,156C 278.212,154.575 278.379,153.075 278,151.5C 278.671,152.252 279.504,152.586 280.5,152.5C 280.461,151.417 280.127,150.417 279.5,149.5C 281.656,146.511 283.989,143.678 286.5,141C 288.936,141.053 291.269,140.887 293.5,140.5C 292.675,139.614 291.675,139.281 290.5,139.5C 290.833,136.5 289.5,135.167 286.5,135.5C 286.635,133.446 285.968,131.779 284.5,130.5C 285.822,130.33 286.989,130.663 288,131.5C 289.02,130.109 289.853,128.609 290.5,127C 287.467,125.156 284.134,124.156 280.5,124C 281.056,123.617 281.389,123.117 281.5,122.5 Z"/></g>
<g><path style="opacity:0.987" fill="#637e3f" d="M 352.5,140.5 C 349.361,142.085 347.694,144.752 347.5,148.5C 352.919,150.044 357.919,152.378 362.5,155.5C 358.839,155.426 358.172,156.426 360.5,158.5C 364.672,160.089 368.338,159.422 371.5,156.5C 372.087,157.233 372.087,158.233 371.5,159.5C 372.242,162.55 374.242,164.217 377.5,164.5C 378.298,164.043 378.631,163.376 378.5,162.5C 379.573,163.251 379.74,164.251 379,165.5C 378.186,167.282 377.019,168.782 375.5,170C 376,170.5 376.5,171 377,171.5C 378.507,170.495 379.673,169.162 380.5,167.5C 383.002,166.317 385.335,165.651 387.5,165.5C 389.171,167.51 389.838,169.843 389.5,172.5C 384.485,167.833 381.485,168.833 380.5,175.5C 378.876,175.36 377.71,176.027 377,177.5C 373.907,174.804 372.407,171.637 372.5,168C 369.764,167.578 367.098,167.578 364.5,168C 363.783,163.277 360.783,160.277 355.5,159C 356.34,157.334 355.84,157.167 354,158.5C 353.506,160.134 353.34,161.801 353.5,163.5C 355.199,163.34 356.866,163.506 358.5,164C 356.079,166.579 356.579,167.413 360,166.5C 364.102,167.401 364.269,168.234 360.5,169C 361.902,170.342 361.569,171.176 359.5,171.5C 358.446,171.32 357.446,170.987 356.5,170.5C 353.36,171.089 350.36,171.756 347.5,172.5C 346.4,173.605 345.733,174.938 345.5,176.5C 344.25,176.423 343.417,175.756 343,174.5C 340.043,176.077 337.376,175.744 335,173.5C 333.203,175.156 331.036,176.156 328.5,176.5C 328.167,175.833 327.833,175.167 327.5,174.5C 326.016,176.282 325.016,178.282 324.5,180.5C 324.5,179.167 324.5,177.833 324.5,176.5C 322.833,176.5 321.167,176.5 319.5,176.5C 319.899,179.696 320.899,182.696 322.5,185.5C 323.176,184.398 323.842,183.398 324.5,182.5C 325.653,184.807 326.82,187.14 328,189.5C 328.535,187.729 329.369,187.396 330.5,188.5C 329.992,190.904 328.825,191.571 327,190.5C 326.768,191.737 326.268,192.737 325.5,193.5C 325.125,188.818 322.792,187.484 318.5,189.5C 317.571,190.689 317.238,192.022 317.5,193.5C 316.732,192.737 316.232,191.737 316,190.5C 314.187,191.609 313.354,190.942 313.5,188.5C 316.285,188.067 318.619,186.734 320.5,184.5C 318.534,180.655 316.868,176.655 315.5,172.5C 316.612,171.735 317.279,170.735 317.5,169.5C 319.833,169.5 322.167,169.5 324.5,169.5C 324.5,165.833 324.5,162.167 324.5,158.5C 321.5,158.5 318.5,158.5 315.5,158.5C 315.575,161.206 315.908,163.873 316.5,166.5C 315.85,166.804 315.183,167.137 314.5,167.5C 313.776,170.615 312.276,173.282 310,175.5C 309.501,179.486 309.334,183.486 309.5,187.5C 307.856,187.286 306.356,187.62 305,188.5C 304.368,184.491 305.202,180.824 307.5,177.5C 306.975,176.808 306.308,176.308 305.5,176C 305.833,175.667 306.167,175.333 306.5,175C 303.692,175.67 301.358,177.17 299.5,179.5C 298.015,176.917 295.682,175.584 292.5,175.5C 292.335,179.182 292.501,182.848 293,186.5C 294.371,184.959 295.871,183.625 297.5,182.5C 297.5,184.167 297.5,185.833 297.5,187.5C 295.517,187.157 294.183,187.824 293.5,189.5C 288.814,188.984 286.481,190.984 286.5,195.5C 285.217,192.635 285.217,189.635 286.5,186.5C 285.242,187.016 284.242,186.35 283.5,184.5C 282.713,185.242 282.047,186.075 281.5,187C 282.956,187.423 283.456,188.256 283,189.5C 281.033,191.951 279.367,194.618 278,197.5C 276.846,198.743 275.512,199.743 274,200.5C 273.517,201.448 273.351,202.448 273.5,203.5C 271.641,203.461 270.308,204.294 269.5,206C 271.396,207.808 271.896,209.975 271,212.5C 269.89,214.037 268.39,214.703 266.5,214.5C 266.52,216.143 265.853,217.476 264.5,218.5C 265.681,220.198 265.681,221.865 264.5,223.5C 262.032,221.034 261.032,218.034 261.5,214.5C 262.5,214.167 263.167,213.5 263.5,212.5C 264.901,209.367 266.734,206.367 269,203.5C 269.066,199.749 269.899,196.249 271.5,193C 271.095,192.055 270.428,191.388 269.5,191C 271.167,189.333 272.833,187.667 274.5,186C 274.043,185.586 273.709,185.086 273.5,184.5C 274.885,183.449 275.885,182.116 276.5,180.5C 275.456,178.232 275.289,175.899 276,173.5C 280.851,171.651 284.851,168.651 288,164.5C 288.333,164.833 288.667,165.167 289,165.5C 289.49,164.207 289.657,162.873 289.5,161.5C 290.675,161.719 291.675,161.386 292.5,160.5C 294.339,157.25 296.672,154.417 299.5,152C 301.259,151.202 302.926,151.369 304.5,152.5C 303.494,153.396 303.494,154.062 304.5,154.5C 306.809,152.308 306.809,150.308 304.5,148.5C 314.432,152.245 324.432,152.412 334.5,149C 341.543,146.922 343.21,142.755 339.5,136.5C 339.461,135.244 339.961,134.244 341,133.5C 342.767,134.817 344.101,136.484 345,138.5C 345.414,138.043 345.914,137.709 346.5,137.5C 348.444,138.801 350.444,139.801 352.5,140.5 Z"/></g>
<g><path style="opacity:0.972" fill="#93bb29" d="M 341.5,152.5 C 342.496,152.414 343.329,152.748 344,153.5C 346.33,157.666 348.163,161.999 349.5,166.5C 347.213,166.724 345.047,167.391 343,168.5C 342.228,168.355 341.561,168.022 341,167.5C 339.402,164.203 337.902,160.87 336.5,157.5C 337.855,155.479 339.521,153.812 341.5,152.5 Z"/></g>
<g><path style="opacity:0.938" fill="#ac9867" d="M 239.5,144.5 C 247.478,145.664 255.478,146.664 263.5,147.5C 263.649,148.552 263.483,149.552 263,150.5C 260.336,151.998 258.17,153.998 256.5,156.5C 253.814,160.373 250.481,163.206 246.5,165C 242.713,158.693 240.379,151.86 239.5,144.5 Z"/></g>
<g><path style="opacity:0.926" fill="#8eb32a" d="M 280.5,152.5 C 282.562,150.436 284.895,148.769 287.5,147.5C 289.741,148.071 291.408,149.404 292.5,151.5C 289.779,154.888 286.779,157.888 283.5,160.5C 281.377,158.255 280.377,155.588 280.5,152.5 Z"/></g>
<g><path style="opacity:0.961" fill="#8fb52a" d="M 352.5,140.5 C 358.097,143.581 363.597,146.914 369,150.5C 368.77,153.046 367.77,155.379 366,157.5C 364.887,156.695 363.721,156.028 362.5,155.5C 357.919,152.378 352.919,150.044 347.5,148.5C 347.694,144.752 349.361,142.085 352.5,140.5 Z"/></g>
<g><path style="opacity:0.872" fill="#5f733e" d="M 269.5,134.5 C 270.249,135.531 270.915,136.698 271.5,138C 276.167,138.667 280.833,138.667 285.5,138C 286.252,137.329 286.586,136.496 286.5,135.5C 289.5,135.167 290.833,136.5 290.5,139.5C 291.675,139.281 292.675,139.614 293.5,140.5C 291.269,140.887 288.936,141.053 286.5,141C 283.989,143.678 281.656,146.511 279.5,149.5C 280.127,150.417 280.461,151.417 280.5,152.5C 279.504,152.586 278.671,152.252 278,151.5C 278.379,153.075 278.212,154.575 277.5,156C 276.451,156.492 275.451,156.326 274.5,155.5C 272.693,157.904 270.359,159.57 267.5,160.5C 265.878,158.146 264.378,158.146 263,160.5C 260.833,159 261,157.833 263.5,157C 261.19,156.503 258.857,156.337 256.5,156.5C 258.17,153.998 260.336,151.998 263,150.5C 263.483,149.552 263.649,148.552 263.5,147.5C 255.478,146.664 247.478,145.664 239.5,144.5C 243.277,144.353 246.277,142.686 248.5,139.5C 249.954,141.833 251.787,142.5 254,141.5C 256.494,143.258 259.328,143.424 262.5,142C 261.833,141.667 261.167,141.333 260.5,141C 262.001,139.748 263.668,138.748 265.5,138C 264.655,136.442 265.321,135.442 267.5,135C 267.167,134.667 266.833,134.333 266.5,134C 267.577,133.53 268.577,133.697 269.5,134.5 Z"/></g>
<g><path style="opacity:0.924" fill="#84a62d" d="M 261.5,134.5 C 261.5,135.833 261.5,137.167 261.5,138.5C 256.635,138.539 252.302,137.206 248.5,134.5C 249.949,133.828 251.282,133.161 252.5,132.5C 255.455,131.841 258.455,131.508 261.5,131.5C 261.5,132.5 261.5,133.5 261.5,134.5 Z"/></g>
<g><path style="opacity:0.958" fill="#95be27" d="M 339.5,136.5 C 343.21,142.755 341.543,146.922 334.5,149C 324.432,152.412 314.432,152.245 304.5,148.5C 297.385,146.906 294.218,142.573 295,135.5C 297.644,133.036 300.81,131.536 304.5,131C 313.553,130.154 322.553,130.487 331.5,132C 334.356,133.259 337.023,134.759 339.5,136.5 Z"/></g>
<g><path style="opacity:0.858" fill="#86a62b" d="M 269.5,130.5 C 274.5,130.5 279.5,130.5 284.5,130.5C 285.968,131.779 286.635,133.446 286.5,135.5C 286.586,136.496 286.252,137.329 285.5,138C 280.833,138.667 276.167,138.667 271.5,138C 270.915,136.698 270.249,135.531 269.5,134.5C 269.5,133.167 269.5,131.833 269.5,130.5 Z"/></g>
<g><path style="opacity:0.961" fill="#92bb29" d="M 317.5,169.5 C 316.89,168.609 316.557,167.609 316.5,166.5C 315.908,163.873 315.575,161.206 315.5,158.5C 318.5,158.5 321.5,158.5 324.5,158.5C 324.5,162.167 324.5,165.833 324.5,169.5C 322.167,169.5 319.833,169.5 317.5,169.5 Z"/></g>
<g><path style="opacity:0.445" fill="#33271a" d="M 401.5,144.5 C 404.422,142.333 406.089,139.333 406.5,135.5C 407.176,136.602 407.842,137.602 408.5,138.5C 413.477,136.506 418.477,134.506 423.5,132.5C 422.156,130.471 420.823,128.471 419.5,126.5C 419.721,123.903 420.221,123.903 421,126.5C 422.049,125.483 423.216,125.316 424.5,126C 427.038,128.61 429.871,130.776 433,132.5C 433.167,132.833 433.333,133.167 433.5,133.5C 431.369,134.169 429.369,134.835 427.5,135.5C 422.105,136.738 417.105,138.738 412.5,141.5C 406.363,142.636 403.03,146.303 402.5,152.5C 403.398,157.155 404.231,161.822 405,166.5C 405.359,170.192 407.359,172.192 411,172.5C 428.978,173.549 435.145,165.716 429.5,149C 426.743,148.416 424.077,148.75 421.5,150C 421.207,153.737 421.041,157.57 421,161.5C 419.301,162.406 417.467,162.739 415.5,162.5C 412.106,153.267 415.106,147.6 424.5,145.5C 427.136,144.176 429.802,144.176 432.5,145.5C 435.466,150.27 437.466,155.436 438.5,161C 437.099,167.171 435.766,173.338 434.5,179.5C 431.802,185.06 428.468,190.226 424.5,195C 426.684,201.724 429.351,208.224 432.5,214.5C 434.523,212.147 436.523,209.814 438.5,207.5C 439.478,207.811 440.145,208.478 440.5,209.5C 438.042,213.796 437.042,218.463 437.5,223.5C 436.167,223.5 434.833,223.5 433.5,223.5C 427.887,208.944 421.221,194.944 413.5,181.5C 412.149,179.981 410.649,178.648 409,177.5C 399.478,161.645 386.645,149.145 370.5,140C 348.562,130.418 325.562,124.585 301.5,122.5C 289.66,121.833 277.66,121.167 265.5,120.5C 295.487,116.723 324.654,119.723 353,129.5C 353.333,129.167 353.667,128.833 354,128.5C 367.282,133.812 379.448,140.979 390.5,150C 396.046,151.556 399.713,149.723 401.5,144.5 Z"/></g>
<g><path style="opacity:0.967" fill="#bca28c" d="M 447.5,150.5 C 449.978,153.789 451.644,157.456 452.5,161.5C 451.419,167.238 450.086,172.905 448.5,178.5C 445.68,176.063 442.347,174.397 438.5,173.5C 437.571,172.311 437.238,170.978 437.5,169.5C 440.792,169.88 443.125,168.547 444.5,165.5C 443.926,163.941 443.26,162.441 442.5,161C 441.256,160.544 440.423,161.044 440,162.5C 439.833,162 439.667,161.5 439.5,161C 441.429,159.306 442.429,157.139 442.5,154.5C 443.5,154.5 444.5,154.5 445.5,154.5C 445.157,152.517 445.824,151.183 447.5,150.5 Z"/></g>
<g><path style="opacity:0.99" fill="#92bb29" d="M 301.5,156.5 C 304.316,156.544 306.649,157.544 308.5,159.5C 307.081,161.336 305.914,163.336 305,165.5C 302.052,168.303 299.552,167.97 297.5,164.5C 298.317,161.533 299.65,158.866 301.5,156.5 Z"/></g>
<g><path style="opacity:0.988" fill="#8db32c" d="M 272.5,160.5 C 276,160.495 277.5,162.162 277,165.5C 266.284,173.864 264.784,172.198 272.5,160.5 Z"/></g>
<g><path style="opacity:0.944" fill="#88ad2e" d="M 378.5,162.5 C 378.631,163.376 378.298,164.043 377.5,164.5C 374.242,164.217 372.242,162.55 371.5,159.5C 375.149,155.679 377.482,156.679 378.5,162.5 Z"/></g>
<g><path style="opacity:0.96" fill="#75b829" d="M 389.5,172.5 C 388.395,180.203 385.395,181.203 380.5,175.5C 381.485,168.833 384.485,167.833 389.5,172.5 Z"/></g>
<g><path style="opacity:0.336" fill="#3a2c1e" d="M 438.5,258.5 C 438.813,254.958 438.479,251.625 437.5,248.5C 437.979,241.155 436.979,234.155 434.5,227.5C 434.567,226.041 434.234,224.708 433.5,223.5C 434.833,223.5 436.167,223.5 437.5,223.5C 437.042,218.463 438.042,213.796 440.5,209.5C 440.145,208.478 439.478,207.811 438.5,207.5C 442.746,199.782 445.413,191.449 446.5,182.5C 447.345,181.329 448.011,179.995 448.5,178.5C 450.086,172.905 451.419,167.238 452.5,161.5C 451.644,157.456 449.978,153.789 447.5,150.5C 447.5,149.833 447.5,149.167 447.5,148.5C 447.897,147.475 448.563,147.308 449.5,148C 454.462,152.558 456.795,158.391 456.5,165.5C 455.697,172.719 454.197,179.719 452,186.5C 448.237,188.437 447.403,190.937 449.5,194C 447.814,200.393 444.98,206.227 441,211.5C 440.543,214.796 439.709,217.963 438.5,221C 438.514,225.305 438.514,229.639 438.5,234C 439.009,235.169 439.842,236.002 441,236.5C 442.237,240.208 442.737,243.875 442.5,247.5C 441.603,247.669 440.603,248.002 439.5,248.5C 440.366,250.432 441.033,252.432 441.5,254.5C 441.246,256.417 440.246,257.751 438.5,258.5 Z"/></g>
<g><path style="opacity:0.954" fill="#8db32c" d="M 347.5,172.5 C 348.833,172.5 350.167,172.5 351.5,172.5C 351.82,175.898 351.487,179.232 350.5,182.5C 348.825,180.469 347.159,178.469 345.5,176.5C 345.733,174.938 346.4,173.605 347.5,172.5 Z"/></g>
<g><path style="opacity:0.982" fill="#8fb82a" d="M 299.5,179.5 C 298.599,180.29 297.932,181.29 297.5,182.5C 295.871,183.625 294.371,184.959 293,186.5C 292.501,182.848 292.335,179.182 292.5,175.5C 295.682,175.584 298.015,176.917 299.5,179.5 Z"/></g>
<g><path style="opacity:0.962" fill="#aa9965" d="M 247.5,175.5 C 255.704,179.1 264.038,182.434 272.5,185.5C 264.322,189.276 256.155,192.942 248,196.5C 247.5,189.508 247.334,182.508 247.5,175.5 Z"/></g>
<g><path style="opacity:0.984" fill="#8bb22d" d="M 324.5,180.5 C 324.5,181.167 324.5,181.833 324.5,182.5C 323.842,183.398 323.176,184.398 322.5,185.5C 320.899,182.696 319.899,179.696 319.5,176.5C 321.167,176.5 322.833,176.5 324.5,176.5C 324.5,177.833 324.5,179.167 324.5,180.5 Z"/></g>
<g><path style="opacity:0.969" fill="#b59f6d" d="M 127.5,174.5 C 130.833,179.833 134.167,185.167 137.5,190.5C 131.355,191.49 125.022,191.823 118.5,191.5C 119.818,185.858 121.985,180.525 125,175.5C 125.671,174.748 126.504,174.414 127.5,174.5 Z"/></g>
<g><path style="opacity:0.987" fill="#e0d6c0" d="M 236.5,173.5 C 239.401,193.846 236.068,213.18 226.5,231.5C 224.586,232.185 222.586,232.685 220.5,233C 218.756,236.235 217.09,239.402 215.5,242.5C 215.631,241.761 215.464,241.094 215,240.5C 212.371,240.928 210.038,241.928 208,243.5C 206.807,242.022 206.307,240.688 206.5,239.5C 204.783,240.668 204.116,242.335 204.5,244.5C 203.5,244.5 202.5,244.5 201.5,244.5C 201.499,248.252 199.833,249.252 196.5,247.5C 197.027,244.975 197.027,242.308 196.5,239.5C 194.929,238.691 193.262,238.357 191.5,238.5C 192.785,236.145 192.785,234.312 191.5,233C 190.258,232.689 189.258,233.189 188.5,234.5C 188.089,233.738 187.923,232.738 188,231.5C 187.667,231.833 187.333,232.167 187,232.5C 186.692,231.692 186.192,231.025 185.5,230.5C 184.066,232.22 183.233,234.22 183,236.5C 181.984,237.634 181.317,237.301 181,235.5C 179.022,238.645 176.522,241.312 173.5,243.5C 169.913,242.463 169.913,240.963 173.5,239C 171.613,238.837 170.113,239.671 169,241.5C 169.979,239.721 169.646,238.055 168,236.5C 166.667,237.833 165.333,239.167 164,240.5C 160.952,239.217 160.785,237.551 163.5,235.5C 162.624,234.749 161.624,234.249 160.5,234C 161.337,232.989 161.67,231.822 161.5,230.5C 164.833,230.5 168.167,230.5 171.5,230.5C 168.332,223.97 164.665,217.636 160.5,211.5C 157.235,217.031 154.235,222.697 151.5,228.5C 150.957,228.56 150.624,228.893 150.5,229.5C 153.785,230.324 157.118,230.824 160.5,231C 158.91,232.046 157.41,233.213 156,234.5C 155.086,233.346 154.253,233.513 153.5,235C 156.028,235.669 156.028,236.502 153.5,237.5C 152.066,236.064 150.9,234.398 150,232.5C 148.981,233.687 147.814,234.687 146.5,235.5C 146.5,234.5 146.5,233.5 146.5,232.5C 142.553,234.357 142.553,233.523 146.5,230C 142.908,228.726 139.408,229.226 136,231.5C 135.517,230.552 135.351,229.552 135.5,228.5C 132.001,228.741 131.668,227.908 134.5,226C 135.899,225.405 137.232,225.572 138.5,226.5C 145.375,224.845 145.875,222.511 140,219.5C 139.508,218.451 139.674,217.451 140.5,216.5C 137.833,215.5 137.833,214.5 140.5,213.5C 141.967,213.723 143.467,214.056 145,214.5C 145.5,214 146,213.5 146.5,213C 144.649,212.163 142.816,211.329 141,210.5C 140.309,212.891 139.309,212.891 138,210.5C 134.793,213.15 134.293,212.984 136.5,210C 135.833,209.667 135.167,209.333 134.5,209C 135.451,208.282 135.617,207.449 135,206.5C 131.223,211.106 127.223,211.106 123,206.5C 122.383,207.449 122.549,208.282 123.5,209C 120.621,209.957 118.121,209.457 116,207.5C 112.73,211.48 109.397,211.48 106,207.5C 105.885,209.107 106.385,210.607 107.5,212C 107.387,213.28 106.72,214.113 105.5,214.5C 104.304,214.154 104.304,213.654 105.5,213C 102.993,210.515 101.493,211.015 101,214.5C 99.8289,213.107 98.3289,212.273 96.5,212C 96.1667,210.333 95.8333,208.667 95.5,207C 96.6872,205.981 97.6872,204.814 98.5,203.5C 97.9747,202.808 97.3081,202.308 96.5,202C 98.0422,200.259 98.8755,198.426 99,196.5C 99.3333,197.167 99.6667,197.833 100,198.5C 100.833,197.5 101.667,196.5 102.5,195.5C 102.36,197.256 102.86,198.922 104,200.5C 107.257,196.515 109.423,196.515 110.5,200.5C 112.776,199.787 115.109,199.287 117.5,199C 116.408,195.797 117.741,194.131 121.5,194C 119.5,193.667 117.5,193.333 115.5,193C 123.188,192.831 130.855,192.331 138.5,191.5C 138.376,190.893 138.043,190.56 137.5,190.5C 134.167,185.167 130.833,179.833 127.5,174.5C 127.179,172.952 126.179,172.285 124.5,172.5C 124.5,171.5 124.5,170.5 124.5,169.5C 122.058,169.354 121.391,170.187 122.5,172C 120.666,174.024 118.999,173.858 117.5,171.5C 118.196,168.643 119.529,166.143 121.5,164C 120.551,163.383 119.718,163.549 119,164.5C 118.699,161.909 119.866,161.075 122.5,162C 123.167,163.333 124.167,164.333 125.5,165C 124.322,165.967 122.989,166.467 121.5,166.5C 121.833,167.5 122.5,168.167 123.5,168.5C 125.149,167.352 126.649,166.019 128,164.5C 129.337,165.765 130.837,166.265 132.5,166C 133.787,164.59 134.954,163.09 136,161.5C 136.333,161.833 136.667,162.167 137,162.5C 138.101,160.064 139.601,157.897 141.5,156C 145.188,156.656 148.355,155.489 151,152.5C 151.743,154.441 151.576,156.274 150.5,158C 151.5,158.333 152.5,158.667 153.5,159C 153.167,159.333 152.833,159.667 152.5,160C 154.126,159.32 155.793,158.32 157.5,157C 155.901,155.214 155.067,153.047 155,150.5C 154.333,151.167 153.667,151.833 153,152.5C 150.633,151.181 148.299,149.181 146,146.5C 144.933,147.191 143.766,147.691 142.5,148C 143.311,150.291 142.477,152.125 140,153.5C 139.529,151.754 138.862,150.087 138,148.5C 137.107,149.711 136.274,149.711 135.5,148.5C 137.335,147.572 137.668,146.406 136.5,145C 137.623,143.956 138.956,143.29 140.5,143C 139.191,141.249 139.525,139.749 141.5,138.5C 142.651,137.269 143.817,137.269 145,138.5C 146.932,136.7 149.098,135.367 151.5,134.5C 153.379,133.659 155.379,133.325 157.5,133.5C 159.527,133.338 161.527,133.505 163.5,134C 162.027,134.71 161.36,135.876 161.5,137.5C 163.124,137.64 164.29,136.973 165,135.5C 165.833,136.5 166.667,137.5 167.5,138.5C 170.434,137.58 173.434,136.913 176.5,136.5C 178.871,134.972 181.371,133.639 184,132.5C 188.43,132.543 189.264,134.043 186.5,137C 187.337,138.011 187.67,139.178 187.5,140.5C 185.086,142.224 182.42,143.558 179.5,144.5C 179.5,145.5 179.5,146.5 179.5,147.5C 182.298,148.465 184.964,148.965 187.5,149C 186.687,150.803 185.52,152.303 184,153.5C 183.5,153.333 183,153.167 182.5,153C 183.711,152.107 183.711,151.274 182.5,150.5C 181.253,152.006 181.253,153.506 182.5,155C 184.809,155.756 186.809,155.256 188.5,153.5C 190.982,154.897 193.648,155.731 196.5,156C 194.993,156.837 194.493,158.004 195,159.5C 197.084,156.967 199.084,156.967 201,159.5C 203.413,157.591 205.247,155.257 206.5,152.5C 208.167,151.333 209.833,150.167 211.5,149C 209.579,147.969 209.579,146.469 211.5,144.5C 212.833,144.5 214.167,144.5 215.5,144.5C 215.833,144.667 216.167,144.833 216.5,145C 215.643,145.689 214.977,146.522 214.5,147.5C 216.015,148.591 216.848,149.924 217,151.5C 214.571,154.86 211.905,155.193 209,152.5C 208.308,153.025 207.808,153.692 207.5,154.5C 209.588,158.178 210.755,162.178 211,166.5C 213.679,169.172 216.012,168.838 218,165.5C 221.244,169.673 222.744,169.34 222.5,164.5C 225.145,167.359 227.312,167.026 229,163.5C 229.583,165.002 230.416,166.335 231.5,167.5C 232.425,166.359 233.259,166.359 234,167.5C 234.845,169.611 235.678,171.611 236.5,173.5 Z"/></g>
<g><path style="opacity:0.986" fill="#b8a26f" d="M 193.5,162.5 C 194.376,162.369 195.043,162.702 195.5,163.5C 197.686,169.267 200.02,174.934 202.5,180.5C 201.333,180.833 200.167,181.167 199,181.5C 194.842,180.927 190.676,180.427 186.5,180C 185.572,179.612 184.905,178.945 184.5,178C 187.631,172.904 190.631,167.737 193.5,162.5 Z"/></g>
<g><path style="opacity:0.907" fill="#baa08a" d="M 446.5,182.5 C 445.413,191.449 442.746,199.782 438.5,207.5C 436.523,209.814 434.523,212.147 432.5,214.5C 429.351,208.224 426.684,201.724 424.5,195C 428.468,190.226 431.802,185.06 434.5,179.5C 436.824,178.923 438.99,177.923 441,176.5C 442.541,178.017 444.375,179.184 446.5,180C 445.226,180.977 445.226,181.811 446.5,182.5 Z"/></g>
<g><path style="opacity:0.979" fill="#76bb2a" d="M 352.5,185.5 C 359.977,187.896 360.31,190.896 353.5,194.5C 350.935,194.101 349.601,192.601 349.5,190C 349.557,187.791 350.557,186.291 352.5,185.5 Z"/></g>
<g><path style="opacity:0.99" fill="#78bf28" d="M 325.5,193.5 C 322.833,197.5 320.167,197.5 317.5,193.5C 317.238,192.022 317.571,190.689 318.5,189.5C 322.792,187.484 325.125,188.818 325.5,193.5 Z"/></g>
<g><path style="opacity:0.981" fill="#77ba2b" d="M 293.5,189.5 C 296.101,192.337 296.101,195.17 293.5,198C 292.167,198.667 290.833,198.667 289.5,198C 288.627,196.955 287.627,196.122 286.5,195.5C 286.481,190.984 288.814,188.984 293.5,189.5 Z"/></g>
<g><path style="opacity:0.953" fill="#a1b981" d="M 393.5,190.5 C 396.056,191.543 398.223,193.21 400,195.5C 403.97,201.281 407.803,207.114 411.5,213C 406.244,215.141 400.91,216.974 395.5,218.5C 394.723,209.176 394.056,199.842 393.5,190.5 Z"/></g>
<g><path style="opacity:0.987" fill="#ab9b66" d="M 263.5,212.5 C 263.167,213.5 262.5,214.167 261.5,214.5C 255.397,215.756 249.397,217.422 243.5,219.5C 243.167,218.833 242.833,218.167 242.5,217.5C 244.447,212.995 245.78,208.328 246.5,203.5C 248.308,203.491 249.975,203.991 251.5,205C 255.385,207.725 259.385,210.225 263.5,212.5 Z"/></g>
<g><path style="opacity:0.962" fill="#dbd1bb" d="M 151.5,134.5 C 149.098,135.367 146.932,136.7 145,138.5C 143.817,137.269 142.651,137.269 141.5,138.5C 139.525,139.749 139.191,141.249 140.5,143C 138.956,143.29 137.623,143.956 136.5,145C 137.668,146.406 137.335,147.572 135.5,148.5C 136.274,149.711 137.107,149.711 138,148.5C 138.862,150.087 139.529,151.754 140,153.5C 142.477,152.125 143.311,150.291 142.5,148C 143.766,147.691 144.933,147.191 146,146.5C 148.299,149.181 150.633,151.181 153,152.5C 153.667,151.833 154.333,151.167 155,150.5C 155.067,153.047 155.901,155.214 157.5,157C 155.793,158.32 154.126,159.32 152.5,160C 152.833,159.667 153.167,159.333 153.5,159C 152.5,158.667 151.5,158.333 150.5,158C 151.576,156.274 151.743,154.441 151,152.5C 148.355,155.489 145.188,156.656 141.5,156C 139.601,157.897 138.101,160.064 137,162.5C 136.667,162.167 136.333,161.833 136,161.5C 134.954,163.09 133.787,164.59 132.5,166C 130.837,166.265 129.337,165.765 128,164.5C 126.649,166.019 125.149,167.352 123.5,168.5C 122.5,168.167 121.833,167.5 121.5,166.5C 122.989,166.467 124.322,165.967 125.5,165C 124.167,164.333 123.167,163.333 122.5,162C 119.866,161.075 118.699,161.909 119,164.5C 119.718,163.549 120.551,163.383 121.5,164C 119.529,166.143 118.196,168.643 117.5,171.5C 118.999,173.858 120.666,174.024 122.5,172C 121.391,170.187 122.058,169.354 124.5,169.5C 124.5,170.5 124.5,171.5 124.5,172.5C 126.179,172.285 127.179,172.952 127.5,174.5C 126.504,174.414 125.671,174.748 125,175.5C 121.985,180.525 119.818,185.858 118.5,191.5C 125.022,191.823 131.355,191.49 137.5,190.5C 138.043,190.56 138.376,190.893 138.5,191.5C 130.855,192.331 123.188,192.831 115.5,193C 117.5,193.333 119.5,193.667 121.5,194C 117.741,194.131 116.408,195.797 117.5,199C 115.109,199.287 112.776,199.787 110.5,200.5C 109.423,196.515 107.257,196.515 104,200.5C 102.86,198.922 102.36,197.256 102.5,195.5C 101.667,196.5 100.833,197.5 100,198.5C 99.6667,197.833 99.3333,197.167 99,196.5C 98.8755,198.426 98.0422,200.259 96.5,202C 97.3081,202.308 97.9747,202.808 98.5,203.5C 97.6872,204.814 96.6872,205.981 95.5,207C 95.8333,208.667 96.1667,210.333 96.5,212C 98.3289,212.273 99.8289,213.107 101,214.5C 101.493,211.015 102.993,210.515 105.5,213C 104.304,213.654 104.304,214.154 105.5,214.5C 106.72,214.113 107.387,213.28 107.5,212C 106.385,210.607 105.885,209.107 106,207.5C 109.397,211.48 112.73,211.48 116,207.5C 118.121,209.457 120.621,209.957 123.5,209C 122.549,208.282 122.383,207.449 123,206.5C 127.223,211.106 131.223,211.106 135,206.5C 135.617,207.449 135.451,208.282 134.5,209C 135.167,209.333 135.833,209.667 136.5,210C 134.293,212.984 134.793,213.15 138,210.5C 139.309,212.891 140.309,212.891 141,210.5C 142.816,211.329 144.649,212.163 146.5,213C 146,213.5 145.5,214 145,214.5C 143.467,214.056 141.967,213.723 140.5,213.5C 137.833,214.5 137.833,215.5 140.5,216.5C 139.674,217.451 139.508,218.451 140,219.5C 145.875,222.511 145.375,224.845 138.5,226.5C 137.232,225.572 135.899,225.405 134.5,226C 131.668,227.908 132.001,228.741 135.5,228.5C 135.351,229.552 135.517,230.552 136,231.5C 139.408,229.226 142.908,228.726 146.5,230C 142.553,233.523 142.553,234.357 146.5,232.5C 146.5,233.5 146.5,234.5 146.5,235.5C 147.814,234.687 148.981,233.687 150,232.5C 150.9,234.398 152.066,236.064 153.5,237.5C 156.028,236.502 156.028,235.669 153.5,235C 154.253,233.513 155.086,233.346 156,234.5C 157.41,233.213 158.91,232.046 160.5,231C 157.118,230.824 153.785,230.324 150.5,229.5C 150.624,228.893 150.957,228.56 151.5,228.5C 154.833,229.167 158.167,229.833 161.5,230.5C 161.67,231.822 161.337,232.989 160.5,234C 161.624,234.249 162.624,234.749 163.5,235.5C 160.785,237.551 160.952,239.217 164,240.5C 165.333,239.167 166.667,237.833 168,236.5C 169.646,238.055 169.979,239.721 169,241.5C 170.113,239.671 171.613,238.837 173.5,239C 169.913,240.963 169.913,242.463 173.5,243.5C 176.522,241.312 179.022,238.645 181,235.5C 181.317,237.301 181.984,237.634 183,236.5C 183.233,234.22 184.066,232.22 185.5,230.5C 186.192,231.025 186.692,231.692 187,232.5C 187.333,232.167 187.667,231.833 188,231.5C 187.923,232.738 188.089,233.738 188.5,234.5C 189.258,233.189 190.258,232.689 191.5,233C 192.785,234.312 192.785,236.145 191.5,238.5C 193.262,238.357 194.929,238.691 196.5,239.5C 197.027,242.308 197.027,244.975 196.5,247.5C 199.833,249.252 201.499,248.252 201.5,244.5C 202.5,244.5 203.5,244.5 204.5,244.5C 204.116,242.335 204.783,240.668 206.5,239.5C 206.307,240.688 206.807,242.022 208,243.5C 210.038,241.928 212.371,240.928 215,240.5C 215.464,241.094 215.631,241.761 215.5,242.5C 214.011,249.621 211.678,256.455 208.5,263C 195.829,268.334 183.162,273.667 170.5,279C 166.869,279.354 163.369,280.187 160,281.5C 158.333,280.833 156.667,280.167 155,279.5C 151.934,280.021 149.101,281.021 146.5,282.5C 138.133,285.464 129.467,286.797 120.5,286.5C 115.156,286.666 109.823,286.499 104.5,286C 98.3987,284.069 92.0654,283.069 85.5,283C 83.4794,282.487 81.9794,281.32 81,279.5C 80.0853,280.328 79.4186,281.328 79,282.5C 78.7216,281.584 78.2216,280.918 77.5,280.5C 76.3676,276.24 74.7009,272.24 72.5,268.5C 74.0938,267.017 75.7605,265.517 77.5,264C 74.4268,260.959 75.0934,259.126 79.5,258.5C 81.1338,258.968 82.3005,259.968 83,261.5C 83.4828,260.552 83.6495,259.552 83.5,258.5C 86.9705,259.125 89.8038,258.125 92,255.5C 96.1999,258.216 98.6999,256.882 99.5,251.5C 98.4773,249.997 97.4773,248.497 96.5,247C 97.2718,245.779 98.2718,244.779 99.5,244C 98.5494,243.282 98.3828,242.449 99,241.5C 101.277,240.883 103.444,240.216 105.5,239.5C 106.043,239.44 106.376,239.107 106.5,238.5C 103.719,235.066 101.386,231.399 99.5,227.5C 99.4142,226.504 99.7476,225.671 100.5,225C 101.738,225.077 102.738,224.911 103.5,224.5C 102.675,223.614 101.675,223.281 100.5,223.5C 100.369,219.348 98.8692,218.682 96,221.5C 94.0126,220.782 92.1792,219.782 90.5,218.5C 90.9767,217.522 91.6433,216.689 92.5,216C 90.0223,213.667 87.689,213.501 85.5,215.5C 82.2947,212.9 79.128,212.9 76,215.5C 75.586,215.043 75.086,214.709 74.5,214.5C 73.3689,215.751 72.0356,216.751 70.5,217.5C 69.8333,217.167 69.1667,216.833 68.5,216.5C 69.0522,214.997 69.0522,213.331 68.5,211.5C 70.8886,198.498 75.7219,186.498 83,175.5C 94.7394,163.42 107.906,153.253 122.5,145C 131.576,139.792 141.242,136.292 151.5,134.5 Z"/></g>
<g><path style="opacity:0.982" fill="#a4be85" d="M 356.5,200.5 C 358.193,201.475 359.693,202.808 361,204.5C 364.467,210.438 367.634,216.438 370.5,222.5C 366.526,223.815 362.526,225.149 358.5,226.5C 357.558,226.392 356.725,226.059 356,225.5C 356.054,217.18 356.221,208.847 356.5,200.5 Z"/></g>
<g><path style="opacity:0.985" fill="#b8a370" d="M 161.5,230.5 C 158.167,229.833 154.833,229.167 151.5,228.5C 154.235,222.697 157.235,217.031 160.5,211.5C 164.665,217.636 168.332,223.97 171.5,230.5C 168.167,230.5 164.833,230.5 161.5,230.5 Z"/></g>
<g><path style="opacity:0.966" fill="#9cb67e" d="M 319.5,204.5 C 320.5,204.5 321.5,204.5 322.5,204.5C 324.481,211.604 326.981,218.604 330,225.5C 330.497,227.81 330.663,230.143 330.5,232.5C 325.5,232.5 320.5,232.5 315.5,232.5C 315.335,228.818 315.501,225.152 316,221.5C 317.769,215.949 318.935,210.282 319.5,204.5 Z"/></g>
<g><path style="opacity:0.982" fill="#9db77f" d="M 287.5,206.5 C 288.787,207.871 289.453,209.705 289.5,212C 290.27,219.147 290.603,226.314 290.5,233.5C 285.823,233.165 281.156,232.665 276.5,232C 276.043,231.586 275.709,231.086 275.5,230.5C 279.513,222.473 283.513,214.473 287.5,206.5 Z"/></g>
<g><path style="opacity:0.854" fill="#71a82b" d="M 419.5,222.5 C 425.263,222.783 426.93,225.616 424.5,231C 416.208,231.89 414.542,229.057 419.5,222.5 Z"/></g>
<g><path style="opacity:0.95" fill="#76b728" d="M 386.5,229.5 C 393.678,231.515 394.178,234.515 388,238.5C 385.942,237.942 384.775,236.609 384.5,234.5C 385.187,232.823 385.854,231.156 386.5,229.5 Z"/></g>
<g><path style="opacity:0.919" fill="#cec2ac" d="M 68.5,211.5 C 69.0522,213.331 69.0522,214.997 68.5,216.5C 69.1667,216.833 69.8333,217.167 70.5,217.5C 72.0356,216.751 73.3689,215.751 74.5,214.5C 75.086,214.709 75.586,215.043 76,215.5C 79.128,212.9 82.2947,212.9 85.5,215.5C 87.689,213.501 90.0223,213.667 92.5,216C 91.6433,216.689 90.9767,217.522 90.5,218.5C 92.1792,219.782 94.0126,220.782 96,221.5C 98.8692,218.682 100.369,219.348 100.5,223.5C 101.675,223.281 102.675,223.614 103.5,224.5C 102.738,224.911 101.738,225.077 100.5,225C 99.7476,225.671 99.4142,226.504 99.5,227.5C 97.6667,225.367 95.6667,223.367 93.5,221.5C 89.1093,226.749 86.4426,232.749 85.5,239.5C 92.1667,239.5 98.8333,239.5 105.5,239.5C 103.444,240.216 101.277,240.883 99,241.5C 98.3828,242.449 98.5494,243.282 99.5,244C 98.2718,244.779 97.2718,245.779 96.5,247C 97.4773,248.497 98.4773,249.997 99.5,251.5C 98.6999,256.882 96.1999,258.216 92,255.5C 89.8038,258.125 86.9705,259.125 83.5,258.5C 83.6495,259.552 83.4828,260.552 83,261.5C 82.3005,259.968 81.1338,258.968 79.5,258.5C 75.0934,259.126 74.4268,260.959 77.5,264C 75.7605,265.517 74.0938,267.017 72.5,268.5C 71.2632,267.035 70.2632,265.368 69.5,263.5C 67.1834,252.967 65.8501,242.301 65.5,231.5C 65.7543,224.593 66.7543,217.926 68.5,211.5 Z"/></g>
<g><path style="opacity:0.936" fill="#b09b6a" d="M 99.5,227.5 C 101.386,231.399 103.719,235.066 106.5,238.5C 106.376,239.107 106.043,239.44 105.5,239.5C 98.8333,239.5 92.1667,239.5 85.5,239.5C 86.4426,232.749 89.1093,226.749 93.5,221.5C 95.6667,223.367 97.6667,225.367 99.5,227.5 Z"/></g>
<g><path style="opacity:0.923" fill="#72ad2c" d="M 382.5,251.5 C 380.027,254.804 377.027,257.638 373.5,260C 368.938,261.227 364.938,260.393 361.5,257.5C 355.098,248.758 356.765,241.925 366.5,237C 376.083,237.081 381.416,241.914 382.5,251.5 Z"/></g>
<g><path style="opacity:0.98" fill="#78c026" d="M 301.5,238.5 C 307.656,241.148 307.99,244.481 302.5,248.5C 300.5,247.167 298.833,245.5 297.5,243.5C 298.857,241.814 300.19,240.148 301.5,238.5 Z"/></g>
<g><path style="opacity:0.952" fill="#76b82a" d="M 348.5,235.5 C 351.67,236.506 353.67,238.672 354.5,242C 352.666,246.665 349.833,247.498 346,244.5C 344.927,240.9 345.76,237.9 348.5,235.5 Z"/></g>
<g><path style="opacity:0.772" fill="#60723b" d="M 415.5,243.5 C 413.048,248.07 409.715,248.736 405.5,245.5C 407.022,235.882 410.356,235.215 415.5,243.5 Z"/></g>
<g><path style="opacity:0.905" fill="#617a3f" d="M 366.5,243.5 C 374.933,242.417 377.266,245.584 373.5,253C 367.204,255.303 364.037,253.136 364,246.5C 365.045,245.627 365.878,244.627 366.5,243.5 Z"/></g>
<g><path style="opacity:0.677" fill="#5c683a" d="M 434.5,227.5 C 436.979,234.155 437.979,241.155 437.5,248.5C 434.695,253.403 431.362,258.07 427.5,262.5C 424.875,265.815 421.542,268.149 417.5,269.5C 417.577,268.25 418.244,267.417 419.5,267C 416.958,265.23 414.291,263.73 411.5,262.5C 412.5,261.167 413.5,259.833 414.5,258.5C 414.137,257.817 413.804,257.15 413.5,256.5C 419.201,252.449 421.534,247.116 420.5,240.5C 420.167,239.833 419.833,239.167 419.5,238.5C 420.832,237.17 421.665,235.503 422,233.5C 423.333,234.167 424.667,234.833 426,235.5C 427.097,233.947 428.43,232.614 430,231.5C 430.333,232.167 430.667,232.833 431,233.5C 433.265,232.084 434.431,230.084 434.5,227.5 Z"/></g>
<g><path style="opacity:0.796" fill="#72983c" d="M 419.5,238.5 C 419.833,239.167 420.167,239.833 420.5,240.5C 419.952,243.084 418.285,244.084 415.5,243.5C 410.356,235.215 407.022,235.882 405.5,245.5C 405.5,246.833 405.5,248.167 405.5,249.5C 407.977,249.051 409.977,249.717 411.5,251.5C 408.513,251.534 405.513,251.868 402.5,252.5C 401.5,251.833 400.5,251.167 399.5,250.5C 398.632,246.192 398.466,241.859 399,237.5C 401.61,233.112 405.443,231.278 410.5,232C 413.921,233.699 416.921,235.865 419.5,238.5 Z"/></g>
<g><path style="opacity:0.878" fill="#cec3ad" d="M 118.5,230.5 C 119.239,230.369 119.906,230.536 120.5,231C 119.549,231.718 119.383,232.551 120,233.5C 121.494,232.253 122.994,232.253 124.5,233.5C 122.703,234.695 121.703,236.362 121.5,238.5C 124.157,238.162 126.49,238.829 128.5,240.5C 129.167,240.167 129.833,239.833 130.5,239.5C 134.244,243.498 138.744,244.498 144,242.5C 145.645,244.388 147.478,246.055 149.5,247.5C 151.596,245.406 153.429,243.073 155,240.5C 155.117,243.778 153.95,246.611 151.5,249C 153.818,248.232 155.651,249.066 157,251.5C 157.333,251.167 157.667,250.833 158,250.5C 158.71,251.973 159.876,252.64 161.5,252.5C 160.789,255.864 161.956,258.197 165,259.5C 165.667,260.167 165.667,260.833 165,261.5C 162.888,259.078 160.888,259.078 159,261.5C 158.493,260.004 158.993,258.837 160.5,258C 160.167,257.833 159.833,257.667 159.5,257.5C 158.032,259.333 156.365,259.666 154.5,258.5C 155.833,256.833 155.833,255.167 154.5,253.5C 151.503,250.734 148.169,249.401 144.5,249.5C 143.289,250.274 143.289,251.107 144.5,252C 142.699,252.317 142.366,252.984 143.5,254C 145.961,254.029 148.628,254.196 151.5,254.5C 151.5,255.5 151.5,256.5 151.5,257.5C 149.61,257.703 148.11,257.037 147,255.5C 145.951,256.517 144.784,256.684 143.5,256C 140.669,254.313 138.669,252.48 137.5,250.5C 136.389,251.611 135.055,252.278 133.5,252.5C 130.805,250.879 127.971,249.546 125,248.5C 123.067,249.882 121.234,251.382 119.5,253C 121.235,253.651 122.902,253.485 124.5,252.5C 125.308,252.808 125.975,253.308 126.5,254C 124.671,254.273 123.171,255.107 122,256.5C 121.667,255.833 121.333,255.167 121,254.5C 120,255.833 119,255.833 118,254.5C 116.887,256.329 115.387,257.163 113.5,257C 116.694,254.851 118.528,252.018 119,248.5C 116.715,251.877 114.215,252.21 111.5,249.5C 113.06,245.603 115.06,241.937 117.5,238.5C 116.529,237.038 116.862,235.705 118.5,234.5C 117.193,233.135 117.193,231.802 118.5,230.5 Z"/></g>
<g><path style="opacity:0.978" fill="#79aa40" d="M 274.5,243.5 C 282.326,242.663 288.16,245.663 292,252.5C 292.149,258.378 289.649,262.878 284.5,266C 272.815,266.484 267.482,260.984 268.5,249.5C 270.188,247.146 272.188,245.146 274.5,243.5 Z"/></g>
<g><path style="opacity:0.913" fill="#76a53d" d="M 321.5,240.5 C 332.545,240.373 337.379,245.707 336,256.5C 332.473,262.898 327.307,264.731 320.5,262C 315.184,258.528 313.351,253.695 315,247.5C 316.862,244.833 319.028,242.5 321.5,240.5 Z"/></g>
<g><path style="opacity:0.916" fill="#637c40" d="M 323.5,246.5 C 328.611,246.776 331.111,249.443 331,254.5C 328.162,258.035 324.995,258.368 321.5,255.5C 319.922,251.958 320.588,248.958 323.5,246.5 Z"/></g>
<g><path style="opacity:0.708" fill="#6d8c3b" d="M 420.5,240.5 C 421.534,247.116 419.201,252.449 413.5,256.5C 411.801,256.66 410.134,256.494 408.5,256C 406.242,255.124 404.242,253.957 402.5,252.5C 405.513,251.868 408.513,251.534 411.5,251.5C 409.977,249.717 407.977,249.051 405.5,249.5C 405.5,248.167 405.5,246.833 405.5,245.5C 409.715,248.736 413.048,248.07 415.5,243.5C 418.285,244.084 419.952,243.084 420.5,240.5 Z"/></g>
<g><path style="opacity:0.974" fill="#648041" d="M 277.5,250.5 C 283.499,250.002 285.666,252.669 284,258.5C 283.051,261.2 281.217,262.033 278.5,261C 273.876,257.711 273.542,254.211 277.5,250.5 Z"/></g>
<g><path style="opacity:0.931" fill="#5f7c3b" d="M 382.5,251.5 C 383.915,251.094 385.081,251.761 386,253.5C 386.399,253.272 386.565,252.938 386.5,252.5C 387.774,253.189 387.774,254.023 386.5,255C 384.905,254.383 383.572,254.716 382.5,256C 383.413,257.414 383.413,258.914 382.5,260.5C 381.596,261.209 381.263,262.209 381.5,263.5C 380.167,263.5 378.833,263.5 377.5,263.5C 378.427,267.445 377.094,270.112 373.5,271.5C 369.54,268.943 365.706,266.277 362,263.5C 361.505,261.527 361.338,259.527 361.5,257.5C 364.938,260.393 368.938,261.227 373.5,260C 377.027,257.638 380.027,254.804 382.5,251.5 Z"/></g>
<g><path style="opacity:0.852" fill="#5f723d" d="M 399.5,250.5 C 400.5,251.167 401.5,251.833 402.5,252.5C 404.242,253.957 406.242,255.124 408.5,256C 410.134,256.494 411.801,256.66 413.5,256.5C 413.804,257.15 414.137,257.817 414.5,258.5C 413.5,259.833 412.5,261.167 411.5,262.5C 414.291,263.73 416.958,265.23 419.5,267C 418.244,267.417 417.577,268.25 417.5,269.5C 415.205,271.385 412.538,271.885 409.5,271C 405.167,268 401.5,264.333 398.5,260C 396.613,259.22 394.946,259.387 393.5,260.5C 392.066,263.047 390.4,265.381 388.5,267.5C 386.876,267.64 385.71,266.973 385,265.5C 384.667,265.833 384.333,266.167 384,266.5C 383.46,264.865 383.96,263.532 385.5,262.5C 384.995,261.081 383.995,260.415 382.5,260.5C 383.413,258.914 383.413,257.414 382.5,256C 383.572,254.716 384.905,254.383 386.5,255C 387.774,254.023 387.774,253.189 386.5,252.5C 386.423,251.25 385.756,250.417 384.5,250C 385.667,248.167 387.167,246.667 389,245.5C 389.667,244.833 389.667,244.167 389,243.5C 388.346,244.696 387.846,244.696 387.5,243.5C 388.842,242.124 390.175,240.791 391.5,239.5C 395.074,241.035 395.408,243.201 392.5,246C 393.227,247.399 393.727,248.899 394,250.5C 395.924,250.348 397.758,250.348 399.5,250.5 Z"/></g>
<g><path style="opacity:0.592" fill="#937c66" d="M 437.5,248.5 C 438.479,251.625 438.813,254.958 438.5,258.5C 437.549,259.919 437.216,261.585 437.5,263.5C 437.737,264.791 437.404,265.791 436.5,266.5C 436.439,264.408 435.439,262.908 433.5,262C 434.451,261.282 434.617,260.449 434,259.5C 432.157,261.171 429.991,262.171 427.5,262.5C 431.362,258.07 434.695,253.403 437.5,248.5 Z"/></g>
<g><path style="opacity:0.208" fill="#3f3020" d="M 106.5,147.5 C 103.507,150.866 100.174,154.032 96.5,157C 91.9751,159.199 88.4751,162.365 86,166.5C 82.2735,168.97 79.7735,172.303 78.5,176.5C 76.8762,176.36 75.7096,177.027 75,178.5C 73.4219,181.657 72.4219,184.991 72,188.5C 67.9771,193.662 65.9771,199.329 66,205.5C 63.6308,206.927 63.1308,208.761 64.5,211C 63.1667,211.667 62.1667,212.667 61.5,214C 61.8019,221.069 61.8019,228.236 61.5,235.5C 62.5,235.5 63.5,235.5 64.5,235.5C 64.2322,233.901 64.5655,232.568 65.5,231.5C 65.8501,242.301 67.1834,252.967 69.5,263.5C 68.448,263.351 67.448,263.517 66.5,264C 67.1453,268.983 68.4787,273.816 70.5,278.5C 70.2549,280.745 70.2549,283.078 70.5,285.5C 68.838,286.327 67.5046,287.493 66.5,289C 61.7435,289.722 56.7435,290.388 51.5,291C 50.0267,291.71 49.3601,292.876 49.5,294.5C 48.1667,294.5 46.8333,294.5 45.5,294.5C 46.099,302.486 46.4324,310.486 46.5,318.5C 46.8885,323.628 46.3885,328.628 45,333.5C 37.6073,321.885 36.6073,309.219 42,295.5C 47.191,289.829 53.691,287.329 61.5,288C 63.0891,286.255 65.0891,285.088 67.5,284.5C 67.8863,279.868 67.2196,275.202 65.5,270.5C 66.2972,267.59 65.2972,265.257 62.5,263.5C 62.5,261.167 62.5,258.833 62.5,256.5C 59.9984,252.504 58.6651,248.337 58.5,244C 59.5,241.667 60.5,239.333 61.5,237C 58.1024,232.934 57.769,228.601 60.5,224C 58.9865,221.084 59.3199,218.418 61.5,216C 60.7539,213.907 60.4205,211.907 60.5,210C 62.4028,207.07 64.0695,204.07 65.5,201C 65.3062,199.097 65.3062,197.263 65.5,195.5C 68.8106,189.41 71.6439,183.077 74,176.5C 76,173.833 78,171.167 80,168.5C 86.5257,162.638 93.0257,156.805 99.5,151C 101.886,149.807 104.22,148.64 106.5,147.5 Z"/></g>
<g><path style="opacity:0.902" fill="#b49984" d="M 393.5,260.5 C 394.946,259.387 396.613,259.22 398.5,260C 401.5,264.333 405.167,268 409.5,271C 412.538,271.885 415.205,271.385 417.5,269.5C 421.542,268.149 424.875,265.815 427.5,262.5C 429.991,262.171 432.157,261.171 434,259.5C 434.617,260.449 434.451,261.282 433.5,262C 435.439,262.908 436.439,264.408 436.5,266.5C 430.473,289.529 417.473,307.529 397.5,320.5C 397.785,318.712 397.452,317.045 396.5,315.5C 395.614,316.325 395.281,317.325 395.5,318.5C 394.07,318.421 392.736,318.754 391.5,319.5C 390.833,318.5 390.167,317.5 389.5,316.5C 388.483,319.028 387.316,319.028 386,316.5C 385.282,317.451 384.449,317.617 383.5,317C 385.141,315.871 386.141,314.371 386.5,312.5C 388.559,315.149 391.225,315.982 394.5,315C 398.916,312.961 402.249,309.795 404.5,305.5C 402.808,304.799 401.142,305.133 399.5,306.5C 398.841,304.862 398.174,303.195 397.5,301.5C 396.609,300.41 395.609,300.41 394.5,301.5C 393.548,299.955 393.215,298.288 393.5,296.5C 395.48,297.716 397.48,298.549 399.5,299C 402.518,296.163 405.851,293.829 409.5,292C 412.883,288.953 415.883,285.62 418.5,282C 418.167,281.5 417.833,281 417.5,280.5C 415.059,282.247 412.726,284.08 410.5,286C 406.825,286.557 403.492,287.89 400.5,290C 397.304,290.805 394.304,290.638 391.5,289.5C 392.873,289.657 394.207,289.49 395.5,289C 394.342,287.991 393.675,286.658 393.5,285C 393.514,283.615 393.848,282.449 394.5,281.5C 396.388,286.054 399.388,286.72 403.5,283.5C 404.979,280.743 404.313,278.743 401.5,277.5C 406.504,276.638 406.837,274.804 402.5,272C 403.833,270.16 403.666,269.66 402,270.5C 401.51,269.207 401.343,267.873 401.5,266.5C 398.298,266.371 395.965,264.871 394.5,262C 395.712,260.893 395.379,260.393 393.5,260.5 Z"/></g>
<g><path style="opacity:0.885" fill="#bc7e7b" d="M 401.5,277.5 C 404.313,278.743 404.979,280.743 403.5,283.5C 399.388,286.72 396.388,286.054 394.5,281.5C 396.014,278.905 398.348,277.571 401.5,277.5 Z"/></g>
<g><path style="opacity:0.426" fill="#372a1d" d="M 69.5,263.5 C 70.2632,265.368 71.2632,267.035 72.5,268.5C 74.7009,272.24 76.3676,276.24 77.5,280.5C 77.5,282.833 77.5,285.167 77.5,287.5C 76.4415,288.6 75.6082,289.934 75,291.5C 73.3484,292.399 71.8484,293.399 70.5,294.5C 68.901,294.232 67.5676,294.566 66.5,295.5C 64.1667,295.5 61.8333,295.5 59.5,295.5C 58.1667,295.5 56.8333,295.5 55.5,295.5C 53.3792,295.675 51.3792,295.341 49.5,294.5C 49.3601,292.876 50.0267,291.71 51.5,291C 56.7435,290.388 61.7435,289.722 66.5,289C 67.5046,287.493 68.838,286.327 70.5,285.5C 70.2549,283.078 70.2549,280.745 70.5,278.5C 68.4787,273.816 67.1453,268.983 66.5,264C 67.448,263.517 68.448,263.351 69.5,263.5 Z"/></g>
<g><path style="opacity:0.843" fill="#b87c78" d="M 393.5,296.5 C 390.881,296.075 388.547,295.075 386.5,293.5C 385.855,292.188 384.855,291.188 383.5,290.5C 382.571,289.311 382.238,287.978 382.5,286.5C 385.854,286.747 388.854,287.747 391.5,289.5C 394.304,290.638 397.304,290.805 400.5,290C 403.492,287.89 406.825,286.557 410.5,286C 412.726,284.08 415.059,282.247 417.5,280.5C 417.833,281 418.167,281.5 418.5,282C 415.883,285.62 412.883,288.953 409.5,292C 405.851,293.829 402.518,296.163 399.5,299C 397.48,298.549 395.48,297.716 393.5,296.5 Z"/></g>
<g><path style="opacity:0.871" fill="#dbb99a" d="M 70.5,294.5 C 72.0697,297.314 73.4031,300.314 74.5,303.5C 71.1919,301.716 69.5253,302.716 69.5,306.5C 67.9257,303.093 66.9257,299.427 66.5,295.5C 67.5676,294.566 68.901,294.232 70.5,294.5 Z"/></g>
<g><path style="opacity:0.97" fill="#f1cbac" d="M 226.5,231.5 C 236.628,231.632 246.628,233.298 256.5,236.5C 256.833,237.667 257.167,238.833 257.5,240C 256.395,245.92 255.062,251.754 253.5,257.5C 248.441,268.074 240.107,272.907 228.5,272C 222.379,269.44 216.379,266.606 210.5,263.5C 206.657,266.014 206.657,268.514 210.5,271C 214.963,273.3 219.296,275.8 223.5,278.5C 224.102,284.123 224.102,289.789 223.5,295.5C 221.676,309.3 215.676,320.967 205.5,330.5C 191.212,336.335 176.212,339.002 160.5,338.5C 145.691,338.386 131.024,336.886 116.5,334C 109.842,333.5 103.175,333.334 96.5,333.5C 82.3431,332.504 68.0097,332.171 53.5,332.5C 55.4489,320.416 56.1155,308.083 55.5,295.5C 56.8333,295.5 58.1667,295.5 59.5,295.5C 60.1804,301.555 61.1804,307.555 62.5,313.5C 62.8333,313.833 63.1667,314.167 63.5,314.5C 65.323,313.253 67.323,312.586 69.5,312.5C 69.5,310.5 69.5,308.5 69.5,306.5C 69.5253,302.716 71.1919,301.716 74.5,303.5C 75.0185,305.901 76.1852,307.901 78,309.5C 79.6303,308.287 81.4636,307.454 83.5,307C 84.0219,306.439 84.3552,305.772 84.5,305C 82.7187,300.328 80.5521,295.828 78,291.5C 77.51,290.207 77.3433,288.873 77.5,287.5C 77.5,285.167 77.5,282.833 77.5,280.5C 78.2216,280.918 78.7216,281.584 79,282.5C 79.4186,281.328 80.0853,280.328 81,279.5C 81.9794,281.32 83.4794,282.487 85.5,283C 92.0654,283.069 98.3987,284.069 104.5,286C 109.823,286.499 115.156,286.666 120.5,286.5C 122.29,292.777 126.29,296.777 132.5,298.5C 135.703,298.232 138.37,296.898 140.5,294.5C 143.067,290.808 145.067,286.808 146.5,282.5C 149.101,281.021 151.934,280.021 155,279.5C 156.667,280.167 158.333,280.833 160,281.5C 163.369,280.187 166.869,279.354 170.5,279C 183.162,273.667 195.829,268.334 208.5,263C 211.678,256.455 214.011,249.621 215.5,242.5C 217.09,239.402 218.756,236.235 220.5,233C 222.586,232.685 224.586,232.185 226.5,231.5 Z"/></g>
<g><path style="opacity:0.963" fill="#af9b6a" d="M 59.5,295.5 C 61.8333,295.5 64.1667,295.5 66.5,295.5C 66.9257,299.427 67.9257,303.093 69.5,306.5C 69.5,308.5 69.5,310.5 69.5,312.5C 67.323,312.586 65.323,313.253 63.5,314.5C 63.1667,314.167 62.8333,313.833 62.5,313.5C 61.1804,307.555 60.1804,301.555 59.5,295.5 Z"/></g>
<g><path style="opacity:0.978" fill="#d5958c" d="M 184.5,285.5 C 190.509,285.334 196.509,285.501 202.5,286C 207.84,290.181 210.34,295.681 210,302.5C 205.049,307.644 199.049,310.977 192,312.5C 189.013,310.846 186.679,308.513 185,305.5C 184.333,304.5 184.333,303.5 185,302.5C 187,300.5 189,298.5 191,296.5C 189.563,300.251 190.396,303.418 193.5,306C 203.553,306.122 206.553,301.622 202.5,292.5C 192.421,287.318 183.587,288.984 176,297.5C 175.136,312.636 182.303,319.803 197.5,319C 200.726,317.802 203.559,315.969 206,313.5C 205.879,316.664 204.379,319.164 201.5,321C 195.888,322.437 190.221,323.104 184.5,323C 179.9,320.785 175.734,317.952 172,314.5C 168.147,304.273 170.313,295.773 178.5,289C 180.727,288.059 182.727,286.892 184.5,285.5 Z"/></g>
<g><path style="opacity:0.983" fill="#7f6c53" d="M 146.5,282.5 C 145.067,286.808 143.067,290.808 140.5,294.5C 138.37,296.898 135.703,298.232 132.5,298.5C 126.29,296.777 122.29,292.777 120.5,286.5C 129.467,286.797 138.133,285.464 146.5,282.5 Z"/></g>
<g><path style="opacity:0.965" fill="#c98481" d="M 227.5,242.5 C 234.26,242.285 240.926,242.952 247.5,244.5C 247.048,248.051 246.048,251.385 244.5,254.5C 241.535,253.727 238.535,253.061 235.5,252.5C 231.476,253.355 230.809,255.188 233.5,258C 236.541,258.576 239.208,259.742 241.5,261.5C 239.093,264.911 236.093,267.578 232.5,269.5C 226.638,266.901 221.971,262.901 218.5,257.5C 221.925,252.745 224.925,247.745 227.5,242.5 Z"/></g>
<g><path style="opacity:0.958" fill="#cc8784" d="M 257.5,291.5 C 267.541,295.481 278.041,298.148 289,299.5C 297.478,299.318 305.644,297.651 313.5,294.5C 314.167,294.833 314.833,295.167 315.5,295.5C 312.671,298.159 309.671,300.659 306.5,303C 299.756,304.968 293.423,307.801 287.5,311.5C 277.258,307.2 267.258,302.534 257.5,297.5C 255.215,295.882 253.215,293.882 251.5,291.5C 253.636,290.207 255.636,290.207 257.5,291.5 Z"/></g>
<g><path style="opacity:0.97" fill="#ab9967" d="M 77.5,287.5 C 77.3433,288.873 77.51,290.207 78,291.5C 80.5521,295.828 82.7187,300.328 84.5,305C 84.3552,305.772 84.0219,306.439 83.5,307C 81.4636,307.454 79.6303,308.287 78,309.5C 76.1852,307.901 75.0185,305.901 74.5,303.5C 73.4031,300.314 72.0697,297.314 70.5,294.5C 71.8484,293.399 73.3484,292.399 75,291.5C 75.6082,289.934 76.4415,288.6 77.5,287.5 Z"/></g>
<g><path style="opacity:0.479" fill="#32271c" d="M 359.5,290.5 C 374.318,299.315 376.484,310.648 366,324.5C 359.833,330.149 353,330.982 345.5,327C 338.607,323.722 335.441,318.222 336,310.5C 341.136,300.86 347.802,299.86 356,307.5C 357.047,312.874 354.88,315.707 349.5,316C 351.747,314.005 352.747,311.505 352.5,308.5C 341.265,306.21 338.432,309.877 344,319.5C 348.491,324.259 353.991,325.759 360.5,324C 366.474,318.409 368.641,311.575 367,303.5C 364.408,300.238 361.241,297.738 357.5,296C 350.5,295.333 343.5,295.333 336.5,296C 333.667,298.833 330.833,301.667 328,304.5C 326.077,315.916 326.577,327.249 329.5,338.5C 329.131,343.213 327.464,343.546 324.5,339.5C 322.888,330.623 321.888,321.623 321.5,312.5C 322.799,302.428 328.132,295.261 337.5,291C 344.801,289.208 352.134,289.041 359.5,290.5 Z"/></g>
<g><path style="opacity:0.914" fill="#bc847e" d="M 386.5,312.5 C 385.524,311.185 384.524,309.852 383.5,308.5C 388.926,309.152 394.26,308.485 399.5,306.5C 401.142,305.133 402.808,304.799 404.5,305.5C 402.249,309.795 398.916,312.961 394.5,315C 391.225,315.982 388.559,315.149 386.5,312.5 Z"/></g>
<g><path style="opacity:0.493" fill="#2f2419" d="M 223.5,295.5 C 224.496,295.414 225.329,295.748 226,296.5C 229.231,310.952 225.398,322.952 214.5,332.5C 211.815,331.224 209.148,331.558 206.5,333.5C 205.614,332.675 205.281,331.675 205.5,330.5C 215.676,320.967 221.676,309.3 223.5,295.5 Z"/></g>
<g><path style="opacity:0.96" fill="#bea48e" d="M 253.5,257.5 C 254.692,260.562 256.192,263.562 258,266.5C 261.391,271.055 265.225,275.055 269.5,278.5C 267.153,279.76 265.32,279.094 264,276.5C 261.98,279.757 259.146,281.924 255.5,283C 256.167,283.333 256.833,283.667 257.5,284C 255.993,284.837 255.493,286.004 256,287.5C 256.333,287.167 256.667,286.833 257,286.5C 259.67,287.224 261.17,288.891 261.5,291.5C 260.167,291.5 258.833,291.5 257.5,291.5C 255.636,290.207 253.636,290.207 251.5,291.5C 253.215,293.882 255.215,295.882 257.5,297.5C 256.596,298.209 256.263,299.209 256.5,300.5C 258.606,300.679 260.272,301.679 261.5,303.5C 259.958,306.507 258.792,309.507 258,312.5C 258.308,311.692 258.808,311.025 259.5,310.5C 261.838,312.011 262.504,311.677 261.5,309.5C 261.808,308.692 262.308,308.025 263,307.5C 263.448,309.224 264.282,309.891 265.5,309.5C 264.185,311.316 262.685,312.983 261,314.5C 259.756,318.786 260.922,322.119 264.5,324.5C 265.842,323.098 266.676,323.431 267,325.5C 268.666,324.66 268.833,325.16 267.5,327C 268.167,327.333 268.833,327.667 269.5,328C 268.289,329.113 268.289,330.28 269.5,331.5C 268.369,332.604 267.535,332.271 267,330.5C 262.056,334.341 262.556,336.008 268.5,335.5C 269.356,339.081 270.356,339.247 271.5,336C 270.67,333.721 271.503,331.888 274,330.5C 273.932,332.342 274.099,334.009 274.5,335.5C 274.473,340.618 274.306,345.952 274,351.5C 270.271,355.398 266.438,359.065 262.5,362.5C 259.167,362.5 255.833,362.5 252.5,362.5C 244.833,362.5 237.167,362.5 229.5,362.5C 225.958,362.813 222.625,362.479 219.5,361.5C 222.84,356.17 226.673,351.17 231,346.5C 231.494,344.866 231.66,343.199 231.5,341.5C 223.723,341.432 216.39,339.599 209.5,336C 211.196,334.824 212.862,333.657 214.5,332.5C 225.398,322.952 229.231,310.952 226,296.5C 225.329,295.748 224.496,295.414 223.5,295.5C 224.102,289.789 224.102,284.123 223.5,278.5C 219.296,275.8 214.963,273.3 210.5,271C 206.657,268.514 206.657,266.014 210.5,263.5C 216.379,266.606 222.379,269.44 228.5,272C 240.107,272.907 248.441,268.074 253.5,257.5 Z"/></g>
<g><path style="opacity:0.946" fill="#c88781" d="M 49.5,294.5 C 51.3792,295.341 53.3792,295.675 55.5,295.5C 56.1155,308.083 55.4489,320.416 53.5,332.5C 51.5,332.167 49.5,331.833 47.5,331.5C 47.8182,326.968 47.4849,322.634 46.5,318.5C 46.4324,310.486 46.099,302.486 45.5,294.5C 46.8333,294.5 48.1667,294.5 49.5,294.5 Z"/></g>
<g><path style="opacity:0.954" fill="#bca28c" d="M 359.5,290.5 C 361.562,290.562 363.728,290.562 366,290.5C 366.862,292.087 367.529,293.754 368,295.5C 370.203,294.733 372.537,293.399 375,291.5C 374.143,294.536 375.31,295.202 378.5,293.5C 380.551,295.808 382.218,297.808 383.5,299.5C 384.478,299.023 385.311,298.357 386,297.5C 385.645,296.041 385.811,294.707 386.5,293.5C 388.547,295.075 390.881,296.075 393.5,296.5C 393.215,298.288 393.548,299.955 394.5,301.5C 395.609,300.41 396.609,300.41 397.5,301.5C 398.174,303.195 398.841,304.862 399.5,306.5C 394.26,308.485 388.926,309.152 383.5,308.5C 384.524,309.852 385.524,311.185 386.5,312.5C 386.141,314.371 385.141,315.871 383.5,317C 384.449,317.617 385.282,317.451 386,316.5C 387.316,319.028 388.483,319.028 389.5,316.5C 390.167,317.5 390.833,318.5 391.5,319.5C 392.736,318.754 394.07,318.421 395.5,318.5C 395.281,317.325 395.614,316.325 396.5,315.5C 397.452,317.045 397.785,318.712 397.5,320.5C 392.468,324.686 386.801,327.852 380.5,330C 379.643,330.689 378.977,331.522 378.5,332.5C 380.512,334.106 382.845,335.273 385.5,336C 386.71,337.039 387.71,338.206 388.5,339.5C 387.134,341.351 385.467,341.684 383.5,340.5C 382.063,343.044 380.563,343.044 379,340.5C 377.391,341.147 375.891,341.98 374.5,343C 376.663,343.245 378.33,344.245 379.5,346C 376.77,347.232 376.937,348.065 380,348.5C 381.711,348.561 383.044,347.894 384,346.5C 386.734,349.293 387.734,348.959 387,345.5C 390.151,347.052 390.318,348.885 387.5,351C 389.459,352.684 389.459,354.684 387.5,357C 386.451,357.492 385.451,357.326 384.5,356.5C 382.118,358.071 379.451,358.904 376.5,359C 378.577,359.807 380.411,360.974 382,362.5C 383,361.5 384,360.5 385,359.5C 384.778,361.456 383.945,363.29 382.5,365C 384.32,364.524 385.987,364.691 387.5,365.5C 384.321,366.793 380.988,367.46 377.5,367.5C 369.833,367.5 362.167,367.5 354.5,367.5C 351.833,367.5 349.167,367.5 346.5,367.5C 346.5,361.5 346.5,355.5 346.5,349.5C 343.351,349.789 340.351,349.289 337.5,348C 334.22,345.225 331.554,342.058 329.5,338.5C 326.577,327.249 326.077,315.916 328,304.5C 330.833,301.667 333.667,298.833 336.5,296C 343.5,295.333 350.5,295.333 357.5,296C 361.241,297.738 364.408,300.238 367,303.5C 368.641,311.575 366.474,318.409 360.5,324C 353.991,325.759 348.491,324.259 344,319.5C 338.432,309.877 341.265,306.21 352.5,308.5C 352.747,311.505 351.747,314.005 349.5,316C 354.88,315.707 357.047,312.874 356,307.5C 347.802,299.86 341.136,300.86 336,310.5C 335.441,318.222 338.607,323.722 345.5,327C 353,330.982 359.833,330.149 366,324.5C 376.484,310.648 374.318,299.315 359.5,290.5 Z"/></g>
<g><path style="opacity:0.981" fill="#c1a591" d="M 388.5,267.5 C 390.4,265.381 392.066,263.047 393.5,260.5C 395.379,260.393 395.712,260.893 394.5,262C 395.965,264.871 398.298,266.371 401.5,266.5C 401.343,267.873 401.51,269.207 402,270.5C 403.666,269.66 403.833,270.16 402.5,272C 406.837,274.804 406.504,276.638 401.5,277.5C 398.348,277.571 396.014,278.905 394.5,281.5C 393.848,282.449 393.514,283.615 393.5,285C 393.675,286.658 394.342,287.991 395.5,289C 394.207,289.49 392.873,289.657 391.5,289.5C 388.854,287.747 385.854,286.747 382.5,286.5C 382.238,287.978 382.571,289.311 383.5,290.5C 384.855,291.188 385.855,292.188 386.5,293.5C 385.811,294.707 385.645,296.041 386,297.5C 385.311,298.357 384.478,299.023 383.5,299.5C 382.218,297.808 380.551,295.808 378.5,293.5C 375.31,295.202 374.143,294.536 375,291.5C 372.537,293.399 370.203,294.733 368,295.5C 367.529,293.754 366.862,292.087 366,290.5C 363.728,290.562 361.562,290.562 359.5,290.5C 352.134,289.041 344.801,289.208 337.5,291C 328.132,295.261 322.799,302.428 321.5,312.5C 321.888,321.623 322.888,330.623 324.5,339.5C 324.421,340.93 324.754,342.264 325.5,343.5C 316.062,346.29 306.396,347.623 296.5,347.5C 287.952,345.562 280.618,341.562 274.5,335.5C 274.099,334.009 273.932,332.342 274,330.5C 271.503,331.888 270.67,333.721 271.5,336C 270.356,339.247 269.356,339.081 268.5,335.5C 262.556,336.008 262.056,334.341 267,330.5C 267.535,332.271 268.369,332.604 269.5,331.5C 268.289,330.28 268.289,329.113 269.5,328C 268.833,327.667 268.167,327.333 267.5,327C 268.833,325.16 268.666,324.66 267,325.5C 266.676,323.431 265.842,323.098 264.5,324.5C 260.922,322.119 259.756,318.786 261,314.5C 262.685,312.983 264.185,311.316 265.5,309.5C 264.282,309.891 263.448,309.224 263,307.5C 262.308,308.025 261.808,308.692 261.5,309.5C 262.504,311.677 261.838,312.011 259.5,310.5C 258.808,311.025 258.308,311.692 258,312.5C 258.792,309.507 259.958,306.507 261.5,303.5C 260.272,301.679 258.606,300.679 256.5,300.5C 256.263,299.209 256.596,298.209 257.5,297.5C 267.258,302.534 277.258,307.2 287.5,311.5C 293.423,307.801 299.756,304.968 306.5,303C 309.671,300.659 312.671,298.159 315.5,295.5C 314.833,295.167 314.167,294.833 313.5,294.5C 305.644,297.651 297.478,299.318 289,299.5C 278.041,298.148 267.541,295.481 257.5,291.5C 258.833,291.5 260.167,291.5 261.5,291.5C 261.17,288.891 259.67,287.224 257,286.5C 256.667,286.833 256.333,287.167 256,287.5C 255.493,286.004 255.993,284.837 257.5,284C 256.833,283.667 256.167,283.333 255.5,283C 259.146,281.924 261.98,279.757 264,276.5C 265.32,279.094 267.153,279.76 269.5,278.5C 276.409,282.686 283.075,282.186 289.5,277C 292.653,272.528 295.153,267.694 297,262.5C 298.95,259.013 301.283,258.679 304,261.5C 309.276,274.718 318.776,279.884 332.5,277C 337.377,272.613 342.044,267.946 346.5,263C 347.333,262.833 348.167,262.667 349,262.5C 355.617,265.107 361.117,269.274 365.5,275C 375.554,279.773 383.22,277.273 388.5,267.5 Z"/></g>
<g><path style="opacity:0.99" fill="#cd8985" d="M 261.5,317.5 C 261.735,316.903 262.235,316.57 263,316.5C 268.448,317.904 273.948,319.07 279.5,320C 288.518,320.168 297.518,320.668 306.5,321.5C 303.632,323.532 300.632,325.365 297.5,327C 292.817,327.616 288.484,329.116 284.5,331.5C 277.918,328.808 271.585,325.641 265.5,322C 263.93,320.603 262.596,319.103 261.5,317.5 Z"/></g>
<g><path style="opacity:0.988" fill="#cb8985" d="M 287.5,282.5 C 293.812,283.608 294.812,286.441 290.5,291C 285.333,292.5 283.5,290.667 285,285.5C 286.045,284.627 286.878,283.627 287.5,282.5 Z"/></g>
<g><path style="opacity:0.21" fill="#3c2e1f" d="M 437.5,263.5 C 440.137,265.482 441.47,268.148 441.5,271.5C 440.406,280.087 437.406,287.254 432.5,293C 430.438,295.068 429.272,297.568 429,300.5C 425.075,302.751 421.408,305.417 418,308.5C 417.749,310.433 417.249,312.266 416.5,314C 410.117,318.64 403.95,323.473 398,328.5C 396.278,331.611 395.445,334.944 395.5,338.5C 397.269,343.765 397.935,349.098 397.5,354.5C 396.136,358.389 395.302,362.389 395,366.5C 394.5,367 394,367.5 393.5,368C 396.001,369.418 395.668,370.418 392.5,371C 393.783,373.795 393.783,376.628 392.5,379.5C 391.832,376.694 391.166,374.028 390.5,371.5C 391.484,369.402 391.151,367.402 389.5,365.5C 390.266,357.509 390.433,349.509 390,341.5C 389.722,340.584 389.222,339.918 388.5,339.5C 387.71,338.206 386.71,337.039 385.5,336C 382.845,335.273 380.512,334.106 378.5,332.5C 378.977,331.522 379.643,330.689 380.5,330C 386.801,327.852 392.468,324.686 397.5,320.5C 417.473,307.529 430.473,289.529 436.5,266.5C 437.404,265.791 437.737,264.791 437.5,263.5 Z"/></g>
<g><path style="opacity:0.265" fill="#392b1d" d="M 205.5,330.5 C 205.281,331.675 205.614,332.675 206.5,333.5C 209.148,331.558 211.815,331.224 214.5,332.5C 212.862,333.657 211.196,334.824 209.5,336C 216.39,339.599 223.723,341.432 231.5,341.5C 231.66,343.199 231.494,344.866 231,346.5C 226.673,351.17 222.84,356.17 219.5,361.5C 217.795,366.903 217.128,372.57 217.5,378.5C 231.852,378.563 246.185,378.063 260.5,377C 261.192,372.169 261.859,367.336 262.5,362.5C 266.438,359.065 270.271,355.398 274,351.5C 274.306,345.952 274.473,340.618 274.5,335.5C 280.618,341.562 287.952,345.562 296.5,347.5C 297.234,348.708 297.567,350.041 297.5,351.5C 293.651,351.403 289.817,351.069 286,350.5C 283.109,350.26 280.609,351.093 278.5,353C 272.873,359.817 268.206,367.317 264.5,375.5C 261.825,378.671 258.491,380.837 254.5,382C 246.898,383.419 239.398,383.919 232,383.5C 226.903,382.852 222.069,381.519 217.5,379.5C 214.5,379.833 213.167,378.5 213.5,375.5C 213.334,371.154 213.501,366.821 214,362.5C 222.483,350.116 219.483,341.783 205,337.5C 190.246,342.108 175.08,344.442 159.5,344.5C 126.59,340.674 93.5904,337.84 60.5,336C 57.6385,336.03 55.3052,335.197 53.5,333.5C 67.8333,333.5 82.1667,333.5 96.5,333.5C 103.175,333.334 109.842,333.5 116.5,334C 131.024,336.886 145.691,338.386 160.5,338.5C 176.212,339.002 191.212,336.335 205.5,330.5 Z"/></g>
<g><path style="opacity:0.174" fill="#413120" d="M 53.5,333.5 C 55.3052,335.197 57.6385,336.03 60.5,336C 93.5904,337.84 126.59,340.674 159.5,344.5C 175.08,344.442 190.246,342.108 205,337.5C 219.483,341.783 222.483,350.116 214,362.5C 213.501,366.821 213.334,371.154 213.5,375.5C 212.522,375.189 211.855,374.522 211.5,373.5C 210.993,365.677 212.66,358.177 216.5,351C 215.573,345.82 212.573,342.486 207.5,341C 196.27,342.775 184.936,344.442 173.5,346C 164.833,346.667 156.167,346.667 147.5,346C 132.416,343.796 117.583,341.963 103,340.5C 95.1156,340.759 87.2822,341.093 79.5,341.5C 72.8625,340.742 66.1958,340.242 59.5,340C 56.4245,339.654 53.4245,338.988 50.5,338C 53.1307,336.309 52.7973,335.142 49.5,334.5C 50.8605,334.212 52.1938,333.879 53.5,333.5 Z"/></g>
<g><path style="opacity:0.211" fill="#3d2e1f" d="M 329.5,338.5 C 331.554,342.058 334.22,345.225 337.5,348C 340.351,349.289 343.351,349.789 346.5,349.5C 346.5,355.5 346.5,361.5 346.5,367.5C 344.025,372.782 344.025,377.949 346.5,383C 358.495,383.5 370.495,383.667 382.5,383.5C 384.716,383.275 386.383,384.108 387.5,386C 385.694,386.81 384.194,387.976 383,389.5C 382.127,389.265 381.293,388.931 380.5,388.5C 376.905,389.488 373.238,390.155 369.5,390.5C 363.989,389.637 358.655,389.637 353.5,390.5C 346.409,389.207 341.575,385.207 339,378.5C 338.956,371.282 338.289,363.949 337,356.5C 334.442,352.753 330.775,351.086 326,351.5C 312.765,355.447 299.598,355.78 286.5,352.5C 283.236,352.974 280.402,354.307 278,356.5C 273.163,363.504 268.829,370.837 265,378.5C 259.795,382.686 253.795,385.019 247,385.5C 244.499,385.416 242.166,384.75 240,383.5C 232.678,386.405 225.511,385.905 218.5,382C 217.748,381.329 217.414,380.496 217.5,379.5C 222.069,381.519 226.903,382.852 232,383.5C 239.398,383.919 246.898,383.419 254.5,382C 258.491,380.837 261.825,378.671 264.5,375.5C 268.206,367.317 272.873,359.817 278.5,353C 280.609,351.093 283.109,350.26 286,350.5C 289.817,351.069 293.651,351.403 297.5,351.5C 297.567,350.041 297.234,348.708 296.5,347.5C 306.396,347.623 316.062,346.29 325.5,343.5C 324.754,342.264 324.421,340.93 324.5,339.5C 327.464,343.546 329.131,343.213 329.5,338.5 Z"/></g>
<g><path style="opacity:0.871" fill="#ab927d" d="M 388.5,339.5 C 389.222,339.918 389.722,340.584 390,341.5C 390.433,349.509 390.266,357.509 389.5,365.5C 388.833,365.5 388.167,365.5 387.5,365.5C 385.987,364.691 384.32,364.524 382.5,365C 383.945,363.29 384.778,361.456 385,359.5C 384,360.5 383,361.5 382,362.5C 380.411,360.974 378.577,359.807 376.5,359C 379.451,358.904 382.118,358.071 384.5,356.5C 385.451,357.326 386.451,357.492 387.5,357C 389.459,354.684 389.459,352.684 387.5,351C 390.318,348.885 390.151,347.052 387,345.5C 387.734,348.959 386.734,349.293 384,346.5C 383.044,347.894 381.711,348.561 380,348.5C 376.937,348.065 376.77,347.232 379.5,346C 378.33,344.245 376.663,343.245 374.5,343C 375.891,341.98 377.391,341.147 379,340.5C 380.563,343.044 382.063,343.044 383.5,340.5C 385.467,341.684 387.134,341.351 388.5,339.5 Z"/></g>
<g><path style="opacity:0.658" fill="#4e3f2b" d="M 387.5,365.5 C 388.167,365.5 388.833,365.5 389.5,365.5C 391.151,367.402 391.484,369.402 390.5,371.5C 390.665,374.85 390.498,378.183 390,381.5C 387.393,382.123 384.893,382.79 382.5,383.5C 370.495,383.667 358.495,383.5 346.5,383C 344.025,377.949 344.025,372.782 346.5,367.5C 349.167,367.5 351.833,367.5 354.5,367.5C 356.104,370.943 357.938,374.277 360,377.5C 364.871,384.367 369.205,384.033 373,376.5C 375.038,373.757 376.538,370.757 377.5,367.5C 380.988,367.46 384.321,366.793 387.5,365.5 Z"/></g>
<g><path style="opacity:0.914" fill="#53452f" d="M 219.5,361.5 C 222.625,362.479 225.958,362.813 229.5,362.5C 231.524,367.208 233.524,371.874 235.5,376.5C 242.806,373.989 248.472,369.323 252.5,362.5C 255.833,362.5 259.167,362.5 262.5,362.5C 261.859,367.336 261.192,372.169 260.5,377C 246.185,378.063 231.852,378.563 217.5,378.5C 217.128,372.57 217.795,366.903 219.5,361.5 Z"/></g>
<g><path style="opacity:0.942" fill="#64813c" d="M 229.5,362.5 C 237.167,362.5 244.833,362.5 252.5,362.5C 248.472,369.323 242.806,373.989 235.5,376.5C 233.524,371.874 231.524,367.208 229.5,362.5 Z"/></g>
<g><path style="opacity:0.847" fill="#5e7239" d="M 354.5,367.5 C 362.167,367.5 369.833,367.5 377.5,367.5C 376.538,370.757 375.038,373.757 373,376.5C 369.205,384.033 364.871,384.367 360,377.5C 357.938,374.277 356.104,370.943 354.5,367.5 Z"/></g>
</svg>
