<?xml version="1.0" encoding="UTF-8"?>
<!DOCTYPE svg PUBLIC "-//W3C//DTD SVG 1.1//EN" "http://www.w3.org/Graphics/SVG/1.1/DTD/svg11.dtd">
<svg xmlns="http://www.w3.org/2000/svg" version="1.1" width="66px" height="66px" style="shape-rendering:geometricPrecision; text-rendering:geometricPrecision; image-rendering:optimizeQuality; fill-rule:evenodd; clip-rule:evenodd" xmlns:xlink="http://www.w3.org/1999/xlink">
<g><path style="opacity:0.004" fill="#feff00" d="M 65.5,4.5 C 65.5,4.83333 65.5,5.16667 65.5,5.5C 64.8299,5.01865 64.8299,4.68532 65.5,4.5 Z"/></g>
<g><path style="opacity:0.004" fill="#00fffe" d="M 0.5,16.5 C 1.83333,17.1667 1.83333,17.1667 0.5,16.5 Z"/></g>
<g><path style="opacity:1" fill="#ccccca" d="M 50.5,16.5 C 52.8068,17.6534 55.1401,18.8201 57.5,20C 59.1027,23.218 58.6027,26.0513 56,28.5C 55.8267,34.0158 55.3267,39.3491 54.5,44.5C 55.0454,38.5368 54.3787,32.8701 52.5,27.5C 53.4614,25.7354 53.7947,23.7354 53.5,21.5C 51.396,21.2011 49.396,21.5344 47.5,22.5C 48.5353,24.1284 48.5353,25.795 47.5,27.5C 46.5,26.1667 45.5,24.8333 44.5,23.5C 44.5,21.1667 44.5,18.8333 44.5,16.5C 46.5,16.5 48.5,16.5 50.5,16.5 Z"/></g>
<g><path style="opacity:0.601" fill="#141210" d="M 29.5,40.5 C 29.0618,40.4346 28.7284,40.6012 28.5,41C 30.0368,42.1096 30.7035,43.6096 30.5,45.5C 29.1882,44.8549 28.1882,43.8549 27.5,42.5C 22.2079,41.5052 16.8746,41.1718 11.5,41.5C 16.1667,40.8333 20.8333,40.1667 25.5,39.5C 22.5342,29.1301 20.8676,18.4634 20.5,7.5C 19.5,7.5 18.5,7.5 17.5,7.5C 17.3497,17.6752 16.0164,27.6752 13.5,37.5C 12.2921,38.2341 10.9587,38.5674 9.5,38.5C 12.8878,26.6248 14.8878,14.9582 15.5,3.5C 17.8333,3.5 20.1667,3.5 22.5,3.5C 22.9867,16.0165 25.3201,28.3499 29.5,40.5 Z"/></g>
<g><path style="opacity:1" fill="#1b1a1a" d="M 52.5,27.5 C 50.9008,26.438 49.2341,26.438 47.5,27.5C 48.5353,25.795 48.5353,24.1284 47.5,22.5C 49.396,21.5344 51.396,21.2011 53.5,21.5C 53.7947,23.7354 53.4614,25.7354 52.5,27.5 Z"/></g>
<g><path style="opacity:1" fill="#d5d5d4" d="M 34.5,18.5 C 34.8333,18.5 35.1667,18.5 35.5,18.5C 36.8261,22.6139 37.4927,27.1139 37.5,32C 37.4927,36.8861 36.8261,41.3861 35.5,45.5C 34.7151,40.2484 34.2151,34.9151 34,29.5C 30.5291,25.4943 30.6958,21.8276 34.5,18.5 Z"/></g>
<g><path style="opacity:1" fill="#e5e5e4" d="M 44.5,23.5 C 45.5,24.8333 46.5,26.1667 47.5,27.5C 49.2341,26.438 50.9008,26.438 52.5,27.5C 54.3787,32.8701 55.0454,38.5368 54.5,44.5C 52.8333,46.5 51.1667,48.5 49.5,50.5C 47.9582,51.3007 46.2915,51.634 44.5,51.5C 44.5,42.1667 44.5,32.8333 44.5,23.5 Z"/></g>
<g><path style="opacity:0.698" fill="#110f0d" d="M 49.5,54.5 C 49.5,53.1667 49.5,51.8333 49.5,50.5C 51.1667,48.5 52.8333,46.5 54.5,44.5C 55.3267,39.3491 55.8267,34.0158 56,28.5C 58.6027,26.0513 59.1027,23.218 57.5,20C 55.1401,18.8201 52.8068,17.6534 50.5,16.5C 47.0242,15.3567 43.3575,15.1901 39.5,16C 37.9336,16.6082 36.6002,17.4415 35.5,18.5C 35.1667,18.5 34.8333,18.5 34.5,18.5C 35.6417,16.5669 37.3083,15.0669 39.5,14C 39.2716,13.6012 38.9382,13.4346 38.5,13.5C 41.5091,12.7171 44.6758,12.0504 48,11.5C 52.6045,13.3027 56.9378,15.636 61,18.5C 61.6667,21.8333 61.6667,25.1667 61,28.5C 60.3333,29.1667 59.6667,29.8333 59,30.5C 61.0066,40.8014 57.8399,48.8014 49.5,54.5 Z"/></g>
<g><path style="opacity:1" fill="#dededc" d="M 25.5,39.5 C 21.0293,40.0894 17.0293,39.4228 13.5,37.5C 16.0164,27.6752 17.3497,17.6752 17.5,7.5C 18.5,7.5 19.5,7.5 20.5,7.5C 20.8676,18.4634 22.5342,29.1301 25.5,39.5 Z"/></g>
<g><path style="opacity:0.004" fill="#000000" d="M 5.5,35.5 C 6.52502,35.8966 6.69169,36.5632 6,37.5C 5.53566,36.9056 5.36899,36.2389 5.5,35.5 Z"/></g>
<g><path style="opacity:1" fill="#878685" d="M 50.5,16.5 C 48.5,16.5 46.5,16.5 44.5,16.5C 44.5,18.8333 44.5,21.1667 44.5,23.5C 44.5,32.8333 44.5,42.1667 44.5,51.5C 40.4698,51.1507 37.4698,49.1507 35.5,45.5C 36.8261,41.3861 37.4927,36.8861 37.5,32C 37.4927,27.1139 36.8261,22.6139 35.5,18.5C 36.6002,17.4415 37.9336,16.6082 39.5,16C 43.3575,15.1901 47.0242,15.3567 50.5,16.5 Z"/></g>
<g><path style="opacity:0.012" fill="#000000" d="M -0.5,36.5 C 0.833333,37.5 0.833333,38.5 -0.5,39.5C -0.5,38.5 -0.5,37.5 -0.5,36.5 Z"/></g>
<g><path style="opacity:0.781" fill="#191714" d="M 38.5,13.5 C 38.9382,13.4346 39.2716,13.6012 39.5,14C 37.3083,15.0669 35.6417,16.5669 34.5,18.5C 30.6958,21.8276 30.5291,25.4943 34,29.5C 34.2151,34.9151 34.7151,40.2484 35.5,45.5C 37.4698,49.1507 40.4698,51.1507 44.5,51.5C 46.2915,51.634 47.9582,51.3007 49.5,50.5C 49.5,51.8333 49.5,53.1667 49.5,54.5C 46.6965,55.6378 43.6965,55.8045 40.5,55C 38.2365,53.0158 36.0698,50.8491 34,48.5C 32.6631,50.0037 30.9964,51.0037 29,51.5C 27.7012,51.0338 26.2012,51.0338 24.5,51.5C 24.2161,54.7766 24.5495,57.9433 25.5,61C 21.9409,61.653 18.6075,62.153 15.5,62.5C 14.3163,58.5518 13.3163,54.5518 12.5,50.5C 10.1565,51.7829 7.48983,51.7829 4.5,50.5C 4.33788,48.4727 4.50454,46.4727 5,44.5C 6.75241,42.6491 8.25241,40.6491 9.5,38.5C 10.9587,38.5674 12.2921,38.2341 13.5,37.5C 17.0293,39.4228 21.0293,40.0894 25.5,39.5C 20.8333,40.1667 16.1667,40.8333 11.5,41.5C 9.61501,43.0532 8.61501,45.0532 8.5,47.5C 16.2428,48.1299 23.5762,47.4633 30.5,45.5C 30.7035,43.6096 30.0368,42.1096 28.5,41C 28.7284,40.6012 29.0618,40.4346 29.5,40.5C 31.0093,41.8595 31.676,41.3595 31.5,39C 30.6288,36.7569 30.6288,34.7569 31.5,33C 25.8297,23.4429 28.163,16.9429 38.5,13.5 Z"/></g>
<g><path style="opacity:1" fill="#d4d5d2" d="M 11.5,41.5 C 16.8746,41.1718 22.2079,41.5052 27.5,42.5C 28.1882,43.8549 29.1882,44.8549 30.5,45.5C 23.5762,47.4633 16.2428,48.1299 8.5,47.5C 8.61501,45.0532 9.61501,43.0532 11.5,41.5 Z"/></g>
<g><path style="opacity:1" fill="#d4d4d1" d="M 17.5,49.5 C 18.8333,49.5 20.1667,49.5 21.5,49.5C 21.5,52.5 21.5,55.5 21.5,58.5C 20.1667,58.5 18.8333,58.5 17.5,58.5C 17.5,55.5 17.5,52.5 17.5,49.5 Z"/></g>
<g><path style="opacity:0.004" fill="#feff00" d="M 28.5,63.5 C 28.8966,62.475 29.5632,62.3083 30.5,63C 29.9056,63.4643 29.2389,63.631 28.5,63.5 Z"/></g>
<g><path style="opacity:0.004" fill="#feff00" d="M 42.5,63.5 C 42.8966,62.475 43.5632,62.3083 44.5,63C 43.9056,63.4643 43.2389,63.631 42.5,63.5 Z"/></g>
<g><path style="opacity:0.016" fill="#3f4000" d="M 12.5,65.5 C 11.8333,64.1667 11.8333,64.1667 12.5,65.5 Z"/></g>
</svg>
