<?xml version="1.0" encoding="UTF-8"?>
<!DOCTYPE svg PUBLIC "-//W3C//DTD SVG 1.1//EN" "http://www.w3.org/Graphics/SVG/1.1/DTD/svg11.dtd">
<svg xmlns="http://www.w3.org/2000/svg" version="1.1" width="66px" height="66px" style="shape-rendering:geometricPrecision; text-rendering:geometricPrecision; image-rendering:optimizeQuality; fill-rule:evenodd; clip-rule:evenodd" xmlns:xlink="http://www.w3.org/1999/xlink">
<g><path style="opacity:0.919" fill="#171411" d="M 41.5,18.5 C 41.7373,17.209 41.404,16.209 40.5,15.5C 42.372,11.2788 41.2054,8.27884 37,6.5C 32.2336,7.86765 32.4003,8.53432 37.5,8.5C 37.7394,10.4672 37.4061,12.3005 36.5,14C 31.0313,12.8819 25.3646,12.3819 19.5,12.5C 19.3359,15.1873 19.5026,17.854 20,20.5C 20.3678,21.91 21.2011,22.91 22.5,23.5C 23.4656,25.396 23.7989,27.396 23.5,29.5C 24.5,30.1667 25.5,30.8333 26.5,31.5C 22.9581,31.1872 19.6248,31.5206 16.5,32.5C 15.8333,32.1667 15.1667,31.8333 14.5,31.5C 12.0381,28.996 9.3714,28.996 6.5,31.5C 6.41423,30.5041 6.74756,29.6708 7.5,29C 15.4728,28.1737 15.4728,27.6737 7.5,27.5C 8.95161,26.6981 10.6183,26.1981 12.5,26C 16.5332,21.5742 16.3665,17.4075 12,13.5C 8.95642,5.96266 11.1231,2.46266 18.5,3C 21.263,8.26378 24.9296,9.59711 29.5,7C 31.9259,2.71153 35.5926,1.3782 40.5,3C 41.7899,5.29201 43.4565,7.29201 45.5,9C 44.7256,11.405 44.2256,13.905 44,16.5C 43.2917,17.3805 42.4584,18.0472 41.5,18.5 Z"/></g>
<g><path style="opacity:0.004" fill="#000000" d="M 23.5,4.5 C 24.8333,5.16667 24.8333,5.16667 23.5,4.5 Z"/></g>
<g><path style="opacity:0.004" fill="#000000" d="M 25.5,4.5 C 26.8333,5.16667 26.8333,5.16667 25.5,4.5 Z"/></g>
<g><path style="opacity:1" fill="#c8c8c7" d="M 14.5,6.5 C 19.2777,7.34934 20.1111,9.34934 17,12.5C 14.2721,11.033 13.4387,9.03299 14.5,6.5 Z"/></g>
<g><path style="opacity:1" fill="#b3b2b2" d="M 40.5,15.5 C 34.9252,16.4524 29.2586,16.7857 23.5,16.5C 23.4744,19.8757 24.1411,23.0423 25.5,26C 25.3917,27.6811 24.7251,28.8478 23.5,29.5C 23.7989,27.396 23.4656,25.396 22.5,23.5C 21.2011,22.91 20.3678,21.91 20,20.5C 19.5026,17.854 19.3359,15.1873 19.5,12.5C 25.3646,12.3819 31.0313,12.8819 36.5,14C 37.4061,12.3005 37.7394,10.4672 37.5,8.5C 32.4003,8.53432 32.2336,7.86765 37,6.5C 41.2054,8.27884 42.372,11.2788 40.5,15.5 Z"/></g>
<g><path style="opacity:0.935" fill="#171611" d="M 40.5,15.5 C 41.404,16.209 41.7373,17.209 41.5,18.5C 39.4907,20.0652 37.1573,21.0652 34.5,21.5C 36.0507,23.9128 36.7174,26.5794 36.5,29.5C 33.6697,29.9628 31.003,30.6295 28.5,31.5C 27.8333,31.5 27.1667,31.5 26.5,31.5C 25.5,30.8333 24.5,30.1667 23.5,29.5C 24.7251,28.8478 25.3917,27.6811 25.5,26C 24.1411,23.0423 23.4744,19.8757 23.5,16.5C 29.2586,16.7857 34.9252,16.4524 40.5,15.5 Z M 34.5,21.5 C 32.8008,21.6602 31.1341,21.4935 29.5,21C 31.5847,18.8609 33.2513,19.0275 34.5,21.5 Z"/></g>
<g><path style="opacity:0.752" fill="#1b1916" d="M 59.5,29.5 C 59.0618,29.5654 58.7284,29.3988 58.5,29C 59.5,28 60.5,27 61.5,26C 60.9056,25.5357 60.2389,25.369 59.5,25.5C 56.4194,24.8056 54.0861,26.139 52.5,29.5C 51.8333,29.1667 51.1667,28.8333 50.5,28.5C 51.2299,27.2876 52.2299,26.2876 53.5,25.5C 52.6086,24.4104 51.6086,24.4104 50.5,25.5C 49.2857,23.6203 47.9524,23.2869 46.5,24.5C 44.8546,25.4787 43.5213,26.812 42.5,28.5C 42.9569,29.2975 43.6236,29.6309 44.5,29.5C 42.9073,30.8672 41.5739,30.5339 40.5,28.5C 41.9524,27.0603 42.9524,25.3936 43.5,23.5C 44.1451,22.1882 45.1451,21.1882 46.5,20.5C 52.0836,20.33 57.7502,20.6633 63.5,21.5C 64.8774,25.4126 63.5441,28.0792 59.5,29.5 Z"/></g>
<g><path style="opacity:1" fill="#dbdbd9" d="M 28.5,24.5 C 31.9103,24.3838 33.2436,26.0504 32.5,29.5C 31.1667,29.5 29.8333,29.5 28.5,29.5C 28.5,27.8333 28.5,26.1667 28.5,24.5 Z"/></g>
<g><path style="opacity:1" fill="#d5d5d2" d="M 46.5,24.5 C 47.2389,24.369 47.9056,24.5357 48.5,25C 47.2899,26.0391 46.2899,27.2058 45.5,28.5C 45.5,29.1667 45.1667,29.5 44.5,29.5C 43.6236,29.6309 42.9569,29.2975 42.5,28.5C 43.5213,26.812 44.8546,25.4787 46.5,24.5 Z"/></g>
<g><path style="opacity:1" fill="#d4d3d1" d="M 17.5,24.5 C 20.0838,25.0483 21.0838,26.715 20.5,29.5C 19.1667,29.5 17.8333,29.5 16.5,29.5C 16.366,27.7085 16.6993,26.0418 17.5,24.5 Z"/></g>
<g><path style="opacity:1" fill="#646462" d="M 46.5,24.5 C 47.9524,23.2869 49.2857,23.6203 50.5,25.5C 51.6086,24.4104 52.6086,24.4104 53.5,25.5C 52.2299,26.2876 51.2299,27.2876 50.5,28.5C 48.9504,29.7199 47.2837,29.7199 45.5,28.5C 46.2899,27.2058 47.2899,26.0391 48.5,25C 47.9056,24.5357 47.2389,24.369 46.5,24.5 Z"/></g>
<g><path style="opacity:1" fill="#d8d7d5" d="M 59.5,25.5 C 57.6366,27.7053 55.3033,29.0387 52.5,29.5C 54.0861,26.139 56.4194,24.8056 59.5,25.5 Z"/></g>
<g><path style="opacity:0.844" fill="#141211" d="M 43.5,23.5 C 42.9524,25.3936 41.9524,27.0603 40.5,28.5C 41.5739,30.5339 42.9073,30.8672 44.5,29.5C 45.1667,29.5 45.5,29.1667 45.5,28.5C 47.2837,29.7199 48.9504,29.7199 50.5,28.5C 51.1667,28.8333 51.8333,29.1667 52.5,29.5C 55.3033,29.0387 57.6366,27.7053 59.5,25.5C 60.2389,25.369 60.9056,25.5357 61.5,26C 60.5,27 59.5,28 58.5,29C 58.7284,29.3988 59.0618,29.5654 59.5,29.5C 58.8592,30.4822 58.1925,31.4822 57.5,32.5C 59.2968,35.7948 61.6302,38.6281 64.5,41C 63.6634,42.0113 63.33,43.1779 63.5,44.5C 56.8749,44.8 50.7083,45.1333 45,45.5C 42.5318,42.2795 39.8651,39.2795 37,36.5C 36.6401,38.6079 35.9734,40.6079 35,42.5C 27.7016,45.2513 28.0349,45.918 36,44.5C 43.6845,46.2038 46.3512,50.8704 44,58.5C 43.2917,59.3805 42.4584,60.0472 41.5,60.5C 40.8902,59.609 40.5569,58.609 40.5,57.5C 42.0479,54.7415 41.7146,52.2415 39.5,50C 34.2497,49.8071 29.083,49.3071 24,48.5C 24.1319,45.4919 24.6319,42.4919 25.5,39.5C 25.4146,37.6672 24.7479,36.3339 23.5,35.5C 33.8333,34.8333 44.1667,34.1667 54.5,33.5C 46.2312,31.5302 37.5645,30.8636 28.5,31.5C 31.003,30.6295 33.6697,29.9628 36.5,29.5C 38.8333,27.5 41.1667,25.5 43.5,23.5 Z"/></g>
<g><path style="opacity:0.909" fill="#1c1a18" d="M 7.5,27.5 C 15.4728,27.6737 15.4728,28.1737 7.5,29C 6.74756,29.6708 6.41423,30.5041 6.5,31.5C 6.51056,33.0174 7.17723,34.1841 8.5,35C 10.4727,35.4955 12.4727,35.6621 14.5,35.5C 14.5,34.1667 14.5,32.8333 14.5,31.5C 15.1667,31.8333 15.8333,32.1667 16.5,32.5C 28.989,33.4954 41.6557,33.8287 54.5,33.5C 44.1667,34.1667 33.8333,34.8333 23.5,35.5C 24.2114,39.2807 23.0447,42.2807 20,44.5C 19.502,47.4816 19.3354,50.4816 19.5,53.5C 24.5679,53.937 29.4013,53.2703 34,51.5C 36.259,51.2606 37.4257,52.2606 37.5,54.5C 37.4096,56.4251 36.4096,57.5917 34.5,58C 36.5976,58.6776 38.5976,58.5109 40.5,57.5C 40.5569,58.609 40.8902,59.609 41.5,60.5C 36.5719,63.6684 32.2386,62.8351 28.5,58C 26.5,57.3333 24.5,57.3333 22.5,58C 17.3708,65.573 13.0374,65.2397 9.5,57C 10.9596,53.9113 12.793,51.0779 15,48.5C 15.0343,46.8204 15.201,45.3204 15.5,44C 14.2283,42.6932 13.2283,41.1932 12.5,39.5C 7.28657,39.0988 3.61991,36.5988 1.5,32C 2.98519,29.7631 4.98519,28.2631 7.5,27.5 Z"/></g>
<g><path style="opacity:1" fill="#adadad" d="M 14.5,31.5 C 14.5,32.8333 14.5,34.1667 14.5,35.5C 12.4727,35.6621 10.4727,35.4955 8.5,35C 7.17723,34.1841 6.51056,33.0174 6.5,31.5C 9.3714,28.996 12.0381,28.996 14.5,31.5 Z"/></g>
<g><path style="opacity:1" fill="#e6e5e3" d="M 26.5,31.5 C 27.1667,31.5 27.8333,31.5 28.5,31.5C 37.5645,30.8636 46.2312,31.5302 54.5,33.5C 41.6557,33.8287 28.989,33.4954 16.5,32.5C 19.6248,31.5206 22.9581,31.1872 26.5,31.5 Z"/></g>
<g><path style="opacity:0.004" fill="#000000" d="M 59.5,32.5 C 60.8333,33.1667 60.8333,33.1667 59.5,32.5 Z"/></g>
<g><path style="opacity:1" fill="#acabab" d="M 47.5,37.5 C 48.2506,36.4265 49.2506,36.2599 50.5,37C 51.8333,38.3333 53.1667,39.6667 54.5,41C 53.5,41.6667 52.5,41.6667 51.5,41C 50.2949,39.6244 48.9616,38.4577 47.5,37.5 Z"/></g>
<g><path style="opacity:1" fill="#c3c2c1" d="M 16.5,35.5 C 17.8333,35.5 19.1667,35.5 20.5,35.5C 21.2436,38.9496 19.9103,40.6162 16.5,40.5C 16.5,38.8333 16.5,37.1667 16.5,35.5 Z"/></g>
<g><path style="opacity:1" fill="#b7b6b4" d="M 28.5,35.5 C 29.8333,35.5 31.1667,35.5 32.5,35.5C 33.4015,39.2407 32.0681,41.2407 28.5,41.5C 28.5,39.5 28.5,37.5 28.5,35.5 Z"/></g>
<g><path style="opacity:1" fill="#d3d2d0" d="M 52.5,37.5 C 53.2506,36.4265 54.2506,36.2599 55.5,37C 56.8333,38.3333 58.1667,39.6667 59.5,41C 58.5,41.6667 57.5,41.6667 56.5,41C 55.2949,39.6244 53.9616,38.4577 52.5,37.5 Z"/></g>
<g><path style="opacity:1" fill="#cfcfcd" d="M 42.5,37.5 C 45.1736,36.3974 47.1736,37.3974 48.5,40.5C 48,40.8333 47.5,41.1667 47,41.5C 45.6494,39.9818 44.1494,38.6485 42.5,37.5 Z"/></g>
<g><path style="opacity:1" fill="#b6b6b6" d="M 23.5,35.5 C 24.7479,36.3339 25.4146,37.6672 25.5,39.5C 24.6319,42.4919 24.1319,45.4919 24,48.5C 29.083,49.3071 34.2497,49.8071 39.5,50C 41.7146,52.2415 42.0479,54.7415 40.5,57.5C 38.5976,58.5109 36.5976,58.6776 34.5,58C 36.4096,57.5917 37.4096,56.4251 37.5,54.5C 37.4257,52.2606 36.259,51.2606 34,51.5C 29.4013,53.2703 24.5679,53.937 19.5,53.5C 19.3354,50.4816 19.502,47.4816 20,44.5C 23.0447,42.2807 24.2114,39.2807 23.5,35.5 Z"/></g>
<g><path style="opacity:1" fill="#d7d6d6" d="M 16.5,53.5 C 20.2321,56.2025 19.5654,57.8692 14.5,58.5C 14.3915,56.4862 15.0582,54.8195 16.5,53.5 Z"/></g>
<g><path style="opacity:0.004" fill="#feff00" d="M 14.5,65.5 C 15.1667,64.1667 15.8333,64.1667 16.5,65.5C 15.8333,65.5 15.1667,65.5 14.5,65.5 Z"/></g>
<g><path style="opacity:0.004" fill="#feff00" d="M 30.5,65.5 C 31.5,64.1667 32.5,64.1667 33.5,65.5C 32.5,65.5 31.5,65.5 30.5,65.5 Z"/></g>
</svg>
