<?xml version="1.0" encoding="UTF-8"?>
<!DOCTYPE svg PUBLIC "-//W3C//DTD SVG 1.1//EN" "http://www.w3.org/Graphics/SVG/1.1/DTD/svg11.dtd">
<svg xmlns="http://www.w3.org/2000/svg" version="1.1" width="500px" height="500px" style="shape-rendering:geometricPrecision; text-rendering:geometricPrecision; image-rendering:optimizeQuality; fill-rule:evenodd; clip-rule:evenodd" xmlns:xlink="http://www.w3.org/1999/xlink">
<g><path style="opacity:0.03" fill="#4e3b27" d="M 172.5,77.5 C 171.167,77.8333 171.167,78.1667 172.5,78.5C 170.525,81.1351 167.858,82.9685 164.5,84C 155.228,85.5529 145.895,85.8862 136.5,85C 127.465,83.1578 118.465,81.1578 109.5,79C 106.167,78.3333 102.833,78.3333 99.5,79C 112.637,93.4781 126.971,106.478 142.5,118C 144,118.5 145.5,119 147,119.5C 167.449,116.456 187.782,117.123 208,121.5C 215.143,120.461 222.309,119.628 229.5,119C 235.337,115.582 241.004,111.916 246.5,108C 256.167,104.667 265.833,104.667 275.5,108C 277,108.833 278.167,110 279,111.5C 287.555,113.591 294.055,118.757 298.5,127C 305.156,128.218 311.656,130.051 318,132.5C 319.627,132.375 321.127,131.875 322.5,131C 341.595,115.242 360.095,98.7419 378,81.5C 378.914,82.6537 379.747,82.487 380.5,81C 378.747,78.8001 376.414,77.6334 373.5,77.5C 355.584,84.2677 337.084,86.601 318,84.5C 308.943,82.8068 304.443,77.6401 304.5,69C 302.455,62.2251 302.622,55.3918 305,48.5C 306,47.1667 307,45.8333 308,44.5C 309.073,45.2797 310.24,45.113 311.5,44C 310.167,43.3333 310.167,42.6667 311.5,42C 317.689,40.1008 324.023,38.9342 330.5,38.5C 339.199,39.2352 347.699,40.9019 356,43.5C 373.159,40.0229 390.325,39.8562 407.5,43C 413.944,45.9435 419.944,48.9435 425.5,52C 425.6,54.3551 426.767,56.5217 429,58.5C 429.273,60.1012 429.773,61.6012 430.5,63C 429.542,64.1475 429.875,65.1475 431.5,66C 431.167,66.3333 430.833,66.6667 430.5,67C 431.561,68.8491 432.227,70.8491 432.5,73C 431.95,75.4523 431.95,77.7856 432.5,80C 430.696,88.8135 428.363,97.8135 425.5,107C 426.512,111.209 426.512,115.375 425.5,119.5C 426.397,123.277 427.064,127.111 427.5,131C 427.024,155.322 426.524,180.156 426,205.5C 424.77,223.173 422.77,240.507 420,257.5C 417.713,266.322 419.88,273.655 426.5,279.5C 437.238,302.424 443.405,326.757 445,352.5C 450.285,354.265 455.451,356.432 460.5,359C 461.833,360 461.833,361 460.5,362C 462.394,363.079 462.727,364.413 461.5,366C 462.167,366.333 462.833,366.667 463.5,367C 462.833,368.333 462.167,369.667 461.5,371C 462.167,371.333 462.833,371.667 463.5,372C 462.833,374.333 462.167,376.667 461.5,379C 461.798,382.596 461.798,386.262 461.5,390C 465.362,402.429 464.695,414.596 459.5,426.5C 455.357,430.022 452.19,434.356 450,439.5C 448.421,438.828 447.254,439.495 446.5,441.5C 442.25,444.243 438.416,447.577 435,451.5C 425.278,455.551 414.778,458.051 403.5,459C 387.328,459.602 371.161,459.435 355,458.5C 337.999,459.142 320.999,459.809 304,460.5C 281.704,461.54 261.704,456.873 244,446.5C 243.667,446.833 243.333,447.167 243,447.5C 233.756,441.812 224.589,436.646 215.5,432C 204.632,425.065 194.298,417.398 184.5,409C 165.499,403.666 146.833,397.333 128.5,390C 122.668,389.301 117.001,387.967 111.5,386C 109.951,384.786 108.785,383.286 108,381.5C 107.094,377.721 106.594,373.888 106.5,370C 107.767,360.127 108.933,350.293 110,340.5C 100.395,333.398 91.2281,325.731 82.5,317.5C 80.1833,319.242 78.6833,321.576 78,324.5C 75.1769,331.944 74.1769,339.61 75,347.5C 83.7789,354.728 87.9456,364.061 87.5,375.5C 88.3784,392.789 80.2118,400.789 63,399.5C 49.3779,401.315 40.7113,395.315 37,381.5C 32.0498,347.818 36.7165,315.485 51,284.5C 51.9803,283.019 53.147,281.685 54.5,280.5C 54.2907,279.914 53.9574,279.414 53.5,279C 55.6596,276.669 57.6596,274.169 59.5,271.5C 59.2907,270.914 58.9574,270.414 58.5,270C 59.4303,268.806 60.0969,267.473 60.5,266C 57.8084,246.962 55.6417,227.462 54,207.5C 53.5079,186.666 53.0079,165.833 52.5,145C 52.4602,132.125 53.1269,119.292 54.5,106.5C 51.3548,97.3923 49.0214,88.059 47.5,78.5C 47.1027,71.843 47.9361,65.1763 50,58.5C 52.0779,54.0852 55.2445,50.5852 59.5,48C 70.5431,42.7576 82.2097,40.2576 94.5,40.5C 104.374,41.1097 114.207,42.1097 124,43.5C 132.267,40.8101 140.767,39.1434 149.5,38.5C 172.139,38.312 180.972,49.312 176,71.5C 175.015,73.6412 173.848,75.6412 172.5,77.5 Z M 396.5,317.5 C 397.675,317.281 398.675,317.614 399.5,318.5C 402.305,325.818 404.638,333.651 406.5,342C 405.863,344.245 405.03,346.412 404,348.5C 397.022,353.39 393.855,359.89 394.5,368C 393.643,368.689 392.977,369.522 392.5,370.5C 392.421,372.929 392.755,375.429 393.5,378C 386.549,379.941 379.549,380.441 372.5,379.5C 373.764,368.001 372.764,356.668 369.5,345.5C 370.002,342.252 371.336,339.419 373.5,337C 381.945,331.386 389.612,324.886 396.5,317.5 Z M 281.5,227.5 C 282.117,227.611 282.617,227.944 283,228.5C 283.667,235.5 283.667,242.5 283,249.5C 282.692,250.308 282.192,250.975 281.5,251.5C 280.378,245.022 279.378,238.522 278.5,232C 278.557,229.791 279.557,228.291 281.5,227.5 Z M 207.5,249.5 C 208.5,249.5 209.5,249.5 210.5,249.5C 210.193,252.962 209.193,252.962 207.5,249.5 Z"/></g>
<g><path style="opacity:0.021" fill="#523e29" d="M 435.5,95.5 C 436.765,96.5145 437.431,98.0145 437.5,100C 437.167,101.5 436.833,103 436.5,104.5C 435.516,101.572 435.183,98.5719 435.5,95.5 Z"/></g>
<g><path style="opacity:0.121" fill="#473524" d="M 144.5,44.5 C 152.989,43.8909 160.489,46.2242 167,51.5C 169.968,56.9591 170.635,62.6257 169,68.5C 167.186,71.642 165.019,74.4754 162.5,77C 147.467,82.1645 132.801,81.1645 118.5,74C 119.696,73.3457 119.696,72.8457 118.5,72.5C 115.138,73.9672 111.971,73.6338 109,71.5C 108.667,71.8333 108.333,72.1667 108,72.5C 106.333,69.8333 104.667,69.8333 103,72.5C 97.6099,70.4206 93.4432,71.7539 90.5,76.5C 90.2137,79.9045 91.5471,82.9045 94.5,85.5C 101.981,91.1477 108.648,97.6477 114.5,105C 115.5,105.333 116.5,105.667 117.5,106C 124.435,112.8 131.769,119.133 139.5,125C 145.955,126.904 152.288,126.404 158.5,123.5C 166.498,123.785 174.331,123.785 182,123.5C 191.987,124.538 201.487,127.204 210.5,131.5C 214.338,129.524 218.338,128.024 222.5,127C 224.568,126.313 226.568,126.48 228.5,127.5C 236.948,122.889 245.282,118.056 253.5,113C 256.372,112.685 259.205,112.185 262,111.5C 266.388,113.376 270.888,114.876 275.5,116C 279.618,118.61 283.618,121.443 287.5,124.5C 289.31,127.144 291.31,129.644 293.5,132C 297.855,133.206 302.189,134.539 306.5,136C 312.143,141.664 318.477,142.664 325.5,139C 334.467,130.702 343.467,122.369 352.5,114C 359.86,107.802 367.527,101.968 375.5,96.5C 380.925,90.2152 386.258,83.7152 391.5,77C 389.176,73.8355 386.176,71.6688 382.5,70.5C 377.736,70.5432 372.903,71.2098 368,72.5C 366.674,72.2451 365.674,71.5784 365,70.5C 363.806,72.5254 362.306,72.8587 360.5,71.5C 356.359,73.0716 352.692,75.4049 349.5,78.5C 348.554,78.0133 347.554,77.6799 346.5,77.5C 338.773,80.9266 330.773,81.4266 322.5,79C 318.761,75.5867 314.761,72.5867 310.5,70C 310.173,64.8448 310.673,59.3448 312,53.5C 317.289,46.3443 324.456,43.3443 333.5,44.5C 339.555,45.4475 345.389,47.1141 351,49.5C 358.939,49.1915 366.939,48.5248 375,47.5C 378.212,49.0656 381.546,48.7323 385,46.5C 388.362,46.5834 391.862,46.7501 395.5,47C 403.173,48.1683 410.173,51.0017 416.5,55.5C 420.543,60.6785 423.876,66.1785 426.5,72C 424.839,73.7041 424.505,75.8708 425.5,78.5C 423.457,84.5669 421.957,90.5669 421,96.5C 420.833,100.833 420.667,105.167 420.5,109.5C 420.968,115.579 420.968,121.579 420.5,127.5C 421.167,129.167 421.833,130.833 422.5,132.5C 421.975,133.192 421.308,133.692 420.5,134C 421.378,136.077 421.378,138.41 420.5,141C 423.167,143 423.167,145 420.5,147C 421.196,159.14 421.196,171.307 420.5,183.5C 423.069,188.645 423.069,193.812 420.5,199C 420.455,203.159 420.455,207.325 420.5,211.5C 419.426,221.077 418.092,230.577 416.5,240C 417.973,242.233 417.64,244.233 415.5,246C 414.765,249.134 414.765,252.467 415.5,256C 414.067,260.254 413.067,264.587 412.5,269C 414.569,269.324 414.902,270.158 413.5,271.5C 418.732,281.633 423.732,291.966 428.5,302.5C 429.39,303.955 429.39,305.289 428.5,306.5C 430.197,307.364 431.363,308.697 432,310.5C 434.075,320.192 436.241,329.859 438.5,339.5C 438.244,340.689 437.911,341.856 437.5,343C 439.83,345.905 440.164,349.072 438.5,352.5C 438.692,354.577 439.192,356.577 440,358.5C 441.617,359.641 443.45,360.474 445.5,361C 444.465,362.507 444.632,364.007 446,365.5C 447.388,364.446 448.888,364.28 450.5,365C 450.043,365.414 449.709,365.914 449.5,366.5C 451.607,367.917 453.607,369.417 455.5,371C 454.872,373.609 453.872,376.275 452.5,379C 453.717,381.011 453.384,383.011 451.5,385C 453.125,385.853 453.458,386.853 452.5,388C 454.125,388.853 454.458,389.853 453.5,391C 455.442,392.972 455.776,395.139 454.5,397.5C 454.864,399.733 455.864,401.566 457.5,403C 456.572,403.388 455.905,404.055 455.5,405C 456.029,406.559 456.696,408.059 457.5,409.5C 455.596,413.256 454.429,417.256 454,421.5C 447.978,427.905 442.145,434.405 436.5,441C 435.207,441.49 433.873,441.657 432.5,441.5C 432.67,442.822 432.337,443.989 431.5,445C 427.502,446.082 423.669,447.582 420,449.5C 416.263,449.975 412.763,451.142 409.5,453C 405.661,453.459 401.828,453.959 398,454.5C 371.846,454.411 345.846,454.078 320,453.5C 312.883,455.392 305.883,456.059 299,455.5C 282.356,455.294 266.689,450.96 252,442.5C 251.667,442.833 251.333,443.167 251,443.5C 239.838,436.506 228.338,430.172 216.5,424.5C 211.465,420.314 207.299,415.981 204,411.5C 203.275,413.158 202.108,413.658 200.5,413C 199.745,410.867 198.412,409.2 196.5,408C 172.527,398.565 148.36,389.732 124,381.5C 123.586,381.957 123.086,382.291 122.5,382.5C 119.988,379.489 117.322,376.656 114.5,374C 113.464,364.481 115.13,355.315 119.5,346.5C 118.233,344.629 118.233,342.796 119.5,341C 112.133,332.637 103.8,325.304 94.5,319C 90.9446,313.943 86.6113,309.776 81.5,306.5C 79.3033,306.848 77.47,307.848 76,309.5C 74.27,316.131 72.1033,322.631 69.5,329C 70.0585,329.725 70.3918,330.558 70.5,331.5C 66.0554,343.025 68.5554,353.025 78,361.5C 81.8499,370.126 81.6832,378.793 77.5,387.5C 76.5,387.5 75.5,387.5 74.5,387.5C 73.2245,391.96 70.3911,393.627 66,392.5C 64.4411,393.029 62.9411,393.696 61.5,394.5C 50.5564,391.063 43.7231,384.063 41,373.5C 39.7118,365.341 39.8785,357.174 41.5,349C 41.1382,336.999 43.1382,325.332 47.5,314C 46.4829,312.951 46.3162,311.784 47,310.5C 47.3333,310.833 47.6667,311.167 48,311.5C 50.0477,307.394 51.5477,303.061 52.5,298.5C 54.7619,297.655 55.4286,296.322 54.5,294.5C 55.624,293.086 56.624,291.586 57.5,290C 58.0964,286.186 60.0964,282.852 63.5,280C 63.8698,276.713 64.8698,273.713 66.5,271C 65.8431,267.352 65.8431,263.852 66.5,260.5C 65.9747,259.808 65.3081,259.308 64.5,259C 65.5159,257.323 66.5159,255.657 67.5,254C 66.5275,253.651 65.6942,252.818 65,251.5C 64.2886,248.266 63.4553,245.099 62.5,242C 62.0998,236.466 62.0998,231.133 62.5,226C 60.21,222.95 59.8767,219.616 61.5,216C 60.1141,209.903 59.1141,203.903 58.5,198C 57.8916,181.201 57.8916,164.368 58.5,147.5C 56.3243,138.366 56.6576,128.866 59.5,119C 57.9937,114.24 58.327,109.407 60.5,104.5C 58.6197,100.873 57.953,97.2067 58.5,93.5C 57,89.8333 55.5,86.1667 54,82.5C 53.3131,80.4325 53.4798,78.4325 54.5,76.5C 54.0233,75.5224 53.3567,74.6891 52.5,74C 54.0368,70.4493 54.8702,66.9493 55,63.5C 58.4552,61.0364 61.2885,58.0364 63.5,54.5C 77.7226,46.1589 92.8893,44.1589 109,48.5C 116.296,48.5948 123.796,48.4281 131.5,48C 136.298,47.8834 140.631,46.7167 144.5,44.5 Z M 396.5,317.5 C 389.612,324.886 381.945,331.386 373.5,337C 371.336,339.419 370.002,342.252 369.5,345.5C 372.764,356.668 373.764,368.001 372.5,379.5C 379.549,380.441 386.549,379.941 393.5,378C 392.755,375.429 392.421,372.929 392.5,370.5C 392.977,369.522 393.643,368.689 394.5,368C 393.855,359.89 397.022,353.39 404,348.5C 405.03,346.412 405.863,344.245 406.5,342C 404.638,333.651 402.305,325.818 399.5,318.5C 398.675,317.614 397.675,317.281 396.5,317.5 Z M 281.5,227.5 C 279.557,228.291 278.557,229.791 278.5,232C 279.378,238.522 280.378,245.022 281.5,251.5C 282.192,250.975 282.692,250.308 283,249.5C 283.667,242.5 283.667,235.5 283,228.5C 282.617,227.944 282.117,227.611 281.5,227.5 Z M 207.5,249.5 C 209.193,252.962 210.193,252.962 210.5,249.5C 209.5,249.5 208.5,249.5 207.5,249.5 Z"/></g>
<g><path style="opacity:0.939" fill="#d8d1b0" d="M 255.5,361.5 C 256.167,361.5 256.833,361.5 257.5,361.5C 257.047,362.458 256.381,363.292 255.5,364C 260.784,365.378 260.784,366.711 255.5,368C 259.044,369.253 259.377,371.087 256.5,373.5C 258.637,374.08 260.47,375.08 262,376.5C 262.483,375.552 262.649,374.552 262.5,373.5C 263.833,373.5 265.167,373.5 266.5,373.5C 266.34,375.199 266.506,376.866 267,378.5C 267.232,377.263 267.732,376.263 268.5,375.5C 268.433,376.959 268.766,378.292 269.5,379.5C 267.549,380.716 266.049,382.382 265,384.5C 264.517,383.552 264.351,382.552 264.5,381.5C 263.07,381.421 261.736,381.754 260.5,382.5C 259.808,381.975 259.308,381.308 259,380.5C 258.697,382.888 257.863,385.055 256.5,387C 257.449,387.617 258.282,387.451 259,386.5C 260.368,388.494 260.868,390.494 260.5,392.5C 259.236,392.64 258.069,392.64 257,392.5C 256.46,394.135 256.96,395.468 258.5,396.5C 256.615,397.197 256.282,398.197 257.5,399.5C 256.833,400.5 256.167,401.5 255.5,402.5C 255.846,403.696 256.346,403.696 257,402.5C 256.328,404.86 257.161,406.86 259.5,408.5C 258.846,410.89 259.679,412.89 262,414.5C 263.533,413.305 265.033,413.305 266.5,414.5C 267.167,413.167 267.833,411.833 268.5,410.5C 269.417,411.127 270.417,411.461 271.5,411.5C 270.833,412.5 270.167,413.5 269.5,414.5C 266.34,417.774 265.007,421.774 265.5,426.5C 265.53,427.497 265.03,428.164 264,428.5C 261.589,427.376 259.422,425.876 257.5,424C 259.007,423.163 259.507,421.996 259,420.5C 257.304,422.566 255.471,424.066 253.5,425C 253.957,424.586 254.291,424.086 254.5,423.5C 253.263,422.719 252.263,421.719 251.5,420.5C 252.833,420.167 254.167,419.833 255.5,419.5C 254.266,417.602 254.599,415.935 256.5,414.5C 255.163,414.26 253.497,413.76 251.5,413C 252.167,412.333 252.833,411.667 253.5,411C 250.891,409.977 248.557,408.477 246.5,406.5C 247.167,406.167 247.833,405.833 248.5,405.5C 248.291,404.914 247.957,404.414 247.5,404C 248.951,404.263 250.284,404.096 251.5,403.5C 250.659,400.772 249.659,398.772 248.5,397.5C 247.5,397.5 246.5,397.5 245.5,397.5C 245.684,394.679 244.351,393.012 241.5,392.5C 239.512,393.289 239.179,394.455 240.5,396C 239.284,397.594 237.951,399.094 236.5,400.5C 237.025,401.192 237.692,401.692 238.5,402C 235.833,402.667 233.167,402.667 230.5,402C 229.397,400.32 229.73,398.82 231.5,397.5C 230.311,396.571 228.978,396.238 227.5,396.5C 226.828,393.65 225.161,391.483 222.5,390C 223.833,389 223.833,388 222.5,387C 220.953,386.667 219.62,387.167 218.5,388.5C 217.575,387.359 216.741,387.359 216,388.5C 215.667,387.833 215.333,387.167 215,386.5C 213.023,386.658 210.857,386.825 208.5,387C 209.146,381.796 211.479,380.629 215.5,383.5C 216.417,382.873 217.417,382.539 218.5,382.5C 220.473,383.487 222.473,384.487 224.5,385.5C 225.24,382.134 225.907,378.8 226.5,375.5C 228.017,375.489 229.184,374.823 230,373.5C 230.49,374.793 230.657,376.127 230.5,377.5C 230.853,378.79 233.853,377.957 239.5,375C 240.861,373.416 241.528,371.582 241.5,369.5C 245.5,369.167 249.5,368.833 253.5,368.5C 253.64,366.876 252.973,365.71 251.5,365C 253.55,364.584 254.884,363.417 255.5,361.5 Z"/></g>
<g><path style="opacity:0.261" fill="#392c1e" d="M 264.5,301.5 C 265.167,301.5 265.833,301.5 266.5,301.5C 266.709,302.922 267.209,304.255 268,305.5C 280.714,316.373 290.548,329.373 297.5,344.5C 319.006,342.426 339.339,336.259 358.5,326C 364.326,322.002 369.992,317.835 375.5,313.5C 380.422,313.11 380.756,314.277 376.5,317C 376.833,317.333 377.167,317.667 377.5,318C 371.565,322.952 365.398,327.452 359,331.5C 355.149,336.201 352.649,341.534 351.5,347.5C 350.167,348.167 348.833,348.833 347.5,349.5C 346.628,346.421 346.628,343.421 347.5,340.5C 349.428,338.526 351.761,337.026 354.5,336C 345.718,335.874 337.384,337.707 329.5,341.5C 328.504,347.463 328.171,353.463 328.5,359.5C 327.833,353.654 327.167,347.654 326.5,341.5C 324.421,342.912 322.421,344.412 320.5,346C 320.957,346.414 321.291,346.914 321.5,347.5C 320.92,350.311 320.254,352.977 319.5,355.5C 319.98,352.315 319.314,349.481 317.5,347C 311.053,346.855 304.719,347.689 298.5,349.5C 300.85,364.727 297.85,378.727 289.5,391.5C 290.5,391.833 291.5,392.167 292.5,392.5C 294.932,392.114 297.266,391.447 299.5,390.5C 314.156,385.173 328.823,379.84 343.5,374.5C 343.517,376.028 344.184,376.528 345.5,376C 346.582,374.67 347.249,373.17 347.5,371.5C 348.93,371.579 350.264,371.246 351.5,370.5C 352.901,371.521 354.235,372.521 355.5,373.5C 355.374,376.595 353.707,378.428 350.5,379C 344.23,380.372 337.896,381.372 331.5,382C 329.998,382.583 328.665,383.416 327.5,384.5C 319.318,386.452 311.318,388.786 303.5,391.5C 303.719,392.675 303.386,393.675 302.5,394.5C 293.736,396.555 286.903,401.222 282,408.5C 278.034,418.705 281.534,423.372 292.5,422.5C 298.016,422.496 303.182,421.163 308,418.5C 308.772,418.645 309.439,418.978 310,419.5C 311.871,416.147 314.704,414.147 318.5,413.5C 320.316,412.185 321.983,410.685 323.5,409C 331.622,405.772 339.622,402.272 347.5,398.5C 348.262,397.372 348.929,396.205 349.5,395C 357.108,393.015 364.775,391.182 372.5,389.5C 375.721,390.283 378.721,390.283 381.5,389.5C 383.437,390.26 385.27,391.26 387,392.5C 387.483,391.552 387.649,390.552 387.5,389.5C 390.93,389.107 394.096,389.773 397,391.5C 398.587,389.368 400.087,387.202 401.5,385C 403.744,383.821 406.077,382.654 408.5,381.5C 421.188,387.208 427.854,382.875 428.5,368.5C 429.473,366.052 429.806,363.385 429.5,360.5C 431.1,359.748 432.6,358.748 434,357.5C 434.112,360.447 435.612,361.78 438.5,361.5C 438.854,364.421 437.854,366.754 435.5,368.5C 435.863,369.183 436.196,369.85 436.5,370.5C 434.164,372.004 432.331,374.004 431,376.5C 430.595,380.213 430.595,383.879 431,387.5C 427.576,388.901 424.409,390.568 421.5,392.5C 404.896,394.264 388.229,395.431 371.5,396C 363.883,398.038 356.549,400.538 349.5,403.5C 347.597,403.796 345.93,404.463 344.5,405.5C 334.055,410.775 323.722,416.275 313.5,422C 308.311,424.396 302.977,426.396 297.5,428C 291.833,428.667 286.167,428.667 280.5,428C 273.62,425.967 269.954,421.467 269.5,414.5C 270.167,413.5 270.833,412.5 271.5,411.5C 275.165,408.667 278.332,405.334 281,401.5C 288.439,391.621 293.439,380.621 296,368.5C 297.565,355.092 294.565,342.759 287,331.5C 280.8,323.788 274.134,316.455 267,309.5C 265.293,307.091 264.46,304.425 264.5,301.5 Z"/></g>
<g><path style="opacity:0.738" fill="#9d664e" d="M 421.5,392.5 C 422.734,394.398 422.401,396.065 420.5,397.5C 417.365,399.023 414.032,399.69 410.5,399.5C 406.147,399.765 401.813,400.265 397.5,401C 396.584,401.278 395.918,401.778 395.5,402.5C 385.775,404.205 378.108,409.205 372.5,417.5C 371.159,415.068 368.992,413.734 366,413.5C 363.883,414.158 362.05,414.991 360.5,416C 361.584,413.81 360.917,412.144 358.5,411C 359.743,409.846 360.743,408.512 361.5,407C 359.744,406.798 358.078,406.298 356.5,405.5C 357.645,404.109 357.645,402.776 356.5,401.5C 354.382,402.946 352.049,403.613 349.5,403.5C 356.549,400.538 363.883,398.038 371.5,396C 388.229,395.431 404.896,394.264 421.5,392.5 Z"/></g>
<g><path style="opacity:0.919" fill="#cec6a6" d="M 213.5,375.5 C 213.281,379.268 214.947,381.602 218.5,382.5C 217.417,382.539 216.417,382.873 215.5,383.5C 211.479,380.629 209.146,381.796 208.5,387C 210.857,386.825 213.023,386.658 215,386.5C 215.333,387.167 215.667,387.833 216,388.5C 216.741,387.359 217.575,387.359 218.5,388.5C 219.62,387.167 220.953,386.667 222.5,387C 223.833,388 223.833,389 222.5,390C 225.161,391.483 226.828,393.65 227.5,396.5C 228.978,396.238 230.311,396.571 231.5,397.5C 229.73,398.82 229.397,400.32 230.5,402C 233.167,402.667 235.833,402.667 238.5,402C 237.692,401.692 237.025,401.192 236.5,400.5C 237.951,399.094 239.284,397.594 240.5,396C 239.179,394.455 239.512,393.289 241.5,392.5C 244.351,393.012 245.684,394.679 245.5,397.5C 246.5,397.5 247.5,397.5 248.5,397.5C 249.659,398.772 250.659,400.772 251.5,403.5C 250.284,404.096 248.951,404.263 247.5,404C 247.957,404.414 248.291,404.914 248.5,405.5C 247.833,405.833 247.167,406.167 246.5,406.5C 248.557,408.477 250.891,409.977 253.5,411C 252.833,411.667 252.167,412.333 251.5,413C 253.497,413.76 255.163,414.26 256.5,414.5C 254.599,415.935 254.266,417.602 255.5,419.5C 254.167,419.833 252.833,420.167 251.5,420.5C 252.263,421.719 253.263,422.719 254.5,423.5C 254.291,424.086 253.957,424.586 253.5,425C 255.471,424.066 257.304,422.566 259,420.5C 259.507,421.996 259.007,423.163 257.5,424C 259.422,425.876 261.589,427.376 264,428.5C 265.03,428.164 265.53,427.497 265.5,426.5C 269.172,434.198 275.172,439.364 283.5,442C 282.207,442.49 280.873,442.657 279.5,442.5C 272.994,441.363 266.661,439.53 260.5,437C 251.398,431.564 242.065,426.564 232.5,422C 219.125,413.785 206.792,404.285 195.5,393.5C 197.258,393.877 198.925,394.544 200.5,395.5C 200.887,393.269 201.053,390.936 201,388.5C 202.734,387.751 204.567,387.251 206.5,387C 205.692,386.692 205.025,386.192 204.5,385.5C 205.833,384.833 207.167,384.167 208.5,383.5C 206.342,381.974 206.675,380.474 209.5,379C 206.956,377.901 206.956,376.735 209.5,375.5C 210.799,376.09 211.632,377.09 212,378.5C 212.232,377.263 212.732,376.263 213.5,375.5 Z"/></g>
<g><path style="opacity:0.667" fill="#8d5d46" d="M 442.5,385.5 C 436.025,391.071 428.692,395.071 420.5,397.5C 422.401,396.065 422.734,394.398 421.5,392.5C 424.409,390.568 427.576,388.901 431,387.5C 430.595,383.879 430.595,380.213 431,376.5C 432.331,374.004 434.164,372.004 436.5,370.5C 440.365,367.938 444.199,367.938 448,370.5C 448.667,372.833 448.667,375.167 448,377.5C 446.336,380.322 444.503,382.989 442.5,385.5 Z"/></g>
<g><path style="opacity:0.208" fill="#403020" d="M 70.5,284.5 C 55.6562,310.878 49.1562,339.212 51,369.5C 51.993,375.169 54.493,380.002 58.5,384C 69.7931,386.285 73.9598,381.785 71,370.5C 66.9852,364.828 62.6518,359.494 58,354.5C 57.0857,345.699 57.5857,337.032 59.5,328.5C 60.404,327.791 60.7373,326.791 60.5,325.5C 62.1667,325.5 63.8333,325.5 65.5,325.5C 64.4876,331.333 63.8209,336.999 63.5,342.5C 66.4375,351.15 70.6041,359.15 76,366.5C 79.2415,374.955 77.4082,381.955 70.5,387.5C 68.556,388.189 66.556,388.689 64.5,389C 65.6956,389.654 65.6956,390.154 64.5,390.5C 50.03,387.002 43.03,377.669 43.5,362.5C 43.6177,359.629 44.2844,356.962 45.5,354.5C 44.6376,351.559 44.6376,348.559 45.5,345.5C 45.7163,343.616 46.383,341.949 47.5,340.5C 45.913,338.554 46.2464,337.054 48.5,336C 47.6919,335.692 47.0253,335.192 46.5,334.5C 48.9883,327.28 51.3216,320.113 53.5,313C 52.8864,311.87 52.8864,310.537 53.5,309C 54.4858,304.972 56.4858,301.639 59.5,299C 59.1667,298.667 58.8333,298.333 58.5,298C 59.6572,295.691 60.4905,293.191 61,290.5C 62.4865,288.044 64.3199,285.878 66.5,284C 67.7659,283.691 68.9326,283.191 70,282.5C 70.4643,283.094 70.631,283.761 70.5,284.5 Z"/></g>
<g><path style="opacity:0.972" fill="#998b7f" d="M 343.5,374.5 C 328.823,379.84 314.156,385.173 299.5,390.5C 302.833,387.167 306.167,383.833 309.5,380.5C 309.435,380.938 309.601,381.272 310,381.5C 317.734,376.433 324.067,370.1 329,362.5C 334.897,365.532 340.731,368.699 346.5,372C 345.429,372.852 344.429,373.685 343.5,374.5 Z"/></g>
<g><path style="opacity:0.918" fill="#a2684f" d="M 388.5,257.5 C 392.874,263.2 397.541,268.533 402.5,273.5C 410.675,285.518 417.008,298.518 421.5,312.5C 425.099,323.564 427.432,334.897 428.5,346.5C 428.997,350.759 428.331,354.759 426.5,358.5C 427.167,359.5 427.833,360.5 428.5,361.5C 427.471,361.296 426.471,361.796 425.5,363C 427.677,364.186 428.677,366.019 428.5,368.5C 427.854,382.875 421.188,387.208 408.5,381.5C 408.334,377.486 408.501,373.486 409,369.5C 412.333,364.833 416.333,360.833 421,357.5C 423.237,344.289 422.237,331.289 418,318.5C 414.435,308.464 410.102,298.798 405,289.5C 403.054,286.58 400.887,283.913 398.5,281.5C 393.913,274.24 388.913,267.24 383.5,260.5C 383.5,259.5 383.5,258.5 383.5,257.5C 385.167,257.5 386.833,257.5 388.5,257.5 Z"/></g>
<g><path style="opacity:0.489" fill="#2f251a" d="M 347.5,340.5 C 346.628,343.421 346.628,346.421 347.5,349.5C 341.497,353.199 338.497,358.532 338.5,365.5C 340.078,366.64 341.744,367.14 343.5,367C 346.319,362.519 348.986,358.019 351.5,353.5C 352.496,353.414 353.329,353.748 354,354.5C 354.662,356.813 355.162,359.146 355.5,361.5C 350.011,360.645 346.677,362.978 345.5,368.5C 346.193,369.518 346.859,370.518 347.5,371.5C 347.249,373.17 346.582,374.67 345.5,376C 344.184,376.528 343.517,376.028 343.5,374.5C 344.429,373.685 345.429,372.852 346.5,372C 340.731,368.699 334.897,365.532 329,362.5C 324.067,370.1 317.734,376.433 310,381.5C 309.601,381.272 309.435,380.938 309.5,380.5C 314.206,372.75 317.539,364.416 319.5,355.5C 320.254,352.977 320.92,350.311 321.5,347.5C 321.291,346.914 320.957,346.414 320.5,346C 322.421,344.412 324.421,342.912 326.5,341.5C 327.167,347.654 327.833,353.654 328.5,359.5C 330.684,361.585 333.351,362.585 336.5,362.5C 337.154,355.717 338.821,349.217 341.5,343C 343.407,341.878 345.407,341.045 347.5,340.5 Z"/></g>
<g><path style="opacity:0.978" fill="#998b80" d="M 170.5,380.5 C 172.795,383.797 175.462,386.797 178.5,389.5C 163.758,384.477 149.092,379.144 134.5,373.5C 133.702,373.043 133.369,372.376 133.5,371.5C 139.374,368.646 145.207,365.646 151,362.5C 155.933,370.1 162.266,376.433 170,381.5C 170.399,381.272 170.565,380.938 170.5,380.5 Z"/></g>
<g><path style="opacity:0.942" fill="#4c443f" d="M 355.5,361.5 C 357.373,365.89 357.873,370.556 357,375.5C 356.722,374.584 356.222,373.918 355.5,373.5C 354.235,372.521 352.901,371.521 351.5,370.5C 350.264,371.246 348.93,371.579 347.5,371.5C 346.859,370.518 346.193,369.518 345.5,368.5C 346.677,362.978 350.011,360.645 355.5,361.5 Z"/></g>
<g><path style="opacity:0.966" fill="#dcd6b5" d="M 319.5,355.5 C 317.539,364.416 314.206,372.75 309.5,380.5C 306.167,383.833 302.833,387.167 299.5,390.5C 297.266,391.447 294.932,392.114 292.5,392.5C 291.5,392.167 290.5,391.833 289.5,391.5C 297.85,378.727 300.85,364.727 298.5,349.5C 304.719,347.689 311.053,346.855 317.5,347C 319.314,349.481 319.98,352.315 319.5,355.5 Z"/></g>
<g><path style="opacity:0.96" fill="#4d443f" d="M 124.5,361.5 C 129.591,361.375 132.924,363.708 134.5,368.5C 133.66,369.735 132.66,370.735 131.5,371.5C 130.417,371.461 129.417,371.127 128.5,370.5C 126.054,371.524 124.388,373.191 123.5,375.5C 123.565,375.938 123.399,376.272 123,376.5C 121.961,375.756 121.461,374.756 121.5,373.5C 121.898,369.239 122.898,365.239 124.5,361.5 Z"/></g>
<g><path style="opacity:0.498" fill="#724d38" d="M 428.5,346.5 C 429.486,350.97 429.819,355.637 429.5,360.5C 429.806,363.385 429.473,366.052 428.5,368.5C 428.677,366.019 427.677,364.186 425.5,363C 426.471,361.796 427.471,361.296 428.5,361.5C 427.833,360.5 427.167,359.5 426.5,358.5C 428.331,354.759 428.997,350.759 428.5,346.5 Z"/></g>
<g><path style="opacity:0.957" fill="#4c443f" d="M 351.5,347.5 C 353.564,347.762 354.897,348.929 355.5,351C 353.563,351.122 352.23,351.955 351.5,353.5C 348.986,358.019 346.319,362.519 343.5,367C 341.744,367.14 340.078,366.64 338.5,365.5C 338.497,358.532 341.497,353.199 347.5,349.5C 348.833,348.833 350.167,348.167 351.5,347.5 Z"/></g>
<g><path style="opacity:0.981" fill="#ddd7b6" d="M 181.5,352.5 C 179.359,367.106 182.692,380.439 191.5,392.5C 190.833,392.833 190.167,393.167 189.5,393.5C 185.55,392.608 181.883,391.275 178.5,389.5C 175.462,386.797 172.795,383.797 170.5,380.5C 167.576,374.907 164.743,369.241 162,363.5C 160.672,358.558 160.339,353.558 161,348.5C 162.299,347.02 163.966,346.354 166,346.5C 171.244,347.316 176.411,348.316 181.5,349.5C 181.5,350.5 181.5,351.5 181.5,352.5 Z"/></g>
<g><path style="opacity:0.972" fill="#4c443f" d="M 131.5,348.5 C 133,350.179 134.833,351.512 137,352.5C 139.284,356.382 140.951,360.382 142,364.5C 140.192,366.843 138.026,367.51 135.5,366.5C 133.392,361.946 131.059,357.612 128.5,353.5C 127.517,352.15 126.184,351.15 124.5,350.5C 126.029,347.243 128.362,346.577 131.5,348.5 Z"/></g>
<g><path style="opacity:0.961" fill="#4d4440" d="M 347.5,340.5 C 345.407,341.045 343.407,341.878 341.5,343C 338.821,349.217 337.154,355.717 336.5,362.5C 333.351,362.585 330.684,361.585 328.5,359.5C 328.171,353.463 328.504,347.463 329.5,341.5C 337.384,337.707 345.718,335.874 354.5,336C 351.761,337.026 349.428,338.526 347.5,340.5 Z"/></g>
<g><path style="opacity:0.975" fill="#4d4440" d="M 127.5,334.5 C 135.348,336.51 143.182,338.844 151,341.5C 151.667,347.5 151.667,353.5 151,359.5C 149.005,361.747 146.505,362.747 143.5,362.5C 142.012,356.182 140.512,349.848 139,343.5C 136.948,342.207 134.781,341.207 132.5,340.5C 130.481,339.067 128.314,337.733 126,336.5C 125.472,335.184 125.972,334.517 127.5,334.5 Z"/></g>
<g><path style="opacity:0.201" fill="#3e2e1f" d="M 81.5,281.5 C 88.3024,297.14 98.6357,309.973 112.5,320C 117.406,322.942 122.072,326.109 126.5,329.5C 125.711,329.783 125.044,330.283 124.5,331C 125.71,332.039 126.71,333.206 127.5,334.5C 125.972,334.517 125.472,335.184 126,336.5C 128.314,337.733 130.481,339.067 132.5,340.5C 132.724,342.964 132.391,345.631 131.5,348.5C 128.362,346.577 126.029,347.243 124.5,350.5C 126.184,351.15 127.517,352.15 128.5,353.5C 127.055,355.701 125.388,357.867 123.5,360C 124.056,360.383 124.389,360.883 124.5,361.5C 122.898,365.239 121.898,369.239 121.5,373.5C 120.206,371.952 119.539,369.952 119.5,367.5C 120.731,361.932 121.565,356.265 122,350.5C 122.795,348.099 123.962,345.932 125.5,344C 123.288,341.079 121.455,337.912 120,334.5C 113.411,329.789 106.911,324.955 100.5,320C 94.1396,312.973 87.4729,306.306 80.5,300C 79.1667,299.333 77.8333,299.333 76.5,300C 75.6057,304.568 72.939,306.235 68.5,305C 68.742,302.697 70.0754,300.697 72.5,299C 72.0338,297.701 72.0338,296.201 72.5,294.5C 74.3961,289.292 77.3961,284.959 81.5,281.5 Z"/></g>
<g><path style="opacity:0.967" fill="#b06f56" d="M 106.5,237.5 C 106.833,237.5 107.167,237.5 107.5,237.5C 109.389,238.604 111.055,239.937 112.5,241.5C 110.774,243.228 109.441,245.228 108.5,247.5C 98.0584,257.732 89.0584,269.065 81.5,281.5C 77.3961,284.959 74.3961,289.292 72.5,294.5C 66.2235,304.982 61.8901,316.316 59.5,328.5C 57.5857,337.032 57.0857,345.699 58,354.5C 62.6518,359.494 66.9852,364.828 71,370.5C 73.9598,381.785 69.7931,386.285 58.5,384C 54.493,380.002 51.993,375.169 51,369.5C 49.1562,339.212 55.6562,310.878 70.5,284.5C 71.4013,283.71 72.0679,282.71 72.5,281.5C 74.664,279.178 76.3307,276.511 77.5,273.5C 82.507,268.815 86.8404,263.482 90.5,257.5C 96.1829,251.146 101.516,244.48 106.5,237.5 Z"/></g>
<g><path style="opacity:0.961" fill="#ded7b6" d="M 233.5,154.5 C 238.841,158.177 243.508,162.51 247.5,167.5C 246.292,168.234 244.959,168.567 243.5,168.5C 243.334,175.508 243.5,182.508 244,189.5C 253.537,194.852 263.37,199.519 273.5,203.5C 273.833,203.5 274.167,203.5 274.5,203.5C 276.832,205.333 279.498,206.666 282.5,207.5C 280.147,209.523 277.814,211.523 275.5,213.5C 261.735,213.964 248.068,213.464 234.5,212C 231.154,209.988 228.488,207.321 226.5,204C 228.536,199.296 231.369,195.129 235,191.5C 238.528,194.033 241.694,196.866 244.5,200C 242.579,205.142 239.913,205.642 236.5,201.5C 235.692,201.808 235.025,202.308 234.5,203C 236.759,205.463 239.426,206.797 242.5,207C 244.62,204.591 246.62,202.091 248.5,199.5C 244.449,195.282 239.949,191.615 235,188.5C 233.395,189.101 232.062,190.101 231,191.5C 228.72,195.447 226.053,199.113 223,202.5C 222.316,203.784 222.483,204.951 223.5,206C 237,216.833 250.5,227.667 264,238.5C 264.497,240.81 264.663,243.143 264.5,245.5C 264.5,264.167 264.5,282.833 264.5,301.5C 264.46,304.425 265.293,307.091 267,309.5C 274.134,316.455 280.8,323.788 287,331.5C 294.565,342.759 297.565,355.092 296,368.5C 293.439,380.621 288.439,391.621 281,401.5C 278.332,405.334 275.165,408.667 271.5,411.5C 270.417,411.461 269.417,411.127 268.5,410.5C 267.833,411.833 267.167,413.167 266.5,414.5C 265.033,413.305 263.533,413.305 262,414.5C 259.679,412.89 258.846,410.89 259.5,408.5C 257.161,406.86 256.328,404.86 257,402.5C 256.346,403.696 255.846,403.696 255.5,402.5C 256.167,401.5 256.833,400.5 257.5,399.5C 256.282,398.197 256.615,397.197 258.5,396.5C 256.96,395.468 256.46,394.135 257,392.5C 258.069,392.64 259.236,392.64 260.5,392.5C 260.868,390.494 260.368,388.494 259,386.5C 258.282,387.451 257.449,387.617 256.5,387C 257.863,385.055 258.697,382.888 259,380.5C 259.308,381.308 259.808,381.975 260.5,382.5C 261.736,381.754 263.07,381.421 264.5,381.5C 264.351,382.552 264.517,383.552 265,384.5C 266.049,382.382 267.549,380.716 269.5,379.5C 271.861,379.674 274.194,380.007 276.5,380.5C 276.804,376.785 276.137,373.285 274.5,370C 269.507,368.491 267.507,370.325 268.5,375.5C 267.732,376.263 267.232,377.263 267,378.5C 266.506,376.866 266.34,375.199 266.5,373.5C 265.167,373.5 263.833,373.5 262.5,373.5C 262.649,374.552 262.483,375.552 262,376.5C 260.47,375.08 258.637,374.08 256.5,373.5C 259.377,371.087 259.044,369.253 255.5,368C 260.784,366.711 260.784,365.378 255.5,364C 256.381,363.292 257.047,362.458 257.5,361.5C 259.385,357.384 259.719,353.051 258.5,348.5C 256.571,347.62 254.737,346.62 253,345.5C 252.228,345.645 251.561,345.978 251,346.5C 249.497,350.172 247.997,353.838 246.5,357.5C 248.764,360.171 251.764,361.504 255.5,361.5C 254.884,363.417 253.55,364.584 251.5,365C 252.973,365.71 253.64,366.876 253.5,368.5C 249.5,368.833 245.5,369.167 241.5,369.5C 241.528,371.582 240.861,373.416 239.5,375C 233.853,377.957 230.853,378.79 230.5,377.5C 230.657,376.127 230.49,374.793 230,373.5C 229.184,374.823 228.017,375.489 226.5,375.5C 226.579,372.729 226.079,370.063 225,367.5C 222.26,368.282 219.426,368.782 216.5,369C 215.594,371.221 214.594,373.388 213.5,375.5C 212.732,376.263 212.232,377.263 212,378.5C 211.632,377.09 210.799,376.09 209.5,375.5C 206.956,376.735 206.956,377.901 209.5,379C 206.675,380.474 206.342,381.974 208.5,383.5C 207.167,384.167 205.833,384.833 204.5,385.5C 205.025,386.192 205.692,386.692 206.5,387C 204.567,387.251 202.734,387.751 201,388.5C 201.053,390.936 200.887,393.269 200.5,395.5C 198.925,394.544 197.258,393.877 195.5,393.5C 186.274,382.63 182.274,369.964 183.5,355.5C 184.839,346.841 188.006,338.841 193,331.5C 201.336,320.664 210.836,310.998 221.5,302.5C 230.342,300.152 236.508,294.819 240,286.5C 240.667,268.5 240.667,250.5 240,232.5C 238.878,230.376 237.378,228.543 235.5,227C 228.667,221.5 221.833,216 215,210.5C 214.188,196.802 214.522,183.136 216,169.5C 221.092,163.57 226.925,158.57 233.5,154.5 Z"/></g>
<g><path style="opacity:0.951" fill="#c3a078" d="M 247.5,380.5 C 254.422,380.583 256.922,383.917 255,390.5C 250.934,391.464 246.767,391.797 242.5,391.5C 242.643,389.738 242.309,388.071 241.5,386.5C 243.215,384.118 245.215,382.118 247.5,380.5 Z"/></g>
<g><path style="opacity:0.947" fill="#c29e75" d="M 226.5,375.5 C 225.907,378.8 225.24,382.134 224.5,385.5C 222.473,384.487 220.473,383.487 218.5,382.5C 214.947,381.602 213.281,379.268 213.5,375.5C 214.594,373.388 215.594,371.221 216.5,369C 219.426,368.782 222.26,368.282 225,367.5C 226.079,370.063 226.579,372.729 226.5,375.5 Z"/></g>
<g><path style="opacity:0.989" fill="#caa57b" d="M 269.5,379.5 C 268.766,378.292 268.433,376.959 268.5,375.5C 267.507,370.325 269.507,368.491 274.5,370C 276.137,373.285 276.804,376.785 276.5,380.5C 274.194,380.007 271.861,379.674 269.5,379.5 Z"/></g>
<g><path style="opacity:0.951" fill="#c6a178" d="M 257.5,361.5 C 256.833,361.5 256.167,361.5 255.5,361.5C 251.764,361.504 248.764,360.171 246.5,357.5C 247.997,353.838 249.497,350.172 251,346.5C 251.561,345.978 252.228,345.645 253,345.5C 254.737,346.62 256.571,347.62 258.5,348.5C 259.719,353.051 259.385,357.384 257.5,361.5 Z"/></g>
<g><path style="opacity:0.962" fill="#c7a278" d="M 219.5,337.5 C 221.595,338.412 223.595,339.579 225.5,341C 226.574,341.739 227.241,342.739 227.5,344C 226.089,347.411 223.922,350.244 221,352.5C 218.167,351 216,348.833 214.5,346C 216.006,343.012 217.673,340.179 219.5,337.5 Z"/></g>
<g><path style="opacity:0.12" fill="#453323" d="M 398.5,281.5 C 400.887,283.913 403.054,286.58 405,289.5C 410.102,298.798 414.435,308.464 418,318.5C 422.237,331.289 423.237,344.289 421,357.5C 416.333,360.833 412.333,364.833 409,369.5C 408.501,373.486 408.334,377.486 408.5,381.5C 406.077,382.654 403.744,383.821 401.5,385C 400.087,387.202 398.587,389.368 397,391.5C 394.096,389.773 390.93,389.107 387.5,389.5C 387.649,390.552 387.483,391.552 387,392.5C 385.27,391.26 383.437,390.26 381.5,389.5C 378.721,390.283 375.721,390.283 372.5,389.5C 364.775,391.182 357.108,393.015 349.5,395C 348.929,396.205 348.262,397.372 347.5,398.5C 339.622,402.272 331.622,405.772 323.5,409C 321.983,410.685 320.316,412.185 318.5,413.5C 314.704,414.147 311.871,416.147 310,419.5C 309.439,418.978 308.772,418.645 308,418.5C 303.182,421.163 298.016,422.496 292.5,422.5C 281.534,423.372 278.034,418.705 282,408.5C 286.903,401.222 293.736,396.555 302.5,394.5C 303.386,393.675 303.719,392.675 303.5,391.5C 311.318,388.786 319.318,386.452 327.5,384.5C 328.665,383.416 329.998,382.583 331.5,382C 337.896,381.372 344.23,380.372 350.5,379C 353.707,378.428 355.374,376.595 355.5,373.5C 356.222,373.918 356.722,374.584 357,375.5C 357.873,370.556 357.373,365.89 355.5,361.5C 355.162,359.146 354.662,356.813 354,354.5C 353.329,353.748 352.496,353.414 351.5,353.5C 352.23,351.955 353.563,351.122 355.5,351C 354.897,348.929 353.564,347.762 351.5,347.5C 352.649,341.534 355.149,336.201 359,331.5C 365.398,327.452 371.565,322.952 377.5,318C 377.167,317.667 376.833,317.333 376.5,317C 380.756,314.277 380.422,313.11 375.5,313.5C 378.167,310.5 380.833,307.5 383.5,304.5C 390.239,298.037 395.239,290.37 398.5,281.5 Z M 396.5,317.5 C 389.612,324.886 381.945,331.386 373.5,337C 371.336,339.419 370.002,342.252 369.5,345.5C 372.764,356.668 373.764,368.001 372.5,379.5C 379.549,380.441 386.549,379.941 393.5,378C 392.755,375.429 392.421,372.929 392.5,370.5C 392.977,369.522 393.643,368.689 394.5,368C 393.855,359.89 397.022,353.39 404,348.5C 405.03,346.412 405.863,344.245 406.5,342C 404.638,333.651 402.305,325.818 399.5,318.5C 398.675,317.614 397.675,317.281 396.5,317.5 Z"/></g>
<g><path style="opacity:0.035" fill="#4e3a27" d="M 398.5,302.5 C 400.973,302.604 401.639,303.604 400.5,305.5C 401.48,306.981 402.647,308.315 404,309.5C 406.035,314.638 407.201,319.972 407.5,325.5C 408.5,325.5 409.5,325.5 410.5,325.5C 409.464,329.795 410.131,333.961 412.5,338C 412.108,339.011 411.441,339.511 410.5,339.5C 411.833,340.5 411.833,341.5 410.5,342.5C 411.688,342.307 413.022,342.807 414.5,344C 410.953,346.594 409.119,350.094 409,354.5C 406.957,356.208 405.29,358.208 404,360.5C 403.667,360.167 403.333,359.833 403,359.5C 400.479,365.313 399.646,370.98 400.5,376.5C 399.774,379.621 398.274,382.287 396,384.5C 394.251,383.701 392.918,384.368 392,386.5C 388.125,383.885 384.291,383.885 380.5,386.5C 377.194,386.413 373.861,386.079 370.5,385.5C 357.476,388.673 344.809,393.006 332.5,398.5C 326.031,402.47 319.698,406.637 313.5,411C 306.785,413.553 299.952,415.72 293,417.5C 286.223,418.08 284.223,415.413 287,409.5C 288.873,407.291 291.04,405.458 293.5,404C 303.694,400.539 313.694,396.539 323.5,392C 331.477,390.246 339.144,387.413 346.5,383.5C 348.998,384.38 350.998,383.547 352.5,381C 354.891,380.713 357.224,380.213 359.5,379.5C 360.5,377.833 361.833,376.5 363.5,375.5C 364.093,373.618 364.76,371.785 365.5,370C 364.457,367.975 364.457,365.642 365.5,363C 365.3,357.704 363.8,352.537 361,347.5C 360.348,344.406 360.682,341.406 362,338.5C 367.378,333.616 372.878,328.95 378.5,324.5C 379.386,323.675 379.719,322.675 379.5,321.5C 387.436,316.897 393.769,310.564 398.5,302.5 Z M 396.5,317.5 C 389.612,324.886 381.945,331.386 373.5,337C 371.336,339.419 370.002,342.252 369.5,345.5C 372.764,356.668 373.764,368.001 372.5,379.5C 379.549,380.441 386.549,379.941 393.5,378C 392.755,375.429 392.421,372.929 392.5,370.5C 392.977,369.522 393.643,368.689 394.5,368C 393.855,359.89 397.022,353.39 404,348.5C 405.03,346.412 405.863,344.245 406.5,342C 404.638,333.651 402.305,325.818 399.5,318.5C 398.675,317.614 397.675,317.281 396.5,317.5 Z"/></g>
<g><path style="opacity:0.981" fill="#e0d9b8" d="M 383.5,304.5 C 380.833,307.5 378.167,310.5 375.5,313.5C 369.992,317.835 364.326,322.002 358.5,326C 339.339,336.259 319.006,342.426 297.5,344.5C 290.548,329.373 280.714,316.373 268,305.5C 267.209,304.255 266.709,302.922 266.5,301.5C 266.5,300.833 266.5,300.167 266.5,299.5C 282.285,292.774 297.951,285.774 313.5,278.5C 319.478,276.179 324.811,272.845 329.5,268.5C 330.5,268.5 331.5,268.5 332.5,268.5C 332.335,271.504 333.668,273.504 336.5,274.5C 339.75,272.507 341.25,269.84 341,266.5C 345.631,268.051 350.297,269.717 355,271.5C 360.168,264.188 361.668,264.854 359.5,273.5C 361.903,273.607 363.736,272.607 365,270.5C 365.308,271.308 365.808,271.975 366.5,272.5C 368.191,270.744 370.191,270.244 372.5,271C 371.549,271.718 371.383,272.551 372,273.5C 373.693,274.184 375.193,275.184 376.5,276.5C 377.799,275.91 378.632,274.91 379,273.5C 379.317,275.301 379.984,275.634 381,274.5C 380.852,275.825 381.018,276.992 381.5,278C 379.36,278.973 377.693,280.473 376.5,282.5C 377.5,282.833 378.5,283.167 379.5,283.5C 381.66,283.234 383.326,282.234 384.5,280.5C 385.471,281.962 385.138,283.295 383.5,284.5C 381.765,285.057 380.098,285.39 378.5,285.5C 377.282,286.803 377.615,287.803 379.5,288.5C 377.607,291.922 376.273,292.256 375.5,289.5C 373.239,290.682 371.405,292.349 370,294.5C 369.907,297.007 369.074,299.174 367.5,301C 368.167,301.667 368.833,301.667 369.5,301C 370.726,299.365 372.059,297.865 373.5,296.5C 372.984,297.758 373.65,298.758 375.5,299.5C 373.251,301.245 371.584,303.412 370.5,306C 369.5,306.333 368.5,306.667 367.5,307C 372.167,308.655 376.5,308.322 380.5,306C 380.957,305.586 381.291,305.086 381.5,304.5C 380.271,303.719 378.938,303.219 377.5,303C 379.019,301.649 380.352,300.149 381.5,298.5C 382.768,300.304 383.435,302.304 383.5,304.5 Z"/></g>
<g><path style="opacity:0.982" fill="#dfd9b7" d="M 108.5,247.5 C 109.649,247.791 110.316,248.624 110.5,250C 108.797,254.47 109.797,255.303 113.5,252.5C 114.167,252.833 114.833,253.167 115.5,253.5C 114.224,256.034 113.89,258.534 114.5,261C 115.167,261.667 115.833,261.667 116.5,261C 115.549,260.282 115.383,259.449 116,258.5C 118.036,258.476 119.87,258.809 121.5,259.5C 120.07,262.433 118.07,264.933 115.5,267C 117.387,267.163 118.887,266.329 120,264.5C 121,265.833 122,265.833 123,264.5C 123.333,265.167 123.667,265.833 124,266.5C 124.689,265.643 125.522,264.977 126.5,264.5C 127.833,263.833 127.833,263.167 126.5,262.5C 124.902,263.485 123.235,263.651 121.5,263C 126.545,257.295 131.212,257.795 135.5,264.5C 136.167,263.833 136.833,263.167 137.5,262.5C 138.551,263.885 139.884,264.885 141.5,265.5C 143.906,265.645 146.239,265.645 148.5,265.5C 152.789,271.495 158.456,275.828 165.5,278.5C 165.833,278.5 166.167,278.5 166.5,278.5C 182.978,286.742 199.645,294.408 216.5,301.5C 202.071,313.764 190.405,328.264 181.5,345C 177.449,345.518 173.449,345.184 169.5,344C 154.969,339.656 140.636,334.823 126.5,329.5C 122.072,326.109 117.406,322.942 112.5,320C 98.6357,309.973 88.3024,297.14 81.5,281.5C 89.0584,269.065 98.0584,257.732 108.5,247.5 Z"/></g>
<g><path style="opacity:0.979" fill="#c9a47a" d="M 322.5,281.5 C 326.215,281.423 329.881,281.756 333.5,282.5C 333.5,286.167 333.5,289.833 333.5,293.5C 329.833,293.5 326.167,293.5 322.5,293.5C 322.5,289.5 322.5,285.5 322.5,281.5 Z"/></g>
<g><path style="opacity:0.961" fill="#c8a379" d="M 145.5,281.5 C 149.5,281.5 153.5,281.5 157.5,281.5C 157.5,285.5 157.5,289.5 157.5,293.5C 153.774,293.823 150.107,293.489 146.5,292.5C 145.574,288.906 145.241,285.24 145.5,281.5 Z"/></g>
<g><path style="opacity:0.783" fill="#c0b697" d="M 403.5,261.5 C 403.495,265.534 403.162,269.534 402.5,273.5C 397.541,268.533 392.874,263.2 388.5,257.5C 390.47,255.366 392.637,253.366 395,251.5C 395.236,253.764 395.736,255.931 396.5,258C 396.167,258.333 395.833,258.667 395.5,259C 398.382,259.272 401.049,260.106 403.5,261.5 Z"/></g>
<g><path style="opacity:0.94" fill="#dad3b2" d="M 350.5,223.5 C 353.464,225.962 356.297,228.629 359,231.5C 366.656,241.651 374.822,251.318 383.5,260.5C 388.913,267.24 393.913,274.24 398.5,281.5C 395.239,290.37 390.239,298.037 383.5,304.5C 383.435,302.304 382.768,300.304 381.5,298.5C 380.352,300.149 379.019,301.649 377.5,303C 378.938,303.219 380.271,303.719 381.5,304.5C 381.291,305.086 380.957,305.586 380.5,306C 376.5,308.322 372.167,308.655 367.5,307C 368.5,306.667 369.5,306.333 370.5,306C 371.584,303.412 373.251,301.245 375.5,299.5C 373.65,298.758 372.984,297.758 373.5,296.5C 372.059,297.865 370.726,299.365 369.5,301C 368.833,301.667 368.167,301.667 367.5,301C 369.074,299.174 369.907,297.007 370,294.5C 371.405,292.349 373.239,290.682 375.5,289.5C 376.273,292.256 377.607,291.922 379.5,288.5C 377.615,287.803 377.282,286.803 378.5,285.5C 380.098,285.39 381.765,285.057 383.5,284.5C 385.138,283.295 385.471,281.962 384.5,280.5C 383.326,282.234 381.66,283.234 379.5,283.5C 378.5,283.167 377.5,282.833 376.5,282.5C 377.693,280.473 379.36,278.973 381.5,278C 381.018,276.992 380.852,275.825 381,274.5C 379.984,275.634 379.317,275.301 379,273.5C 378.632,274.91 377.799,275.91 376.5,276.5C 375.193,275.184 373.693,274.184 372,273.5C 371.383,272.551 371.549,271.718 372.5,271C 370.191,270.244 368.191,270.744 366.5,272.5C 365.808,271.975 365.308,271.308 365,270.5C 363.736,272.607 361.903,273.607 359.5,273.5C 361.668,264.854 360.168,264.188 355,271.5C 350.297,269.717 345.631,268.051 341,266.5C 341.25,269.84 339.75,272.507 336.5,274.5C 333.668,273.504 332.335,271.504 332.5,268.5C 331.5,268.5 330.5,268.5 329.5,268.5C 330.226,265.821 331.059,263.154 332,260.5C 332.333,250.5 332.667,240.5 333,230.5C 333.903,229.299 335.069,228.465 336.5,228C 341.46,227.35 346.127,225.85 350.5,223.5 Z"/></g>
<g><path style="opacity:0.83" fill="#c6bd9e" d="M 73.5,241.5 C 74.3149,242.429 75.1482,243.429 76,244.5C 77.5333,244.056 79.0333,243.723 80.5,243.5C 84.3863,244.588 84.3863,245.421 80.5,246C 79.8742,246.75 79.3742,247.584 79,248.5C 78.2904,247.027 77.1238,246.36 75.5,246.5C 75.6726,249.179 76.6726,251.513 78.5,253.5C 79.2739,254.711 80.1072,254.711 81,253.5C 81.4922,254.549 81.3256,255.549 80.5,256.5C 80.8076,257.308 81.3076,257.975 82,258.5C 83.1131,257.289 84.2798,257.289 85.5,258.5C 87.2565,255.688 88.9232,255.355 90.5,257.5C 86.8404,263.482 82.507,268.815 77.5,273.5C 76.5564,262.783 75.223,252.116 73.5,241.5 Z"/></g>
<g><path style="opacity:0.91" fill="#d2caaa" d="M 112.5,241.5 C 112.833,241.5 113.167,241.5 113.5,241.5C 114.023,243.708 115.356,245.208 117.5,246C 116.192,246.824 114.692,247.324 113,247.5C 112.73,248.932 113.396,249.932 115,250.5C 116,249.167 117,249.167 118,250.5C 119.113,248.671 120.613,247.837 122.5,248C 120.993,248.837 120.493,250.004 121,251.5C 124.312,247.659 127.479,247.325 130.5,250.5C 131.167,250.167 131.833,249.833 132.5,249.5C 134.311,250.739 136.311,251.406 138.5,251.5C 141.262,251.023 143.929,251.023 146.5,251.5C 147.037,256.186 147.704,260.853 148.5,265.5C 146.239,265.645 143.906,265.645 141.5,265.5C 139.884,264.885 138.551,263.885 137.5,262.5C 136.833,263.167 136.167,263.833 135.5,264.5C 131.212,257.795 126.545,257.295 121.5,263C 123.235,263.651 124.902,263.485 126.5,262.5C 127.833,263.167 127.833,263.833 126.5,264.5C 125.522,264.977 124.689,265.643 124,266.5C 123.667,265.833 123.333,265.167 123,264.5C 122,265.833 121,265.833 120,264.5C 118.887,266.329 117.387,267.163 115.5,267C 118.07,264.933 120.07,262.433 121.5,259.5C 119.87,258.809 118.036,258.476 116,258.5C 115.383,259.449 115.549,260.282 116.5,261C 115.833,261.667 115.167,261.667 114.5,261C 113.89,258.534 114.224,256.034 115.5,253.5C 114.833,253.167 114.167,252.833 113.5,252.5C 109.797,255.303 108.797,254.47 110.5,250C 110.316,248.624 109.649,247.791 108.5,247.5C 109.441,245.228 110.774,243.228 112.5,241.5 Z"/></g>
<g><path style="opacity:0.434" fill="#2e2218" d="M 291.5,143.5 C 295.167,143.5 298.833,143.5 302.5,143.5C 302.5,144.5 302.5,145.5 302.5,146.5C 301.987,150.553 301.154,154.553 300,158.5C 299.667,192.833 299.333,227.167 299,261.5C 288.809,267.931 278.142,273.597 267,278.5C 266.5,285.492 266.334,292.492 266.5,299.5C 266.5,300.167 266.5,300.833 266.5,301.5C 265.833,301.5 265.167,301.5 264.5,301.5C 264.5,282.833 264.5,264.167 264.5,245.5C 265.971,252.779 267.137,260.112 268,267.5C 269.49,269.558 271.49,270.891 274,271.5C 279.845,270.322 285.345,268.155 290.5,265C 295.045,259.903 297.712,253.903 298.5,247C 297.172,224.507 297.172,202.007 298.5,179.5C 298.042,174.511 297.042,169.677 295.5,165C 296.167,164.667 296.833,164.333 297.5,164C 294.647,162.57 291.647,161.737 288.5,161.5C 288.5,157.5 288.5,153.5 288.5,149.5C 293.504,150.32 293.838,148.82 289.5,145C 290.044,144.283 290.711,143.783 291.5,143.5 Z"/></g>
<g><path style="opacity:0.915" fill="#d4ccab" d="M 94.5,225.5 C 96.8333,225.5 99.1667,225.5 101.5,225.5C 99.0314,226.317 96.3647,226.817 93.5,227C 93.0426,227.414 92.7093,227.914 92.5,228.5C 93.9242,230.718 95.9242,232.218 98.5,233C 98.1667,233.333 97.8333,233.667 97.5,234C 81.6428,235.631 81.6428,237.631 97.5,240C 98.376,238.414 99.376,236.914 100.5,235.5C 99.2889,234.28 99.2889,233.113 100.5,232C 99.0027,230.129 97.0027,229.129 94.5,229C 99.3091,226.573 101.976,228.073 102.5,233.5C 103.675,233.281 104.675,233.614 105.5,234.5C 104.174,234.205 102.841,234.705 101.5,236C 103.025,237.009 104.692,237.509 106.5,237.5C 101.516,244.48 96.1829,251.146 90.5,257.5C 88.9232,255.355 87.2565,255.688 85.5,258.5C 84.2798,257.289 83.1131,257.289 82,258.5C 81.3076,257.975 80.8076,257.308 80.5,256.5C 81.3256,255.549 81.4922,254.549 81,253.5C 80.1072,254.711 79.2739,254.711 78.5,253.5C 76.6726,251.513 75.6726,249.179 75.5,246.5C 77.1238,246.36 78.2904,247.027 79,248.5C 79.3742,247.584 79.8742,246.75 80.5,246C 84.3863,245.421 84.3863,244.588 80.5,243.5C 79.0333,243.723 77.5333,244.056 76,244.5C 75.1482,243.429 74.3149,242.429 73.5,241.5C 73.0019,236.848 72.6686,232.181 72.5,227.5C 73.593,224.747 75.4264,224.08 78,225.5C 81.4192,222.61 84.4192,222.943 87,226.5C 88,225.5 89,224.5 90,223.5C 91.3297,224.582 92.8297,225.249 94.5,225.5 Z"/></g>
<g><path style="opacity:0.855" fill="#d0c7a7" d="M 405.5,242.5 C 405.08,248.863 404.413,255.196 403.5,261.5C 401.049,260.106 398.382,259.272 395.5,259C 395.833,258.667 396.167,258.333 396.5,258C 395.736,255.931 395.236,253.764 395,251.5C 392.637,253.366 390.47,255.366 388.5,257.5C 384.754,253.094 381.42,248.427 378.5,243.5C 378.56,242.957 378.893,242.624 379.5,242.5C 382.377,245.965 385.544,246.299 389,243.5C 391.091,244.5 392.757,243.833 394,241.5C 393.923,242.738 394.089,243.738 394.5,244.5C 399.242,243.572 399.575,242.072 395.5,240C 396,239.5 396.5,239 397,238.5C 399.269,240.269 401.602,240.935 404,240.5C 404.278,241.416 404.778,242.082 405.5,242.5 Z"/></g>
<g><path style="opacity:0.207" fill="#3f2f20" d="M 194.5,203.5 C 195.486,205.408 197.152,206.408 199.5,206.5C 199.5,209.5 199.5,212.5 199.5,215.5C 198.691,213.708 198.191,211.708 198,209.5C 196.257,211.321 194.757,213.321 193.5,215.5C 195.811,217.346 198.144,217.68 200.5,216.5C 201.396,217.506 202.062,217.506 202.5,216.5C 204.167,218.833 206.167,220.833 208.5,222.5C 207.9,223.9 206.9,224.9 205.5,225.5C 206.521,222.773 205.521,220.773 202.5,219.5C 201.056,221.608 200.39,223.941 200.5,226.5C 201.959,226.567 203.292,226.234 204.5,225.5C 204.369,228.367 205.703,230.033 208.5,230.5C 208.343,231.873 208.51,233.207 209,234.5C 210.011,233.663 211.178,233.33 212.5,233.5C 217.27,236.774 220.77,241.107 223,246.5C 228.398,269.938 220.731,275.271 200,262.5C 199.667,262.833 199.333,263.167 199,263.5C 195.972,259.903 192.139,257.736 187.5,257C 186.696,255.229 185.529,253.729 184,252.5C 183.9,239.931 184.4,227.431 185.5,215C 185.043,214.586 184.709,214.086 184.5,213.5C 185.244,210.557 185.744,207.557 186,204.5C 188.917,199.031 191.083,199.364 192.5,205.5C 193.182,204.757 193.849,204.091 194.5,203.5 Z M 207.5,249.5 C 209.193,252.962 210.193,252.962 210.5,249.5C 209.5,249.5 208.5,249.5 207.5,249.5 Z"/></g>
<g><path style="opacity:0.947" fill="#ddd5b4" d="M 128.5,224.5 C 134.213,225.959 139.88,227.626 145.5,229.5C 146.497,236.803 146.831,244.137 146.5,251.5C 143.929,251.023 141.262,251.023 138.5,251.5C 136.311,251.406 134.311,250.739 132.5,249.5C 131.833,249.833 131.167,250.167 130.5,250.5C 127.479,247.325 124.312,247.659 121,251.5C 120.493,250.004 120.993,248.837 122.5,248C 120.613,247.837 119.113,248.671 118,250.5C 117,249.167 116,249.167 115,250.5C 113.396,249.932 112.73,248.932 113,247.5C 114.692,247.324 116.192,246.824 117.5,246C 115.356,245.208 114.023,243.708 113.5,241.5C 117.413,234.918 122.413,229.251 128.5,224.5 Z"/></g>
<g><path style="opacity:0.953" fill="#c59f76" d="M 129.5,232.5 C 133.167,232.5 136.833,232.5 140.5,232.5C 140.5,236.5 140.5,240.5 140.5,244.5C 137.102,244.82 133.768,244.487 130.5,243.5C 129.574,239.906 129.241,236.24 129.5,232.5 Z"/></g>
<g><path style="opacity:0.355" fill="#36291d" d="M 291.5,143.5 C 290.711,143.783 290.044,144.283 289.5,145C 293.838,148.82 293.504,150.32 288.5,149.5C 288.5,153.5 288.5,157.5 288.5,161.5C 291.647,161.737 294.647,162.57 297.5,164C 296.833,164.333 296.167,164.667 295.5,165C 297.042,169.677 298.042,174.511 298.5,179.5C 297.172,202.007 297.172,224.507 298.5,247C 297.712,253.903 295.045,259.903 290.5,265C 285.345,268.155 279.845,270.322 274,271.5C 271.49,270.891 269.49,269.558 268,267.5C 267.137,260.112 265.971,252.779 264.5,245.5C 264.663,243.143 264.497,240.81 264,238.5C 250.5,227.667 237,216.833 223.5,206C 222.483,204.951 222.316,203.784 223,202.5C 226.053,199.113 228.72,195.447 231,191.5C 232.062,190.101 233.395,189.101 235,188.5C 239.949,191.615 244.449,195.282 248.5,199.5C 246.62,202.091 244.62,204.591 242.5,207C 239.426,206.797 236.759,205.463 234.5,203C 235.025,202.308 235.692,201.808 236.5,201.5C 239.913,205.642 242.579,205.142 244.5,200C 241.694,196.866 238.528,194.033 235,191.5C 231.369,195.129 228.536,199.296 226.5,204C 228.488,207.321 231.154,209.988 234.5,212C 248.068,213.464 261.735,213.964 275.5,213.5C 279.102,213.678 279.102,214.678 275.5,216.5C 271.602,217.975 267.602,219.142 263.5,220C 261.264,220.734 259.931,222.234 259.5,224.5C 262.016,230.717 265.016,236.717 268.5,242.5C 269.206,249.511 270.039,256.511 271,263.5C 272.487,264.253 272.654,265.086 271.5,266C 274.657,267.169 277.99,267.169 281.5,266C 284.343,264.217 287.343,262.717 290.5,261.5C 291.833,259.5 293.167,257.5 294.5,255.5C 295.177,244.272 295.843,233.105 296.5,222C 295.24,207.98 295.24,194.146 296.5,180.5C 295.862,175.406 294.862,170.406 293.5,165.5C 290.833,165.5 288.167,165.5 285.5,165.5C 285.762,166.978 285.429,168.311 284.5,169.5C 280.337,167.058 276.003,165.558 271.5,165C 272.888,165.889 272.722,166.389 271,166.5C 268.378,164.908 265.878,164.741 263.5,166C 264.167,166.333 264.833,166.667 265.5,167C 263.939,167.941 262.605,169.108 261.5,170.5C 262.5,171.167 263.5,171.833 264.5,172.5C 258.346,173.167 252.346,173.833 246.5,174.5C 246.174,178.884 246.508,183.217 247.5,187.5C 250.393,188.74 253.227,190.074 256,191.5C 258.385,188.621 260.552,185.621 262.5,182.5C 263.939,183.509 265.272,183.176 266.5,181.5C 266.07,185.992 267.737,189.825 271.5,193C 274.143,193.816 276.81,194.316 279.5,194.5C 277.854,196.812 275.854,198.812 273.5,200.5C 274.791,201.527 274.791,202.527 273.5,203.5C 263.37,199.519 253.537,194.852 244,189.5C 243.5,182.508 243.334,175.508 243.5,168.5C 244.959,168.567 246.292,168.234 247.5,167.5C 251.805,164.677 256.138,161.844 260.5,159C 264.269,158.801 267.936,159.135 271.5,160C 275.416,156.59 278.749,152.757 281.5,148.5C 282.496,148.414 283.329,148.748 284,149.5C 284.333,145.833 284.667,142.167 285,138.5C 287.194,140.365 289.36,142.032 291.5,143.5 Z M 281.5,227.5 C 279.557,228.291 278.557,229.791 278.5,232C 279.378,238.522 280.378,245.022 281.5,251.5C 282.192,250.975 282.692,250.308 283,249.5C 283.667,242.5 283.667,235.5 283,228.5C 282.617,227.944 282.117,227.611 281.5,227.5 Z"/></g>
<g><path style="opacity:0.17" fill="#433322" d="M 275.5,213.5 C 277.814,211.523 280.147,209.523 282.5,207.5C 279.498,206.666 276.832,205.333 274.5,203.5C 275.117,203.389 275.617,203.056 276,202.5C 278.022,203.786 280.189,204.786 282.5,205.5C 283.662,200.869 283.828,196.202 283,191.5C 281.961,192.71 280.794,193.71 279.5,194.5C 276.81,194.316 274.143,193.816 271.5,193C 267.737,189.825 266.07,185.992 266.5,181.5C 265.272,183.176 263.939,183.509 262.5,182.5C 263.52,180.648 265.02,179.315 267,178.5C 275.617,181.876 276.45,180.709 269.5,175C 261.841,174.5 254.174,174.334 246.5,174.5C 252.346,173.833 258.346,173.167 264.5,172.5C 263.5,171.833 262.5,171.167 261.5,170.5C 262.605,169.108 263.939,167.941 265.5,167C 264.833,166.667 264.167,166.333 263.5,166C 265.878,164.741 268.378,164.908 271,166.5C 272.722,166.389 272.888,165.889 271.5,165C 276.003,165.558 280.337,167.058 284.5,169.5C 285.429,168.311 285.762,166.978 285.5,165.5C 288.167,165.5 290.833,165.5 293.5,165.5C 294.862,170.406 295.862,175.406 296.5,180.5C 295.24,194.146 295.24,207.98 296.5,222C 295.843,233.105 295.177,244.272 294.5,255.5C 293.167,257.5 291.833,259.5 290.5,261.5C 287.343,262.717 284.343,264.217 281.5,266C 277.99,267.169 274.657,267.169 271.5,266C 272.654,265.086 272.487,264.253 271,263.5C 270.039,256.511 269.206,249.511 268.5,242.5C 265.016,236.717 262.016,230.717 259.5,224.5C 259.931,222.234 261.264,220.734 263.5,220C 267.602,219.142 271.602,217.975 275.5,216.5C 279.102,214.678 279.102,213.678 275.5,213.5 Z M 281.5,227.5 C 279.557,228.291 278.557,229.791 278.5,232C 279.378,238.522 280.378,245.022 281.5,251.5C 282.192,250.975 282.692,250.308 283,249.5C 283.667,242.5 283.667,235.5 283,228.5C 282.617,227.944 282.117,227.611 281.5,227.5 Z"/></g>
<g><path style="opacity:0.978" fill="#a76951" d="M 205.5,225.5 C 205.167,225.5 204.833,225.5 204.5,225.5C 203.292,226.234 201.959,226.567 200.5,226.5C 200.39,223.941 201.056,221.608 202.5,219.5C 205.521,220.773 206.521,222.773 205.5,225.5 Z"/></g>
<g><path style="opacity:0.034" fill="#4e3a27" d="M 280.5,219.5 C 282.792,219.244 284.959,219.577 287,220.5C 288.546,231.45 288.879,242.45 288,253.5C 285.726,257.877 282.226,260.044 277.5,260C 276.107,258.829 275.273,257.329 275,255.5C 275.194,246.207 273.694,237.207 270.5,228.5C 270.57,227.228 270.903,226.062 271.5,225C 274.672,223.303 277.672,221.47 280.5,219.5 Z M 281.5,227.5 C 279.557,228.291 278.557,229.791 278.5,232C 279.378,238.522 280.378,245.022 281.5,251.5C 282.192,250.975 282.692,250.308 283,249.5C 283.667,242.5 283.667,235.5 283,228.5C 282.617,227.944 282.117,227.611 281.5,227.5 Z"/></g>
<g><path style="opacity:0.979" fill="#c6a076" d="M 164.5,193.5 C 165.498,221.662 165.831,249.995 165.5,278.5C 158.456,275.828 152.789,271.495 148.5,265.5C 147.704,260.853 147.037,256.186 146.5,251.5C 146.831,244.137 146.497,236.803 145.5,229.5C 139.88,227.626 134.213,225.959 128.5,224.5C 131.251,220.243 134.584,216.41 138.5,213C 147.062,206.259 155.729,199.759 164.5,193.5 Z"/></g>
<g><path style="opacity:0.964" fill="#ddd6b5" d="M 410.5,146.5 C 410.5,150.833 410.5,155.167 410.5,159.5C 411.544,187.39 409.877,215.056 405.5,242.5C 404.778,242.082 404.278,241.416 404,240.5C 401.602,240.935 399.269,240.269 397,238.5C 396.5,239 396,239.5 395.5,240C 399.575,242.072 399.242,243.572 394.5,244.5C 394.089,243.738 393.923,242.738 394,241.5C 392.757,243.833 391.091,244.5 389,243.5C 385.544,246.299 382.377,245.965 379.5,242.5C 378.893,242.624 378.56,242.957 378.5,243.5C 372.178,235.539 365.844,227.539 359.5,219.5C 363.382,214.403 366.215,208.736 368,202.5C 368.168,192.816 368.668,183.149 369.5,173.5C 383.024,164.241 396.691,155.241 410.5,146.5 Z"/></g>
<g><path style="opacity:0.981" fill="#c9a47b" d="M 374.5,212.5 C 378.167,212.5 381.833,212.5 385.5,212.5C 385.5,216.833 385.5,221.167 385.5,225.5C 381.833,225.5 378.167,225.5 374.5,225.5C 374.5,221.167 374.5,216.833 374.5,212.5 Z"/></g>
<g><path style="opacity:0.98" fill="#be8565" d="M 164.5,193.5 C 164.56,192.957 164.893,192.624 165.5,192.5C 166.5,221.159 166.833,249.826 166.5,278.5C 166.167,278.5 165.833,278.5 165.5,278.5C 165.831,249.995 165.498,221.662 164.5,193.5 Z"/></g>
<g><path style="opacity:0.89" fill="#c8bfa0" d="M 69.5,191.5 C 71.2327,192.008 71.566,192.841 70.5,194C 73.1198,194.981 75.6198,196.147 78,197.5C 78.9503,196.978 79.7836,196.311 80.5,195.5C 80.109,196.718 80.7756,197.552 82.5,198C 81.3774,199.044 80.0441,199.71 78.5,200C 79.4506,200.718 79.6172,201.551 79,202.5C 77.3202,205.013 75.1535,207.013 72.5,208.5C 75.1772,210.264 74.8438,211.43 71.5,212C 73.359,212.684 75.0257,213.684 76.5,215C 74.7727,216.389 73.4394,218.056 72.5,220C 72.8985,222.337 72.8985,224.837 72.5,227.5C 70.9128,215.696 69.9128,203.696 69.5,191.5 Z"/></g>
<g><path style="opacity:0.99" fill="#c7a076" d="M 350.5,223.5 C 346.127,225.85 341.46,227.35 336.5,228C 335.069,228.465 333.903,229.299 333,230.5C 332.667,240.5 332.333,250.5 332,260.5C 331.059,263.154 330.226,265.821 329.5,268.5C 324.811,272.845 319.478,276.179 313.5,278.5C 313.495,249.967 313.828,221.3 314.5,192.5C 322.001,198.494 329.667,204.327 337.5,210C 342.388,214.08 346.721,218.58 350.5,223.5 Z"/></g>
<g><path style="opacity:0.205" fill="#3e2f20" d="M 421.5,312.5 C 417.008,298.518 410.675,285.518 402.5,273.5C 403.162,269.534 403.495,265.534 403.5,261.5C 404.413,255.196 405.08,248.863 405.5,242.5C 409.877,215.056 411.544,187.39 410.5,159.5C 411.788,143.809 411.455,128.143 409.5,112.5C 409.5,109.5 409.5,106.5 409.5,103.5C 409.335,99.8183 409.501,96.1516 410,92.5C 423.225,72.4682 418.058,60.8015 394.5,57.5C 388.355,56.5098 382.022,56.1765 375.5,56.5C 374.45,56.0954 374.45,55.4288 375.5,54.5C 382.142,53.6691 388.809,53.1691 395.5,53C 396.263,52.0565 397.263,51.5565 398.5,51.5C 401.197,52.2324 403.864,53.0657 406.5,54C 409.534,56.5164 412.868,58.5164 416.5,60C 417.089,62.5142 418.422,64.5142 420.5,66C 418.068,67.0875 418.402,67.5875 421.5,67.5C 423.696,73.361 423.363,79.1943 420.5,85C 420.957,85.414 421.291,85.914 421.5,86.5C 417.992,93.1028 416.325,100.27 416.5,108C 417.617,113.018 417.617,117.685 416.5,122C 417.958,124.077 418.624,126.41 418.5,129C 418.176,151.142 418.176,173.809 418.5,197C 417.461,202.799 416.461,208.632 415.5,214.5C 415.617,220.54 415.617,226.207 415.5,231.5C 414.085,237.82 412.752,244.153 411.5,250.5C 412.282,252.329 411.616,253.829 409.5,255C 409.09,257.24 409.757,259.407 411.5,261.5C 410.833,262.167 410.167,262.833 409.5,263.5C 409.774,267.338 410.441,271.338 411.5,275.5C 413.162,279.836 414.662,284.169 416,288.5C 421.115,295.637 424.615,303.637 426.5,312.5C 425.917,314.002 425.084,315.335 424,316.5C 423.8,314.68 422.966,313.347 421.5,312.5 Z"/></g>
<g><path style="opacity:0.935" fill="#28211c" d="M 274.5,203.5 C 274.167,203.5 273.833,203.5 273.5,203.5C 274.791,202.527 274.791,201.527 273.5,200.5C 275.854,198.812 277.854,196.812 279.5,194.5C 280.794,193.71 281.961,192.71 283,191.5C 283.828,196.202 283.662,200.869 282.5,205.5C 280.189,204.786 278.022,203.786 276,202.5C 275.617,203.056 275.117,203.389 274.5,203.5 Z"/></g>
<g><path style="opacity:0.963" fill="#c9a57c" d="M 375.5,175.5 C 378.5,175.5 381.5,175.5 384.5,175.5C 384.5,179.833 384.5,184.167 384.5,188.5C 380.833,188.5 377.167,188.5 373.5,188.5C 372.728,184.548 372.395,180.548 372.5,176.5C 373.791,176.737 374.791,176.404 375.5,175.5 Z"/></g>
<g><path style="opacity:0.962" fill="#ddd6b5" d="M 91.5,160.5 C 97.7976,165.274 104.298,169.941 111,174.5C 111.13,184.882 111.796,195.216 113,205.5C 114.747,210.667 117.247,215.333 120.5,219.5C 115.667,225.176 111.334,231.176 107.5,237.5C 107.167,237.5 106.833,237.5 106.5,237.5C 104.692,237.509 103.025,237.009 101.5,236C 102.841,234.705 104.174,234.205 105.5,234.5C 104.675,233.614 103.675,233.281 102.5,233.5C 101.976,228.073 99.3091,226.573 94.5,229C 97.0027,229.129 99.0027,230.129 100.5,232C 99.2889,233.113 99.2889,234.28 100.5,235.5C 99.376,236.914 98.376,238.414 97.5,240C 81.6428,237.631 81.6428,235.631 97.5,234C 97.8333,233.667 98.1667,233.333 98.5,233C 95.9242,232.218 93.9242,230.718 92.5,228.5C 92.7093,227.914 93.0426,227.414 93.5,227C 96.3647,226.817 99.0314,226.317 101.5,225.5C 102.833,225.5 104.167,225.5 105.5,225.5C 105.5,221.167 105.5,216.833 105.5,212.5C 101.802,212.552 98.1352,212.886 94.5,213.5C 94.5,217.5 94.5,221.5 94.5,225.5C 92.8297,225.249 91.3297,224.582 90,223.5C 89,224.5 88,225.5 87,226.5C 84.4192,222.943 81.4192,222.61 78,225.5C 75.4264,224.08 73.593,224.747 72.5,227.5C 72.8985,224.837 72.8985,222.337 72.5,220C 73.4394,218.056 74.7727,216.389 76.5,215C 75.0257,213.684 73.359,212.684 71.5,212C 74.8438,211.43 75.1772,210.264 72.5,208.5C 75.1535,207.013 77.3202,205.013 79,202.5C 79.6172,201.551 79.4506,200.718 78.5,200C 80.0441,199.71 81.3774,199.044 82.5,198C 80.7756,197.552 80.109,196.718 80.5,195.5C 79.7836,196.311 78.9503,196.978 78,197.5C 75.6198,196.147 73.1198,194.981 70.5,194C 71.566,192.841 71.2327,192.008 69.5,191.5C 69.5,181.167 69.5,170.833 69.5,160.5C 69.3342,155.821 69.5008,151.155 70,146.5C 77.1098,151.302 84.2764,155.968 91.5,160.5 Z"/></g>
<g><path style="opacity:0.906" fill="#c39f76" d="M 101.5,225.5 C 99.1667,225.5 96.8333,225.5 94.5,225.5C 94.5,221.5 94.5,217.5 94.5,213.5C 98.1352,212.886 101.802,212.552 105.5,212.5C 105.5,216.833 105.5,221.167 105.5,225.5C 104.167,225.5 102.833,225.5 101.5,225.5 Z"/></g>
<g><path style="opacity:0.959" fill="#c49f75" d="M 95.5,175.5 C 99.1667,175.5 102.833,175.5 106.5,175.5C 106.5,179.5 106.5,183.5 106.5,187.5C 102.833,187.5 99.1667,187.5 95.5,187.5C 95.5,183.5 95.5,179.5 95.5,175.5 Z"/></g>
<g><path style="opacity:0.975" fill="#b9868f" d="M 246.5,174.5 C 254.174,174.334 261.841,174.5 269.5,175C 276.45,180.709 275.617,181.876 267,178.5C 265.02,179.315 263.52,180.648 262.5,182.5C 260.552,185.621 258.385,188.621 256,191.5C 253.227,190.074 250.393,188.74 247.5,187.5C 246.508,183.217 246.174,178.884 246.5,174.5 Z"/></g>
<g><path style="opacity:0.982" fill="#c7a076" d="M 131.5,155.5 C 140.403,159.777 148.403,165.277 155.5,172C 144.37,188.286 132.704,204.12 120.5,219.5C 117.247,215.333 114.747,210.667 113,205.5C 111.796,195.216 111.13,184.882 111,174.5C 104.298,169.941 97.7976,165.274 91.5,160.5C 91.9114,158.228 93.078,157.895 95,159.5C 96.9203,159.062 98.7536,158.395 100.5,157.5C 99.1451,156.325 99.3117,155.325 101,154.5C 102.255,155.211 103.421,156.044 104.5,157C 103.104,161.126 103.77,161.459 106.5,158C 107.635,157.251 108.635,157.417 109.5,158.5C 105.616,159.298 104.949,160.964 107.5,163.5C 110.294,160.87 112.961,158.037 115.5,155C 118.06,155.438 120.56,155.271 123,154.5C 123.483,155.448 123.649,156.448 123.5,157.5C 126.698,158.036 129.365,157.369 131.5,155.5 Z"/></g>
<g><path style="opacity:0.981" fill="#c6a075" d="M 409.5,103.5 C 409.5,106.5 409.5,109.5 409.5,112.5C 408.832,115.667 407.166,118.167 404.5,120C 406.717,124.393 405.717,124.727 401.5,121C 403.007,120.163 403.507,118.996 403,117.5C 400.538,118.65 398.204,119.983 396,121.5C 395.751,120.376 395.251,119.376 394.5,118.5C 394.36,119.569 394.36,120.736 394.5,122C 392.137,122.589 391.137,124.089 391.5,126.5C 395.676,125.831 397.009,127.331 395.5,131C 396.357,131.689 397.023,132.522 397.5,133.5C 394.857,137.324 392.857,141.491 391.5,146C 393.783,148.881 395.783,148.881 397.5,146C 402.02,145.186 406.354,145.353 410.5,146.5C 396.691,155.241 383.024,164.241 369.5,173.5C 368.668,183.149 368.168,192.816 368,202.5C 366.215,208.736 363.382,214.403 359.5,219.5C 347.363,203.851 335.363,188.018 323.5,172C 334.822,164.001 346.156,156.001 357.5,148C 365.697,140.634 373.697,133.134 381.5,125.5C 388.451,118.214 395.451,110.88 402.5,103.5C 404.959,100.533 406.792,97.2 408,93.5C 408.179,97.0252 408.679,100.359 409.5,103.5 Z"/></g>
<g><path style="opacity:0.982" fill="#b57359" d="M 236.5,138.5 C 239.099,140.479 241.765,142.479 244.5,144.5C 240.767,147.906 237.101,151.239 233.5,154.5C 226.925,158.57 221.092,163.57 216,169.5C 214.522,183.136 214.188,196.802 215,210.5C 221.833,216 228.667,221.5 235.5,227C 237.378,228.543 238.878,230.376 240,232.5C 240.667,250.5 240.667,268.5 240,286.5C 236.508,294.819 230.342,300.152 221.5,302.5C 224.295,298.522 226.462,294.189 228,289.5C 228.667,273.833 228.667,258.167 228,242.5C 227.667,241.5 227.333,240.5 227,239.5C 221.263,233.259 215.097,227.592 208.5,222.5C 206.167,220.833 204.167,218.833 202.5,216.5C 202.217,215.711 201.717,215.044 201,214.5C 200.333,198.833 200.333,183.167 201,167.5C 203.971,162.029 208.138,157.695 213.5,154.5C 220.364,148.481 227.53,142.814 235,137.5C 235.383,138.056 235.883,138.389 236.5,138.5 Z"/></g>
<g><path style="opacity:0.981" fill="#b67258" d="M 381.5,125.5 C 373.697,133.134 365.697,140.634 357.5,148C 346.156,156.001 334.822,164.001 323.5,172C 335.363,188.018 347.363,203.851 359.5,219.5C 365.844,227.539 372.178,235.539 378.5,243.5C 381.42,248.427 384.754,253.094 388.5,257.5C 386.833,257.5 385.167,257.5 383.5,257.5C 383.5,258.5 383.5,259.5 383.5,260.5C 374.822,251.318 366.656,241.651 359,231.5C 356.297,228.629 353.464,225.962 350.5,223.5C 346.721,218.58 342.388,214.08 337.5,210C 329.667,204.327 322.001,198.494 314.5,192.5C 313.828,221.3 313.495,249.967 313.5,278.5C 297.951,285.774 282.285,292.774 266.5,299.5C 266.334,292.492 266.5,285.492 267,278.5C 278.142,273.597 288.809,267.931 299,261.5C 299.333,227.167 299.667,192.833 300,158.5C 301.154,154.553 301.987,150.553 302.5,146.5C 303.151,145.909 303.818,145.243 304.5,144.5C 307.711,149.089 311.045,153.589 314.5,158C 315.5,158.667 316.5,158.667 317.5,158C 331.331,146.999 344.998,135.833 358.5,124.5C 361.643,126.214 362.809,125.548 362,122.5C 363.78,123.594 365.614,124.594 367.5,125.5C 367.291,126.086 366.957,126.586 366.5,127C 367.742,127.311 368.742,126.811 369.5,125.5C 369.489,126.441 369.989,127.108 371,127.5C 371.5,127.333 372,127.167 372.5,127C 372.507,125.417 372.174,123.751 371.5,122C 374.779,117.456 377.446,117.622 379.5,122.5C 377.657,122.755 375.657,122.922 373.5,123C 373.982,124.008 374.148,125.175 374,126.5C 376.152,124.676 378.652,124.343 381.5,125.5 Z"/></g>
<g><path style="opacity:0.98" fill="#c9a378" d="M 339.5,232.5 C 343.167,232.5 346.833,232.5 350.5,232.5C 350.5,236.5 350.5,240.5 350.5,244.5C 346.833,244.5 343.167,244.5 339.5,244.5C 339.5,240.5 339.5,236.5 339.5,232.5 Z"/></g>
<g><path style="opacity:0.907" fill="#948578" d="M 281.5,148.5 C 278.749,152.757 275.416,156.59 271.5,160C 267.936,159.135 264.269,158.801 260.5,159C 256.138,161.844 251.805,164.677 247.5,167.5C 243.508,162.51 238.841,158.177 233.5,154.5C 237.101,151.239 240.767,147.906 244.5,144.5C 241.765,142.479 239.099,140.479 236.5,138.5C 247.035,136.06 257.702,134.393 268.5,133.5C 269.497,137.492 270.497,141.492 271.5,145.5C 268.799,146.199 266.299,145.532 264,143.5C 263.312,142.668 263.479,142.002 264.5,141.5C 265.5,142.167 266.5,142.833 267.5,143.5C 268.607,141.022 267.941,139.022 265.5,137.5C 263.209,139.123 261.209,140.957 259.5,143C 259.645,143.772 259.978,144.439 260.5,145C 265.124,147.263 269.791,149.43 274.5,151.5C 275.631,149.926 275.798,148.259 275,146.5C 273.359,141.241 271.525,136.074 269.5,131C 266.833,130.333 264.167,130.333 261.5,131C 253.851,132.834 246.184,134.167 238.5,135C 245.167,130.333 251.833,125.667 258.5,121C 260.167,120.333 261.833,120.333 263.5,121C 269.915,125.291 276.415,129.458 283,133.5C 284.023,138.798 283.523,143.798 281.5,148.5 Z"/></g>
<g><path style="opacity:0.867" fill="#b8946d" d="M 409.5,112.5 C 411.455,128.143 411.788,143.809 410.5,159.5C 410.5,155.167 410.5,150.833 410.5,146.5C 406.354,145.353 402.02,145.186 397.5,146C 395.783,148.881 393.783,148.881 391.5,146C 392.857,141.491 394.857,137.324 397.5,133.5C 397.023,132.522 396.357,131.689 395.5,131C 397.009,127.331 395.676,125.831 391.5,126.5C 391.137,124.089 392.137,122.589 394.5,122C 394.36,120.736 394.36,119.569 394.5,118.5C 395.251,119.376 395.751,120.376 396,121.5C 398.204,119.983 400.538,118.65 403,117.5C 403.507,118.996 403.007,120.163 401.5,121C 405.717,124.727 406.717,124.393 404.5,120C 407.166,118.167 408.832,115.667 409.5,112.5 Z"/></g>
<g><path style="opacity:0.941" fill="#a66951" d="M 215.5,140.5 C 217.327,141.932 218.994,143.599 220.5,145.5C 219.833,146.833 218.833,147.833 217.5,148.5C 216.148,147.476 214.815,146.476 213.5,145.5C 211.888,142.462 209.888,139.629 207.5,137C 210.193,137.84 212.86,139.007 215.5,140.5 Z"/></g>
<g><path style="opacity:0.949" fill="#aa6b53" d="M 211.5,148.5 C 213.957,150.001 213.957,151.668 211.5,153.5C 206.2,150.169 201.2,146.336 196.5,142C 194.783,140.441 192.783,139.608 190.5,139.5C 182.677,138.344 174.677,138.177 166.5,139C 163.476,142.198 159.809,143.198 155.5,142C 153.536,140.549 152.203,138.716 151.5,136.5C 151.414,135.504 151.748,134.671 152.5,134C 164.833,133.333 177.167,133.333 189.5,134C 198.029,137.03 205.362,141.864 211.5,148.5 Z"/></g>
<g><path style="opacity:0.265" fill="#3c2e1f" d="M 114.5,58.5 C 102.2,56.1423 89.8668,55.9756 77.5,58C 64.6399,62.4647 60.4732,70.9647 65,83.5C 66.6554,87.3031 68.4888,90.9698 70.5,94.5C 69.9166,110.668 69.25,126.835 68.5,143C 68.5005,149.01 68.8338,154.843 69.5,160.5C 69.5,170.833 69.5,181.167 69.5,191.5C 69.9128,203.696 70.9128,215.696 72.5,227.5C 72.6686,232.181 73.0019,236.848 73.5,241.5C 75.223,252.116 76.5564,262.783 77.5,273.5C 76.3307,276.511 74.664,279.178 72.5,281.5C 70.8561,281.286 69.3561,281.62 68,282.5C 67.8333,282 67.6667,281.5 67.5,281C 68.5873,271.654 69.2539,262.32 69.5,253C 68.3716,249.059 67.0382,245.226 65.5,241.5C 65.763,236.289 65.763,231.122 65.5,226C 64.6766,223.373 64.0099,220.706 63.5,218C 64.2942,213.926 63.9609,209.926 62.5,206C 62.3932,202.734 62.7266,199.401 63.5,196C 63,195.5 62.5,195 62,194.5C 61.3333,177.833 61.3333,161.167 62,144.5C 62.5,144 63,143.5 63.5,143C 62.0096,142.255 61.0096,141.088 60.5,139.5C 61.3756,136.212 61.3756,132.712 60.5,129C 61.1667,126.667 61.8333,124.333 62.5,122C 61.9781,121.439 61.6448,120.772 61.5,120C 62.0415,115.853 63.0415,111.853 64.5,108C 63.9566,104.527 62.9566,101.194 61.5,98C 62.0814,97.1074 62.4148,96.1074 62.5,95C 59.8124,89.3826 57.8124,83.5492 56.5,77.5C 57.2982,63.8957 64.1315,55.8957 77,53.5C 77.772,53.6448 78.4387,53.9781 79,54.5C 80.7533,53.373 82.5866,52.373 84.5,51.5C 93.5404,52.9145 102.874,54.0812 112.5,55C 116.205,55.4217 116.872,56.5884 114.5,58.5 Z"/></g>
<g><path style="opacity:0.443" fill="#31251a" d="M 190.5,139.5 C 192.783,139.608 194.783,140.441 196.5,142C 201.2,146.336 206.2,150.169 211.5,153.5C 212.492,153.328 213.158,153.662 213.5,154.5C 208.138,157.695 203.971,162.029 201,167.5C 200.333,183.167 200.333,198.833 201,214.5C 201.717,215.044 202.217,215.711 202.5,216.5C 202.062,217.506 201.396,217.506 200.5,216.5C 199.833,216.5 199.5,216.167 199.5,215.5C 199.5,212.5 199.5,209.5 199.5,206.5C 200.731,197.671 199.064,196.671 194.5,203.5C 193.849,204.091 193.182,204.757 192.5,205.5C 191.083,199.364 188.917,199.031 186,204.5C 185.744,207.557 185.244,210.557 184.5,213.5C 184.709,214.086 185.043,214.586 185.5,215C 184.4,227.431 183.9,239.931 184,252.5C 185.529,253.729 186.696,255.229 187.5,257C 192.139,257.736 195.972,259.903 199,263.5C 199.333,263.167 199.667,262.833 200,262.5C 220.731,275.271 228.398,269.938 223,246.5C 220.77,241.107 217.27,236.774 212.5,233.5C 213.091,232.849 213.757,232.182 214.5,231.5C 213.185,229.684 211.685,228.017 210,226.5C 208.812,227.563 208.312,228.897 208.5,230.5C 205.703,230.033 204.369,228.367 204.5,225.5C 204.833,225.5 205.167,225.5 205.5,225.5C 206.9,224.9 207.9,223.9 208.5,222.5C 215.097,227.592 221.263,233.259 227,239.5C 227.333,240.5 227.667,241.5 228,242.5C 228.667,258.167 228.667,273.833 228,289.5C 226.462,294.189 224.295,298.522 221.5,302.5C 210.836,310.998 201.336,320.664 193,331.5C 188.006,338.841 184.839,346.841 183.5,355.5C 182.679,358.641 182.179,361.975 182,365.5C 181.501,361.179 181.334,356.846 181.5,352.5C 181.5,351.5 181.5,350.5 181.5,349.5C 176.411,348.316 171.244,347.316 166,346.5C 163.966,346.354 162.299,347.02 161,348.5C 160.339,353.558 160.672,358.558 162,363.5C 164.743,369.241 167.576,374.907 170.5,380.5C 170.565,380.938 170.399,381.272 170,381.5C 162.266,376.433 155.933,370.1 151,362.5C 145.207,365.646 139.374,368.646 133.5,371.5C 132.778,371.918 132.278,372.584 132,373.5C 131.536,372.906 131.369,372.239 131.5,371.5C 132.66,370.735 133.66,369.735 134.5,368.5C 132.924,363.708 129.591,361.375 124.5,361.5C 124.389,360.883 124.056,360.383 123.5,360C 125.388,357.867 127.055,355.701 128.5,353.5C 131.059,357.612 133.392,361.946 135.5,366.5C 138.026,367.51 140.192,366.843 142,364.5C 140.951,360.382 139.284,356.382 137,352.5C 134.833,351.512 133,350.179 131.5,348.5C 132.391,345.631 132.724,342.964 132.5,340.5C 134.781,341.207 136.948,342.207 139,343.5C 140.512,349.848 142.012,356.182 143.5,362.5C 146.505,362.747 149.005,361.747 151,359.5C 151.667,353.5 151.667,347.5 151,341.5C 143.182,338.844 135.348,336.51 127.5,334.5C 126.71,333.206 125.71,332.039 124.5,331C 125.044,330.283 125.711,329.783 126.5,329.5C 140.636,334.823 154.969,339.656 169.5,344C 173.449,345.184 177.449,345.518 181.5,345C 190.405,328.264 202.071,313.764 216.5,301.5C 224.202,295.407 227.202,287.407 225.5,277.5C 209.757,272.546 194.924,265.546 181,256.5C 180.591,223.161 179.925,189.828 179,156.5C 178.45,152.297 177.283,148.297 175.5,144.5C 172.472,148.361 169.639,152.361 167,156.5C 166.261,157.574 165.261,158.241 164,158.5C 157.75,155.079 152.25,150.746 147.5,145.5C 148.772,144.566 150.272,143.899 152,143.5C 155.598,145.646 159.432,147.313 163.5,148.5C 165.942,147.964 168.275,147.131 170.5,146C 169.939,144.434 170.606,143.101 172.5,142C 178.395,140.367 184.395,139.534 190.5,139.5 Z M 207.5,249.5 C 209.193,252.962 210.193,252.962 210.5,249.5C 209.5,249.5 208.5,249.5 207.5,249.5 Z"/></g>
<g><path style="opacity:0.033" fill="#4c3926" d="M 190.5,223.5 C 197.004,226.662 202.67,230.995 207.5,236.5C 214.616,238.958 218.949,243.958 220.5,251.5C 220.379,254.002 220.212,256.668 220,259.5C 217.529,264.67 213.696,265.837 208.5,263C 202.742,260.233 197.242,257.066 192,253.5C 190.022,250.405 188.522,247.072 187.5,243.5C 187.934,236.689 188.934,230.023 190.5,223.5 Z M 207.5,249.5 C 209.193,252.962 210.193,252.962 210.5,249.5C 209.5,249.5 208.5,249.5 207.5,249.5 Z"/></g>
<g><path style="opacity:0.985" fill="#ac6d54" d="M 212.5,233.5 C 211.178,233.33 210.011,233.663 209,234.5C 208.51,233.207 208.343,231.873 208.5,230.5C 208.312,228.897 208.812,227.563 210,226.5C 211.685,228.017 213.185,229.684 214.5,231.5C 213.757,232.182 213.091,232.849 212.5,233.5 Z"/></g>
<g><path style="opacity:0.989" fill="#ae6d54" d="M 199.5,215.5 C 199.5,216.167 199.833,216.5 200.5,216.5C 198.144,217.68 195.811,217.346 193.5,215.5C 194.757,213.321 196.257,211.321 198,209.5C 198.191,211.708 198.691,213.708 199.5,215.5 Z"/></g>
<g><path style="opacity:0.987" fill="#ab6b53" d="M 199.5,206.5 C 197.152,206.408 195.486,205.408 194.5,203.5C 199.064,196.671 200.731,197.671 199.5,206.5 Z"/></g>
<g><path style="opacity:0.982" fill="#ac6c53" d="M 198.5,187.5 C 199.473,189.948 199.806,192.615 199.5,195.5C 197.304,195.435 195.304,194.768 193.5,193.5C 195.19,191.481 196.856,189.481 198.5,187.5 Z"/></g>
<g><path style="opacity:0.982" fill="#ab6b53" d="M 197.5,176.5 C 199.388,178.988 200.055,181.988 199.5,185.5C 196.821,185.327 194.487,184.327 192.5,182.5C 194.19,180.481 195.856,178.481 197.5,176.5 Z"/></g>
<g><path style="opacity:0.984" fill="#af6e55" d="M 191.5,151.5 C 194.849,148.88 198.182,149.047 201.5,152C 202.667,153.167 203.833,154.333 205,155.5C 205.612,157.237 204.946,158.237 203,158.5C 200.811,156.452 198.311,155.119 195.5,154.5C 193.223,163.772 190.557,172.938 187.5,182C 192.249,188.453 190.582,192.286 182.5,193.5C 183.754,184.065 185.587,174.732 188,165.5C 191.035,161.437 192.202,156.771 191.5,151.5 Z"/></g>
<g><path style="opacity:0.979" fill="#aa6b52" d="M 200.5,161.5 C 201.043,161.56 201.376,161.893 201.5,162.5C 199.126,165.028 198.126,168.028 198.5,171.5C 196.286,171.709 194.619,170.876 193.5,169C 195.348,165.987 197.682,163.487 200.5,161.5 Z"/></g>
<g><path style="opacity:0.955" fill="#26211c" d="M 191.5,151.5 C 190.539,153.265 190.205,155.265 190.5,157.5C 188.641,157.539 187.308,156.706 186.5,155C 184.343,154.922 182.343,154.755 180.5,154.5C 179.574,150.906 179.241,147.24 179.5,143.5C 182.85,143.335 186.183,143.502 189.5,144C 191.113,146.228 191.78,148.728 191.5,151.5 Z"/></g>
<g><path style="opacity:0.918" fill="#a1664e" d="M 221.5,134.5 C 224.258,135.377 226.924,136.544 229.5,138C 225.471,142.835 222.137,142.335 219.5,136.5C 219.5,135.833 219.167,135.5 218.5,135.5C 218.804,133.204 219.804,132.871 221.5,134.5 Z"/></g>
<g><path style="opacity:0.207" fill="#403020" d="M 93.5,90.5 C 95.5952,91.412 97.5952,92.5787 99.5,94C 113.57,108.73 128.736,121.897 145,133.5C 151.483,131.227 158.316,129.227 165.5,127.5C 167.274,127.887 168.941,128.553 170.5,129.5C 171.192,128.975 171.692,128.308 172,127.5C 179.373,128.637 186.707,129.97 194,131.5C 198.505,131.35 202.505,133.017 206,136.5C 207.724,133.27 209.724,132.936 212,135.5C 212.689,134.643 213.522,133.977 214.5,133.5C 215.524,134.853 216.857,135.52 218.5,135.5C 219.167,135.5 219.5,135.833 219.5,136.5C 218.292,137.234 216.959,137.567 215.5,137.5C 215.5,138.5 215.5,139.5 215.5,140.5C 212.86,139.007 210.193,137.84 207.5,137C 209.888,139.629 211.888,142.462 213.5,145.5C 211.952,145.821 211.285,146.821 211.5,148.5C 205.362,141.864 198.029,137.03 189.5,134C 177.167,133.333 164.833,133.333 152.5,134C 151.748,134.671 151.414,135.504 151.5,136.5C 146.421,135.751 141.754,133.917 137.5,131C 128.514,124.013 120.181,116.347 112.5,108C 105.094,103.431 98.7604,97.5976 93.5,90.5 Z"/></g>
<g><path style="opacity:0.952" fill="#c29d73" d="M 70.5,94.5 C 75.8246,101.157 81.4913,107.49 87.5,113.5C 101.179,128.511 115.845,142.511 131.5,155.5C 129.365,157.369 126.698,158.036 123.5,157.5C 123.649,156.448 123.483,155.448 123,154.5C 120.56,155.271 118.06,155.438 115.5,155C 112.961,158.037 110.294,160.87 107.5,163.5C 104.949,160.964 105.616,159.298 109.5,158.5C 108.635,157.417 107.635,157.251 106.5,158C 103.77,161.459 103.104,161.126 104.5,157C 103.421,156.044 102.255,155.211 101,154.5C 99.3117,155.325 99.1451,156.325 100.5,157.5C 98.7536,158.395 96.9203,159.062 95,159.5C 93.078,157.895 91.9114,158.228 91.5,160.5C 84.2764,155.968 77.1098,151.302 70,146.5C 69.5008,151.155 69.3342,155.821 69.5,160.5C 68.8338,154.843 68.5005,149.01 68.5,143C 69.25,126.835 69.9166,110.668 70.5,94.5 Z"/></g>
<g><path style="opacity:0.348" fill="#3a2b1e" d="M 391.5,62.5 C 392.167,62.5 392.833,62.5 393.5,62.5C 405.86,65.546 408.36,72.2126 401,82.5C 394.167,90 387.333,97.5 380.5,105C 373.27,111.737 365.937,118.237 358.5,124.5C 344.998,135.833 331.331,146.999 317.5,158C 316.5,158.667 315.5,158.667 314.5,158C 311.045,153.589 307.711,149.089 304.5,144.5C 303.818,145.243 303.151,145.909 302.5,146.5C 302.5,145.5 302.5,144.5 302.5,143.5C 298.833,143.5 295.167,143.5 291.5,143.5C 289.36,142.032 287.194,140.365 285,138.5C 284.667,142.167 284.333,145.833 284,149.5C 283.329,148.748 282.496,148.414 281.5,148.5C 283.523,143.798 284.023,138.798 283,133.5C 276.415,129.458 269.915,125.291 263.5,121C 261.833,120.333 260.167,120.333 258.5,121C 251.833,125.667 245.167,130.333 238.5,135C 246.184,134.167 253.851,132.834 261.5,131C 264.167,130.333 266.833,130.333 269.5,131C 271.525,136.074 273.359,141.241 275,146.5C 275.798,148.259 275.631,149.926 274.5,151.5C 269.791,149.43 265.124,147.263 260.5,145C 259.978,144.439 259.645,143.772 259.5,143C 261.209,140.957 263.209,139.123 265.5,137.5C 267.941,139.022 268.607,141.022 267.5,143.5C 266.5,142.833 265.5,142.167 264.5,141.5C 263.479,142.002 263.312,142.668 264,143.5C 266.299,145.532 268.799,146.199 271.5,145.5C 270.497,141.492 269.497,137.492 268.5,133.5C 257.702,134.393 247.035,136.06 236.5,138.5C 235.883,138.389 235.383,138.056 235,137.5C 227.53,142.814 220.364,148.481 213.5,154.5C 213.158,153.662 212.492,153.328 211.5,153.5C 213.957,151.668 213.957,150.001 211.5,148.5C 211.285,146.821 211.952,145.821 213.5,145.5C 214.815,146.476 216.148,147.476 217.5,148.5C 218.833,147.833 219.833,146.833 220.5,145.5C 218.994,143.599 217.327,141.932 215.5,140.5C 215.5,139.5 215.5,138.5 215.5,137.5C 216.959,137.567 218.292,137.234 219.5,136.5C 222.137,142.335 225.471,142.835 229.5,138C 226.924,136.544 224.258,135.377 221.5,134.5C 221.577,133.25 222.244,132.417 223.5,132C 233.049,129.376 241.716,125.043 249.5,119C 259.913,113.851 269.579,115.018 278.5,122.5C 287.788,132.973 299.122,140.14 312.5,144C 319.094,145.696 324.427,144.029 328.5,139C 344.83,126.328 360.496,112.995 375.5,99C 377.952,98.7105 380.285,98.0438 382.5,97C 387.403,92.0915 391.57,86.5915 395,80.5C 395.436,78.1526 395.936,75.8193 396.5,73.5C 394.359,70.0328 392.692,66.3661 391.5,62.5 Z"/></g>
<g><path style="opacity:0.863" fill="#2e2622" d="M 245.5,145.5 C 250.182,145.875 251.516,148.208 249.5,152.5C 247.926,153.631 246.259,153.798 244.5,153C 243.083,150.257 243.416,147.757 245.5,145.5 Z"/></g>
<g><path style="opacity:0.256" fill="#382a1c" d="M 93.5,90.5 C 98.7604,97.5976 105.094,103.431 112.5,108C 120.181,116.347 128.514,124.013 137.5,131C 141.754,133.917 146.421,135.751 151.5,136.5C 152.203,138.716 153.536,140.549 155.5,142C 159.809,143.198 163.476,142.198 166.5,139C 174.677,138.177 182.677,138.344 190.5,139.5C 184.395,139.534 178.395,140.367 172.5,142C 170.606,143.101 169.939,144.434 170.5,146C 168.275,147.131 165.942,147.964 163.5,148.5C 159.432,147.313 155.598,145.646 152,143.5C 150.272,143.899 148.772,144.566 147.5,145.5C 136.209,136.878 125.209,127.878 114.5,118.5C 100.09,106.759 87.4235,93.4252 76.5,78.5C 76.369,77.7611 76.5357,77.0944 77,76.5C 78,77.8333 79,77.8333 80,76.5C 81.2396,79.412 82.9063,82.0787 85,84.5C 86.4907,86.0037 88.324,86.8371 90.5,87C 91.1634,88.5185 92.1634,89.6851 93.5,90.5 Z"/></g>
<g><path style="opacity:0.911" fill="#ad6e55" d="M 394.5,57.5 C 418.058,60.8015 423.225,72.4682 410,92.5C 409.501,96.1516 409.335,99.8183 409.5,103.5C 408.679,100.359 408.179,97.0252 408,93.5C 406.792,97.2 404.959,100.533 402.5,103.5C 395.451,110.88 388.451,118.214 381.5,125.5C 378.652,124.343 376.152,124.676 374,126.5C 374.148,125.175 373.982,124.008 373.5,123C 375.657,122.922 377.657,122.755 379.5,122.5C 377.446,117.622 374.779,117.456 371.5,122C 372.174,123.751 372.507,125.417 372.5,127C 372,127.167 371.5,127.333 371,127.5C 369.989,127.108 369.489,126.441 369.5,125.5C 368.742,126.811 367.742,127.311 366.5,127C 366.957,126.586 367.291,126.086 367.5,125.5C 365.614,124.594 363.78,123.594 362,122.5C 362.809,125.548 361.643,126.214 358.5,124.5C 365.937,118.237 373.27,111.737 380.5,105C 387.333,97.5 394.167,90 401,82.5C 408.36,72.2126 405.86,65.546 393.5,62.5C 393.714,60.8561 393.38,59.3561 392.5,58C 393.094,57.5357 393.761,57.369 394.5,57.5 Z"/></g>
<g><path style="opacity:0.977" fill="#b67258" d="M 114.5,118.5 C 125.209,127.878 136.209,136.878 147.5,145.5C 152.25,150.746 157.75,155.079 164,158.5C 165.261,158.241 166.261,157.574 167,156.5C 169.639,152.361 172.472,148.361 175.5,144.5C 177.283,148.297 178.45,152.297 179,156.5C 179.925,189.828 180.591,223.161 181,256.5C 194.924,265.546 209.757,272.546 225.5,277.5C 227.202,287.407 224.202,295.407 216.5,301.5C 199.645,294.408 182.978,286.742 166.5,278.5C 166.833,249.826 166.5,221.159 165.5,192.5C 164.893,192.624 164.56,192.957 164.5,193.5C 155.729,199.759 147.062,206.259 138.5,213C 134.584,216.41 131.251,220.243 128.5,224.5C 122.413,229.251 117.413,234.918 113.5,241.5C 113.167,241.5 112.833,241.5 112.5,241.5C 111.055,239.937 109.389,238.604 107.5,237.5C 111.334,231.176 115.667,225.176 120.5,219.5C 132.704,204.12 144.37,188.286 155.5,172C 148.403,165.277 140.403,159.777 131.5,155.5C 115.845,142.511 101.179,128.511 87.5,113.5C 88.8062,113.121 90.1395,112.788 91.5,112.5C 93.905,114.33 96.405,114.997 99,114.5C 100.583,112.007 102.083,112.174 103.5,115C 101.293,117.984 101.793,118.15 105,115.5C 107.175,116.255 109.341,117.088 111.5,118C 111.93,118.92 112.264,119.753 112.5,120.5C 113.182,119.757 113.849,119.091 114.5,118.5 Z"/></g>
<g><path style="opacity:0.02" fill="#523e29" d="M 208.5,94.5 C 208.897,93.475 209.563,93.3083 210.5,94C 209.906,94.4643 209.239,94.631 208.5,94.5 Z"/></g>
<g><path style="opacity:0.959" fill="#ae6e55" d="M 114.5,58.5 C 117.937,59.9448 121.603,60.9448 125.5,61.5C 125.423,62.7498 124.756,63.5831 123.5,64C 125.315,64.7568 126.981,65.5902 128.5,66.5C 121.499,65.0663 114.499,63.5663 107.5,62C 100.833,61.3333 94.1667,61.3333 87.5,62C 82.3318,62.834 78.1651,65.334 75,69.5C 74.4236,72.7715 74.9236,75.7715 76.5,78.5C 87.4235,93.4252 100.09,106.759 114.5,118.5C 113.849,119.091 113.182,119.757 112.5,120.5C 112.264,119.753 111.93,118.92 111.5,118C 109.341,117.088 107.175,116.255 105,115.5C 101.793,118.15 101.293,117.984 103.5,115C 102.083,112.174 100.583,112.007 99,114.5C 96.405,114.997 93.905,114.33 91.5,112.5C 90.1395,112.788 88.8062,113.121 87.5,113.5C 81.4913,107.49 75.8246,101.157 70.5,94.5C 68.4888,90.9698 66.6554,87.3031 65,83.5C 60.4732,70.9647 64.6399,62.4647 77.5,58C 89.8668,55.9756 102.2,56.1423 114.5,58.5 Z"/></g>
<g><path style="opacity:0.008" fill="#4f3d28" d="M 172.5,77.5 C 173.833,78.1667 173.833,78.1667 172.5,77.5 Z"/></g>
<g><path style="opacity:0.174" fill="#403020" d="M 93.5,90.5 C 92.1634,89.6851 91.1634,88.5185 90.5,87C 88.324,86.8371 86.4907,86.0037 85,84.5C 82.9063,82.0787 81.2396,79.412 80,76.5C 79,77.8333 78,77.8333 77,76.5C 76.5357,77.0944 76.369,77.7611 76.5,78.5C 74.9236,75.7715 74.4236,72.7715 75,69.5C 78.1651,65.334 82.3318,62.834 87.5,62C 94.1667,61.3333 100.833,61.3333 107.5,62C 114.499,63.5663 121.499,65.0663 128.5,66.5C 137.306,69.2715 146.306,70.4382 155.5,70C 165.436,63.4303 164.769,58.4303 153.5,55C 150.167,54.3333 146.833,54.3333 143.5,55C 139.867,57.65 135.867,59.4833 131.5,60.5C 128.833,60.5 126.167,60.5 123.5,60.5C 123.5,59.5 123.5,58.5 123.5,57.5C 121.801,57.6602 120.134,57.4935 118.5,57C 128.23,52.9024 138.23,49.7357 148.5,47.5C 153.75,47.8558 158.584,49.8558 163,53.5C 166.798,60.1741 166.298,66.3407 161.5,72C 157.088,73.1272 153.088,74.9605 149.5,77.5C 137.716,76.9671 126.716,73.4671 116.5,67C 110.858,66.2779 105.358,65.1112 100,63.5C 95.139,64.18 90.639,65.8467 86.5,68.5C 87.0253,69.1924 87.6919,69.6924 88.5,70C 86.9128,73.0271 85.2462,75.8604 83.5,78.5C 84.8221,78.33 85.9887,78.6634 87,79.5C 88.2305,82.7323 90.2305,85.3989 93,87.5C 93.4828,88.448 93.6495,89.448 93.5,90.5 Z"/></g>
<g><path style="opacity:0.929" fill="#b16f56" d="M 346.5,60.5 C 346.119,61.9311 345.119,62.7645 343.5,63C 343.833,63.3333 344.167,63.6667 344.5,64C 341.553,64.1118 340.22,65.6118 340.5,68.5C 335.317,70.3501 329.983,70.8501 324.5,70C 315.394,64.6957 315.394,59.6957 324.5,55C 328.926,54.2093 333.259,54.5427 337.5,56C 340.411,57.7611 343.411,59.2611 346.5,60.5 Z"/></g>
<g><path style="opacity:0.698" fill="#9f664d" d="M 375.5,56.5 C 382.022,56.1765 388.355,56.5098 394.5,57.5C 393.761,57.369 393.094,57.5357 392.5,58C 393.38,59.3561 393.714,60.8561 393.5,62.5C 392.833,62.5 392.167,62.5 391.5,62.5C 384.011,61.3443 376.345,61.1777 368.5,62C 359.375,65.0627 350.041,67.2294 340.5,68.5C 340.22,65.6118 341.553,64.1118 344.5,64C 344.167,63.6667 343.833,63.3333 343.5,63C 345.119,62.7645 346.119,61.9311 346.5,60.5C 348.288,60.9705 350.122,61.3038 352,61.5C 360.016,59.9985 367.85,58.3319 375.5,56.5 Z"/></g>
<g><path style="opacity:0.974" fill="#b37057" d="M 128.5,66.5 C 126.981,65.5902 125.315,64.7568 123.5,64C 124.756,63.5831 125.423,62.7498 125.5,61.5C 127.735,61.7947 129.735,61.4614 131.5,60.5C 135.867,59.4833 139.867,57.65 143.5,55C 146.833,54.3333 150.167,54.3333 153.5,55C 164.769,58.4303 165.436,63.4303 155.5,70C 146.306,70.4382 137.306,69.2715 128.5,66.5 Z"/></g>
<g><path style="opacity:0.039" fill="#4c3926" d="M 410.5,399.5 C 407.121,401.009 403.455,402.009 399.5,402.5C 400.797,404.367 402.297,404.7 404,403.5C 405.168,404.509 406.335,405.509 407.5,406.5C 411.982,404.216 416.649,402.549 421.5,401.5C 421.744,404.263 423.077,406.429 425.5,408C 425.167,408.333 424.833,408.667 424.5,409C 425.43,410.194 426.097,411.527 426.5,413C 424.68,414.807 423.513,416.973 423,419.5C 420.708,420.79 418.708,422.457 417,424.5C 416.275,423.941 415.442,423.608 414.5,423.5C 411.988,424.799 409.321,425.799 406.5,426.5C 401.561,426.415 396.561,425.748 391.5,424.5C 390.707,424.931 389.873,425.265 389,425.5C 387.629,424.419 386.129,423.585 384.5,423C 385.11,420.631 385.277,418.131 385,415.5C 389.905,411.902 394.739,408.402 399.5,405C 398.692,403.294 397.359,402.461 395.5,402.5C 395.918,401.778 396.584,401.278 397.5,401C 401.813,400.265 406.147,399.765 410.5,399.5 Z"/></g>
<g><path style="opacity:0.855" fill="#a86b53" d="M 447.5,397.5 C 449.863,401.612 450.03,405.945 448,410.5C 443.835,419.49 438.001,427.157 430.5,433.5C 422.062,439.146 412.728,442.313 402.5,443C 373.83,442.452 345.163,442.619 316.5,443.5C 316.908,442.357 317.575,441.357 318.5,440.5C 322.471,440.624 326.471,441.124 330.5,442C 331.271,439.423 332.271,436.923 333.5,434.5C 335.753,433.747 337.587,432.414 339,430.5C 341.179,432.637 343.679,432.971 346.5,431.5C 345.086,430.376 343.586,429.376 342,428.5C 340.795,426.466 340.628,424.466 341.5,422.5C 342.696,422.846 342.696,423.346 341.5,424C 343.101,424.273 344.601,424.773 346,425.5C 346.57,422.156 347.736,421.823 349.5,424.5C 350.258,423.189 351.258,422.689 352.5,423C 351.549,423.718 351.383,424.551 352,425.5C 353.667,424.833 355.333,424.167 357,423.5C 360.296,425.304 363.796,425.804 367.5,425C 364.536,424.16 364.203,423.16 366.5,422C 364.52,418.317 363.02,418.15 362,421.5C 360.053,418.754 357.886,416.754 355.5,415.5C 356.246,414.264 356.579,412.93 356.5,411.5C 352.533,409.517 348.533,407.517 344.5,405.5C 345.93,404.463 347.597,403.796 349.5,403.5C 352.049,403.613 354.382,402.946 356.5,401.5C 357.645,402.776 357.645,404.109 356.5,405.5C 358.078,406.298 359.744,406.798 361.5,407C 360.743,408.512 359.743,409.846 358.5,411C 360.917,412.144 361.584,413.81 360.5,416C 362.05,414.991 363.883,414.158 366,413.5C 368.992,413.734 371.159,415.068 372.5,417.5C 369.67,421.084 370.003,424.251 373.5,427C 392.077,435.74 410.411,435.407 428.5,426C 430.333,424.167 432.167,422.333 434,420.5C 433.109,417.489 432.276,414.323 431.5,411C 433.615,402.721 438.948,398.221 447.5,397.5 Z"/></g>
<g><path style="opacity:0.209" fill="#3e2e1f" d="M 442.5,385.5 C 448.208,385.492 448.541,385.992 443.5,387C 444.5,387.833 445.5,388.667 446.5,389.5C 445.167,390.5 443.833,391.5 442.5,392.5C 445.512,393.002 447.845,394.502 449.5,397C 448.906,397.464 448.239,397.631 447.5,397.5C 438.948,398.221 433.615,402.721 431.5,411C 432.276,414.323 433.109,417.489 434,420.5C 432.167,422.333 430.333,424.167 428.5,426C 410.411,435.407 392.077,435.74 373.5,427C 370.003,424.251 369.67,421.084 372.5,417.5C 378.108,409.205 385.775,404.205 395.5,402.5C 397.359,402.461 398.692,403.294 399.5,405C 394.739,408.402 389.905,411.902 385,415.5C 385.277,418.131 385.11,420.631 384.5,423C 386.129,423.585 387.629,424.419 389,425.5C 389.873,425.265 390.707,424.931 391.5,424.5C 396.561,425.748 401.561,426.415 406.5,426.5C 409.321,425.799 411.988,424.799 414.5,423.5C 415.442,423.608 416.275,423.941 417,424.5C 418.708,422.457 420.708,420.79 423,419.5C 423.513,416.973 424.68,414.807 426.5,413C 426.097,411.527 425.43,410.194 424.5,409C 424.833,408.667 425.167,408.333 425.5,408C 423.077,406.429 421.744,404.263 421.5,401.5C 416.649,402.549 411.982,404.216 407.5,406.5C 406.335,405.509 405.168,404.509 404,403.5C 402.297,404.7 400.797,404.367 399.5,402.5C 403.455,402.009 407.121,401.009 410.5,399.5C 414.032,399.69 417.365,399.023 420.5,397.5C 428.692,395.071 436.025,391.071 442.5,385.5 Z"/></g>
<g><path style="opacity:0.932" fill="#b17157" d="M 344.5,405.5 C 348.533,407.517 352.533,409.517 356.5,411.5C 356.579,412.93 356.246,414.264 355.5,415.5C 357.886,416.754 360.053,418.754 362,421.5C 363.02,418.15 364.52,418.317 366.5,422C 364.203,423.16 364.536,424.16 367.5,425C 363.796,425.804 360.296,425.304 357,423.5C 355.333,424.167 353.667,424.833 352,425.5C 351.383,424.551 351.549,423.718 352.5,423C 351.258,422.689 350.258,423.189 349.5,424.5C 347.736,421.823 346.57,422.156 346,425.5C 344.601,424.773 343.101,424.273 341.5,424C 342.696,423.346 342.696,422.846 341.5,422.5C 340.628,424.466 340.795,426.466 342,428.5C 343.586,429.376 345.086,430.376 346.5,431.5C 343.679,432.971 341.179,432.637 339,430.5C 337.587,432.414 335.753,433.747 333.5,434.5C 332.271,436.923 331.271,439.423 330.5,442C 326.471,441.124 322.471,440.624 318.5,440.5C 317.575,441.357 316.908,442.357 316.5,443.5C 303.97,445.059 291.636,444.726 279.5,442.5C 280.873,442.657 282.207,442.49 283.5,442C 275.172,439.364 269.172,434.198 265.5,426.5C 265.007,421.774 266.34,417.774 269.5,414.5C 269.954,421.467 273.62,425.967 280.5,428C 286.167,428.667 291.833,428.667 297.5,428C 302.977,426.396 308.311,424.396 313.5,422C 323.722,416.275 334.055,410.775 344.5,405.5 Z"/></g>
<g><path style="opacity:0.008" fill="#4f3d28" d="M 446.5,441.5 C 447.833,442.167 447.833,442.167 446.5,441.5 Z"/></g>
<g><path style="opacity:0.259" fill="#3c2d1e" d="M 181.5,352.5 C 181.334,356.846 181.501,361.179 182,365.5C 182.179,361.975 182.679,358.641 183.5,355.5C 182.274,369.964 186.274,382.63 195.5,393.5C 206.792,404.285 219.125,413.785 232.5,422C 242.065,426.564 251.398,431.564 260.5,437C 266.661,439.53 272.994,441.363 279.5,442.5C 291.636,444.726 303.97,445.059 316.5,443.5C 345.163,442.619 373.83,442.452 402.5,443C 412.728,442.313 422.062,439.146 430.5,433.5C 432.433,433.729 434.1,434.562 435.5,436C 431.49,437.186 428.157,439.353 425.5,442.5C 421.585,443.957 417.585,445.124 413.5,446C 412.845,447.487 411.845,448.653 410.5,449.5C 402.39,450.657 394.556,450.657 387,449.5C 386.333,450.167 385.667,450.833 385,451.5C 384.044,450.106 382.711,449.439 381,449.5C 366.036,450.42 351.036,450.753 336,450.5C 333.476,449.896 330.976,449.229 328.5,448.5C 326.998,449.083 325.665,449.916 324.5,451C 311.5,451.667 298.5,451.667 285.5,451C 275.954,449.821 266.787,446.988 258,442.5C 257.667,442.833 257.333,443.167 257,443.5C 256.667,442.5 256.333,441.5 256,440.5C 255.667,440.833 255.333,441.167 255,441.5C 251.075,439.249 247.408,436.583 244,433.5C 243.586,433.957 243.086,434.291 242.5,434.5C 232.46,429.295 222.793,423.461 213.5,417C 213.833,416.667 214.167,416.333 214.5,416C 212.559,414.097 210.226,413.264 207.5,413.5C 207.5,412.167 207.5,410.833 207.5,409.5C 204.115,409.975 201.782,408.642 200.5,405.5C 198.877,406.476 197.543,405.976 196.5,404C 186.282,399.283 175.615,395.617 164.5,393C 157.858,389.793 151.025,386.959 144,384.5C 143.667,384.833 143.333,385.167 143,385.5C 136.608,381.875 130.108,378.542 123.5,375.5C 124.388,373.191 126.054,371.524 128.5,370.5C 129.417,371.127 130.417,371.461 131.5,371.5C 131.369,372.239 131.536,372.906 132,373.5C 132.278,372.584 132.778,371.918 133.5,371.5C 133.369,372.376 133.702,373.043 134.5,373.5C 149.092,379.144 163.758,384.477 178.5,389.5C 181.883,391.275 185.55,392.608 189.5,393.5C 190.167,393.167 190.833,392.833 191.5,392.5C 182.692,380.439 179.359,367.106 181.5,352.5 Z"/></g>
</svg>
