<?xml version="1.0" encoding="UTF-8"?>
<!DOCTYPE svg PUBLIC "-//W3C//DTD SVG 1.1//EN" "http://www.w3.org/Graphics/SVG/1.1/DTD/svg11.dtd">
<svg xmlns="http://www.w3.org/2000/svg" version="1.1" width="500px" height="500px" style="shape-rendering:geometricPrecision; text-rendering:geometricPrecision; image-rendering:optimizeQuality; fill-rule:evenodd; clip-rule:evenodd" xmlns:xlink="http://www.w3.org/1999/xlink">
<g><path style="opacity:0.03" fill="#4e3a27" d="M 402.5,364.5 C 402.167,363.167 401.833,363.167 401.5,364.5C 400.167,364.833 400.167,365.167 401.5,365.5C 400.992,367.233 400.159,367.566 399,366.5C 396.382,371.443 393.382,376.11 390,380.5C 387.282,382.069 385.115,384.736 383.5,388.5C 383.028,393.14 381.028,397.473 377.5,401.5C 378.776,402.645 380.109,402.645 381.5,401.5C 382.197,403.385 383.197,403.718 384.5,402.5C 389.723,403.778 394.39,406.112 398.5,409.5C 399.642,411.378 400.642,413.212 401.5,415C 404.833,417 408.167,419 411.5,421C 410.434,422.159 410.767,422.992 412.5,423.5C 414.696,424.854 416.196,426.854 417,429.5C 419.255,437.947 418.921,446.28 416,454.5C 414.442,456.768 412.276,457.934 409.5,458C 398.944,457.934 388.444,459.101 378,461.5C 369.861,459.743 361.694,459.41 353.5,460.5C 348.827,459.713 344.16,458.88 339.5,458C 325.5,457.667 311.5,457.333 297.5,457C 291.933,456.752 286.6,455.585 281.5,453.5C 281.568,449.801 280.068,447.135 277,445.5C 272.336,447.33 268.003,449.663 264,452.5C 263.586,452.043 263.086,451.709 262.5,451.5C 255.748,454.938 248.748,455.438 241.5,453C 237.02,450.346 232.52,447.846 228,445.5C 226.893,445.585 225.893,445.919 225,446.5C 224.394,449.548 222.894,452.048 220.5,454C 216.637,455.63 212.304,456.63 207.5,457C 196.987,457.692 186.487,457.525 176,456.5C 171.762,456.714 167.595,457.381 163.5,458.5C 162.446,458.32 161.446,457.987 160.5,457.5C 157.618,459.02 154.618,460.353 151.5,461.5C 149.121,460.43 146.621,459.763 144,459.5C 138.508,460.232 133.008,460.898 127.5,461.5C 121.148,460.663 114.815,459.663 108.5,458.5C 89.7552,461.246 82.5886,453.246 87,434.5C 88.6955,425.126 93.8622,418.293 102.5,414C 104.795,410.703 107.462,407.703 110.5,405C 115.31,403.05 120.31,401.884 125.5,401.5C 120.983,388.805 114.15,377.471 105,367.5C 98.6359,360.801 91.9692,354.468 85,348.5C 69.2465,328.286 59.7465,305.953 56.5,281.5C 55.0835,275.309 53.4168,269.142 51.5,263C 52.0195,260.974 52.3528,258.974 52.5,257C 50.8953,254.267 49.8953,251.267 49.5,248C 45.3288,205.276 46.8288,162.776 54,120.5C 54.3317,116.653 55.4984,113.153 57.5,110C 56.9781,109.439 56.6448,108.772 56.5,108C 57.23,105.184 57.8966,102.35 58.5,99.5C 61.5444,84.0583 67.711,68.725 77,53.5C 80.799,48.6994 84.9657,44.1994 89.5,40C 113.818,30.3782 123.318,38.2115 118,63.5C 108.283,88.5526 103.783,114.553 104.5,141.5C 104.839,160.401 107.006,179.067 111,197.5C 111.833,198.333 112.667,199.167 113.5,200C 118.184,200.35 122.851,200.85 127.5,201.5C 128.5,201.167 129.5,200.833 130.5,200.5C 131.483,196.049 133.15,191.882 135.5,188C 139.77,186.553 143.937,185.053 148,183.5C 149.797,172.385 152.13,161.385 155,150.5C 156.543,148.622 158.376,147.122 160.5,146C 164.832,145.084 169.165,144.251 173.5,143.5C 177.17,133.331 181.337,123.331 186,113.5C 187.543,111.622 189.376,110.122 191.5,109C 197.549,108.11 203.549,107.11 209.5,106C 214.957,98.2533 220.29,90.42 225.5,82.5C 236.667,69.6948 250.334,66.1948 266.5,72C 272.95,76.136 278.117,80.9693 282,86.5C 286.13,93.2614 290.63,99.7614 295.5,106C 302.809,107.166 310.142,108.333 317.5,109.5C 322.301,120.936 326.967,132.436 331.5,144C 335.894,144.303 340.227,144.97 344.5,146C 348.867,148.555 351.367,152.388 352,157.5C 353.456,166.238 355.122,174.904 357,183.5C 360.213,185.286 363.713,186.452 367.5,187C 368.667,188.167 369.833,189.333 371,190.5C 372.202,194.666 373.702,198.666 375.5,202.5C 380.706,200.98 386.039,200.147 391.5,200C 393.317,198.2 394.484,196.034 395,193.5C 401.933,159.568 402.266,125.568 396,91.5C 393.061,80.6849 389.728,70.0182 386,59.5C 382.691,38.4816 391.524,31.6483 412.5,39C 415.333,41.8333 418.167,44.6667 421,47.5C 421.333,47.1667 421.667,46.8333 422,46.5C 423.974,49.4668 426.474,52.6335 429.5,56C 429.043,56.414 428.709,56.914 428.5,57.5C 429.605,58.8924 430.939,60.059 432.5,61C 432.043,61.414 431.709,61.914 431.5,62.5C 432.894,65.0297 434.561,67.363 436.5,69.5C 441.066,82.0928 445.066,95.2595 448.5,109C 447.3,110.703 447.633,112.203 449.5,113.5C 449.167,114.167 448.833,114.833 448.5,115.5C 450.408,122.381 452.075,129.381 453.5,136.5C 454.183,140.549 454.183,144.716 453.5,149C 454,149.5 454.5,150 455,150.5C 456.602,163.711 457.102,176.877 456.5,190C 457.302,195.1 457.969,200.266 458.5,205.5C 457.679,224.454 455.846,242.788 453,260.5C 450.372,282.635 444.372,304.302 435,325.5C 433.152,327.018 431.652,328.851 430.5,331C 430.833,331.333 431.167,331.667 431.5,332C 428.868,336.628 425.535,340.628 421.5,344C 421.833,344.333 422.167,344.667 422.5,345C 417.423,350.167 412.09,354.833 406.5,359C 406.257,361.275 404.924,363.108 402.5,364.5 Z"/></g>
<g><path style="opacity:0.017" fill="#513c29" d="M 251.5,57.5 C 254.861,58.2032 255.194,59.5365 252.5,61.5C 250.358,60.5629 250.024,59.2296 251.5,57.5 Z"/></g>
<g><path style="opacity:0.02" fill="#523e2a" d="M 440.5,65.5 C 442.423,67.2014 442.757,69.2014 441.5,71.5C 440.135,69.4464 439.801,67.4464 440.5,65.5 Z"/></g>
<g><path style="opacity:0.014" fill="#523e2a" d="M 63.5,65.5 C 64.8946,67.8473 64.7279,70.1806 63,72.5C 61.6605,70.2341 61.8271,67.9007 63.5,65.5 Z"/></g>
<g><path style="opacity:0.117" fill="#463423" d="M 106.5,48.5 C 107.375,50.5681 108.541,52.5681 110,54.5C 110.215,58.7637 110.382,62.9304 110.5,67C 105.399,78.2282 102.733,89.8949 102.5,102C 101.06,111.459 99.7267,120.959 98.5,130.5C 99.1667,133.167 99.8333,135.833 100.5,138.5C 99.4147,147.453 99.4147,156.787 100.5,166.5C 101.517,178.638 103.35,190.638 106,202.5C 108.066,204.851 109.9,207.351 111.5,210C 114.098,209.578 116.764,209.578 119.5,210C 118.748,210.671 118.414,211.504 118.5,212.5C 118.204,214.403 117.537,216.07 116.5,217.5C 113.128,218.663 110.128,217.829 107.5,215C 104.694,211.886 102.527,208.386 101,204.5C 93.4037,171.682 91.737,138.349 96,104.5C 97.8806,89.7273 99.714,75.0606 101.5,60.5C 103.175,56.466 104.842,52.466 106.5,48.5 Z"/></g>
<g><path style="opacity:0.118" fill="#403121" d="M 383.5,218.5 C 383.336,226.001 382.336,233.334 380.5,240.5C 379.153,241.171 377.986,241.171 377,240.5C 376.812,247.213 375.145,253.547 372,259.5C 370.667,261.5 369,263.167 367,264.5C 366.617,263.944 366.117,263.611 365.5,263.5C 365.799,261.396 365.466,259.396 364.5,257.5C 362.915,259.706 361.415,262.039 360,264.5C 354.268,270.725 348.768,277.058 343.5,283.5C 342.5,283.5 341.5,283.5 340.5,283.5C 340.5,282.167 340.5,280.833 340.5,279.5C 342.075,276.418 344.242,273.751 347,271.5C 348.122,269.593 348.955,267.593 349.5,265.5C 349.833,264.167 350.167,262.833 350.5,261.5C 351.117,261.389 351.617,261.056 352,260.5C 353.647,254.247 354.814,247.913 355.5,241.5C 355.5,240.167 355.5,238.833 355.5,237.5C 356.117,237.389 356.617,237.056 357,236.5C 357.667,223.5 357.667,210.5 357,197.5C 353.769,201.911 349.603,204.911 344.5,206.5C 343.391,206.443 342.391,206.11 341.5,205.5C 340.904,191.734 339.404,178.067 337,164.5C 336.647,161.848 335.48,159.848 333.5,158.5C 333.631,157.624 333.298,156.957 332.5,156.5C 327.762,156.215 323.929,154.215 321,150.5C 318.266,142.209 314.933,134.209 311,126.5C 309.5,125 308,123.5 306.5,122C 305.563,121.308 304.897,121.475 304.5,122.5C 303.262,121.588 301.928,121.421 300.5,122C 296.752,124.624 292.919,127.124 289,129.5C 281.696,118.031 274.196,106.698 266.5,95.5C 262.233,90.877 257.566,86.877 252.5,83.5C 246.938,86.5566 242.105,90.5566 238,95.5C 230.833,106.667 223.667,117.833 216.5,129C 211.854,126.838 207.187,124.338 202.5,121.5C 194.12,134.613 188.786,148.946 186.5,164.5C 186.167,165.167 185.833,165.833 185.5,166.5C 180.395,164.113 175.395,161.446 170.5,158.5C 169.3,160.771 168.3,163.104 167.5,165.5C 164.832,166.457 163.332,168.457 163,171.5C 162.18,178.933 160.847,186.267 159,193.5C 157.027,196.402 154.527,198.736 151.5,200.5C 150.518,199.859 149.518,199.193 148.5,198.5C 147.692,200.423 147.192,202.423 147,204.5C 146.333,214.167 146.333,223.833 147,233.5C 147.2,235.32 148.034,236.653 149.5,237.5C 149.5,238.833 149.5,240.167 149.5,241.5C 149.196,242.15 148.863,242.817 148.5,243.5C 150.535,249.523 152.202,255.523 153.5,261.5C 154.167,262.5 154.833,263.5 155.5,264.5C 154.938,266.496 155.438,268.496 157,270.5C 159.335,273.665 161.835,276.665 164.5,279.5C 164.446,281.632 163.446,282.965 161.5,283.5C 157.578,278.072 153.078,273.072 148,268.5C 145.006,265.18 142.506,261.513 140.5,257.5C 139.52,260.086 139.187,262.753 139.5,265.5C 136.563,263.733 134.063,261.4 132,258.5C 129.382,250.335 127.548,242.002 126.5,233.5C 125.5,233.5 124.5,233.5 123.5,233.5C 123.737,232.209 123.404,231.209 122.5,230.5C 121.482,225.016 120.816,219.349 120.5,213.5C 122.079,211.354 124.079,211.188 126.5,213C 129.287,215.026 130.953,217.36 131.5,220C 132.448,220.483 133.448,220.649 134.5,220.5C 135.668,217.496 135.668,214.496 134.5,211.5C 135.719,207.395 137.219,203.395 139,199.5C 143.585,195.787 148.085,191.954 152.5,188C 154.113,178.713 156.28,169.546 159,160.5C 162.563,155.249 167.396,152.082 173.5,151C 175.333,149.833 177.167,148.667 179,147.5C 181.23,143.038 182.897,138.372 184,133.5C 187.068,129.554 189.401,125.22 191,120.5C 195.037,115.703 199.704,113.703 205,114.5C 208.32,113.832 211.487,112.665 214.5,111C 220.051,102.432 226.051,94.099 232.5,86C 233.5,85.6667 234.5,85.3333 235.5,85C 236.833,82.3333 238.833,80.3333 241.5,79C 245.359,78.3025 249.192,77.4691 253,76.5C 257.713,77.2687 262.213,78.7687 266.5,81C 269.317,84.3178 272.317,87.4845 275.5,90.5C 280.695,97.5285 285.695,104.695 290.5,112C 294.882,114.888 299.549,115.888 304.5,115C 307.171,116.544 310.004,117.71 313,118.5C 318.884,128.307 323.717,138.64 327.5,149.5C 331.263,151.557 335.263,153.057 339.5,154C 342.953,155.728 344.786,158.562 345,162.5C 345.333,161.833 345.667,161.167 346,160.5C 348.875,169.646 350.875,178.979 352,188.5C 355.469,192.469 359.635,195.469 364.5,197.5C 365.824,199.828 367.157,202.161 368.5,204.5C 368.291,205.086 367.957,205.586 367.5,206C 368.67,209.897 369.836,213.397 371,216.5C 372.388,217.554 373.888,217.72 375.5,217C 378.086,213.701 381.086,211.368 384.5,210C 383.5,211 382.5,212 381.5,213C 383.192,214.401 383.859,216.234 383.5,218.5 Z"/></g>
<g><path style="opacity:0.937" fill="#323839" d="M 105.5,48.5 C 105.833,48.5 106.167,48.5 106.5,48.5C 104.842,52.466 103.175,56.466 101.5,60.5C 95.0385,74.3457 91.3719,89.0124 90.5,104.5C 89.0256,105.436 88.0256,106.77 87.5,108.5C 84.3166,113.374 81.3166,118.374 78.5,123.5C 77.5973,115.341 76.5973,107.341 75.5,99.5C 78.72,86.486 84.0534,74.486 91.5,63.5C 96.1387,58.5261 100.805,53.5261 105.5,48.5 Z"/></g>
<g><path style="opacity:0.944" fill="#32393a" d="M 400.5,49.5 C 415.084,63.6635 424.75,80.6635 429.5,100.5C 428.266,107.991 427.266,115.657 426.5,123.5C 423.544,119.237 420.878,114.904 418.5,110.5C 417.752,108.668 416.752,107.001 415.5,105.5C 413.598,94.1679 411.098,82.8345 408,71.5C 406.295,66.1926 404.129,61.1926 401.5,56.5C 400.828,53.6572 399.495,51.1572 397.5,49C 398.577,48.5304 399.577,48.6971 400.5,49.5 Z"/></g>
<g><path style="opacity:0.352" fill="#392c1d" d="M 401.5,56.5 C 404.129,61.1926 406.295,66.1926 408,71.5C 411.098,82.8345 413.598,94.1679 415.5,105.5C 414.876,105.917 414.543,106.584 414.5,107.5C 417.588,136.647 416.588,165.647 411.5,194.5C 410.168,200.494 408.835,206.494 407.5,212.5C 406.5,212.5 405.5,212.5 404.5,212.5C 403.021,220.455 399.688,227.455 394.5,233.5C 391.453,229.043 389.453,224.043 388.5,218.5C 393.403,215.837 397.237,211.837 400,206.5C 404.875,194.023 407.042,181.19 406.5,168C 409.426,150.791 409.76,133.291 407.5,115.5C 408.083,111.585 407.75,107.585 406.5,103.5C 407.495,100.761 407.162,98.0945 405.5,95.5C 405.833,94.8333 406.167,94.1667 406.5,93.5C 403.521,84.2519 400.855,74.9185 398.5,65.5C 398.914,62.2025 399.914,59.2025 401.5,56.5 Z"/></g>
<g><path style="opacity:0.008" fill="#503d28" d="M 392.5,119.5 C 393.833,120.167 393.833,120.167 392.5,119.5 Z"/></g>
<g><path style="opacity:0.008" fill="#503d28" d="M 392.5,122.5 C 393.833,123.167 393.833,123.167 392.5,122.5 Z"/></g>
<g><path style="opacity:0.258" fill="#36291b" d="M 333.5,158.5 C 329.075,161.379 324.408,163.713 319.5,165.5C 318.833,165.5 318.5,165.167 318.5,164.5C 316.57,157.207 314.737,149.874 313,142.5C 309.879,135.928 307.045,129.261 304.5,122.5C 304.897,121.475 305.563,121.308 306.5,122C 308,123.5 309.5,125 311,126.5C 314.933,134.209 318.266,142.209 321,150.5C 323.929,154.215 327.762,156.215 332.5,156.5C 333.298,156.957 333.631,157.624 333.5,158.5 Z"/></g>
<g><path style="opacity:0.971" fill="#b7a98d" d="M 75.5,99.5 C 76.5973,107.341 77.5973,115.341 78.5,123.5C 81.3166,118.374 84.3166,113.374 87.5,108.5C 88.0431,108.56 88.3764,108.893 88.5,109.5C 83.6236,127.505 80.6236,145.839 79.5,164.5C 78.6753,168.647 78.1753,172.981 78,177.5C 75.6575,175.378 73.1575,173.378 70.5,171.5C 69.5,172 68.5,172.5 67.5,173C 69.2464,173.471 70.913,174.138 72.5,175C 71.5,175.333 70.5,175.667 69.5,176C 70.1905,177.067 70.6905,178.234 71,179.5C 71.8928,178.289 72.7261,178.289 73.5,179.5C 72.9747,180.192 72.3081,180.692 71.5,181C 72.9565,182.697 74.6232,184.197 76.5,185.5C 77.5827,186.365 77.7494,187.365 77,188.5C 73.2389,185.695 70.7389,186.695 69.5,191.5C 67.8366,192.875 66.5032,192.542 65.5,190.5C 64.5046,184.872 64.1712,179.206 64.5,173.5C 65.5668,148.362 69.2334,123.696 75.5,99.5 Z"/></g>
<g><path style="opacity:0.975" fill="#827c72" d="M 304.5,122.5 C 307.045,129.261 309.879,135.928 313,142.5C 314.737,149.874 316.57,157.207 318.5,164.5C 311.113,161.769 303.446,160.435 295.5,160.5C 295.02,155.47 294.353,150.47 293.5,145.5C 296.89,144.977 300.223,144.143 303.5,143C 299.812,142.55 296.146,142.717 292.5,143.5C 292.946,138.873 291.279,135.707 287.5,134C 290.517,144.928 292.184,156.094 292.5,167.5C 288.796,167.724 285.129,167.89 281.5,168C 279.606,163.448 276.939,159.448 273.5,156C 266.778,151.265 259.611,147.431 252,144.5C 243.689,148.139 235.856,152.639 228.5,158C 226.735,161.14 225.068,164.306 223.5,167.5C 219.93,167.909 216.264,167.909 212.5,167.5C 212.763,155.976 213.929,144.642 216,133.5C 213.135,136.228 211.635,139.562 211.5,143.5C 209.09,142.611 206.59,141.945 204,141.5C 202.833,141.833 201.667,142.167 200.5,142.5C 204.064,144.115 207.73,145.448 211.5,146.5C 210.48,151.19 209.48,155.857 208.5,160.5C 200.964,160.886 193.63,162.219 186.5,164.5C 188.786,148.946 194.12,134.613 202.5,121.5C 207.187,124.338 211.854,126.838 216.5,129C 223.667,117.833 230.833,106.667 238,95.5C 242.105,90.5566 246.938,86.5566 252.5,83.5C 257.566,86.877 262.233,90.877 266.5,95.5C 274.196,106.698 281.696,118.031 289,129.5C 292.919,127.124 296.752,124.624 300.5,122C 301.928,121.421 303.262,121.588 304.5,122.5 Z"/></g>
<g><path style="opacity:0.009" fill="#503d28" d="M 142.5,150.5 C 144.973,150.947 145.14,151.947 143,153.5C 142.517,152.552 142.351,151.552 142.5,150.5 Z"/></g>
<g><path style="opacity:0.013" fill="#503d28" d="M 360.5,150.5 C 362.337,150.639 362.67,151.306 361.5,152.5C 360.702,152.043 360.369,151.376 360.5,150.5 Z"/></g>
<g><path style="opacity:0.013" fill="#513e29" d="M 135.5,152.5 C 137.088,153.635 137.421,154.969 136.5,156.5C 135.571,155.311 135.238,153.978 135.5,152.5 Z"/></g>
<g><path style="opacity:0.013" fill="#513e29" d="M 368.5,152.5 C 369.797,153.849 369.63,155.182 368,156.5C 367.805,155.181 367.972,153.847 368.5,152.5 Z"/></g>
<g><path style="opacity:0.261" fill="#372a1c" d="M 101.5,60.5 C 99.714,75.0606 97.8806,89.7273 96,104.5C 91.737,138.349 93.4037,171.682 101,204.5C 102.527,208.386 104.694,211.886 107.5,215C 110.128,217.829 113.128,218.663 116.5,217.5C 115.291,223.509 112.957,228.842 109.5,233.5C 105.187,226.524 101.187,219.524 97.5,212.5C 96.6988,208.765 95.6988,205.099 94.5,201.5C 88.5536,169.399 87.2203,137.066 90.5,104.5C 91.3719,89.0124 95.0385,74.3457 101.5,60.5 Z"/></g>
<g><path style="opacity:0.985" fill="#858076" d="M 185.5,166.5 C 188.081,177.157 192.414,186.99 198.5,196C 197.983,198.077 197.316,200.077 196.5,202C 191.167,202.333 185.833,202.667 180.5,203C 180,203.5 179.5,204 179,204.5C 178.164,209.513 177.331,214.513 176.5,219.5C 174.61,219.703 173.11,219.037 172,217.5C 169.403,213.295 166.569,209.295 163.5,205.5C 163.517,192.029 164.851,178.696 167.5,165.5C 168.3,163.104 169.3,160.771 170.5,158.5C 175.395,161.446 180.395,164.113 185.5,166.5 Z"/></g>
<g><path style="opacity:0.986" fill="#858076" d="M 333.5,158.5 C 335.48,159.848 336.647,161.848 337,164.5C 339.404,178.067 340.904,191.734 341.5,205.5C 337.992,210.468 333.992,215.134 329.5,219.5C 327.658,213.883 325.658,208.383 323.5,203C 318.177,202.501 312.844,202.334 307.5,202.5C 306.992,199.824 306.825,197.157 307,194.5C 313.024,185.583 317.19,175.917 319.5,165.5C 324.408,163.713 329.075,161.379 333.5,158.5 Z"/></g>
<g><path style="opacity:0.954" fill="#958666" d="M 90.5,104.5 C 87.2203,137.066 88.5536,169.399 94.5,201.5C 93.8592,199.958 92.8592,198.624 91.5,197.5C 90.5457,213.902 91.379,230.235 94,246.5C 96.7975,255.091 99.2975,263.758 101.5,272.5C 102.102,278.094 102.268,283.761 102,289.5C 103.352,296.377 105.185,303.044 107.5,309.5C 97.4791,294.788 90.1458,278.788 85.5,261.5C 85.5184,257.044 83.8518,253.377 80.5,250.5C 81.4147,249.672 82.0814,248.672 82.5,247.5C 81.507,243.209 80.8403,238.876 80.5,234.5C 79.0222,234.762 77.6888,234.429 76.5,233.5C 77.325,232.614 78.325,232.281 79.5,232.5C 78.1837,209.834 78.1837,187.167 79.5,164.5C 80.6236,145.839 83.6236,127.505 88.5,109.5C 88.3764,108.893 88.0431,108.56 87.5,108.5C 88.0256,106.77 89.0256,105.436 90.5,104.5 Z"/></g>
<g><path style="opacity:0.26" fill="#3a2c1e" d="M 91.5,63.5 C 84.0534,74.486 78.72,86.486 75.5,99.5C 69.2334,123.696 65.5668,148.362 64.5,173.5C 61.7492,203.511 63.0826,233.511 68.5,263.5C 68.5299,264.497 68.0299,265.164 67,265.5C 65.4936,263.672 63.8269,263.338 62,264.5C 60.143,262.053 60.3096,259.887 62.5,258C 60.0882,254.253 58.7549,250.419 58.5,246.5C 59.4189,241.171 58.7522,236.004 56.5,231C 56.2809,227.971 56.6142,224.804 57.5,221.5C 56.6003,219.068 55.9337,216.568 55.5,214C 55.6356,208.61 55.6356,203.277 55.5,198C 57.3652,194.671 57.3652,191.171 55.5,187.5C 55.9767,186.522 56.6433,185.689 57.5,185C 56.7326,180.653 56.3992,176.319 56.5,172C 57.6254,170.037 58.9587,168.204 60.5,166.5C 59.4232,158.864 60.0899,151.364 62.5,144C 62.2795,142.201 61.9461,140.368 61.5,138.5C 63.5657,129.865 65.3991,121.198 67,112.5C 67.9961,110.256 69.4961,108.423 71.5,107C 70.8333,106.667 70.1667,106.333 69.5,106C 71.1181,98.526 73.1181,90.8593 75.5,83C 78.0529,78.7997 80.5529,74.633 83,70.5C 85.3539,67.9873 88.1872,65.654 91.5,63.5 Z"/></g>
<g><path style="opacity:0.945" fill="#afa185" d="M 79.5,164.5 C 78.1837,187.167 78.1837,209.834 79.5,232.5C 78.325,232.281 77.325,232.614 76.5,233.5C 77.6888,234.429 79.0222,234.762 80.5,234.5C 80.8403,238.876 81.507,243.209 82.5,247.5C 82.0814,248.672 81.4147,249.672 80.5,250.5C 83.8518,253.377 85.5184,257.044 85.5,261.5C 84.2921,260.766 82.9587,260.433 81.5,260.5C 81.6495,259.448 81.4828,258.448 81,257.5C 79.2342,259.596 77.9009,261.929 77,264.5C 76.3457,263.304 75.8457,263.304 75.5,264.5C 78.1306,266.005 77.7973,266.671 74.5,266.5C 74.0435,269.406 73.0435,272.072 71.5,274.5C 70.5933,272.343 69.9267,270.01 69.5,267.5C 69.7678,265.901 69.4345,264.568 68.5,263.5C 63.0826,233.511 61.7492,203.511 64.5,173.5C 64.1712,179.206 64.5046,184.872 65.5,190.5C 66.5032,192.542 67.8366,192.875 69.5,191.5C 70.7389,186.695 73.2389,185.695 77,188.5C 77.7494,187.365 77.5827,186.365 76.5,185.5C 74.6232,184.197 72.9565,182.697 71.5,181C 72.3081,180.692 72.9747,180.192 73.5,179.5C 72.7261,178.289 71.8928,178.289 71,179.5C 70.6905,178.234 70.1905,177.067 69.5,176C 70.5,175.667 71.5,175.333 72.5,175C 70.913,174.138 69.2464,173.471 67.5,173C 68.5,172.5 69.5,172 70.5,171.5C 73.1575,173.378 75.6575,175.378 78,177.5C 78.1753,172.981 78.6753,168.647 79.5,164.5 Z"/></g>
<g><path style="opacity:0.493" fill="#302419" d="M 167.5,165.5 C 164.851,178.696 163.517,192.029 163.5,205.5C 162.391,205.557 161.391,205.89 160.5,206.5C 156.63,205.737 153.63,203.737 151.5,200.5C 154.527,198.736 157.027,196.402 159,193.5C 160.847,186.267 162.18,178.933 163,171.5C 163.332,168.457 164.832,166.457 167.5,165.5 Z"/></g>
<g><path style="opacity:0.982" fill="#847f75" d="M 151.5,200.5 C 153.63,203.737 156.63,205.737 160.5,206.5C 162.393,212.01 164.393,217.51 166.5,223C 164.366,228.103 162.366,233.27 160.5,238.5C 156.865,237.886 153.198,237.552 149.5,237.5C 148.034,236.653 147.2,235.32 147,233.5C 146.333,223.833 146.333,214.167 147,204.5C 147.192,202.423 147.692,200.423 148.5,198.5C 149.518,199.193 150.518,199.859 151.5,200.5 Z"/></g>
<g><path style="opacity:0.861" fill="#b1a287" d="M 429.5,100.5 C 433.817,117.747 437.151,135.08 439.5,152.5C 442.167,181.835 442.167,211.168 439.5,240.5C 437.537,241.96 435.704,243.627 434,245.5C 432.667,244.833 431.333,244.167 430,243.5C 426.404,247.621 424.237,246.954 423.5,241.5C 427.981,203.732 427.148,166.065 421,128.5C 420.075,127.953 419.242,127.287 418.5,126.5C 418.39,121.056 418.39,115.723 418.5,110.5C 420.878,114.904 423.544,119.237 426.5,123.5C 427.266,115.657 428.266,107.991 429.5,100.5 Z"/></g>
<g><path style="opacity:0.985" fill="#858076" d="M 355.5,237.5 C 351.704,237.782 348.037,237.782 344.5,237.5C 341.533,232.101 339.7,226.435 339,220.5C 340.743,215.765 342.577,211.098 344.5,206.5C 349.603,204.911 353.769,201.911 357,197.5C 357.667,210.5 357.667,223.5 357,236.5C 356.617,237.056 356.117,237.389 355.5,237.5 Z"/></g>
<g><path style="opacity:0.941" fill="#b4a68b" d="M 402.5,273.5 C 401.615,268.124 400.615,262.624 399.5,257C 399.528,255.93 399.861,255.097 400.5,254.5C 403.478,240.713 405.811,226.713 407.5,212.5C 408.835,206.494 410.168,200.494 411.5,194.5C 412.268,193.737 412.768,192.737 413,191.5C 415.675,219.585 412.175,246.918 402.5,273.5 Z"/></g>
<g><path style="opacity:0.952" fill="#928364" d="M 407.5,212.5 C 405.811,226.713 403.478,240.713 400.5,254.5C 399.791,253.596 398.791,253.263 397.5,253.5C 397.139,246.727 396.139,240.06 394.5,233.5C 399.688,227.455 403.021,220.455 404.5,212.5C 405.5,212.5 406.5,212.5 407.5,212.5 Z"/></g>
<g><path style="opacity:0.92" fill="#948465" d="M 415.5,105.5 C 416.752,107.001 417.752,108.668 418.5,110.5C 418.39,115.723 418.39,121.056 418.5,126.5C 419.242,127.287 420.075,127.953 421,128.5C 427.148,166.065 427.981,203.732 423.5,241.5C 422.105,245.591 421.272,249.924 421,254.5C 420.196,256.883 419.029,259.05 417.5,261C 418.059,261.725 418.392,262.558 418.5,263.5C 417.672,266.479 417.005,269.479 416.5,272.5C 412.757,280.327 409.257,288.327 406,296.5C 403.39,300.742 400.557,304.742 397.5,308.5C 400.374,301.495 402.374,294.162 403.5,286.5C 402.703,282.202 402.37,277.868 402.5,273.5C 412.175,246.918 415.675,219.585 413,191.5C 412.768,192.737 412.268,193.737 411.5,194.5C 416.588,165.647 417.588,136.647 414.5,107.5C 414.543,106.584 414.876,105.917 415.5,105.5 Z"/></g>
<g><path style="opacity:0.905" fill="#948465" d="M 97.5,212.5 C 101.187,219.524 105.187,226.524 109.5,233.5C 109.037,241.277 107.704,248.611 105.5,255.5C 104.883,255.389 104.383,255.056 104,254.5C 100.663,240.634 98.4959,226.634 97.5,212.5 Z"/></g>
<g><path style="opacity:0.881" fill="#b4a68a" d="M 94.5,201.5 C 95.6988,205.099 96.6988,208.765 97.5,212.5C 98.4959,226.634 100.663,240.634 104,254.5C 104.383,255.056 104.883,255.389 105.5,255.5C 104.713,259.96 104.046,264.46 103.5,269C 103.392,270.681 102.725,271.848 101.5,272.5C 99.2975,263.758 96.7975,255.091 94,246.5C 91.379,230.235 90.5457,213.902 91.5,197.5C 92.8592,198.624 93.8592,199.958 94.5,201.5 Z"/></g>
<g><path style="opacity:0.97" fill="#847c72" d="M 149.5,241.5 C 153.222,243.523 157.222,244.689 161.5,245C 162.963,248.765 164.296,252.599 165.5,256.5C 161.33,257.869 157.33,259.536 153.5,261.5C 152.202,255.523 150.535,249.523 148.5,243.5C 148.863,242.817 149.196,242.15 149.5,241.5 Z"/></g>
<g><path style="opacity:0.945" fill="#837b71" d="M 355.5,241.5 C 354.814,247.913 353.647,254.247 352,260.5C 351.617,261.056 351.117,261.389 350.5,261.5C 347.082,259.388 343.415,257.721 339.5,256.5C 340.503,252.492 341.503,248.492 342.5,244.5C 347.043,244.394 351.376,243.394 355.5,241.5 Z"/></g>
<g><path style="opacity:0.118" fill="#473524" d="M 105.5,48.5 C 100.805,53.5261 96.1387,58.5261 91.5,63.5C 88.1872,65.654 85.3539,67.9873 83,70.5C 80.5529,74.633 78.0529,78.7997 75.5,83C 73.1181,90.8593 71.1181,98.526 69.5,106C 70.1667,106.333 70.8333,106.667 71.5,107C 69.4961,108.423 67.9961,110.256 67,112.5C 65.3991,121.198 63.5657,129.865 61.5,138.5C 61.9461,140.368 62.2795,142.201 62.5,144C 60.0899,151.364 59.4232,158.864 60.5,166.5C 58.9587,168.204 57.6254,170.037 56.5,172C 56.3992,176.319 56.7326,180.653 57.5,185C 56.6433,185.689 55.9767,186.522 55.5,187.5C 57.3652,191.171 57.3652,194.671 55.5,198C 55.6356,203.277 55.6356,208.61 55.5,214C 55.9337,216.568 56.6003,219.068 57.5,221.5C 56.6142,224.804 56.2809,227.971 56.5,231C 58.7522,236.004 59.4189,241.171 58.5,246.5C 58.7549,250.419 60.0882,254.253 62.5,258C 60.3096,259.887 60.143,262.053 62,264.5C 63.8269,263.338 65.4936,263.672 67,265.5C 68.0299,265.164 68.5299,264.497 68.5,263.5C 69.4345,264.568 69.7678,265.901 69.5,267.5C 68.1196,266.294 66.9529,266.627 66,268.5C 64.1973,273.14 64.364,277.64 66.5,282C 65.1282,288.221 66.7949,293.555 71.5,298C 73.6848,310.245 78.3515,321.745 85.5,332.5C 92.9787,341.479 100.979,349.979 109.5,358C 111.169,359.669 113.169,360.502 115.5,360.5C 115.372,362.655 115.872,364.655 117,366.5C 127.789,379.072 136.289,393.072 142.5,408.5C 142.471,410.029 141.804,411.196 140.5,412C 138.567,412.251 136.734,412.751 135,413.5C 122.233,410.473 113.4,414.639 108.5,426C 106.253,427.995 105.253,430.495 105.5,433.5C 104.855,434.812 103.855,435.812 102.5,436.5C 101.526,438.743 101.192,441.076 101.5,443.5C 100.739,444.391 99.7387,445.058 98.5,445.5C 96.378,443.95 94.7114,441.95 93.5,439.5C 94.1777,436.456 95.011,433.456 96,430.5C 101.888,422.979 108.721,416.479 116.5,411C 118.246,410.529 119.913,409.862 121.5,409C 126.533,408.829 131.533,408.329 136.5,407.5C 136.931,406.707 137.265,405.873 137.5,405C 132.479,394.457 126.813,384.29 120.5,374.5C 107.223,361.241 94.5564,347.574 82.5,333.5C 77.5516,324.827 72.8849,315.993 68.5,307C 68.7355,306.127 69.0688,305.293 69.5,304.5C 67.3643,300.262 65.531,295.928 64,291.5C 63.6271,289.302 63.1271,287.135 62.5,285C 62.6448,284.228 62.9781,283.561 63.5,283C 62.0339,281.448 61.0339,279.614 60.5,277.5C 60.0619,273.958 60.0619,270.291 60.5,266.5C 57.7053,264.485 57.0386,261.985 58.5,259C 55.8844,250.788 54.8844,242.454 55.5,234C 53.6361,228.925 53.3028,223.759 54.5,218.5C 54.1543,217.304 53.6543,217.304 53,218.5C 52.99,203.511 52.8233,188.844 52.5,174.5C 52.8161,169.734 53.8161,165.234 55.5,161C 53.9677,156.191 54.301,151.524 56.5,147C 56.0426,146.586 55.7093,146.086 55.5,145.5C 56.6136,133.85 58.9469,122.516 62.5,111.5C 62.3918,110.558 62.0585,109.725 61.5,109C 63.0723,104.553 64.5723,100.053 66,95.5C 66.5,94.3333 67.3333,93.5 68.5,93C 68.1313,90.2189 68.1313,87.5522 68.5,85C 73.0065,76.1367 77.5065,67.6367 82,59.5C 84.52,55.984 87.3533,52.8173 90.5,50C 93.9751,49.8821 96.9751,48.7154 99.5,46.5C 101.334,47.7545 103.334,48.4211 105.5,48.5 Z"/></g>
<g><path style="opacity:0.892" fill="#827b71" d="M 164.5,279.5 C 161.835,276.665 159.335,273.665 157,270.5C 155.438,268.496 154.938,266.496 155.5,264.5C 161.929,261.672 168.596,259.339 175.5,257.5C 182.898,258.483 185.231,262.483 182.5,269.5C 180.208,269.244 178.041,269.577 176,270.5C 174.136,275.091 172.47,279.757 171,284.5C 169.074,282.461 166.907,280.794 164.5,279.5 Z"/></g>
<g><path style="opacity:0.971" fill="#847d73" d="M 349.5,265.5 C 348.955,267.593 348.122,269.593 347,271.5C 344.242,273.751 342.075,276.418 340.5,279.5C 338.02,280.912 335.687,282.578 333.5,284.5C 332.002,279.845 330.502,275.178 329,270.5C 326.959,269.577 324.792,269.244 322.5,269.5C 322.145,266.933 321.479,264.433 320.5,262C 322.573,259.877 325.073,258.377 328,257.5C 335.577,259.3 342.743,261.967 349.5,265.5 Z"/></g>
<g><path style="opacity:0.945" fill="#837d73" d="M 118.5,212.5 C 119.492,212.328 120.158,212.662 120.5,213.5C 120.816,219.349 121.482,225.016 122.5,230.5C 125.134,252.704 130.134,274.371 137.5,295.5C 136.504,295.414 135.671,295.748 135,296.5C 130.543,302.083 127.709,308.417 126.5,315.5C 122.967,312.801 119.967,309.634 117.5,306C 120.35,301.16 121.516,295.994 121,290.5C 119.898,292.381 118.565,294.048 117,295.5C 106.009,288.151 105.009,289.151 114,298.5C 114.333,302.167 114.667,305.833 115,309.5C 117.885,312.048 120.385,314.882 122.5,318C 122.355,318.772 122.022,319.439 121.5,320C 119.073,320.902 116.74,321.736 114.5,322.5C 111.989,318.332 109.655,313.999 107.5,309.5C 105.185,303.044 103.352,296.377 102,289.5C 102.268,283.761 102.102,278.094 101.5,272.5C 102.725,271.848 103.392,270.681 103.5,269C 104.046,264.46 104.713,259.96 105.5,255.5C 107.704,248.611 109.037,241.277 109.5,233.5C 112.957,228.842 115.291,223.509 116.5,217.5C 117.537,216.07 118.204,214.403 118.5,212.5 Z"/></g>
<g><path style="opacity:0.976" fill="#837e74" d="M 365.5,263.5 C 365.666,269.509 365.499,275.509 365,281.5C 362.076,290.263 358.743,298.929 355,307.5C 348.354,311.74 341.187,314.74 333.5,316.5C 334.381,309.358 336.548,302.691 340,296.5C 340.608,291.934 341.775,287.6 343.5,283.5C 348.768,277.058 354.268,270.725 360,264.5C 361.415,262.039 362.915,259.706 364.5,257.5C 365.466,259.396 365.799,261.396 365.5,263.5 Z"/></g>
<g><path style="opacity:0.757" fill="#a09076" d="M 439.5,240.5 C 438.184,253.411 435.85,266.078 432.5,278.5C 431.883,278.389 431.383,278.056 431,277.5C 430.363,279.303 429.197,280.636 427.5,281.5C 426.088,280.194 424.421,279.36 422.5,279C 423.357,278.311 424.023,277.478 424.5,276.5C 422.994,275.253 421.494,275.253 420,276.5C 418.968,274.973 417.801,273.64 416.5,272.5C 417.005,269.479 417.672,266.479 418.5,263.5C 418.392,262.558 418.059,261.725 417.5,261C 419.029,259.05 420.196,256.883 421,254.5C 421.272,249.924 422.105,245.591 423.5,241.5C 424.237,246.954 426.404,247.621 430,243.5C 431.333,244.167 432.667,244.833 434,245.5C 435.704,243.627 437.537,241.96 439.5,240.5 Z"/></g>
<g><path style="opacity:0.97" fill="#ae3d2d" d="M 318.5,164.5 C 318.5,165.167 318.833,165.5 319.5,165.5C 317.19,175.917 313.024,185.583 307,194.5C 306.825,197.157 306.992,199.824 307.5,202.5C 312.844,202.334 318.177,202.501 323.5,203C 325.658,208.383 327.658,213.883 329.5,219.5C 333.992,215.134 337.992,210.468 341.5,205.5C 342.391,206.11 343.391,206.443 344.5,206.5C 342.577,211.098 340.743,215.765 339,220.5C 339.7,226.435 341.533,232.101 344.5,237.5C 348.037,237.782 351.704,237.782 355.5,237.5C 355.5,238.833 355.5,240.167 355.5,241.5C 351.376,243.394 347.043,244.394 342.5,244.5C 341.503,248.492 340.503,252.492 339.5,256.5C 343.415,257.721 347.082,259.388 350.5,261.5C 350.167,262.833 349.833,264.167 349.5,265.5C 342.743,261.967 335.577,259.3 328,257.5C 325.073,258.377 322.573,259.877 320.5,262C 321.479,264.433 322.145,266.933 322.5,269.5C 324.792,269.244 326.959,269.577 329,270.5C 330.502,275.178 332.002,279.845 333.5,284.5C 335.687,282.578 338.02,280.912 340.5,279.5C 340.5,280.833 340.5,282.167 340.5,283.5C 341.5,283.5 342.5,283.5 343.5,283.5C 341.775,287.6 340.608,291.934 340,296.5C 336.548,302.691 334.381,309.358 333.5,316.5C 332.042,318.011 330.209,319.011 328,319.5C 327.51,320.793 327.343,322.127 327.5,323.5C 314.894,321.608 304.394,325.274 296,334.5C 295.312,335.332 295.479,335.998 296.5,336.5C 302.348,338.664 308.014,340.997 313.5,343.5C 310.597,345.104 307.263,346.104 303.5,346.5C 300.167,351.167 296.833,355.833 293.5,360.5C 294.188,361.855 295.188,362.855 296.5,363.5C 295.952,366.084 294.285,367.084 291.5,366.5C 289.752,364.84 289.252,362.84 290,360.5C 293.833,354.833 297.667,349.167 301.5,343.5C 297.209,341.038 293.042,341.038 289,343.5C 286.551,349.563 283.718,355.397 280.5,361C 275.977,362.797 271.31,363.964 266.5,364.5C 266.834,367.491 265.834,369.824 263.5,371.5C 263.5,370.833 263.5,370.167 263.5,369.5C 263.747,366.146 264.747,363.146 266.5,360.5C 273.416,358.917 277.083,354.584 277.5,347.5C 279.148,346.223 280.982,345.223 283,344.5C 287.455,335.136 292.288,325.97 297.5,317C 289.064,317.856 280.731,319.523 272.5,322C 269.353,325.981 266.02,329.814 262.5,333.5C 261.686,331.048 262.186,328.715 264,326.5C 264.667,323.167 264.667,319.833 264,316.5C 260.167,311.5 256.333,306.5 252.5,301.5C 248.088,306.413 244.255,311.746 241,317.5C 239.979,322.814 240.812,327.814 243.5,332.5C 243.167,332.833 242.833,333.167 242.5,333.5C 239.342,330.172 236.342,326.672 233.5,323C 224.966,320.137 216.299,318.137 207.5,317C 212.476,326.453 217.31,335.953 222,345.5C 223.815,346.244 225.648,346.911 227.5,347.5C 227.957,354.619 231.624,358.952 238.5,360.5C 239.345,363.543 240.345,366.543 241.5,369.5C 241.672,370.492 241.338,371.158 240.5,371.5C 239.132,369.582 238.132,367.415 237.5,365C 232.285,363.995 227.452,362.162 223,359.5C 220.17,353.684 217.337,347.851 214.5,342C 210.618,341.11 206.952,341.61 203.5,343.5C 207.5,349.833 211.5,356.167 215.5,362.5C 214.867,364.786 213.534,366.452 211.5,367.5C 209.771,366.764 208.771,365.43 208.5,363.5C 210.377,362.341 210.877,360.674 210,358.5C 206.921,354.676 204.088,350.676 201.5,346.5C 198.232,345.513 194.898,345.18 191.5,345.5C 191.5,344.5 191.5,343.5 191.5,342.5C 197.01,340.607 202.51,338.607 208,336.5C 209.257,336.15 209.591,335.483 209,334.5C 205.117,330.95 200.951,327.783 196.5,325C 189.987,324.828 183.653,324.328 177.5,323.5C 177.376,319.749 175.376,317.749 171.5,317.5C 171.662,315.473 171.495,313.473 171,311.5C 167.129,302.388 163.963,293.054 161.5,283.5C 163.446,282.965 164.446,281.632 164.5,279.5C 166.907,280.794 169.074,282.461 171,284.5C 172.47,279.757 174.136,275.091 176,270.5C 178.041,269.577 180.208,269.244 182.5,269.5C 185.231,262.483 182.898,258.483 175.5,257.5C 168.596,259.339 161.929,261.672 155.5,264.5C 154.833,263.5 154.167,262.5 153.5,261.5C 157.33,259.536 161.33,257.869 165.5,256.5C 164.296,252.599 162.963,248.765 161.5,245C 157.222,244.689 153.222,243.523 149.5,241.5C 149.5,240.167 149.5,238.833 149.5,237.5C 153.198,237.552 156.865,237.886 160.5,238.5C 162.366,233.27 164.366,228.103 166.5,223C 164.393,217.51 162.393,212.01 160.5,206.5C 161.391,205.89 162.391,205.557 163.5,205.5C 166.569,209.295 169.403,213.295 172,217.5C 173.11,219.037 174.61,219.703 176.5,219.5C 177.331,214.513 178.164,209.513 179,204.5C 179.5,204 180,203.5 180.5,203C 185.833,202.667 191.167,202.333 196.5,202C 197.316,200.077 197.983,198.077 198.5,196C 192.414,186.99 188.081,177.157 185.5,166.5C 185.833,165.833 186.167,165.167 186.5,164.5C 193.63,162.219 200.964,160.886 208.5,160.5C 209.48,155.857 210.48,151.19 211.5,146.5C 207.73,145.448 204.064,144.115 200.5,142.5C 201.667,142.167 202.833,141.833 204,141.5C 206.59,141.945 209.09,142.611 211.5,143.5C 211.635,139.562 213.135,136.228 216,133.5C 213.929,144.642 212.763,155.976 212.5,167.5C 216.264,167.909 219.93,167.909 223.5,167.5C 225.068,164.306 226.735,161.14 228.5,158C 235.856,152.639 243.689,148.139 252,144.5C 259.611,147.431 266.778,151.265 273.5,156C 276.939,159.448 279.606,163.448 281.5,168C 285.129,167.89 288.796,167.724 292.5,167.5C 292.184,156.094 290.517,144.928 287.5,134C 291.279,135.707 292.946,138.873 292.5,143.5C 296.146,142.717 299.812,142.55 303.5,143C 300.223,144.143 296.89,144.977 293.5,145.5C 294.353,150.47 295.02,155.47 295.5,160.5C 303.446,160.435 311.113,161.769 318.5,164.5 Z"/></g>
<g><path style="opacity:0.949" fill="#857f74" d="M 178.5,273.5 C 184.254,273.436 189.92,274.102 195.5,275.5C 197.45,279.968 198.45,284.634 198.5,289.5C 193.016,290.468 188.683,293.302 185.5,298C 180.353,296.004 177.02,292.17 175.5,286.5C 176.347,282.113 177.347,277.78 178.5,273.5 Z"/></g>
<g><path style="opacity:0.978" fill="#857f76" d="M 286.5,305.5 C 285.511,300.025 285.178,294.358 285.5,288.5C 281.167,288.5 276.833,288.5 272.5,288.5C 273.806,279.802 276.306,271.468 280,263.5C 284.315,258.351 288.815,253.351 293.5,248.5C 295.009,244.271 294.676,240.271 292.5,236.5C 295.5,234.333 298.5,232.167 301.5,230C 305.904,229.742 310.238,230.242 314.5,231.5C 315.346,236.893 316.512,242.227 318,247.5C 318.499,251.152 318.665,254.818 318.5,258.5C 316.473,258.662 314.473,258.495 312.5,258C 309.651,254.984 306.651,252.15 303.5,249.5C 303.167,250.167 302.833,250.833 302.5,251.5C 304.155,257.766 304.988,264.099 305,270.5C 302.137,277.422 299.47,284.422 297,291.5C 292.898,295.761 289.398,300.428 286.5,305.5 Z"/></g>
<g><path style="opacity:0.979" fill="#857f75" d="M 251.5,235.5 C 255.402,237.893 258.902,240.893 262,244.5C 266.667,249.833 271.333,255.167 276,260.5C 274.993,268.837 271.993,276.504 267,283.5C 262.319,278.651 257.485,273.985 252.5,269.5C 247.5,274.167 242.5,278.833 237.5,283.5C 233.898,276.63 230.565,269.63 227.5,262.5C 234.78,252.885 242.78,243.885 251.5,235.5 Z"/></g>
<g><path style="opacity:0.979" fill="#857f76" d="M 323.5,226.5 C 327.819,227.035 332.152,227.535 336.5,228C 339.019,231.847 340.185,236.014 340,240.5C 338.032,245.77 335.699,250.77 333,255.5C 331.08,255.062 329.246,254.395 327.5,253.5C 323.247,246.663 319.247,239.663 315.5,232.5C 318.492,230.829 321.159,228.829 323.5,226.5 Z"/></g>
<g><path style="opacity:0.981" fill="#868076" d="M 171.5,226.5 C 178.761,224.926 184.427,227.093 188.5,233C 185.658,239.851 182.158,246.351 178,252.5C 174.222,256.492 171.222,256.158 169,251.5C 167.1,247.134 165.6,242.634 164.5,238C 165.466,234.77 166.633,231.603 168,228.5C 169.302,227.915 170.469,227.249 171.5,226.5 Z"/></g>
<g><path style="opacity:0.981" fill="#868076" d="M 219.5,220.5 C 226.228,226.893 232.228,233.893 237.5,241.5C 234.589,246.42 231.256,251.087 227.5,255.5C 222.848,251.349 218.348,247.015 214,242.5C 213.333,240.833 213.333,239.167 214,237.5C 215.773,231.792 217.606,226.125 219.5,220.5 Z"/></g>
<g><path style="opacity:0.979" fill="#868076" d="M 284.5,220.5 C 288.054,227.716 289.887,235.382 290,243.5C 285.985,247.682 281.818,251.682 277.5,255.5C 273.673,250.833 270.006,245.999 266.5,241C 272.709,234.295 278.709,227.462 284.5,220.5 Z"/></g>
<g><path style="opacity:0.98" fill="#877f76" d="M 203.5,209.5 C 207.757,212.251 211.59,215.584 215,219.5C 215.968,223.902 215.135,227.902 212.5,231.5C 209.623,230.657 207.456,228.99 206,226.5C 204.681,220.894 203.847,215.227 203.5,209.5 Z"/></g>
<g><path style="opacity:0.984" fill="#877e75" d="M 299.5,209.5 C 300.649,209.791 301.316,210.624 301.5,212C 300.86,217.682 299.526,223.182 297.5,228.5C 295.5,229.5 293.5,230.5 291.5,231.5C 289.825,227.624 288.992,223.624 289,219.5C 293.001,216.665 296.501,213.332 299.5,209.5 Z"/></g>
<g><path style="opacity:0.983" fill="#887e75" d="M 306.5,206.5 C 311.5,206.5 316.5,206.5 321.5,206.5C 322.924,211.781 323.758,217.114 324,222.5C 322.167,224.333 320.333,226.167 318.5,228C 313.798,228.049 309.131,227.549 304.5,226.5C 304.288,219.699 304.955,213.032 306.5,206.5 Z"/></g>
<g><path style="opacity:0.986" fill="#878076" d="M 183.5,206.5 C 188.5,206.5 193.5,206.5 198.5,206.5C 199.385,213.143 200.052,219.81 200.5,226.5C 196.245,226.584 192.078,227.251 188,228.5C 185.384,226.888 183.05,224.888 181,222.5C 181.07,217.077 181.904,211.744 183.5,206.5 Z"/></g>
<g><path style="opacity:0.985" fill="#868077" d="M 251.5,188.5 C 262.656,194.649 271.99,202.982 279.5,213.5C 273.8,221.367 266.967,228.033 259,233.5C 256.965,232.399 254.798,231.732 252.5,231.5C 249.564,232.649 246.564,233.149 243.5,233C 236.948,226.951 230.948,220.451 225.5,213.5C 232.921,203.744 241.587,195.41 251.5,188.5 Z"/></g>
<g><path style="opacity:0.952" fill="#847d73" d="M 251.5,147.5 C 260.615,153.448 268.282,160.948 274.5,170C 273.131,177.985 270.464,185.485 266.5,192.5C 261.833,188.833 257.167,185.167 252.5,181.5C 248.13,185.04 243.63,188.374 239,191.5C 236.664,190.021 235.164,187.854 234.5,185C 231.852,179.41 230.686,173.577 231,167.5C 237.729,160.603 244.562,153.937 251.5,147.5 Z"/></g>
<g><path style="opacity:0.971" fill="#867e74" d="M 291.5,171.5 C 292.496,171.414 293.329,171.748 294,172.5C 294.093,180.457 294.927,188.29 296.5,196C 295.685,200.672 293.351,204.505 289.5,207.5C 285.942,204.065 283.109,200.065 281,195.5C 280.333,188.5 280.333,181.5 281,174.5C 284.704,173.911 288.204,172.911 291.5,171.5 Z"/></g>
<g><path style="opacity:0.985" fill="#877f75" d="M 210.5,171.5 C 215.052,172.926 219.719,173.926 224.5,174.5C 227.02,187.213 224.02,198.213 215.5,207.5C 211.871,204.894 209.204,201.561 207.5,197.5C 209.917,188.997 210.917,180.33 210.5,171.5 Z"/></g>
<g><path style="opacity:0.988" fill="#877f76" d="M 302.5,167.5 C 306.86,168.007 311.193,168.673 315.5,169.5C 313.642,174.879 310.976,179.879 307.5,184.5C 305.997,185.052 304.331,185.052 302.5,184.5C 302.359,180.907 301.692,177.407 300.5,174C 301.033,171.774 301.7,169.607 302.5,167.5 Z"/></g>
<g><path style="opacity:0.984" fill="#887e74" d="M 197.5,166.5 C 202.328,166.763 204.328,169.43 203.5,174.5C 203.393,177.567 202.893,180.567 202,183.5C 200.667,184.167 199.333,184.833 198,185.5C 194.833,180.5 191.667,175.5 188.5,170.5C 191.504,169.011 194.504,167.678 197.5,166.5 Z"/></g>
<g><path style="opacity:0.988" fill="#878076" d="M 309.5,273.5 C 315.167,273.5 320.833,273.5 326.5,273.5C 327.676,278.833 328.509,284.166 329,289.5C 326.158,292.542 323.324,295.542 320.5,298.5C 316.442,295.11 312.109,292.11 307.5,289.5C 307.167,288.333 306.833,287.167 306.5,286C 307.401,281.799 308.401,277.632 309.5,273.5 Z"/></g>
<g><path style="opacity:0.955" fill="#34383a" d="M 250.5,274.5 C 251.833,274.5 253.167,274.5 254.5,274.5C 254.491,276.308 254.991,277.975 256,279.5C 260.11,283.768 263.61,288.434 266.5,293.5C 265.05,296.343 263.884,299.343 263,302.5C 261.806,303.43 260.473,304.097 259,304.5C 256.67,302.658 254.837,300.324 253.5,297.5C 252.675,296.614 251.675,296.281 250.5,296.5C 250.237,301.257 247.904,303.757 243.5,304C 240.386,299.99 238.886,295.49 239,290.5C 242.667,286.167 246.333,281.833 250,277.5C 250.483,276.552 250.649,275.552 250.5,274.5 Z"/></g>
<g><path style="opacity:0.973" fill="#837d73" d="M 388.5,218.5 C 389.453,224.043 391.453,229.043 394.5,233.5C 396.139,240.06 397.139,246.727 397.5,253.5C 398.791,253.263 399.791,253.596 400.5,254.5C 399.861,255.097 399.528,255.93 399.5,257C 400.615,262.624 401.615,268.124 402.5,273.5C 402.37,277.868 402.703,282.202 403.5,286.5C 402.374,294.162 400.374,301.495 397.5,308.5C 395.422,312.991 393.088,317.325 390.5,321.5C 386.836,322 383.836,320.833 381.5,318C 384.333,315.167 387.167,312.333 390,309.5C 388.749,301.738 391.249,295.572 397.5,291C 394.001,291.792 390.668,293.292 387.5,295.5C 385.808,293.641 384.308,291.641 383,289.5C 383.163,294.924 384.329,300.257 386.5,305.5C 384.215,309.12 381.548,312.454 378.5,315.5C 376.752,307.676 373.085,300.676 367.5,294.5C 373.851,277.097 378.185,259.097 380.5,240.5C 382.336,233.334 383.336,226.001 383.5,218.5C 384.163,216.958 384.83,215.291 385.5,213.5C 386.696,215.145 387.696,216.811 388.5,218.5 Z"/></g>
<g><path style="opacity:0.975" fill="#837e75" d="M 161.5,283.5 C 163.963,293.054 167.129,302.388 171,311.5C 171.495,313.473 171.662,315.473 171.5,317.5C 163.339,315.274 155.839,311.608 149,306.5C 145.721,298.274 142.721,289.941 140,281.5C 139.501,276.177 139.334,270.844 139.5,265.5C 139.187,262.753 139.52,260.086 140.5,257.5C 142.506,261.513 145.006,265.18 148,268.5C 153.078,273.072 157.578,278.072 161.5,283.5 Z"/></g>
<g><path style="opacity:0.976" fill="#857f76" d="M 231.5,284.5 C 231.5,285.833 231.5,287.167 231.5,288.5C 227.629,288.185 223.962,288.518 220.5,289.5C 219.673,294.651 219.173,299.984 219,305.5C 214.424,300.013 210.091,294.347 206,288.5C 203.83,281.323 201.663,274.156 199.5,267C 200.617,260.808 201.451,254.641 202,248.5C 198.833,251.667 195.667,254.833 192.5,258C 190.527,258.495 188.527,258.662 186.5,258.5C 186.334,254.486 186.501,250.486 187,246.5C 188.638,241.614 189.805,236.614 190.5,231.5C 194.693,229.925 199.026,229.425 203.5,230C 206.5,232.167 209.5,234.333 212.5,236.5C 210.492,240.229 209.992,244.229 211,248.5C 217.814,254.977 223.481,262.31 228,270.5C 229.481,275.106 230.648,279.773 231.5,284.5 Z"/></g>
<g><path style="opacity:0.968" fill="#9a5d4f" d="M 231.5,284.5 C 232.451,285.919 232.784,287.585 232.5,289.5C 228.5,289.5 224.5,289.5 220.5,289.5C 223.962,288.518 227.629,288.185 231.5,288.5C 231.5,287.167 231.5,285.833 231.5,284.5 Z"/></g>
<g><path style="opacity:0.985" fill="#887f75" d="M 337.5,286.5 C 338.598,287.601 338.765,288.934 338,290.5C 335.119,297.852 332.619,305.352 330.5,313C 327.607,315.727 324.107,317.227 320,317.5C 319.5,317.167 319,316.833 318.5,316.5C 319.982,312.261 321.148,307.927 322,303.5C 326.033,299.132 330.366,295.132 335,291.5C 336.094,289.922 336.928,288.255 337.5,286.5 Z"/></g>
<g><path style="opacity:0.98" fill="#877f76" d="M 165.5,285.5 C 170.787,292.289 176.621,298.623 183,304.5C 183.024,308.845 184.191,312.845 186.5,316.5C 182.433,317.529 178.599,316.862 175,314.5C 171.673,304.85 168.507,295.184 165.5,285.5 Z"/></g>
<g><path style="opacity:0.986" fill="#877f76" d="M 193.5,293.5 C 197.984,293.863 202.317,294.863 206.5,296.5C 209.636,301.239 211.303,306.239 211.5,311.5C 206.535,309.901 201.535,308.401 196.5,307C 194.575,302.72 193.575,298.22 193.5,293.5 Z"/></g>
<g><path style="opacity:0.999" fill="#9a5e52" d="M 272.5,288.5 C 276.833,288.5 281.167,288.5 285.5,288.5C 285.178,294.358 285.511,300.025 286.5,305.5C 286.44,306.043 286.107,306.376 285.5,306.5C 284.505,300.872 284.171,295.206 284.5,289.5C 280.298,289.817 276.298,289.483 272.5,288.5 Z"/></g>
<g><path style="opacity:0.988" fill="#887f75" d="M 305.5,293.5 C 307.5,293.5 309.5,293.5 311.5,293.5C 311.322,298.516 309.988,303.182 307.5,307.5C 302.54,308.319 297.707,309.652 293,311.5C 292.5,311.333 292,311.167 291.5,311C 293.795,306.241 295.962,301.408 298,296.5C 300.567,295.413 303.067,294.413 305.5,293.5 Z"/></g>
<g><path style="opacity:0.975" fill="#34383a" d="M 278.5,294.5 C 280.164,295.949 280.998,297.949 281,300.5C 281.829,305.533 281.662,310.533 280.5,315.5C 276.46,318.232 272.126,320.232 267.5,321.5C 266.621,316.614 265.621,311.78 264.5,307C 264.833,305.5 265.167,304 265.5,302.5C 269.873,299.772 274.206,297.105 278.5,294.5 Z"/></g>
<g><path style="opacity:0.966" fill="#33383a" d="M 224.5,294.5 C 229.989,296.832 235.155,299.832 240,303.5C 239.934,309.569 239.101,315.569 237.5,321.5C 232.805,319.211 227.972,317.211 223,315.5C 223.404,308.544 223.904,301.544 224.5,294.5 Z"/></g>
<g><path style="opacity:0.983" fill="#847e74" d="M 138.5,299.5 C 142.442,308.303 146.776,316.97 151.5,325.5C 139.408,329.238 133.074,324.905 132.5,312.5C 133.158,307.519 135.158,303.186 138.5,299.5 Z"/></g>
<g><path style="opacity:0.962" fill="#31383a" d="M 277.5,347.5 C 269.194,347.811 265.527,352.145 266.5,360.5C 264.747,363.146 263.747,366.146 263.5,369.5C 256.134,372.1 248.801,372.1 241.5,369.5C 240.345,366.543 239.345,363.543 238.5,360.5C 239.513,352.181 235.846,347.848 227.5,347.5C 225.648,346.911 223.815,346.244 222,345.5C 217.31,335.953 212.476,326.453 207.5,317C 216.299,318.137 224.966,320.137 233.5,323C 236.342,326.672 239.342,330.172 242.5,333.5C 242.833,333.167 243.167,332.833 243.5,332.5C 240.812,327.814 239.979,322.814 241,317.5C 244.255,311.746 248.088,306.413 252.5,301.5C 256.333,306.5 260.167,311.5 264,316.5C 264.667,319.833 264.667,323.167 264,326.5C 262.186,328.715 261.686,331.048 262.5,333.5C 266.02,329.814 269.353,325.981 272.5,322C 280.731,319.523 289.064,317.856 297.5,317C 292.288,325.97 287.455,335.136 283,344.5C 280.982,345.223 279.148,346.223 277.5,347.5 Z"/></g>
<g><path style="opacity:0.973" fill="#baac90" d="M 85.5,261.5 C 90.1458,278.788 97.4791,294.788 107.5,309.5C 109.655,313.999 111.989,318.332 114.5,322.5C 114.755,324.967 115.755,326.967 117.5,328.5C 120.927,336.217 124.26,343.884 127.5,351.5C 127.5,352.5 127.5,353.5 127.5,354.5C 130.101,360.077 131.101,365.744 130.5,371.5C 128.275,367.102 125.441,363.102 122,359.5C 112.973,350.473 103.973,341.473 95,332.5C 82.9653,314.902 75.1319,295.568 71.5,274.5C 73.0435,272.072 74.0435,269.406 74.5,266.5C 77.7973,266.671 78.1306,266.005 75.5,264.5C 75.8457,263.304 76.3457,263.304 77,264.5C 77.9009,261.929 79.2342,259.596 81,257.5C 81.4828,258.448 81.6495,259.448 81.5,260.5C 82.9587,260.433 84.2921,260.766 85.5,261.5 Z"/></g>
<g><path style="opacity:0.98" fill="#887e74" d="M 316.5,304.5 C 317.376,304.369 318.043,304.702 318.5,305.5C 317.146,308.769 315.98,312.102 315,315.5C 308.667,320.5 302.333,325.5 296,330.5C 295.333,329.5 295.333,328.5 296,327.5C 298.778,322.278 301.278,316.945 303.5,311.5C 308.62,310.443 312.953,308.11 316.5,304.5 Z"/></g>
<g><path style="opacity:0.982" fill="#887e75" d="M 186.5,304.5 C 189.472,306.322 192.472,308.156 195.5,310C 197.74,310.977 200.073,311.477 202.5,311.5C 204.719,317.911 206.886,324.244 209,330.5C 202.667,325.5 196.333,320.5 190,315.5C 188.143,312.046 186.977,308.379 186.5,304.5 Z"/></g>
<g><path style="opacity:0.974" fill="#847d74" d="M 366.5,299.5 C 373.938,307.799 374.272,316.299 367.5,325C 362.779,324.813 358.113,324.979 353.5,325.5C 358.231,316.935 362.564,308.268 366.5,299.5 Z"/></g>
<g><path style="opacity:0.978" fill="#827d74" d="M 324.5,345.5 C 320.586,345.889 316.92,345.222 313.5,343.5C 308.014,340.997 302.348,338.664 296.5,336.5C 295.479,335.998 295.312,335.332 296,334.5C 304.394,325.274 314.894,321.608 327.5,323.5C 329.06,323.481 330.56,323.148 332,322.5C 332.5,322.833 333,323.167 333.5,323.5C 332.674,324.451 332.508,325.451 333,326.5C 334.333,324.5 335.667,322.5 337,320.5C 337.333,320.833 337.667,321.167 338,321.5C 343.086,319.377 348.253,317.377 353.5,315.5C 353.833,315.833 354.167,316.167 354.5,316.5C 349.814,325.68 344.147,334.18 337.5,342C 333.351,343.863 329.018,345.03 324.5,345.5 Z"/></g>
<g><path style="opacity:0.488" fill="#2f241a" d="M 122.5,230.5 C 123.404,231.209 123.737,232.209 123.5,233.5C 124.5,233.5 125.5,233.5 126.5,233.5C 127.548,242.002 129.382,250.335 132,258.5C 134.063,261.4 136.563,263.733 139.5,265.5C 139.334,270.844 139.501,276.177 140,281.5C 142.721,289.941 145.721,298.274 149,306.5C 155.839,311.608 163.339,315.274 171.5,317.5C 175.376,317.749 177.376,319.749 177.5,323.5C 175.533,323.739 173.699,323.406 172,322.5C 172,323.833 172,325.167 172,326.5C 169.894,324.623 168.561,322.29 168,319.5C 167.275,320.059 166.442,320.392 165.5,320.5C 160.508,319.252 155.675,317.585 151,315.5C 154.226,324.6 159.059,332.933 165.5,340.5C 170.114,343.239 175.114,344.906 180.5,345.5C 181.743,349.929 184.077,353.762 187.5,357C 194.129,360.489 201.129,362.655 208.5,363.5C 208.771,365.43 209.771,366.764 211.5,367.5C 211.5,367.833 211.5,368.167 211.5,368.5C 205.074,371.711 198.408,374.377 191.5,376.5C 193.617,383.696 196.784,390.363 201,396.5C 202.245,392.258 205.078,389.758 209.5,389C 213.486,388.501 217.486,388.334 221.5,388.5C 221.5,389.167 221.5,389.833 221.5,390.5C 221.672,391.492 221.338,392.158 220.5,392.5C 218.952,390.078 217.286,390.078 215.5,392.5C 212.455,392.342 209.621,393.009 207,394.5C 204.14,400.081 201.474,405.748 199,411.5C 198.333,412.5 198.333,413.5 199,414.5C 201.314,415.733 203.481,417.067 205.5,418.5C 205.833,423.167 206.167,427.833 206.5,432.5C 198.434,422.048 191.101,411.048 184.5,399.5C 167.545,393.867 151.545,386.533 136.5,377.5C 139.206,377.575 141.873,377.908 144.5,378.5C 154.87,383.622 165.537,387.955 176.5,391.5C 177.843,383.812 179.01,376.146 180,368.5C 173.637,359.319 167.137,350.319 160.5,341.5C 157.799,337.144 155.132,332.811 152.5,328.5C 152.443,327.391 152.11,326.391 151.5,325.5C 146.776,316.97 142.442,308.303 138.5,299.5C 138.768,297.901 138.434,296.568 137.5,295.5C 130.134,274.371 125.134,252.704 122.5,230.5 Z"/></g>
<g><path style="opacity:0.985" fill="#837e75" d="M 177.5,323.5 C 183.653,324.328 189.987,324.828 196.5,325C 200.951,327.783 205.117,330.95 209,334.5C 209.591,335.483 209.257,336.15 208,336.5C 202.51,338.607 197.01,340.607 191.5,342.5C 190.078,342.709 188.745,343.209 187.5,344C 187.833,344.333 188.167,344.667 188.5,345C 185.854,345.497 183.187,345.664 180.5,345.5C 175.114,344.906 170.114,343.239 165.5,340.5C 159.059,332.933 154.226,324.6 151,315.5C 155.675,317.585 160.508,319.252 165.5,320.5C 166.442,320.392 167.275,320.059 168,319.5C 168.561,322.29 169.894,324.623 172,326.5C 172,325.167 172,323.833 172,322.5C 173.699,323.406 175.533,323.739 177.5,323.5 Z"/></g>
<g><path style="opacity:0.27" fill="#3c2d1f" d="M 69.5,267.5 C 69.9267,270.01 70.5933,272.343 71.5,274.5C 75.1319,295.568 82.9653,314.902 95,332.5C 103.973,341.473 112.973,350.473 122,359.5C 125.441,363.102 128.275,367.102 130.5,371.5C 131.209,372.404 132.209,372.737 133.5,372.5C 136.789,375.234 140.455,377.234 144.5,378.5C 141.873,377.908 139.206,377.575 136.5,377.5C 135.504,377.586 134.671,377.252 134,376.5C 133.833,377 133.667,377.5 133.5,378C 134.414,379.406 135.08,380.906 135.5,382.5C 137.608,391.153 141.775,398.82 148,405.5C 152.352,411.585 150.852,415.419 143.5,417C 140.242,417.212 137.076,417.712 134,418.5C 132.139,417.127 130.306,416.794 128.5,417.5C 127.279,416.972 126.113,416.305 125,415.5C 122.667,417.833 120.333,420.167 118,422.5C 117.333,423.833 117.333,425.167 118,426.5C 119.537,430.229 121.037,433.895 122.5,437.5C 121.833,438.167 121.167,438.833 120.5,439.5C 119.843,434.521 117.843,430.187 114.5,426.5C 111.767,429.239 108.767,431.573 105.5,433.5C 105.253,430.495 106.253,427.995 108.5,426C 113.4,414.639 122.233,410.473 135,413.5C 136.734,412.751 138.567,412.251 140.5,412C 141.804,411.196 142.471,410.029 142.5,408.5C 136.289,393.072 127.789,379.072 117,366.5C 115.872,364.655 115.372,362.655 115.5,360.5C 113.169,360.502 111.169,359.669 109.5,358C 100.979,349.979 92.9787,341.479 85.5,332.5C 78.3515,321.745 73.6848,310.245 71.5,298C 66.7949,293.555 65.1282,288.221 66.5,282C 64.364,277.64 64.1973,273.14 66,268.5C 66.9529,266.627 68.1196,266.294 69.5,267.5 Z"/></g>
<g><path style="opacity:0.977" fill="#867f75" d="M 127.5,351.5 C 124.26,343.884 120.927,336.217 117.5,328.5C 118.449,327.848 119.615,327.514 121,327.5C 124.694,328.866 128.528,329.532 132.5,329.5C 132.265,335.849 131.765,342.183 131,348.5C 129.482,349.163 128.315,350.163 127.5,351.5 Z"/></g>
<g><path style="opacity:0.977" fill="#867e74" d="M 152.5,328.5 C 155.132,332.811 157.799,337.144 160.5,341.5C 160.5,345.833 160.5,350.167 160.5,354.5C 153.084,352.897 146.084,350.231 139.5,346.5C 138.202,341.013 138.702,335.68 141,330.5C 144.935,329.862 148.769,329.196 152.5,328.5 Z"/></g>
<g><path style="opacity:0.969" fill="#867e74" d="M 387.5,328.5 C 384.155,336.216 380.822,343.882 377.5,351.5C 376.235,350.521 374.901,349.521 373.5,348.5C 372.504,342.202 372.17,335.868 372.5,329.5C 377.503,327.955 382.503,327.622 387.5,328.5 Z"/></g>
<g><path style="opacity:0.976" fill="#847e75" d="M 351.5,329.5 C 355.555,329.176 359.555,329.509 363.5,330.5C 365.138,335.717 366.138,341.05 366.5,346.5C 359.714,349.543 352.714,352.209 345.5,354.5C 344.833,350.018 344.166,345.684 343.5,341.5C 346.688,337.774 349.355,333.774 351.5,329.5 Z"/></g>
<g><path style="opacity:0.963" fill="#343a3b" d="M 240.5,371.5 C 241.182,378.031 244.849,381.697 251.5,382.5C 255.62,382.072 259.287,380.572 262.5,378C 263.423,375.959 263.756,373.792 263.5,371.5C 265.834,369.824 266.834,367.491 266.5,364.5C 271.31,363.964 275.977,362.797 280.5,361C 283.718,355.397 286.551,349.563 289,343.5C 293.042,341.038 297.209,341.038 301.5,343.5C 297.667,349.167 293.833,354.833 290,360.5C 289.252,362.84 289.752,364.84 291.5,366.5C 291.5,366.833 291.5,367.167 291.5,367.5C 287.145,373.881 284.145,380.881 282.5,388.5C 282.5,388.833 282.5,389.167 282.5,389.5C 279.994,388.25 277.327,387.584 274.5,387.5C 273.949,390.807 273.616,394.14 273.5,397.5C 273.167,397.5 272.833,397.5 272.5,397.5C 270.357,395.926 268.024,394.592 265.5,393.5C 264.277,396.947 262.777,400.28 261,403.5C 258.4,399.287 255.567,395.287 252.5,391.5C 248.9,395.187 245.9,399.354 243.5,404C 244.056,404.383 244.389,404.883 244.5,405.5C 243.5,405.5 242.5,405.5 241.5,405.5C 242.937,400.998 241.937,396.998 238.5,393.5C 236.338,395.02 234.005,396.02 231.5,396.5C 231.296,393.482 230.963,390.482 230.5,387.5C 226.997,387.129 223.997,388.129 221.5,390.5C 221.5,389.833 221.5,389.167 221.5,388.5C 222.124,388.083 222.457,387.416 222.5,386.5C 220.487,380.631 217.987,374.965 215,369.5C 213.989,368.663 212.822,368.33 211.5,368.5C 211.5,368.167 211.5,367.833 211.5,367.5C 213.534,366.452 214.867,364.786 215.5,362.5C 211.5,356.167 207.5,349.833 203.5,343.5C 206.952,341.61 210.618,341.11 214.5,342C 217.337,347.851 220.17,353.684 223,359.5C 227.452,362.162 232.285,363.995 237.5,365C 238.132,367.415 239.132,369.582 240.5,371.5 Z"/></g>
<g><path style="opacity:0.955" fill="#a33c2e" d="M 390.5,321.5 C 390.293,324.241 389.293,326.574 387.5,328.5C 382.503,327.622 377.503,327.955 372.5,329.5C 372.17,335.868 372.504,342.202 373.5,348.5C 374.901,349.521 376.235,350.521 377.5,351.5C 377.715,353.179 377.048,354.179 375.5,354.5C 372.098,351.3 368.098,350.133 363.5,351C 359.998,356.334 356.998,362.001 354.5,368C 354.645,368.772 354.978,369.439 355.5,370C 360.541,370.872 365.541,371.706 370.5,372.5C 357.272,380.362 343.272,386.695 328.5,391.5C 327.723,384.281 326.057,377.281 323.5,370.5C 330.217,360.797 336.884,351.131 343.5,341.5C 344.166,345.684 344.833,350.018 345.5,354.5C 352.714,352.209 359.714,349.543 366.5,346.5C 366.138,341.05 365.138,335.717 363.5,330.5C 359.555,329.509 355.555,329.176 351.5,329.5C 351.989,328.005 352.655,326.671 353.5,325.5C 358.113,324.979 362.779,324.813 367.5,325C 374.272,316.299 373.938,307.799 366.5,299.5C 366.216,297.585 366.549,295.919 367.5,294.5C 373.085,300.676 376.752,307.676 378.5,315.5C 381.548,312.454 384.215,309.12 386.5,305.5C 384.329,300.257 383.163,294.924 383,289.5C 384.308,291.641 385.808,293.641 387.5,295.5C 390.668,293.292 394.001,291.792 397.5,291C 391.249,295.572 388.749,301.738 390,309.5C 387.167,312.333 384.333,315.167 381.5,318C 383.836,320.833 386.836,322 390.5,321.5 Z"/></g>
<g><path style="opacity:0.918" fill="#b3a58a" d="M 416.5,272.5 C 417.801,273.64 418.968,274.973 420,276.5C 421.494,275.253 422.994,275.253 424.5,276.5C 424.023,277.478 423.357,278.311 422.5,279C 424.421,279.36 426.088,280.194 427.5,281.5C 429.197,280.636 430.363,279.303 431,277.5C 431.383,278.056 431.883,278.389 432.5,278.5C 428.503,298.491 420.67,316.825 409,333.5C 401.97,340.865 394.636,347.865 387,354.5C 383.951,358.043 381.118,361.709 378.5,365.5C 377.18,367.463 375.846,369.463 374.5,371.5C 373.501,366.457 374.168,361.457 376.5,356.5C 376.137,355.817 375.804,355.15 375.5,354.5C 377.048,354.179 377.715,353.179 377.5,351.5C 380.822,343.882 384.155,336.216 387.5,328.5C 389.293,326.574 390.293,324.241 390.5,321.5C 393.088,317.325 395.422,312.991 397.5,308.5C 400.557,304.742 403.39,300.742 406,296.5C 409.257,288.327 412.757,280.327 416.5,272.5 Z"/></g>
<g><path style="opacity:0.983" fill="#33373a" d="M 191.5,342.5 C 191.5,343.5 191.5,344.5 191.5,345.5C 194.898,345.18 198.232,345.513 201.5,346.5C 204.088,350.676 206.921,354.676 210,358.5C 210.877,360.674 210.377,362.341 208.5,363.5C 201.129,362.655 194.129,360.489 187.5,357C 184.077,353.762 181.743,349.929 180.5,345.5C 183.187,345.664 185.854,345.497 188.5,345C 188.167,344.667 187.833,344.333 187.5,344C 188.745,343.209 190.078,342.709 191.5,342.5 Z"/></g>
<g><path style="opacity:0.975" fill="#33373a" d="M 313.5,343.5 C 316.92,345.222 320.586,345.889 324.5,345.5C 323.447,349.905 321.114,353.572 317.5,356.5C 311.09,359.394 304.59,362.06 298,364.5C 297.617,363.944 297.117,363.611 296.5,363.5C 295.188,362.855 294.188,361.855 293.5,360.5C 296.833,355.833 300.167,351.167 303.5,346.5C 307.263,346.104 310.597,345.104 313.5,343.5 Z"/></g>
<g><path style="opacity:0.966" fill="#a53c2e" d="M 137.5,295.5 C 138.434,296.568 138.768,297.901 138.5,299.5C 135.158,303.186 133.158,307.519 132.5,312.5C 133.074,324.905 139.408,329.238 151.5,325.5C 152.11,326.391 152.443,327.391 152.5,328.5C 148.769,329.196 144.935,329.862 141,330.5C 138.702,335.68 138.202,341.013 139.5,346.5C 146.084,350.231 153.084,352.897 160.5,354.5C 160.5,350.167 160.5,345.833 160.5,341.5C 167.137,350.319 173.637,359.319 180,368.5C 179.01,376.146 177.843,383.812 176.5,391.5C 165.537,387.955 154.87,383.622 144.5,378.5C 140.455,377.234 136.789,375.234 133.5,372.5C 136.977,371.677 140.644,371.177 144.5,371C 146.78,370.767 148.78,369.934 150.5,368.5C 148.304,362.731 145.638,357.231 142.5,352C 140.833,351.167 139.167,350.333 137.5,349.5C 134.133,351.225 130.8,352.892 127.5,354.5C 127.5,353.5 127.5,352.5 127.5,351.5C 128.315,350.163 129.482,349.163 131,348.5C 131.765,342.183 132.265,335.849 132.5,329.5C 128.528,329.532 124.694,328.866 121,327.5C 119.615,327.514 118.449,327.848 117.5,328.5C 115.755,326.967 114.755,324.967 114.5,322.5C 116.74,321.736 119.073,320.902 121.5,320C 122.022,319.439 122.355,318.772 122.5,318C 120.385,314.882 117.885,312.048 115,309.5C 114.667,305.833 114.333,302.167 114,298.5C 105.009,289.151 106.009,288.151 117,295.5C 118.565,294.048 119.898,292.381 121,290.5C 121.516,295.994 120.35,301.16 117.5,306C 119.967,309.634 122.967,312.801 126.5,315.5C 127.709,308.417 130.543,302.083 135,296.5C 135.671,295.748 136.504,295.414 137.5,295.5 Z"/></g>
<g><path style="opacity:0.271" fill="#3a2c1e" d="M 377.5,416.5 C 374.499,419.493 371.165,422.159 367.5,424.5C 372.152,428.651 376.652,432.985 381,437.5C 383.585,433.496 385.751,429.329 387.5,425C 386.027,424.29 385.36,423.124 385.5,421.5C 387.183,422.853 388.516,424.52 389.5,426.5C 387.546,430.408 385.546,434.408 383.5,438.5C 388.137,439.43 392.804,440.097 397.5,440.5C 397.5,441.833 397.5,443.167 397.5,444.5C 395.136,445.529 392.803,445.529 390.5,444.5C 387.32,446.41 383.987,448.077 380.5,449.5C 379.893,449.376 379.56,449.043 379.5,448.5C 379.823,444.774 379.489,441.107 378.5,437.5C 374.176,433.554 369.843,429.554 365.5,425.5C 363.721,423.454 362.054,421.287 360.5,419C 348.583,419.902 337.249,417.902 326.5,413C 325.009,410.978 325.342,409.312 327.5,408C 335.5,407.667 343.5,407.333 351.5,407C 358.795,397.57 365.462,387.737 371.5,377.5C 373.176,376.817 373.843,375.483 373.5,373.5C 374.833,373.5 376.167,373.5 377.5,373.5C 377.22,370.728 377.887,368.228 379.5,366C 379.272,365.601 378.938,365.435 378.5,365.5C 381.118,361.709 383.951,358.043 387,354.5C 394.636,347.865 401.97,340.865 409,333.5C 420.67,316.825 428.503,298.491 432.5,278.5C 435.85,266.078 438.184,253.411 439.5,240.5C 442.167,211.168 442.167,181.835 439.5,152.5C 439.369,151.761 439.536,151.094 440,150.5C 441.905,151.158 443.405,152.325 444.5,154C 444.588,160.686 444.588,167.352 444.5,174C 446.317,177.7 446.651,181.2 445.5,184.5C 446.074,186.059 446.74,187.559 447.5,189C 447.434,198.799 447.434,208.133 447.5,217C 446.454,225.409 445.288,233.576 444,241.5C 443.25,242.126 442.416,242.626 441.5,243C 442.795,245.801 442.795,248.634 441.5,251.5C 442.274,252.711 443.107,252.711 444,251.5C 443.49,253.38 443.657,255.213 444.5,257C 442.986,258.439 442.653,259.939 443.5,261.5C 441.973,263.193 440.64,265.027 439.5,267C 441.878,267.974 441.544,268.641 438.5,269C 439.672,269.419 440.672,270.085 441.5,271C 438.711,291.536 431.544,311.036 420,329.5C 417.864,333.493 414.697,336.16 410.5,337.5C 406.48,343.52 401.48,348.52 395.5,352.5C 390.839,358.736 386.173,365.069 381.5,371.5C 378.044,375.391 374.377,379.058 370.5,382.5C 370.694,384.07 370.694,385.57 370.5,387C 368.656,389.343 366.656,391.51 364.5,393.5C 362.687,398.97 359.687,403.637 355.5,407.5C 356.07,411.334 358.07,414.001 361.5,415.5C 364.157,416.259 366.823,416.926 369.5,417.5C 372.084,416.607 374.751,416.274 377.5,416.5 Z"/></g>
<g><path style="opacity:0.95" fill="#dfd30f" d="M 277.5,347.5 C 277.083,354.584 273.416,358.917 266.5,360.5C 265.527,352.145 269.194,347.811 277.5,347.5 Z"/></g>
<g><path style="opacity:0.974" fill="#857f74" d="M 133.5,372.5 C 132.209,372.737 131.209,372.404 130.5,371.5C 131.101,365.744 130.101,360.077 127.5,354.5C 130.8,352.892 134.133,351.225 137.5,349.5C 139.167,350.333 140.833,351.167 142.5,352C 145.638,357.231 148.304,362.731 150.5,368.5C 148.78,369.934 146.78,370.767 144.5,371C 140.644,371.177 136.977,371.677 133.5,372.5 Z"/></g>
<g><path style="opacity:0.98" fill="#807c72" d="M 168.5,349.5 C 168.897,348.475 169.563,348.308 170.5,349C 181.055,357.945 193.055,364.279 206.5,368C 202.954,369.793 199.287,371.293 195.5,372.5C 192.424,370.213 189.091,369.88 185.5,371.5C 179.352,364.537 173.685,357.203 168.5,349.5 Z"/></g>
<g><path style="opacity:0.962" fill="#ded30f" d="M 227.5,347.5 C 235.846,347.848 239.513,352.181 238.5,360.5C 231.624,358.952 227.957,354.619 227.5,347.5 Z"/></g>
<g><path style="opacity:0.93" fill="#837c72" d="M 375.5,354.5 C 375.804,355.15 376.137,355.817 376.5,356.5C 374.168,361.457 373.501,366.457 374.5,371.5C 373.432,372.434 372.099,372.768 370.5,372.5C 365.541,371.706 360.541,370.872 355.5,370C 354.978,369.439 354.645,368.772 354.5,368C 356.998,362.001 359.998,356.334 363.5,351C 368.098,350.133 372.098,351.3 375.5,354.5 Z"/></g>
<g><path style="opacity:0.008" fill="#4f3d28" d="M 401.5,364.5 C 401.833,364.5 402.167,364.5 402.5,364.5C 402.315,365.17 401.981,365.17 401.5,364.5 Z"/></g>
<g><path style="opacity:0.977" fill="#827e74" d="M 291.5,367.5 C 295.419,368.793 299.086,370.626 302.5,373C 305.934,373.558 309.267,374.391 312.5,375.5C 311.065,383.471 308.065,390.804 303.5,397.5C 302.961,394.789 301.628,392.623 299.5,391C 294.012,388.984 288.345,388.151 282.5,388.5C 284.145,380.881 287.145,373.881 291.5,367.5 Z"/></g>
<g><path style="opacity:0.879" fill="#151514" d="M 241.5,369.5 C 248.801,372.1 256.134,372.1 263.5,369.5C 263.5,370.167 263.5,370.833 263.5,371.5C 263.756,373.792 263.423,375.959 262.5,378C 259.287,380.572 255.62,382.072 251.5,382.5C 244.849,381.697 241.182,378.031 240.5,371.5C 241.338,371.158 241.672,370.492 241.5,369.5 Z"/></g>
<g><path style="opacity:0.91" fill="#b9b3a4" d="M 225.5,366.5 C 232.133,372.006 231.8,377.006 224.5,381.5C 223.287,376.408 223.621,371.408 225.5,366.5 Z"/></g>
<g><path style="opacity:0.976" fill="#ccc6b5" d="M 278.5,365.5 C 279.268,366.263 279.768,367.263 280,368.5C 280.667,372.833 280.667,377.167 280,381.5C 277.75,379.591 275.916,377.425 274.5,375C 275.428,371.647 276.761,368.48 278.5,365.5 Z"/></g>
<g><path style="opacity:0.491" fill="#30251a" d="M 380.5,240.5 C 378.185,259.097 373.851,277.097 367.5,294.5C 366.549,295.919 366.216,297.585 366.5,299.5C 362.564,308.268 358.231,316.935 353.5,325.5C 352.655,326.671 351.989,328.005 351.5,329.5C 349.355,333.774 346.688,337.774 343.5,341.5C 336.884,351.131 330.217,360.797 323.5,370.5C 326.057,377.281 327.723,384.281 328.5,391.5C 343.272,386.695 357.272,380.362 370.5,372.5C 372.099,372.768 373.432,372.434 374.5,371.5C 375.846,369.463 377.18,367.463 378.5,365.5C 378.938,365.435 379.272,365.601 379.5,366C 377.887,368.228 377.22,370.728 377.5,373.5C 376.167,373.5 374.833,373.5 373.5,373.5C 373.843,375.483 373.176,376.817 371.5,377.5C 371.44,376.957 371.107,376.624 370.5,376.5C 353.77,385.581 336.436,393.414 318.5,400C 312.851,412.157 305.851,423.324 297.5,433.5C 296.593,430.852 295.426,427.852 294,424.5C 291.955,426.043 290.455,425.71 289.5,423.5C 295.106,420.949 294.773,419.449 288.5,419C 284.953,414.959 281.62,410.792 278.5,406.5C 278.842,405.662 279.508,405.328 280.5,405.5C 282.795,408.297 285.295,410.964 288,413.5C 287.919,405.093 286.086,397.093 282.5,389.5C 282.5,389.167 282.5,388.833 282.5,388.5C 288.345,388.151 294.012,388.984 299.5,391C 301.628,392.623 302.961,394.789 303.5,397.5C 308.065,390.804 311.065,383.471 312.5,375.5C 309.267,374.391 305.934,373.558 302.5,373C 299.086,370.626 295.419,368.793 291.5,367.5C 291.5,367.167 291.5,366.833 291.5,366.5C 294.285,367.084 295.952,366.084 296.5,363.5C 297.117,363.611 297.617,363.944 298,364.5C 304.59,362.06 311.09,359.394 317.5,356.5C 321.114,353.572 323.447,349.905 324.5,345.5C 329.018,345.03 333.351,343.863 337.5,342C 344.147,334.18 349.814,325.68 354.5,316.5C 354.167,316.167 353.833,315.833 353.5,315.5C 348.253,317.377 343.086,319.377 338,321.5C 337.667,321.167 337.333,320.833 337,320.5C 335.667,322.5 334.333,324.5 333,326.5C 332.508,325.451 332.674,324.451 333.5,323.5C 333,323.167 332.5,322.833 332,322.5C 330.56,323.148 329.06,323.481 327.5,323.5C 327.343,322.127 327.51,320.793 328,319.5C 330.209,319.011 332.042,318.011 333.5,316.5C 341.187,314.74 348.354,311.74 355,307.5C 358.743,298.929 362.076,290.263 365,281.5C 365.499,275.509 365.666,269.509 365.5,263.5C 366.117,263.611 366.617,263.944 367,264.5C 369,263.167 370.667,261.5 372,259.5C 375.145,253.547 376.812,247.213 377,240.5C 377.986,241.171 379.153,241.171 380.5,240.5 Z"/></g>
<g><path style="opacity:0.979" fill="#7f7a71" d="M 334.5,348.5 C 336.646,348.696 336.812,349.696 335,351.5C 329.833,358.5 324.667,365.5 319.5,372.5C 315.945,369.88 312.445,369.88 309,372.5C 305.296,371.396 301.796,369.896 298.5,368C 311.852,363.827 323.852,357.327 334.5,348.5 Z"/></g>
<g><path style="opacity:0.023" fill="#503d29" d="M 108.5,374.5 C 110.238,376.119 110.738,378.119 110,380.5C 108.681,378.75 108.181,376.75 108.5,374.5 Z"/></g>
<g><path style="opacity:0.008" fill="#503d28" d="M 395.5,374.5 C 396.833,375.167 396.833,375.167 395.5,374.5 Z"/></g>
<g><path style="opacity:0.017" fill="#503d28" d="M 394.5,376.5 C 396.807,377.405 396.807,378.738 394.5,380.5C 393.708,379.3 393.708,377.967 394.5,376.5 Z"/></g>
<g><path style="opacity:0.966" fill="#817c72" d="M 211.5,368.5 C 212.822,368.33 213.989,368.663 215,369.5C 217.987,374.965 220.487,380.631 222.5,386.5C 222.457,387.416 222.124,388.083 221.5,388.5C 217.486,388.334 213.486,388.501 209.5,389C 205.078,389.758 202.245,392.258 201,396.5C 196.784,390.363 193.617,383.696 191.5,376.5C 198.408,374.377 205.074,371.711 211.5,368.5 Z"/></g>
<g><path style="opacity:0.922" fill="#c1bbaa" d="M 233.5,371.5 C 235.699,375.399 237.366,379.732 238.5,384.5C 237.061,386.553 235.061,387.553 232.5,387.5C 232.267,382.105 232.6,376.772 233.5,371.5 Z"/></g>
<g><path style="opacity:0.977" fill="#c3beae" d="M 269.5,371.5 C 271.164,372.949 271.998,374.949 272,377.5C 272.825,381.211 272.659,384.878 271.5,388.5C 268.802,387.802 267.136,386.136 266.5,383.5C 268.008,379.628 269.008,375.628 269.5,371.5 Z"/></g>
<g><path style="opacity:0.947" fill="#cfc7b4" d="M 181.5,373.5 C 182.496,373.414 183.329,373.748 184,374.5C 184.748,376.332 185.748,377.999 187,379.5C 192.005,387.122 196.005,395.122 199,403.5C 191.879,400.352 184.879,397.019 178,393.5C 178.83,386.83 179.997,380.163 181.5,373.5 Z"/></g>
<g><path style="opacity:0.95" fill="#d2cab8" d="M 321.5,373.5 C 322.117,373.611 322.617,373.944 323,374.5C 325.316,380.725 326.149,387.058 325.5,393.5C 319.288,396.773 312.954,399.773 306.5,402.5C 305.479,401.998 305.312,401.332 306,400.5C 311.178,391.473 316.345,382.473 321.5,373.5 Z"/></g>
<g><path style="opacity:0.008" fill="#503d28" d="M 383.5,388.5 C 384.833,389.167 384.833,389.167 383.5,388.5 Z"/></g>
<g><path style="opacity:0.925" fill="#d0c9b6" d="M 239.5,385.5 C 239.56,384.957 239.893,384.624 240.5,384.5C 242.535,385.041 244.535,385.708 246.5,386.5C 245.512,389.45 244.679,392.45 244,395.5C 242.747,391.999 241.247,388.665 239.5,385.5 Z"/></g>
<g><path style="opacity:0.941" fill="#c7c1b0" d="M 258.5,384.5 C 260.857,384.337 263.19,384.503 265.5,385C 263.618,387.978 262.118,391.145 261,394.5C 258.997,391.5 258.164,388.167 258.5,384.5 Z"/></g>
<g><path style="opacity:0.973" fill="#807b71" d="M 282.5,389.5 C 286.086,397.093 287.919,405.093 288,413.5C 285.295,410.964 282.795,408.297 280.5,405.5C 278.138,402.808 275.804,400.141 273.5,397.5C 273.616,394.14 273.949,390.807 274.5,387.5C 277.327,387.584 279.994,388.25 282.5,389.5 Z"/></g>
<g><path style="opacity:0.969" fill="#807b71" d="M 286.5,391.5 C 290.264,392.12 293.931,393.12 297.5,394.5C 300.797,400.902 303.797,407.402 306.5,414C 303.113,416.185 299.446,417.685 295.5,418.5C 293.097,409.29 290.097,400.29 286.5,391.5 Z"/></g>
<g><path style="opacity:0.929" fill="#7b746a" d="M 241.5,405.5 C 239.337,409.853 236.503,413.853 233,417.5C 232.831,410.809 232.331,404.142 231.5,397.5C 226.512,403.327 221.178,408.493 215.5,413C 217.39,406.271 219.057,399.437 220.5,392.5C 221.338,392.158 221.672,391.492 221.5,390.5C 223.997,388.129 226.997,387.129 230.5,387.5C 230.963,390.482 231.296,393.482 231.5,396.5C 234.005,396.02 236.338,395.02 238.5,393.5C 241.937,396.998 242.937,400.998 241.5,405.5 Z"/></g>
<g><path style="opacity:0.848" fill="#7e776d" d="M 272.5,397.5 C 271.793,403.8 271.293,410.133 271,416.5C 267.991,412.469 264.991,408.469 262,404.5C 261.228,404.645 260.561,404.978 260,405.5C 258.005,410.16 255.505,414.494 252.5,418.5C 249.586,414.342 246.919,410.009 244.5,405.5C 244.389,404.883 244.056,404.383 243.5,404C 245.9,399.354 248.9,395.187 252.5,391.5C 255.567,395.287 258.4,399.287 261,403.5C 262.777,400.28 264.277,396.947 265.5,393.5C 268.024,394.592 270.357,395.926 272.5,397.5 Z"/></g>
<g><path style="opacity:0.478" fill="#2e2318" d="M 135.5,382.5 C 141.145,390.433 146.811,398.433 152.5,406.5C 160.813,407.332 169.147,407.832 177.5,408C 178.574,408.739 179.241,409.739 179.5,411C 175.163,413.897 170.496,416.23 165.5,418C 158.5,418.333 151.5,418.667 144.5,419C 142.666,421.663 140.666,424.163 138.5,426.5C 134.467,430.868 130.134,434.868 125.5,438.5C 123.35,440.827 120.683,441.66 117.5,441C 118.056,440.617 118.389,440.117 118.5,439.5C 119.167,439.5 119.833,439.5 120.5,439.5C 121.167,438.833 121.833,438.167 122.5,437.5C 124.912,437.306 125.912,435.973 125.5,433.5C 129.993,431.69 133.659,428.69 136.5,424.5C 133.802,422.159 131.135,419.826 128.5,417.5C 130.306,416.794 132.139,417.127 134,418.5C 137.076,417.712 140.242,417.212 143.5,417C 150.852,415.419 152.352,411.585 148,405.5C 141.775,398.82 137.608,391.153 135.5,382.5 Z"/></g>
<g><path style="opacity:0.886" fill="#7b756a" d="M 215.5,392.5 C 216.376,392.369 217.043,392.702 217.5,393.5C 214.393,401.656 211.393,409.823 208.5,418C 207.552,418.483 206.552,418.649 205.5,418.5C 203.481,417.067 201.314,415.733 199,414.5C 198.333,413.5 198.333,412.5 199,411.5C 201.474,405.748 204.14,400.081 207,394.5C 209.621,393.009 212.455,392.342 215.5,392.5 Z"/></g>
<g><path style="opacity:0.941" fill="#313739" d="M 371.5,377.5 C 365.462,387.737 358.795,397.57 351.5,407C 343.5,407.333 335.5,407.667 327.5,408C 325.342,409.312 325.009,410.978 326.5,413C 337.249,417.902 348.583,419.902 360.5,419C 362.054,421.287 363.721,423.454 365.5,425.5C 362.579,430.341 359.912,435.341 357.5,440.5C 356.883,440.389 356.383,440.056 356,439.5C 355.722,440.416 355.222,441.082 354.5,441.5C 349.905,436.567 345.238,431.567 340.5,426.5C 337.351,431.13 335.018,436.13 333.5,441.5C 319.817,441.833 306.15,441.499 292.5,440.5C 294.422,438.313 296.088,435.98 297.5,433.5C 305.851,423.324 312.851,412.157 318.5,400C 336.436,393.414 353.77,385.581 370.5,376.5C 371.107,376.624 371.44,376.957 371.5,377.5 Z"/></g>
<g><path style="opacity:0.953" fill="#30373a" d="M 136.5,377.5 C 151.545,386.533 167.545,393.867 184.5,399.5C 191.101,411.048 198.434,422.048 206.5,432.5C 207.701,434.909 209.367,436.909 211.5,438.5C 211.804,439.15 212.137,439.817 212.5,440.5C 195.179,441.5 177.846,441.833 160.5,441.5C 163.625,440.521 166.958,440.187 170.5,440.5C 169.969,437.763 169.136,435.096 168,432.5C 167.359,430.187 166.026,428.52 164,427.5C 159.989,432.009 155.489,436.009 150.5,439.5C 149.391,439.557 148.391,439.89 147.5,440.5C 144.996,435.485 141.996,430.819 138.5,426.5C 140.666,424.163 142.666,421.663 144.5,419C 151.5,418.667 158.5,418.333 165.5,418C 170.496,416.23 175.163,413.897 179.5,411C 179.241,409.739 178.574,408.739 177.5,408C 169.147,407.832 160.813,407.332 152.5,406.5C 146.811,398.433 141.145,390.433 135.5,382.5C 135.08,380.906 134.414,379.406 133.5,378C 133.667,377.5 133.833,377 134,376.5C 134.671,377.252 135.504,377.586 136.5,377.5 Z"/></g>
<g><path style="opacity:0.97" fill="#807c72" d="M 278.5,406.5 C 281.62,410.792 284.953,414.959 288.5,419C 294.773,419.449 295.106,420.949 289.5,423.5C 284.877,424.042 280.543,425.376 276.5,427.5C 276.66,420.421 275.993,413.421 274.5,406.5C 274.667,405.167 274.833,403.833 275,402.5C 275.949,404.093 277.115,405.426 278.5,406.5 Z"/></g>
<g><path style="opacity:0.389" fill="#382c1f" d="M 220.5,392.5 C 219.057,399.437 217.39,406.271 215.5,413C 221.178,408.493 226.512,403.327 231.5,397.5C 232.331,404.142 232.831,410.809 233,417.5C 236.503,413.853 239.337,409.853 241.5,405.5C 242.5,405.5 243.5,405.5 244.5,405.5C 246.919,410.009 249.586,414.342 252.5,418.5C 255.505,414.494 258.005,410.16 260,405.5C 260.561,404.978 261.228,404.645 262,404.5C 264.991,408.469 267.991,412.469 271,416.5C 271.293,410.133 271.793,403.8 272.5,397.5C 272.833,397.5 273.167,397.5 273.5,397.5C 275.804,400.141 278.138,402.808 280.5,405.5C 279.508,405.328 278.842,405.662 278.5,406.5C 277.115,405.426 275.949,404.093 275,402.5C 274.833,403.833 274.667,405.167 274.5,406.5C 275.993,413.421 276.66,420.421 276.5,427.5C 278.224,428.26 279.89,428.593 281.5,428.5C 278.044,429.157 274.878,430.49 272,432.5C 271.667,432.167 271.333,431.833 271,431.5C 268.171,433.133 265.338,434.799 262.5,436.5C 261.859,435.007 260.859,434.007 259.5,433.5C 257.889,429.949 255.556,426.949 252.5,424.5C 249.453,426.918 247.12,429.918 245.5,433.5C 246.857,435.186 248.19,436.852 249.5,438.5C 248.516,441.07 247.349,441.07 246,438.5C 245.586,438.957 245.086,439.291 244.5,439.5C 237.792,437.313 231.459,434.313 225.5,430.5C 224.28,431.711 223.113,431.711 222,430.5C 220.921,432.394 219.587,432.727 218,431.5C 215.735,432.916 214.569,434.916 214.5,437.5C 213.209,437.263 212.209,437.596 211.5,438.5C 209.367,436.909 207.701,434.909 206.5,432.5C 206.167,427.833 205.833,423.167 205.5,418.5C 206.552,418.649 207.552,418.483 208.5,418C 211.393,409.823 214.393,401.656 217.5,393.5C 217.043,392.702 216.376,392.369 215.5,392.5C 217.286,390.078 218.952,390.078 220.5,392.5 Z"/></g>
<g><path style="opacity:0.941" fill="#7b756b" d="M 229.5,401.5 C 230.16,402.964 230.493,404.631 230.5,406.5C 229.007,413.415 228.34,420.415 228.5,427.5C 222.177,425.949 216.177,423.616 210.5,420.5C 212.862,419.729 215.196,418.895 217.5,418C 221.718,412.622 225.718,407.122 229.5,401.5 Z"/></g>
<g><path style="opacity:0.858" fill="#7a7368" d="M 242.5,407.5 C 245.14,412.104 247.806,416.771 250.5,421.5C 247.156,425.54 243.823,429.54 240.5,433.5C 237.167,429.833 233.833,426.167 230.5,422.5C 231.833,421.833 233.167,421.167 234.5,420.5C 237.229,416.126 239.896,411.793 242.5,407.5 Z"/></g>
<g><path style="opacity:0.958" fill="#2f3639" d="M 128.5,417.5 C 131.135,419.826 133.802,422.159 136.5,424.5C 133.659,428.69 129.993,431.69 125.5,433.5C 125.912,435.973 124.912,437.306 122.5,437.5C 121.037,433.895 119.537,430.229 118,426.5C 117.333,425.167 117.333,423.833 118,422.5C 120.333,420.167 122.667,417.833 125,415.5C 126.113,416.305 127.279,416.972 128.5,417.5 Z"/></g>
<g><path style="opacity:0.89" fill="#323737" d="M 385.5,421.5 C 385.36,423.124 386.027,424.29 387.5,425C 385.751,429.329 383.585,433.496 381,437.5C 376.652,432.985 372.152,428.651 367.5,424.5C 371.165,422.159 374.499,419.493 377.5,416.5C 380.999,416.246 383.665,417.912 385.5,421.5 Z"/></g>
<g><path style="opacity:0.008" fill="#503d28" d="M 412.5,422.5 C 413.833,423.167 413.833,423.167 412.5,422.5 Z"/></g>
<g><path style="opacity:0.859" fill="#7c766c" d="M 261.5,407.5 C 264.309,411.768 267.143,416.102 270,420.5C 271.509,421.09 273.009,421.756 274.5,422.5C 271.167,426.167 267.833,429.833 264.5,433.5C 260.82,429.817 257.486,425.817 254.5,421.5C 256.847,416.807 259.18,412.14 261.5,407.5 Z"/></g>
<g><path style="opacity:0.119" fill="#433322" d="M 102.5,446.5 C 103.69,444.645 105.023,442.812 106.5,441C 110.395,439.734 114.395,439.234 118.5,439.5C 118.389,440.117 118.056,440.617 117.5,441C 120.683,441.66 123.35,440.827 125.5,438.5C 123.99,450.115 125.99,451.115 131.5,441.5C 136.792,440.505 142.125,440.172 147.5,440.5C 148.391,439.89 149.391,439.557 150.5,439.5C 150.337,441.857 150.503,444.19 151,446.5C 153.169,442.81 156.336,441.143 160.5,441.5C 177.846,441.833 195.179,441.5 212.5,440.5C 212.137,439.817 211.804,439.15 211.5,438.5C 212.209,437.596 213.209,437.263 214.5,437.5C 214.569,434.916 215.735,432.916 218,431.5C 219.587,432.727 220.921,432.394 222,430.5C 223.113,431.711 224.28,431.711 225.5,430.5C 231.459,434.313 237.792,437.313 244.5,439.5C 245.086,439.291 245.586,438.957 246,438.5C 247.349,441.07 248.516,441.07 249.5,438.5C 254.032,439.707 257.365,438.041 259.5,433.5C 260.859,434.007 261.859,435.007 262.5,436.5C 265.338,434.799 268.171,433.133 271,431.5C 271.333,431.833 271.667,432.167 272,432.5C 274.878,430.49 278.044,429.157 281.5,428.5C 279.89,428.593 278.224,428.26 276.5,427.5C 280.543,425.376 284.877,424.042 289.5,423.5C 290.455,425.71 291.955,426.043 294,424.5C 295.426,427.852 296.593,430.852 297.5,433.5C 296.088,435.98 294.422,438.313 292.5,440.5C 306.15,441.499 319.817,441.833 333.5,441.5C 338.844,441.334 344.177,441.501 349.5,442C 351.359,443.558 352.859,445.391 354,447.5C 354.495,445.527 354.662,443.527 354.5,441.5C 355.222,441.082 355.722,440.416 356,439.5C 356.383,440.056 356.883,440.389 357.5,440.5C 362.511,440.334 367.511,440.501 372.5,441C 374.518,443.934 376.852,446.434 379.5,448.5C 379.56,449.043 379.893,449.376 380.5,449.5C 383.987,448.077 387.32,446.41 390.5,444.5C 392.803,445.529 395.136,445.529 397.5,444.5C 397.5,443.167 397.5,441.833 397.5,440.5C 398.983,442.094 400.483,443.76 402,445.5C 402.667,442.5 402.667,439.5 402,436.5C 397.959,432.953 393.792,429.62 389.5,426.5C 388.516,424.52 387.183,422.853 385.5,421.5C 383.665,417.912 380.999,416.246 377.5,416.5C 374.751,416.274 372.084,416.607 369.5,417.5C 366.823,416.926 364.157,416.259 361.5,415.5C 358.07,414.001 356.07,411.334 355.5,407.5C 359.687,403.637 362.687,398.97 364.5,393.5C 366.656,391.51 368.656,389.343 370.5,387C 370.694,385.57 370.694,384.07 370.5,382.5C 374.377,379.058 378.044,375.391 381.5,371.5C 386.173,365.069 390.839,358.736 395.5,352.5C 401.48,348.52 406.48,343.52 410.5,337.5C 414.697,336.16 417.864,333.493 420,329.5C 431.544,311.036 438.711,291.536 441.5,271C 440.672,270.085 439.672,269.419 438.5,269C 441.544,268.641 441.878,267.974 439.5,267C 440.64,265.027 441.973,263.193 443.5,261.5C 442.653,259.939 442.986,258.439 444.5,257C 443.657,255.213 443.49,253.38 444,251.5C 443.107,252.711 442.274,252.711 441.5,251.5C 442.795,248.634 442.795,245.801 441.5,243C 442.416,242.626 443.25,242.126 444,241.5C 445.288,233.576 446.454,225.409 447.5,217C 447.434,208.133 447.434,198.799 447.5,189C 446.74,187.559 446.074,186.059 445.5,184.5C 446.651,181.2 446.317,177.7 444.5,174C 444.588,167.352 444.588,160.686 444.5,154C 443.405,152.325 441.905,151.158 440,150.5C 439.536,151.094 439.369,151.761 439.5,152.5C 437.151,135.08 433.817,117.747 429.5,100.5C 424.75,80.6635 415.084,63.6635 400.5,49.5C 401.404,48.791 401.737,47.791 401.5,46.5C 403.401,46.4332 405.234,46.7665 407,47.5C 408.997,49.7332 411.497,51.2332 414.5,52C 414.605,54.4624 416.271,55.6291 419.5,55.5C 419.921,57.9099 421.254,59.7432 423.5,61C 422.639,63.3207 423.639,64.4874 426.5,64.5C 431.59,76.5294 436.59,88.696 441.5,101C 441.043,101.414 440.709,101.914 440.5,102.5C 441.821,107.066 442.655,111.733 443,116.5C 443.956,117.579 444.789,118.745 445.5,120C 445.06,122.162 444.727,124.329 444.5,126.5C 448.352,135.139 449.685,143.639 448.5,152C 449.167,154 449.833,156 450.5,158C 449.754,160.093 449.421,162.093 449.5,164C 450.944,165.126 451.61,166.626 451.5,168.5C 450.681,170.984 450.348,173.318 450.5,175.5C 451.292,178.126 451.959,180.792 452.5,183.5C 452.11,187.375 451.776,191.209 451.5,195C 452.167,201.333 452.833,207.667 453.5,214C 452.253,215.458 452.253,216.958 453.5,218.5C 452.627,220.413 451.627,222.247 450.5,224C 451.378,230.778 451.212,237.611 450,244.5C 449.5,245 449,245.5 448.5,246C 448.539,248.297 448.872,250.63 449.5,253C 447.02,253.915 446.353,255.415 447.5,257.5C 447.054,260.276 446.054,262.776 444.5,265C 445.022,265.561 445.355,266.228 445.5,267C 444.043,270.175 443.043,273.509 442.5,277C 442.957,277.414 443.291,277.914 443.5,278.5C 442.062,286.989 439.895,295.322 437,303.5C 431.875,314.415 426.208,325.082 420,335.5C 417.179,337.322 414.679,339.489 412.5,342C 413.451,342.718 413.617,343.551 413,344.5C 411.58,346.422 409.747,347.755 407.5,348.5C 400.794,356.036 393.961,363.369 387,370.5C 381.643,377.212 377.31,384.545 374,392.5C 371.333,394.448 369.833,397.115 369.5,400.5C 368.975,401.192 368.308,401.692 367.5,402C 367.833,402.333 368.167,402.667 368.5,403C 367.5,403.833 366.5,404.667 365.5,405.5C 366.246,406.736 366.579,408.07 366.5,409.5C 371.611,409.745 376.445,410.412 381,411.5C 381.249,410.376 381.749,409.376 382.5,408.5C 388.997,411.489 393.83,416.155 397,422.5C 398.583,420.007 400.083,420.174 401.5,423C 401.167,423.333 400.833,423.667 400.5,424C 402.002,424.583 403.335,425.416 404.5,426.5C 405.984,430.132 407.984,433.466 410.5,436.5C 409.22,440.769 407.554,445.103 405.5,449.5C 387.439,451.677 368.939,453.01 350,453.5C 345.304,452.978 340.637,452.312 336,451.5C 327.331,452.437 318.498,452.604 309.5,452C 298.927,452.429 290.927,448.096 285.5,439C 283.61,437.888 281.61,437.054 279.5,436.5C 276.245,437.641 272.911,438.474 269.5,439C 267.246,441.419 264.579,443.252 261.5,444.5C 258.968,444.086 256.468,443.752 254,443.5C 252.981,444.687 251.814,445.687 250.5,446.5C 247.49,445.731 244.49,444.897 241.5,444C 240.953,443.075 240.287,442.242 239.5,441.5C 234.259,439.295 229.092,436.962 224,434.5C 221.828,435.585 219.828,436.919 218,438.5C 216.435,441.962 214.602,445.295 212.5,448.5C 205.463,450.643 198.463,451.976 191.5,452.5C 185.57,451.196 179.737,450.529 174,450.5C 166.654,452.24 159.154,453.24 151.5,453.5C 143.831,452.222 136.164,452.222 128.5,453.5C 119.849,452.225 111.182,451.058 102.5,450C 101.316,448.855 101.316,447.688 102.5,446.5 Z"/></g>
<g><path style="opacity:0.781" fill="#776f63" d="M 259.5,433.5 C 257.365,438.041 254.032,439.707 249.5,438.5C 248.19,436.852 246.857,435.186 245.5,433.5C 247.12,429.918 249.453,426.918 252.5,424.5C 255.556,426.949 257.889,429.949 259.5,433.5 Z"/></g>
<g><path style="opacity:0.955" fill="#d2cbb8" d="M 138.5,426.5 C 141.996,430.819 144.996,435.485 147.5,440.5C 142.125,440.172 136.792,440.505 131.5,441.5C 125.99,451.115 123.99,450.115 125.5,438.5C 130.134,434.868 134.467,430.868 138.5,426.5 Z"/></g>
<g><path style="opacity:0.967" fill="#d4cbb9" d="M 120.5,439.5 C 119.833,439.5 119.167,439.5 118.5,439.5C 114.395,439.234 110.395,439.734 106.5,441C 105.023,442.812 103.69,444.645 102.5,446.5C 101.596,445.791 101.263,444.791 101.5,443.5C 101.192,441.076 101.526,438.743 102.5,436.5C 103.855,435.812 104.855,434.812 105.5,433.5C 108.767,431.573 111.767,429.239 114.5,426.5C 117.843,430.187 119.843,434.521 120.5,439.5 Z"/></g>
<g><path style="opacity:0.954" fill="#d3cbb9" d="M 160.5,441.5 C 156.336,441.143 153.169,442.81 151,446.5C 150.503,444.19 150.337,441.857 150.5,439.5C 155.489,436.009 159.989,432.009 164,427.5C 166.026,428.52 167.359,430.187 168,432.5C 169.136,435.096 169.969,437.763 170.5,440.5C 166.958,440.187 163.625,440.521 160.5,441.5 Z"/></g>
<g><path style="opacity:0.859" fill="#c3baa7" d="M 354.5,441.5 C 354.662,443.527 354.495,445.527 354,447.5C 352.859,445.391 351.359,443.558 349.5,442C 344.177,441.501 338.844,441.334 333.5,441.5C 335.018,436.13 337.351,431.13 340.5,426.5C 345.238,431.567 349.905,436.567 354.5,441.5 Z"/></g>
<g><path style="opacity:0.958" fill="#c6bdab" d="M 365.5,425.5 C 369.843,429.554 374.176,433.554 378.5,437.5C 379.489,441.107 379.823,444.774 379.5,448.5C 376.852,446.434 374.518,443.934 372.5,441C 367.511,440.501 362.511,440.334 357.5,440.5C 359.912,435.341 362.579,430.341 365.5,425.5 Z"/></g>
<g><path style="opacity:0.82" fill="#bfb5a2" d="M 389.5,426.5 C 393.792,429.62 397.959,432.953 402,436.5C 402.667,439.5 402.667,442.5 402,445.5C 400.483,443.76 398.983,442.094 397.5,440.5C 392.804,440.097 388.137,439.43 383.5,438.5C 385.546,434.408 387.546,430.408 389.5,426.5 Z"/></g>
</svg>
