<?xml version="1.0" encoding="UTF-8"?>
<!DOCTYPE svg PUBLIC "-//W3C//DTD SVG 1.1//EN" "http://www.w3.org/Graphics/SVG/1.1/DTD/svg11.dtd">
<svg xmlns="http://www.w3.org/2000/svg" version="1.1" width="500px" height="500px" style="shape-rendering:geometricPrecision; text-rendering:geometricPrecision; image-rendering:optimizeQuality; fill-rule:evenodd; clip-rule:evenodd" xmlns:xlink="http://www.w3.org/1999/xlink">
<g><path style="opacity:0.041" fill="#4f3b27" d="M 456.5,425.5 C 454.156,426.347 452.656,428.014 452,430.5C 450.209,436.257 449.209,441.923 449,447.5C 446,449.5 443,451.5 440,453.5C 434.524,453.459 428.691,453.459 422.5,453.5C 413.799,452.194 405.299,450.194 397,447.5C 391.756,449.484 386.422,451.15 381,452.5C 376.643,452.351 371.81,452.185 366.5,452C 357.429,449.88 348.595,447.046 340,443.5C 316.794,450.343 293.294,456.01 269.5,460.5C 267.326,459.956 265.326,459.956 263.5,460.5C 261.211,458.408 258.711,458.074 256,459.5C 248.945,456.957 241.945,454.29 235,451.5C 224.131,455.016 212.964,458.849 201.5,463C 193.828,464.934 186.161,464.934 178.5,463C 175.473,462.455 173.14,460.955 171.5,458.5C 166.642,455.694 161.475,452.694 156,449.5C 147.757,451.803 139.257,454.636 130.5,458C 121.506,459.959 112.506,459.959 103.5,458C 99.8849,455.371 96.0515,453.204 92,451.5C 81.995,453.637 72.1616,455.471 62.5,457C 56.8401,457.353 51.3401,457.519 46,457.5C 43.4162,456.896 40.9162,456.063 38.5,455C 37.9582,452.745 36.7915,450.912 35,449.5C 33.6339,443.741 33.1339,438.074 33.5,432.5C 35.6745,417.112 38.1745,401.778 41,386.5C 41.8061,383.554 43.1395,380.888 45,378.5C 47.6667,377.167 49.6667,375.167 51,372.5C 52.9056,360.303 55.5722,348.303 59,336.5C 63.1701,334.345 67.1701,332.011 71,329.5C 72.4027,319.635 72.9027,309.802 72.5,300C 71.6998,295.92 71.1998,291.753 71,287.5C 66.3495,284.76 62.1828,281.426 58.5,277.5C 58.6854,274.781 57.8521,272.115 56,269.5C 55.6667,269.833 55.3333,270.167 55,270.5C 51.8751,267.656 49.0418,264.49 46.5,261C 46.9798,257.42 45.9798,254.087 43.5,251C 44.0585,250.275 44.3918,249.442 44.5,248.5C 44.0932,240.837 41.5932,234.504 37,229.5C 35.3463,222.949 34.1796,216.282 33.5,209.5C 33.903,206.239 34.5697,203.072 35.5,200C 35.0426,199.586 34.7093,199.086 34.5,198.5C 36.8843,193.433 38.7177,188.433 40,183.5C 44.5677,177.941 50.401,174.441 57.5,173C 63.1231,171.971 68.7898,171.471 74.5,171.5C 71.8303,166.816 69.6636,161.816 68,156.5C 67.1293,151.488 66.296,146.488 65.5,141.5C 62.1348,139.323 58.4682,137.823 54.5,137C 47.963,132.11 43.7963,125.61 42,117.5C 36.8724,98.0799 39.2057,79.7466 49,62.5C 56.9689,53.7657 66.8022,48.5991 78.5,47C 85.1346,45.7831 91.8013,44.7831 98.5,44C 123.158,42.3335 147.824,42.0001 172.5,43C 177.48,39.1147 183.147,36.7813 189.5,36C 205.673,33.4202 221.673,34.0869 237.5,38C 244.54,43.4381 252.54,46.7715 261.5,48C 264.167,50 266.833,52 269.5,54C 275.204,54.3669 280.87,55.0336 286.5,56C 288.679,56.4419 289.345,57.4419 288.5,59C 290.501,61.9558 292.501,64.9558 294.5,68C 298.243,69.1365 301.91,70.4698 305.5,72C 311.817,76.7423 318.651,80.5756 326,83.5C 326.873,83.2645 327.707,82.9312 328.5,82.5C 333.49,73.6882 338.657,65.0215 344,56.5C 348.638,51.8385 354.305,49.5052 361,49.5C 365.248,49.9578 369.415,50.7912 373.5,52C 376.512,56.0105 379.345,60.1772 382,64.5C 387.171,58.2966 392.671,52.4632 398.5,47C 404.815,46.4935 410.982,45.9935 417,45.5C 423.928,47.0971 426.928,51.4305 426,58.5C 427.073,60.5466 428.239,62.5466 429.5,64.5C 432.588,64.6482 435.755,64.3148 439,63.5C 440.816,64.3295 442.649,65.1628 444.5,66C 443.833,66.3333 443.167,66.6667 442.5,67C 444.017,68.6851 445.684,70.1851 447.5,71.5C 447.291,72.086 446.957,72.586 446.5,73C 448.952,78.1331 449.618,83.1331 448.5,88C 450.661,103.794 452.661,119.794 454.5,136C 455.639,145.362 455.639,154.696 454.5,164C 453.014,167.8 451.68,171.634 450.5,175.5C 452.354,180.558 453.688,185.724 454.5,191C 454.167,191.333 453.833,191.667 453.5,192C 454.403,197.108 455.237,202.275 456,207.5C 456.465,208.931 457.299,210.097 458.5,211C 457.167,212.84 457.334,213.34 459,212.5C 460.605,215.648 461.605,218.981 462,222.5C 462.667,236.833 462.667,251.167 462,265.5C 460.549,267.989 460.382,270.322 461.5,272.5C 459.453,276.387 457.62,280.387 456,284.5C 455.446,294.376 453.946,303.71 451.5,312.5C 452.841,316.384 453.675,320.384 454,324.5C 458.793,334.713 462.293,345.379 464.5,356.5C 464.32,357.554 463.987,358.554 463.5,359.5C 464.611,360.611 465.278,361.945 465.5,363.5C 465.983,369.447 465.316,375.614 463.5,382C 464.518,392.334 464.518,402.501 463.5,412.5C 461.283,415.068 460.116,418.068 460,421.5C 458.28,422.384 457.114,423.717 456.5,425.5 Z"/></g>
<g><path style="opacity:0.477" fill="#3e291e" d="M 411.5,59.5 C 412.371,63.0212 413.205,66.6879 414,70.5C 414.9,71.7702 416.066,72.7702 417.5,73.5C 416.5,74.1667 415.5,74.8333 414.5,75.5C 416.522,78.3557 419.022,80.689 422,82.5C 422.667,83.8333 423.333,85.1667 424,86.5C 424.417,85.244 425.25,84.5774 426.5,84.5C 422.887,93.059 418.72,101.392 414,109.5C 412.756,92.8635 411.922,76.1968 411.5,59.5 Z"/></g>
<g><path style="opacity:0.935" fill="#1d1915" d="M 409.5,58.5 C 410.492,58.3284 411.158,58.6618 411.5,59.5C 411.922,76.1968 412.756,92.8635 414,109.5C 418.72,101.392 422.887,93.059 426.5,84.5C 427.787,81.9252 429.121,79.2585 430.5,76.5C 431.257,75.2267 431.923,75.2267 432.5,76.5C 432.741,81.694 433.407,86.694 434.5,91.5C 436.387,114.485 438.054,137.485 439.5,160.5C 437.418,160.472 435.584,161.139 434,162.5C 433.667,168.5 433.333,174.5 433,180.5C 429.011,182.201 424.844,183.534 420.5,184.5C 421.791,177.594 423.458,170.76 425.5,164C 425.833,163.5 426.167,163 426.5,162.5C 427.814,163.313 428.981,164.313 430,165.5C 430.61,152.813 430.277,140.146 429,127.5C 428.667,127.167 428.333,126.833 428,126.5C 423.009,141.791 417.509,156.791 411.5,171.5C 411.649,170.448 411.483,169.448 411,168.5C 410.107,169.711 409.274,169.711 408.5,168.5C 408.709,167.914 409.043,167.414 409.5,167C 407.899,166.727 406.399,166.227 405,165.5C 404.667,165.833 404.333,166.167 404,166.5C 403.883,165.05 404.05,163.55 404.5,162C 404.245,160.674 403.578,159.674 402.5,159C 402.728,158.601 403.062,158.435 403.5,158.5C 404.5,158.5 405.5,158.5 406.5,158.5C 406.5,148.167 406.5,137.833 406.5,127.5C 405.448,127.351 404.448,127.517 403.5,128C 400.986,130.415 398.319,132.581 395.5,134.5C 394.194,133.032 392.694,131.699 391,130.5C 389.27,132.602 387.437,132.435 385.5,130C 383.665,129.072 383.332,127.906 384.5,126.5C 383.5,122.5 382.5,122.5 381.5,126.5C 379.378,128.115 377.045,128.615 374.5,128C 376.657,126.915 376.824,125.749 375,124.5C 374,125.5 373,126.5 372,127.5C 368.166,125.922 364.166,124.588 360,123.5C 359.667,123.833 359.333,124.167 359,124.5C 358.1,123.23 356.934,122.23 355.5,121.5C 359.47,119.938 363.47,118.438 367.5,117C 366.359,116.259 366.359,115.425 367.5,114.5C 372.031,113.803 375.698,111.636 378.5,108C 377.978,107.439 377.645,106.772 377.5,106C 378.509,104.832 379.509,103.665 380.5,102.5C 377.546,101.853 374.546,101.686 371.5,102C 372.308,101.692 372.975,101.192 373.5,100.5C 372.635,100.436 371.635,100.103 370.5,99.5C 368.915,101.206 367.082,102.539 365,103.5C 361.682,101.808 359.015,99.4749 357,96.5C 352.878,96.628 348.711,97.4614 344.5,99C 347.044,100.099 347.044,101.265 344.5,102.5C 343.205,99.5131 341.205,98.8464 338.5,100.5C 344.741,90.3579 350.741,80.0246 356.5,69.5C 357.692,67.1217 359.359,65.1217 361.5,63.5C 363.705,67.4812 365.705,71.4812 367.5,75.5C 370.313,83.1357 373.147,90.8024 376,98.5C 376.561,99.0219 377.228,99.3552 378,99.5C 387.399,87.7147 396.566,75.7147 405.5,63.5C 407.543,62.4206 408.876,60.754 409.5,58.5 Z"/></g>
<g><path style="opacity:0.342" fill="#412c1f" d="M 405.5,63.5 C 396.566,75.7147 387.399,87.7147 378,99.5C 377.228,99.3552 376.561,99.0219 376,98.5C 373.147,90.8024 370.313,83.1357 367.5,75.5C 369.086,76.1481 370.753,76.6481 372.5,77C 369.736,78.544 369.903,79.7107 373,80.5C 373.483,81.448 373.649,82.448 373.5,83.5C 376.073,84.2186 378.573,85.2186 381,86.5C 388.274,82.9354 392.941,77.2687 395,69.5C 396.309,67.1088 397.309,67.1088 398,69.5C 400.91,68.5497 402.077,66.5497 401.5,63.5C 402.833,63.5 404.167,63.5 405.5,63.5 Z"/></g>
<g><path style="opacity:0.008" fill="#503d28" d="M 456.5,425.5 C 457.833,426.167 457.833,426.167 456.5,425.5 Z"/></g>
<g><path style="opacity:0.205" fill="#493424" d="M 409.5,58.5 C 408.876,60.754 407.543,62.4206 405.5,63.5C 404.167,63.5 402.833,63.5 401.5,63.5C 402.077,66.5497 400.91,68.5497 398,69.5C 397.309,67.1088 396.309,67.1088 395,69.5C 392.941,77.2687 388.274,82.9354 381,86.5C 378.573,85.2186 376.073,84.2186 373.5,83.5C 373.649,82.448 373.483,81.448 373,80.5C 369.903,79.7107 369.736,78.544 372.5,77C 370.753,76.6481 369.086,76.1481 367.5,75.5C 365.705,71.4812 363.705,67.4812 361.5,63.5C 359.359,65.1217 357.692,67.1217 356.5,69.5C 354.983,69.5106 353.816,70.1772 353,71.5C 349.37,75.8018 345.704,80.1352 342,84.5C 339.906,89.987 336.74,94.8203 332.5,99C 328.262,99.8229 324.262,99.1562 320.5,97C 309.181,88.6806 297.181,82.5139 284.5,78.5C 283.379,75.0435 281.046,73.0435 277.5,72.5C 278.028,71.1526 278.195,69.8193 278,68.5C 275.618,69.5541 273.118,70.2208 270.5,70.5C 263.082,68.6542 257.415,64.6542 253.5,58.5C 250.951,58.6126 248.618,57.9459 246.5,56.5C 244.5,56.8333 242.5,57.1667 240.5,57.5C 240.262,55.5217 238.929,53.8551 236.5,52.5C 231.546,50.692 226.713,48.692 222,46.5C 221.275,47.0585 220.442,47.3918 219.5,47.5C 214.309,46.5612 209.309,45.8945 204.5,45.5C 201.892,45.9228 199.558,46.9228 197.5,48.5C 196.707,48.0688 195.873,47.7355 195,47.5C 191.853,48.6621 188.686,49.6621 185.5,50.5C 185.5,51.8333 185.5,53.1667 185.5,54.5C 173.949,56.9722 162.449,56.6388 151,53.5C 139.268,54.7066 127.434,54.7066 115.5,53.5C 112.123,53.9517 108.789,54.6184 105.5,55.5C 103.9,55.4493 102.4,55.1159 101,54.5C 94.2996,56.2815 87.4663,57.7815 80.5,59C 79.0692,59.4652 77.9025,60.2986 77,61.5C 76.586,61.0426 76.086,60.7093 75.5,60.5C 70.8602,63.4973 66.1936,66.4973 61.5,69.5C 58.865,73.0697 56.365,76.7364 54,80.5C 53.5506,83.132 52.7173,85.632 51.5,88C 51.9755,89.7633 52.6422,91.43 53.5,93C 52.4844,93.5194 51.8178,94.3527 51.5,95.5C 52.2485,97.0356 53.2485,98.3689 54.5,99.5C 53.675,100.386 52.675,100.719 51.5,100.5C 51.388,105.449 52.7214,109.949 55.5,114C 55.1667,114.333 54.8333,114.667 54.5,115C 56.1403,118.329 58.307,121.162 61,123.5C 61.4828,124.448 61.6495,125.448 61.5,126.5C 62.8734,126.343 64.2068,126.51 65.5,127C 69.283,129.54 72.9496,132.04 76.5,134.5C 77.7096,138.586 78.2096,142.586 78,146.5C 79.4023,150.207 80.9023,153.874 82.5,157.5C 87.4217,161.252 91.9217,165.586 96,170.5C 96.0408,172.888 96.8742,175.221 98.5,177.5C 96.1886,179.648 93.5219,181.148 90.5,182C 84.3429,183.784 78.1763,184.284 72,183.5C 62.3388,183.376 55.0055,187.376 50,195.5C 49.3949,198.306 48.0616,200.64 46,202.5C 45.4488,207.545 45.7821,212.545 47,217.5C 48.7468,220.21 49.7468,223.21 50,226.5C 51.0414,228.585 52.5414,230.252 54.5,231.5C 54.455,234.698 54.455,237.865 54.5,241C 55.5634,242.188 56.8967,242.688 58.5,242.5C 58.5,241.5 58.5,240.5 58.5,239.5C 59.3213,242.641 59.8213,245.975 60,249.5C 60.7065,251.081 61.5399,252.581 62.5,254C 63.4491,254.617 64.2825,254.451 65,253.5C 65.4828,254.448 65.6495,255.448 65.5,256.5C 67.1667,256.5 68.8333,256.5 70.5,256.5C 69.5776,268.411 75.0776,273.744 87,272.5C 87.7111,290.666 88.5444,308.666 89.5,326.5C 87.386,337.012 84.5526,347.345 81,357.5C 78.5,353.167 76,348.833 73.5,344.5C 72.0562,346.608 71.3896,348.941 71.5,351.5C 69.9826,351.511 68.8159,352.177 68,353.5C 65.0358,361.983 62.7025,370.65 61,379.5C 58.073,384.305 55.2396,389.138 52.5,394C 51.2728,397.349 51.2728,400.682 52.5,404C 51.7381,407.086 50.4048,410.253 48.5,413.5C 49.1152,415.116 50.1152,416.449 51.5,417.5C 50.846,419.115 50.346,420.782 50,422.5C 49.586,422.043 49.086,421.709 48.5,421.5C 47.2584,427.188 47.2584,432.855 48.5,438.5C 48.5,440.167 48.5,441.833 48.5,443.5C 50.2161,443.371 51.8828,443.038 53.5,442.5C 61.5791,445.195 69.4124,444.528 77,440.5C 78.231,441.108 79.5643,441.441 81,441.5C 85.0795,440.197 89.2462,439.197 93.5,438.5C 97.4858,438.997 101.319,439.997 105,441.5C 107.361,440.934 109.194,441.934 110.5,444.5C 111.736,445.246 113.07,445.579 114.5,445.5C 115.167,445.5 115.833,445.5 116.5,445.5C 119.85,445.665 123.183,445.498 126.5,445C 134.092,441.593 141.759,439.593 149.5,439C 150.333,438.167 151.167,437.333 152,436.5C 155.29,438.032 158.624,438.365 162,437.5C 168.941,443.221 176.774,447.221 185.5,449.5C 186.568,450.434 187.901,450.768 189.5,450.5C 192.728,450.299 195.895,450.633 199,451.5C 208.655,446.747 218.655,442.747 229,439.5C 233.408,439.591 237.908,439.591 242.5,439.5C 243.696,439.846 243.696,440.346 242.5,441C 246.701,441.829 250.534,443.329 254,445.5C 258.225,444.179 262.059,445.012 265.5,448C 268.833,448.667 272.167,448.667 275.5,448C 289.972,444.58 304.305,440.913 318.5,437C 323.446,435.414 328.279,433.58 333,431.5C 338.294,432.741 343.794,432.741 349.5,431.5C 349.5,432.5 349.5,433.5 349.5,434.5C 351.722,434.822 353.556,434.155 355,432.5C 357.382,433.984 359.549,435.818 361.5,438C 364.365,438.837 367.198,439.67 370,440.5C 375.522,438.809 381.355,437.975 387.5,438C 389.286,437.215 390.786,436.049 392,434.5C 392.333,435.167 392.667,435.833 393,436.5C 395.124,435.773 397.291,435.106 399.5,434.5C 400.287,435.242 400.953,436.075 401.5,437C 405.955,437.264 410.289,438.098 414.5,439.5C 418.996,439.03 423.662,438.697 428.5,438.5C 430.833,438.5 433.167,438.5 435.5,438.5C 435.666,432.824 435.499,427.157 435,421.5C 433.336,423.805 431.836,423.472 430.5,420.5C 431.689,419.571 433.022,419.238 434.5,419.5C 434.169,412.137 434.503,404.803 435.5,397.5C 437.098,399.698 438.431,402.031 439.5,404.5C 439.172,409.875 439.505,415.208 440.5,420.5C 443.599,415.303 446.432,409.969 449,404.5C 449.833,387.823 449.666,371.157 448.5,354.5C 447.145,352.479 445.479,350.812 443.5,349.5C 443.5,344.833 443.5,340.167 443.5,335.5C 440.894,334.15 440.894,332.65 443.5,331C 442.292,327.317 440.959,323.65 439.5,320C 439.585,318.893 439.919,317.893 440.5,317C 438.65,314.497 437.317,311.664 436.5,308.5C 437.383,307.452 438.05,306.285 438.5,305C 437.713,302.901 437.38,300.734 437.5,298.5C 439.309,290.225 440.142,281.558 440,272.5C 442.344,270.323 444.511,267.99 446.5,265.5C 448.426,263.731 449.76,261.565 450.5,259C 451.032,254.629 450.366,250.295 448.5,246C 449.167,245.667 449.833,245.333 450.5,245C 449.484,244.481 448.818,243.647 448.5,242.5C 449.249,240.964 450.249,239.631 451.5,238.5C 450.941,227.908 448.274,217.741 443.5,208C 443.735,207.127 444.069,206.293 444.5,205.5C 443.505,199.699 442.005,194.032 440,188.5C 438.89,186.963 437.39,186.297 435.5,186.5C 435.286,184.856 435.62,183.356 436.5,182C 435.692,181.692 435.025,181.192 434.5,180.5C 434.84,176.583 436.174,173.083 438.5,170C 438.006,168.538 437.673,167.038 437.5,165.5C 440.107,162.382 442.107,158.882 443.5,155C 442.833,153.333 442.167,151.667 441.5,150C 441.673,144.5 442.006,138.833 442.5,133C 441.275,126.133 439.942,119.299 438.5,112.5C 440.336,110.278 440.336,107.778 438.5,105C 438.735,104.127 439.069,103.293 439.5,102.5C 438.03,99.6919 437.197,96.6919 437,93.5C 436.583,92.244 435.75,91.5774 434.5,91.5C 433.407,86.694 432.741,81.694 432.5,76.5C 433.151,77.0906 433.818,77.7573 434.5,78.5C 435.086,78.2907 435.586,77.9574 436,77.5C 438.233,79.4783 439.4,81.6449 439.5,84C 440.328,84.9147 441.328,85.5814 442.5,86C 441.941,86.7247 441.608,87.5581 441.5,88.5C 442.632,94.4074 443.965,100.241 445.5,106C 444.371,109.329 443.371,112.663 442.5,116C 443.449,116.617 444.282,116.451 445,115.5C 445.626,117.713 445.459,119.88 444.5,122C 445.739,125.9 446.739,129.733 447.5,133.5C 447.196,136.143 446.53,138.976 445.5,142C 447.004,143.337 448.004,145.004 448.5,147C 447.932,148.296 447.932,149.796 448.5,151.5C 448.158,153.867 447.658,156.2 447,158.5C 443.78,161.251 443.28,164.251 445.5,167.5C 443.276,169.617 441.609,172.117 440.5,175C 442.301,175.317 442.634,175.984 441.5,177C 446.017,195.924 451.017,214.424 456.5,232.5C 456.471,234.029 455.804,235.196 454.5,236C 456.986,238.888 456.986,241.721 454.5,244.5C 456.237,249.12 455.57,253.287 452.5,257C 452.833,258 453.167,259 453.5,260C 452.388,265.09 450.555,269.923 448,274.5C 446.847,272.503 445.347,272.17 443.5,273.5C 444.5,274.167 445.5,274.833 446.5,275.5C 446.144,278.659 445.477,281.993 444.5,285.5C 449.436,286.241 449.77,288.074 445.5,291C 445.966,294.308 445.133,297.475 443,300.5C 442.257,302.441 442.424,304.274 443.5,306C 442.833,307 442.167,308 441.5,309C 442.436,311.638 443.769,314.472 445.5,317.5C 445.023,318.478 444.357,319.311 443.5,320C 445.577,324.569 447.077,329.402 448,334.5C 450.674,341.145 453.507,347.645 456.5,354C 456.125,356.992 455.791,360.325 455.5,364C 456.624,364.249 457.624,364.749 458.5,365.5C 456.979,367.286 456.646,369.119 457.5,371C 456.833,371.667 456.167,372.333 455.5,373C 456.833,373.667 456.833,374.333 455.5,375C 456.471,376.204 457.471,376.704 458.5,376.5C 457.511,377.468 456.844,378.635 456.5,380C 457.294,382.058 457.627,384.058 457.5,386C 454.833,386.667 454.833,387.333 457.5,388C 457.041,390.687 457.041,393.521 457.5,396.5C 456.453,398.056 455.786,399.723 455.5,401.5C 454.325,401.281 453.325,401.614 452.5,402.5C 455.714,408.941 454.381,413.274 448.5,415.5C 449.025,416.192 449.692,416.692 450.5,417C 447.959,419.409 446.626,422.076 446.5,425C 443.64,430.88 440.307,436.546 436.5,442C 433.6,443.101 430.933,444.601 428.5,446.5C 426.569,444.796 424.569,444.462 422.5,445.5C 418.384,444.926 414.384,443.926 410.5,442.5C 409.707,442.931 408.873,443.265 408,443.5C 403.439,442.129 398.772,441.462 394,441.5C 386.734,443.568 379.568,444.901 372.5,445.5C 362.613,444.032 353.28,441.032 344.5,436.5C 342.2,436.868 340.033,436.868 338,436.5C 317.426,441.964 296.593,447.464 275.5,453C 271.5,453.667 267.5,453.667 263.5,453C 260.568,451.855 257.568,451.022 254.5,450.5C 253.715,445.776 251.048,444.109 246.5,445.5C 243.934,442.86 242.1,443.193 241,446.5C 238.667,445.167 236.333,445.167 234,446.5C 232.583,443.007 231.083,442.84 229.5,446C 219.315,448.533 209.648,451.533 200.5,455C 196.072,456.268 191.739,456.768 187.5,456.5C 181.898,455.66 177.565,452.993 174.5,448.5C 173.914,448.709 173.414,449.043 173,449.5C 169.631,447.271 165.798,445.105 161.5,443C 150.985,443.059 140.985,445.393 131.5,450C 123.437,453.015 115.437,453.015 107.5,450C 105.947,448.903 104.614,447.57 103.5,446C 101.333,445.833 99.1667,445.667 97,445.5C 92.5238,446.446 88.3571,446.446 84.5,445.5C 82.1988,446.956 79.8655,447.289 77.5,446.5C 73.2453,448.61 68.7453,449.943 64,450.5C 49.6823,451.58 41.849,444.914 40.5,430.5C 40.8451,426.762 41.5117,423.095 42.5,419.5C 42.1667,418.833 41.8333,418.167 41.5,417.5C 43.0935,413.525 44.7601,409.691 46.5,406C 45.8333,405.333 45.1667,404.667 44.5,404C 45.3995,401.808 46.3995,399.642 47.5,397.5C 46.8263,392.504 48.6597,388.504 53,385.5C 53.2494,382.823 54.2494,380.49 56,378.5C 58.2375,370.195 60.2375,361.528 62,352.5C 65.3264,348.174 68.9931,344.174 73,340.5C 75.0624,338.099 76.7291,335.433 78,332.5C 78.3333,325.833 78.6667,319.167 79,312.5C 80.5644,310.37 80.5644,308.37 79,306.5C 78.19,299.918 78.3567,293.418 79.5,287C 76.3707,281.603 72.2041,277.103 67,273.5C 65.7978,271.323 65.2978,268.989 65.5,266.5C 60.7732,265.435 58.1066,262.435 57.5,257.5C 56.099,255.723 54.599,254.056 53,252.5C 51.821,248.302 50.6543,244.135 49.5,240C 50.0585,239.275 50.3918,238.442 50.5,237.5C 46.917,231.592 44.917,225.425 44.5,219C 42.741,217.992 41.5743,216.492 41,214.5C 39.9396,206.011 41.7729,198.344 46.5,191.5C 47.325,190.614 48.325,190.281 49.5,190.5C 49.5,189.167 49.5,187.833 49.5,186.5C 50.8333,186.5 52.1667,186.5 53.5,186.5C 53.2965,184.61 53.9632,183.11 55.5,182C 66.026,178.439 76.526,177.273 87,178.5C 88.7858,177.223 89.9524,175.556 90.5,173.5C 86.8914,168.388 82.7248,163.722 78,159.5C 74.847,152.411 72.5137,145.078 71,137.5C 65.0744,132.786 59.2411,127.953 53.5,123C 53.9574,122.586 54.2907,122.086 54.5,121.5C 53.7528,121.264 52.9195,120.93 52,120.5C 50.8333,118.167 49.6667,115.833 48.5,113.5C 48.7093,112.914 49.0426,112.414 49.5,112C 48.6228,108.808 47.2895,105.808 45.5,103C 45.9487,95.3776 47.282,87.8776 49.5,80.5C 51.9803,79.5846 52.6469,78.0846 51.5,76C 55.4747,68.0253 61.4747,62.0253 69.5,58C 77.1365,55.0019 84.9698,52.5019 93,50.5C 93.414,50.9574 93.914,51.2907 94.5,51.5C 105.197,50.5705 115.697,49.2371 126,47.5C 140.873,48.2611 156.039,49.5944 171.5,51.5C 173.765,51.0603 175.932,50.3936 178,49.5C 179.613,50.6223 180.78,50.1223 181.5,48C 201.486,37.5287 221.32,38.3621 241,50.5C 241.414,50.0426 241.914,49.7093 242.5,49.5C 249.958,52.9483 256.958,57.115 263.5,62C 271.836,63.3328 278.836,66.9994 284.5,73C 286.473,73.4955 288.473,73.6621 290.5,73.5C 290.343,74.8734 290.51,76.2068 291,77.5C 292.395,76.1854 293.395,76.5188 294,78.5C 296.147,77.5243 298.314,77.691 300.5,79C 309.118,84.2981 317.951,89.1314 327,93.5C 329.325,92.1809 331.658,90.8475 334,89.5C 339.067,81.9428 343.901,74.2761 348.5,66.5C 350.205,64.6973 352.038,64.0306 354,64.5C 354.374,63.5838 354.874,62.7504 355.5,62C 359.147,61.624 362.981,62.124 367,63.5C 367.414,63.0426 367.914,62.7093 368.5,62.5C 371.903,66.414 374.736,70.7474 377,75.5C 380.979,78.1254 384.479,77.4587 387.5,73.5C 390.735,64.7643 396.902,59.431 406,57.5C 407.256,57.6483 408.423,57.9816 409.5,58.5 Z"/></g>
<g><path style="opacity:0.83" fill="#8a240b" d="M 303.5,320.5 C 303.5,320.833 303.5,321.167 303.5,321.5C 303.5,359.5 303.5,397.5 303.5,435.5C 300.06,436.59 296.56,437.59 293,438.5C 291.566,438.138 290.399,437.472 289.5,436.5C 289.5,435.5 289.5,434.5 289.5,433.5C 290.873,433.657 292.207,433.49 293.5,433C 292.549,432.282 292.383,431.449 293,430.5C 293.893,431.711 294.726,431.711 295.5,430.5C 294.597,428.38 293.263,428.046 291.5,429.5C 290.417,428.635 290.251,427.635 291,426.5C 292.825,427.103 294.659,427.77 296.5,428.5C 296.968,430.134 297.968,431.3 299.5,432C 298.549,432.718 298.383,433.551 299,434.5C 300,433.167 301,433.167 302,434.5C 302.828,405.261 302.662,376.095 301.5,347C 302.154,338.068 302.821,329.235 303.5,320.5 Z"/></g>
<g><path style="opacity:0.919" fill="#3d3831" d="M 214.5,438.5 C 213.596,439.209 213.263,440.209 213.5,441.5C 211.708,441.366 210.042,441.699 208.5,442.5C 207.869,436.381 206.703,430.381 205,424.5C 203.512,430.449 202.345,436.449 201.5,442.5C 200.596,443.209 200.263,444.209 200.5,445.5C 196.515,446.6 192.849,448.267 189.5,450.5C 187.901,450.768 186.568,450.434 185.5,449.5C 182.088,445.762 178.755,442.095 175.5,438.5C 175.333,426.829 175.5,415.162 176,403.5C 179.79,418.922 183.79,434.255 188,449.5C 193.871,429.554 199.538,409.554 205,389.5C 207.694,405.939 210.861,422.273 214.5,438.5 Z"/></g>
<g><path style="opacity:0.884" fill="#201c17" d="M 416.5,434.5 C 413.119,434.54 409.786,434.207 406.5,433.5C 408.497,424.864 410.497,416.197 412.5,407.5C 414.58,416.391 415.913,425.391 416.5,434.5 Z"/></g>
<g><path style="opacity:0.344" fill="#412c20" d="M 71.5,351.5 C 69.3576,363.138 67.1909,374.805 65,386.5C 60.8803,387.955 57.7136,390.455 55.5,394C 53.7184,409.063 51.385,423.896 48.5,438.5C 47.2584,432.855 47.2584,427.188 48.5,421.5C 49.086,421.709 49.586,422.043 50,422.5C 50.346,420.782 50.846,419.115 51.5,417.5C 50.1152,416.449 49.1152,415.116 48.5,413.5C 50.4048,410.253 51.7381,407.086 52.5,404C 51.2728,400.682 51.2728,397.349 52.5,394C 55.2396,389.138 58.073,384.305 61,379.5C 62.7025,370.65 65.0358,361.983 68,353.5C 68.8159,352.177 69.9826,351.511 71.5,351.5 Z"/></g>
<g><path style="opacity:0.885" fill="#1d1a15" d="M 205.5,366.5 C 202.902,372.033 200.569,377.7 198.5,383.5C 210.48,382.662 222.48,382.328 234.5,382.5C 234.396,380.297 233.73,378.297 232.5,376.5C 236.605,376.817 239.272,374.984 240.5,371C 244.601,371.35 248.601,371.183 252.5,370.5C 246.985,391.218 241.151,411.885 235,432.5C 234.005,433.066 233.172,433.733 232.5,434.5C 230.833,434.5 229.167,434.5 227.5,434.5C 231.248,420.922 234.414,407.255 237,393.5C 229.876,408.375 223.042,423.375 216.5,438.5C 215.778,438.918 215.278,439.584 215,440.5C 214.536,439.906 214.369,439.239 214.5,438.5C 210.861,422.273 207.694,405.939 205,389.5C 199.538,409.554 193.871,429.554 188,449.5C 183.79,434.255 179.79,418.922 176,403.5C 175.5,415.162 175.333,426.829 175.5,438.5C 174.022,437.552 173.022,436.219 172.5,434.5C 171.224,422.119 169.557,409.786 167.5,397.5C 168.117,397.611 168.617,397.944 169,398.5C 169.423,397.044 170.256,396.544 171.5,397C 171.167,397.333 170.833,397.667 170.5,398C 172.723,398.652 173.89,400.152 174,402.5C 176.167,399.667 178.667,397.167 181.5,395C 183.205,396.283 185.705,396.783 189,396.5C 190.5,394.667 192,392.833 193.5,391C 192.577,388.952 193.077,387.119 195,385.5C 195.667,386.167 196.333,386.833 197,387.5C 197.218,383.725 197.384,380.058 197.5,376.5C 196.62,373.988 195.287,371.821 193.5,370C 194.784,369.316 195.951,369.483 197,370.5C 199.374,368.23 202.207,366.897 205.5,366.5 Z"/></g>
<g><path style="opacity:0.939" fill="#1c1916" d="M 266.5,442.5 C 267.562,443.575 267.562,444.575 266.5,445.5C 259.888,443.609 253.555,441.276 247.5,438.5C 250.974,422.956 255.141,407.623 260,392.5C 262.822,409.074 264.988,425.741 266.5,442.5 Z"/></g>
<g><path style="opacity:0.8" fill="#221d17" d="M 439.5,404.5 C 438.431,402.031 437.098,399.698 435.5,397.5C 434.503,404.803 434.169,412.137 434.5,419.5C 433.022,419.238 431.689,419.571 430.5,420.5C 431.836,423.472 433.336,423.805 435,421.5C 435.499,427.157 435.666,432.824 435.5,438.5C 433.167,438.5 430.833,438.5 428.5,438.5C 427.341,437.26 426.341,435.926 425.5,434.5C 422.697,419.157 420.03,403.823 417.5,388.5C 418.552,386.744 420.219,386.077 422.5,386.5C 422.343,385.127 422.51,383.793 423,382.5C 426.678,382.391 430.178,383.558 433.5,386C 435.81,386.497 438.143,386.663 440.5,386.5C 440.895,389.523 439.895,390.523 437.5,389.5C 436.614,390.325 436.281,391.325 436.5,392.5C 439.212,393.198 441.546,394.532 443.5,396.5C 441.73,397.82 441.397,399.32 442.5,401C 441.736,403.069 441.236,405.236 441,407.5C 440.768,406.263 440.268,405.263 439.5,404.5 Z"/></g>
<g><path style="opacity:0.834" fill="#3f3831" d="M 414.5,376.5 C 416.206,380.652 417.206,384.652 417.5,388.5C 420.03,403.823 422.697,419.157 425.5,434.5C 425.5,435.5 425.5,436.5 425.5,437.5C 422.113,437.367 419.113,436.367 416.5,434.5C 415.913,425.391 414.58,416.391 412.5,407.5C 410.497,416.197 408.497,424.864 406.5,433.5C 404.03,432.763 401.696,431.763 399.5,430.5C 402.478,418.921 405.311,407.254 408,395.5C 409.872,388.363 412.039,382.03 414.5,376.5 Z"/></g>
<g><path style="opacity:0.766" fill="#8c280e" d="M 376.5,416.5 C 366.467,416.341 356.467,415.675 346.5,414.5C 354.597,402.628 362.931,390.961 371.5,379.5C 372.458,379.047 373.292,378.381 374,377.5C 379.92,390.095 384.754,403.095 388.5,416.5C 384.5,416.5 380.5,416.5 376.5,416.5 Z"/></g>
<g><path style="opacity:0.946" fill="#3c3832" d="M 333.5,427.5 C 325.818,429.672 318.151,432.006 310.5,434.5C 311.687,433.466 312.52,432.133 313,430.5C 315.914,413.92 319.581,397.587 324,381.5C 327.737,396.681 330.903,412.015 333.5,427.5 Z"/></g>
<g><path style="opacity:0.493" fill="#30261c" d="M 443.5,349.5 C 445.479,350.812 447.145,352.479 448.5,354.5C 449.666,371.157 449.833,387.823 449,404.5C 446.432,409.969 443.599,415.303 440.5,420.5C 439.505,415.208 439.172,409.875 439.5,404.5C 440.268,405.263 440.768,406.263 441,407.5C 441.236,405.236 441.736,403.069 442.5,401C 441.397,399.32 441.73,397.82 443.5,396.5C 441.546,394.532 439.212,393.198 436.5,392.5C 436.281,391.325 436.614,390.325 437.5,389.5C 439.895,390.523 440.895,389.523 440.5,386.5C 438.143,386.663 435.81,386.497 433.5,386C 430.178,383.558 426.678,382.391 423,382.5C 422.51,383.793 422.343,385.127 422.5,386.5C 420.219,386.077 418.552,386.744 417.5,388.5C 417.206,384.652 416.206,380.652 414.5,376.5C 415.873,376.657 417.207,376.49 418.5,376C 417.289,375.107 417.289,374.274 418.5,373.5C 419.086,373.709 419.586,374.043 420,374.5C 419.063,380.08 421.23,382.246 426.5,381C 427.46,379.581 428.293,378.081 429,376.5C 432.461,375.708 434.461,373.708 435,370.5C 431.451,373.405 429.951,372.739 430.5,368.5C 432.328,370.807 433.994,370.474 435.5,367.5C 436.074,365.941 436.74,364.441 437.5,363C 436.552,362.517 435.552,362.351 434.5,362.5C 434.62,365.205 433.62,365.872 431.5,364.5C 430.833,365.5 430.167,366.5 429.5,367.5C 427.547,366.239 425.547,365.073 423.5,364C 424.678,363.033 426.011,362.533 427.5,362.5C 425.376,361.542 423.376,360.375 421.5,359C 424.722,358.8 428.055,357.966 431.5,356.5C 431.999,357.756 433.332,358.59 435.5,359C 434.833,359.333 434.167,359.667 433.5,360C 435.146,361.401 436.813,361.568 438.5,360.5C 437.289,359.28 437.289,358.113 438.5,357C 437.833,356.667 437.167,356.333 436.5,356C 440.149,355.187 442.482,353.02 443.5,349.5 Z"/></g>
<g><path style="opacity:0.945" fill="#3d3832" d="M 281.5,438.5 C 281.5,439.5 281.5,440.5 281.5,441.5C 280.5,441.5 279.5,441.5 278.5,441.5C 277.445,435.394 275.945,429.394 274,423.5C 273.5,430.158 273.334,436.825 273.5,443.5C 272.417,443.539 271.417,443.873 270.5,444.5C 269.476,443.147 268.143,442.48 266.5,442.5C 264.988,425.741 262.822,409.074 260,392.5C 255.141,407.623 250.974,422.956 247.5,438.5C 242.614,436.695 237.614,435.362 232.5,434.5C 233.172,433.733 234.005,433.066 235,432.5C 241.151,411.885 246.985,391.218 252.5,370.5C 254.47,360.896 257.304,351.563 261,342.5C 268.467,374.366 275.3,406.366 281.5,438.5 Z"/></g>
<g><path style="opacity:0.939" fill="#1a1814" d="M 303.5,321.5 C 310.803,324.482 318.137,327.482 325.5,330.5C 325.333,345.504 325.5,360.504 326,375.5C 331.675,370.656 337.175,365.656 342.5,360.5C 339.479,357.314 336.646,353.98 334,350.5C 333.501,345.177 333.334,339.844 333.5,334.5C 338.704,336.681 344.038,338.681 349.5,340.5C 362.142,335.008 374.975,330.008 388,325.5C 390.626,328.963 393.459,332.297 396.5,335.5C 396.611,336.117 396.944,336.617 397.5,337C 395.91,338.046 394.41,339.213 393,340.5C 392.667,339.833 392.333,339.167 392,338.5C 390.692,340.641 389.192,342.641 387.5,344.5C 387.667,344.833 387.833,345.167 388,345.5C 389,344.5 390,343.5 391,342.5C 390.385,344.756 390.052,347.089 390,349.5C 392.466,346.872 394.299,343.872 395.5,340.5C 401.043,342.131 404.71,345.631 406.5,351C 404.699,351.317 404.366,351.984 405.5,353C 404.17,352.923 402.836,352.423 401.5,351.5C 397.896,352.379 395.229,353.712 393.5,355.5C 391.83,354.005 389.997,352.672 388,351.5C 383.884,352.465 379.884,352.465 376,351.5C 374.017,353.997 374.85,355.164 378.5,355C 377.167,356.667 375.833,358.333 374.5,360C 376.101,360.273 377.601,360.773 379,361.5C 380.566,360.939 381.899,361.606 383,363.5C 384.77,362.724 386.603,362.89 388.5,364C 387.91,365.509 387.244,367.009 386.5,368.5C 385.833,368.167 385.167,367.833 384.5,367.5C 382.104,369.067 379.437,369.9 376.5,370C 377.451,370.718 377.617,371.551 377,372.5C 374.361,375.478 371.194,377.645 367.5,379C 369.019,378.669 370.352,378.836 371.5,379.5C 362.931,390.961 354.597,402.628 346.5,414.5C 356.467,415.675 366.467,416.341 376.5,416.5C 379.641,417.321 382.975,417.821 386.5,418C 384.393,419.264 383.393,421.097 383.5,423.5C 378.48,422.655 374.313,423.989 371,427.5C 370.517,426.552 370.351,425.552 370.5,424.5C 369.167,424.5 367.833,424.5 366.5,424.5C 366.5,425.5 366.5,426.5 366.5,427.5C 365.325,427.281 364.325,427.614 363.5,428.5C 367.379,430.498 367.379,432.164 363.5,433.5C 356.832,431.526 350.165,429.359 343.5,427C 340.151,426.612 336.817,426.779 333.5,427.5C 330.903,412.015 327.737,396.681 324,381.5C 319.581,397.587 315.914,413.92 313,430.5C 312.52,432.133 311.687,433.466 310.5,434.5C 308.097,434.448 305.764,434.781 303.5,435.5C 303.5,397.5 303.5,359.5 303.5,321.5 Z"/></g>
<g><path style="opacity:0.787" fill="#231d17" d="M 396.5,335.5 C 405.951,338.064 415.451,340.397 425,342.5C 425.903,341.299 427.069,340.465 428.5,340C 433.559,338.59 438.559,337.09 443.5,335.5C 443.5,340.167 443.5,344.833 443.5,349.5C 442.482,353.02 440.149,355.187 436.5,356C 437.167,356.333 437.833,356.667 438.5,357C 437.289,358.113 437.289,359.28 438.5,360.5C 436.813,361.568 435.146,361.401 433.5,360C 434.167,359.667 434.833,359.333 435.5,359C 433.332,358.59 431.999,357.756 431.5,356.5C 428.055,357.966 424.722,358.8 421.5,359C 423.376,360.375 425.376,361.542 427.5,362.5C 426.011,362.533 424.678,363.033 423.5,364C 425.547,365.073 427.547,366.239 429.5,367.5C 430.167,366.5 430.833,365.5 431.5,364.5C 433.62,365.872 434.62,365.205 434.5,362.5C 435.552,362.351 436.552,362.517 437.5,363C 436.74,364.441 436.074,365.941 435.5,367.5C 433.994,370.474 432.328,370.807 430.5,368.5C 429.951,372.739 431.451,373.405 435,370.5C 434.461,373.708 432.461,375.708 429,376.5C 428.293,378.081 427.46,379.581 426.5,381C 421.23,382.246 419.063,380.08 420,374.5C 419.586,374.043 419.086,373.709 418.5,373.5C 417.289,374.274 417.289,375.107 418.5,376C 417.207,376.49 415.873,376.657 414.5,376.5C 412.039,382.03 409.872,388.363 408,395.5C 405.311,407.254 402.478,418.921 399.5,430.5C 396.341,431.073 393.008,431.24 389.5,431C 384.694,433.739 379.694,435.906 374.5,437.5C 370.458,436.969 366.792,435.636 363.5,433.5C 367.379,432.164 367.379,430.498 363.5,428.5C 364.325,427.614 365.325,427.281 366.5,427.5C 366.5,426.5 366.5,425.5 366.5,424.5C 367.833,424.5 369.167,424.5 370.5,424.5C 370.351,425.552 370.517,426.552 371,427.5C 374.313,423.989 378.48,422.655 383.5,423.5C 383.393,421.097 384.393,419.264 386.5,418C 382.975,417.821 379.641,417.321 376.5,416.5C 380.5,416.5 384.5,416.5 388.5,416.5C 384.754,403.095 379.92,390.095 374,377.5C 373.292,378.381 372.458,379.047 371.5,379.5C 370.352,378.836 369.019,378.669 367.5,379C 371.194,377.645 374.361,375.478 377,372.5C 377.617,371.551 377.451,370.718 376.5,370C 379.437,369.9 382.104,369.067 384.5,367.5C 385.167,367.833 385.833,368.167 386.5,368.5C 387.244,367.009 387.91,365.509 388.5,364C 386.603,362.89 384.77,362.724 383,363.5C 381.899,361.606 380.566,360.939 379,361.5C 377.601,360.773 376.101,360.273 374.5,360C 375.833,358.333 377.167,356.667 378.5,355C 374.85,355.164 374.017,353.997 376,351.5C 379.884,352.465 383.884,352.465 388,351.5C 389.997,352.672 391.83,354.005 393.5,355.5C 395.229,353.712 397.896,352.379 401.5,351.5C 402.836,352.423 404.17,352.923 405.5,353C 404.366,351.984 404.699,351.317 406.5,351C 404.71,345.631 401.043,342.131 395.5,340.5C 394.299,343.872 392.466,346.872 390,349.5C 390.052,347.089 390.385,344.756 391,342.5C 390,343.5 389,344.5 388,345.5C 387.833,345.167 387.667,344.833 387.5,344.5C 389.192,342.641 390.692,340.641 392,338.5C 392.333,339.167 392.667,339.833 393,340.5C 394.41,339.213 395.91,338.046 397.5,337C 396.944,336.617 396.611,336.117 396.5,335.5 Z"/></g>
<g><path style="opacity:0.487" fill="#3e291e" d="M 403.5,282.5 C 409.473,283.656 415.473,283.656 421.5,282.5C 423.5,282.5 425.5,282.5 427.5,282.5C 429.115,285.45 431.115,288.116 433.5,290.5C 434.833,293.167 436.167,295.833 437.5,298.5C 437.38,300.734 437.713,302.901 438.5,305C 438.05,306.285 437.383,307.452 436.5,308.5C 437.317,311.664 438.65,314.497 440.5,317C 439.919,317.893 439.585,318.893 439.5,320C 440.959,323.65 442.292,327.317 443.5,331C 440.894,332.65 440.894,334.15 443.5,335.5C 438.559,337.09 433.559,338.59 428.5,340C 427.069,340.465 425.903,341.299 425,342.5C 415.451,340.397 405.951,338.064 396.5,335.5C 393.459,332.297 390.626,328.963 388,325.5C 374.975,330.008 362.142,335.008 349.5,340.5C 344.038,338.681 338.704,336.681 333.5,334.5C 333.5,332.5 333.5,330.5 333.5,328.5C 338.657,329.831 343.657,331.664 348.5,334C 350.066,334.765 351.399,334.598 352.5,333.5C 353.167,333.833 353.833,334.167 354.5,334.5C 356.821,333.523 359.154,332.523 361.5,331.5C 364.881,330.818 367.548,329.151 369.5,326.5C 369.369,327.376 369.702,328.043 370.5,328.5C 374.302,326.947 377.635,324.947 380.5,322.5C 383.079,323.604 385.579,323.271 388,321.5C 390.384,323.052 392.551,324.718 394.5,326.5C 394.859,328.371 395.859,329.871 397.5,331C 401.165,332.278 404.832,333.444 408.5,334.5C 414.107,335.312 419.607,336.645 425,338.5C 429.165,337.056 433.332,335.722 437.5,334.5C 437.666,328.491 437.499,322.491 437,316.5C 434.957,314.792 433.29,312.792 432,310.5C 431.667,304.833 431.333,299.167 431,293.5C 429.26,292.284 428.26,290.618 428,288.5C 426.527,286.993 424.693,286.326 422.5,286.5C 414.938,288.237 407.271,289.237 399.5,289.5C 399.5,287.5 399.5,285.5 399.5,283.5C 400.833,283.167 402.167,282.833 403.5,282.5 Z"/></g>
<g><path style="opacity:0.909" fill="#3e3831" d="M 408.5,334.5 C 404.832,333.444 401.165,332.278 397.5,331C 395.859,329.871 394.859,328.371 394.5,326.5C 398.488,316.882 402.488,307.215 406.5,297.5C 408.178,309.771 408.844,322.105 408.5,334.5 Z"/></g>
<g><path style="opacity:0.979" fill="#181613" d="M 101.5,282.5 C 102.167,282.5 102.5,282.833 102.5,283.5C 110.144,296.116 118.478,308.116 127.5,319.5C 127.5,320.167 127.5,320.833 127.5,321.5C 127.667,337.17 127.5,352.837 127,368.5C 125,370.5 123,372.5 121,374.5C 120.373,381.554 119.373,388.554 118,395.5C 115.438,397.346 113.271,399.513 111.5,402C 112.708,405.75 113.542,409.584 114,413.5C 116.815,417.159 120.315,419.826 124.5,421.5C 127.907,420.364 131.241,419.031 134.5,417.5C 142.164,408.917 144.664,398.917 142,387.5C 140.667,385.5 139.333,383.5 138,381.5C 136.874,368.847 136.54,356.18 137,343.5C 137.419,342.328 138.085,341.328 139,340.5C 139.499,334.843 139.666,329.176 139.5,323.5C 148.794,312.935 157.628,301.935 166,290.5C 166.671,289.748 167.504,289.414 168.5,289.5C 177.464,298.965 186.631,308.298 196,317.5C 204.772,310.219 213.938,303.553 223.5,297.5C 233.629,303.401 243.629,309.568 253.5,316C 264.828,316.5 276.162,316.667 287.5,316.5C 287.169,344.005 287.502,371.338 288.5,398.5C 288.473,410.18 288.806,421.846 289.5,433.5C 289.5,434.5 289.5,435.5 289.5,436.5C 289.5,437.5 289.5,438.5 289.5,439.5C 287.323,439.586 285.323,440.253 283.5,441.5C 282.824,440.398 282.158,439.398 281.5,438.5C 275.3,406.366 268.467,374.366 261,342.5C 257.304,351.563 254.47,360.896 252.5,370.5C 248.601,371.183 244.601,371.35 240.5,371C 239.272,374.984 236.605,376.817 232.5,376.5C 227.435,366.037 222.102,355.703 216.5,345.5C 212.534,352.435 208.867,359.435 205.5,366.5C 202.207,366.897 199.374,368.23 197,370.5C 195.951,369.483 194.784,369.316 193.5,370C 195.287,371.821 196.62,373.988 197.5,376.5C 197.384,380.058 197.218,383.725 197,387.5C 196.333,386.833 195.667,386.167 195,385.5C 193.077,387.119 192.577,388.952 193.5,391C 192,392.833 190.5,394.667 189,396.5C 185.705,396.783 183.205,396.283 181.5,395C 178.667,397.167 176.167,399.667 174,402.5C 173.89,400.152 172.723,398.652 170.5,398C 170.833,397.667 171.167,397.333 171.5,397C 170.256,396.544 169.423,397.044 169,398.5C 168.617,397.944 168.117,397.611 167.5,397.5C 165.815,382.407 163.482,367.407 160.5,352.5C 160.167,352.833 159.833,353.167 159.5,353.5C 150.89,381.155 143.557,409.155 137.5,437.5C 130.269,439.796 123.269,442.462 116.5,445.5C 115.833,445.5 115.167,445.5 114.5,445.5C 109.943,439.257 104.277,434.591 97.5,431.5C 94.2939,413.345 90.4606,395.345 86,377.5C 81.0417,397.673 76.5417,418.006 72.5,438.5C 65.9949,439.6 59.6616,440.933 53.5,442.5C 51.8828,443.038 50.2161,443.371 48.5,443.5C 48.5,441.833 48.5,440.167 48.5,438.5C 51.385,423.896 53.7184,409.063 55.5,394C 57.7136,390.455 60.8803,387.955 65,386.5C 67.1909,374.805 69.3576,363.138 71.5,351.5C 71.3896,348.941 72.0562,346.608 73.5,344.5C 76,348.833 78.5,353.167 81,357.5C 84.5526,347.345 87.386,337.012 89.5,326.5C 91.3655,320.234 93.0322,313.9 94.5,307.5C 96.4569,299.042 98.7902,290.708 101.5,282.5 Z"/></g>
<g><path style="opacity:0.975" fill="#1a1815" d="M 89.5,434.5 C 86.8333,435.5 84.1667,436.5 81.5,437.5C 80.7611,437.631 80.0944,437.464 79.5,437C 81.2276,431.203 82.8943,425.369 84.5,419.5C 86.0621,424.58 87.7288,429.58 89.5,434.5 Z"/></g>
<g><path style="opacity:0.884" fill="#3e3730" d="M 227.5,434.5 C 224.539,437.38 220.872,438.713 216.5,438.5C 223.042,423.375 229.876,408.375 237,393.5C 234.414,407.255 231.248,420.922 227.5,434.5 Z"/></g>
<g><path style="opacity:0.963" fill="#3b3732" d="M 97.5,431.5 C 95.6086,434.172 92.9419,435.172 89.5,434.5C 87.7288,429.58 86.0621,424.58 84.5,419.5C 82.8943,425.369 81.2276,431.203 79.5,437C 80.0944,437.464 80.7611,437.631 81.5,437.5C 78.6167,437.641 75.6167,437.975 72.5,438.5C 76.5417,418.006 81.0417,397.673 86,377.5C 90.4606,395.345 94.2939,413.345 97.5,431.5 Z"/></g>
<g><path style="opacity:0.948" fill="#992207" d="M 127.5,321.5 C 129.255,323.988 131.255,326.322 133.5,328.5C 135.855,327.478 137.522,325.812 138.5,323.5C 138.833,323.5 139.167,323.5 139.5,323.5C 139.666,329.176 139.499,334.843 139,340.5C 138.085,341.328 137.419,342.328 137,343.5C 136.54,356.18 136.874,368.847 138,381.5C 139.333,383.5 140.667,385.5 142,387.5C 144.664,398.917 142.164,408.917 134.5,417.5C 131.241,419.031 127.907,420.364 124.5,421.5C 120.315,419.826 116.815,417.159 114,413.5C 113.542,409.584 112.708,405.75 111.5,402C 113.271,399.513 115.438,397.346 118,395.5C 119.373,388.554 120.373,381.554 121,374.5C 123,372.5 125,370.5 127,368.5C 127.5,352.837 127.667,337.17 127.5,321.5 Z"/></g>
<g><path style="opacity:0.932" fill="#962308" d="M 232.5,376.5 C 233.73,378.297 234.396,380.297 234.5,382.5C 222.48,382.328 210.48,382.662 198.5,383.5C 200.569,377.7 202.902,372.033 205.5,366.5C 208.867,359.435 212.534,352.435 216.5,345.5C 222.102,355.703 227.435,366.037 232.5,376.5 Z"/></g>
<g><path style="opacity:0.956" fill="#3c3832" d="M 167.5,397.5 C 169.557,409.786 171.224,422.119 172.5,434.5C 172.719,435.675 172.386,436.675 171.5,437.5C 167.086,434.626 162.419,432.293 157.5,430.5C 157.294,419.489 156.794,408.489 156,397.5C 152.514,409.436 149.347,421.436 146.5,433.5C 144.02,434.912 141.687,436.578 139.5,438.5C 138.584,438.457 137.917,438.124 137.5,437.5C 143.557,409.155 150.89,381.155 159.5,353.5C 159.833,353.167 160.167,352.833 160.5,352.5C 163.482,367.407 165.815,382.407 167.5,397.5 Z"/></g>
<g><path style="opacity:0.966" fill="#191715" d="M 157.5,430.5 C 154.022,431.954 150.355,432.954 146.5,433.5C 149.347,421.436 152.514,409.436 156,397.5C 156.794,408.489 157.294,419.489 157.5,430.5 Z"/></g>
<g><path style="opacity:0.968" fill="#191714" d="M 354.5,334.5 C 353.833,334.167 353.167,333.833 352.5,333.5C 350.367,331.909 348.701,329.909 347.5,327.5C 349.524,321.788 352.357,316.455 356,311.5C 357.078,319.435 356.578,327.102 354.5,334.5 Z"/></g>
<g><path style="opacity:0.945" fill="#3c3731" d="M 377.5,312.5 C 378.5,315.833 379.5,319.167 380.5,322.5C 377.635,324.947 374.302,326.947 370.5,328.5C 369.702,328.043 369.369,327.376 369.5,326.5C 370.9,319.31 372.734,312.31 375,305.5C 375.39,308.104 376.224,310.438 377.5,312.5 Z"/></g>
<g><path style="opacity:0.974" fill="#3b3731" d="M 361.5,331.5 C 359.154,332.523 356.821,333.523 354.5,334.5C 356.578,327.102 357.078,319.435 356,311.5C 352.357,316.455 349.524,321.788 347.5,327.5C 345.273,325.393 343.273,323.06 341.5,320.5C 342.496,320.586 343.329,320.252 344,319.5C 348.932,309.579 354.265,299.913 360,290.5C 361.427,304.107 361.927,317.774 361.5,331.5 Z"/></g>
<g><path style="opacity:0.879" fill="#1e1a16" d="M 408.5,334.5 C 408.844,322.105 408.178,309.771 406.5,297.5C 402.488,307.215 398.488,316.882 394.5,326.5C 392.551,324.718 390.384,323.052 388,321.5C 385.579,323.271 383.079,323.604 380.5,322.5C 379.5,319.167 378.5,315.833 377.5,312.5C 378.304,310.811 379.304,309.145 380.5,307.5C 381.833,308.167 383.167,308.833 384.5,309.5C 386.471,307.192 388.471,304.858 390.5,302.5C 392.201,302.81 393.868,302.31 395.5,301C 393.262,299.092 391.929,297.092 391.5,295C 390.262,295.077 389.262,294.911 388.5,294.5C 391.452,294.36 394.118,293.027 396.5,290.5C 397.492,290.672 398.158,290.338 398.5,289.5C 398.833,289.5 399.167,289.5 399.5,289.5C 407.271,289.237 414.938,288.237 422.5,286.5C 424.693,286.326 426.527,286.993 428,288.5C 428.26,290.618 429.26,292.284 431,293.5C 431.333,299.167 431.667,304.833 432,310.5C 433.29,312.792 434.957,314.792 437,316.5C 437.499,322.491 437.666,328.491 437.5,334.5C 433.332,335.722 429.165,337.056 425,338.5C 419.607,336.645 414.107,335.312 408.5,334.5 Z"/></g>
<g><path style="opacity:0.992" fill="#9b2207" d="M 341.5,320.5 C 343.273,323.06 345.273,325.393 347.5,327.5C 348.701,329.909 350.367,331.909 352.5,333.5C 351.399,334.598 350.066,334.765 348.5,334C 343.657,331.664 338.657,329.831 333.5,328.5C 333.5,330.5 333.5,332.5 333.5,334.5C 333.334,339.844 333.501,345.177 334,350.5C 336.646,353.98 339.479,357.314 342.5,360.5C 337.175,365.656 331.675,370.656 326,375.5C 325.5,360.504 325.333,345.504 325.5,330.5C 326.146,326.247 324.48,323.414 320.5,322C 315.325,320.494 310.492,318.327 306,315.5C 304.88,317.03 304.046,318.697 303.5,320.5C 302.821,329.235 302.154,338.068 301.5,347C 302.662,376.095 302.828,405.261 302,434.5C 301,433.167 300,433.167 299,434.5C 298.383,433.551 298.549,432.718 299.5,432C 297.968,431.3 296.968,430.134 296.5,428.5C 294.659,427.77 292.825,427.103 291,426.5C 290.251,427.635 290.417,428.635 291.5,429.5C 293.263,428.046 294.597,428.38 295.5,430.5C 294.726,431.711 293.893,431.711 293,430.5C 292.383,431.449 292.549,432.282 293.5,433C 292.207,433.49 290.873,433.657 289.5,433.5C 288.806,421.846 288.473,410.18 288.5,398.5C 288.5,369.833 288.5,341.167 288.5,312.5C 295.454,302.214 302.788,292.214 310.5,282.5C 320.831,295.158 331.164,307.824 341.5,320.5 Z"/></g>
<g><path style="opacity:0.482" fill="#3d261c" d="M 325.5,330.5 C 318.137,327.482 310.803,324.482 303.5,321.5C 303.5,321.167 303.5,320.833 303.5,320.5C 304.046,318.697 304.88,317.03 306,315.5C 310.492,318.327 315.325,320.494 320.5,322C 324.48,323.414 326.146,326.247 325.5,330.5 Z"/></g>
<g><path style="opacity:0.821" fill="#403830" d="M 433.5,290.5 C 431.115,288.116 429.115,285.45 427.5,282.5C 428.844,277.298 430.678,272.298 433,267.5C 433.5,275.159 433.666,282.826 433.5,290.5 Z"/></g>
<g><path style="opacity:0.953" fill="#3c3732" d="M 253.5,309.5 C 246.936,305.934 240.936,301.601 235.5,296.5C 241.245,288.019 247.245,279.686 253.5,271.5C 253.741,284.125 253.741,296.791 253.5,309.5 Z"/></g>
<g><path style="opacity:0.94" fill="#942409" d="M 398.5,289.5 C 398.158,290.338 397.492,290.672 396.5,290.5C 392.788,290.123 389.788,288.456 387.5,285.5C 387.5,283.167 387.5,280.833 387.5,278.5C 388.162,274.534 388.495,270.534 388.5,266.5C 389.376,266.631 390.043,266.298 390.5,265.5C 389.494,264.604 389.494,263.938 390.5,263.5C 392.021,263.88 393.687,264.046 395.5,264C 396.428,264.388 397.095,265.055 397.5,266C 396.205,266.702 394.872,267.369 393.5,268C 394.376,269.585 395.709,270.585 397.5,271C 396.72,272.073 396.887,273.24 398,274.5C 398.499,279.489 398.666,284.489 398.5,289.5 Z"/></g>
<g><path style="opacity:0.973" fill="#3a3732" d="M 286.5,310.5 C 285.221,311.968 283.554,312.635 281.5,312.5C 281.83,305.8 281.497,299.134 280.5,292.5C 277.641,298.407 274.975,304.407 272.5,310.5C 270.406,311.242 268.239,311.909 266,312.5C 264.615,312.486 263.449,312.152 262.5,311.5C 269.606,296.159 277.273,281.159 285.5,266.5C 286.499,281.152 286.833,295.818 286.5,310.5 Z"/></g>
<g><path style="opacity:0.983" fill="#191714" d="M 281.5,312.5 C 278.15,312.665 274.817,312.498 271.5,312C 272.056,311.617 272.389,311.117 272.5,310.5C 274.975,304.407 277.641,298.407 280.5,292.5C 281.497,299.134 281.83,305.8 281.5,312.5 Z"/></g>
<g><path style="opacity:0.907" fill="#3b362f" d="M 376.5,270.5 C 373.873,269.908 371.206,269.575 368.5,269.5C 368.724,262.356 369.724,255.356 371.5,248.5C 374.02,255.614 375.687,262.947 376.5,270.5 Z"/></g>
<g><path style="opacity:0.344" fill="#432e21" d="M 141.5,263.5 C 141.336,266.187 141.503,268.854 142,271.5C 142.473,269.221 143.473,267.221 145,265.5C 145.667,266.167 146.333,266.833 147,267.5C 150.51,263.618 153.01,263.951 154.5,268.5C 153.847,269.807 153.18,271.14 152.5,272.5C 155.757,277.346 159.257,282.012 163,286.5C 163.499,282.514 163.666,278.514 163.5,274.5C 165.048,274.179 165.715,273.179 165.5,271.5C 169.28,271.366 172.28,272.699 174.5,275.5C 173.796,279.018 173.629,282.685 174,286.5C 172.826,288.671 170.993,289.671 168.5,289.5C 167.504,289.414 166.671,289.748 166,290.5C 157.628,301.935 148.794,312.935 139.5,323.5C 139.167,323.5 138.833,323.5 138.5,323.5C 138.329,303.286 139.329,283.286 141.5,263.5 Z"/></g>
<g><path style="opacity:0.972" fill="#3b3832" d="M 214.5,294.5 C 210.818,299.663 205.985,303.663 200,306.5C 194.902,304.238 191.402,300.572 189.5,295.5C 197.068,281.366 204.901,267.366 213,253.5C 214.481,267.008 214.981,280.675 214.5,294.5 Z"/></g>
<g><path style="opacity:0.769" fill="#87270e" d="M 388.5,242.5 C 389.319,245.305 389.819,248.305 390,251.5C 390.483,250.552 390.649,249.552 390.5,248.5C 392.942,248.119 393.609,248.786 392.5,250.5C 393.853,251.524 394.52,252.857 394.5,254.5C 396.5,254.5 398.5,254.5 400.5,254.5C 400.122,264.165 399.789,273.831 399.5,283.5C 399.5,285.5 399.5,287.5 399.5,289.5C 399.167,289.5 398.833,289.5 398.5,289.5C 398.666,284.489 398.499,279.489 398,274.5C 396.887,273.24 396.72,272.073 397.5,271C 395.709,270.585 394.376,269.585 393.5,268C 394.872,267.369 396.205,266.702 397.5,266C 397.095,265.055 396.428,264.388 395.5,264C 393.687,264.046 392.021,263.88 390.5,263.5C 389.494,263.938 389.494,264.604 390.5,265.5C 390.043,266.298 389.376,266.631 388.5,266.5C 388.5,258.5 388.5,250.5 388.5,242.5 Z"/></g>
<g><path style="opacity:0.697" fill="#262019" d="M 446.5,235.5 C 446.5,245.5 446.5,255.5 446.5,265.5C 444.511,267.99 442.344,270.323 440,272.5C 440.142,281.558 439.309,290.225 437.5,298.5C 436.167,295.833 434.833,293.167 433.5,290.5C 433.666,282.826 433.5,275.159 433,267.5C 430.678,272.298 428.844,277.298 427.5,282.5C 425.5,282.5 423.5,282.5 421.5,282.5C 422.748,279.262 423.415,275.762 423.5,272C 422.985,259.478 422.319,246.978 421.5,234.5C 424.8,232.457 428.133,232.79 431.5,235.5C 433.826,234.69 436.159,235.023 438.5,236.5C 439.192,235.975 439.692,235.308 440,234.5C 440.333,236.167 440.667,237.833 441,239.5C 442.712,237.948 444.545,236.615 446.5,235.5 Z"/></g>
<g><path style="opacity:0.927" fill="#3c3731" d="M 361.5,269.5 C 361.083,270.124 360.416,270.457 359.5,270.5C 355.196,269.79 350.863,269.29 346.5,269C 344.654,267.97 342.987,266.804 341.5,265.5C 344.075,260.932 345.908,255.932 347,250.5C 348.912,246.34 351.079,242.34 353.5,238.5C 355.696,249.217 358.362,259.55 361.5,269.5 Z"/></g>
<g><path style="opacity:0.717" fill="#403930" d="M 421.5,234.5 C 422.319,246.978 422.985,259.478 423.5,272C 423.415,275.762 422.748,279.262 421.5,282.5C 415.473,283.656 409.473,283.656 403.5,282.5C 407.578,263.089 412.911,244.089 419.5,225.5C 421.129,228.266 421.795,231.266 421.5,234.5 Z"/></g>
<g><path style="opacity:0.975" fill="#181614" d="M 387.5,285.5 C 389.788,288.456 392.788,290.123 396.5,290.5C 394.118,293.027 391.452,294.36 388.5,294.5C 389.262,294.911 390.262,295.077 391.5,295C 391.929,297.092 393.262,299.092 395.5,301C 393.868,302.31 392.201,302.81 390.5,302.5C 388.471,304.858 386.471,307.192 384.5,309.5C 383.167,308.833 381.833,308.167 380.5,307.5C 379.304,309.145 378.304,310.811 377.5,312.5C 376.224,310.438 375.39,308.104 375,305.5C 372.734,312.31 370.9,319.31 369.5,326.5C 367.548,329.151 364.881,330.818 361.5,331.5C 361.927,317.774 361.427,304.107 360,290.5C 354.265,299.913 348.932,309.579 344,319.5C 343.329,320.252 342.496,320.586 341.5,320.5C 331.164,307.824 320.831,295.158 310.5,282.5C 302.788,292.214 295.454,302.214 288.5,312.5C 287.167,312.5 286.5,311.833 286.5,310.5C 286.833,295.818 286.499,281.152 285.5,266.5C 277.273,281.159 269.606,296.159 262.5,311.5C 259.813,311.664 257.146,311.497 254.5,311C 253.944,310.617 253.611,310.117 253.5,309.5C 253.741,296.791 253.741,284.125 253.5,271.5C 247.245,279.686 241.245,288.019 235.5,296.5C 231.601,294.614 227.934,292.281 224.5,289.5C 221.696,291.138 219.029,292.971 216.5,295C 215.563,295.692 214.897,295.525 214.5,294.5C 214.981,280.675 214.481,267.008 213,253.5C 204.901,267.366 197.068,281.366 189.5,295.5C 188.778,295.918 188.278,296.584 188,297.5C 183.065,293.899 178.898,289.732 175.5,285C 184.43,269.307 192.43,253.14 199.5,236.5C 221.357,239.825 243.357,241.825 265.5,242.5C 270.018,247.851 275.018,252.685 280.5,257C 294.172,257.194 307.838,257.194 321.5,257C 328.833,263 336.167,269 343.5,275C 353.497,274.917 363.497,274.917 373.5,275C 378.327,278.332 382.993,281.832 387.5,285.5 Z"/></g>
<g><path style="opacity:0.978" fill="#181614" d="M 154.5,234.5 C 150.324,230.968 149.657,226.968 152.5,222.5C 153.151,221.909 153.818,221.243 154.5,220.5C 157.316,222.225 159.65,224.392 161.5,227C 160.646,230.405 159.312,233.571 157.5,236.5C 156.482,235.807 155.482,235.141 154.5,234.5 Z"/></g>
<g><path style="opacity:0.93" fill="#1b1815" d="M 446.5,235.5 C 444.545,236.615 442.712,237.948 441,239.5C 440.667,237.833 440.333,236.167 440,234.5C 439.692,235.308 439.192,235.975 438.5,236.5C 436.159,235.023 433.826,234.69 431.5,235.5C 428.133,232.79 424.8,232.457 421.5,234.5C 421.795,231.266 421.129,228.266 419.5,225.5C 412.911,244.089 407.578,263.089 403.5,282.5C 402.167,282.833 400.833,283.167 399.5,283.5C 399.789,273.831 400.122,264.165 400.5,254.5C 401.532,246.528 401.698,238.528 401,230.5C 396.936,222.375 393.436,214.042 390.5,205.5C 391.774,204.811 391.774,203.977 390.5,203C 391.5,202.667 392.5,202.333 393.5,202C 391.339,197.551 388.672,193.051 385.5,188.5C 385.919,187.328 386.585,186.328 387.5,185.5C 385.922,184.702 384.256,184.202 382.5,184C 384.078,182.86 385.744,182.36 387.5,182.5C 385.257,181.526 382.924,181.192 380.5,181.5C 386.305,180.155 392.305,179.655 398.5,180C 402.88,184.048 407.546,187.715 412.5,191C 418.854,191.806 424.854,190.806 430.5,188C 432.833,187.333 435.167,187.333 437.5,188C 439.103,197.71 439.936,207.544 440,217.5C 446.066,221.951 448.233,227.951 446.5,235.5 Z"/></g>
<g><path style="opacity:0.485" fill="#3f2a1f" d="M 155.5,192.5 C 156.486,196.97 156.819,201.637 156.5,206.5C 155.444,211.669 153.777,216.669 151.5,221.5C 151.624,222.107 151.957,222.44 152.5,222.5C 149.657,226.968 150.324,230.968 154.5,234.5C 154.186,239.922 152.853,245.089 150.5,250C 152.28,252.784 154.447,255.284 157,257.5C 157.667,259.167 157.667,260.833 157,262.5C 155.878,264.407 155.045,266.407 154.5,268.5C 153.01,263.951 150.51,263.618 147,267.5C 146.333,266.833 145.667,266.167 145,265.5C 143.473,267.221 142.473,269.221 142,271.5C 141.503,268.854 141.336,266.187 141.5,263.5C 142.085,261.078 143.585,259.411 146,258.5C 151.071,248.637 150.237,239.304 143.5,230.5C 138.553,229.393 134.886,226.56 132.5,222C 126.947,218.789 120.947,217.289 114.5,217.5C 108.493,217.91 102.493,218.41 96.5,219C 93.0797,220.751 90.7464,223.418 89.5,227C 78.8421,229.207 75.0088,235.707 78,246.5C 80.909,248.858 84.2423,249.858 88,249.5C 92.5135,249.123 97.0135,248.623 101.5,248C 108.522,248.317 111.022,245.151 109,238.5C 104.8,234.286 99.9664,233.452 94.5,236C 94.0426,236.414 93.7093,236.914 93.5,237.5C 99.0937,240.709 98.7603,242.209 92.5,242C 89.6888,238.706 90.0221,235.706 93.5,233C 98.8333,231 104.167,231 109.5,233C 114.833,238.667 114.833,244.333 109.5,250C 99.6127,252.15 89.6127,252.817 79.5,252C 78.0692,251.535 76.9025,250.701 76,249.5C 72.1692,241.666 73.0025,234.5 78.5,228C 81.2442,227.197 83.9109,226.197 86.5,225C 88.1409,220.692 91.1409,217.692 95.5,216C 107.083,213.091 118.749,212.924 130.5,215.5C 132.135,214.954 133.801,214.62 135.5,214.5C 136.552,214.351 137.552,214.517 138.5,215C 137.3,224.451 140.8,226.617 149,221.5C 150.52,215.059 152.353,208.726 154.5,202.5C 155.487,199.232 155.82,195.898 155.5,192.5 Z"/></g>
<g><path style="opacity:0.983" fill="#3a3732" d="M 231.5,200.5 C 231.678,201.695 232.011,202.862 232.5,204C 230.339,205.996 228.339,208.162 226.5,210.5C 227.5,211.833 228.5,213.167 229.5,214.5C 225.779,218.888 222.445,223.555 219.5,228.5C 221.124,229.869 221.624,231.536 221,233.5C 217.882,232.029 215.048,230.196 212.5,228C 213.953,225.595 215.287,223.095 216.5,220.5C 214.46,218.823 212.46,217.156 210.5,215.5C 213.019,212.46 215.019,209.127 216.5,205.5C 215.272,202.762 213.438,200.429 211,198.5C 211.078,200.995 211.578,203.495 212.5,206C 210.419,210.164 208.086,214.164 205.5,218C 207.102,219.822 208.769,221.655 210.5,223.5C 208.517,225.984 206.35,228.317 204,230.5C 205.137,234.936 203.804,235.603 200,232.5C 199.845,230.144 199.845,227.811 200,225.5C 198.667,224.833 197.333,224.167 196,223.5C 195.814,221.1 195.314,218.766 194.5,216.5C 192.445,218.555 190.779,220.888 189.5,223.5C 192.008,225.176 194.008,227.342 195.5,230C 190.014,236.479 187.514,243.979 188,252.5C 186,250.5 184,248.5 182,246.5C 181.333,245.167 181.333,243.833 182,242.5C 185.561,238.479 184.894,235.146 180,232.5C 179.504,234.035 179.67,235.535 180.5,237C 178.577,240.178 176.911,243.512 175.5,247C 177.889,250.277 179.889,253.777 181.5,257.5C 179.833,260.167 178.167,262.833 176.5,265.5C 177.359,268.051 178.359,270.551 179.5,273C 179.167,273.5 178.833,274 178.5,274.5C 175.516,272.016 172.682,269.35 170,266.5C 169.997,262.775 171.497,259.609 174.5,257C 172,254.5 169.5,252 167,249.5C 166.333,248.167 166.333,246.833 167,245.5C 170.665,241.145 169.999,237.479 165,234.5C 165.32,237.46 165.32,240.46 165,243.5C 163.581,245.336 162.414,247.336 161.5,249.5C 164.362,252.194 167.029,255.028 169.5,258C 166.961,261.574 164.794,265.407 163,269.5C 162.36,271.265 162.527,272.932 163.5,274.5C 163.666,278.514 163.499,282.514 163,286.5C 159.257,282.012 155.757,277.346 152.5,272.5C 153.18,271.14 153.847,269.807 154.5,268.5C 155.045,266.407 155.878,264.407 157,262.5C 157.667,260.833 157.667,259.167 157,257.5C 154.447,255.284 152.28,252.784 150.5,250C 152.853,245.089 154.186,239.922 154.5,234.5C 155.482,235.141 156.482,235.807 157.5,236.5C 159.312,233.571 160.646,230.405 161.5,227C 159.65,224.392 157.316,222.225 154.5,220.5C 153.818,221.243 153.151,221.909 152.5,222.5C 151.957,222.44 151.624,222.107 151.5,221.5C 153.777,216.669 155.444,211.669 156.5,206.5C 159.72,209.913 162.72,213.579 165.5,217.5C 167.053,212.726 168.886,208.06 171,203.5C 174.079,207.324 176.912,211.324 179.5,215.5C 182.131,208.995 184.465,202.328 186.5,195.5C 189.833,198.167 192.833,201.167 195.5,204.5C 195.833,204 196.167,203.5 196.5,203C 198.463,194.373 200.796,185.873 203.5,177.5C 206.088,181.676 208.921,185.676 212,189.5C 213.063,185.02 214.563,180.687 216.5,176.5C 221.512,184.531 226.512,192.531 231.5,200.5 Z"/></g>
<g><path style="opacity:0.991" fill="#191815" d="M 169.5,213.5 C 173.976,213.8 175.31,215.967 173.5,220C 171.866,220.494 170.199,220.66 168.5,220.5C 168.448,218.097 168.781,215.764 169.5,213.5 Z"/></g>
<g><path style="opacity:0.983" fill="#181614" d="M 188.5,203.5 C 194.693,204.552 195.86,207.552 192,212.5C 188.168,215.673 186.001,214.839 185.5,210C 185.391,207.288 186.391,205.122 188.5,203.5 Z"/></g>
<g><path style="opacity:0.991" fill="#181614" d="M 201.5,199.5 C 208.323,200.38 210.323,204.046 207.5,210.5C 204.881,210.768 202.381,210.435 200,209.5C 199.31,205.974 199.81,202.64 201.5,199.5 Z"/></g>
<g><path style="opacity:0.492" fill="#3c271d" d="M 356.5,69.5 C 350.741,80.0246 344.741,90.3579 338.5,100.5C 324.668,122.001 311.668,144.001 299.5,166.5C 306.566,165.42 313.566,164.087 320.5,162.5C 323.43,161.701 326.43,161.368 329.5,161.5C 329.285,159.821 329.952,158.821 331.5,158.5C 331.369,159.239 331.536,159.906 332,160.5C 335.719,159.352 339.552,158.686 343.5,158.5C 345.921,160.238 348.588,161.571 351.5,162.5C 351.833,164.833 353.167,166.167 355.5,166.5C 359.515,170.513 363.848,174.179 368.5,177.5C 369.097,178.139 369.93,178.472 371,178.5C 380.794,177.08 390.627,176.58 400.5,177C 403.039,178.721 405.372,180.554 407.5,182.5C 411.226,186.845 415.559,187.512 420.5,184.5C 424.844,183.534 429.011,182.201 433,180.5C 433.333,174.5 433.667,168.5 434,162.5C 435.584,161.139 437.418,160.472 439.5,160.5C 438.054,137.485 436.387,114.485 434.5,91.5C 435.75,91.5774 436.583,92.244 437,93.5C 437.197,96.6919 438.03,99.6919 439.5,102.5C 439.069,103.293 438.735,104.127 438.5,105C 440.336,107.778 440.336,110.278 438.5,112.5C 439.942,119.299 441.275,126.133 442.5,133C 442.006,138.833 441.673,144.5 441.5,150C 442.167,151.667 442.833,153.333 443.5,155C 442.107,158.882 440.107,162.382 437.5,165.5C 437.673,167.038 438.006,168.538 438.5,170C 436.174,173.083 434.84,176.583 434.5,180.5C 435.025,181.192 435.692,181.692 436.5,182C 435.62,183.356 435.286,184.856 435.5,186.5C 437.39,186.297 438.89,186.963 440,188.5C 442.005,194.032 443.505,199.699 444.5,205.5C 444.069,206.293 443.735,207.127 443.5,208C 448.274,217.741 450.941,227.908 451.5,238.5C 450.249,239.631 449.249,240.964 448.5,242.5C 448.818,243.647 449.484,244.481 450.5,245C 449.833,245.333 449.167,245.667 448.5,246C 450.366,250.295 451.032,254.629 450.5,259C 449.76,261.565 448.426,263.731 446.5,265.5C 446.5,255.5 446.5,245.5 446.5,235.5C 448.233,227.951 446.066,221.951 440,217.5C 439.936,207.544 439.103,197.71 437.5,188C 435.167,187.333 432.833,187.333 430.5,188C 424.854,190.806 418.854,191.806 412.5,191C 407.546,187.715 402.88,184.048 398.5,180C 392.305,179.655 386.305,180.155 380.5,181.5C 376.138,181.756 371.805,181.923 367.5,182C 360.167,176 352.833,170 345.5,164C 344,163.833 342.5,163.667 341,163.5C 324.378,167.577 307.545,170.743 290.5,173C 289.944,172.617 289.611,172.117 289.5,171.5C 282.555,160.715 275.388,150.048 268,139.5C 262.535,151.401 257.369,163.401 252.5,175.5C 243.119,195.263 233.452,214.93 223.5,234.5C 230.202,235.95 236.869,236.284 243.5,235.5C 252.645,236.746 261.978,237.58 271.5,238C 277.333,242.5 283.167,247 289,251.5C 289.399,251.272 289.565,250.938 289.5,250.5C 292.728,251.414 296.061,251.747 299.5,251.5C 301.95,251.702 304.283,251.369 306.5,250.5C 311.167,251.833 315.833,251.833 320.5,250.5C 324.954,251.782 328.787,254.115 332,257.5C 332.483,256.552 332.649,255.552 332.5,254.5C 334.3,258.984 337.3,262.65 341.5,265.5C 342.987,266.804 344.654,267.97 346.5,269C 350.863,269.29 355.196,269.79 359.5,270.5C 360.416,270.457 361.083,270.124 361.5,269.5C 363.833,269.5 366.167,269.5 368.5,269.5C 371.206,269.575 373.873,269.908 376.5,270.5C 380.185,273.191 383.852,275.858 387.5,278.5C 387.5,280.833 387.5,283.167 387.5,285.5C 382.993,281.832 378.327,278.332 373.5,275C 363.497,274.917 353.497,274.917 343.5,275C 336.167,269 328.833,263 321.5,257C 307.838,257.194 294.172,257.194 280.5,257C 275.018,252.685 270.018,247.851 265.5,242.5C 243.357,241.825 221.357,239.825 199.5,236.5C 192.43,253.14 184.43,269.307 175.5,285C 178.898,289.732 183.065,293.899 188,297.5C 188.278,296.584 188.778,295.918 189.5,295.5C 191.402,300.572 194.902,304.238 200,306.5C 205.985,303.663 210.818,299.663 214.5,294.5C 214.897,295.525 215.563,295.692 216.5,295C 219.029,292.971 221.696,291.138 224.5,289.5C 227.934,292.281 231.601,294.614 235.5,296.5C 240.936,301.601 246.936,305.934 253.5,309.5C 253.611,310.117 253.944,310.617 254.5,311C 257.146,311.497 259.813,311.664 262.5,311.5C 263.449,312.152 264.615,312.486 266,312.5C 268.239,311.909 270.406,311.242 272.5,310.5C 272.389,311.117 272.056,311.617 271.5,312C 274.817,312.498 278.15,312.665 281.5,312.5C 283.554,312.635 285.221,311.968 286.5,310.5C 286.5,311.833 287.167,312.5 288.5,312.5C 288.5,341.167 288.5,369.833 288.5,398.5C 287.502,371.338 287.169,344.005 287.5,316.5C 276.162,316.667 264.828,316.5 253.5,316C 243.629,309.568 233.629,303.401 223.5,297.5C 213.938,303.553 204.772,310.219 196,317.5C 186.631,308.298 177.464,298.965 168.5,289.5C 170.993,289.671 172.826,288.671 174,286.5C 173.629,282.685 173.796,279.018 174.5,275.5C 172.28,272.699 169.28,271.366 165.5,271.5C 165.715,273.179 165.048,274.179 163.5,274.5C 162.527,272.932 162.36,271.265 163,269.5C 164.794,265.407 166.961,261.574 169.5,258C 167.029,255.028 164.362,252.194 161.5,249.5C 162.414,247.336 163.581,245.336 165,243.5C 165.32,240.46 165.32,237.46 165,234.5C 169.999,237.479 170.665,241.145 167,245.5C 166.333,246.833 166.333,248.167 167,249.5C 169.5,252 172,254.5 174.5,257C 171.497,259.609 169.997,262.775 170,266.5C 172.682,269.35 175.516,272.016 178.5,274.5C 178.833,274 179.167,273.5 179.5,273C 178.359,270.551 177.359,268.051 176.5,265.5C 178.167,262.833 179.833,260.167 181.5,257.5C 179.889,253.777 177.889,250.277 175.5,247C 176.911,243.512 178.577,240.178 180.5,237C 179.67,235.535 179.504,234.035 180,232.5C 184.894,235.146 185.561,238.479 182,242.5C 181.333,243.833 181.333,245.167 182,246.5C 184,248.5 186,250.5 188,252.5C 187.514,243.979 190.014,236.479 195.5,230C 194.008,227.342 192.008,225.176 189.5,223.5C 190.779,220.888 192.445,218.555 194.5,216.5C 195.314,218.766 195.814,221.1 196,223.5C 197.333,224.167 198.667,224.833 200,225.5C 199.845,227.811 199.845,230.144 200,232.5C 203.804,235.603 205.137,234.936 204,230.5C 206.35,228.317 208.517,225.984 210.5,223.5C 208.769,221.655 207.102,219.822 205.5,218C 208.086,214.164 210.419,210.164 212.5,206C 211.578,203.495 211.078,200.995 211,198.5C 213.438,200.429 215.272,202.762 216.5,205.5C 215.019,209.127 213.019,212.46 210.5,215.5C 212.46,217.156 214.46,218.823 216.5,220.5C 215.287,223.095 213.953,225.595 212.5,228C 215.048,230.196 217.882,232.029 221,233.5C 221.624,231.536 221.124,229.869 219.5,228.5C 222.445,223.555 225.779,218.888 229.5,214.5C 228.5,213.167 227.5,211.833 226.5,210.5C 228.339,208.162 230.339,205.996 232.5,204C 232.011,202.862 231.678,201.695 231.5,200.5C 231.334,194.824 231.501,189.157 232,183.5C 233.333,182.167 234.667,180.833 236,179.5C 235.848,182.49 235.348,185.49 234.5,188.5C 237.119,197.349 238.619,197.349 239,188.5C 240.404,186.606 241.57,184.606 242.5,182.5C 241.935,180.595 240.935,178.929 239.5,177.5C 240.167,176.167 241.167,175.167 242.5,174.5C 244.09,176.68 245.424,179.013 246.5,181.5C 251.564,169.308 256.23,156.975 260.5,144.5C 262.297,140.471 264.297,136.471 266.5,132.5C 272.191,139.852 277.857,147.185 283.5,154.5C 285.562,158.279 287.896,161.946 290.5,165.5C 291.274,166.711 292.107,166.711 293,165.5C 304.083,146.999 315.416,128.666 327,110.5C 327.72,108.888 327.554,107.388 326.5,106C 320.931,102.248 315.264,98.7482 309.5,95.5C 299.862,87.8863 288.862,83.053 276.5,81C 275.049,77.8885 275.382,75.0552 277.5,72.5C 281.046,73.0435 283.379,75.0435 284.5,78.5C 297.181,82.5139 309.181,88.6806 320.5,97C 324.262,99.1562 328.262,99.8229 332.5,99C 336.74,94.8203 339.906,89.987 342,84.5C 345.704,80.1352 349.37,75.8018 353,71.5C 353.816,70.1772 354.983,69.5106 356.5,69.5 Z"/></g>
<g><path style="opacity:0.975" fill="#992307" d="M 390.5,205.5 C 393.436,214.042 396.936,222.375 401,230.5C 401.698,238.528 401.532,246.528 400.5,254.5C 398.5,254.5 396.5,254.5 394.5,254.5C 394.52,252.857 393.853,251.524 392.5,250.5C 393.609,248.786 392.942,248.119 390.5,248.5C 390.649,249.552 390.483,250.552 390,251.5C 389.819,248.305 389.319,245.305 388.5,242.5C 388.084,240.248 386.751,238.748 384.5,238C 375.036,235.941 365.702,233.441 356.5,230.5C 366.349,220.485 376.016,210.318 385.5,200C 386.449,199.383 387.282,199.549 388,200.5C 388.847,202.193 389.68,203.86 390.5,205.5 Z"/></g>
<g><path style="opacity:0.977" fill="#9a2207" d="M 289.5,250.5 C 289.565,250.938 289.399,251.272 289,251.5C 283.167,247 277.333,242.5 271.5,238C 261.978,237.58 252.645,236.746 243.5,235.5C 248.62,232.22 253.62,228.72 258.5,225C 265.014,218.319 271.681,211.819 278.5,205.5C 279.086,205.709 279.586,206.043 280,206.5C 282.225,221.397 285.392,236.064 289.5,250.5 Z"/></g>
<g><path style="opacity:0.978" fill="#3b3732" d="M 332.5,254.5 C 332.649,255.552 332.483,256.552 332,257.5C 328.787,254.115 324.954,251.782 320.5,250.5C 320.83,242.107 320.33,233.773 319,225.5C 314.54,233.732 310.373,242.065 306.5,250.5C 304.283,251.369 301.95,251.702 299.5,251.5C 308.02,230.794 317.853,210.794 329,191.5C 331.429,212.431 332.595,233.431 332.5,254.5 Z"/></g>
<g><path style="opacity:0.939" fill="#3c3831" d="M 274.5,171.5 C 276.203,177.864 277.703,184.198 279,190.5C 271.385,188.554 263.885,186.221 256.5,183.5C 257.35,180.427 258.35,177.427 259.5,174.5C 262.527,167.785 265.527,161.118 268.5,154.5C 270.506,160.266 272.506,165.933 274.5,171.5 Z"/></g>
<g><path style="opacity:0.962" fill="#3d3831" d="M 420.5,184.5 C 415.559,187.512 411.226,186.845 407.5,182.5C 409.062,179.018 410.395,175.352 411.5,171.5C 417.509,156.791 423.009,141.791 428,126.5C 428.333,126.833 428.667,127.167 429,127.5C 430.277,140.146 430.61,152.813 430,165.5C 428.981,164.313 427.814,163.313 426.5,162.5C 426.167,163 425.833,163.5 425.5,164C 423.458,170.76 421.791,177.594 420.5,184.5 Z"/></g>
<g><path style="opacity:0.981" fill="#181613" d="M 380.5,181.5 C 382.924,181.192 385.257,181.526 387.5,182.5C 385.744,182.36 384.078,182.86 382.5,184C 384.256,184.202 385.922,184.702 387.5,185.5C 386.585,186.328 385.919,187.328 385.5,188.5C 388.672,193.051 391.339,197.551 393.5,202C 392.5,202.333 391.5,202.667 390.5,203C 391.774,203.977 391.774,204.811 390.5,205.5C 389.68,203.86 388.847,202.193 388,200.5C 387.282,199.549 386.449,199.383 385.5,200C 376.016,210.318 366.349,220.485 356.5,230.5C 365.702,233.441 375.036,235.941 384.5,238C 386.751,238.748 388.084,240.248 388.5,242.5C 388.5,250.5 388.5,258.5 388.5,266.5C 388.495,270.534 388.162,274.534 387.5,278.5C 383.852,275.858 380.185,273.191 376.5,270.5C 375.687,262.947 374.02,255.614 371.5,248.5C 369.724,255.356 368.724,262.356 368.5,269.5C 366.167,269.5 363.833,269.5 361.5,269.5C 358.362,259.55 355.696,249.217 353.5,238.5C 351.079,242.34 348.912,246.34 347,250.5C 345.908,255.932 344.075,260.932 341.5,265.5C 337.3,262.65 334.3,258.984 332.5,254.5C 332.595,233.431 331.429,212.431 329,191.5C 317.853,210.794 308.02,230.794 299.5,251.5C 296.061,251.747 292.728,251.414 289.5,250.5C 285.392,236.064 282.225,221.397 280,206.5C 279.586,206.043 279.086,205.709 278.5,205.5C 271.681,211.819 265.014,218.319 258.5,225C 253.62,228.72 248.62,232.22 243.5,235.5C 236.869,236.284 230.202,235.95 223.5,234.5C 233.452,214.93 243.119,195.263 252.5,175.5C 253.458,175.047 254.292,174.381 255,173.5C 255.333,174.167 255.667,174.833 256,175.5C 257.011,174.663 258.178,174.33 259.5,174.5C 258.35,177.427 257.35,180.427 256.5,183.5C 263.885,186.221 271.385,188.554 279,190.5C 277.703,184.198 276.203,177.864 274.5,171.5C 275.688,170.636 276.855,169.636 278,168.5C 277.845,170.811 277.845,173.144 278,175.5C 279.351,173.981 280.851,172.648 282.5,171.5C 283.425,172.641 284.259,172.641 285,171.5C 285.308,172.308 285.808,172.975 286.5,173.5C 287.265,172.388 288.265,171.721 289.5,171.5C 289.611,172.117 289.944,172.617 290.5,173C 307.545,170.743 324.378,167.577 341,163.5C 342.5,163.667 344,163.833 345.5,164C 352.833,170 360.167,176 367.5,182C 371.805,181.923 376.138,181.756 380.5,181.5 Z"/></g>
<g><path style="opacity:0.939" fill="#1b1915" d="M 320.5,250.5 C 315.833,251.833 311.167,251.833 306.5,250.5C 310.373,242.065 314.54,233.732 319,225.5C 320.33,233.773 320.83,242.107 320.5,250.5 Z"/></g>
<g><path style="opacity:0.338" fill="#432e21" d="M 134.5,143.5 C 138.861,150.851 143.194,158.184 147.5,165.5C 148.295,170.042 150.128,174.042 153,177.5C 153.918,181.28 154.751,184.946 155.5,188.5C 155.5,189.833 155.5,191.167 155.5,192.5C 155.82,195.898 155.487,199.232 154.5,202.5C 152.353,208.726 150.52,215.059 149,221.5C 140.8,226.617 137.3,224.451 138.5,215C 137.552,214.517 136.552,214.351 135.5,214.5C 138.72,213.453 140.553,211.119 141,207.5C 143.104,198.743 142.77,190.076 140,181.5C 136.798,179.428 133.298,177.928 129.5,177C 125.878,174.935 123.878,171.768 123.5,167.5C 124.091,161.015 124.757,154.681 125.5,148.5C 125.335,151.518 125.502,154.518 126,157.5C 127.11,155.603 127.276,153.77 126.5,152C 128.866,148.792 131.366,145.625 134,142.5C 134.399,142.728 134.565,143.062 134.5,143.5 Z"/></g>
<g><path style="opacity:0.493" fill="#3a261c" d="M 155.5,188.5 C 154.751,184.946 153.918,181.28 153,177.5C 150.128,174.042 148.295,170.042 147.5,165.5C 153.059,173.599 158.392,181.932 163.5,190.5C 166.039,182.217 168.372,173.884 170.5,165.5C 173.985,169.79 176.985,174.457 179.5,179.5C 182.709,170.369 186.209,161.369 190,152.5C 193.543,158.252 196.543,164.252 199,170.5C 199.808,172.579 199.641,174.579 198.5,176.5C 195.731,171.961 193.231,167.294 191,162.5C 190.667,162.833 190.333,163.167 190,163.5C 186.987,172.554 183.82,181.554 180.5,190.5C 177.417,186.003 174.583,181.336 172,176.5C 169.853,183.939 167.52,191.272 165,198.5C 161.501,194.173 158.501,189.506 156,184.5C 155.51,185.793 155.343,187.127 155.5,188.5 Z"/></g>
<g><path style="opacity:0.959" fill="#3b3832" d="M 368.5,177.5 C 363.848,174.179 359.515,170.513 355.5,166.5C 361.336,154.498 367.503,142.498 374,130.5C 372.5,146.159 370.666,161.826 368.5,177.5 Z"/></g>
<g><path style="opacity:0.872" fill="#1e1a16" d="M 289.5,171.5 C 288.265,171.721 287.265,172.388 286.5,173.5C 285.808,172.975 285.308,172.308 285,171.5C 284.259,172.641 283.425,172.641 282.5,171.5C 280.851,172.648 279.351,173.981 278,175.5C 277.845,173.144 277.845,170.811 278,168.5C 276.855,169.636 275.688,170.636 274.5,171.5C 272.506,165.933 270.506,160.266 268.5,154.5C 265.527,161.118 262.527,167.785 259.5,174.5C 258.178,174.33 257.011,174.663 256,175.5C 255.667,174.833 255.333,174.167 255,173.5C 254.292,174.381 253.458,175.047 252.5,175.5C 257.369,163.401 262.535,151.401 268,139.5C 275.388,150.048 282.555,160.715 289.5,171.5 Z"/></g>
<g><path style="opacity:0.93" fill="#962409" d="M 403.5,158.5 C 395.872,154.566 388.205,150.566 380.5,146.5C 385.519,142.476 390.519,138.476 395.5,134.5C 398.319,132.581 400.986,130.415 403.5,128C 404.448,127.517 405.448,127.351 406.5,127.5C 406.5,137.833 406.5,148.167 406.5,158.5C 405.5,158.5 404.5,158.5 403.5,158.5 Z"/></g>
<g><path style="opacity:0.975" fill="#191714" d="M 395.5,134.5 C 390.519,138.476 385.519,142.476 380.5,146.5C 388.205,150.566 395.872,154.566 403.5,158.5C 403.062,158.435 402.728,158.601 402.5,159C 403.578,159.674 404.245,160.674 404.5,162C 404.05,163.55 403.883,165.05 404,166.5C 404.333,166.167 404.667,165.833 405,165.5C 406.399,166.227 407.899,166.727 409.5,167C 409.043,167.414 408.709,167.914 408.5,168.5C 409.274,169.711 410.107,169.711 411,168.5C 411.483,169.448 411.649,170.448 411.5,171.5C 410.395,175.352 409.062,179.018 407.5,182.5C 405.372,180.554 403.039,178.721 400.5,177C 390.627,176.58 380.794,177.08 371,178.5C 369.93,178.472 369.097,178.139 368.5,177.5C 370.666,161.826 372.5,146.159 374,130.5C 367.503,142.498 361.336,154.498 355.5,166.5C 353.167,166.167 351.833,164.833 351.5,162.5C 352.766,141.484 353.932,120.484 355,99.5C 342.445,119.945 330.945,140.945 320.5,162.5C 313.566,164.087 306.566,165.42 299.5,166.5C 311.668,144.001 324.668,122.001 338.5,100.5C 341.205,98.8464 343.205,99.5131 344.5,102.5C 347.044,101.265 347.044,100.099 344.5,99C 348.711,97.4614 352.878,96.628 357,96.5C 359.015,99.4749 361.682,101.808 365,103.5C 367.082,102.539 368.915,101.206 370.5,99.5C 371.635,100.103 372.635,100.436 373.5,100.5C 372.975,101.192 372.308,101.692 371.5,102C 374.546,101.686 377.546,101.853 380.5,102.5C 379.509,103.665 378.509,104.832 377.5,106C 377.645,106.772 377.978,107.439 378.5,108C 375.698,111.636 372.031,113.803 367.5,114.5C 366.359,115.425 366.359,116.259 367.5,117C 363.47,118.438 359.47,119.938 355.5,121.5C 356.934,122.23 358.1,123.23 359,124.5C 359.333,124.167 359.667,123.833 360,123.5C 364.166,124.588 368.166,125.922 372,127.5C 373,126.5 374,125.5 375,124.5C 376.824,125.749 376.657,126.915 374.5,128C 377.045,128.615 379.378,128.115 381.5,126.5C 382.5,122.5 383.5,122.5 384.5,126.5C 383.332,127.906 383.665,129.072 385.5,130C 387.437,132.435 389.27,132.602 391,130.5C 392.694,131.699 394.194,133.032 395.5,134.5 Z"/></g>
<g><path style="opacity:0.34" fill="#3f2a1f" d="M 184.5,57.5 C 183.782,59.1368 183.616,60.8034 184,62.5C 186.503,65.5017 188.503,68.8351 190,72.5C 190.936,78.7005 191.769,84.8672 192.5,91C 203.2,91.7628 213.867,91.5962 224.5,90.5C 218.497,96.1779 213.164,102.511 208.5,109.5C 207.311,110.429 205.978,110.762 204.5,110.5C 204.947,105.949 204.281,101.616 202.5,97.5C 197.351,109.138 191.184,120.138 184,130.5C 180.985,133.683 177.818,136.683 174.5,139.5C 173.185,136.627 172.185,133.627 171.5,130.5C 167.432,138.137 163.765,145.971 160.5,154C 158.833,154.667 157.167,154.667 155.5,154C 148.642,150.214 141.642,146.714 134.5,143.5C 134.565,143.062 134.399,142.728 134,142.5C 131.366,145.625 128.866,148.792 126.5,152C 127.276,153.77 127.11,155.603 126,157.5C 125.502,154.518 125.335,151.518 125.5,148.5C 125.586,146.323 126.253,144.323 127.5,142.5C 119.853,141.306 113.353,137.973 108,132.5C 106.803,129.911 105.803,127.244 105,124.5C 104.333,115.167 104.333,105.833 105,96.5C 111.505,87.5519 120.339,83.8852 131.5,85.5C 140.886,85.7821 150.219,86.6155 159.5,88C 165.694,90.8888 168.361,95.7221 167.5,102.5C 168.416,114.183 163.082,120.683 151.5,122C 144.615,123.098 137.949,122.431 131.5,120C 128.125,116.238 127.625,112.072 130,107.5C 133.777,103.1 138.277,102.267 143.5,105C 145.223,105.523 146.556,106.523 147.5,108C 147.387,109.28 146.72,110.113 145.5,110.5C 141.964,108.91 138.297,108.41 134.5,109C 131.595,112.374 131.928,115.374 135.5,118C 142.316,118.876 148.983,118.21 155.5,116C 161.97,111.874 164.137,106.041 162,98.5C 161.594,95.5056 160.094,93.339 157.5,92C 144.478,90.2102 131.478,90.2102 118.5,92C 113.306,93.1935 110.14,96.3601 109,101.5C 107.525,111.254 108.858,120.588 113,129.5C 117.277,133.711 122.444,136.211 128.5,137C 135.899,137.848 143.233,137.515 150.5,136C 151.416,135.626 152.25,135.126 153,134.5C 153.937,131.344 155.437,128.511 157.5,126C 166.102,126.363 174.102,124.363 181.5,120C 184.433,117.736 186.6,114.902 188,111.5C 190.327,98.737 189.994,86.0703 187,73.5C 182.915,64.2711 175.749,59.6044 165.5,59.5C 171.324,59.0383 177.157,58.0383 183,56.5C 183.765,56.5699 184.265,56.9033 184.5,57.5 Z"/></g>
<g><path style="opacity:0.943" fill="#191714" d="M 240.5,89.5 C 241.782,90.7082 241.782,92.0416 240.5,93.5C 239.707,93.0688 238.873,92.7355 238,92.5C 235.954,95.536 233.287,96.536 230,95.5C 229.626,96.4162 229.126,97.2496 228.5,98C 231.344,98.5642 234.344,98.5642 237.5,98C 237.043,98.414 236.709,98.914 236.5,99.5C 238.642,101.349 239.809,103.349 240,105.5C 242.139,104.231 244.305,104.231 246.5,105.5C 245.975,106.192 245.308,106.692 244.5,107C 245.833,108 247.167,109 248.5,110C 248.167,110.333 247.833,110.667 247.5,111C 248.973,111.71 249.64,112.876 249.5,114.5C 248.167,114.5 246.833,114.5 245.5,114.5C 245.5,115.5 245.5,116.5 245.5,117.5C 243.774,117.815 242.107,117.981 240.5,118C 241.668,116.129 241.168,114.629 239,113.5C 238.167,114.333 237.333,115.167 236.5,116C 236.548,118.127 236.715,120.294 237,122.5C 235.455,121.179 234.289,121.512 233.5,123.5C 234.262,123.911 235.262,124.077 236.5,124C 238.231,127.201 240.731,128.368 244,127.5C 245.067,128.943 246.234,130.276 247.5,131.5C 245.433,132.134 243.6,133.134 242,134.5C 240.887,133.289 239.72,133.289 238.5,134.5C 235.352,133.86 235.019,132.86 237.5,131.5C 235.525,130.422 233.692,130.755 232,132.5C 231.667,131.833 231.333,131.167 231,130.5C 229.065,132.102 226.899,133.269 224.5,134C 225.126,134.75 225.626,135.584 226,136.5C 226.718,135.549 227.551,135.383 228.5,136C 226.333,137.5 224.5,139.333 223,141.5C 222.399,142.965 222.899,143.965 224.5,144.5C 227.645,142.268 230.645,142.268 233.5,144.5C 234.548,143.617 235.715,142.95 237,142.5C 239.155,143.244 241.155,144.244 243,145.5C 244.767,144.66 246.101,143.327 247,141.5C 248.365,145.172 250.365,145.506 253,142.5C 255.838,143.41 258.338,144.077 260.5,144.5C 256.23,156.975 251.564,169.308 246.5,181.5C 245.424,179.013 244.09,176.68 242.5,174.5C 241.167,175.167 240.167,176.167 239.5,177.5C 240.935,178.929 241.935,180.595 242.5,182.5C 241.57,184.606 240.404,186.606 239,188.5C 238.619,197.349 237.119,197.349 234.5,188.5C 235.348,185.49 235.848,182.49 236,179.5C 234.667,180.833 233.333,182.167 232,183.5C 231.501,189.157 231.334,194.824 231.5,200.5C 226.512,192.531 221.512,184.531 216.5,176.5C 214.563,180.687 213.063,185.02 212,189.5C 208.921,185.676 206.088,181.676 203.5,177.5C 200.796,185.873 198.463,194.373 196.5,203C 196.167,203.5 195.833,204 195.5,204.5C 192.833,201.167 189.833,198.167 186.5,195.5C 184.465,202.328 182.131,208.995 179.5,215.5C 176.912,211.324 174.079,207.324 171,203.5C 168.886,208.06 167.053,212.726 165.5,217.5C 162.72,213.579 159.72,209.913 156.5,206.5C 156.819,201.637 156.486,196.97 155.5,192.5C 155.5,191.167 155.5,189.833 155.5,188.5C 155.343,187.127 155.51,185.793 156,184.5C 158.501,189.506 161.501,194.173 165,198.5C 167.52,191.272 169.853,183.939 172,176.5C 174.583,181.336 177.417,186.003 180.5,190.5C 183.82,181.554 186.987,172.554 190,163.5C 190.333,163.167 190.667,162.833 191,162.5C 193.231,167.294 195.731,171.961 198.5,176.5C 199.641,174.579 199.808,172.579 199,170.5C 196.543,164.252 193.543,158.252 190,152.5C 186.209,161.369 182.709,170.369 179.5,179.5C 176.985,174.457 173.985,169.79 170.5,165.5C 168.372,173.884 166.039,182.217 163.5,190.5C 158.392,181.932 153.059,173.599 147.5,165.5C 143.194,158.184 138.861,150.851 134.5,143.5C 141.642,146.714 148.642,150.214 155.5,154C 157.167,154.667 158.833,154.667 160.5,154C 163.765,145.971 167.432,138.137 171.5,130.5C 172.185,133.627 173.185,136.627 174.5,139.5C 177.818,136.683 180.985,133.683 184,130.5C 191.184,120.138 197.351,109.138 202.5,97.5C 204.281,101.616 204.947,105.949 204.5,110.5C 205.978,110.762 207.311,110.429 208.5,109.5C 213.164,102.511 218.497,96.1779 224.5,90.5C 229.814,86.19 235.148,81.8567 240.5,77.5C 240.833,77.8333 241.167,78.1667 241.5,78.5C 239.72,82.361 238.887,86.361 239,90.5C 239.383,89.944 239.883,89.6107 240.5,89.5 Z"/></g>
<g><path style="opacity:0.982" fill="#393631" d="M 160.5,202.5 C 165.994,202.93 167.994,205.93 166.5,211.5C 164.278,211.822 162.444,211.155 161,209.5C 160.503,207.19 160.337,204.857 160.5,202.5 Z"/></g>
<g><path style="opacity:0.988" fill="#3a3732" d="M 190.5,183.5 C 193.469,183.808 195.469,185.308 196.5,188C 195.236,196.942 192.236,197.775 187.5,190.5C 187.695,187.782 188.695,185.449 190.5,183.5 Z"/></g>
<g><path style="opacity:0.976" fill="#4674a7" d="M 184.5,147.5 C 185.497,147.47 186.164,147.97 186.5,149C 185.007,152.132 183.507,155.299 182,158.5C 180.027,157.36 178.193,156.027 176.5,154.5C 179.198,152.159 181.865,149.826 184.5,147.5 Z"/></g>
<g><path style="opacity:0.947" fill="#3c3832" d="M 351.5,162.5 C 348.588,161.571 345.921,160.238 343.5,158.5C 344.813,149.482 345.979,140.482 347,131.5C 341.97,140.668 336.803,149.668 331.5,158.5C 329.952,158.821 329.285,159.821 329.5,161.5C 326.43,161.368 323.43,161.701 320.5,162.5C 330.945,140.945 342.445,119.945 355,99.5C 353.932,120.484 352.766,141.484 351.5,162.5 Z"/></g>
<g><path style="opacity:0.97" fill="#191714" d="M 343.5,158.5 C 339.552,158.686 335.719,159.352 332,160.5C 331.536,159.906 331.369,159.239 331.5,158.5C 336.803,149.668 341.97,140.668 347,131.5C 345.979,140.482 344.813,149.482 343.5,158.5 Z"/></g>
<g><path style="opacity:0.977" fill="#181614" d="M 309.5,95.5 C 315.264,98.7482 320.931,102.248 326.5,106C 327.554,107.388 327.72,108.888 327,110.5C 315.416,128.666 304.083,146.999 293,165.5C 292.107,166.711 291.274,166.711 290.5,165.5C 287.896,161.946 285.562,158.279 283.5,154.5C 285.084,152.242 287.084,150.408 289.5,149C 289.37,147.941 288.87,147.108 288,146.5C 286.887,148.329 285.387,149.163 283.5,149C 286.979,145.631 289.313,141.965 290.5,138C 287.258,137.717 286.924,136.883 289.5,135.5C 289.028,133.556 287.695,131.722 285.5,130C 286.167,129.333 286.833,128.667 287.5,128C 283.352,126.022 279.685,124.022 276.5,122C 278.403,120.553 280.07,118.886 281.5,117C 284.486,117.128 287.486,117.128 290.5,117C 294.328,114.648 293.995,112.648 289.5,111C 291.225,110.135 292.892,109.469 294.5,109C 292.893,107.951 292.227,106.451 292.5,104.5C 293.978,104.762 295.311,104.429 296.5,103.5C 293.922,103.323 293.922,102.157 296.5,100C 295.167,100 293.833,100 292.5,100C 294.056,97.3863 296.39,96.0529 299.5,96C 297.519,95.3946 297.185,94.3946 298.5,93C 299.766,92.6905 300.933,92.1905 302,91.5C 303.527,93.221 304.527,95.221 305,97.5C 305.333,97.1667 305.667,96.8333 306,96.5C 306.053,99.2451 307.22,101.245 309.5,102.5C 310.9,100.218 310.234,98.7183 307.5,98C 308.381,97.2917 309.047,96.4584 309.5,95.5 Z"/></g>
<g><path style="opacity:0.884" fill="#1d1a15" d="M 277.5,72.5 C 275.382,75.0552 275.049,77.8885 276.5,81C 288.862,83.053 299.862,87.8863 309.5,95.5C 309.047,96.4584 308.381,97.2917 307.5,98C 310.234,98.7183 310.9,100.218 309.5,102.5C 307.22,101.245 306.053,99.2451 306,96.5C 305.667,96.8333 305.333,97.1667 305,97.5C 304.527,95.221 303.527,93.221 302,91.5C 300.933,92.1905 299.766,92.6905 298.5,93C 297.185,94.3946 297.519,95.3946 299.5,96C 296.39,96.0529 294.056,97.3863 292.5,100C 293.833,100 295.167,100 296.5,100C 293.922,102.157 293.922,103.323 296.5,103.5C 295.311,104.429 293.978,104.762 292.5,104.5C 292.227,106.451 292.893,107.951 294.5,109C 292.892,109.469 291.225,110.135 289.5,111C 293.995,112.648 294.328,114.648 290.5,117C 287.486,117.128 284.486,117.128 281.5,117C 280.07,118.886 278.403,120.553 276.5,122C 279.685,124.022 283.352,126.022 287.5,128C 286.833,128.667 286.167,129.333 285.5,130C 287.695,131.722 289.028,133.556 289.5,135.5C 286.924,136.883 287.258,137.717 290.5,138C 289.313,141.965 286.979,145.631 283.5,149C 285.387,149.163 286.887,148.329 288,146.5C 288.87,147.108 289.37,147.941 289.5,149C 287.084,150.408 285.084,152.242 283.5,154.5C 277.857,147.185 272.191,139.852 266.5,132.5C 264.297,136.471 262.297,140.471 260.5,144.5C 258.338,144.077 255.838,143.41 253,142.5C 250.365,145.506 248.365,145.172 247,141.5C 246.101,143.327 244.767,144.66 243,145.5C 241.155,144.244 239.155,143.244 237,142.5C 235.715,142.95 234.548,143.617 233.5,144.5C 230.645,142.268 227.645,142.268 224.5,144.5C 222.899,143.965 222.399,142.965 223,141.5C 224.5,139.333 226.333,137.5 228.5,136C 227.551,135.383 226.718,135.549 226,136.5C 225.626,135.584 225.126,134.75 224.5,134C 226.899,133.269 229.065,132.102 231,130.5C 231.333,131.167 231.667,131.833 232,132.5C 233.692,130.755 235.525,130.422 237.5,131.5C 235.019,132.86 235.352,133.86 238.5,134.5C 239.72,133.289 240.887,133.289 242,134.5C 243.6,133.134 245.433,132.134 247.5,131.5C 246.234,130.276 245.067,128.943 244,127.5C 240.731,128.368 238.231,127.201 236.5,124C 235.262,124.077 234.262,123.911 233.5,123.5C 234.289,121.512 235.455,121.179 237,122.5C 236.715,120.294 236.548,118.127 236.5,116C 237.333,115.167 238.167,114.333 239,113.5C 241.168,114.629 241.668,116.129 240.5,118C 242.107,117.981 243.774,117.815 245.5,117.5C 245.5,116.5 245.5,115.5 245.5,114.5C 246.833,114.5 248.167,114.5 249.5,114.5C 249.64,112.876 248.973,111.71 247.5,111C 247.833,110.667 248.167,110.333 248.5,110C 247.167,109 245.833,108 244.5,107C 245.308,106.692 245.975,106.192 246.5,105.5C 244.305,104.231 242.139,104.231 240,105.5C 239.809,103.349 238.642,101.349 236.5,99.5C 236.709,98.914 237.043,98.414 237.5,98C 234.344,98.5642 231.344,98.5642 228.5,98C 229.126,97.2496 229.626,96.4162 230,95.5C 233.287,96.536 235.954,95.536 238,92.5C 238.873,92.7355 239.707,93.0688 240.5,93.5C 241.782,92.0416 241.782,90.7082 240.5,89.5C 244.858,86.9866 248.858,83.9866 252.5,80.5C 258.862,77.6561 264.862,74.3228 270.5,70.5C 273.118,70.2208 275.618,69.5541 278,68.5C 278.195,69.8193 278.028,71.1526 277.5,72.5 Z"/></g>
<g><path style="opacity:0.952" fill="#5d5347" d="M 165.5,59.5 C 175.749,59.6044 182.915,64.2711 187,73.5C 189.994,86.0703 190.327,98.737 188,111.5C 186.6,114.902 184.433,117.736 181.5,120C 174.102,124.363 166.102,126.363 157.5,126C 155.437,128.511 153.937,131.344 153,134.5C 152.25,135.126 151.416,135.626 150.5,136C 143.233,137.515 135.899,137.848 128.5,137C 122.444,136.211 117.277,133.711 113,129.5C 108.858,120.588 107.525,111.254 109,101.5C 110.14,96.3601 113.306,93.1935 118.5,92C 131.478,90.2102 144.478,90.2102 157.5,92C 160.094,93.339 161.594,95.5056 162,98.5C 164.137,106.041 161.97,111.874 155.5,116C 148.983,118.21 142.316,118.876 135.5,118C 131.928,115.374 131.595,112.374 134.5,109C 138.297,108.41 141.964,108.91 145.5,110.5C 146.72,110.113 147.387,109.28 147.5,108C 146.556,106.523 145.223,105.523 143.5,105C 138.277,102.267 133.777,103.1 130,107.5C 127.625,112.072 128.125,116.238 131.5,120C 137.949,122.431 144.615,123.098 151.5,122C 163.082,120.683 168.416,114.183 167.5,102.5C 168.361,95.7221 165.694,90.8888 159.5,88C 150.219,86.6155 140.886,85.7821 131.5,85.5C 120.339,83.8852 111.505,87.5519 105,96.5C 104.333,105.833 104.333,115.167 105,124.5C 105.803,127.244 106.803,129.911 108,132.5C 113.353,137.973 119.853,141.306 127.5,142.5C 126.253,144.323 125.586,146.323 125.5,148.5C 124.757,154.681 124.091,161.015 123.5,167.5C 123.878,171.768 125.878,174.935 129.5,177C 133.298,177.928 136.798,179.428 140,181.5C 142.77,190.076 143.104,198.743 141,207.5C 140.553,211.119 138.72,213.453 135.5,214.5C 133.801,214.62 132.135,214.954 130.5,215.5C 118.749,212.924 107.083,213.091 95.5,216C 91.1409,217.692 88.1409,220.692 86.5,225C 83.9109,226.197 81.2442,227.197 78.5,228C 73.0025,234.5 72.1692,241.666 76,249.5C 76.9025,250.701 78.0692,251.535 79.5,252C 89.6127,252.817 99.6127,252.15 109.5,250C 114.833,244.333 114.833,238.667 109.5,233C 104.167,231 98.8333,231 93.5,233C 90.0221,235.706 89.6888,238.706 92.5,242C 98.7603,242.209 99.0937,240.709 93.5,237.5C 93.7093,236.914 94.0426,236.414 94.5,236C 99.9664,233.452 104.8,234.286 109,238.5C 111.022,245.151 108.522,248.317 101.5,248C 97.0135,248.623 92.5135,249.123 88,249.5C 84.2423,249.858 80.909,248.858 78,246.5C 75.0088,235.707 78.8421,229.207 89.5,227C 90.7464,223.418 93.0797,220.751 96.5,219C 102.493,218.41 108.493,217.91 114.5,217.5C 120.947,217.289 126.947,218.789 132.5,222C 134.886,226.56 138.553,229.393 143.5,230.5C 150.237,239.304 151.071,248.637 146,258.5C 143.585,259.411 142.085,261.078 141.5,263.5C 139.329,283.286 138.329,303.286 138.5,323.5C 137.522,325.812 135.855,327.478 133.5,328.5C 131.255,326.322 129.255,323.988 127.5,321.5C 127.5,320.833 127.5,320.167 127.5,319.5C 127.667,301.83 127.5,284.164 127,266.5C 126.5,265.5 126,264.5 125.5,263.5C 120.103,263.105 116.103,260.605 113.5,256C 107.282,256.004 101.116,256.504 95,257.5C 94.5001,274.163 94.3334,290.83 94.5,307.5C 93.0322,313.9 91.3655,320.234 89.5,326.5C 88.5444,308.666 87.7111,290.666 87,272.5C 75.0776,273.744 69.5776,268.411 70.5,256.5C 68.8333,256.5 67.1667,256.5 65.5,256.5C 65.6495,255.448 65.4828,254.448 65,253.5C 64.2825,254.451 63.4491,254.617 62.5,254C 61.5399,252.581 60.7065,251.081 60,249.5C 59.8213,245.975 59.3213,242.641 58.5,239.5C 58.6657,235.154 58.499,230.821 58,226.5C 55.2366,224.614 52.9032,222.281 51,219.5C 47.4935,208.024 49.9935,198.19 58.5,190C 60.7148,188.956 63.0481,188.29 65.5,188C 83.5092,187.833 101.509,187.333 119.5,186.5C 115.579,185.105 111.579,183.938 107.5,183C 105.383,181.269 103.883,179.102 103,176.5C 102.088,172.205 101.421,167.872 101,163.5C 92.0903,162.592 86.0903,157.925 83,149.5C 82.6667,141.833 82.3333,134.167 82,126.5C 77.5855,125.697 73.0855,125.197 68.5,125C 64.7403,123.539 61.9069,121.039 60,117.5C 54.0805,104.143 54.0805,90.8099 60,77.5C 63.6267,71.869 68.4601,67.7023 74.5,65C 93.6767,60.1175 113.177,57.9508 133,58.5C 143.84,58.7224 154.673,59.0557 165.5,59.5 Z"/></g>
<g><path style="opacity:0.354" fill="#412c20" d="M 127.5,319.5 C 118.478,308.116 110.144,296.116 102.5,283.5C 103.583,283.539 104.583,283.873 105.5,284.5C 106.584,287.088 108.251,289.255 110.5,291C 113.371,291.131 115.705,292.297 117.5,294.5C 118.833,293.833 120.167,293.167 121.5,292.5C 122.192,287.952 122.859,283.452 123.5,279C 122.012,274.19 119.845,269.69 117,265.5C 113.502,263.446 109.835,261.779 106,260.5C 103.144,263.698 100.644,267.198 98.5,271C 99.4993,274.831 100.499,278.665 101.5,282.5C 98.7902,290.708 96.4569,299.042 94.5,307.5C 94.3334,290.83 94.5001,274.163 95,257.5C 101.116,256.504 107.282,256.004 113.5,256C 116.103,260.605 120.103,263.105 125.5,263.5C 126,264.5 126.5,265.5 127,266.5C 127.5,284.164 127.667,301.83 127.5,319.5 Z"/></g>
<g><path style="opacity:0.121" fill="#4a3625" d="M 102.5,283.5 C 102.5,282.833 102.167,282.5 101.5,282.5C 100.499,278.665 99.4993,274.831 98.5,271C 100.644,267.198 103.144,263.698 106,260.5C 109.835,261.779 113.502,263.446 117,265.5C 119.845,269.69 122.012,274.19 123.5,279C 122.859,283.452 122.192,287.952 121.5,292.5C 120.167,293.167 118.833,293.833 117.5,294.5C 115.705,292.297 113.371,291.131 110.5,291C 108.251,289.255 106.584,287.088 105.5,284.5C 104.583,283.873 103.583,283.539 102.5,283.5 Z"/></g>
<g><path style="opacity:0.343" fill="#432e21" d="M 270.5,70.5 C 264.862,74.3228 258.862,77.6561 252.5,80.5C 255.297,75.9198 256.13,70.9198 255,65.5C 253.269,63.3834 251.102,61.8834 248.5,61C 244.167,60.6667 239.833,60.3333 235.5,60C 233.004,56.0828 229.67,53.0828 225.5,51C 216.167,50.3333 206.833,50.3333 197.5,51C 191.786,50.8242 187.453,52.9909 184.5,57.5C 184.265,56.9033 183.765,56.5699 183,56.5C 177.157,58.0383 171.324,59.0383 165.5,59.5C 154.673,59.0557 143.84,58.7224 133,58.5C 113.177,57.9508 93.6767,60.1175 74.5,65C 68.4601,67.7023 63.6267,71.869 60,77.5C 54.0805,90.8099 54.0805,104.143 60,117.5C 61.9069,121.039 64.7403,123.539 68.5,125C 73.0855,125.197 77.5855,125.697 82,126.5C 82.3333,134.167 82.6667,141.833 83,149.5C 86.0903,157.925 92.0903,162.592 101,163.5C 101.421,167.872 102.088,172.205 103,176.5C 103.883,179.102 105.383,181.269 107.5,183C 111.579,183.938 115.579,185.105 119.5,186.5C 101.509,187.333 83.5092,187.833 65.5,188C 63.0481,188.29 60.7148,188.956 58.5,190C 49.9935,198.19 47.4935,208.024 51,219.5C 52.9032,222.281 55.2366,224.614 58,226.5C 58.499,230.821 58.6657,235.154 58.5,239.5C 58.5,240.5 58.5,241.5 58.5,242.5C 56.8967,242.688 55.5634,242.188 54.5,241C 54.455,237.865 54.455,234.698 54.5,231.5C 52.5414,230.252 51.0414,228.585 50,226.5C 49.7468,223.21 48.7468,220.21 47,217.5C 45.7821,212.545 45.4488,207.545 46,202.5C 48.0616,200.64 49.3949,198.306 50,195.5C 55.0055,187.376 62.3388,183.376 72,183.5C 78.1763,184.284 84.3429,183.784 90.5,182C 93.5219,181.148 96.1886,179.648 98.5,177.5C 96.8742,175.221 96.0408,172.888 96,170.5C 91.9217,165.586 87.4217,161.252 82.5,157.5C 80.9023,153.874 79.4023,150.207 78,146.5C 78.2096,142.586 77.7096,138.586 76.5,134.5C 72.9496,132.04 69.283,129.54 65.5,127C 64.2068,126.51 62.8734,126.343 61.5,126.5C 61.6495,125.448 61.4828,124.448 61,123.5C 58.307,121.162 56.1403,118.329 54.5,115C 54.8333,114.667 55.1667,114.333 55.5,114C 52.7214,109.949 51.388,105.449 51.5,100.5C 52.675,100.719 53.675,100.386 54.5,99.5C 53.2485,98.3689 52.2485,97.0356 51.5,95.5C 51.8178,94.3527 52.4844,93.5194 53.5,93C 52.6422,91.43 51.9755,89.7633 51.5,88C 52.7173,85.632 53.5506,83.132 54,80.5C 56.365,76.7364 58.865,73.0697 61.5,69.5C 66.1936,66.4973 70.8602,63.4973 75.5,60.5C 76.086,60.7093 76.586,61.0426 77,61.5C 77.9025,60.2986 79.0692,59.4652 80.5,59C 87.4663,57.7815 94.2996,56.2815 101,54.5C 102.4,55.1159 103.9,55.4493 105.5,55.5C 108.789,54.6184 112.123,53.9517 115.5,53.5C 127.434,54.7066 139.268,54.7066 151,53.5C 162.449,56.6388 173.949,56.9722 185.5,54.5C 185.5,53.1667 185.5,51.8333 185.5,50.5C 188.686,49.6621 191.853,48.6621 195,47.5C 195.873,47.7355 196.707,48.0688 197.5,48.5C 199.558,46.9228 201.892,45.9228 204.5,45.5C 209.309,45.8945 214.309,46.5612 219.5,47.5C 220.442,47.3918 221.275,47.0585 222,46.5C 226.713,48.692 231.546,50.692 236.5,52.5C 238.929,53.8551 240.262,55.5217 240.5,57.5C 242.5,57.1667 244.5,56.8333 246.5,56.5C 248.618,57.9459 250.951,58.6126 253.5,58.5C 257.415,64.6542 263.082,68.6542 270.5,70.5 Z"/></g>
<g><path style="opacity:0.948" fill="#5d5347" d="M 252.5,80.5 C 248.858,83.9866 244.858,86.9866 240.5,89.5C 239.883,89.6107 239.383,89.944 239,90.5C 238.887,86.361 239.72,82.361 241.5,78.5C 241.167,78.1667 240.833,77.8333 240.5,77.5C 235.148,81.8567 229.814,86.19 224.5,90.5C 213.867,91.5962 203.2,91.7628 192.5,91C 191.769,84.8672 190.936,78.7005 190,72.5C 188.503,68.8351 186.503,65.5017 184,62.5C 183.616,60.8034 183.782,59.1368 184.5,57.5C 187.453,52.9909 191.786,50.8242 197.5,51C 206.833,50.3333 216.167,50.3333 225.5,51C 229.67,53.0828 233.004,56.0828 235.5,60C 239.833,60.3333 244.167,60.6667 248.5,61C 251.102,61.8834 253.269,63.3834 255,65.5C 256.13,70.9198 255.297,75.9198 252.5,80.5 Z"/></g>
<g><path style="opacity:0.89" fill="#1e1c17" d="M 208.5,442.5 C 206.321,443.103 204.154,443.77 202,444.5C 201.536,443.906 201.369,443.239 201.5,442.5C 202.345,436.449 203.512,430.449 205,424.5C 206.703,430.381 207.869,436.381 208.5,442.5 Z"/></g>
<g><path style="opacity:0.925" fill="#1d1a17" d="M 278.5,441.5 C 277.07,442.537 275.403,443.204 273.5,443.5C 273.334,436.825 273.5,430.158 274,423.5C 275.945,429.394 277.445,435.394 278.5,441.5 Z"/></g>
<g><path style="opacity:0.337" fill="#3f2b1f" d="M 97.5,431.5 C 104.277,434.591 109.943,439.257 114.5,445.5C 113.07,445.579 111.736,445.246 110.5,444.5C 109.194,441.934 107.361,440.934 105,441.5C 101.319,439.997 97.4858,438.997 93.5,438.5C 89.2462,439.197 85.0795,440.197 81,441.5C 79.5643,441.441 78.231,441.108 77,440.5C 69.4124,444.528 61.5791,445.195 53.5,442.5C 59.6616,440.933 65.9949,439.6 72.5,438.5C 75.6167,437.975 78.6167,437.641 81.5,437.5C 84.1667,436.5 86.8333,435.5 89.5,434.5C 92.9419,435.172 95.6086,434.172 97.5,431.5 Z"/></g>
<g><path style="opacity:0.266" fill="#412c20" d="M 157.5,430.5 C 162.419,432.293 167.086,434.626 171.5,437.5C 172.386,436.675 172.719,435.675 172.5,434.5C 173.022,436.219 174.022,437.552 175.5,438.5C 178.755,442.095 182.088,445.762 185.5,449.5C 176.774,447.221 168.941,443.221 162,437.5C 158.624,438.365 155.29,438.032 152,436.5C 151.167,437.333 150.333,438.167 149.5,439C 141.759,439.593 134.092,441.593 126.5,445C 123.183,445.498 119.85,445.665 116.5,445.5C 123.269,442.462 130.269,439.796 137.5,437.5C 137.917,438.124 138.584,438.457 139.5,438.5C 141.687,436.578 144.02,434.912 146.5,433.5C 150.355,432.954 154.022,431.954 157.5,430.5 Z"/></g>
<g><path style="opacity:0.285" fill="#422d20" d="M 363.5,433.5 C 366.792,435.636 370.458,436.969 374.5,437.5C 379.694,435.906 384.694,433.739 389.5,431C 393.008,431.24 396.341,431.073 399.5,430.5C 401.696,431.763 404.03,432.763 406.5,433.5C 409.786,434.207 413.119,434.54 416.5,434.5C 419.113,436.367 422.113,437.367 425.5,437.5C 425.5,436.5 425.5,435.5 425.5,434.5C 426.341,435.926 427.341,437.26 428.5,438.5C 423.662,438.697 418.996,439.03 414.5,439.5C 410.289,438.098 405.955,437.264 401.5,437C 400.953,436.075 400.287,435.242 399.5,434.5C 397.291,435.106 395.124,435.773 393,436.5C 392.667,435.833 392.333,435.167 392,434.5C 390.786,436.049 389.286,437.215 387.5,438C 381.355,437.975 375.522,438.809 370,440.5C 367.198,439.67 364.365,438.837 361.5,438C 359.549,435.818 357.382,433.984 355,432.5C 353.556,434.155 351.722,434.822 349.5,434.5C 349.5,433.5 349.5,432.5 349.5,431.5C 343.794,432.741 338.294,432.741 333,431.5C 328.279,433.58 323.446,435.414 318.5,437C 304.305,440.913 289.972,444.58 275.5,448C 272.167,448.667 268.833,448.667 265.5,448C 262.059,445.012 258.225,444.179 254,445.5C 250.534,443.329 246.701,441.829 242.5,441C 243.696,440.346 243.696,439.846 242.5,439.5C 237.908,439.591 233.408,439.591 229,439.5C 218.655,442.747 208.655,446.747 199,451.5C 195.895,450.633 192.728,450.299 189.5,450.5C 192.849,448.267 196.515,446.6 200.5,445.5C 200.263,444.209 200.596,443.209 201.5,442.5C 201.369,443.239 201.536,443.906 202,444.5C 204.154,443.77 206.321,443.103 208.5,442.5C 210.042,441.699 211.708,441.366 213.5,441.5C 213.263,440.209 213.596,439.209 214.5,438.5C 214.369,439.239 214.536,439.906 215,440.5C 215.278,439.584 215.778,438.918 216.5,438.5C 220.872,438.713 224.539,437.38 227.5,434.5C 229.167,434.5 230.833,434.5 232.5,434.5C 237.614,435.362 242.614,436.695 247.5,438.5C 253.555,441.276 259.888,443.609 266.5,445.5C 267.562,444.575 267.562,443.575 266.5,442.5C 268.143,442.48 269.476,443.147 270.5,444.5C 271.417,443.873 272.417,443.539 273.5,443.5C 275.403,443.204 277.07,442.537 278.5,441.5C 279.5,441.5 280.5,441.5 281.5,441.5C 281.5,440.5 281.5,439.5 281.5,438.5C 282.158,439.398 282.824,440.398 283.5,441.5C 285.323,440.253 287.323,439.586 289.5,439.5C 289.5,438.5 289.5,437.5 289.5,436.5C 290.399,437.472 291.566,438.138 293,438.5C 296.56,437.59 300.06,436.59 303.5,435.5C 305.764,434.781 308.097,434.448 310.5,434.5C 318.151,432.006 325.818,429.672 333.5,427.5C 336.817,426.779 340.151,426.612 343.5,427C 350.165,429.359 356.832,431.526 363.5,433.5 Z"/></g>
<g><path style="opacity:0.008" fill="#503d28" d="M 171.5,458.5 C 170.833,459.167 170.833,459.167 171.5,458.5 Z"/></g>
</svg>
