<?xml version="1.0" encoding="UTF-8"?>
<!DOCTYPE svg PUBLIC "-//W3C//DTD SVG 1.1//EN" "http://www.w3.org/Graphics/SVG/1.1/DTD/svg11.dtd">
<svg xmlns="http://www.w3.org/2000/svg" version="1.1" width="500px" height="500px" style="shape-rendering:geometricPrecision; text-rendering:geometricPrecision; image-rendering:optimizeQuality; fill-rule:evenodd; clip-rule:evenodd" xmlns:xlink="http://www.w3.org/1999/xlink">
<g><path style="opacity:0.008" fill="#928f8f" d="M 145.5,20.5 C 133.17,21.1687 120.837,22.3354 108.5,24C 108,24.5 107.5,25 107,25.5C 106.501,29.4862 106.334,33.4862 106.5,37.5C 106.539,72.2071 105.372,106.874 103,141.5C 102.617,142.056 102.117,142.389 101.5,142.5C 104.472,100.556 105.806,58.5559 105.5,16.5C 118.171,16.3334 130.838,16.5001 143.5,17C 144.305,18.1127 144.972,19.2794 145.5,20.5 Z"/></g>
<g><path style="opacity:0.008" fill="#928f8f" d="M 204.5,20.5 C 190.92,19.8803 177.587,20.547 164.5,22.5C 164.833,20.5 165.167,18.5 165.5,16.5C 178.5,16.5 191.5,16.5 204.5,16.5C 204.5,17.8333 204.5,19.1667 204.5,20.5 Z"/></g>
<g><path style="opacity:0.008" fill="#928f8f" d="M 385.5,20.5 C 372.5,20.5 359.5,20.5 346.5,20.5C 346.598,22.5529 345.931,24.2196 344.5,25.5C 345.167,22.5 345.833,19.5 346.5,16.5C 359.5,16.5 372.5,16.5 385.5,16.5C 385.5,17.8333 385.5,19.1667 385.5,20.5 Z"/></g>
<g><path style="opacity:0.008" fill="#8d8988" d="M 328.5,24.5 C 327.833,24.5 327.167,24.5 326.5,24.5C 326.5,23.8333 326.5,23.1667 326.5,22.5C 313.336,21.7537 300.003,21.7537 286.5,22.5C 286.5,25.1667 286.5,27.8333 286.5,30.5C 286.81,33.7131 286.477,36.7131 285.5,39.5C 285.354,31.8044 285.687,24.1377 286.5,16.5C 299.517,16.1675 312.517,16.5009 325.5,17.5C 326.702,19.7805 327.702,22.1138 328.5,24.5 Z"/></g>
<g><path style="opacity:0.01" fill="#86817e" d="M 145.5,20.5 C 147.361,22.8877 148.694,25.5544 149.5,28.5C 149.167,28.5 148.833,28.5 148.5,28.5C 147.249,26.6181 146.082,24.6181 145,22.5C 144.283,23.0442 143.783,23.7109 143.5,24.5C 131.88,27.1547 120.213,29.6547 108.5,32C 107.594,33.6995 107.261,35.5328 107.5,37.5C 107.167,37.5 106.833,37.5 106.5,37.5C 106.334,33.4862 106.501,29.4862 107,25.5C 107.5,25 108,24.5 108.5,24C 120.837,22.3354 133.17,21.1687 145.5,20.5 Z"/></g>
<g><path style="opacity:0.012" fill="#7f7874" d="M 385.5,20.5 C 385.5,21.1667 385.5,21.8333 385.5,22.5C 385.5,22.8333 385.5,23.1667 385.5,23.5C 384.596,24.209 384.263,25.209 384.5,26.5C 372.455,26.8494 360.455,27.5161 348.5,28.5C 346.453,27.0961 344.787,27.4294 343.5,29.5C 343.433,28.0413 343.766,26.7079 344.5,25.5C 345.931,24.2196 346.598,22.5529 346.5,20.5C 359.5,20.5 372.5,20.5 385.5,20.5 Z"/></g>
<g><path style="opacity:0.03" fill="#7b746f" d="M 143.5,24.5 C 143.5,25.5 143.5,26.5 143.5,27.5C 132.925,30.3102 122.258,32.8102 111.5,35C 110.016,35.6622 108.683,36.4955 107.5,37.5C 107.261,35.5328 107.594,33.6995 108.5,32C 120.213,29.6547 131.88,27.1547 143.5,24.5 Z"/></g>
<g><path style="opacity:0.018" fill="#79726d" d="M 326.5,22.5 C 325.053,23.6222 324.053,25.1222 323.5,27C 311.107,29.2402 298.774,30.4069 286.5,30.5C 286.5,27.8333 286.5,25.1667 286.5,22.5C 300.003,21.7537 313.336,21.7537 326.5,22.5 Z"/></g>
<g><path style="opacity:0.012" fill="#7c7470" d="M 204.5,20.5 C 205.768,22.9052 206.435,25.5718 206.5,28.5C 193.005,28.4964 179.338,28.1631 165.5,27.5C 165.768,25.901 165.434,24.5676 164.5,23.5C 164.5,23.1667 164.5,22.8333 164.5,22.5C 177.587,20.547 190.92,19.8803 204.5,20.5 Z"/></g>
<g><path style="opacity:0.024" fill="#726861" d="M 385.5,23.5 C 385.658,26.5455 384.991,29.3788 383.5,32C 371.654,32.8914 359.82,33.7247 348,34.5C 346.118,33.9067 345.118,32.5733 345,30.5C 344.617,31.056 344.117,31.3893 343.5,31.5C 343.5,30.8333 343.5,30.1667 343.5,29.5C 344.787,27.4294 346.453,27.0961 348.5,28.5C 360.455,27.5161 372.455,26.8494 384.5,26.5C 384.263,25.209 384.596,24.209 385.5,23.5 Z"/></g>
<g><path style="opacity:0.031" fill="#65574c" d="M 164.5,23.5 C 165.434,24.5676 165.768,25.901 165.5,27.5C 165.244,29.7925 165.577,31.9592 166.5,34C 179.204,34.3198 191.871,35.1531 204.5,36.5C 204.808,37.3081 205.308,37.9747 206,38.5C 206.497,36.1902 206.663,33.8568 206.5,31.5C 207.404,32.209 207.737,33.209 207.5,34.5C 207.5,37.8333 207.5,41.1667 207.5,44.5C 206.352,48.9811 206.185,53.6478 207,58.5C 208.136,61.0964 208.969,63.763 209.5,66.5C 207.197,64.022 205.031,61.3553 203,58.5C 202.768,54.1745 203.602,50.0078 205.5,46C 205.39,42.599 203.723,40.599 200.5,40C 195.845,39.5008 191.179,39.3342 186.5,39.5C 185.808,35.1104 184.808,34.7771 183.5,38.5C 178.708,38.3488 174.041,39.0155 169.5,40.5C 168.593,43.4083 168.927,46.2417 170.5,49C 168.634,53.2267 166.134,57.0601 163,60.5C 162.218,65.2992 162.718,69.9658 164.5,74.5C 163.926,77.3208 162.592,79.6541 160.5,81.5C 159.201,80.91 158.368,79.91 158,78.5C 157.637,71.9041 155.637,65.9041 152,60.5C 149.917,52.9192 148.25,45.2525 147,37.5C 145.417,35.0072 143.917,35.1738 142.5,38C 137.856,39.029 133.19,39.8623 128.5,40.5C 127.094,40.0269 126.427,39.0269 126.5,37.5C 132.512,35.828 138.512,34.4947 144.5,33.5C 144.351,32.448 144.517,31.448 145,30.5C 147.149,31.8398 148.316,31.1731 148.5,28.5C 148.833,28.5 149.167,28.5 149.5,28.5C 151.731,32.9624 153.398,37.629 154.5,42.5C 154.335,46.1817 154.501,49.8484 155,53.5C 156.011,54.3366 157.178,54.67 158.5,54.5C 158.337,56.8568 158.503,59.1902 159,61.5C 158.833,57.4421 160.166,54.1088 163,51.5C 164.363,43.5705 164.863,35.5705 164.5,27.5C 164.5,26.1667 164.5,24.8333 164.5,23.5 Z"/></g>
<g><path style="opacity:0.063" fill="#6d625a" d="M 165.5,27.5 C 179.338,28.1631 193.005,28.4964 206.5,28.5C 206.5,29.5 206.5,30.5 206.5,31.5C 206.663,33.8568 206.497,36.1902 206,38.5C 205.308,37.9747 204.808,37.3081 204.5,36.5C 191.871,35.1531 179.204,34.3198 166.5,34C 165.577,31.9592 165.244,29.7925 165.5,27.5 Z"/></g>
<g><path style="opacity:0.133" fill="#6a5e55" d="M 326.5,22.5 C 326.5,23.1667 326.5,23.8333 326.5,24.5C 325.799,27.5629 325.132,30.7296 324.5,34C 319.728,35.1235 314.895,35.9568 310,36.5C 308.624,36.6842 307.791,37.3509 307.5,38.5C 306.778,38.0825 306.278,37.4158 306,36.5C 305.601,36.7284 305.435,37.0618 305.5,37.5C 299.484,37.5925 293.484,37.9258 287.5,38.5C 287.142,41.6888 286.475,44.6888 285.5,47.5C 285.5,46.8333 285.5,46.1667 285.5,45.5C 285.5,43.5 285.5,41.5 285.5,39.5C 286.477,36.7131 286.81,33.7131 286.5,30.5C 298.774,30.4069 311.107,29.2402 323.5,27C 324.053,25.1222 325.053,23.6222 326.5,22.5 Z"/></g>
<g><path style="opacity:0.941" fill="#6c5c4c" d="M 367.5,38.5 C 367.205,40.7354 367.539,42.7354 368.5,44.5C 378.021,85.6868 380.688,127.353 376.5,169.5C 369.786,155.539 359.452,152.039 345.5,159C 341.956,162.375 338.623,165.875 335.5,169.5C 328.552,157.856 318.552,153.689 305.5,157C 299.275,161.99 294.941,168.157 292.5,175.5C 298.202,133.013 302.202,90.3464 304.5,47.5C 305.479,44.3752 305.813,41.0419 305.5,37.5C 305.435,37.0618 305.601,36.7284 306,36.5C 306.278,37.4158 306.778,38.0825 307.5,38.5C 307.932,39.7095 308.599,40.7095 309.5,41.5C 323.04,77.6611 331.873,114.994 336,153.5C 345.024,117.549 353.857,81.5493 362.5,45.5C 363.285,43.6264 363.952,41.6264 364.5,39.5C 365.302,38.0484 365.802,36.3817 366,34.5C 366.41,35.9007 366.91,37.234 367.5,38.5 Z"/></g>
<g><path style="opacity:0.94" fill="#6c5c4c" d="M 126.5,37.5 C 126.427,39.0269 127.094,40.0269 128.5,40.5C 128.402,42.5529 129.069,44.2196 130.5,45.5C 144.092,78.1137 154.592,111.78 162,146.5C 166.337,126.15 170.67,105.816 175,85.5C 176.9,74.17 178.733,62.8367 180.5,51.5C 182.118,47.4251 183.118,43.0918 183.5,38.5C 184.808,34.7771 185.808,35.1104 186.5,39.5C 186.263,40.791 186.596,41.791 187.5,42.5C 195.868,80.7095 200.534,119.376 201.5,158.5C 196.046,150.288 188.38,146.788 178.5,148C 172.116,151.214 166.783,155.714 162.5,161.5C 158.572,156.074 153.572,151.908 147.5,149C 139.577,145.901 132.743,147.401 127,153.5C 123.673,157.826 121.173,162.492 119.5,167.5C 119.947,160.144 120.614,152.811 121.5,145.5C 124.125,111.375 125.125,77.0418 124.5,42.5C 124.5,41.1667 124.5,39.8333 124.5,38.5C 124.34,33.921 125.007,33.5877 126.5,37.5 Z"/></g>
<g><path style="opacity:0.008" fill="#86807e" d="M 386.5,26.5 C 389.084,33.5127 390.751,40.846 391.5,48.5C 389.946,46.1079 388.613,43.4412 387.5,40.5C 386.507,35.8804 386.173,31.2137 386.5,26.5 Z"/></g>
<g><path style="opacity:0.08" fill="#5d4d40" d="M 326.5,24.5 C 327.167,24.5 327.833,24.5 328.5,24.5C 328.5,25.1667 328.5,25.8333 328.5,26.5C 328.334,32.1764 328.501,37.8431 329,43.5C 331.403,47.8764 332.903,52.5431 333.5,57.5C 337.008,61.3836 338.342,66.0502 337.5,71.5C 337.34,73.1992 337.506,74.8659 338,76.5C 338.667,75.8333 339.333,75.1667 340,74.5C 339.693,68.0513 341.027,62.0513 344,56.5C 344.333,50.5 344.667,44.5 345,38.5C 348.249,37.8528 351.582,37.5195 355,37.5C 358.576,37.5152 361.742,38.1818 364.5,39.5C 363.952,41.6264 363.285,43.6264 362.5,45.5C 362.5,44.5 362.5,43.5 362.5,42.5C 353.465,41.8447 350.798,45.5114 354.5,53.5C 353.399,57.7741 351.232,61.4408 348,64.5C 348.245,68.8134 348.245,73.1468 348,77.5C 346.333,80.5 344,82.8333 341,84.5C 340.691,85.7659 340.191,86.9326 339.5,88C 340.962,91.094 342.296,94.2606 343.5,97.5C 341.955,101.217 339.788,104.55 337,107.5C 335.203,106.073 334.036,104.24 333.5,102C 335.196,97.6032 336.029,93.1032 336,88.5C 329.561,83.2444 327.561,76.5777 330,68.5C 328.71,66.208 327.043,64.208 325,62.5C 325.002,54.9881 322.502,48.4881 317.5,43C 314.986,41.7475 312.32,41.2475 309.5,41.5C 308.599,40.7095 307.932,39.7095 307.5,38.5C 307.791,37.3509 308.624,36.6842 310,36.5C 314.895,35.9568 319.728,35.1235 324.5,34C 325.132,30.7296 325.799,27.5629 326.5,24.5 Z"/></g>
<g><path style="opacity:0.095" fill="#5c4c3d" d="M 183.5,38.5 C 183.118,43.0918 182.118,47.4251 180.5,51.5C 177.946,55.5641 174.779,59.2308 171,62.5C 172.058,68.0556 172.392,73.7223 172,79.5C 169.792,83.2771 167.125,86.6104 164,89.5C 163.333,91.8333 163.333,94.1667 164,96.5C 167.668,103.496 166.668,109.83 161,115.5C 158.001,112.676 157.168,109.343 158.5,105.5C 158.043,101.953 156.543,98.9532 154,96.5C 153.667,92.5 153.333,88.5 153,84.5C 149.263,81.4082 147.597,77.4082 148,72.5C 146.601,69.3707 144.935,66.3707 143,63.5C 142.804,56.9091 140.637,51.0758 136.5,46C 134.527,45.5045 132.527,45.3379 130.5,45.5C 129.069,44.2196 128.402,42.5529 128.5,40.5C 133.19,39.8623 137.856,39.029 142.5,38C 143.917,35.1738 145.417,35.0072 147,37.5C 148.25,45.2525 149.917,52.9192 152,60.5C 155.637,65.9041 157.637,71.9041 158,78.5C 158.368,79.91 159.201,80.91 160.5,81.5C 162.592,79.6541 163.926,77.3208 164.5,74.5C 162.718,69.9658 162.218,65.2992 163,60.5C 166.134,57.0601 168.634,53.2267 170.5,49C 168.927,46.2417 168.593,43.4083 169.5,40.5C 174.041,39.0155 178.708,38.3488 183.5,38.5 Z"/></g>
<g><path style="opacity:0.359" fill="#584636" d="M 309.5,41.5 C 312.32,41.2475 314.986,41.7475 317.5,43C 322.502,48.4881 325.002,54.9881 325,62.5C 327.043,64.208 328.71,66.208 330,68.5C 327.561,76.5777 329.561,83.2444 336,88.5C 336.029,93.1032 335.196,97.6032 333.5,102C 334.036,104.24 335.203,106.073 337,107.5C 339.788,104.55 341.955,101.217 343.5,97.5C 342.296,94.2606 340.962,91.094 339.5,88C 340.191,86.9326 340.691,85.7659 341,84.5C 344,82.8333 346.333,80.5 348,77.5C 348.245,73.1468 348.245,68.8134 348,64.5C 351.232,61.4408 353.399,57.7741 354.5,53.5C 350.798,45.5114 353.465,41.8447 362.5,42.5C 362.5,43.5 362.5,44.5 362.5,45.5C 353.857,81.5493 345.024,117.549 336,153.5C 331.873,114.994 323.04,77.6611 309.5,41.5 Z"/></g>
<g><path style="opacity:0.008" fill="#87827f" d="M 343.5,32.5 C 343.5,35.1667 343.5,37.8333 343.5,40.5C 342.686,42.631 342.186,44.9644 342,47.5C 341.241,49.0629 340.074,50.0629 338.5,50.5C 339.565,44.2309 341.231,38.2309 343.5,32.5 Z"/></g>
<g><path style="opacity:0.47" fill="#574535" d="M 130.5,45.5 C 132.527,45.3379 134.527,45.5045 136.5,46C 140.637,51.0758 142.804,56.9091 143,63.5C 144.935,66.3707 146.601,69.3707 148,72.5C 147.597,77.4082 149.263,81.4082 153,84.5C 153.333,88.5 153.667,92.5 154,96.5C 156.543,98.9532 158.043,101.953 158.5,105.5C 157.168,109.343 158.001,112.676 161,115.5C 166.668,109.83 167.668,103.496 164,96.5C 163.333,94.1667 163.333,91.8333 164,89.5C 167.125,86.6104 169.792,83.2771 172,79.5C 172.392,73.7223 172.058,68.0556 171,62.5C 174.779,59.2308 177.946,55.5641 180.5,51.5C 178.733,62.8367 176.9,74.17 175,85.5C 170.67,105.816 166.337,126.15 162,146.5C 154.592,111.78 144.092,78.1137 130.5,45.5 Z"/></g>
<g><path style="opacity:0.008" fill="#7d7570" d="M 164.5,27.5 C 164.863,35.5705 164.363,43.5705 163,51.5C 160.166,54.1088 158.833,57.4421 159,61.5C 158.503,59.1902 158.337,56.8568 158.5,54.5C 157.178,54.67 156.011,54.3366 155,53.5C 154.501,49.8484 154.335,46.1817 154.5,42.5C 156.225,45.6245 157.725,48.9579 159,52.5C 160.025,43.8653 161.858,35.532 164.5,27.5 Z"/></g>
<g><path style="opacity:0.008" fill="#87817f" d="M 207.5,34.5 C 209.926,41.8858 211.593,49.5524 212.5,57.5C 211.883,57.6107 211.383,57.944 211,58.5C 210.761,53.544 209.594,48.8773 207.5,44.5C 207.5,41.1667 207.5,37.8333 207.5,34.5 Z"/></g>
<g><path style="opacity:0.184" fill="#594838" d="M 304.5,47.5 C 302.202,90.3464 298.202,133.013 292.5,175.5C 290.498,185.718 289.998,196.051 291,206.5C 292.287,210.37 293.953,214.036 296,217.5C 300.182,221.803 304.682,225.47 309.5,228.5C 304.209,231.957 299.709,236.29 296,241.5C 291.322,247.53 287.155,253.863 283.5,260.5C 290.861,267.863 298.528,274.863 306.5,281.5C 306.642,289.208 306.142,296.875 305,304.5C 300.747,323.261 296.08,341.928 291,360.5C 290.502,363.817 290.335,367.15 290.5,370.5C 289.604,389.042 291.104,407.376 295,425.5C 298.49,439.488 305.323,451.488 315.5,461.5C 311.722,463.964 307.722,464.13 303.5,462C 295.915,453.262 291.415,443.095 290,431.5C 288.374,428.872 286.374,426.539 284,424.5C 285.494,417.976 286.161,411.309 286,404.5C 284.738,398.647 282.404,393.314 279,388.5C 277.038,379.607 278.705,371.607 284,364.5C 284.551,359.303 283.717,354.303 281.5,349.5C 284.493,345.664 287.327,341.664 290,337.5C 290.469,334.056 289.969,330.722 288.5,327.5C 291.234,323.199 293.567,318.699 295.5,314C 293.295,310.097 292.462,305.93 293,301.5C 302.973,291.275 301.473,283.441 288.5,278C 280.269,268.516 277.769,257.682 281,245.5C 285.535,239.968 290.369,234.801 295.5,230C 291.964,226.128 288.797,221.962 286,217.5C 285.858,204.131 285.191,190.798 284,177.5C 282.629,173.927 281.129,170.427 279.5,167C 281.583,163.243 284.083,159.743 287,156.5C 292.905,147.299 293.905,137.632 290,127.5C 286.555,125.081 284.388,121.914 283.5,118C 283.542,116.033 284.042,114.199 285,112.5C 295.878,99.4725 300.212,84.4725 298,67.5C 295.333,63.5 292,60.1667 288,57.5C 286.807,52.8481 287.64,48.6814 290.5,45C 295.054,43.9034 299.554,42.7367 304,41.5C 304.495,43.4727 304.662,45.4727 304.5,47.5 Z"/></g>
<g><path style="opacity:0.008" fill="#6e635a" d="M 328.5,26.5 C 332.135,34.3692 335.468,42.3692 338.5,50.5C 340.074,50.0629 341.241,49.0629 342,47.5C 342.186,44.9644 342.686,42.631 343.5,40.5C 344.424,47.6508 343.257,54.3174 340,60.5C 339.667,63.8333 339.333,67.1667 339,70.5C 338.617,71.056 338.117,71.3893 337.5,71.5C 338.342,66.0502 337.008,61.3836 333.5,57.5C 332.903,52.5431 331.403,47.8764 329,43.5C 328.501,37.8431 328.334,32.1764 328.5,26.5 Z"/></g>
<g><path style="opacity:0.008" fill="#918e8d" d="M 285.5,45.5 C 285.5,46.1667 285.5,46.8333 285.5,47.5C 285.5,51.1667 285.5,54.8333 285.5,58.5C 284.875,73.4359 283.208,88.1026 280.5,102.5C 281.519,83.2981 283.185,64.2981 285.5,45.5 Z"/></g>
<g><path style="opacity:0.09" fill="#5c4d3f" d="M 305.5,37.5 C 305.813,41.0419 305.479,44.3752 304.5,47.5C 304.662,45.4727 304.495,43.4727 304,41.5C 299.554,42.7367 295.054,43.9034 290.5,45C 287.64,48.6814 286.807,52.8481 288,57.5C 292,60.1667 295.333,63.5 298,67.5C 300.212,84.4725 295.878,99.4725 285,112.5C 284.042,114.199 283.542,116.033 283.5,118C 284.388,121.914 286.555,125.081 290,127.5C 293.905,137.632 292.905,147.299 287,156.5C 284.083,159.743 281.583,163.243 279.5,167C 281.129,170.427 282.629,173.927 284,177.5C 285.191,190.798 285.858,204.131 286,217.5C 288.797,221.962 291.964,226.128 295.5,230C 290.369,234.801 285.535,239.968 281,245.5C 277.769,257.682 280.269,268.516 288.5,278C 301.473,283.441 302.973,291.275 293,301.5C 292.462,305.93 293.295,310.097 295.5,314C 293.567,318.699 291.234,323.199 288.5,327.5C 289.969,330.722 290.469,334.056 290,337.5C 287.327,341.664 284.493,345.664 281.5,349.5C 283.717,354.303 284.551,359.303 284,364.5C 278.705,371.607 277.038,379.607 279,388.5C 282.404,393.314 284.738,398.647 286,404.5C 286.161,411.309 285.494,417.976 284,424.5C 286.374,426.539 288.374,428.872 290,431.5C 291.415,443.095 295.915,453.262 303.5,462C 307.722,464.13 311.722,463.964 315.5,461.5C 316.167,461.833 316.833,462.167 317.5,462.5C 316.152,464.48 314.152,465.647 311.5,466C 308.5,466.667 305.5,466.667 302.5,466C 296.172,460.366 291.839,453.366 289.5,445C 288.851,441.125 288.018,437.291 287,433.5C 284.667,430.5 282.333,427.5 280,424.5C 279.755,420.557 280.755,416.89 283,413.5C 284.228,404.746 281.895,397.079 276,390.5C 275.333,384.167 275.333,377.833 276,371.5C 278.611,368.28 280.111,364.613 280.5,360.5C 279.027,355.924 278.527,351.257 279,346.5C 281.723,343.443 284.056,340.11 286,336.5C 285.46,332.533 285.126,328.533 285,324.5C 286.421,321.991 288.088,319.657 290,317.5C 289.927,311.838 289.927,306.171 290,300.5C 292.754,297.492 294.587,293.992 295.5,290C 295.507,288.188 294.84,286.688 293.5,285.5C 284.53,281.349 279.03,274.349 277,264.5C 276.333,257.5 276.333,250.5 277,243.5C 280.868,238.635 285.035,234.135 289.5,230C 287.608,226.397 285.108,223.23 282,220.5C 281.734,209.824 281.734,199.158 282,188.5C 281.369,181.475 279.869,174.642 277.5,168C 278.973,161.22 282.139,155.386 287,150.5C 291.373,140.238 290.039,130.905 283,122.5C 282.503,119.854 282.336,117.187 282.5,114.5C 282.506,109.785 283.006,105.118 284,100.5C 288.089,89.1916 289.422,77.525 288,65.5C 287.098,63.0731 286.264,60.7397 285.5,58.5C 285.5,54.8333 285.5,51.1667 285.5,47.5C 286.475,44.6888 287.142,41.6888 287.5,38.5C 293.484,37.9258 299.484,37.5925 305.5,37.5 Z"/></g>
<g><path style="opacity:0.009" fill="#6b5f56" d="M 285.5,58.5 C 286.264,60.7397 287.098,63.0731 288,65.5C 289.422,77.525 288.089,89.1916 284,100.5C 283.006,105.118 282.506,109.785 282.5,114.5C 281.67,123.324 281.17,132.324 281,141.5C 280.667,143.5 280.333,145.5 280,147.5C 279.617,148.056 279.117,148.389 278.5,148.5C 279.481,135.187 280.148,121.854 280.5,108.5C 280.5,106.5 280.5,104.5 280.5,102.5C 283.208,88.1026 284.875,73.4359 285.5,58.5 Z"/></g>
<g><path style="opacity:0.013" fill="#70665e" d="M 148.5,28.5 C 148.316,31.1731 147.149,31.8398 145,30.5C 144.517,31.448 144.351,32.448 144.5,33.5C 138.512,34.4947 132.512,35.828 126.5,37.5C 125.007,33.5877 124.34,33.921 124.5,38.5C 119.221,39.7789 114.055,41.4455 109,43.5C 108.333,48.5 108.333,53.5 109,58.5C 112.234,65.1841 113.568,72.1841 113,79.5C 111.316,81.3513 109.483,83.018 107.5,84.5C 106.3,105.159 105.3,125.825 104.5,146.5C 103.542,148.302 102.875,150.302 102.5,152.5C 100.696,166.294 99.6961,180.294 99.5,194.5C 98.8495,181.672 98.8495,168.672 99.5,155.5C 100.059,151.147 100.725,146.814 101.5,142.5C 102.117,142.389 102.617,142.056 103,141.5C 105.372,106.874 106.539,72.2071 106.5,37.5C 106.833,37.5 107.167,37.5 107.5,37.5C 108.683,36.4955 110.016,35.6622 111.5,35C 122.258,32.8102 132.925,30.3102 143.5,27.5C 143.5,26.5 143.5,25.5 143.5,24.5C 143.783,23.7109 144.283,23.0442 145,22.5C 146.082,24.6181 147.249,26.6181 148.5,28.5 Z"/></g>
<g><path style="opacity:0.008" fill="#8e8a88" d="M 391.5,52.5 C 394.761,66.1758 396.428,80.1758 396.5,94.5C 394.794,88.7536 393.627,82.7536 393,76.5C 392.433,68.4995 391.933,60.4995 391.5,52.5 Z"/></g>
<g><path style="opacity:0.008" fill="#807975" d="M 212.5,60.5 C 215.924,73.1456 217.59,86.1456 217.5,99.5C 216.207,98.158 215.374,96.4913 215,94.5C 212.918,83.2824 212.084,71.9491 212.5,60.5 Z"/></g>
<g><path style="opacity:0.033" fill="#63554a" d="M 124.5,38.5 C 124.5,39.8333 124.5,41.1667 124.5,42.5C 118.78,42.8203 114.78,45.487 112.5,50.5C 115.654,58.9587 117.987,67.6253 119.5,76.5C 118.903,81.2742 116.237,84.4409 111.5,86C 109.552,87.439 108.219,89.2723 107.5,91.5C 111.007,96.5095 114.007,101.843 116.5,107.5C 114.96,111.213 112.793,114.547 110,117.5C 110.179,121.233 111.012,124.9 112.5,128.5C 109.622,134.489 106.956,140.489 104.5,146.5C 105.3,125.825 106.3,105.159 107.5,84.5C 109.483,83.018 111.316,81.3513 113,79.5C 113.568,72.1841 112.234,65.1841 109,58.5C 108.333,53.5 108.333,48.5 109,43.5C 114.055,41.4455 119.221,39.7789 124.5,38.5 Z"/></g>
<g><path style="opacity:0.008" fill="#918e8e" d="M 217.5,99.5 C 219.135,113.641 220.301,127.974 221,142.5C 221.791,143.745 222.291,145.078 222.5,146.5C 220.908,145.398 220.075,146.065 220,148.5C 218.576,132.195 217.742,115.861 217.5,99.5 Z"/></g>
<g><path style="opacity:0.015" fill="#615346" d="M 216.5,115.5 C 216.95,122.648 216.284,129.648 214.5,136.5C 215.448,139.934 216.615,143.267 218,146.5C 218.333,149.5 218.667,152.5 219,155.5C 219.741,156.641 220.575,156.641 221.5,155.5C 222.259,177.189 221.925,198.856 220.5,220.5C 216.5,220.833 216.5,221.167 220.5,221.5C 220.905,226.241 222.738,230.241 226,233.5C 227.69,237.54 229.357,241.54 231,245.5C 231.705,241.335 232.539,237.335 233.5,233.5C 233.5,245.833 233.5,258.167 233.5,270.5C 232.239,267.742 231.406,264.742 231,261.5C 229.414,263.67 228.08,266.004 227,268.5C 219.207,270.664 214.374,275.331 212.5,282.5C 211.609,283.59 210.609,283.59 209.5,282.5C 209.167,283.5 208.833,284.5 208.5,285.5C 209.804,288.948 210.804,292.448 211.5,296C 208.994,303.524 210.494,310.024 216,315.5C 216.333,319.167 216.667,322.833 217,326.5C 217.274,329.715 218.607,332.381 221,334.5C 220.844,351.801 221.344,369.134 222.5,386.5C 222.069,391.71 220.735,396.71 218.5,401.5C 220.956,406.526 221.956,411.86 221.5,417.5C 222.122,423.301 220.955,428.634 218,433.5C 217.501,438.489 217.334,443.489 217.5,448.5C 217.5,450.167 217.5,451.833 217.5,453.5C 217.5,454.167 217.5,454.833 217.5,455.5C 215.938,453.628 214.938,451.295 214.5,448.5C 213.522,448.977 212.689,449.643 212,450.5C 211.055,454.114 210.388,457.781 210,461.5C 209.333,460.833 208.667,460.167 208,459.5C 204.049,462.114 200.383,465.114 197,468.5C 190.789,467.927 184.956,466.26 179.5,463.5C 180.167,462.167 181.167,461.167 182.5,460.5C 182.918,461.222 183.584,461.722 184.5,462C 192.422,462.145 199.255,459.312 205,453.5C 207.27,448.902 209.937,444.569 213,440.5C 212.679,434.816 214.345,429.816 218,425.5C 219.434,421.594 219.767,417.594 219,413.5C 216.205,409.745 214.372,405.578 213.5,401C 216.338,395.641 218.672,389.975 220.5,384C 217.537,373.886 215.87,363.553 215.5,353C 216.252,348.494 217.586,344.16 219.5,340C 218.545,336.587 216.711,333.754 214,331.5C 213.667,326.833 213.333,322.167 213,317.5C 210.667,314.833 208.333,312.167 206,309.5C 205.333,307.5 205.333,305.5 206,303.5C 208.133,301.067 209.3,298.233 209.5,295C 208.571,290.886 206.905,287.052 204.5,283.5C 210.467,275.368 217.633,268.368 226,262.5C 229.109,258.315 230.109,253.648 229,248.5C 225.119,241.405 221.785,234.071 219,226.5C 216.417,224.302 213.584,222.469 210.5,221C 213.333,218.833 216.167,216.667 219,214.5C 219.276,205.473 218.776,196.473 217.5,187.5C 218.276,181.178 218.943,174.845 219.5,168.5C 218.358,161.894 217.525,155.227 217,148.5C 214.613,145.623 211.946,142.956 209,140.5C 208.362,139.391 207.862,138.225 207.5,137C 208.805,134.224 209.971,131.39 211,128.5C 210.095,124.179 211.095,120.179 214,116.5C 214.671,115.748 215.504,115.414 216.5,115.5 Z"/></g>
<g><path style="opacity:0.008" fill="#8a8583" d="M 280.5,108.5 C 280.148,121.854 279.481,135.187 278.5,148.5C 277.855,150.826 276.522,152.493 274.5,153.5C 276.265,138.377 278.265,123.377 280.5,108.5 Z"/></g>
<g><path style="opacity:0.077" fill="#5c4d3f" d="M 186.5,39.5 C 191.179,39.3342 195.845,39.5008 200.5,40C 203.723,40.599 205.39,42.599 205.5,46C 203.602,50.0078 202.768,54.1745 203,58.5C 205.031,61.3553 207.197,64.022 209.5,66.5C 210.222,66.9175 210.722,67.5842 211,68.5C 210.644,79.4301 211.978,90.0968 215,100.5C 216.05,105.448 216.55,110.448 216.5,115.5C 215.504,115.414 214.671,115.748 214,116.5C 211.095,120.179 210.095,124.179 211,128.5C 209.971,131.39 208.805,134.224 207.5,137C 207.862,138.225 208.362,139.391 209,140.5C 211.946,142.956 214.613,145.623 217,148.5C 217.525,155.227 218.358,161.894 219.5,168.5C 218.943,174.845 218.276,181.178 217.5,187.5C 218.776,196.473 219.276,205.473 219,214.5C 216.167,216.667 213.333,218.833 210.5,221C 213.584,222.469 216.417,224.302 219,226.5C 221.785,234.071 225.119,241.405 229,248.5C 230.109,253.648 229.109,258.315 226,262.5C 217.633,268.368 210.467,275.368 204.5,283.5C 206.905,287.052 208.571,290.886 209.5,295C 209.3,298.233 208.133,301.067 206,303.5C 205.333,305.5 205.333,307.5 206,309.5C 208.333,312.167 210.667,314.833 213,317.5C 213.333,322.167 213.667,326.833 214,331.5C 216.711,333.754 218.545,336.587 219.5,340C 217.586,344.16 216.252,348.494 215.5,353C 215.87,363.553 217.537,373.886 220.5,384C 218.672,389.975 216.338,395.641 213.5,401C 214.372,405.578 216.205,409.745 219,413.5C 219.767,417.594 219.434,421.594 218,425.5C 214.345,429.816 212.679,434.816 213,440.5C 209.937,444.569 207.27,448.902 205,453.5C 199.255,459.312 192.422,462.145 184.5,462C 183.584,461.722 182.918,461.222 182.5,460.5C 182.833,459.5 183.5,458.833 184.5,458.5C 190.742,459.328 196.242,457.328 201,452.5C 202.841,448.817 205.174,445.484 208,442.5C 209.827,438.719 210.827,434.719 211,430.5C 217.883,423.109 218.216,415.442 212,407.5C 211.131,405.419 210.631,403.253 210.5,401C 213.092,395.141 215.425,389.141 217.5,383C 213.274,371.588 211.774,359.755 213,347.5C 213.837,345.162 214.67,342.828 215.5,340.5C 212.773,336.763 210.44,332.763 208.5,328.5C 210.222,324.799 210.389,321.132 209,317.5C 203.431,314.362 201.097,309.695 202,303.5C 203.914,301.252 205.414,298.752 206.5,296C 204.72,293.216 202.553,290.716 200,288.5C 197.439,285.146 197.272,281.813 199.5,278.5C 201.422,277.289 203.255,275.956 205,274.5C 208.251,269.245 212.251,264.578 217,260.5C 219.046,257.865 220.213,254.865 220.5,251.5C 218.948,243.679 216.115,236.346 212,229.5C 209.592,227.044 206.759,225.211 203.5,224C 202.426,223.261 201.759,222.261 201.5,221C 204.321,216.846 207.821,213.346 212,210.5C 212.875,209.127 213.375,207.627 213.5,206C 211.126,193.375 211.126,180.708 213.5,168C 213.25,164.584 212.584,161.251 211.5,158C 212.386,155.192 212.553,152.359 212,149.5C 209.333,146.833 206.667,144.167 204,141.5C 203.387,136.569 203.887,131.736 205.5,127C 204.365,120.438 206.865,115.605 213,112.5C 214.014,106.857 212.014,102.523 207,99.5C 204.179,95.028 202.346,90.1947 201.5,85C 202.49,80.5263 204.157,76.3597 206.5,72.5C 206.281,71.062 205.781,69.7287 205,68.5C 201.962,65.7974 199.295,62.7974 197,59.5C 196.029,55.1347 196.862,51.1347 199.5,47.5C 198.636,45.8035 197.303,44.6368 195.5,44C 192.793,43.6049 190.127,43.1049 187.5,42.5C 186.596,41.791 186.263,40.791 186.5,39.5 Z"/></g>
<g><path style="opacity:0.941" fill="#a49781" d="M 201.5,158.5 C 207.223,171.562 209.057,185.229 207,199.5C 204.339,208.868 198.506,215.201 189.5,218.5C 188.702,218.957 188.369,219.624 188.5,220.5C 187.85,220.196 187.183,219.863 186.5,219.5C 181.997,221.267 177.331,222.267 172.5,222.5C 163.148,222.566 153.815,222.232 144.5,221.5C 141.833,221.167 139.167,220.833 136.5,220.5C 127.514,216.672 121.347,210.006 118,200.5C 116.956,189.372 117.456,178.372 119.5,167.5C 121.173,162.492 123.673,157.826 127,153.5C 132.743,147.401 139.577,145.901 147.5,149C 153.572,151.908 158.572,156.074 162.5,161.5C 166.783,155.714 172.116,151.214 178.5,148C 188.38,146.788 196.046,150.288 201.5,158.5 Z"/></g>
<g><path style="opacity:0.941" fill="#a49781" d="M 376.5,169.5 C 380.397,182.177 381.564,195.177 380,208.5C 378.254,212.327 376.254,215.993 374,219.5C 370.023,222.565 365.856,225.232 361.5,227.5C 344.813,231.422 328.147,231.422 311.5,227.5C 310.817,227.863 310.15,228.196 309.5,228.5C 304.682,225.47 300.182,221.803 296,217.5C 293.953,214.036 292.287,210.37 291,206.5C 289.998,196.051 290.498,185.718 292.5,175.5C 294.941,168.157 299.275,161.99 305.5,157C 318.552,153.689 328.552,157.856 335.5,169.5C 338.623,165.875 341.956,162.375 345.5,159C 359.452,152.039 369.786,155.539 376.5,169.5 Z"/></g>
<g><path style="opacity:0.079" fill="#5c4d3f" d="M 367.5,38.5 C 371.954,38.4219 376.287,39.0886 380.5,40.5C 382.147,47.3295 384.981,53.6628 389,59.5C 389.698,65.5236 389.532,71.5236 388.5,77.5C 390.974,85.4203 393.14,93.4203 395,101.5C 395.667,120.833 395.667,140.167 395,159.5C 393.102,166.735 391.602,174.069 390.5,181.5C 390.667,182.833 390.833,184.167 391,185.5C 393.466,188.128 395.299,191.128 396.5,194.5C 395.639,197.527 394.139,200.194 392,202.5C 392.013,207.872 392.347,213.206 393,218.5C 391.641,222.52 389.475,226.02 386.5,229C 387.978,230.478 389.478,231.978 391,233.5C 395,241.5 399,249.5 403,257.5C 403.667,260.833 403.667,264.167 403,267.5C 401.167,270.667 399.333,273.833 397.5,277C 393.54,278.968 390.207,281.635 387.5,285C 384.531,285.409 381.531,286.076 378.5,287C 377.167,287.667 376.167,288.667 375.5,290C 378.03,294.013 380.696,297.846 383.5,301.5C 383.938,303.126 384.272,304.793 384.5,306.5C 383.511,309.818 382.511,313.152 381.5,316.5C 383.774,319.95 386.274,323.283 389,326.5C 389.333,330.833 389.667,335.167 390,339.5C 391.658,342.309 392.825,345.309 393.5,348.5C 392.209,351.708 391.542,355.041 391.5,358.5C 392.481,366.152 392.647,373.819 392,381.5C 388.372,387.764 385.539,394.431 383.5,401.5C 384.405,404.618 385.071,407.785 385.5,411C 384.739,415.518 383.406,419.852 381.5,424C 383.193,428.378 383.693,432.878 383,437.5C 378.395,447.765 371.895,456.598 363.5,464C 360.5,464.667 357.5,464.667 354.5,464C 351.975,463.576 349.975,462.41 348.5,460.5C 349.167,459.167 350.167,458.167 351.5,457.5C 352.374,458.525 353.541,459.192 355,459.5C 357.79,458.906 360.29,457.739 362.5,456C 368.693,449.115 374.026,441.615 378.5,433.5C 376.991,430.141 375.991,426.641 375.5,423C 376.534,418.925 377.867,414.925 379.5,411C 376.716,404.419 376.883,397.919 380,391.5C 386.041,381.589 387.874,370.922 385.5,359.5C 385.455,355.7 386.122,352.033 387.5,348.5C 385.576,344.983 383.909,341.316 382.5,337.5C 383.969,334.278 384.469,330.944 384,327.5C 379.657,325.164 376.824,321.664 375.5,317C 376.629,313.077 378.295,309.41 380.5,306C 377.711,302.536 374.877,299.036 372,295.5C 369.09,291.851 368.924,288.185 371.5,284.5C 381.914,281.584 389.414,275.251 394,265.5C 394.667,262.167 394.667,258.833 394,255.5C 390.121,245.558 384.621,236.725 377.5,229C 379.933,224.896 382.767,221.063 386,217.5C 386.082,212.495 386.082,207.495 386,202.5C 387.444,199.945 388.611,197.279 389.5,194.5C 387.01,190.514 385.343,186.181 384.5,181.5C 385.806,176.244 386.64,170.911 387,165.5C 389.333,162.167 391.667,158.833 394,155.5C 394.667,139.5 394.667,123.5 394,107.5C 390.032,100.854 386.032,94.1869 382,87.5C 377.932,79.1735 379.265,71.8401 386,65.5C 386.667,64.1667 386.667,62.8333 386,61.5C 383.613,58.6226 380.946,55.9559 378,53.5C 376.204,50.073 374.037,46.9063 371.5,44C 370.251,43.2599 369.251,43.4265 368.5,44.5C 367.539,42.7354 367.205,40.7354 367.5,38.5 Z"/></g>
<g><path style="opacity:0.008" fill="#908f8e" d="M 223.5,151.5 C 224.887,153.877 225.721,156.543 226,159.5C 226.667,177.833 226.667,196.167 226,214.5C 225.802,216.382 225.302,218.048 224.5,219.5C 226.12,196.784 225.787,174.117 223.5,151.5 Z"/></g>
<g><path style="opacity:0.008" fill="#939393" d="M 273.5,161.5 C 272.547,181.806 272.214,202.14 272.5,222.5C 271.338,203.338 271.171,184.004 272,164.5C 272.232,163.263 272.732,162.263 273.5,161.5 Z"/></g>
<g><path style="opacity:0.01" fill="#66594e" d="M 385.5,22.5 C 386.434,23.5676 386.768,24.901 386.5,26.5C 386.173,31.2137 386.507,35.8804 387.5,40.5C 388.613,43.4412 389.946,46.1079 391.5,48.5C 391.5,49.8333 391.5,51.1667 391.5,52.5C 391.933,60.4995 392.433,68.4995 393,76.5C 393.627,82.7536 394.794,88.7536 396.5,94.5C 396.5,115.5 396.5,136.5 396.5,157.5C 397.324,168.857 398.324,180.191 399.5,191.5C 398.916,203.509 398.249,215.509 397.5,227.5C 400.078,231.646 402.911,235.646 406,239.5C 406.667,253.167 406.667,266.833 406,280.5C 401.412,284.866 396.579,288.866 391.5,292.5C 389.833,292.5 388.167,292.5 386.5,292.5C 386.335,295.85 386.502,299.183 387,302.5C 388.076,305.36 388.909,308.36 389.5,311.5C 390.183,311.863 390.85,312.196 391.5,312.5C 391.5,312.833 391.5,313.167 391.5,313.5C 390.829,316.758 389.996,320.091 389,323.5C 384.415,318.431 383.248,312.597 385.5,306C 385.431,304.014 384.765,302.514 383.5,301.5C 380.696,297.846 378.03,294.013 375.5,290C 376.167,288.667 377.167,287.667 378.5,287C 381.531,286.076 384.531,285.409 387.5,285C 390.207,281.635 393.54,278.968 397.5,277C 399.333,273.833 401.167,270.667 403,267.5C 403.667,264.167 403.667,260.833 403,257.5C 399,249.5 395,241.5 391,233.5C 389.478,231.978 387.978,230.478 386.5,229C 389.475,226.02 391.641,222.52 393,218.5C 392.347,213.206 392.013,207.872 392,202.5C 394.139,200.194 395.639,197.527 396.5,194.5C 395.299,191.128 393.466,188.128 391,185.5C 390.833,184.167 390.667,182.833 390.5,181.5C 391.602,174.069 393.102,166.735 395,159.5C 395.667,140.167 395.667,120.833 395,101.5C 393.14,93.4203 390.974,85.4203 388.5,77.5C 389.532,71.5236 389.698,65.5236 389,59.5C 384.981,53.6628 382.147,47.3295 380.5,40.5C 376.287,39.0886 371.954,38.4219 367.5,38.5C 366.91,37.234 366.41,35.9007 366,34.5C 365.802,36.3817 365.302,38.0484 364.5,39.5C 361.742,38.1818 358.576,37.5152 355,37.5C 351.582,37.5195 348.249,37.8528 345,38.5C 344.667,44.5 344.333,50.5 344,56.5C 341.027,62.0513 339.693,68.0513 340,74.5C 339.333,75.1667 338.667,75.8333 338,76.5C 337.506,74.8659 337.34,73.1992 337.5,71.5C 338.117,71.3893 338.617,71.056 339,70.5C 339.333,67.1667 339.667,63.8333 340,60.5C 343.257,54.3174 344.424,47.6508 343.5,40.5C 343.5,37.8333 343.5,35.1667 343.5,32.5C 343.5,32.1667 343.5,31.8333 343.5,31.5C 344.117,31.3893 344.617,31.056 345,30.5C 345.118,32.5733 346.118,33.9067 348,34.5C 359.82,33.7247 371.654,32.8914 383.5,32C 384.991,29.3788 385.658,26.5455 385.5,23.5C 385.5,23.1667 385.5,22.8333 385.5,22.5 Z"/></g>
<g><path style="opacity:0.008" fill="#929191" d="M 99.5,155.5 C 98.8495,168.672 98.8495,181.672 99.5,194.5C 99.6699,203.702 99.6699,212.702 99.5,221.5C 96.9307,199.35 96.9307,177.35 99.5,155.5 Z"/></g>
<g><path style="opacity:0.008" fill="#8f8e8d" d="M 396.5,157.5 C 397.887,159.877 398.721,162.543 399,165.5C 400.948,185.162 400.948,204.828 399,224.5C 398.768,225.737 398.268,226.737 397.5,227.5C 398.249,215.509 398.916,203.509 399.5,191.5C 398.324,180.191 397.324,168.857 396.5,157.5 Z"/></g>
<g><path style="opacity:0.293" fill="#584737" d="M 351.5,457.5 C 367.86,436.732 374.527,413.065 371.5,386.5C 374.828,381.852 377.661,376.852 380,371.5C 380.167,369.333 380.333,367.167 380.5,365C 376.087,345.51 371.587,326.01 367,306.5C 365.493,297.818 364.993,289.151 365.5,280.5C 373.172,273.827 380.839,267.16 388.5,260.5C 381.307,247.979 372.307,236.979 361.5,227.5C 365.856,225.232 370.023,222.565 374,219.5C 376.254,215.993 378.254,212.327 380,208.5C 381.564,195.177 380.397,182.177 376.5,169.5C 380.688,127.353 378.021,85.6868 368.5,44.5C 369.251,43.4265 370.251,43.2599 371.5,44C 374.037,46.9063 376.204,50.073 378,53.5C 380.946,55.9559 383.613,58.6226 386,61.5C 386.667,62.8333 386.667,64.1667 386,65.5C 379.265,71.8401 377.932,79.1735 382,87.5C 386.032,94.1869 390.032,100.854 394,107.5C 394.667,123.5 394.667,139.5 394,155.5C 391.667,158.833 389.333,162.167 387,165.5C 386.64,170.911 385.806,176.244 384.5,181.5C 385.343,186.181 387.01,190.514 389.5,194.5C 388.611,197.279 387.444,199.945 386,202.5C 386.082,207.495 386.082,212.495 386,217.5C 382.767,221.063 379.933,224.896 377.5,229C 384.621,236.725 390.121,245.558 394,255.5C 394.667,258.833 394.667,262.167 394,265.5C 389.414,275.251 381.914,281.584 371.5,284.5C 368.924,288.185 369.09,291.851 372,295.5C 374.877,299.036 377.711,302.536 380.5,306C 378.295,309.41 376.629,313.077 375.5,317C 376.824,321.664 379.657,325.164 384,327.5C 384.469,330.944 383.969,334.278 382.5,337.5C 383.909,341.316 385.576,344.983 387.5,348.5C 386.122,352.033 385.455,355.7 385.5,359.5C 387.874,370.922 386.041,381.589 380,391.5C 376.883,397.919 376.716,404.419 379.5,411C 377.867,414.925 376.534,418.925 375.5,423C 375.991,426.641 376.991,430.141 378.5,433.5C 374.026,441.615 368.693,449.115 362.5,456C 360.29,457.739 357.79,458.906 355,459.5C 353.541,459.192 352.374,458.525 351.5,457.5 Z"/></g>
<g><path style="opacity:0.941" fill="#f7f2e0" d="M 156.5,192.5 C 164.221,192.097 171.554,193.597 178.5,197C 184.473,201.286 185.973,206.786 183,213.5C 180.083,215.393 176.916,215.893 173.5,215C 169.463,213.463 165.796,211.296 162.5,208.5C 159.5,210.333 156.5,212.167 153.5,214C 141.104,216.933 137.27,212.433 142,200.5C 146.134,196.354 150.968,193.687 156.5,192.5 Z"/></g>
<g><path style="opacity:0.444" fill="#594837" d="M 121.5,145.5 C 120.614,152.811 119.947,160.144 119.5,167.5C 117.456,178.372 116.956,189.372 118,200.5C 121.347,210.006 127.514,216.672 136.5,220.5C 125.388,229.696 116.388,240.696 109.5,253.5C 117.545,260.551 125.545,267.551 133.5,274.5C 132.771,284.212 131.604,293.879 130,303.5C 125.498,321.672 120.998,339.839 116.5,358C 117.608,364.047 119.942,369.547 123.5,374.5C 123.5,376.167 123.5,377.833 123.5,379.5C 119.703,376.511 116.203,373.178 113,369.5C 113.176,359.953 112.01,350.62 109.5,341.5C 110.276,338.205 112.109,335.538 115,333.5C 115.5,332 116,330.5 116.5,329C 113.085,323.316 113.919,318.482 119,314.5C 121.837,309.57 121.171,304.903 117,300.5C 116.333,299.167 116.333,297.833 117,296.5C 120.104,293.275 123.437,290.275 127,287.5C 129.364,283.526 128.864,280.026 125.5,277C 105.636,271.438 99.4693,258.938 107,239.5C 111.488,233.514 116.321,227.848 121.5,222.5C 119.462,220.724 117.296,219.057 115,217.5C 114.138,215.913 113.471,214.246 113,212.5C 113.073,206.838 113.073,201.171 113,195.5C 111.38,192.425 109.88,189.258 108.5,186C 112.18,181.08 113.347,175.58 112,169.5C 109.694,165.034 107.194,160.701 104.5,156.5C 105.997,152.18 108.497,148.513 112,145.5C 113.667,141.167 115.333,136.833 117,132.5C 117.774,128.188 117.274,124.022 115.5,120C 116.983,117.177 118.483,114.343 120,111.5C 120.667,108.833 120.667,106.167 120,103.5C 118.227,99.4554 116.06,95.6221 113.5,92C 115.963,88.5354 118.796,85.3688 122,82.5C 122.333,81.5 122.667,80.5 123,79.5C 122.929,101.503 122.429,123.503 121.5,145.5 Z"/></g>
<g><path style="opacity:0.941" fill="#f7f2e0" d="M 325.5,200.5 C 334.448,199.839 343.114,201.005 351.5,204C 356.559,207.612 358.726,212.446 358,218.5C 357.167,220 356,221.167 354.5,222C 351.167,222.667 347.833,222.667 344.5,222C 341.147,220.323 338.147,218.157 335.5,215.5C 330.422,221.427 324.088,223.594 316.5,222C 312.11,215.842 312.777,210.175 318.5,205C 320.898,203.476 323.231,201.976 325.5,200.5 Z"/></g>
<g><path style="opacity:0.008" fill="#70675e" d="M 274.5,156.5 C 274.349,179.843 274.682,203.176 275.5,226.5C 276.211,230.281 275.045,233.281 272,235.5C 271.722,234.584 271.222,233.918 270.5,233.5C 270.84,231.321 271.84,229.488 273.5,228C 272.594,226.301 272.261,224.467 272.5,222.5C 272.214,202.14 272.547,181.806 273.5,161.5C 273.216,159.585 273.549,157.919 274.5,156.5 Z"/></g>
<g><path style="opacity:0.266" fill="#584737" d="M 187.5,42.5 C 190.127,43.1049 192.793,43.6049 195.5,44C 197.303,44.6368 198.636,45.8035 199.5,47.5C 196.862,51.1347 196.029,55.1347 197,59.5C 199.295,62.7974 201.962,65.7974 205,68.5C 205.781,69.7287 206.281,71.062 206.5,72.5C 204.157,76.3597 202.49,80.5263 201.5,85C 202.346,90.1947 204.179,95.028 207,99.5C 212.014,102.523 214.014,106.857 213,112.5C 206.865,115.605 204.365,120.438 205.5,127C 203.887,131.736 203.387,136.569 204,141.5C 206.667,144.167 209.333,146.833 212,149.5C 212.553,152.359 212.386,155.192 211.5,158C 212.584,161.251 213.25,164.584 213.5,168C 211.126,180.708 211.126,193.375 213.5,206C 213.375,207.627 212.875,209.127 212,210.5C 207.821,213.346 204.321,216.846 201.5,221C 201.759,222.261 202.426,223.261 203.5,224C 206.759,225.211 209.592,227.044 212,229.5C 216.115,236.346 218.948,243.679 220.5,251.5C 220.213,254.865 219.046,257.865 217,260.5C 212.251,264.578 208.251,269.245 205,274.5C 203.255,275.956 201.422,277.289 199.5,278.5C 197.272,281.813 197.439,285.146 200,288.5C 202.553,290.716 204.72,293.216 206.5,296C 205.414,298.752 203.914,301.252 202,303.5C 201.097,309.695 203.431,314.362 209,317.5C 210.389,321.132 210.222,324.799 208.5,328.5C 210.44,332.763 212.773,336.763 215.5,340.5C 214.67,342.828 213.837,345.162 213,347.5C 211.774,359.755 213.274,371.588 217.5,383C 215.425,389.141 213.092,395.141 210.5,401C 210.631,403.253 211.131,405.419 212,407.5C 218.216,415.442 217.883,423.109 211,430.5C 210.827,434.719 209.827,438.719 208,442.5C 205.174,445.484 202.841,448.817 201,452.5C 196.242,457.328 190.742,459.328 184.5,458.5C 198.95,442.161 205.95,422.994 205.5,401C 205.267,391.403 204.267,381.903 202.5,372.5C 203.973,369.553 205.473,366.553 207,363.5C 207.667,359.833 207.667,356.167 207,352.5C 201.554,333.716 196.887,314.716 193,295.5C 191.753,288.221 191.253,280.888 191.5,273.5C 199.358,266.804 207.025,259.971 214.5,253C 207.883,240.547 199.216,229.714 188.5,220.5C 188.369,219.624 188.702,218.957 189.5,218.5C 198.506,215.201 204.339,208.868 207,199.5C 209.057,185.229 207.223,171.562 201.5,158.5C 200.534,119.376 195.868,80.7095 187.5,42.5 Z"/></g>
<g><path style="opacity:0.941" fill="#f8f3e1" d="M 188.5,220.5 C 199.216,229.714 207.883,240.547 214.5,253C 207.025,259.971 199.358,266.804 191.5,273.5C 181.678,281.589 172.011,289.922 162.5,298.5C 152.814,290.477 143.147,282.477 133.5,274.5C 125.545,267.551 117.545,260.551 109.5,253.5C 116.388,240.696 125.388,229.696 136.5,220.5C 139.167,220.833 141.833,221.167 144.5,221.5C 149.925,222.984 155.591,223.651 161.5,223.5C 165.349,223.499 169.016,223.165 172.5,222.5C 177.331,222.267 181.997,221.267 186.5,219.5C 187.183,219.863 187.85,220.196 188.5,220.5 Z"/></g>
<g><path style="opacity:0.941" fill="#cec5b1" d="M 144.5,221.5 C 153.815,222.232 163.148,222.566 172.5,222.5C 169.016,223.165 165.349,223.499 161.5,223.5C 155.591,223.651 149.925,222.984 144.5,221.5 Z"/></g>
<g><path style="opacity:0.008" fill="#70665d" d="M 99.5,194.5 C 101.436,204.947 101.936,215.614 101,226.5C 99.951,228.107 98.451,228.773 96.5,228.5C 93.9844,242.712 92.9844,257.045 93.5,271.5C 99.3626,271.694 102.029,274.694 101.5,280.5C 98.2295,278.409 95.0628,276.076 92,273.5C 91.3333,259.833 91.3333,246.167 92,232.5C 94.51,228.805 97.01,225.138 99.5,221.5C 99.6699,212.702 99.6699,203.702 99.5,194.5 Z"/></g>
<g><path style="opacity:0.008" fill="#6a5f55" d="M 207.5,44.5 C 209.594,48.8773 210.761,53.544 211,58.5C 211.383,57.944 211.883,57.6107 212.5,57.5C 212.5,58.5 212.5,59.5 212.5,60.5C 212.084,71.9491 212.918,83.2824 215,94.5C 215.374,96.4913 216.207,98.158 217.5,99.5C 217.742,115.861 218.576,132.195 220,148.5C 220.075,146.065 220.908,145.398 222.5,146.5C 223.038,148.117 223.371,149.784 223.5,151.5C 225.787,174.117 226.12,196.784 224.5,219.5C 226.991,224.478 229.991,229.145 233.5,233.5C 232.539,237.335 231.705,241.335 231,245.5C 229.357,241.54 227.69,237.54 226,233.5C 222.738,230.241 220.905,226.241 220.5,221.5C 216.5,221.167 216.5,220.833 220.5,220.5C 221.925,198.856 222.259,177.189 221.5,155.5C 220.575,156.641 219.741,156.641 219,155.5C 218.667,152.5 218.333,149.5 218,146.5C 216.615,143.267 215.448,139.934 214.5,136.5C 216.284,129.648 216.95,122.648 216.5,115.5C 216.55,110.448 216.05,105.448 215,100.5C 211.978,90.0968 210.644,79.4301 211,68.5C 210.722,67.5842 210.222,66.9175 209.5,66.5C 208.969,63.763 208.136,61.0964 207,58.5C 206.185,53.6478 206.352,48.9811 207.5,44.5 Z"/></g>
<g><path style="opacity:0.941" fill="#f8f3e1" d="M 361.5,227.5 C 372.307,236.979 381.307,247.979 388.5,260.5C 380.839,267.16 373.172,273.827 365.5,280.5C 355.587,288.711 345.753,297.045 336,305.5C 326.014,297.68 316.18,289.68 306.5,281.5C 298.528,274.863 290.861,267.863 283.5,260.5C 287.155,253.863 291.322,247.53 296,241.5C 299.709,236.29 304.209,231.957 309.5,228.5C 310.15,228.196 310.817,227.863 311.5,227.5C 328.147,231.422 344.813,231.422 361.5,227.5 Z"/></g>
<g><path style="opacity:0.008" fill="#675a50" d="M 286.5,454.5 C 284.554,452.647 283.054,450.314 282,447.5C 281.519,443.469 280.853,439.469 280,435.5C 279.028,433.695 277.861,432.028 276.5,430.5C 275.668,422.521 275.168,414.521 275,406.5C 274.161,401.952 272.995,397.619 271.5,393.5C 271.5,384.833 271.5,376.167 271.5,367.5C 272.963,364.797 273.796,361.797 274,358.5C 274.5,351.508 274.666,344.508 274.5,337.5C 274.833,335.5 275.167,333.5 275.5,331.5C 277.522,330.309 278.855,328.476 279.5,326C 280.31,322.208 280.644,318.375 280.5,314.5C 280.5,313.5 280.5,312.5 280.5,311.5C 281.222,311.918 281.722,312.584 282,313.5C 285.082,307.59 286.249,301.257 285.5,294.5C 284.167,294.5 282.833,294.5 281.5,294.5C 280.573,292.424 278.907,291.257 276.5,291C 275.748,290.329 275.414,289.496 275.5,288.5C 275.261,286.533 275.594,284.699 276.5,283C 274.318,280.482 271.818,279.315 269,279.5C 268.667,278.833 268.333,278.167 268,277.5C 266.988,263.074 267.488,248.741 269.5,234.5C 269.5,233.833 269.833,233.5 270.5,233.5C 271.222,233.918 271.722,234.584 272,235.5C 275.045,233.281 276.211,230.281 275.5,226.5C 276.75,226.423 277.583,225.756 278,224.5C 279.167,226.167 280.333,227.833 281.5,229.5C 279.516,232.379 277.016,234.712 274,236.5C 270.083,247.597 269.417,258.931 272,270.5C 273.903,275.977 276.57,280.977 280,285.5C 282.923,287.688 286.09,288.522 289.5,288C 290.081,288.893 290.415,289.893 290.5,291C 289.733,294.634 288.566,298.134 287,301.5C 287.407,309.335 285.74,316.668 282,323.5C 282.04,329.386 281.04,335.053 279,340.5C 278.311,341.357 277.478,342.023 276.5,342.5C 275.997,355.496 274.664,368.33 272.5,381C 272.667,384.833 272.833,388.667 273,392.5C 274.732,396.363 276.066,400.363 277,404.5C 277,411.833 277,419.167 277,426.5C 278.399,429.629 280.065,432.629 282,435.5C 283.033,441.964 284.533,448.297 286.5,454.5 Z"/></g>
<g><path style="opacity:0.008" fill="#939393" d="M 266.5,239.5 C 265.535,253.118 265.202,266.784 265.5,280.5C 264.34,267.34 264.173,254.006 265,240.5C 265.383,239.944 265.883,239.611 266.5,239.5 Z"/></g>
<g><path style="opacity:0.008" fill="#675b50" d="M 233.5,270.5 C 233.5,270.833 233.5,271.167 233.5,271.5C 231.167,271.5 228.833,271.5 226.5,271.5C 226.5,272.833 226.5,274.167 226.5,275.5C 222.167,275.167 220.167,277.167 220.5,281.5C 219.167,281.5 217.833,281.5 216.5,281.5C 216.232,283.099 216.566,284.432 217.5,285.5C 217.5,286.167 217.167,286.5 216.5,286.5C 215.167,286.5 213.833,286.5 212.5,286.5C 212.334,292.509 212.501,298.509 213,304.5C 214.11,306.037 215.61,306.703 217.5,306.5C 216.901,313.391 217.735,320.058 220,326.5C 220.708,325.619 221.542,324.953 222.5,324.5C 223.038,326.117 223.371,327.784 223.5,329.5C 224.501,346.509 224.501,363.509 223.5,380.5C 223.5,395.167 223.5,409.833 223.5,424.5C 221.204,432.35 219.204,440.35 217.5,448.5C 217.334,443.489 217.501,438.489 218,433.5C 220.955,428.634 222.122,423.301 221.5,417.5C 221.956,411.86 220.956,406.526 218.5,401.5C 220.735,396.71 222.069,391.71 222.5,386.5C 221.344,369.134 220.844,351.801 221,334.5C 218.607,332.381 217.274,329.715 217,326.5C 216.667,322.833 216.333,319.167 216,315.5C 210.494,310.024 208.994,303.524 211.5,296C 210.804,292.448 209.804,288.948 208.5,285.5C 208.833,284.5 209.167,283.5 209.5,282.5C 210.609,283.59 211.609,283.59 212.5,282.5C 214.374,275.331 219.207,270.664 227,268.5C 228.08,266.004 229.414,263.67 231,261.5C 231.406,264.742 232.239,267.742 233.5,270.5 Z"/></g>
<g><path style="opacity:0.941" fill="#a49781" d="M 191.5,273.5 C 191.253,280.888 191.753,288.221 193,295.5C 196.887,314.716 201.554,333.716 207,352.5C 207.667,356.167 207.667,359.833 207,363.5C 205.473,366.553 203.973,369.553 202.5,372.5C 196.689,381.312 189.022,387.979 179.5,392.5C 187.234,386.034 191.568,377.701 192.5,367.5C 182.755,349.676 172.755,332.01 162.5,314.5C 152.443,330.934 142.61,347.601 133,364.5C 132.144,375.785 135.977,385.118 144.5,392.5C 135.652,388.652 128.652,382.652 123.5,374.5C 119.942,369.547 117.608,364.047 116.5,358C 120.998,339.839 125.498,321.672 130,303.5C 131.604,293.879 132.771,284.212 133.5,274.5C 143.147,282.477 152.814,290.477 162.5,298.5C 172.011,289.922 181.678,281.589 191.5,273.5 Z"/></g>
<g><path style="opacity:0.008" fill="#716860" d="M 269.5,234.5 C 267.488,248.741 266.988,263.074 268,277.5C 268.333,278.167 268.667,278.833 269,279.5C 271.818,279.315 274.318,280.482 276.5,283C 275.594,284.699 275.261,286.533 275.5,288.5C 271.854,286.183 268.52,283.516 265.5,280.5C 265.202,266.784 265.535,253.118 266.5,239.5C 266.75,237.326 267.75,235.659 269.5,234.5 Z"/></g>
<g><path style="opacity:0.008" fill="#78706a" d="M 233.5,271.5 C 229.079,277.07 223.745,281.736 217.5,285.5C 216.566,284.432 216.232,283.099 216.5,281.5C 217.833,281.5 219.167,281.5 220.5,281.5C 220.167,277.167 222.167,275.167 226.5,275.5C 226.5,274.167 226.5,272.833 226.5,271.5C 228.833,271.5 231.167,271.5 233.5,271.5 Z"/></g>
<g><path style="opacity:0.941" fill="#a49781" d="M 365.5,280.5 C 364.993,289.151 365.493,297.818 367,306.5C 371.587,326.01 376.087,345.51 380.5,365C 380.333,367.167 380.167,369.333 380,371.5C 377.661,376.852 374.828,381.852 371.5,386.5C 368.369,389.129 365.369,391.962 362.5,395C 359.273,397.112 355.94,398.945 352.5,400.5C 361.79,393.156 365.956,383.489 365,371.5C 355.419,354.669 345.585,338.002 335.5,321.5C 325.667,338.5 315.833,355.5 306,372.5C 305.44,383.379 309.273,392.379 317.5,399.5C 311.085,396.865 305.585,392.865 301,387.5C 297.209,381.905 293.709,376.239 290.5,370.5C 290.335,367.15 290.502,363.817 291,360.5C 296.08,341.928 300.747,323.261 305,304.5C 306.142,296.875 306.642,289.208 306.5,281.5C 316.18,289.68 326.014,297.68 336,305.5C 345.753,297.045 355.587,288.711 365.5,280.5 Z"/></g>
<g><path style="opacity:0.008" fill="#888683" d="M 109.5,287.5 C 111.388,289.988 112.055,292.988 111.5,296.5C 110.379,298.954 109.546,301.621 109,304.5C 108.667,304.167 108.333,303.833 108,303.5C 107.722,304.416 107.222,305.082 106.5,305.5C 107.521,300.268 108.854,295.101 110.5,290C 110.257,289.098 109.923,288.265 109.5,287.5 Z"/></g>
<g><path style="opacity:0.008" fill="#8a8885" d="M 391.5,292.5 C 389.984,294.186 388.65,296.019 387.5,298C 389.071,302.786 390.404,307.619 391.5,312.5C 390.85,312.196 390.183,311.863 389.5,311.5C 388.909,308.36 388.076,305.36 387,302.5C 386.502,299.183 386.335,295.85 386.5,292.5C 388.167,292.5 389.833,292.5 391.5,292.5 Z"/></g>
<g><path style="opacity:0.008" fill="#7c7671" d="M 216.5,286.5 C 215.418,287.594 214.752,288.927 214.5,290.5C 216.141,295.727 217.141,301.061 217.5,306.5C 215.61,306.703 214.11,306.037 213,304.5C 212.501,298.509 212.334,292.509 212.5,286.5C 213.833,286.5 215.167,286.5 216.5,286.5 Z"/></g>
<g><path style="opacity:0.008" fill="#7f7a76" d="M 281.5,294.5 C 282.833,294.5 284.167,294.5 285.5,294.5C 286.249,301.257 285.082,307.59 282,313.5C 281.722,312.584 281.222,311.918 280.5,311.5C 281.291,306.503 282.624,301.67 284.5,297C 283.058,296.623 282.058,295.79 281.5,294.5 Z"/></g>
<g><path style="opacity:0.008" fill="#837f7b" d="M 106.5,308.5 C 106.823,312.226 106.489,315.893 105.5,319.5C 104.866,321.772 103.532,323.439 101.5,324.5C 102.797,318.949 104.463,313.616 106.5,308.5 Z"/></g>
<g><path style="opacity:0.941" fill="#f8f3e1" d="M 179.5,392.5 C 177.847,392.66 176.514,393.326 175.5,394.5C 169.989,396.21 164.323,396.877 158.5,396.5C 157.167,396.5 155.833,396.5 154.5,396.5C 151.169,395.385 147.836,394.051 144.5,392.5C 135.977,385.118 132.144,375.785 133,364.5C 142.61,347.601 152.443,330.934 162.5,314.5C 172.755,332.01 182.755,349.676 192.5,367.5C 191.568,377.701 187.234,386.034 179.5,392.5 Z"/></g>
<g><path style="opacity:0.008" fill="#79726c" d="M 217.5,306.5 C 219.944,312.181 221.611,318.181 222.5,324.5C 221.542,324.953 220.708,325.619 220,326.5C 217.735,320.058 216.901,313.391 217.5,306.5 Z"/></g>
<g><path style="opacity:0.008" fill="#837f7c" d="M 280.5,314.5 C 280.644,318.375 280.31,322.208 279.5,326C 278.855,328.476 277.522,330.309 275.5,331.5C 276.409,325.513 278.076,319.847 280.5,314.5 Z"/></g>
<g><path style="opacity:0.008" fill="#695e54" d="M 111.5,296.5 C 111.665,300.182 111.499,303.848 111,307.5C 110.632,308.91 109.799,309.91 108.5,310.5C 107.669,316.807 107.169,323.141 107,329.5C 106.464,331.869 105.297,333.869 103.5,335.5C 102.334,347.152 102.167,358.819 103,370.5C 103.206,373.623 103.873,376.623 105,379.5C 108.025,378.291 110.859,378.791 113.5,381C 115.988,383.627 116.155,386.46 114,389.5C 111.252,392.734 108.752,396.068 106.5,399.5C 107.213,391.837 106.88,387.837 105.5,387.5C 103.489,386.583 102.489,384.917 102.5,382.5C 101.65,376.018 100.984,369.518 100.5,363C 101.319,352.849 101.652,342.683 101.5,332.5C 101.5,331.167 101.5,329.833 101.5,328.5C 101.5,327.167 101.5,325.833 101.5,324.5C 103.532,323.439 104.866,321.772 105.5,319.5C 106.489,315.893 106.823,312.226 106.5,308.5C 106.5,307.5 106.5,306.5 106.5,305.5C 107.222,305.082 107.722,304.416 108,303.5C 108.333,303.833 108.667,304.167 109,304.5C 109.546,301.621 110.379,298.954 111.5,296.5 Z"/></g>
<g><path style="opacity:0.008" fill="#939393" d="M 224.5,333.5 C 225.268,334.263 225.768,335.263 226,336.5C 226.828,351.339 226.661,366.006 225.5,380.5C 225.771,364.805 225.437,349.138 224.5,333.5 Z"/></g>
<g><path style="opacity:0.008" fill="#6a5f55" d="M 391.5,316.5 C 394.155,322.482 395.821,328.815 396.5,335.5C 397.313,345.152 397.98,354.819 398.5,364.5C 398.139,374.196 397.472,383.862 396.5,393.5C 396.5,394.167 396.5,394.833 396.5,395.5C 392.648,396.187 390.981,398.521 391.5,402.5C 391.5,403.167 391.167,403.5 390.5,403.5C 390.665,400.482 390.498,397.482 390,394.5C 389.667,404.5 389.333,414.5 389,424.5C 387.85,428.112 387.017,431.778 386.5,435.5C 383.684,429.199 383.851,422.866 387,416.5C 387.333,409.167 387.667,401.833 388,394.5C 388.284,392.114 389.284,391.448 391,392.5C 391.098,390.381 391.931,388.714 393.5,387.5C 395.694,372.878 395.86,358.212 394,343.5C 392.725,341.283 391.725,338.949 391,336.5C 390.454,329.816 390.62,323.149 391.5,316.5 Z"/></g>
<g><path style="opacity:0.008" fill="#85817e" d="M 101.5,328.5 C 101.5,329.833 101.5,331.167 101.5,332.5C 100.676,336.312 100.176,340.312 100,344.5C 99.5001,356.829 99.3335,369.162 99.5,381.5C 98.3388,366.339 98.1721,351.006 99,335.5C 99.3903,332.896 100.224,330.562 101.5,328.5 Z"/></g>
<g><path style="opacity:0.008" fill="#8f8c8b" d="M 272.5,344.5 C 272.404,352.179 272.07,359.846 271.5,367.5C 271.5,376.167 271.5,384.833 271.5,393.5C 273.818,406.728 274.818,420.061 274.5,433.5C 272.559,426.428 271.392,419.095 271,411.5C 270.333,391.833 270.333,372.167 271,352.5C 271.183,349.635 271.683,346.969 272.5,344.5 Z"/></g>
<g><path style="opacity:0.008" fill="#756d66" d="M 274.5,337.5 C 274.666,344.508 274.5,351.508 274,358.5C 273.796,361.797 272.963,364.797 271.5,367.5C 272.07,359.846 272.404,352.179 272.5,344.5C 272.41,341.848 273.076,339.515 274.5,337.5 Z"/></g>
<g><path style="opacity:0.008" fill="#726961" d="M 101.5,332.5 C 101.652,342.683 101.319,352.849 100.5,363C 100.984,369.518 101.65,376.018 102.5,382.5C 102.489,384.917 103.489,386.583 105.5,387.5C 105.784,389.415 105.451,391.081 104.5,392.5C 101.887,389.355 100.221,385.689 99.5,381.5C 99.3335,369.162 99.5001,356.829 100,344.5C 100.176,340.312 100.676,336.312 101.5,332.5 Z"/></g>
<g><path style="opacity:0.008" fill="#756d67" d="M 223.5,329.5 C 224.434,330.568 224.768,331.901 224.5,333.5C 225.437,349.138 225.771,364.805 225.5,380.5C 224.833,380.5 224.167,380.5 223.5,380.5C 224.501,363.509 224.501,346.509 223.5,329.5 Z"/></g>
<g><path style="opacity:0.008" fill="#7e7974" d="M 396.5,335.5 C 397.469,337.663 398.302,339.996 399,342.5C 399.667,358.167 399.667,373.833 399,389.5C 398.392,391.066 397.558,392.4 396.5,393.5C 397.472,383.862 398.139,374.196 398.5,364.5C 397.98,354.819 397.313,345.152 396.5,335.5 Z"/></g>
<g><path style="opacity:0.94" fill="#6c5c4c" d="M 202.5,372.5 C 204.267,381.903 205.267,391.403 205.5,401C 205.95,422.994 198.95,442.161 184.5,458.5C 183.5,458.833 182.833,459.5 182.5,460.5C 181.167,461.167 180.167,462.167 179.5,463.5C 178.604,464.506 177.938,464.506 177.5,463.5C 177.833,461.5 178.167,459.5 178.5,457.5C 180.833,436.844 181,416.177 179,395.5C 177.989,394.663 176.822,394.33 175.5,394.5C 176.514,393.326 177.847,392.66 179.5,392.5C 189.022,387.979 196.689,381.312 202.5,372.5 Z"/></g>
<g><path style="opacity:0.94" fill="#6c5c4c" d="M 123.5,374.5 C 128.652,382.652 135.652,388.652 144.5,392.5C 147.836,394.051 151.169,395.385 154.5,396.5C 152.78,398.658 151.947,401.325 152,404.5C 151.329,418.181 151.495,431.848 152.5,445.5C 153.162,449.466 153.495,453.466 153.5,457.5C 153.357,459.262 153.691,460.929 154.5,462.5C 154.043,463.298 153.376,463.631 152.5,463.5C 150.858,462.197 149.191,460.864 147.5,459.5C 138.751,450.006 132.584,439.006 129,426.5C 126.848,416.257 125.348,405.924 124.5,395.5C 123.725,390.203 123.392,384.87 123.5,379.5C 123.5,377.833 123.5,376.167 123.5,374.5 Z"/></g>
<g><path style="opacity:0.008" fill="#939090" d="M 223.5,380.5 C 224.167,380.5 224.833,380.5 225.5,380.5C 224.877,396.641 224.211,412.641 223.5,428.5C 223.5,427.167 223.5,425.833 223.5,424.5C 223.5,409.833 223.5,395.167 223.5,380.5 Z"/></g>
<g><path style="opacity:0.008" fill="#939090" d="M 106.5,399.5 C 106.5,405.5 106.5,411.5 106.5,417.5C 105.806,409.266 105.139,400.933 104.5,392.5C 105.451,391.081 105.784,389.415 105.5,387.5C 106.88,387.837 107.213,391.837 106.5,399.5 Z"/></g>
<g><path style="opacity:0.029" fill="#605246" d="M 282.5,114.5 C 282.336,117.187 282.503,119.854 283,122.5C 290.039,130.905 291.373,140.238 287,150.5C 282.139,155.386 278.973,161.22 277.5,168C 279.869,174.642 281.369,181.475 282,188.5C 281.734,199.158 281.734,209.824 282,220.5C 285.108,223.23 287.608,226.397 289.5,230C 285.035,234.135 280.868,238.635 277,243.5C 276.333,250.5 276.333,257.5 277,264.5C 279.03,274.349 284.53,281.349 293.5,285.5C 294.84,286.688 295.507,288.188 295.5,290C 294.587,293.992 292.754,297.492 290,300.5C 289.927,306.171 289.927,311.838 290,317.5C 288.088,319.657 286.421,321.991 285,324.5C 285.126,328.533 285.46,332.533 286,336.5C 284.056,340.11 281.723,343.443 279,346.5C 278.527,351.257 279.027,355.924 280.5,360.5C 280.111,364.613 278.611,368.28 276,371.5C 275.333,377.833 275.333,384.167 276,390.5C 281.895,397.079 284.228,404.746 283,413.5C 280.755,416.89 279.755,420.557 280,424.5C 282.333,427.5 284.667,430.5 287,433.5C 288.018,437.291 288.851,441.125 289.5,445C 291.839,453.366 296.172,460.366 302.5,466C 305.5,466.667 308.5,466.667 311.5,466C 314.152,465.647 316.152,464.48 317.5,462.5C 320.044,465.307 321.044,464.64 320.5,460.5C 324.997,459.432 327.997,456.766 329.5,452.5C 327.631,446.727 325.464,441.061 323,435.5C 322.464,431.151 322.631,426.818 323.5,422.5C 323.275,419.206 322.608,416.039 321.5,413C 322.05,411.155 323.05,409.655 324.5,408.5C 327.53,409.432 330.363,410.765 333,412.5C 332.71,420.821 332.71,429.154 333,437.5C 338.156,440.813 341.989,445.146 344.5,450.5C 344.244,454.862 344.077,459.195 344,463.5C 345.271,462.117 346.771,461.117 348.5,460.5C 349.975,462.41 351.975,463.576 354.5,464C 357.5,464.667 360.5,464.667 363.5,464C 371.895,456.598 378.395,447.765 383,437.5C 383.693,432.878 383.193,428.378 381.5,424C 383.406,419.852 384.739,415.518 385.5,411C 385.071,407.785 384.405,404.618 383.5,401.5C 385.539,394.431 388.372,387.764 392,381.5C 392.647,373.819 392.481,366.152 391.5,358.5C 391.542,355.041 392.209,351.708 393.5,348.5C 392.825,345.309 391.658,342.309 390,339.5C 389.667,335.167 389.333,330.833 389,326.5C 386.274,323.283 383.774,319.95 381.5,316.5C 382.511,313.152 383.511,309.818 384.5,306.5C 384.272,304.793 383.938,303.126 383.5,301.5C 384.765,302.514 385.431,304.014 385.5,306C 383.248,312.597 384.415,318.431 389,323.5C 389.996,320.091 390.829,316.758 391.5,313.5C 391.5,314.5 391.5,315.5 391.5,316.5C 390.62,323.149 390.454,329.816 391,336.5C 391.725,338.949 392.725,341.283 394,343.5C 395.86,358.212 395.694,372.878 393.5,387.5C 391.931,388.714 391.098,390.381 391,392.5C 389.284,391.448 388.284,392.114 388,394.5C 387.667,401.833 387.333,409.167 387,416.5C 383.851,422.866 383.684,429.199 386.5,435.5C 386.5,438.5 386.5,441.5 386.5,444.5C 386.737,445.791 386.404,446.791 385.5,447.5C 385.657,446.127 385.49,444.793 385,443.5C 382.608,446.228 380.608,449.228 379,452.5C 378.333,451.167 377.667,451.167 377,452.5C 378.344,453.474 378.677,455.474 378,458.5C 374.502,460.496 372.669,463.496 372.5,467.5C 371.167,467.5 369.833,467.5 368.5,467.5C 368.621,470.541 367.121,472.208 364,472.5C 353.43,469.297 343.596,464.631 334.5,458.5C 332.515,460.457 331.015,462.79 330,465.5C 328.786,467.049 327.286,468.215 325.5,469C 315.862,473.749 305.862,475.916 295.5,475.5C 295.067,472.834 294.567,470.168 294,467.5C 291.463,463.081 288.963,458.748 286.5,454.5C 284.533,448.297 283.033,441.964 282,435.5C 280.065,432.629 278.399,429.629 277,426.5C 277,419.167 277,411.833 277,404.5C 276.066,400.363 274.732,396.363 273,392.5C 272.833,388.667 272.667,384.833 272.5,381C 274.664,368.33 275.997,355.496 276.5,342.5C 277.478,342.023 278.311,341.357 279,340.5C 281.04,335.053 282.04,329.386 282,323.5C 285.74,316.668 287.407,309.335 287,301.5C 288.566,298.134 289.733,294.634 290.5,291C 290.415,289.893 290.081,288.893 289.5,288C 286.09,288.522 282.923,287.688 280,285.5C 276.57,280.977 273.903,275.977 272,270.5C 269.417,258.931 270.083,247.597 274,236.5C 277.016,234.712 279.516,232.379 281.5,229.5C 280.333,227.833 279.167,226.167 278,224.5C 277.583,225.756 276.75,226.423 275.5,226.5C 274.682,203.176 274.349,179.843 274.5,156.5C 274.5,155.5 274.5,154.5 274.5,153.5C 276.522,152.493 277.855,150.826 278.5,148.5C 279.117,148.389 279.617,148.056 280,147.5C 280.333,145.5 280.667,143.5 281,141.5C 281.17,132.324 281.67,123.324 282.5,114.5 Z"/></g>
<g><path style="opacity:0.94" fill="#6c5c4c" d="M 371.5,386.5 C 374.527,413.065 367.86,436.732 351.5,457.5C 350.167,458.167 349.167,459.167 348.5,460.5C 346.771,461.117 345.271,462.117 344,463.5C 344.077,459.195 344.244,454.862 344.5,450.5C 346.331,436.563 346.831,422.563 346,408.5C 345.878,406.563 345.045,405.23 343.5,404.5C 343.5,404.167 343.5,403.833 343.5,403.5C 346.543,402.655 349.543,401.655 352.5,400.5C 355.94,398.945 359.273,397.112 362.5,395C 365.369,391.962 368.369,389.129 371.5,386.5 Z"/></g>
<g><path style="opacity:0.941" fill="#6c5c4c" d="M 290.5,370.5 C 293.709,376.239 297.209,381.905 301,387.5C 305.585,392.865 311.085,396.865 317.5,399.5C 318.5,400.167 319.5,400.833 320.5,401.5C 319.5,401.5 318.5,401.5 317.5,401.5C 316.795,421.319 317.795,440.985 320.5,460.5C 321.044,464.64 320.044,465.307 317.5,462.5C 316.833,462.167 316.167,461.833 315.5,461.5C 305.323,451.488 298.49,439.488 295,425.5C 291.104,407.376 289.604,389.042 290.5,370.5 Z"/></g>
<g><path style="opacity:0.941" fill="#f8f3e1" d="M 352.5,400.5 C 349.543,401.655 346.543,402.655 343.5,403.5C 336.045,403.848 328.712,403.182 321.5,401.5C 321.167,401.5 320.833,401.5 320.5,401.5C 319.5,400.833 318.5,400.167 317.5,399.5C 309.273,392.379 305.44,383.379 306,372.5C 315.833,355.5 325.667,338.5 335.5,321.5C 345.585,338.002 355.419,354.669 365,371.5C 365.956,383.489 361.79,393.156 352.5,400.5 Z"/></g>
<g><path style="opacity:0.008" fill="#837f7b" d="M 396.5,395.5 C 395.066,398.047 393.4,400.381 391.5,402.5C 390.981,398.521 392.648,396.187 396.5,395.5 Z"/></g>
<g><path style="opacity:0.31" fill="#5a493a" d="M 175.5,394.5 C 176.822,394.33 177.989,394.663 179,395.5C 181,416.177 180.833,436.844 178.5,457.5C 176.921,459.646 174.921,459.812 172.5,458C 167.931,455.459 166.431,451.625 168,446.5C 169.296,441.253 171.129,436.253 173.5,431.5C 170.884,425.348 170.884,419.182 173.5,413C 172.669,408.321 169.836,405.821 165,405.5C 165.532,417.474 165.532,429.474 165,441.5C 161.519,445.931 159.186,450.931 158,456.5C 156.457,459.419 154.957,459.752 153.5,457.5C 153.495,453.466 153.162,449.466 152.5,445.5C 153.222,445.918 153.722,446.584 154,447.5C 155.947,443.22 158.947,439.887 163,437.5C 163.007,429.965 163.174,422.465 163.5,415C 163.378,410.527 161.211,407.361 157,405.5C 155.539,401.564 156.705,399.064 160.5,398C 159.584,397.722 158.918,397.222 158.5,396.5C 164.323,396.877 169.989,396.21 175.5,394.5 Z"/></g>
<g><path style="opacity:0.377" fill="#554230" d="M 154.5,396.5 C 155.833,396.5 157.167,396.5 158.5,396.5C 158.918,397.222 159.584,397.722 160.5,398C 156.705,399.064 155.539,401.564 157,405.5C 161.211,407.361 163.378,410.527 163.5,415C 163.174,422.465 163.007,429.965 163,437.5C 158.947,439.887 155.947,443.22 154,447.5C 153.722,446.584 153.222,445.918 152.5,445.5C 151.495,431.848 151.329,418.181 152,404.5C 151.947,401.325 152.78,398.658 154.5,396.5 Z"/></g>
<g><path style="opacity:0.062" fill="#5c4d3f" d="M 124.5,42.5 C 125.125,77.0418 124.125,111.375 121.5,145.5C 122.429,123.503 122.929,101.503 123,79.5C 122.667,80.5 122.333,81.5 122,82.5C 118.796,85.3688 115.963,88.5354 113.5,92C 116.06,95.6221 118.227,99.4554 120,103.5C 120.667,106.167 120.667,108.833 120,111.5C 118.483,114.343 116.983,117.177 115.5,120C 117.274,124.022 117.774,128.188 117,132.5C 115.333,136.833 113.667,141.167 112,145.5C 108.497,148.513 105.997,152.18 104.5,156.5C 107.194,160.701 109.694,165.034 112,169.5C 113.347,175.58 112.18,181.08 108.5,186C 109.88,189.258 111.38,192.425 113,195.5C 113.073,201.171 113.073,206.838 113,212.5C 113.471,214.246 114.138,215.913 115,217.5C 117.296,219.057 119.462,220.724 121.5,222.5C 116.321,227.848 111.488,233.514 107,239.5C 99.4693,258.938 105.636,271.438 125.5,277C 128.864,280.026 129.364,283.526 127,287.5C 123.437,290.275 120.104,293.275 117,296.5C 116.333,297.833 116.333,299.167 117,300.5C 121.171,304.903 121.837,309.57 119,314.5C 113.919,318.482 113.085,323.316 116.5,329C 116,330.5 115.5,332 115,333.5C 112.109,335.538 110.276,338.205 109.5,341.5C 112.01,350.62 113.176,359.953 113,369.5C 116.203,373.178 119.703,376.511 123.5,379.5C 123.392,384.87 123.725,390.203 124.5,395.5C 123.883,395.389 123.383,395.056 123,394.5C 118.958,398.71 114.792,402.71 110.5,406.5C 113.972,410.167 117.805,413.501 122,416.5C 122.667,417.833 123.333,419.167 124,420.5C 124.291,425.189 124.291,429.856 124,434.5C 128.802,442.437 132.802,450.77 136,459.5C 139.91,462.088 143.744,462.088 147.5,459.5C 149.191,460.864 150.858,462.197 152.5,463.5C 147.209,467.497 141.209,470.163 134.5,471.5C 132.051,471.02 129.885,470.02 128,468.5C 125.322,457.147 120.989,446.48 115,436.5C 116.068,431.601 116.401,426.601 116,421.5C 104.044,410.84 104.711,401.174 118,392.5C 120.895,388.018 121.062,383.518 118.5,379C 115.209,377.403 111.875,375.903 108.5,374.5C 107.808,373.975 107.308,373.308 107,372.5C 106.667,364.833 106.333,357.167 106,349.5C 105.089,346.689 104.256,343.856 103.5,341C 104.88,337.28 106.713,333.78 109,330.5C 108.315,323.104 109.982,316.437 114,310.5C 113.737,305.184 113.737,299.851 114,294.5C 117.233,290.937 120.067,287.104 122.5,283C 122.241,281.739 121.574,280.739 120.5,280C 118.782,279.654 117.115,279.154 115.5,278.5C 114.808,279.025 114.308,279.692 114,280.5C 110.423,277.627 106.589,275.127 102.5,273C 100.106,271.048 98.6064,268.548 98,265.5C 96.4392,253.197 98.4392,241.531 104,230.5C 106.651,228.35 109.151,226.017 111.5,223.5C 109.378,221.549 107.878,219.215 107,216.5C 106.342,210.575 106.842,204.742 108.5,199C 106.821,194.477 104.488,190.311 101.5,186.5C 103.5,182.833 105.5,179.167 107.5,175.5C 104.38,168.143 102.714,160.476 102.5,152.5C 102.875,150.302 103.542,148.302 104.5,146.5C 106.956,140.489 109.622,134.489 112.5,128.5C 111.012,124.9 110.179,121.233 110,117.5C 112.793,114.547 114.96,111.213 116.5,107.5C 114.007,101.843 111.007,96.5095 107.5,91.5C 108.219,89.2723 109.552,87.439 111.5,86C 116.237,84.4409 118.903,81.2742 119.5,76.5C 117.987,67.6253 115.654,58.9587 112.5,50.5C 114.78,45.487 118.78,42.8203 124.5,42.5 Z"/></g>
<g><path style="opacity:0.875" fill="#b2a795" d="M 321.5,401.5 C 328.712,403.182 336.045,403.848 343.5,403.5C 343.5,403.833 343.5,404.167 343.5,404.5C 338.156,404.666 332.823,404.499 327.5,404C 325.277,403.434 323.277,402.6 321.5,401.5 Z"/></g>
<g><path style="opacity:0.401" fill="#574635" d="M 320.5,401.5 C 320.833,401.5 321.167,401.5 321.5,401.5C 323.277,402.6 325.277,403.434 327.5,404C 332.823,404.499 338.156,404.666 343.5,404.5C 345.045,405.23 345.878,406.563 346,408.5C 346.831,422.563 346.331,436.563 344.5,450.5C 341.989,445.146 338.156,440.813 333,437.5C 332.71,429.154 332.71,420.821 333,412.5C 330.363,410.765 327.53,409.432 324.5,408.5C 323.05,409.655 322.05,411.155 321.5,413C 322.608,416.039 323.275,419.206 323.5,422.5C 322.631,426.818 322.464,431.151 323,435.5C 325.464,441.061 327.631,446.727 329.5,452.5C 327.997,456.766 324.997,459.432 320.5,460.5C 317.795,440.985 316.795,421.319 317.5,401.5C 318.5,401.5 319.5,401.5 320.5,401.5 Z"/></g>
<g><path style="opacity:0.027" fill="#625549" d="M 102.5,152.5 C 102.714,160.476 104.38,168.143 107.5,175.5C 105.5,179.167 103.5,182.833 101.5,186.5C 104.488,190.311 106.821,194.477 108.5,199C 106.842,204.742 106.342,210.575 107,216.5C 107.878,219.215 109.378,221.549 111.5,223.5C 109.151,226.017 106.651,228.35 104,230.5C 98.4392,241.531 96.4392,253.197 98,265.5C 98.6064,268.548 100.106,271.048 102.5,273C 106.589,275.127 110.423,277.627 114,280.5C 114.308,279.692 114.808,279.025 115.5,278.5C 117.115,279.154 118.782,279.654 120.5,280C 121.574,280.739 122.241,281.739 122.5,283C 120.067,287.104 117.233,290.937 114,294.5C 113.737,299.851 113.737,305.184 114,310.5C 109.982,316.437 108.315,323.104 109,330.5C 106.713,333.78 104.88,337.28 103.5,341C 104.256,343.856 105.089,346.689 106,349.5C 106.333,357.167 106.667,364.833 107,372.5C 107.308,373.308 107.808,373.975 108.5,374.5C 111.875,375.903 115.209,377.403 118.5,379C 121.062,383.518 120.895,388.018 118,392.5C 104.711,401.174 104.044,410.84 116,421.5C 116.401,426.601 116.068,431.601 115,436.5C 120.989,446.48 125.322,457.147 128,468.5C 129.885,470.02 132.051,471.02 134.5,471.5C 141.209,470.163 147.209,467.497 152.5,463.5C 153.376,463.631 154.043,463.298 154.5,462.5C 153.691,460.929 153.357,459.262 153.5,457.5C 154.957,459.752 156.457,459.419 158,456.5C 159.186,450.931 161.519,445.931 165,441.5C 165.532,429.474 165.532,417.474 165,405.5C 169.836,405.821 172.669,408.321 173.5,413C 170.884,419.182 170.884,425.348 173.5,431.5C 171.129,436.253 169.296,441.253 168,446.5C 166.431,451.625 167.931,455.459 172.5,458C 174.921,459.812 176.921,459.646 178.5,457.5C 178.167,459.5 177.833,461.5 177.5,463.5C 172.638,462.105 168.305,459.772 164.5,456.5C 156.505,465.419 146.671,471.419 135,474.5C 131.24,473.848 127.74,472.515 124.5,470.5C 123.732,466.555 123.232,462.555 123,458.5C 119.919,453.219 117.586,447.552 116,441.5C 114.354,443.609 113.188,445.943 112.5,448.5C 111.596,447.791 111.263,446.791 111.5,445.5C 111.451,437.876 109.784,430.876 106.5,424.5C 106.5,422.167 106.5,419.833 106.5,417.5C 106.5,411.5 106.5,405.5 106.5,399.5C 108.752,396.068 111.252,392.734 114,389.5C 116.155,386.46 115.988,383.627 113.5,381C 110.859,378.791 108.025,378.291 105,379.5C 103.873,376.623 103.206,373.623 103,370.5C 102.167,358.819 102.334,347.152 103.5,335.5C 105.297,333.869 106.464,331.869 107,329.5C 107.169,323.141 107.669,316.807 108.5,310.5C 109.799,309.91 110.632,308.91 111,307.5C 111.499,303.848 111.665,300.182 111.5,296.5C 112.055,292.988 111.388,289.988 109.5,287.5C 106.216,285.883 103.549,283.55 101.5,280.5C 102.029,274.694 99.3626,271.694 93.5,271.5C 92.9844,257.045 93.9844,242.712 96.5,228.5C 98.451,228.773 99.951,228.107 101,226.5C 101.936,215.614 101.436,204.947 99.5,194.5C 99.6961,180.294 100.696,166.294 102.5,152.5 Z"/></g>
<g><path style="opacity:0.417" fill="#574534" d="M 124.5,395.5 C 125.348,405.924 126.848,416.257 129,426.5C 132.584,439.006 138.751,450.006 147.5,459.5C 143.744,462.088 139.91,462.088 136,459.5C 132.802,450.77 128.802,442.437 124,434.5C 124.291,429.856 124.291,425.189 124,420.5C 123.333,419.167 122.667,417.833 122,416.5C 117.805,413.501 113.972,410.167 110.5,406.5C 114.792,402.71 118.958,398.71 123,394.5C 123.383,395.056 123.883,395.389 124.5,395.5 Z"/></g>
<g><path style="opacity:0.008" fill="#8b8785" d="M 390.5,403.5 C 390.666,412.839 390.5,422.173 390,431.5C 389.275,436.077 388.108,440.41 386.5,444.5C 386.5,441.5 386.5,438.5 386.5,435.5C 387.017,431.778 387.85,428.112 389,424.5C 389.333,414.5 389.667,404.5 390,394.5C 390.498,397.482 390.665,400.482 390.5,403.5 Z"/></g>
<g><path style="opacity:0.008" fill="#8c8887" d="M 106.5,424.5 C 109.784,430.876 111.451,437.876 111.5,445.5C 108.455,438.941 106.788,431.941 106.5,424.5 Z"/></g>
<g><path style="opacity:0.008" fill="#807974" d="M 274.5,435.5 C 275.822,435.33 276.989,435.663 278,436.5C 279.244,442.785 280.077,449.118 280.5,455.5C 277.118,449.346 275.118,442.68 274.5,435.5 Z"/></g>
<g><path style="opacity:0.008" fill="#7b726d" d="M 223.5,424.5 C 223.5,425.833 223.5,427.167 223.5,428.5C 223.682,437.478 221.682,445.812 217.5,453.5C 217.5,451.833 217.5,450.167 217.5,448.5C 219.204,440.35 221.204,432.35 223.5,424.5 Z"/></g>
<g><path style="opacity:0.008" fill="#817a75" d="M 112.5,451.5 C 113.643,451.908 114.643,452.575 115.5,453.5C 116.841,457.516 118.675,461.183 121,464.5C 121.49,465.793 121.657,467.127 121.5,468.5C 117.755,463.348 114.755,457.681 112.5,451.5 Z"/></g>
<g><path style="opacity:0.049" fill="#685b51" d="M 177.5,463.5 C 177.938,464.506 178.604,464.506 179.5,463.5C 184.956,466.26 190.789,467.927 197,468.5C 200.383,465.114 204.049,462.114 208,459.5C 208.667,460.167 209.333,460.833 210,461.5C 210.388,457.781 211.055,454.114 212,450.5C 212.689,449.643 213.522,448.977 214.5,448.5C 214.938,451.295 215.938,453.628 217.5,455.5C 215.863,459.118 213.863,462.451 211.5,465.5C 209.983,465.489 208.816,464.823 208,463.5C 206.764,465.538 204.931,466.705 202.5,467C 202.208,470.045 200.708,472.212 198,473.5C 196.026,473.374 193.859,473.208 191.5,473C 183.206,469.735 174.872,466.568 166.5,463.5C 159.745,469.545 152.078,474.045 143.5,477C 138.455,477.551 133.455,477.218 128.5,476C 127.922,474.583 126.922,473.75 125.5,473.5C 123.457,472.421 122.124,470.754 121.5,468.5C 121.657,467.127 121.49,465.793 121,464.5C 118.675,461.183 116.841,457.516 115.5,453.5C 114.643,452.575 113.643,451.908 112.5,451.5C 112.5,450.5 112.5,449.5 112.5,448.5C 113.188,445.943 114.354,443.609 116,441.5C 117.586,447.552 119.919,453.219 123,458.5C 123.232,462.555 123.732,466.555 124.5,470.5C 127.74,472.515 131.24,473.848 135,474.5C 146.671,471.419 156.505,465.419 164.5,456.5C 168.305,459.772 172.638,462.105 177.5,463.5 Z"/></g>
<g><path style="opacity:0.009" fill="#79716c" d="M 196.5,478.5 C 187.245,478.864 178.078,478.197 169,476.5C 167.177,477.651 165.344,478.818 163.5,480C 153.923,480.18 144.423,480.68 135,481.5C 133.961,480.756 133.461,479.756 133.5,478.5C 140.508,478.666 147.508,478.5 154.5,478C 159.543,475.626 164.043,472.459 168,468.5C 177.582,471.97 187.082,475.303 196.5,478.5 Z"/></g>
<g><path style="opacity:0.008" fill="#6f645c" d="M 211.5,465.5 C 208.894,470.433 205.561,474.767 201.5,478.5C 199.833,478.5 198.167,478.5 196.5,478.5C 187.082,475.303 177.582,471.97 168,468.5C 164.043,472.459 159.543,475.626 154.5,478C 147.508,478.5 140.508,478.666 133.5,478.5C 132.5,478.5 131.5,478.5 130.5,478.5C 127.833,477.833 126.167,476.167 125.5,473.5C 126.922,473.75 127.922,474.583 128.5,476C 133.455,477.218 138.455,477.551 143.5,477C 152.078,474.045 159.745,469.545 166.5,463.5C 174.872,466.568 183.206,469.735 191.5,473C 193.859,473.208 196.026,473.374 198,473.5C 200.708,472.212 202.208,470.045 202.5,467C 204.931,466.705 206.764,465.538 208,463.5C 208.816,464.823 209.983,465.489 211.5,465.5 Z"/></g>
<g><path style="opacity:0.008" fill="#79716c" d="M 365.5,477.5 C 365.389,478.117 365.056,478.617 364.5,479C 348.011,479.159 331.678,479.992 315.5,481.5C 310.5,481.333 305.5,481.167 300.5,481C 299.748,480.329 299.414,479.496 299.5,478.5C 308.568,478.881 317.568,478.381 326.5,477C 330.01,474.831 332.177,471.664 333,467.5C 333.561,466.978 334.228,466.645 335,466.5C 340.228,468.864 345.394,471.364 350.5,474C 355.359,475.809 360.359,476.976 365.5,477.5 Z"/></g>
<g><path style="opacity:0.008" fill="#6e635a" d="M 271.5,393.5 C 272.995,397.619 274.161,401.952 275,406.5C 275.168,414.521 275.668,422.521 276.5,430.5C 277.861,432.028 279.028,433.695 280,435.5C 280.853,439.469 281.519,443.469 282,447.5C 283.054,450.314 284.554,452.647 286.5,454.5C 288.963,458.748 291.463,463.081 294,467.5C 294.567,470.168 295.067,472.834 295.5,475.5C 305.862,475.916 315.862,473.749 325.5,469C 327.286,468.215 328.786,467.049 330,465.5C 331.015,462.79 332.515,460.457 334.5,458.5C 343.596,464.631 353.43,469.297 364,472.5C 367.121,472.208 368.621,470.541 368.5,467.5C 369.833,467.5 371.167,467.5 372.5,467.5C 372.669,463.496 374.502,460.496 378,458.5C 378.677,455.474 378.344,453.474 377,452.5C 377.667,451.167 378.333,451.167 379,452.5C 380.608,449.228 382.608,446.228 385,443.5C 385.49,444.793 385.657,446.127 385.5,447.5C 385.477,449.927 384.977,452.26 384,454.5C 382.139,456.888 380.806,459.554 380,462.5C 377.906,464.921 376.24,467.588 375,470.5C 372.584,473.088 370.084,475.422 367.5,477.5C 366.833,477.5 366.167,477.5 365.5,477.5C 360.359,476.976 355.359,475.809 350.5,474C 345.394,471.364 340.228,468.864 335,466.5C 334.228,466.645 333.561,466.978 333,467.5C 332.177,471.664 330.01,474.831 326.5,477C 317.568,478.381 308.568,478.881 299.5,478.5C 298.5,478.5 297.5,478.5 296.5,478.5C 288.469,472.792 283.136,465.125 280.5,455.5C 280.077,449.118 279.244,442.785 278,436.5C 276.989,435.663 275.822,435.33 274.5,435.5C 274.5,434.833 274.5,434.167 274.5,433.5C 274.818,420.061 273.818,406.728 271.5,393.5 Z"/></g>
<g><path style="opacity:0.008" fill="#8a8582" d="M 196.5,478.5 C 198.167,478.5 199.833,478.5 201.5,478.5C 200.426,479.885 199.093,481.051 197.5,482C 176.167,482.667 154.833,482.667 133.5,482C 132.29,480.961 131.29,479.794 130.5,478.5C 131.5,478.5 132.5,478.5 133.5,478.5C 133.461,479.756 133.961,480.756 135,481.5C 144.423,480.68 153.923,480.18 163.5,480C 165.344,478.818 167.177,477.651 169,476.5C 178.078,478.197 187.245,478.864 196.5,478.5 Z"/></g>
<g><path style="opacity:0.008" fill="#918d8d" d="M 365.5,477.5 C 366.167,477.5 366.833,477.5 367.5,477.5C 366.375,479.129 365.041,480.629 363.5,482C 342.167,482.667 320.833,482.667 299.5,482C 297.937,481.241 296.937,480.074 296.5,478.5C 297.5,478.5 298.5,478.5 299.5,478.5C 299.414,479.496 299.748,480.329 300.5,481C 305.5,481.167 310.5,481.333 315.5,481.5C 331.678,479.992 348.011,479.159 364.5,479C 365.056,478.617 365.389,478.117 365.5,477.5 Z"/></g>
</svg>
