<?xml version="1.0" encoding="UTF-8"?>
<!DOCTYPE svg PUBLIC "-//W3C//DTD SVG 1.1//EN" "http://www.w3.org/Graphics/SVG/1.1/DTD/svg11.dtd">
<svg xmlns="http://www.w3.org/2000/svg" version="1.1" width="500px" height="500px" style="shape-rendering:geometricPrecision; text-rendering:geometricPrecision; image-rendering:optimizeQuality; fill-rule:evenodd; clip-rule:evenodd" xmlns:xlink="http://www.w3.org/1999/xlink">
<g><path style="opacity:0.03" fill="#4e3b27" d="M 213.5,456.5 C 212.527,458.25 211.193,459.75 209.5,461C 196.851,462.857 184.185,462.857 171.5,461C 171,460.5 170.5,460 170,459.5C 160.566,460.294 152.233,456.627 145,448.5C 143.89,446.058 142.39,443.891 140.5,442C 137.99,441.624 135.657,440.79 133.5,439.5C 133.667,439.167 133.833,438.833 134,438.5C 135.667,439.167 137.333,439.833 139,440.5C 139.5,440 140,439.5 140.5,439C 139.088,434.722 137.255,430.222 135,425.5C 122.809,418.977 112.809,409.977 105,398.5C 103.077,404.746 103.077,411.079 105,417.5C 111.623,420.062 118.456,422.062 125.5,423.5C 126.647,423.818 127.481,424.484 128,425.5C 132.23,434.954 132.23,444.287 128,453.5C 126.048,455.894 123.548,457.394 120.5,458C 105.464,460.757 91.1305,458.757 77.5,452C 75.1227,449.492 72.7894,446.992 70.5,444.5C 68.5702,439.878 66.7369,435.212 65,430.5C 60.4435,428.897 55.9435,427.064 51.5,425C 47.3305,418.673 44.9972,411.673 44.5,404C 44.6328,381.681 44.6328,359.347 44.5,337C 44.2583,325.576 45.7583,314.41 49,303.5C 51.0836,299.664 53.417,295.997 56,292.5C 56.2315,288.445 56.7315,284.445 57.5,280.5C 57.1667,279.833 56.8333,279.167 56.5,278.5C 58.5071,271.609 60.8405,264.776 63.5,258C 69.7643,254.926 76.2643,254.093 83,255.5C 86.2208,252.279 89.3874,249.113 92.5,246C 101.641,242.544 110.641,242.877 119.5,247C 122.572,249.809 124.905,253.142 126.5,257C 143.886,257.943 161.22,257.61 178.5,256C 185.169,252.997 191.002,248.831 196,243.5C 212.667,222.167 229.333,200.833 246,179.5C 247.009,177.975 247.509,176.308 247.5,174.5C 240.258,174.633 233.091,173.966 226,172.5C 216.095,175.258 206.262,175.091 196.5,172C 189.866,165.442 184.366,158.609 180,151.5C 178.043,143.491 178.043,135.491 180,127.5C 180.792,125.413 181.959,123.579 183.5,122C 187.833,119 192.167,116 196.5,113C 199.791,110.668 200.291,107.835 198,104.5C 189.911,96.5655 182.078,88.5655 174.5,80.5C 172.744,78.4457 172.41,76.279 173.5,74C 172.299,73.0975 171.465,71.9308 171,70.5C 170.242,64.1093 170.576,57.7759 172,51.5C 174.28,47.5533 176.947,43.8866 180,40.5C 185.26,35.3017 191.593,32.6351 199,32.5C 205.423,33.1911 211.756,34.5244 218,36.5C 222.141,35.671 226.307,35.0043 230.5,34.5C 242.63,36.1603 254.63,37.327 266.5,38C 271.214,38.3834 274.547,40.7167 276.5,45C 284.752,43.8191 292.752,44.8191 300.5,48C 306.896,57.4014 312.896,67.0681 318.5,77C 337.904,77.8633 357.238,79.53 376.5,82C 410.701,88.3154 429.034,107.815 431.5,140.5C 432.347,144.954 433.014,149.454 433.5,154C 433.362,157.614 433.029,161.28 432.5,165C 433.316,172.421 433.816,179.921 434,187.5C 437.145,190.734 440.478,193.734 444,196.5C 447.293,203.717 448.126,211.217 446.5,219C 449.815,230.661 450.148,241.994 447.5,253C 449.291,256.185 450.291,259.685 450.5,263.5C 449.492,267.004 449.492,270.504 450.5,274C 449.833,274.667 449.167,275.333 448.5,276C 448.616,277.268 448.949,278.602 449.5,280C 448.672,280.915 447.672,281.581 446.5,282C 448.694,283.553 449.86,285.719 450,288.5C 450.333,288.167 450.667,287.833 451,287.5C 451.121,291.299 451.954,294.966 453.5,298.5C 452.4,300.947 452.4,303.447 453.5,306C 453.252,307.716 452.585,309.216 451.5,310.5C 452.963,313.28 452.296,315.447 449.5,317C 450.006,319.496 450.006,321.83 449.5,324C 451.564,325.018 451.898,326.351 450.5,328C 451.394,329.396 452.061,330.896 452.5,332.5C 451.866,337.01 451.199,341.51 450.5,346C 450.645,346.772 450.978,347.439 451.5,348C 447.519,351.82 444.519,356.32 442.5,361.5C 443.436,367.242 444.103,372.742 444.5,378C 443.67,379.747 442.67,381.413 441.5,383C 442.496,385.98 441.496,388.313 438.5,390C 438.833,390.333 439.167,390.667 439.5,391C 435.512,393.328 431.179,394.662 426.5,395C 425.636,396.137 424.636,397.47 423.5,399C 423.957,399.414 424.291,399.914 424.5,400.5C 423.187,403.405 422.687,406.405 423,409.5C 426.685,416.87 430.185,423.87 433.5,430.5C 432.529,431.962 432.862,433.295 434.5,434.5C 433.374,440.173 433.208,445.839 434,451.5C 433.667,452.5 433.333,453.5 433,454.5C 432.667,454.167 432.333,453.833 432,453.5C 430.418,454.96 429.085,456.627 428,458.5C 427.667,458.167 427.333,457.833 427,457.5C 424.808,459.235 422.308,460.402 419.5,461C 407.009,461.301 394.842,461.467 383,461.5C 374.225,461.246 366.892,457.912 361,451.5C 357.261,443.477 353.428,436.31 349.5,430C 347.444,429.689 345.444,429.189 343.5,428.5C 332.186,429.222 320.853,430.056 309.5,431C 309.167,431.333 308.833,431.667 308.5,432C 310.987,439.396 311.154,446.896 309,454.5C 306.004,460.261 301.171,463.428 294.5,464C 283.183,465.402 272.35,465.902 262,465.5C 253.481,464.923 244.981,463.923 236.5,462.5C 235.914,462.709 235.414,463.043 235,463.5C 231.868,461.228 228.702,459.728 225.5,459C 223.587,457.209 221.92,455.209 220.5,453C 219.833,452.833 219.167,452.667 218.5,452.5C 216.814,453.857 215.148,455.19 213.5,456.5 Z M 299.5,159.5 C 301.144,159.286 302.644,159.62 304,160.5C 306.097,167.817 306.93,175.15 306.5,182.5C 304.535,183.292 302.535,183.959 300.5,184.5C 299.914,184.291 299.414,183.957 299,183.5C 298.2,175.421 298.367,167.421 299.5,159.5 Z"/></g>
<g><path style="opacity:0.12" fill="#443322" d="M 193.5,40.5 C 202.102,40.5194 210.602,42.1861 219,45.5C 220.895,44.3114 222.895,43.3114 225,42.5C 234.374,42.7686 243.708,44.102 253,46.5C 253.519,45.4844 254.353,44.8178 255.5,44.5C 263.023,44.8502 269.523,47.5169 275,52.5C 276.073,51.7203 277.24,51.887 278.5,53C 282.833,53.3333 287.167,53.6667 291.5,54C 293.664,54.9143 295.664,56.081 297.5,57.5C 301.453,62.2123 304.953,67.2123 308,72.5C 308.298,77.963 311.131,80.963 316.5,81.5C 317.251,82.376 317.751,83.376 318,84.5C 325.569,83.6427 333.069,83.3094 340.5,83.5C 342.593,83.4858 344.426,84.1524 346,85.5C 346.689,84.6433 347.522,83.9767 348.5,83.5C 366.697,85.5413 384.03,90.3747 400.5,98C 401.977,100.148 403.977,101.482 406.5,102C 409.724,106.217 413.224,110.051 417,113.5C 419.904,119.574 422.737,125.741 425.5,132C 426.489,136.286 426.489,140.786 425.5,145.5C 426.87,148.572 427.87,151.739 428.5,155C 427.929,162.459 427.596,169.959 427.5,177.5C 428.287,182.841 429.12,188.174 430,193.5C 438.722,200.522 441.889,209.189 439.5,219.5C 441.333,226.812 442,234.145 441.5,241.5C 440.5,242.333 439.5,243.167 438.5,244C 440.091,246.386 441.091,249.053 441.5,252C 440.427,253.313 439.76,254.813 439.5,256.5C 440.701,259.734 442.035,262.901 443.5,266C 439.092,270.129 438.758,274.296 442.5,278.5C 442.125,280.459 441.459,282.293 440.5,284C 441.765,287.825 443.765,291.158 446.5,294C 446.469,298.302 446.469,302.636 446.5,307C 443.83,311.111 441.83,315.278 440.5,319.5C 442.164,324.114 443.83,328.78 445.5,333.5C 446.156,341.196 443.489,348.029 437.5,354C 437.501,355.399 437.835,356.899 438.5,358.5C 436.945,361.83 435.945,365.33 435.5,369C 436.238,370.824 436.572,372.824 436.5,375C 435.157,378.839 433.157,382.339 430.5,385.5C 428.922,386.298 427.256,386.798 425.5,387C 424.468,389.874 422.468,391.374 419.5,391.5C 419.607,393.903 418.607,395.736 416.5,397C 416.833,397.333 417.167,397.667 417.5,398C 416.5,398.833 415.5,399.667 414.5,400.5C 412.844,403.908 411.51,407.075 410.5,410C 412.688,413.022 415.355,415.522 418.5,417.5C 420.373,421.626 422.706,425.459 425.5,429C 425.167,429.333 424.833,429.667 424.5,430C 427.059,432.571 427.726,435.571 426.5,439C 426.903,440.473 427.57,441.806 428.5,443C 424.51,449.477 418.843,453.977 411.5,456.5C 407.876,455.646 404.209,455.646 400.5,456.5C 397.033,456.466 393.7,455.8 390.5,454.5C 380.763,455.342 372.596,452.008 366,444.5C 362.806,437.947 358.972,431.78 354.5,426C 345.477,423.312 336.477,423.146 327.5,425.5C 318.157,424.832 308.657,424.832 299,425.5C 297.095,426.681 295.595,428.181 294.5,430C 301.499,435.667 303.666,442.834 301,451.5C 295.017,458.05 287.683,460.383 279,458.5C 273.754,459.718 268.588,460.384 263.5,460.5C 261.586,458.406 259.419,458.406 257,460.5C 255,460.5 253,460.5 251,460.5C 249.288,457.47 246.954,456.803 244,458.5C 236.197,455.679 229.697,451.012 224.5,444.5C 223.085,439.723 220.752,435.556 217.5,432C 218.276,430.23 218.11,428.397 217,426.5C 214.707,424.628 212.207,423.128 209.5,422C 203.616,422.045 197.616,421.878 191.5,421.5C 188.174,422.047 184.84,422.547 181.5,423C 179.427,423.118 178.093,424.118 177.5,426C 180.41,429.794 184.077,431.294 188.5,430.5C 191.466,431.325 194.466,431.992 197.5,432.5C 199.831,434.479 202.497,435.812 205.5,436.5C 208.631,444.681 206.131,451.348 198,456.5C 197.549,454.071 196.715,453.904 195.5,456C 188.66,456.402 181.993,456.569 175.5,456.5C 174.201,455.91 173.368,454.91 173,453.5C 170.115,454.235 167.782,453.235 166,450.5C 165.333,451.167 164.667,451.833 164,452.5C 158.635,448.981 153.635,444.981 149,440.5C 146,434.167 143,427.833 140,421.5C 131.056,415.223 122.723,408.223 115,400.5C 111.042,393.557 106.375,387.223 101,381.5C 100.581,382.672 99.9147,383.672 99,384.5C 98.5571,395.675 98.3905,406.675 98.5,417.5C 99.1667,418.833 99.8333,420.167 100.5,421.5C 106.464,423.816 111.797,427.149 116.5,431.5C 117.425,430.359 118.259,430.359 119,431.5C 120.3,434.295 121.8,436.961 123.5,439.5C 122.108,446.041 118.441,450.541 112.5,453C 106.833,453.667 101.167,453.667 95.5,453C 95.8333,452.667 96.1667,452.333 96.5,452C 95.1456,450.706 93.8123,450.54 92.5,451.5C 81.1877,445.527 73.5211,436.527 69.5,424.5C 66.5,424.833 65.1667,423.5 65.5,420.5C 62.7743,420.736 60.441,419.903 58.5,418C 56.9632,416.89 56.2965,415.39 56.5,413.5C 53.9505,413.439 52.4505,412.106 52,409.5C 51.654,407.782 51.154,406.115 50.5,404.5C 51.1667,403.833 51.8333,403.167 52.5,402.5C 50.5761,400.991 49.4094,398.991 49,396.5C 48.3333,384.167 48.3333,371.833 49,359.5C 49.5,358.5 50,357.5 50.5,356.5C 48.9461,352.61 49.2794,348.943 51.5,345.5C 51.1543,344.304 50.6543,344.304 50,345.5C 49.8333,342.667 49.6667,339.833 49.5,337C 49.3101,332.806 49.9767,328.806 51.5,325C 50.8333,324.333 50.1667,323.667 49.5,323C 51.2469,318.288 52.7469,313.454 54,308.5C 59.0013,304.817 61.5013,300.151 61.5,294.5C 62.4911,293.335 63.4911,292.168 64.5,291C 62.9977,288.994 63.331,287.328 65.5,286C 65.5,282.667 65.5,279.333 65.5,276C 66.734,272.8 68.0673,269.633 69.5,266.5C 72.6803,264.908 75.847,263.241 79,261.5C 79.772,261.645 80.4387,261.978 81,262.5C 85.2703,260.631 89.7703,259.131 94.5,258C 98.4582,252.009 103.792,250.343 110.5,253C 115.346,258.262 121.18,261.762 128,263.5C 142.495,263.247 156.828,263.247 171,263.5C 181.92,261.864 191.586,257.531 200,250.5C 204.515,243.303 209.849,236.636 216,230.5C 216.862,228.913 217.529,227.246 218,225.5C 235.225,205.91 251.392,185.41 266.5,164C 265.167,163.333 265.167,162.667 266.5,162C 264.167,161.333 261.833,161.333 259.5,162C 253.589,163.736 247.922,165.903 242.5,168.5C 237.272,166.526 231.938,164.859 226.5,163.5C 221.581,165.021 215.748,166.687 209,168.5C 203.791,166.218 198.958,163.385 194.5,160C 190.384,154.436 187.051,148.436 184.5,142C 184.903,139.359 185.903,137.026 187.5,135C 187.167,134 186.833,133 186.5,132C 190.172,125.488 195.505,120.821 202.5,118C 204.878,114.965 207.211,111.965 209.5,109C 208.804,107.107 207.97,105.274 207,103.5C 203.445,100.698 200.112,97.698 197,94.5C 196.781,93.062 196.281,91.7287 195.5,90.5C 191.796,87.2937 188.296,83.9604 185,80.5C 182.17,76.1726 179.836,71.5059 178,66.5C 177.111,67.8882 176.611,67.7215 176.5,66C 176.531,59.8564 178.364,54.3564 182,49.5C 185.758,46.2228 189.591,43.2228 193.5,40.5 Z M 299.5,159.5 C 298.367,167.421 298.2,175.421 299,183.5C 299.414,183.957 299.914,184.291 300.5,184.5C 302.535,183.959 304.535,183.292 306.5,182.5C 306.93,175.15 306.097,167.817 304,160.5C 302.644,159.62 301.144,159.286 299.5,159.5 Z"/></g>
<g><path style="opacity:0.195" fill="#3c2c1d" d="M 255.5,53.5 C 252.16,57.1724 248.827,60.8391 245.5,64.5C 241.45,60.1205 237.45,55.7871 233.5,51.5C 232.746,49.5541 231.412,48.7207 229.5,49C 224.973,53.8922 220.807,59.0589 217,64.5C 210.903,58.5721 205.069,52.5721 199.5,46.5C 194.157,51.8443 189.157,57.511 184.5,63.5C 198.798,79.7999 213.465,95.7999 228.5,111.5C 217.408,119.939 206.074,127.939 194.5,135.5C 193.732,134.737 193.232,133.737 193,132.5C 192.667,132.833 192.333,133.167 192,133.5C 191.333,132.5 191.333,131.5 192,130.5C 198.015,124.82 204.349,119.487 211,114.5C 213.321,109.416 212.655,104.75 209,100.5C 199.426,91.2632 190.593,81.4298 182.5,71C 183.28,69.927 183.113,68.7604 182,67.5C 180.531,61.0506 181.864,55.3839 186,50.5C 187.011,49.6634 188.178,49.33 189.5,49.5C 190.722,45.8725 193.388,44.2059 197.5,44.5C 203.857,45.4713 210.024,47.138 216,49.5C 221.054,48.316 225.887,46.6493 230.5,44.5C 235.646,46.87 240.98,48.87 246.5,50.5C 249.461,50.1346 252.627,49.4679 256,48.5C 256.448,50.4089 255.615,51.5756 253.5,52C 254.416,52.2784 255.082,52.7784 255.5,53.5 Z"/></g>
<g><path style="opacity:0.973" fill="#d37a11" d="M 233.5,51.5 C 233.461,52.5832 233.127,53.5832 232.5,54.5C 233.167,55.1667 233.833,55.8333 234.5,56.5C 233.215,59.0205 232.548,61.6872 232.5,64.5C 234.881,65.4196 237.214,65.4196 239.5,64.5C 240.386,65.325 240.719,66.325 240.5,67.5C 237.262,66.6051 234.095,66.6051 231,67.5C 229.513,66.7471 229.346,65.9138 230.5,65C 229.365,64.2506 228.365,64.4173 227.5,65.5C 228.313,66.8139 229.313,67.9805 230.5,69C 233.2,69.2532 235.867,69.2532 238.5,69C 235.031,73.0995 231.031,76.5995 226.5,79.5C 225.756,80.9905 225.09,82.4905 224.5,84C 225,84.5 225.5,85 226,85.5C 228.312,83.8404 230.812,83.0071 233.5,83C 230.667,84.8333 230.833,86.3333 234,87.5C 235,86.1667 236,86.1667 237,87.5C 237.167,87.1667 237.333,86.8333 237.5,86.5C 233.577,84.8869 233.744,83.5535 238,82.5C 239.364,83.3707 240.53,84.3707 241.5,85.5C 239.895,86.0059 239.561,86.6726 240.5,87.5C 240.539,88.5832 240.873,89.5832 241.5,90.5C 236.106,92.0649 235.439,94.5649 239.5,98C 238.289,99.1131 238.289,100.28 239.5,101.5C 241.631,102.169 243.631,102.835 245.5,103.5C 242.366,104.901 239.366,106.568 236.5,108.5C 235.289,109.274 235.289,110.107 236.5,111C 246.826,115.082 257.493,117.915 268.5,119.5C 268.5,120.5 268.5,121.5 268.5,122.5C 263.658,123.043 258.825,123.709 254,124.5C 249.266,122.487 244.433,122.653 239.5,125C 242.863,125.545 245.863,126.878 248.5,129C 246.377,131.799 243.71,133.799 240.5,135C 242.037,136.11 242.703,137.61 242.5,139.5C 240.409,139.682 238.409,139.348 236.5,138.5C 234.276,139.081 233.443,140.414 234,142.5C 236.459,139.9 238.959,139.9 241.5,142.5C 241.291,143.086 240.957,143.586 240.5,144C 242.907,145.267 245.24,145.767 247.5,145.5C 247.833,145.833 248.167,146.167 248.5,146.5C 247.5,147.333 246.5,148.167 245.5,149C 246.821,150.545 246.488,151.711 244.5,152.5C 241.56,150.706 238.893,150.706 236.5,152.5C 234.866,152.032 233.7,151.032 233,149.5C 232.617,150.056 232.117,150.389 231.5,150.5C 229.537,149.04 227.704,147.373 226,145.5C 221.297,150.035 216.797,154.702 212.5,159.5C 211.577,160.303 210.577,160.47 209.5,160C 203.644,153.778 198.144,147.278 193,140.5C 192.387,138.505 192.887,136.838 194.5,135.5C 206.074,127.939 217.408,119.939 228.5,111.5C 213.465,95.7999 198.798,79.7999 184.5,63.5C 189.157,57.511 194.157,51.8443 199.5,46.5C 205.069,52.5721 210.903,58.5721 217,64.5C 220.807,59.0589 224.973,53.8922 229.5,49C 231.412,48.7207 232.746,49.5541 233.5,51.5 Z"/></g>
<g><path style="opacity:0.925" fill="#ce7712" d="M 273.5,68.5 C 276.199,68.5339 278.699,67.8672 281,66.5C 282.6,67.8659 284.433,68.8659 286.5,69.5C 283.026,74.465 278.693,78.465 273.5,81.5C 271.193,80.009 268.693,79.009 266,78.5C 264.759,80.6395 263.093,80.9729 261,79.5C 259.105,79.6148 257.438,80.2815 256,81.5C 253.627,79.1499 251.127,78.9833 248.5,81C 250.211,82.1332 250.711,83.6332 250,85.5C 247.96,83.9594 245.793,82.6261 243.5,81.5C 244.911,79.9825 244.744,78.6492 243,77.5C 242.289,79.8991 242.456,82.2324 243.5,84.5C 243.043,85.2975 242.376,85.6309 241.5,85.5C 240.53,84.3707 239.364,83.3707 238,82.5C 233.744,83.5535 233.577,84.8869 237.5,86.5C 237.333,86.8333 237.167,87.1667 237,87.5C 236,86.1667 235,86.1667 234,87.5C 230.833,86.3333 230.667,84.8333 233.5,83C 230.812,83.0071 228.312,83.8404 226,85.5C 225.5,85 225,84.5 224.5,84C 225.09,82.4905 225.756,80.9905 226.5,79.5C 231.031,76.5995 235.031,73.0995 238.5,69C 235.867,69.2532 233.2,69.2532 230.5,69C 229.313,67.9805 228.313,66.8139 227.5,65.5C 228.365,64.4173 229.365,64.2506 230.5,65C 229.346,65.9138 229.513,66.7471 231,67.5C 234.095,66.6051 237.262,66.6051 240.5,67.5C 240.719,66.325 240.386,65.325 239.5,64.5C 237.214,65.4196 234.881,65.4196 232.5,64.5C 232.548,61.6872 233.215,59.0205 234.5,56.5C 233.833,55.8333 233.167,55.1667 232.5,54.5C 233.127,53.5832 233.461,52.5832 233.5,51.5C 237.45,55.7871 241.45,60.1205 245.5,64.5C 248.827,60.8391 252.16,57.1724 255.5,53.5C 256.712,52.7701 257.712,51.7701 258.5,50.5C 263.518,56.5707 268.518,62.5707 273.5,68.5 Z"/></g>
<g><path style="opacity:0.825" fill="#bd7015" d="M 290.5,63.5 C 293.258,69.3519 296.258,75.0185 299.5,80.5C 297.547,81.9988 295.88,81.6655 294.5,79.5C 293.52,80.9814 292.353,82.3147 291,83.5C 290.137,81.2511 290.637,79.4178 292.5,78C 290.598,77.8008 289.098,76.9675 288,75.5C 281.66,78.6284 275.16,81.6284 268.5,84.5C 264.179,82.2353 260.179,82.902 256.5,86.5C 256.167,85.8333 255.833,85.1667 255.5,84.5C 252.953,85.5489 250.786,86.8822 249,88.5C 246.939,84.5621 244.773,84.5621 242.5,88.5C 241.817,88.1373 241.15,87.8039 240.5,87.5C 239.561,86.6726 239.895,86.0059 241.5,85.5C 242.376,85.6309 243.043,85.2975 243.5,84.5C 242.456,82.2324 242.289,79.8991 243,77.5C 244.744,78.6492 244.911,79.9825 243.5,81.5C 245.793,82.6261 247.96,83.9594 250,85.5C 250.711,83.6332 250.211,82.1332 248.5,81C 251.127,78.9833 253.627,79.1499 256,81.5C 257.438,80.2815 259.105,79.6148 261,79.5C 263.093,80.9729 264.759,80.6395 266,78.5C 268.693,79.009 271.193,80.009 273.5,81.5C 278.693,78.465 283.026,74.465 286.5,69.5C 284.433,68.8659 282.6,67.8659 281,66.5C 278.699,67.8672 276.199,68.5339 273.5,68.5C 277.584,64.9446 281.918,61.6113 286.5,58.5C 288.082,60.0147 289.416,61.6814 290.5,63.5 Z"/></g>
<g><path style="opacity:0.948" fill="#ce7812" d="M 299.5,80.5 C 302.669,84.833 305.336,89.4997 307.5,94.5C 286.187,93.5793 265.52,96.5793 245.5,103.5C 243.631,102.835 241.631,102.169 239.5,101.5C 238.289,100.28 238.289,99.1131 239.5,98C 235.439,94.5649 236.106,92.0649 241.5,90.5C 240.873,89.5832 240.539,88.5832 240.5,87.5C 241.15,87.8039 241.817,88.1373 242.5,88.5C 244.773,84.5621 246.939,84.5621 249,88.5C 250.786,86.8822 252.953,85.5489 255.5,84.5C 255.833,85.1667 256.167,85.8333 256.5,86.5C 260.179,82.902 264.179,82.2353 268.5,84.5C 275.16,81.6284 281.66,78.6284 288,75.5C 289.098,76.9675 290.598,77.8008 292.5,78C 290.637,79.4178 290.137,81.2511 291,83.5C 292.353,82.3147 293.52,80.9814 294.5,79.5C 295.88,81.6655 297.547,81.9988 299.5,80.5 Z"/></g>
<g><path style="opacity:0.344" fill="#392b1c" d="M 432.5,234.5 C 428.839,231.835 425.839,228.502 423.5,224.5C 426.833,220.167 430.167,215.833 433.5,211.5C 428.468,206.467 423.135,201.801 417.5,197.5C 416.57,193.6 416.237,189.6 416.5,185.5C 417.908,169.965 417.741,154.298 416,138.5C 411.823,119.661 400.656,107.161 382.5,101C 372.377,98.0345 362.044,96.0345 351.5,95C 336.837,94.5001 322.17,94.3334 307.5,94.5C 305.336,89.4997 302.669,84.833 299.5,80.5C 296.258,75.0185 293.258,69.3519 290.5,63.5C 291.251,62.4265 292.251,62.2599 293.5,63C 299.54,67.7108 303.04,73.8775 304,81.5C 309.928,85.8847 316.594,88.5513 324,89.5C 327.442,89.6745 330.775,89.3411 334,88.5C 337.64,89.5447 341.306,90.5447 345,91.5C 348.833,90.2666 352.667,90.2666 356.5,91.5C 355.5,92.1667 354.5,92.8333 353.5,93.5C 354.167,93.8333 354.833,94.1667 355.5,94.5C 357.722,93.2217 360.056,92.2217 362.5,91.5C 366.063,92.773 369.563,94.1063 373,95.5C 373.772,95.3552 374.439,95.0219 375,94.5C 381.106,97.7901 387.606,99.9568 394.5,101C 400.272,103.634 405.439,107.134 410,111.5C 410.717,114.215 412.217,116.382 414.5,118C 417.731,124.281 420.397,130.447 422.5,136.5C 422.291,137.086 421.957,137.586 421.5,138C 423.126,142.979 424.126,148.145 424.5,153.5C 424.268,156.992 423.935,160.492 423.5,164C 423.861,166.449 424.528,168.782 425.5,171C 425.152,177.215 424.819,183.215 424.5,189C 427.178,194.849 430.511,200.349 434.5,205.5C 435.538,209.095 436.204,212.762 436.5,216.5C 436.299,222.532 436.299,228.532 436.5,234.5C 438.04,235.532 438.54,236.865 438,238.5C 436.504,236.589 435.171,234.589 434,232.5C 433.722,233.416 433.222,234.082 432.5,234.5 Z"/></g>
<g><path style="opacity:0.904" fill="#65613c" d="M 307.5,94.5 C 322.17,94.3334 336.837,94.5001 351.5,95C 362.044,96.0345 372.377,98.0345 382.5,101C 400.656,107.161 411.823,119.661 416,138.5C 417.741,154.298 417.908,169.965 416.5,185.5C 416.666,178.825 416.5,172.158 416,165.5C 413.381,166.465 411.381,168.132 410,170.5C 409.5,170.333 409,170.167 408.5,170C 409.956,169.577 410.456,168.744 410,167.5C 407.568,168.293 405.234,168.626 403,168.5C 401.926,167.382 400.76,166.382 399.5,165.5C 400.956,165.678 402.289,164.844 403.5,163C 402.692,162.692 402.025,162.192 401.5,161.5C 402.687,160.481 403.687,159.314 404.5,158C 403.833,157.667 403.167,157.333 402.5,157C 406.428,156.371 410.095,154.537 413.5,151.5C 411.337,149.28 408.837,148.947 406,150.5C 404.348,149.601 402.848,148.601 401.5,147.5C 403.687,142.168 401.854,139.168 396,138.5C 393.889,138.701 392.055,139.367 390.5,140.5C 388.588,139.277 385.922,138.277 382.5,137.5C 383.66,136.735 384.66,135.735 385.5,134.5C 382.145,130.813 378.811,127.147 375.5,123.5C 375.44,122.957 375.107,122.624 374.5,122.5C 373.513,125.768 373.18,129.102 373.5,132.5C 370.05,133.244 368.384,131.91 368.5,128.5C 364.901,128.738 364.567,127.738 367.5,125.5C 367.058,124.261 366.391,123.261 365.5,122.5C 364.848,121.275 363.681,120.608 362,120.5C 355.687,121.279 354.187,124.279 357.5,129.5C 358.609,130.29 359.942,130.79 361.5,131C 360.167,131.333 358.833,131.667 357.5,132C 358.654,132.914 358.487,133.747 357,134.5C 356.481,133.484 355.647,132.818 354.5,132.5C 353.137,133.198 351.971,133.198 351,132.5C 350.536,133.094 350.369,133.761 350.5,134.5C 349.771,131.459 348.604,128.459 347,125.5C 346.329,124.748 345.496,124.414 344.5,124.5C 345.605,122.7 344.939,121.533 342.5,121C 336.509,120.501 330.509,120.334 324.5,120.5C 319.167,120.5 313.833,120.5 308.5,120.5C 298.5,120.5 288.5,120.5 278.5,120.5C 275.214,119.793 271.881,119.46 268.5,119.5C 257.493,117.915 246.826,115.082 236.5,111C 235.289,110.107 235.289,109.274 236.5,108.5C 239.366,106.568 242.366,104.901 245.5,103.5C 265.52,96.5793 286.187,93.5793 307.5,94.5 Z"/></g>
<g><path style="opacity:0.969" fill="#a3a99b" d="M 307.5,101.5 C 312.984,101.481 314.65,103.981 312.5,109C 305.683,109.861 304.016,107.361 307.5,101.5 Z"/></g>
<g><path style="opacity:0.961" fill="#a2a797" d="M 329.5,100.5 C 337.49,100.086 339.49,103.253 335.5,110C 328.335,110.176 326.335,107.009 329.5,100.5 Z"/></g>
<g><path style="opacity:0.876" fill="#9f9f92" d="M 288.5,101.5 C 293.213,101.468 294.713,103.801 293,108.5C 292.481,109.516 291.647,110.182 290.5,110.5C 288.865,109.954 287.199,109.62 285.5,109.5C 284.829,106.014 285.829,103.347 288.5,101.5 Z"/></g>
<g><path style="opacity:0.869" fill="#9d9f90" d="M 269.5,103.5 C 274.486,103.305 276.152,105.472 274.5,110C 268.731,111.178 267.064,109.011 269.5,103.5 Z"/></g>
<g><path style="opacity:0.9" fill="#999c87" d="M 254.5,104.5 C 258.473,105.075 259.473,107.242 257.5,111C 252.382,110.824 251.382,108.658 254.5,104.5 Z"/></g>
<g><path style="opacity:0.871" fill="#a0a094" d="M 353.5,105.5 C 359.487,104.977 361.487,107.477 359.5,113C 351.839,115.168 349.839,112.668 353.5,105.5 Z"/></g>
<g><path style="opacity:0.919" fill="#c4af26" d="M 374.5,103.5 C 381.494,103.415 383.161,106.248 379.5,112C 377.045,113.631 374.545,113.797 372,112.5C 370.927,108.9 371.76,105.9 374.5,103.5 Z"/></g>
<g><path style="opacity:0.938" fill="#c6af25" d="M 365.5,122.5 C 365.675,127.989 363.008,130.322 357.5,129.5C 354.187,124.279 355.687,121.279 362,120.5C 363.681,120.608 364.848,121.275 365.5,122.5 Z"/></g>
<g><path style="opacity:0.859" fill="#c87513" d="M 268.5,119.5 C 271.881,119.46 275.214,119.793 278.5,120.5C 280.601,122.428 282.934,123.095 285.5,122.5C 286.696,122.846 286.696,123.346 285.5,124C 287.035,124.496 288.535,124.33 290,123.5C 291.395,123.78 292.562,124.447 293.5,125.5C 291.135,126.085 289.135,127.252 287.5,129C 290.145,129.591 290.811,130.925 289.5,133C 289.905,133.945 290.572,134.612 291.5,135C 290.566,137.701 289.232,140.201 287.5,142.5C 288.631,143.604 289.465,143.271 290,141.5C 290.417,142.756 291.25,143.423 292.5,143.5C 292.315,145.196 291.481,146.529 290,147.5C 287.214,144.65 284.047,142.816 280.5,142C 276.652,146.016 272.652,149.849 268.5,153.5C 265.147,150.313 261.647,147.313 258,144.5C 253.255,148.74 249.088,153.407 245.5,158.5C 244.518,159.141 243.518,159.807 242.5,160.5C 240.814,159.143 239.148,157.81 237.5,156.5C 235.194,154.861 233.194,152.861 231.5,150.5C 232.117,150.389 232.617,150.056 233,149.5C 233.7,151.032 234.866,152.032 236.5,152.5C 238.893,150.706 241.56,150.706 244.5,152.5C 246.488,151.711 246.821,150.545 245.5,149C 246.5,148.167 247.5,147.333 248.5,146.5C 248.167,146.167 247.833,145.833 247.5,145.5C 245.24,145.767 242.907,145.267 240.5,144C 240.957,143.586 241.291,143.086 241.5,142.5C 238.959,139.9 236.459,139.9 234,142.5C 233.443,140.414 234.276,139.081 236.5,138.5C 238.409,139.348 240.409,139.682 242.5,139.5C 242.703,137.61 242.037,136.11 240.5,135C 243.71,133.799 246.377,131.799 248.5,129C 245.863,126.878 242.863,125.545 239.5,125C 244.433,122.653 249.266,122.487 254,124.5C 258.825,123.709 263.658,123.043 268.5,122.5C 268.5,121.5 268.5,120.5 268.5,119.5 Z"/></g>
<g><path style="opacity:0.986" fill="#d37a11" d="M 324.5,120.5 C 330.509,120.334 336.509,120.501 342.5,121C 344.939,121.533 345.605,122.7 344.5,124.5C 338.996,129.167 333.33,133.667 327.5,138C 323.285,140.944 318.618,142.111 313.5,141.5C 310.677,140.615 310.01,138.948 311.5,136.5C 315.857,131.148 320.19,125.814 324.5,120.5 Z"/></g>
<g><path style="opacity:0.985" fill="#d77b11" d="M 278.5,120.5 C 288.5,120.5 298.5,120.5 308.5,120.5C 304.167,127.167 299.833,133.833 295.5,140.5C 294.728,141.694 293.728,142.694 292.5,143.5C 291.25,143.423 290.417,142.756 290,141.5C 289.465,143.271 288.631,143.604 287.5,142.5C 289.232,140.201 290.566,137.701 291.5,135C 290.572,134.612 289.905,133.945 289.5,133C 290.811,130.925 290.145,129.591 287.5,129C 289.135,127.252 291.135,126.085 293.5,125.5C 292.562,124.447 291.395,123.78 290,123.5C 288.535,124.33 287.035,124.496 285.5,124C 286.696,123.346 286.696,122.846 285.5,122.5C 282.934,123.095 280.601,122.428 278.5,120.5 Z"/></g>
<g><path style="opacity:0.434" fill="#302317" d="M 308.5,120.5 C 313.833,120.5 319.167,120.5 324.5,120.5C 320.19,125.814 315.857,131.148 311.5,136.5C 308.813,136.336 306.146,136.503 303.5,137C 301.317,139.35 298.984,141.517 296.5,143.5C 296.483,142.606 296.149,141.606 295.5,140.5C 299.833,133.833 304.167,127.167 308.5,120.5 Z"/></g>
<g><path style="opacity:0.945" fill="#a6aa9c" d="M 375.5,123.5 C 378.811,127.147 382.145,130.813 385.5,134.5C 384.66,135.735 383.66,136.735 382.5,137.5C 379.833,138.167 377.167,138.833 374.5,139.5C 374.179,133.974 374.512,128.64 375.5,123.5 Z"/></g>
<g><path style="opacity:0.342" fill="#34271a" d="M 344.5,124.5 C 345.496,124.414 346.329,124.748 347,125.5C 348.604,128.459 349.771,131.459 350.5,134.5C 351.162,138.466 351.495,142.466 351.5,146.5C 348.219,146.42 345.219,147.087 342.5,148.5C 335.393,148.849 328.393,149.849 321.5,151.5C 320.596,150.791 320.263,149.791 320.5,148.5C 316.5,147.833 314.167,145.5 313.5,141.5C 318.618,142.111 323.285,140.944 327.5,138C 333.33,133.667 338.996,129.167 344.5,124.5 Z"/></g>
<g><path style="opacity:0.875" fill="#c1ac26" d="M 401.5,147.5 C 397.644,149.88 393.644,150.046 389.5,148C 388.083,145.257 388.416,142.757 390.5,140.5C 392.055,139.367 393.889,138.701 396,138.5C 401.854,139.168 403.687,142.168 401.5,147.5 Z"/></g>
<g><path style="opacity:0.21" fill="#3f2e1e" d="M 311.5,136.5 C 310.01,138.948 310.677,140.615 313.5,141.5C 314.167,145.5 316.5,147.833 320.5,148.5C 320.263,149.791 320.596,150.791 321.5,151.5C 321.158,152.338 320.492,152.672 319.5,152.5C 317.833,152.5 316.167,152.5 314.5,152.5C 313.968,147.634 311.302,144.634 306.5,143.5C 297.582,147.149 288.582,150.649 279.5,154C 279.833,154.333 280.167,154.667 280.5,155C 275.012,157.575 269.346,158.075 263.5,156.5C 257.098,157.625 251.265,159.958 246,163.5C 245.342,161.892 245.842,160.725 247.5,160C 246.584,159.722 245.918,159.222 245.5,158.5C 249.088,153.407 253.255,148.74 258,144.5C 261.647,147.313 265.147,150.313 268.5,153.5C 272.652,149.849 276.652,146.016 280.5,142C 284.047,142.816 287.214,144.65 290,147.5C 291.481,146.529 292.315,145.196 292.5,143.5C 293.728,142.694 294.728,141.694 295.5,140.5C 296.149,141.606 296.483,142.606 296.5,143.5C 298.984,141.517 301.317,139.35 303.5,137C 306.146,136.503 308.813,136.336 311.5,136.5 Z"/></g>
<g><path style="opacity:0.036" fill="#4e3a27" d="M 304.5,148.5 C 306.39,148.297 307.89,148.963 309,150.5C 311.958,156.256 314.125,161.923 315.5,167.5C 314.975,168.192 314.308,168.692 313.5,169C 314.216,174.15 315.549,179.15 317.5,184C 315.854,185.555 315.521,187.221 316.5,189C 314.933,190.076 313.266,190.909 311.5,191.5C 307.789,190.687 304.289,190.687 301,191.5C 299.364,193.55 297.198,194.55 294.5,194.5C 293.479,185.33 292.312,175.996 291,166.5C 290.282,167.451 289.449,167.617 288.5,167C 289.926,164.289 289.592,161.789 287.5,159.5C 289.369,156.887 291.703,154.721 294.5,153C 298.534,152.812 301.867,151.312 304.5,148.5 Z M 299.5,159.5 C 298.367,167.421 298.2,175.421 299,183.5C 299.414,183.957 299.914,184.291 300.5,184.5C 302.535,183.959 304.535,183.292 306.5,182.5C 306.93,175.15 306.097,167.817 304,160.5C 302.644,159.62 301.144,159.286 299.5,159.5 Z"/></g>
<g><path style="opacity:0.925" fill="#b36e1b" d="M 351.5,146.5 C 352.744,151.298 352.744,155.965 351.5,160.5C 351.854,156.363 351.354,152.363 350,148.5C 348.667,149.167 347.333,149.833 346,150.5C 345.29,149.027 344.124,148.36 342.5,148.5C 345.219,147.087 348.219,146.42 351.5,146.5 Z"/></g>
<g><path style="opacity:0.982" fill="#d47a10" d="M 342.5,148.5 C 344.124,148.36 345.29,149.027 346,150.5C 347.333,149.833 348.667,149.167 350,148.5C 351.354,152.363 351.854,156.363 351.5,160.5C 343.833,160.5 336.167,160.5 328.5,160.5C 327.5,160.5 326.5,160.5 325.5,160.5C 322.979,158.981 320.479,157.314 318,155.5C 317.761,154.212 318.261,153.212 319.5,152.5C 320.492,152.672 321.158,152.338 321.5,151.5C 328.393,149.849 335.393,148.849 342.5,148.5 Z"/></g>
<g><path style="opacity:0.268" fill="#37291b" d="M 231.5,150.5 C 233.194,152.861 235.194,154.861 237.5,156.5C 236.829,157.847 236.829,159.014 237.5,160C 237,160.167 236.5,160.333 236,160.5C 229.031,156.66 222.031,156.66 215,160.5C 213.93,160.472 213.097,160.139 212.5,159.5C 216.797,154.702 221.297,150.035 226,145.5C 227.704,147.373 229.537,149.04 231.5,150.5 Z"/></g>
<g><path style="opacity:0.489" fill="#2d2216" d="M 325.5,160.5 C 326.5,160.5 327.5,160.5 328.5,160.5C 335.982,161.492 343.648,161.825 351.5,161.5C 351.5,164.833 351.5,168.167 351.5,171.5C 349.901,171.232 348.568,171.566 347.5,172.5C 343.5,172.5 339.5,172.5 335.5,172.5C 332.482,172.665 329.482,172.498 326.5,172C 327.059,171.275 327.392,170.442 327.5,169.5C 326.414,166.58 325.748,163.58 325.5,160.5 Z"/></g>
<g><path style="opacity:0.262" fill="#36281a" d="M 282.5,172.5 C 285.388,172.22 286.888,173.553 287,176.5C 287.082,197.866 287.749,219.199 289,240.5C 291.19,243.249 292.857,242.915 294,239.5C 296.423,228.458 297.756,217.458 298,206.5C 299.363,204.316 300.863,202.316 302.5,200.5C 302.732,213.192 302.398,225.859 301.5,238.5C 300.099,250.702 296.099,262.035 289.5,272.5C 286.061,272.253 282.728,272.586 279.5,273.5C 279.5,273.167 279.5,272.833 279.5,272.5C 281.68,270.152 283.68,267.652 285.5,265C 282.988,261.985 280.655,258.818 278.5,255.5C 280.771,251.956 282.771,248.29 284.5,244.5C 282.722,240.885 280.722,237.385 278.5,234C 280.383,230.397 282.383,226.897 284.5,223.5C 282.582,220.24 280.248,217.24 277.5,214.5C 279.868,211.142 282.201,207.809 284.5,204.5C 282.714,201.542 280.714,198.709 278.5,196C 279.27,194.225 280.437,192.725 282,191.5C 282.499,187.514 282.666,183.514 282.5,179.5C 282.5,177.167 282.5,174.833 282.5,172.5 Z"/></g>
<g><path style="opacity:0.991" fill="#d47a11" d="M 335.5,172.5 C 339.5,172.5 343.5,172.5 347.5,172.5C 349.167,172.5 350.833,172.5 352.5,172.5C 352.5,176.5 352.5,180.5 352.5,184.5C 345.132,184.683 337.799,184.35 330.5,183.5C 327.098,181.619 323.931,179.285 321,176.5C 320.517,175.552 320.351,174.552 320.5,173.5C 325.695,173.821 330.695,173.487 335.5,172.5 Z"/></g>
<g><path style="opacity:0.962" fill="#66643e" d="M 365.5,122.5 C 366.391,123.261 367.058,124.261 367.5,125.5C 364.567,127.738 364.901,128.738 368.5,128.5C 368.384,131.91 370.05,133.244 373.5,132.5C 373.18,129.102 373.513,125.768 374.5,122.5C 375.107,122.624 375.44,122.957 375.5,123.5C 374.512,128.64 374.179,133.974 374.5,139.5C 377.167,138.833 379.833,138.167 382.5,137.5C 385.922,138.277 388.588,139.277 390.5,140.5C 388.416,142.757 388.083,145.257 389.5,148C 393.644,150.046 397.644,149.88 401.5,147.5C 402.848,148.601 404.348,149.601 406,150.5C 408.837,148.947 411.337,149.28 413.5,151.5C 410.095,154.537 406.428,156.371 402.5,157C 403.167,157.333 403.833,157.667 404.5,158C 403.687,159.314 402.687,160.481 401.5,161.5C 402.025,162.192 402.692,162.692 403.5,163C 402.289,164.844 400.956,165.678 399.5,165.5C 400.76,166.382 401.926,167.382 403,168.5C 405.234,168.626 407.568,168.293 410,167.5C 410.456,168.744 409.956,169.577 408.5,170C 409,170.167 409.5,170.333 410,170.5C 411.381,168.132 413.381,166.465 416,165.5C 416.5,172.158 416.666,178.825 416.5,185.5C 416.237,189.6 416.57,193.6 417.5,197.5C 416.505,210.323 416.171,223.323 416.5,236.5C 415.834,232.647 415.167,228.647 414.5,224.5C 413.511,228.107 413.177,231.774 413.5,235.5C 410.17,234.697 407.503,236.03 405.5,239.5C 402.693,240.02 400.027,240.353 397.5,240.5C 393.799,232.769 389.799,225.102 385.5,217.5C 381.335,225.497 378.002,233.83 375.5,242.5C 378.833,242.5 382.167,242.5 385.5,242.5C 379.844,243.573 374.177,244.573 368.5,245.5C 363.503,240.679 358.169,236.346 352.5,232.5C 353.576,228.19 353.576,223.857 352.5,219.5C 353.081,211.559 352.414,203.892 350.5,196.5C 352.423,192.971 353.089,188.971 352.5,184.5C 352.5,180.5 352.5,176.5 352.5,172.5C 350.833,172.5 349.167,172.5 347.5,172.5C 348.568,171.566 349.901,171.232 351.5,171.5C 351.5,168.167 351.5,164.833 351.5,161.5C 343.648,161.825 335.982,161.492 328.5,160.5C 336.167,160.5 343.833,160.5 351.5,160.5C 352.744,155.965 352.744,151.298 351.5,146.5C 351.495,142.466 351.162,138.466 350.5,134.5C 350.369,133.761 350.536,133.094 351,132.5C 351.971,133.198 353.137,133.198 354.5,132.5C 355.647,132.818 356.481,133.484 357,134.5C 358.487,133.747 358.654,132.914 357.5,132C 358.833,131.667 360.167,131.333 361.5,131C 359.942,130.79 358.609,130.29 357.5,129.5C 363.008,130.322 365.675,127.989 365.5,122.5 Z"/></g>
<g><path style="opacity:0.969" fill="#c8b227" d="M 364.5,175.5 C 368.603,174.769 372.103,175.769 375,178.5C 375.651,180.235 375.485,181.902 374.5,183.5C 370.787,186.545 366.787,187.045 362.5,185C 361.196,184.196 360.529,183.029 360.5,181.5C 361.432,179.235 362.765,177.235 364.5,175.5 Z"/></g>
<g><path style="opacity:0.931" fill="#c4ae26" d="M 396.5,172.5 C 403.87,171.395 407.037,174.395 406,181.5C 403.005,184.265 399.505,185.098 395.5,184C 393.643,182.818 392.643,181.151 392.5,179C 393.205,176.458 394.539,174.292 396.5,172.5 Z"/></g>
<g><path style="opacity:0.974" fill="#a8ac9e" d="M 381.5,149.5 C 385.48,155.961 388.813,162.794 391.5,170C 386.964,171.379 382.297,171.879 377.5,171.5C 378.516,164.103 379.85,156.769 381.5,149.5 Z"/></g>
<g><path style="opacity:0.948" fill="#c6b126" d="M 366.5,144.5 C 369.249,144.274 371.916,144.607 374.5,145.5C 376.991,151.844 374.825,155.177 368,155.5C 362.743,155.088 361.243,152.421 363.5,147.5C 364.855,146.812 365.855,145.812 366.5,144.5 Z"/></g>
<g><path style="opacity:0.438" fill="#2f2317" d="M 330.5,183.5 C 337.799,184.35 345.132,184.683 352.5,184.5C 353.089,188.971 352.423,192.971 350.5,196.5C 343.417,195.509 336.417,196.175 329.5,198.5C 333.33,193.753 333.33,188.919 329.5,184C 329.728,183.601 330.062,183.435 330.5,183.5 Z"/></g>
<g><path style="opacity:0.952" fill="#a6ab9d" d="M 383.5,182.5 C 388.436,189.377 392.102,197.044 394.5,205.5C 388.828,205.76 383.161,206.093 377.5,206.5C 379.496,198.505 381.496,190.505 383.5,182.5 Z"/></g>
<g><path style="opacity:0.989" fill="#d67b10" d="M 316.5,205.5 C 322.894,213.726 326.561,223.059 327.5,233.5C 327.8,238.099 327.467,242.599 326.5,247C 325.256,247.456 324.423,246.956 324,245.5C 322.566,247.136 320.733,248.136 318.5,248.5C 319.03,247.244 319.03,245.744 318.5,244C 315.378,242.096 312.045,241.429 308.5,242C 310.957,243.154 310.957,244.488 308.5,246C 309.833,246.333 311.167,246.667 312.5,247C 309.936,248.851 309.936,250.684 312.5,252.5C 310.219,253.277 308.052,254.277 306,255.5C 305.257,253.559 305.424,251.726 306.5,250C 304.92,251.309 302.92,252.142 300.5,252.5C 301.229,247.87 301.563,243.203 301.5,238.5C 302.398,225.859 302.732,213.192 302.5,200.5C 302.791,199.351 303.624,198.684 305,198.5C 309.716,199.439 313.549,201.772 316.5,205.5 Z"/></g>
<g><path style="opacity:0.989" fill="#d37911" d="M 350.5,196.5 C 352.414,203.892 353.081,211.559 352.5,219.5C 344.931,212.209 335.931,207.209 325.5,204.5C 325.657,201.682 326.991,199.682 329.5,198.5C 336.417,196.175 343.417,195.509 350.5,196.5 Z"/></g>
<g><path style="opacity:0.984" fill="#ceb825" d="M 363.5,211.5 C 368.079,211.153 372.412,211.82 376.5,213.5C 376.372,222.13 372.039,224.964 363.5,222C 361.09,221.242 360.09,219.575 360.5,217C 360.685,214.624 361.685,212.791 363.5,211.5 Z"/></g>
<g><path style="opacity:0.493" fill="#312316" d="M 325.5,204.5 C 335.931,207.209 344.931,212.209 352.5,219.5C 353.576,223.857 353.576,228.19 352.5,232.5C 352.167,232.5 351.833,232.5 351.5,232.5C 347.488,224.165 340.821,219.832 331.5,219.5C 334.413,224.742 336.247,230.409 337,236.5C 337.5,244.159 337.666,251.826 337.5,259.5C 336.686,261.631 336.186,263.964 336,266.5C 333.044,269.256 329.877,270.589 326.5,270.5C 328.555,258.106 328.888,245.772 327.5,233.5C 326.561,223.059 322.894,213.726 316.5,205.5C 317.768,204.213 317.435,203.213 315.5,202.5C 316.333,202.167 317.167,201.833 318,201.5C 320.185,203.108 322.685,204.108 325.5,204.5 Z"/></g>
<g><path style="opacity:0.95" fill="#c8b225" d="M 396.5,211.5 C 400.605,211.234 404.605,211.734 408.5,213C 411.328,216.692 410.662,219.692 406.5,222C 403.167,222.667 399.833,222.667 396.5,222C 392.565,218.504 392.565,215.004 396.5,211.5 Z"/></g>
<g><path style="opacity:0.988" fill="#d77c11" d="M 282.5,179.5 C 282.666,183.514 282.499,187.514 282,191.5C 280.437,192.725 279.27,194.225 278.5,196C 280.714,198.709 282.714,201.542 284.5,204.5C 282.201,207.809 279.868,211.142 277.5,214.5C 280.248,217.24 282.582,220.24 284.5,223.5C 282.383,226.897 280.383,230.397 278.5,234C 280.722,237.385 282.722,240.885 284.5,244.5C 282.771,248.29 280.771,251.956 278.5,255.5C 280.655,258.818 282.988,261.985 285.5,265C 283.68,267.652 281.68,270.152 279.5,272.5C 270.5,272.5 261.5,272.5 252.5,272.5C 246.833,272.5 241.167,272.5 235.5,272.5C 229.5,272.5 223.5,272.5 217.5,272.5C 217.841,269.484 219.007,266.818 221,264.5C 241.032,235.746 261.532,207.412 282.5,179.5 Z"/></g>
<g><path style="opacity:0.989" fill="#d57b11" d="M 351.5,232.5 C 352.938,238.585 352.604,244.585 350.5,250.5C 349.087,253.661 347.42,256.661 345.5,259.5C 344.5,259.833 343.833,260.5 343.5,261.5C 341.852,262.81 340.186,264.143 338.5,265.5C 337.534,263.604 337.201,261.604 337.5,259.5C 337.666,251.826 337.5,244.159 337,236.5C 336.247,230.409 334.413,224.742 331.5,219.5C 340.821,219.832 347.488,224.165 351.5,232.5 Z"/></g>
<g><path style="opacity:0.969" fill="#a7ac9e" d="M 397.5,240.5 C 393.971,242.423 389.971,243.089 385.5,242.5C 382.167,242.5 378.833,242.5 375.5,242.5C 378.002,233.83 381.335,225.497 385.5,217.5C 389.799,225.102 393.799,232.769 397.5,240.5 Z"/></g>
<g><path style="opacity:0.861" fill="#c87513" d="M 417.5,197.5 C 423.135,201.801 428.468,206.467 433.5,211.5C 430.167,215.833 426.833,220.167 423.5,224.5C 425.839,228.502 428.839,231.835 432.5,234.5C 433.476,235.815 434.476,237.148 435.5,238.5C 434.143,240.186 432.81,241.852 431.5,243.5C 428.964,244.349 426.464,245.349 424,246.5C 423.544,245.256 424.044,244.423 425.5,244C 422.998,243.72 421.331,244.887 420.5,247.5C 421.713,249.851 421.047,251.684 418.5,253C 419.428,253.388 420.095,254.055 420.5,255C 419.59,256.749 418.257,257.916 416.5,258.5C 416.5,251.167 416.5,243.833 416.5,236.5C 416.171,223.323 416.505,210.323 417.5,197.5 Z"/></g>
<g><path style="opacity:0.923" fill="#9b833e" d="M 351.5,232.5 C 351.833,232.5 352.167,232.5 352.5,232.5C 358.169,236.346 363.503,240.679 368.5,245.5C 369.479,247.145 370.812,248.479 372.5,249.5C 365.197,250.497 357.863,250.831 350.5,250.5C 352.604,244.585 352.938,238.585 351.5,232.5 Z"/></g>
<g><path style="opacity:0.95" fill="#d07812" d="M 327.5,233.5 C 328.888,245.772 328.555,258.106 326.5,270.5C 325.29,270.932 324.29,271.599 323.5,272.5C 321.833,272.5 320.167,272.5 318.5,272.5C 308.833,272.5 299.167,272.5 289.5,272.5C 296.099,262.035 300.099,250.702 301.5,238.5C 301.563,243.203 301.229,247.87 300.5,252.5C 302.92,252.142 304.92,251.309 306.5,250C 305.424,251.726 305.257,253.559 306,255.5C 308.052,254.277 310.219,253.277 312.5,252.5C 309.936,250.684 309.936,248.851 312.5,247C 311.167,246.667 309.833,246.333 308.5,246C 310.957,244.488 310.957,243.154 308.5,242C 312.045,241.429 315.378,242.096 318.5,244C 319.03,245.744 319.03,247.244 318.5,248.5C 320.733,248.136 322.566,247.136 324,245.5C 324.423,246.956 325.256,247.456 326.5,247C 327.467,242.599 327.8,238.099 327.5,233.5 Z"/></g>
<g><path style="opacity:0.977" fill="#9c843e" d="M 282.5,172.5 C 282.5,174.833 282.5,177.167 282.5,179.5C 261.532,207.412 241.032,235.746 221,264.5C 219.007,266.818 217.841,269.484 217.5,272.5C 223.5,272.5 229.5,272.5 235.5,272.5C 235.5,274.5 235.5,276.5 235.5,278.5C 235.98,281.685 235.314,284.519 233.5,287C 221.819,287.167 210.152,287.667 198.5,288.5C 201.035,295.437 203.368,302.437 205.5,309.5C 215.393,310.178 225.227,310.845 235,311.5C 235.796,315.755 235.629,319.921 234.5,324C 226.479,324.168 218.479,324.668 210.5,325.5C 213.073,332.39 215.74,339.223 218.5,346C 224.825,346.5 231.158,346.666 237.5,346.5C 237.5,350.167 237.5,353.833 237.5,357.5C 232.167,357.5 226.833,357.5 221.5,357.5C 221.325,359.621 221.659,361.621 222.5,363.5C 224.793,372.979 227.459,382.312 230.5,391.5C 230.5,392.167 230.5,392.833 230.5,393.5C 231.5,396.167 232.5,398.833 233.5,401.5C 230.384,401.289 227.55,400.955 225,400.5C 224.383,403.176 225.216,403.843 227.5,402.5C 228.506,402.938 228.506,403.604 227.5,404.5C 229.624,405.149 231.624,405.983 233.5,407C 230.407,408.696 227.407,410.53 224.5,412.5C 223.818,411.757 223.151,411.091 222.5,410.5C 218.464,396.34 214.13,382.34 209.5,368.5C 207.969,360.242 205.635,352.242 202.5,344.5C 201.016,339.521 199.516,334.521 198,329.5C 197.167,328.667 196.333,327.833 195.5,327C 171.761,326.823 148.094,326.323 124.5,325.5C 118.373,311.451 113.04,297.118 108.5,282.5C 114.868,282.17 121.202,282.504 127.5,283.5C 125.5,286.167 123.167,288.5 120.5,290.5C 119.376,289.086 118.376,287.586 117.5,286C 116.207,285.51 114.873,285.343 113.5,285.5C 114.61,290.312 116.777,294.646 120,298.5C 125.644,293.188 130.977,287.521 136,281.5C 136.591,280.517 136.257,279.85 135,279.5C 123.539,278.531 112.039,278.198 100.5,278.5C 105.732,294.03 111.066,309.53 116.5,325C 115.207,325.49 113.873,325.657 112.5,325.5C 99.6186,310.085 87.9519,293.751 77.5,276.5C 76.3918,274.219 75.0585,272.052 73.5,270C 78.785,270.754 84.1184,271.588 89.5,272.5C 92.1656,272.933 94.8323,273.433 97.5,274C 124.167,274.667 150.833,274.667 177.5,274C 191.302,270.532 202.802,263.365 212,252.5C 232.716,225.957 253.216,199.291 273.5,172.5C 276.147,169.236 278.814,165.903 281.5,162.5C 282.487,165.768 282.82,169.102 282.5,172.5 Z"/></g>
<g><path style="opacity:0.345" fill="#372a1b" d="M 273.5,172.5 C 253.216,199.291 232.716,225.957 212,252.5C 202.802,263.365 191.302,270.532 177.5,274C 150.833,274.667 124.167,274.667 97.5,274C 94.8323,273.433 92.1656,272.933 89.5,272.5C 89.5,271.5 89.5,270.5 89.5,269.5C 91.2624,269.643 92.9291,269.309 94.5,268.5C 95.1818,269.243 95.8485,269.909 96.5,270.5C 102.206,270.829 107.872,270.495 113.5,269.5C 112.487,267.473 111.487,265.473 110.5,263.5C 113.074,265.798 116.074,267.632 119.5,269C 122.334,269.045 124.834,269.879 127,271.5C 142.759,270.675 158.593,270.175 174.5,270C 190.113,267.038 202.613,259.205 212,246.5C 214.135,243.233 215.969,239.899 217.5,236.5C 218.675,236.719 219.675,236.386 220.5,235.5C 222.464,231.044 224.631,226.711 227,222.5C 230.674,219.158 234.008,215.492 237,211.5C 238,209.5 239,207.5 240,205.5C 242.292,204.21 244.292,202.543 246,200.5C 249.692,193.487 254.692,187.82 261,183.5C 262.546,180.124 264.213,176.79 266,173.5C 268.941,173.059 270.774,171.393 271.5,168.5C 273.111,169.32 273.778,170.654 273.5,172.5 Z"/></g>
<g><path style="opacity:0.932" fill="#a1a497" d="M 110.5,263.5 C 111.487,265.473 112.487,267.473 113.5,269.5C 107.872,270.495 102.206,270.829 96.5,270.5C 98.2719,265.797 100.939,261.63 104.5,258C 105.167,257.333 105.833,257.333 106.5,258C 107.697,260.015 109.03,261.849 110.5,263.5 Z"/></g>
<g><path style="opacity:0.975" fill="#9a813d" d="M 337.5,259.5 C 337.201,261.604 337.534,263.604 338.5,265.5C 340.186,264.143 341.852,262.81 343.5,261.5C 343.831,269.86 343.498,278.193 342.5,286.5C 337.681,282.182 333.015,277.682 328.5,273C 326.866,272.506 325.199,272.34 323.5,272.5C 324.29,271.599 325.29,270.932 326.5,270.5C 329.877,270.589 333.044,269.256 336,266.5C 336.186,263.964 336.686,261.631 337.5,259.5 Z"/></g>
<g><path style="opacity:0.689" fill="#af6918" d="M 431.5,243.5 C 428.987,246.18 426.654,249.013 424.5,252C 428.295,257.299 432.295,262.465 436.5,267.5C 435.048,268.94 434.048,270.606 433.5,272.5C 431.5,274.833 429.5,277.167 427.5,279.5C 427.038,278.12 426.038,277.453 424.5,277.5C 422.595,278.065 420.929,279.065 419.5,280.5C 418.265,279.66 417.265,278.66 416.5,277.5C 416.5,271.167 416.5,264.833 416.5,258.5C 418.257,257.916 419.59,256.749 420.5,255C 420.095,254.055 419.428,253.388 418.5,253C 421.047,251.684 421.713,249.851 420.5,247.5C 421.331,244.887 422.998,243.72 425.5,244C 424.044,244.423 423.544,245.256 424,246.5C 426.464,245.349 428.964,244.349 431.5,243.5 Z"/></g>
<g><path style="opacity:0.976" fill="#c1ac25" d="M 391.5,286.5 C 391.733,284.938 392.4,283.605 393.5,282.5C 398.081,281.393 402.748,281.227 407.5,282C 412.769,286.181 412.769,290.181 407.5,294C 399.946,296.055 394.613,293.555 391.5,286.5 Z"/></g>
<g><path style="opacity:0.969" fill="#555331" d="M 152.5,289.5 C 156.846,289.334 161.179,289.501 165.5,290C 168.167,293.667 168.167,297.333 165.5,301C 160.833,301.667 156.167,301.667 151.5,301C 148.532,296.661 148.865,292.828 152.5,289.5 Z"/></g>
<g><path style="opacity:0.987" fill="#66653e" d="M 345.5,259.5 C 345.335,262.518 345.502,265.518 346,268.5C 346.561,267.978 347.228,267.645 348,267.5C 352.028,270.494 355.361,269.828 358,265.5C 357.782,267.587 357.949,269.587 358.5,271.5C 359.962,272.471 361.295,272.138 362.5,270.5C 362.833,271.167 363.167,271.833 363.5,272.5C 365.928,269.902 368.761,267.902 372,266.5C 372.5,266.667 373,266.833 373.5,267C 372.272,267.779 371.272,268.779 370.5,270C 369.7,271.788 369.366,273.455 369.5,275C 371.282,275.122 372.948,274.622 374.5,273.5C 377.428,274.82 380.761,275.486 384.5,275.5C 388.239,275.486 391.572,274.82 394.5,273.5C 395.139,274.097 395.472,274.93 395.5,276C 394.582,278.086 393.915,280.253 393.5,282.5C 392.4,283.605 391.733,284.938 391.5,286.5C 390.778,286.918 390.278,287.584 390,288.5C 389.501,292.486 389.334,296.486 389.5,300.5C 387.994,296.172 386.327,291.839 384.5,287.5C 378.809,295.036 373.475,302.87 368.5,311C 374.367,311.443 380.034,312.276 385.5,313.5C 385.137,315.911 386.137,317.411 388.5,318C 387.747,319.487 386.914,319.654 386,318.5C 382.255,319.297 378.421,319.797 374.5,320C 375.624,320.249 376.624,320.749 377.5,321.5C 377.376,322.107 377.043,322.44 376.5,322.5C 368.435,319.595 360.101,317.261 351.5,315.5C 351.964,322.614 352.964,329.614 354.5,336.5C 361.66,333.022 368.327,328.688 374.5,323.5C 375.935,324.824 376.935,326.491 377.5,328.5C 375.556,328.972 373.722,330.305 372,332.5C 371.383,333.449 371.549,334.282 372.5,335C 370.077,335.732 368.91,337.232 369,339.5C 369.837,337.993 371.004,337.493 372.5,338C 370.69,340.066 368.69,341.9 366.5,343.5C 369.014,343.517 371.681,344.017 374.5,345C 373.874,345.75 373.374,346.584 373,347.5C 372.692,346.692 372.192,346.025 371.5,345.5C 371.891,346.891 371.058,347.891 369,348.5C 366.958,348.182 364.791,348.015 362.5,348C 363.815,346.605 363.481,345.605 361.5,345C 363.891,344.309 363.891,343.309 361.5,342C 360.833,341.333 360.167,341.333 359.5,342C 360.711,342.893 360.711,343.726 359.5,344.5C 358.088,343.194 356.421,342.36 354.5,342C 355.696,341.346 355.696,340.846 354.5,340.5C 351.798,343.971 350.464,347.971 350.5,352.5C 356.599,351.813 357.099,353.146 352,356.5C 351.764,354.881 350.931,353.881 349.5,353.5C 350.59,347.387 348.923,342.221 344.5,338C 339.34,337.078 336.174,339.245 335,344.5C 334.19,348.69 334.69,352.69 336.5,356.5C 335.178,356.67 334.011,356.337 333,355.5C 332.333,352.156 330.666,349.489 328,347.5C 328.73,352.021 330.563,356.188 333.5,360C 331.102,361.018 328.769,362.185 326.5,363.5C 325.28,362.289 324.113,362.289 323,363.5C 322,362.5 321,361.5 320,360.5C 318.421,362.041 316.587,363.208 314.5,364C 316.612,365.445 318.778,365.278 321,363.5C 321.667,365.5 322.333,367.5 323,369.5C 323.667,368.167 324.333,368.167 325,369.5C 325.667,366.833 326.333,366.833 327,369.5C 327.971,368.802 329.137,368.802 330.5,369.5C 331.672,369.081 332.672,368.415 333.5,367.5C 334.086,367.709 334.586,368.043 335,368.5C 335.375,371 336.208,373.333 337.5,375.5C 336.098,376.842 336.431,377.676 338.5,378C 337.351,379.744 336.017,379.911 334.5,378.5C 332.123,380.579 330.957,382.912 331,385.5C 329.867,383.789 328.367,383.289 326.5,384C 325.359,384.741 325.359,385.575 326.5,386.5C 325.975,387.192 325.308,387.692 324.5,388C 332.66,388.275 340.993,388.441 349.5,388.5C 350.448,389.978 351.781,390.978 353.5,391.5C 325.833,391.5 298.167,391.5 270.5,391.5C 257.167,391.5 243.833,391.5 230.5,391.5C 227.459,382.312 224.793,372.979 222.5,363.5C 229.167,363.5 235.833,363.5 242.5,363.5C 241.962,356.178 241.629,348.845 241.5,341.5C 234.825,341.666 228.158,341.5 221.5,341C 219.525,336.9 217.859,332.733 216.5,328.5C 224.167,328.5 231.833,328.5 239.5,328.5C 239.814,320.913 239.481,313.413 238.5,306C 228.839,305.5 219.172,305.334 209.5,305.5C 208.167,301.167 206.833,296.833 205.5,292.5C 217.167,292.5 228.833,292.5 240.5,292.5C 240.5,286.167 240.5,279.833 240.5,273.5C 239.167,273.5 237.833,273.5 236.5,273.5C 236.784,275.415 236.451,277.081 235.5,278.5C 235.5,276.5 235.5,274.5 235.5,272.5C 241.167,272.5 246.833,272.5 252.5,272.5C 252.169,280.196 252.503,287.862 253.5,295.5C 261.912,287.745 270.579,280.412 279.5,273.5C 282.728,272.586 286.061,272.253 289.5,272.5C 289.334,280.507 289.5,288.507 290,296.5C 299.398,288.26 308.898,280.26 318.5,272.5C 320.167,272.5 321.833,272.5 323.5,272.5C 325.199,272.34 326.866,272.506 328.5,273C 333.015,277.682 337.681,282.182 342.5,286.5C 343.498,278.193 343.831,269.86 343.5,261.5C 343.833,260.5 344.5,259.833 345.5,259.5 Z"/></g>
<g><path style="opacity:0.967" fill="#c9b326" d="M 360.5,277.5 C 366.883,276.476 372.383,278.143 377,282.5C 377.961,286.226 376.461,288.392 372.5,289C 365.359,291.325 360.359,289.158 357.5,282.5C 358.092,280.577 359.092,278.911 360.5,277.5 Z"/></g>
<g><path style="opacity:0.979" fill="#9e853f" d="M 289.5,272.5 C 299.167,272.5 308.833,272.5 318.5,272.5C 308.898,280.26 299.398,288.26 290,296.5C 289.5,288.507 289.334,280.507 289.5,272.5 Z"/></g>
<g><path style="opacity:0.962" fill="#9b833e" d="M 252.5,272.5 C 261.5,272.5 270.5,272.5 279.5,272.5C 279.5,272.833 279.5,273.167 279.5,273.5C 270.579,280.412 261.912,287.745 253.5,295.5C 252.503,287.862 252.169,280.196 252.5,272.5 Z"/></g>
<g><path style="opacity:0.977" fill="#cab426" d="M 349.5,289.5 C 357.89,290.228 362.223,294.894 362.5,303.5C 361.148,307.254 358.482,308.421 354.5,307C 350.06,304.043 347.394,299.876 346.5,294.5C 347.092,292.577 348.092,290.911 349.5,289.5 Z"/></g>
<g><path style="opacity:0.978" fill="#535130" d="M 222.5,363.5 C 221.659,361.621 221.325,359.621 221.5,357.5C 226.833,357.5 232.167,357.5 237.5,357.5C 237.5,353.833 237.5,350.167 237.5,346.5C 231.158,346.666 224.825,346.5 218.5,346C 215.74,339.223 213.073,332.39 210.5,325.5C 218.479,324.668 226.479,324.168 234.5,324C 235.629,319.921 235.796,315.755 235,311.5C 225.227,310.845 215.393,310.178 205.5,309.5C 203.368,302.437 201.035,295.437 198.5,288.5C 210.152,287.667 221.819,287.167 233.5,287C 235.314,284.519 235.98,281.685 235.5,278.5C 236.451,277.081 236.784,275.415 236.5,273.5C 237.833,273.5 239.167,273.5 240.5,273.5C 240.5,279.833 240.5,286.167 240.5,292.5C 228.833,292.5 217.167,292.5 205.5,292.5C 206.833,296.833 208.167,301.167 209.5,305.5C 219.172,305.334 228.839,305.5 238.5,306C 239.481,313.413 239.814,320.913 239.5,328.5C 231.833,328.5 224.167,328.5 216.5,328.5C 217.859,332.733 219.525,336.9 221.5,341C 228.158,341.5 234.825,341.666 241.5,341.5C 241.629,348.845 241.962,356.178 242.5,363.5C 235.833,363.5 229.167,363.5 222.5,363.5 Z"/></g>
<g><path style="opacity:0.977" fill="#a9aea0" d="M 154.5,292.5 C 157.187,292.336 159.854,292.503 162.5,293C 163.38,294.356 163.714,295.856 163.5,297.5C 160.482,297.665 157.482,297.498 154.5,297C 153.272,295.51 153.272,294.01 154.5,292.5 Z"/></g>
<g><path style="opacity:0.96" fill="#a6ab9c" d="M 389.5,300.5 C 391.118,304.689 392.118,309.022 392.5,313.5C 390.167,313.5 387.833,313.5 385.5,313.5C 380.034,312.276 374.367,311.443 368.5,311C 373.475,302.87 378.809,295.036 384.5,287.5C 386.327,291.839 387.994,296.172 389.5,300.5 Z"/></g>
<g><path style="opacity:0.23" fill="#3e2e1e" d="M 433.5,272.5 C 435.814,273.179 436.147,274.512 434.5,276.5C 437.818,285.621 440.818,294.788 443.5,304C 441.384,305.171 440.718,306.671 441.5,308.5C 439.152,311.202 437.819,314.035 437.5,317C 438.942,323.076 440.276,329.41 441.5,336C 440.882,340.64 439.715,345.14 438,349.5C 436.579,353.284 434.413,356.784 431.5,360C 434.167,360.667 434.167,361.333 431.5,362C 432.5,362.833 433.5,363.667 434.5,364.5C 431.927,366.852 431.26,369.519 432.5,372.5C 431.5,372.5 430.5,372.5 429.5,372.5C 427.856,366.604 426.19,360.604 424.5,354.5C 429.701,348.79 434.368,342.624 438.5,336C 434.347,331.178 430.18,326.345 426,321.5C 426.134,319.811 426.634,318.144 427.5,316.5C 431.822,312.173 435.822,307.506 439.5,302.5C 435.192,296.359 430.692,290.359 426,284.5C 425.387,282.505 425.887,280.838 427.5,279.5C 429.5,277.167 431.5,274.833 433.5,272.5 Z"/></g>
<g><path style="opacity:0.983" fill="#cdb826" d="M 268.5,297.5 C 278.509,295.679 282.009,299.679 279,309.5C 277.961,316.225 274.461,318.059 268.5,315C 265.482,310.952 264.316,306.452 265,301.5C 265.69,299.65 266.856,298.316 268.5,297.5 Z"/></g>
<g><path style="opacity:0.982" fill="#cbb627" d="M 304.5,294.5 C 306.467,294.261 308.301,294.594 310,295.5C 314.816,302.002 314.65,308.335 309.5,314.5C 306.966,315.788 304.466,315.788 302,314.5C 296.78,306.925 297.613,300.259 304.5,294.5 Z"/></g>
<g><path style="opacity:0.971" fill="#cbb626" d="M 331.5,293.5 C 335.683,292.846 338.516,294.512 340,298.5C 341.01,303.558 340.51,308.391 338.5,313C 334.454,313.324 331.621,311.491 330,307.5C 327.6,302.346 328.1,297.679 331.5,293.5 Z"/></g>
<g><path style="opacity:0.977" fill="#a5a99c" d="M 73.5,281.5 C 74.9867,284.473 76.4867,287.473 78,290.5C 88.8861,307.106 100.386,323.273 112.5,339C 114.217,340.559 116.217,341.392 118.5,341.5C 119.878,342.234 121.378,342.901 123,343.5C 130.735,364.872 138.568,386.205 146.5,407.5C 145.675,408.386 144.675,408.719 143.5,408.5C 132.727,403.9 124.227,396.567 118,386.5C 109.071,370.643 101.237,354.31 94.5,337.5C 91.3089,336.648 89.3089,337.981 88.5,341.5C 87.8334,354.662 87.5001,367.996 87.5,381.5C 87.3667,396.218 87.8667,410.885 89,425.5C 94.711,435.1 103.211,438.933 114.5,437C 117.167,439 117.167,441 114.5,443C 95.5097,446.462 83.843,438.962 79.5,420.5C 79.3334,394.831 79.5,369.165 80,343.5C 80.857,336.748 83.357,330.748 87.5,325.5C 85.6696,321.172 83.8363,316.838 82,312.5C 81.2613,311.426 80.2613,310.759 79,310.5C 73.7705,312.061 70.1039,315.394 68,320.5C 67.3333,348.833 67.3333,377.167 68,405.5C 68.941,407.727 70.1077,409.727 71.5,411.5C 69.0213,415.411 66.188,415.411 63,411.5C 62.0797,408.899 61.413,406.232 61,403.5C 60.3333,375.833 60.3333,348.167 61,320.5C 61.7394,316.615 63.0728,312.948 65,309.5C 69.1832,306.84 73.0166,303.84 76.5,300.5C 74.1429,295.594 72.4763,290.428 71.5,285C 71.6083,283.319 72.2749,282.152 73.5,281.5 Z"/></g>
<g><path style="opacity:0.907" fill="#c97513" d="M 416.5,277.5 C 417.265,278.66 418.265,279.66 419.5,280.5C 420.929,279.065 422.595,278.065 424.5,277.5C 426.038,277.453 427.038,278.12 427.5,279.5C 425.887,280.838 425.387,282.505 426,284.5C 430.692,290.359 435.192,296.359 439.5,302.5C 435.822,307.506 431.822,312.173 427.5,316.5C 424.029,317.357 420.363,318.69 416.5,320.5C 416.5,306.167 416.5,291.833 416.5,277.5 Z"/></g>
<g><path style="opacity:0.973" fill="#a9aea0" d="M 376.5,322.5 C 375.833,322.833 375.167,323.167 374.5,323.5C 368.327,328.688 361.66,333.022 354.5,336.5C 352.964,329.614 351.964,322.614 351.5,315.5C 360.101,317.261 368.435,319.595 376.5,322.5 Z"/></g>
<g><path style="opacity:0.341" fill="#36291c" d="M 79.5,420.5 C 77.5076,418.637 76.0076,416.304 75,413.5C 73.8873,412.695 72.7206,412.028 71.5,411.5C 70.1077,409.727 68.941,407.727 68,405.5C 67.3333,377.167 67.3333,348.833 68,320.5C 70.1039,315.394 73.7705,312.061 79,310.5C 80.2613,310.759 81.2613,311.426 82,312.5C 83.8363,316.838 85.6696,321.172 87.5,325.5C 83.357,330.748 80.857,336.748 80,343.5C 79.5,369.165 79.3334,394.831 79.5,420.5 Z"/></g>
<g><path style="opacity:0.985" fill="#abb1a4" d="M 284.5,315.5 C 293.264,319.382 301.597,324.049 309.5,329.5C 301.466,333.687 293.132,337.021 284.5,339.5C 284.5,331.5 284.5,323.5 284.5,315.5 Z"/></g>
<g><path style="opacity:0.977" fill="#a9ada0" d="M 317.5,316.5 C 325.885,319.69 334.219,323.19 342.5,327C 334.864,330.818 327.198,334.651 319.5,338.5C 318.062,331.238 317.395,323.905 317.5,316.5 Z"/></g>
<g><path style="opacity:0.979" fill="#aaafa1" d="M 249.5,315.5 C 258.563,319.074 267.229,323.408 275.5,328.5C 267.066,332.423 258.4,335.756 249.5,338.5C 249.5,330.833 249.5,323.167 249.5,315.5 Z"/></g>
<g><path style="opacity:0.487" fill="#2d2318" d="M 77.5,276.5 C 87.9519,293.751 99.6186,310.085 112.5,325.5C 113.919,326.451 115.585,326.784 117.5,326.5C 118.519,331.243 119.853,335.909 121.5,340.5C 120.675,341.386 119.675,341.719 118.5,341.5C 116.217,341.392 114.217,340.559 112.5,339C 100.386,323.273 88.8861,307.106 78,290.5C 76.4867,287.473 74.9867,284.473 73.5,281.5C 74.4871,279.449 75.8205,277.782 77.5,276.5 Z"/></g>
<g><path style="opacity:0.342" fill="#35281b" d="M 124.5,325.5 C 148.094,326.323 171.761,326.823 195.5,327C 196.333,327.833 197.167,328.667 198,329.5C 199.516,334.521 201.016,339.521 202.5,344.5C 179.49,344.038 156.49,343.372 133.5,342.5C 131.909,341.781 130.409,340.781 129,339.5C 127.488,334.768 125.988,330.101 124.5,325.5 Z"/></g>
<g><path style="opacity:0.787" fill="#bf7116" d="M 427.5,316.5 C 426.634,318.144 426.134,319.811 426,321.5C 430.18,326.345 434.347,331.178 438.5,336C 434.368,342.624 429.701,348.79 424.5,354.5C 424.167,354.5 423.833,354.5 423.5,354.5C 421.751,347.252 419.417,340.252 416.5,333.5C 416.5,329.167 416.5,324.833 416.5,320.5C 420.363,318.69 424.029,317.357 427.5,316.5 Z"/></g>
<g><path style="opacity:0.98" fill="#aaafa1" d="M 133.5,342.5 C 156.49,343.372 179.49,344.038 202.5,344.5C 205.635,352.242 207.969,360.242 209.5,368.5C 208.77,370.045 207.437,370.878 205.5,371C 206.609,372.813 205.942,373.646 203.5,373.5C 203.561,376.05 204.894,377.55 207.5,378C 205.922,379.14 204.256,379.64 202.5,379.5C 203.695,380.967 203.695,382.467 202.5,384C 202.905,384.945 203.572,385.612 204.5,386C 201.178,386.059 198.344,387.226 196,389.5C 195.361,386.772 194.194,386.272 192.5,388C 192.833,389.667 193.167,391.333 193.5,393C 192.061,393.991 191.061,395.324 190.5,397C 192.837,398.798 193.503,400.965 192.5,403.5C 188.098,405.088 183.765,406.754 179.5,408.5C 178.397,406.896 176.897,405.896 175,405.5C 172.536,406.161 170.036,406.661 167.5,407C 169.833,407.333 172.167,407.667 174.5,408C 173.328,408.419 172.328,409.085 171.5,410C 166.845,410.499 162.179,410.666 157.5,410.5C 156.5,410.5 155.5,410.5 154.5,410.5C 147.946,388.005 140.279,365.839 131.5,344C 131.836,342.97 132.503,342.47 133.5,342.5 Z"/></g>
<g><path style="opacity:0.978" fill="#cbb625" d="M 305.5,338.5 C 309.601,338.43 312.101,340.43 313,344.5C 313.667,348.833 313.667,353.167 313,357.5C 309.728,362.403 306.061,362.737 302,358.5C 298.117,350.792 299.283,344.126 305.5,338.5 Z"/></g>
<g><path style="opacity:0.901" fill="#64613c" d="M 416.5,236.5 C 416.5,243.833 416.5,251.167 416.5,258.5C 416.5,264.833 416.5,271.167 416.5,277.5C 416.5,291.833 416.5,306.167 416.5,320.5C 416.5,324.833 416.5,329.167 416.5,333.5C 414.979,346.416 411.979,359.082 407.5,371.5C 405.926,372.984 404.593,374.651 403.5,376.5C 401.821,376.892 400.154,377.392 398.5,378C 399.433,379.608 398.767,380.441 396.5,380.5C 394.734,379.909 393.067,379.076 391.5,378C 392,377.5 392.5,377 393,376.5C 395.478,377.622 397.645,377.122 399.5,375C 396.972,374.331 396.972,373.498 399.5,372.5C 400.086,372.709 400.586,373.043 401,373.5C 402.309,371.253 402.975,368.92 403,366.5C 401.598,368.973 400.098,368.973 398.5,366.5C 398.709,365.914 399.043,365.414 399.5,365C 397.956,364.71 396.623,364.044 395.5,363C 393.272,362.18 391.272,362.513 389.5,364C 390.938,364.219 392.271,364.719 393.5,365.5C 392.418,365.749 391.085,365.915 389.5,366C 388.809,367.067 388.309,368.234 388,369.5C 387.385,367.884 386.385,366.551 385,365.5C 382.757,366.971 380.257,367.971 377.5,368.5C 379.296,369.141 380.796,370.141 382,371.5C 383.385,370.449 384.385,369.116 385,367.5C 385.309,368.766 385.809,369.933 386.5,371C 386.167,371.333 385.833,371.667 385.5,372C 386.938,372.219 388.271,372.719 389.5,373.5C 387.234,374.432 385.234,375.766 383.5,377.5C 383.709,378.086 384.043,378.586 384.5,379C 383.234,379.309 382.067,379.809 381,380.5C 379.915,379.707 378.748,379.04 377.5,378.5C 374.763,380.269 372.096,382.102 369.5,384C 370.609,384.638 371.775,385.138 373,385.5C 373.574,384.646 374.241,383.646 375,382.5C 376.059,382.63 376.892,383.13 377.5,384C 375.614,386.815 373.281,388.315 370.5,388.5C 369.833,390.833 369.167,393.167 368.5,395.5C 368.12,393.979 367.954,392.313 368,390.5C 366.512,392.82 364.679,392.987 362.5,391C 363.167,390 363.833,389 364.5,388C 361.414,386.437 358.414,384.603 355.5,382.5C 354.137,383.198 352.971,383.198 352,382.5C 351.544,383.744 352.044,384.577 353.5,385C 351.117,385.065 350.45,385.898 351.5,387.5C 351.043,388.298 350.376,388.631 349.5,388.5C 340.993,388.441 332.66,388.275 324.5,388C 325.308,387.692 325.975,387.192 326.5,386.5C 325.359,385.575 325.359,384.741 326.5,384C 328.367,383.289 329.867,383.789 331,385.5C 330.957,382.912 332.123,380.579 334.5,378.5C 336.017,379.911 337.351,379.744 338.5,378C 336.431,377.676 336.098,376.842 337.5,375.5C 336.208,373.333 335.375,371 335,368.5C 334.586,368.043 334.086,367.709 333.5,367.5C 332.672,368.415 331.672,369.081 330.5,369.5C 329.137,368.802 327.971,368.802 327,369.5C 326.333,366.833 325.667,366.833 325,369.5C 324.333,368.167 323.667,368.167 323,369.5C 322.333,367.5 321.667,365.5 321,363.5C 318.778,365.278 316.612,365.445 314.5,364C 316.587,363.208 318.421,362.041 320,360.5C 321,361.5 322,362.5 323,363.5C 324.113,362.289 325.28,362.289 326.5,363.5C 328.769,362.185 331.102,361.018 333.5,360C 330.563,356.188 328.73,352.021 328,347.5C 330.666,349.489 332.333,352.156 333,355.5C 334.011,356.337 335.178,356.67 336.5,356.5C 342.39,362.521 346.723,361.521 349.5,353.5C 350.931,353.881 351.764,354.881 352,356.5C 357.099,353.146 356.599,351.813 350.5,352.5C 350.464,347.971 351.798,343.971 354.5,340.5C 355.696,340.846 355.696,341.346 354.5,342C 356.421,342.36 358.088,343.194 359.5,344.5C 360.711,343.726 360.711,342.893 359.5,342C 360.167,341.333 360.833,341.333 361.5,342C 363.891,343.309 363.891,344.309 361.5,345C 363.481,345.605 363.815,346.605 362.5,348C 364.791,348.015 366.958,348.182 369,348.5C 371.058,347.891 371.891,346.891 371.5,345.5C 372.192,346.025 372.692,346.692 373,347.5C 373.374,346.584 373.874,345.75 374.5,345C 371.681,344.017 369.014,343.517 366.5,343.5C 368.69,341.9 370.69,340.066 372.5,338C 371.004,337.493 369.837,337.993 369,339.5C 368.91,337.232 370.077,335.732 372.5,335C 371.549,334.282 371.383,333.449 372,332.5C 373.722,330.305 375.556,328.972 377.5,328.5C 376.935,326.491 375.935,324.824 374.5,323.5C 375.167,323.167 375.833,322.833 376.5,322.5C 377.043,322.44 377.376,322.107 377.5,321.5C 376.624,320.749 375.624,320.249 374.5,320C 378.421,319.797 382.255,319.297 386,318.5C 386.914,319.654 387.747,319.487 388.5,318C 386.137,317.411 385.137,315.911 385.5,313.5C 387.833,313.5 390.167,313.5 392.5,313.5C 392.118,309.022 391.118,304.689 389.5,300.5C 389.334,296.486 389.501,292.486 390,288.5C 390.278,287.584 390.778,286.918 391.5,286.5C 394.613,293.555 399.946,296.055 407.5,294C 412.769,290.181 412.769,286.181 407.5,282C 402.748,281.227 398.081,281.393 393.5,282.5C 393.915,280.253 394.582,278.086 395.5,276C 395.472,274.93 395.139,274.097 394.5,273.5C 391.894,265.348 388.894,257.348 385.5,249.5C 381.807,257.548 378.141,265.548 374.5,273.5C 372.948,274.622 371.282,275.122 369.5,275C 369.366,273.455 369.7,271.788 370.5,270C 371.272,268.779 372.272,267.779 373.5,267C 373,266.833 372.5,266.667 372,266.5C 368.761,267.902 365.928,269.902 363.5,272.5C 363.167,271.833 362.833,271.167 362.5,270.5C 361.295,272.138 359.962,272.471 358.5,271.5C 357.949,269.587 357.782,267.587 358,265.5C 355.361,269.828 352.028,270.494 348,267.5C 347.228,267.645 346.561,267.978 346,268.5C 345.502,265.518 345.335,262.518 345.5,259.5C 347.42,256.661 349.087,253.661 350.5,250.5C 357.863,250.831 365.197,250.497 372.5,249.5C 370.812,248.479 369.479,247.145 368.5,245.5C 374.177,244.573 379.844,243.573 385.5,242.5C 389.971,243.089 393.971,242.423 397.5,240.5C 400.027,240.353 402.693,240.02 405.5,239.5C 407.503,236.03 410.17,234.697 413.5,235.5C 413.177,231.774 413.511,228.107 414.5,224.5C 415.167,228.647 415.834,232.647 416.5,236.5 Z"/></g>
<g><path style="opacity:0.929" fill="#c4ae25" d="M 385.5,322.5 C 394.31,321.929 401.143,325.262 406,332.5C 407.643,337.428 406.143,340.928 401.5,343C 398.036,343.817 394.702,343.483 391.5,342C 385.811,337.463 383.311,331.63 384,324.5C 384.717,323.956 385.217,323.289 385.5,322.5 Z"/></g>
<g><path style="opacity:0.869" fill="#9fa092" d="M 394.5,273.5 C 391.572,274.82 388.239,275.486 384.5,275.5C 380.761,275.486 377.428,274.82 374.5,273.5C 378.141,265.548 381.807,257.548 385.5,249.5C 388.894,257.348 391.894,265.348 394.5,273.5 Z"/></g>
<g><path style="opacity:0.694" fill="#a89327" d="M 397.5,247.5 C 402.665,246.233 407.498,247.233 412,250.5C 413.165,254.684 411.665,257.517 407.5,259C 404.304,259.805 401.304,259.638 398.5,258.5C 401.718,258.349 402.051,257.516 399.5,256C 401.567,255.464 403.401,255.964 405,257.5C 405.167,256.833 405.333,256.167 405.5,255.5C 403.24,253.255 401.906,250.589 401.5,247.5C 400.167,247.5 398.833,247.5 397.5,247.5 Z"/></g>
<g><path style="opacity:0.826" fill="#bca726" d="M 397.5,247.5 C 398.833,247.5 400.167,247.5 401.5,247.5C 401.906,250.589 403.24,253.255 405.5,255.5C 405.333,256.167 405.167,256.833 405,257.5C 403.401,255.964 401.567,255.464 399.5,256C 402.051,257.516 401.718,258.349 398.5,258.5C 394.069,257.575 392.235,254.909 393,250.5C 394.271,249.117 395.771,248.117 397.5,247.5 Z"/></g>
<g><path style="opacity:0.967" fill="#c9b426" d="M 349.5,353.5 C 346.723,361.521 342.39,362.521 336.5,356.5C 334.69,352.69 334.19,348.69 335,344.5C 336.174,339.245 339.34,337.078 344.5,338C 348.923,342.221 350.59,347.387 349.5,353.5 Z"/></g>
<g><path style="opacity:0.977" fill="#ccb626" d="M 271.5,339.5 C 277.71,340.322 280.377,343.989 279.5,350.5C 279.953,358.551 276.286,361.718 268.5,360C 263.784,355.308 263.284,350.141 267,344.5C 268.707,342.963 270.207,341.296 271.5,339.5 Z"/></g>
<g><path style="opacity:0.737" fill="#a89384" d="M 423.5,354.5 C 423.833,354.5 424.167,354.5 424.5,354.5C 426.19,360.604 427.856,366.604 429.5,372.5C 429.421,373.93 429.754,375.264 430.5,376.5C 424.418,378.936 418.085,380.27 411.5,380.5C 411.324,383.727 410.657,386.727 409.5,389.5C 408.942,388.21 407.942,387.377 406.5,387C 406.957,386.586 407.291,386.086 407.5,385.5C 405.223,384.579 402.89,383.913 400.5,383.5C 401.758,381.313 402.758,378.98 403.5,376.5C 404.593,374.651 405.926,372.984 407.5,371.5C 407.586,372.496 407.252,373.329 406.5,374C 408.918,374.915 410.918,376.415 412.5,378.5C 414.288,376.424 415.954,374.257 417.5,372C 419.45,370.504 421.45,370.337 423.5,371.5C 420.942,373.769 421.442,375.435 425,376.5C 425.212,374.22 426.045,372.22 427.5,370.5C 424.973,369.786 422.473,369.12 420,368.5C 419.768,365.252 420.601,362.252 422.5,359.5C 420.954,358.316 419.287,357.316 417.5,356.5C 419.631,355.831 421.631,355.165 423.5,354.5 Z"/></g>
<g><path style="opacity:0.352" fill="#35291c" d="M 143.5,408.5 C 147.745,410.27 150.078,413.604 150.5,418.5C 150.483,420.028 149.816,420.528 148.5,420C 144.5,416.333 140.5,412.667 136.5,409C 133.512,408.783 130.845,407.783 128.5,406C 115.934,394.467 107.6,380.8 103.5,365C 101.697,363.738 100.364,362.071 99.5,360C 97.1116,359.697 94.9449,358.863 93,357.5C 91.6861,358.313 90.5195,359.313 89.5,360.5C 88.5037,354.202 88.1703,347.868 88.5,341.5C 89.3089,337.981 91.3089,336.648 94.5,337.5C 101.237,354.31 109.071,370.643 118,386.5C 124.227,396.567 132.727,403.9 143.5,408.5 Z"/></g>
<g><path style="opacity:0.953" fill="#534f2f" d="M 124.5,325.5 C 125.988,330.101 127.488,334.768 129,339.5C 130.409,340.781 131.909,341.781 133.5,342.5C 132.503,342.47 131.836,342.97 131.5,344C 140.279,365.839 147.946,388.005 154.5,410.5C 155.5,410.5 156.5,410.5 157.5,410.5C 157.5,410.833 157.5,411.167 157.5,411.5C 156.957,411.56 156.624,411.893 156.5,412.5C 157.875,416.725 159.542,420.725 161.5,424.5C 162.908,429.146 165.241,433.312 168.5,437C 172.646,438.937 176.979,440.271 181.5,441C 188.5,441.333 195.5,441.667 202.5,442C 203.833,443.333 203.833,444.667 202.5,446C 190.791,446.33 179.124,445.663 167.5,444C 164.577,441.955 161.743,439.788 159,437.5C 156.117,431.077 153.283,424.743 150.5,418.5C 150.078,413.604 147.745,410.27 143.5,408.5C 144.675,408.719 145.675,408.386 146.5,407.5C 138.568,386.205 130.735,364.872 123,343.5C 121.378,342.901 119.878,342.234 118.5,341.5C 119.675,341.719 120.675,341.386 121.5,340.5C 119.853,335.909 118.519,331.243 117.5,326.5C 115.585,326.784 113.919,326.451 112.5,325.5C 113.873,325.657 115.207,325.49 116.5,325C 111.066,309.53 105.732,294.03 100.5,278.5C 112.039,278.198 123.539,278.531 135,279.5C 136.257,279.85 136.591,280.517 136,281.5C 130.977,287.521 125.644,293.188 120,298.5C 116.777,294.646 114.61,290.312 113.5,285.5C 114.873,285.343 116.207,285.51 117.5,286C 118.376,287.586 119.376,289.086 120.5,290.5C 123.167,288.5 125.5,286.167 127.5,283.5C 121.202,282.504 114.868,282.17 108.5,282.5C 113.04,297.118 118.373,311.451 124.5,325.5 Z"/></g>
<g><path style="opacity:0.848" fill="#bda799" d="M 416.5,333.5 C 419.417,340.252 421.751,347.252 423.5,354.5C 421.631,355.165 419.631,355.831 417.5,356.5C 419.287,357.316 420.954,358.316 422.5,359.5C 420.601,362.252 419.768,365.252 420,368.5C 422.473,369.12 424.973,369.786 427.5,370.5C 426.045,372.22 425.212,374.22 425,376.5C 421.442,375.435 420.942,373.769 423.5,371.5C 421.45,370.337 419.45,370.504 417.5,372C 415.954,374.257 414.288,376.424 412.5,378.5C 410.918,376.415 408.918,374.915 406.5,374C 407.252,373.329 407.586,372.496 407.5,371.5C 411.979,359.082 414.979,346.416 416.5,333.5 Z"/></g>
<g><path style="opacity:0.786" fill="#625c3a" d="M 403.5,376.5 C 402.758,378.98 401.758,381.313 400.5,383.5C 399.061,385.36 397.395,387.027 395.5,388.5C 387.976,390.201 380.309,390.867 372.5,390.5C 372.469,397.383 374.136,403.717 377.5,409.5C 377.604,411.703 378.27,413.703 379.5,415.5C 378.957,415.56 378.624,415.893 378.5,416.5C 380.542,422.72 382.875,428.72 385.5,434.5C 386.122,436.335 387.456,437.502 389.5,438C 392.757,439.043 396.09,439.543 399.5,439.5C 401.833,439.5 404.167,439.5 406.5,439.5C 410.5,439.5 414.5,439.5 418.5,439.5C 419.931,440.78 420.598,442.447 420.5,444.5C 406.177,445.796 391.844,445.796 377.5,444.5C 371.845,434.186 366.511,423.853 361.5,413.5C 362.075,411.658 361.909,409.658 361,407.5C 359.348,403.699 357.514,400.032 355.5,396.5C 355.107,394.716 354.441,393.05 353.5,391.5C 351.781,390.978 350.448,389.978 349.5,388.5C 350.376,388.631 351.043,388.298 351.5,387.5C 350.45,385.898 351.117,385.065 353.5,385C 352.044,384.577 351.544,383.744 352,382.5C 352.971,383.198 354.137,383.198 355.5,382.5C 358.414,384.603 361.414,386.437 364.5,388C 363.833,389 363.167,390 362.5,391C 364.679,392.987 366.512,392.82 368,390.5C 367.954,392.313 368.12,393.979 368.5,395.5C 369.167,393.167 369.833,390.833 370.5,388.5C 373.281,388.315 375.614,386.815 377.5,384C 376.892,383.13 376.059,382.63 375,382.5C 374.241,383.646 373.574,384.646 373,385.5C 371.775,385.138 370.609,384.638 369.5,384C 372.096,382.102 374.763,380.269 377.5,378.5C 378.748,379.04 379.915,379.707 381,380.5C 382.067,379.809 383.234,379.309 384.5,379C 384.043,378.586 383.709,378.086 383.5,377.5C 385.234,375.766 387.234,374.432 389.5,373.5C 388.271,372.719 386.938,372.219 385.5,372C 385.833,371.667 386.167,371.333 386.5,371C 385.809,369.933 385.309,368.766 385,367.5C 384.385,369.116 383.385,370.449 382,371.5C 380.796,370.141 379.296,369.141 377.5,368.5C 380.257,367.971 382.757,366.971 385,365.5C 386.385,366.551 387.385,367.884 388,369.5C 388.309,368.234 388.809,367.067 389.5,366C 391.085,365.915 392.418,365.749 393.5,365.5C 392.271,364.719 390.938,364.219 389.5,364C 391.272,362.513 393.272,362.18 395.5,363C 396.623,364.044 397.956,364.71 399.5,365C 399.043,365.414 398.709,365.914 398.5,366.5C 400.098,368.973 401.598,368.973 403,366.5C 402.975,368.92 402.309,371.253 401,373.5C 400.586,373.043 400.086,372.709 399.5,372.5C 396.972,373.498 396.972,374.331 399.5,375C 397.645,377.122 395.478,377.622 393,376.5C 392.5,377 392,377.5 391.5,378C 393.067,379.076 394.734,379.909 396.5,380.5C 398.767,380.441 399.433,379.608 398.5,378C 400.154,377.392 401.821,376.892 403.5,376.5 Z"/></g>
<g><path style="opacity:0.757" fill="#baa597" d="M 400.5,383.5 C 402.89,383.913 405.223,384.579 407.5,385.5C 407.291,386.086 406.957,386.586 406.5,387C 407.942,387.377 408.942,388.21 409.5,389.5C 408.841,392.455 408.508,395.455 408.5,398.5C 402.5,398.5 396.5,398.5 390.5,398.5C 391.091,397.849 391.757,397.182 392.5,396.5C 391.263,395.719 390.263,394.719 389.5,393.5C 391.342,391.522 393.342,389.855 395.5,388.5C 397.395,387.027 399.061,385.36 400.5,383.5 Z"/></g>
<g><path style="opacity:0.773" fill="#929080" d="M 395.5,388.5 C 393.342,389.855 391.342,391.522 389.5,393.5C 390.263,394.719 391.263,395.719 392.5,396.5C 391.757,397.182 391.091,397.849 390.5,398.5C 389.833,398.5 389.5,398.833 389.5,399.5C 386.407,403.927 382.407,407.26 377.5,409.5C 374.136,403.717 372.469,397.383 372.5,390.5C 380.309,390.867 387.976,390.201 395.5,388.5 Z"/></g>
<g><path style="opacity:0.949" fill="#a6a99c" d="M 270.5,391.5 C 298.167,391.5 325.833,391.5 353.5,391.5C 354.441,393.05 355.107,394.716 355.5,396.5C 353.886,399.6 351.386,401.933 348,403.5C 346.108,403.223 344.775,402.223 344,400.5C 343.167,401.333 342.333,402.167 341.5,403C 345.397,403.807 346.063,405.474 343.5,408C 347.242,408.903 350.909,410.07 354.5,411.5C 352.031,412.168 349.698,412.835 347.5,413.5C 323.83,413.655 300.164,413.988 276.5,414.5C 270.368,411.62 264.368,408.453 258.5,405C 262.324,400.343 266.324,395.843 270.5,391.5 Z"/></g>
<g><path style="opacity:0.871" fill="#9fa193" d="M 209.5,368.5 C 214.13,382.34 218.464,396.34 222.5,410.5C 222.5,410.833 222.5,411.167 222.5,411.5C 200.833,411.5 179.167,411.5 157.5,411.5C 157.5,411.167 157.5,410.833 157.5,410.5C 162.179,410.666 166.845,410.499 171.5,410C 172.328,409.085 173.328,408.419 174.5,408C 172.167,407.667 169.833,407.333 167.5,407C 170.036,406.661 172.536,406.161 175,405.5C 176.897,405.896 178.397,406.896 179.5,408.5C 183.765,406.754 188.098,405.088 192.5,403.5C 193.503,400.965 192.837,398.798 190.5,397C 191.061,395.324 192.061,393.991 193.5,393C 193.167,391.333 192.833,389.667 192.5,388C 194.194,386.272 195.361,386.772 196,389.5C 198.344,387.226 201.178,386.059 204.5,386C 203.572,385.612 202.905,384.945 202.5,384C 203.695,382.467 203.695,380.967 202.5,379.5C 204.256,379.64 205.922,379.14 207.5,378C 204.894,377.55 203.561,376.05 203.5,373.5C 205.942,373.646 206.609,372.813 205.5,371C 207.437,370.878 208.77,370.045 209.5,368.5 Z"/></g>
<g><path style="opacity:0.204" fill="#3d2e1e" d="M 389.5,399.5 C 394.297,399.121 398.964,399.621 403.5,401C 402.833,401.333 402.167,401.667 401.5,402C 401.721,403.799 402.054,405.632 402.5,407.5C 400.833,408.167 399.167,408.833 397.5,409.5C 397.808,410.308 398.308,410.975 399,411.5C 400.337,410.235 401.837,409.735 403.5,410C 404.984,411.574 406.651,412.907 408.5,414C 407.398,416.391 408.064,416.891 410.5,415.5C 412.167,416.833 413.833,418.167 415.5,419.5C 418.894,423.621 421.227,428.288 422.5,433.5C 422.166,435.992 420.833,437.659 418.5,438.5C 415.258,432.22 411.925,425.887 408.5,419.5C 406.067,417.946 403.4,417.28 400.5,417.5C 393.525,416.669 386.525,416.002 379.5,415.5C 378.27,413.703 377.604,411.703 377.5,409.5C 382.407,407.26 386.407,403.927 389.5,399.5 Z"/></g>
<g><path style="opacity:0.83" fill="#99998b" d="M 355.5,396.5 C 357.514,400.032 359.348,403.699 361,407.5C 361.909,409.658 362.075,411.658 361.5,413.5C 356.833,413.5 352.167,413.5 347.5,413.5C 349.698,412.835 352.031,412.168 354.5,411.5C 350.909,410.07 347.242,408.903 343.5,408C 346.063,405.474 345.397,403.807 341.5,403C 342.333,402.167 343.167,401.333 344,400.5C 344.775,402.223 346.108,403.223 348,403.5C 351.386,401.933 353.886,399.6 355.5,396.5 Z"/></g>
<g><path style="opacity:0.35" fill="#34271b" d="M 157.5,411.5 C 179.167,411.5 200.833,411.5 222.5,411.5C 223.92,416.953 225.586,422.286 227.5,427.5C 227.286,429.144 227.62,430.644 228.5,432C 227.552,432.483 226.552,432.649 225.5,432.5C 225.896,429.956 225.229,427.789 223.5,426C 223.833,425.667 224.167,425.333 224.5,425C 221.965,424.072 220.965,422.238 221.5,419.5C 219.266,418.296 216.933,417.13 214.5,416C 213.929,414.795 213.262,413.628 212.5,412.5C 206.879,414.079 201.212,414.413 195.5,413.5C 193.235,413.94 191.068,414.606 189,415.5C 188.692,414.692 188.192,414.025 187.5,413.5C 185.039,414.602 182.539,414.602 180,413.5C 176.06,414.005 172.227,415.172 168.5,417C 165.672,419.162 164.672,421.829 165.5,425C 164.181,425.195 162.847,425.028 161.5,424.5C 159.542,420.725 157.875,416.725 156.5,412.5C 156.624,411.893 156.957,411.56 157.5,411.5 Z"/></g>
<g><path style="opacity:0.74" fill="#8e763b" d="M 233.5,401.5 C 237.669,414.011 241.669,426.677 245.5,439.5C 245.856,440.87 246.69,441.87 248,442.5C 249.455,441.42 250.955,441.42 252.5,442.5C 254.221,444.694 256.555,445.861 259.5,446C 258.619,446.708 257.953,447.542 257.5,448.5C 251.491,448.666 245.491,448.499 239.5,448C 238,446.5 236.5,445 235,443.5C 232.575,438.022 230.075,432.688 227.5,427.5C 225.586,422.286 223.92,416.953 222.5,411.5C 222.5,411.167 222.5,410.833 222.5,410.5C 223.151,411.091 223.818,411.757 224.5,412.5C 227.407,410.53 230.407,408.696 233.5,407C 231.624,405.983 229.624,405.149 227.5,404.5C 228.506,403.604 228.506,402.938 227.5,402.5C 225.216,403.843 224.383,403.176 225,400.5C 227.55,400.955 230.384,401.289 233.5,401.5 Z"/></g>
<g><path style="opacity:0.757" fill="#baa393" d="M 230.5,393.5 C 238.495,397.303 246.161,401.803 253.5,407C 248.494,409.501 243.827,412.501 239.5,416C 246.009,419.755 252.676,423.255 259.5,426.5C 256.478,429.853 253.478,433.187 250.5,436.5C 249.078,437.925 247.411,438.925 245.5,439.5C 241.669,426.677 237.669,414.011 233.5,401.5C 232.5,398.833 231.5,396.167 230.5,393.5 Z"/></g>
<g><path style="opacity:0.262" fill="#36291b" d="M 347.5,413.5 C 352.167,413.5 356.833,413.5 361.5,413.5C 366.511,423.853 371.845,434.186 377.5,444.5C 377.631,445.376 377.298,446.043 376.5,446.5C 372.911,443.541 369.744,440.207 367,436.5C 364.743,428.572 359.909,422.739 352.5,419C 342.304,418.57 332.304,418.736 322.5,419.5C 319.374,417.187 315.874,416.187 312,416.5C 302.937,416.597 293.77,417.43 284.5,419C 279.253,420.206 277.586,423.206 279.5,428C 278.833,428.333 278.167,428.667 277.5,429C 278.5,430 279.5,431 280.5,432C 279.906,432.464 279.239,432.631 278.5,432.5C 273.708,430.938 269.374,428.605 265.5,425.5C 268.854,421.479 272.521,417.812 276.5,414.5C 300.164,413.988 323.83,413.655 347.5,413.5 Z"/></g>
<g><path style="opacity:0.928" fill="#9a9b8c" d="M 379.5,415.5 C 386.525,416.002 393.525,416.669 400.5,417.5C 395.865,423.469 390.865,429.136 385.5,434.5C 382.875,428.72 380.542,422.72 378.5,416.5C 378.624,415.893 378.957,415.56 379.5,415.5 Z"/></g>
<g><path style="opacity:0.948" fill="#cf7711" d="M 230.5,391.5 C 243.833,391.5 257.167,391.5 270.5,391.5C 266.324,395.843 262.324,400.343 258.5,405C 264.368,408.453 270.368,411.62 276.5,414.5C 272.521,417.812 268.854,421.479 265.5,425.5C 269.374,428.605 273.708,430.938 278.5,432.5C 283.52,435.677 288.854,438.343 294.5,440.5C 294.5,440.833 294.5,441.167 294.5,441.5C 281.163,441.667 267.829,441.5 254.5,441C 255.167,440 255.833,439 256.5,438C 254.581,437.134 252.581,436.634 250.5,436.5C 253.478,433.187 256.478,429.853 259.5,426.5C 252.676,423.255 246.009,419.755 239.5,416C 243.827,412.501 248.494,409.501 253.5,407C 246.161,401.803 238.495,397.303 230.5,393.5C 230.5,392.833 230.5,392.167 230.5,391.5 Z"/></g>
<g><path style="opacity:0.868" fill="#c07114" d="M 400.5,417.5 C 403.4,417.28 406.067,417.946 408.5,419.5C 411.925,425.887 415.258,432.22 418.5,438.5C 418.5,438.833 418.5,439.167 418.5,439.5C 414.5,439.5 410.5,439.5 406.5,439.5C 407.013,437.71 407.513,436.044 408,434.5C 407.586,434.043 407.086,433.709 406.5,433.5C 403.475,434.783 400.475,435.116 397.5,434.5C 397.833,433.833 398.167,433.167 398.5,432.5C 397.147,431.476 396.48,430.143 396.5,428.5C 398.39,428.297 399.89,428.963 401,430.5C 402.667,429.833 404.333,429.167 406,428.5C 406.492,429.549 406.326,430.549 405.5,431.5C 407.547,432.904 409.214,432.571 410.5,430.5C 409.975,429.808 409.308,429.308 408.5,429C 409.451,428.282 409.617,427.449 409,426.5C 407.612,427.554 406.112,427.72 404.5,427C 402.629,424.031 400.296,423.697 397.5,426C 395.004,428.656 393.004,431.656 391.5,435C 393.167,434.667 394.833,434.333 396.5,434C 395.5,435 394.5,436 393.5,437C 395.611,437.845 397.611,438.678 399.5,439.5C 396.09,439.543 392.757,439.043 389.5,438C 387.456,437.502 386.122,436.335 385.5,434.5C 390.865,429.136 395.865,423.469 400.5,417.5 Z"/></g>
<g><path style="opacity:0.893" fill="#d07710" d="M 406.5,439.5 C 404.167,439.5 401.833,439.5 399.5,439.5C 397.611,438.678 395.611,437.845 393.5,437C 394.5,436 395.5,435 396.5,434C 394.833,434.333 393.167,434.667 391.5,435C 393.004,431.656 395.004,428.656 397.5,426C 400.296,423.697 402.629,424.031 404.5,427C 406.112,427.72 407.612,427.554 409,426.5C 409.617,427.449 409.451,428.282 408.5,429C 409.308,429.308 409.975,429.808 410.5,430.5C 409.214,432.571 407.547,432.904 405.5,431.5C 406.326,430.549 406.492,429.549 406,428.5C 404.333,429.167 402.667,429.833 401,430.5C 399.89,428.963 398.39,428.297 396.5,428.5C 396.48,430.143 397.147,431.476 398.5,432.5C 398.167,433.167 397.833,433.833 397.5,434.5C 400.475,435.116 403.475,434.783 406.5,433.5C 407.086,433.709 407.586,434.043 408,434.5C 407.513,436.044 407.013,437.71 406.5,439.5 Z"/></g>
<g><path style="opacity:0.008" fill="#503d28" d="M 131.5,437.5 C 132.833,438.167 132.833,438.167 131.5,437.5 Z"/></g>
<g><path style="opacity:0.896" fill="#ba751c" d="M 250.5,436.5 C 252.581,436.634 254.581,437.134 256.5,438C 255.833,439 255.167,440 254.5,441C 267.829,441.5 281.163,441.667 294.5,441.5C 280.677,442.496 266.677,442.829 252.5,442.5C 250.955,441.42 249.455,441.42 248,442.5C 246.69,441.87 245.856,440.87 245.5,439.5C 247.411,438.925 249.078,437.925 250.5,436.5 Z"/></g>
<g><path style="opacity:0.967" fill="#9a823d" d="M 294.5,440.5 C 295.478,440.811 296.145,441.478 296.5,442.5C 295.289,444.422 293.956,446.255 292.5,448C 280.838,448.5 269.171,448.667 257.5,448.5C 257.953,447.542 258.619,446.708 259.5,446C 256.555,445.861 254.221,444.694 252.5,442.5C 266.677,442.829 280.677,442.496 294.5,441.5C 294.5,441.167 294.5,440.833 294.5,440.5 Z"/></g>
<g><path style="opacity:0.008" fill="#4f3d28" d="M 213.5,456.5 C 214.525,456.897 214.692,457.563 214,458.5C 213.536,457.906 213.369,457.239 213.5,456.5 Z"/></g>
</svg>
