<?xml version="1.0" encoding="UTF-8"?>
<!DOCTYPE svg PUBLIC "-//W3C//DTD SVG 1.1//EN" "http://www.w3.org/Graphics/SVG/1.1/DTD/svg11.dtd">
<svg xmlns="http://www.w3.org/2000/svg" version="1.1" width="500px" height="500px" style="shape-rendering:geometricPrecision; text-rendering:geometricPrecision; image-rendering:optimizeQuality; fill-rule:evenodd; clip-rule:evenodd" xmlns:xlink="http://www.w3.org/1999/xlink">
<g><path style="opacity:0.03" fill="#4e3b27" d="M 424.5,257.5 C 415.188,265.561 413.688,274.894 420,285.5C 422.913,293.817 422.58,301.817 419,309.5C 416.896,311.799 414.396,313.466 411.5,314.5C 395.461,315.966 379.794,319.799 364.5,326C 363.667,326.833 362.833,327.667 362,328.5C 358.106,337.392 353.772,346.059 349,354.5C 347.833,355.667 346.667,356.833 345.5,358C 340.286,359.591 334.952,360.425 329.5,360.5C 330.084,367.257 331.251,373.924 333,380.5C 333.886,389.895 333.553,399.228 332,408.5C 330.878,410.624 329.378,412.457 327.5,414C 322.847,415.23 318.18,416.397 313.5,417.5C 311.458,418.503 311.125,419.837 312.5,421.5C 311.348,429.486 306.848,434.486 299,436.5C 295.085,436 291.085,436 287,436.5C 275.746,435.913 269.746,429.913 269,418.5C 267.184,416.559 265.184,415.892 263,416.5C 261.151,422.059 259.484,427.726 258,433.5C 255.647,436.405 252.647,438.405 249,439.5C 242.102,439.773 234.936,439.273 227.5,438C 221.424,434.579 217.591,429.412 216,422.5C 214.186,421.24 212.353,421.24 210.5,422.5C 209.772,426.302 208.606,429.969 207,433.5C 205.352,434.717 203.519,435.55 201.5,436C 198.833,440 195.5,443.333 191.5,446C 185.224,447.424 178.891,447.758 172.5,447C 171.975,446.308 171.308,445.808 170.5,445.5C 159.158,449.062 147.824,449.229 136.5,446C 134.383,444.269 132.883,442.102 132,439.5C 126.427,436.955 123.927,432.622 124.5,426.5C 123.127,426.343 121.793,426.51 120.5,427C 118.585,433.585 114.252,437.252 107.5,438C 99.087,439.241 91.087,438.075 83.5,434.5C 73.0652,438.629 62.7318,438.462 52.5,434C 46.4238,424.773 42.9238,414.606 42,403.5C 41.6667,398.5 41.3333,393.5 41,388.5C 38.1914,385.73 35.5247,382.73 33,379.5C 31.0597,371.505 31.0597,363.505 33,355.5C 35.8758,347.402 39.7092,339.402 44.5,331.5C 36.9889,320.624 36.6555,309.624 43.5,298.5C 50.4495,295.815 57.6162,294.149 65,293.5C 69.6219,293.609 74.4552,293.609 79.5,293.5C 79.5368,287.465 80.0368,281.465 81,275.5C 83.1719,268.024 88.1719,265.024 96,266.5C 100.835,266.329 105.502,266.996 110,268.5C 112.197,259.842 114.03,251.008 115.5,242C 115.333,240.833 115.167,239.667 115,238.5C 103.476,227.405 100.643,214.405 106.5,199.5C 110.402,197.483 114.569,196.483 119,196.5C 124.498,197.403 129.998,197.903 135.5,198C 138.097,195.683 138.93,192.85 138,189.5C 130.277,181.886 121.111,176.719 110.5,174C 106.695,169.832 104.695,164.832 104.5,159C 104.796,153.165 106.463,147.831 109.5,143C 117.33,137.085 125.997,132.752 135.5,130C 141.681,114.23 153.347,107.063 170.5,108.5C 168.641,98.036 166.974,87.536 165.5,77C 164.688,64.4786 170.521,58.6453 183,59.5C 193.526,59.5158 202.693,63.0158 210.5,70C 215.706,75.206 220.873,80.3727 226,85.5C 227.261,85.2409 228.261,84.5742 229,83.5C 234.062,73.0541 240.395,63.3874 248,54.5C 250.707,52.0637 253.873,50.5637 257.5,50C 264.297,49.0641 270.964,49.5641 277.5,51.5C 278.551,52.8848 279.884,53.8848 281.5,54.5C 282.276,58.9255 283.61,63.0922 285.5,67C 292.535,67.2728 299.202,68.9394 305.5,72C 307.972,73.6013 308.972,75.6013 308.5,78C 309.665,79.0836 310.998,79.9169 312.5,80.5C 321.1,77.9756 330.1,77.1423 339.5,78C 344.507,78.6716 347.007,81.5049 347,86.5C 347.333,86.1667 347.667,85.8333 348,85.5C 348.413,88.2321 349.08,90.8987 350,93.5C 353.038,96.2026 355.705,99.2026 358,102.5C 358.029,111.329 358.696,119.996 360,128.5C 362.148,127.023 363.482,125.023 364,122.5C 366.791,110.612 370.291,99.7787 374.5,90C 374.043,89.586 373.709,89.086 373.5,88.5C 375.442,81.8144 377.609,74.8144 380,67.5C 380.883,64.8976 382.383,62.7309 384.5,61C 392.706,58.0573 401.04,57.724 409.5,60C 415.116,62.9915 420.782,65.9915 426.5,69C 429.171,70.25 431.337,72.0833 433,74.5C 433.333,74.1667 433.667,73.8333 434,73.5C 436.666,75.3827 439.166,77.3827 441.5,79.5C 446.064,80.1374 450.064,82.4707 453.5,86.5C 461.993,88.4276 466.659,93.7609 467.5,102.5C 466.569,105.424 466.569,108.591 467.5,112C 467.518,118.986 464.518,123.986 458.5,127C 459.641,127.741 459.641,128.575 458.5,129.5C 455.534,132.091 453.034,135.091 451,138.5C 450.667,138.167 450.333,137.833 450,137.5C 445.457,145.174 443.29,153.674 443.5,163C 448.718,173.567 448.551,184.067 443,194.5C 433.119,201.263 427.619,210.597 426.5,222.5C 427.88,230.827 428.547,238.994 428.5,247C 427.87,248.892 426.87,250.559 425.5,252C 425.833,252.333 426.167,252.667 426.5,253C 425.418,254.33 424.751,255.83 424.5,257.5 Z M 192.5,370.5 C 194.722,370.559 195.722,371.725 195.5,374C 195.568,376.034 194.734,377.534 193,378.5C 190.551,377.056 188.385,375.222 186.5,373C 188.502,371.981 190.502,371.148 192.5,370.5 Z"/></g>
<g><path style="opacity:0.121" fill="#463423" d="M 116.5,210.5 C 120.013,216.191 124.013,221.524 128.5,226.5C 127.522,226.811 126.855,227.478 126.5,228.5C 130.063,235.339 130.396,242.339 127.5,249.5C 127.879,251.213 128.879,252.213 130.5,252.5C 128.368,258.352 128.035,264.352 129.5,270.5C 130.94,269.048 132.606,268.048 134.5,267.5C 139.021,269.106 143.687,270.273 148.5,271C 149.973,271.71 150.64,272.876 150.5,274.5C 152.824,274.662 154.491,275.828 155.5,278C 155.167,278.333 154.833,278.667 154.5,279C 157.947,284.771 156.614,288.605 150.5,290.5C 150.5,291.5 150.5,292.5 150.5,293.5C 149.167,293.5 147.833,293.5 146.5,293.5C 146.5,292.5 146.5,291.5 146.5,290.5C 138.745,290.195 131.078,290.861 123.5,292.5C 120.972,292.237 118.639,291.404 116.5,290C 112.943,284.711 108.277,282.545 102.5,283.5C 100.539,281.688 98.2061,280.688 95.5,280.5C 96.6514,286.318 96.6514,291.985 95.5,297.5C 95.9239,293.297 95.4239,289.297 94,285.5C 91.746,291.386 89.246,297.22 86.5,303C 77.2444,304.808 67.9111,306.142 58.5,307C 56.9586,308.371 55.6253,309.871 54.5,311.5C 50.5606,312.731 50.5606,314.064 54.5,315.5C 54.5792,316.93 54.2458,318.264 53.5,319.5C 55.0156,322.531 56.5156,325.531 58,328.5C 58.6667,330.167 58.6667,331.833 58,333.5C 54.6842,338.314 51.1842,342.981 47.5,347.5C 43.6038,354.352 42.1038,361.685 43,369.5C 45.2147,372.596 46.8814,375.929 48,379.5C 48.7208,390.655 50.3875,401.322 53,411.5C 53.687,414.426 55.5203,415.759 58.5,415.5C 58.1982,420.365 60.1982,422.365 64.5,421.5C 65.7942,422.29 66.9609,423.29 68,424.5C 68.5662,422.277 69.3995,420.277 70.5,418.5C 70.369,419.239 70.5357,419.906 71,420.5C 74.1033,418.697 76.9367,416.53 79.5,414C 82.3033,413.245 84.9699,413.578 87.5,415C 89.8333,417.333 92.1667,419.667 94.5,422C 95.7932,422.49 97.1266,422.657 98.5,422.5C 100.372,426.299 102.039,426.299 103.5,422.5C 105.433,422.271 107.1,421.438 108.5,420C 111.517,416.914 114.517,413.914 117.5,411C 128.775,405.788 136.108,408.955 139.5,420.5C 136.96,424.11 137.96,425.11 142.5,423.5C 140.793,426.755 141.46,429.421 144.5,431.5C 145.182,430.757 145.849,430.091 146.5,429.5C 145.756,432.95 147.09,434.616 150.5,434.5C 152.077,435.722 153.744,436.722 155.5,437.5C 157.709,436.894 159.876,436.227 162,435.5C 164.091,436.5 165.757,435.833 167,433.5C 167.333,434.167 167.667,434.833 168,435.5C 168.667,434.167 169.333,434.167 170,435.5C 173.254,435.162 176.088,434.162 178.5,432.5C 180.144,432.714 181.644,432.38 183,431.5C 184.337,427.974 184.837,424.308 184.5,420.5C 185.165,422.369 185.831,424.369 186.5,426.5C 188.375,425.591 189.708,424.257 190.5,422.5C 191.583,422.539 192.583,422.873 193.5,423.5C 193.833,422.667 194.167,421.833 194.5,421C 193.923,418.863 193.59,416.696 193.5,414.5C 194.458,414.047 195.292,413.381 196,412.5C 196.195,414.207 196.195,415.874 196,417.5C 197.935,415.864 198.435,414.031 197.5,412C 198.078,410.189 198.578,408.355 199,406.5C 200.667,405.5 202.333,404.5 204,403.5C 204.617,404.449 204.451,405.282 203.5,406C 205.463,406.844 206.796,406.344 207.5,404.5C 208.315,405.429 209.148,406.429 210,407.5C 213.333,404.998 216.499,402.332 219.5,399.5C 219.414,400.496 219.748,401.329 220.5,402C 219.833,402.333 219.167,402.667 218.5,403C 224.305,405.146 228.139,409.313 230,415.5C 230.171,407.656 230.671,399.989 231.5,392.5C 231.083,401.915 231.583,411.248 233,420.5C 236.533,425.882 240.533,426.549 245,422.5C 245.499,417.177 245.666,411.844 245.5,406.5C 246.813,403.875 248.48,401.375 250.5,399C 252.897,399.321 255.231,398.821 257.5,397.5C 259.797,399.294 261.963,401.294 264,403.5C 265.704,401.627 267.537,399.96 269.5,398.5C 276.675,396.345 281.175,399.011 283,406.5C 283.497,404.19 283.663,401.857 283.5,399.5C 284.035,406.8 285.035,414.134 286.5,421.5C 291.644,422.802 295.144,421.135 297,416.5C 297.498,413.183 297.665,409.85 297.5,406.5C 298.302,407.952 298.802,409.618 299,411.5C 300.682,410.135 300.849,408.635 299.5,407C 301.71,405.285 303.376,403.119 304.5,400.5C 305.776,399.355 307.109,399.355 308.5,400.5C 309.522,400.145 310.189,399.478 310.5,398.5C 311.962,399.458 313.295,400.624 314.5,402C 315.167,402.667 315.833,402.667 316.5,402C 317.971,398.679 318.637,395.179 318.5,391.5C 319.117,391.389 319.617,391.056 320,390.5C 320.667,387.833 320.667,385.167 320,382.5C 317.146,369.565 314.812,356.565 313,343.5C 312.167,342.667 311.333,341.833 310.5,341C 311.198,340.029 311.198,338.863 310.5,337.5C 310.453,336 311.119,335 312.5,334.5C 315.081,338.225 318.581,340.892 323,342.5C 323.765,342.43 324.265,342.097 324.5,341.5C 327.591,344.244 331.258,345.077 335.5,344C 336.423,341.959 336.756,339.792 336.5,337.5C 337.163,339.042 337.83,340.709 338.5,342.5C 339.086,342.291 339.586,341.957 340,341.5C 339.923,342.738 340.089,343.738 340.5,344.5C 345.595,337.563 350.095,330.23 354,322.5C 355.5,321 357,319.5 358.5,318C 370.177,313.44 382.177,310.107 394.5,308C 396.382,305.892 398.715,304.559 401.5,304C 401.167,303.667 400.833,303.333 400.5,303C 403.768,302.89 406.101,301.39 407.5,298.5C 407.833,298.5 408.167,298.5 408.5,298.5C 409.649,298.209 410.316,297.376 410.5,296C 410.259,294.016 409.592,292.183 408.5,290.5C 409.907,286.516 409.574,282.683 407.5,279C 407.984,276.146 407.984,273.146 407.5,270C 407.455,262.32 410.288,256.154 416,251.5C 419.308,242.425 419.808,233.259 417.5,224C 417.689,215.516 419.689,207.516 423.5,200C 429.275,194.309 433.441,187.476 436,179.5C 436.822,173.88 436.322,168.38 434.5,163C 436.141,161.354 435.807,160.354 433.5,160C 435.846,156.183 435.513,152.85 432.5,150C 433.354,148.978 434.354,148.145 435.5,147.5C 436.747,145.994 436.747,144.494 435.5,143C 439.269,139.097 441.936,134.43 443.5,129C 447.849,124.475 451.849,119.642 455.5,114.5C 454.737,113.281 453.737,112.281 452.5,111.5C 455.921,108.383 456.421,104.716 454,100.5C 453.667,101.167 453.333,101.833 453,102.5C 451.277,99.6642 449.444,96.8308 447.5,94C 444.5,93.3326 442,91.8326 440,89.5C 439.586,89.9574 439.086,90.2907 438.5,90.5C 435.278,85.6352 430.778,82.6352 425,81.5C 420.808,78.6303 416.641,75.7969 412.5,73C 405.241,68.4163 398.074,68.5829 391,73.5C 389.066,75.4188 389.233,76.9188 391.5,78C 390.376,78.2492 389.376,78.7492 388.5,79.5C 386.843,82.4943 385.176,85.4943 383.5,88.5C 383.931,89.2935 384.265,90.1268 384.5,91C 383.558,95.3259 381.558,99.4925 378.5,103.5C 378.709,104.086 379.043,104.586 379.5,105C 377.865,108.525 376.532,112.192 375.5,116C 375.645,116.772 375.978,117.439 376.5,118C 375.333,118.5 374.5,119.333 374,120.5C 372.079,128.114 369.412,135.447 366,142.5C 363.17,146.29 360.503,146.29 358,142.5C 357.536,143.094 357.369,143.761 357.5,144.5C 356.735,143.34 355.735,142.34 354.5,141.5C 353.482,143.594 352.482,145.594 351.5,147.5C 350.321,144.142 348.487,141.142 346,138.5C 345.929,135.769 346.096,133.269 346.5,131C 345.833,129 345.167,127 344.5,125C 345.692,122.366 345.026,121.532 342.5,122.5C 342.828,117.125 342.495,111.792 341.5,106.5C 340.482,108.594 339.482,110.594 338.5,112.5C 338.666,107.156 338.499,101.823 338,96.5C 337.29,95.0267 336.124,94.3601 334.5,94.5C 334.611,93.8826 334.944,93.3826 335.5,93C 334.207,92.51 332.873,92.3433 331.5,92.5C 332.263,91.7321 333.263,91.2321 334.5,91C 326.357,86.6886 318.357,87.0219 310.5,92C 308.833,92.6667 307.167,92.6667 305.5,92C 302.551,87.5104 298.884,83.5104 294.5,80C 285.315,78.5054 277.481,74.3387 271,67.5C 270.506,65.8659 270.34,64.1992 270.5,62.5C 269.5,62.5 268.5,62.5 267.5,62.5C 266.833,62.5 266.167,62.5 265.5,62.5C 259.101,62.7848 253.601,65.1181 249,69.5C 242.798,78.5679 237.631,88.2346 233.5,98.5C 231.826,99.8801 230.16,101.213 228.5,102.5C 223.196,99.1957 218.862,94.8624 215.5,89.5C 209.218,84.0125 202.884,78.5125 196.5,73C 194.109,72.7132 191.776,72.2132 189.5,71.5C 188.914,71.7093 188.414,72.0426 188,72.5C 186.556,70.8446 184.722,70.178 182.5,70.5C 182.5,71.5 182.5,72.5 182.5,73.5C 181.503,73.4701 180.836,73.9701 180.5,75C 180.989,76.1385 181.322,77.3052 181.5,78.5C 180.07,78.4208 178.736,78.7542 177.5,79.5C 175.761,88.4886 176.761,97.1553 180.5,105.5C 180.968,110.448 180.468,115.448 179,120.5C 178.311,121.357 177.478,122.023 176.5,122.5C 167.252,117.916 158.752,118.916 151,125.5C 147.669,131.131 143.669,136.131 139,140.5C 130.514,141.09 123.848,145.09 119,152.5C 118.505,154.473 118.338,156.473 118.5,158.5C 117.957,158.56 117.624,158.893 117.5,159.5C 119.045,160.452 120.712,160.785 122.5,160.5C 124.378,163.149 126.378,165.816 128.5,168.5C 136.271,173.073 143.438,178.407 150,184.5C 152.124,201.902 144.291,211.569 126.5,213.5C 129.086,214.48 131.753,214.813 134.5,214.5C 134.527,216.199 135.194,217.533 136.5,218.5C 129.371,217.602 123.371,214.602 118.5,209.5C 119.545,208.205 120.545,206.872 121.5,205.5C 126.434,205.318 131.434,205.151 136.5,205C 147.561,198.069 148.561,190.069 139.5,181C 133.158,176.247 126.325,172.414 119,169.5C 118.163,167.156 116.829,165.156 115,163.5C 113.164,159.134 113.331,154.801 115.5,150.5C 117.608,148.694 119.274,146.527 120.5,144C 126.758,139.91 133.424,136.577 140.5,134C 143.702,128.569 147.369,123.569 151.5,119C 155.888,116.64 160.555,115.14 165.5,114.5C 168.645,115.248 171.645,116.248 174.5,117.5C 175.891,113.986 176.891,110.319 177.5,106.5C 175.885,102.937 174.552,99.2699 173.5,95.5C 173.709,94.914 174.043,94.414 174.5,94C 172.025,90.232 172.025,86.5654 174.5,83C 173.484,82.4806 172.818,81.6473 172.5,80.5C 174.585,69.277 181.252,65.1103 192.5,68C 194.218,68.346 195.885,68.846 197.5,69.5C 199.776,71.949 202.442,73.7823 205.5,75C 207.359,76.5578 208.859,78.3911 210,80.5C 210.333,80.1667 210.667,79.8333 211,79.5C 215.594,86.4297 221.261,92.4297 228,97.5C 229.873,96.1323 231.54,94.4657 233,92.5C 237.413,79.7707 244.58,68.9373 254.5,60C 260.575,58.1498 266.575,58.4831 272.5,61C 274.802,63.4667 276.469,66.3 277.5,69.5C 280.088,70.1936 282.421,71.3602 284.5,73C 286.81,73.4966 289.143,73.6633 291.5,73.5C 291.343,74.8734 291.51,76.2068 292,77.5C 293.395,76.1854 294.395,76.5188 295,78.5C 296.388,77.4464 297.888,77.2797 299.5,78C 301.5,80.6667 303.5,83.3333 305.5,86C 307.727,86.121 309.56,86.9544 311,88.5C 313.247,86.8452 315.58,86.5119 318,87.5C 318.833,86.6667 319.667,85.8333 320.5,85C 326.22,84.26 331.553,84.5933 336.5,86C 338.302,89.3001 340.302,92.4668 342.5,95.5C 341.931,101.391 344.431,105.725 350,108.5C 351.965,116.956 353.131,125.623 353.5,134.5C 357.492,139.146 361.659,139.479 366,135.5C 369.924,125.492 372.924,114.825 375,103.5C 377.482,98.3675 379.648,93.0342 381.5,87.5C 380.651,85.4899 381.318,83.8233 383.5,82.5C 382.176,77.1592 384.176,73.3259 389.5,71C 388.167,70.3333 388.167,69.6667 389.5,69C 397.586,64.6775 405.586,65.0108 413.5,70C 422.37,75.1715 431.203,80.3381 440,85.5C 442.735,88.901 446.235,91.0677 450.5,92C 453.399,94.2774 456.066,96.7774 458.5,99.5C 460.985,104.147 460.652,108.147 457.5,111.5C 458.167,112.167 458.833,112.833 459.5,113.5C 458.045,115.22 457.212,117.22 457,119.5C 456.333,120.833 455.667,120.833 455,119.5C 452.534,123.9 449.534,127.9 446,131.5C 443.878,137.211 441.378,142.711 438.5,148C 440.168,151.117 439.835,153.951 437.5,156.5C 439.835,159.049 440.168,161.883 438.5,165C 440.443,170.249 441.11,175.249 440.5,180C 438.088,188.006 433.588,194.506 427,199.5C 425.147,203.385 423.48,207.385 422,211.5C 421.667,223.167 421.333,234.833 421,246.5C 418.432,253.213 414.932,259.379 410.5,265C 411.729,267.619 411.396,270.119 409.5,272.5C 410.792,277.627 412.458,282.627 414.5,287.5C 413.786,289.811 412.786,291.978 411.5,294C 412.448,294.483 413.448,294.649 414.5,294.5C 413.926,298.325 412.759,301.991 411,305.5C 410.667,304.833 410.333,304.167 410,303.5C 407.926,305.452 405.759,307.285 403.5,309C 396.777,310.743 390.11,312.576 383.5,314.5C 382.707,314.069 381.873,313.735 381,313.5C 373.973,316.432 366.806,318.932 359.5,321C 358.333,322.167 357.167,323.333 356,324.5C 354.006,328.83 352.006,333.163 350,337.5C 346.796,341.407 343.962,345.574 341.5,350C 339.725,351.439 337.725,352.439 335.5,353C 331.299,353.074 327.299,353.907 323.5,355.5C 322.954,356.772 322.621,358.106 322.5,359.5C 325.402,369.993 327.402,380.659 328.5,391.5C 328.06,402.576 321.727,408.242 309.5,408.5C 307.98,413.216 306.146,417.883 304,422.5C 301.111,427.282 297.444,429.282 293,428.5C 291.715,428.95 290.548,429.617 289.5,430.5C 284.746,428.461 280.746,425.461 277.5,421.5C 275.876,415.552 272.376,411.219 267,408.5C 263.982,409.028 261.149,410.028 258.5,411.5C 256.863,417.957 254.196,423.791 250.5,429C 248.43,430.694 246.264,430.861 244,429.5C 238.557,433.49 233.39,432.99 228.5,428C 227,426.5 225.5,425 224,423.5C 222.942,419.717 221.109,416.383 218.5,413.5C 215.59,412.972 212.757,412.638 210,412.5C 208.289,412.439 206.956,413.106 206,414.5C 205.333,413.833 204.667,413.167 204,412.5C 202.734,415.874 202.067,419.541 202,423.5C 198.825,428.253 195.158,432.586 191,436.5C 190.667,435.833 190.333,435.167 190,434.5C 184.362,440.164 178.362,440.831 172,436.5C 171.308,437.025 170.808,437.692 170.5,438.5C 164.603,439.337 158.77,440.337 153,441.5C 151.167,441.333 149.333,441.167 147.5,441C 143.026,439.638 139.193,437.138 136,433.5C 133.246,427.825 131.412,421.825 130.5,415.5C 123.302,412.673 118.135,415.006 115,422.5C 107.837,431.239 99.3372,432.739 89.5,427C 87.3501,425.351 85.3501,423.518 83.5,421.5C 78.3917,425.316 72.725,427.982 66.5,429.5C 62.4491,428.974 59.1158,427.141 56.5,424C 56.9574,423.586 57.2907,423.086 57.5,422.5C 54.5372,421.371 52.3706,419.371 51,416.5C 49.7584,410.512 48.2584,404.679 46.5,399C 49,398.167 49.1667,397 47,395.5C 46.6667,396.167 46.3333,396.833 46,397.5C 45.3615,394.464 45.5282,391.464 46.5,388.5C 44.7989,381.449 42.2989,374.783 39,368.5C 38.6667,369.167 38.3333,369.833 38,370.5C 37.2378,366.668 37.7378,363.002 39.5,359.5C 39.1667,358.833 38.8333,358.167 38.5,357.5C 43.2996,348.749 48.633,339.916 54.5,331C 53.4377,327.611 51.9377,324.444 50,321.5C 49.2681,318.471 48.4348,315.471 47.5,312.5C 49.775,307.357 53.4417,303.524 58.5,301C 62.0894,300.793 65.5894,300.293 69,299.5C 70.7287,301.434 72.7287,301.434 75,299.5C 77.4977,300.598 79.9977,300.432 82.5,299C 84.8736,294.615 85.8736,290.115 85.5,285.5C 89.3448,276.745 96.0115,272.911 105.5,274C 110.457,277.856 115.957,282.023 122,286.5C 128.153,286.166 134.319,284.833 140.5,282.5C 142.608,283.949 144.275,283.449 145.5,281C 144.929,279.795 144.262,278.628 143.5,277.5C 142.833,277.833 142.167,278.167 141.5,278.5C 135.946,276.574 130.28,275.074 124.5,274C 122.741,272.992 121.574,271.492 121,269.5C 120.607,266.367 119.774,263.367 118.5,260.5C 118.76,258.813 119.427,257.313 120.5,256C 119.892,254.769 119.559,253.436 119.5,252C 120.573,248.21 121.573,244.377 122.5,240.5C 120.072,235.305 117.905,229.972 116,224.5C 115.333,223.167 114.667,223.167 114,224.5C 112.173,219.89 112.007,215.223 113.5,210.5C 114.5,210.5 115.5,210.5 116.5,210.5 Z M 192.5,370.5 C 190.502,371.148 188.502,371.981 186.5,373C 188.385,375.222 190.551,377.056 193,378.5C 194.734,377.534 195.568,376.034 195.5,374C 195.722,371.725 194.722,370.559 192.5,370.5 Z"/></g>
<g><path style="opacity:0.2" fill="#3b2b1d" d="M 267.5,62.5 C 268.5,62.5 269.5,62.5 270.5,62.5C 270.34,64.1992 270.506,65.8659 271,67.5C 277.481,74.3387 285.315,78.5054 294.5,80C 298.884,83.5104 302.551,87.5104 305.5,92C 307.167,92.6667 308.833,92.6667 310.5,92C 318.357,87.0219 326.357,86.6886 334.5,91C 333.263,91.2321 332.263,91.7321 331.5,92.5C 317.267,95.2839 304.601,101.284 293.5,110.5C 293.5,110.167 293.5,109.833 293.5,109.5C 293.704,106.482 294.037,103.482 294.5,100.5C 295.22,96.3002 295.886,91.9669 296.5,87.5C 294.972,86.1387 293.305,84.972 291.5,84C 286.029,82.4253 280.696,82.592 275.5,84.5C 274.189,88.3888 273.522,92.3888 273.5,96.5C 271.735,93.6071 270.568,90.2738 270,86.5C 269.202,78.488 268.369,70.488 267.5,62.5 Z"/></g>
<g><path style="opacity:0.204" fill="#3f2f1f" d="M 265.5,62.5 C 264.167,64.5 262.5,66.1667 260.5,67.5C 254.146,70.3609 249.313,75.3609 246,82.5C 245.316,83.7839 245.483,84.9505 246.5,86C 245.552,86.4828 244.552,86.6495 243.5,86.5C 240.922,92.9893 237.755,99.3227 234,105.5C 232.045,106.453 230.378,107.787 229,109.5C 224.924,105.396 220.424,101.73 215.5,98.5C 212.991,92.3229 208.991,87.3229 203.5,83.5C 200.799,81.2972 197.966,79.2972 195,77.5C 193.272,78.3523 193.105,79.3523 194.5,80.5C 190.492,78.1633 186.492,75.83 182.5,73.5C 182.5,72.5 182.5,71.5 182.5,70.5C 184.722,70.178 186.556,70.8446 188,72.5C 188.414,72.0426 188.914,71.7093 189.5,71.5C 191.776,72.2132 194.109,72.7132 196.5,73C 202.884,78.5125 209.218,84.0125 215.5,89.5C 218.862,94.8624 223.196,99.1957 228.5,102.5C 230.16,101.213 231.826,99.8801 233.5,98.5C 237.631,88.2346 242.798,78.5679 249,69.5C 253.601,65.1181 259.101,62.7848 265.5,62.5 Z"/></g>
<g><path style="opacity:0.933" fill="#8c302b" d="M 294.5,100.5 C 293.426,98.716 291.76,97.5494 289.5,97C 284.177,96.5006 278.844,96.334 273.5,96.5C 273.522,92.3888 274.189,88.3888 275.5,84.5C 280.696,82.592 286.029,82.4253 291.5,84C 293.305,84.972 294.972,86.1387 296.5,87.5C 295.886,91.9669 295.22,96.3002 294.5,100.5 Z"/></g>
<g><path style="opacity:0.968" fill="#5d221f" d="M 265.5,62.5 C 266.167,62.5 266.833,62.5 267.5,62.5C 268.369,70.488 269.202,78.488 270,86.5C 270.568,90.2738 271.735,93.6071 273.5,96.5C 272.673,100.439 272.006,104.439 271.5,108.5C 270.408,114.81 269.408,121.144 268.5,127.5C 262.29,127.279 256.29,127.279 250.5,127.5C 248.901,127.232 247.568,127.566 246.5,128.5C 228.057,130.225 212.39,137.559 199.5,150.5C 197.265,151.228 195.432,152.561 194,154.5C 190.324,150.991 186.824,147.324 183.5,143.5C 186.167,143.5 188.833,143.5 191.5,143.5C 190.791,122.995 187.791,102.995 182.5,83.5C 182.634,81.7085 182.301,80.0418 181.5,78.5C 181.322,77.3052 180.989,76.1385 180.5,75C 180.836,73.9701 181.503,73.4701 182.5,73.5C 186.492,75.83 190.492,78.1633 194.5,80.5C 199.76,84.2552 204.594,88.5886 209,93.5C 217.084,103.575 224.75,113.908 232,124.5C 237.241,103.216 246.741,84.216 260.5,67.5C 262.5,66.1667 264.167,64.5 265.5,62.5 Z"/></g>
<g><path style="opacity:0.345" fill="#332519" d="M 260.5,67.5 C 246.741,84.216 237.241,103.216 232,124.5C 224.75,113.908 217.084,103.575 209,93.5C 204.594,88.5886 199.76,84.2552 194.5,80.5C 193.105,79.3523 193.272,78.3523 195,77.5C 197.966,79.2972 200.799,81.2972 203.5,83.5C 208.991,87.3229 212.991,92.3229 215.5,98.5C 220.424,101.73 224.924,105.396 229,109.5C 230.378,107.787 232.045,106.453 234,105.5C 237.755,99.3227 240.922,92.9893 243.5,86.5C 244.552,86.6495 245.552,86.4828 246.5,86C 245.483,84.9505 245.316,83.7839 246,82.5C 249.313,75.3609 254.146,70.3609 260.5,67.5 Z"/></g>
<g><path style="opacity:0.974" fill="#5e211f" d="M 331.5,92.5 C 332.873,92.3433 334.207,92.51 335.5,93C 334.944,93.3826 334.611,93.8826 334.5,94.5C 325.768,109.992 320.435,126.658 318.5,144.5C 316.833,146.833 314.833,148.833 312.5,150.5C 306.317,144.311 299.317,139.311 291.5,135.5C 290.482,126.982 291.149,118.648 293.5,110.5C 304.601,101.284 317.267,95.2839 331.5,92.5 Z"/></g>
<g><path style="opacity:0.894" fill="#ddd8b0" d="M 273.5,96.5 C 278.844,96.334 284.177,96.5006 289.5,97C 291.76,97.5494 293.426,98.716 294.5,100.5C 294.037,103.482 293.704,106.482 293.5,109.5C 286.151,109.451 278.817,109.118 271.5,108.5C 272.006,104.439 272.673,100.439 273.5,96.5 Z"/></g>
<g><path style="opacity:0.207" fill="#3d2d1e" d="M 181.5,78.5 C 182.301,80.0418 182.634,81.7085 182.5,83.5C 179.69,90.3761 180.356,97.0428 184.5,103.5C 184.069,104.293 183.735,105.127 183.5,106C 185.101,113.022 185.601,119.855 185,126.5C 184.626,127.416 184.126,128.25 183.5,129C 180.77,129.728 178.103,129.562 175.5,128.5C 174.702,128.957 174.369,129.624 174.5,130.5C 172.395,129.013 170.728,127.013 169.5,124.5C 167.579,123.359 165.579,123.192 163.5,124C 159.603,127.531 155.436,130.697 151,133.5C 150.333,134.5 150.333,135.5 151,136.5C 152.669,137.846 153.836,139.513 154.5,141.5C 148.56,144.093 142.227,146.26 135.5,148C 129.47,151.01 123.804,154.51 118.5,158.5C 118.338,156.473 118.505,154.473 119,152.5C 123.848,145.09 130.514,141.09 139,140.5C 143.669,136.131 147.669,131.131 151,125.5C 158.752,118.916 167.252,117.916 176.5,122.5C 177.478,122.023 178.311,121.357 179,120.5C 180.468,115.448 180.968,110.448 180.5,105.5C 176.761,97.1553 175.761,88.4886 177.5,79.5C 178.736,78.7542 180.07,78.4208 181.5,78.5 Z"/></g>
<g><path style="opacity:0.864" fill="#8c2f2a" d="M 271.5,108.5 C 278.817,109.118 286.151,109.451 293.5,109.5C 293.5,109.833 293.5,110.167 293.5,110.5C 291.149,118.648 290.482,126.982 291.5,135.5C 288.161,136.11 287.828,137.277 290.5,139C 290.233,141.83 288.899,144.33 286.5,146.5C 270.011,148.77 264.011,158.103 268.5,174.5C 264.441,173.676 260.441,172.51 256.5,171C 258.963,170.349 261.63,169.349 264.5,168C 261.833,167.667 259.167,167.333 256.5,167C 258.053,165.903 259.386,164.57 260.5,163C 260.167,162.833 259.833,162.667 259.5,162.5C 256.48,162.982 253.48,163.315 250.5,163.5C 251.381,164.971 252.714,165.804 254.5,166C 251.602,169.248 249.269,168.748 247.5,164.5C 246.824,165.602 246.158,166.602 245.5,167.5C 248.019,154.866 250.352,142.199 252.5,129.5C 253.043,129.44 253.376,129.107 253.5,128.5C 252.675,127.614 251.675,127.281 250.5,127.5C 256.29,127.279 262.29,127.279 268.5,127.5C 269.408,121.144 270.408,114.81 271.5,108.5 Z"/></g>
<g><path style="opacity:0.488" fill="#302419" d="M 334.5,94.5 C 336.124,94.3601 337.29,95.0267 338,96.5C 338.499,101.823 338.666,107.156 338.5,112.5C 333.847,124.483 327.18,135.149 318.5,144.5C 320.435,126.658 325.768,109.992 334.5,94.5 Z"/></g>
<g><path style="opacity:0.952" fill="#902d2a" d="M 174.5,130.5 C 174.5,131.167 174.5,131.833 174.5,132.5C 168.858,135.322 163.525,138.655 158.5,142.5C 157.041,142.567 155.708,142.234 154.5,141.5C 153.836,139.513 152.669,137.846 151,136.5C 150.333,135.5 150.333,134.5 151,133.5C 155.436,130.697 159.603,127.531 163.5,124C 165.579,123.192 167.579,123.359 169.5,124.5C 170.728,127.013 172.395,129.013 174.5,130.5 Z"/></g>
<g><path style="opacity:0.345" fill="#36291c" d="M 351.5,147.5 C 350.921,150.331 349.588,152.664 347.5,154.5C 343.563,152.965 339.563,151.632 335.5,150.5C 338.596,141.352 340.929,132.018 342.5,122.5C 345.026,121.532 345.692,122.366 344.5,125C 345.167,127 345.833,129 346.5,131C 346.096,133.269 345.929,135.769 346,138.5C 348.487,141.142 350.321,144.142 351.5,147.5 Z"/></g>
<g><path style="opacity:0.867" fill="#a88770" d="M 246.5,128.5 C 247.568,127.566 248.901,127.232 250.5,127.5C 251.675,127.281 252.675,127.614 253.5,128.5C 253.376,129.107 253.043,129.44 252.5,129.5C 250.735,128.539 248.735,128.205 246.5,128.5 Z"/></g>
<g><path style="opacity:0.448" fill="#312418" d="M 182.5,83.5 C 187.791,102.995 190.791,122.995 191.5,143.5C 188.833,143.5 186.167,143.5 183.5,143.5C 183.5,142.833 183.167,142.5 182.5,142.5C 180.183,138.854 177.516,135.52 174.5,132.5C 174.5,131.833 174.5,131.167 174.5,130.5C 174.369,129.624 174.702,128.957 175.5,128.5C 178.103,129.562 180.77,129.728 183.5,129C 184.126,128.25 184.626,127.416 185,126.5C 185.601,119.855 185.101,113.022 183.5,106C 183.735,105.127 184.069,104.293 184.5,103.5C 180.356,97.0428 179.69,90.3761 182.5,83.5 Z"/></g>
<g><path style="opacity:0.951" fill="#ab9d8a" d="M 342.5,122.5 C 340.929,132.018 338.596,141.352 335.5,150.5C 333.027,156.779 330.027,162.779 326.5,168.5C 326.5,169.167 326.167,169.5 325.5,169.5C 323.175,162.863 319.342,157.196 314,152.5C 313.617,153.056 313.117,153.389 312.5,153.5C 312.5,152.5 312.5,151.5 312.5,150.5C 314.833,148.833 316.833,146.833 318.5,144.5C 327.18,135.149 333.847,124.483 338.5,112.5C 339.482,110.594 340.482,108.594 341.5,106.5C 342.495,111.792 342.828,117.125 342.5,122.5 Z"/></g>
<g><path style="opacity:0.973" fill="#ece7bd" d="M 174.5,132.5 C 177.516,135.52 180.183,138.854 182.5,142.5C 177.205,146.488 171.872,150.488 166.5,154.5C 163.22,151.957 160.387,148.957 158,145.5C 157.53,144.423 157.697,143.423 158.5,142.5C 163.525,138.655 168.858,135.322 174.5,132.5 Z"/></g>
<g><path style="opacity:0.976" fill="#5e211f" d="M 154.5,141.5 C 155.708,142.234 157.041,142.567 158.5,142.5C 157.697,143.423 157.53,144.423 158,145.5C 160.387,148.957 163.22,151.957 166.5,154.5C 170.384,161.73 174.717,168.73 179.5,175.5C 172.378,188.651 169.378,202.651 170.5,217.5C 159.751,219.616 149.085,219.949 138.5,218.5C 140.792,218.756 142.959,218.423 145,217.5C 150.635,207.702 156.468,198.035 162.5,188.5C 153.938,178.571 143.938,170.571 132.5,164.5C 129.61,162.267 126.277,160.934 122.5,160.5C 120.712,160.785 119.045,160.452 117.5,159.5C 117.624,158.893 117.957,158.56 118.5,158.5C 123.804,154.51 129.47,151.01 135.5,148C 142.227,146.26 148.56,144.093 154.5,141.5 Z"/></g>
<g><path style="opacity:0.969" fill="#932d2a" d="M 291.5,135.5 C 299.317,139.311 306.317,144.311 312.5,150.5C 312.5,151.5 312.5,152.5 312.5,153.5C 309.104,160.522 306.604,167.855 305,175.5C 311.661,173.003 318.495,171.003 325.5,169.5C 326.167,169.5 326.5,169.167 326.5,168.5C 327.167,169.167 327.833,169.833 328.5,170.5C 327.833,171.167 327.167,171.833 326.5,172.5C 322.848,178.464 319.181,184.464 315.5,190.5C 314.957,190.56 314.624,190.893 314.5,191.5C 320.654,192.817 326.654,192.817 332.5,191.5C 333.167,191.5 333.833,191.5 334.5,191.5C 334.833,191.5 335.167,191.5 335.5,191.5C 335.263,192.791 335.596,193.791 336.5,194.5C 336.298,196.95 336.631,199.283 337.5,201.5C 336.508,201.328 335.842,201.662 335.5,202.5C 329.232,205.302 323.232,208.635 317.5,212.5C 323.921,216.044 330.587,219.044 337.5,221.5C 333.073,260.429 311.407,282.929 272.5,289C 259.833,289.667 247.167,289.667 234.5,289C 230.942,288.854 227.609,288.021 224.5,286.5C 225.334,278.165 225.834,269.832 226,261.5C 218.694,266.315 211.861,271.649 205.5,277.5C 204.833,277.833 204.167,278.167 203.5,278.5C 201.5,277.833 200.167,276.5 199.5,274.5C 202.173,267.156 204.84,259.823 207.5,252.5C 199.165,253.628 191.165,255.628 183.5,258.5C 183.167,258.5 182.833,258.5 182.5,258.5C 180.858,252.549 178.191,247.216 174.5,242.5C 174.5,242.167 174.5,241.833 174.5,241.5C 180.669,236.167 187.002,231.001 193.5,226C 185.811,223.27 178.144,220.436 170.5,217.5C 169.378,202.651 172.378,188.651 179.5,175.5C 174.717,168.73 170.384,161.73 166.5,154.5C 171.872,150.488 177.205,146.488 182.5,142.5C 183.167,142.5 183.5,142.833 183.5,143.5C 186.824,147.324 190.324,150.991 194,154.5C 195.432,152.561 197.265,151.228 199.5,150.5C 214.656,157.911 229.656,165.578 244.5,173.5C 244.833,171.5 245.167,169.5 245.5,167.5C 246.158,166.602 246.824,165.602 247.5,164.5C 249.269,168.748 251.602,169.248 254.5,166C 252.714,165.804 251.381,164.971 250.5,163.5C 253.48,163.315 256.48,162.982 259.5,162.5C 259.833,162.667 260.167,162.833 260.5,163C 259.386,164.57 258.053,165.903 256.5,167C 259.167,167.333 261.833,167.667 264.5,168C 261.63,169.349 258.963,170.349 256.5,171C 260.441,172.51 264.441,173.676 268.5,174.5C 274.088,183.452 282.088,186.619 292.5,184C 298.606,181.557 302.106,177.057 303,170.5C 305.634,156.96 300.134,148.96 286.5,146.5C 288.899,144.33 290.233,141.83 290.5,139C 287.828,137.277 288.161,136.11 291.5,135.5 Z"/></g>
<g><path style="opacity:0.97" fill="#98956b" d="M 410.5,150.5 C 403.718,152.875 396.718,153.875 389.5,153.5C 393.97,161.077 398.97,168.41 404.5,175.5C 403.619,176.971 402.286,177.804 400.5,178C 392.772,179.412 385.105,181.079 377.5,183C 375.696,186.296 375.196,189.796 376,193.5C 382.88,200.278 389.047,207.611 394.5,215.5C 384.947,218.312 375.281,220.812 365.5,223C 364.58,225.841 363.58,228.674 362.5,231.5C 369.189,239.186 375.856,246.853 382.5,254.5C 383.933,256.558 384.6,258.892 384.5,261.5C 374.41,261.678 364.41,262.678 354.5,264.5C 352.167,264.5 349.833,264.5 347.5,264.5C 359.044,224.766 370.711,185.099 382.5,145.5C 384.833,145.5 387.167,145.5 389.5,145.5C 403.023,148.155 412.856,143.155 419,130.5C 420.178,113.849 413.011,102.516 397.5,96.5C 397.993,94.1944 398.326,91.861 398.5,89.5C 418.765,96.6894 427.932,111.023 426,132.5C 423.465,140.862 418.298,146.862 410.5,150.5 Z"/></g>
<g><path style="opacity:0.977" fill="#efeac0" d="M 325.5,169.5 C 318.495,171.003 311.661,173.003 305,175.5C 306.604,167.855 309.104,160.522 312.5,153.5C 313.117,153.389 313.617,153.056 314,152.5C 319.342,157.196 323.175,162.863 325.5,169.5 Z"/></g>
<g><path style="opacity:0.974" fill="#602522" d="M 335.5,150.5 C 339.563,151.632 343.563,152.965 347.5,154.5C 343,162 336.666,167.333 328.5,170.5C 327.833,169.833 327.167,169.167 326.5,168.5C 330.027,162.779 333.027,156.779 335.5,150.5 Z"/></g>
<g><path style="opacity:0.871" fill="#0a0604" d="M 286.5,146.5 C 300.134,148.96 305.634,156.96 303,170.5C 302.106,177.057 298.606,181.557 292.5,184C 282.088,186.619 274.088,183.452 268.5,174.5C 264.011,158.103 270.011,148.77 286.5,146.5 Z"/></g>
<g><path style="opacity:0.954" fill="#e8e4ba" d="M 246.5,128.5 C 248.735,128.205 250.735,128.539 252.5,129.5C 250.352,142.199 248.019,154.866 245.5,167.5C 245.167,169.5 244.833,171.5 244.5,173.5C 229.656,165.578 214.656,157.911 199.5,150.5C 212.39,137.559 228.057,130.225 246.5,128.5 Z"/></g>
<g><path style="opacity:0.971" fill="#38334d" d="M 383.5,157.5 C 385.017,157.511 386.184,158.177 387,159.5C 390.5,164.333 394,169.167 397.5,174C 391.367,176.059 385.034,177.059 378.5,177C 380.736,170.654 382.403,164.154 383.5,157.5 Z"/></g>
<g><path style="opacity:0.97" fill="#5e2421" d="M 355.5,159.5 C 358.471,161.657 361.471,163.824 364.5,166C 366.007,166.837 366.507,168.004 366,169.5C 354.251,175.617 344.418,183.95 336.5,194.5C 335.596,193.791 335.263,192.791 335.5,191.5C 340.873,186.294 345.706,180.627 350,174.5C 351.85,169.475 353.683,164.475 355.5,159.5 Z"/></g>
<g><path style="opacity:0.952" fill="#aea08c" d="M 357.5,144.5 C 357.5,146.5 357.5,148.5 357.5,150.5C 356.422,153.402 355.756,156.402 355.5,159.5C 353.683,164.475 351.85,169.475 350,174.5C 345.706,180.627 340.873,186.294 335.5,191.5C 335.167,191.5 334.833,191.5 334.5,191.5C 334.121,185.071 332.288,179.071 329,173.5C 328.329,172.748 327.496,172.414 326.5,172.5C 327.167,171.833 327.833,171.167 328.5,170.5C 336.666,167.333 343,162 347.5,154.5C 349.588,152.664 350.921,150.331 351.5,147.5C 352.482,145.594 353.482,143.594 354.5,141.5C 355.735,142.34 356.735,143.34 357.5,144.5 Z"/></g>
<g><path style="opacity:0.99" fill="#f1edc2" d="M 326.5,172.5 C 327.496,172.414 328.329,172.748 329,173.5C 332.288,179.071 334.121,185.071 334.5,191.5C 333.833,191.5 333.167,191.5 332.5,191.5C 326.642,191.822 320.975,191.489 315.5,190.5C 319.181,184.464 322.848,178.464 326.5,172.5 Z"/></g>
<g><path style="opacity:0.258" fill="#392b1c" d="M 122.5,160.5 C 126.277,160.934 129.61,162.267 132.5,164.5C 131.624,164.369 130.957,164.702 130.5,165.5C 135.627,168.582 140.627,171.749 145.5,175C 146.337,176.011 146.67,177.178 146.5,178.5C 150.17,178.327 152.67,179.993 154,183.5C 156.144,189.691 155.644,195.691 152.5,201.5C 148.799,207.033 144.299,211.699 139,215.5C 137.644,214.62 136.144,214.286 134.5,214.5C 131.753,214.813 129.086,214.48 126.5,213.5C 144.291,211.569 152.124,201.902 150,184.5C 143.438,178.407 136.271,173.073 128.5,168.5C 126.378,165.816 124.378,163.149 122.5,160.5 Z"/></g>
<g><path style="opacity:0.984" fill="#040101" d="M 201.5,178.5 C 222.885,177.71 231.385,187.71 227,208.5C 221.657,219.752 212.824,223.919 200.5,221C 195.243,218.744 191.743,214.91 190,209.5C 185.478,195.904 189.311,185.571 201.5,178.5 Z"/></g>
<g><path style="opacity:0.956" fill="#36314b" d="M 410.5,150.5 C 415.482,152.739 420.816,153.739 426.5,153.5C 426.74,156.579 426.407,159.579 425.5,162.5C 427.83,167.828 430.164,173.162 432.5,178.5C 426.196,184.645 420.363,191.311 415,198.5C 413.47,202.09 412.136,205.757 411,209.5C 410.5,217.493 410.334,225.493 410.5,233.5C 410.111,237.575 408.111,240.742 404.5,243C 401.965,243.617 399.632,243.117 397.5,241.5C 397.089,242.262 396.923,243.262 397,244.5C 396.667,244.167 396.333,243.833 396,243.5C 392.793,246.15 392.293,245.984 394.5,243C 392.583,243.027 390.916,243.861 389.5,245.5C 387.471,244.371 387.137,244.871 388.5,247C 390.085,247.085 391.418,247.251 392.5,247.5C 391.433,253.619 388.1,255.952 382.5,254.5C 375.856,246.853 369.189,239.186 362.5,231.5C 363.58,228.674 364.58,225.841 365.5,223C 375.281,220.812 384.947,218.312 394.5,215.5C 389.047,207.611 382.88,200.278 376,193.5C 375.196,189.796 375.696,186.296 377.5,183C 385.105,181.079 392.772,179.412 400.5,178C 402.286,177.804 403.619,176.971 404.5,175.5C 398.97,168.41 393.97,161.077 389.5,153.5C 396.718,153.875 403.718,152.875 410.5,150.5 Z"/></g>
<g><path style="opacity:0.446" fill="#2e2117" d="M 132.5,164.5 C 143.938,170.571 153.938,178.571 162.5,188.5C 156.468,198.035 150.635,207.702 145,217.5C 142.959,218.423 140.792,218.756 138.5,218.5C 137.833,218.5 137.167,218.5 136.5,218.5C 135.194,217.533 134.527,216.199 134.5,214.5C 136.144,214.286 137.644,214.62 139,215.5C 144.299,211.699 148.799,207.033 152.5,201.5C 155.644,195.691 156.144,189.691 154,183.5C 152.67,179.993 150.17,178.327 146.5,178.5C 146.67,177.178 146.337,176.011 145.5,175C 140.627,171.749 135.627,168.582 130.5,165.5C 130.957,164.702 131.624,164.369 132.5,164.5 Z"/></g>
<g><path style="opacity:0.982" fill="#d4ae90" d="M 315.5,190.5 C 320.975,191.489 326.642,191.822 332.5,191.5C 326.654,192.817 320.654,192.817 314.5,191.5C 314.624,190.893 314.957,190.56 315.5,190.5 Z"/></g>
<g><path style="opacity:0.929" fill="#949169" d="M 392.5,188.5 C 397.328,188.385 398.661,190.552 396.5,195C 390.681,195.526 389.348,193.359 392.5,188.5 Z"/></g>
<g><path style="opacity:0.977" fill="#070403" d="M 272.5,196.5 C 273.099,201.021 274.766,205.021 277.5,208.5C 279.909,207.299 281.909,205.633 283.5,203.5C 282.054,201.382 281.387,199.049 281.5,196.5C 295.347,199.522 303.181,208.189 305,222.5C 305.667,227.167 305.667,231.833 305,236.5C 304.337,240.035 302.837,243.035 300.5,245.5C 298.926,242.696 297.093,240.029 295,237.5C 290.999,238.857 289.666,241.524 291,245.5C 292.18,247.86 293.347,250.193 294.5,252.5C 293.089,254.914 291.089,256.581 288.5,257.5C 286.511,254.194 284.511,250.861 282.5,247.5C 279.626,246.136 277.293,246.803 275.5,249.5C 276.752,253.678 278.752,257.345 281.5,260.5C 278.855,262.31 275.855,263.31 272.5,263.5C 271.179,260.187 269.846,256.854 268.5,253.5C 266.386,254.034 264.552,255.034 263,256.5C 263.158,259.502 263.658,262.502 264.5,265.5C 243.328,262.85 233.828,250.85 236,229.5C 236.507,225.042 238.34,221.375 241.5,218.5C 243.835,221.531 245.835,224.865 247.5,228.5C 249.5,227.167 251.5,225.833 253.5,224.5C 254.614,223.277 254.781,221.944 254,220.5C 252.487,216.812 250.987,213.145 249.5,209.5C 250.638,206.914 252.638,205.247 255.5,204.5C 256.82,207.441 258.153,210.441 259.5,213.5C 261.837,214.512 264.17,214.345 266.5,213C 267.022,212.439 267.355,211.772 267.5,211C 266.239,207.438 264.905,203.938 263.5,200.5C 266.378,198.895 269.378,197.561 272.5,196.5 Z"/></g>
<g><path style="opacity:0.973" fill="#e7e4bb" d="M 272.5,196.5 C 275.5,196.5 278.5,196.5 281.5,196.5C 281.387,199.049 282.054,201.382 283.5,203.5C 281.909,205.633 279.909,207.299 277.5,208.5C 274.766,205.021 273.099,201.021 272.5,196.5 Z"/></g>
<g><path style="opacity:0.954" fill="#ac9f8b" d="M 337.5,221.5 C 338.123,214.745 337.456,208.412 335.5,202.5C 335.842,201.662 336.508,201.328 337.5,201.5C 344.409,200.116 349.909,196.449 354,190.5C 353.31,198.932 350.976,206.932 347,214.5C 344.499,217.848 341.332,220.182 337.5,221.5 Z"/></g>
<g><path style="opacity:0.965" fill="#37334d" d="M 371.5,199.5 C 376.754,203.083 381.42,207.416 385.5,212.5C 379.563,214.151 373.563,215.485 367.5,216.5C 368.831,210.839 370.164,205.173 371.5,199.5 Z"/></g>
<g><path style="opacity:0.97" fill="#e7e4ba" d="M 263.5,200.5 C 264.905,203.938 266.239,207.438 267.5,211C 267.355,211.772 267.022,212.439 266.5,213C 264.17,214.345 261.837,214.512 259.5,213.5C 258.153,210.441 256.82,207.441 255.5,204.5C 257.612,202.229 260.279,200.896 263.5,200.5 Z"/></g>
<g><path style="opacity:0.987" fill="#f0ebc1" d="M 335.5,202.5 C 337.456,208.412 338.123,214.745 337.5,221.5C 330.587,219.044 323.921,216.044 317.5,212.5C 323.232,208.635 329.232,205.302 335.5,202.5 Z"/></g>
<g><path style="opacity:0.992" fill="#e7e5bb" d="M 249.5,209.5 C 250.987,213.145 252.487,216.812 254,220.5C 254.781,221.944 254.614,223.277 253.5,224.5C 251.5,225.833 249.5,227.167 247.5,228.5C 245.835,224.865 243.835,221.531 241.5,218.5C 243.482,214.854 246.149,211.854 249.5,209.5 Z"/></g>
<g><path style="opacity:0.99" fill="#f1edc2" d="M 170.5,217.5 C 178.144,220.436 185.811,223.27 193.5,226C 187.002,231.001 180.669,236.167 174.5,241.5C 172.333,233.672 171,225.672 170.5,217.5 Z"/></g>
<g><path style="opacity:0.983" fill="#aea08d" d="M 118.5,209.5 C 123.371,214.602 129.371,217.602 136.5,218.5C 137.167,218.5 137.833,218.5 138.5,218.5C 149.085,219.949 159.751,219.616 170.5,217.5C 171,225.672 172.333,233.672 174.5,241.5C 174.5,241.833 174.5,242.167 174.5,242.5C 167.196,241.833 159.863,240.999 152.5,240C 147.47,238.048 142.47,236.214 137.5,234.5C 134.729,231.608 131.729,228.942 128.5,226.5C 124.013,221.524 120.013,216.191 116.5,210.5C 116.842,209.662 117.508,209.328 118.5,209.5 Z"/></g>
<g><path style="opacity:0.956" fill="#97946b" d="M 377.5,229.5 C 383.158,228.679 384.825,230.846 382.5,236C 377.262,236.594 375.595,234.427 377.5,229.5 Z"/></g>
<g><path style="opacity:0.438" fill="#322419" d="M 128.5,226.5 C 131.729,228.942 134.729,231.608 137.5,234.5C 134.416,240.064 132.083,246.064 130.5,252.5C 128.879,252.213 127.879,251.213 127.5,249.5C 130.396,242.339 130.063,235.339 126.5,228.5C 126.855,227.478 127.522,226.811 128.5,226.5 Z"/></g>
<g><path style="opacity:0.97" fill="#5e2220" d="M 137.5,234.5 C 142.47,236.214 147.47,238.048 152.5,240C 159.863,240.999 167.196,241.833 174.5,242.5C 178.191,247.216 180.858,252.549 182.5,258.5C 177.195,259.194 171.862,259.528 166.5,259.5C 167.265,256.904 167.599,254.237 167.5,251.5C 161.582,251.541 155.915,252.541 150.5,254.5C 150.5,255.5 150.5,256.5 150.5,257.5C 146.746,256.314 142.913,255.314 139,254.5C 138.5,254.833 138,255.167 137.5,255.5C 139.422,257.687 141.088,260.02 142.5,262.5C 138.825,262.5 136.159,264.167 134.5,267.5C 132.606,268.048 130.94,269.048 129.5,270.5C 128.035,264.352 128.368,258.352 130.5,252.5C 132.083,246.064 134.416,240.064 137.5,234.5 Z"/></g>
<g><path style="opacity:0.211" fill="#3f2f20" d="M 408.5,298.5 C 406.432,295.755 404.766,292.755 403.5,289.5C 402.043,280.475 402.21,271.475 404,262.5C 406.054,260.712 406.554,258.712 405.5,256.5C 406.342,253.99 407.842,253.323 410,254.5C 413.397,252.442 415.063,249.442 415,245.5C 415.783,233.483 416.449,221.483 417,209.5C 418.924,205.983 420.591,202.316 422,198.5C 425.909,193.236 429.909,187.903 434,182.5C 434.828,177.798 434.662,173.131 433.5,168.5C 431.082,164.829 429.082,160.996 427.5,157C 430.693,150.849 432.359,144.849 432.5,139C 433.781,136.597 435.614,134.763 438,133.5C 438.241,130.711 438.908,128.044 440,125.5C 445.213,122.054 448.713,117.388 450.5,111.5C 452.727,109.771 453.727,107.438 453.5,104.5C 434.862,94.7317 416.528,84.2317 398.5,73C 397.552,72.5172 396.552,72.3505 395.5,72.5C 393.537,80.0512 391.204,87.3845 388.5,94.5C 385.791,96.8848 383.791,99.8848 382.5,103.5C 382.709,104.086 383.043,104.586 383.5,105C 380.167,115.333 376.833,125.667 373.5,136C 373.833,136.333 374.167,136.667 374.5,137C 372.299,140.952 370.466,145.119 369,149.5C 367.561,151.448 365.728,152.781 363.5,153.5C 361.895,152.57 360.395,152.57 359,153.5C 358.768,152.263 358.268,151.263 357.5,150.5C 357.5,148.5 357.5,146.5 357.5,144.5C 357.369,143.761 357.536,143.094 358,142.5C 360.503,146.29 363.17,146.29 366,142.5C 369.412,135.447 372.079,128.114 374,120.5C 374.5,119.333 375.333,118.5 376.5,118C 375.978,117.439 375.645,116.772 375.5,116C 376.532,112.192 377.865,108.525 379.5,105C 379.043,104.586 378.709,104.086 378.5,103.5C 381.558,99.4925 383.558,95.3259 384.5,91C 384.265,90.1268 383.931,89.2935 383.5,88.5C 385.176,85.4943 386.843,82.4943 388.5,79.5C 389.376,78.7492 390.376,78.2492 391.5,78C 389.233,76.9188 389.066,75.4188 391,73.5C 398.074,68.5829 405.241,68.4163 412.5,73C 416.641,75.7969 420.808,78.6303 425,81.5C 430.778,82.6352 435.278,85.6352 438.5,90.5C 439.086,90.2907 439.586,89.9574 440,89.5C 442,91.8326 444.5,93.3326 447.5,94C 449.444,96.8308 451.277,99.6642 453,102.5C 453.333,101.833 453.667,101.167 454,100.5C 456.421,104.716 455.921,108.383 452.5,111.5C 453.737,112.281 454.737,113.281 455.5,114.5C 451.849,119.642 447.849,124.475 443.5,129C 441.936,134.43 439.269,139.097 435.5,143C 436.747,144.494 436.747,145.994 435.5,147.5C 434.354,148.145 433.354,148.978 432.5,150C 435.513,152.85 435.846,156.183 433.5,160C 435.807,160.354 436.141,161.354 434.5,163C 436.322,168.38 436.822,173.88 436,179.5C 433.441,187.476 429.275,194.309 423.5,200C 419.689,207.516 417.689,215.516 417.5,224C 419.808,233.259 419.308,242.425 416,251.5C 410.288,256.154 407.455,262.32 407.5,270C 407.984,273.146 407.984,276.146 407.5,279C 409.574,282.683 409.907,286.516 408.5,290.5C 409.592,292.183 410.259,294.016 410.5,296C 410.316,297.376 409.649,298.209 408.5,298.5 Z"/></g>
<g><path style="opacity:0.871" fill="#979368" d="M 394.5,104.5 C 407.172,107.499 412.672,115.499 411,128.5C 405.952,137.896 398.118,141.23 387.5,138.5C 386.624,138.631 385.957,138.298 385.5,137.5C 388.712,126.534 391.712,115.534 394.5,104.5 Z"/></g>
<g><path style="opacity:0.894" fill="#393248" d="M 450.5,111.5 C 437.289,122.597 429.289,136.597 426.5,153.5C 420.816,153.739 415.482,152.739 410.5,150.5C 418.298,146.862 423.465,140.862 426,132.5C 427.932,111.023 418.765,96.6894 398.5,89.5C 398.326,91.861 397.993,94.1944 397.5,96.5C 413.011,102.516 420.178,113.849 419,130.5C 412.856,143.155 403.023,148.155 389.5,145.5C 392.5,145.5 395.5,145.5 398.5,145.5C 398.261,143.533 398.594,141.699 399.5,140C 395.312,139.824 391.312,139.324 387.5,138.5C 398.118,141.23 405.952,137.896 411,128.5C 412.672,115.499 407.172,107.499 394.5,104.5C 394.577,103.25 395.244,102.417 396.5,102C 394.299,100.316 393.633,98.3155 394.5,96C 388.811,95.1786 388.144,96.512 392.5,100C 390.699,100.317 390.366,100.984 391.5,102C 390.072,102.579 388.738,102.412 387.5,101.5C 388.219,99.2362 388.552,96.9029 388.5,94.5C 391.204,87.3845 393.537,80.0512 395.5,72.5C 396.552,72.3505 397.552,72.5172 398.5,73C 416.528,84.2317 434.862,94.7317 453.5,104.5C 453.727,107.438 452.727,109.771 450.5,111.5 Z"/></g>
<g><path style="opacity:0.98" fill="#e6e4ba" d="M 300.5,245.5 C 299.588,247.595 298.421,249.595 297,251.5C 296.329,252.252 295.496,252.586 294.5,252.5C 293.347,250.193 292.18,247.86 291,245.5C 289.666,241.524 290.999,238.857 295,237.5C 297.093,240.029 298.926,242.696 300.5,245.5 Z"/></g>
<g><path style="opacity:0.943" fill="#39344c" d="M 359.5,239.5 C 360.552,239.351 361.552,239.517 362.5,240C 366.648,244.982 370.981,249.816 375.5,254.5C 368.587,256.15 361.587,257.15 354.5,257.5C 356.159,251.51 357.826,245.51 359.5,239.5 Z"/></g>
<g><path style="opacity:0.805" fill="#393247" d="M 410.5,233.5 C 412.034,237.292 412.868,241.292 413,245.5C 404.827,251.845 400.327,260.178 399.5,270.5C 398.022,270.238 396.689,270.571 395.5,271.5C 393.58,274.039 391.246,276.039 388.5,277.5C 386.932,276.685 385.599,276.352 384.5,276.5C 385.5,275.167 386.5,273.833 387.5,272.5C 387.291,271.914 386.957,271.414 386.5,271C 384.109,270.713 381.776,270.213 379.5,269.5C 376.916,270.393 374.249,270.726 371.5,270.5C 370.538,266.854 368.205,265.687 364.5,267C 362.339,271.448 363.672,273.615 368.5,273.5C 366.735,274.461 364.735,274.795 362.5,274.5C 362.768,268.035 360.268,265.701 355,267.5C 354.517,266.552 354.351,265.552 354.5,264.5C 364.41,262.678 374.41,261.678 384.5,261.5C 384.6,258.892 383.933,256.558 382.5,254.5C 388.1,255.952 391.433,253.619 392.5,247.5C 391.418,247.251 390.085,247.085 388.5,247C 387.137,244.871 387.471,244.371 389.5,245.5C 390.916,243.861 392.583,243.027 394.5,243C 392.293,245.984 392.793,246.15 396,243.5C 396.333,243.833 396.667,244.167 397,244.5C 396.923,243.262 397.089,242.262 397.5,241.5C 399.632,243.117 401.965,243.617 404.5,243C 408.111,240.742 410.111,237.575 410.5,233.5 Z"/></g>
<g><path style="opacity:0.27" fill="#36281d" d="M 450.5,111.5 C 448.713,117.388 445.213,122.054 440,125.5C 438.908,128.044 438.241,130.711 438,133.5C 435.614,134.763 433.781,136.597 432.5,139C 432.359,144.849 430.693,150.849 427.5,157C 429.082,160.996 431.082,164.829 433.5,168.5C 434.662,173.131 434.828,177.798 434,182.5C 429.909,187.903 425.909,193.236 422,198.5C 420.591,202.316 418.924,205.983 417,209.5C 416.449,221.483 415.783,233.483 415,245.5C 415.063,249.442 413.397,252.442 410,254.5C 407.842,253.323 406.342,253.99 405.5,256.5C 406.554,258.712 406.054,260.712 404,262.5C 402.21,271.475 402.043,280.475 403.5,289.5C 400.786,283.58 399.453,277.247 399.5,270.5C 400.327,260.178 404.827,251.845 413,245.5C 412.868,241.292 412.034,237.292 410.5,233.5C 410.334,225.493 410.5,217.493 411,209.5C 412.136,205.757 413.47,202.09 415,198.5C 420.363,191.311 426.196,184.645 432.5,178.5C 430.164,173.162 427.83,167.828 425.5,162.5C 426.407,159.579 426.74,156.579 426.5,153.5C 429.289,136.597 437.289,122.597 450.5,111.5 Z"/></g>
<g><path style="opacity:0.972" fill="#e5e3b9" d="M 288.5,257.5 C 286.491,259.065 284.157,260.065 281.5,260.5C 278.752,257.345 276.752,253.678 275.5,249.5C 277.293,246.803 279.626,246.136 282.5,247.5C 284.511,250.861 286.511,254.194 288.5,257.5 Z"/></g>
<g><path style="opacity:0.486" fill="#302318" d="M 166.5,259.5 C 160.902,259.844 155.568,259.178 150.5,257.5C 150.5,256.5 150.5,255.5 150.5,254.5C 155.915,252.541 161.582,251.541 167.5,251.5C 167.599,254.237 167.265,256.904 166.5,259.5 Z"/></g>
<g><path style="opacity:0.979" fill="#dfddb5" d="M 272.5,263.5 C 270.095,264.768 267.428,265.435 264.5,265.5C 263.658,262.502 263.158,259.502 263,256.5C 264.552,255.034 266.386,254.034 268.5,253.5C 269.846,256.854 271.179,260.187 272.5,263.5 Z"/></g>
<g><path style="opacity:0.008" fill="#4f3d28" d="M 424.5,257.5 C 425.833,258.167 425.833,258.167 424.5,257.5 Z"/></g>
<g><path style="opacity:0.962" fill="#35304b" d="M 394.5,104.5 C 391.712,115.534 388.712,126.534 385.5,137.5C 385.957,138.298 386.624,138.631 387.5,138.5C 391.312,139.324 395.312,139.824 399.5,140C 398.594,141.699 398.261,143.533 398.5,145.5C 395.5,145.5 392.5,145.5 389.5,145.5C 387.167,145.5 384.833,145.5 382.5,145.5C 370.711,185.099 359.044,224.766 347.5,264.5C 349.833,264.5 352.167,264.5 354.5,264.5C 354.351,265.552 354.517,266.552 355,267.5C 360.268,265.701 362.768,268.035 362.5,274.5C 364.735,274.795 366.735,274.461 368.5,273.5C 369.833,272.833 370.833,271.833 371.5,270.5C 374.249,270.726 376.916,270.393 379.5,269.5C 381.776,270.213 384.109,270.713 386.5,271C 386.957,271.414 387.291,271.914 387.5,272.5C 386.5,273.833 385.5,275.167 384.5,276.5C 385.599,276.352 386.932,276.685 388.5,277.5C 391.246,276.039 393.58,274.039 395.5,271.5C 396.689,270.571 398.022,270.238 399.5,270.5C 399.453,277.247 400.786,283.58 403.5,289.5C 404.766,292.755 406.432,295.755 408.5,298.5C 408.167,298.5 407.833,298.5 407.5,298.5C 393.611,301.143 379.611,303.143 365.5,304.5C 355.833,295.5 346.5,286.167 337.5,276.5C 337.5,275.167 337.5,273.833 337.5,272.5C 354.406,215.686 371.073,158.686 387.5,101.5C 388.738,102.412 390.072,102.579 391.5,102C 390.366,100.984 390.699,100.317 392.5,100C 388.144,96.512 388.811,95.1786 394.5,96C 393.633,98.3155 394.299,100.316 396.5,102C 395.244,102.417 394.577,103.25 394.5,104.5 Z"/></g>
<g><path style="opacity:0.952" fill="#aa9c89" d="M 150.5,257.5 C 155.568,259.178 160.902,259.844 166.5,259.5C 171.862,259.528 177.195,259.194 182.5,258.5C 182.833,258.5 183.167,258.5 183.5,258.5C 187.118,265.118 192.118,270.452 198.5,274.5C 186.995,277.887 175.328,278.22 163.5,275.5C 155.722,272.382 148.722,268.049 142.5,262.5C 141.088,260.02 139.422,257.687 137.5,255.5C 138,255.167 138.5,254.833 139,254.5C 142.913,255.314 146.746,256.314 150.5,257.5 Z"/></g>
<g><path style="opacity:0.953" fill="#ebe7bd" d="M 199.5,274.5 C 199.167,274.5 198.833,274.5 198.5,274.5C 192.118,270.452 187.118,265.118 183.5,258.5C 191.165,255.628 199.165,253.628 207.5,252.5C 204.84,259.823 202.173,267.156 199.5,274.5 Z"/></g>
<g><path style="opacity:0.969" fill="#ede9be" d="M 224.5,286.5 C 218.431,285.977 212.765,284.144 207.5,281C 206.177,280.184 205.511,279.017 205.5,277.5C 211.861,271.649 218.694,266.315 226,261.5C 225.834,269.832 225.334,278.165 224.5,286.5 Z"/></g>
<g><path style="opacity:0.945" fill="#959169" d="M 371.5,270.5 C 370.833,271.833 369.833,272.833 368.5,273.5C 363.672,273.615 362.339,271.448 364.5,267C 368.205,265.687 370.538,266.854 371.5,270.5 Z"/></g>
<g><path style="opacity:0.208" fill="#3f3020" d="M 337.5,272.5 C 337.5,273.833 337.5,275.167 337.5,276.5C 332.499,277.842 331.499,280.509 334.5,284.5C 334.598,286.553 333.931,288.22 332.5,289.5C 329.833,290.167 328.167,291.833 327.5,294.5C 326.778,294.082 326.278,293.416 326,292.5C 324.106,295.392 321.439,297.059 318,297.5C 312.725,294.581 308.559,290.581 305.5,285.5C 308.305,280.248 312.305,276.081 317.5,273C 324.018,265.007 330.685,257.84 337.5,251.5C 338.72,257.981 338.72,264.981 337.5,272.5 Z"/></g>
<g><path style="opacity:0.975" fill="#5e211f" d="M 198.5,274.5 C 198.833,274.5 199.167,274.5 199.5,274.5C 200.167,276.5 201.5,277.833 203.5,278.5C 201.332,281.5 198.666,284 195.5,286C 188.414,290.209 181.081,293.876 173.5,297C 177.548,298.949 181.881,299.782 186.5,299.5C 191.838,299.166 197.172,298.832 202.5,298.5C 192.563,307.265 182.729,316.265 173,325.5C 170.288,328.936 168.121,332.603 166.5,336.5C 164.264,331.715 161.264,327.382 157.5,323.5C 158.976,307.568 160.976,291.568 163.5,275.5C 175.328,278.22 186.995,277.887 198.5,274.5 Z"/></g>
<g><path style="opacity:0.492" fill="#312418" d="M 388.5,94.5 C 388.552,96.9029 388.219,99.2362 387.5,101.5C 371.073,158.686 354.406,215.686 337.5,272.5C 338.72,264.981 338.72,257.981 337.5,251.5C 330.685,257.84 324.018,265.007 317.5,273C 312.305,276.081 308.305,280.248 305.5,285.5C 308.559,290.581 312.725,294.581 318,297.5C 321.439,297.059 324.106,295.392 326,292.5C 326.278,293.416 326.778,294.082 327.5,294.5C 329.389,295.604 331.055,296.937 332.5,298.5C 330.031,299.607 329.031,301.607 329.5,304.5C 326.785,307.214 324.451,310.214 322.5,313.5C 318.227,306.472 313.56,299.639 308.5,293C 305.119,290.755 301.452,290.088 297.5,291C 296.643,291.689 295.977,292.522 295.5,293.5C 304.399,310.043 314.066,326.043 324.5,341.5C 324.265,342.097 323.765,342.43 323,342.5C 318.581,340.892 315.081,338.225 312.5,334.5C 311.119,335 310.453,336 310.5,337.5C 311.198,338.863 311.198,340.029 310.5,341C 311.333,341.833 312.167,342.667 313,343.5C 314.812,356.565 317.146,369.565 320,382.5C 320.667,385.167 320.667,387.833 320,390.5C 319.617,391.056 319.117,391.389 318.5,391.5C 315.111,373.949 311.111,356.615 306.5,339.5C 301.463,344.539 296.129,349.206 290.5,353.5C 286.167,348.833 281.833,344.167 277.5,339.5C 272.5,344.167 267.5,348.833 262.5,353.5C 257.5,348.167 252.5,342.833 247.5,337.5C 242.463,342.539 237.129,347.206 231.5,351.5C 227.167,348.167 222.833,344.833 218.5,341.5C 214.862,357.693 211.862,374.026 209.5,390.5C 206.984,394.524 205.984,393.857 206.5,388.5C 207.112,383.224 208.112,378.058 209.5,373C 208.708,368.726 209.374,364.559 211.5,360.5C 211.644,354.392 211.477,348.392 211,342.5C 208.398,343.477 205.898,344.644 203.5,346C 204.167,346.333 204.833,346.667 205.5,347C 202.29,348.201 199.623,350.201 197.5,353C 196.251,353.74 195.251,353.573 194.5,352.5C 205.921,335.338 216.087,317.338 225,298.5C 225.494,296.866 225.66,295.199 225.5,293.5C 218.901,293.215 213.401,295.549 209,300.5C 198.915,314.996 189.582,329.996 181,345.5C 179.748,348.014 179.248,350.68 179.5,353.5C 172.193,359.943 170.027,367.943 173,377.5C 176.104,383.44 180.604,387.773 186.5,390.5C 187.291,392.691 187.291,394.691 186.5,396.5C 185.255,393.521 183.255,392.521 180.5,393.5C 180.013,392.527 179.513,391.527 179,390.5C 174.331,386.663 169.831,382.663 165.5,378.5C 168.805,364.488 169.139,350.488 166.5,336.5C 168.121,332.603 170.288,328.936 173,325.5C 182.729,316.265 192.563,307.265 202.5,298.5C 208.589,296.291 214.589,293.791 220.5,291C 222.041,289.629 223.375,288.129 224.5,286.5C 227.609,288.021 230.942,288.854 234.5,289C 247.167,289.667 259.833,289.667 272.5,289C 311.407,282.929 333.073,260.429 337.5,221.5C 341.332,220.182 344.499,217.848 347,214.5C 350.976,206.932 353.31,198.932 354,190.5C 349.909,196.449 344.409,200.116 337.5,201.5C 336.631,199.283 336.298,196.95 336.5,194.5C 344.418,183.95 354.251,175.617 366,169.5C 366.507,168.004 366.007,166.837 364.5,166C 361.471,163.824 358.471,161.657 355.5,159.5C 355.756,156.402 356.422,153.402 357.5,150.5C 358.268,151.263 358.768,152.263 359,153.5C 360.395,152.57 361.895,152.57 363.5,153.5C 365.728,152.781 367.561,151.448 369,149.5C 370.466,145.119 372.299,140.952 374.5,137C 374.167,136.667 373.833,136.333 373.5,136C 376.833,125.667 380.167,115.333 383.5,105C 383.043,104.586 382.709,104.086 382.5,103.5C 383.791,99.8848 385.791,96.8848 388.5,94.5 Z M 192.5,370.5 C 190.502,371.148 188.502,371.981 186.5,373C 188.385,375.222 190.551,377.056 193,378.5C 194.734,377.534 195.568,376.034 195.5,374C 195.722,371.725 194.722,370.559 192.5,370.5 Z"/></g>
<g><path style="opacity:0.976" fill="#5e211f" d="M 102.5,283.5 C 109.182,289.182 115.182,295.515 120.5,302.5C 124.061,300.221 127.727,298.221 131.5,296.5C 131.528,301.862 131.194,307.195 130.5,312.5C 128.167,312.5 125.833,312.5 123.5,312.5C 118.835,313.057 114.502,314.39 110.5,316.5C 105.991,317.249 102.324,319.249 99.5,322.5C 96.6474,323.189 94.1474,324.522 92,326.5C 88.4569,321.394 84.4569,316.728 80,312.5C 77.0614,314.101 74.3947,316.101 72,318.5C 71.3333,319.833 71.3333,321.167 72,322.5C 75.2316,327.766 78.3983,333.1 81.5,338.5C 80.0623,342.189 78.729,345.856 77.5,349.5C 71.6577,349.08 66.6577,346.747 62.5,342.5C 66.1454,339.149 70.1454,336.149 74.5,333.5C 69.4431,325.65 62.7764,319.65 54.5,315.5C 50.5606,314.064 50.5606,312.731 54.5,311.5C 67.4307,308.005 79.9307,309.005 92,314.5C 92.9454,314.095 93.6121,313.428 94,312.5C 94.7478,307.519 95.2478,302.519 95.5,297.5C 96.6514,291.985 96.6514,286.318 95.5,280.5C 98.2061,280.688 100.539,281.688 102.5,283.5 Z"/></g>
<g><path style="opacity:0.98" fill="#664c44" d="M 295.5,309.5 C 294.503,309.47 293.836,309.97 293.5,311C 292.187,315.113 290.52,318.946 288.5,322.5C 284.803,317.969 280.636,313.969 276,310.5C 271,316.672 266.167,323.005 261.5,329.5C 255.821,323.655 250.321,317.655 245,311.5C 241.819,314.348 238.986,317.515 236.5,321C 235.833,321.667 235.167,321.667 234.5,321C 232.291,314.836 229.624,309.003 226.5,303.5C 226.909,299.124 227.575,294.79 228.5,290.5C 249.65,293.774 270.65,293.107 291.5,288.5C 293.368,295.592 294.701,302.592 295.5,309.5 Z"/></g>
<g><path style="opacity:0.263" fill="#35271a" d="M 146.5,293.5 C 141.637,293.181 136.97,293.514 132.5,294.5C 131.662,294.842 131.328,295.508 131.5,296.5C 127.727,298.221 124.061,300.221 120.5,302.5C 115.182,295.515 109.182,289.182 102.5,283.5C 108.277,282.545 112.943,284.711 116.5,290C 118.639,291.404 120.972,292.237 123.5,292.5C 131.078,290.861 138.745,290.195 146.5,290.5C 146.5,291.5 146.5,292.5 146.5,293.5 Z"/></g>
<g><path style="opacity:0.978" fill="#ad9f8b" d="M 205.5,277.5 C 205.511,279.017 206.177,280.184 207.5,281C 212.765,284.144 218.431,285.977 224.5,286.5C 223.375,288.129 222.041,289.629 220.5,291C 214.589,293.791 208.589,296.291 202.5,298.5C 197.172,298.832 191.838,299.166 186.5,299.5C 181.881,299.782 177.548,298.949 173.5,297C 181.081,293.876 188.414,290.209 195.5,286C 198.666,284 201.332,281.5 203.5,278.5C 204.167,278.167 204.833,277.833 205.5,277.5 Z"/></g>
<g><path style="opacity:0.971" fill="#9b8139" d="M 332.5,289.5 C 338.51,295.509 344.843,301.175 351.5,306.5C 352.476,307.815 353.476,309.148 354.5,310.5C 351.288,315.65 348.288,315.65 345.5,310.5C 341.193,306.528 336.859,302.528 332.5,298.5C 331.055,296.937 329.389,295.604 327.5,294.5C 328.167,291.833 329.833,290.167 332.5,289.5 Z"/></g>
<g><path style="opacity:0.966" fill="#922c29" d="M 132.5,294.5 C 136.167,294.5 139.833,294.5 143.5,294.5C 142.501,301.329 142.501,307.995 143.5,314.5C 148.704,316.712 153.371,319.712 157.5,323.5C 161.264,327.382 164.264,331.715 166.5,336.5C 169.139,350.488 168.805,364.488 165.5,378.5C 159.5,387.833 151.833,395.5 142.5,401.5C 132.838,402.8 123.171,402.8 113.5,401.5C 109.725,400.445 106.058,399.112 102.5,397.5C 99.1667,395.5 95.8333,393.5 92.5,391.5C 88.7881,388.789 85.7881,385.456 83.5,381.5C 81.7328,379.062 80.3994,376.395 79.5,373.5C 79.0422,369.462 78.3755,365.462 77.5,361.5C 77.5,357.5 77.5,353.5 77.5,349.5C 78.729,345.856 80.0623,342.189 81.5,338.5C 78.3983,333.1 75.2316,327.766 72,322.5C 71.3333,321.167 71.3333,319.833 72,318.5C 74.3947,316.101 77.0614,314.101 80,312.5C 84.4569,316.728 88.4569,321.394 92,326.5C 94.1474,324.522 96.6474,323.189 99.5,322.5C 104.664,327.496 109.997,332.329 115.5,337C 116.5,337.667 117.5,337.667 118.5,337C 120.221,329.175 121.887,321.341 123.5,313.5C 123.5,313.167 123.5,312.833 123.5,312.5C 125.833,312.5 128.167,312.5 130.5,312.5C 131.194,307.195 131.528,301.862 131.5,296.5C 131.328,295.508 131.662,294.842 132.5,294.5 Z"/></g>
<g><path style="opacity:0.979" fill="#5c211e" d="M 132.5,294.5 C 136.97,293.514 141.637,293.181 146.5,293.5C 147.833,293.5 149.167,293.5 150.5,293.5C 152.311,293.572 153.644,294.405 154.5,296C 151.13,301.236 147.63,306.403 144,311.5C 143.517,312.448 143.351,313.448 143.5,314.5C 142.501,307.995 142.501,301.329 143.5,294.5C 139.833,294.5 136.167,294.5 132.5,294.5 Z"/></g>
<g><path style="opacity:0.955" fill="#39334b" d="M 334.5,284.5 C 341.5,292.167 348.833,299.5 356.5,306.5C 354.833,306.5 353.167,306.5 351.5,306.5C 344.843,301.175 338.51,295.509 332.5,289.5C 333.931,288.22 334.598,286.553 334.5,284.5 Z"/></g>
<g><path style="opacity:0.97" fill="#9c823a" d="M 337.5,276.5 C 346.5,286.167 355.833,295.5 365.5,304.5C 366.46,307.44 365.293,309.44 362,310.5C 360.019,309.35 358.186,308.016 356.5,306.5C 348.833,299.5 341.5,292.167 334.5,284.5C 331.499,280.509 332.499,277.842 337.5,276.5 Z"/></g>
<g><path style="opacity:0.984" fill="#bf5139" d="M 194.5,352.5 C 190.617,355.447 186.284,356.614 181.5,356C 180.934,355.005 180.267,354.172 179.5,353.5C 179.248,350.68 179.748,348.014 181,345.5C 189.582,329.996 198.915,314.996 209,300.5C 213.401,295.549 218.901,293.215 225.5,293.5C 225.66,295.199 225.494,296.866 225,298.5C 216.087,317.338 205.921,335.338 194.5,352.5 Z"/></g>
<g><path style="opacity:0.468" fill="#2f2217" d="M 142.5,262.5 C 148.722,268.049 155.722,272.382 163.5,275.5C 160.976,291.568 158.976,307.568 157.5,323.5C 153.371,319.712 148.704,316.712 143.5,314.5C 143.351,313.448 143.517,312.448 144,311.5C 147.63,306.403 151.13,301.236 154.5,296C 153.644,294.405 152.311,293.572 150.5,293.5C 150.5,292.5 150.5,291.5 150.5,290.5C 156.614,288.605 157.947,284.771 154.5,279C 154.833,278.667 155.167,278.333 155.5,278C 154.491,275.828 152.824,274.662 150.5,274.5C 150.64,272.876 149.973,271.71 148.5,271C 143.687,270.273 139.021,269.106 134.5,267.5C 136.159,264.167 138.825,262.5 142.5,262.5 Z"/></g>
<g><path style="opacity:0.953" fill="#38334a" d="M 332.5,298.5 C 336.859,302.528 341.193,306.528 345.5,310.5C 344.598,312.341 343.264,313.674 341.5,314.5C 337.5,311.167 333.5,307.833 329.5,304.5C 329.031,301.607 330.031,299.607 332.5,298.5 Z"/></g>
<g><path style="opacity:0.258" fill="#37291b" d="M 95.5,297.5 C 95.2478,302.519 94.7478,307.519 94,312.5C 93.6121,313.428 92.9454,314.095 92,314.5C 79.9307,309.005 67.4307,308.005 54.5,311.5C 55.6253,309.871 56.9586,308.371 58.5,307C 67.9111,306.142 77.2444,304.808 86.5,303C 89.246,297.22 91.746,291.386 94,285.5C 95.4239,289.297 95.9239,293.297 95.5,297.5 Z"/></g>
<g><path style="opacity:0.975" fill="#9d8239" d="M 329.5,304.5 C 333.5,307.833 337.5,311.167 341.5,314.5C 343.355,316.033 345.188,317.7 347,319.5C 346.797,322.574 345.463,325.241 343,327.5C 342.667,327.167 342.333,326.833 342,326.5C 342.926,329.34 342.093,331.673 339.5,333.5C 337.302,331.902 334.969,330.569 332.5,329.5C 328.258,324.84 324.925,319.506 322.5,313.5C 324.451,310.214 326.785,307.214 329.5,304.5 Z"/></g>
<g><path style="opacity:0.973" fill="#bf5139" d="M 226.5,303.5 C 229.624,309.003 232.291,314.836 234.5,321C 235.167,321.667 235.833,321.667 236.5,321C 238.986,317.515 241.819,314.348 245,311.5C 250.321,317.655 255.821,323.655 261.5,329.5C 266.167,323.005 271,316.672 276,310.5C 280.636,313.969 284.803,317.969 288.5,322.5C 290.52,318.946 292.187,315.113 293.5,311C 293.836,309.97 294.503,309.47 295.5,309.5C 297.879,319.01 300.879,328.343 304.5,337.5C 299.841,341.99 295.008,346.323 290,350.5C 285.99,345.659 281.823,340.992 277.5,336.5C 272.5,341.167 267.5,345.833 262.5,350.5C 257.5,345.167 252.5,339.833 247.5,334.5C 242.167,339.167 236.833,343.833 231.5,348.5C 227.189,345.357 223.022,342.023 219,338.5C 218.833,337.5 218.667,336.5 218.5,335.5C 221.379,324.867 224.046,314.201 226.5,303.5 Z"/></g>
<g><path style="opacity:0.976" fill="#ccb898" d="M 123.5,312.5 C 123.5,312.833 123.5,313.167 123.5,313.5C 119.214,314.707 114.88,315.707 110.5,316.5C 114.502,314.39 118.835,313.057 123.5,312.5 Z"/></g>
<g><path style="opacity:0.976" fill="#efebc0" d="M 123.5,313.5 C 121.887,321.341 120.221,329.175 118.5,337C 117.5,337.667 116.5,337.667 115.5,337C 109.997,332.329 104.664,327.496 99.5,322.5C 102.324,319.249 105.991,317.249 110.5,316.5C 114.88,315.707 119.214,314.707 123.5,313.5 Z"/></g>
<g><path style="opacity:0.98" fill="#bf5138" d="M 322.5,313.5 C 324.925,319.506 328.258,324.84 332.5,329.5C 333.82,332.14 335.153,334.807 336.5,337.5C 336.756,339.792 336.423,341.959 335.5,344C 331.258,345.077 327.591,344.244 324.5,341.5C 314.066,326.043 304.399,310.043 295.5,293.5C 295.977,292.522 296.643,291.689 297.5,291C 301.452,290.088 305.119,290.755 308.5,293C 313.56,299.639 318.227,306.472 322.5,313.5 Z"/></g>
<g><path style="opacity:0.97" fill="#090302" d="M 136.5,325.5 C 150.417,325.583 154.084,331.749 147.5,344C 134.618,348.796 129.118,344.296 131,330.5C 132.73,328.598 134.563,326.931 136.5,325.5 Z"/></g>
<g><path style="opacity:0.173" fill="#3c2d1e" d="M 407.5,298.5 C 406.101,301.39 403.768,302.89 400.5,303C 400.833,303.333 401.167,303.667 401.5,304C 398.715,304.559 396.382,305.892 394.5,308C 382.177,310.107 370.177,313.44 358.5,318C 357,319.5 355.5,321 354,322.5C 350.095,330.23 345.595,337.563 340.5,344.5C 340.089,343.738 339.923,342.738 340,341.5C 339.586,341.957 339.086,342.291 338.5,342.5C 337.83,340.709 337.163,339.042 336.5,337.5C 335.153,334.807 333.82,332.14 332.5,329.5C 334.969,330.569 337.302,331.902 339.5,333.5C 342.093,331.673 342.926,329.34 342,326.5C 342.333,326.833 342.667,327.167 343,327.5C 345.463,325.241 346.797,322.574 347,319.5C 345.188,317.7 343.355,316.033 341.5,314.5C 343.264,313.674 344.598,312.341 345.5,310.5C 348.288,315.65 351.288,315.65 354.5,310.5C 353.476,309.148 352.476,307.815 351.5,306.5C 353.167,306.5 354.833,306.5 356.5,306.5C 358.186,308.016 360.019,309.35 362,310.5C 365.293,309.44 366.46,307.44 365.5,304.5C 379.611,303.143 393.611,301.143 407.5,298.5 Z"/></g>
<g><path style="opacity:0.967" fill="#080302" d="M 96.5,336.5 C 108.576,336.956 112.409,342.956 108,354.5C 104.194,358.989 99.3611,360.489 93.5,359C 87.3733,350.396 88.3733,342.896 96.5,336.5 Z"/></g>
<g><path style="opacity:0.26" fill="#3e2f1f" d="M 209.5,390.5 C 208.513,395.117 207.846,399.784 207.5,404.5C 206.796,406.344 205.463,406.844 203.5,406C 204.451,405.282 204.617,404.449 204,403.5C 202.333,404.5 200.667,405.5 199,406.5C 198.578,408.355 198.078,410.189 197.5,412C 198.435,414.031 197.935,415.864 196,417.5C 196.195,415.874 196.195,414.207 196,412.5C 195.292,413.381 194.458,414.047 193.5,414.5C 191.709,408.257 189.376,402.257 186.5,396.5C 187.291,394.691 187.291,392.691 186.5,390.5C 180.604,387.773 176.104,383.44 173,377.5C 170.027,367.943 172.193,359.943 179.5,353.5C 180.267,354.172 180.934,355.005 181.5,356C 186.284,356.614 190.617,355.447 194.5,352.5C 195.251,353.573 196.251,353.74 197.5,353C 199.623,350.201 202.29,348.201 205.5,347C 204.833,346.667 204.167,346.333 203.5,346C 205.898,344.644 208.398,343.477 211,342.5C 211.477,348.392 211.644,354.392 211.5,360.5C 209.374,364.559 208.708,368.726 209.5,373C 208.112,378.058 207.112,383.224 206.5,388.5C 205.984,393.857 206.984,394.524 209.5,390.5 Z M 192.5,370.5 C 190.502,371.148 188.502,371.981 186.5,373C 188.385,375.222 190.551,377.056 193,378.5C 194.734,377.534 195.568,376.034 195.5,374C 195.722,371.725 194.722,370.559 192.5,370.5 Z"/></g>
<g><path style="opacity:0.971" fill="#9b8139" d="M 318.5,391.5 C 318.637,395.179 317.971,398.679 316.5,402C 315.833,402.667 315.167,402.667 314.5,402C 313.295,400.624 311.962,399.458 310.5,398.5C 303.179,391.181 295.512,384.181 287.5,377.5C 280.792,383.932 274.792,390.932 269.5,398.5C 267.537,399.96 265.704,401.627 264,403.5C 261.963,401.294 259.797,399.294 257.5,397.5C 252.491,391.658 246.991,386.325 241,381.5C 233.679,387.321 226.512,393.321 219.5,399.5C 216.499,402.332 213.333,404.998 210,407.5C 209.148,406.429 208.315,405.429 207.5,404.5C 207.846,399.784 208.513,395.117 209.5,390.5C 211.862,374.026 214.862,357.693 218.5,341.5C 222.833,344.833 227.167,348.167 231.5,351.5C 237.129,347.206 242.463,342.539 247.5,337.5C 252.5,342.833 257.5,348.167 262.5,353.5C 267.5,348.833 272.5,344.167 277.5,339.5C 281.833,344.167 286.167,348.833 290.5,353.5C 296.129,349.206 301.463,344.539 306.5,339.5C 311.111,356.615 315.111,373.949 318.5,391.5 Z"/></g>
<g><path style="opacity:0.958" fill="#ab9d89" d="M 62.5,342.5 C 66.6577,346.747 71.6577,349.08 77.5,349.5C 77.5,353.5 77.5,357.5 77.5,361.5C 68.4256,360.085 62.4256,355.085 59.5,346.5C 58.3648,344.255 57.8648,341.922 58,339.5C 59.6147,340.386 61.1147,341.386 62.5,342.5 Z"/></g>
<g><path style="opacity:0.964" fill="#090604" d="M 130.5,351.5 C 133.187,351.336 135.854,351.503 138.5,352C 139.056,352.383 139.389,352.883 139.5,353.5C 138.841,355.138 138.174,356.805 137.5,358.5C 141.145,361.825 143.478,361.158 144.5,356.5C 147.994,358.5 150.16,361.5 151,365.5C 151.667,370.5 151.667,375.5 151,380.5C 150.495,383.865 149.328,386.865 147.5,389.5C 145.8,384.711 143.467,384.378 140.5,388.5C 141.521,390.188 142.855,391.521 144.5,392.5C 142.574,394.977 140.241,395.977 137.5,395.5C 134.912,391.413 132.578,391.58 130.5,396C 130.743,396.902 131.077,397.735 131.5,398.5C 129.167,398.5 126.833,398.5 124.5,398.5C 124.5,397.5 124.5,396.5 124.5,395.5C 124.5,394.5 124.5,393.5 124.5,392.5C 123.07,392.579 121.736,392.246 120.5,391.5C 118.889,392.32 118.222,393.654 118.5,395.5C 110.142,390.639 106.642,383.305 108,373.5C 108.436,370.602 109.603,368.269 111.5,366.5C 114.528,371.746 116.861,371.246 118.5,365C 117.685,363.357 116.685,361.857 115.5,360.5C 117.435,356.897 120.435,354.897 124.5,354.5C 125.73,356.297 126.396,358.297 126.5,360.5C 127.93,360.579 129.264,360.246 130.5,359.5C 131.449,356.874 131.449,354.208 130.5,351.5 Z"/></g>
<g><path style="opacity:0.956" fill="#e3dfb6" d="M 130.5,351.5 C 131.449,354.208 131.449,356.874 130.5,359.5C 129.264,360.246 127.93,360.579 126.5,360.5C 126.396,358.297 125.73,356.297 124.5,354.5C 126.181,352.992 128.181,351.992 130.5,351.5 Z"/></g>
<g><path style="opacity:0.961" fill="#dbd8b0" d="M 139.5,353.5 C 141.933,353.273 143.599,354.273 144.5,356.5C 143.478,361.158 141.145,361.825 137.5,358.5C 138.174,356.805 138.841,355.138 139.5,353.5 Z"/></g>
<g><path style="opacity:0.204" fill="#3a2b1d" d="M 54.5,315.5 C 62.7764,319.65 69.4431,325.65 74.5,333.5C 70.1454,336.149 66.1454,339.149 62.5,342.5C 61.1147,341.386 59.6147,340.386 58,339.5C 57.8648,341.922 58.3648,344.255 59.5,346.5C 56.2364,347.927 53.7364,350.261 52,353.5C 51.1939,356.446 49.8605,359.112 48,361.5C 47.0642,365.114 46.5642,368.78 46.5,372.5C 49.4701,371.451 52.4701,370.284 55.5,369C 57.2588,368.202 58.9255,368.369 60.5,369.5C 55.6735,387.338 57.0069,404.671 64.5,421.5C 60.1982,422.365 58.1982,420.365 58.5,415.5C 55.5203,415.759 53.687,414.426 53,411.5C 50.3875,401.322 48.7208,390.655 48,379.5C 46.8814,375.929 45.2147,372.596 43,369.5C 42.1038,361.685 43.6038,354.352 47.5,347.5C 51.1842,342.981 54.6842,338.314 58,333.5C 58.6667,331.833 58.6667,330.167 58,328.5C 56.5156,325.531 55.0156,322.531 53.5,319.5C 54.2458,318.264 54.5792,316.93 54.5,315.5 Z"/></g>
<g><path style="opacity:0.037" fill="#4b3926" d="M 202.5,354.5 C 205.31,355.88 206.643,358.214 206.5,361.5C 203.658,375.113 201.991,388.446 201.5,401.5C 200.086,402.624 198.586,403.624 197,404.5C 197.333,402.833 197.667,401.167 198,399.5C 190.291,392.458 183.291,384.792 177,376.5C 174.729,371.18 175.563,366.347 179.5,362C 188.2,362.187 195.866,359.687 202.5,354.5 Z M 192.5,370.5 C 190.502,371.148 188.502,371.981 186.5,373C 188.385,375.222 190.551,377.056 193,378.5C 194.734,377.534 195.568,376.034 195.5,374C 195.722,371.725 194.722,370.559 192.5,370.5 Z"/></g>
<g><path style="opacity:0.937" fill="#dfd9b3" d="M 115.5,360.5 C 116.685,361.857 117.685,363.357 118.5,365C 116.861,371.246 114.528,371.746 111.5,366.5C 111.684,363.663 113.018,361.663 115.5,360.5 Z"/></g>
<g><path style="opacity:0.983" fill="#a79685" d="M 79.5,373.5 C 80.3994,376.395 81.7328,379.062 83.5,381.5C 75.3411,383.282 68.3411,381.115 62.5,375C 68.1493,374.243 73.816,373.743 79.5,373.5 Z"/></g>
<g><path style="opacity:0.975" fill="#be5138" d="M 165.5,378.5 C 169.831,382.663 174.331,386.663 179,390.5C 179.513,391.527 180.013,392.527 180.5,393.5C 169.202,397.941 157.869,402.608 146.5,407.5C 145.559,405.228 144.226,403.228 142.5,401.5C 151.833,395.5 159.5,387.833 165.5,378.5 Z"/></g>
<g><path style="opacity:0.973" fill="#bb5038" d="M 297.5,406.5 C 297.665,409.85 297.498,413.183 297,416.5C 295.144,421.135 291.644,422.802 286.5,421.5C 285.035,414.134 284.035,406.8 283.5,399.5C 283.625,395.209 282.958,391.043 281.5,387C 282.665,383.84 284.665,381.34 287.5,379.5C 290.484,381.984 293.318,384.65 296,387.5C 297.188,393.778 297.688,400.112 297.5,406.5 Z"/></g>
<g><path style="opacity:0.956" fill="#5e2220" d="M 59.5,346.5 C 62.4256,355.085 68.4256,360.085 77.5,361.5C 78.3755,365.462 79.0422,369.462 79.5,373.5C 73.816,373.743 68.1493,374.243 62.5,375C 68.3411,381.115 75.3411,383.282 83.5,381.5C 85.7881,385.456 88.7881,388.789 92.5,391.5C 87.0778,394.114 81.4112,396.281 75.5,398C 76.5707,398.852 77.5707,399.685 78.5,400.5C 75.2639,406.193 72.5973,412.193 70.5,418.5C 69.3995,420.277 68.5662,422.277 68,424.5C 66.9609,423.29 65.7942,422.29 64.5,421.5C 57.0069,404.671 55.6735,387.338 60.5,369.5C 58.9255,368.369 57.2588,368.202 55.5,369C 52.4701,370.284 49.4701,371.451 46.5,372.5C 46.5642,368.78 47.0642,365.114 48,361.5C 49.8605,359.112 51.1939,356.446 52,353.5C 53.7364,350.261 56.2364,347.927 59.5,346.5 Z"/></g>
<g><path style="opacity:0.478" fill="#302418" d="M 310.5,398.5 C 310.189,399.478 309.522,400.145 308.5,400.5C 307.109,399.355 305.776,399.355 304.5,400.5C 303.376,403.119 301.71,405.285 299.5,407C 300.849,408.635 300.682,410.135 299,411.5C 298.802,409.618 298.302,407.952 297.5,406.5C 297.688,400.112 297.188,393.778 296,387.5C 293.318,384.65 290.484,381.984 287.5,379.5C 284.665,381.34 282.665,383.84 281.5,387C 282.958,391.043 283.625,395.209 283.5,399.5C 283.663,401.857 283.497,404.19 283,406.5C 281.175,399.011 276.675,396.345 269.5,398.5C 274.792,390.932 280.792,383.932 287.5,377.5C 295.512,384.181 303.179,391.181 310.5,398.5 Z"/></g>
<g><path style="opacity:0.95" fill="#dbd5af" d="M 147.5,389.5 C 146.833,390.833 145.833,391.833 144.5,392.5C 142.855,391.521 141.521,390.188 140.5,388.5C 143.467,384.378 145.8,384.711 147.5,389.5 Z"/></g>
<g><path style="opacity:0.849" fill="#d9d2aa" d="M 124.5,395.5 C 123.833,396.167 123.167,396.833 122.5,397.5C 120.62,397.771 119.287,397.104 118.5,395.5C 118.222,393.654 118.889,392.32 120.5,391.5C 121.736,392.246 123.07,392.579 124.5,392.5C 124.5,393.5 124.5,394.5 124.5,395.5 Z"/></g>
<g><path style="opacity:0.957" fill="#dedbb2" d="M 137.5,395.5 C 136.216,397.614 134.216,398.614 131.5,398.5C 131.077,397.735 130.743,396.902 130.5,396C 132.578,391.58 134.912,391.413 137.5,395.5 Z"/></g>
<g><path style="opacity:0.433" fill="#302418" d="M 257.5,397.5 C 255.231,398.821 252.897,399.321 250.5,399C 248.48,401.375 246.813,403.875 245.5,406.5C 245.666,400.824 245.499,395.157 245,389.5C 243.748,387.999 242.748,386.332 242,384.5C 241.282,383.549 240.449,383.383 239.5,384C 236.629,386.703 233.962,389.536 231.5,392.5C 230.671,399.989 230.171,407.656 230,415.5C 228.139,409.313 224.305,405.146 218.5,403C 219.167,402.667 219.833,402.333 220.5,402C 219.748,401.329 219.414,400.496 219.5,399.5C 226.512,393.321 233.679,387.321 241,381.5C 246.991,386.325 252.491,391.658 257.5,397.5 Z"/></g>
<g><path style="opacity:0.829" fill="#b04e36" d="M 245.5,406.5 C 245.666,411.844 245.499,417.177 245,422.5C 240.533,426.549 236.533,425.882 233,420.5C 231.583,411.248 231.083,401.915 231.5,392.5C 233.962,389.536 236.629,386.703 239.5,384C 240.449,383.383 241.282,383.549 242,384.5C 242.748,386.332 243.748,387.999 245,389.5C 245.499,395.157 245.666,400.824 245.5,406.5 Z"/></g>
<g><path style="opacity:0.959" fill="#a99a87" d="M 92.5,391.5 C 95.8333,393.5 99.1667,395.5 102.5,397.5C 98.7961,400.508 94.4628,402.175 89.5,402.5C 85.6814,402.586 82.0148,401.919 78.5,400.5C 77.5707,399.685 76.5707,398.852 75.5,398C 81.4112,396.281 87.0778,394.114 92.5,391.5 Z"/></g>
<g><path style="opacity:0.933" fill="#7f7661" d="M 124.5,395.5 C 124.5,396.5 124.5,397.5 124.5,398.5C 123.508,398.672 122.842,398.338 122.5,397.5C 123.167,396.833 123.833,396.167 124.5,395.5 Z"/></g>
<g><path style="opacity:0.973" fill="#5e221f" d="M 102.5,397.5 C 106.058,399.112 109.725,400.445 113.5,401.5C 109.361,408.111 106.028,415.111 103.5,422.5C 102.039,426.299 100.372,426.299 98.5,422.5C 94.3993,416.301 91.3993,409.634 89.5,402.5C 94.4628,402.175 98.7961,400.508 102.5,397.5 Z"/></g>
<g><path style="opacity:0.26" fill="#36281b" d="M 113.5,401.5 C 123.171,402.8 132.838,402.8 142.5,401.5C 144.226,403.228 145.559,405.228 146.5,407.5C 145.435,412.553 143.101,416.886 139.5,420.5C 136.108,408.955 128.775,405.788 117.5,411C 114.517,413.914 111.517,416.914 108.5,420C 107.1,421.438 105.433,422.271 103.5,422.5C 106.028,415.111 109.361,408.111 113.5,401.5 Z"/></g>
<g><path style="opacity:0.968" fill="#9b8039" d="M 186.5,396.5 C 189.376,402.257 191.709,408.257 193.5,414.5C 193.59,416.696 193.923,418.863 194.5,421C 194.167,421.833 193.833,422.667 193.5,423.5C 192.583,422.873 191.583,422.539 190.5,422.5C 188.022,420.197 185.355,418.031 182.5,416C 180.956,414.813 179.289,414.48 177.5,415C 174.056,420.776 170.223,426.276 166,431.5C 162.9,426.955 159.566,422.622 156,418.5C 151.327,419.889 146.827,421.555 142.5,423.5C 137.96,425.11 136.96,424.11 139.5,420.5C 143.101,416.886 145.435,412.553 146.5,407.5C 157.869,402.608 169.202,397.941 180.5,393.5C 183.255,392.521 185.255,393.521 186.5,396.5 Z"/></g>
<g><path style="opacity:0.258" fill="#36281b" d="M 78.5,400.5 C 82.0148,401.919 85.6814,402.586 89.5,402.5C 91.3993,409.634 94.3993,416.301 98.5,422.5C 97.1266,422.657 95.7932,422.49 94.5,422C 92.1667,419.667 89.8333,417.333 87.5,415C 84.9699,413.578 82.3033,413.245 79.5,414C 76.9367,416.53 74.1033,418.697 71,420.5C 70.5357,419.906 70.369,419.239 70.5,418.5C 72.5973,412.193 75.2639,406.193 78.5,400.5 Z"/></g>
<g><path style="opacity:0.97" fill="#ba5038" d="M 184.5,420.5 C 184.837,424.308 184.337,427.974 183,431.5C 181.644,432.38 180.144,432.714 178.5,432.5C 176.561,428.469 176.061,424.136 177,419.5C 177.833,418.5 178.667,417.5 179.5,416.5C 181.21,417.887 182.877,419.221 184.5,420.5 Z"/></g>
<g><path style="opacity:0.976" fill="#b74e37" d="M 150.5,434.5 C 147.09,434.616 145.756,432.95 146.5,429.5C 147.331,422.802 150.831,420.469 157,422.5C 157.325,424.553 156.991,426.553 156,428.5C 154.748,430.001 153.748,431.668 153,433.5C 152.329,434.252 151.496,434.586 150.5,434.5 Z"/></g>
<g><path style="opacity:0.224" fill="#3b2c1d" d="M 190.5,422.5 C 189.708,424.257 188.375,425.591 186.5,426.5C 185.831,424.369 185.165,422.369 184.5,420.5C 182.877,419.221 181.21,417.887 179.5,416.5C 178.667,417.5 177.833,418.5 177,419.5C 176.061,424.136 176.561,428.469 178.5,432.5C 176.088,434.162 173.254,435.162 170,435.5C 169.333,434.167 168.667,434.167 168,435.5C 167.667,434.833 167.333,434.167 167,433.5C 165.757,435.833 164.091,436.5 162,435.5C 159.876,436.227 157.709,436.894 155.5,437.5C 153.744,436.722 152.077,435.722 150.5,434.5C 151.496,434.586 152.329,434.252 153,433.5C 153.748,431.668 154.748,430.001 156,428.5C 156.991,426.553 157.325,424.553 157,422.5C 150.831,420.469 147.331,422.802 146.5,429.5C 145.849,430.091 145.182,430.757 144.5,431.5C 141.46,429.421 140.793,426.755 142.5,423.5C 146.827,421.555 151.327,419.889 156,418.5C 159.566,422.622 162.9,426.955 166,431.5C 170.223,426.276 174.056,420.776 177.5,415C 179.289,414.48 180.956,414.813 182.5,416C 185.355,418.031 188.022,420.197 190.5,422.5 Z"/></g>
</svg>
