<?xml version="1.0" encoding="UTF-8"?>
<!DOCTYPE svg PUBLIC "-//W3C//DTD SVG 1.1//EN" "http://www.w3.org/Graphics/SVG/1.1/DTD/svg11.dtd">
<svg xmlns="http://www.w3.org/2000/svg" version="1.1" width="500px" height="500px" style="shape-rendering:geometricPrecision; text-rendering:geometricPrecision; image-rendering:optimizeQuality; fill-rule:evenodd; clip-rule:evenodd" xmlns:xlink="http://www.w3.org/1999/xlink">
<g><path style="opacity:0.031" fill="#4e3b27" d="M 432.5,372.5 C 434.74,374.599 437.24,377.265 440,380.5C 441.74,383.909 442.74,387.576 443,391.5C 446.359,393.695 449.193,396.362 451.5,399.5C 456.925,405.319 459.759,411.986 460,419.5C 461.262,427.864 460.095,436.197 456.5,444.5C 456.709,445.086 457.043,445.586 457.5,446C 452.579,453.463 445.579,457.297 436.5,457.5C 310.276,457.664 184.776,457.664 60,457.5C 54.2779,456.704 49.2779,454.371 45,450.5C 38.9369,437.504 37.9369,423.837 42,409.5C 43,407.5 44,405.5 45,403.5C 54.5885,393.735 65.4219,385.735 77.5,379.5C 74.3049,372.898 72.8049,365.898 73,358.5C 70.039,310.182 67.2057,262.182 64.5,214.5C 65.3847,207.418 64.8847,200.085 63,192.5C 50.6454,187.804 44.812,178.804 45.5,165.5C 45.7076,158.75 47.0409,152.25 49.5,146C 46.5664,141.31 43.733,136.477 41,131.5C 37.846,118.66 39.346,106.493 45.5,95C 39.6353,82.7423 38.1353,69.909 41,56.5C 43.7197,46.4466 50.2197,40.6133 60.5,39C 76.0507,35.8903 90.0507,39.0569 102.5,48.5C 105.575,46.9338 108.242,44.7671 110.5,42C 119.538,38.6623 128.871,37.6623 138.5,39C 142.049,39.7736 145.382,41.107 148.5,43C 151.751,46.7585 155.418,49.9251 159.5,52.5C 171.033,49.1576 182.699,48.6576 194.5,51C 198.792,52.3957 202.292,54.8957 205,58.5C 208.267,64.4682 210.434,70.8015 211.5,77.5C 220.704,80.4339 229.704,83.9339 238.5,88C 242.833,91 246.5,94.6667 249.5,99C 253.819,99.9046 258.152,100.238 262.5,100C 269.146,91.0369 277.813,84.7036 288.5,81C 289.453,79.0448 290.787,77.3782 292.5,76C 291.643,75.3109 290.977,74.4776 290.5,73.5C 291.84,65.0191 295.84,58.1857 302.5,53C 305.089,51.8035 307.756,50.8035 310.5,50C 318.167,49.3333 325.833,49.3333 333.5,50C 336.912,52.1035 340.579,52.7702 344.5,52C 351.186,41.7619 360.686,37.2619 373,38.5C 377.568,38.4767 382.068,38.9767 386.5,40C 391.225,42.0663 395.392,44.8996 399,48.5C 401.996,46.5065 404.996,44.5065 408,42.5C 408.414,42.9574 408.914,43.2907 409.5,43.5C 412.179,41.3128 415.179,39.8128 418.5,39C 425.833,38.3333 433.167,38.3333 440.5,39C 453.977,41.9549 460.977,50.1215 461.5,63.5C 461.207,68.5409 461.207,73.2076 461.5,77.5C 460.695,79.9154 459.695,82.2487 458.5,84.5C 458.709,85.086 459.043,85.586 459.5,86C 457.932,88.3944 456.599,90.8944 455.5,93.5C 456.5,97.653 458.167,101.486 460.5,105C 459.151,106.635 459.318,108.135 461,109.5C 462.353,119.577 461.02,129.244 457,138.5C 455.622,140.213 453.955,141.547 452,142.5C 451.833,143.333 451.667,144.167 451.5,145C 452.114,146.537 452.114,147.87 451.5,149C 453.907,150.715 454.574,152.882 453.5,155.5C 455.86,163.019 456.026,170.686 454,178.5C 451.166,186 445.833,190.666 438,192.5C 436.514,208.151 435.181,223.818 434,239.5C 432.498,241.795 432.332,244.128 433.5,246.5C 433.182,247.647 432.516,248.481 431.5,249C 431.833,249.333 432.167,249.667 432.5,250C 430.447,253.7 429.114,257.367 428.5,261C 428.957,261.414 429.291,261.914 429.5,262.5C 428.056,266.234 427.056,270.067 426.5,274C 426.833,275 427.167,276 427.5,277C 425.257,287.778 423.59,298.445 422.5,309C 419.403,328.243 416.403,347.076 413.5,365.5C 413.818,366.647 414.484,367.481 415.5,368C 421.569,368.309 427.236,369.809 432.5,372.5 Z M 383.5,369.5 C 384.068,371.751 385.068,372.918 386.5,373C 386.011,374.138 385.678,375.305 385.5,376.5C 383.96,380.053 381.293,381.22 377.5,380C 370.586,378.684 367.752,374.518 369,367.5C 372.499,365.752 375.832,363.752 379,361.5C 380.788,364.092 382.288,366.759 383.5,369.5 Z"/></g>
<g><path style="opacity:0.119" fill="#473524" d="M 399.5,356.5 C 399.183,352.298 399.517,348.298 400.5,344.5C 400.5,345.833 400.5,347.167 400.5,348.5C 401.5,348.5 402.5,348.5 403.5,348.5C 404.523,345.607 404.523,342.774 403.5,340C 404.308,339.692 404.975,339.192 405.5,338.5C 408.711,332.803 410.044,326.803 409.5,320.5C 410.727,319.41 411.56,318.076 412,316.5C 412.226,312.174 413.059,308.007 414.5,304C 413.878,302.431 413.544,300.764 413.5,299C 415.721,294.693 417.054,290.026 417.5,285C 417.626,282.766 417.293,280.432 416.5,278C 417.574,277.261 418.241,276.261 418.5,275C 417.576,273.85 417.576,272.85 418.5,272C 417.833,271.667 417.167,271.333 416.5,271C 417.833,269.333 417.833,267.667 416.5,266C 418.973,264.598 418.973,263.098 416.5,261.5C 417.5,260.167 418.5,258.833 419.5,257.5C 417.726,252.356 418.559,247.689 422,243.5C 423.644,238.923 424.978,234.256 426,229.5C 426.25,222.41 427.083,215.41 428.5,208.5C 426.842,198.482 428.675,188.815 434,179.5C 436.589,177.789 439.089,175.955 441.5,174C 441.167,173.667 440.833,173.333 440.5,173C 441.448,172.517 442.448,172.351 443.5,172.5C 443.286,170.856 443.62,169.356 444.5,168C 443.551,167.383 442.718,167.549 442,168.5C 441.51,167.207 441.343,165.873 441.5,164.5C 442.5,164.5 443.5,164.5 444.5,164.5C 444.863,162.089 443.863,160.589 441.5,160C 442.167,159.333 442.833,158.667 443.5,158C 441.225,154.602 438.225,152.102 434.5,150.5C 435.088,147.662 434.421,144.996 432.5,142.5C 432.766,140.34 433.766,138.674 435.5,137.5C 438.638,135.856 441.638,134.023 444.5,132C 445.641,131.259 445.641,130.425 444.5,129.5C 446.287,128.684 447.954,127.684 449.5,126.5C 449.291,125.914 448.957,125.414 448.5,125C 450.267,121.834 451.267,118.334 451.5,114.5C 448.448,111.42 446.114,107.754 444.5,103.5C 438.135,99.4678 433.135,94.1345 429.5,87.5C 430.182,84.6345 431.516,82.1345 433.5,80C 435.668,79.7506 437.335,80.5839 438.5,82.5C 438.735,83.0967 439.235,83.4301 440,83.5C 446.351,76.7399 447.685,69.0732 444,60.5C 442.629,58.9586 441.129,57.6253 439.5,56.5C 440.171,55.1529 440.171,53.9862 439.5,53C 435.881,52.1969 432.381,51.0302 429,49.5C 427.775,49.8623 426.609,50.3623 425.5,51C 425.833,51.3333 426.167,51.6667 426.5,52C 422.132,53.0836 417.799,53.2502 413.5,52.5C 412.243,54.9699 410.743,57.3033 409,59.5C 408.667,59.1667 408.333,58.8333 408,58.5C 405.144,60.844 401.977,62.5106 398.5,63.5C 394.877,62.3947 391.21,61.3947 387.5,60.5C 383.857,55.4855 378.857,52.1522 372.5,50.5C 368.432,51.0332 365.099,52.8665 362.5,56C 362.728,56.3988 363.062,56.5654 363.5,56.5C 359.562,60.4386 356.895,65.1053 355.5,70.5C 356.959,70.5674 358.292,70.2341 359.5,69.5C 359.5,70.5 359.5,71.5 359.5,72.5C 358.5,72.5 357.5,72.5 356.5,72.5C 356.465,78.0241 354.799,78.6908 351.5,74.5C 350.833,74.8333 350.167,75.1667 349.5,75.5C 347.556,74.8108 345.556,74.3108 343.5,74C 342.23,73.1004 341.23,71.9337 340.5,70.5C 337.82,73.4429 337.153,73.1096 338.5,69.5C 327.842,57.4116 317.175,57.5782 306.5,70C 307.066,70.9947 307.733,71.828 308.5,72.5C 306.744,76.2728 305.744,80.2728 305.5,84.5C 303.026,85.2763 302.359,86.7763 303.5,89C 300.228,90.6078 297.228,92.6078 294.5,95C 289.133,95.1734 284.8,97.34 281.5,101.5C 280.914,101.291 280.414,100.957 280,100.5C 276.989,105.68 273.156,110.18 268.5,114C 265.833,114.667 263.167,114.667 260.5,114C 260.043,113.586 259.709,113.086 259.5,112.5C 252.18,112.426 245.347,110.76 239,107.5C 238.472,104.421 236.972,102.087 234.5,100.5C 234.489,98.9826 233.823,97.8159 232.5,97C 224.325,92.2482 215.659,88.5815 206.5,86C 200.927,81.499 197.76,75.6657 197,68.5C 188.763,57.8318 178.597,55.6651 166.5,62C 163.167,64.6667 159.833,67.3333 156.5,70C 154.167,70.6667 151.833,70.6667 149.5,70C 148.167,68 146.833,66 145.5,64C 145.909,58.9736 143.909,54.8069 139.5,51.5C 134.237,47.5967 128.57,46.7634 122.5,49C 117.219,52.2804 112.219,55.9471 107.5,60C 104.833,60.6667 102.167,60.6667 99.5,60C 91.0644,53.2256 81.5644,48.7256 71,46.5C 51.009,51.6244 45.509,62.7911 54.5,80C 55.7932,80.49 57.1266,80.6567 58.5,80.5C 60.0037,83.6967 61.6703,84.03 63.5,81.5C 65.3792,80.6586 67.3792,80.3253 69.5,80.5C 71.113,84.9916 70.4463,89.4916 67.5,94C 67.8333,94.3333 68.1667,94.6667 68.5,95C 64,98.1667 59.5,101.333 55,104.5C 47.2365,114.49 47.7365,123.99 56.5,133C 59.8789,134.739 63.2122,136.572 66.5,138.5C 67.7485,141.506 67.7485,144.506 66.5,147.5C 63.0925,151.318 59.9259,155.318 57,159.5C 55.6187,169.905 59.7854,177.072 69.5,181C 69.1667,181.333 68.8333,181.667 68.5,182C 69.8869,184.045 71.0536,186.212 72,188.5C 72.8029,194.053 73.6362,199.553 74.5,205C 74.3846,209.821 74.0513,214.988 73.5,220.5C 74.4954,223.991 75.162,227.324 75.5,230.5C 74.9264,232.059 74.2598,233.559 73.5,235C 75.9289,243.037 76.5956,251.037 75.5,259C 75.964,263.217 76.6307,267.384 77.5,271.5C 77.251,282.255 77.251,292.755 77.5,303C 78.1667,304.667 78.8333,306.333 79.5,308C 78.6067,312.114 78.2734,316.114 78.5,320C 79.4763,329.431 80.3096,338.931 81,348.5C 81.3953,352.019 82.3953,355.352 84,358.5C 85.0852,359.293 86.2519,359.96 87.5,360.5C 88.4892,356.893 88.8226,353.226 88.5,349.5C 89.4916,356.648 89.825,363.981 89.5,371.5C 85.2289,370.422 82.0622,367.422 80,362.5C 78.5679,356.574 77.5679,350.574 77,344.5C 76.7974,334.111 75.964,323.778 74.5,313.5C 74.5388,309.026 74.8721,304.359 75.5,299.5C 74.3035,286.846 72.9702,274.013 71.5,261C 72.3521,258.583 73.0188,256.083 73.5,253.5C 72.5907,248.817 71.5907,244.15 70.5,239.5C 70.3207,236.869 70.9873,234.535 72.5,232.5C 70.8427,229.911 70.5094,227.244 71.5,224.5C 70.801,220.349 70.1343,216.182 69.5,212C 69.485,206.481 69.8183,201.148 70.5,196C 69.9208,192.843 68.9208,189.843 67.5,187C 65.0409,183.569 62.0409,180.735 58.5,178.5C 57.6143,177.675 57.281,176.675 57.5,175.5C 56.5,175.5 55.5,175.5 54.5,175.5C 54.6399,173.876 53.9733,172.71 52.5,172C 53.6341,170.984 53.3008,170.317 51.5,170C 52.376,168.414 53.376,166.914 54.5,165.5C 53.218,163.821 52.218,161.987 51.5,160C 53.7207,154.705 57.2207,150.538 62,147.5C 63.5822,144.685 63.4155,142.185 61.5,140C 49.2436,136.314 43.9102,128.147 45.5,115.5C 45.7124,112.179 47.3791,110.012 50.5,109C 49.376,108.751 48.376,108.251 47.5,107.5C 51.599,101.743 56.9323,97.4094 63.5,94.5C 64.2208,92.314 64.8875,90.1474 65.5,88C 64.1971,87.7902 62.8638,87.9569 61.5,88.5C 59.9121,87.9904 58.7455,86.9904 58,85.5C 57.6667,85.8333 57.3333,86.1667 57,86.5C 52.7144,85.5318 49.3811,83.1984 47,79.5C 44.8938,71.89 45.2271,64.2233 48,56.5C 52.0641,51.7671 56.7308,47.7671 62,44.5C 64.0174,45.7063 65.8507,45.373 67.5,43.5C 71.08,43.7423 74.7467,43.909 78.5,44C 82.6151,45.4802 86.6151,47.1468 90.5,49C 94.6337,55.1495 100.3,57.4829 107.5,56C 111.858,52.3039 116.192,48.6372 120.5,45C 130.958,41.7978 139.792,44.2978 147,52.5C 149.3,55.8771 151.133,59.5438 152.5,63.5C 153.242,64.2868 154.075,64.9535 155,65.5C 173.532,49.446 189.865,51.1127 204,70.5C 204.758,72.7695 204.591,74.9361 203.5,77C 204.87,78.4413 205.87,80.108 206.5,82C 215.365,85.0702 224.032,88.7369 232.5,93C 237.013,97.5114 241.847,101.678 247,105.5C 247.333,105.167 247.667,104.833 248,104.5C 252.802,105.45 257.635,106.45 262.5,107.5C 266.134,106.707 269.468,105.207 272.5,103C 274.267,99.9131 276.6,96.7464 279.5,93.5C 286.941,90.8972 292.774,86.2305 297,79.5C 297.882,76.2105 298.548,72.8772 299,69.5C 302.473,64.6939 306.639,60.5272 311.5,57C 316.189,55.5624 321.189,54.8957 326.5,55C 332.269,56.6302 337.269,59.4635 341.5,63.5C 344.446,64.6548 347.446,64.8214 350.5,64C 351.63,59.1093 353.63,54.6093 356.5,50.5C 360.33,47.4886 364.497,45.1553 369,43.5C 370.43,43.6938 371.93,43.6938 373.5,43.5C 374.192,44.0253 374.692,44.6919 375,45.5C 375.333,45.1667 375.667,44.8333 376,44.5C 382.916,46.7066 388.749,50.5399 393.5,56C 396.03,57.4217 398.697,57.755 401.5,57C 404.979,53.8041 408.479,51.3041 412,49.5C 412.772,49.6448 413.439,49.9781 414,50.5C 416.03,48.2625 418.53,46.7625 421.5,46C 420.833,45.6667 420.167,45.3333 419.5,45C 422.706,44.7037 425.872,44.2037 429,43.5C 431.482,45.5314 434.148,45.8647 437,44.5C 440.506,46.6756 444.006,48.8423 447.5,51C 450.136,54.9792 452.803,58.9792 455.5,63C 455.656,64.6704 454.99,66.337 453.5,68C 452.991,70.5795 453.658,73.0795 455.5,75.5C 454.68,77.1112 453.346,77.7778 451.5,77.5C 451.5,79.5 451.5,81.5 451.5,83.5C 447.646,83.841 444.146,85.1744 441,87.5C 439.127,84.9875 437.293,85.1542 435.5,88C 436.448,88.4828 437.448,88.6495 438.5,88.5C 438.833,91.1667 439.167,93.8333 439.5,96.5C 446.623,98.4593 450.789,103.126 452,110.5C 454.306,111.137 455.473,112.637 455.5,115C 454.983,119.52 454.316,124.02 453.5,128.5C 450.52,132.314 447.354,135.981 444,139.5C 442.221,138.521 440.555,138.854 439,140.5C 438.825,143.157 438.992,145.824 439.5,148.5C 440.552,148.351 441.552,148.517 442.5,149C 449.394,156.257 451.227,164.757 448,174.5C 447.333,173.167 446.667,173.167 446,174.5C 445.288,178.777 442.788,180.944 438.5,181C 435.696,184.773 433.529,188.94 432,193.5C 431.089,203.817 430.422,214.15 430,224.5C 429.895,228.36 429.062,232.026 427.5,235.5C 428.179,237.588 428.512,239.588 428.5,241.5C 423.12,246.34 421.454,252.34 423.5,259.5C 421.73,260.82 421.397,262.32 422.5,264C 421.9,268.796 420.9,273.629 419.5,278.5C 420.294,282.595 420.628,286.595 420.5,290.5C 418.774,297.294 417.107,304.127 415.5,311C 416.275,313.27 416.608,315.437 416.5,317.5C 414.281,322.237 413.114,327.237 413,332.5C 412.727,334.329 411.893,335.829 410.5,337C 412.891,338.309 412.891,339.309 410.5,340C 410.957,340.414 411.291,340.914 411.5,341.5C 409.774,343.228 408.441,345.228 407.5,347.5C 408.36,350.725 407.027,352.892 403.5,354C 404.956,354.423 405.456,355.256 405,356.5C 403.298,357.194 401.464,357.194 399.5,356.5 Z"/></g>
<g><path style="opacity:0.938" fill="#3b3f39" d="M 95.5,69.5 C 91.5303,71.1589 87.5303,72.8256 83.5,74.5C 80.694,70.8627 77.3607,67.6961 73.5,65C 68.6925,63.5744 65.3592,65.0744 63.5,69.5C 62.2737,73.367 62.2737,77.367 63.5,81.5C 61.6703,84.03 60.0037,83.6967 58.5,80.5C 51.2492,61.8209 57.5825,52.9876 77.5,54C 85.2376,57.2437 91.2376,62.4104 95.5,69.5 Z"/></g>
<g><path style="opacity:0.906" fill="#3b3f38" d="M 385.5,72.5 C 382.206,73.1148 379.039,74.1148 376,75.5C 375.536,74.9056 375.369,74.2389 375.5,73.5C 376.1,69.4836 375.1,65.9836 372.5,63C 366.853,62.4902 362.519,64.6569 359.5,69.5C 358.292,70.2341 356.959,70.5674 355.5,70.5C 356.895,65.1053 359.562,60.4386 363.5,56.5C 372.711,51.2935 379.877,53.2935 385,62.5C 385.498,65.8168 385.665,69.1501 385.5,72.5 Z"/></g>
<g><path style="opacity:0.263" fill="#372a1c" d="M 439.5,56.5 C 434.581,53.6678 429.247,52.8345 423.5,54C 416.077,57.5946 410.077,62.7613 405.5,69.5C 398.62,69.2102 391.954,70.2102 385.5,72.5C 385.665,69.1501 385.498,65.8168 385,62.5C 379.877,53.2935 372.711,51.2935 363.5,56.5C 363.062,56.5654 362.728,56.3988 362.5,56C 365.099,52.8665 368.432,51.0332 372.5,50.5C 378.857,52.1522 383.857,55.4855 387.5,60.5C 391.21,61.3947 394.877,62.3947 398.5,63.5C 401.977,62.5106 405.144,60.844 408,58.5C 408.333,58.8333 408.667,59.1667 409,59.5C 410.743,57.3033 412.243,54.9699 413.5,52.5C 417.799,53.2502 422.132,53.0836 426.5,52C 426.167,51.6667 425.833,51.3333 425.5,51C 426.609,50.3623 427.775,49.8623 429,49.5C 432.381,51.0302 435.881,52.1969 439.5,53C 440.171,53.9862 440.171,55.1529 439.5,56.5 Z"/></g>
<g><path style="opacity:0.637" fill="#3e3e36" d="M 439.5,56.5 C 441.129,57.6253 442.629,58.9586 444,60.5C 447.685,69.0732 446.351,76.7399 440,83.5C 439.235,83.4301 438.735,83.0967 438.5,82.5C 439.691,77.7623 439.524,73.0956 438,68.5C 435.293,64.9651 431.793,63.7984 427.5,65C 423.26,67.7379 419.926,71.2379 417.5,75.5C 413.806,72.9861 409.806,70.9861 405.5,69.5C 410.077,62.7613 416.077,57.5946 423.5,54C 429.247,52.8345 434.581,53.6678 439.5,56.5 Z"/></g>
<g><path style="opacity:0.439" fill="#2e2217" d="M 135.5,63.5 C 135.22,66.2724 135.887,68.7724 137.5,71C 136.353,73.0846 137.02,74.5846 139.5,75.5C 146,78.8756 153,79.209 160.5,76.5C 161.107,76.6236 161.44,76.9569 161.5,77.5C 160.681,79.7722 160.015,82.1055 159.5,84.5C 148.536,81.3737 137.536,78.3737 126.5,75.5C 126.335,72.1501 126.502,68.8168 127,65.5C 129.298,62.4743 132.131,61.8076 135.5,63.5 Z"/></g>
<g><path style="opacity:0.921" fill="#3a3e38" d="M 341.5,83.5 C 337.837,85.4159 333.837,86.4159 329.5,86.5C 328.339,76.3407 323.173,73.3407 314,77.5C 311.788,80.8037 309.955,84.3037 308.5,88C 306.066,88.3329 305.066,87.1662 305.5,84.5C 305.744,80.2728 306.744,76.2728 308.5,72.5C 312.427,65.3774 318.427,62.8774 326.5,65C 334.704,68.5791 339.704,74.7458 341.5,83.5 Z"/></g>
<g><path style="opacity:0.228" fill="#3e2e1f" d="M 234.5,100.5 C 233.178,100.33 232.011,100.663 231,101.5C 230.602,98.7683 229.102,96.935 226.5,96C 217.833,92.3333 209.167,88.6667 200.5,85C 197.142,80.0731 195.476,74.5731 195.5,68.5C 194.167,68.5 192.833,68.5 191.5,68.5C 191.5,67.1667 191.5,65.8333 191.5,64.5C 188.777,63.6481 186.11,62.4814 183.5,61C 173.918,59.4302 166.918,62.9302 162.5,71.5C 160.421,72.7608 158.254,73.7608 156,74.5C 153.249,74.1115 150.582,74.1115 148,74.5C 146.302,73.2593 144.802,71.926 143.5,70.5C 144.586,70.38 145.253,69.7133 145.5,68.5C 141.561,57.2088 133.895,52.7088 122.5,55C 117.145,59.5504 114.812,65.3837 115.5,72.5C 109.024,70.5228 102.358,69.5228 95.5,69.5C 91.2376,62.4104 85.2376,57.2437 77.5,54C 57.5825,52.9876 51.2492,61.8209 58.5,80.5C 57.1266,80.6567 55.7932,80.49 54.5,80C 45.509,62.7911 51.009,51.6244 71,46.5C 81.5644,48.7256 91.0644,53.2256 99.5,60C 102.167,60.6667 104.833,60.6667 107.5,60C 112.219,55.9471 117.219,52.2804 122.5,49C 128.57,46.7634 134.237,47.5967 139.5,51.5C 143.909,54.8069 145.909,58.9736 145.5,64C 146.833,66 148.167,68 149.5,70C 151.833,70.6667 154.167,70.6667 156.5,70C 159.833,67.3333 163.167,64.6667 166.5,62C 178.597,55.6651 188.763,57.8318 197,68.5C 197.76,75.6657 200.927,81.499 206.5,86C 215.659,88.5815 224.325,92.2482 232.5,97C 233.823,97.8159 234.489,98.9826 234.5,100.5 Z"/></g>
<g><path style="opacity:0.956" fill="#3a3f39" d="M 143.5,70.5 C 141.289,67.7152 138.623,65.3819 135.5,63.5C 132.131,61.8076 129.298,62.4743 127,65.5C 126.502,68.8168 126.335,72.1501 126.5,75.5C 122.765,74.6988 119.099,73.6988 115.5,72.5C 114.812,65.3837 117.145,59.5504 122.5,55C 133.895,52.7088 141.561,57.2088 145.5,68.5C 145.253,69.7133 144.586,70.38 143.5,70.5 Z"/></g>
<g><path style="opacity:0.252" fill="#382a1c" d="M 234.5,100.5 C 236.972,102.087 238.472,104.421 239,107.5C 245.347,110.76 252.18,112.426 259.5,112.5C 259.709,113.086 260.043,113.586 260.5,114C 263.167,114.667 265.833,114.667 268.5,114C 273.156,110.18 276.989,105.68 280,100.5C 280.414,100.957 280.914,101.291 281.5,101.5C 284.8,97.34 289.133,95.1734 294.5,95C 297.228,92.6078 300.228,90.6078 303.5,89C 302.359,86.7763 303.026,85.2763 305.5,84.5C 305.066,87.1662 306.066,88.3329 308.5,88C 309.955,84.3037 311.788,80.8037 314,77.5C 323.173,73.3407 328.339,76.3407 329.5,86.5C 327.412,88.0195 325.078,89.0195 322.5,89.5C 318.051,90.029 313.718,91.029 309.5,92.5C 307.473,92.3379 305.473,92.5045 303.5,93C 302.529,94.4813 301.196,95.3146 299.5,95.5C 288.847,98.1761 280.847,104.176 275.5,113.5C 272.492,113.877 269.992,115.211 268,117.5C 266.769,116.892 265.436,116.559 264,116.5C 262.319,116.608 261.152,117.275 260.5,118.5C 255.196,115.402 249.529,114.735 243.5,116.5C 243.631,115.761 243.464,115.094 243,114.5C 242.15,115.424 241.15,115.424 240,114.5C 238.649,112.982 237.149,111.649 235.5,110.5C 234.171,107.454 232.171,105.121 229.5,103.5C 223.988,99.9945 217.988,97.6612 211.5,96.5C 210.089,94.461 208.089,93.461 205.5,93.5C 205.611,92.8826 205.944,92.3826 206.5,92C 202.553,90.5162 198.553,89.3495 194.5,88.5C 197.288,78.0236 193.955,70.1903 184.5,65C 173.594,63.4495 165.927,67.6162 161.5,77.5C 161.44,76.9569 161.107,76.6236 160.5,76.5C 153,79.209 146,78.8756 139.5,75.5C 137.02,74.5846 136.353,73.0846 137.5,71C 135.887,68.7724 135.22,66.2724 135.5,63.5C 138.623,65.3819 141.289,67.7152 143.5,70.5C 144.802,71.926 146.302,73.2593 148,74.5C 150.582,74.1115 153.249,74.1115 156,74.5C 158.254,73.7608 160.421,72.7608 162.5,71.5C 166.918,62.9302 173.918,59.4302 183.5,61C 186.11,62.4814 188.777,63.6481 191.5,64.5C 191.5,65.8333 191.5,67.1667 191.5,68.5C 192.833,68.5 194.167,68.5 195.5,68.5C 195.476,74.5731 197.142,80.0731 200.5,85C 209.167,88.6667 217.833,92.3333 226.5,96C 229.102,96.935 230.602,98.7683 231,101.5C 232.011,100.663 233.178,100.33 234.5,100.5 Z"/></g>
<g><path style="opacity:0.939" fill="#3a3f38" d="M 194.5,88.5 C 193.542,88.0472 192.708,87.3805 192,86.5C 190.716,80.22 187.05,76.22 181,74.5C 174.957,76.5389 171.79,80.8722 171.5,87.5C 167.578,86.2482 163.578,85.2482 159.5,84.5C 160.015,82.1055 160.681,79.7722 161.5,77.5C 165.927,67.6162 173.594,63.4495 184.5,65C 193.955,70.1903 197.288,78.0236 194.5,88.5 Z"/></g>
<g><path style="opacity:0.357" fill="#322619" d="M 83.5,74.5 C 81.4228,79.6751 79.5895,85.0085 78,90.5C 77.501,94.8206 77.3343,99.1539 77.5,103.5C 74.1667,103.5 70.8333,103.5 67.5,103.5C 69.7824,98.2775 72.6157,93.2775 76,88.5C 75.5344,85.1119 75.3678,81.7786 75.5,78.5C 76.4266,77.0944 77.4266,75.5944 78.5,74C 76.2823,72.9094 74.1156,71.7427 72,70.5C 71.0186,73.6545 69.6852,73.9878 68,71.5C 66.4878,72.2567 65.1545,73.2567 64,74.5C 63.5065,72.8659 63.3398,71.1992 63.5,69.5C 65.3592,65.0744 68.6925,63.5744 73.5,65C 77.3607,67.6961 80.694,70.8627 83.5,74.5 Z"/></g>
<g><path style="opacity:0.261" fill="#36291c" d="M 359.5,69.5 C 362.519,64.6569 366.853,62.4902 372.5,63C 375.1,65.9836 376.1,69.4836 375.5,73.5C 374.844,74.2778 374.011,74.9444 373,75.5C 362.536,78.4913 352.036,81.158 341.5,83.5C 339.704,74.7458 334.704,68.5791 326.5,65C 318.427,62.8774 312.427,65.3774 308.5,72.5C 307.733,71.828 307.066,70.9947 306.5,70C 317.175,57.5782 327.842,57.4116 338.5,69.5C 337.153,73.1096 337.82,73.4429 340.5,70.5C 341.23,71.9337 342.23,73.1004 343.5,74C 345.556,74.3108 347.556,74.8108 349.5,75.5C 350.167,75.1667 350.833,74.8333 351.5,74.5C 354.799,78.6908 356.465,78.0241 356.5,72.5C 357.5,72.5 358.5,72.5 359.5,72.5C 359.5,71.5 359.5,70.5 359.5,69.5 Z"/></g>
<g><path style="opacity:0.481" fill="#2d2217" d="M 194.5,88.5 C 198.553,89.3495 202.553,90.5162 206.5,92C 205.944,92.3826 205.611,92.8826 205.5,93.5C 204.833,93.5 204.5,93.8333 204.5,94.5C 196.129,92.9904 187.796,91.3237 179.5,89.5C 176.779,89.0372 174.112,88.3705 171.5,87.5C 171.79,80.8722 174.957,76.5389 181,74.5C 187.05,76.22 190.716,80.22 192,86.5C 192.708,87.3805 193.542,88.0472 194.5,88.5 Z"/></g>
<g><path style="opacity:0.919" fill="#3b3f38" d="M 322.5,89.5 C 318.98,96.5305 314.814,103.197 310,109.5C 309.501,103.843 309.334,98.1764 309.5,92.5C 313.718,91.029 318.051,90.029 322.5,89.5 Z"/></g>
<g><path style="opacity:0.959" fill="#393f3a" d="M 179.5,89.5 C 187.796,91.3237 196.129,92.9904 204.5,94.5C 202.438,99.6248 200.104,104.625 197.5,109.5C 191.114,103.118 185.114,96.4509 179.5,89.5 Z"/></g>
<g><path style="opacity:0.957" fill="#393f39" d="M 211.5,96.5 C 217.988,97.6612 223.988,99.9945 229.5,103.5C 226.024,106.623 222.024,108.957 217.5,110.5C 213.873,109.754 210.206,109.087 206.5,108.5C 208.164,104.504 209.831,100.504 211.5,96.5 Z"/></g>
<g><path style="opacity:0.889" fill="#3b3f38" d="M 299.5,95.5 C 300.458,101.744 300.791,108.077 300.5,114.5C 296.985,114.712 293.652,114.712 290.5,114.5C 288.146,116.188 286.146,118.188 284.5,120.5C 281.056,130.614 284.389,137.614 294.5,141.5C 290.692,142.766 287.025,142.432 283.5,140.5C 274.743,133.316 272.076,124.316 275.5,113.5C 280.847,104.176 288.847,98.1761 299.5,95.5 Z"/></g>
<g><path style="opacity:0.912" fill="#3b3e38" d="M 67.5,103.5 C 70.8333,103.5 74.1667,103.5 77.5,103.5C 77.5,107.5 77.5,111.5 77.5,115.5C 72.8727,113.633 68.7061,114.299 65,117.5C 63.9241,123.688 65.9241,128.688 71,132.5C 71.4828,133.448 71.6495,134.448 71.5,135.5C 62.1907,133.524 56.5241,127.857 54.5,118.5C 55.7125,110.631 60.0458,105.631 67.5,103.5 Z"/></g>
<g><path style="opacity:0.909" fill="#3b3e38" d="M 424.5,103.5 C 432.881,102.448 439.714,105.115 445,111.5C 447.632,123.552 442.965,131.552 431,135.5C 430.5,135.167 430,134.833 429.5,134.5C 432.195,130.97 434.695,127.304 437,123.5C 438.165,119.316 436.665,116.483 432.5,115C 429.854,114.503 427.187,114.336 424.5,114.5C 424.5,110.833 424.5,107.167 424.5,103.5 Z"/></g>
<g><path style="opacity:0.944" fill="#3a3f39" d="M 234.5,111.5 C 235.043,120.444 232.043,127.944 225.5,134C 220.698,136.48 215.698,136.98 210.5,135.5C 218.9,132.599 223.9,126.766 225.5,118C 225.43,117.235 225.097,116.735 224.5,116.5C 227.337,114.033 230.671,112.367 234.5,111.5 Z"/></g>
<g><path style="opacity:0.441" fill="#2f2318" d="M 77.5,115.5 C 77.6018,128.174 77.9351,140.841 78.5,153.5C 74.7657,153.323 71.0991,153.656 67.5,154.5C 70.0214,150.791 72.0214,146.791 73.5,142.5C 72.6751,140.199 72.0084,137.865 71.5,135.5C 71.6495,134.448 71.4828,133.448 71,132.5C 65.9241,128.688 63.9241,123.688 65,117.5C 68.7061,114.299 72.8727,113.633 77.5,115.5 Z"/></g>
<g><path style="opacity:0.435" fill="#2e2217" d="M 275.5,113.5 C 272.076,124.316 274.743,133.316 283.5,140.5C 283.629,142.366 282.963,144.366 281.5,146.5C 281.899,148.898 281.899,151.398 281.5,154C 282.944,157.325 283.944,160.825 284.5,164.5C 286.611,165.949 288.944,166.949 291.5,167.5C 293.701,165.944 293.701,164.777 291.5,164C 293.078,161.518 294.411,158.851 295.5,156C 295.687,150.303 295.687,144.47 295.5,138.5C 298.746,132.096 297.579,126.763 292,122.5C 289.768,123.187 287.602,123.521 285.5,123.5C 284.614,122.675 284.281,121.675 284.5,120.5C 286.146,118.188 288.146,116.188 290.5,114.5C 293.652,114.712 296.985,114.712 300.5,114.5C 301.253,136.741 298.086,158.408 291,179.5C 290.115,182 288.948,184.333 287.5,186.5C 282.694,170.33 278.194,153.996 274,137.5C 271.19,129.873 266.69,123.54 260.5,118.5C 261.152,117.275 262.319,116.608 264,116.5C 265.436,116.559 266.769,116.892 268,117.5C 269.992,115.211 272.492,113.877 275.5,113.5 Z"/></g>
<g><path style="opacity:0.435" fill="#312419" d="M 235.5,110.5 C 237.149,111.649 238.649,112.982 240,114.5C 241.15,115.424 242.15,115.424 243,114.5C 243.464,115.094 243.631,115.761 243.5,116.5C 236.262,121.415 231.262,128.082 228.5,136.5C 224.32,147.843 220.82,159.51 218,171.5C 217.417,173.002 216.584,174.335 215.5,175.5C 214.148,174.476 212.815,173.476 211.5,172.5C 206.731,158.164 204.231,143.497 204,128.5C 210.615,124.11 217.448,120.11 224.5,116.5C 225.097,116.735 225.43,117.235 225.5,118C 223.9,126.766 218.9,132.599 210.5,135.5C 215.698,136.98 220.698,136.48 225.5,134C 232.043,127.944 235.043,120.444 234.5,111.5C 234.5,110.833 234.833,110.5 235.5,110.5 Z"/></g>
<g><path style="opacity:0.938" fill="#623e32" d="M 95.5,69.5 C 102.358,69.5228 109.024,70.5228 115.5,72.5C 119.099,73.6988 122.765,74.6988 126.5,75.5C 137.536,78.3737 148.536,81.3737 159.5,84.5C 163.578,85.2482 167.578,86.2482 171.5,87.5C 174.112,88.3705 176.779,89.0372 179.5,89.5C 185.114,96.4509 191.114,103.118 197.5,109.5C 200.104,104.625 202.438,99.6248 204.5,94.5C 204.5,93.8333 204.833,93.5 205.5,93.5C 208.089,93.461 210.089,94.461 211.5,96.5C 209.831,100.504 208.164,104.504 206.5,108.5C 204.569,112.02 204.235,115.687 205.5,119.5C 209.926,116.966 213.926,113.966 217.5,110.5C 222.024,108.957 226.024,106.623 229.5,103.5C 232.171,105.121 234.171,107.454 235.5,110.5C 234.833,110.5 234.5,110.833 234.5,111.5C 230.671,112.367 227.337,114.033 224.5,116.5C 217.448,120.11 210.615,124.11 204,128.5C 204.231,143.497 206.731,158.164 211.5,172.5C 209.856,172.714 208.356,172.38 207,171.5C 205.624,172.705 204.458,174.038 203.5,175.5C 200.274,170.729 197.274,165.729 194.5,160.5C 188.648,163.258 182.981,166.258 177.5,169.5C 176.722,165.641 175.055,164.975 172.5,167.5C 170.403,165.89 168.07,164.723 165.5,164C 167.058,160.887 168.891,160.72 171,163.5C 171.75,162.874 172.584,162.374 173.5,162C 171.714,161.804 170.381,160.971 169.5,159.5C 170.933,157.281 172.766,155.281 175,153.5C 174.647,155.228 174.481,156.894 174.5,158.5C 175.325,159.386 176.325,159.719 177.5,159.5C 177.205,157.265 177.539,155.265 178.5,153.5C 178.187,156.247 178.52,158.914 179.5,161.5C 183.871,158.789 187.537,155.456 190.5,151.5C 188.433,145.467 186.267,139.467 184,133.5C 183.329,132.748 182.496,132.414 181.5,132.5C 181.721,131.265 182.388,130.265 183.5,129.5C 181.704,128.859 180.204,127.859 179,126.5C 178.282,127.451 177.449,127.617 176.5,127C 175.721,125.006 175.387,123.172 175.5,121.5C 173.025,124.047 170.692,126.713 168.5,129.5C 169.355,130.293 170.189,129.96 171,128.5C 171.667,130.5 171.667,132.5 171,134.5C 168.623,135.664 165.79,136.664 162.5,137.5C 162.277,138.967 161.944,140.467 161.5,142C 159.512,142.18 157.512,142.014 155.5,141.5C 155.5,142.5 155.5,143.5 155.5,144.5C 153.278,144.178 151.444,144.845 150,146.5C 149.692,145.692 149.192,145.025 148.5,144.5C 147.269,145.651 147.269,146.817 148.5,148C 146.866,148.494 145.199,148.66 143.5,148.5C 143.286,146.856 143.62,145.356 144.5,144C 142.893,144.019 141.226,144.185 139.5,144.5C 139.5,143.167 139.5,141.833 139.5,140.5C 136.784,140.322 134.117,139.822 131.5,139C 132.535,137.493 132.368,135.993 131,134.5C 130.282,135.451 129.449,135.617 128.5,135C 129.451,134.282 129.617,133.449 129,132.5C 127.812,133.563 127.312,134.897 127.5,136.5C 124.813,136.336 122.146,136.503 119.5,137C 120.833,137.333 122.167,137.667 123.5,138C 121.697,140.103 119.364,140.936 116.5,140.5C 116.494,144.936 115.327,148.936 113,152.5C 112.667,152.167 112.333,151.833 112,151.5C 111.749,153.433 111.249,155.266 110.5,157C 110.833,157.333 111.167,157.667 111.5,158C 110.15,159.718 108.983,161.552 108,163.5C 105.438,162.102 105.105,160.435 107,158.5C 107.984,160.795 108.817,160.461 109.5,157.5C 107.157,156.275 105.323,156.941 104,159.5C 103.871,156.997 102.871,154.997 101,153.5C 100.5,154 100,154.5 99.5,155C 101.646,157.268 101.98,159.768 100.5,162.5C 101.686,166.177 103.02,166.677 104.5,164C 105.167,163.333 105.833,163.333 106.5,164C 104.192,167.466 101.192,169.966 97.5,171.5C 97.1854,173.226 97.0187,174.893 97,176.5C 99.2089,174.627 101.042,172.46 102.5,170C 104.667,169.5 105.5,170.333 105,172.5C 103.598,174.633 101.765,176.3 99.5,177.5C 103.155,178.064 105.655,176.397 107,172.5C 107.333,173.167 107.667,173.833 108,174.5C 108.824,173.192 109.324,171.692 109.5,170C 112.489,170.708 115.489,170.541 118.5,169.5C 118.833,169.167 119.167,168.833 119.5,168.5C 117.902,166.027 116.402,166.027 115,168.5C 115.446,165.261 116.779,162.261 119,159.5C 119.995,161.161 121.328,162.495 123,163.5C 124.465,162.67 125.965,162.504 127.5,163C 128.833,164 128.833,165 127.5,166C 130.451,167.947 133.118,170.281 135.5,173C 134.073,177.422 132.24,177.588 130,173.5C 127.757,175.531 125.923,177.864 124.5,180.5C 124.39,178.902 124.057,177.235 123.5,175.5C 124.989,175.467 126.322,174.967 127.5,174C 124.526,172.494 124.193,170.828 126.5,169C 122.5,168.333 122.5,167.667 126.5,167C 126,166.5 125.5,166 125,165.5C 120.476,167.601 119.976,170.101 123.5,173C 121.734,175.096 120.401,177.429 119.5,180C 118.038,179.937 116.705,179.271 115.5,178C 117.918,175.69 117.252,175.024 113.5,176C 113.745,177.911 113.745,179.911 113.5,182C 114.308,182.308 114.975,182.808 115.5,183.5C 112.692,184.302 110.192,184.302 108,183.5C 107.667,182.833 107.333,182.167 107,181.5C 105.184,182.329 103.351,183.163 101.5,184C 105.281,184.367 105.948,185.7 103.5,188C 100.854,188.497 98.1873,188.664 95.5,188.5C 95.5,189.833 95.5,191.167 95.5,192.5C 93.1727,192.247 91.1727,192.914 89.5,194.5C 89.8457,195.696 90.3457,195.696 91,194.5C 91.6667,195.833 92.3333,197.167 93,198.5C 93.3333,198.167 93.6667,197.833 94,197.5C 94.4922,198.549 94.3256,199.549 93.5,200.5C 91.3435,201.79 89.0101,202.624 86.5,203C 87.1667,203.667 87.8333,204.333 88.5,205C 85.9093,205.742 83.5759,206.242 81.5,206.5C 81.7093,207.086 82.0426,207.586 82.5,208C 85.4816,208.498 88.4816,208.665 91.5,208.5C 91.238,209.978 91.5713,211.311 92.5,212.5C 94.5499,211.923 95.5499,210.59 95.5,208.5C 96.675,208.281 97.675,208.614 98.5,209.5C 99.2132,211.776 99.7132,214.109 100,216.5C 101.509,217.09 103.009,217.756 104.5,218.5C 104.291,219.086 103.957,219.586 103.5,220C 105.577,220.192 107.577,220.692 109.5,221.5C 108.167,222.833 106.833,224.167 105.5,225.5C 105.846,226.696 106.346,226.696 107,225.5C 106.383,227.095 106.716,228.428 108,229.5C 109.84,228.167 110.34,228.334 109.5,230C 112.022,231.686 111.689,233.019 108.5,234C 109.766,234.309 110.933,234.809 112,235.5C 113.011,234.663 114.178,234.33 115.5,234.5C 115.5,235.5 115.5,236.5 115.5,237.5C 116.873,237.657 118.207,237.49 119.5,237C 121.934,233.328 124.934,232.494 128.5,234.5C 129.739,234.058 130.739,233.391 131.5,232.5C 138.216,247.641 144.549,262.974 150.5,278.5C 149.538,285.938 148.038,293.272 146,300.5C 144,295.833 142,291.167 140,286.5C 139.501,291.155 139.334,295.821 139.5,300.5C 138.167,300.5 136.833,300.5 135.5,300.5C 135.5,299.167 135.5,297.833 135.5,296.5C 136.5,296.5 137.5,296.5 138.5,296.5C 138.85,293.144 138.017,290.144 136,287.5C 133.833,289.464 131.499,289.798 129,288.5C 127.836,290.649 126.67,292.815 125.5,295C 126.167,295.333 126.833,295.667 127.5,296C 127.259,299.353 125.926,302.52 123.5,305.5C 119.248,299.401 114.748,293.401 110,287.5C 107.194,301.373 104.694,315.373 102.5,329.5C 98.4638,343.297 94.7971,357.297 91.5,371.5C 90.8333,371.5 90.1667,371.5 89.5,371.5C 89.825,363.981 89.4916,356.648 88.5,349.5C 88.5,349.167 88.5,348.833 88.5,348.5C 84.6793,286.523 81.346,224.523 78.5,162.5C 78.2492,159.71 78.2492,156.71 78.5,153.5C 77.9351,140.841 77.6018,128.174 77.5,115.5C 77.5,111.5 77.5,107.5 77.5,103.5C 77.3343,99.1539 77.501,94.8206 78,90.5C 79.5895,85.0085 81.4228,79.6751 83.5,74.5C 87.5303,72.8256 91.5303,71.1589 95.5,69.5 Z"/></g>
<g><path style="opacity:0.485" fill="#2d2117" d="M 206.5,108.5 C 210.206,109.087 213.873,109.754 217.5,110.5C 213.926,113.966 209.926,116.966 205.5,119.5C 204.235,115.687 204.569,112.02 206.5,108.5 Z"/></g>
<g><path style="opacity:0.942" fill="#3f2720" d="M 153.5,96.5 C 155.857,96.3367 158.19,96.5034 160.5,97C 164.578,98.4404 168.578,99.9404 172.5,101.5C 168.801,108.997 164.967,116.331 161,123.5C 157.356,114.861 154.856,105.861 153.5,96.5 Z"/></g>
<g><path style="opacity:0.967" fill="#3e271f" d="M 122.5,87.5 C 128.774,89.0882 135.108,90.4216 141.5,91.5C 137.606,98.9373 132.939,105.937 127.5,112.5C 125.576,106.973 124.076,101.306 123,95.5C 122.503,92.854 122.336,90.1873 122.5,87.5 Z"/></g>
<g><path style="opacity:0.928" fill="#3f2820" d="M 99.5,84.5 C 100.5,84.5 101.5,84.5 102.5,84.5C 103.033,92.388 104.033,100.221 105.5,108C 105.167,108.833 104.833,109.667 104.5,110.5C 97.8549,105.85 91.5216,100.85 85.5,95.5C 89.6117,91.0467 94.2783,87.3801 99.5,84.5 Z"/></g>
<g><path style="opacity:0.489" fill="#2b2016" d="M 181.5,132.5 C 182.496,132.414 183.329,132.748 184,133.5C 186.267,139.467 188.433,145.467 190.5,151.5C 187.537,155.456 183.871,158.789 179.5,161.5C 178.52,158.914 178.187,156.247 178.5,153.5C 178.853,146.404 179.853,139.404 181.5,132.5 Z"/></g>
<g><path style="opacity:0.784" fill="#3d4038" d="M 258.5,153.5 C 256.759,155.977 255.259,158.644 254,161.5C 251.623,157.912 249.123,154.412 246.5,151C 249.379,148.615 252.379,146.448 255.5,144.5C 258.433,142.355 261.433,140.188 264.5,138C 265.332,137.312 265.998,137.479 266.5,138.5C 264.075,143.686 261.409,148.686 258.5,153.5 Z"/></g>
<g><path style="opacity:0.986" fill="#623d32" d="M 405.5,69.5 C 409.806,70.9861 413.806,72.9861 417.5,75.5C 418.657,77.1376 419.824,78.8043 421,80.5C 422.802,88.2104 423.969,95.8771 424.5,103.5C 424.5,107.167 424.5,110.833 424.5,114.5C 424.318,127.505 423.985,140.505 423.5,153.5C 423.5,156.5 423.5,159.5 423.5,162.5C 421.621,191.386 419.288,220.386 416.5,249.5C 414.808,246.769 413.142,244.102 411.5,241.5C 404.605,227.046 395.272,214.379 383.5,203.5C 380.543,198.543 376.543,194.543 371.5,191.5C 367.447,202.822 363.28,214.155 359,225.5C 356.8,215.034 354.134,204.701 351,194.5C 346.636,214.653 341.636,234.653 336,254.5C 329.809,259.935 323.809,265.602 318,271.5C 317.536,272.094 317.369,272.761 317.5,273.5C 320.595,284.358 324.261,295.024 328.5,305.5C 329.393,308.82 330.727,311.82 332.5,314.5C 333.082,318.532 334.416,322.199 336.5,325.5C 337.082,329.532 338.416,333.199 340.5,336.5C 341.432,340.294 342.765,343.961 344.5,347.5C 349.62,345.353 354.62,343.019 359.5,340.5C 356.707,337.37 353.373,335.037 349.5,333.5C 352.972,331.262 356.638,329.262 360.5,327.5C 362.203,330.192 364.536,332.192 367.5,333.5C 367.833,330.833 368.167,328.167 368.5,325.5C 366.041,305.081 363.041,284.748 359.5,264.5C 361.885,257.396 364.552,250.396 367.5,243.5C 380.652,248.474 392.986,246.807 404.5,238.5C 406.766,242.034 408.766,245.7 410.5,249.5C 412.052,251.942 413.052,254.609 413.5,257.5C 408.514,286.404 404.18,315.404 400.5,344.5C 399.517,348.298 399.183,352.298 399.5,356.5C 398.681,359.305 398.181,362.305 398,365.5C 397.667,365.833 397.333,366.167 397,366.5C 396.505,364.527 396.338,362.527 396.5,360.5C 396.758,349.624 396.091,338.958 394.5,328.5C 394.715,321.74 394.048,315.074 392.5,308.5C 386.866,321.104 380.199,333.104 372.5,344.5C 364.247,349.878 355.747,354.878 347,359.5C 349.869,371.241 354.035,382.574 359.5,393.5C 360.285,399.23 362.951,404.397 367.5,409C 363.158,408.996 359.824,407.162 357.5,403.5C 350.701,385.438 344.701,367.104 339.5,348.5C 338.456,343.98 336.956,339.647 335,335.5C 332.013,346.424 329.346,357.424 327,368.5C 326.617,367.944 326.117,367.611 325.5,367.5C 321.812,344.707 317.479,322.041 312.5,299.5C 312.543,295.107 312.043,294.774 311,298.5C 308.399,310.346 305.233,322.013 301.5,333.5C 301.737,334.791 301.404,335.791 300.5,336.5C 298.897,327.731 296.23,319.398 292.5,311.5C 290.914,285.144 288.914,258.811 286.5,232.5C 283.838,248.463 281.338,264.463 279,280.5C 276.074,253.575 273.741,226.575 272,199.5C 276.78,191.83 279.113,183.496 279,174.5C 276.333,179.167 273.667,183.833 271,188.5C 269.989,189.337 268.822,189.67 267.5,189.5C 266.597,186.609 266.264,183.609 266.5,180.5C 267.151,181.091 267.818,181.757 268.5,182.5C 269.776,181.386 269.776,180.386 268.5,179.5C 276.028,170.932 277.528,161.265 273,150.5C 271.315,148.983 269.815,147.316 268.5,145.5C 267.548,147.045 267.215,148.712 267.5,150.5C 265.926,151.984 264.593,153.651 263.5,155.5C 261.446,155.635 259.779,154.968 258.5,153.5C 261.409,148.686 264.075,143.686 266.5,138.5C 265.998,137.479 265.332,137.312 264.5,138C 261.433,140.188 258.433,142.355 255.5,144.5C 255.719,140.473 254.552,139.806 252,142.5C 251.667,141.167 251.333,139.833 251,138.5C 248.865,140.278 246.365,140.945 243.5,140.5C 243.5,139.167 243.5,137.833 243.5,136.5C 240.728,135.629 238.062,135.629 235.5,136.5C 235.649,135.448 235.483,134.448 235,133.5C 234.259,134.641 233.425,134.641 232.5,133.5C 231.719,134.729 231.219,136.062 231,137.5C 230.329,136.748 229.496,136.414 228.5,136.5C 231.262,128.082 236.262,121.415 243.5,116.5C 249.529,114.735 255.196,115.402 260.5,118.5C 266.69,123.54 271.19,129.873 274,137.5C 278.194,153.996 282.694,170.33 287.5,186.5C 288.948,184.333 290.115,182 291,179.5C 298.086,158.408 301.253,136.741 300.5,114.5C 300.791,108.077 300.458,101.744 299.5,95.5C 301.196,95.3146 302.529,94.4813 303.5,93C 305.473,92.5045 307.473,92.3379 309.5,92.5C 309.334,98.1764 309.501,103.843 310,109.5C 314.814,103.197 318.98,96.5305 322.5,89.5C 325.078,89.0195 327.412,88.0195 329.5,86.5C 333.837,86.4159 337.837,85.4159 341.5,83.5C 352.036,81.158 362.536,78.4913 373,75.5C 374.011,74.9444 374.844,74.2778 375.5,73.5C 375.369,74.2389 375.536,74.9056 376,75.5C 379.039,74.1148 382.206,73.1148 385.5,72.5C 391.954,70.2102 398.62,69.2102 405.5,69.5 Z"/></g>
<g><path style="opacity:0.342" fill="#382a1c" d="M 284.5,120.5 C 284.281,121.675 284.614,122.675 285.5,123.5C 287.602,123.521 289.768,123.187 292,122.5C 297.579,126.763 298.746,132.096 295.5,138.5C 295.687,144.47 295.687,150.303 295.5,156C 294.411,158.851 293.078,161.518 291.5,164C 293.701,164.777 293.701,165.944 291.5,167.5C 288.944,166.949 286.611,165.949 284.5,164.5C 283.944,160.825 282.944,157.325 281.5,154C 281.899,151.398 281.899,148.898 281.5,146.5C 282.963,144.366 283.629,142.366 283.5,140.5C 287.025,142.432 290.692,142.766 294.5,141.5C 284.389,137.614 281.056,130.614 284.5,120.5 Z"/></g>
<g><path style="opacity:0.961" fill="#3e2720" d="M 342.5,96.5 C 344.167,96.5 345.833,96.5 347.5,96.5C 346.264,105.777 343.931,114.777 340.5,123.5C 336.31,116.257 332.31,108.924 328.5,101.5C 333.255,99.8059 337.922,98.1392 342.5,96.5 Z"/></g>
<g><path style="opacity:0.953" fill="#3f2820" d="M 375.5,87.5 C 376.833,87.5 378.167,87.5 379.5,87.5C 378.265,95.9969 376.431,104.33 374,112.5C 368.757,106.352 364.257,99.685 360.5,92.5C 365.48,90.4502 370.48,88.7835 375.5,87.5 Z"/></g>
<g><path style="opacity:0.85" fill="#412921" d="M 398.5,84.5 C 405.412,86.6251 411.412,90.2918 416.5,95.5C 409.833,100.5 403.167,105.5 396.5,110.5C 396.167,109.333 395.833,108.167 395.5,107C 396.993,99.565 397.993,92.065 398.5,84.5 Z"/></g>
<g><path style="opacity:0.213" fill="#3c2d1e" d="M 438.5,82.5 C 437.335,80.5839 435.668,79.7506 433.5,80C 431.516,82.1345 430.182,84.6345 429.5,87.5C 433.135,94.1345 438.135,99.4678 444.5,103.5C 446.114,107.754 448.448,111.42 451.5,114.5C 451.267,118.334 450.267,121.834 448.5,125C 448.957,125.414 449.291,125.914 449.5,126.5C 447.954,127.684 446.287,128.684 444.5,129.5C 445.641,130.425 445.641,131.259 444.5,132C 441.638,134.023 438.638,135.856 435.5,137.5C 433.766,138.674 432.766,140.34 432.5,142.5C 434.421,144.996 435.088,147.662 434.5,150.5C 438.225,152.102 441.225,154.602 443.5,158C 442.833,158.667 442.167,159.333 441.5,160C 443.863,160.589 444.863,162.089 444.5,164.5C 443.5,164.5 442.5,164.5 441.5,164.5C 441.343,165.873 441.51,167.207 442,168.5C 442.718,167.549 443.551,167.383 444.5,168C 443.62,169.356 443.286,170.856 443.5,172.5C 442.448,172.351 441.448,172.517 440.5,173C 440.833,173.333 441.167,173.667 441.5,174C 439.089,175.955 436.589,177.789 434,179.5C 428.675,188.815 426.842,198.482 428.5,208.5C 427.083,215.41 426.25,222.41 426,229.5C 424.978,234.256 423.644,238.923 422,243.5C 418.559,247.689 417.726,252.356 419.5,257.5C 418.5,258.833 417.5,260.167 416.5,261.5C 418.973,263.098 418.973,264.598 416.5,266C 417.833,267.667 417.833,269.333 416.5,271C 417.167,271.333 417.833,271.667 418.5,272C 417.576,272.85 417.576,273.85 418.5,275C 418.241,276.261 417.574,277.261 416.5,278C 417.293,280.432 417.626,282.766 417.5,285C 417.054,290.026 415.721,294.693 413.5,299C 413.544,300.764 413.878,302.431 414.5,304C 413.059,308.007 412.226,312.174 412,316.5C 411.56,318.076 410.727,319.41 409.5,320.5C 410.044,326.803 408.711,332.803 405.5,338.5C 404.975,339.192 404.308,339.692 403.5,340C 404.523,342.774 404.523,345.607 403.5,348.5C 402.5,348.5 401.5,348.5 400.5,348.5C 400.5,347.167 400.5,345.833 400.5,344.5C 404.18,315.404 408.514,286.404 413.5,257.5C 413.052,254.609 412.052,251.942 410.5,249.5C 411.103,246.859 411.436,244.192 411.5,241.5C 413.142,244.102 414.808,246.769 416.5,249.5C 419.288,220.386 421.621,191.386 423.5,162.5C 431.283,161.399 434.116,164.399 432,171.5C 430.257,173.321 428.757,175.321 427.5,177.5C 428,177.833 428.5,178.167 429,178.5C 438.152,175.06 441.485,168.727 439,159.5C 435.068,154.465 429.901,152.465 423.5,153.5C 423.985,140.505 424.318,127.505 424.5,114.5C 427.187,114.336 429.854,114.503 432.5,115C 436.665,116.483 438.165,119.316 437,123.5C 434.695,127.304 432.195,130.97 429.5,134.5C 430,134.833 430.5,135.167 431,135.5C 442.965,131.552 447.632,123.552 445,111.5C 439.714,105.115 432.881,102.448 424.5,103.5C 423.969,95.8771 422.802,88.2104 421,80.5C 419.824,78.8043 418.657,77.1376 417.5,75.5C 419.926,71.2379 423.26,67.7379 427.5,65C 431.793,63.7984 435.293,64.9651 438,68.5C 439.524,73.0956 439.691,77.7623 438.5,82.5 Z"/></g>
<g><path style="opacity:0.942" fill="#393e38" d="M 78.5,153.5 C 78.2492,156.71 78.2492,159.71 78.5,162.5C 71.0193,160.494 67.8526,163.161 69,170.5C 70.5149,172.677 72.0149,174.844 73.5,177C 73.1639,178.03 72.4972,178.53 71.5,178.5C 63.9609,175.164 60.4609,169.498 61,161.5C 62.6941,158.642 64.8607,156.309 67.5,154.5C 71.0991,153.656 74.7657,153.323 78.5,153.5 Z"/></g>
<g><path style="opacity:0.987" fill="#633e32" d="M 181.5,132.5 C 179.853,139.404 178.853,146.404 178.5,153.5C 177.539,155.265 177.205,157.265 177.5,159.5C 176.325,159.719 175.325,159.386 174.5,158.5C 174.481,156.894 174.647,155.228 175,153.5C 172.766,155.281 170.933,157.281 169.5,159.5C 170.381,160.971 171.714,161.804 173.5,162C 172.584,162.374 171.75,162.874 171,163.5C 168.891,160.72 167.058,160.887 165.5,164C 168.07,164.723 170.403,165.89 172.5,167.5C 175.055,164.975 176.722,165.641 177.5,169.5C 177.334,177.507 177.5,185.507 178,193.5C 184.201,205.577 192.534,215.91 203,224.5C 208.044,214.328 211.21,203.495 212.5,192C 212.333,190.5 212.167,189 212,187.5C 208.41,183.968 205.577,179.968 203.5,175.5C 204.458,174.038 205.624,172.705 207,171.5C 208.356,172.38 209.856,172.714 211.5,172.5C 212.815,173.476 214.148,174.476 215.5,175.5C 216.584,174.335 217.417,173.002 218,171.5C 220.82,159.51 224.32,147.843 228.5,136.5C 229.496,136.414 230.329,136.748 231,137.5C 231.219,136.062 231.719,134.729 232.5,133.5C 233.425,134.641 234.259,134.641 235,133.5C 235.483,134.448 235.649,135.448 235.5,136.5C 238.062,135.629 240.728,135.629 243.5,136.5C 243.5,137.833 243.5,139.167 243.5,140.5C 246.365,140.945 248.865,140.278 251,138.5C 251.333,139.833 251.667,141.167 252,142.5C 254.552,139.806 255.719,140.473 255.5,144.5C 252.379,146.448 249.379,148.615 246.5,151C 249.123,154.412 251.623,157.912 254,161.5C 255.259,158.644 256.759,155.977 258.5,153.5C 259.779,154.968 261.446,155.635 263.5,155.5C 261.523,159.153 259.523,162.82 257.5,166.5C 259.177,169.193 260.843,171.859 262.5,174.5C 262.5,177.833 262.5,181.167 262.5,184.5C 255.742,178.406 250.075,171.406 245.5,163.5C 244.503,170.803 244.169,178.137 244.5,185.5C 242.586,192.892 241.919,200.559 242.5,208.5C 241.896,232.952 240.063,257.285 237,281.5C 236.626,279.509 235.793,277.842 234.5,276.5C 234.142,266.393 232.975,256.393 231,246.5C 229.7,268.501 228.533,290.501 227.5,312.5C 224.741,299.639 222.074,286.639 219.5,273.5C 217.733,276.037 216.233,278.703 215,281.5C 212.819,291.295 210.652,300.962 208.5,310.5C 205.502,298.507 202.502,286.507 199.5,274.5C 193.087,302.341 186.254,330.008 179,357.5C 178.167,348.5 177.333,339.5 176.5,330.5C 167.18,351.956 158.347,373.623 150,395.5C 147.207,404.624 141.374,410.791 132.5,414C 125.279,415.926 117.946,417.092 110.5,417.5C 116.454,411.351 122.62,404.684 129,397.5C 130.397,392.292 130.897,386.959 130.5,381.5C 127.836,356.201 125.503,330.868 123.5,305.5C 125.926,302.52 127.259,299.353 127.5,296C 126.833,295.667 126.167,295.333 125.5,295C 126.67,292.815 127.836,290.649 129,288.5C 131.499,289.798 133.833,289.464 136,287.5C 138.017,290.144 138.85,293.144 138.5,296.5C 137.5,296.5 136.5,296.5 135.5,296.5C 135.5,297.833 135.5,299.167 135.5,300.5C 136.833,300.5 138.167,300.5 139.5,300.5C 140.277,319.717 142.611,338.717 146.5,357.5C 150.026,350.256 153.359,342.923 156.5,335.5C 158.782,336.946 161.115,337.279 163.5,336.5C 165.132,333.009 166.132,329.342 166.5,325.5C 163.848,325.59 161.515,324.924 159.5,323.5C 160.496,323.586 161.329,323.252 162,322.5C 163.741,319.691 164.908,316.691 165.5,313.5C 167.405,310.696 169.071,307.696 170.5,304.5C 172.017,300.63 173.684,296.796 175.5,293C 174.034,290.568 172.701,288.068 171.5,285.5C 172.5,282.5 174.5,280.5 177.5,279.5C 178.558,280.6 179.392,281.934 180,283.5C 182.419,279.664 184.585,275.664 186.5,271.5C 189.555,265.565 191.889,259.398 193.5,253C 193.458,251.033 192.958,249.199 192,247.5C 190.629,244.734 188.796,242.401 186.5,240.5C 183.899,236.229 180.566,232.563 176.5,229.5C 175.593,234.477 174.927,239.477 174.5,244.5C 172.499,258.843 170.499,273.176 168.5,287.5C 167.5,292.832 166.5,298.165 165.5,303.5C 163.326,303.25 161.659,302.25 160.5,300.5C 160.5,299.833 160.5,299.167 160.5,298.5C 154.817,269.665 150.317,240.665 147,211.5C 146.581,210.328 145.915,209.328 145,208.5C 139.299,213.372 133.799,218.372 128.5,223.5C 129.798,226.422 130.798,229.422 131.5,232.5C 130.739,233.391 129.739,234.058 128.5,234.5C 124.934,232.494 121.934,233.328 119.5,237C 118.207,237.49 116.873,237.657 115.5,237.5C 115.5,236.5 115.5,235.5 115.5,234.5C 114.178,234.33 113.011,234.663 112,235.5C 110.933,234.809 109.766,234.309 108.5,234C 111.689,233.019 112.022,231.686 109.5,230C 110.34,228.334 109.84,228.167 108,229.5C 106.716,228.428 106.383,227.095 107,225.5C 106.346,226.696 105.846,226.696 105.5,225.5C 106.833,224.167 108.167,222.833 109.5,221.5C 107.577,220.692 105.577,220.192 103.5,220C 103.957,219.586 104.291,219.086 104.5,218.5C 103.009,217.756 101.509,217.09 100,216.5C 99.7132,214.109 99.2132,211.776 98.5,209.5C 97.675,208.614 96.675,208.281 95.5,208.5C 95.5499,210.59 94.5499,211.923 92.5,212.5C 91.5713,211.311 91.238,209.978 91.5,208.5C 88.4816,208.665 85.4816,208.498 82.5,208C 82.0426,207.586 81.7093,207.086 81.5,206.5C 83.5759,206.242 85.9093,205.742 88.5,205C 87.8333,204.333 87.1667,203.667 86.5,203C 89.0101,202.624 91.3435,201.79 93.5,200.5C 94.3256,199.549 94.4922,198.549 94,197.5C 93.6667,197.833 93.3333,198.167 93,198.5C 92.3333,197.167 91.6667,195.833 91,194.5C 90.3457,195.696 89.8457,195.696 89.5,194.5C 91.1727,192.914 93.1727,192.247 95.5,192.5C 95.5,191.167 95.5,189.833 95.5,188.5C 98.1873,188.664 100.854,188.497 103.5,188C 105.948,185.7 105.281,184.367 101.5,184C 103.351,183.163 105.184,182.329 107,181.5C 107.333,182.167 107.667,182.833 108,183.5C 110.192,184.302 112.692,184.302 115.5,183.5C 114.975,182.808 114.308,182.308 113.5,182C 113.745,179.911 113.745,177.911 113.5,176C 117.252,175.024 117.918,175.69 115.5,178C 116.705,179.271 118.038,179.937 119.5,180C 120.401,177.429 121.734,175.096 123.5,173C 119.976,170.101 120.476,167.601 125,165.5C 125.5,166 126,166.5 126.5,167C 122.5,167.667 122.5,168.333 126.5,169C 124.193,170.828 124.526,172.494 127.5,174C 126.322,174.967 124.989,175.467 123.5,175.5C 124.057,177.235 124.39,178.902 124.5,180.5C 125.923,177.864 127.757,175.531 130,173.5C 132.24,177.588 134.073,177.422 135.5,173C 133.118,170.281 130.451,167.947 127.5,166C 128.833,165 128.833,164 127.5,163C 125.965,162.504 124.465,162.67 123,163.5C 121.328,162.495 119.995,161.161 119,159.5C 116.779,162.261 115.446,165.261 115,168.5C 116.402,166.027 117.902,166.027 119.5,168.5C 119.167,168.833 118.833,169.167 118.5,169.5C 115.489,170.541 112.489,170.708 109.5,170C 109.324,171.692 108.824,173.192 108,174.5C 107.667,173.833 107.333,173.167 107,172.5C 105.655,176.397 103.155,178.064 99.5,177.5C 101.765,176.3 103.598,174.633 105,172.5C 105.5,170.333 104.667,169.5 102.5,170C 101.042,172.46 99.2089,174.627 97,176.5C 97.0187,174.893 97.1854,173.226 97.5,171.5C 101.192,169.966 104.192,167.466 106.5,164C 105.833,163.333 105.167,163.333 104.5,164C 103.02,166.677 101.686,166.177 100.5,162.5C 101.98,159.768 101.646,157.268 99.5,155C 100,154.5 100.5,154 101,153.5C 102.871,154.997 103.871,156.997 104,159.5C 105.323,156.941 107.157,156.275 109.5,157.5C 108.817,160.461 107.984,160.795 107,158.5C 105.105,160.435 105.438,162.102 108,163.5C 108.983,161.552 110.15,159.718 111.5,158C 111.167,157.667 110.833,157.333 110.5,157C 111.249,155.266 111.749,153.433 112,151.5C 112.333,151.833 112.667,152.167 113,152.5C 115.327,148.936 116.494,144.936 116.5,140.5C 119.364,140.936 121.697,140.103 123.5,138C 122.167,137.667 120.833,137.333 119.5,137C 122.146,136.503 124.813,136.336 127.5,136.5C 127.312,134.897 127.812,133.563 129,132.5C 129.617,133.449 129.451,134.282 128.5,135C 129.449,135.617 130.282,135.451 131,134.5C 132.368,135.993 132.535,137.493 131.5,139C 134.117,139.822 136.784,140.322 139.5,140.5C 139.5,141.833 139.5,143.167 139.5,144.5C 141.226,144.185 142.893,144.019 144.5,144C 143.62,145.356 143.286,146.856 143.5,148.5C 145.199,148.66 146.866,148.494 148.5,148C 147.269,146.817 147.269,145.651 148.5,144.5C 149.192,145.025 149.692,145.692 150,146.5C 151.444,144.845 153.278,144.178 155.5,144.5C 155.5,143.5 155.5,142.5 155.5,141.5C 157.512,142.014 159.512,142.18 161.5,142C 161.944,140.467 162.277,138.967 162.5,137.5C 165.79,136.664 168.623,135.664 171,134.5C 171.667,132.5 171.667,130.5 171,128.5C 170.189,129.96 169.355,130.293 168.5,129.5C 170.692,126.713 173.025,124.047 175.5,121.5C 175.387,123.172 175.721,125.006 176.5,127C 177.449,127.617 178.282,127.451 179,126.5C 180.204,127.859 181.704,128.859 183.5,129.5C 182.388,130.265 181.721,131.265 181.5,132.5 Z"/></g>
<g><path style="opacity:0.792" fill="#3d3e37" d="M 423.5,153.5 C 429.901,152.465 435.068,154.465 439,159.5C 441.485,168.727 438.152,175.06 429,178.5C 428.5,178.167 428,177.833 427.5,177.5C 428.757,175.321 430.257,173.321 432,171.5C 434.116,164.399 431.283,161.399 423.5,162.5C 423.5,159.5 423.5,156.5 423.5,153.5 Z"/></g>
<g><path style="opacity:0.884" fill="#3d4038" d="M 267.5,150.5 C 268.475,160.343 268.809,170.01 268.5,179.5C 269.776,180.386 269.776,181.386 268.5,182.5C 267.818,181.757 267.151,181.091 266.5,180.5C 265.641,177.788 264.475,175.122 263,172.5C 262.536,173.094 262.369,173.761 262.5,174.5C 260.843,171.859 259.177,169.193 257.5,166.5C 259.523,162.82 261.523,159.153 263.5,155.5C 264.593,153.651 265.926,151.984 267.5,150.5 Z"/></g>
<g><path style="opacity:0.494" fill="#2c2116" d="M 315.5,160.5 C 317.507,165.854 318.507,171.521 318.5,177.5C 315.028,177.874 312.028,176.874 309.5,174.5C 311.512,169.812 313.512,165.145 315.5,160.5 Z"/></g>
<g><path style="opacity:0.761" fill="#d43f09" d="M 268.5,179.5 C 268.809,170.01 268.475,160.343 267.5,150.5C 267.215,148.712 267.548,147.045 268.5,145.5C 269.815,147.316 271.315,148.983 273,150.5C 277.528,161.265 276.028,170.932 268.5,179.5 Z"/></g>
<g><path style="opacity:0.973" fill="#e93f04" d="M 231.5,146.5 C 232.748,147.334 233.415,148.667 233.5,150.5C 232.369,160.181 232.203,169.847 233,179.5C 225.547,172.169 223.547,163.502 227,153.5C 228.012,150.798 229.512,148.465 231.5,146.5 Z"/></g>
<g><path style="opacity:0.994" fill="#a2a49b" d="M 237.5,173.5 C 238.167,185.167 238.833,196.833 239.5,208.5C 239.66,210.199 239.494,211.866 239,213.5C 237.333,211.833 235.667,210.167 234,208.5C 232.741,196.544 233.908,184.877 237.5,173.5 Z"/></g>
<g><path style="opacity:0.442" fill="#2e2217" d="M 410.5,182.5 C 411.725,183.152 412.392,184.319 412.5,186C 411.313,195.802 410.48,205.635 410,215.5C 403.934,209.27 398.434,202.604 393.5,195.5C 399.415,191.389 405.082,187.056 410.5,182.5 Z"/></g>
<g><path style="opacity:0.957" fill="#39403b" d="M 128.5,181.5 C 130.371,181.859 131.871,182.859 133,184.5C 136.244,188.744 139.078,193.244 141.5,198C 136.346,203.651 130.679,208.817 124.5,213.5C 122.05,209.154 120.384,204.487 119.5,199.5C 122.511,193.479 125.511,187.479 128.5,181.5 Z"/></g>
<g><path style="opacity:0.992" fill="#7a6359" d="M 237.5,173.5 C 237.56,172.957 237.893,172.624 238.5,172.5C 239.499,184.482 239.832,196.482 239.5,208.5C 238.833,196.833 238.167,185.167 237.5,173.5 Z"/></g>
<g><path style="opacity:0.445" fill="#2d2117" d="M 316.5,211.5 C 315.903,211.265 315.57,210.765 315.5,210C 318.393,205.967 319.226,201.467 318,196.5C 316.2,192.765 313.2,191.098 309,191.5C 302.529,192.714 299.029,196.714 298.5,203.5C 299.435,208.765 302.435,212.098 307.5,213.5C 307.5,214.5 307.5,215.5 307.5,216.5C 304.715,218.095 301.715,219.095 298.5,219.5C 297.481,214.272 296.147,209.105 294.5,204C 297.351,197.13 300.851,190.63 305,184.5C 310.477,186.104 315.811,188.104 321,190.5C 322.072,195.622 322.905,200.789 323.5,206C 322.193,209.14 319.86,210.974 316.5,211.5 Z"/></g>
<g><path style="opacity:0.341" fill="#392b1d" d="M 316.5,211.5 C 313.696,213.405 310.696,215.071 307.5,216.5C 307.5,215.5 307.5,214.5 307.5,213.5C 302.435,212.098 299.435,208.765 298.5,203.5C 299.029,196.714 302.529,192.714 309,191.5C 313.2,191.098 316.2,192.765 318,196.5C 319.226,201.467 318.393,205.967 315.5,210C 315.57,210.765 315.903,211.265 316.5,211.5 Z"/></g>
<g><path style="opacity:0.975" fill="#9e9f95" d="M 266.5,180.5 C 266.264,183.609 266.597,186.609 267.5,189.5C 268.242,195.49 268.409,201.49 268,207.5C 267.027,209.64 265.527,211.307 263.5,212.5C 262.502,203.19 262.168,193.857 262.5,184.5C 262.5,181.167 262.5,177.833 262.5,174.5C 262.369,173.761 262.536,173.094 263,172.5C 264.475,175.122 265.641,177.788 266.5,180.5 Z"/></g>
<g><path style="opacity:0.981" fill="#313833" d="M 383.5,203.5 C 377.59,216.556 372.257,229.889 367.5,243.5C 364.552,250.396 361.885,257.396 359.5,264.5C 353.426,274.976 347.593,285.643 342,296.5C 334.318,288.318 326.151,280.651 317.5,273.5C 317.369,272.761 317.536,272.094 318,271.5C 323.809,265.602 329.809,259.935 336,254.5C 341.636,234.653 346.636,214.653 351,194.5C 354.134,204.701 356.8,215.034 359,225.5C 363.28,214.155 367.447,202.822 371.5,191.5C 376.543,194.543 380.543,198.543 383.5,203.5 Z"/></g>
<g><path style="opacity:0.986" fill="#a0a097" d="M 244.5,185.5 C 245.833,185.5 247.167,185.5 248.5,185.5C 247.824,199.488 247.324,213.488 247,227.5C 245.275,221.104 243.775,214.771 242.5,208.5C 241.919,200.559 242.586,192.892 244.5,185.5 Z"/></g>
<g><path style="opacity:0.43" fill="#302418" d="M 203.5,175.5 C 205.577,179.968 208.41,183.968 212,187.5C 212.167,189 212.333,190.5 212.5,192C 211.21,203.495 208.044,214.328 203,224.5C 192.534,215.91 184.201,205.577 178,193.5C 177.5,185.507 177.334,177.507 177.5,169.5C 182.981,166.258 188.648,163.258 194.5,160.5C 197.274,165.729 200.274,170.729 203.5,175.5 Z"/></g>
<g><path style="opacity:0.051" fill="#463523" d="M 188.5,169.5 C 195.341,171.062 200.175,175.062 203,181.5C 208.404,190.364 208.737,199.364 204,208.5C 200.987,212.94 197.487,213.44 193.5,210C 188.233,203.634 184.399,196.467 182,188.5C 179.772,180.491 181.939,174.157 188.5,169.5 Z"/></g>
<g><path style="opacity:0.493" fill="#2d2117" d="M 176.5,213.5 C 183.162,219.329 189.329,225.663 195,232.5C 195.798,234.259 195.631,235.926 194.5,237.5C 188.515,232.015 182.681,226.348 177,220.5C 176.503,218.19 176.337,215.857 176.5,213.5 Z"/></g>
<g><path style="opacity:0.342" fill="#322519" d="M 383.5,203.5 C 395.272,214.379 404.605,227.046 411.5,241.5C 411.436,244.192 411.103,246.859 410.5,249.5C 408.766,245.7 406.766,242.034 404.5,238.5C 392.986,246.807 380.652,248.474 367.5,243.5C 372.257,229.889 377.59,216.556 383.5,203.5 Z"/></g>
<g><path style="opacity:0.494" fill="#2c2116" d="M 323.5,243.5 C 317.195,240.888 310.862,238.221 304.5,235.5C 303.972,234.153 303.805,232.819 304,231.5C 310.484,225.926 317.151,220.593 324,215.5C 326.325,224.341 326.992,233.341 326,242.5C 325.329,243.252 324.496,243.586 323.5,243.5 Z"/></g>
<g><path style="opacity:0.179" fill="#413121" d="M 383.5,217.5 C 393.007,217.499 398.341,222.333 399.5,232C 399.518,234.379 398.851,236.546 397.5,238.5C 394.291,239.439 391.124,240.439 388,241.5C 386.333,241.5 384.667,241.5 383,241.5C 378.12,239.407 376.12,235.74 377,230.5C 378.328,225.641 380.495,221.308 383.5,217.5 Z"/></g>
<g><path style="opacity:0.491" fill="#2b2016" d="M 186.5,240.5 C 182.645,242.452 178.645,243.785 174.5,244.5C 174.927,239.477 175.593,234.477 176.5,229.5C 180.566,232.563 183.899,236.229 186.5,240.5 Z"/></g>
<g><path style="opacity:0.265" fill="#36281b" d="M 78.5,162.5 C 81.346,224.523 84.6793,286.523 88.5,348.5C 87.1751,349.953 86.3418,349.619 86,347.5C 85.6264,343.204 84.7931,339.037 83.5,335C 82.4437,325.633 82.4437,316.133 83.5,306.5C 81.1445,303.037 81.1445,299.537 83.5,296C 81.8542,294.445 81.5209,292.779 82.5,291C 79.4905,282.709 78.4905,274.209 79.5,265.5C 76.8333,262.5 76.8333,259.5 79.5,256.5C 78.7419,253.198 78.0752,249.865 77.5,246.5C 79.1329,244.613 78.7996,243.113 76.5,242C 78.6758,235.001 78.3424,228.001 75.5,221C 75.1994,213.161 75.5327,205.495 76.5,198C 74.371,191.311 72.7043,184.811 71.5,178.5C 72.4972,178.53 73.1639,178.03 73.5,177C 72.0149,174.844 70.5149,172.677 69,170.5C 67.8526,163.161 71.0193,160.494 78.5,162.5 Z"/></g>
<g><path style="opacity:0.928" fill="#3a3f3a" d="M 160.5,298.5 C 157.167,291.833 153.833,285.167 150.5,278.5C 144.549,262.974 138.216,247.641 131.5,232.5C 130.798,229.422 129.798,226.422 128.5,223.5C 133.799,218.372 139.299,213.372 145,208.5C 145.915,209.328 146.581,210.328 147,211.5C 150.317,240.665 154.817,269.665 160.5,298.5 Z"/></g>
<g><path style="opacity:0.98" fill="#333832" d="M 304.5,235.5 C 310.862,238.221 317.195,240.888 323.5,243.5C 318.428,245.246 313.095,246.246 307.5,246.5C 306.699,242.765 305.699,239.099 304.5,235.5 Z"/></g>
<g><path style="opacity:0.947" fill="#3c3f39" d="M 214.5,240.5 C 216.154,246.583 217.154,252.916 217.5,259.5C 216.845,263.149 215.345,266.482 213,269.5C 213.166,259.834 213.666,250.167 214.5,240.5 Z"/></g>
<g><path style="opacity:0.914" fill="#373931" d="M 317.5,252.5 C 318.978,252.238 320.311,252.571 321.5,253.5C 319.194,256.473 316.527,259.14 313.5,261.5C 311.929,259.029 310.929,256.363 310.5,253.5C 313.059,253.802 315.393,253.468 317.5,252.5 Z"/></g>
<g><path style="opacity:0.46" fill="#302218" d="M 113.5,244.5 C 116.546,256.739 118.879,269.406 120.5,282.5C 120.167,283.5 119.833,284.5 119.5,285.5C 116.812,282.646 114.312,279.646 112,276.5C 112.908,265.889 113.408,255.222 113.5,244.5 Z"/></g>
<g><path style="opacity:0.949" fill="#393f3a" d="M 186.5,240.5 C 188.796,242.401 190.629,244.734 192,247.5C 192.958,249.199 193.458,251.033 193.5,253C 191.889,259.398 189.555,265.565 186.5,271.5C 182.9,273.43 179.9,276.097 177.5,279.5C 174.5,280.5 172.5,282.5 171.5,285.5C 170.5,286.167 169.5,286.833 168.5,287.5C 170.499,273.176 172.499,258.843 174.5,244.5C 178.645,243.785 182.645,242.452 186.5,240.5 Z"/></g>
<g><path style="opacity:0.947" fill="#3a403b" d="M 262.5,184.5 C 262.168,193.857 262.502,203.19 263.5,212.5C 265.527,211.307 267.027,209.64 268,207.5C 268.409,201.49 268.242,195.49 267.5,189.5C 268.822,189.67 269.989,189.337 271,188.5C 273.667,183.833 276.333,179.167 279,174.5C 279.113,183.496 276.78,191.83 272,199.5C 273.741,226.575 276.074,253.575 279,280.5C 281.338,264.463 283.838,248.463 286.5,232.5C 288.914,258.811 290.914,285.144 292.5,311.5C 293.154,322.842 293.988,334.175 295,345.5C 295.232,346.737 295.732,347.737 296.5,348.5C 293.568,359.797 289.734,370.797 285,381.5C 279.893,369.083 275.393,356.416 271.5,343.5C 272.824,344.85 273.824,344.683 274.5,343C 277.55,335.341 280.883,327.841 284.5,320.5C 286.272,328.384 286.939,336.384 286.5,344.5C 285.167,344.5 283.833,344.5 282.5,344.5C 282.665,341.482 282.498,338.482 282,335.5C 279.91,339.599 278.744,343.933 278.5,348.5C 282.85,348.77 287.017,348.103 291,346.5C 290.735,333.258 289.069,320.258 286,307.5C 282,315.5 278,323.5 274,331.5C 272.096,334.923 271.263,338.59 271.5,342.5C 270.379,340.046 269.546,337.379 269,334.5C 265.468,347.434 262.134,360.434 259,373.5C 257.352,378.235 255.519,382.902 253.5,387.5C 250.044,380.261 247.711,372.595 246.5,364.5C 251.369,363.644 255.536,361.31 259,357.5C 260.378,350.882 260.711,344.215 260,337.5C 259.692,336.692 259.192,336.025 258.5,335.5C 257.658,341.678 255.325,347.178 251.5,352C 248.854,352.497 246.187,352.664 243.5,352.5C 240.646,327.145 237.646,301.812 234.5,276.5C 235.793,277.842 236.626,279.509 237,281.5C 240.063,257.285 241.896,232.952 242.5,208.5C 243.775,214.771 245.275,221.104 247,227.5C 247.324,213.488 247.824,199.488 248.5,185.5C 247.167,185.5 245.833,185.5 244.5,185.5C 244.169,178.137 244.503,170.803 245.5,163.5C 250.075,171.406 255.742,178.406 262.5,184.5 Z"/></g>
<g><path style="opacity:0.975" fill="#613e32" d="M 260.5,316.5 C 260.5,313.833 260.5,311.167 260.5,308.5C 260.5,304.5 260.5,300.5 260.5,296.5C 260.666,291.156 260.499,285.823 260,280.5C 259.722,279.584 259.222,278.918 258.5,278.5C 257.852,262.502 257.685,246.502 258,230.5C 261.333,224.5 264.667,218.5 268,212.5C 265.759,247.785 263.759,283.118 262,318.5C 261.722,317.584 261.222,316.918 260.5,316.5 Z"/></g>
<g><path style="opacity:0.961" fill="#9d9f95" d="M 253.5,185.5 C 255.144,185.286 256.644,185.62 258,186.5C 258.749,197.532 258.415,208.532 257,219.5C 256.399,222.637 255.399,225.637 254,228.5C 253.5,214.171 253.333,199.837 253.5,185.5 Z"/></g>
<g><path style="opacity:0.48" fill="#2e2318" d="M 186.5,271.5 C 184.585,275.664 182.419,279.664 180,283.5C 179.392,281.934 178.558,280.6 177.5,279.5C 179.9,276.097 182.9,273.43 186.5,271.5 Z"/></g>
<g><path style="opacity:0.44" fill="#2d2217" d="M 359.5,264.5 C 363.041,284.748 366.041,305.081 368.5,325.5C 368.167,328.167 367.833,330.833 367.5,333.5C 364.536,332.192 362.203,330.192 360.5,327.5C 360.893,325.716 361.559,324.05 362.5,322.5C 362.5,320.833 362.5,319.167 362.5,317.5C 362.213,293.867 360.213,293.2 356.5,315.5C 353.664,315.837 352.998,317.171 354.5,319.5C 348.578,321.696 342.578,323.696 336.5,325.5C 334.416,322.199 333.082,318.532 332.5,314.5C 339.276,312.574 345.942,310.241 352.5,307.5C 355.033,302.016 354.7,296.682 351.5,291.5C 350.772,294.212 349.939,296.879 349,299.5C 342.551,302.816 335.717,304.816 328.5,305.5C 324.261,295.024 320.595,284.358 317.5,273.5C 326.151,280.651 334.318,288.318 342,296.5C 347.593,285.643 353.426,274.976 359.5,264.5 Z"/></g>
<g><path style="opacity:0.479" fill="#2d2116" d="M 388.5,262.5 C 389.268,263.263 389.768,264.263 390,265.5C 390.667,273.167 390.667,280.833 390,288.5C 386.194,297.583 382.194,306.583 378,315.5C 379.274,301.786 381.274,288.119 384,274.5C 385.214,270.355 386.714,266.355 388.5,262.5 Z"/></g>
<g><path style="opacity:0.979" fill="#393e39" d="M 160.5,300.5 C 161.659,302.25 163.326,303.25 165.5,303.5C 167.117,304.038 168.784,304.371 170.5,304.5C 169.071,307.696 167.405,310.696 165.5,313.5C 161.646,311.407 157.646,309.574 153.5,308C 152.299,307.097 151.465,305.931 151,304.5C 150.361,299.02 151.028,293.687 153,288.5C 153.521,291.919 154.355,295.252 155.5,298.5C 156.833,299.5 158.167,300.5 159.5,301.5C 160.107,301.376 160.44,301.043 160.5,300.5 Z"/></g>
<g><path style="opacity:0.481" fill="#2c2016" d="M 171.5,285.5 C 172.701,288.068 174.034,290.568 175.5,293C 173.684,296.796 172.017,300.63 170.5,304.5C 168.784,304.371 167.117,304.038 165.5,303.5C 166.5,298.165 167.5,292.832 168.5,287.5C 169.5,286.833 170.5,286.167 171.5,285.5 Z"/></g>
<g><path style="opacity:0.945" fill="#58675d" d="M 258.5,278.5 C 259.222,278.918 259.722,279.584 260,280.5C 260.499,285.823 260.666,291.156 260.5,296.5C 259.266,298.66 257.933,300.827 256.5,303C 252.379,304.899 248.046,305.732 243.5,305.5C 243.5,302.167 243.5,298.833 243.5,295.5C 247.909,296.382 251.409,295.048 254,291.5C 256.144,287.25 257.644,282.917 258.5,278.5 Z"/></g>
<g><path style="opacity:0.197" fill="#403020" d="M 63.5,69.5 C 63.3398,71.1992 63.5065,72.8659 64,74.5C 65.1545,73.2567 66.4878,72.2567 68,71.5C 69.6852,73.9878 71.0186,73.6545 72,70.5C 74.1156,71.7427 76.2823,72.9094 78.5,74C 77.4266,75.5944 76.4266,77.0944 75.5,78.5C 75.3678,81.7786 75.5344,85.1119 76,88.5C 72.6157,93.2775 69.7824,98.2775 67.5,103.5C 60.0458,105.631 55.7125,110.631 54.5,118.5C 56.5241,127.857 62.1907,133.524 71.5,135.5C 72.0084,137.865 72.6751,140.199 73.5,142.5C 72.0214,146.791 70.0214,150.791 67.5,154.5C 64.8607,156.309 62.6941,158.642 61,161.5C 60.4609,169.498 63.9609,175.164 71.5,178.5C 72.7043,184.811 74.371,191.311 76.5,198C 75.5327,205.495 75.1994,213.161 75.5,221C 78.3424,228.001 78.6758,235.001 76.5,242C 78.7996,243.113 79.1329,244.613 77.5,246.5C 78.0752,249.865 78.7419,253.198 79.5,256.5C 76.8333,259.5 76.8333,262.5 79.5,265.5C 78.4905,274.209 79.4905,282.709 82.5,291C 81.5209,292.779 81.8542,294.445 83.5,296C 81.1445,299.537 81.1445,303.037 83.5,306.5C 82.4437,316.133 82.4437,325.633 83.5,335C 84.7931,339.037 85.6264,343.204 86,347.5C 86.3418,349.619 87.1751,349.953 88.5,348.5C 88.5,348.833 88.5,349.167 88.5,349.5C 88.8226,353.226 88.4892,356.893 87.5,360.5C 86.2519,359.96 85.0852,359.293 84,358.5C 82.3953,355.352 81.3953,352.019 81,348.5C 80.3096,338.931 79.4763,329.431 78.5,320C 78.2734,316.114 78.6067,312.114 79.5,308C 78.8333,306.333 78.1667,304.667 77.5,303C 77.251,292.755 77.251,282.255 77.5,271.5C 76.6307,267.384 75.964,263.217 75.5,259C 76.5956,251.037 75.9289,243.037 73.5,235C 74.2598,233.559 74.9264,232.059 75.5,230.5C 75.162,227.324 74.4954,223.991 73.5,220.5C 74.0513,214.988 74.3846,209.821 74.5,205C 73.6362,199.553 72.8029,194.053 72,188.5C 71.0536,186.212 69.8869,184.045 68.5,182C 68.8333,181.667 69.1667,181.333 69.5,181C 59.7854,177.072 55.6187,169.905 57,159.5C 59.9259,155.318 63.0925,151.318 66.5,147.5C 67.7485,144.506 67.7485,141.506 66.5,138.5C 63.2122,136.572 59.8789,134.739 56.5,133C 47.7365,123.99 47.2365,114.49 55,104.5C 59.5,101.333 64,98.1667 68.5,95C 68.1667,94.6667 67.8333,94.3333 67.5,94C 70.4463,89.4916 71.113,84.9916 69.5,80.5C 67.3792,80.3253 65.3792,80.6586 63.5,81.5C 62.2737,77.367 62.2737,73.367 63.5,69.5 Z"/></g>
<g><path style="opacity:0.978" fill="#323832" d="M 332.5,314.5 C 330.727,311.82 329.393,308.82 328.5,305.5C 335.717,304.816 342.551,302.816 349,299.5C 349.939,296.879 350.772,294.212 351.5,291.5C 354.7,296.682 355.033,302.016 352.5,307.5C 345.942,310.241 339.276,312.574 332.5,314.5 Z"/></g>
<g><path style="opacity:0.973" fill="#3a403b" d="M 227.5,312.5 C 227.431,317.854 227.098,323.187 226.5,328.5C 222.941,323.061 219.608,317.394 216.5,311.5C 215.808,312.025 215.308,312.692 215,313.5C 214.667,316.833 214.333,320.167 214,323.5C 213.617,324.056 213.117,324.389 212.5,324.5C 210.801,320.046 209.467,315.38 208.5,310.5C 210.652,300.962 212.819,291.295 215,281.5C 216.233,278.703 217.733,276.037 219.5,273.5C 222.074,286.639 224.741,299.639 227.5,312.5 Z"/></g>
<g><path style="opacity:0.339" fill="#34271a" d="M 123.5,305.5 C 125.503,330.868 127.836,356.201 130.5,381.5C 123.411,381.116 116.411,381.616 109.5,383C 104.042,385.454 100.375,389.454 98.5,395C 85.4784,393.515 75.1451,398.015 67.5,408.5C 66.609,409.11 65.609,409.443 64.5,409.5C 60.446,409.79 59.946,409.123 63,407.5C 63.7999,403.36 66.1332,400.36 70,398.5C 70.3333,398.833 70.6667,399.167 71,399.5C 72.622,397.094 74.7886,395.261 77.5,394C 83.4133,392.481 89.08,390.481 94.5,388C 100.355,382.905 107.021,379.072 114.5,376.5C 116.437,375.046 118.103,373.379 119.5,371.5C 121.61,370.547 122.777,368.881 123,366.5C 123.401,361.38 123.901,356.547 124.5,352C 124,351.5 123.5,351 123,350.5C 123.151,338.504 121.818,326.504 119,314.5C 118.392,310.539 116.226,309.039 112.5,310C 110.477,313.232 108.977,316.732 108,320.5C 106.552,326.059 105.219,331.725 104,337.5C 103.667,337.833 103.333,338.167 103,338.5C 102.502,335.518 102.335,332.518 102.5,329.5C 104.694,315.373 107.194,301.373 110,287.5C 114.748,293.401 119.248,299.401 123.5,305.5 Z"/></g>
<g><path style="opacity:0.969" fill="#333730" d="M 362.5,317.5 C 360.421,317.029 358.421,316.363 356.5,315.5C 360.213,293.2 362.213,293.867 362.5,317.5 Z"/></g>
<g><path style="opacity:0.942" fill="#57675c" d="M 260.5,308.5 C 260.5,311.167 260.5,313.833 260.5,316.5C 260.376,321.289 259.542,325.955 258,330.5C 253.785,333.888 248.951,335.221 243.5,334.5C 243.5,330.833 243.5,327.167 243.5,323.5C 246.187,323.664 248.854,323.497 251.5,323C 255.231,318.468 257.398,313.301 258,307.5C 258.333,307.167 258.667,306.833 259,306.5C 259.278,307.416 259.778,308.082 260.5,308.5 Z"/></g>
<g><path style="opacity:0.975" fill="#603b31" d="M 356.5,315.5 C 358.421,316.363 360.421,317.029 362.5,317.5C 362.5,319.167 362.5,320.833 362.5,322.5C 359.838,321.501 357.172,320.501 354.5,319.5C 352.998,317.171 353.664,315.837 356.5,315.5 Z"/></g>
<g><path style="opacity:0.972" fill="#393f3a" d="M 159.5,323.5 C 161.515,324.924 163.848,325.59 166.5,325.5C 166.132,329.342 165.132,333.009 163.5,336.5C 161.115,337.279 158.782,336.946 156.5,335.5C 151.521,332.085 147.021,328.085 143,323.5C 142.169,315.812 142.335,308.145 143.5,300.5C 145.485,305.434 147.318,310.434 149,315.5C 151.828,319.175 155.328,321.842 159.5,323.5 Z"/></g>
<g><path style="opacity:0.977" fill="#323833" d="M 354.5,319.5 C 357.172,320.501 359.838,321.501 362.5,322.5C 361.559,324.05 360.893,325.716 360.5,327.5C 356.638,329.262 352.972,331.262 349.5,333.5C 346.594,334.787 343.594,335.787 340.5,336.5C 338.416,333.199 337.082,329.532 336.5,325.5C 342.578,323.696 348.578,321.696 354.5,319.5 Z"/></g>
<g><path style="opacity:0.119" fill="#453423" d="M 119.5,371.5 C 114.719,374.15 109.719,376.317 104.5,378C 97.7106,383.142 90.5439,387.642 83,391.5C 82.586,391.043 82.086,390.709 81.5,390.5C 77.2094,391.736 73.2094,393.57 69.5,396C 65.02,400.811 60.1867,405.311 55,409.5C 54.51,410.793 54.3433,412.127 54.5,413.5C 51.2027,413.329 50.8694,413.995 53.5,415.5C 48.6743,420.126 47.1743,425.793 49,432.5C 52.7972,443.947 60.7972,449.614 73,449.5C 76.1432,448.358 79.3099,448.358 82.5,449.5C 84.5,448.833 86.5,448.167 88.5,447.5C 89.7716,447.57 90.9383,447.903 92,448.5C 111.333,447.833 130.667,447.167 150,446.5C 179.422,446.745 208.755,446.745 238,446.5C 243.455,445.277 248.622,444.11 253.5,443C 240.66,442.831 227.993,442.331 215.5,441.5C 230.833,441.5 246.167,441.5 261.5,441.5C 259.631,442.165 257.631,442.831 255.5,443.5C 257.006,444.747 258.506,444.747 260,443.5C 260.925,444.047 261.758,444.713 262.5,445.5C 277.317,446.91 292.15,447.91 307,448.5C 309.196,447.91 311.362,447.243 313.5,446.5C 318.114,446.898 322.947,447.231 328,447.5C 330.931,447.225 333.765,446.559 336.5,445.5C 337.478,445.977 338.311,446.643 339,447.5C 343.44,446.321 347.94,446.321 352.5,447.5C 362.308,447.053 371.975,446.219 381.5,445C 390.541,444.357 399.374,444.523 408,445.5C 416.774,444.846 425.608,444.18 434.5,443.5C 400.476,442.813 366.476,442.146 332.5,441.5C 332.833,440.5 333.5,439.833 334.5,439.5C 334.842,440.338 335.508,440.672 336.5,440.5C 369.664,441.664 402.997,441.831 436.5,441C 442.89,438.401 445.557,433.568 444.5,426.5C 444.5,425.833 444.5,425.167 444.5,424.5C 445.299,426.739 446.632,428.739 448.5,430.5C 450.061,428.717 450.395,426.884 449.5,425C 449.759,423.739 450.426,422.739 451.5,422C 450.137,420.055 449.303,417.888 449,415.5C 445.757,413.236 442.923,410.57 440.5,407.5C 437.075,402.65 434.742,397.316 433.5,391.5C 431.821,390.218 429.987,389.218 428,388.5C 427.508,387.451 427.674,386.451 428.5,385.5C 427.975,384.808 427.308,384.308 426.5,384C 426.833,383.667 427.167,383.333 427.5,383C 426.5,382.5 425.5,382 424.5,381.5C 423.15,382.95 421.484,383.617 419.5,383.5C 419.5,382.5 419.5,381.5 419.5,380.5C 414.467,380.982 409.634,380.315 405,378.5C 403.077,380.881 400.577,382.381 397.5,383C 396.167,383.667 396.167,384.333 397.5,385C 394.782,386.066 392.449,387.733 390.5,390C 391.15,391.609 390.65,393.109 389,394.5C 378.379,391.279 368.212,386.446 358.5,380C 358.833,379.667 359.167,379.333 359.5,379C 352.455,365.95 356.122,356.95 370.5,352C 375.283,348.564 378.449,344.064 380,338.5C 381.833,337.333 383.333,335.833 384.5,334C 387.516,333.78 390.016,332.613 392,330.5C 392.308,331.308 392.808,331.975 393.5,332.5C 394.429,331.311 394.762,329.978 394.5,328.5C 396.091,338.958 396.758,349.624 396.5,360.5C 394.095,359.602 392.095,358.102 390.5,356C 390.815,352.758 389.148,350.592 385.5,349.5C 382.898,349.17 380.231,349.67 377.5,351C 373.339,355.819 368.506,359.986 363,363.5C 362.192,365.423 361.692,367.423 361.5,369.5C 362.816,373.111 364.15,376.777 365.5,380.5C 367.554,382.459 369.887,383.959 372.5,385C 377.021,385.926 381.355,387.426 385.5,389.5C 390.318,386.515 394.318,382.682 397.5,378C 399.167,377 400.833,376 402.5,375C 404.112,374.28 405.612,374.446 407,375.5C 407.875,373.487 409.209,373.487 411,375.5C 412.836,373.396 415.002,373.062 417.5,374.5C 419.205,377.749 421.205,378.416 423.5,376.5C 426.41,376.848 428.41,378.348 429.5,381C 430.833,381.667 432.167,382.333 433.5,383C 432.647,385.809 433.647,387.975 436.5,389.5C 441.12,400.218 447.12,410.051 454.5,419C 454.072,426.264 452.905,433.431 451,440.5C 447.947,442.43 445.447,444.93 443.5,448C 437.219,449.61 431.053,451.443 425,453.5C 421.513,452.787 418.013,452.121 414.5,451.5C 375.476,453.48 336.976,454.147 299,453.5C 286.784,453.542 274.617,452.875 262.5,451.5C 260.528,452.443 258.695,452.776 257,452.5C 255.863,451.636 254.53,450.636 253,449.5C 250.293,450.437 247.793,451.77 245.5,453.5C 242.833,452.833 240.167,452.167 237.5,451.5C 225.953,452.594 214.287,452.594 202.5,451.5C 198.351,452.769 194.018,453.435 189.5,453.5C 184.718,453.381 180.051,452.715 175.5,451.5C 172.972,452.942 170.305,453.442 167.5,453C 168.696,452.346 168.696,451.846 167.5,451.5C 165.568,452.366 163.568,453.033 161.5,453.5C 132.894,453.615 104.227,453.448 75.5,453C 70.1285,451.491 64.9618,450.324 60,449.5C 59.6667,449.833 59.3333,450.167 59,450.5C 54.2904,447.158 50.2904,443.158 47,438.5C 46.1293,433.488 45.296,428.488 44.5,423.5C 45.8543,419.066 47.3543,414.732 49,410.5C 53.7382,406.999 57.9049,402.833 61.5,398C 65.8578,395.487 69.8578,392.487 73.5,389C 84.5647,387.136 93.898,382.136 101.5,374C 107.183,373.389 112.516,371.722 117.5,369C 117.167,368.667 116.833,368.333 116.5,368C 117.43,366.806 118.097,365.473 118.5,364C 117.016,358.93 116.016,353.764 115.5,348.5C 115.649,346.68 116.316,345.18 117.5,344C 116.747,342.513 115.914,342.346 115,343.5C 114.632,342.09 113.799,341.09 112.5,340.5C 109.256,348.526 105.922,356.526 102.5,364.5C 100.292,367.054 97.9586,369.554 95.5,372C 93.9343,372.765 92.6009,372.598 91.5,371.5C 94.7971,357.297 98.4638,343.297 102.5,329.5C 102.335,332.518 102.502,335.518 103,338.5C 103.333,338.167 103.667,337.833 104,337.5C 105.219,331.725 106.552,326.059 108,320.5C 108.977,316.732 110.477,313.232 112.5,310C 116.226,309.039 118.392,310.539 119,314.5C 121.818,326.504 123.151,338.504 123,350.5C 123.5,351 124,351.5 124.5,352C 123.901,356.547 123.401,361.38 123,366.5C 122.777,368.881 121.61,370.547 119.5,371.5 Z"/></g>
<g><path style="opacity:0.991" fill="#3e271f" d="M 292.5,311.5 C 296.23,319.398 298.897,327.731 300.5,336.5C 299.336,340.659 298.003,344.659 296.5,348.5C 295.732,347.737 295.232,346.737 295,345.5C 293.988,334.175 293.154,322.842 292.5,311.5 Z"/></g>
<g><path style="opacity:0.487" fill="#2b2016" d="M 150.5,278.5 C 153.833,285.167 157.167,291.833 160.5,298.5C 160.5,299.167 160.5,299.833 160.5,300.5C 160.44,301.043 160.107,301.376 159.5,301.5C 158.167,300.5 156.833,299.5 155.5,298.5C 154.355,295.252 153.521,291.919 153,288.5C 151.028,293.687 150.361,299.02 151,304.5C 151.465,305.931 152.299,307.097 153.5,308C 157.646,309.574 161.646,311.407 165.5,313.5C 164.908,316.691 163.741,319.691 162,322.5C 161.329,323.252 160.496,323.586 159.5,323.5C 155.328,321.842 151.828,319.175 149,315.5C 147.318,310.434 145.485,305.434 143.5,300.5C 142.335,308.145 142.169,315.812 143,323.5C 147.021,328.085 151.521,332.085 156.5,335.5C 153.359,342.923 150.026,350.256 146.5,357.5C 142.611,338.717 140.277,319.717 139.5,300.5C 139.334,295.821 139.501,291.155 140,286.5C 142,291.167 144,295.833 146,300.5C 148.038,293.272 149.538,285.938 150.5,278.5 Z"/></g>
<g><path style="opacity:0.97" fill="#3d2820" d="M 271.5,343.5 C 271.5,343.167 271.5,342.833 271.5,342.5C 271.263,338.59 272.096,334.923 274,331.5C 278,323.5 282,315.5 286,307.5C 289.069,320.258 290.735,333.258 291,346.5C 287.017,348.103 282.85,348.77 278.5,348.5C 278.744,343.933 279.91,339.599 282,335.5C 282.498,338.482 282.665,341.482 282.5,344.5C 283.833,344.5 285.167,344.5 286.5,344.5C 286.939,336.384 286.272,328.384 284.5,320.5C 280.883,327.841 277.55,335.341 274.5,343C 273.824,344.683 272.824,344.85 271.5,343.5 Z"/></g>
<g><path style="opacity:0.486" fill="#2b2016" d="M 349.5,333.5 C 353.373,335.037 356.707,337.37 359.5,340.5C 354.62,343.019 349.62,345.353 344.5,347.5C 342.765,343.961 341.432,340.294 340.5,336.5C 343.594,335.787 346.594,334.787 349.5,333.5 Z"/></g>
<g><path style="opacity:0.958" fill="#8c8b8a" d="M 312.5,299.5 C 317.479,322.041 321.812,344.707 325.5,367.5C 326.079,376.115 326.079,384.782 325.5,393.5C 321.407,395.868 317.74,398.702 314.5,402C 315.861,403.927 316.694,406.094 317,408.5C 317.792,415.247 317.626,421.914 316.5,428.5C 314.366,420.106 313.199,411.44 313,402.5C 312.451,377.334 311.951,352.168 311.5,327C 311.5,317.66 311.834,308.494 312.5,299.5 Z"/></g>
<g><path style="opacity:0.959" fill="#6e6765" d="M 339.5,348.5 C 338.167,366.5 338.167,384.5 339.5,402.5C 338.828,403.267 337.995,403.934 337,404.5C 336.83,415.008 336.33,425.341 335.5,435.5C 335.657,434.127 335.49,432.793 335,431.5C 332.148,427.796 329.815,423.796 328,419.5C 327.617,420.056 327.117,420.389 326.5,420.5C 327.993,411.904 328.493,403.237 328,394.5C 327.329,393.748 326.496,393.414 325.5,393.5C 326.079,384.782 326.079,376.115 325.5,367.5C 326.117,367.611 326.617,367.944 327,368.5C 329.346,357.424 332.013,346.424 335,335.5C 336.956,339.647 338.456,343.98 339.5,348.5 Z"/></g>
<g><path style="opacity:0.008" fill="#4f3d28" d="M 432.5,371.5 C 433.833,372.167 433.833,372.167 432.5,371.5 Z"/></g>
<g><path style="opacity:0.965" fill="#6d6666" d="M 130.5,381.5 C 130.897,386.959 130.397,392.292 129,397.5C 122.62,404.684 116.454,411.351 110.5,417.5C 106.366,418.485 102.032,418.818 97.5,418.5C 98.8665,428.289 94.8665,434.455 85.5,437C 80.5,437.667 75.5,437.667 70.5,437C 66.5204,435.522 64.8538,432.688 65.5,428.5C 65.0509,424.567 66.3843,421.4 69.5,419C 73.6908,418.078 77.6908,418.412 81.5,420C 76.9023,419.693 73.0689,421.193 70,424.5C 69.769,429.276 72.1024,431.943 77,432.5C 87.1764,430.837 91.5097,424.837 90,414.5C 88.4571,412.622 86.6238,411.122 84.5,410C 78.9116,408.711 73.2449,408.211 67.5,408.5C 75.1451,398.015 85.4784,393.515 98.5,395C 100.375,389.454 104.042,385.454 109.5,383C 116.411,381.616 123.411,381.116 130.5,381.5 Z"/></g>
<g><path style="opacity:0.891" fill="#343932" d="M 302.5,392.5 C 303.829,398.128 304.496,404.128 304.5,410.5C 304.333,416.5 304.167,422.5 304,428.5C 303.197,431.244 302.197,433.911 301,436.5C 298.674,438.066 296.508,439.732 294.5,441.5C 291.833,441.5 289.167,441.5 286.5,441.5C 288.091,440.781 289.591,439.781 291,438.5C 294.911,430.941 296.245,422.941 295,414.5C 293.682,411.199 291.848,408.199 289.5,405.5C 293.548,400.785 297.881,396.452 302.5,392.5 Z"/></g>
<g><path style="opacity:0.008" fill="#4f3d28" d="M 451.5,398.5 C 452.833,399.167 452.833,399.167 451.5,398.5 Z"/></g>
<g><path style="opacity:0.208" fill="#3a2c1e" d="M 394.5,328.5 C 394.762,329.978 394.429,331.311 393.5,332.5C 392.808,331.975 392.308,331.308 392,330.5C 390.016,332.613 387.516,333.78 384.5,334C 383.333,335.833 381.833,337.333 380,338.5C 378.449,344.064 375.283,348.564 370.5,352C 356.122,356.95 352.455,365.95 359.5,379C 359.167,379.333 358.833,379.667 358.5,380C 368.212,386.446 378.379,391.279 389,394.5C 390.65,393.109 391.15,391.609 390.5,390C 392.449,387.733 394.782,386.066 397.5,385C 396.167,384.333 396.167,383.667 397.5,383C 400.577,382.381 403.077,380.881 405,378.5C 409.634,380.315 414.467,380.982 419.5,380.5C 419.5,381.5 419.5,382.5 419.5,383.5C 421.484,383.617 423.15,382.95 424.5,381.5C 425.5,382 426.5,382.5 427.5,383C 427.167,383.333 426.833,383.667 426.5,384C 427.308,384.308 427.975,384.808 428.5,385.5C 427.674,386.451 427.508,387.451 428,388.5C 429.987,389.218 431.821,390.218 433.5,391.5C 434.742,397.316 437.075,402.65 440.5,407.5C 442.923,410.57 445.757,413.236 449,415.5C 449.303,417.888 450.137,420.055 451.5,422C 450.426,422.739 449.759,423.739 449.5,425C 450.395,426.884 450.061,428.717 448.5,430.5C 446.632,428.739 445.299,426.739 444.5,424.5C 445.122,417.576 442.455,412.409 436.5,409C 432.925,407.199 429.258,405.699 425.5,404.5C 431.349,390.298 426.349,383.298 410.5,383.5C 408.304,383.505 406.304,383.838 404.5,384.5C 400.615,385.263 398.281,387.596 397.5,391.5C 397.943,401.391 393.277,405.724 383.5,404.5C 384.084,399.908 382.084,397.075 377.5,396C 371.55,394.837 365.55,394.004 359.5,393.5C 354.035,382.574 349.869,371.241 347,359.5C 355.747,354.878 364.247,349.878 372.5,344.5C 380.199,333.104 386.866,321.104 392.5,308.5C 394.048,315.074 394.715,321.74 394.5,328.5 Z"/></g>
<g><path style="opacity:0.82" fill="#827f7b" d="M 404.5,384.5 C 407.079,384.083 409.246,384.75 411,386.5C 415.184,384.443 417.351,386.109 417.5,391.5C 416.221,394.78 413.887,397.113 410.5,398.5C 410.167,398.167 409.833,397.833 409.5,397.5C 412.956,392.21 411.622,388.877 405.5,387.5C 399.93,389.354 399.264,392.188 403.5,396C 402.056,398.034 400.056,398.868 397.5,398.5C 397.5,396.167 397.5,393.833 397.5,391.5C 398.281,387.596 400.615,385.263 404.5,384.5 Z"/></g>
<g><path style="opacity:0.895" fill="#353b34" d="M 347.5,414.5 C 346.607,419.679 345.774,425.012 345,430.5C 343.729,433.433 342.062,436.099 340,438.5C 339.184,439.823 338.017,440.489 336.5,440.5C 335.508,440.672 334.842,440.338 334.5,439.5C 335.234,438.292 335.567,436.959 335.5,435.5C 336.33,425.341 336.83,415.008 337,404.5C 337.995,403.934 338.828,403.267 339.5,402.5C 342.447,401.356 345.113,399.689 347.5,397.5C 348.248,403.133 348.248,408.8 347.5,414.5 Z"/></g>
<g><path style="opacity:0.923" fill="#353b35" d="M 325.5,393.5 C 326.496,393.414 327.329,393.748 328,394.5C 328.493,403.237 327.993,411.904 326.5,420.5C 326.028,429.303 322.361,436.303 315.5,441.5C 313.784,441.371 312.117,441.038 310.5,440.5C 313.558,437.052 315.558,433.052 316.5,428.5C 317.626,421.914 317.792,415.247 317,408.5C 316.694,406.094 315.861,403.927 314.5,402C 317.74,398.702 321.407,395.868 325.5,393.5 Z"/></g>
<g><path style="opacity:0.96" fill="#8c8b8a" d="M 234.5,276.5 C 237.646,301.812 240.646,327.145 243.5,352.5C 244.082,356.713 245.082,360.713 246.5,364.5C 247.711,372.595 250.044,380.261 253.5,387.5C 255.519,382.902 257.352,378.235 259,373.5C 262.134,360.434 265.468,347.434 269,334.5C 269.546,337.379 270.379,340.046 271.5,342.5C 271.5,342.833 271.5,343.167 271.5,343.5C 275.393,356.416 279.893,369.083 285,381.5C 289.734,370.797 293.568,359.797 296.5,348.5C 298.003,344.659 299.336,340.659 300.5,336.5C 301.404,335.791 301.737,334.791 301.5,333.5C 302.497,352.993 302.83,372.66 302.5,392.5C 297.881,396.452 293.548,400.785 289.5,405.5C 291.848,408.199 293.682,411.199 295,414.5C 296.245,422.941 294.911,430.941 291,438.5C 289.591,439.781 288.091,440.781 286.5,441.5C 282.833,441.5 279.167,441.5 275.5,441.5C 276.763,438.676 276.763,435.843 275.5,433C 272.931,428.098 268.931,425.098 263.5,424C 256.833,423.667 250.167,423.333 243.5,423C 241.714,422.215 240.214,421.049 239,419.5C 238.126,415.465 237.126,411.465 236,407.5C 234.305,388.796 232.305,370.129 230,351.5C 228.672,377.802 224.005,403.469 216,428.5C 214.272,431.692 212.439,434.692 210.5,437.5C 207.465,432.355 206.132,426.688 206.5,420.5C 206.667,417.833 206.833,415.167 207,412.5C 208.5,410.167 210,407.833 211.5,405.5C 208.478,402.147 205.478,398.813 202.5,395.5C 202.064,370.771 200.564,346.105 198,321.5C 197.71,319.048 197.044,316.715 196,314.5C 193.218,333.859 190.218,353.193 187,372.5C 185.508,380.792 183.341,388.792 180.5,396.5C 178.539,394.688 176.206,393.688 173.5,393.5C 173.5,400.167 173.5,406.833 173.5,413.5C 171.011,418.473 168.011,423.14 164.5,427.5C 164.666,419.826 164.5,412.159 164,404.5C 160.414,402.291 156.914,399.957 153.5,397.5C 153.184,409.646 154.518,421.646 157.5,433.5C 155.776,435.162 153.609,436.162 151,436.5C 141.715,423.1 129.548,419.933 114.5,427C 110.316,430.782 110.649,434.115 115.5,437C 121.097,438.091 126.43,437.424 131.5,435C 127.514,434.501 123.514,434.334 119.5,434.5C 119.583,429.434 122.249,427.101 127.5,427.5C 136.614,428.249 140.281,432.916 138.5,441.5C 112.833,441.5 87.1667,441.5 61.5,441.5C 58.2941,439.436 56.4608,436.436 56,432.5C 53.2849,422.625 56.1183,414.958 64.5,409.5C 65.609,409.443 66.609,409.11 67.5,408.5C 73.2449,408.211 78.9116,408.711 84.5,410C 86.6238,411.122 88.4571,412.622 90,414.5C 91.5097,424.837 87.1764,430.837 77,432.5C 72.1024,431.943 69.769,429.276 70,424.5C 73.0689,421.193 76.9023,419.693 81.5,420C 77.6908,418.412 73.6908,418.078 69.5,419C 66.3843,421.4 65.0509,424.567 65.5,428.5C 64.8538,432.688 66.5204,435.522 70.5,437C 75.5,437.667 80.5,437.667 85.5,437C 94.8665,434.455 98.8665,428.289 97.5,418.5C 102.032,418.818 106.366,418.485 110.5,417.5C 117.946,417.092 125.279,415.926 132.5,414C 141.374,410.791 147.207,404.624 150,395.5C 158.347,373.623 167.18,351.956 176.5,330.5C 177.333,339.5 178.167,348.5 179,357.5C 186.254,330.008 193.087,302.341 199.5,274.5C 202.502,286.507 205.502,298.507 208.5,310.5C 209.467,315.38 210.801,320.046 212.5,324.5C 212.547,327.969 213.213,331.302 214.5,334.5C 215.267,338.327 216.267,341.994 217.5,345.5C 217.41,348.152 218.076,350.485 219.5,352.5C 220.563,358.657 222.063,364.657 224,370.5C 224.598,361.168 225.098,351.835 225.5,342.5C 226.486,338.03 226.819,333.363 226.5,328.5C 227.098,323.187 227.431,317.854 227.5,312.5C 228.533,290.501 229.7,268.501 231,246.5C 232.975,256.393 234.142,266.393 234.5,276.5 Z"/></g>
<g><path style="opacity:0.907" fill="#333a33" d="M 180.5,396.5 C 182.718,398.107 184.718,399.94 186.5,402C 183.64,409.92 182.807,418.087 184,426.5C 185.454,432.074 187.954,437.074 191.5,441.5C 190.167,441.5 188.833,441.5 187.5,441.5C 184.297,439.814 181.464,437.481 179,434.5C 175.834,427.837 174.001,420.837 173.5,413.5C 173.5,406.833 173.5,400.167 173.5,393.5C 176.206,393.688 178.539,394.688 180.5,396.5 Z"/></g>
<g><path style="opacity:0.939" fill="#58675d" d="M 246.5,364.5 C 245.082,360.713 244.082,356.713 243.5,352.5C 246.187,352.664 248.854,352.497 251.5,352C 255.325,347.178 257.658,341.678 258.5,335.5C 259.192,336.025 259.692,336.692 260,337.5C 260.711,344.215 260.378,350.882 259,357.5C 255.536,361.31 251.369,363.644 246.5,364.5 Z"/></g>
<g><path style="opacity:0.951" fill="#3a3f3a" d="M 225.5,342.5 C 225.098,351.835 224.598,361.168 224,370.5C 222.063,364.657 220.563,358.657 219.5,352.5C 220.633,350.945 221.299,349.111 221.5,347C 220.82,342.523 220.32,338.023 220,333.5C 218.174,332.159 217.007,332.659 216.5,335C 216.763,337.432 217.763,339.432 219.5,341C 218.733,342.47 218.067,343.97 217.5,345.5C 216.267,341.994 215.267,338.327 214.5,334.5C 215.918,329.398 216.751,324.064 217,318.5C 220.161,326.467 222.994,334.467 225.5,342.5 Z"/></g>
<g><path style="opacity:0.969" fill="#3e2a23" d="M 219.5,352.5 C 218.076,350.485 217.41,348.152 217.5,345.5C 218.067,343.97 218.733,342.47 219.5,341C 217.763,339.432 216.763,337.432 216.5,335C 217.007,332.659 218.174,332.159 220,333.5C 220.32,338.023 220.82,342.523 221.5,347C 221.299,349.111 220.633,350.945 219.5,352.5 Z"/></g>
<g><path style="opacity:0.978" fill="#3f2a22" d="M 226.5,328.5 C 226.819,333.363 226.486,338.03 225.5,342.5C 222.994,334.467 220.161,326.467 217,318.5C 216.751,324.064 215.918,329.398 214.5,334.5C 213.213,331.302 212.547,327.969 212.5,324.5C 213.117,324.389 213.617,324.056 214,323.5C 214.333,320.167 214.667,316.833 215,313.5C 215.308,312.692 215.808,312.025 216.5,311.5C 219.608,317.394 222.941,323.061 226.5,328.5 Z"/></g>
<g><path style="opacity:0.966" fill="#6d6766" d="M 202.5,395.5 C 200.695,394.763 199.029,393.763 197.5,392.5C 196.334,403.151 196.168,413.818 197,424.5C 197.173,428.719 198.173,432.719 200,436.5C 201.811,438.543 203.978,440.043 206.5,441C 202.848,441.499 199.182,441.665 195.5,441.5C 194.167,441.5 192.833,441.5 191.5,441.5C 187.954,437.074 185.454,432.074 184,426.5C 182.807,418.087 183.64,409.92 186.5,402C 184.718,399.94 182.718,398.107 180.5,396.5C 183.341,388.792 185.508,380.792 187,372.5C 190.218,353.193 193.218,333.859 196,314.5C 197.044,316.715 197.71,319.048 198,321.5C 200.564,346.105 202.064,370.771 202.5,395.5 Z"/></g>
<g><path style="opacity:0.969" fill="#353a33" d="M 164.5,427.5 C 164.027,432.74 165.36,437.407 168.5,441.5C 132.694,442.817 97.027,442.817 61.5,441.5C 87.1667,441.5 112.833,441.5 138.5,441.5C 146.86,441.831 155.193,441.498 163.5,440.5C 161.448,438.122 159.448,435.789 157.5,433.5C 154.518,421.646 153.184,409.646 153.5,397.5C 156.914,399.957 160.414,402.291 164,404.5C 164.5,412.159 164.666,419.826 164.5,427.5 Z"/></g>
<g><path style="opacity:0.771" fill="#675e58" d="M 404.5,384.5 C 406.304,383.838 408.304,383.505 410.5,383.5C 426.349,383.298 431.349,390.298 425.5,404.5C 419.828,404.867 414.161,405.367 408.5,406C 403.269,409.188 397.936,412.188 392.5,415C 385.842,415.5 379.175,415.666 372.5,415.5C 369.399,415.308 366.399,414.642 363.5,413.5C 361.22,416.186 360.553,416.019 361.5,413C 360.016,409.87 358.683,406.703 357.5,403.5C 359.824,407.162 363.158,408.996 367.5,409C 362.951,404.397 360.285,399.23 359.5,393.5C 365.55,394.004 371.55,394.837 377.5,396C 382.084,397.075 384.084,399.908 383.5,404.5C 393.277,405.724 397.943,401.391 397.5,391.5C 397.5,393.833 397.5,396.167 397.5,398.5C 400.056,398.868 402.056,398.034 403.5,396C 399.264,392.188 399.93,389.354 405.5,387.5C 411.622,388.877 412.956,392.21 409.5,397.5C 409.833,397.833 410.167,398.167 410.5,398.5C 413.887,397.113 416.221,394.78 417.5,391.5C 417.351,386.109 415.184,384.443 411,386.5C 409.246,384.75 407.079,384.083 404.5,384.5 Z"/></g>
<g><path style="opacity:0.852" fill="#837e7b" d="M 425.5,404.5 C 429.258,405.699 432.925,407.199 436.5,409C 442.455,412.409 445.122,417.576 444.5,424.5C 444.5,425.167 444.5,425.833 444.5,426.5C 442.4,429.104 440.067,431.604 437.5,434C 429.564,435.53 421.564,435.863 413.5,435C 412.347,433.117 410.681,432.284 408.5,432.5C 408.878,423.312 413.544,420.146 422.5,423C 423.672,423.419 424.672,424.085 425.5,425C 422.833,425.333 420.167,425.667 417.5,426C 414.913,427.525 414.08,429.692 415,432.5C 415.915,431.672 416.581,430.672 417,429.5C 422.769,432.529 428.102,431.862 433,427.5C 433.687,425.432 433.52,423.432 432.5,421.5C 434.899,421.716 436.899,420.549 438.5,418C 435.356,417.048 432.856,417.881 431,420.5C 429.681,418.513 427.848,417.346 425.5,417C 415.617,415.443 407.617,418.609 401.5,426.5C 401.565,426.062 401.399,425.728 401,425.5C 398.36,427.31 395.694,428.976 393,430.5C 392.814,428.1 392.314,425.766 391.5,423.5C 390.707,423.931 389.873,424.265 389,424.5C 384.988,423.493 380.822,422.659 376.5,422C 379.482,421.502 382.482,421.335 385.5,421.5C 385.297,419.61 385.963,418.11 387.5,417C 382.316,416.826 377.316,416.326 372.5,415.5C 379.175,415.666 385.842,415.5 392.5,415C 397.936,412.188 403.269,409.188 408.5,406C 414.161,405.367 419.828,404.867 425.5,404.5 Z"/></g>
<g><path style="opacity:0.895" fill="#353a33" d="M 202.5,395.5 C 205.478,398.813 208.478,402.147 211.5,405.5C 210,407.833 208.5,410.167 207,412.5C 206.833,415.167 206.667,417.833 206.5,420.5C 206.132,426.688 207.465,432.355 210.5,437.5C 211.147,439.141 212.147,440.474 213.5,441.5C 207.349,442.664 201.349,442.664 195.5,441.5C 199.182,441.665 202.848,441.499 206.5,441C 203.978,440.043 201.811,438.543 200,436.5C 198.173,432.719 197.173,428.719 197,424.5C 196.168,413.818 196.334,403.151 197.5,392.5C 199.029,393.763 200.695,394.763 202.5,395.5 Z"/></g>
<g><path style="opacity:0.86" fill="#888683" d="M 339.5,348.5 C 344.701,367.104 350.701,385.438 357.5,403.5C 358.683,406.703 360.016,409.87 361.5,413C 360.553,416.019 361.22,416.186 363.5,413.5C 366.399,414.642 369.399,415.308 372.5,415.5C 377.316,416.326 382.316,416.826 387.5,417C 385.963,418.11 385.297,419.61 385.5,421.5C 382.482,421.335 379.482,421.502 376.5,422C 380.822,422.659 384.988,423.493 389,424.5C 389.873,424.265 390.707,423.931 391.5,423.5C 392.314,425.766 392.814,428.1 393,430.5C 395.694,428.976 398.36,427.31 401,425.5C 401.399,425.728 401.565,426.062 401.5,426.5C 399.898,428.699 398.064,430.699 396,432.5C 396.077,431.262 395.911,430.262 395.5,429.5C 393.564,431.978 391.564,431.978 389.5,429.5C 388.672,430.415 387.672,431.081 386.5,431.5C 372.778,431.221 360.111,427.555 348.5,420.5C 347.534,418.604 347.201,416.604 347.5,414.5C 348.248,408.8 348.248,403.133 347.5,397.5C 345.113,399.689 342.447,401.356 339.5,402.5C 338.167,384.5 338.167,366.5 339.5,348.5 Z"/></g>
<g><path style="opacity:0.841" fill="#6a625f" d="M 275.5,441.5 C 270.833,441.5 266.167,441.5 261.5,441.5C 246.167,441.5 230.833,441.5 215.5,441.5C 214.833,441.5 214.167,441.5 213.5,441.5C 212.147,440.474 211.147,439.141 210.5,437.5C 212.439,434.692 214.272,431.692 216,428.5C 224.005,403.469 228.672,377.802 230,351.5C 232.305,370.129 234.305,388.796 236,407.5C 237.126,411.465 238.126,415.465 239,419.5C 240.214,421.049 241.714,422.215 243.5,423C 250.167,423.333 256.833,423.667 263.5,424C 268.931,425.098 272.931,428.098 275.5,433C 276.763,435.843 276.763,438.676 275.5,441.5 Z"/></g>
<g><path style="opacity:0.955" fill="#6d6766" d="M 157.5,433.5 C 159.448,435.789 161.448,438.122 163.5,440.5C 155.193,441.498 146.86,441.831 138.5,441.5C 140.281,432.916 136.614,428.249 127.5,427.5C 122.249,427.101 119.583,429.434 119.5,434.5C 123.514,434.334 127.514,434.501 131.5,435C 126.43,437.424 121.097,438.091 115.5,437C 110.649,434.115 110.316,430.782 114.5,427C 129.548,419.933 141.715,423.1 151,436.5C 153.609,436.162 155.776,435.162 157.5,433.5 Z"/></g>
<g><path style="opacity:0.936" fill="#6c6564" d="M 312.5,299.5 C 311.834,308.494 311.5,317.66 311.5,327C 311.951,352.168 312.451,377.334 313,402.5C 313.199,411.44 314.366,420.106 316.5,428.5C 315.558,433.052 313.558,437.052 310.5,440.5C 305.26,441.449 299.927,441.782 294.5,441.5C 296.508,439.732 298.674,438.066 301,436.5C 302.197,433.911 303.197,431.244 304,428.5C 304.167,422.5 304.333,416.5 304.5,410.5C 304.496,404.128 303.829,398.128 302.5,392.5C 302.83,372.66 302.497,352.993 301.5,333.5C 305.233,322.013 308.399,310.346 311,298.5C 312.043,294.774 312.543,295.107 312.5,299.5 Z"/></g>
<g><path style="opacity:0.952" fill="#8a8988" d="M 335.5,435.5 C 335.567,436.959 335.234,438.292 334.5,439.5C 333.5,439.833 332.833,440.5 332.5,441.5C 326.833,441.5 321.167,441.5 315.5,441.5C 322.361,436.303 326.028,429.303 326.5,420.5C 327.117,420.389 327.617,420.056 328,419.5C 329.815,423.796 332.148,427.796 335,431.5C 335.49,432.793 335.657,434.127 335.5,435.5 Z"/></g>
<g><path style="opacity:0.943" fill="#6a6462" d="M 173.5,413.5 C 174.001,420.837 175.834,427.837 179,434.5C 181.464,437.481 184.297,439.814 187.5,441.5C 181.167,441.5 174.833,441.5 168.5,441.5C 165.36,437.407 164.027,432.74 164.5,427.5C 168.011,423.14 171.011,418.473 173.5,413.5 Z"/></g>
<g><path style="opacity:0.715" fill="#69615d" d="M 347.5,414.5 C 347.201,416.604 347.534,418.604 348.5,420.5C 360.111,427.555 372.778,431.221 386.5,431.5C 387.672,431.081 388.672,430.415 389.5,429.5C 391.564,431.978 393.564,431.978 395.5,429.5C 395.911,430.262 396.077,431.262 396,432.5C 398.064,430.699 399.898,428.699 401.5,426.5C 407.617,418.609 415.617,415.443 425.5,417C 427.848,417.346 429.681,418.513 431,420.5C 432.856,417.881 435.356,417.048 438.5,418C 436.899,420.549 434.899,421.716 432.5,421.5C 433.52,423.432 433.687,425.432 433,427.5C 428.102,431.862 422.769,432.529 417,429.5C 416.581,430.672 415.915,431.672 415,432.5C 414.08,429.692 414.913,427.525 417.5,426C 420.167,425.667 422.833,425.333 425.5,425C 424.672,424.085 423.672,423.419 422.5,423C 413.544,420.146 408.878,423.312 408.5,432.5C 410.681,432.284 412.347,433.117 413.5,435C 421.564,435.863 429.564,435.53 437.5,434C 440.067,431.604 442.4,429.104 444.5,426.5C 445.557,433.568 442.89,438.401 436.5,441C 402.997,441.831 369.664,441.664 336.5,440.5C 338.017,440.489 339.184,439.823 340,438.5C 342.062,436.099 343.729,433.433 345,430.5C 345.774,425.012 346.607,419.679 347.5,414.5 Z"/></g>
<g><path style="opacity:0.259" fill="#3a2c1d" d="M 119.5,371.5 C 118.103,373.379 116.437,375.046 114.5,376.5C 107.021,379.072 100.355,382.905 94.5,388C 89.08,390.481 83.4133,392.481 77.5,394C 74.7886,395.261 72.622,397.094 71,399.5C 70.6667,399.167 70.3333,398.833 70,398.5C 66.1332,400.36 63.7999,403.36 63,407.5C 59.946,409.123 60.446,409.79 64.5,409.5C 56.1183,414.958 53.2849,422.625 56,432.5C 56.4608,436.436 58.2941,439.436 61.5,441.5C 97.027,442.817 132.694,442.817 168.5,441.5C 174.833,441.5 181.167,441.5 187.5,441.5C 188.833,441.5 190.167,441.5 191.5,441.5C 192.833,441.5 194.167,441.5 195.5,441.5C 201.349,442.664 207.349,442.664 213.5,441.5C 214.167,441.5 214.833,441.5 215.5,441.5C 227.993,442.331 240.66,442.831 253.5,443C 248.622,444.11 243.455,445.277 238,446.5C 208.755,446.745 179.422,446.745 150,446.5C 130.667,447.167 111.333,447.833 92,448.5C 90.9383,447.903 89.7716,447.57 88.5,447.5C 86.5,448.167 84.5,448.833 82.5,449.5C 79.3099,448.358 76.1432,448.358 73,449.5C 60.7972,449.614 52.7972,443.947 49,432.5C 47.1743,425.793 48.6743,420.126 53.5,415.5C 50.8694,413.995 51.2027,413.329 54.5,413.5C 54.3433,412.127 54.51,410.793 55,409.5C 60.1867,405.311 65.02,400.811 69.5,396C 73.2094,393.57 77.2094,391.736 81.5,390.5C 82.086,390.709 82.586,391.043 83,391.5C 90.5439,387.642 97.7106,383.142 104.5,378C 109.719,376.317 114.719,374.15 119.5,371.5 Z"/></g>
<g><path style="opacity:0.261" fill="#372a1c" d="M 310.5,440.5 C 312.117,441.038 313.784,441.371 315.5,441.5C 321.167,441.5 326.833,441.5 332.5,441.5C 366.476,442.146 400.476,442.813 434.5,443.5C 425.608,444.18 416.774,444.846 408,445.5C 399.374,444.523 390.541,444.357 381.5,445C 371.975,446.219 362.308,447.053 352.5,447.5C 347.94,446.321 343.44,446.321 339,447.5C 338.311,446.643 337.478,445.977 336.5,445.5C 333.765,446.559 330.931,447.225 328,447.5C 322.947,447.231 318.114,446.898 313.5,446.5C 311.362,447.243 309.196,447.91 307,448.5C 292.15,447.91 277.317,446.91 262.5,445.5C 261.758,444.713 260.925,444.047 260,443.5C 258.506,444.747 257.006,444.747 255.5,443.5C 257.631,442.831 259.631,442.165 261.5,441.5C 266.167,441.5 270.833,441.5 275.5,441.5C 279.167,441.5 282.833,441.5 286.5,441.5C 289.167,441.5 291.833,441.5 294.5,441.5C 299.927,441.782 305.26,441.449 310.5,440.5 Z"/></g>
</svg>
