<?xml version="1.0" encoding="UTF-8"?>
<!DOCTYPE svg PUBLIC "-//W3C//DTD SVG 1.1//EN" "http://www.w3.org/Graphics/SVG/1.1/DTD/svg11.dtd">
<svg xmlns="http://www.w3.org/2000/svg" version="1.1" width="500px" height="500px" style="shape-rendering:geometricPrecision; text-rendering:geometricPrecision; image-rendering:optimizeQuality; fill-rule:evenodd; clip-rule:evenodd" xmlns:xlink="http://www.w3.org/1999/xlink">
<g><path style="opacity:0.03" fill="#4e3b27" d="M 455.5,323.5 C 454.167,323.833 454.167,324.167 455.5,324.5C 451.819,327.792 448.652,332.125 446,337.5C 444.243,337.133 442.743,337.966 441.5,340C 441.833,340.333 442.167,340.667 442.5,341C 440.853,342.733 439.353,344.566 438,346.5C 437.683,355.767 436.849,364.934 435.5,374C 435.833,374.333 436.167,374.667 436.5,375C 435.167,380.333 433.833,385.667 432.5,391C 432.957,391.414 433.291,391.914 433.5,392.5C 431.034,397.069 429.034,401.402 427.5,405.5C 426.167,405.833 426.167,406.167 427.5,406.5C 427.97,407.693 428.97,408.36 430.5,408.5C 436.441,408.782 442.107,410.115 447.5,412.5C 448.086,412.291 448.586,411.957 449,411.5C 450.119,412.552 450.619,413.719 450.5,415C 451.448,415.483 452.448,415.649 453.5,415.5C 453.261,418.915 453.928,422.081 455.5,425C 455.561,426.711 454.894,428.044 453.5,429C 454.167,430.333 454.833,431.667 455.5,433C 453.5,437.993 451.667,443.16 450,448.5C 446.269,453.064 441.935,454.73 437,453.5C 436.044,454.894 434.711,455.561 433,455.5C 420.737,454.459 408.403,454.459 396,455.5C 390.129,454.96 384.296,454.293 378.5,453.5C 356.888,453.301 335.221,453.635 313.5,454.5C 302.134,455.347 291.134,453.847 280.5,450C 274.466,444.436 270.633,437.602 269,429.5C 265.722,428.057 262.556,428.224 259.5,430C 261.017,436.292 260.517,442.458 258,448.5C 257.667,448.167 257.333,447.833 257,447.5C 255.887,448.76 255.72,449.927 256.5,451C 251.847,452.323 247.181,453.656 242.5,455C 212.286,454.565 181.953,454.731 151.5,455.5C 135.097,455.561 119.097,453.061 103.5,448C 90.675,440.021 84.675,428.354 85.5,413C 86.6652,405.522 87.1652,398.022 87,390.5C 81.8281,380.311 79.3281,369.478 79.5,358C 80.3344,347.485 81.3344,336.985 82.5,326.5C 80.1497,318.9 78.8164,311.066 78.5,303C 79.8611,291.907 81.5278,280.907 83.5,270C 82.2532,268.542 82.2532,267.042 83.5,265.5C 82.3887,264.389 81.722,263.055 81.5,261.5C 83.4028,257.191 82.7361,253.024 79.5,249C 76.8338,246.665 73.8338,244.831 70.5,243.5C 69.3425,239.486 67.0092,236.486 63.5,234.5C 58.0858,235.157 52.7525,234.49 47.5,232.5C 46.6143,231.675 46.281,230.675 46.5,229.5C 44.6096,229.703 43.1096,229.037 42,227.5C 36.4944,219.739 32.9944,210.739 31.5,200.5C 31.0508,195.476 31.5508,190.476 33,185.5C 34.1049,182.063 36.2716,179.563 39.5,178C 48.0515,175.859 56.3849,173.193 64.5,170C 66.7879,167.257 68.9545,164.423 71,161.5C 73.428,158.402 76.428,156.069 80,154.5C 80.6667,153.167 80.6667,151.833 80,150.5C 68.4597,138.474 65.4597,124.474 71,108.5C 73.3061,103.086 77.4728,100.253 83.5,100C 90.0042,99.0697 96.3375,99.7364 102.5,102C 104.243,103.11 105.576,104.61 106.5,106.5C 107.708,95.1675 106.208,84.1675 102,73.5C 100.545,66.5564 100.212,59.5564 101,52.5C 101.45,50.481 102.283,48.6477 103.5,47C 116.37,42.0289 128.37,43.6956 139.5,52C 160.655,71.8268 170.655,96.3268 169.5,125.5C 177.823,123.802 186.156,122.302 194.5,121C 195.296,116.119 196.463,111.286 198,106.5C 206.767,94.1626 216.601,82.6626 227.5,72C 237.833,67.3333 248.167,67.3333 258.5,72C 266.002,79.5149 273.335,87.1815 280.5,95C 280.167,95.3333 279.833,95.6667 279.5,96C 282.337,97.6721 284.67,99.8387 286.5,102.5C 287.325,103.386 288.325,103.719 289.5,103.5C 290.677,109.799 291.344,115.966 291.5,122C 291.472,126.623 290.138,130.789 287.5,134.5C 279.673,138.144 271.673,139.144 263.5,137.5C 251.192,138.711 238.859,139.711 226.5,140.5C 225.821,145.926 224.654,151.26 223,156.5C 220.301,160.19 217.635,163.857 215,167.5C 206.624,175.38 198.124,183.047 189.5,190.5C 186.855,191.192 184.355,192.192 182,193.5C 182.577,209.652 182.411,225.818 181.5,242C 181.41,249.228 181.91,256.394 183,263.5C 184.194,264.43 185.527,265.097 187,265.5C 204.408,262.924 221.908,261.758 239.5,262C 252.655,262.163 265.155,264.996 277,270.5C 278.26,265.304 279.26,259.97 280,254.5C 281,252.5 282,250.5 283,248.5C 291.167,239.667 299.333,230.833 307.5,222C 312.437,219.112 317.77,217.945 323.5,218.5C 328.709,218.231 333.709,219.064 338.5,221C 348.268,228.765 357.435,237.265 366,246.5C 367.75,249.246 368.75,252.246 369,255.5C 369.499,261.157 369.666,266.824 369.5,272.5C 373.514,272.666 377.514,272.499 381.5,272C 381.957,271.586 382.291,271.086 382.5,270.5C 378.04,244.025 378.873,217.692 385,191.5C 386.072,186.617 387.739,181.95 390,177.5C 394.66,173.832 399.993,172.166 406,172.5C 411.362,172.634 416.529,173.634 421.5,175.5C 423.654,184.089 425.487,192.755 427,201.5C 429.835,202.916 432.502,204.583 435,206.5C 437.225,210.281 438.891,214.281 440,218.5C 447.349,224.364 451.182,232.031 451.5,241.5C 455.006,242.088 457.673,243.922 459.5,247C 458.742,248.364 459.242,249.531 461,250.5C 462.213,261.457 464.046,272.79 466.5,284.5C 466.646,295.915 463.98,306.581 458.5,316.5C 458.709,317.086 459.043,317.586 459.5,318C 457.215,319.736 455.881,321.569 455.5,323.5 Z"/></g>
<g><path style="opacity:0.119" fill="#463523" d="M 116.5,51.5 C 118.617,52.773 120.784,52.773 123,51.5C 125.528,53.3452 128.361,54.5119 131.5,55C 149.535,70.2062 160.535,89.7062 164.5,113.5C 164.125,115.459 163.459,117.293 162.5,119C 164.723,120.751 165.057,122.918 163.5,125.5C 163.654,128.856 164.987,131.523 167.5,133.5C 173.629,132.181 179.462,130.181 185,127.5C 190.46,127.97 195.96,127.47 201.5,126C 204.735,123.367 205.402,120.2 203.5,116.5C 203.989,109.692 206.989,104.192 212.5,100C 212.167,99.6667 211.833,99.3333 211.5,99C 217.717,92.2749 224.384,85.9416 231.5,80C 231.167,79.6667 230.833,79.3333 230.5,79C 231.784,78.3162 232.951,78.4829 234,79.5C 239.122,74.0991 244.956,73.2658 251.5,77C 265.538,87.6568 276.371,100.49 284,115.5C 283.982,121.895 281.482,127.062 276.5,131C 272.096,132.41 267.762,132.91 263.5,132.5C 250.859,133.296 238.193,133.796 225.5,134C 223.122,134.511 220.788,135.178 218.5,136C 218.299,140.397 218.299,144.73 218.5,149C 211.292,160.212 202.626,170.212 192.5,179C 191.552,179.483 190.552,179.649 189.5,179.5C 189.719,180.675 189.386,181.675 188.5,182.5C 184.588,184.372 180.755,186.372 177,188.5C 176.699,197.499 176.866,206.499 177.5,215.5C 177.277,224.975 176.61,234.142 175.5,243C 176.167,245.667 176.833,248.333 177.5,251C 176.371,255.079 176.204,259.245 177,263.5C 177.792,265.587 178.959,267.421 180.5,269C 184.542,270.457 188.542,270.957 192.5,270.5C 209.978,266.934 227.644,265.768 245.5,267C 255.704,269.442 265.704,272.442 275.5,276C 276.667,276.5 277.5,277.333 278,278.5C 283.047,278.012 287.88,276.679 292.5,274.5C 291.974,272.77 290.974,271.436 289.5,270.5C 288.815,267.342 287.815,264.342 286.5,261.5C 288.142,256.077 290.642,251.077 294,246.5C 299.842,241.291 305.342,235.791 310.5,230C 314.397,227.871 318.397,226.038 322.5,224.5C 326.876,225.118 331.21,225.952 335.5,227C 343.33,234.51 351.163,242.677 359,251.5C 361.34,255.231 361.506,258.897 359.5,262.5C 359.709,263.086 360.043,263.586 360.5,264C 358.342,267.819 356.342,271.653 354.5,275.5C 364.732,277.468 375.065,277.968 385.5,277C 386.257,275.488 387.257,274.154 388.5,273C 388.071,264.427 386.738,255.927 384.5,247.5C 384.563,238.228 384.729,228.894 385,219.5C 386.654,213.444 388.154,207.277 389.5,201C 388.996,196.494 390.162,192.328 393,188.5C 401.829,179.976 410.162,180.309 418,189.5C 418.87,194.087 420.37,198.421 422.5,202.5C 421.674,203.451 421.508,204.451 422,205.5C 432.512,216.512 440.346,229.178 445.5,243.5C 449.466,248.722 453.132,253.722 456.5,258.5C 456.192,262.551 456.192,266.885 456.5,271.5C 458.734,276.724 460.401,281.891 461.5,287C 460.5,288 459.5,289 458.5,290C 459.706,293.793 459.706,297.627 458.5,301.5C 457.751,303.036 456.751,304.369 455.5,305.5C 456.658,309.34 455.325,312.007 451.5,313.5C 451.709,314.086 452.043,314.586 452.5,315C 449.307,320.184 446.14,325.35 443,330.5C 440.333,332.5 437.667,334.5 435,336.5C 434.071,341.026 432.571,345.36 430.5,349.5C 431.105,351.867 431.438,354.2 431.5,356.5C 429.411,358.595 429.411,360.428 431.5,362C 430.167,363.333 430.167,364.667 431.5,366C 430.692,366.308 430.025,366.808 429.5,367.5C 430.588,372.727 429.588,377.893 426.5,383C 427.357,383.689 428.023,384.522 428.5,385.5C 426.553,390.045 424.553,394.545 422.5,399C 421.98,403.849 419.646,408.016 415.5,411.5C 415.846,412.696 416.346,412.696 417,411.5C 417.483,412.448 417.649,413.448 417.5,414.5C 420.617,414.872 423.617,414.872 426.5,414.5C 426.833,415.167 427.167,415.833 427.5,416.5C 428.842,414.995 430.508,414.328 432.5,414.5C 432.329,417.797 432.995,418.131 434.5,415.5C 435.167,416.167 435.833,416.833 436.5,417.5C 437.768,416.572 439.101,416.405 440.5,417C 442.41,418.89 444.41,420.723 446.5,422.5C 445.833,423.167 445.167,423.833 444.5,424.5C 447.271,428.441 446.937,432.108 443.5,435.5C 444.167,436.167 444.833,436.833 445.5,437.5C 444.5,438.333 443.5,439.167 442.5,440C 443.167,440.333 443.833,440.667 444.5,441C 441.181,442.719 438.181,444.885 435.5,447.5C 434.808,446.975 434.308,446.308 434,445.5C 432.667,446.833 431.333,448.167 430,449.5C 421.671,447.057 413.338,447.39 405,450.5C 402.393,449.73 399.727,449.063 397,448.5C 391.532,450.033 386.199,449.699 381,447.5C 363.181,448.719 345.181,448.719 327,447.5C 324.204,448.211 321.37,448.878 318.5,449.5C 310.72,449.191 303.054,448.691 295.5,448C 289.703,446.271 284.703,443.271 280.5,439C 278.058,434.054 275.391,429.221 272.5,424.5C 270.891,423.112 269.058,422.112 267,421.5C 262.683,421.975 258.516,422.975 254.5,424.5C 252.854,426.392 252.52,428.392 253.5,430.5C 252.758,432.35 251.758,433.016 250.5,432.5C 250.977,433.478 251.643,434.311 252.5,435C 251.071,437.69 250.071,440.523 249.5,443.5C 246.376,443.943 244.043,445.61 242.5,448.5C 241.707,448.069 240.873,447.735 240,447.5C 236.106,449.631 231.939,450.631 227.5,450.5C 217.128,449.971 206.795,449.305 196.5,448.5C 176.027,448.393 155.027,448.56 133.5,449C 114.496,448.613 100.996,440.113 93,423.5C 90.655,412.714 91.8216,402.38 96.5,392.5C 95.0172,388.497 92.8505,384.83 90,381.5C 87.8795,376.306 86.0462,370.973 84.5,365.5C 85.2769,351.629 86.6103,337.629 88.5,323.5C 86.5781,316.976 85.2448,310.309 84.5,303.5C 84.7596,299.973 84.9262,296.306 85,292.5C 85.9381,288.431 87.1048,284.431 88.5,280.5C 89.2751,267.942 89.2751,255.442 88.5,243C 82.359,240.237 77.359,236.07 73.5,230.5C 66.3359,228.811 59.3359,227.311 52.5,226C 42.8498,218.163 37.8498,208.496 37.5,197C 39.4528,194.047 40.9528,190.881 42,187.5C 48.0116,180.942 55.5116,177.275 64.5,176.5C 69.1816,173.788 73.5149,170.788 77.5,167.5C 77.33,166.178 77.6634,165.011 78.5,164C 90.1045,160.952 92.6045,154.452 86,144.5C 84.9326,143.809 83.7659,143.309 82.5,143C 81.6476,140.638 80.1476,138.805 78,137.5C 77.2847,132.931 75.7847,128.597 73.5,124.5C 75.0815,117.151 78.9149,111.485 85,107.5C 87.9457,107.698 90.779,108.198 93.5,109C 98.1447,111.984 102.478,115.318 106.5,119C 108.112,119.72 109.612,119.554 111,118.5C 114.189,107.505 114.022,96.3383 110.5,85C 110.645,84.228 110.978,83.5613 111.5,83C 109.451,77.3477 108.118,71.5144 107.5,65.5C 107.278,58.6677 110.278,54.001 116.5,51.5 Z"/></g>
<g><path style="opacity:0.957" fill="#e7d4b1" d="M 126.5,64.5 C 146.25,81.3328 154.917,102.666 152.5,128.5C 150.68,137.451 149.013,146.451 147.5,155.5C 144.512,157.273 141.179,157.94 137.5,157.5C 126.95,155.854 116.283,155.187 105.5,155.5C 105.694,149.678 103.027,145.678 97.5,143.5C 93.5032,139.335 89.6699,135.002 86,130.5C 84.4511,127.688 83.6178,124.688 83.5,121.5C 85.0888,118.023 87.4222,115.023 90.5,112.5C 91.3142,114.766 91.8142,117.1 92,119.5C 92.3768,120.942 93.2101,121.942 94.5,122.5C 99.204,131.372 106.537,135.205 116.5,134C 120.6,130.89 122.767,126.723 123,121.5C 123.667,110.833 123.667,100.167 123,89.5C 122.782,84.6827 121.949,80.016 120.5,75.5C 119.523,69.342 117.19,63.6754 113.5,58.5C 113.833,58.1667 114.167,57.8333 114.5,57.5C 118.528,59.845 122.528,62.1783 126.5,64.5 Z"/></g>
<g><path style="opacity:0.419" fill="#35281b" d="M 120.5,75.5 C 121.949,80.016 122.782,84.6827 123,89.5C 123.667,100.167 123.667,110.833 123,121.5C 122.767,126.723 120.6,130.89 116.5,134C 106.537,135.205 99.204,131.372 94.5,122.5C 94.3505,121.448 94.5172,120.448 95,119.5C 107.277,132.685 116.111,130.685 121.5,113.5C 119.825,100.69 118.492,88.023 117.5,75.5C 118.5,75.5 119.5,75.5 120.5,75.5 Z"/></g>
<g><path style="opacity:0.973" fill="#ca9331" d="M 132.5,88.5 C 134.966,90.7403 136.966,93.407 138.5,96.5C 136.257,97.4742 133.924,97.8076 131.5,97.5C 131.264,94.3915 131.597,91.3915 132.5,88.5 Z"/></g>
<g><path style="opacity:0.901" fill="#5d783a" d="M 277.5,119.5 C 277.5,120.5 277.5,121.5 277.5,122.5C 273.167,122.5 268.833,122.5 264.5,122.5C 264.291,121.078 263.791,119.745 263,118.5C 259.096,114.352 255.429,110.019 252,105.5C 248.989,103.153 245.989,100.819 243,98.5C 237.03,104.811 231.364,111.478 226,118.5C 225.51,119.793 225.343,121.127 225.5,122.5C 219.794,122.829 214.128,122.495 208.5,121.5C 209.243,120.818 209.909,120.151 210.5,119.5C 215.067,114.043 219.4,108.377 223.5,102.5C 228.468,97.8774 232.968,92.8774 237,87.5C 238.739,85.2589 240.906,83.5922 243.5,82.5C 255.968,93.7511 267.301,106.084 277.5,119.5 Z"/></g>
<g><path style="opacity:0.208" fill="#3c2e1f" d="M 277.5,119.5 C 267.301,106.084 255.968,93.7511 243.5,82.5C 240.906,83.5922 238.739,85.2589 237,87.5C 232.968,92.8774 228.468,97.8774 223.5,102.5C 219.4,108.377 215.067,114.043 210.5,119.5C 209.5,119.5 208.5,119.5 207.5,119.5C 207.263,115.59 208.096,111.923 210,108.5C 216.347,99.5855 223.514,91.4188 231.5,84C 237.604,79.7353 244.104,78.902 251,81.5C 261.521,88.397 270.021,97.897 276.5,110C 275.764,112.021 276.597,113.521 279,114.5C 278.852,115.825 279.018,116.992 279.5,118C 278.956,118.717 278.289,119.217 277.5,119.5 Z"/></g>
<g><path style="opacity:0.963" fill="#cc9639" d="M 134.5,107.5 C 137.634,108.714 139.634,111.047 140.5,114.5C 137.914,115.48 135.247,115.813 132.5,115.5C 133.167,112.833 133.833,110.167 134.5,107.5 Z"/></g>
<g><path style="opacity:0.903" fill="#838c2b" d="M 264.5,122.5 C 259.5,122.5 254.5,122.5 249.5,122.5C 241.5,122.5 233.5,122.5 225.5,122.5C 225.343,121.127 225.51,119.793 226,118.5C 231.364,111.478 237.03,104.811 243,98.5C 245.989,100.819 248.989,103.153 252,105.5C 255.429,110.019 259.096,114.352 263,118.5C 263.791,119.745 264.291,121.078 264.5,122.5 Z"/></g>
<g><path style="opacity:0.209" fill="#3e2f20" d="M 207.5,138.5 C 205.265,138.795 203.265,138.461 201.5,137.5C 202.833,137.5 204.167,137.5 205.5,137.5C 205.5,136.5 205.5,135.5 205.5,134.5C 203.213,134.276 201.047,133.609 199,132.5C 186.416,132.905 174.083,136.238 162,142.5C 160.605,142.22 159.438,141.553 158.5,140.5C 157.333,136.833 156.167,133.167 155,129.5C 154.329,128.748 153.496,128.414 152.5,128.5C 154.917,102.666 146.25,81.3328 126.5,64.5C 129.639,62.1826 132.972,62.016 136.5,64C 139.372,66.5366 141.872,69.3699 144,72.5C 147.365,77.8538 150.698,83.1871 154,88.5C 160.378,102.903 162.211,117.736 159.5,133C 159.957,135.759 161.457,137.593 164,138.5C 170.101,136.202 176.268,134.035 182.5,132C 191.23,130.211 200.23,130.211 209.5,132C 208.185,133.395 208.519,134.395 210.5,135C 210.026,136.729 209.026,137.895 207.5,138.5 Z"/></g>
<g><path style="opacity:0.029" fill="#4d3a27" d="M 308.5,122.5 C 316.337,121.968 324.003,122.801 331.5,125C 338.136,130.634 344.469,136.634 350.5,143C 351.448,143.483 352.448,143.649 353.5,143.5C 353.351,144.552 353.517,145.552 354,146.5C 358.169,149.838 360.503,154.172 361,159.5C 362.394,166.884 361.228,173.717 357.5,180C 353.351,181.737 349.017,182.737 344.5,183C 328.496,183.389 312.496,183.889 296.5,184.5C 291.101,184.554 285.767,184.054 280.5,183C 278.333,182.167 276.833,180.667 276,178.5C 275.073,174.987 274.239,171.487 273.5,168C 274.167,167.667 274.833,167.333 275.5,167C 274.325,163.179 274.492,159.346 276,155.5C 283.133,144.71 291.3,134.877 300.5,126C 303.158,124.522 305.825,123.355 308.5,122.5 Z"/></g>
<g><path style="opacity:0.966" fill="#ca932f" d="M 133.5,122.5 C 135.829,124.841 137.829,127.508 139.5,130.5C 136.167,131.833 132.833,131.833 129.5,130.5C 130.424,127.591 131.757,124.924 133.5,122.5 Z"/></g>
<g><path style="opacity:0.203" fill="#3c2d1e" d="M 249.5,122.5 C 254.5,122.5 259.5,122.5 264.5,122.5C 268.833,122.5 273.167,122.5 277.5,122.5C 276.327,124.504 274.66,126.004 272.5,127C 268.905,127.584 265.405,128.418 262,129.5C 260.009,127.408 258.009,127.742 256,130.5C 253.815,128.585 251.315,128.418 248.5,130C 236.833,130.667 225.167,130.667 213.5,130C 210.307,128.974 208.974,126.808 209.5,123.5C 223.01,123.829 236.344,123.496 249.5,122.5 Z"/></g>
<g><path style="opacity:0.352" fill="#37291c" d="M 152.5,128.5 C 153.496,128.414 154.329,128.748 155,129.5C 156.167,133.167 157.333,136.833 158.5,140.5C 159.438,141.553 160.605,142.22 162,142.5C 174.083,136.238 186.416,132.905 199,132.5C 201.047,133.609 203.213,134.276 205.5,134.5C 205.5,135.5 205.5,136.5 205.5,137.5C 204.167,137.5 202.833,137.5 201.5,137.5C 191.258,137.714 181.258,139.548 171.5,143C 168.06,145.042 165.06,147.542 162.5,150.5C 157.432,154.565 153.098,159.232 149.5,164.5C 148.833,162.833 148.167,161.167 147.5,159.5C 147.5,158.167 147.5,156.833 147.5,155.5C 149.013,146.451 150.68,137.451 152.5,128.5 Z"/></g>
<g><path style="opacity:0.972" fill="#5e7b3b" d="M 348.5,165.5 C 345.5,166.167 342.5,166.833 339.5,167.5C 333.833,167.5 328.167,167.5 322.5,167.5C 327.349,166.834 332.349,166.167 337.5,165.5C 332.688,161.856 328.021,158.022 323.5,154C 321.557,152.445 319.39,151.278 317,150.5C 310.154,154.679 304.654,160.179 300.5,167C 300.728,167.399 301.062,167.565 301.5,167.5C 297.684,168.482 293.684,169.149 289.5,169.5C 288.167,169.5 287.5,168.833 287.5,167.5C 296.464,156.627 306.13,146.294 316.5,136.5C 327.536,145.697 338.202,155.364 348.5,165.5 Z"/></g>
<g><path style="opacity:0.263" fill="#3c2e1f" d="M 83.5,121.5 C 83.6178,124.688 84.4511,127.688 86,130.5C 89.6699,135.002 93.5032,139.335 97.5,143.5C 97.0618,143.435 96.7284,143.601 96.5,144C 99.0184,147.369 101.018,151.036 102.5,155C 100.959,156.579 99.7922,158.413 99,160.5C 92.6078,164.4 86.1078,168.067 79.5,171.5C 78.9087,174.614 77.242,177.114 74.5,179C 71.2899,180.201 68.6233,182.201 66.5,185C 63.5945,186.286 60.5945,187.286 57.5,188C 58.448,188.483 59.448,188.649 60.5,188.5C 57.678,189.507 54.678,190.34 51.5,191C 49.3825,192.049 47.7158,193.549 46.5,195.5C 45.9569,195.56 45.6236,195.893 45.5,196.5C 46.7629,198.029 47.7629,199.695 48.5,201.5C 50.9332,208.203 54.2665,214.369 58.5,220C 63.9143,219.366 69.2477,218.199 74.5,216.5C 76.8333,216.5 79.1667,216.5 81.5,216.5C 81.5,217.5 81.5,218.5 81.5,219.5C 81.8204,222.898 81.487,226.232 80.5,229.5C 79.3689,228.249 78.0356,227.249 76.5,226.5C 73.0101,225.632 69.6767,224.465 66.5,223C 62.793,223.289 59.1264,223.122 55.5,222.5C 53.1443,220.31 50.6443,218.31 48,216.5C 44.494,211.807 42.3274,206.473 41.5,200.5C 42.5031,197.828 43.5031,195.162 44.5,192.5C 48.2809,191.444 50.2809,188.944 50.5,185C 56.2879,183.036 61.7879,181.203 67,179.5C 72.731,175.777 77.8977,171.277 82.5,166C 85.9741,164.021 89.3074,161.855 92.5,159.5C 94.9692,156.287 95.1359,152.953 93,149.5C 90.3903,144.891 87.057,140.891 83,137.5C 80.0134,132.236 78.6801,126.569 79,120.5C 79.9147,119.672 80.5814,118.672 81,117.5C 82.0848,118.736 82.9181,120.069 83.5,121.5 Z"/></g>
<g><path style="opacity:0.969" fill="#e3d1ae" d="M 201.5,137.5 C 203.265,138.461 205.265,138.795 207.5,138.5C 209.042,139.163 210.709,139.83 212.5,140.5C 210.578,142.687 208.912,145.02 207.5,147.5C 197.516,146.537 187.516,146.37 177.5,147C 172.748,147.878 168.248,149.378 164,151.5C 163.235,151.43 162.735,151.097 162.5,150.5C 165.06,147.542 168.06,145.042 171.5,143C 181.258,139.548 191.258,137.714 201.5,137.5 Z"/></g>
<g><path style="opacity:0.976" fill="#cb9430" d="M 130.5,140.5 C 134.277,143.044 136.277,146.711 136.5,151.5C 130.996,151.932 125.663,151.265 120.5,149.5C 123.853,146.478 127.187,143.478 130.5,140.5 Z"/></g>
<g><path style="opacity:0.203" fill="#3d2e1f" d="M 348.5,165.5 C 338.202,155.364 327.536,145.697 316.5,136.5C 306.13,146.294 296.464,156.627 287.5,167.5C 286.414,167.38 285.747,166.713 285.5,165.5C 289.933,151.901 298.266,141.401 310.5,134C 314.072,132.595 317.739,132.262 321.5,133C 332.624,139.124 341.458,147.624 348,158.5C 348.311,160.556 348.811,162.556 349.5,164.5C 349.376,165.107 349.043,165.44 348.5,165.5 Z"/></g>
<g><path style="opacity:0.973" fill="#ad6816" d="M 105.5,155.5 C 116.283,155.187 126.95,155.854 137.5,157.5C 140.725,158.237 144.059,158.903 147.5,159.5C 148.167,161.167 148.833,162.833 149.5,164.5C 149.5,165.833 149.5,167.167 149.5,168.5C 135.605,163.997 121.438,163.33 107,166.5C 105.408,166.395 103.908,166.061 102.5,165.5C 102.024,161.622 103.024,158.288 105.5,155.5 Z"/></g>
<g><path style="opacity:0.98" fill="#bb935d" d="M 147.5,155.5 C 147.5,156.833 147.5,158.167 147.5,159.5C 144.059,158.903 140.725,158.237 137.5,157.5C 141.179,157.94 144.512,157.273 147.5,155.5 Z"/></g>
<g><path style="opacity:0.968" fill="#87922b" d="M 322.5,167.5 C 315.5,167.5 308.5,167.5 301.5,167.5C 301.062,167.565 300.728,167.399 300.5,167C 304.654,160.179 310.154,154.679 317,150.5C 319.39,151.278 321.557,152.445 323.5,154C 328.021,158.022 332.688,161.856 337.5,165.5C 332.349,166.167 327.349,166.834 322.5,167.5 Z"/></g>
<g><path style="opacity:0.028" fill="#4d3a27" d="M 237.5,168.5 C 244.43,168.266 251.096,169.433 257.5,172C 266.697,180.863 275.531,190.03 284,199.5C 289.99,209.868 289.823,220.035 283.5,230C 279.719,231.827 275.719,232.827 271.5,233C 250.167,233.667 228.833,233.667 207.5,233C 196.345,232.845 191.012,227.178 191.5,216C 192.125,210.515 193.625,205.349 196,200.5C 205.833,191.333 215.667,182.167 225.5,173C 229.263,170.583 233.263,169.083 237.5,168.5 Z"/></g>
<g><path style="opacity:0.208" fill="#3d2e1e" d="M 301.5,167.5 C 308.5,167.5 315.5,167.5 322.5,167.5C 328.167,167.5 333.833,167.5 339.5,167.5C 342.187,167.336 344.854,167.503 347.5,168C 345.319,171.173 342.319,173.173 338.5,174C 328.198,175.112 317.865,175.946 307.5,176.5C 303.529,175.803 299.529,175.303 295.5,175C 292.359,174.285 290.359,172.452 289.5,169.5C 293.684,169.149 297.684,168.482 301.5,167.5 Z"/></g>
<g><path style="opacity:0.964" fill="#ab6b1c" d="M 139.5,172.5 C 138.28,174.282 137.614,176.282 137.5,178.5C 136.542,178.953 135.708,179.619 135,180.5C 134.044,183.377 132.711,186.044 131,188.5C 130.329,189.252 129.496,189.586 128.5,189.5C 126.202,186.4 124.535,182.9 123.5,179C 113.92,176.162 104.254,175.829 94.5,178C 91.2902,180.375 88.6235,183.208 86.5,186.5C 84.031,189.144 81.6976,191.977 79.5,195C 77.3594,195.573 75.3594,196.406 73.5,197.5C 72.5,197.5 71.5,197.5 70.5,197.5C 69.3079,196.434 69.6412,195.601 71.5,195C 70.8333,194.667 70.1667,194.333 69.5,194C 70.5707,193.148 71.5707,192.315 72.5,191.5C 73.9217,191.291 75.255,190.791 76.5,190C 81.5,183.667 87.1667,178 93.5,173C 108.83,172.5 124.163,172.333 139.5,172.5 Z"/></g>
<g><path style="opacity:0.96" fill="#c9a570" d="M 128.5,189.5 C 128.5,189.833 128.5,190.167 128.5,190.5C 124.869,189.588 121.203,189.421 117.5,190C 112.277,191.611 107.277,193.777 102.5,196.5C 96.8022,193.656 91.4688,190.323 86.5,186.5C 88.6235,183.208 91.2902,180.375 94.5,178C 104.254,175.829 113.92,176.162 123.5,179C 124.535,182.9 126.202,186.4 128.5,189.5 Z"/></g>
<g><path style="opacity:0.323" fill="#32271a" d="M 97.5,143.5 C 103.027,145.678 105.694,149.678 105.5,155.5C 103.024,158.288 102.024,161.622 102.5,165.5C 97.5782,166.863 92.5782,168.363 87.5,170C 83.5922,174.485 79.9255,179.152 76.5,184C 71.5031,186.699 66.1698,188.199 60.5,188.5C 59.448,188.649 58.448,188.483 57.5,188C 60.5945,187.286 63.5945,186.286 66.5,185C 68.6233,182.201 71.2899,180.201 74.5,179C 77.242,177.114 78.9087,174.614 79.5,171.5C 86.1078,168.067 92.6078,164.4 99,160.5C 99.7922,158.413 100.959,156.579 102.5,155C 101.018,151.036 99.0184,147.369 96.5,144C 96.7284,143.601 97.0618,143.435 97.5,143.5 Z"/></g>
<g><path style="opacity:0.982" fill="#5f7c3c" d="M 274.5,215.5 C 274.672,216.492 274.338,217.158 273.5,217.5C 252.167,217.5 230.833,217.5 209.5,217.5C 207.801,217.66 206.134,217.494 204.5,217C 205.056,216.617 205.389,216.117 205.5,215.5C 218.095,205.077 230.261,194.077 242,182.5C 253.063,193.395 263.896,204.395 274.5,215.5 Z"/></g>
<g><path style="opacity:0.846" fill="#9f6822" d="M 72.5,191.5 C 71.5707,192.315 70.5707,193.148 69.5,194C 70.1667,194.333 70.8333,194.667 71.5,195C 69.6412,195.601 69.3079,196.434 70.5,197.5C 63.695,201.011 56.3617,202.344 48.5,201.5C 47.7629,199.695 46.7629,198.029 45.5,196.5C 45.6236,195.893 45.9569,195.56 46.5,195.5C 51.1785,195.666 55.8452,195.499 60.5,195C 64.4333,193.729 68.4333,192.562 72.5,191.5 Z"/></g>
<g><path style="opacity:0.29" fill="#3c2e1e" d="M 274.5,215.5 C 263.896,204.395 253.063,193.395 242,182.5C 230.261,194.077 218.095,205.077 205.5,215.5C 206.359,211.438 207.526,207.438 209,203.5C 216.559,194.942 225.059,187.442 234.5,181C 237.682,180.593 240.849,180.093 244,179.5C 257.521,185.685 267.854,195.352 275,208.5C 275.796,211.039 275.629,213.372 274.5,215.5 Z"/></g>
<g><path style="opacity:0.84" fill="#c9c0a2" d="M 70.5,197.5 C 71.5,197.5 72.5,197.5 73.5,197.5C 74.5363,199.428 75.0363,201.428 75,203.5C 73.6667,202.833 72.6667,201.833 72,200.5C 70.8455,201.743 69.5122,202.743 68,203.5C 67.2263,205.403 67.5596,207.07 69,208.5C 69.1019,203.701 71.2686,202.368 75.5,204.5C 74.7204,207.101 73.0537,209.101 70.5,210.5C 72.3399,212.185 73.6732,214.185 74.5,216.5C 69.2477,218.199 63.9143,219.366 58.5,220C 54.2665,214.369 50.9332,208.203 48.5,201.5C 56.3617,202.344 63.695,201.011 70.5,197.5 Z"/></g>
<g><path style="opacity:0.941" fill="#e2cfac" d="M 409.5,197.5 C 410.591,203.806 411.591,210.139 412.5,216.5C 416.603,215.769 420.103,216.769 423,219.5C 424.157,223.782 424.99,228.116 425.5,232.5C 431.963,232.633 434.963,235.966 434.5,242.5C 433.312,243.364 432.145,244.364 431,245.5C 430.549,243.071 429.715,242.904 428.5,245C 424.075,244.608 420.575,246.108 418,249.5C 417.722,248.584 417.222,247.918 416.5,247.5C 414.046,249.702 412.046,252.368 410.5,255.5C 407.544,254.486 404.877,252.986 402.5,251C 404.751,251.213 406.751,250.213 408.5,248C 407.057,246.933 405.724,245.766 404.5,244.5C 403.914,244.709 403.414,245.043 403,245.5C 402.421,247.649 401.921,249.815 401.5,252C 403.355,253.8 404.022,255.8 403.5,258C 402.056,258.781 400.723,258.614 399.5,257.5C 397.62,253.873 396.953,250.207 397.5,246.5C 398.989,246.467 400.322,245.967 401.5,245C 399.919,244.293 398.419,243.46 397,242.5C 396.501,237.511 396.334,232.511 396.5,227.5C 396.806,216.696 398.139,206.029 400.5,195.5C 401.355,192.825 402.522,190.158 404,187.5C 405.714,186.075 407.047,186.408 408,188.5C 408.181,191.695 408.681,194.695 409.5,197.5 Z"/></g>
<g><path style="opacity:0.348" fill="#32271b" d="M 207.5,147.5 C 208.625,148.348 208.625,149.348 207.5,150.5C 207.509,152.308 207.009,153.975 206,155.5C 196.603,166.905 185.436,176.071 172.5,183C 171.333,184.833 170.167,186.667 169,188.5C 169.776,210.605 169.61,232.438 168.5,254C 169.515,258.423 170.348,262.923 171,267.5C 172.166,270.503 173.833,273.17 176,275.5C 176.333,275.167 176.667,274.833 177,274.5C 178.154,275.743 179.488,276.743 181,277.5C 202.242,275.862 223.742,275.195 245.5,275.5C 245.5,276.5 245.5,277.5 245.5,278.5C 229.417,276.946 213.417,277.779 197.5,281C 189.167,281.667 180.833,281.667 172.5,281C 168.789,276.548 166.622,271.381 166,265.5C 165.229,245.821 165.395,226.155 166.5,206.5C 166.241,197.893 164.241,189.727 160.5,182C 160.905,181.055 161.572,180.388 162.5,180C 169.555,180.204 175.888,178.204 181.5,174C 191.094,165.908 199.76,157.075 207.5,147.5 Z"/></g>
<g><path style="opacity:0.792" fill="#c8b594" d="M 434.5,242.5 C 435.434,243.568 435.768,244.901 435.5,246.5C 435.082,247.222 434.416,247.722 433.5,248C 434.337,249.011 434.67,250.178 434.5,251.5C 431.951,251.441 429.951,252.441 428.5,254.5C 427.692,254.192 427.025,253.692 426.5,253C 427.451,252.282 427.617,251.449 427,250.5C 424.794,253.364 422.628,256.197 420.5,259C 419.551,259.617 418.718,259.451 418,258.5C 417.943,260.91 416.776,262.244 414.5,262.5C 415.085,257.485 415.752,252.485 416.5,247.5C 417.222,247.918 417.722,248.584 418,249.5C 420.575,246.108 424.075,244.608 428.5,245C 429.715,242.904 430.549,243.071 431,245.5C 432.145,244.364 433.312,243.364 434.5,242.5 Z"/></g>
<g><path style="opacity:0.724" fill="#c2af8f" d="M 396.5,227.5 C 396.334,232.511 396.501,237.511 397,242.5C 398.419,243.46 399.919,244.293 401.5,245C 400.322,245.967 398.989,246.467 397.5,246.5C 396.953,250.207 397.62,253.873 399.5,257.5C 400.723,258.614 402.056,258.781 403.5,258C 404.022,255.8 403.355,253.8 401.5,252C 401.921,249.815 402.421,247.649 403,245.5C 403.414,245.043 403.914,244.709 404.5,244.5C 405.724,245.766 407.057,246.933 408.5,248C 406.751,250.213 404.751,251.213 402.5,251C 404.877,252.986 407.544,254.486 410.5,255.5C 409.057,257.544 407.724,259.71 406.5,262C 410.032,270.919 412.699,271.085 414.5,262.5C 416.776,262.244 417.943,260.91 418,258.5C 418.718,259.451 419.551,259.617 420.5,259C 422.628,256.197 424.794,253.364 427,250.5C 427.617,251.449 427.451,252.282 426.5,253C 427.025,253.692 427.692,254.192 428.5,254.5C 429.951,252.441 431.951,251.441 434.5,251.5C 434.67,250.178 434.337,249.011 433.5,248C 434.416,247.722 435.082,247.222 435.5,246.5C 436.082,249.832 436.916,253.166 438,256.5C 444.454,253.245 447.62,255.412 447.5,263C 446.841,265.462 446.507,267.962 446.5,270.5C 445.732,271.263 445.232,272.263 445,273.5C 443.594,272.332 442.428,272.665 441.5,274.5C 437.614,273.412 437.614,272.579 441.5,272C 440.874,271.25 440.374,270.416 440,269.5C 439,270.833 438,270.833 437,269.5C 437.148,268.175 436.982,267.008 436.5,266C 434.527,265.505 432.527,265.338 430.5,265.5C 429.761,265.369 429.094,265.536 428.5,266C 425.892,270.113 422.559,273.279 418.5,275.5C 418.584,278.327 419.25,280.994 420.5,283.5C 418.833,283.5 417.167,283.5 415.5,283.5C 412.259,278.024 408.759,272.691 405,267.5C 402.894,264.882 400.394,262.882 397.5,261.5C 396.577,253.36 395.911,245.194 395.5,237C 395.502,233.648 395.835,230.482 396.5,227.5 Z"/></g>
<g><path style="opacity:0.83" fill="#a46d2a" d="M 416.5,247.5 C 415.752,252.485 415.085,257.485 414.5,262.5C 412.699,271.085 410.032,270.919 406.5,262C 407.724,259.71 409.057,257.544 410.5,255.5C 412.046,252.368 414.046,249.702 416.5,247.5 Z"/></g>
<g><path style="opacity:0.344" fill="#33271b" d="M 397.5,263.5 C 397.647,267.906 398.314,272.239 399.5,276.5C 399.747,277.713 400.414,278.38 401.5,278.5C 401.145,282.968 401.145,287.301 401.5,291.5C 399.188,290.68 396.854,289.847 394.5,289C 353.815,288.387 313.148,288.387 272.5,289C 265.015,283.234 256.681,279.734 247.5,278.5C 249.048,278.179 249.715,277.179 249.5,275.5C 258.892,278.108 268.059,281.442 277,285.5C 312.018,284.838 347.518,284.838 383.5,285.5C 386.807,284.35 389.974,283.017 393,281.5C 395.493,276.176 396.327,271.01 395.5,266C 396.066,265.005 396.733,264.172 397.5,263.5 Z"/></g>
<g><path style="opacity:0.514" fill="#a89478" d="M 430.5,265.5 C 432.527,265.338 434.527,265.505 436.5,266C 436.982,267.008 437.148,268.175 437,269.5C 438,270.833 439,270.833 440,269.5C 440.374,270.416 440.874,271.25 441.5,272C 437.614,272.579 437.614,273.412 441.5,274.5C 442.428,272.665 443.594,272.332 445,273.5C 445.232,272.263 445.732,271.263 446.5,270.5C 446.337,272.857 446.503,275.19 447,277.5C 448.011,276.663 449.178,276.33 450.5,276.5C 450.5,277.5 450.5,278.5 450.5,279.5C 447.14,280.21 445.307,278.876 445,275.5C 443.695,278.306 441.528,279.14 438.5,278C 436.695,277.028 435.028,275.861 433.5,274.5C 435.167,272.833 434.833,271.833 432.5,271.5C 431.01,272.84 429.344,273.84 427.5,274.5C 428.213,271.406 429.213,268.406 430.5,265.5 Z"/></g>
<g><path style="opacity:0.205" fill="#3e2f1f" d="M 207.5,150.5 C 210.819,151.319 211.319,152.986 209,155.5C 201.782,162.05 195.282,169.216 189.5,177C 184.833,180 180.167,183 175.5,186C 174.54,187.419 173.707,188.919 173,190.5C 173.235,195.407 173.069,200.24 172.5,205C 173.167,206.667 173.833,208.333 174.5,210C 173.781,214.517 173.781,219.183 174.5,224C 173.681,232.755 173.181,241.589 173,250.5C 172.176,251.808 171.676,253.308 171.5,255C 172.904,259.885 174.57,264.718 176.5,269.5C 178.336,270.919 180.336,272.086 182.5,273C 203.439,271.208 224.439,270.541 245.5,271C 254.748,271.811 263.414,274.478 271.5,279C 282.317,281.791 293.15,281.957 304,279.5C 313.06,279.849 322.227,280.515 331.5,281.5C 348.287,280.565 364.621,280.565 380.5,281.5C 390.656,280.01 393.99,274.51 390.5,265C 391.097,263.111 391.431,261.278 391.5,259.5C 389.33,255.496 388.663,251.33 389.5,247C 387.216,229.299 388.716,212.132 394,195.5C 395.711,192.745 397.878,190.411 400.5,188.5C 399.545,190.341 399.545,192.674 400.5,195.5C 398.139,206.029 396.806,216.696 396.5,227.5C 395.835,230.482 395.502,233.648 395.5,237C 395.911,245.194 396.577,253.36 397.5,261.5C 397.5,262.167 397.5,262.833 397.5,263.5C 396.733,264.172 396.066,265.005 395.5,266C 396.327,271.01 395.493,276.176 393,281.5C 389.974,283.017 386.807,284.35 383.5,285.5C 347.518,284.838 312.018,284.838 277,285.5C 268.059,281.442 258.892,278.108 249.5,275.5C 249.715,277.179 249.048,278.179 247.5,278.5C 246.833,278.5 246.167,278.5 245.5,278.5C 245.5,277.5 245.5,276.5 245.5,275.5C 223.742,275.195 202.242,275.862 181,277.5C 179.488,276.743 178.154,275.743 177,274.5C 176.667,274.833 176.333,275.167 176,275.5C 173.833,273.17 172.166,270.503 171,267.5C 170.348,262.923 169.515,258.423 168.5,254C 169.61,232.438 169.776,210.605 169,188.5C 170.167,186.667 171.333,184.833 172.5,183C 185.436,176.071 196.603,166.905 206,155.5C 207.009,153.975 207.509,152.308 207.5,150.5 Z"/></g>
<g><path style="opacity:0.934" fill="#828c2b" d="M 341.5,264.5 C 331.509,265.055 321.509,265.388 311.5,265.5C 309.284,265.725 307.617,264.892 306.5,263C 312.369,257.793 318.202,252.626 324,247.5C 324.833,247.667 325.667,247.833 326.5,248C 331.532,253.367 336.865,258.367 342.5,263C 341.944,263.383 341.611,263.883 341.5,264.5 Z"/></g>
<g><path style="opacity:0.928" fill="#5e7a3b" d="M 353.5,259.5 C 354.23,260.712 355.23,261.712 356.5,262.5C 351.523,263.407 346.523,264.073 341.5,264.5C 341.611,263.883 341.944,263.383 342.5,263C 336.865,258.367 331.532,253.367 326.5,248C 325.667,247.833 324.833,247.667 324,247.5C 318.202,252.626 312.369,257.793 306.5,263C 307.617,264.892 309.284,265.725 311.5,265.5C 305.013,266.654 298.346,266.821 291.5,266C 292.381,265.292 293.047,264.458 293.5,263.5C 302.878,252.755 312.711,242.422 323,232.5C 325.752,233.586 328.252,235.086 330.5,237C 338.035,244.702 345.702,252.202 353.5,259.5 Z"/></g>
<g><path style="opacity:0.211" fill="#3c2e1e" d="M 353.5,259.5 C 345.702,252.202 338.035,244.702 330.5,237C 328.252,235.086 325.752,233.586 323,232.5C 312.711,242.422 302.878,252.755 293.5,263.5C 292.351,263.209 291.684,262.376 291.5,261C 292.472,258.218 293.305,255.385 294,252.5C 297.667,248.167 301.333,243.833 305,239.5C 313.462,227.956 323.962,225.623 336.5,232.5C 342.152,237.652 347.652,242.985 353,248.5C 355.076,251.893 356.242,255.56 356.5,259.5C 355.5,259.5 354.5,259.5 353.5,259.5 Z"/></g>
<g><path style="opacity:0.168" fill="#3c2d1e" d="M 209.5,217.5 C 230.833,217.5 252.167,217.5 273.5,217.5C 273.489,219.017 272.823,220.184 271.5,221C 268.667,222.781 265.667,224.281 262.5,225.5C 248.925,225.588 235.258,225.422 221.5,225C 215.476,225.481 211.476,222.981 209.5,217.5 Z"/></g>
<g><path style="opacity:0.984" fill="#87932b" d="M 239.5,197.5 C 247.891,203.044 255.891,209.211 263.5,216C 249.073,216.965 234.74,216.632 220.5,215C 227.03,209.301 233.363,203.467 239.5,197.5 Z"/></g>
<g><path style="opacity:0.98" fill="#667c77" d="M 207.5,147.5 C 199.76,157.075 191.094,165.908 181.5,174C 175.888,178.204 169.555,180.204 162.5,180C 161.572,180.388 160.905,181.055 160.5,182C 164.241,189.727 166.241,197.893 166.5,206.5C 165.395,226.155 165.229,245.821 166,265.5C 166.622,271.381 168.789,276.548 172.5,281C 180.833,281.667 189.167,281.667 197.5,281C 213.417,277.779 229.417,276.946 245.5,278.5C 246.167,278.5 246.833,278.5 247.5,278.5C 256.681,279.734 265.015,283.234 272.5,289C 313.148,288.387 353.815,288.387 394.5,289C 396.854,289.847 399.188,290.68 401.5,291.5C 400.952,292.688 400.619,293.855 400.5,295C 398.527,295.495 396.527,295.662 394.5,295.5C 391.495,294.276 388.495,294.276 385.5,295.5C 384.816,299.446 384.816,303.446 385.5,307.5C 385.321,313.404 385.988,319.071 387.5,324.5C 387.5,325.833 387.5,327.167 387.5,328.5C 387.5,329.5 387.5,330.5 387.5,331.5C 384.66,331.193 383.826,329.86 385,327.5C 382.923,330.359 380.423,332.692 377.5,334.5C 376.325,333.145 375.325,333.312 374.5,335C 376.595,335.556 376.762,336.056 375,336.5C 372.641,333.966 371.474,334.633 371.5,338.5C 347.114,335.869 322.78,336.369 298.5,340C 295.035,342.463 291.869,345.296 289,348.5C 287.174,358.794 285.674,369.127 284.5,379.5C 276.436,381.422 268.103,382.088 259.5,381.5C 259.666,374.825 259.5,368.158 259,361.5C 258.617,360.944 258.117,360.611 257.5,360.5C 257.217,359.711 256.717,359.044 256,358.5C 254.631,365.264 250.965,367.264 245,364.5C 244.163,366.007 242.996,366.507 241.5,366C 243,364.5 244.5,363 246,361.5C 247.017,364.028 248.184,364.028 249.5,361.5C 249.833,362.167 250.167,362.833 250.5,363.5C 252.997,363.065 254.163,361.731 254,359.5C 252.612,360.554 251.112,360.72 249.5,360C 251.954,358.26 253.454,356.093 254,353.5C 252.89,355.037 251.39,355.703 249.5,355.5C 249.523,353.4 248.856,351.567 247.5,350C 247.989,348.862 248.322,347.695 248.5,346.5C 249.601,347.848 250.601,349.348 251.5,351C 252.5,351.167 253.5,351.333 254.5,351.5C 261.359,349.395 268.359,348.061 275.5,347.5C 275.5,344.167 275.5,340.833 275.5,337.5C 266,338.305 256.666,339.972 247.5,342.5C 248.091,341.849 248.757,341.182 249.5,340.5C 248.833,340.167 248.167,339.833 247.5,339.5C 244.554,339.888 241.721,339.888 239,339.5C 233.466,345.659 228.299,351.493 223.5,357C 225.926,356.952 228.259,357.119 230.5,357.5C 232.517,356.327 233.184,354.827 232.5,353C 233.167,352.833 233.833,352.667 234.5,352.5C 235.863,353.198 237.029,353.198 238,352.5C 238.691,354.891 239.691,354.891 241,352.5C 241.64,354.398 242.973,354.732 245,353.5C 246.404,353.509 247.57,354.009 248.5,355C 247.034,355.635 245.7,356.469 244.5,357.5C 240.571,354.73 236.904,355.063 233.5,358.5C 235.045,360.44 237.045,361.606 239.5,362C 238.484,362.519 237.818,363.353 237.5,364.5C 238.198,365.863 238.198,367.029 237.5,368C 240.154,370.072 239.82,371.739 236.5,373C 237.38,374.356 237.714,375.856 237.5,377.5C 234.398,377.154 231.565,377.821 229,379.5C 228.793,376.577 227.293,374.744 224.5,374C 225.667,373.5 226.5,372.667 227,371.5C 227.718,372.451 228.551,372.617 229.5,372C 232.665,369.49 234.665,366.324 235.5,362.5C 232.583,361.999 229.75,361.999 227,362.5C 225.291,365.712 223.791,365.878 222.5,363C 219.027,363.135 216.194,361.969 214,359.5C 213.055,359.905 212.388,360.572 212,361.5C 210.484,358.949 209.651,359.282 209.5,362.5C 206.813,362.336 204.146,362.503 201.5,363C 202.667,363.5 203.5,364.333 204,365.5C 210.102,362.659 215.602,362.992 220.5,366.5C 219.672,367.415 218.672,368.081 217.5,368.5C 214.847,366.337 211.847,365.503 208.5,366C 204.36,369.681 204.693,371.014 209.5,370C 210.047,369.075 210.713,368.242 211.5,367.5C 212.354,368.522 213.354,369.355 214.5,370C 214.167,370.333 213.833,370.667 213.5,371C 214.899,371.595 216.232,371.428 217.5,370.5C 218.5,371 219.5,371.5 220.5,372C 215.89,374.058 211.224,374.724 206.5,374C 206.957,374.414 207.291,374.914 207.5,375.5C 206.311,376.429 204.978,376.762 203.5,376.5C 203.026,380.157 201.693,380.324 199.5,377C 200.727,375.413 200.394,374.079 198.5,373C 202.361,371.665 202.361,370.499 198.5,369.5C 197.808,370.025 197.308,370.692 197,371.5C 193.738,370.159 193.238,370.492 195.5,372.5C 194.975,373.192 194.308,373.692 193.5,374C 195.167,375.167 196.833,376.333 198.5,377.5C 197.167,378.833 195.833,380.167 194.5,381.5C 195.782,384.133 197.116,384.133 198.5,381.5C 198.723,382.967 199.056,384.467 199.5,386C 197.436,387.018 197.102,388.351 198.5,390C 197.27,394.239 195.77,394.073 194,389.5C 193.075,390.047 192.242,390.713 191.5,391.5C 192.246,392.736 192.579,394.07 192.5,395.5C 190.167,395.5 187.833,395.5 185.5,395.5C 185.5,396.5 185.5,397.5 185.5,398.5C 182.833,398.5 180.167,398.5 177.5,398.5C 178.801,396.328 179.801,393.995 180.5,391.5C 181.108,391.362 183.774,391.529 188.5,392C 189.634,390.984 189.301,390.317 187.5,390C 195.768,387.554 195.435,385.054 186.5,382.5C 185.914,382.709 185.414,383.043 185,383.5C 184.261,382.426 183.261,381.759 182,381.5C 179.865,382.127 177.698,382.627 175.5,383C 177.608,383.36 179.608,384.027 181.5,385C 180.542,386.147 180.875,387.147 182.5,388C 180.833,388.667 179.167,388.667 177.5,388C 178.167,387.333 178.833,386.667 179.5,386C 175.127,383.388 171.627,384.221 169,388.5C 168.667,387.833 168.333,387.167 168,386.5C 166.644,387.38 165.144,387.714 163.5,387.5C 163.802,384.941 163.468,382.607 162.5,380.5C 162.15,369.451 162.65,358.451 164,347.5C 168.291,337.557 173.791,328.391 180.5,320C 180.37,318.941 179.87,318.108 179,317.5C 159.049,336.269 152.216,359.269 158.5,386.5C 157.683,384.031 157.183,381.365 157,378.5C 149.5,373 142,367.5 134.5,362C 129.492,358.358 127.325,353.525 128,347.5C 131.907,337.07 135.074,326.403 137.5,315.5C 137.113,313.726 136.447,312.059 135.5,310.5C 132.232,309.513 128.898,309.18 125.5,309.5C 130.84,293.317 136.507,277.15 142.5,261C 140.881,257.034 137.881,255.534 133.5,256.5C 134.317,246.232 137.15,236.566 142,227.5C 142.037,223.05 139.704,221.383 135,222.5C 130.483,222.433 126.316,223.433 122.5,225.5C 123.572,219.067 125.072,212.734 127,206.5C 128.095,201.22 128.595,195.887 128.5,190.5C 128.5,190.167 128.5,189.833 128.5,189.5C 129.496,189.586 130.329,189.252 131,188.5C 132.711,186.044 134.044,183.377 135,180.5C 135.708,179.619 136.542,178.953 137.5,178.5C 143.823,180.004 150.156,181.171 156.5,182C 159.203,178.962 162.203,176.295 165.5,174C 175.026,168.405 184.026,162.071 192.5,155C 187.27,153.163 181.937,153.163 176.5,155C 168.671,159.08 161.004,163.413 153.5,168C 148.98,170.007 144.313,171.507 139.5,172.5C 124.163,172.333 108.83,172.5 93.5,173C 87.1667,178 81.5,183.667 76.5,190C 75.255,190.791 73.9217,191.291 72.5,191.5C 68.4333,192.562 64.4333,193.729 60.5,195C 55.8452,195.499 51.1785,195.666 46.5,195.5C 47.7158,193.549 49.3825,192.049 51.5,191C 54.678,190.34 57.678,189.507 60.5,188.5C 66.1698,188.199 71.5031,186.699 76.5,184C 79.9255,179.152 83.5922,174.485 87.5,170C 92.5782,168.363 97.5782,166.863 102.5,165.5C 103.908,166.061 105.408,166.395 107,166.5C 121.438,163.33 135.605,163.997 149.5,168.5C 149.5,167.167 149.5,165.833 149.5,164.5C 153.098,159.232 157.432,154.565 162.5,150.5C 162.735,151.097 163.235,151.43 164,151.5C 168.248,149.378 172.748,147.878 177.5,147C 187.516,146.37 197.516,146.537 207.5,147.5 Z"/></g>
<g><path style="opacity:0.944" fill="#ad6818" d="M 102.5,179.5 C 111.157,182.123 111.49,185.457 103.5,189.5C 100.891,188.557 98.8908,186.89 97.5,184.5C 99.5212,183.145 101.188,181.479 102.5,179.5 Z"/></g>
<g><path style="opacity:0.977" fill="#caa675" d="M 137.5,178.5 C 137.614,176.282 138.28,174.282 139.5,172.5C 144.313,171.507 148.98,170.007 153.5,168C 161.004,163.413 168.671,159.08 176.5,155C 181.937,153.163 187.27,153.163 192.5,155C 184.026,162.071 175.026,168.405 165.5,174C 162.203,176.295 159.203,178.962 156.5,182C 150.156,181.171 143.823,180.004 137.5,178.5 Z"/></g>
<g><path style="opacity:0.915" fill="#a56416" d="M 397.5,261.5 C 400.394,262.882 402.894,264.882 405,267.5C 408.759,272.691 412.259,278.024 415.5,283.5C 424.386,297.929 428.053,313.595 426.5,330.5C 425.089,332.914 423.089,334.581 420.5,335.5C 420.587,330.463 420.254,325.463 419.5,320.5C 418.601,304.138 412.601,290.138 401.5,278.5C 400.414,278.38 399.747,277.713 399.5,276.5C 398.314,272.239 397.647,267.906 397.5,263.5C 397.5,262.833 397.5,262.167 397.5,261.5 Z"/></g>
<g><path style="opacity:0.88" fill="#9f6825" d="M 430.5,265.5 C 429.213,268.406 428.213,271.406 427.5,274.5C 425.887,278.409 424.22,282.409 422.5,286.5C 421.575,285.643 420.908,284.643 420.5,283.5C 419.25,280.994 418.584,278.327 418.5,275.5C 422.559,273.279 425.892,270.113 428.5,266C 429.094,265.536 429.761,265.369 430.5,265.5 Z"/></g>
<g><path style="opacity:0.898" fill="#d7c2a1" d="M 450.5,279.5 C 450.828,300.507 442.828,317.507 426.5,330.5C 428.053,313.595 424.386,297.929 415.5,283.5C 417.167,283.5 418.833,283.5 420.5,283.5C 420.908,284.643 421.575,285.643 422.5,286.5C 424.22,282.409 425.887,278.409 427.5,274.5C 429.344,273.84 431.01,272.84 432.5,271.5C 434.833,271.833 435.167,272.833 433.5,274.5C 435.028,275.861 436.695,277.028 438.5,278C 441.528,279.14 443.695,278.306 445,275.5C 445.307,278.876 447.14,280.21 450.5,279.5 Z"/></g>
<g><path style="opacity:0.936" fill="#ad7127" d="M 435.5,283.5 C 436.586,283.62 437.253,284.287 437.5,285.5C 435.68,292.466 433.18,299.133 430,305.5C 428.266,301.983 427.599,298.316 428,294.5C 431.138,291.208 433.638,287.542 435.5,283.5 Z"/></g>
<g><path style="opacity:0.985" fill="#d9e2ac" d="M 195.5,290.5 C 199.634,291.485 203.968,291.818 208.5,291.5C 208.5,294.5 208.5,297.5 208.5,300.5C 204.958,300.187 201.625,300.521 198.5,301.5C 197.167,301.5 195.833,301.5 194.5,301.5C 194.185,297.629 194.518,293.962 195.5,290.5 Z"/></g>
<g><path style="opacity:0.984" fill="#a2b7a8" d="M 261.5,292.5 C 265.5,292.5 269.5,292.5 273.5,292.5C 273.784,295.777 273.451,298.943 272.5,302C 268.848,302.499 265.182,302.665 261.5,302.5C 261.5,299.167 261.5,295.833 261.5,292.5 Z"/></g>
<g><path style="opacity:0.958" fill="#9db0a0" d="M 195.5,290.5 C 204.167,290.5 212.833,290.5 221.5,290.5C 221.384,293.86 221.051,297.193 220.5,300.5C 213.196,301.302 205.862,301.635 198.5,301.5C 201.625,300.521 204.958,300.187 208.5,300.5C 208.5,297.5 208.5,294.5 208.5,291.5C 203.968,291.818 199.634,291.485 195.5,290.5 Z"/></g>
<g><path style="opacity:0.972" fill="#dae1ab" d="M 252.5,292.5 C 254.948,293.473 257.615,293.806 260.5,293.5C 260.5,296.167 260.5,298.833 260.5,301.5C 256.167,301.5 251.833,301.5 247.5,301.5C 247.777,298.552 247.444,295.719 246.5,293C 248.473,292.505 250.473,292.338 252.5,292.5 Z"/></g>
<g><path style="opacity:0.959" fill="#a2b5a6" d="M 338.5,293.5 C 342.5,293.5 346.5,293.5 350.5,293.5C 349.841,296.455 349.508,299.455 349.5,302.5C 345.833,302.5 342.167,302.5 338.5,302.5C 338.5,299.5 338.5,296.5 338.5,293.5 Z"/></g>
<g><path style="opacity:0.977" fill="#d6dfaa" d="M 338.5,293.5 C 338.5,296.5 338.5,299.5 338.5,302.5C 333.833,302.5 329.167,302.5 324.5,302.5C 324.5,299.167 324.5,295.833 324.5,292.5C 329.363,292.181 334.03,292.514 338.5,293.5 Z"/></g>
<g><path style="opacity:0.943" fill="#cdd3a0" d="M 394.5,295.5 C 395.29,296.401 396.29,297.068 397.5,297.5C 398.109,306.218 394.109,309.552 385.5,307.5C 384.816,303.446 384.816,299.446 385.5,295.5C 388.495,294.276 391.495,294.276 394.5,295.5 Z"/></g>
<g><path style="opacity:0.949" fill="#bac7a0" d="M 252.5,292.5 C 255.5,292.5 258.5,292.5 261.5,292.5C 261.5,295.833 261.5,299.167 261.5,302.5C 256.637,302.819 251.97,302.486 247.5,301.5C 251.833,301.5 256.167,301.5 260.5,301.5C 260.5,298.833 260.5,296.167 260.5,293.5C 257.615,293.806 254.948,293.473 252.5,292.5 Z"/></g>
<g><path style="opacity:0.989" fill="#d8e0ab" d="M 302.5,305.5 C 302.5,308.833 302.5,312.167 302.5,315.5C 300.167,315.5 297.833,315.5 295.5,315.5C 292.843,315.838 290.51,315.171 288.5,313.5C 287.198,310.292 286.531,306.959 286.5,303.5C 291.864,304.036 297.197,304.703 302.5,305.5 Z"/></g>
<g><path style="opacity:0.985" fill="#a2b7a7" d="M 302.5,305.5 C 306.437,305.207 310.27,305.54 314,306.5C 314.062,310.148 313.895,313.815 313.5,317.5C 307.34,317.018 301.34,316.351 295.5,315.5C 297.833,315.5 300.167,315.5 302.5,315.5C 302.5,312.167 302.5,308.833 302.5,305.5 Z"/></g>
<g><path style="opacity:0.21" fill="#3f2f20" d="M 419.5,379.5 C 419.629,377.784 419.962,376.117 420.5,374.5C 421.601,362.179 421.601,349.846 420.5,337.5C 420.5,336.833 420.5,336.167 420.5,335.5C 423.089,334.581 425.089,332.914 426.5,330.5C 442.828,317.507 450.828,300.507 450.5,279.5C 450.5,278.5 450.5,277.5 450.5,276.5C 449.178,276.33 448.011,276.663 447,277.5C 446.503,275.19 446.337,272.857 446.5,270.5C 446.507,267.962 446.841,265.462 447.5,263C 447.62,255.412 444.454,253.245 438,256.5C 436.916,253.166 436.082,249.832 435.5,246.5C 435.768,244.901 435.434,243.568 434.5,242.5C 434.963,235.966 431.963,232.633 425.5,232.5C 424.99,228.116 424.157,223.782 423,219.5C 420.103,216.769 416.603,215.769 412.5,216.5C 411.591,210.139 410.591,203.806 409.5,197.5C 408.103,190.276 409.936,188.942 415,193.5C 416.27,198.707 418.104,203.707 420.5,208.5C 431.06,220.284 439.06,233.618 444.5,248.5C 446.5,250.833 448.5,253.167 450.5,255.5C 450.291,256.086 449.957,256.586 449.5,257C 452.885,261.201 453.885,265.868 452.5,271C 454.333,271.5 455.5,272.667 456,274.5C 456.287,276.891 456.787,279.224 457.5,281.5C 457.684,284.851 457.351,288.351 456.5,292C 456.252,293.716 455.585,295.216 454.5,296.5C 454.833,297.167 455.167,297.833 455.5,298.5C 454.048,301.737 452.881,305.07 452,308.5C 451.215,310.286 450.049,311.786 448.5,313C 448.957,313.414 449.291,313.914 449.5,314.5C 445.391,318.114 442.224,322.448 440,327.5C 437.36,330.975 434.193,333.808 430.5,336C 430.833,336.333 431.167,336.667 431.5,337C 429.612,339.775 428.278,342.775 427.5,346C 428.212,348.864 428.545,351.864 428.5,355C 427.689,357.105 426.689,359.105 425.5,361C 428.729,364.354 429.062,367.854 426.5,371.5C 426.886,376.484 424.886,380.484 420.5,383.5C 419.571,382.311 419.238,380.978 419.5,379.5 Z"/></g>
<g><path style="opacity:0.983" fill="#cbaa70" d="M 158.5,386.5 C 158.5,386.833 158.5,387.167 158.5,387.5C 152.021,388.491 145.354,388.824 138.5,388.5C 133.24,382.342 127.74,376.342 122,370.5C 116.349,363.867 113.516,356.2 113.5,347.5C 115.194,345.446 116.361,343.112 117,340.5C 118.526,332.091 120.36,323.757 122.5,315.5C 117.65,314.362 114.984,311.196 114.5,306C 118.167,292.858 122.5,280.024 127.5,267.5C 122.83,267.385 120.83,264.885 121.5,260C 122.93,250.015 124.93,240.182 127.5,230.5C 124.107,232.477 121.441,231.81 119.5,228.5C 120.77,227.712 121.77,226.712 122.5,225.5C 126.316,223.433 130.483,222.433 135,222.5C 139.704,221.383 142.037,223.05 142,227.5C 137.15,236.566 134.317,246.232 133.5,256.5C 137.881,255.534 140.881,257.034 142.5,261C 136.507,277.15 130.84,293.317 125.5,309.5C 128.898,309.18 132.232,309.513 135.5,310.5C 136.447,312.059 137.113,313.726 137.5,315.5C 135.074,326.403 131.907,337.07 128,347.5C 127.325,353.525 129.492,358.358 134.5,362C 142,367.5 149.5,373 157,378.5C 157.183,381.365 157.683,384.031 158.5,386.5 Z"/></g>
<g><path style="opacity:0.853" fill="#9baa9a" d="M 397.5,297.5 C 403.14,299.379 406.473,303.379 407.5,309.5C 405.317,316.473 403.317,323.473 401.5,330.5C 396.833,330.833 392.167,331.167 387.5,331.5C 387.5,330.5 387.5,329.5 387.5,328.5C 391.481,327.979 395.481,327.646 399.5,327.5C 399.5,324.167 399.5,320.833 399.5,317.5C 396.212,317.073 393.212,317.74 390.5,319.5C 389.304,319.154 389.304,318.654 390.5,318C 389.552,317.517 388.552,317.351 387.5,317.5C 387.5,319.833 387.5,322.167 387.5,324.5C 385.988,319.071 385.321,313.404 385.5,307.5C 394.109,309.552 398.109,306.218 397.5,297.5 Z"/></g>
<g><path style="opacity:0.205" fill="#3b2d1f" d="M 91.5,228.5 C 91.5,232.167 91.5,235.833 91.5,239.5C 95.3324,238.345 98.3324,236.012 100.5,232.5C 102.63,230.873 104.63,229.04 106.5,227C 107.635,226.251 108.635,226.417 109.5,227.5C 104.094,238.809 99.7604,250.476 96.5,262.5C 100.24,261.741 101.907,263.241 101.5,267C 99.3387,280.304 96.672,293.471 93.5,306.5C 94.809,308.733 96.809,310.067 99.5,310.5C 100.061,321.557 99.2279,332.557 97,343.5C 96.3333,352.5 96.3333,361.5 97,370.5C 100.36,380.693 107.194,387.36 117.5,390.5C 114.348,393.797 110.681,396.63 106.5,399C 104.641,400.558 103.141,402.391 102,404.5C 99.5218,425.697 109.022,436.864 130.5,438C 159.175,438.285 187.841,438.785 216.5,439.5C 218.167,439.5 219.833,439.5 221.5,439.5C 225.353,440.166 229.353,440.833 233.5,441.5C 225.002,444.264 216.335,444.93 207.5,443.5C 206.353,443.182 205.519,442.516 205,441.5C 204.395,443.481 203.395,443.815 202,442.5C 192.864,443.179 183.697,443.846 174.5,444.5C 170.683,443.798 166.85,443.131 163,442.5C 146.995,445.389 131.162,444.556 115.5,440C 112.346,436.938 108.679,434.605 104.5,433C 98.035,427.812 94.7017,420.978 94.5,412.5C 97.0679,404.619 99.0679,396.786 100.5,389C 91.7782,380.175 87.7782,369.508 88.5,357C 88.9722,345.945 89.9722,334.945 91.5,324C 91.6257,319.827 90.9591,315.827 89.5,312C 89.8333,311.667 90.1667,311.333 90.5,311C 88.6907,307.57 87.6907,303.903 87.5,300C 89.4071,290.539 91.0738,281.039 92.5,271.5C 91.4713,261.928 91.4713,252.428 92.5,243C 90.6789,241.257 88.6789,239.757 86.5,238.5C 85.6906,236.929 85.3573,235.262 85.5,233.5C 86.0007,230.845 87.3341,228.678 89.5,227C 90.816,226.472 91.4827,226.972 91.5,228.5 Z"/></g>
<g><path style="opacity:0.919" fill="#b5ae93" d="M 91.5,228.5 C 92.3138,230.631 92.8138,232.964 93,235.5C 93.3242,233.431 94.1575,233.098 95.5,234.5C 96.5318,231.807 98.1985,231.14 100.5,232.5C 98.3324,236.012 95.3324,238.345 91.5,239.5C 91.5,235.833 91.5,232.167 91.5,228.5 Z"/></g>
<g><path style="opacity:0.977" fill="#a3b7a8" d="M 338.5,317.5 C 343.305,316.513 348.305,316.179 353.5,316.5C 352.437,319.984 351.437,323.484 350.5,327C 346.179,327.499 341.846,327.666 337.5,327.5C 338.209,326.596 339.209,326.263 340.5,326.5C 341.055,322.988 340.388,319.988 338.5,317.5 Z"/></g>
<g><path style="opacity:0.984" fill="#a7baa8" d="M 209.5,318.5 C 208.605,321.738 208.605,324.905 209.5,328C 213.486,328.499 217.486,328.666 221.5,328.5C 212.682,329.493 203.682,329.827 194.5,329.5C 193.833,325.833 193.167,322.167 192.5,318.5C 198.167,318.5 203.833,318.5 209.5,318.5 Z"/></g>
<g><path style="opacity:0.986" fill="#d8e0ab" d="M 221.5,328.5 C 217.486,328.666 213.486,328.499 209.5,328C 208.605,324.905 208.605,321.738 209.5,318.5C 213.452,317.728 217.452,317.395 221.5,317.5C 221.5,321.167 221.5,324.833 221.5,328.5 Z"/></g>
<g><path style="opacity:0.932" fill="#9fb3a4" d="M 249.5,315.5 C 257.507,315.334 265.507,315.5 273.5,316C 275.289,319.249 275.622,322.582 274.5,326C 266.216,327.577 257.882,328.744 249.5,329.5C 248.377,324.778 248.377,320.112 249.5,315.5 Z"/></g>
<g><path style="opacity:0.982" fill="#d8e0ab" d="M 338.5,317.5 C 340.388,319.988 341.055,322.988 340.5,326.5C 339.209,326.263 338.209,326.596 337.5,327.5C 333.833,327.5 330.167,327.5 326.5,327.5C 326.784,324.223 326.451,321.057 325.5,318C 329.821,317.501 334.154,317.334 338.5,317.5 Z"/></g>
<g><path style="opacity:0.008" fill="#4f3d28" d="M 455.5,323.5 C 456.833,324.167 456.833,324.167 455.5,323.5 Z"/></g>
<g><path style="opacity:0.914" fill="#cbd09f" d="M 387.5,328.5 C 387.5,327.167 387.5,325.833 387.5,324.5C 387.5,322.167 387.5,319.833 387.5,317.5C 388.552,317.351 389.552,317.517 390.5,318C 389.304,318.654 389.304,319.154 390.5,319.5C 393.212,317.74 396.212,317.073 399.5,317.5C 399.5,320.833 399.5,324.167 399.5,327.5C 395.481,327.646 391.481,327.979 387.5,328.5 Z"/></g>
<g><path style="opacity:0.978" fill="#a2b6a7" d="M 248.5,346.5 C 248.167,345.167 247.833,343.833 247.5,342.5C 256.666,339.972 266,338.305 275.5,337.5C 275.5,340.833 275.5,344.167 275.5,347.5C 268.359,348.061 261.359,349.395 254.5,351.5C 253.5,351.333 252.5,351.167 251.5,351C 250.601,349.348 249.601,347.848 248.5,346.5 Z"/></g>
<g><path style="opacity:0.982" fill="#a4b8a8" d="M 205.5,343.5 C 205.5,346.833 205.5,350.167 205.5,353.5C 200.167,353.5 194.833,353.5 189.5,353.5C 189.216,350.223 189.549,347.057 190.5,344C 195.489,343.501 200.489,343.334 205.5,343.5 Z"/></g>
<g><path style="opacity:0.92" fill="#657872" d="M 401.5,278.5 C 412.601,290.138 418.601,304.138 419.5,320.5C 418.269,323.687 417.103,327.02 416,330.5C 413.174,332.829 410.008,334.496 406.5,335.5C 403.453,336.145 401.287,335.145 400,332.5C 398.758,333.872 397.258,334.872 395.5,335.5C 394.289,334.726 394.289,333.893 395.5,333C 394.552,332.517 393.552,332.351 392.5,332.5C 392.543,335.088 393.543,337.254 395.5,339C 392.732,342.111 390.732,345.278 389.5,348.5C 390.274,349.711 391.107,349.711 392,348.5C 394.584,340.825 396.751,341.158 398.5,349.5C 398.312,352.725 396.645,354.559 393.5,355C 396.063,355.763 396.063,356.263 393.5,356.5C 389.857,354.404 386.024,352.737 382,351.5C 381.692,352.308 381.192,352.975 380.5,353.5C 379.583,352.873 378.583,352.539 377.5,352.5C 377.685,346.872 375.685,342.205 371.5,338.5C 371.474,334.633 372.641,333.966 375,336.5C 376.762,336.056 376.595,335.556 374.5,335C 375.325,333.312 376.325,333.145 377.5,334.5C 380.423,332.692 382.923,330.359 385,327.5C 383.826,329.86 384.66,331.193 387.5,331.5C 392.167,331.167 396.833,330.833 401.5,330.5C 403.317,323.473 405.317,316.473 407.5,309.5C 406.473,303.379 403.14,299.379 397.5,297.5C 396.29,297.068 395.29,296.401 394.5,295.5C 396.527,295.662 398.527,295.495 400.5,295C 400.619,293.855 400.952,292.688 401.5,291.5C 401.145,287.301 401.145,282.968 401.5,278.5 Z"/></g>
<g><path style="opacity:0.957" fill="#ddd6b6" d="M 86.5,186.5 C 91.4688,190.323 96.8022,193.656 102.5,196.5C 107.277,193.777 112.277,191.611 117.5,190C 121.203,189.421 124.869,189.588 128.5,190.5C 128.595,195.887 128.095,201.22 127,206.5C 125.072,212.734 123.572,219.067 122.5,225.5C 121.77,226.712 120.77,227.712 119.5,228.5C 121.441,231.81 124.107,232.477 127.5,230.5C 124.93,240.182 122.93,250.015 121.5,260C 120.83,264.885 122.83,267.385 127.5,267.5C 122.5,280.024 118.167,292.858 114.5,306C 114.984,311.196 117.65,314.362 122.5,315.5C 120.36,323.757 118.526,332.091 117,340.5C 116.361,343.112 115.194,345.446 113.5,347.5C 113.516,356.2 116.349,363.867 122,370.5C 127.74,376.342 133.24,382.342 138.5,388.5C 133.489,388.334 128.489,388.501 123.5,389C 121.496,390.562 119.496,391.062 117.5,390.5C 107.194,387.36 100.36,380.693 97,370.5C 96.3333,361.5 96.3333,352.5 97,343.5C 99.2279,332.557 100.061,321.557 99.5,310.5C 96.809,310.067 94.809,308.733 93.5,306.5C 96.672,293.471 99.3387,280.304 101.5,267C 101.907,263.241 100.24,261.741 96.5,262.5C 99.7604,250.476 104.094,238.809 109.5,227.5C 108.635,226.417 107.635,226.251 106.5,227C 104.63,229.04 102.63,230.873 100.5,232.5C 98.1985,231.14 96.5318,231.807 95.5,234.5C 94.1575,233.098 93.3242,233.431 93,235.5C 92.8138,232.964 92.3138,230.631 91.5,228.5C 91.4827,226.972 90.816,226.472 89.5,227C 87.3341,228.678 86.0007,230.845 85.5,233.5C 84.5041,233.586 83.6708,233.252 83,232.5C 82.8247,227.981 82.3247,223.647 81.5,219.5C 81.5,218.5 81.5,217.5 81.5,216.5C 79.1667,216.5 76.8333,216.5 74.5,216.5C 73.6732,214.185 72.3399,212.185 70.5,210.5C 73.0537,209.101 74.7204,207.101 75.5,204.5C 71.2686,202.368 69.1019,203.701 69,208.5C 67.5596,207.07 67.2263,205.403 68,203.5C 69.5122,202.743 70.8455,201.743 72,200.5C 72.6667,201.833 73.6667,202.833 75,203.5C 75.0363,201.428 74.5363,199.428 73.5,197.5C 75.3594,196.406 77.3594,195.573 79.5,195C 81.6976,191.977 84.031,189.144 86.5,186.5 Z"/></g>
<g><path style="opacity:0.489" fill="#2c2319" d="M 162.5,380.5 C 162.5,383.167 162.5,385.833 162.5,388.5C 161.041,388.567 159.708,388.234 158.5,387.5C 158.5,387.167 158.5,386.833 158.5,386.5C 152.216,359.269 159.049,336.269 179,317.5C 179.87,318.108 180.37,318.941 180.5,320C 173.791,328.391 168.291,337.557 164,347.5C 162.65,358.451 162.15,369.451 162.5,380.5 Z"/></g>
<g><path style="opacity:0.957" fill="#d5dda8" d="M 220.5,349.5 C 220.5,350.833 220.5,352.167 220.5,353.5C 215.5,353.5 210.5,353.5 205.5,353.5C 205.5,350.167 205.5,346.833 205.5,343.5C 210.178,342.431 214.844,342.431 219.5,343.5C 220.348,345.409 220.682,347.409 220.5,349.5 Z"/></g>
<g><path style="opacity:0.958" fill="#a0af91" d="M 220.5,349.5 C 221.451,350.919 221.784,352.585 221.5,354.5C 215.974,354.821 210.64,354.488 205.5,353.5C 210.5,353.5 215.5,353.5 220.5,353.5C 220.5,352.167 220.5,350.833 220.5,349.5 Z"/></g>
<g><path style="opacity:0.855" fill="#c4bda0" d="M 420.5,337.5 C 421.601,349.846 421.601,362.179 420.5,374.5C 419.448,374.351 418.448,374.517 417.5,375C 415.5,377.667 413.5,380.333 411.5,383C 414.881,383.182 415.881,384.682 414.5,387.5C 412.556,386.811 410.556,386.311 408.5,386C 407.244,385.583 406.577,384.75 406.5,383.5C 408.454,371.326 410.288,358.992 412,346.5C 414.412,342.926 417.245,339.926 420.5,337.5 Z"/></g>
<g><path style="opacity:0.928" fill="#647873" d="M 330.5,401.5 C 332.975,402.687 333.975,404.687 333.5,407.5C 332.833,409.5 332.167,411.5 331.5,413.5C 330.454,416.19 329.454,418.857 328.5,421.5C 329.5,421.5 330.5,421.5 331.5,421.5C 331.414,422.496 331.748,423.329 332.5,424C 342.152,425.063 351.819,425.896 361.5,426.5C 362.609,427.29 363.942,427.79 365.5,428C 364.692,428.308 364.025,428.808 363.5,429.5C 366.323,433.699 365.657,434.366 361.5,431.5C 359.629,432.767 357.796,432.767 356,431.5C 355.044,432.579 354.211,433.745 353.5,435C 349.256,435.53 345.256,436.03 341.5,436.5C 339.885,435.846 338.218,435.346 336.5,435C 337.451,434.282 337.617,433.449 337,432.5C 335.363,434.81 333.196,436.31 330.5,437C 318.325,437.426 306.325,437.593 294.5,437.5C 293.448,437.649 292.448,437.483 291.5,437C 286.726,430.614 283.726,423.447 282.5,415.5C 286.209,395.037 289.042,374.37 291,353.5C 295.943,345.567 303.109,341.4 312.5,341C 322.186,340.756 331.853,340.256 341.5,339.5C 351.066,341.433 360.733,342.6 370.5,343C 371,343.5 371.5,344 372,344.5C 373.949,360.179 373.616,375.845 371,391.5C 367.372,394.49 363.205,396.323 358.5,397C 344.49,398.927 330.49,398.927 316.5,397C 314.333,396.167 312.833,394.667 312,392.5C 309.97,382.76 310.304,373.093 313,363.5C 313.645,362.354 314.478,361.354 315.5,360.5C 327.181,359.267 338.847,359.434 350.5,361C 354.562,361.891 356.562,364.391 356.5,368.5C 356.531,374.248 354.531,379.081 350.5,383C 342.395,383.934 334.395,383.601 326.5,382C 323.872,378.535 323.872,375.035 326.5,371.5C 329.862,370.1 333.029,370.433 336,372.5C 336.18,368.202 334.013,366.535 329.5,367.5C 325.82,366.765 323.32,368.099 322,371.5C 321.333,375.833 321.333,380.167 322,384.5C 323.255,385.211 324.421,386.044 325.5,387C 334.576,387.913 343.576,387.58 352.5,386C 356.21,384.777 358.71,382.277 360,378.5C 360.667,372.833 360.667,367.167 360,361.5C 359.215,359.714 358.049,358.214 356.5,357C 342.208,355.443 327.874,355.109 313.5,356C 310.537,358.875 308.704,362.375 308,366.5C 307.133,375.495 306.8,384.495 307,393.5C 309.175,396.376 311.675,398.876 314.5,401C 319.823,401.499 325.156,401.666 330.5,401.5 Z"/></g>
<g><path style="opacity:0.875" fill="#b89a65" d="M 419.5,320.5 C 420.254,325.463 420.587,330.463 420.5,335.5C 420.5,336.167 420.5,336.833 420.5,337.5C 417.245,339.926 414.412,342.926 412,346.5C 410.288,358.992 408.454,371.326 406.5,383.5C 405.566,384.568 405.232,385.901 405.5,387.5C 403.445,392.61 401.112,397.61 398.5,402.5C 396.533,402.261 394.699,402.594 393,403.5C 392.5,402.333 391.667,401.5 390.5,401C 394.272,399.611 394.272,398.611 390.5,398C 389.748,397.329 389.414,396.496 389.5,395.5C 396.797,378.264 399.963,360.264 399,341.5C 400.509,338.148 403.009,336.148 406.5,335.5C 410.008,334.496 413.174,332.829 416,330.5C 417.103,327.02 418.269,323.687 419.5,320.5 Z"/></g>
<g><path style="opacity:0.963" fill="#9c916d" d="M 284.5,379.5 C 284.795,381.735 284.461,383.735 283.5,385.5C 283.5,384.5 283.5,383.5 283.5,382.5C 275.167,382.5 266.833,382.5 258.5,382.5C 258.5,381.833 258.833,381.5 259.5,381.5C 268.103,382.088 276.436,381.422 284.5,379.5 Z"/></g>
<g><path style="opacity:0.973" fill="#cbab72" d="M 258.5,382.5 C 266.833,382.5 275.167,382.5 283.5,382.5C 283.5,383.5 283.5,384.5 283.5,385.5C 283.142,388.689 282.475,391.689 281.5,394.5C 281.5,393.5 281.5,392.5 281.5,391.5C 271.418,391.193 261.418,391.526 251.5,392.5C 253.331,388.846 255.664,385.513 258.5,382.5 Z"/></g>
<g><path style="opacity:0.472" fill="#2e251b" d="M 371.5,338.5 C 375.685,342.205 377.685,346.872 377.5,352.5C 377.667,364.505 377.5,376.505 377,388.5C 374.016,393.765 369.516,397.265 363.5,399C 352.323,399.547 341.323,400.38 330.5,401.5C 325.156,401.666 319.823,401.499 314.5,401C 311.675,398.876 309.175,396.376 307,393.5C 306.8,384.495 307.133,375.495 308,366.5C 308.704,362.375 310.537,358.875 313.5,356C 327.874,355.109 342.208,355.443 356.5,357C 358.049,358.214 359.215,359.714 360,361.5C 360.667,367.167 360.667,372.833 360,378.5C 358.71,382.277 356.21,384.777 352.5,386C 343.576,387.58 334.576,387.913 325.5,387C 324.421,386.044 323.255,385.211 322,384.5C 321.333,380.167 321.333,375.833 322,371.5C 323.32,368.099 325.82,366.765 329.5,367.5C 334.013,366.535 336.18,368.202 336,372.5C 333.029,370.433 329.862,370.1 326.5,371.5C 323.872,375.035 323.872,378.535 326.5,382C 334.395,383.601 342.395,383.934 350.5,383C 354.531,379.081 356.531,374.248 356.5,368.5C 356.562,364.391 354.562,361.891 350.5,361C 338.847,359.434 327.181,359.267 315.5,360.5C 314.478,361.354 313.645,362.354 313,363.5C 310.304,373.093 309.97,382.76 312,392.5C 312.833,394.667 314.333,396.167 316.5,397C 330.49,398.927 344.49,398.927 358.5,397C 363.205,396.323 367.372,394.49 371,391.5C 373.616,375.845 373.949,360.179 372,344.5C 371.5,344 371,343.5 370.5,343C 360.733,342.6 351.066,341.433 341.5,339.5C 331.853,340.256 322.186,340.756 312.5,341C 303.109,341.4 295.943,345.567 291,353.5C 289.042,374.37 286.209,395.037 282.5,415.5C 281.194,414.032 279.694,412.699 278,411.5C 277.517,410.552 277.351,409.552 277.5,408.5C 278.957,403.887 280.291,399.221 281.5,394.5C 282.475,391.689 283.142,388.689 283.5,385.5C 284.461,383.735 284.795,381.735 284.5,379.5C 285.674,369.127 287.174,358.794 289,348.5C 291.869,345.296 295.035,342.463 298.5,340C 322.78,336.369 347.114,335.869 371.5,338.5 Z"/></g>
<g><path style="opacity:0.578" fill="#a0957a" d="M 420.5,374.5 C 419.962,376.117 419.629,377.784 419.5,379.5C 418.469,381.961 417.802,384.627 417.5,387.5C 416.976,389.306 416.309,390.972 415.5,392.5C 414.766,391.292 414.433,389.959 414.5,388.5C 413.178,388.33 412.011,388.663 411,389.5C 409.416,388.139 407.582,387.472 405.5,387.5C 405.232,385.901 405.566,384.568 406.5,383.5C 406.577,384.75 407.244,385.583 408.5,386C 410.556,386.311 412.556,386.811 414.5,387.5C 415.881,384.682 414.881,383.182 411.5,383C 413.5,380.333 415.5,377.667 417.5,375C 418.448,374.517 419.448,374.351 420.5,374.5 Z"/></g>
<g><path style="opacity:0.941" fill="#c3a46e" d="M 254.5,381.5 C 252.518,384.81 250.185,387.81 247.5,390.5C 246.726,389.853 245.726,389.52 244.5,389.5C 241.174,390.047 237.84,390.547 234.5,391C 229.388,395.536 224.721,400.536 220.5,406C 217.386,408.854 213.719,410.021 209.5,409.5C 209.443,408.391 209.11,407.391 208.5,406.5C 214.207,401.424 218.707,395.424 222,388.5C 223.873,386.291 226.04,384.458 228.5,383C 237.098,381.624 245.765,381.124 254.5,381.5 Z"/></g>
<g><path style="opacity:0.669" fill="#627069" d="M 406.5,335.5 C 403.009,336.148 400.509,338.148 399,341.5C 399.963,360.264 396.797,378.264 389.5,395.5C 388.023,397.807 386.023,399.64 383.5,401C 378.816,402.653 374.15,403.819 369.5,404.5C 357.404,404.952 345.404,405.952 333.5,407.5C 333.975,404.687 332.975,402.687 330.5,401.5C 341.323,400.38 352.323,399.547 363.5,399C 369.516,397.265 374.016,393.765 377,388.5C 377.5,376.505 377.667,364.505 377.5,352.5C 378.583,352.539 379.583,352.873 380.5,353.5C 381.192,352.975 381.692,352.308 382,351.5C 386.024,352.737 389.857,354.404 393.5,356.5C 396.063,356.263 396.063,355.763 393.5,355C 396.645,354.559 398.312,352.725 398.5,349.5C 396.751,341.158 394.584,340.825 392,348.5C 391.107,349.711 390.274,349.711 389.5,348.5C 390.732,345.278 392.732,342.111 395.5,339C 393.543,337.254 392.543,335.088 392.5,332.5C 393.552,332.351 394.552,332.517 395.5,333C 394.289,333.893 394.289,334.726 395.5,335.5C 397.258,334.872 398.758,333.872 400,332.5C 401.287,335.145 403.453,336.145 406.5,335.5 Z"/></g>
<g><path style="opacity:0.975" fill="#657a74" d="M 247.5,342.5 C 247.833,343.833 248.167,345.167 248.5,346.5C 248.322,347.695 247.989,348.862 247.5,350C 248.856,351.567 249.523,353.4 249.5,355.5C 251.39,355.703 252.89,355.037 254,353.5C 253.454,356.093 251.954,358.26 249.5,360C 251.112,360.72 252.612,360.554 254,359.5C 254.163,361.731 252.997,363.065 250.5,363.5C 250.167,362.833 249.833,362.167 249.5,361.5C 248.184,364.028 247.017,364.028 246,361.5C 244.5,363 243,364.5 241.5,366C 242.996,366.507 244.163,366.007 245,364.5C 250.965,367.264 254.631,365.264 256,358.5C 256.717,359.044 257.217,359.711 257.5,360.5C 256.672,366.653 256.172,372.987 256,379.5C 255.722,380.416 255.222,381.082 254.5,381.5C 245.765,381.124 237.098,381.624 228.5,383C 226.04,384.458 223.873,386.291 222,388.5C 218.707,395.424 214.207,401.424 208.5,406.5C 206.81,406.856 205.81,407.856 205.5,409.5C 192.833,409.5 180.167,409.5 167.5,409.5C 156.828,409.333 146.161,409.5 135.5,410C 132.69,412.573 131.69,415.573 132.5,419C 138.157,419.499 143.824,419.666 149.5,419.5C 144.36,420.488 139.026,420.821 133.5,420.5C 133.921,422.91 135.254,424.743 137.5,426C 164.154,427.3 190.821,428.133 217.5,428.5C 213.366,429.485 209.032,429.818 204.5,429.5C 204.5,432.5 204.5,435.5 204.5,438.5C 208.702,438.183 212.702,438.517 216.5,439.5C 187.841,438.785 159.175,438.285 130.5,438C 109.022,436.864 99.5218,425.697 102,404.5C 103.141,402.391 104.641,400.558 106.5,399C 110.681,396.63 114.348,393.797 117.5,390.5C 119.496,391.062 121.496,390.562 123.5,389C 128.489,388.501 133.489,388.334 138.5,388.5C 145.354,388.824 152.021,388.491 158.5,387.5C 159.708,388.234 161.041,388.567 162.5,388.5C 162.5,385.833 162.5,383.167 162.5,380.5C 163.468,382.607 163.802,384.941 163.5,387.5C 165.144,387.714 166.644,387.38 168,386.5C 168.333,387.167 168.667,387.833 169,388.5C 171.627,384.221 175.127,383.388 179.5,386C 178.833,386.667 178.167,387.333 177.5,388C 179.167,388.667 180.833,388.667 182.5,388C 180.875,387.147 180.542,386.147 181.5,385C 179.608,384.027 177.608,383.36 175.5,383C 177.698,382.627 179.865,382.127 182,381.5C 183.261,381.759 184.261,382.426 185,383.5C 185.414,383.043 185.914,382.709 186.5,382.5C 195.435,385.054 195.768,387.554 187.5,390C 189.301,390.317 189.634,390.984 188.5,392C 183.774,391.529 181.108,391.362 180.5,391.5C 179.801,393.995 178.801,396.328 177.5,398.5C 173.197,398.735 171.53,401.069 172.5,405.5C 177.511,405.666 182.511,405.499 187.5,405C 188.627,403.247 189.627,401.413 190.5,399.5C 188.955,398.548 187.288,398.215 185.5,398.5C 185.5,397.5 185.5,396.5 185.5,395.5C 187.833,395.5 190.167,395.5 192.5,395.5C 192.579,394.07 192.246,392.736 191.5,391.5C 192.242,390.713 193.075,390.047 194,389.5C 195.77,394.073 197.27,394.239 198.5,390C 197.102,388.351 197.436,387.018 199.5,386C 199.056,384.467 198.723,382.967 198.5,381.5C 197.116,384.133 195.782,384.133 194.5,381.5C 195.833,380.167 197.167,378.833 198.5,377.5C 196.833,376.333 195.167,375.167 193.5,374C 194.308,373.692 194.975,373.192 195.5,372.5C 193.238,370.492 193.738,370.159 197,371.5C 197.308,370.692 197.808,370.025 198.5,369.5C 202.361,370.499 202.361,371.665 198.5,373C 200.394,374.079 200.727,375.413 199.5,377C 201.693,380.324 203.026,380.157 203.5,376.5C 204.978,376.762 206.311,376.429 207.5,375.5C 207.291,374.914 206.957,374.414 206.5,374C 211.224,374.724 215.89,374.058 220.5,372C 219.5,371.5 218.5,371 217.5,370.5C 216.232,371.428 214.899,371.595 213.5,371C 213.833,370.667 214.167,370.333 214.5,370C 213.354,369.355 212.354,368.522 211.5,367.5C 210.713,368.242 210.047,369.075 209.5,370C 204.693,371.014 204.36,369.681 208.5,366C 211.847,365.503 214.847,366.337 217.5,368.5C 218.672,368.081 219.672,367.415 220.5,366.5C 215.602,362.992 210.102,362.659 204,365.5C 203.5,364.333 202.667,363.5 201.5,363C 204.146,362.503 206.813,362.336 209.5,362.5C 209.651,359.282 210.484,358.949 212,361.5C 212.388,360.572 213.055,359.905 214,359.5C 216.194,361.969 219.027,363.135 222.5,363C 223.791,365.878 225.291,365.712 227,362.5C 229.75,361.999 232.583,361.999 235.5,362.5C 234.665,366.324 232.665,369.49 229.5,372C 228.551,372.617 227.718,372.451 227,371.5C 226.5,372.667 225.667,373.5 224.5,374C 227.293,374.744 228.793,376.577 229,379.5C 231.565,377.821 234.398,377.154 237.5,377.5C 237.714,375.856 237.38,374.356 236.5,373C 239.82,371.739 240.154,370.072 237.5,368C 238.198,367.029 238.198,365.863 237.5,364.5C 237.818,363.353 238.484,362.519 239.5,362C 237.045,361.606 235.045,360.44 233.5,358.5C 236.904,355.063 240.571,354.73 244.5,357.5C 245.7,356.469 247.034,355.635 248.5,355C 247.57,354.009 246.404,353.509 245,353.5C 242.973,354.732 241.64,354.398 241,352.5C 239.691,354.891 238.691,354.891 238,352.5C 237.029,353.198 235.863,353.198 234.5,352.5C 233.833,352.667 233.167,352.833 232.5,353C 233.184,354.827 232.517,356.327 230.5,357.5C 228.259,357.119 225.926,356.952 223.5,357C 228.299,351.493 233.466,345.659 239,339.5C 241.721,339.888 244.554,339.888 247.5,339.5C 248.167,339.833 248.833,340.167 249.5,340.5C 248.757,341.182 248.091,341.849 247.5,342.5 Z"/></g>
<g><path style="opacity:0.728" fill="#bdb598" d="M 405.5,387.5 C 407.582,387.472 409.416,388.139 411,389.5C 412.011,388.663 413.178,388.33 414.5,388.5C 414.433,389.959 414.766,391.292 415.5,392.5C 412.435,400.636 407.435,407.303 400.5,412.5C 397.982,411.306 397.982,410.14 400.5,409C 399.588,406.298 398.255,404.798 396.5,404.5C 397.167,403.833 397.833,403.167 398.5,402.5C 401.112,397.61 403.445,392.61 405.5,387.5 Z"/></g>
<g><path style="opacity:0.948" fill="#b4b6a0" d="M 177.5,398.5 C 180.167,398.5 182.833,398.5 185.5,398.5C 187.288,398.215 188.955,398.548 190.5,399.5C 189.627,401.413 188.627,403.247 187.5,405C 182.511,405.499 177.511,405.666 172.5,405.5C 171.53,401.069 173.197,398.735 177.5,398.5 Z"/></g>
<g><path style="opacity:0.943" fill="#d5cfb0" d="M 281.5,394.5 C 280.291,399.221 278.957,403.887 277.5,408.5C 264.938,413.182 252.272,413.516 239.5,409.5C 238.479,408.998 238.312,408.332 239,407.5C 243.408,402.602 247.574,397.602 251.5,392.5C 261.418,391.526 271.418,391.193 281.5,391.5C 281.5,392.5 281.5,393.5 281.5,394.5 Z"/></g>
<g><path style="opacity:0.881" fill="#bebaa0" d="M 198.5,399.5 C 201.572,399.183 204.572,399.516 207.5,400.5C 204.427,405.253 200.094,406.753 194.5,405C 195.965,403.226 197.298,401.392 198.5,399.5 Z"/></g>
<g><path style="opacity:0.655" fill="#a2875a" d="M 389.5,395.5 C 389.414,396.496 389.748,397.329 390.5,398C 394.272,398.611 394.272,399.611 390.5,401C 391.667,401.5 392.5,402.333 393,403.5C 394.699,402.594 396.533,402.261 398.5,402.5C 397.833,403.167 397.167,403.833 396.5,404.5C 394.127,405.839 391.793,407.172 389.5,408.5C 388.849,409.091 388.182,409.757 387.5,410.5C 383.866,409.489 380.199,409.489 376.5,410.5C 375.554,408.868 374.554,407.201 373.5,405.5C 372.311,404.571 370.978,404.238 369.5,404.5C 374.15,403.819 378.816,402.653 383.5,401C 386.023,399.64 388.023,397.807 389.5,395.5 Z"/></g>
<g><path style="opacity:0.008" fill="#503d28" d="M 427.5,405.5 C 428.833,406.167 428.833,406.167 427.5,405.5 Z"/></g>
<g><path style="opacity:0.8" fill="#b59966" d="M 369.5,404.5 C 370.978,404.238 372.311,404.571 373.5,405.5C 374.554,407.201 375.554,408.868 376.5,410.5C 361.491,411.376 346.491,412.376 331.5,413.5C 332.167,411.5 332.833,409.5 333.5,407.5C 345.404,405.952 357.404,404.952 369.5,404.5 Z"/></g>
<g><path style="opacity:0.735" fill="#a59c83" d="M 396.5,404.5 C 398.255,404.798 399.588,406.298 400.5,409C 397.982,410.14 397.982,411.306 400.5,412.5C 398.779,414.694 396.445,415.861 393.5,416C 389.179,416.499 384.846,416.666 380.5,416.5C 380.369,415.624 380.702,414.957 381.5,414.5C 386.907,416.536 391.574,415.536 395.5,411.5C 393.936,409.749 391.936,408.749 389.5,408.5C 391.793,407.172 394.127,405.839 396.5,404.5 Z"/></g>
<g><path style="opacity:0.809" fill="#cac4a6" d="M 247.5,390.5 C 242.099,398.742 236.099,406.575 229.5,414C 226.13,416.078 222.463,416.911 218.5,416.5C 215.868,413.848 213.201,413.848 210.5,416.5C 208.465,415.959 206.465,415.292 204.5,414.5C 207.379,413.92 209.046,412.253 209.5,409.5C 213.719,410.021 217.386,408.854 220.5,406C 224.721,400.536 229.388,395.536 234.5,391C 237.84,390.547 241.174,390.047 244.5,389.5C 245.726,389.52 246.726,389.853 247.5,390.5 Z"/></g>
<g><path style="opacity:0.854" fill="#c6bfa2" d="M 389.5,408.5 C 391.936,408.749 393.936,409.749 395.5,411.5C 391.574,415.536 386.907,416.536 381.5,414.5C 380.702,414.957 380.369,415.624 380.5,416.5C 371.994,417.209 363.661,418.209 355.5,419.5C 347.436,419.514 339.436,420.181 331.5,421.5C 330.5,421.5 329.5,421.5 328.5,421.5C 329.454,418.857 330.454,416.19 331.5,413.5C 346.491,412.376 361.491,411.376 376.5,410.5C 380.199,409.489 383.866,409.489 387.5,410.5C 388.182,409.757 388.849,409.091 389.5,408.5 Z"/></g>
<g><path style="opacity:0.945" fill="#d6d1b3" d="M 167.5,409.5 C 169.292,410.309 171.292,410.809 173.5,411C 171.604,412.065 171.437,412.898 173,413.5C 173.95,412.978 174.784,412.311 175.5,411.5C 176.711,412.274 176.711,413.107 175.5,414C 178.028,414.669 178.028,415.502 175.5,416.5C 174.5,413.833 173.5,413.833 172.5,416.5C 174.969,417.168 177.302,417.835 179.5,418.5C 169.503,418.916 159.503,419.25 149.5,419.5C 143.824,419.666 138.157,419.499 132.5,419C 131.69,415.573 132.69,412.573 135.5,410C 146.161,409.5 156.828,409.333 167.5,409.5 Z"/></g>
<g><path style="opacity:0.918" fill="#c9c3a6" d="M 167.5,409.5 C 180.167,409.5 192.833,409.5 205.5,409.5C 205.586,410.496 205.252,411.329 204.5,412C 203.062,412.219 201.729,412.719 200.5,413.5C 201.826,414.642 202.826,415.976 203.5,417.5C 195.521,418.224 187.521,418.558 179.5,418.5C 177.302,417.835 174.969,417.168 172.5,416.5C 173.5,413.833 174.5,413.833 175.5,416.5C 178.028,415.502 178.028,414.669 175.5,414C 176.711,413.107 176.711,412.274 175.5,411.5C 174.784,412.311 173.95,412.978 173,413.5C 171.437,412.898 171.604,412.065 173.5,411C 171.292,410.809 169.292,410.309 167.5,409.5 Z"/></g>
<g><path style="opacity:0.263" fill="#3c2e1f" d="M 417.5,387.5 C 419.167,387.5 420.833,387.5 422.5,387.5C 422.773,389.451 422.107,390.951 420.5,392C 421.815,393.395 421.481,394.395 419.5,395C 419.957,395.414 420.291,395.914 420.5,396.5C 416.804,401.876 413.471,407.543 410.5,413.5C 410.977,414.478 411.643,415.311 412.5,416C 410.668,416.748 409.001,417.748 407.5,419C 410.141,418.845 412.807,418.345 415.5,417.5C 417.459,417.875 419.293,418.541 421,419.5C 423.056,417.681 425.223,417.015 427.5,417.5C 428.59,418.727 429.924,419.56 431.5,420C 430.429,421.825 431.096,422.992 433.5,423.5C 436.64,420.623 439.307,420.957 441.5,424.5C 433.493,424.334 425.493,424.5 417.5,425C 415.292,425.191 413.292,425.691 411.5,426.5C 410.209,426.263 409.209,426.596 408.5,427.5C 401.142,427.418 393.809,427.752 386.5,428.5C 382.958,428.813 379.625,428.479 376.5,427.5C 377.552,427.649 378.552,427.483 379.5,427C 377.503,426.24 375.837,425.74 374.5,425.5C 377.389,425.124 379.389,423.624 380.5,421C 379.5,420.333 378.5,420.333 377.5,421C 378.888,421.889 378.722,422.389 377,422.5C 373.98,419.87 370.48,418.704 366.5,419C 366.833,420 367.167,421 367.5,422C 366.975,422.692 366.308,423.192 365.5,423.5C 364.269,422.349 364.269,421.183 365.5,420C 362.183,419.502 358.85,419.335 355.5,419.5C 363.661,418.209 371.994,417.209 380.5,416.5C 384.846,416.666 389.179,416.499 393.5,416C 396.445,415.861 398.779,414.694 400.5,412.5C 407.435,407.303 412.435,400.636 415.5,392.5C 416.309,390.972 416.976,389.306 417.5,387.5 Z"/></g>
<g><path style="opacity:0.259" fill="#392c1e" d="M 257.5,360.5 C 258.117,360.611 258.617,360.944 259,361.5C 259.5,368.158 259.666,374.825 259.5,381.5C 258.833,381.5 258.5,381.833 258.5,382.5C 255.664,385.513 253.331,388.846 251.5,392.5C 247.574,397.602 243.408,402.602 239,407.5C 238.312,408.332 238.479,408.998 239.5,409.5C 252.272,413.516 264.938,413.182 277.5,408.5C 277.351,409.552 277.517,410.552 278,411.5C 279.694,412.699 281.194,414.032 282.5,415.5C 283.726,423.447 286.726,430.614 291.5,437C 292.448,437.483 293.448,437.649 294.5,437.5C 326.67,437.44 359.003,437.774 391.5,438.5C 395.5,438.5 399.5,438.5 403.5,438.5C 411.534,438.302 419.534,438.635 427.5,439.5C 426.53,440.629 425.364,441.629 424,442.5C 412.831,442.861 401.665,442.861 390.5,442.5C 387.911,442.442 385.577,443.108 383.5,444.5C 381.945,444.278 380.611,443.611 379.5,442.5C 353.049,442.652 326.716,442.985 300.5,443.5C 296.308,443.045 292.642,441.545 289.5,439C 288.359,438.259 288.359,437.425 289.5,436.5C 284.348,433.111 280.848,428.445 279,422.5C 277.127,420.291 274.96,418.458 272.5,417C 265.504,416.767 258.671,416.934 252,417.5C 249.876,416.773 247.709,416.106 245.5,415.5C 244.914,415.709 244.414,416.043 244,416.5C 243.326,415.422 242.326,414.755 241,414.5C 238.403,414.94 235.903,415.607 233.5,416.5C 232.292,415.766 230.959,415.433 229.5,415.5C 229.5,416.833 229.5,418.167 229.5,419.5C 225.952,418.298 222.285,417.631 218.5,417.5C 218.5,417.167 218.5,416.833 218.5,416.5C 222.463,416.911 226.13,416.078 229.5,414C 236.099,406.575 242.099,398.742 247.5,390.5C 250.185,387.81 252.518,384.81 254.5,381.5C 255.222,381.082 255.722,380.416 256,379.5C 256.172,372.987 256.672,366.653 257.5,360.5 Z"/></g>
<g><path style="opacity:0.698" fill="#b0a68b" d="M 208.5,406.5 C 209.11,407.391 209.443,408.391 209.5,409.5C 209.046,412.253 207.379,413.92 204.5,414.5C 206.465,415.292 208.465,415.959 210.5,416.5C 213.201,413.848 215.868,413.848 218.5,416.5C 218.5,416.833 218.5,417.167 218.5,417.5C 213.5,417.5 208.5,417.5 203.5,417.5C 202.826,415.976 201.826,414.642 200.5,413.5C 201.729,412.719 203.062,412.219 204.5,412C 205.252,411.329 205.586,410.496 205.5,409.5C 205.81,407.856 206.81,406.856 208.5,406.5 Z"/></g>
<g><path style="opacity:0.431" fill="#302519" d="M 233.5,416.5 C 232.602,417.158 231.602,417.824 230.5,418.5C 235.122,420.628 235.455,422.961 231.5,425.5C 227.214,426.624 222.881,427.624 218.5,428.5C 218.167,428.5 217.833,428.5 217.5,428.5C 190.821,428.133 164.154,427.3 137.5,426C 135.254,424.743 133.921,422.91 133.5,420.5C 139.026,420.821 144.36,420.488 149.5,419.5C 159.503,419.25 169.503,418.916 179.5,418.5C 187.521,418.558 195.521,418.224 203.5,417.5C 208.5,417.5 213.5,417.5 218.5,417.5C 222.285,417.631 225.952,418.298 229.5,419.5C 229.5,418.167 229.5,416.833 229.5,415.5C 230.959,415.433 232.292,415.766 233.5,416.5 Z"/></g>
<g><path style="opacity:0.427" fill="#302519" d="M 376.5,427.5 C 371.507,427.084 366.507,426.751 361.5,426.5C 351.819,425.896 342.152,425.063 332.5,424C 331.748,423.329 331.414,422.496 331.5,421.5C 339.436,420.181 347.436,419.514 355.5,419.5C 358.85,419.335 362.183,419.502 365.5,420C 364.269,421.183 364.269,422.349 365.5,423.5C 366.308,423.192 366.975,422.692 367.5,422C 367.167,421 366.833,420 366.5,419C 370.48,418.704 373.98,419.87 377,422.5C 378.722,422.389 378.888,421.889 377.5,421C 378.5,420.333 379.5,420.333 380.5,421C 379.389,423.624 377.389,425.124 374.5,425.5C 375.837,425.74 377.503,426.24 379.5,427C 378.552,427.483 377.552,427.649 376.5,427.5 Z"/></g>
<g><path style="opacity:0.825" fill="#956a21" d="M 441.5,424.5 C 441.5,424.833 441.5,425.167 441.5,425.5C 437.902,426.983 434.069,427.649 430,427.5C 423.842,426.955 417.675,426.622 411.5,426.5C 413.292,425.691 415.292,425.191 417.5,425C 425.493,424.5 433.493,424.334 441.5,424.5 Z"/></g>
<g><path style="opacity:0.893" fill="#b27f22" d="M 231.5,425.5 C 234.833,425.5 238.167,425.5 241.5,425.5C 242.596,429.697 244.262,433.697 246.5,437.5C 238.241,439.051 229.908,439.717 221.5,439.5C 220.301,435.901 219.301,432.235 218.5,428.5C 222.881,427.624 227.214,426.624 231.5,425.5 Z"/></g>
<g><path style="opacity:0.85" fill="#5f6d66" d="M 361.5,426.5 C 366.507,426.751 371.507,427.084 376.5,427.5C 379.625,428.479 382.958,428.813 386.5,428.5C 388.196,431.85 389.863,435.183 391.5,438.5C 359.003,437.774 326.67,437.44 294.5,437.5C 306.325,437.593 318.325,437.426 330.5,437C 333.196,436.31 335.363,434.81 337,432.5C 337.617,433.449 337.451,434.282 336.5,435C 338.218,435.346 339.885,435.846 341.5,436.5C 345.256,436.03 349.256,435.53 353.5,435C 354.211,433.745 355.044,432.579 356,431.5C 357.796,432.767 359.629,432.767 361.5,431.5C 365.657,434.366 366.323,433.699 363.5,429.5C 364.025,428.808 364.692,428.308 365.5,428C 363.942,427.79 362.609,427.29 361.5,426.5 Z"/></g>
<g><path style="opacity:0.903" fill="#b68122" d="M 441.5,425.5 C 439.682,429.808 437.848,434.141 436,438.5C 433.281,439.444 430.448,439.777 427.5,439.5C 419.534,438.635 411.534,438.302 403.5,438.5C 404.973,434.749 406.64,431.083 408.5,427.5C 409.209,426.596 410.209,426.263 411.5,426.5C 417.675,426.622 423.842,426.955 430,427.5C 434.069,427.649 437.902,426.983 441.5,425.5 Z"/></g>
<g><path style="opacity:0.804" fill="#98a395" d="M 408.5,427.5 C 406.64,431.083 404.973,434.749 403.5,438.5C 399.5,438.5 395.5,438.5 391.5,438.5C 389.863,435.183 388.196,431.85 386.5,428.5C 393.809,427.752 401.142,427.418 408.5,427.5 Z"/></g>
<g><path style="opacity:0.829" fill="#9aaa99" d="M 217.5,428.5 C 217.833,428.5 218.167,428.5 218.5,428.5C 219.301,432.235 220.301,435.901 221.5,439.5C 219.833,439.5 218.167,439.5 216.5,439.5C 212.702,438.517 208.702,438.183 204.5,438.5C 204.5,435.5 204.5,432.5 204.5,429.5C 209.032,429.818 213.366,429.485 217.5,428.5 Z"/></g>
</svg>
