<?xml version="1.0" encoding="UTF-8"?>
<!DOCTYPE svg PUBLIC "-//W3C//DTD SVG 1.1//EN" "http://www.w3.org/Graphics/SVG/1.1/DTD/svg11.dtd">
<svg xmlns="http://www.w3.org/2000/svg" version="1.1" width="500px" height="500px" style="shape-rendering:geometricPrecision; text-rendering:geometricPrecision; image-rendering:optimizeQuality; fill-rule:evenodd; clip-rule:evenodd" xmlns:xlink="http://www.w3.org/1999/xlink">
<g><path style="opacity:0.031" fill="#4e3b27" d="M 297.5,37.5 C 298.5,38.8333 299.5,38.8333 300.5,37.5C 305.476,37.6464 308.976,39.9798 311,44.5C 315.1,57.5603 317.6,70.8937 318.5,84.5C 320.265,92.1518 317.931,97.9851 311.5,102C 306.897,102.892 302.397,104.059 298,105.5C 297.501,110.823 297.334,116.156 297.5,121.5C 300.662,111.179 307.662,105.346 318.5,104C 327.562,103.119 336.562,103.452 345.5,105C 351.957,106.642 357.124,110.142 361,115.5C 373.954,105.88 385.62,94.8802 396,82.5C 399.841,76.8223 403.174,70.8223 406,64.5C 407.351,62.981 408.851,61.6477 410.5,60.5C 415.708,60.1384 420.875,59.805 426,59.5C 428.668,62.4468 431.834,63.4468 435.5,62.5C 437.003,63.5901 437.336,64.7567 436.5,66C 439.062,68.7601 440.396,71.7601 440.5,75C 439.593,77.4772 439.926,80.3106 441.5,83.5C 441.167,84.1667 440.833,84.8333 440.5,85.5C 441.353,92.3278 442.353,99.1611 443.5,106C 442.823,109.987 443.156,113.987 444.5,118C 444.076,120.854 443.743,123.687 443.5,126.5C 444.385,131.801 445.052,137.135 445.5,142.5C 445.342,169.978 444.175,197.645 442,225.5C 441.31,233.255 440.143,240.922 438.5,248.5C 438.833,249.167 439.167,249.833 439.5,250.5C 437.936,257.117 436.269,263.784 434.5,270.5C 431.051,296.207 419.384,318.041 399.5,336C 392.137,341.01 384.803,346.01 377.5,351C 377.903,352.473 378.57,353.806 379.5,355C 379.167,355.333 378.833,355.667 378.5,356C 383.084,360.478 385.084,365.811 384.5,372C 385.821,374.071 386.821,376.071 387.5,378C 386.075,379.714 386.408,381.047 388.5,382C 388.167,382.333 387.833,382.667 387.5,383C 390.389,388.16 391.723,393.493 391.5,399C 390.833,400 390.167,401 389.5,402C 390.85,406.685 393.683,410.185 398,412.5C 398.725,411.941 399.558,411.608 400.5,411.5C 411.963,416.157 423.13,421.491 434,427.5C 434.72,429.112 434.554,430.612 433.5,432C 437.139,434.886 437.473,438.219 434.5,442C 435.167,443.667 435.833,445.333 436.5,447C 435.751,448.734 435.251,450.567 435,452.5C 434.333,453.833 433.667,453.833 433,452.5C 431.915,454.373 430.582,456.04 429,457.5C 428.667,457.167 428.333,456.833 428,456.5C 426.829,457.893 425.329,458.727 423.5,459C 420.318,459.407 417.151,459.907 414,460.5C 408.597,460.668 403.097,460.335 397.5,459.5C 393.3,460.137 389.134,460.804 385,461.5C 340.258,461.125 295.258,461.125 250,461.5C 244.956,460.368 239.789,459.535 234.5,459C 222.999,454.518 217.666,446.185 218.5,434C 217.87,432.108 216.87,430.441 215.5,429C 212.57,428.394 209.737,427.56 207,426.5C 203.906,426.793 202.406,428.459 202.5,431.5C 197.06,432.567 191.56,433.234 186,433.5C 181.827,433.626 177.827,432.959 174,431.5C 160.655,427.961 146.822,423.794 132.5,419C 125.388,417.805 118.388,416.139 111.5,414C 107.775,409.592 106.108,404.425 106.5,398.5C 106.673,394.459 107.173,390.459 108,386.5C 110.817,379.384 112.817,372.05 114,364.5C 116.448,360.333 118.615,356 120.5,351.5C 119.687,350.186 118.687,349.019 117.5,348C 89.3934,333.335 72.3934,311.002 66.5,281C 64.5776,279.54 63.9109,277.873 64.5,276C 62.6496,269.93 60.9829,263.764 59.5,257.5C 60.1913,254.998 59.858,252.498 58.5,250C 58.7355,249.127 59.0688,248.293 59.5,247.5C 56.3888,233.893 55.0554,220.393 55.5,207C 54.2873,195.383 53.2873,183.55 52.5,171.5C 52.319,153.45 52.819,135.116 54,116.5C 55.1403,113.238 55.3069,110.071 54.5,107C 55.5116,94.5834 57.0116,82.0834 59,69.5C 60.6179,62.6312 64.7846,59.6312 71.5,60.5C 73.1043,60.0609 74.6043,59.3943 76,58.5C 82.2959,58.2142 87.6292,60.2142 92,64.5C 102.609,85.3928 117.609,102.393 137,115.5C 145.069,106.05 155.402,102.05 168,103.5C 181.632,101.53 192.132,106.196 199.5,117.5C 200.877,115.711 201.877,113.711 202.5,111.5C 201.477,107.887 200.644,104.221 200,100.5C 195.684,98.7261 191.684,96.3927 188,93.5C 186.173,89.7185 185.173,85.7185 185,81.5C 184.46,72.4759 184.793,63.4759 186,54.5C 187.893,45.7839 193.393,41.7839 202.5,42.5C 211.136,42.1396 217.136,45.8063 220.5,53.5C 226.485,54.423 232.485,55.2563 238.5,56C 241.701,58.5427 244.867,61.0427 248,63.5C 255.894,60.6561 264.061,59.1561 272.5,59C 274.375,55.3864 275.875,51.553 277,47.5C 279.389,45.2448 280.556,42.7448 280.5,40C 282.706,38.1929 285.039,37.6929 287.5,38.5C 288.216,37.689 289.05,37.0223 290,36.5C 292.443,37.0895 294.943,37.4228 297.5,37.5 Z M 297.5,121.5 C 297.466,133.518 296.966,145.518 296,157.5C 293.084,159.013 290.418,158.68 288,156.5C 287.427,152.152 286.76,147.819 286,143.5C 285.392,141.934 284.558,140.6 283.5,139.5C 282.972,138.153 282.805,136.819 283,135.5C 289.024,131.974 293.858,127.308 297.5,121.5 Z M 326.5,366.5 C 330.49,365.824 332.157,367.49 331.5,371.5C 331.406,373.923 330.906,376.256 330,378.5C 328.286,379.925 326.953,379.592 326,377.5C 324.087,373.557 324.253,369.89 326.5,366.5 Z M 166.5,366.5 C 170.24,365.68 172.573,367.013 173.5,370.5C 173.384,374.008 172.218,377.008 170,379.5C 168.118,378.907 167.118,377.573 167,375.5C 166.502,372.518 166.335,369.518 166.5,366.5 Z"/></g>
<g><path style="opacity:0.008" fill="#4f3d28" d="M 297.5,36.5 C 298.833,37.1667 298.833,37.1667 297.5,36.5 Z"/></g>
<g><path style="opacity:0.008" fill="#4f3d28" d="M 300.5,37.5 C 299.833,36.1667 299.833,36.1667 300.5,37.5 Z"/></g>
<g><path style="opacity:0.12" fill="#443322" d="M 293.5,48.5 C 291.042,57.4528 288.709,66.4528 286.5,75.5C 277.5,75.5 268.5,75.5 259.5,75.5C 260.092,78.1272 260.425,80.7938 260.5,83.5C 258.492,84.6161 257.492,86.4494 257.5,89C 257.77,90.5143 258.103,92.0143 258.5,93.5C 258.182,94.6473 257.516,95.4806 256.5,96C 257.218,98.4607 257.885,100.961 258.5,103.5C 257.024,107.404 255.857,111.404 255,115.5C 253.104,117.53 250.937,119.197 248.5,120.5C 246.824,118.117 245.324,115.117 244,111.5C 242.595,104.863 240.762,98.3635 238.5,92C 238.816,88.9708 239.15,85.9708 239.5,83C 237.468,79.049 235.968,74.8823 235,70.5C 233.989,71.3366 232.822,71.67 231.5,71.5C 231.38,70.4138 230.713,69.7472 229.5,69.5C 222.882,71.3259 216.216,72.4925 209.5,73C 207.198,67.2608 205.198,61.4275 203.5,55.5C 206.903,54.315 209.903,55.1483 212.5,58C 218.374,59.9389 224.374,61.2723 230.5,62C 236.305,65.1419 239.805,69.9753 241,76.5C 241.07,84.0223 242.237,91.3556 244.5,98.5C 244.291,99.086 243.957,99.586 243.5,100C 245.479,103.472 247.812,106.638 250.5,109.5C 252.683,108.308 254.016,106.475 254.5,104C 253.351,102.27 253.351,100.604 254.5,99C 253.74,97.5589 253.074,96.0589 252.5,94.5C 252.312,90.7497 252.645,86.9164 253.5,83C 252.74,81.5589 252.074,80.0589 251.5,78.5C 253.711,73.9727 256.711,70.1394 260.5,67C 265.052,66.2045 269.552,65.3711 274,64.5C 274.333,65.1667 274.667,65.8333 275,66.5C 277.14,64.3604 279.306,62.1937 281.5,60C 280.524,57.8531 280.691,55.6864 282,53.5C 282.333,53.8333 282.667,54.1667 283,54.5C 284.491,52.9963 286.324,52.1629 288.5,52C 287.692,51.6924 287.025,51.1924 286.5,50.5C 288.458,47.7635 290.792,47.0969 293.5,48.5 Z"/></g>
<g><path style="opacity:0.971" fill="#c1b534" d="M 203.5,55.5 C 205.198,61.4275 207.198,67.2608 209.5,73C 216.216,72.4925 222.882,71.3259 229.5,69.5C 230.713,69.7472 231.38,70.4138 231.5,71.5C 231.334,80.5062 231.5,89.5062 232,98.5C 236.267,105.7 239.933,113.033 243,120.5C 233.718,114.219 224.718,107.552 216,100.5C 215.758,94.8333 215.925,89.1667 216.5,83.5C 211.167,83.5 205.833,83.5 200.5,83.5C 200.5,78.5 200.5,73.5 200.5,68.5C 201.485,64.3656 201.818,60.0323 201.5,55.5C 201.938,54.4937 202.604,54.4937 203.5,55.5 Z"/></g>
<g><path style="opacity:0.119" fill="#453423" d="M 201.5,55.5 C 201.818,60.0323 201.485,64.3656 200.5,68.5C 200.5,66.8333 200.5,65.1667 200.5,63.5C 197.405,63.6263 195.572,65.293 195,68.5C 194.333,71.8333 194.333,75.1667 195,78.5C 198.141,85.1342 202.475,90.8009 208,95.5C 209.834,100.662 212.501,105.328 216,109.5C 216.79,112.634 216.457,115.634 215,118.5C 209.349,123.782 205.349,130.115 203,137.5C 201.04,143.755 199.373,150.088 198,156.5C 197.092,158.439 195.592,159.439 193.5,159.5C 192.867,150.848 192.367,142.182 192,133.5C 188.027,116.12 177.527,109.287 160.5,113C 158.998,113.583 157.665,114.416 156.5,115.5C 158.086,116.66 160.086,116.827 162.5,116C 161.833,116.667 161.167,117.333 160.5,118C 165.684,118.174 170.684,118.674 175.5,119.5C 169.048,119.084 162.715,119.584 156.5,121C 152.907,123.689 151.074,127.189 151,131.5C 152.171,130.107 153.671,129.273 155.5,129C 159.027,128.192 162.36,128.359 165.5,129.5C 163.167,129.5 160.833,129.5 158.5,129.5C 158.5,131.5 158.5,133.5 158.5,135.5C 154.791,135.679 152.124,137.346 150.5,140.5C 150.565,140.938 150.399,141.272 150,141.5C 146.752,139.628 143.252,138.462 139.5,138C 136.082,134.545 132.749,131.045 129.5,127.5C 121.32,121.575 113.32,115.409 105.5,109C 103.113,103.947 99.4468,100.28 94.5,98C 94.8333,97.6667 95.1667,97.3333 95.5,97C 92.3347,92.4705 89.3347,87.9705 86.5,83.5C 84.8612,83.0742 83.5279,83.0742 82.5,83.5C 80.5093,79.8933 78.5093,76.2266 76.5,72.5C 75.0295,73.3805 74.1962,74.7139 74,76.5C 73.5034,78.8098 73.3367,81.1432 73.5,83.5C 73.1667,83.5 72.8333,83.5 72.5,83.5C 71.1667,83.5 69.8333,83.5 68.5,83.5C 67.8997,88.4995 67.2331,93.4995 66.5,98.5C 68.1329,100.387 67.7996,101.887 65.5,103C 68.1667,104.333 68.1667,105.667 65.5,107C 66.0585,107.725 66.3918,108.558 66.5,109.5C 63.8493,122.135 63.1826,134.468 64.5,146.5C 63.4277,148.717 62.7611,151.05 62.5,153.5C 63.0729,159.533 63.7396,165.533 64.5,171.5C 62.9776,173.156 63.311,174.323 65.5,175C 64.7069,176.085 64.0402,177.252 63.5,178.5C 65.4238,183.667 65.7571,188.667 64.5,193.5C 65.0253,194.192 65.6919,194.692 66.5,195C 65.0652,197.267 65.3985,199.267 67.5,201C 66.857,207.785 67.1903,214.619 68.5,221.5C 68.5142,223.593 67.8476,225.426 66.5,227C 67.6225,235.589 69.2891,244.089 71.5,252.5C 71.1107,257.844 71.9441,263.177 74,268.5C 76.3064,273.316 78.473,278.316 80.5,283.5C 79.7462,287.501 80.7462,291.168 83.5,294.5C 82.8333,295.167 82.1667,295.833 81.5,296.5C 93.501,315.996 109.834,330.83 130.5,341C 150.626,346.598 170.626,352.598 190.5,359C 196.151,361.224 197.485,364.391 194.5,368.5C 194.863,369.183 195.196,369.85 195.5,370.5C 191.808,370.324 189.808,371.991 189.5,375.5C 188.5,375.5 187.5,375.5 186.5,375.5C 184.577,382.109 182.743,388.776 181,395.5C 174.997,399.608 169.164,399.275 163.5,394.5C 159.586,389.668 155.919,384.668 152.5,379.5C 151.832,382.306 151.166,384.972 150.5,387.5C 150.666,381.491 150.499,375.491 150,369.5C 142.499,367.554 134.999,365.554 127.5,363.5C 129.071,360.769 131.405,358.935 134.5,358C 143.882,355.331 151.716,357.831 158,365.5C 159.791,370.783 161.458,376.116 163,381.5C 164.721,384.297 166.887,386.631 169.5,388.5C 171.373,389.089 173.04,388.422 174.5,386.5C 176.916,380.315 179.249,374.149 181.5,368C 181.561,366.289 180.894,364.956 179.5,364C 172.839,360.917 165.839,358.917 158.5,358C 139.435,351.801 121.435,342.801 104.5,331C 100.803,327.393 96.9693,323.893 93,320.5C 84.0121,308.01 76.5121,294.677 70.5,280.5C 70.7093,279.914 71.0426,279.414 71.5,279C 68.5315,271.624 66.5315,263.957 65.5,256C 66.2436,252.484 66.2436,249.151 65.5,246C 63.3529,242.102 62.0195,237.935 61.5,233.5C 61.7555,225.6 61.7555,217.433 61.5,209C 59.1986,205.267 58.8653,201.267 60.5,197C 58.2958,193.555 57.9625,189.888 59.5,186C 57.9852,183.431 57.3186,180.598 57.5,177.5C 57.5225,161.965 57.5225,146.631 57.5,131.5C 58.4206,123.801 59.4206,116.134 60.5,108.5C 59.3318,107.094 59.6652,105.928 61.5,105C 61.4132,102.107 61.0798,99.2733 60.5,96.5C 61.7568,92.2839 62.7568,88.1172 63.5,84C 62.2028,81.4554 62.3695,78.9554 64,76.5C 67.8699,73.322 71.8699,70.322 76,67.5C 80.3333,69.8333 84.6667,72.1667 89,74.5C 90.894,79.002 93.7273,83.3353 97.5,87.5C 98.4287,88.6888 98.762,90.0222 98.5,91.5C 101.388,91.2196 102.888,92.5529 103,95.5C 108.532,100.86 113.699,106.193 118.5,111.5C 122.497,112.981 125.83,115.481 128.5,119C 132.767,121.565 137.1,124.065 141.5,126.5C 145.747,122.332 149.414,117.498 152.5,112C 165.918,106.236 178.418,107.736 190,116.5C 193.101,122.809 195.601,129.309 197.5,136C 198.167,136.667 198.833,136.667 199.5,136C 200.843,131.99 203.009,128.49 206,125.5C 206.333,123.833 206.667,122.167 207,120.5C 209.643,119.064 211.477,116.897 212.5,114C 210.146,108.124 207.646,102.29 205,96.5C 201.231,92.6096 197.231,88.943 193,85.5C 191.081,82.4069 189.915,79.4069 189.5,76.5C 189.919,75.3279 190.585,74.3279 191.5,73.5C 190.559,73.5105 189.892,73.0105 189.5,72C 190.329,65.9795 192.662,60.6461 196.5,56C 198.134,55.5065 199.801,55.3398 201.5,55.5 Z M 166.5,366.5 C 166.335,369.518 166.502,372.518 167,375.5C 167.118,377.573 168.118,378.907 170,379.5C 172.218,377.008 173.384,374.008 173.5,370.5C 172.573,367.013 170.24,365.68 166.5,366.5 Z"/></g>
<g><path style="opacity:0.12" fill="#453423" d="M 367.5,364.5 C 363.578,365.752 359.578,366.752 355.5,367.5C 355.804,366.85 356.137,366.183 356.5,365.5C 355.478,364.646 354.645,363.646 354,362.5C 351.04,363.286 348.206,364.452 345.5,366C 342.128,373.243 338.628,380.41 335,387.5C 324.89,397.291 319.224,395.291 318,381.5C 315.197,375.866 312.864,370.199 311,364.5C 313.08,362.877 315.246,361.377 317.5,360C 334.535,354.331 351.535,348.664 368.5,343C 376.036,339.406 383.036,335.072 389.5,330C 392.884,327.748 395.717,324.914 398,321.5C 399.666,322.34 399.833,321.84 398.5,320C 401.432,318.7 403.766,316.7 405.5,314C 405.043,313.586 404.709,313.086 404.5,312.5C 408.948,304.216 413.615,296.049 418.5,288C 419.515,282.347 420.515,276.681 421.5,271C 421.192,269.541 420.525,268.374 419.5,267.5C 420.23,261.912 421.564,256.578 423.5,251.5C 425.054,250.086 426.388,248.419 427.5,246.5C 427.291,245.914 426.957,245.414 426.5,245C 428.366,241.949 429.033,238.782 428.5,235.5C 430.37,231.951 431.37,228.117 431.5,224C 431.52,217.909 431.52,211.743 431.5,205.5C 432.628,197.569 433.628,189.402 434.5,181C 433.435,177.195 433.435,173.362 434.5,169.5C 434.351,167.68 433.684,166.18 432.5,165C 433.656,162.56 433.656,160.06 432.5,157.5C 435.039,154.183 435.039,150.85 432.5,147.5C 434.246,144.733 434.579,141.899 433.5,139C 434.672,138.581 435.672,137.915 436.5,137C 436.24,134.61 436.24,132.11 436.5,129.5C 435.894,127.291 435.227,125.124 434.5,123C 434.373,121.058 434.706,119.058 435.5,117C 435.646,114.812 434.646,113.479 432.5,113C 433.733,111.302 434.4,109.302 434.5,107C 434.632,101.444 433.965,95.7773 432.5,90C 432.095,89.0546 431.428,88.3879 430.5,88C 431.293,86.9148 431.96,85.7481 432.5,84.5C 430.409,80.2973 427.409,76.964 423.5,74.5C 422.86,72.668 421.86,72.3347 420.5,73.5C 418.981,77.8712 416.981,81.8712 414.5,85.5C 412.417,86.0289 410.583,87.0289 409,88.5C 408.383,89.4491 408.549,90.2825 409.5,91C 406.207,91.2549 405.04,92.7549 406,95.5C 403.949,98.5531 401.115,100.386 397.5,101C 395.623,103.251 394.123,105.751 393,108.5C 387.975,110.737 384.142,114.237 381.5,119C 373.896,123.288 366.896,128.288 360.5,134C 357.223,135.143 353.89,135.977 350.5,136.5C 350.532,138.619 349.532,139.952 347.5,140.5C 345.874,137.378 343.208,135.712 339.5,135.5C 339.359,133.932 339.026,132.265 338.5,130.5C 336.257,129.526 333.924,129.192 331.5,129.5C 336.867,127.794 342.034,128.461 347,131.5C 346.908,125.729 344.074,121.896 338.5,120C 332.5,119.333 326.5,119.333 320.5,120C 318.34,121.332 316.34,122.832 314.5,124.5C 314.646,122.058 313.813,121.391 312,122.5C 309.896,126.482 308.396,130.648 307.5,135C 307.286,142.594 307.619,150.094 308.5,157.5C 307.903,162.129 306.237,166.295 303.5,170C 297.374,170.638 291.374,169.971 285.5,168C 282.929,167.099 280.596,165.766 278.5,164C 277.207,163.51 275.873,163.343 274.5,163.5C 274.162,160.843 274.829,158.51 276.5,156.5C 275.687,152.469 273.354,150.136 269.5,149.5C 266.253,145.912 262.92,142.245 259.5,138.5C 258.893,138.624 258.56,138.957 258.5,139.5C 257.85,139.804 257.183,140.137 256.5,140.5C 255.173,143.497 253.839,146.497 252.5,149.5C 254.015,151.265 254.682,153.265 254.5,155.5C 253.603,154.402 252.77,154.402 252,155.5C 251.433,158.168 250.933,160.834 250.5,163.5C 248.208,163.756 246.041,163.423 244,162.5C 241.354,155.322 241.521,148.156 244.5,141C 244.167,140.667 243.833,140.333 243.5,140C 245.665,137.232 247.165,134.065 248,130.5C 249.84,129.167 250.34,129.334 249.5,131C 250.448,131.483 251.448,131.649 252.5,131.5C 252.897,132.525 253.563,132.692 254.5,132C 263.5,126.167 272.5,120.333 281.5,114.5C 281.833,113 282.167,111.5 282.5,110C 281.172,102.877 280.172,95.7099 279.5,88.5C 287.833,88.5 296.167,88.5 304.5,88.5C 304.737,87.209 304.404,86.209 303.5,85.5C 303.5,84.5 303.5,83.5 303.5,82.5C 300.224,71.3315 297.557,59.9982 295.5,48.5C 296.946,47.3871 298.613,47.2204 300.5,48C 302.495,49.9947 304.495,51.9947 306.5,54C 306.265,54.8732 305.931,55.7065 305.5,56.5C 307.132,56.2385 308.299,57.2385 309,59.5C 311.988,69.3852 312.655,79.3852 311,89.5C 307.728,94.5013 303.061,97.5013 297,98.5C 295.435,99.9525 294.102,101.619 293,103.5C 292.632,106.691 291.799,110.024 290.5,113.5C 290.709,114.086 291.043,114.586 291.5,115C 285.658,122.673 278.658,129.173 270.5,134.5C 273.066,135.806 274.066,137.639 273.5,140C 274.931,140.465 276.097,141.299 277,142.5C 279.194,148.08 281.194,153.747 283,159.5C 288.767,165.325 294.767,165.659 301,160.5C 302.52,151.155 302.854,141.822 302,132.5C 302.333,132.833 302.667,133.167 303,133.5C 303.045,126.554 305.545,120.721 310.5,116C 310.167,115.667 309.833,115.333 309.5,115C 320.985,107.683 332.985,106.683 345.5,112C 349.244,115.472 351.911,119.638 353.5,124.5C 354.869,126.124 356.536,126.624 358.5,126C 361.371,124.065 364.371,122.399 367.5,121C 369.213,119.622 370.547,117.955 371.5,116C 375.71,115.757 378.377,113.59 379.5,109.5C 385.917,103.075 392.584,97.0753 399.5,91.5C 402.976,86.989 405.476,82.3224 407,77.5C 411.071,74.7323 415.404,71.7323 420,68.5C 421.261,68.7591 422.261,69.4258 423,70.5C 423.718,69.5494 424.551,69.3828 425.5,70C 424.304,70.6543 424.304,71.1543 425.5,71.5C 426.833,70.1667 428.167,70.1667 429.5,71.5C 430.711,72.2739 430.711,73.1072 429.5,74C 432.547,75.5581 434.547,78.0581 435.5,81.5C 434.669,83.6037 434.336,85.6037 434.5,87.5C 435.869,92.6664 437.202,97.833 438.5,103C 437.903,104.889 437.569,106.722 437.5,108.5C 438.115,111.039 438.782,113.539 439.5,116C 438.747,117.742 438.747,119.742 439.5,122C 439.095,122.945 438.428,123.612 437.5,124C 438.98,125.299 439.646,126.966 439.5,129C 439.339,134.024 439.005,139.024 438.5,144C 439.211,146.796 439.878,149.63 440.5,152.5C 440.349,156.235 439.682,160.068 438.5,164C 439.167,166 439.833,168 440.5,170C 439.643,170.689 438.977,171.522 438.5,172.5C 438.7,186.601 438.7,201.101 438.5,216C 436.813,223.356 435.646,230.856 435,238.5C 434.073,242.026 432.906,245.526 431.5,249C 432.878,251.098 432.544,252.932 430.5,254.5C 430.632,255.963 430.965,257.463 431.5,259C 429.136,268.36 426.97,277.526 425,286.5C 422.79,293.381 418.956,299.215 413.5,304C 413.957,304.414 414.291,304.914 414.5,305.5C 407.254,318.232 397.754,328.232 386,335.5C 377.681,342.577 368.181,347.41 357.5,350C 353.52,353.439 348.853,355.106 343.5,355C 335.32,358.461 326.986,361.461 318.5,364C 317.833,365 317.167,366 316.5,367C 318.59,373.696 320.257,380.53 321.5,387.5C 324.176,388.008 326.843,388.175 329.5,388C 330.939,387.009 331.939,385.676 332.5,384C 333.448,383.517 334.448,383.351 335.5,383.5C 336.152,377.544 337.818,371.877 340.5,366.5C 343.713,362.881 347.379,359.714 351.5,357C 357.346,356.302 362.68,357.636 367.5,361C 364.875,362.393 364.875,363.559 367.5,364.5 Z M 297.5,121.5 C 297.466,133.518 296.966,145.518 296,157.5C 293.084,159.013 290.418,158.68 288,156.5C 287.427,152.152 286.76,147.819 286,143.5C 285.392,141.934 284.558,140.6 283.5,139.5C 282.972,138.153 282.805,136.819 283,135.5C 289.024,131.974 293.858,127.308 297.5,121.5 Z M 326.5,366.5 C 324.253,369.89 324.087,373.557 326,377.5C 326.953,379.592 328.286,379.925 330,378.5C 330.906,376.256 331.406,373.923 331.5,371.5C 332.157,367.49 330.49,365.824 326.5,366.5 Z"/></g>
<g><path style="opacity:0.963" fill="#403029" d="M 82.5,83.5 C 85.6516,90.4611 89.8182,96.7945 95,102.5C 110.686,118.524 127.852,132.691 146.5,145C 160.249,153.958 174.082,162.791 188,171.5C 185.892,179.002 183.892,186.669 182,194.5C 181.333,220.167 181.333,245.833 182,271.5C 194.463,281.653 208.297,288.32 223.5,291.5C 223.83,298.532 223.497,305.532 222.5,312.5C 215.419,309.585 210.086,304.752 206.5,298C 209.158,297.927 211.824,298.26 214.5,299C 216.372,301.293 217.872,303.793 219,306.5C 219.498,303.518 219.665,300.518 219.5,297.5C 213.313,296.074 207.313,294.074 201.5,291.5C 200.386,292.723 200.219,294.056 201,295.5C 205.451,303.618 211.617,310.118 219.5,315C 222.022,316.341 224.689,317.174 227.5,317.5C 227.5,308.833 227.5,300.167 227.5,291.5C 227.666,283.826 227.5,276.159 227,268.5C 222.7,263.199 218.034,258.199 213,253.5C 211.612,237.174 210.445,220.84 209.5,204.5C 212.667,207.498 216,210.331 219.5,213C 224.823,213.499 230.156,213.666 235.5,213.5C 242.022,213.177 248.355,213.51 254.5,214.5C 252.708,214.366 251.042,214.699 249.5,215.5C 249.44,214.957 249.107,214.624 248.5,214.5C 241.09,220.288 233.59,225.955 226,231.5C 225.333,237.167 225.333,242.833 226,248.5C 230.48,252.737 235.147,256.737 240,260.5C 240.5,282.831 240.667,305.164 240.5,327.5C 233.565,326.201 226.898,324.034 220.5,321C 214.604,317.553 208.604,314.386 202.5,311.5C 195.857,306.531 189.19,301.531 182.5,296.5C 178.197,293.029 174.364,289.029 171,284.5C 169.107,279.692 168.273,274.692 168.5,269.5C 168.333,243.498 168.5,217.498 169,191.5C 169.418,187.822 169.918,184.155 170.5,180.5C 170.36,178.97 169.693,177.97 168.5,177.5C 159.393,173.111 150.726,167.945 142.5,162C 124.463,149.379 107.629,135.212 92,119.5C 83.4169,108.666 77.2503,96.6656 73.5,83.5C 73.3367,81.1432 73.5034,78.8098 74,76.5C 74.1962,74.7139 75.0295,73.3805 76.5,72.5C 78.5093,76.2266 80.5093,79.8933 82.5,83.5 Z"/></g>
<g><path style="opacity:0.934" fill="#c2b634" d="M 303.5,82.5 C 303.5,83.5 303.5,84.5 303.5,85.5C 300.232,86.8222 296.565,87.4888 292.5,87.5C 288.053,87.6039 283.72,87.1039 279.5,86C 280.641,85.2588 280.641,84.4255 279.5,83.5C 281.833,82.8333 284.167,82.1667 286.5,81.5C 287.833,80.5 287.833,79.5 286.5,78.5C 288.392,77.5266 290.392,76.8599 292.5,76.5C 295.758,79.1428 299.424,81.1428 303.5,82.5 Z"/></g>
<g><path style="opacity:0.784" fill="#b2a532" d="M 293.5,48.5 C 294.167,48.5 294.833,48.5 295.5,48.5C 297.557,59.9982 300.224,71.3315 303.5,82.5C 299.424,81.1428 295.758,79.1428 292.5,76.5C 290.392,76.8599 288.392,77.5266 286.5,78.5C 287.833,79.5 287.833,80.5 286.5,81.5C 284.167,82.1667 281.833,82.8333 279.5,83.5C 280.641,84.4255 280.641,85.2588 279.5,86C 283.72,87.1039 288.053,87.6039 292.5,87.5C 296.565,87.4888 300.232,86.8222 303.5,85.5C 304.404,86.209 304.737,87.209 304.5,88.5C 296.167,88.5 287.833,88.5 279.5,88.5C 278.909,87.8485 278.243,87.1818 277.5,86.5C 278.052,84.9974 278.052,83.3307 277.5,81.5C 274.61,81.278 271.943,81.9447 269.5,83.5C 266.127,80.593 263.794,81.2596 262.5,85.5C 261.833,84.8333 261.167,84.1667 260.5,83.5C 260.425,80.7938 260.092,78.1272 259.5,75.5C 268.5,75.5 277.5,75.5 286.5,75.5C 288.709,66.4528 291.042,57.4528 293.5,48.5 Z"/></g>
<g><path style="opacity:0.939" fill="#c2b535" d="M 279.5,88.5 C 276.63,89.0781 274.963,90.7448 274.5,93.5C 276.199,93.3398 277.866,93.5065 279.5,94C 279.339,96.7917 279.006,99.625 278.5,102.5C 276.185,101.766 274.352,100.432 273,98.5C 272.107,99.7112 271.274,99.7112 270.5,98.5C 271.09,97.2011 272.09,96.3678 273.5,96C 272.061,95.0094 271.061,93.676 270.5,92C 267.763,90.9236 265.096,89.757 262.5,88.5C 262.5,87.5 262.5,86.5 262.5,85.5C 263.794,81.2596 266.127,80.593 269.5,83.5C 271.943,81.9447 274.61,81.278 277.5,81.5C 278.052,83.3307 278.052,84.9974 277.5,86.5C 278.243,87.1818 278.909,87.8485 279.5,88.5 Z"/></g>
<g><path style="opacity:0.957" fill="#403029" d="M 423.5,74.5 C 424.259,78.4767 424.925,82.4767 425.5,86.5C 424.504,86.4142 423.671,86.7476 423,87.5C 420.384,96.0597 416.718,104.06 412,111.5C 405.367,119.967 398.2,127.967 390.5,135.5C 370.913,151.426 350.246,165.759 328.5,178.5C 327.876,178.917 327.543,179.584 327.5,180.5C 328.182,184.138 328.682,187.805 329,191.5C 329.5,217.498 329.667,243.498 329.5,269.5C 329.506,274.637 328.673,279.637 327,284.5C 323.636,289.029 319.803,293.029 315.5,296.5C 308.795,301.512 302.128,306.512 295.5,311.5C 285.793,316.685 275.793,321.352 265.5,325.5C 264.501,314.52 264.168,303.52 264.5,292.5C 266.5,292.5 268.5,292.5 270.5,292.5C 270.5,300.833 270.5,309.167 270.5,317.5C 284.136,313.529 293.136,304.863 297.5,291.5C 291.559,293.424 285.559,295.257 279.5,297C 278.383,300.073 278.216,303.24 279,306.5C 280.128,303.793 281.628,301.293 283.5,299C 286.176,298.26 288.842,297.927 291.5,298C 287.914,304.752 282.581,309.585 275.5,312.5C 274.503,305.532 274.17,298.532 274.5,291.5C 281.825,289.892 288.825,287.392 295.5,284C 297.81,283.503 300.143,283.337 302.5,283.5C 302.281,282.325 302.614,281.325 303.5,280.5C 308.25,278.369 312.417,275.369 316,271.5C 316.667,245.833 316.667,220.167 316,194.5C 314.463,187.155 312.296,179.988 309.5,173C 309.743,172.098 310.077,171.265 310.5,170.5C 314.436,168.862 318.103,166.696 321.5,164C 323.134,163.506 324.801,163.34 326.5,163.5C 326.33,162.178 326.663,161.011 327.5,160C 335.333,155.584 343,150.918 350.5,146C 359.636,138.266 369.303,131.266 379.5,125C 387.97,117.531 396.137,109.698 404,101.5C 408.142,96.5369 411.642,91.2036 414.5,85.5C 416.981,81.8712 418.981,77.8712 420.5,73.5C 421.86,72.3347 422.86,72.668 423.5,74.5 Z"/></g>
<g><path style="opacity:0.21" fill="#3b2d1e" d="M 423.5,74.5 C 427.409,76.964 430.409,80.2973 432.5,84.5C 431.96,85.7481 431.293,86.9148 430.5,88C 431.428,88.3879 432.095,89.0546 432.5,90C 433.965,95.7773 434.632,101.444 434.5,107C 434.4,109.302 433.733,111.302 432.5,113C 434.646,113.479 435.646,114.812 435.5,117C 434.706,119.058 434.373,121.058 434.5,123C 435.227,125.124 435.894,127.291 436.5,129.5C 436.24,132.11 436.24,134.61 436.5,137C 435.672,137.915 434.672,138.581 433.5,139C 434.579,141.899 434.246,144.733 432.5,147.5C 435.039,150.85 435.039,154.183 432.5,157.5C 433.656,160.06 433.656,162.56 432.5,165C 433.684,166.18 434.351,167.68 434.5,169.5C 433.435,173.362 433.435,177.195 434.5,181C 433.628,189.402 432.628,197.569 431.5,205.5C 431.52,211.743 431.52,217.909 431.5,224C 431.37,228.117 430.37,231.951 428.5,235.5C 429.033,238.782 428.366,241.949 426.5,245C 426.957,245.414 427.291,245.914 427.5,246.5C 426.388,248.419 425.054,250.086 423.5,251.5C 423.5,249.167 423.5,246.833 423.5,244.5C 425.597,229.564 426.93,214.564 427.5,199.5C 429.25,179.513 429.583,159.513 428.5,139.5C 428.496,121.773 427.496,104.106 425.5,86.5C 424.925,82.4767 424.259,78.4767 423.5,74.5 Z"/></g>
<g><path style="opacity:0.928" fill="#b9ac33" d="M 262.5,88.5 C 265.096,89.757 267.763,90.9236 270.5,92C 271.061,93.676 272.061,95.0094 273.5,96C 272.09,96.3678 271.09,97.2011 270.5,98.5C 271.274,99.7112 272.107,99.7112 273,98.5C 274.352,100.432 276.185,101.766 278.5,102.5C 279.006,99.625 279.339,96.7917 279.5,94C 277.866,93.5065 276.199,93.3398 274.5,93.5C 274.963,90.7448 276.63,89.0781 279.5,88.5C 280.172,95.7099 281.172,102.877 282.5,110C 282.167,111.5 281.833,113 281.5,114.5C 272.5,120.333 263.5,126.167 254.5,132C 253.563,132.692 252.897,132.525 252.5,131.5C 258.108,123.798 263.108,115.632 267.5,107C 266.147,100.729 264.48,94.5619 262.5,88.5 Z"/></g>
<g><path style="opacity:0.927" fill="#403029" d="M 245.5,130.5 C 241.86,131.273 238.193,131.94 234.5,132.5C 234.5,146.5 234.5,160.5 234.5,174.5C 231.749,169.841 229.082,165.008 226.5,160C 220.434,155.968 214.101,152.468 207.5,149.5C 210.321,141.214 212.988,132.881 215.5,124.5C 222.696,122.654 230.029,122.154 237.5,123C 240.062,125.733 242.729,128.233 245.5,130.5 Z"/></g>
<g><path style="opacity:0.21" fill="#3e2f1f" d="M 200.5,68.5 C 200.5,73.5 200.5,78.5 200.5,83.5C 205.833,83.5 211.167,83.5 216.5,83.5C 215.925,89.1667 215.758,94.8333 216,100.5C 224.718,107.552 233.718,114.219 243,120.5C 239.933,113.033 236.267,105.7 232,98.5C 231.5,89.5062 231.334,80.5062 231.5,71.5C 232.822,71.67 233.989,71.3366 235,70.5C 235.968,74.8823 237.468,79.049 239.5,83C 239.15,85.9708 238.816,88.9708 238.5,92C 240.762,98.3635 242.595,104.863 244,111.5C 245.324,115.117 246.824,118.117 248.5,120.5C 250.937,119.197 253.104,117.53 255,115.5C 255.857,111.404 257.024,107.404 258.5,103.5C 257.885,100.961 257.218,98.4607 256.5,96C 257.516,95.4806 258.182,94.6473 258.5,93.5C 258.103,92.0143 257.77,90.5143 257.5,89C 257.492,86.4494 258.492,84.6161 260.5,83.5C 261.167,84.1667 261.833,84.8333 262.5,85.5C 262.5,86.5 262.5,87.5 262.5,88.5C 264.48,94.5619 266.147,100.729 267.5,107C 263.108,115.632 258.108,123.798 252.5,131.5C 251.448,131.649 250.448,131.483 249.5,131C 250.34,129.334 249.84,129.167 248,130.5C 247.165,134.065 245.665,137.232 243.5,140C 243.833,140.333 244.167,140.667 244.5,141C 241.521,148.156 241.354,155.322 244,162.5C 246.041,163.423 248.208,163.756 250.5,163.5C 250.933,160.834 251.433,158.168 252,155.5C 252.77,154.402 253.603,154.402 254.5,155.5C 254.901,161.732 252.234,165.732 246.5,167.5C 244.425,166.926 242.758,165.759 241.5,164C 238.523,152.234 240.189,141.234 246.5,131C 246.272,130.601 245.938,130.435 245.5,130.5C 242.729,128.233 240.062,125.733 237.5,123C 230.029,122.154 222.696,122.654 215.5,124.5C 212.234,126.75 210.567,130.417 210.5,135.5C 209.5,135.5 208.5,135.5 207.5,135.5C 205.404,146.185 203.404,156.852 201.5,167.5C 200.5,167.5 199.5,167.5 198.5,167.5C 198.634,172.531 199.634,177.365 201.5,182C 199.55,183.244 198.55,185.077 198.5,187.5C 198.806,190.532 199.306,193.532 200,196.5C 200.318,198.061 201.151,199.228 202.5,200C 200.109,201.309 200.109,202.309 202.5,203C 201.833,203.333 201.167,203.667 200.5,204C 201.858,207.073 203.025,210.24 204,213.5C 204.797,222.271 205.464,230.938 206,239.5C 206.663,244.978 207.83,250.311 209.5,255.5C 210.822,255.33 211.989,255.663 213,256.5C 213.249,259.177 214.249,261.51 216,263.5C 216.751,267.405 216.251,271.071 214.5,274.5C 213.167,274.5 211.833,274.5 210.5,274.5C 210.5,277.5 210.5,280.5 210.5,283.5C 209.513,278.695 209.179,273.695 209.5,268.5C 210.39,266.218 210.556,263.885 210,261.5C 204.266,246.758 201.6,231.424 202,215.5C 199.666,207.828 197.333,200.162 195,192.5C 192.386,194.056 191.053,196.39 191,199.5C 190.997,208.85 190.163,218.017 188.5,227C 189.226,237.82 189.726,248.653 190,259.5C 190.833,265.667 194.333,269.167 200.5,270C 198.942,270.21 197.609,270.71 196.5,271.5C 192.246,270.415 189.413,267.748 188,263.5C 187.667,259.5 187.333,255.5 187,251.5C 186.907,248.993 186.074,246.826 184.5,245C 185.167,237 185.833,229 186.5,221C 185.82,214.368 185.487,208.035 185.5,202C 187.565,192.908 189.231,183.741 190.5,174.5C 190.078,169.399 189.078,164.399 187.5,159.5C 188.136,155.385 188.47,151.218 188.5,147C 188.419,139.104 187.753,131.271 186.5,123.5C 185.209,123.263 184.209,123.596 183.5,124.5C 181.345,122.011 178.678,120.344 175.5,119.5C 170.684,118.674 165.684,118.174 160.5,118C 161.167,117.333 161.833,116.667 162.5,116C 160.086,116.827 158.086,116.66 156.5,115.5C 157.665,114.416 158.998,113.583 160.5,113C 177.527,109.287 188.027,116.12 192,133.5C 192.367,142.182 192.867,150.848 193.5,159.5C 195.592,159.439 197.092,158.439 198,156.5C 199.373,150.088 201.04,143.755 203,137.5C 205.349,130.115 209.349,123.782 215,118.5C 216.457,115.634 216.79,112.634 216,109.5C 212.501,105.328 209.834,100.662 208,95.5C 202.475,90.8009 198.141,85.1342 195,78.5C 194.333,75.1667 194.333,71.8333 195,68.5C 195.572,65.293 197.405,63.6263 200.5,63.5C 200.5,65.1667 200.5,66.8333 200.5,68.5 Z"/></g>
<g><path style="opacity:0.79" fill="#95897c" d="M 425.5,86.5 C 427.496,104.106 428.496,121.773 428.5,139.5C 428.5,142.167 428.5,144.833 428.5,147.5C 427.173,149.964 425.007,150.964 422,150.5C 415.472,149.366 408.972,148.199 402.5,147C 409.428,145.424 416.428,144.091 423.5,143C 423.957,142.586 424.291,142.086 424.5,141.5C 422.833,141.167 421.167,140.833 419.5,140.5C 414.462,141.672 409.462,142.672 404.5,143.5C 402.971,143.471 401.804,142.804 401,141.5C 399.214,143.099 397.047,143.933 394.5,144C 395.993,145.156 395.826,145.99 394,146.5C 392.72,146.387 391.887,145.72 391.5,144.5C 391.285,141.997 391.952,139.497 393.5,137C 392.756,135.961 391.756,135.461 390.5,135.5C 398.2,127.967 405.367,119.967 412,111.5C 416.718,104.06 420.384,96.0597 423,87.5C 423.671,86.7476 424.504,86.4142 425.5,86.5 Z"/></g>
<g><path style="opacity:0.62" fill="#5b553d" d="M 313.5,128.5 C 313.171,141.011 313.505,153.345 314.5,165.5C 314.44,166.043 314.107,166.376 313.5,166.5C 312.508,162.217 312.174,157.884 312.5,153.5C 312.174,144.983 312.507,136.65 313.5,128.5 Z"/></g>
<g><path style="opacity:0.97" fill="#9e9387" d="M 390.5,135.5 C 391.756,135.461 392.756,135.961 393.5,137C 391.952,139.497 391.285,141.997 391.5,144.5C 391.887,145.72 392.72,146.387 394,146.5C 395.826,145.99 395.993,145.156 394.5,144C 397.047,143.933 399.214,143.099 401,141.5C 401.804,142.804 402.971,143.471 404.5,143.5C 409.462,142.672 414.462,141.672 419.5,140.5C 421.167,140.833 422.833,141.167 424.5,141.5C 424.291,142.086 423.957,142.586 423.5,143C 416.428,144.091 409.428,145.424 402.5,147C 408.972,148.199 415.472,149.366 422,150.5C 425.007,150.964 427.173,149.964 428.5,147.5C 428.958,150.394 428.291,152.894 426.5,155C 428.56,156.493 428.893,158.326 427.5,160.5C 401.693,165.477 374.693,170.977 346.5,177C 373.291,182.91 400.291,187.743 427.5,191.5C 427.5,194.167 427.5,196.833 427.5,199.5C 426.93,214.564 425.597,229.564 423.5,244.5C 422.839,245.718 422.172,247.051 421.5,248.5C 420.583,247.873 419.583,247.539 418.5,247.5C 392.55,235.793 366.217,224.96 339.5,215C 354.704,229.04 370.037,242.874 385.5,256.5C 394.796,264.627 403.963,272.96 413,281.5C 413.483,282.448 413.649,283.448 413.5,284.5C 408.245,298.693 400.245,311.026 389.5,321.5C 384.833,324.5 380.167,327.5 375.5,330.5C 374.448,330.649 373.448,330.483 372.5,330C 368.176,325.502 363.843,321.002 359.5,316.5C 361.435,315.21 363.435,313.877 365.5,312.5C 366.251,313.376 366.751,314.376 367,315.5C 368.688,314.675 368.855,313.675 367.5,312.5C 368.723,311.386 370.056,311.219 371.5,312C 370.547,313.955 369.213,315.622 367.5,317C 368.449,317.617 369.282,317.451 370,316.5C 371.036,319.294 372.536,319.794 374.5,318C 372.968,317.3 371.968,316.134 371.5,314.5C 373.483,313.018 375.316,311.351 377,309.5C 378.868,310.672 380.702,310.505 382.5,309C 381.167,308.333 379.833,307.667 378.5,307C 380.763,305.383 382.763,303.55 384.5,301.5C 386.105,302.969 386.605,302.635 386,300.5C 367.667,274.833 349.333,249.167 331,223.5C 330.501,217.509 330.334,211.509 330.5,205.5C 360.538,207.938 390.538,210.438 420.5,213C 389.641,201.772 358.974,190.272 328.5,178.5C 350.246,165.759 370.913,151.426 390.5,135.5 Z"/></g>
<g><path style="opacity:0.977" fill="#babd8c" d="M 175.5,119.5 C 178.678,120.344 181.345,122.011 183.5,124.5C 184.234,125.708 184.567,127.041 184.5,128.5C 184.829,141.011 184.495,153.345 183.5,165.5C 180.031,162.928 176.364,160.594 172.5,158.5C 171.668,149.852 171.168,141.186 171,132.5C 169.736,130.393 167.903,129.393 165.5,129.5C 162.36,128.359 159.027,128.192 155.5,129C 153.671,129.273 152.171,130.107 151,131.5C 151.074,127.189 152.907,123.689 156.5,121C 162.715,119.584 169.048,119.084 175.5,119.5 Z"/></g>
<g><path style="opacity:0.488" fill="#31261a" d="M 414.5,85.5 C 411.642,91.2036 408.142,96.5369 404,101.5C 396.137,109.698 387.97,117.531 379.5,125C 369.303,131.266 359.636,138.266 350.5,146C 343,150.918 335.333,155.584 327.5,160C 326.663,161.011 326.33,162.178 326.5,163.5C 324.801,163.34 323.134,163.506 321.5,164C 318.103,166.696 314.436,168.862 310.5,170.5C 310.596,164.627 311.263,158.96 312.5,153.5C 312.174,157.884 312.508,162.217 313.5,166.5C 314.107,166.376 314.44,166.043 314.5,165.5C 317.969,162.928 321.636,160.594 325.5,158.5C 326.332,149.852 326.832,141.186 327,132.5C 327.908,130.561 329.408,129.561 331.5,129.5C 333.924,129.192 336.257,129.526 338.5,130.5C 339.026,132.265 339.359,133.932 339.5,135.5C 337.418,135.472 335.584,136.139 334,137.5C 333.171,142.864 333.337,148.198 334.5,153.5C 338.943,151.333 340.776,147.666 340,142.5C 342.135,140.722 344.635,140.055 347.5,140.5C 349.532,139.952 350.532,138.619 350.5,136.5C 353.89,135.977 357.223,135.143 360.5,134C 366.896,128.288 373.896,123.288 381.5,119C 384.142,114.237 387.975,110.737 393,108.5C 394.123,105.751 395.623,103.251 397.5,101C 401.115,100.386 403.949,98.5531 406,95.5C 405.04,92.7549 406.207,91.2549 409.5,91C 408.549,90.2825 408.383,89.4491 409,88.5C 410.583,87.0289 412.417,86.0289 414.5,85.5 Z"/></g>
<g><path style="opacity:0.941" fill="#b4b586" d="M 339.5,135.5 C 343.208,135.712 345.874,137.378 347.5,140.5C 344.635,140.055 342.135,140.722 340,142.5C 340.776,147.666 338.943,151.333 334.5,153.5C 333.337,148.198 333.171,142.864 334,137.5C 335.584,136.139 337.418,135.472 339.5,135.5 Z"/></g>
<g><path style="opacity:0.971" fill="#babe8c" d="M 331.5,129.5 C 329.408,129.561 327.908,130.561 327,132.5C 326.832,141.186 326.332,149.852 325.5,158.5C 321.636,160.594 317.969,162.928 314.5,165.5C 313.505,153.345 313.171,141.011 313.5,128.5C 313.433,127.041 313.766,125.708 314.5,124.5C 316.34,122.832 318.34,121.332 320.5,120C 326.5,119.333 332.5,119.333 338.5,120C 344.074,121.896 346.908,125.729 347,131.5C 342.034,128.461 336.867,127.794 331.5,129.5 Z"/></g>
<g><path style="opacity:0.263" fill="#36291b" d="M 245.5,130.5 C 245.938,130.435 246.272,130.601 246.5,131C 240.189,141.234 238.523,152.234 241.5,164C 242.758,165.759 244.425,166.926 246.5,167.5C 252.234,165.732 254.901,161.732 254.5,155.5C 254.682,153.265 254.015,151.265 252.5,149.5C 253.839,146.497 255.173,143.497 256.5,140.5C 257.183,140.137 257.85,139.804 258.5,139.5C 258.704,151.073 258.704,162.74 258.5,174.5C 250.5,174.5 242.5,174.5 234.5,174.5C 234.5,160.5 234.5,146.5 234.5,132.5C 238.193,131.94 241.86,131.273 245.5,130.5 Z"/></g>
<g><path style="opacity:0.897" fill="#403028" d="M 269.5,149.5 C 269.783,150.289 270.283,150.956 271,151.5C 271.376,158.518 271.876,165.518 272.5,172.5C 274.099,172.232 275.432,172.566 276.5,173.5C 273.941,173.198 271.607,173.532 269.5,174.5C 257.705,175.801 246.039,175.801 234.5,174.5C 242.5,174.5 250.5,174.5 258.5,174.5C 258.704,162.74 258.704,151.073 258.5,139.5C 258.56,138.957 258.893,138.624 259.5,138.5C 262.92,142.245 266.253,145.912 269.5,149.5 Z"/></g>
<g><path style="opacity:0.975" fill="#706864" d="M 69.5,137.5 C 69.5,145.167 69.5,152.833 69.5,160.5C 96.7264,166.292 124.06,171.792 151.5,177C 124.89,182.319 98.2231,187.319 71.5,192C 70.565,194.381 70.2317,196.881 70.5,199.5C 68.716,178.847 68.3826,158.18 69.5,137.5 Z"/></g>
<g><path style="opacity:0.978" fill="#716864" d="M 428.5,139.5 C 429.583,159.513 429.25,179.513 427.5,199.5C 427.5,196.833 427.5,194.167 427.5,191.5C 400.291,187.743 373.291,182.91 346.5,177C 374.693,170.977 401.693,165.477 427.5,160.5C 428.893,158.326 428.56,156.493 426.5,155C 428.291,152.894 428.958,150.394 428.5,147.5C 428.5,144.833 428.5,142.167 428.5,139.5 Z"/></g>
<g><path style="opacity:0.971" fill="#a1968a" d="M 207.5,149.5 C 214.101,152.468 220.434,155.968 226.5,160C 229.082,165.008 231.749,169.841 234.5,174.5C 246.039,175.801 257.705,175.801 269.5,174.5C 270.552,174.351 271.552,174.517 272.5,175C 269.774,177.296 266.774,179.129 263.5,180.5C 264.921,183.009 266.588,185.343 268.5,187.5C 264.865,188.606 261.198,189.606 257.5,190.5C 259.5,193.5 261.5,196.5 263.5,199.5C 259.893,200.489 256.226,200.823 252.5,200.5C 252.646,204.519 252.979,208.519 253.5,212.5C 247.31,212.177 241.31,212.51 235.5,213.5C 230.156,213.666 224.823,213.499 219.5,213C 216,210.331 212.667,207.498 209.5,204.5C 209.026,186.141 208.359,167.807 207.5,149.5 Z"/></g>
<g><path style="opacity:0.961" fill="#e6410b" d="M 215.5,158.5 C 221.704,158.314 223.037,160.814 219.5,166C 215.945,167.123 213.945,165.789 213.5,162C 213.978,160.697 214.645,159.531 215.5,158.5 Z"/></g>
<g><path style="opacity:0.982" fill="#8f6c64" d="M 269.5,174.5 C 271.607,173.532 273.941,173.198 276.5,173.5C 284.51,173.77 292.51,174.27 300.5,175C 303.099,183.555 305.932,192.055 309,200.5C 309.667,210.833 309.667,221.167 309,231.5C 304.678,234.399 300.511,237.399 296.5,240.5C 292.726,242.938 288.726,244.938 284.5,246.5C 283.5,246.333 282.5,246.167 281.5,246C 280.837,244.482 279.837,243.315 278.5,242.5C 273.01,231.01 265.01,221.677 254.5,214.5C 248.355,213.51 242.022,213.177 235.5,213.5C 241.31,212.51 247.31,212.177 253.5,212.5C 252.979,208.519 252.646,204.519 252.5,200.5C 256.226,200.823 259.893,200.489 263.5,199.5C 261.5,196.5 259.5,193.5 257.5,190.5C 261.198,189.606 264.865,188.606 268.5,187.5C 266.588,185.343 264.921,183.009 263.5,180.5C 266.774,179.129 269.774,177.296 272.5,175C 271.552,174.517 270.552,174.351 269.5,174.5 Z"/></g>
<g><path style="opacity:0.981" fill="#716965" d="M 168.5,177.5 C 169.693,177.97 170.36,178.97 170.5,180.5C 169.918,184.155 169.418,187.822 169,191.5C 168.5,217.498 168.333,243.498 168.5,269.5C 167.835,267.631 167.169,265.631 166.5,263.5C 148.069,276.132 129.902,289.132 112,302.5C 129.529,275.836 147.862,249.502 167,223.5C 167.499,217.509 167.666,211.509 167.5,205.5C 137.48,208.113 107.48,210.613 77.5,213C 108.013,201.273 138.679,189.94 169.5,179C 168.944,178.617 168.611,178.117 168.5,177.5 Z"/></g>
<g><path style="opacity:0.978" fill="#716864" d="M 328.5,178.5 C 358.974,190.272 389.641,201.772 420.5,213C 390.538,210.438 360.538,207.938 330.5,205.5C 330.334,211.509 330.501,217.509 331,223.5C 349.333,249.167 367.667,274.833 386,300.5C 386.605,302.635 386.105,302.969 384.5,301.5C 367.077,288.61 349.41,275.943 331.5,263.5C 330.831,265.631 330.165,267.631 329.5,269.5C 329.667,243.498 329.5,217.498 329,191.5C 328.682,187.805 328.182,184.138 327.5,180.5C 327.543,179.584 327.876,178.917 328.5,178.5 Z"/></g>
<g><path style="opacity:0.438" fill="#32261b" d="M 150.5,140.5 C 157.689,139.866 160.522,143.2 159,150.5C 160.586,151.376 162.086,152.376 163.5,153.5C 164.663,148.198 164.829,142.864 164,137.5C 162.416,136.139 160.582,135.472 158.5,135.5C 158.5,133.5 158.5,131.5 158.5,129.5C 160.833,129.5 163.167,129.5 165.5,129.5C 167.903,129.393 169.736,130.393 171,132.5C 171.168,141.186 171.668,149.852 172.5,158.5C 176.364,160.594 180.031,162.928 183.5,165.5C 183.56,166.043 183.893,166.376 184.5,166.5C 185.825,153.673 185.825,141.006 184.5,128.5C 184.567,127.041 184.234,125.708 183.5,124.5C 184.209,123.596 185.209,123.263 186.5,123.5C 187.753,131.271 188.419,139.104 188.5,147C 188.47,151.218 188.136,155.385 187.5,159.5C 189.078,164.399 190.078,169.399 190.5,174.5C 189.231,183.741 187.565,192.908 185.5,202C 185.487,208.035 185.82,214.368 186.5,221C 185.833,229 185.167,237 184.5,245C 186.074,246.826 186.907,248.993 187,251.5C 187.333,255.5 187.667,259.5 188,263.5C 189.413,267.748 192.246,270.415 196.5,271.5C 196.833,272.167 197.167,272.833 197.5,273.5C 197.08,275.094 196.414,276.594 195.5,278C 196.202,279.856 197.536,281.023 199.5,281.5C 200.473,279.052 200.806,276.385 200.5,273.5C 202.415,273.216 204.081,273.549 205.5,274.5C 204.539,277.426 203.873,280.426 203.5,283.5C 205.677,283.586 207.677,284.253 209.5,285.5C 210.298,285.043 210.631,284.376 210.5,283.5C 210.5,280.5 210.5,277.5 210.5,274.5C 211.833,274.5 213.167,274.5 214.5,274.5C 216.251,271.071 216.751,267.405 216,263.5C 214.249,261.51 213.249,259.177 213,256.5C 211.989,255.663 210.822,255.33 209.5,255.5C 207.83,250.311 206.663,244.978 206,239.5C 205.464,230.938 204.797,222.271 204,213.5C 203.025,210.24 201.858,207.073 200.5,204C 201.167,203.667 201.833,203.333 202.5,203C 200.109,202.309 200.109,201.309 202.5,200C 201.151,199.228 200.318,198.061 200,196.5C 199.306,193.532 198.806,190.532 198.5,187.5C 198.55,185.077 199.55,183.244 201.5,182C 199.634,177.365 198.634,172.531 198.5,167.5C 199.5,167.5 200.5,167.5 201.5,167.5C 203.404,156.852 205.404,146.185 207.5,135.5C 208.5,135.5 209.5,135.5 210.5,135.5C 210.567,130.417 212.234,126.75 215.5,124.5C 212.988,132.881 210.321,141.214 207.5,149.5C 208.359,167.807 209.026,186.141 209.5,204.5C 210.445,220.84 211.612,237.174 213,253.5C 218.034,258.199 222.7,263.199 227,268.5C 227.5,276.159 227.666,283.826 227.5,291.5C 226.167,291.5 224.833,291.5 223.5,291.5C 208.297,288.32 194.463,281.653 182,271.5C 181.333,245.833 181.333,220.167 182,194.5C 183.892,186.669 185.892,179.002 188,171.5C 174.082,162.791 160.249,153.958 146.5,145C 127.852,132.691 110.686,118.524 95,102.5C 89.8182,96.7945 85.6516,90.4611 82.5,83.5C 83.5279,83.0742 84.8612,83.0742 86.5,83.5C 89.3347,87.9705 92.3347,92.4705 95.5,97C 95.1667,97.3333 94.8333,97.6667 94.5,98C 99.4468,100.28 103.113,103.947 105.5,109C 113.32,115.409 121.32,121.575 129.5,127.5C 132.749,131.045 136.082,134.545 139.5,138C 143.252,138.462 146.752,139.628 150,141.5C 150.399,141.272 150.565,140.938 150.5,140.5 Z"/></g>
<g><path style="opacity:0.123" fill="#493725" d="M 209.5,268.5 C 207.626,270.082 206.293,272.082 205.5,274.5C 204.081,273.549 202.415,273.216 200.5,273.5C 200.806,276.385 200.473,279.052 199.5,281.5C 199.665,278.482 199.498,275.482 199,272.5C 198.617,273.056 198.117,273.389 197.5,273.5C 197.167,272.833 196.833,272.167 196.5,271.5C 197.609,270.71 198.942,270.21 200.5,270C 194.333,269.167 190.833,265.667 190,259.5C 189.726,248.653 189.226,237.82 188.5,227C 190.163,218.017 190.997,208.85 191,199.5C 191.053,196.39 192.386,194.056 195,192.5C 197.333,200.162 199.666,207.828 202,215.5C 201.6,231.424 204.266,246.758 210,261.5C 210.556,263.885 210.39,266.218 209.5,268.5 Z"/></g>
<g><path style="opacity:0.972" fill="#b4b687" d="M 158.5,135.5 C 160.582,135.472 162.416,136.139 164,137.5C 164.829,142.864 164.663,148.198 163.5,153.5C 162.086,152.376 160.586,151.376 159,150.5C 160.522,143.2 157.689,139.866 150.5,140.5C 152.124,137.346 154.791,135.679 158.5,135.5 Z"/></g>
<g><path style="opacity:0.601" fill="#5b533c" d="M 184.5,128.5 C 185.825,141.006 185.825,153.673 184.5,166.5C 183.893,166.376 183.56,166.043 183.5,165.5C 184.495,153.345 184.829,141.011 184.5,128.5 Z"/></g>
<g><path style="opacity:0.979" fill="#706864" d="M 418.5,247.5 C 417.095,249.379 415.428,249.712 413.5,248.5C 412.719,249.737 411.719,250.737 410.5,251.5C 407.675,250.246 405.175,248.579 403,246.5C 401.574,249.069 401.741,251.236 403.5,253C 401.038,254.836 399.538,254.003 399,250.5C 395.07,251.969 394.903,253.136 398.5,254C 398.043,254.414 397.709,254.914 397.5,255.5C 398.167,255.833 398.833,256.167 399.5,256.5C 397.926,257.631 396.259,257.798 394.5,257C 394.971,253.074 395.305,249.074 395.5,245C 394.975,244.308 394.308,243.808 393.5,243.5C 391.234,248.095 388.568,252.428 385.5,256.5C 370.037,242.874 354.704,229.04 339.5,215C 366.217,224.96 392.55,235.793 418.5,247.5 Z"/></g>
<g><path style="opacity:0.348" fill="#32251a" d="M 314.5,124.5 C 313.766,125.708 313.433,127.041 313.5,128.5C 312.507,136.65 312.174,144.983 312.5,153.5C 311.263,158.96 310.596,164.627 310.5,170.5C 310.077,171.265 309.743,172.098 309.5,173C 312.296,179.988 314.463,187.155 316,194.5C 316.667,220.167 316.667,245.833 316,271.5C 312.417,275.369 308.25,278.369 303.5,280.5C 302.614,281.325 302.281,282.325 302.5,283.5C 300.143,283.337 297.81,283.503 295.5,284C 288.825,287.392 281.825,289.892 274.5,291.5C 272.901,291.232 271.568,291.566 270.5,292.5C 268.5,292.5 266.5,292.5 264.5,292.5C 264.666,284.493 264.5,276.493 264,268.5C 256.636,260.802 248.97,253.469 241,246.5C 240.333,238.833 240.333,231.167 241,223.5C 243.703,220.629 246.536,217.962 249.5,215.5C 251.042,214.699 252.708,214.366 254.5,214.5C 265.01,221.677 273.01,231.01 278.5,242.5C 277.749,243.573 276.749,243.74 275.5,243C 274.491,240.828 272.824,239.662 270.5,239.5C 270.509,237.692 270.009,236.025 269,234.5C 265.796,231.631 262.963,228.465 260.5,225C 252.321,220.176 247.154,222.342 245,231.5C 244.492,243.62 249.659,252.12 260.5,257C 264.391,261.893 267.891,267.06 271,272.5C 272.264,274.607 274.097,275.607 276.5,275.5C 276.5,275.833 276.5,276.167 276.5,276.5C 276.5,280.5 276.5,284.5 276.5,288.5C 279.127,287.908 281.794,287.575 284.5,287.5C 284.037,284.779 283.371,282.112 282.5,279.5C 284.781,279.077 286.448,279.744 287.5,281.5C 287.238,282.978 287.571,284.311 288.5,285.5C 290.323,284.253 292.323,283.586 294.5,283.5C 294.5,282.167 294.5,280.833 294.5,279.5C 295.496,279.586 296.329,279.252 297,278.5C 297.249,279.624 297.749,280.624 298.5,281.5C 299.107,281.376 299.44,281.043 299.5,280.5C 301.912,280.306 302.912,278.973 302.5,276.5C 302.351,275.448 302.517,274.448 303,273.5C 307.629,271.281 310.629,267.615 312,262.5C 312.667,257.5 312.667,252.5 312,247.5C 311.231,242.346 308.397,240.18 303.5,241C 300.911,242.314 298.244,242.981 295.5,243C 296.252,242.329 296.586,241.496 296.5,240.5C 300.511,237.399 304.678,234.399 309,231.5C 309.667,221.167 309.667,210.833 309,200.5C 305.932,192.055 303.099,183.555 300.5,175C 292.51,174.27 284.51,173.77 276.5,173.5C 275.432,172.566 274.099,172.232 272.5,172.5C 271.876,165.518 271.376,158.518 271,151.5C 270.283,150.956 269.783,150.289 269.5,149.5C 273.354,150.136 275.687,152.469 276.5,156.5C 274.829,158.51 274.162,160.843 274.5,163.5C 275.873,163.343 277.207,163.51 278.5,164C 280.596,165.766 282.929,167.099 285.5,168C 291.374,169.971 297.374,170.638 303.5,170C 306.237,166.295 307.903,162.129 308.5,157.5C 307.619,150.094 307.286,142.594 307.5,135C 308.396,130.648 309.896,126.482 312,122.5C 313.813,121.391 314.646,122.058 314.5,124.5 Z"/></g>
<g><path style="opacity:0.045" fill="#4a3826" d="M 299.5,272.5 C 298.167,275.167 298.167,277.833 299.5,280.5C 299.44,281.043 299.107,281.376 298.5,281.5C 297.749,280.624 297.249,279.624 297,278.5C 296.329,279.252 295.496,279.586 294.5,279.5C 292.66,276.01 290.993,272.343 289.5,268.5C 288.833,272.982 288.166,277.316 287.5,281.5C 286.448,279.744 284.781,279.077 282.5,279.5C 280.775,276.375 279.275,273.042 278,269.5C 277.814,272.036 277.314,274.369 276.5,276.5C 276.5,276.167 276.5,275.833 276.5,275.5C 276.762,274.022 276.429,272.689 275.5,271.5C 272.8,269.766 270.8,267.432 269.5,264.5C 268.675,263.614 267.675,263.281 266.5,263.5C 266.392,261.217 265.559,259.217 264,257.5C 259.946,253.446 255.946,249.446 252,245.5C 248.017,239.974 247.683,234.307 251,228.5C 255.369,226.732 259.035,227.732 262,231.5C 266.801,240.805 273.968,247.471 283.5,251.5C 289.831,249.839 296.164,248.172 302.5,246.5C 304.374,246.39 305.874,247.056 307,248.5C 309.721,255.242 308.887,261.409 304.5,267C 302.475,268.677 300.141,269.677 297.5,270C 298.756,270.417 299.423,271.25 299.5,272.5 Z"/></g>
<g><path style="opacity:0.337" fill="#372a1c" d="M 72.5,83.5 C 70.726,101.455 69.726,119.455 69.5,137.5C 68.3826,158.18 68.716,178.847 70.5,199.5C 70.7492,215.789 72.4158,231.789 75.5,247.5C 76.3564,260.473 79.3564,272.806 84.5,284.5C 91.7247,304.386 104.391,319.719 122.5,330.5C 129.74,335.447 137.74,338.78 146.5,340.5C 160.986,346.773 175.986,351.44 191.5,354.5C 197.044,356.283 202.71,357.95 208.5,359.5C 208.334,363.846 208.501,368.179 209,372.5C 213.719,376.908 219.219,379.908 225.5,381.5C 226.614,383.353 225.948,383.853 223.5,383C 214.222,378.524 204.889,374.357 195.5,370.5C 195.196,369.85 194.863,369.183 194.5,368.5C 197.485,364.391 196.151,361.224 190.5,359C 170.626,352.598 150.626,346.598 130.5,341C 109.834,330.83 93.501,315.996 81.5,296.5C 82.1667,295.833 82.8333,295.167 83.5,294.5C 80.7462,291.168 79.7462,287.501 80.5,283.5C 78.473,278.316 76.3064,273.316 74,268.5C 71.9441,263.177 71.1107,257.844 71.5,252.5C 69.2891,244.089 67.6225,235.589 66.5,227C 67.8476,225.426 68.5142,223.593 68.5,221.5C 67.1903,214.619 66.857,207.785 67.5,201C 65.3985,199.267 65.0652,197.267 66.5,195C 65.6919,194.692 65.0253,194.192 64.5,193.5C 65.7571,188.667 65.4238,183.667 63.5,178.5C 64.0402,177.252 64.7069,176.085 65.5,175C 63.311,174.323 62.9776,173.156 64.5,171.5C 63.7396,165.533 63.0729,159.533 62.5,153.5C 62.7611,151.05 63.4277,148.717 64.5,146.5C 63.1826,134.468 63.8493,122.135 66.5,109.5C 66.3918,108.558 66.0585,107.725 65.5,107C 68.1667,105.667 68.1667,104.333 65.5,103C 67.7996,101.887 68.1329,100.387 66.5,98.5C 67.2331,93.4995 67.8997,88.4995 68.5,83.5C 69.8333,83.5 71.1667,83.5 72.5,83.5 Z"/></g>
<g><path style="opacity:0.907" fill="#6f6662" d="M 84.5,284.5 C 79.3564,272.806 76.3564,260.473 75.5,247.5C 103.102,237.206 130.436,226.039 157.5,214C 158.5,213.333 159.5,213.333 160.5,214C 135.333,236.5 110.167,259 85,281.5C 84.5172,282.448 84.3505,283.448 84.5,284.5 Z"/></g>
<g><path style="opacity:0.208" fill="#3f2f20" d="M 278.5,242.5 C 279.837,243.315 280.837,244.482 281.5,246C 282.5,246.167 283.5,246.333 284.5,246.5C 288.726,244.938 292.726,242.938 296.5,240.5C 296.586,241.496 296.252,242.329 295.5,243C 298.244,242.981 300.911,242.314 303.5,241C 308.397,240.18 311.231,242.346 312,247.5C 312.667,252.5 312.667,257.5 312,262.5C 310.629,267.615 307.629,271.281 303,273.5C 302.517,274.448 302.351,275.448 302.5,276.5C 301.026,275.564 300.026,274.23 299.5,272.5C 299.423,271.25 298.756,270.417 297.5,270C 300.141,269.677 302.475,268.677 304.5,267C 308.887,261.409 309.721,255.242 307,248.5C 305.874,247.056 304.374,246.39 302.5,246.5C 296.164,248.172 289.831,249.839 283.5,251.5C 273.968,247.471 266.801,240.805 262,231.5C 259.035,227.732 255.369,226.732 251,228.5C 247.683,234.307 248.017,239.974 252,245.5C 255.946,249.446 259.946,253.446 264,257.5C 265.559,259.217 266.392,261.217 266.5,263.5C 267.675,263.281 268.675,263.614 269.5,264.5C 270.8,267.432 272.8,269.766 275.5,271.5C 276.429,272.689 276.762,274.022 276.5,275.5C 274.097,275.607 272.264,274.607 271,272.5C 267.891,267.06 264.391,261.893 260.5,257C 249.659,252.12 244.492,243.62 245,231.5C 247.154,222.342 252.321,220.176 260.5,225C 262.963,228.465 265.796,231.631 269,234.5C 270.009,236.025 270.509,237.692 270.5,239.5C 272.824,239.662 274.491,240.828 275.5,243C 276.749,243.74 277.749,243.573 278.5,242.5 Z"/></g>
<g><path style="opacity:0.816" fill="#6a5f58" d="M 418.5,247.5 C 419.583,247.539 420.583,247.873 421.5,248.5C 422.172,247.051 422.839,245.718 423.5,244.5C 423.5,246.833 423.5,249.167 423.5,251.5C 421.564,256.578 420.23,261.912 419.5,267.5C 417.743,273.353 415.743,279.02 413.5,284.5C 413.649,283.448 413.483,282.448 413,281.5C 403.963,272.96 394.796,264.627 385.5,256.5C 388.568,252.428 391.234,248.095 393.5,243.5C 394.308,243.808 394.975,244.308 395.5,245C 395.305,249.074 394.971,253.074 394.5,257C 396.259,257.798 397.926,257.631 399.5,256.5C 398.833,256.167 398.167,255.833 397.5,255.5C 397.709,254.914 398.043,254.414 398.5,254C 394.903,253.136 395.07,251.969 399,250.5C 399.538,254.003 401.038,254.836 403.5,253C 401.741,251.236 401.574,249.069 403,246.5C 405.175,248.579 407.675,250.246 410.5,251.5C 411.719,250.737 412.719,249.737 413.5,248.5C 415.428,249.712 417.095,249.379 418.5,247.5 Z"/></g>
<g><path style="opacity:0.975" fill="#716965" d="M 146.5,340.5 C 137.74,338.78 129.74,335.447 122.5,330.5C 123.552,330.649 124.552,330.483 125.5,330C 139.309,315.859 153.475,302.025 168,288.5C 161.156,305.869 153.99,323.202 146.5,340.5 Z"/></g>
<g><path style="opacity:0.977" fill="#716965" d="M 359.5,316.5 C 363.843,321.002 368.176,325.502 372.5,330C 373.448,330.483 374.448,330.649 375.5,330.5C 367.587,334.953 359.254,338.619 350.5,341.5C 351.412,340.262 351.579,338.928 351,337.5C 343.394,320.663 336.227,303.996 329.5,287.5C 339.467,297.133 349.467,306.8 359.5,316.5 Z"/></g>
<g><path style="opacity:0.988" fill="#a09589" d="M 72.5,83.5 C 72.8333,83.5 73.1667,83.5 73.5,83.5C 77.2503,96.6656 83.4169,108.666 92,119.5C 107.629,135.212 124.463,149.379 142.5,162C 150.726,167.945 159.393,173.111 168.5,177.5C 168.611,178.117 168.944,178.617 169.5,179C 138.679,189.94 108.013,201.273 77.5,213C 107.48,210.613 137.48,208.113 167.5,205.5C 167.666,211.509 167.499,217.509 167,223.5C 147.862,249.502 129.529,275.836 112,302.5C 129.902,289.132 148.069,276.132 166.5,263.5C 167.169,265.631 167.835,267.631 168.5,269.5C 168.273,274.692 169.107,279.692 171,284.5C 174.364,289.029 178.197,293.029 182.5,296.5C 179.022,312.381 176.522,328.381 175,344.5C 183.382,334.452 191.382,324.119 199,313.5C 199.816,312.177 200.983,311.511 202.5,311.5C 208.604,314.386 214.604,317.553 220.5,321C 226.898,324.034 233.565,326.201 240.5,327.5C 240.667,305.164 240.5,282.831 240,260.5C 235.147,256.737 230.48,252.737 226,248.5C 225.333,242.833 225.333,237.167 226,231.5C 233.59,225.955 241.09,220.288 248.5,214.5C 249.107,214.624 249.44,214.957 249.5,215.5C 246.536,217.962 243.703,220.629 241,223.5C 240.333,231.167 240.333,238.833 241,246.5C 248.97,253.469 256.636,260.802 264,268.5C 264.5,276.493 264.666,284.493 264.5,292.5C 264.168,303.52 264.501,314.52 265.5,325.5C 275.793,321.352 285.793,316.685 295.5,311.5C 297.017,311.511 298.184,312.177 299,313.5C 306.618,324.119 314.618,334.452 323,344.5C 321.048,328.45 318.548,312.45 315.5,296.5C 319.803,293.029 323.636,289.029 327,284.5C 328.673,279.637 329.506,274.637 329.5,269.5C 330.165,267.631 330.831,265.631 331.5,263.5C 349.41,275.943 367.077,288.61 384.5,301.5C 382.763,303.55 380.763,305.383 378.5,307C 379.833,307.667 381.167,308.333 382.5,309C 380.702,310.505 378.868,310.672 377,309.5C 375.316,311.351 373.483,313.018 371.5,314.5C 371.968,316.134 372.968,317.3 374.5,318C 372.536,319.794 371.036,319.294 370,316.5C 369.282,317.451 368.449,317.617 367.5,317C 369.213,315.622 370.547,313.955 371.5,312C 370.056,311.219 368.723,311.386 367.5,312.5C 368.855,313.675 368.688,314.675 367,315.5C 366.751,314.376 366.251,313.376 365.5,312.5C 363.435,313.877 361.435,315.21 359.5,316.5C 349.467,306.8 339.467,297.133 329.5,287.5C 336.227,303.996 343.394,320.663 351,337.5C 351.579,338.928 351.412,340.262 350.5,341.5C 335.799,346.845 320.799,351.178 305.5,354.5C 299.836,344.506 294.67,334.173 290,323.5C 289.5,335.495 289.333,347.495 289.5,359.5C 289.666,363.846 289.499,368.179 289,372.5C 287.074,374.539 284.907,376.206 282.5,377.5C 277.533,378.988 272.866,380.988 268.5,383.5C 267.883,383.611 267.383,383.944 267,384.5C 265.748,393.12 265.248,401.787 265.5,410.5C 264.085,411.289 262.585,411.956 261,412.5C 259.101,410.999 257.935,409.499 257.5,408C 258.453,406.045 259.787,404.378 261.5,403C 259.153,401.914 259.153,400.581 261.5,399C 261.333,398.5 261.167,398 261,397.5C 259.401,399.036 257.567,399.536 255.5,399C 257.891,397.691 257.891,396.691 255.5,396C 256.471,392.931 255.471,390.598 252.5,389C 254.167,386.667 255.833,384.333 257.5,382C 256.965,379.891 255.965,379.391 254.5,380.5C 253.069,380.023 251.736,379.357 250.5,378.5C 252.326,378.08 254.326,378.08 256.5,378.5C 263.869,378.741 270.869,377.241 277.5,374C 280.167,372.667 282.167,370.667 283.5,368C 274.646,370.444 265.646,372.611 256.5,374.5C 255.325,374.719 254.325,374.386 253.5,373.5C 254.524,372.148 255.524,370.815 256.5,369.5C 267.434,369.469 276.768,365.635 284.5,358C 280.898,358.416 277.232,358.916 273.5,359.5C 273.062,359.565 272.728,359.399 272.5,359C 273.582,357.67 274.249,356.17 274.5,354.5C 278.141,351.032 281.974,347.698 286,344.5C 286.667,343.833 286.667,343.167 286,342.5C 277.25,346.793 268.083,349.793 258.5,351.5C 255.95,351.439 254.45,350.106 254,347.5C 251.486,350.177 249.653,349.677 248.5,346C 251.583,344.089 254.249,341.589 256.5,338.5C 254.905,336.548 254.405,334.548 255,332.5C 253.833,333.667 252.667,334.833 251.5,336C 247.224,336.112 243.224,336.112 239.5,336C 235.937,341.065 231.603,345.232 226.5,348.5C 209.166,341.004 208.166,342.838 223.5,354C 226.327,355.664 229.327,356.83 232.5,357.5C 233.443,359.001 233.109,360.335 231.5,361.5C 225.963,360.408 220.463,359.074 215,357.5C 214.5,357.667 214,357.833 213.5,358C 220.76,365.812 229.76,369.646 240.5,369.5C 240.167,371.833 238.833,373.167 236.5,373.5C 229.284,372.279 222.284,370.279 215.5,367.5C 214.893,367.624 214.56,367.957 214.5,368.5C 214.631,369.239 214.464,369.906 214,370.5C 212.915,369.707 211.748,369.04 210.5,368.5C 209.833,352.833 209.167,337.167 208.5,321.5C 207.702,321.957 207.369,322.624 207.5,323.5C 203.164,333.504 198.831,343.504 194.5,353.5C 193.675,354.386 192.675,354.719 191.5,354.5C 175.986,351.44 160.986,346.773 146.5,340.5C 153.99,323.202 161.156,305.869 168,288.5C 153.475,302.025 139.309,315.859 125.5,330C 124.552,330.483 123.552,330.649 122.5,330.5C 104.391,319.719 91.7247,304.386 84.5,284.5C 84.3505,283.448 84.5172,282.448 85,281.5C 110.167,259 135.333,236.5 160.5,214C 159.5,213.333 158.5,213.333 157.5,214C 130.436,226.039 103.102,237.206 75.5,247.5C 72.4158,231.789 70.7492,215.789 70.5,199.5C 70.2317,196.881 70.565,194.381 71.5,192C 98.2231,187.319 124.89,182.319 151.5,177C 124.06,171.792 96.7264,166.292 69.5,160.5C 69.5,152.833 69.5,145.167 69.5,137.5C 69.726,119.455 70.726,101.455 72.5,83.5 Z"/></g>
<g><path style="opacity:0.965" fill="#b3b486" d="M 223.5,291.5 C 224.833,291.5 226.167,291.5 227.5,291.5C 227.5,300.167 227.5,308.833 227.5,317.5C 224.689,317.174 222.022,316.341 219.5,315C 211.617,310.118 205.451,303.618 201,295.5C 200.219,294.056 200.386,292.723 201.5,291.5C 207.313,294.074 213.313,296.074 219.5,297.5C 219.665,300.518 219.498,303.518 219,306.5C 217.872,303.793 216.372,301.293 214.5,299C 211.824,298.26 209.158,297.927 206.5,298C 210.086,304.752 215.419,309.585 222.5,312.5C 223.497,305.532 223.83,298.532 223.5,291.5 Z"/></g>
<g><path style="opacity:0.985" fill="#b3b586" d="M 274.5,291.5 C 274.17,298.532 274.503,305.532 275.5,312.5C 282.581,309.585 287.914,304.752 291.5,298C 288.842,297.927 286.176,298.26 283.5,299C 281.628,301.293 280.128,303.793 279,306.5C 278.216,303.24 278.383,300.073 279.5,297C 285.559,295.257 291.559,293.424 297.5,291.5C 293.136,304.863 284.136,313.529 270.5,317.5C 270.5,309.167 270.5,300.833 270.5,292.5C 271.568,291.566 272.901,291.232 274.5,291.5 Z"/></g>
<g><path style="opacity:0.981" fill="#716965" d="M 315.5,296.5 C 318.548,312.45 321.048,328.45 323,344.5C 314.618,334.452 306.618,324.119 299,313.5C 298.184,312.177 297.017,311.511 295.5,311.5C 302.128,306.512 308.795,301.512 315.5,296.5 Z"/></g>
<g><path style="opacity:0.984" fill="#726966" d="M 182.5,296.5 C 189.19,301.531 195.857,306.531 202.5,311.5C 200.983,311.511 199.816,312.177 199,313.5C 191.382,324.119 183.382,334.452 175,344.5C 176.522,328.381 179.022,312.381 182.5,296.5 Z"/></g>
<g><path style="opacity:0.927" fill="#9a8f82" d="M 282.5,279.5 C 283.371,282.112 284.037,284.779 284.5,287.5C 281.794,287.575 279.127,287.908 276.5,288.5C 276.5,284.5 276.5,280.5 276.5,276.5C 277.314,274.369 277.814,272.036 278,269.5C 279.275,273.042 280.775,276.375 282.5,279.5 Z"/></g>
<g><path style="opacity:0.982" fill="#978d81" d="M 294.5,279.5 C 294.5,280.833 294.5,282.167 294.5,283.5C 292.323,283.586 290.323,284.253 288.5,285.5C 287.571,284.311 287.238,282.978 287.5,281.5C 288.166,277.316 288.833,272.982 289.5,268.5C 290.993,272.343 292.66,276.01 294.5,279.5 Z"/></g>
<g><path style="opacity:0.97" fill="#988e81" d="M 209.5,268.5 C 209.179,273.695 209.513,278.695 210.5,283.5C 210.631,284.376 210.298,285.043 209.5,285.5C 207.677,284.253 205.677,283.586 203.5,283.5C 203.873,280.426 204.539,277.426 205.5,274.5C 206.293,272.082 207.626,270.082 209.5,268.5 Z"/></g>
<g><path style="opacity:0.98" fill="#9b9185" d="M 299.5,272.5 C 300.026,274.23 301.026,275.564 302.5,276.5C 302.912,278.973 301.912,280.306 299.5,280.5C 298.167,277.833 298.167,275.167 299.5,272.5 Z"/></g>
<g><path style="opacity:0.957" fill="#9a8f84" d="M 199.5,281.5 C 197.536,281.023 196.202,279.856 195.5,278C 196.414,276.594 197.08,275.094 197.5,273.5C 198.117,273.389 198.617,273.056 199,272.5C 199.498,275.482 199.665,278.482 199.5,281.5 Z"/></g>
<g><path style="opacity:0.965" fill="#998f83" d="M 219.5,269.5 C 220.996,275.605 221.663,281.938 221.5,288.5C 218.746,288.216 216.08,287.549 213.5,286.5C 215.504,280.821 217.504,275.154 219.5,269.5 Z"/></g>
<g><path style="opacity:0.981" fill="#716965" d="M 207.5,323.5 C 208.495,335.322 208.828,347.322 208.5,359.5C 202.71,357.95 197.044,356.283 191.5,354.5C 192.675,354.719 193.675,354.386 194.5,353.5C 198.831,343.504 203.164,333.504 207.5,323.5 Z"/></g>
<g><path style="opacity:0.982" fill="#716965" d="M 305.5,354.5 C 300.256,356.135 294.923,357.802 289.5,359.5C 289.333,347.495 289.5,335.495 290,323.5C 294.67,334.173 299.836,344.506 305.5,354.5 Z"/></g>
<g><path style="opacity:0.206" fill="#3e2f20" d="M 419.5,267.5 C 420.525,268.374 421.192,269.541 421.5,271C 420.515,276.681 419.515,282.347 418.5,288C 413.615,296.049 408.948,304.216 404.5,312.5C 404.709,313.086 405.043,313.586 405.5,314C 403.766,316.7 401.432,318.7 398.5,320C 399.833,321.84 399.666,322.34 398,321.5C 395.717,324.914 392.884,327.748 389.5,330C 383.036,335.072 376.036,339.406 368.5,343C 351.535,348.664 334.535,354.331 317.5,360C 315.246,361.377 313.08,362.877 311,364.5C 312.864,370.199 315.197,375.866 318,381.5C 319.224,395.291 324.89,397.291 335,387.5C 338.628,380.41 342.128,373.243 345.5,366C 348.206,364.452 351.04,363.286 354,362.5C 354.645,363.646 355.478,364.646 356.5,365.5C 356.137,366.183 355.804,366.85 355.5,367.5C 352.936,367.979 350.436,368.645 348,369.5C 347.501,375.491 347.334,381.491 347.5,387.5C 346.676,383.688 346.176,379.688 346,375.5C 342.709,386.973 335.209,394.973 323.5,399.5C 321.885,398.846 320.218,398.346 318.5,398C 317.906,396.018 316.74,394.184 315,392.5C 315.432,385.966 313.599,380.3 309.5,375.5C 308.31,373.645 306.977,371.812 305.5,370C 304.552,369.517 303.552,369.351 302.5,369.5C 302.643,367.738 302.309,366.071 301.5,364.5C 302.982,362.517 304.649,360.684 306.5,359C 327.311,353.73 347.644,347.063 367.5,339C 376.083,334.884 383.749,329.551 390.5,323C 390.43,322.235 390.097,321.735 389.5,321.5C 400.245,311.026 408.245,298.693 413.5,284.5C 415.743,279.02 417.743,273.353 419.5,267.5 Z M 326.5,366.5 C 324.253,369.89 324.087,373.557 326,377.5C 326.953,379.592 328.286,379.925 330,378.5C 330.906,376.256 331.406,373.923 331.5,371.5C 332.157,367.49 330.49,365.824 326.5,366.5 Z"/></g>
<g><path style="opacity:0.961" fill="#8f6e66" d="M 274.5,354.5 C 270.643,355.175 266.977,356.342 263.5,358C 259.191,359.198 255.524,358.198 252.5,355C 254.432,353.541 256.432,352.375 258.5,351.5C 268.083,349.793 277.25,346.793 286,342.5C 286.667,343.167 286.667,343.833 286,344.5C 281.974,347.698 278.141,351.032 274.5,354.5 Z"/></g>
<g><path style="opacity:0.411" fill="#33261b" d="M 389.5,321.5 C 390.097,321.735 390.43,322.235 390.5,323C 383.749,329.551 376.083,334.884 367.5,339C 347.644,347.063 327.311,353.73 306.5,359C 304.649,360.684 302.982,362.517 301.5,364.5C 302.309,366.071 302.643,367.738 302.5,369.5C 296.014,372.661 289.514,375.994 283,379.5C 282.536,378.906 282.369,378.239 282.5,377.5C 284.907,376.206 287.074,374.539 289,372.5C 289.499,368.179 289.666,363.846 289.5,359.5C 294.923,357.802 300.256,356.135 305.5,354.5C 320.799,351.178 335.799,346.845 350.5,341.5C 359.254,338.619 367.587,334.953 375.5,330.5C 380.167,327.5 384.833,324.5 389.5,321.5 Z"/></g>
<g><path style="opacity:0.945" fill="#8e6d65" d="M 256.5,369.5 C 250.628,370.188 249.628,368.688 253.5,365C 260.411,363.635 267.077,361.801 273.5,359.5C 277.232,358.916 280.898,358.416 284.5,358C 276.768,365.635 267.434,369.469 256.5,369.5 Z"/></g>
<g><path style="opacity:0.988" fill="#b6b889" d="M 127.5,364.5 C 127.5,364.167 127.5,363.833 127.5,363.5C 134.999,365.554 142.499,367.554 150,369.5C 150.499,375.491 150.666,381.491 150.5,387.5C 148.635,389.534 146.468,390.201 144,389.5C 142.667,384.833 141.333,380.167 140,375.5C 139.208,372.894 137.708,370.894 135.5,369.5C 132.869,367.847 130.203,366.181 127.5,364.5 Z"/></g>
<g><path style="opacity:0.928" fill="#b3b485" d="M 369.5,365.5 C 365.827,367 362.494,369 359.5,371.5C 357.965,377.576 356.132,383.576 354,389.5C 351.532,390.201 349.365,389.534 347.5,387.5C 347.334,381.491 347.501,375.491 348,369.5C 350.436,368.645 352.936,367.979 355.5,367.5C 359.578,366.752 363.578,365.752 367.5,364.5C 369.838,362.989 370.504,363.323 369.5,365.5 Z"/></g>
<g><path style="opacity:0.926" fill="#9b9083" d="M 214.5,368.5 C 221.974,375.936 230.974,379.103 241.5,378C 242.328,377.085 243.328,376.419 244.5,376C 241.749,375.057 239.083,374.224 236.5,373.5C 238.833,373.167 240.167,371.833 240.5,369.5C 242.5,369.5 244.5,369.5 246.5,369.5C 246.548,366.708 245.215,364.875 242.5,364C 238.535,363.892 234.868,363.059 231.5,361.5C 233.109,360.335 233.443,359.001 232.5,357.5C 237.255,358.782 241.588,357.949 245.5,355C 239.166,352.514 232.833,350.347 226.5,348.5C 231.603,345.232 235.937,341.065 239.5,336C 243.224,336.112 247.224,336.112 251.5,336C 252.667,334.833 253.833,333.667 255,332.5C 254.405,334.548 254.905,336.548 256.5,338.5C 254.249,341.589 251.583,344.089 248.5,346C 249.653,349.677 251.486,350.177 254,347.5C 254.45,350.106 255.95,351.439 258.5,351.5C 256.432,352.375 254.432,353.541 252.5,355C 255.524,358.198 259.191,359.198 263.5,358C 266.977,356.342 270.643,355.175 274.5,354.5C 274.249,356.17 273.582,357.67 272.5,359C 272.728,359.399 273.062,359.565 273.5,359.5C 267.077,361.801 260.411,363.635 253.5,365C 249.628,368.688 250.628,370.188 256.5,369.5C 255.524,370.815 254.524,372.148 253.5,373.5C 254.325,374.386 255.325,374.719 256.5,374.5C 255.909,375.151 255.243,375.818 254.5,376.5C 255.243,377.182 255.909,377.849 256.5,378.5C 254.326,378.08 252.326,378.08 250.5,378.5C 251.736,379.357 253.069,380.023 254.5,380.5C 255.965,379.391 256.965,379.891 257.5,382C 255.833,384.333 254.167,386.667 252.5,389C 255.471,390.598 256.471,392.931 255.5,396C 257.891,396.691 257.891,397.691 255.5,399C 257.567,399.536 259.401,399.036 261,397.5C 261.167,398 261.333,398.5 261.5,399C 259.153,400.581 259.153,401.914 261.5,403C 259.787,404.378 258.453,406.045 257.5,408C 257.935,409.499 259.101,410.999 261,412.5C 262.585,411.956 264.085,411.289 265.5,410.5C 265.5,417.167 265.5,423.833 265.5,430.5C 264.967,437.297 267.967,441.631 274.5,443.5C 267.962,444.812 261.295,444.812 254.5,443.5C 254.167,443.167 253.833,442.833 253.5,442.5C 255.027,440.807 256.36,438.973 257.5,437C 256.464,435.383 255.297,435.216 254,436.5C 253.383,435.551 253.549,434.718 254.5,434C 252.699,433.683 252.366,433.016 253.5,432C 252.167,431.667 250.833,431.333 249.5,431C 252.882,430.824 256.215,430.324 259.5,429.5C 259.062,428.494 258.396,428.494 257.5,429.5C 254.951,428.643 252.451,427.643 250,426.5C 248.635,426.844 247.468,427.511 246.5,428.5C 245.167,426.5 245.167,424.5 246.5,422.5C 248.33,424.027 249.33,423.527 249.5,421C 249.215,419.11 248.215,417.777 246.5,417C 247.517,415.951 247.684,414.784 247,413.5C 245.417,415.055 243.584,416.222 241.5,417C 240.359,417.741 240.359,418.575 241.5,419.5C 238.871,421.05 237.037,420.384 236,417.5C 235.333,418.167 234.667,418.833 234,419.5C 233.503,417.19 233.337,414.857 233.5,412.5C 235.857,412.663 238.19,412.497 240.5,412C 240.501,410.601 240.835,409.101 241.5,407.5C 241.113,406.28 240.28,405.613 239,405.5C 236.901,406.287 234.734,406.62 232.5,406.5C 232.048,399.169 231.548,391.835 231,384.5C 230.617,383.944 230.117,383.611 229.5,383.5C 228.486,382.326 227.153,381.66 225.5,381.5C 219.219,379.908 213.719,376.908 209,372.5C 208.501,368.179 208.334,363.846 208.5,359.5C 208.828,347.322 208.495,335.322 207.5,323.5C 207.369,322.624 207.702,321.957 208.5,321.5C 209.167,337.167 209.833,352.833 210.5,368.5C 211.748,369.04 212.915,369.707 214,370.5C 214.464,369.906 214.631,369.239 214.5,368.5 Z"/></g>
<g><path style="opacity:0.927" fill="#8d6c64" d="M 231.5,361.5 C 234.868,363.059 238.535,363.892 242.5,364C 245.215,364.875 246.548,366.708 246.5,369.5C 244.5,369.5 242.5,369.5 240.5,369.5C 229.76,369.646 220.76,365.812 213.5,358C 214,357.833 214.5,357.667 215,357.5C 220.463,359.074 225.963,360.408 231.5,361.5 Z"/></g>
<g><path style="opacity:0.931" fill="#8c6b63" d="M 226.5,348.5 C 232.833,350.347 239.166,352.514 245.5,355C 241.588,357.949 237.255,358.782 232.5,357.5C 229.327,356.83 226.327,355.664 223.5,354C 208.166,342.838 209.166,341.004 226.5,348.5 Z"/></g>
<g><path style="opacity:0.122" fill="#453423" d="M 127.5,364.5 C 130.203,366.181 132.869,367.847 135.5,369.5C 133.231,370.966 131.231,372.799 129.5,375C 130.571,375.852 131.571,376.685 132.5,377.5C 130.801,377.38 129.135,377.046 127.5,376.5C 125.197,376.876 124.863,377.876 126.5,379.5C 125.5,379.5 124.5,379.5 123.5,379.5C 122.811,383.069 121.811,386.569 120.5,390C 121.7,391.703 121.367,393.203 119.5,394.5C 120.325,395.386 121.325,395.719 122.5,395.5C 121.386,398.177 121.386,400.844 122.5,403.5C 123.941,402.135 125.274,400.635 126.5,399C 128.488,398.82 130.488,398.986 132.5,399.5C 131.194,400.467 130.527,401.801 130.5,403.5C 133.798,403.016 136.464,404.016 138.5,406.5C 146.168,410.003 154.168,412.336 162.5,413.5C 162.5,414.5 162.5,415.5 162.5,416.5C 168.929,417.691 175.262,419.358 181.5,421.5C 184.884,420.857 188.217,420.023 191.5,419C 195.572,414.523 200.739,412.356 207,412.5C 211.687,414.698 216.853,416.864 222.5,419C 225.939,421.935 227.939,425.268 228.5,429C 230.013,430.879 230.679,433.046 230.5,435.5C 231.5,435.5 232.5,435.5 233.5,435.5C 236.868,442.531 242.535,445.864 250.5,445.5C 254.809,447.323 259.475,448.823 264.5,450C 274.333,450.167 284.167,450.333 294,450.5C 304.832,450.133 315.498,450.133 326,450.5C 327.285,450.05 328.452,449.383 329.5,448.5C 332.279,450.986 335.112,450.986 338,448.5C 339.085,449.293 340.252,449.96 341.5,450.5C 352.28,450.403 363.114,450.403 374,450.5C 376.526,450.435 378.859,449.768 381,448.5C 381.308,449.308 381.808,449.975 382.5,450.5C 384.382,449.907 386.215,449.24 388,448.5C 392.236,448.263 396.569,448.597 401,449.5C 404.166,448.695 407.333,448.028 410.5,447.5C 410.5,446.5 410.5,445.5 410.5,444.5C 415.031,444.246 419.364,443.246 423.5,441.5C 419.465,438.815 415.465,436.815 411.5,435.5C 410.766,434.292 410.433,432.959 410.5,431.5C 406.589,431.253 403.256,429.753 400.5,427C 398.527,426.505 396.527,426.338 394.5,426.5C 394.5,425.5 394.5,424.5 394.5,423.5C 392.167,423.5 389.833,423.5 387.5,423.5C 387.33,422.178 387.663,421.011 388.5,420C 384.277,418.528 379.943,417.528 375.5,417C 371.702,415.455 368.035,413.621 364.5,411.5C 362.971,411.529 361.804,412.196 361,413.5C 360.426,411.508 359.259,410.008 357.5,409C 358.872,407.758 359.872,406.258 360.5,404.5C 360.043,403.702 359.376,403.369 358.5,403.5C 359.568,402.566 360.901,402.232 362.5,402.5C 363.209,403.404 364.209,403.737 365.5,403.5C 365.5,402.167 365.5,400.833 365.5,399.5C 367.512,398.986 369.512,398.82 371.5,399C 372.787,400.41 373.954,401.91 375,403.5C 376.665,399.794 376.498,396.127 374.5,392.5C 376.322,391.719 376.989,390.552 376.5,389C 374.519,388.395 374.185,387.395 375.5,386C 373.75,383.982 372.416,381.815 371.5,379.5C 373.078,377.682 372.578,376.682 370,376.5C 368.467,376.773 366.967,377.106 365.5,377.5C 366.058,376.21 367.058,375.377 368.5,375C 366.613,372.502 363.613,371.336 359.5,371.5C 362.494,369 365.827,367 369.5,365.5C 370.467,366.806 371.801,367.473 373.5,367.5C 373.343,368.873 373.51,370.207 374,371.5C 374.333,371.167 374.667,370.833 375,370.5C 376.037,373.405 377.204,376.239 378.5,379C 378.043,379.414 377.709,379.914 377.5,380.5C 379.669,384.604 381.002,388.771 381.5,393C 381.043,393.414 380.709,393.914 380.5,394.5C 381.415,395.328 382.081,396.328 382.5,397.5C 381.213,399.16 379.88,400.826 378.5,402.5C 378.88,404.021 379.046,405.687 379,407.5C 383.479,414.009 389.313,417.509 396.5,418C 405.324,421.516 413.657,425.016 421.5,428.5C 422.919,431.525 424.919,434.025 427.5,436C 426.094,441.575 424.427,447.075 422.5,452.5C 420.571,452.231 418.905,452.731 417.5,454C 410.783,454.204 404.117,454.704 397.5,455.5C 391.771,454.171 386.105,454.505 380.5,456.5C 341.203,455.755 302.203,455.755 263.5,456.5C 261.024,453.931 258.524,453.931 256,456.5C 254.05,454.429 251.883,454.095 249.5,455.5C 246.692,454.03 243.692,453.197 240.5,453C 235.706,451.071 231.539,448.238 228,444.5C 225.757,440.515 223.924,436.348 222.5,432C 223.308,431.692 223.975,431.192 224.5,430.5C 222.343,428.178 220.01,426.011 217.5,424C 217.833,423.667 218.167,423.333 218.5,423C 212.927,421.373 207.261,420.707 201.5,421C 198.316,422.757 194.982,424.257 191.5,425.5C 190.914,425.291 190.414,424.957 190,424.5C 188.003,425.672 186.17,427.005 184.5,428.5C 165.268,424.034 146.601,417.867 128.5,410C 126.782,409.654 125.115,409.154 123.5,408.5C 122.914,408.709 122.414,409.043 122,409.5C 119.255,407.515 117.088,405.015 115.5,402C 115.577,399.044 114.91,396.044 113.5,393C 114.794,390.244 116.46,387.744 118.5,385.5C 117.266,383.602 117.599,381.935 119.5,380.5C 118.572,379.232 118.405,377.899 119,376.5C 120.569,375.062 122.069,373.562 123.5,372C 122.724,370.23 122.89,368.397 124,366.5C 124.816,365.177 125.983,364.511 127.5,364.5 Z M 326.5,366.5 C 324.253,369.89 324.087,373.557 326,377.5C 326.953,379.592 328.286,379.925 330,378.5C 330.906,376.256 331.406,373.923 331.5,371.5C 332.157,367.49 330.49,365.824 326.5,366.5 Z M 166.5,366.5 C 166.335,369.518 166.502,372.518 167,375.5C 167.118,377.573 168.118,378.907 170,379.5C 172.218,377.008 173.384,374.008 173.5,370.5C 172.573,367.013 170.24,365.68 166.5,366.5 Z"/></g>
<g><path style="opacity:0.956" fill="#b1b284" d="M 132.5,399.5 C 130.488,398.986 128.488,398.82 126.5,399C 125.274,400.635 123.941,402.135 122.5,403.5C 121.386,400.844 121.386,398.177 122.5,395.5C 122.834,392.832 124.167,390.832 126.5,389.5C 129.151,391.65 131.651,393.983 134,396.5C 134.585,397.998 134.085,398.998 132.5,399.5 Z"/></g>
<g><path style="opacity:0.87" fill="#a6a47a" d="M 374.5,392.5 C 376.498,396.127 376.665,399.794 375,403.5C 373.954,401.91 372.787,400.41 371.5,399C 369.512,398.82 367.512,398.986 365.5,399.5C 363.915,398.998 363.415,397.998 364,396.5C 366.391,393.403 369.224,391.237 372.5,390C 373.381,390.708 374.047,391.542 374.5,392.5 Z"/></g>
<g><path style="opacity:0.359" fill="#34281b" d="M 359.5,371.5 C 363.613,371.336 366.613,372.502 368.5,375C 367.058,375.377 366.058,376.21 365.5,377.5C 364.206,378.29 363.039,379.29 362,380.5C 360.203,384.572 358.037,388.405 355.5,392C 357.167,393.167 358.833,394.333 360.5,395.5C 362.921,391.66 365.088,387.66 367,383.5C 368.371,381.959 369.871,380.625 371.5,379.5C 372.416,381.815 373.75,383.982 375.5,386C 374.185,387.395 374.519,388.395 376.5,389C 376.989,390.552 376.322,391.719 374.5,392.5C 374.047,391.542 373.381,390.708 372.5,390C 369.224,391.237 366.391,393.403 364,396.5C 363.415,397.998 363.915,398.998 365.5,399.5C 365.5,400.833 365.5,402.167 365.5,403.5C 364.209,403.737 363.209,403.404 362.5,402.5C 362.703,400.61 362.037,399.11 360.5,398C 355.897,394.782 351.064,391.948 346,389.5C 336.04,395.956 326.207,402.623 316.5,409.5C 313.337,398.343 311.004,387.01 309.5,375.5C 313.599,380.3 315.432,385.966 315,392.5C 316.74,394.184 317.906,396.018 318.5,398C 320.218,398.346 321.885,398.846 323.5,399.5C 335.209,394.973 342.709,386.973 346,375.5C 346.176,379.688 346.676,383.688 347.5,387.5C 349.365,389.534 351.532,390.201 354,389.5C 356.132,383.576 357.965,377.576 359.5,371.5 Z"/></g>
<g><path style="opacity:0.906" fill="#403029" d="M 302.5,369.5 C 303.552,369.351 304.552,369.517 305.5,370C 306.977,371.812 308.31,373.645 309.5,375.5C 311.004,387.01 313.337,398.343 316.5,409.5C 326.207,402.623 336.04,395.956 346,389.5C 351.064,391.948 355.897,394.782 360.5,398C 362.037,399.11 362.703,400.61 362.5,402.5C 360.901,402.232 359.568,402.566 358.5,403.5C 346.353,407.2 334.353,411.2 322.5,415.5C 318.764,416.199 315.097,417.199 311.5,418.5C 309.058,418.714 307.392,417.714 306.5,415.5C 306.149,412.097 305.482,408.763 304.5,405.5C 303.79,397.115 302.624,388.782 301,380.5C 300.275,379.941 299.442,379.608 298.5,379.5C 290.65,382.502 283.15,386.169 276,390.5C 275.501,395.489 275.334,400.489 275.5,405.5C 282.095,404.647 288.262,402.647 294,399.5C 294.498,396.518 294.665,393.518 294.5,390.5C 290.993,390.307 287.66,390.973 284.5,392.5C 283.167,393.833 283.167,395.167 284.5,396.5C 286.167,395.833 287.833,395.167 289.5,394.5C 290.429,395.689 290.762,397.022 290.5,398.5C 286.485,399.512 282.485,400.512 278.5,401.5C 278.211,397.894 278.544,394.394 279.5,391C 285.641,387.926 291.974,385.426 298.5,383.5C 299.934,390.771 300.934,398.104 301.5,405.5C 290.619,409.1 279.619,412.434 268.5,415.5C 268.536,404.74 269.536,394.24 271.5,384C 270.552,383.517 269.552,383.351 268.5,383.5C 272.866,380.988 277.533,378.988 282.5,377.5C 282.369,378.239 282.536,378.906 283,379.5C 289.514,375.994 296.014,372.661 302.5,369.5 Z"/></g>
<g><path style="opacity:0.937" fill="#bec38f" d="M 304.5,405.5 C 303.5,405.5 302.5,405.5 301.5,405.5C 300.934,398.104 299.934,390.771 298.5,383.5C 291.974,385.426 285.641,387.926 279.5,391C 278.544,394.394 278.211,397.894 278.5,401.5C 282.485,400.512 286.485,399.512 290.5,398.5C 290.762,397.022 290.429,395.689 289.5,394.5C 287.833,395.167 286.167,395.833 284.5,396.5C 283.167,395.167 283.167,393.833 284.5,392.5C 287.66,390.973 290.993,390.307 294.5,390.5C 294.665,393.518 294.498,396.518 294,399.5C 288.262,402.647 282.095,404.647 275.5,405.5C 275.334,400.489 275.501,395.489 276,390.5C 283.15,386.169 290.65,382.502 298.5,379.5C 299.442,379.608 300.275,379.941 301,380.5C 302.624,388.782 303.79,397.115 304.5,405.5 Z"/></g>
<g><path style="opacity:0.82" fill="#a6a57a" d="M 371.5,379.5 C 369.871,380.625 368.371,381.959 367,383.5C 365.088,387.66 362.921,391.66 360.5,395.5C 358.833,394.333 357.167,393.167 355.5,392C 358.037,388.405 360.203,384.572 362,380.5C 363.039,379.29 364.206,378.29 365.5,377.5C 366.967,377.106 368.467,376.773 370,376.5C 372.578,376.682 373.078,377.682 371.5,379.5 Z"/></g>
<g><path style="opacity:0.368" fill="#35281b" d="M 135.5,369.5 C 137.708,370.894 139.208,372.894 140,375.5C 141.333,380.167 142.667,384.833 144,389.5C 146.468,390.201 148.635,389.534 150.5,387.5C 151.166,384.972 151.832,382.306 152.5,379.5C 155.919,384.668 159.586,389.668 163.5,394.5C 169.164,399.275 174.997,399.608 181,395.5C 182.743,388.776 184.577,382.109 186.5,375.5C 187.5,375.5 188.5,375.5 189.5,375.5C 187.352,386.868 185.019,398.201 182.5,409.5C 180.217,409.392 178.217,408.559 176.5,407C 169.011,401.089 161.345,395.423 153.5,390C 152.5,389.333 151.5,389.333 150.5,390C 145.5,393.167 140.5,396.333 135.5,399.5C 134.429,401.325 135.096,402.492 137.5,403C 153.952,408.373 170.452,413.54 187,418.5C 188.107,418.415 189.107,418.081 190,417.5C 191.908,413.715 193.075,409.715 193.5,405.5C 194.5,405.5 195.5,405.5 196.5,405.5C 207.476,408.824 218.476,412.158 229.5,415.5C 229.292,404.916 228.625,394.416 227.5,384C 228.094,383.536 228.761,383.369 229.5,383.5C 230.117,383.611 230.617,383.944 231,384.5C 231.548,391.835 232.048,399.169 232.5,406.5C 232.218,416.219 232.551,425.886 233.5,435.5C 232.5,435.5 231.5,435.5 230.5,435.5C 230.679,433.046 230.013,430.879 228.5,429C 227.939,425.268 225.939,421.935 222.5,419C 216.853,416.864 211.687,414.698 207,412.5C 200.739,412.356 195.572,414.523 191.5,419C 188.217,420.023 184.884,420.857 181.5,421.5C 175.262,419.358 168.929,417.691 162.5,416.5C 162.5,415.5 162.5,414.5 162.5,413.5C 154.168,412.336 146.168,410.003 138.5,406.5C 136.464,404.016 133.798,403.016 130.5,403.5C 130.527,401.801 131.194,400.467 132.5,399.5C 134.085,398.998 134.585,397.998 134,396.5C 131.651,393.983 129.151,391.65 126.5,389.5C 124.167,390.832 122.834,392.832 122.5,395.5C 121.325,395.719 120.325,395.386 119.5,394.5C 121.367,393.203 121.7,391.703 120.5,390C 121.811,386.569 122.811,383.069 123.5,379.5C 124.5,379.5 125.5,379.5 126.5,379.5C 128.129,380.625 129.629,381.959 131,383.5C 132.912,387.66 135.079,391.66 137.5,395.5C 139.167,394.333 140.833,393.167 142.5,392C 139.954,388.41 137.787,384.577 136,380.5C 134.961,379.29 133.794,378.29 132.5,377.5C 131.571,376.685 130.571,375.852 129.5,375C 131.231,372.799 133.231,370.966 135.5,369.5 Z"/></g>
<g><path style="opacity:0.967" fill="#b5b888" d="M 132.5,377.5 C 133.794,378.29 134.961,379.29 136,380.5C 137.787,384.577 139.954,388.41 142.5,392C 140.833,393.167 139.167,394.333 137.5,395.5C 135.079,391.66 132.912,387.66 131,383.5C 129.629,381.959 128.129,380.625 126.5,379.5C 124.863,377.876 125.197,376.876 127.5,376.5C 129.135,377.046 130.801,377.38 132.5,377.5 Z"/></g>
<g><path style="opacity:0.982" fill="#906d66" d="M 256.5,378.5 C 255.909,377.849 255.243,377.182 254.5,376.5C 255.243,375.818 255.909,375.151 256.5,374.5C 265.646,372.611 274.646,370.444 283.5,368C 282.167,370.667 280.167,372.667 277.5,374C 270.869,377.241 263.869,378.741 256.5,378.5 Z"/></g>
<g><path style="opacity:0.931" fill="#8b6b62" d="M 214.5,368.5 C 214.56,367.957 214.893,367.624 215.5,367.5C 222.284,370.279 229.284,372.279 236.5,373.5C 239.083,374.224 241.749,375.057 244.5,376C 243.328,376.419 242.328,377.085 241.5,378C 230.974,379.103 221.974,375.936 214.5,368.5 Z"/></g>
<g><path style="opacity:0.915" fill="#413129" d="M 195.5,370.5 C 204.889,374.357 214.222,378.524 223.5,383C 225.948,383.853 226.614,383.353 225.5,381.5C 227.153,381.66 228.486,382.326 229.5,383.5C 228.761,383.369 228.094,383.536 227.5,384C 228.625,394.416 229.292,404.916 229.5,415.5C 218.476,412.158 207.476,408.824 196.5,405.5C 197.127,398.108 198.127,390.775 199.5,383.5C 206.029,385.51 212.363,388.01 218.5,391C 219.456,394.394 219.789,397.894 219.5,401.5C 215.774,400.809 212.107,399.809 208.5,398.5C 207.167,397.167 207.167,395.833 208.5,394.5C 210.409,395.348 212.409,395.682 214.5,395.5C 214.5,394.5 214.5,393.5 214.5,392.5C 210.915,391.417 207.249,390.751 203.5,390.5C 203.335,393.518 203.502,396.518 204,399.5C 209.724,402.909 215.89,405.243 222.5,406.5C 222.666,401.156 222.499,395.823 222,390.5C 214.694,386.431 207.194,382.764 199.5,379.5C 198.558,379.608 197.725,379.941 197,380.5C 195.118,388.742 193.951,397.075 193.5,405.5C 193.075,409.715 191.908,413.715 190,417.5C 189.107,418.081 188.107,418.415 187,418.5C 170.452,413.54 153.952,408.373 137.5,403C 135.096,402.492 134.429,401.325 135.5,399.5C 140.5,396.333 145.5,393.167 150.5,390C 151.5,389.333 152.5,389.333 153.5,390C 161.345,395.423 169.011,401.089 176.5,407C 178.217,408.559 180.217,409.392 182.5,409.5C 185.019,398.201 187.352,386.868 189.5,375.5C 189.808,371.991 191.808,370.324 195.5,370.5 Z"/></g>
<g><path style="opacity:0.941" fill="#b4b685" d="M 196.5,405.5 C 195.5,405.5 194.5,405.5 193.5,405.5C 193.951,397.075 195.118,388.742 197,380.5C 197.725,379.941 198.558,379.608 199.5,379.5C 207.194,382.764 214.694,386.431 222,390.5C 222.499,395.823 222.666,401.156 222.5,406.5C 215.89,405.243 209.724,402.909 204,399.5C 203.502,396.518 203.335,393.518 203.5,390.5C 207.249,390.751 210.915,391.417 214.5,392.5C 214.5,393.5 214.5,394.5 214.5,395.5C 212.409,395.682 210.409,395.348 208.5,394.5C 207.167,395.833 207.167,397.167 208.5,398.5C 212.107,399.809 215.774,400.809 219.5,401.5C 219.789,397.894 219.456,394.394 218.5,391C 212.363,388.01 206.029,385.51 199.5,383.5C 198.127,390.775 197.127,398.108 196.5,405.5 Z"/></g>
<g><path style="opacity:0.361" fill="#36281b" d="M 268.5,383.5 C 269.552,383.351 270.552,383.517 271.5,384C 269.536,394.24 268.536,404.74 268.5,415.5C 279.619,412.434 290.619,409.1 301.5,405.5C 302.5,405.5 303.5,405.5 304.5,405.5C 305.482,408.763 306.149,412.097 306.5,415.5C 302.513,415.716 298.68,415.049 295,413.5C 289.222,415.572 283.388,417.572 277.5,419.5C 274.554,422.44 274.887,424.94 278.5,427C 282.45,427.462 286.284,428.296 290,429.5C 293.004,428.713 295.837,429.379 298.5,431.5C 305.525,430.02 312.692,429.02 320,428.5C 320.851,431.612 322.017,431.946 323.5,429.5C 324.086,429.709 324.586,430.043 325,430.5C 330.813,428.565 336.647,426.565 342.5,424.5C 346.204,421.407 348.204,417.407 348.5,412.5C 345.822,413.618 343.155,413.618 340.5,412.5C 335.08,414.907 329.414,416.573 323.5,417.5C 322.702,417.043 322.369,416.376 322.5,415.5C 334.353,411.2 346.353,407.2 358.5,403.5C 359.376,403.369 360.043,403.702 360.5,404.5C 359.872,406.258 358.872,407.758 357.5,409C 359.259,410.008 360.426,411.508 361,413.5C 361.804,412.196 362.971,411.529 364.5,411.5C 368.035,413.621 371.702,415.455 375.5,417C 379.943,417.528 384.277,418.528 388.5,420C 387.663,421.011 387.33,422.178 387.5,423.5C 389.833,423.5 392.167,423.5 394.5,423.5C 394.5,424.5 394.5,425.5 394.5,426.5C 396.527,426.338 398.527,426.505 400.5,427C 403.256,429.753 406.589,431.253 410.5,431.5C 410.433,432.959 410.766,434.292 411.5,435.5C 394.639,428.882 377.973,421.882 361.5,414.5C 353.08,420.693 344.747,426.86 336.5,433C 314.5,433.667 292.5,433.667 270.5,433C 268.548,432.634 266.882,431.801 265.5,430.5C 265.5,423.833 265.5,417.167 265.5,410.5C 265.248,401.787 265.748,393.12 267,384.5C 267.383,383.944 267.883,383.611 268.5,383.5 Z"/></g>
<g><path style="opacity:0.258" fill="#3e2f1f" d="M 306.5,415.5 C 307.392,417.714 309.058,418.714 311.5,418.5C 315.097,417.199 318.764,416.199 322.5,415.5C 322.369,416.376 322.702,417.043 323.5,417.5C 329.414,416.573 335.08,414.907 340.5,412.5C 343.155,413.618 345.822,413.618 348.5,412.5C 348.204,417.407 346.204,421.407 342.5,424.5C 336.647,426.565 330.813,428.565 325,430.5C 324.586,430.043 324.086,429.709 323.5,429.5C 322.017,431.946 320.851,431.612 320,428.5C 312.692,429.02 305.525,430.02 298.5,431.5C 295.837,429.379 293.004,428.713 290,429.5C 286.284,428.296 282.45,427.462 278.5,427C 274.887,424.94 274.554,422.44 277.5,419.5C 283.388,417.572 289.222,415.572 295,413.5C 298.68,415.049 302.513,415.716 306.5,415.5 Z"/></g>
<g><path style="opacity:0.894" fill="#413028" d="M 411.5,435.5 C 415.465,436.815 419.465,438.815 423.5,441.5C 419.364,443.246 415.031,444.246 410.5,444.5C 407.833,444.5 405.167,444.5 402.5,444.5C 400.929,441.256 398.595,438.589 395.5,436.5C 392.976,438.19 390.976,440.357 389.5,443C 388.207,443.49 386.873,443.657 385.5,443.5C 384.018,439.826 381.852,436.493 379,433.5C 374.833,436.819 371.667,440.819 369.5,445.5C 367.833,445.5 366.167,445.5 364.5,445.5C 364.611,444.883 364.944,444.383 365.5,444C 362.24,441.248 359.573,438.081 357.5,434.5C 352.791,437.209 349.124,440.876 346.5,445.5C 323.5,445.5 300.5,445.5 277.5,445.5C 277.179,443.952 276.179,443.285 274.5,443.5C 267.967,441.631 264.967,437.297 265.5,430.5C 266.882,431.801 268.548,432.634 270.5,433C 292.5,433.667 314.5,433.667 336.5,433C 344.747,426.86 353.08,420.693 361.5,414.5C 377.973,421.882 394.639,428.882 411.5,435.5 Z"/></g>
<g><path style="opacity:0.794" fill="#8c7f71" d="M 274.5,443.5 C 276.179,443.285 277.179,443.952 277.5,445.5C 268.5,445.5 259.5,445.5 250.5,445.5C 242.535,445.864 236.868,442.531 233.5,435.5C 232.551,425.886 232.218,416.219 232.5,406.5C 234.734,406.62 236.901,406.287 239,405.5C 240.28,405.613 241.113,406.28 241.5,407.5C 240.835,409.101 240.501,410.601 240.5,412C 238.19,412.497 235.857,412.663 233.5,412.5C 233.337,414.857 233.503,417.19 234,419.5C 234.667,418.833 235.333,418.167 236,417.5C 237.037,420.384 238.871,421.05 241.5,419.5C 240.359,418.575 240.359,417.741 241.5,417C 243.584,416.222 245.417,415.055 247,413.5C 247.684,414.784 247.517,415.951 246.5,417C 248.215,417.777 249.215,419.11 249.5,421C 249.33,423.527 248.33,424.027 246.5,422.5C 245.167,424.5 245.167,426.5 246.5,428.5C 247.468,427.511 248.635,426.844 250,426.5C 252.451,427.643 254.951,428.643 257.5,429.5C 258.396,428.494 259.062,428.494 259.5,429.5C 256.215,430.324 252.882,430.824 249.5,431C 250.833,431.333 252.167,431.667 253.5,432C 252.366,433.016 252.699,433.683 254.5,434C 253.549,434.718 253.383,435.551 254,436.5C 255.297,435.216 256.464,435.383 257.5,437C 256.36,438.973 255.027,440.807 253.5,442.5C 253.833,442.833 254.167,443.167 254.5,443.5C 261.295,444.812 267.962,444.812 274.5,443.5 Z"/></g>
<g><path style="opacity:0.909" fill="#82625a" d="M 364.5,445.5 C 358.5,445.5 352.5,445.5 346.5,445.5C 349.124,440.876 352.791,437.209 357.5,434.5C 359.573,438.081 362.24,441.248 365.5,444C 364.944,444.383 364.611,444.883 364.5,445.5 Z"/></g>
<g><path style="opacity:0.662" fill="#795c52" d="M 402.5,444.5 C 391.504,444.944 380.504,445.278 369.5,445.5C 371.667,440.819 374.833,436.819 379,433.5C 381.852,436.493 384.018,439.826 385.5,443.5C 386.873,443.657 388.207,443.49 389.5,443C 390.976,440.357 392.976,438.19 395.5,436.5C 398.595,438.589 400.929,441.256 402.5,444.5 Z"/></g>
<g><path style="opacity:0.263" fill="#382a1c" d="M 402.5,444.5 C 405.167,444.5 407.833,444.5 410.5,444.5C 410.5,445.5 410.5,446.5 410.5,447.5C 407.333,448.028 404.166,448.695 401,449.5C 396.569,448.597 392.236,448.263 388,448.5C 386.215,449.24 384.382,449.907 382.5,450.5C 381.808,449.975 381.308,449.308 381,448.5C 378.859,449.768 376.526,450.435 374,450.5C 363.114,450.403 352.28,450.403 341.5,450.5C 340.252,449.96 339.085,449.293 338,448.5C 335.112,450.986 332.279,450.986 329.5,448.5C 328.452,449.383 327.285,450.05 326,450.5C 315.498,450.133 304.832,450.133 294,450.5C 284.167,450.333 274.333,450.167 264.5,450C 259.475,448.823 254.809,447.323 250.5,445.5C 259.5,445.5 268.5,445.5 277.5,445.5C 300.5,445.5 323.5,445.5 346.5,445.5C 352.5,445.5 358.5,445.5 364.5,445.5C 366.167,445.5 367.833,445.5 369.5,445.5C 380.504,445.278 391.504,444.944 402.5,444.5 Z"/></g>
</svg>
