<?xml version="1.0" encoding="UTF-8"?>
<!DOCTYPE svg PUBLIC "-//W3C//DTD SVG 1.1//EN" "http://www.w3.org/Graphics/SVG/1.1/DTD/svg11.dtd">
<svg xmlns="http://www.w3.org/2000/svg" version="1.1" width="500px" height="500px" style="shape-rendering:geometricPrecision; text-rendering:geometricPrecision; image-rendering:optimizeQuality; fill-rule:evenodd; clip-rule:evenodd" xmlns:xlink="http://www.w3.org/1999/xlink">
<g><path style="opacity:0.04" fill="#4e3927" d="M 445.5,268.5 C 442.863,270.482 441.53,273.148 441.5,276.5C 443.262,276.643 444.929,276.309 446.5,275.5C 448.708,275.806 450.208,276.806 451,278.5C 453.411,276.847 454.578,277.513 454.5,280.5C 455.5,280.5 456.5,280.5 457.5,280.5C 458.386,286.369 458.719,292.202 458.5,298C 460.101,301.107 462.435,303.273 465.5,304.5C 465.33,305.822 465.663,306.989 466.5,308C 463.536,308.84 463.203,309.84 465.5,311C 465.167,311.333 464.833,311.667 464.5,312C 467.943,315.713 468.443,319.879 466,324.5C 464.03,326.921 462.53,329.588 461.5,332.5C 460.167,332.833 460.167,333.167 461.5,333.5C 458.054,337.799 454.721,342.299 451.5,347C 451.833,347.333 452.167,347.667 452.5,348C 450.436,351.851 448.936,356.017 448,360.5C 447.167,361.333 446.333,362.167 445.5,363C 445.5,364.667 445.5,366.333 445.5,368C 444.848,371.766 443.514,375.266 441.5,378.5C 441.709,379.086 442.043,379.586 442.5,380C 439.595,382.353 437.595,385.353 436.5,389C 436.352,402.209 442.185,411.709 454,417.5C 454.483,418.448 454.649,419.448 454.5,420.5C 455.5,420.5 456.5,420.5 457.5,420.5C 460.203,424.054 461.87,427.887 462.5,432C 461.167,436.333 461.167,440.667 462.5,445C 461.958,448.716 460.791,452.216 459,455.5C 455.758,456.744 452.758,458.41 450,460.5C 449.228,460.355 448.561,460.022 448,459.5C 435.904,461.143 423.738,461.477 411.5,460.5C 409.956,460.21 408.623,459.544 407.5,458.5C 402.22,458.319 396.887,458.652 391.5,459.5C 383.91,457.858 376.244,456.858 368.5,456.5C 353.545,458.26 338.545,458.76 323.5,458C 314.278,455.694 304.944,454.028 295.5,453C 291.221,451.527 287.221,449.527 283.5,447C 276.42,447.768 269.42,447.102 262.5,445C 260.095,443.004 257.595,441.17 255,439.5C 251.115,440.045 246.948,440.545 242.5,441C 234.757,446.483 225.757,448.483 215.5,447C 212.978,447.61 210.978,448.943 209.5,451C 199.439,453.667 188.939,455.834 178,457.5C 175.432,456.286 173.265,456.619 171.5,458.5C 170.377,457.456 169.044,456.79 167.5,456.5C 164.082,457.556 160.582,458.223 157,458.5C 147.496,457.547 137.996,456.547 128.5,455.5C 122.091,457.096 115.591,458.096 109,458.5C 106.044,458.277 103.21,457.611 100.5,456.5C 94.8294,459.251 88.8294,460.751 82.5,461C 71.8177,461.832 61.1511,461.666 50.5,460.5C 49.4231,459.295 48.0898,458.628 46.5,458.5C 42.3233,458.551 39.49,456.218 38,451.5C 35.5568,441.597 36.2235,431.93 40,422.5C 42.4711,418.496 45.9711,416.496 50.5,416.5C 51.414,413.644 53.0807,411.144 55.5,409C 56.448,408.517 57.448,408.351 58.5,408.5C 59.5054,405.279 60.3387,401.946 61,398.5C 62.7687,391.764 61.102,386.098 56,381.5C 54.9367,374.477 52.77,367.81 49.5,361.5C 49.9867,360.554 50.3201,359.554 50.5,358.5C 48.2477,355.176 46.7477,351.509 46,347.5C 41.75,341.335 37.75,335.002 34,328.5C 30.8268,320.473 30.8268,312.473 34,304.5C 36.1847,303.072 38.1847,301.405 40,299.5C 40.1815,293.103 40.8482,286.77 42,280.5C 42.2189,281.938 42.7189,283.271 43.5,284.5C 44.3816,283.24 45.3816,282.074 46.5,281C 45.5,280.667 44.5,280.333 43.5,280C 44.91,279.632 45.91,278.799 46.5,277.5C 50.2327,276.318 53.8993,274.985 57.5,273.5C 55.4358,270.167 52.9358,267.167 50,264.5C 48.2913,261.055 48.1247,257.555 49.5,254C 47.1622,250.001 47.8289,246.334 51.5,243C 50.8172,240.017 52.1505,238.017 55.5,237C 59.1704,236.452 62.8371,235.952 66.5,235.5C 66.6495,234.448 66.4828,233.448 66,232.5C 60.5611,227.066 55.8945,221.066 52,214.5C 50.7498,209.917 49.9164,205.251 49.5,200.5C 49.4184,197.243 50.4184,194.409 52.5,192C 51.5494,191.282 51.3828,190.449 52,189.5C 55.9456,187.019 60.1122,185.019 64.5,183.5C 56.0178,169.879 47.5178,156.212 39,142.5C 35.2569,133.765 34.5903,124.765 37,115.5C 38.9694,112.58 41.4694,111.58 44.5,112.5C 52.8481,109.578 60.8481,110.411 68.5,115C 78.8165,124.832 90.1498,133.332 102.5,140.5C 103.631,138.926 103.798,137.259 103,135.5C 100.209,125.374 97.209,115.374 94,105.5C 91.8834,96.1019 92.3834,87.1019 95.5,78.5C 96.0253,77.8076 96.6919,77.3076 97.5,77C 101.331,76.834 104.997,76.0007 108.5,74.5C 111.642,76.1187 114.975,76.7854 118.5,76.5C 117.941,65.3901 123.274,59.7234 134.5,59.5C 139.321,59.8292 143.821,61.1626 148,63.5C 150.281,60.0968 153.114,57.2634 156.5,55C 159.598,54.0818 162.765,53.5818 166,53.5C 169.842,54.0603 173.676,54.2269 177.5,54C 180.76,43.8813 187.76,39.8813 198.5,42C 203.758,43.1413 208.758,44.9747 213.5,47.5C 219.09,46.0532 224.59,46.3865 230,48.5C 232.801,46.0262 235.301,43.1929 237.5,40C 245.5,35.3333 253.5,35.3333 261.5,40C 264.202,42.5969 266.536,45.4303 268.5,48.5C 270.295,47.7349 272.128,47.0682 274,46.5C 278.18,46.8925 282.346,47.2258 286.5,47.5C 294.398,42.8831 301.898,41.8831 309,44.5C 313.218,43.2657 316.552,44.5991 319,48.5C 319.45,50.519 320.283,52.3523 321.5,54C 325.353,54.0328 329.186,53.5328 333,52.5C 337.632,52.9569 341.965,54.2903 346,56.5C 346.376,59.0101 347.21,61.3435 348.5,63.5C 351.856,62.4529 355.19,61.4529 358.5,60.5C 363.28,61.5441 368.28,61.7108 373.5,61C 375.081,61.7065 376.581,62.5399 378,63.5C 379.004,67.5915 380.504,71.4248 382.5,75C 385.168,74.7309 387.668,74.5643 390,74.5C 392.725,76.7577 395.725,77.0911 399,75.5C 400.973,76.6399 402.807,77.9733 404.5,79.5C 406.396,85.6294 407.062,91.7961 406.5,98C 404.875,107.852 401.875,117.186 397.5,126C 397.957,126.414 398.291,126.914 398.5,127.5C 396.876,131.701 395.876,136.034 395.5,140.5C 397.783,140.392 399.783,139.559 401.5,138C 412.588,129.232 423.922,120.899 435.5,113C 443.006,111.58 450.673,111.58 458.5,113C 460.333,113.5 461.5,114.667 462,116.5C 462.337,119.861 462.837,123.194 463.5,126.5C 463.125,128.459 462.459,130.293 461.5,132C 462.576,133.726 462.743,135.559 462,137.5C 453.548,152.303 444.381,167.303 434.5,182.5C 434.608,183.442 434.941,184.275 435.5,185C 443.415,185.676 447.915,189.842 449,197.5C 449.512,203.281 448.846,208.948 447,214.5C 442.234,221.109 437.401,227.609 432.5,234C 432.905,234.945 433.572,235.612 434.5,236C 437.5,236.333 440.5,236.667 443.5,237C 446.057,237.685 447.891,239.185 449,241.5C 450.484,247.765 450.818,254.098 450,260.5C 449.5,261 449,261.5 448.5,262C 449.711,263.113 449.711,264.28 448.5,265.5C 447.23,266.288 446.23,267.288 445.5,268.5 Z M 282.5,48.5 C 283.978,48.238 285.311,48.5713 286.5,49.5C 284.76,50.8092 283.427,50.4759 282.5,48.5 Z"/></g>
<g><path style="opacity:0.202" fill="#463123" d="M 247.5,58.5 C 245.52,82.5338 243.187,106.534 240.5,130.5C 239.207,129.158 238.374,127.491 238,125.5C 232.925,104.374 227.425,83.3744 221.5,62.5C 222.117,62.3893 222.617,62.056 223,61.5C 226.746,64.5856 230.746,67.2523 235,69.5C 237.75,65.6682 240.25,61.6682 242.5,57.5C 243.524,56.1468 244.857,55.4802 246.5,55.5C 246.351,54.448 246.517,53.448 247,52.5C 247.495,54.4727 247.662,56.4727 247.5,58.5 Z"/></g>
<g><path style="opacity:0.212" fill="#443022" d="M 164.5,68.5 C 168.816,90.9708 172.816,113.637 176.5,136.5C 163.767,118.716 151.767,100.383 140.5,81.5C 141.469,80.6906 142.302,79.6906 143,78.5C 147.505,83.0899 151.839,87.0899 156,90.5C 157.5,89.3333 159,88.1667 160.5,87C 159.833,86.6667 159.167,86.3333 158.5,86C 160.886,80.2861 162.886,74.4528 164.5,68.5 Z"/></g>
<g><path style="opacity:0.864" fill="#8d9699" d="M 255.5,86.5 C 256.765,100.472 257.765,114.472 258.5,128.5C 259.6,136.118 259.767,143.785 259,151.5C 256,159.5 253,167.5 250,175.5C 246.402,167.299 243.069,158.966 240,150.5C 239.335,143.805 239.502,137.138 240.5,130.5C 243.187,106.534 245.52,82.5338 247.5,58.5C 248.082,55.1677 248.916,51.8344 250,48.5C 251.734,61.3169 253.568,73.9835 255.5,86.5 Z"/></g>
<g><path style="opacity:0.482" fill="#402b20" d="M 332.5,80.5 C 333.75,80.5774 334.583,81.244 335,82.5C 334.879,88.4542 335.879,94.1209 338,99.5C 341.403,97.2985 344.903,96.2985 348.5,96.5C 340.193,109.816 331.86,123.149 323.5,136.5C 322.366,134.034 322.199,131.367 323,128.5C 326.979,112.675 330.146,96.6751 332.5,80.5 Z"/></g>
<g><path style="opacity:0.204" fill="#453122" d="M 108.5,88.5 C 107.378,90.2884 107.211,92.2884 108,94.5C 116.048,122.023 124.714,149.356 134,176.5C 134.78,178.387 134.613,180.054 133.5,181.5C 124.334,173.17 115.001,165.003 105.5,157C 104.668,156.312 104.002,156.479 103.5,157.5C 105.925,160.589 107.925,163.922 109.5,167.5C 108.614,168.776 107.614,168.776 106.5,167.5C 89.667,154.173 72.667,141.006 55.5,128C 54.6634,126.989 54.33,125.822 54.5,124.5C 54.369,123.761 54.5357,123.094 55,122.5C 56.6037,123.649 58.2703,123.649 60,122.5C 69.3923,126.801 77.8923,132.468 85.5,139.5C 86.2436,140.991 86.9103,142.491 87.5,144C 93.5474,146.979 98.8808,150.312 103.5,154C 106.435,153.668 109.435,154.168 112.5,155.5C 114.147,154.722 115.48,153.556 116.5,152C 115.167,150 115.167,148 116.5,146C 112.448,134.647 108.615,123.147 105,111.5C 104.337,108.023 103.837,104.523 103.5,101C 105.758,96.4966 106.924,91.6633 107,86.5C 107.717,87.0442 108.217,87.7109 108.5,88.5 Z"/></g>
<g><path style="opacity:0.208" fill="#473323" d="M 365.5,76.5 C 367.748,78.6544 369.248,81.321 370,84.5C 370.72,86.1124 370.554,87.6124 369.5,89C 372.943,89.2213 373.276,90.2213 370.5,92C 372.665,93.5636 374.332,93.3969 375.5,91.5C 375.291,90.914 374.957,90.414 374.5,90C 377.224,89.7305 379.891,89.2305 382.5,88.5C 383.086,88.7093 383.586,89.0426 384,89.5C 384.57,86.1562 385.736,85.8228 387.5,88.5C 389.059,87.9264 390.559,87.2598 392,86.5C 398.919,97.292 399.085,107.792 392.5,118C 390.631,126.618 388.464,135.452 386,144.5C 384.144,149.734 385.978,152.401 391.5,152.5C 399.428,149.202 406.761,144.868 413.5,139.5C 418.94,137.254 423.607,133.754 427.5,129C 431.769,126.361 436.436,124.861 441.5,124.5C 442.466,126.396 442.799,128.396 442.5,130.5C 438.218,132.309 434.218,134.643 430.5,137.5C 417.122,148.21 403.456,158.544 389.5,168.5C 391.443,164.867 393.443,161.201 395.5,157.5C 395.167,157.167 394.833,156.833 394.5,156.5C 393.06,157.952 391.394,158.952 389.5,159.5C 384.838,161.533 381.172,160.366 378.5,156C 379.167,155.667 379.833,155.333 380.5,155C 379.398,152.599 379.231,150.099 380,147.5C 382.713,137.854 385.546,128.188 388.5,118.5C 388.392,117.558 388.059,116.725 387.5,116C 388.849,115.228 389.682,114.061 390,112.5C 390.768,108.08 390.602,103.747 389.5,99.5C 390.058,96.6557 390.725,93.8224 391.5,91C 391.167,90.1667 390.833,89.3333 390.5,88.5C 390.167,88.6667 389.833,88.8333 389.5,89C 375.3,104.032 360.966,118.866 346.5,133.5C 352.661,114.351 358.994,95.3508 365.5,76.5 Z"/></g>
<g><path style="opacity:0.948" fill="#929ea3" d="M 365.5,76.5 C 358.994,95.3508 352.661,114.351 346.5,133.5C 340.407,147.818 334.907,162.485 330,177.5C 321.982,185.019 313.816,192.352 305.5,199.5C 305.167,198.167 304.833,196.833 304.5,195.5C 306,184.503 307.5,173.503 309,162.5C 313.592,153.645 318.425,144.978 323.5,136.5C 331.86,123.149 340.193,109.816 348.5,96.5C 354.47,88.3462 360.304,80.0129 366,71.5C 366.64,73.265 366.473,74.9317 365.5,76.5 Z"/></g>
<g><path style="opacity:0.944" fill="#919da1" d="M 202.5,72.5 C 208.17,87.8444 213.837,103.178 219.5,118.5C 223.827,131.306 228.66,143.973 234,156.5C 234.832,166.849 234.666,177.183 233.5,187.5C 226.442,181.611 220.275,174.944 215,167.5C 211.716,153.427 208.549,139.427 205.5,125.5C 203.274,111.809 200.94,98.1424 198.5,84.5C 196.025,74.6507 194.525,64.6507 194,54.5C 197.138,60.4392 199.972,66.4392 202.5,72.5 Z"/></g>
<g><path style="opacity:0.705" fill="#868d8d" d="M 433.5,151.5 C 429.859,157.795 425.859,163.795 421.5,169.5C 421.52,167.857 420.853,166.524 419.5,165.5C 421.333,164.032 421.666,162.365 420.5,160.5C 419.572,162.335 418.406,162.668 417,161.5C 414.33,163.005 412.164,165.005 410.5,167.5C 409.702,167.043 409.369,166.376 409.5,165.5C 420.134,153.531 431.134,141.865 442.5,130.5C 445.002,128.83 447.002,126.664 448.5,124C 449.332,123.312 449.998,123.479 450.5,124.5C 445.073,133.697 439.406,142.697 433.5,151.5 Z"/></g>
<g><path style="opacity:0.986" fill="#93a0a4" d="M 140.5,81.5 C 151.767,100.383 163.767,118.716 176.5,136.5C 181.244,144.987 185.744,153.654 190,162.5C 191.682,173.472 193.182,184.472 194.5,195.5C 194.167,196.833 193.833,198.167 193.5,199.5C 185.184,192.352 177.018,185.019 169,177.5C 163.943,162.228 158.443,147.228 152.5,132.5C 149.223,121.668 145.556,111.001 141.5,100.5C 138.611,91.3317 135.611,82.165 132.5,73C 132.611,71.2785 133.111,71.1118 134,72.5C 136.188,75.5672 138.355,78.5672 140.5,81.5 Z"/></g>
<g><path style="opacity:0.882" fill="#8c9699" d="M 299.5,91.5 C 297.394,103.136 295.394,114.803 293.5,126.5C 290.255,140.019 287.089,153.686 284,167.5C 278.725,174.944 272.558,181.611 265.5,187.5C 264.334,177.517 264.168,167.517 265,157.5C 269.984,144.573 274.817,131.573 279.5,118.5C 283.883,106.067 288.549,93.7332 293.5,81.5C 297.217,72.537 301.05,63.537 305,54.5C 304.04,66.9296 302.207,79.2629 299.5,91.5 Z"/></g>
<g><path style="opacity:0.487" fill="#402b20" d="M 389.5,99.5 C 390.602,103.747 390.768,108.08 390,112.5C 389.682,114.061 388.849,115.228 387.5,116C 388.059,116.725 388.392,117.558 388.5,118.5C 385.546,128.188 382.713,137.854 380,147.5C 379.231,150.099 379.398,152.599 380.5,155C 379.833,155.333 379.167,155.667 378.5,156C 381.172,160.366 384.838,161.533 389.5,159.5C 382.159,166.841 374.492,173.841 366.5,180.5C 365.503,180.53 364.836,180.03 364.5,179C 373.242,152.5 381.576,126 389.5,99.5 Z"/></g>
<g><path style="opacity:0.346" fill="#432e21" d="M 433.5,151.5 C 434.978,151.238 436.311,151.571 437.5,152.5C 434.224,155.843 431.391,159.51 429,163.5C 427.855,166.432 427.022,169.432 426.5,172.5C 425.5,172.5 424.5,172.5 423.5,172.5C 423.174,175.311 422.341,177.978 421,180.5C 417.84,185.329 414.673,190.162 411.5,195C 412.255,197.175 413.088,199.341 414,201.5C 418.083,200.562 422.25,200.562 426.5,201.5C 415.49,207 404.156,212 392.5,216.5C 402.417,201.001 412.084,185.334 421.5,169.5C 425.859,163.795 429.859,157.795 433.5,151.5 Z"/></g>
<g><path style="opacity:0.959" fill="#929ea2" d="M 50.5,124.5 C 74.4635,149.631 98.6302,174.631 123,199.5C 126.567,210.524 130.067,221.524 133.5,232.5C 132.998,233.521 132.332,233.688 131.5,233C 124.833,229 118.167,225 111.5,221C 109.341,219.941 107.674,218.441 106.5,216.5C 90.0118,189.528 73.0118,162.861 55.5,136.5C 53.2217,132.534 50.8884,128.534 48.5,124.5C 49.2565,123.227 49.9232,123.227 50.5,124.5 Z"/></g>
<g><path style="opacity:0.348" fill="#422e21" d="M 55.5,136.5 C 73.0118,162.861 90.0118,189.528 106.5,216.5C 97.0763,213.552 87.7429,209.552 78.5,204.5C 78.0646,201.387 79.0646,200.721 81.5,202.5C 83.1966,202.101 84.8632,201.601 86.5,201C 85.8333,200.667 85.1667,200.333 84.5,200C 85.1905,198.933 85.6905,197.766 86,196.5C 86.3333,197.167 86.6667,197.833 87,198.5C 87.8077,196.421 87.641,194.421 86.5,192.5C 83.5394,189.041 81.2061,185.208 79.5,181C 80.1667,180.667 80.8333,180.333 81.5,180C 80.2986,179.097 79.4652,177.931 79,176.5C 78.6667,177.5 78.3333,178.5 78,179.5C 73.0246,173.877 69.3579,167.544 67,160.5C 66.6667,160.833 66.3333,161.167 66,161.5C 61.8123,154.459 57.979,146.792 54.5,138.5C 54.5427,137.584 54.8761,136.917 55.5,136.5 Z"/></g>
<g><path style="opacity:0.205" fill="#473223" d="M 436.5,200.5 C 437.748,201.334 438.415,202.667 438.5,204.5C 438.234,209.564 436.734,214.231 434,218.5C 428.667,224.5 423.333,230.5 418,236.5C 416.249,238.49 415.249,240.823 415,243.5C 413.636,242.742 412.469,243.242 411.5,245C 415.188,245.19 418.688,246.024 422,247.5C 423.945,245.819 425.945,245.152 428,245.5C 429.324,246.88 430.657,247.214 432,246.5C 433.307,248.192 434.807,249.525 436.5,250.5C 424.015,254.048 411.515,258.048 399,262.5C 398.667,261.833 398.333,261.167 398,260.5C 397.768,261.737 397.268,262.737 396.5,263.5C 396.5,258.5 396.5,253.5 396.5,248.5C 410.21,232.792 423.543,216.792 436.5,200.5 Z"/></g>
<g><path style="opacity:0.949" fill="#929ea3" d="M 421.5,169.5 C 412.084,185.334 402.417,201.001 392.5,216.5C 391.326,218.441 389.659,219.941 387.5,221C 380.169,224.663 373.169,228.83 366.5,233.5C 368.594,220.838 372.427,208.505 378,196.5C 388.368,185.965 398.868,175.631 409.5,165.5C 409.369,166.376 409.702,167.043 410.5,167.5C 412.164,165.005 414.33,163.005 417,161.5C 418.406,162.668 419.572,162.335 420.5,160.5C 421.666,162.365 421.333,164.032 419.5,165.5C 420.853,166.524 421.52,167.857 421.5,169.5 Z"/></g>
<g><path style="opacity:0.207" fill="#463222" d="M 67.5,206.5 C 79.2635,220.581 90.9302,234.581 102.5,248.5C 102.5,253.167 102.5,257.833 102.5,262.5C 101.213,260.429 99.5467,260.096 97.5,261.5C 86.0426,257.054 74.3759,253.388 62.5,250.5C 63.3602,248.386 65.0268,247.22 67.5,247C 66.8333,246.667 66.1667,246.333 65.5,246C 66.7659,245.691 67.9326,245.191 69,244.5C 70.0852,245.293 71.2519,245.96 72.5,246.5C 76.0938,245.574 79.7604,245.241 83.5,245.5C 82.163,238.631 78.8296,232.797 73.5,228C 74.731,226.817 74.731,225.651 73.5,224.5C 68.3712,220.475 65.7046,215.142 65.5,208.5C 65.8555,207.478 66.5222,206.811 67.5,206.5 Z"/></g>
<g><path style="opacity:0.211" fill="#453022" d="M 437.5,252.5 C 439.969,255.719 439.635,258.885 436.5,262C 435.207,262.49 433.873,262.657 432.5,262.5C 430.616,268.909 426.782,273.909 421,277.5C 420.333,278.5 420.333,279.5 421,280.5C 421.654,279.304 422.154,279.304 422.5,280.5C 421.913,282.742 421.579,284.909 421.5,287C 425.498,288.366 429.665,290.199 434,292.5C 436.045,290.957 437.545,291.29 438.5,293.5C 432.216,300.295 425.549,306.629 418.5,312.5C 414.076,313.546 409.743,314.879 405.5,316.5C 406.775,312.345 408.441,308.345 410.5,304.5C 416.926,301.257 423.26,297.757 429.5,294C 420.506,293.5 411.506,293.334 402.5,293.5C 402.351,292.448 402.517,291.448 403,290.5C 414.678,277.93 426.178,265.264 437.5,252.5 Z"/></g>
<g><path style="opacity:0.952" fill="#070604" d="M 133.5,275.5 C 130.237,274.518 126.903,273.851 123.5,273.5C 123.524,278.923 124.19,284.257 125.5,289.5C 121.27,287.88 117.27,286.047 113.5,284C 111.818,289.672 111.151,295.506 111.5,301.5C 106.608,289.059 103.608,276.059 102.5,262.5C 102.5,257.833 102.5,253.167 102.5,248.5C 102.337,246.143 102.503,243.81 103,241.5C 103.718,240.549 104.551,240.383 105.5,241C 111.118,249.344 116.951,257.511 123,265.5C 127.001,268.335 130.501,271.668 133.5,275.5 Z"/></g>
<g><path style="opacity:0.943" fill="#393931" d="M 62.5,250.5 C 74.3759,253.388 86.0426,257.054 97.5,261.5C 99.5467,260.096 101.213,260.429 102.5,262.5C 103.608,276.059 106.608,289.059 111.5,301.5C 111.338,303.527 111.505,305.527 112,307.5C 113.807,311.756 115.307,316.089 116.5,320.5C 113.393,319.111 110.393,317.445 107.5,315.5C 106.893,315.624 106.56,315.957 106.5,316.5C 100.342,311.24 94.3424,305.74 88.5,300C 87.6683,299.312 87.0016,299.479 86.5,300.5C 87.1799,301.86 87.8466,303.193 88.5,304.5C 82.0736,301.257 75.7402,297.757 69.5,294C 78.8333,293.667 88.1667,293.333 97.5,293C 86.6246,280.962 75.958,268.795 65.5,256.5C 64.0401,254.537 62.3734,252.704 60.5,251C 61.0944,250.536 61.7611,250.369 62.5,250.5 Z"/></g>
<g><path style="opacity:0.21" fill="#443022" d="M 65.5,256.5 C 75.958,268.795 86.6246,280.962 97.5,293C 88.1667,293.333 78.8333,293.667 69.5,294C 75.7402,297.757 82.0736,301.257 88.5,304.5C 90.7161,308.266 92.3828,312.266 93.5,316.5C 89.1169,315.149 84.7836,313.815 80.5,312.5C 73.2283,306.897 66.5616,300.564 60.5,293.5C 61.8014,292.36 62.9681,291.027 64,289.5C 65.6842,291.459 67.6842,291.459 70,289.5C 70.7175,290.451 71.5509,290.617 72.5,290C 74.5269,287.906 76.1935,285.573 77.5,283C 75.1295,278.287 71.9628,274.121 68,270.5C 65.4731,266.082 63.6397,261.416 62.5,256.5C 63.5,256.5 64.5,256.5 65.5,256.5 Z"/></g>
<g><path style="opacity:0.901" fill="#3c3a31" d="M 436.5,250.5 C 438.698,250.409 439.031,251.075 437.5,252.5C 426.178,265.264 414.678,277.93 403,290.5C 402.517,291.448 402.351,292.448 402.5,293.5C 411.506,293.334 420.506,293.5 429.5,294C 423.26,297.757 416.926,301.257 410.5,304.5C 411.153,303.193 411.82,301.86 412.5,300.5C 411.998,299.479 411.332,299.312 410.5,300C 405.595,305.41 400.262,310.243 394.5,314.5C 389.932,316.403 385.598,318.736 381.5,321.5C 384.731,315.253 386.731,308.586 387.5,301.5C 392.359,289.391 395.359,276.724 396.5,263.5C 397.268,262.737 397.768,261.737 398,260.5C 398.333,261.167 398.667,261.833 399,262.5C 411.515,258.048 424.015,254.048 436.5,250.5 Z"/></g>
<g><path style="opacity:0.955" fill="#0b0806" d="M 396.5,248.5 C 396.5,253.5 396.5,258.5 396.5,263.5C 395.359,276.724 392.359,289.391 387.5,301.5C 387.654,295.531 386.987,289.698 385.5,284C 381.73,286.047 377.73,287.88 373.5,289.5C 374.968,284.286 375.635,278.953 375.5,273.5C 372.833,273.833 370.167,274.167 367.5,274.5C 367.062,274.565 366.728,274.399 366.5,274C 377.181,263.832 386.514,252.665 394.5,240.5C 395.168,243.306 395.834,245.972 396.5,248.5 Z"/></g>
<g><path style="opacity:0.008" fill="#503d28" d="M 445.5,268.5 C 446.833,269.167 446.833,269.167 445.5,268.5 Z"/></g>
<g><path style="opacity:0.971" fill="#665e45" d="M 133.5,275.5 C 134.5,275.5 135.5,275.5 136.5,275.5C 136.249,279.331 137.416,282.664 140,285.5C 141.062,284.101 142.395,283.101 144,282.5C 146.867,283.381 149.367,284.714 151.5,286.5C 149.473,286.338 147.473,286.505 145.5,287C 147.058,289.052 148.392,291.219 149.5,293.5C 147.5,293.5 145.5,293.5 143.5,293.5C 144.462,298.336 145.796,303.003 147.5,307.5C 144.756,306.795 142.089,306.795 139.5,307.5C 140.456,309.075 141.123,310.742 141.5,312.5C 134.994,311.441 128.66,309.775 122.5,307.5C 121.521,310.625 121.187,313.958 121.5,317.5C 121.5,321.167 121.5,324.833 121.5,328.5C 121.167,328.5 120.833,328.5 120.5,328.5C 119.35,325.702 118.017,323.035 116.5,320.5C 115.307,316.089 113.807,311.756 112,307.5C 111.505,305.527 111.338,303.527 111.5,301.5C 111.151,295.506 111.818,289.672 113.5,284C 117.27,286.047 121.27,287.88 125.5,289.5C 124.19,284.257 123.524,278.923 123.5,273.5C 126.903,273.851 130.237,274.518 133.5,275.5 Z"/></g>
<g><path style="opacity:0.962" fill="#655e45" d="M 387.5,301.5 C 386.731,308.586 384.731,315.253 381.5,321.5C 380.737,323.368 379.737,325.035 378.5,326.5C 378.736,323.391 378.403,320.391 377.5,317.5C 377.813,313.958 377.479,310.625 376.5,307.5C 370.335,309.777 364.001,311.444 357.5,312.5C 357.877,310.742 358.544,309.075 359.5,307.5C 356.844,306.386 354.177,306.386 351.5,307.5C 353.03,302.907 354.364,298.24 355.5,293.5C 353.5,293.5 351.5,293.5 349.5,293.5C 350.608,291.219 351.942,289.052 353.5,287C 351.19,286.503 348.857,286.337 346.5,286.5C 349.102,284.899 351.936,283.565 355,282.5C 356.605,283.101 357.938,284.101 359,285.5C 361.146,282.874 362.479,279.874 363,276.5C 364.622,275.901 366.122,275.234 367.5,274.5C 370.167,274.167 372.833,273.833 375.5,273.5C 375.635,278.953 374.968,284.286 373.5,289.5C 377.73,287.88 381.73,286.047 385.5,284C 386.987,289.698 387.654,295.531 387.5,301.5 Z"/></g>
<g><path style="opacity:0.952" fill="#393a33" d="M 279.5,80.5 C 278.393,93.3273 278.393,105.994 279.5,118.5C 274.817,131.573 269.984,144.573 265,157.5C 264.168,167.517 264.334,177.517 265.5,187.5C 272.558,181.611 278.725,174.944 284,167.5C 287.089,153.686 290.255,140.019 293.5,126.5C 293.369,127.239 293.536,127.906 294,128.5C 303.516,114.172 312.349,99.5054 320.5,84.5C 325.225,78.0718 329.725,71.4051 334,64.5C 333.836,69.8326 333.336,75.166 332.5,80.5C 330.146,96.6751 326.979,112.675 323,128.5C 322.199,131.367 322.366,134.034 323.5,136.5C 318.425,144.978 313.592,153.645 309,162.5C 307.5,173.503 306,184.503 304.5,195.5C 304.833,196.833 305.167,198.167 305.5,199.5C 313.816,192.352 321.982,185.019 330,177.5C 334.907,162.485 340.407,147.818 346.5,133.5C 360.966,118.866 375.3,104.032 389.5,89C 389.833,88.8333 390.167,88.6667 390.5,88.5C 390.833,89.3333 391.167,90.1667 391.5,91C 390.725,93.8224 390.058,96.6557 389.5,99.5C 381.576,126 373.242,152.5 364.5,179C 364.836,180.03 365.503,180.53 366.5,180.5C 351.53,194.634 336.363,208.634 321,222.5C 318.053,229.955 315.886,237.622 314.5,245.5C 323.223,243.482 331.557,240.482 339.5,236.5C 355.837,213.51 372.504,190.844 389.5,168.5C 403.456,158.544 417.122,148.21 430.5,137.5C 434.218,134.643 438.218,132.309 442.5,130.5C 431.134,141.865 420.134,153.531 409.5,165.5C 398.868,175.631 388.368,185.965 378,196.5C 372.427,208.505 368.594,220.838 366.5,233.5C 373.169,228.83 380.169,224.663 387.5,221C 389.659,219.941 391.326,218.441 392.5,216.5C 404.156,212 415.49,207 426.5,201.5C 429.89,201.223 433.057,200.223 436,198.5C 436.464,199.094 436.631,199.761 436.5,200.5C 423.543,216.792 410.21,232.792 396.5,248.5C 395.834,245.972 395.168,243.306 394.5,240.5C 386.514,252.665 377.181,263.832 366.5,274C 366.728,274.399 367.062,274.565 367.5,274.5C 366.122,275.234 364.622,275.901 363,276.5C 362.479,279.874 361.146,282.874 359,285.5C 357.938,284.101 356.605,283.101 355,282.5C 351.936,283.565 349.102,284.899 346.5,286.5C 345.833,286.5 345.5,286.833 345.5,287.5C 339.353,289.327 333.353,291.327 327.5,293.5C 318.133,293.958 308.8,294.791 299.5,296C 290.833,300.328 283.666,306.494 278,314.5C 272.981,320.536 268.981,327.203 266,334.5C 264.752,345.464 264.252,356.464 264.5,367.5C 259.743,362.382 254.743,357.382 249.5,352.5C 244.479,356.854 239.812,361.521 235.5,366.5C 235.977,354.337 234.81,342.337 232,330.5C 227.736,322.972 222.736,315.972 217,309.5C 212.438,304.484 207.271,300.317 201.5,297C 191.543,295.504 181.543,294.337 171.5,293.5C 165.596,291.566 159.596,289.566 153.5,287.5C 153.158,286.662 152.492,286.328 151.5,286.5C 149.367,284.714 146.867,283.381 144,282.5C 142.395,283.101 141.062,284.101 140,285.5C 137.416,282.664 136.249,279.331 136.5,275.5C 135.5,275.5 134.5,275.5 133.5,275.5C 130.501,271.668 127.001,268.335 123,265.5C 116.951,257.511 111.118,249.344 105.5,241C 104.551,240.383 103.718,240.549 103,241.5C 102.503,243.81 102.337,246.143 102.5,248.5C 90.9302,234.581 79.2635,220.581 67.5,206.5C 65.7211,204.454 64.0544,202.287 62.5,200C 63,199.833 63.5,199.667 64,199.5C 68.5906,201.864 73.424,203.53 78.5,204.5C 87.7429,209.552 97.0763,213.552 106.5,216.5C 107.674,218.441 109.341,219.941 111.5,221C 118.167,225 124.833,229 131.5,233C 132.332,233.688 132.998,233.521 133.5,232.5C 130.067,221.524 126.567,210.524 123,199.5C 98.6302,174.631 74.4635,149.631 50.5,124.5C 51.8333,124.5 53.1667,124.5 54.5,124.5C 54.33,125.822 54.6634,126.989 55.5,128C 72.667,141.006 89.667,154.173 106.5,167.5C 107.614,168.776 108.614,168.776 109.5,167.5C 126.584,191.099 143.918,214.599 161.5,238C 169.369,241.683 177.369,244.183 185.5,245.5C 183.34,238.51 181.174,231.51 179,224.5C 176.203,220.701 173.036,217.201 169.5,214C 157.305,203.301 145.305,192.468 133.5,181.5C 134.613,180.054 134.78,178.387 134,176.5C 124.714,149.356 116.048,122.023 108,94.5C 107.211,92.2884 107.378,90.2884 108.5,88.5C 111.5,91.1667 114.5,93.8333 117.5,96.5C 128.462,109.129 140.128,121.129 152.5,132.5C 158.443,147.228 163.943,162.228 169,177.5C 177.018,185.019 185.184,192.352 193.5,199.5C 193.833,198.167 194.167,196.833 194.5,195.5C 193.182,184.472 191.682,173.472 190,162.5C 185.744,153.654 181.244,144.987 176.5,136.5C 172.816,113.637 168.816,90.9708 164.5,68.5C 164.259,65.001 165.092,64.6677 167,67.5C 169.36,72.2404 172.193,76.5737 175.5,80.5C 185.071,96.6393 194.905,112.639 205,128.5C 205.483,127.552 205.649,126.552 205.5,125.5C 208.549,139.427 211.716,153.427 215,167.5C 220.275,174.944 226.442,181.611 233.5,187.5C 234.666,177.183 234.832,166.849 234,156.5C 228.66,143.973 223.827,131.306 219.5,118.5C 220.243,104.669 220.243,90.6693 219.5,76.5C 219.334,70.4908 219.501,64.4908 220,58.5C 221.188,59.5634 221.688,60.8967 221.5,62.5C 227.425,83.3744 232.925,104.374 238,125.5C 238.374,127.491 239.207,129.158 240.5,130.5C 239.502,137.138 239.335,143.805 240,150.5C 243.069,158.966 246.402,167.299 250,175.5C 253,167.5 256,159.5 259,151.5C 259.767,143.785 259.6,136.118 258.5,128.5C 259.931,128.119 260.764,127.119 261,125.5C 264.717,111.846 268.217,98.1791 271.5,84.5C 274.056,75.5756 276.556,66.5756 279,57.5C 279.5,65.1594 279.666,72.8261 279.5,80.5 Z"/></g>
<g><path style="opacity:0.983" fill="#919da1" d="M 316.5,282.5 C 313.167,282.5 309.833,282.5 306.5,282.5C 307.724,277.154 309.724,272.154 312.5,267.5C 327.027,258.903 342.027,251.403 357.5,245C 346.196,257.304 334.53,269.304 322.5,281C 320.292,281.191 318.292,281.691 316.5,282.5 Z"/></g>
<g><path style="opacity:0.98" fill="#040403" d="M 312.5,267.5 C 309.724,272.154 307.724,277.154 306.5,282.5C 309.833,282.5 313.167,282.5 316.5,282.5C 317.873,282.343 319.207,282.51 320.5,283C 313.179,292.846 303.512,296.012 291.5,292.5C 293.177,287.153 294.843,281.819 296.5,276.5C 301.564,272.969 306.897,269.969 312.5,267.5 Z"/></g>
<g><path style="opacity:0.947" fill="#919da1" d="M 186.5,267.5 C 189.344,272.184 191.344,277.184 192.5,282.5C 188.5,282.5 184.5,282.5 180.5,282.5C 179.391,281.71 178.058,281.21 176.5,281C 164.47,269.304 152.804,257.304 141.5,245C 142.5,244.333 143.5,244.333 144.5,245C 158.658,252.245 172.658,259.745 186.5,267.5 Z"/></g>
<g><path style="opacity:0.971" fill="#050404" d="M 186.5,267.5 C 192.021,269.845 197.188,272.845 202,276.5C 204.533,281.599 206.366,286.932 207.5,292.5C 201.528,293.664 195.528,293.83 189.5,293C 185.534,290.036 181.867,286.703 178.5,283C 179.094,282.536 179.761,282.369 180.5,282.5C 184.5,282.5 188.5,282.5 192.5,282.5C 191.344,277.184 189.344,272.184 186.5,267.5 Z"/></g>
<g><path style="opacity:0.961" fill="#050403" d="M 213.5,246.5 C 220.847,254.353 227.68,262.687 234,271.5C 234.523,277.449 234.023,283.283 232.5,289C 226.39,287.874 220.556,285.707 215,282.5C 210.332,273.305 206.165,263.971 202.5,254.5C 206.282,256.951 210.282,258.951 214.5,260.5C 214.167,255.833 213.833,251.167 213.5,246.5 Z"/></g>
<g><path style="opacity:0.967" fill="#060504" d="M 285.5,247.5 C 285.174,251.884 285.508,256.217 286.5,260.5C 289.518,258.474 292.518,256.474 295.5,254.5C 296.239,254.369 296.906,254.536 297.5,255C 292.945,263.344 288.779,271.844 285,280.5C 279.552,284.91 273.385,287.91 266.5,289.5C 265.007,283.568 264.507,277.568 265,271.5C 270.284,263.881 275.951,256.548 282,249.5C 282.816,248.177 283.983,247.511 285.5,247.5 Z"/></g>
<g><path style="opacity:0.967" fill="#050504" d="M 244.5,236.5 C 246.148,238.429 247.815,240.429 249.5,242.5C 251.185,240.429 252.852,238.429 254.5,236.5C 255.777,237.694 256.444,239.36 256.5,241.5C 258.368,254.139 259.535,266.806 260,279.5C 256.779,276.145 253.279,273.145 249.5,270.5C 245.721,273.145 242.221,276.145 239,279.5C 239.949,265.509 241.282,251.509 243,237.5C 243.383,236.944 243.883,236.611 244.5,236.5 Z"/></g>
<g><path style="opacity:0.979" fill="#040303" d="M 274.5,210.5 C 274.523,216.039 275.357,221.372 277,226.5C 281.001,223.331 284.834,219.997 288.5,216.5C 289.043,216.56 289.376,216.893 289.5,217.5C 287.774,225.518 285.941,233.518 284,241.5C 278.492,246.732 272.325,250.565 265.5,253C 263.237,245.342 262.404,237.508 263,229.5C 266,223.5 269,217.5 272,211.5C 272.671,210.748 273.504,210.414 274.5,210.5 Z"/></g>
<g><path style="opacity:0.981" fill="#030303" d="M 224.5,208.5 C 228.813,215.117 232.646,222.117 236,229.5C 236.329,237.543 235.829,245.543 234.5,253.5C 227.137,250.984 220.637,246.984 215,241.5C 213.066,233.229 211.566,224.896 210.5,216.5C 214.189,220.187 218.189,223.52 222.5,226.5C 223.825,220.573 224.492,214.573 224.5,208.5 Z"/></g>
<g><path style="opacity:0.985" fill="#929fa3" d="M 295.5,254.5 C 292.518,256.474 289.518,258.474 286.5,260.5C 285.508,256.217 285.174,251.884 285.5,247.5C 285.954,244.86 287.121,242.527 289,240.5C 299.667,227.167 310.333,213.833 321,200.5C 320.103,204.526 318.769,208.526 317,212.5C 310.759,225.319 304.759,238.319 299,251.5C 297.855,252.636 296.688,253.636 295.5,254.5 Z"/></g>
<g><path style="opacity:0.984" fill="#929fa3" d="M 213.5,246.5 C 213.833,251.167 214.167,255.833 214.5,260.5C 210.282,258.951 206.282,256.951 202.5,254.5C 192.951,237.072 184.784,219.072 178,200.5C 190.838,215.157 202.671,230.491 213.5,246.5 Z"/></g>
<g><path style="opacity:0.988" fill="#919ea3" d="M 254.5,236.5 C 252.852,238.429 251.185,240.429 249.5,242.5C 247.815,240.429 246.148,238.429 244.5,236.5C 244.621,218.728 246.455,201.061 250,183.5C 251.623,199.19 253.457,214.857 255.5,230.5C 255.427,232.59 255.094,234.59 254.5,236.5 Z"/></g>
<g><path style="opacity:0.984" fill="#93a1a6" d="M 133.5,181.5 C 145.305,192.468 157.305,203.301 169.5,214C 173.036,217.201 176.203,220.701 179,224.5C 181.174,231.51 183.34,238.51 185.5,245.5C 177.369,244.183 169.369,241.683 161.5,238C 143.918,214.599 126.584,191.099 109.5,167.5C 107.925,163.922 105.925,160.589 103.5,157.5C 104.002,156.479 104.668,156.312 105.5,157C 115.001,165.003 124.334,173.17 133.5,181.5 Z"/></g>
<g><path style="opacity:0.984" fill="#0d0e0e" d="M 172.5,224.5 C 173.79,225.058 174.623,226.058 175,227.5C 176.154,231.104 176.987,234.771 177.5,238.5C 172.972,237.718 168.972,235.884 165.5,233C 167.654,230.013 169.987,227.18 172.5,224.5 Z"/></g>
<g><path style="opacity:0.986" fill="#93a0a5" d="M 389.5,168.5 C 372.504,190.844 355.837,213.51 339.5,236.5C 331.557,240.482 323.223,243.482 314.5,245.5C 315.886,237.622 318.053,229.955 321,222.5C 336.363,208.634 351.53,194.634 366.5,180.5C 374.492,173.841 382.159,166.841 389.5,159.5C 391.394,158.952 393.06,157.952 394.5,156.5C 394.833,156.833 395.167,157.167 395.5,157.5C 393.443,161.201 391.443,164.867 389.5,168.5 Z"/></g>
<g><path style="opacity:0.982" fill="#0b0c0d" d="M 324.5,224.5 C 328.08,226.408 331.08,229.074 333.5,232.5C 330.349,235.246 326.683,237.246 322.5,238.5C 322.167,238 321.833,237.5 321.5,237C 322.739,232.877 323.739,228.71 324.5,224.5 Z"/></g>
<g><path style="opacity:0.986" fill="#090a0a" d="M 311.5,172.5 C 315.533,173.349 319.199,175.016 322.5,177.5C 319.481,181.353 315.981,184.687 312,187.5C 311.501,182.511 311.334,177.511 311.5,172.5 Z"/></g>
<g><path style="opacity:0.981" fill="#0d0e0e" d="M 184.5,172.5 C 185.5,172.5 186.5,172.5 187.5,172.5C 187.827,177.214 187.493,181.88 186.5,186.5C 182.544,184.212 179.211,181.212 176.5,177.5C 179.231,175.808 181.898,174.142 184.5,172.5 Z"/></g>
<g><path style="opacity:0.988" fill="#93a0a5" d="M 224.5,208.5 C 224.492,214.573 223.825,220.573 222.5,226.5C 218.189,223.52 214.189,220.187 210.5,216.5C 209.048,210.533 207.548,204.533 206,198.5C 203.329,183.836 200.996,169.169 199,154.5C 208.183,172.238 216.683,190.238 224.5,208.5 Z"/></g>
<g><path style="opacity:0.92" fill="#100e0c" d="M 269.5,161.5 C 273.035,162.265 276.369,163.599 279.5,165.5C 276.182,169.318 272.682,172.985 269,176.5C 268.749,171.499 268.916,166.499 269.5,161.5 Z"/></g>
<g><path style="opacity:0.984" fill="#93a0a5" d="M 288.5,216.5 C 284.834,219.997 281.001,223.331 277,226.5C 275.357,221.372 274.523,216.039 274.5,210.5C 274.34,208.801 274.506,207.134 275,205.5C 283.396,188.709 291.729,172.042 300,155.5C 297.252,175.978 293.419,196.311 288.5,216.5 Z"/></g>
<g><path style="opacity:0.964" fill="#0e0f0e" d="M 226.5,161.5 C 227.5,161.5 228.5,161.5 229.5,161.5C 230.496,166.463 230.663,171.463 230,176.5C 226.318,172.985 222.818,169.318 219.5,165.5C 221.904,164.157 224.238,162.823 226.5,161.5 Z"/></g>
<g><path style="opacity:0.805" fill="#12110f" d="M 245.5,147.5 C 248.5,147.5 251.5,147.5 254.5,147.5C 251.569,162.092 248.569,162.092 245.5,147.5 Z"/></g>
<g><path style="opacity:0.476" fill="#402b20" d="M 141.5,100.5 C 145.556,111.001 149.223,121.668 152.5,132.5C 140.128,121.129 128.462,109.129 117.5,96.5C 118.222,96.0825 118.722,95.4158 119,94.5C 124.374,97.9245 129.207,101.925 133.5,106.5C 134.795,105.902 136.128,105.402 137.5,105C 136.833,104.667 136.167,104.333 135.5,104C 136.618,102.926 137.618,101.76 138.5,100.5C 139.527,101.791 140.527,101.791 141.5,100.5 Z"/></g>
<g><path style="opacity:0.479" fill="#402a20" d="M 320.5,84.5 C 312.349,99.5054 303.516,114.172 294,128.5C 293.536,127.906 293.369,127.239 293.5,126.5C 295.394,114.803 297.394,103.136 299.5,91.5C 301.33,87.3922 302.33,87.7255 302.5,92.5C 304.731,93.6238 307.064,94.1238 309.5,94C 312.124,89.5372 315.79,86.3706 320.5,84.5 Z"/></g>
<g><path style="opacity:0.478" fill="#402b20" d="M 175.5,80.5 C 176.5,80.5 177.5,80.5 178.5,80.5C 178.281,81.675 178.614,82.675 179.5,83.5C 183.608,87.3939 187.941,91.0606 192.5,94.5C 193.167,94.1667 193.833,93.8333 194.5,93.5C 194.98,91.0514 195.98,88.8847 197.5,87C 196.117,85.5391 196.451,84.7058 198.5,84.5C 200.94,98.1424 203.274,111.809 205.5,125.5C 205.649,126.552 205.483,127.552 205,128.5C 194.905,112.639 185.071,96.6393 175.5,80.5 Z"/></g>
<g><path style="opacity:0.433" fill="#412b20" d="M 271.5,84.5 C 268.217,98.1791 264.717,111.846 261,125.5C 260.764,127.119 259.931,128.119 258.5,128.5C 257.765,114.472 256.765,100.472 255.5,86.5C 255.369,85.6236 255.702,84.9569 256.5,84.5C 256.833,85.1667 257.167,85.8333 257.5,86.5C 259.843,83.2382 262.676,82.9048 266,85.5C 266.249,84.376 266.749,83.376 267.5,82.5C 268.524,83.8532 269.857,84.5198 271.5,84.5 Z"/></g>
<g><path style="opacity:0.412" fill="#422c20" d="M 293.5,81.5 C 288.549,93.7332 283.883,106.067 279.5,118.5C 278.393,105.994 278.393,93.3273 279.5,80.5C 281.477,79.8505 283.31,79.8505 285,80.5C 286.469,78.5859 288.135,77.9192 290,78.5C 290.985,79.8141 292.152,80.8141 293.5,81.5 Z"/></g>
<g><path style="opacity:0.483" fill="#402a1f" d="M 202.5,72.5 C 206.523,74.5932 210.69,76.5932 215,78.5C 216.47,77.7334 217.97,77.0668 219.5,76.5C 220.243,90.6693 220.243,104.669 219.5,118.5C 213.837,103.178 208.17,87.8444 202.5,72.5 Z"/></g>
<g><path style="opacity:0.973" fill="#090806" d="M 151.5,286.5 C 152.492,286.328 153.158,286.662 153.5,287.5C 152.5,289.5 151.5,291.5 150.5,293.5C 150.167,293.5 149.833,293.5 149.5,293.5C 148.392,291.219 147.058,289.052 145.5,287C 147.473,286.505 149.473,286.338 151.5,286.5 Z"/></g>
<g><path style="opacity:0.969" fill="#0b0a07" d="M 346.5,286.5 C 348.857,286.337 351.19,286.503 353.5,287C 351.942,289.052 350.608,291.219 349.5,293.5C 349.167,293.5 348.833,293.5 348.5,293.5C 347.471,291.483 346.471,289.483 345.5,287.5C 345.5,286.833 345.833,286.5 346.5,286.5 Z"/></g>
<g><path style="opacity:0.965" fill="#655e46" d="M 153.5,287.5 C 159.596,289.566 165.596,291.566 171.5,293.5C 168.721,293.279 166.054,293.612 163.5,294.5C 160.833,293.167 158.167,293.167 155.5,294.5C 153.958,293.699 152.292,293.366 150.5,293.5C 151.5,291.5 152.5,289.5 153.5,287.5 Z"/></g>
<g><path style="opacity:0.968" fill="#645e46" d="M 345.5,287.5 C 346.471,289.483 347.471,291.483 348.5,293.5C 346.708,293.366 345.042,293.699 343.5,294.5C 340.833,293.167 338.167,293.167 335.5,294.5C 332.946,293.612 330.279,293.279 327.5,293.5C 333.353,291.327 339.353,289.327 345.5,287.5 Z"/></g>
<g><path style="opacity:0.984" fill="#070705" d="M 128.5,294.5 C 132.331,294.754 135.665,296.088 138.5,298.5C 136.47,300.607 134.303,302.607 132,304.5C 130.53,301.256 129.363,297.923 128.5,294.5 Z"/></g>
<g><path style="opacity:0.97" fill="#0b0a07" d="M 368.5,293.5 C 369.497,293.47 370.164,293.97 370.5,295C 369.53,298.244 368.363,301.41 367,304.5C 364.697,302.607 362.53,300.607 360.5,298.5C 362.97,296.462 365.637,294.795 368.5,293.5 Z"/></g>
<g><path style="opacity:0.986" fill="#100f0a" d="M 116.5,295.5 C 122.285,298.03 122.618,301.03 117.5,304.5C 116.516,301.572 116.183,298.572 116.5,295.5 Z"/></g>
<g><path style="opacity:0.963" fill="#13110c" d="M 380.5,295.5 C 381.765,296.514 382.431,298.014 382.5,300C 381.73,305.525 380.064,305.525 377.5,300C 378.729,298.614 379.729,297.114 380.5,295.5 Z"/></g>
<g><path style="opacity:0.953" fill="#070604" d="M 248.5,285.5 C 249.75,285.577 250.583,286.244 251,287.5C 253.975,296.094 257.142,304.594 260.5,313C 260.167,313.167 259.833,313.333 259.5,313.5C 256.44,311.304 253.107,309.637 249.5,308.5C 245.697,310.081 242.031,311.581 238.5,313C 242.216,303.968 245.549,294.802 248.5,285.5 Z"/></g>
<g><path style="opacity:0.974" fill="#070604" d="M 147.5,307.5 C 148.573,308.251 148.74,309.251 148,310.5C 146.333,312.167 144.667,313.833 143,315.5C 141.961,314.756 141.461,313.756 141.5,312.5C 141.123,310.742 140.456,309.075 139.5,307.5C 142.089,306.795 144.756,306.795 147.5,307.5 Z"/></g>
<g><path style="opacity:0.971" fill="#0d0c09" d="M 357.5,312.5 C 357.539,313.756 357.039,314.756 356,315.5C 354,313.5 352,311.5 350,309.5C 349.472,308.184 349.972,307.517 351.5,307.5C 354.177,306.386 356.844,306.386 359.5,307.5C 358.544,309.075 357.877,310.742 357.5,312.5 Z"/></g>
<g><path style="opacity:0.982" fill="#0a0906" d="M 122.5,307.5 C 123.812,309.479 125.479,311.145 127.5,312.5C 126.089,314.914 124.089,316.581 121.5,317.5C 121.187,313.958 121.521,310.625 122.5,307.5 Z"/></g>
<g><path style="opacity:0.951" fill="#0d0a07" d="M 376.5,307.5 C 377.479,310.625 377.813,313.958 377.5,317.5C 374.911,316.581 372.911,314.914 371.5,312.5C 373.521,311.145 375.188,309.479 376.5,307.5 Z"/></g>
<g><path style="opacity:0.476" fill="#412c21" d="M 62.5,306.5 C 67.4444,313.348 71.4444,320.681 74.5,328.5C 74.2648,329.097 73.7648,329.43 73,329.5C 69.1724,328.087 65.3391,326.753 61.5,325.5C 60.2905,325.068 59.2905,324.401 58.5,323.5C 58.3452,319.612 59.3452,316.112 61.5,313C 60.4844,312.481 59.8178,311.647 59.5,310.5C 59.5613,308.347 60.5613,307.014 62.5,306.5 Z"/></g>
<g><path style="opacity:0.497" fill="#3f2b21" d="M 116.5,320.5 C 118.017,323.035 119.35,325.702 120.5,328.5C 117.426,327.698 114.426,326.698 111.5,325.5C 110.815,323.586 110.315,321.586 110,319.5C 108.482,318.837 107.315,317.837 106.5,316.5C 106.56,315.957 106.893,315.624 107.5,315.5C 110.393,317.445 113.393,319.111 116.5,320.5 Z"/></g>
<g><path style="opacity:0.973" fill="#958d73" d="M 149.5,293.5 C 149.833,293.5 150.167,293.5 150.5,293.5C 152.292,293.366 153.958,293.699 155.5,294.5C 156.403,296.636 157.569,298.636 159,300.5C 160.752,298.649 162.252,296.649 163.5,294.5C 166.054,293.612 168.721,293.279 171.5,293.5C 181.543,294.337 191.543,295.504 201.5,297C 207.271,300.317 212.438,304.484 217,309.5C 222.736,315.972 227.736,322.972 232,330.5C 234.81,342.337 235.977,354.337 235.5,366.5C 234.657,368.173 233.324,369.34 231.5,370C 228.854,370.497 226.187,370.664 223.5,370.5C 220.873,369.908 218.206,369.575 215.5,369.5C 212.43,369.632 209.43,369.299 206.5,368.5C 203.833,368.167 201.167,367.833 198.5,367.5C 197.167,366.833 195.833,366.167 194.5,365.5C 194.5,363.5 194.5,361.5 194.5,359.5C 190.884,359.899 187.55,360.899 184.5,362.5C 181.933,362.279 179.599,361.612 177.5,360.5C 178.837,359.685 179.837,358.518 180.5,357C 177.773,356.182 175.106,356.348 172.5,357.5C 172.863,358.183 173.196,358.85 173.5,359.5C 169.884,359.101 166.55,358.101 163.5,356.5C 160.794,356.425 158.127,356.092 155.5,355.5C 147.319,352.407 139.653,348.241 132.5,343C 128.233,338.574 124.567,333.741 121.5,328.5C 121.5,324.833 121.5,321.167 121.5,317.5C 124.089,316.581 126.089,314.914 127.5,312.5C 125.479,311.145 123.812,309.479 122.5,307.5C 128.66,309.775 134.994,311.441 141.5,312.5C 141.461,313.756 141.961,314.756 143,315.5C 144.667,313.833 146.333,312.167 148,310.5C 148.74,309.251 148.573,308.251 147.5,307.5C 145.796,303.003 144.462,298.336 143.5,293.5C 145.5,293.5 147.5,293.5 149.5,293.5 Z"/></g>
<g><path style="opacity:0.979" fill="#0d0c09" d="M 150.5,315.5 C 154.226,315.177 157.893,315.511 161.5,316.5C 159.527,319.64 157.36,322.64 155,325.5C 153.39,322.15 151.89,318.816 150.5,315.5 Z"/></g>
<g><path style="opacity:0.982" fill="#0d0c0a" d="M 197.5,310.5 C 199.604,310.201 201.604,310.534 203.5,311.5C 201.154,314.871 198.821,318.204 196.5,321.5C 194.58,318.661 192.913,315.661 191.5,312.5C 193.631,311.831 195.631,311.165 197.5,310.5 Z"/></g>
<g><path style="opacity:0.984" fill="#0b0a06" d="M 183.5,305.5 C 185.288,305.215 186.955,305.548 188.5,306.5C 187.257,309.982 185.757,313.316 184,316.5C 181.676,313.52 180.176,310.187 179.5,306.5C 181.099,306.768 182.432,306.434 183.5,305.5 Z"/></g>
<g><path style="opacity:0.98" fill="#0b0a08" d="M 164.5,299.5 C 167.687,298.194 171.02,298.194 174.5,299.5C 173.253,302.329 171.753,304.995 170,307.5C 167.897,304.941 166.064,302.274 164.5,299.5 Z"/></g>
<g><path style="opacity:0.978" fill="#090805" d="M 163.5,294.5 C 162.252,296.649 160.752,298.649 159,300.5C 157.569,298.636 156.403,296.636 155.5,294.5C 158.167,293.167 160.833,293.167 163.5,294.5 Z"/></g>
<g><path style="opacity:0.979" fill="#0c0b08" d="M 206.5,318.5 C 210.226,318.177 213.893,318.511 217.5,319.5C 215.527,322.64 213.36,325.64 211,328.5C 208.676,325.52 207.176,322.187 206.5,318.5 Z"/></g>
<g><path style="opacity:0.948" fill="#080705" d="M 248.5,317.5 C 249.376,317.369 250.043,317.702 250.5,318.5C 253.734,325.359 257.067,332.193 260.5,339C 256.903,338.223 253.237,337.39 249.5,336.5C 246.101,336.784 242.935,337.784 240,339.5C 239.333,338.5 239.333,337.5 240,336.5C 243.394,330.381 246.228,324.048 248.5,317.5 Z"/></g>
<g><path style="opacity:0.978" fill="#929fa4" d="M 106.5,316.5 C 107.315,317.837 108.482,318.837 110,319.5C 110.315,321.586 110.815,323.586 111.5,325.5C 111.823,329.226 111.489,332.893 110.5,336.5C 107.086,334.043 103.586,331.709 100,329.5C 98.3145,324.796 96.1479,320.462 93.5,316.5C 92.3828,312.266 90.7161,308.266 88.5,304.5C 87.8466,303.193 87.1799,301.86 86.5,300.5C 87.0016,299.479 87.6683,299.312 88.5,300C 94.3424,305.74 100.342,311.24 106.5,316.5 Z"/></g>
<g><path style="opacity:0.474" fill="#402b20" d="M 394.5,314.5 C 393.188,316.479 391.521,318.145 389.5,319.5C 388.691,321.071 388.357,322.738 388.5,324.5C 385.454,326.292 382.121,327.292 378.5,327.5C 378.5,327.167 378.5,326.833 378.5,326.5C 379.737,325.035 380.737,323.368 381.5,321.5C 385.598,318.736 389.932,316.403 394.5,314.5 Z"/></g>
<g><path style="opacity:0.973" fill="#12110e" d="M 127.5,321.5 C 136.063,323.987 136.396,326.987 128.5,330.5C 127.516,327.572 127.183,324.572 127.5,321.5 Z"/></g>
<g><path style="opacity:0.866" fill="#8b9395" d="M 424.5,327.5 C 422.232,331.856 419.565,336.023 416.5,340C 411.19,341.988 406.19,344.488 401.5,347.5C 401.167,346.5 400.833,345.5 400.5,344.5C 401.681,338.409 403.181,332.409 405,326.5C 409.703,321.965 414.203,317.298 418.5,312.5C 425.549,306.629 432.216,300.295 438.5,293.5C 440.296,292.207 441.963,290.707 443.5,289C 444.332,288.312 444.998,288.479 445.5,289.5C 438.472,302.184 431.472,314.85 424.5,327.5 Z"/></g>
<g><path style="opacity:0.971" fill="#13120f" d="M 161.5,323.5 C 165.555,323.176 169.555,323.509 173.5,324.5C 171.5,327.833 169.5,331.167 167.5,334.5C 164.742,331.207 162.742,327.54 161.5,323.5 Z"/></g>
<g><path style="opacity:0.981" fill="#929ea2" d="M 60.5,293.5 C 66.5616,300.564 73.2283,306.897 80.5,312.5C 84.7967,317.298 89.2967,321.965 94,326.5C 95.7755,332.586 97.2755,338.752 98.5,345C 98.1667,345.833 97.8333,346.667 97.5,347.5C 92.5,345 87.5,342.5 82.5,340C 79.6877,336.188 77.021,332.354 74.5,328.5C 71.4444,320.681 67.4444,313.348 62.5,306.5C 59.7801,300.729 56.7801,295.062 53.5,289.5C 54.0016,288.479 54.6683,288.312 55.5,289C 57.0375,290.707 58.7041,292.207 60.5,293.5 Z"/></g>
<g><path style="opacity:0.92" fill="#3c3a32" d="M 418.5,312.5 C 414.203,317.298 409.703,321.965 405,326.5C 403.181,332.409 401.681,338.409 400.5,344.5C 400.833,345.5 401.167,346.5 401.5,347.5C 406.19,344.488 411.19,341.988 416.5,340C 419.565,336.023 422.232,331.856 424.5,327.5C 425.097,328.139 425.93,328.472 427,328.5C 430.545,327.596 434.045,326.596 437.5,325.5C 432.168,330.6 426.668,335.6 421,340.5C 418.664,345.343 416.831,350.343 415.5,355.5C 421.86,355.157 426.86,352.49 430.5,347.5C 433.187,347.336 435.854,347.503 438.5,348C 432.102,353.396 426.435,359.396 421.5,366C 425.177,366.108 428.843,366.108 432.5,366C 427.93,372.052 423.264,377.886 418.5,383.5C 420.075,392.53 421.742,401.53 423.5,410.5C 423.457,411.416 423.124,412.083 422.5,412.5C 420.882,410.215 418.882,408.215 416.5,406.5C 413.679,412.326 410.679,417.993 407.5,423.5C 402.62,416.107 397.12,409.107 391,402.5C 390,400.5 389,398.5 388,396.5C 388.337,390.135 389.171,383.802 390.5,377.5C 391.953,376.175 391.619,375.342 389.5,375C 384.803,373.495 380.137,371.995 375.5,370.5C 375.027,369.094 374.027,368.427 372.5,368.5C 372.123,363.233 370.79,358.233 368.5,353.5C 361.553,355.32 354.553,356.987 347.5,358.5C 345.412,358.38 344.078,357.38 343.5,355.5C 354.68,351.323 364.513,344.989 373,336.5C 374.566,333.248 376.399,330.248 378.5,327.5C 382.121,327.292 385.454,326.292 388.5,324.5C 387.387,328.507 387.387,332.507 388.5,336.5C 391.914,334.043 395.414,331.709 399,329.5C 401.084,325.054 403.25,320.721 405.5,316.5C 409.743,314.879 414.076,313.546 418.5,312.5 Z"/></g>
<g><path style="opacity:0.939" fill="#8e979a" d="M 410.5,304.5 C 408.441,308.345 406.775,312.345 405.5,316.5C 403.25,320.721 401.084,325.054 399,329.5C 395.414,331.709 391.914,334.043 388.5,336.5C 387.387,332.507 387.387,328.507 388.5,324.5C 388.357,322.738 388.691,321.071 389.5,319.5C 391.521,318.145 393.188,316.479 394.5,314.5C 400.262,310.243 405.595,305.41 410.5,300C 411.332,299.312 411.998,299.479 412.5,300.5C 411.82,301.86 411.153,303.193 410.5,304.5 Z"/></g>
<g><path style="opacity:0.951" fill="#3a3b33" d="M 80.5,312.5 C 84.7836,313.815 89.1169,315.149 93.5,316.5C 96.1479,320.462 98.3145,324.796 100,329.5C 103.586,331.709 107.086,334.043 110.5,336.5C 111.489,332.893 111.823,329.226 111.5,325.5C 114.426,326.698 117.426,327.698 120.5,328.5C 120.833,328.5 121.167,328.5 121.5,328.5C 124.567,333.741 128.233,338.574 132.5,343C 139.653,348.241 147.319,352.407 155.5,355.5C 155.372,357.09 154.705,358.423 153.5,359.5C 145.526,357.372 137.526,355.372 129.5,353.5C 128.245,358.106 127.245,362.772 126.5,367.5C 125.5,368.5 124.5,369.5 123.5,370.5C 118.082,372.04 112.749,373.873 107.5,376C 108.056,376.383 108.389,376.883 108.5,377.5C 110.098,384.105 110.931,390.772 111,397.5C 104.713,406.122 98.0466,414.455 91,422.5C 88.4361,417.04 85.6028,411.706 82.5,406.5C 80.1455,408.188 78.1455,410.188 76.5,412.5C 75.8614,411.903 75.528,411.07 75.5,410C 77.4027,400.832 78.9027,391.665 80,382.5C 75.3122,377.313 70.8122,371.98 66.5,366.5C 69.7848,365.676 73.1182,365.176 76.5,365C 71.1667,359.333 65.8333,353.667 60.5,348C 63.146,347.503 65.8127,347.336 68.5,347.5C 72.1404,352.49 77.1404,355.157 83.5,355.5C 82.1692,350.343 80.3359,345.343 78,340.5C 72.3322,335.6 66.8322,330.6 61.5,325.5C 65.3391,326.753 69.1724,328.087 73,329.5C 73.7648,329.43 74.2648,329.097 74.5,328.5C 77.021,332.354 79.6877,336.188 82.5,340C 87.5,342.5 92.5,345 97.5,347.5C 97.8333,346.667 98.1667,345.833 98.5,345C 97.2755,338.752 95.7755,332.586 94,326.5C 89.2967,321.965 84.7967,317.298 80.5,312.5 Z"/></g>
<g><path style="opacity:0.977" fill="#0d0c09" d="M 219.5,327.5 C 222.988,327.705 226.321,328.539 229.5,330C 227.707,332.795 225.54,335.295 223,337.5C 221.142,334.428 219.976,331.095 219.5,327.5 Z"/></g>
<g><path style="opacity:0.983" fill="#929ea2" d="M 58.5,323.5 C 59.2905,324.401 60.2905,325.068 61.5,325.5C 66.8322,330.6 72.3322,335.6 78,340.5C 80.3359,345.343 82.1692,350.343 83.5,355.5C 77.1404,355.157 72.1404,352.49 68.5,347.5C 62.8333,339.5 57.1667,331.5 51.5,323.5C 48.9983,320.492 46.665,317.326 44.5,314C 44.8333,313.833 45.1667,313.667 45.5,313.5C 49.852,316.857 54.1853,320.191 58.5,323.5 Z"/></g>
<g><path style="opacity:0.986" fill="#060604" d="M 174.5,332.5 C 178.514,332.334 182.514,332.501 186.5,333C 184.368,336.764 181.868,340.264 179,343.5C 176.928,340.029 175.428,336.362 174.5,332.5 Z"/></g>
<g><path style="opacity:0.208" fill="#473223" d="M 446.5,325.5 C 447.586,325.62 448.253,326.287 448.5,327.5C 447.892,330.145 447.392,332.812 447,335.5C 446.086,334.346 445.253,334.513 444.5,336C 445.167,336.333 445.833,336.667 446.5,337C 442.422,339.97 440.756,343.803 441.5,348.5C 440.627,350.413 439.627,352.247 438.5,354C 439.447,356.478 439.447,358.812 438.5,361C 437.311,364.86 434.977,367.86 431.5,370C 432.167,370.333 432.833,370.667 433.5,371C 430.224,374.333 428.89,378.167 429.5,382.5C 426.223,385.588 425.889,388.921 428.5,392.5C 428.32,393.554 427.987,394.554 427.5,395.5C 428.38,398.777 429.047,402.111 429.5,405.5C 431.793,408.364 433.126,411.698 433.5,415.5C 435.451,415.227 436.951,415.893 438,417.5C 438.333,417.167 438.667,416.833 439,416.5C 441.039,418.874 443.372,420.874 446,422.5C 446.768,425.511 448.268,428.011 450.5,430C 449.427,431.25 449.427,432.584 450.5,434C 450.333,434.5 450.167,435 450,435.5C 448.736,433.393 446.903,432.393 444.5,432.5C 442.999,431.248 441.332,430.248 439.5,429.5C 433.527,424.194 427.86,418.527 422.5,412.5C 423.124,412.083 423.457,411.416 423.5,410.5C 421.742,401.53 420.075,392.53 418.5,383.5C 423.264,377.886 427.93,372.052 432.5,366C 428.843,366.108 425.177,366.108 421.5,366C 426.435,359.396 432.102,353.396 438.5,348C 435.854,347.503 433.187,347.336 430.5,347.5C 435.356,339.774 440.689,332.441 446.5,325.5 Z"/></g>
<g><path style="opacity:0.008" fill="#503d28" d="M 461.5,332.5 C 462.833,333.167 462.833,333.167 461.5,332.5 Z"/></g>
<g><path style="opacity:0.971" fill="#12110d" d="M 134.5,332.5 C 137.677,333.447 140.677,334.781 143.5,336.5C 141.851,338.65 140.018,340.65 138,342.5C 136.526,339.244 135.36,335.911 134.5,332.5 Z"/></g>
<g><path style="opacity:0.99" fill="#090807" d="M 186.5,341.5 C 190.298,340.517 194.298,340.183 198.5,340.5C 197.824,344.187 196.324,347.52 194,350.5C 191.482,347.429 188.982,344.429 186.5,341.5 Z"/></g>
<g><path style="opacity:0.966" fill="#100e0b" d="M 145.5,341.5 C 149.188,341.781 152.855,342.281 156.5,343C 155.04,346.089 153.207,348.922 151,351.5C 148.888,348.273 147.055,344.94 145.5,341.5 Z"/></g>
<g><path style="opacity:0.802" fill="#888f90" d="M 446.5,325.5 C 440.689,332.441 435.356,339.774 430.5,347.5C 426.86,352.49 421.86,355.157 415.5,355.5C 416.831,350.343 418.664,345.343 421,340.5C 426.668,335.6 432.168,330.6 437.5,325.5C 443.098,321.909 448.431,317.909 453.5,313.5C 453.833,313.667 454.167,313.833 454.5,314C 452.003,317.989 449.336,321.823 446.5,325.5 Z"/></g>
<g><path style="opacity:0.977" fill="#13110f" d="M 200.5,347.5 C 204.5,347.5 208.5,347.5 212.5,347.5C 211.599,351.316 210.099,354.983 208,358.5C 204.862,355.208 202.362,351.542 200.5,347.5 Z"/></g>
<g><path style="opacity:0.975" fill="#11100d" d="M 163.5,356.5 C 161.856,354.519 160.19,352.519 158.5,350.5C 161.5,349.167 164.5,349.167 167.5,350.5C 166.833,352.167 166.167,353.833 165.5,355.5C 165.043,356.298 164.376,356.631 163.5,356.5 Z"/></g>
<g><path style="opacity:0.981" fill="#0c0807" d="M 177.5,360.5 C 176.292,359.766 174.959,359.433 173.5,359.5C 173.196,358.85 172.863,358.183 172.5,357.5C 175.106,356.348 177.773,356.182 180.5,357C 179.837,358.518 178.837,359.685 177.5,360.5 Z"/></g>
<g><path style="opacity:0.952" fill="#0f0e0a" d="M 213.5,356.5 C 214.097,355.861 214.93,355.528 216,355.5C 219.865,355.985 223.698,356.652 227.5,357.5C 225.9,360.94 224.067,364.274 222,367.5C 218.92,363.933 216.087,360.267 213.5,356.5 Z"/></g>
<g><path style="opacity:0.937" fill="#13110e" d="M 325.5,359.5 C 323.784,359.629 322.117,359.962 320.5,360.5C 319.847,359.193 319.18,357.86 318.5,356.5C 321.446,355.345 324.446,355.179 327.5,356C 326.695,357.113 326.028,358.279 325.5,359.5 Z"/></g>
<g><path style="opacity:0.982" fill="#f5588c" d="M 155.5,355.5 C 158.127,356.092 160.794,356.425 163.5,356.5C 166.55,358.101 169.884,359.101 173.5,359.5C 174.959,359.433 176.292,359.766 177.5,360.5C 179.599,361.612 181.933,362.279 184.5,362.5C 188.121,362.708 191.454,363.708 194.5,365.5C 195.833,366.167 197.167,366.833 198.5,367.5C 174.323,367.713 150.323,367.713 126.5,367.5C 127.245,362.772 128.245,358.106 129.5,353.5C 137.526,355.372 145.526,357.372 153.5,359.5C 154.705,358.423 155.372,357.09 155.5,355.5 Z"/></g>
<g><path style="opacity:0.976" fill="#191312" d="M 194.5,365.5 C 191.454,363.708 188.121,362.708 184.5,362.5C 187.55,360.899 190.884,359.899 194.5,359.5C 194.5,361.5 194.5,363.5 194.5,365.5 Z"/></g>
<g><path style="opacity:0.99" fill="#100e0b" d="M 313.5,362.5 C 310.208,362.647 307.208,363.647 304.5,365.5C 304.5,363.833 304.5,362.167 304.5,360.5C 307.829,360.215 310.829,360.882 313.5,362.5 Z"/></g>
<g><path style="opacity:0.968" fill="#e85584" d="M 372.5,368.5 C 349.164,368.333 325.83,368 302.5,367.5C 302.833,366.5 303.5,365.833 304.5,365.5C 307.208,363.647 310.208,362.647 313.5,362.5C 316.152,362.59 318.485,361.924 320.5,360.5C 322.117,359.962 323.784,359.629 325.5,359.5C 328.785,359.072 331.785,358.072 334.5,356.5C 334.833,356.5 335.167,356.5 335.5,356.5C 338.127,355.908 340.794,355.575 343.5,355.5C 344.078,357.38 345.412,358.38 347.5,358.5C 354.553,356.987 361.553,355.32 368.5,353.5C 370.79,358.233 372.123,363.233 372.5,368.5 Z"/></g>
<g><path style="opacity:0.952" fill="#090705" d="M 264.5,367.5 C 264.953,368.458 265.619,369.292 266.5,370C 269.482,370.498 272.482,370.665 275.5,370.5C 274.833,371.5 274.167,372.5 273.5,373.5C 270.489,374.669 267.822,376.336 265.5,378.5C 264.508,378.328 263.842,378.662 263.5,379.5C 258.633,381.531 254.133,384.197 250,387.5C 244.736,385.122 239.902,382.122 235.5,378.5C 234.833,378.5 234.167,378.5 233.5,378.5C 231.206,376.347 228.54,374.68 225.5,373.5C 224.833,372.5 224.167,371.5 223.5,370.5C 226.187,370.664 228.854,370.497 231.5,370C 233.324,369.34 234.657,368.173 235.5,366.5C 239.812,361.521 244.479,356.854 249.5,352.5C 254.743,357.382 259.743,362.382 264.5,367.5 Z"/></g>
<g><path style="opacity:0.976" fill="#958d73" d="M 327.5,293.5 C 330.279,293.279 332.946,293.612 335.5,294.5C 336.989,296.805 338.489,299.138 340,301.5C 341.646,299.391 342.812,297.057 343.5,294.5C 345.042,293.699 346.708,293.366 348.5,293.5C 348.833,293.5 349.167,293.5 349.5,293.5C 351.5,293.5 353.5,293.5 355.5,293.5C 354.364,298.24 353.03,302.907 351.5,307.5C 349.972,307.517 349.472,308.184 350,309.5C 352,311.5 354,313.5 356,315.5C 357.039,314.756 357.539,313.756 357.5,312.5C 364.001,311.444 370.335,309.777 376.5,307.5C 375.188,309.479 373.521,311.145 371.5,312.5C 372.911,314.914 374.911,316.581 377.5,317.5C 378.403,320.391 378.736,323.391 378.5,326.5C 378.5,326.833 378.5,327.167 378.5,327.5C 376.399,330.248 374.566,333.248 373,336.5C 364.513,344.989 354.68,351.323 343.5,355.5C 340.794,355.575 338.127,355.908 335.5,356.5C 337.334,354.495 339.001,352.328 340.5,350C 332.063,347.968 330.063,350.134 334.5,356.5C 331.785,358.072 328.785,359.072 325.5,359.5C 326.028,358.279 326.695,357.113 327.5,356C 324.446,355.179 321.446,355.345 318.5,356.5C 319.18,357.86 319.847,359.193 320.5,360.5C 318.485,361.924 316.152,362.59 313.5,362.5C 310.829,360.882 307.829,360.215 304.5,360.5C 304.5,362.167 304.5,363.833 304.5,365.5C 303.5,365.833 302.833,366.5 302.5,367.5C 299.941,367.198 297.607,367.532 295.5,368.5C 291.481,368.646 287.481,368.979 283.5,369.5C 280.721,369.279 278.054,369.612 275.5,370.5C 272.482,370.665 269.482,370.498 266.5,370C 265.619,369.292 264.953,368.458 264.5,367.5C 264.252,356.464 264.752,345.464 266,334.5C 268.981,327.203 272.981,320.536 278,314.5C 283.666,306.494 290.833,300.328 299.5,296C 308.8,294.791 318.133,293.958 327.5,293.5 Z"/></g>
<g><path style="opacity:0.986" fill="#0f0e0c" d="M 276.5,355.5 C 279.518,355.335 282.518,355.502 285.5,356C 283.052,360.115 280.219,363.948 277,367.5C 274.928,364.029 273.428,360.362 272.5,356.5C 274.099,356.768 275.432,356.434 276.5,355.5 Z"/></g>
<g><path style="opacity:0.981" fill="#0f0e0b" d="M 335.5,356.5 C 335.167,356.5 334.833,356.5 334.5,356.5C 330.063,350.134 332.063,347.968 340.5,350C 339.001,352.328 337.334,354.495 335.5,356.5 Z"/></g>
<g><path style="opacity:0.983" fill="#0a0907" d="M 286.5,347.5 C 300.234,345.525 301.901,348.858 291.5,357.5C 288.78,354.726 287.113,351.393 286.5,347.5 Z"/></g>
<g><path style="opacity:0.958" fill="#13110e" d="M 347.5,341.5 C 349.527,341.338 351.527,341.505 353.5,342C 351.807,345.216 349.973,348.383 348,351.5C 345.429,349.024 343.929,346.024 343.5,342.5C 345.099,342.768 346.432,342.434 347.5,341.5 Z"/></g>
<g><path style="opacity:0.973" fill="#11100d" d="M 299.5,339.5 C 303.936,339.21 308.27,339.71 312.5,341C 310.045,344.078 307.711,347.244 305.5,350.5C 302.693,347.216 300.693,343.549 299.5,339.5 Z"/></g>
<g><path style="opacity:0.977" fill="#0f0e0b" d="M 358.5,333.5 C 360.604,333.201 362.604,333.534 364.5,334.5C 363.608,337.284 362.442,339.95 361,342.5C 358.982,340.65 357.149,338.65 355.5,336.5C 356.34,335.265 357.34,334.265 358.5,333.5 Z"/></g>
<g><path style="opacity:0.967" fill="#0b0a07" d="M 312.5,333.5 C 316.298,332.517 320.298,332.183 324.5,332.5C 324.066,336.642 322.566,340.308 320,343.5C 317.252,340.266 314.752,336.932 312.5,333.5 Z"/></g>
<g><path style="opacity:0.972" fill="#0f0e0b" d="M 273.5,327.5 C 275.5,327.5 277.5,327.5 279.5,327.5C 279.309,331.074 278.309,334.407 276.5,337.5C 273.833,335.5 271.5,333.167 269.5,330.5C 270.624,329.141 271.958,328.141 273.5,327.5 Z"/></g>
<g><path style="opacity:0.975" fill="#11100d" d="M 325.5,323.5 C 329.555,323.176 333.555,323.509 337.5,324.5C 336.231,328.054 334.231,331.054 331.5,333.5C 328.974,330.443 326.974,327.109 325.5,323.5 Z"/></g>
<g><path style="opacity:0.969" fill="#14120f" d="M 369.5,321.5 C 370.765,322.514 371.431,324.014 371.5,326C 371.167,327.5 370.833,329 370.5,330.5C 368.321,329.243 366.321,327.743 364.5,326C 366.24,324.483 367.906,322.983 369.5,321.5 Z"/></g>
<g><path style="opacity:0.98" fill="#090806" d="M 281.5,318.5 C 285.167,318.5 288.833,318.5 292.5,318.5C 291.824,322.187 290.324,325.52 288,328.5C 285.563,325.28 283.397,321.947 281.5,318.5 Z"/></g>
<g><path style="opacity:0.969" fill="#12110e" d="M 337.5,315.5 C 341.182,315.335 344.848,315.501 348.5,316C 347.382,319.355 345.882,322.522 344,325.5C 341.19,322.536 339.024,319.202 337.5,315.5 Z"/></g>
<g><path style="opacity:0.967" fill="#0d0b09" d="M 295.5,310.5 C 299.524,310.948 303.524,311.614 307.5,312.5C 305.796,315.715 304.296,319.049 303,322.5C 300.228,318.612 297.728,314.612 295.5,310.5 Z"/></g>
<g><path style="opacity:0.991" fill="#080806" d="M 310.5,305.5 C 313.482,305.963 316.482,306.296 319.5,306.5C 315.992,319.741 312.992,319.407 310.5,305.5 Z"/></g>
<g><path style="opacity:0.978" fill="#0c0b08" d="M 324.5,298.5 C 327.85,298.335 331.183,298.502 334.5,299C 333.04,302.089 331.207,304.922 329,307.5C 326.962,304.757 325.462,301.757 324.5,298.5 Z"/></g>
<g><path style="opacity:0.959" fill="#100e09" d="M 343.5,294.5 C 342.812,297.057 341.646,299.391 340,301.5C 338.489,299.138 336.989,296.805 335.5,294.5C 338.167,293.167 340.833,293.167 343.5,294.5 Z"/></g>
<g><path style="opacity:0.75" fill="#ae7721" d="M 397.5,365.5 C 401.837,365.969 403.504,368.135 402.5,372C 400.975,373.009 399.308,373.509 397.5,373.5C 397.5,370.833 397.5,368.167 397.5,365.5 Z"/></g>
<g><path style="opacity:0.955" fill="#f05888" d="M 123.5,370.5 C 124.376,370.369 125.043,370.702 125.5,371.5C 123.867,377.405 121.867,383.072 119.5,388.5C 119.892,385.278 119.392,382.278 118,379.5C 116.915,380.293 115.748,380.96 114.5,381.5C 112.21,380.533 110.21,379.2 108.5,377.5C 108.389,376.883 108.056,376.383 107.5,376C 112.749,373.873 118.082,372.04 123.5,370.5 Z"/></g>
<g><path style="opacity:0.969" fill="#e0941b" d="M 99.5,369.5 C 101.388,371.988 102.055,374.988 101.5,378.5C 98.6477,378.648 96.981,377.314 96.5,374.5C 97.0924,372.577 98.0924,370.911 99.5,369.5 Z"/></g>
<g><path style="opacity:0.818" fill="#d45476" d="M 375.5,370.5 C 380.137,371.995 384.803,373.495 389.5,375C 391.619,375.342 391.953,376.175 390.5,377.5C 388.79,379.2 386.79,380.533 384.5,381.5C 383.252,380.96 382.085,380.293 381,379.5C 380.304,382.478 379.804,385.478 379.5,388.5C 377.364,382.997 375.364,377.331 373.5,371.5C 373.957,370.702 374.624,370.369 375.5,370.5 Z"/></g>
<g><path style="opacity:0.584" fill="#af761f" d="M 409.5,377.5 C 413.659,380.291 414.326,383.624 411.5,387.5C 405.629,385.219 404.963,381.886 409.5,377.5 Z"/></g>
<g><path style="opacity:0.937" fill="#dd921d" d="M 89.5,383.5 C 97.2383,386.869 97.405,390.535 90,394.5C 85.582,391.112 85.4153,387.445 89.5,383.5 Z"/></g>
<g><path style="opacity:0.718" fill="#c0801f" d="M 390.5,377.5 C 389.171,383.802 388.337,390.135 388,396.5C 389,398.5 390,400.5 391,402.5C 397.12,409.107 402.62,416.107 407.5,423.5C 400.347,423.237 396.013,426.57 394.5,433.5C 398.257,433.714 398.924,432.714 396.5,430.5C 396.709,429.914 397.043,429.414 397.5,429C 400.171,429.806 402.838,429.639 405.5,428.5C 404.5,430.5 403.5,432.5 402.5,434.5C 399.167,434.5 395.833,434.5 392.5,434.5C 390.79,427.643 388.79,420.976 386.5,414.5C 384.163,405.816 381.829,397.149 379.5,388.5C 379.804,385.478 380.304,382.478 381,379.5C 382.085,380.293 383.252,380.96 384.5,381.5C 386.79,380.533 388.79,379.2 390.5,377.5 Z"/></g>
<g><path style="opacity:0.922" fill="#e0931c" d="M 304.5,416.5 C 305.228,418.735 306.561,420.568 308.5,422C 314.825,422.5 321.158,422.666 327.5,422.5C 331.857,427.852 336.19,433.186 340.5,438.5C 336.298,438.183 332.298,438.517 328.5,439.5C 327.304,433.793 324.137,429.459 319,426.5C 316.755,427.137 314.588,427.97 312.5,429C 314.833,432.667 317.833,435.667 321.5,438C 321.272,438.399 320.938,438.565 320.5,438.5C 313.578,438.812 306.744,438.479 300,437.5C 295.163,424.322 290.33,411.156 285.5,398C 286.377,395.622 288.044,394.122 290.5,393.5C 306.017,391.364 321.517,389.031 337,386.5C 337.833,386.833 338.667,387.167 339.5,387.5C 340.256,392.302 340.922,397.136 341.5,402C 341.167,402.833 340.833,403.667 340.5,404.5C 335.061,401.697 329.561,399.031 324,396.5C 321.228,401.046 318.728,405.713 316.5,410.5C 312.512,407.677 308.679,404.677 305,401.5C 302.438,403.837 300.605,406.67 299.5,410C 301.016,412.341 302.683,414.508 304.5,416.5 Z"/></g>
<g><path style="opacity:0.352" fill="#442e21" d="M 295.5,368.5 C 297.607,367.532 299.941,367.198 302.5,367.5C 325.83,368 349.164,368.333 372.5,368.5C 374.027,368.427 375.027,369.094 375.5,370.5C 374.624,370.369 373.957,370.702 373.5,371.5C 375.364,377.331 377.364,382.997 379.5,388.5C 381.829,397.149 384.163,405.816 386.5,414.5C 386.936,417.364 386.103,419.697 384,421.5C 383.5,421 383,420.5 382.5,420C 382.833,419 383.167,418 383.5,417C 381.641,415.308 379.641,413.808 377.5,412.5C 376.614,413.325 376.281,414.325 376.5,415.5C 375.448,415.351 374.448,415.517 373.5,416C 374.711,416.893 374.711,417.726 373.5,418.5C 372.914,418.291 372.414,417.957 372,417.5C 370.352,418.717 368.519,419.55 366.5,420C 367.5,420.333 368.5,420.667 369.5,421C 367.867,423.018 365.867,424.018 363.5,424C 364.833,423.333 364.833,422.667 363.5,422C 364.167,421.667 364.833,421.333 365.5,421C 364.888,419.697 364.554,418.53 364.5,417.5C 363.833,418.5 363.167,419.5 362.5,420.5C 361.038,419.529 359.705,419.862 358.5,421.5C 355.023,422.167 351.689,422.834 348.5,423.5C 348.167,423.5 347.833,423.5 347.5,423.5C 346.833,425.5 346.167,427.5 345.5,429.5C 344.409,426.572 342.409,424.406 339.5,423C 335.514,422.501 331.514,422.334 327.5,422.5C 321.158,422.666 314.825,422.5 308.5,422C 306.561,420.568 305.228,418.735 304.5,416.5C 328.178,415.854 351.844,415.188 375.5,414.5C 372.998,399.508 368.998,385.008 363.5,371C 346.837,370.099 330.17,369.765 313.5,370C 306.277,377.559 298.777,384.726 291,391.5C 290.536,392.094 290.369,392.761 290.5,393.5C 288.044,394.122 286.377,395.622 285.5,398C 290.33,411.156 295.163,424.322 300,437.5C 306.744,438.479 313.578,438.812 320.5,438.5C 322.199,441.196 324.533,443.196 327.5,444.5C 328.452,442.955 328.785,441.288 328.5,439.5C 331.833,439.5 335.167,439.5 338.5,439.5C 338.5,440.5 338.5,441.5 338.5,442.5C 337.127,442.343 335.793,442.51 334.5,443C 337.272,443.526 339.938,444.359 342.5,445.5C 341.264,446.357 339.931,447.023 338.5,447.5C 330.386,448.011 322.219,448.011 314,447.5C 307.068,446.618 300.902,443.951 295.5,439.5C 294.614,438.675 294.281,437.675 294.5,436.5C 291.074,436.65 290.741,435.484 293.5,433C 287.421,429.252 281.754,429.752 276.5,434.5C 275.893,434.376 275.56,434.043 275.5,433.5C 276.222,433.082 276.722,432.416 277,431.5C 277.169,425.141 277.669,418.807 278.5,412.5C 281.833,414.833 285.167,417.167 288.5,419.5C 288.833,418.667 289.167,417.833 289.5,417C 286.413,409.752 284.58,402.252 284,394.5C 292.373,386.627 300.539,378.627 308.5,370.5C 304.123,369.778 299.79,369.111 295.5,368.5 Z"/></g>
<g><path style="opacity:0.796" fill="#3c3a31" d="M 304.5,416.5 C 302.683,414.508 301.016,412.341 299.5,410C 300.605,406.67 302.438,403.837 305,401.5C 308.679,404.677 312.512,407.677 316.5,410.5C 318.728,405.713 321.228,401.046 324,396.5C 329.561,399.031 335.061,401.697 340.5,404.5C 340.833,403.667 341.167,402.833 341.5,402C 340.922,397.136 340.256,392.302 339.5,387.5C 338.667,387.167 337.833,386.833 337,386.5C 321.517,389.031 306.017,391.364 290.5,393.5C 290.369,392.761 290.536,392.094 291,391.5C 298.777,384.726 306.277,377.559 313.5,370C 330.17,369.765 346.837,370.099 363.5,371C 368.998,385.008 372.998,399.508 375.5,414.5C 351.844,415.188 328.178,415.854 304.5,416.5 Z"/></g>
<g><path style="opacity:0.859" fill="#d18c1d" d="M 352.5,387.5 C 356.252,388.306 357.252,390.472 355.5,394C 350.148,394.175 349.148,392.009 352.5,387.5 Z"/></g>
<g><path style="opacity:0.897" fill="#3c3b32" d="M 206.5,368.5 C 209.43,369.299 212.43,369.632 215.5,369.5C 215.35,383.349 222.016,388.683 235.5,385.5C 235.5,383.167 235.5,380.833 235.5,378.5C 239.902,382.122 244.736,385.122 250,387.5C 254.133,384.197 258.633,381.531 263.5,379.5C 263.5,381.5 263.5,383.5 263.5,385.5C 276.985,388.682 283.651,383.348 283.5,369.5C 287.481,368.979 291.481,368.646 295.5,368.5C 299.79,369.111 304.123,369.778 308.5,370.5C 300.539,378.627 292.373,386.627 284,394.5C 284.58,402.252 286.413,409.752 289.5,417C 289.167,417.833 288.833,418.667 288.5,419.5C 285.167,417.167 281.833,414.833 278.5,412.5C 277.669,418.807 277.169,425.141 277,431.5C 276.722,432.416 276.222,433.082 275.5,433.5C 275.167,433.5 274.833,433.5 274.5,433.5C 271.308,428.793 267.141,425.46 262,423.5C 252.488,424.614 242.988,424.781 233.5,424C 230,427.5 226.5,431 223,434.5C 222.495,432.482 221.995,430.482 221.5,428.5C 221.828,423.125 221.495,417.792 220.5,412.5C 217.328,414.252 214.328,416.252 211.5,418.5C 211.167,417.667 210.833,416.833 210.5,416C 212.623,411.075 214.123,405.908 215,400.5C 216.538,395.831 215.038,392.664 210.5,391C 204.226,383.724 197.559,376.724 190.5,370C 196.016,369.827 201.349,369.327 206.5,368.5 Z"/></g>
<g><path style="opacity:0.85" fill="#bfb78c" d="M 230.5,397.5 C 233.784,398.966 236.45,401.133 238.5,404C 237.231,408.693 235.565,413.193 233.5,417.5C 232.172,410.878 231.172,404.212 230.5,397.5 Z"/></g>
<g><path style="opacity:0.896" fill="#c4bd91" d="M 217.5,387.5 C 220.97,388.288 223.637,390.288 225.5,393.5C 224.103,398.192 222.603,402.859 221,407.5C 219.956,406.377 219.29,405.044 219,403.5C 218.609,398.146 218.109,392.812 217.5,387.5 Z"/></g>
<g><path style="opacity:0.86" fill="#0b0906" d="M 235.5,387.5 C 240.037,389.351 244.537,391.351 249,393.5C 253.677,391.912 258.177,389.912 262.5,387.5C 262.833,388 263.167,388.5 263.5,389C 261.65,393.714 260.316,398.547 259.5,403.5C 255.734,403.715 252.4,405.049 249.5,407.5C 246.779,405.473 243.779,403.973 240.5,403C 238.15,398.114 236.483,392.948 235.5,387.5 Z"/></g>
<g><path style="opacity:0.97" fill="#d3cc9e" d="M 280.5,386.5 C 281.152,387.449 281.486,388.615 281.5,390C 280.563,395.516 279.563,401.016 278.5,406.5C 276.455,402.492 274.789,398.326 273.5,394C 275.348,390.987 277.682,388.487 280.5,386.5 Z"/></g>
<g><path style="opacity:0.967" fill="#f4598a" d="M 283.5,369.5 C 283.651,383.348 276.985,388.682 263.5,385.5C 263.5,383.5 263.5,381.5 263.5,379.5C 263.842,378.662 264.508,378.328 265.5,378.5C 271.013,382.029 273.679,380.363 273.5,373.5C 274.167,372.5 274.833,371.5 275.5,370.5C 278.054,369.612 280.721,369.279 283.5,369.5 Z"/></g>
<g><path style="opacity:0.973" fill="#e1c921" d="M 273.5,373.5 C 273.679,380.363 271.013,382.029 265.5,378.5C 267.822,376.336 270.489,374.669 273.5,373.5 Z"/></g>
<g><path style="opacity:0.93" fill="#dec620" d="M 225.5,373.5 C 228.54,374.68 231.206,376.347 233.5,378.5C 227.987,382.029 225.321,380.363 225.5,373.5 Z"/></g>
<g><path style="opacity:0.944" fill="#ed5887" d="M 215.5,369.5 C 218.206,369.575 220.873,369.908 223.5,370.5C 224.167,371.5 224.833,372.5 225.5,373.5C 225.321,380.363 227.987,382.029 233.5,378.5C 234.167,378.5 234.833,378.5 235.5,378.5C 235.5,380.833 235.5,383.167 235.5,385.5C 222.016,388.683 215.35,383.349 215.5,369.5 Z"/></g>
<g><path style="opacity:0.737" fill="#c0801e" d="M 402.5,392.5 C 405.964,394.13 408.631,396.63 410.5,400C 409.842,403.477 408.176,406.31 405.5,408.5C 397.526,404.305 396.526,398.971 402.5,392.5 Z"/></g>
<g><path style="opacity:0.98" fill="#e7981b" d="M 91.5,399.5 C 96.7631,398.263 100.43,400.096 102.5,405C 97.1707,412.658 92.504,412.325 88.5,404C 89.3146,402.357 90.3146,400.857 91.5,399.5 Z"/></g>
<g><path style="opacity:0.971" fill="#dc911d" d="M 326.5,402.5 C 331.013,402.991 332.68,405.324 331.5,409.5C 329.994,410.747 328.494,410.747 327,409.5C 326.503,407.19 326.337,404.857 326.5,402.5 Z"/></g>
<g><path style="opacity:0.847" fill="#cf891d" d="M 348.5,399.5 C 353.402,400.563 355.902,403.563 356,408.5C 353.621,413.505 350.621,413.839 347,409.5C 346.566,406.032 347.066,402.698 348.5,399.5 Z"/></g>
<g><path style="opacity:0.963" fill="#ccc59a" d="M 266.5,397.5 C 267.765,398.514 268.431,400.014 268.5,402C 267.46,407.15 266.46,412.316 265.5,417.5C 263.435,413.193 261.769,408.693 260.5,404C 262.637,402.027 264.637,399.861 266.5,397.5 Z"/></g>
<g><path style="opacity:0.901" fill="#cac297" d="M 256.5,410.5 C 259.032,413.236 260.365,416.57 260.5,420.5C 258.167,420.5 255.833,420.5 253.5,420.5C 253.885,416.956 254.885,413.623 256.5,410.5 Z"/></g>
<g><path style="opacity:0.976" fill="#e7981c" d="M 108.5,377.5 C 110.21,379.2 112.21,380.533 114.5,381.5C 115.748,380.96 116.915,380.293 118,379.5C 119.392,382.278 119.892,385.278 119.5,388.5C 115.775,403.301 111.442,417.967 106.5,432.5C 103.294,433.808 99.9604,434.475 96.5,434.5C 94.4374,431.382 92.604,428.048 91,424.5C 87.3305,429.336 83.1638,433.669 78.5,437.5C 78.1667,436.5 77.5,435.833 76.5,435.5C 75.0582,434.18 74.3915,432.514 74.5,430.5C 70.3537,431.824 66.5203,433.824 63,436.5C 60.7766,434.72 59.6099,432.386 59.5,429.5C 65.4729,424.194 71.1396,418.527 76.5,412.5C 78.1455,410.188 80.1455,408.188 82.5,406.5C 85.6028,411.706 88.4361,417.04 91,422.5C 98.0466,414.455 104.713,406.122 111,397.5C 110.931,390.772 110.098,384.105 108.5,377.5 Z"/></g>
<g><path style="opacity:0.284" fill="#442d21" d="M 126.5,367.5 C 150.323,367.713 174.323,367.713 198.5,367.5C 201.167,367.833 203.833,368.167 206.5,368.5C 201.349,369.327 196.016,369.827 190.5,370C 197.559,376.724 204.226,383.724 210.5,391C 215.038,392.664 216.538,395.831 215,400.5C 214.123,405.908 212.623,411.075 210.5,416C 210.833,416.833 211.167,417.667 211.5,418.5C 214.328,416.252 217.328,414.252 220.5,412.5C 221.495,417.792 221.828,423.125 221.5,428.5C 219.567,428.271 217.9,427.438 216.5,426C 214.833,425.333 213.167,425.333 211.5,426C 208.132,427.928 205.298,430.428 203,433.5C 202.51,432.207 202.343,430.873 202.5,429.5C 206.146,418.864 209.813,408.197 213.5,397.5C 211.99,395.311 209.99,393.977 207.5,393.5C 208.552,393.649 209.552,393.483 210.5,393C 201.597,386.032 193.264,378.365 185.5,370C 168.831,369.809 152.164,370.143 135.5,371C 130.18,385.493 125.847,400.326 122.5,415.5C 146.485,416.416 170.485,416.75 194.5,416.5C 193.416,418.319 192.082,419.985 190.5,421.5C 184.202,422.496 177.868,422.83 171.5,422.5C 161.762,419.864 155.428,423.198 152.5,432.5C 150.656,430.721 149.99,428.388 150.5,425.5C 150.611,424.883 150.944,424.383 151.5,424C 147.167,423.333 142.833,423.333 138.5,424C 137.418,425.33 136.751,426.83 136.5,428.5C 133.96,427.113 132.293,424.946 131.5,422C 128.657,420.483 125.823,418.983 123,417.5C 121.739,417.759 120.739,418.426 120,419.5C 119.304,422.478 118.804,425.478 118.5,428.5C 117.5,428.5 116.5,428.5 115.5,428.5C 114.571,427.064 113.405,425.731 112,424.5C 109.556,429.604 107.722,434.937 106.5,440.5C 99.7926,440.784 93.4593,442.45 87.5,445.5C 85.4501,444.923 84.4501,443.59 84.5,441.5C 84.9528,440.542 85.6195,439.708 86.5,439C 90.0609,437.768 93.3943,436.268 96.5,434.5C 99.9604,434.475 103.294,433.808 106.5,432.5C 111.442,417.967 115.775,403.301 119.5,388.5C 121.867,383.072 123.867,377.405 125.5,371.5C 125.043,370.702 124.376,370.369 123.5,370.5C 124.5,369.5 125.5,368.5 126.5,367.5 Z"/></g>
<g><path style="opacity:0.958" fill="#3a3a32" d="M 207.5,393.5 C 191.558,391.065 175.558,389.065 159.5,387.5C 158.479,393.13 158.313,398.796 159,404.5C 164.125,401.688 169.291,399.021 174.5,396.5C 175.167,396.833 175.833,397.167 176.5,397.5C 178.121,402.037 180.121,406.371 182.5,410.5C 186.5,407.5 190.5,404.5 194.5,401.5C 196.804,403.938 198.47,406.771 199.5,410C 197.984,412.341 196.317,414.508 194.5,416.5C 170.485,416.75 146.485,416.416 122.5,415.5C 125.847,400.326 130.18,385.493 135.5,371C 152.164,370.143 168.831,369.809 185.5,370C 193.264,378.365 201.597,386.032 210.5,393C 209.552,393.483 208.552,393.649 207.5,393.5 Z"/></g>
<g><path style="opacity:0.961" fill="#dd911c" d="M 169.5,402.5 C 170.5,402.5 171.5,402.5 172.5,402.5C 172.663,404.857 172.497,407.19 172,409.5C 169.218,411.011 167.385,410.178 166.5,407C 167.315,405.357 168.315,403.857 169.5,402.5 Z"/></g>
<g><path style="opacity:0.974" fill="#e1941c" d="M 139.5,403.5 C 143.287,402.814 146.454,403.814 149,406.5C 148.287,412.481 145.12,413.981 139.5,411C 138.351,408.541 138.351,406.041 139.5,403.5 Z"/></g>
<g><path style="opacity:0.95" fill="#d98f1e" d="M 134.5,393.5 C 137.166,393.066 138.333,394.066 138,396.5C 134.403,398.066 133.237,397.066 134.5,393.5 Z"/></g>
<g><path style="opacity:0.895" fill="#df921b" d="M 149.5,388.5 C 153.019,389.309 154.352,391.309 153.5,394.5C 146.72,395.742 145.386,393.742 149.5,388.5 Z"/></g>
<g><path style="opacity:0.199" fill="#493424" d="M 51.5,323.5 C 57.1667,331.5 62.8333,339.5 68.5,347.5C 65.8127,347.336 63.146,347.503 60.5,348C 65.8333,353.667 71.1667,359.333 76.5,365C 73.1182,365.176 69.7848,365.676 66.5,366.5C 70.8122,371.98 75.3122,377.313 80,382.5C 78.9027,391.665 77.4027,400.832 75.5,410C 75.528,411.07 75.8614,411.903 76.5,412.5C 71.1396,418.527 65.4729,424.194 59.5,429.5C 50.3464,433.475 48.8464,439.475 55,447.5C 56.0938,444.308 57.9272,441.642 60.5,439.5C 61.1667,442.167 61.8333,444.833 62.5,447.5C 66.8918,443.103 71.5584,439.103 76.5,435.5C 77.5,435.833 78.1667,436.5 78.5,437.5C 77.1201,437.962 76.4534,438.962 76.5,440.5C 77.5983,442.775 78.9317,444.942 80.5,447C 81.3317,447.688 81.9984,447.521 82.5,446.5C 83.0276,444.664 83.6942,442.997 84.5,441.5C 84.4501,443.59 85.4501,444.923 87.5,445.5C 93.4593,442.45 99.7926,440.784 106.5,440.5C 105.334,442.166 105.334,443.833 106.5,445.5C 110.931,442.868 115.098,439.868 119,436.5C 118.62,433.579 117.453,430.912 115.5,428.5C 116.5,428.5 117.5,428.5 118.5,428.5C 118.804,425.478 119.304,422.478 120,419.5C 120.739,418.426 121.739,417.759 123,417.5C 125.823,418.983 128.657,420.483 131.5,422C 132.293,424.946 133.96,427.113 136.5,428.5C 134.971,432.421 133.637,436.421 132.5,440.5C 124.991,443.749 117.324,446.749 109.5,449.5C 105.396,448.432 101.23,447.766 97,447.5C 89.4014,449.483 81.7347,451.15 74,452.5C 69.6098,451.796 65.2765,451.796 61,452.5C 57.6129,452.204 54.4463,451.204 51.5,449.5C 46.6172,442.025 46.4506,434.692 51,427.5C 53.3333,425.167 55.6667,422.833 58,420.5C 60.961,416.472 63.461,412.138 65.5,407.5C 66.5,406.833 67.5,406.167 68.5,405.5C 70.0067,401.128 71.0067,396.628 71.5,392C 69.3863,383.933 66.553,376.099 63,368.5C 62.6667,366.167 62.3333,363.833 62,361.5C 57.1555,349.148 52.3221,336.815 47.5,324.5C 48.9587,324.567 50.2921,324.234 51.5,323.5 Z"/></g>
<g><path style="opacity:0.743" fill="#bbb388" d="M 241.5,410.5 C 244.181,413.192 245.514,416.525 245.5,420.5C 243.167,420.5 240.833,420.5 238.5,420.5C 238.891,416.927 239.891,413.593 241.5,410.5 Z"/></g>
<g><path style="opacity:0.918" fill="#cfc598" d="M 171.5,422.5 C 168.218,427.285 164.384,431.618 160,435.5C 159.517,436.448 159.351,437.448 159.5,438.5C 156.896,440.6 154.396,442.933 152,445.5C 151.466,441.141 151.632,436.808 152.5,432.5C 155.428,423.198 161.762,419.864 171.5,422.5 Z"/></g>
<g><path style="opacity:0.204" fill="#493423" d="M 274.5,433.5 C 273.151,433.471 271.651,434.138 270,435.5C 266.794,433.899 263.461,432.566 260,431.5C 259,431.833 258,432.167 257,432.5C 255.333,431.5 253.667,430.5 252,429.5C 247.276,430.397 242.609,431.397 238,432.5C 237.586,432.043 237.086,431.709 236.5,431.5C 235.05,432.655 234.05,434.155 233.5,436C 228.743,436.81 224.076,436.476 219.5,435C 218.299,434.097 217.465,432.931 217,431.5C 215.597,433.198 213.764,433.698 211.5,433C 210.167,433.667 210.167,434.333 211.5,435C 210.167,435.667 208.833,436.333 207.5,437C 205.539,439.963 203.206,442.629 200.5,445C 191.248,448.189 181.748,450.022 172,450.5C 168.588,448.645 165.088,448.312 161.5,449.5C 158.86,447.338 156.027,447.005 153,448.5C 147.003,446.356 140.836,444.856 134.5,444C 135.582,442.67 136.249,441.17 136.5,439.5C 140.833,434.5 145.5,429.833 150.5,425.5C 149.99,428.388 150.656,430.721 152.5,432.5C 151.632,436.808 151.466,441.141 152,445.5C 154.396,442.933 156.896,440.6 159.5,438.5C 163.167,438.5 166.833,438.5 170.5,438.5C 170.201,440.604 170.534,442.604 171.5,444.5C 174.467,443.196 176.801,441.196 178.5,438.5C 185.5,438.5 192.5,438.5 199.5,438.5C 200.265,435.33 201.265,432.33 202.5,429.5C 202.343,430.873 202.51,432.207 203,433.5C 205.298,430.428 208.132,427.928 211.5,426C 213.167,425.333 214.833,425.333 216.5,426C 217.9,427.438 219.567,428.271 221.5,428.5C 221.995,430.482 222.495,432.482 223,434.5C 226.5,431 230,427.5 233.5,424C 242.988,424.781 252.488,424.614 262,423.5C 267.141,425.46 271.308,428.793 274.5,433.5 Z"/></g>
<g><path style="opacity:0.918" fill="#c5bb90" d="M 386.5,424.5 C 387.117,424.611 387.617,424.944 388,425.5C 389.833,431.667 391.667,437.833 393.5,444C 393.167,444.5 392.833,445 392.5,445.5C 387.572,442.901 383.239,439.568 379.5,435.5C 381.594,431.636 383.928,427.969 386.5,424.5 Z"/></g>
<g><path style="opacity:0.874" fill="#c6bb8f" d="M 421.5,436.5 C 423.177,441.188 421.843,444.854 417.5,447.5C 416.342,444.358 414.675,441.525 412.5,439C 408.939,437.768 405.606,436.268 402.5,434.5C 403.5,432.5 404.5,430.5 405.5,428.5C 406.558,427.4 407.392,426.066 408,424.5C 411.632,429.134 415.632,433.467 420,437.5C 420.383,436.944 420.883,436.611 421.5,436.5 Z"/></g>
<g><path style="opacity:0.926" fill="#df931c" d="M 207.5,393.5 C 209.99,393.977 211.99,395.311 213.5,397.5C 209.813,408.197 206.146,418.864 202.5,429.5C 201.265,432.33 200.265,435.33 199.5,438.5C 192.5,438.5 185.5,438.5 178.5,438.5C 181.279,435.544 183.946,432.377 186.5,429C 184.412,427.97 182.245,427.137 180,426.5C 175.144,429.237 171.977,433.237 170.5,438.5C 166.833,438.5 163.167,438.5 159.5,438.5C 159.351,437.448 159.517,436.448 160,435.5C 164.384,431.618 168.218,427.285 171.5,422.5C 177.868,422.83 184.202,422.496 190.5,421.5C 192.082,419.985 193.416,418.319 194.5,416.5C 196.317,414.508 197.984,412.341 199.5,410C 198.47,406.771 196.804,403.938 194.5,401.5C 190.5,404.5 186.5,407.5 182.5,410.5C 180.121,406.371 178.121,402.037 176.5,397.5C 175.833,397.167 175.167,396.833 174.5,396.5C 169.291,399.021 164.125,401.688 159,404.5C 158.313,398.796 158.479,393.13 159.5,387.5C 175.558,389.065 191.558,391.065 207.5,393.5 Z"/></g>
<g><path style="opacity:0.908" fill="#d68f20" d="M 422.5,412.5 C 427.86,418.527 433.527,424.194 439.5,429.5C 439.335,431.827 438.669,433.993 437.5,436C 436.5,436.667 435.5,436.667 434.5,436C 431.971,433.971 429.304,432.138 426.5,430.5C 424.738,431.688 423.738,433.355 423.5,435.5C 422.508,435.328 421.842,435.662 421.5,436.5C 420.883,436.611 420.383,436.944 420,437.5C 415.632,433.467 411.632,429.134 408,424.5C 407.392,426.066 406.558,427.4 405.5,428.5C 402.838,429.639 400.171,429.806 397.5,429C 397.043,429.414 396.709,429.914 396.5,430.5C 398.924,432.714 398.257,433.714 394.5,433.5C 396.013,426.57 400.347,423.237 407.5,423.5C 410.679,417.993 413.679,412.326 416.5,406.5C 418.882,408.215 420.882,410.215 422.5,412.5 Z"/></g>
<g><path style="opacity:0.896" fill="#d2c796" d="M 178.5,438.5 C 176.801,441.196 174.467,443.196 171.5,444.5C 170.534,442.604 170.201,440.604 170.5,438.5C 171.977,433.237 175.144,429.237 180,426.5C 182.245,427.137 184.412,427.97 186.5,429C 183.946,432.377 181.279,435.544 178.5,438.5 Z"/></g>
<g><path style="opacity:0.839" fill="#c1b78d" d="M 347.5,423.5 C 347.833,423.5 348.167,423.5 348.5,423.5C 352.767,423.203 356.934,423.536 361,424.5C 364.238,430.874 366.238,437.541 367,444.5C 359.927,437.931 353.427,430.931 347.5,423.5 Z"/></g>
<g><path style="opacity:0.969" fill="#d7cd9f" d="M 59.5,429.5 C 59.6099,432.386 60.7766,434.72 63,436.5C 66.5203,433.824 70.3537,431.824 74.5,430.5C 74.3915,432.514 75.0582,434.18 76.5,435.5C 71.5584,439.103 66.8918,443.103 62.5,447.5C 61.8333,444.833 61.1667,442.167 60.5,439.5C 57.9272,441.642 56.0938,444.308 55,447.5C 48.8464,439.475 50.3464,433.475 59.5,429.5 Z"/></g>
<g><path style="opacity:0.81" fill="#cbc195" d="M 327.5,422.5 C 331.514,422.334 335.514,422.501 339.5,423C 342.409,424.406 344.409,426.572 345.5,429.5C 346.982,434.716 347.482,440.049 347,445.5C 344.628,443.297 342.461,440.963 340.5,438.5C 336.19,433.186 331.857,427.852 327.5,422.5 Z"/></g>
<g><path style="opacity:0.97" fill="#d0c79b" d="M 115.5,428.5 C 117.453,430.912 118.62,433.579 119,436.5C 115.098,439.868 110.931,442.868 106.5,445.5C 105.334,443.833 105.334,442.166 106.5,440.5C 107.722,434.937 109.556,429.604 112,424.5C 113.405,425.731 114.571,427.064 115.5,428.5 Z"/></g>
<g><path style="opacity:0.976" fill="#d4cc9e" d="M 150.5,425.5 C 145.5,429.833 140.833,434.5 136.5,439.5C 135.288,440.23 134.288,441.23 133.5,442.5C 132.702,442.043 132.369,441.376 132.5,440.5C 133.637,436.421 134.971,432.421 136.5,428.5C 136.751,426.83 137.418,425.33 138.5,424C 142.833,423.333 147.167,423.333 151.5,424C 150.944,424.383 150.611,424.883 150.5,425.5 Z"/></g>
<g><path style="opacity:0.969" fill="#d5cc9d" d="M 96.5,434.5 C 93.3943,436.268 90.0609,437.768 86.5,439C 85.6195,439.708 84.9528,440.542 84.5,441.5C 83.6942,442.997 83.0276,444.664 82.5,446.5C 81.9984,447.521 81.3317,447.688 80.5,447C 78.9317,444.942 77.5983,442.775 76.5,440.5C 76.4534,438.962 77.1201,437.962 78.5,437.5C 83.1638,433.669 87.3305,429.336 91,424.5C 92.604,428.048 94.4374,431.382 96.5,434.5 Z"/></g>
<g><path style="opacity:0.961" fill="#d3c798" d="M 328.5,439.5 C 328.785,441.288 328.452,442.955 327.5,444.5C 324.533,443.196 322.199,441.196 320.5,438.5C 320.938,438.565 321.272,438.399 321.5,438C 317.833,435.667 314.833,432.667 312.5,429C 314.588,427.97 316.755,427.137 319,426.5C 324.137,429.459 327.304,433.793 328.5,439.5 Z"/></g>
<g><path style="opacity:0.847" fill="#b9ae85" d="M 439.5,429.5 C 441.332,430.248 442.999,431.248 444.5,432.5C 446.88,433.463 447.88,435.297 447.5,438C 445.947,449.497 443.614,449.997 440.5,439.5C 439.5,439.5 438.5,439.5 437.5,439.5C 437.813,442.247 437.48,444.914 436.5,447.5C 432.12,443.45 427.787,439.45 423.5,435.5C 423.738,433.355 424.738,431.688 426.5,430.5C 429.304,432.138 431.971,433.971 434.5,436C 435.5,436.667 436.5,436.667 437.5,436C 438.669,433.993 439.335,431.827 439.5,429.5 Z"/></g>
<g><path style="opacity:0.008" fill="#503d28" d="M 46.5,458.5 C 45.8333,459.167 45.8333,459.167 46.5,458.5 Z"/></g>
</svg>
