<?xml version="1.0" encoding="UTF-8"?>
<!DOCTYPE svg PUBLIC "-//W3C//DTD SVG 1.1//EN" "http://www.w3.org/Graphics/SVG/1.1/DTD/svg11.dtd">
<svg xmlns="http://www.w3.org/2000/svg" version="1.1" width="500px" height="500px" style="shape-rendering:geometricPrecision; text-rendering:geometricPrecision; image-rendering:optimizeQuality; fill-rule:evenodd; clip-rule:evenodd" xmlns:xlink="http://www.w3.org/1999/xlink">
<g><path style="opacity:0.04" fill="#4f3b27" d="M 414.5,45.5 C 415.561,47.5324 417.228,48.8658 419.5,49.5C 419.291,50.086 418.957,50.586 418.5,51C 419.743,52.1545 420.743,53.4878 421.5,55C 421.233,60.9342 421.233,67.1008 421.5,73.5C 420.945,78.4626 419.945,83.296 418.5,88C 419.081,88.8926 419.415,89.8926 419.5,91C 417.711,102.469 416.545,113.969 416,125.5C 424.421,126.585 432.921,127.418 441.5,128C 443.425,129.595 445.425,129.762 447.5,128.5C 452.053,130.186 456.719,131.686 461.5,133C 465.143,136.021 468.476,138.854 471.5,141.5C 473.707,146.767 475.04,152.267 475.5,158C 473.192,180.812 470.525,203.812 467.5,227C 468.316,232.12 469.816,236.62 472,240.5C 473.241,245.337 473.407,250.171 472.5,255C 474.833,268.148 474.999,281.314 473,294.5C 471.396,299.038 468.23,301.871 463.5,303C 453.736,305.015 444.069,307.348 434.5,310C 441.433,315.999 448.433,321.333 455.5,326C 456.76,327.113 457.927,327.28 459,326.5C 460.003,329.156 461.67,330.156 464,329.5C 470.92,332.126 474.086,336.959 473.5,344C 474.364,345.137 475.364,346.47 476.5,348C 476.047,351.227 475.047,354.227 473.5,357C 474.167,358 474.833,359 475.5,360C 472.644,364.045 470.311,368.378 468.5,373C 473.476,378.905 475.143,385.572 473.5,393C 474.167,394.333 474.833,395.667 475.5,397C 473.923,399.595 472.923,402.429 472.5,405.5C 471.167,405.833 471.167,406.167 472.5,406.5C 472.423,407.75 471.756,408.583 470.5,409C 470.959,410.943 469.959,412.276 467.5,413C 468.833,414.84 468.666,415.34 467,414.5C 464.777,416.723 463.444,419.389 463,422.5C 457.26,427.735 452.094,433.402 447.5,439.5C 447.167,438.167 446.833,438.167 446.5,439.5C 445.732,440.263 445.232,441.263 445,442.5C 444.667,442.167 444.333,441.833 444,441.5C 442.188,443.3 440.355,444.967 438.5,446.5C 435.885,450.157 432.551,452.99 428.5,455C 422.321,457.168 415.988,457.834 409.5,457C 404.181,455.861 399.015,455.028 394,454.5C 391.321,454.983 388.821,456.15 386.5,458C 356.196,465 325.863,467 295.5,464C 285.058,462.853 275.391,459.52 266.5,454C 261.259,449.642 255.926,445.475 250.5,441.5C 246.142,442.093 242.642,444.093 240,447.5C 239.667,447.167 239.333,446.833 239,446.5C 236.9,447.325 234.9,448.992 233,451.5C 232.586,451.043 232.086,450.709 231.5,450.5C 225.973,454.948 219.807,457.281 213,457.5C 212.5,458 212,458.5 211.5,459C 192.589,462.793 173.589,461.626 154.5,455.5C 150.828,456.67 147.162,457.837 143.5,459C 133.167,459.667 122.833,459.667 112.5,459C 106.847,458.006 101.847,455.673 97.5,452C 91.3279,450.942 85.3279,449.276 79.5,447C 74.6029,441.22 69.9362,435.22 65.5,429C 58.8383,427.812 52.1716,426.479 45.5,425C 34.417,411.8 26.7504,397.467 22.5,382C 23.0729,379.15 23.0729,376.15 22.5,373C 22.4947,368.187 23.6614,363.687 26,359.5C 30.2692,356.902 33.4359,353.402 35.5,349C 35.144,344.715 33.644,340.549 31,336.5C 29.9885,329 30.6552,321.667 33,314.5C 36.2216,311.612 39.7216,309.112 43.5,307C 37.9297,305.253 32.5964,302.919 27.5,300C 25.7936,296.555 24.4603,292.888 23.5,289C 22.7192,277.733 22.7192,266.399 23.5,255C 25.054,251.039 25.3873,247.039 24.5,243C 26.318,241.261 27.318,239.094 27.5,236.5C 27.9646,233.855 29.2979,231.188 31.5,228.5C 29.6392,207.81 26.6392,187.143 22.5,166.5C 22.1743,159.819 22.6743,153.153 24,146.5C 28.4787,139.341 34.6454,134.174 42.5,131C 55.0085,127.86 67.6751,125.693 80.5,124.5C 78.1655,102.543 76.1655,80.8767 74.5,59.5C 74.2198,50.8814 77.8864,44.7147 85.5,41C 109.563,32.6308 134.229,29.9641 159.5,33C 163.127,33.5637 166.293,35.0637 169,37.5C 181.567,59.6324 194.9,81.2991 209,102.5C 210.608,105.382 211.941,108.382 213,111.5C 214.115,119.319 215.781,126.986 218,134.5C 225.556,140.734 233.056,146.901 240.5,153C 241.337,154.011 241.67,155.178 241.5,156.5C 243.677,156.586 245.677,157.253 247.5,158.5C 257.512,150.058 268.012,141.391 279,132.5C 280.08,123.479 281.413,114.479 283,105.5C 285.063,100.438 287.563,95.6049 290.5,91C 290.223,84.1908 292.556,78.1908 297.5,73C 298.833,72.6667 300.167,72.3333 301.5,72C 304.514,69.9812 307.18,67.6479 309.5,65C 309.167,64.6667 308.833,64.3333 308.5,64C 311.032,59.9262 314.032,56.2595 317.5,53C 317.167,52.6667 316.833,52.3333 316.5,52C 320.03,46.5957 324.03,41.5957 328.5,37C 333.501,34.446 338.835,33.1127 344.5,33C 368.913,31.7777 392.246,35.9443 414.5,45.5 Z"/></g>
<g><path style="opacity:0.008" fill="#503d28" d="M 414.5,44.5 C 415.833,45.1667 415.833,45.1667 414.5,44.5 Z"/></g>
<g><path style="opacity:0.961" fill="#97843a" d="M 156.5,52.5 C 154.835,78.4691 153.835,104.469 153.5,130.5C 146.654,132.207 139.987,134.207 133.5,136.5C 130.417,136.916 127.417,137.583 124.5,138.5C 124.249,133.412 123.416,128.412 122,123.5C 121.804,121.714 120.971,120.381 119.5,119.5C 112.388,122.587 105.054,124.92 97.5,126.5C 96.9627,121.814 96.296,117.147 95.5,112.5C 93.2277,93.8855 91.7277,75.2188 91,56.5C 95.1807,55.5533 99.3474,54.5533 103.5,53.5C 105.347,57.3585 107.347,61.1918 109.5,65C 112.777,66.1434 116.11,66.9767 119.5,67.5C 120.178,61.1013 121.178,54.768 122.5,48.5C 133.946,47.6963 145.279,47.363 156.5,47.5C 156.5,49.1667 156.5,50.8333 156.5,52.5 Z"/></g>
<g><path style="opacity:0.95" fill="#1196e4" d="M 124.5,138.5 C 120.499,139.5 116.499,140.5 112.5,141.5C 110.692,140.082 110.025,138.082 110.5,135.5C 110.813,132.753 110.48,130.086 109.5,127.5C 105.473,129.513 101.473,131.513 97.5,133.5C 97.5,131.167 97.5,128.833 97.5,126.5C 105.054,124.92 112.388,122.587 119.5,119.5C 120.971,120.381 121.804,121.714 122,123.5C 123.416,128.412 124.249,133.412 124.5,138.5 Z"/></g>
<g><path style="opacity:0.956" fill="#93833e" d="M 110.5,135.5 C 109.532,137.607 109.198,139.941 109.5,142.5C 106.351,143.954 103.017,144.787 99.5,145C 98.5116,141.255 97.845,137.422 97.5,133.5C 101.473,131.513 105.473,129.513 109.5,127.5C 110.48,130.086 110.813,132.753 110.5,135.5 Z"/></g>
<g><path style="opacity:0.973" fill="#383016" d="M 156.5,52.5 C 156.833,52.5 157.167,52.5 157.5,52.5C 157.343,53.8734 157.51,55.2068 158,56.5C 171.333,77.1667 184.667,97.8333 198,118.5C 199.029,126.866 200.195,135.199 201.5,143.5C 193.528,152.722 185.528,162.055 177.5,171.5C 173.155,175.847 169.155,180.514 165.5,185.5C 162.833,188.5 160.167,191.5 157.5,194.5C 157.214,186.623 157.547,178.79 158.5,171C 157.922,169.189 157.422,167.355 157,165.5C 149.343,157.342 141.843,149.008 134.5,140.5C 133.571,139.311 133.238,137.978 133.5,136.5C 139.987,134.207 146.654,132.207 153.5,130.5C 153.835,104.469 154.835,78.4691 156.5,52.5 Z"/></g>
<g><path style="opacity:0.955" fill="#776a37" d="M 164.5,114.5 C 169.848,116.961 175.182,119.628 180.5,122.5C 181.631,124.074 181.798,125.741 181,127.5C 179.008,131.308 177.508,135.308 176.5,139.5C 171.165,140.5 165.832,141.5 160.5,142.5C 160.021,138.146 159.354,133.812 158.5,129.5C 160.538,124.48 162.538,119.48 164.5,114.5 Z"/></g>
<g><path style="opacity:0.961" fill="#468794" d="M 110.5,135.5 C 110.025,138.082 110.692,140.082 112.5,141.5C 111.895,143.481 110.895,143.815 109.5,142.5C 109.198,139.941 109.532,137.607 110.5,135.5 Z"/></g>
<g><path style="opacity:0.951" fill="#776a37" d="M 92.5,148.5 C 94.1039,171.809 95.1039,195.142 95.5,218.5C 90.9061,219.815 86.2394,220.815 81.5,221.5C 75.8182,222.865 70.1515,224.198 64.5,225.5C 58.4254,226.129 52.4254,227.129 46.5,228.5C 46.2182,217.796 45.3849,207.129 44,196.5C 41.4676,183.186 39.4676,169.853 38,156.5C 41.0876,152.202 44.921,148.702 49.5,146C 56.9673,144.46 64.3006,142.96 71.5,141.5C 78.1477,140.861 84.8144,140.527 91.5,140.5C 91.4013,143.237 91.7347,145.904 92.5,148.5 Z"/></g>
<g><path style="opacity:0.344" fill="#412c1f" d="M 95.5,112.5 C 96.296,117.147 96.9627,121.814 97.5,126.5C 97.5,128.833 97.5,131.167 97.5,133.5C 97.845,137.422 98.5116,141.255 99.5,145C 103.017,144.787 106.351,143.954 109.5,142.5C 110.895,143.815 111.895,143.481 112.5,141.5C 116.499,140.5 120.499,139.5 124.5,138.5C 127.417,137.583 130.417,136.916 133.5,136.5C 133.238,137.978 133.571,139.311 134.5,140.5C 141.843,149.008 149.343,157.342 157,165.5C 157.422,167.355 157.922,169.189 158.5,171C 157.547,178.79 157.214,186.623 157.5,194.5C 155.583,196.262 154.25,198.429 153.5,201C 154.65,202.981 155.984,204.814 157.5,206.5C 157.212,219.839 156.712,233.172 156,246.5C 155.282,247.451 154.449,247.617 153.5,247C 148.722,227.174 143.889,207.341 139,187.5C 133.277,182.718 127.444,178.052 121.5,173.5C 122.014,171.634 122.68,169.8 123.5,168C 118.284,163.788 112.784,159.955 107,156.5C 105.97,156.836 105.47,157.503 105.5,158.5C 100.591,155.926 96.2577,152.592 92.5,148.5C 91.7347,145.904 91.4013,143.237 91.5,140.5C 84.8144,140.527 78.1477,140.861 71.5,141.5C 68.091,141.249 64.7577,141.583 61.5,142.5C 60.3044,142.154 60.3044,141.654 61.5,141C 64.2263,140.818 66.8929,140.318 69.5,139.5C 72.2089,136.133 75.5422,135.133 79.5,136.5C 83.0187,136.276 86.1854,135.276 89,133.5C 89.3333,133.833 89.6667,134.167 90,134.5C 90.4101,133.099 90.9101,131.766 91.5,130.5C 91.5,129.833 91.5,129.167 91.5,128.5C 92.1784,126.142 92.5117,123.975 92.5,122C 91.3422,117.246 90.8422,112.412 91,107.5C 92.6665,106.66 92.8331,107.16 91.5,109C 92.297,112.745 92.797,116.579 93,120.5C 93.3333,116.5 93.6667,112.5 94,108.5C 94.21,110.058 94.71,111.391 95.5,112.5 Z"/></g>
<g><path style="opacity:0.07" fill="#4b3725" d="M 121.5,144.5 C 124.988,144.705 128.321,145.539 131.5,147C 135.712,150.879 140.212,154.379 145,157.5C 146.452,161.737 148.452,165.737 151,169.5C 153.837,177.348 153.004,184.682 148.5,191.5C 144.571,188.945 141.071,185.945 138,182.5C 135.084,177.58 131.418,173.247 127,169.5C 126.598,168.128 126.098,166.795 125.5,165.5C 120.927,160.216 115.927,155.382 110.5,151C 113.365,147.385 117.031,145.219 121.5,144.5 Z"/></g>
<g><path style="opacity:0.986" fill="#796d38" d="M 201.5,143.5 C 212.481,152.81 223.481,162.144 234.5,171.5C 235.666,173.167 235.666,174.834 234.5,176.5C 232.871,177.625 231.371,178.959 230,180.5C 217.046,196.91 204.213,213.41 191.5,230C 187.203,229.866 183.203,228.533 179.5,226C 174.269,222.27 169.935,217.77 166.5,212.5C 170.455,207.373 174.622,202.373 179,197.5C 179.121,188.665 178.621,179.999 177.5,171.5C 185.528,162.055 193.528,152.722 201.5,143.5 Z"/></g>
<g><path style="opacity:0.922" fill="#53471f" d="M 121.5,173.5 C 119.992,177.035 117.992,180.369 115.5,183.5C 111.463,181.162 107.463,178.828 103.5,176.5C 102.847,170.414 103.513,164.414 105.5,158.5C 105.47,157.503 105.97,156.836 107,156.5C 112.784,159.955 118.284,163.788 123.5,168C 122.68,169.8 122.014,171.634 121.5,173.5 Z"/></g>
<g><path style="opacity:0.206" fill="#483323" d="M 91.5,130.5 C 90.9101,131.766 90.4101,133.099 90,134.5C 89.6667,134.167 89.3333,133.833 89,133.5C 86.1854,135.276 83.0187,136.276 79.5,136.5C 75.5422,135.133 72.2089,136.133 69.5,139.5C 66.8929,140.318 64.2263,140.818 61.5,141C 60.3044,141.654 60.3044,142.154 61.5,142.5C 64.7577,141.583 68.091,141.249 71.5,141.5C 64.3006,142.96 56.9673,144.46 49.5,146C 44.921,148.702 41.0876,152.202 38,156.5C 39.4676,169.853 41.4676,183.186 44,196.5C 45.3849,207.129 46.2182,217.796 46.5,228.5C 52.4254,227.129 58.4254,226.129 64.5,225.5C 63.791,226.404 62.791,226.737 61.5,226.5C 61.4501,228.59 62.4501,229.923 64.5,230.5C 66.7954,229.568 69.1287,228.735 71.5,228C 71.1667,227.667 70.8333,227.333 70.5,227C 72.8747,224.593 73.8747,225.093 73.5,228.5C 75.8273,228.753 77.8273,228.086 79.5,226.5C 80.7112,227.274 80.7112,228.107 79.5,229C 82.737,230.452 86.0703,231.619 89.5,232.5C 88.2266,235.271 89.2266,236.938 92.5,237.5C 93.3567,238.736 94.0234,240.069 94.5,241.5C 88.4127,241.866 82.746,241.866 77.5,241.5C 73.2118,240.345 68.8784,239.345 64.5,238.5C 63.0055,238.709 61.8388,239.376 61,240.5C 59.3258,238.649 58.1591,236.982 57.5,235.5C 55.2706,236.577 52.9372,237.244 50.5,237.5C 50.5,238.5 50.5,239.5 50.5,240.5C 48.8008,240.34 47.1341,240.506 45.5,241C 47.0581,241.21 48.3915,241.71 49.5,242.5C 46.8333,242.5 44.1667,242.5 41.5,242.5C 39.9757,257.116 38.9757,271.782 38.5,286.5C 38.7472,287.713 39.4138,288.38 40.5,288.5C 46.3352,288.769 52.0019,289.769 57.5,291.5C 61.2095,293.136 65.2095,293.802 69.5,293.5C 72.9981,294.917 76.6648,295.583 80.5,295.5C 80.5,292.167 80.5,288.833 80.5,285.5C 86.037,292.574 90.037,300.574 92.5,309.5C 90.5853,309.216 88.9187,309.549 87.5,310.5C 80.5149,310.608 73.8483,312.108 67.5,315C 62.3797,317.06 57.3797,319.393 52.5,322C 49.5549,323.645 46.8883,325.645 44.5,328C 49.4429,336.25 54.6096,344.417 60,352.5C 61.0086,354.025 61.5086,355.692 61.5,357.5C 51.7331,361.375 43.3998,367.209 36.5,375C 42.2957,388.098 48.9624,400.598 56.5,412.5C 56.5,413.833 56.5,415.167 56.5,416.5C 53.2656,415.74 50.0989,414.74 47,413.5C 41.9915,406.152 37.4915,398.486 33.5,390.5C 33.7093,389.914 34.0426,389.414 34.5,389C 31.6971,387.888 30.6971,386.054 31.5,383.5C 28.8106,376.237 29.9773,369.571 35,363.5C 39.0065,360.324 42.8398,356.991 46.5,353.5C 46.8302,350.898 46.3302,348.231 45,345.5C 43.1478,341.811 41.1478,338.144 39,334.5C 37.552,328.132 39.052,322.299 43.5,317C 44.8333,316.667 46.1667,316.333 47.5,316C 52.322,311.844 57.6553,308.511 63.5,306C 62.3659,304.984 62.6992,304.317 64.5,304C 61.9708,301.452 59.1374,300.618 56,301.5C 50.9316,299.629 45.7649,298.129 40.5,297C 37.5007,293.354 34.5007,289.687 31.5,286C 31.6448,285.228 31.9781,284.561 32.5,284C 31.1298,280.625 30.1298,277.125 29.5,273.5C 30.0253,272.808 30.6919,272.308 31.5,272C 29.6537,268.383 29.4871,264.55 31,260.5C 32.3988,259.773 33.8988,259.273 35.5,259C 34.8333,257.667 34.1667,256.333 33.5,255C 35.6732,253.135 36.0066,250.969 34.5,248.5C 37.0917,245.042 38.4251,241.376 38.5,237.5C 39.9337,236.77 41.1004,235.77 42,234.5C 42.1402,232.479 42.3068,230.645 42.5,229C 41.6667,228.167 40.8333,227.333 40,226.5C 39.9071,223.993 39.0738,221.826 37.5,220C 37.9574,219.586 38.2907,219.086 38.5,218.5C 37.4688,217.3 36.6355,215.966 36,214.5C 35.6645,210.311 35.1645,206.144 34.5,202C 35.3615,199.584 35.6948,197.25 35.5,195C 34.2336,187.48 32.2336,180.147 29.5,173C 29.8027,168.243 29.8027,163.41 29.5,158.5C 31.1019,149.728 35.9353,143.394 44,139.5C 59.4547,135.979 75.288,132.979 91.5,130.5 Z"/></g>
<g><path style="opacity:0.981" fill="#0c98e9" d="M 177.5,171.5 C 178.621,179.999 179.121,188.665 179,197.5C 174.622,202.373 170.455,207.373 166.5,212.5C 163.802,212.155 161.802,210.822 160.5,208.5C 162.907,207.206 165.074,205.539 167,203.5C 167.053,197.475 166.553,191.475 165.5,185.5C 169.155,180.514 173.155,175.847 177.5,171.5 Z"/></g>
<g><path style="opacity:0.976" fill="#383016" d="M 92.5,148.5 C 96.2577,152.592 100.591,155.926 105.5,158.5C 103.513,164.414 102.847,170.414 103.5,176.5C 107.463,178.828 111.463,181.162 115.5,183.5C 117.992,180.369 119.992,177.035 121.5,173.5C 127.444,178.052 133.277,182.718 139,187.5C 143.889,207.341 148.722,227.174 153.5,247C 154.449,247.617 155.282,247.451 156,246.5C 156.712,233.172 157.212,219.839 157.5,206.5C 158.5,207.167 159.5,207.833 160.5,208.5C 161.802,210.822 163.802,212.155 166.5,212.5C 169.935,217.77 174.269,222.27 179.5,226C 183.203,228.533 187.203,229.866 191.5,230C 204.213,213.41 217.046,196.91 230,180.5C 231.371,178.959 232.871,177.625 234.5,176.5C 236.46,205.53 238.794,234.53 241.5,263.5C 246.833,263.5 252.167,263.5 257.5,263.5C 257.5,263.833 257.5,264.167 257.5,264.5C 250.167,264.5 242.833,264.5 235.5,264.5C 237.157,273.757 238.157,283.091 238.5,292.5C 238.5,293.5 238.5,294.5 238.5,295.5C 232.125,296.398 225.792,296.398 219.5,295.5C 217.586,296.185 215.586,296.685 213.5,297C 215.896,303.746 218.062,310.579 220,317.5C 223.057,318.451 226.223,318.784 229.5,318.5C 229.821,320.048 230.821,320.715 232.5,320.5C 234.757,324.815 237.757,325.482 241.5,322.5C 242.458,325.125 243.624,325.125 245,322.5C 247,323.833 249,325.167 251,326.5C 252.036,324.433 253.536,323.266 255.5,323C 254.833,324 254.167,325 253.5,326C 253.737,328.288 253.737,330.788 253.5,333.5C 252.549,332.081 252.216,330.415 252.5,328.5C 250.833,328.5 249.167,328.5 247.5,328.5C 247.5,330.167 247.5,331.833 247.5,333.5C 246.167,333.5 244.833,333.5 243.5,333.5C 243.5,331.833 243.5,330.167 243.5,328.5C 241.901,328.232 240.568,328.566 239.5,329.5C 238.71,330.609 238.21,331.942 238,333.5C 236.301,332.594 234.467,332.261 232.5,332.5C 227.729,332.462 223.062,331.796 218.5,330.5C 217.86,336.425 216.193,342.092 213.5,347.5C 218.947,349.758 224.613,351.425 230.5,352.5C 232.277,352.214 233.944,351.547 235.5,350.5C 238.351,352.142 239.017,351.475 237.5,348.5C 238.833,347.167 240.167,347.167 241.5,348.5C 239.748,351.672 237.748,354.672 235.5,357.5C 236.729,358.281 238.062,358.781 239.5,359C 237.845,360.444 237.178,362.278 237.5,364.5C 230.5,369.833 223.5,375.167 216.5,380.5C 193.021,382.756 171.688,377.256 152.5,364C 145.605,356.37 140.105,347.87 136,338.5C 130.212,329.045 122.712,321.212 113.5,315C 105.287,311.017 96.6202,309.517 87.5,310.5C 88.9187,309.549 90.5853,309.216 92.5,309.5C 90.037,300.574 86.037,292.574 80.5,285.5C 80.5,284.833 80.5,284.167 80.5,283.5C 80.5,281.5 80.5,279.5 80.5,277.5C 81.6268,267.105 81.6268,256.772 80.5,246.5C 88.4231,247.995 96.4231,249.162 104.5,250C 108.643,263.257 113.31,276.424 118.5,289.5C 120.5,290.833 122.5,290.833 124.5,289.5C 123.129,280.574 122.296,271.574 122,262.5C 121.277,257.331 119.943,252.331 118,247.5C 107.167,240 96.3333,232.5 85.5,225C 84.2068,224.51 82.8734,224.343 81.5,224.5C 81.5,223.5 81.5,222.5 81.5,221.5C 86.2394,220.815 90.9061,219.815 95.5,218.5C 95.1039,195.142 94.1039,171.809 92.5,148.5 Z"/></g>
<g><path style="opacity:0.985" fill="#776d3b" d="M 165.5,185.5 C 166.553,191.475 167.053,197.475 167,203.5C 165.074,205.539 162.907,207.206 160.5,208.5C 159.5,207.833 158.5,207.167 157.5,206.5C 155.984,204.814 154.65,202.981 153.5,201C 154.25,198.429 155.583,196.262 157.5,194.5C 160.167,191.5 162.833,188.5 165.5,185.5 Z"/></g>
<g><path style="opacity:0.978" fill="#383016" d="M 405.5,147.5 C 403.843,154.014 402.843,160.681 402.5,167.5C 402.625,173.203 402.292,178.87 401.5,184.5C 401.5,185.167 401.5,185.833 401.5,186.5C 400.508,193.648 400.175,200.981 400.5,208.5C 400.5,211.5 400.5,214.5 400.5,217.5C 404.922,218.865 409.255,220.198 413.5,221.5C 401.875,230.111 390.209,238.777 378.5,247.5C 374.601,257.391 372.935,267.558 373.5,278C 375.698,278.373 377.865,278.873 380,279.5C 380.5,279.167 381,278.833 381.5,278.5C 385.449,269.363 388.782,260.03 391.5,250.5C 399.468,249.579 407.468,248.913 415.5,248.5C 414.408,261.878 414.742,275.212 416.5,288.5C 414.165,289.413 411.999,290.747 410,292.5C 409.508,293.549 409.674,294.549 410.5,295.5C 407.96,299.566 406.293,303.9 405.5,308.5C 401.197,303.353 397.03,298.02 393,292.5C 391.568,290.561 389.735,289.228 387.5,288.5C 383.154,282.997 377.487,280.831 370.5,282C 361.725,283.969 354.225,288.135 348,294.5C 345.407,299.361 342.573,304.028 339.5,308.5C 338.068,306.673 336.401,305.006 334.5,303.5C 330.579,306.043 326.746,308.71 323,311.5C 322.333,316.167 322.333,320.833 323,325.5C 323.985,326.814 325.152,327.814 326.5,328.5C 317.043,342.458 305.376,354.291 291.5,364C 280.078,369.216 269.078,368.549 258.5,362C 251.034,359.616 244.034,360.449 237.5,364.5C 237.178,362.278 237.845,360.444 239.5,359C 238.062,358.781 236.729,358.281 235.5,357.5C 237.748,354.672 239.748,351.672 241.5,348.5C 240.167,347.167 238.833,347.167 237.5,348.5C 239.017,351.475 238.351,352.142 235.5,350.5C 233.944,351.547 232.277,352.214 230.5,352.5C 231.121,346.941 232.121,341.441 233.5,336C 233.352,334.744 233.018,333.577 232.5,332.5C 234.467,332.261 236.301,332.594 238,333.5C 238.21,331.942 238.71,330.609 239.5,329.5C 239.227,331.451 239.893,332.951 241.5,334C 239.527,334.495 237.527,334.662 235.5,334.5C 235.177,338.457 235.177,342.29 235.5,346C 245.161,346.5 254.828,346.666 264.5,346.5C 264.5,342.5 264.5,338.5 264.5,334.5C 260.731,334.756 257.064,334.423 253.5,333.5C 253.737,330.788 253.737,328.288 253.5,326C 254.167,325 254.833,324 255.5,323C 253.536,323.266 252.036,324.433 251,326.5C 249,325.167 247,323.833 245,322.5C 243.624,325.125 242.458,325.125 241.5,322.5C 241.5,321.5 241.5,320.5 241.5,319.5C 238.287,319.19 235.287,319.523 232.5,320.5C 230.821,320.715 229.821,320.048 229.5,318.5C 245.697,318.214 261.864,318.214 278,318.5C 279.376,318.316 280.209,317.649 280.5,316.5C 282.291,310.885 283.958,305.218 285.5,299.5C 285.414,298.504 285.748,297.671 286.5,297C 270.521,295.834 254.521,295.334 238.5,295.5C 238.5,294.5 238.5,293.5 238.5,292.5C 243.5,292.5 248.5,292.5 253.5,292.5C 254.5,292.5 255.5,292.5 256.5,292.5C 258.833,292.5 261.167,292.5 263.5,292.5C 263.325,290.379 263.659,288.379 264.5,286.5C 264.687,282.087 265.354,277.754 266.5,273.5C 266.704,270.482 267.037,267.482 267.5,264.5C 264.167,264.5 260.833,264.5 257.5,264.5C 257.5,264.167 257.5,263.833 257.5,263.5C 256.989,260.367 256.656,257.2 256.5,254C 257.719,226.796 259.386,199.629 261.5,172.5C 271.833,185.833 282.167,199.167 292.5,212.5C 293.604,214.389 294.937,216.055 296.5,217.5C 299.613,221.549 302.613,225.716 305.5,230C 310.48,229.897 314.48,227.73 317.5,223.5C 323.126,220.535 327.793,216.535 331.5,211.5C 332.117,211.611 332.617,211.944 333,212.5C 334.926,210.461 337.093,208.794 339.5,207.5C 339.61,216.261 340.276,224.928 341.5,233.5C 333.719,234.991 326.053,236.991 318.5,239.5C 318.167,240.333 317.833,241.167 317.5,242C 318.919,249.838 320.253,257.672 321.5,265.5C 326.844,269.174 332.51,272.34 338.5,275C 339.944,275.781 341.277,275.614 342.5,274.5C 347.361,267.44 351.694,260.107 355.5,252.5C 351.843,247.173 348.176,241.84 344.5,236.5C 345.496,236.586 346.329,236.252 347,235.5C 350.389,219.388 354.222,203.388 358.5,187.5C 363.497,182.679 368.831,178.346 374.5,174.5C 374.173,179.544 374.506,184.544 375.5,189.5C 380.985,187.249 386.652,185.915 392.5,185.5C 393.145,175.66 393.145,165.993 392.5,156.5C 393.562,154.121 394.895,154.121 396.5,156.5C 398.564,152.436 401.564,149.436 405.5,147.5 Z"/></g>
<g><path style="opacity:0.333" fill="#422d1f" d="M 261.5,172.5 C 259.386,199.629 257.719,226.796 256.5,254C 256.656,257.2 256.989,260.367 257.5,263.5C 252.167,263.5 246.833,263.5 241.5,263.5C 238.794,234.53 236.46,205.53 234.5,176.5C 235.666,174.834 235.666,173.167 234.5,171.5C 223.481,162.144 212.481,152.81 201.5,143.5C 200.195,135.199 199.029,126.866 198,118.5C 184.667,97.8333 171.333,77.1667 158,56.5C 157.51,55.2068 157.343,53.8734 157.5,52.5C 157.34,50.8008 157.506,49.1341 158,47.5C 160.56,52.7256 163.894,57.3923 168,61.5C 169.5,64.5 171,67.5 172.5,70.5C 172.835,73.0897 174.335,75.423 177,77.5C 180.131,83.2882 183.798,88.6215 188,93.5C 190.21,96.5872 191.877,99.9205 193,103.5C 197.513,109.137 201.013,115.47 203.5,122.5C 202.833,123.5 202.167,124.5 201.5,125.5C 204.476,128.193 205.143,131.36 203.5,135C 206.675,137.823 209.008,141.323 210.5,145.5C 214.098,147.287 216.765,149.954 218.5,153.5C 228.72,158.216 235.553,165.883 239,176.5C 241.133,196.156 243.133,215.822 245,235.5C 245.333,235.167 245.667,234.833 246,234.5C 245.734,237.901 247.234,239.567 250.5,239.5C 250.317,234.401 251.317,229.567 253.5,225C 253.141,220.41 253.141,215.91 253.5,211.5C 254.093,209.618 254.76,207.785 255.5,206C 255.167,197.498 255.167,188.831 255.5,180C 255.904,176.316 257.404,173.15 260,170.5C 260.278,171.416 260.778,172.082 261.5,172.5 Z"/></g>
<g><path style="opacity:0.008" fill="#503d28" d="M 27.5,236.5 C 26.8333,235.167 26.8333,235.167 27.5,236.5 Z"/></g>
<g><path style="opacity:0.908" fill="#53471f" d="M 341.5,233.5 C 343.144,233.81 344.144,234.81 344.5,236.5C 348.176,241.84 351.843,247.173 355.5,252.5C 351.694,260.107 347.361,267.44 342.5,274.5C 341.277,275.614 339.944,275.781 338.5,275C 332.51,272.34 326.844,269.174 321.5,265.5C 320.253,257.672 318.919,249.838 317.5,242C 317.833,241.167 318.167,240.333 318.5,239.5C 326.053,236.991 333.719,234.991 341.5,233.5 Z"/></g>
<g><path style="opacity:0.349" fill="#412c1f" d="M 413.5,221.5 C 424.147,223.818 434.814,226.151 445.5,228.5C 445.423,229.75 444.756,230.583 443.5,231C 438.725,232.159 434.392,231.326 430.5,228.5C 426.249,229.76 422.249,229.093 418.5,226.5C 414.951,227.274 411.618,228.607 408.5,230.5C 405.764,234.7 402.764,238.7 399.5,242.5C 401.889,244.059 404.389,245.392 407,246.5C 411.446,245.431 415.946,244.431 420.5,243.5C 426.184,243.705 431.85,244.038 437.5,244.5C 439.628,243.946 441.128,242.613 442,240.5C 443.011,241.337 444.178,241.67 445.5,241.5C 445.5,242.5 445.5,243.5 445.5,244.5C 435.369,245.838 425.369,247.171 415.5,248.5C 407.468,248.913 399.468,249.579 391.5,250.5C 388.782,260.03 385.449,269.363 381.5,278.5C 381,278.833 380.5,279.167 380,279.5C 377.865,278.873 375.698,278.373 373.5,278C 372.935,267.558 374.601,257.391 378.5,247.5C 390.209,238.777 401.875,230.111 413.5,221.5 Z"/></g>
<g><path style="opacity:0.892" fill="#1cbb52" d="M 65.5,267.5 C 64.5,267.167 63.8333,266.5 63.5,265.5C 63.1313,261.106 62.4646,256.773 61.5,252.5C 64.7396,252.232 67.9063,251.566 71,250.5C 72.6532,250.82 73.6532,251.82 74,253.5C 74.6257,256.863 74.9591,260.196 75,263.5C 71.8535,264.91 68.6868,266.243 65.5,267.5 Z"/></g>
<g><path style="opacity:0.883" fill="#8f7d39" d="M 54.5,243.5 C 62.1629,243.978 69.8296,244.478 77.5,245C 78.7375,245.232 79.7375,245.732 80.5,246.5C 81.6268,256.772 81.6268,267.105 80.5,277.5C 71.6061,280.434 63.9394,285.1 57.5,291.5C 52.0019,289.769 46.3352,288.769 40.5,288.5C 39.4019,287.603 39.4019,286.77 40.5,286C 44.2635,285.101 47.7635,283.601 51,281.5C 54.3439,281.961 57.5106,282.961 60.5,284.5C 61.7946,283.902 63.1279,283.402 64.5,283C 66.1756,280.198 66.8423,277.364 66.5,274.5C 64.3953,274.466 62.062,273.799 59.5,272.5C 61.396,271.534 63.396,271.201 65.5,271.5C 65.5,270.167 65.5,268.833 65.5,267.5C 68.6868,266.243 71.8535,264.91 75,263.5C 74.9591,260.196 74.6257,256.863 74,253.5C 73.6532,251.82 72.6532,250.82 71,250.5C 67.9063,251.566 64.7396,252.232 61.5,252.5C 62.4646,256.773 63.1313,261.106 63.5,265.5C 61.2798,263.978 58.7798,262.978 56,262.5C 54.0387,263.897 51.8721,264.897 49.5,265.5C 49.0716,263.636 47.4049,262.303 44.5,261.5C 45.92,259.291 47.5867,257.291 49.5,255.5C 48.2919,251.878 47.2919,248.211 46.5,244.5C 49.1667,244.167 51.8333,243.833 54.5,243.5 Z"/></g>
<g><path style="opacity:0.42" fill="#402b1e" d="M 81.5,221.5 C 81.5,222.5 81.5,223.5 81.5,224.5C 82.8734,224.343 84.2068,224.51 85.5,225C 96.3333,232.5 107.167,240 118,247.5C 119.943,252.331 121.277,257.331 122,262.5C 122.296,271.574 123.129,280.574 124.5,289.5C 122.5,290.833 120.5,290.833 118.5,289.5C 113.31,276.424 108.643,263.257 104.5,250C 96.4231,249.162 88.4231,247.995 80.5,246.5C 79.7375,245.732 78.7375,245.232 77.5,245C 69.8296,244.478 62.1629,243.978 54.5,243.5C 53.0813,242.549 51.4147,242.216 49.5,242.5C 48.3915,241.71 47.0581,241.21 45.5,241C 47.1341,240.506 48.8008,240.34 50.5,240.5C 50.5,239.5 50.5,238.5 50.5,237.5C 52.9372,237.244 55.2706,236.577 57.5,235.5C 58.1591,236.982 59.3258,238.649 61,240.5C 61.8388,239.376 63.0055,238.709 64.5,238.5C 68.8784,239.345 73.2118,240.345 77.5,241.5C 82.746,241.866 88.4127,241.866 94.5,241.5C 94.0234,240.069 93.3567,238.736 92.5,237.5C 89.2266,236.938 88.2266,235.271 89.5,232.5C 86.0703,231.619 82.737,230.452 79.5,229C 80.7112,228.107 80.7112,227.274 79.5,226.5C 77.8273,228.086 75.8273,228.753 73.5,228.5C 73.8747,225.093 72.8747,224.593 70.5,227C 70.8333,227.333 71.1667,227.667 71.5,228C 69.1287,228.735 66.7954,229.568 64.5,230.5C 62.4501,229.923 61.4501,228.59 61.5,226.5C 62.791,226.737 63.791,226.404 64.5,225.5C 70.1515,224.198 75.8182,222.865 81.5,221.5 Z"/></g>
<g><path style="opacity:0.811" fill="#706234" d="M 445.5,244.5 C 449.673,243.956 453.506,244.623 457,246.5C 457.079,260.235 457.913,273.902 459.5,287.5C 448.314,289.216 437.314,291.716 426.5,295C 423.518,295.498 420.518,295.665 417.5,295.5C 417.552,293.097 417.219,290.764 416.5,288.5C 414.742,275.212 414.408,261.878 415.5,248.5C 425.369,247.171 435.369,245.838 445.5,244.5 Z"/></g>
<g><path style="opacity:0.96" fill="#776d38" d="M 257.5,264.5 C 260.833,264.5 264.167,264.5 267.5,264.5C 267.037,267.482 266.704,270.482 266.5,273.5C 262.224,274.808 257.891,275.808 253.5,276.5C 253.5,281.833 253.5,287.167 253.5,292.5C 248.5,292.5 243.5,292.5 238.5,292.5C 238.157,283.091 237.157,273.757 235.5,264.5C 242.833,264.5 250.167,264.5 257.5,264.5 Z"/></g>
<g><path style="opacity:0.978" fill="#53481f" d="M 270.5,266.5 C 278.455,267.684 286.455,268.684 294.5,269.5C 290.25,277.667 286.25,286.001 282.5,294.5C 277.256,293.185 271.923,292.518 266.5,292.5C 267.21,283.714 268.544,275.048 270.5,266.5 Z"/></g>
<g><path style="opacity:0.959" fill="#776a36" d="M 222.5,266.5 C 226.106,266.211 229.606,266.544 233,267.5C 234.104,276.146 234.938,284.813 235.5,293.5C 228.8,293.83 222.134,293.497 215.5,292.5C 212.84,284.515 210.507,276.515 208.5,268.5C 213.37,268.31 218.036,267.644 222.5,266.5 Z"/></g>
<g><path style="opacity:0.773" fill="#897537" d="M 49.5,242.5 C 51.4147,242.216 53.0813,242.549 54.5,243.5C 51.8333,243.833 49.1667,244.167 46.5,244.5C 47.2919,248.211 48.2919,251.878 49.5,255.5C 47.5867,257.291 45.92,259.291 44.5,261.5C 47.4049,262.303 49.0716,263.636 49.5,265.5C 51.8721,264.897 54.0387,263.897 56,262.5C 58.7798,262.978 61.2798,263.978 63.5,265.5C 63.8333,266.5 64.5,267.167 65.5,267.5C 65.5,268.833 65.5,270.167 65.5,271.5C 63.396,271.201 61.396,271.534 59.5,272.5C 62.062,273.799 64.3953,274.466 66.5,274.5C 66.8423,277.364 66.1756,280.198 64.5,283C 63.1279,283.402 61.7946,283.902 60.5,284.5C 57.5106,282.961 54.3439,281.961 51,281.5C 47.7635,283.601 44.2635,285.101 40.5,286C 39.4019,286.77 39.4019,287.603 40.5,288.5C 39.4138,288.38 38.7472,287.713 38.5,286.5C 38.9757,271.782 39.9757,257.116 41.5,242.5C 44.1667,242.5 46.8333,242.5 49.5,242.5 Z"/></g>
<g><path style="opacity:0.968" fill="#0dcb58" d="M 266.5,273.5 C 265.354,277.754 264.687,282.087 264.5,286.5C 262.076,286.192 259.743,286.526 257.5,287.5C 256.691,289.071 256.357,290.738 256.5,292.5C 255.5,292.5 254.5,292.5 253.5,292.5C 253.5,287.167 253.5,281.833 253.5,276.5C 257.891,275.808 262.224,274.808 266.5,273.5 Z"/></g>
<g><path style="opacity:0.976" fill="#786b37" d="M 170.5,275.5 C 175.43,275.197 180.263,275.531 185,276.5C 186.991,283.27 188.825,290.103 190.5,297C 190.167,297.833 189.833,298.667 189.5,299.5C 184.13,302.185 178.797,304.851 173.5,307.5C 168.624,304.247 165.624,299.747 164.5,294C 165.82,287.542 167.82,281.376 170.5,275.5 Z"/></g>
<g><path style="opacity:0.954" fill="#93823c" d="M 80.5,283.5 C 80.5,284.167 80.5,284.833 80.5,285.5C 80.5,288.833 80.5,292.167 80.5,295.5C 76.6648,295.583 72.9981,294.917 69.5,293.5C 69.2606,291.533 69.5939,289.699 70.5,288C 73.469,285.682 76.8023,284.182 80.5,283.5 Z"/></g>
<g><path style="opacity:0.933" fill="#1a92d9" d="M 80.5,277.5 C 80.5,279.5 80.5,281.5 80.5,283.5C 76.8023,284.182 73.469,285.682 70.5,288C 69.5939,289.699 69.2606,291.533 69.5,293.5C 65.2095,293.802 61.2095,293.136 57.5,291.5C 63.9394,285.1 71.6061,280.434 80.5,277.5 Z"/></g>
<g><path style="opacity:0.976" fill="#756f38" d="M 264.5,286.5 C 263.659,288.379 263.325,290.379 263.5,292.5C 261.167,292.5 258.833,292.5 256.5,292.5C 256.357,290.738 256.691,289.071 257.5,287.5C 259.743,286.526 262.076,286.192 264.5,286.5 Z"/></g>
<g><path style="opacity:0.205" fill="#483323" d="M 460.5,347.5 C 446.143,340.327 432.81,331.661 420.5,321.5C 415.179,317.511 410.179,313.178 405.5,308.5C 406.293,303.9 407.96,299.566 410.5,295.5C 409.674,294.549 409.508,293.549 410,292.5C 411.999,290.747 414.165,289.413 416.5,288.5C 417.219,290.764 417.552,293.097 417.5,295.5C 420.518,295.665 423.518,295.498 426.5,295C 437.314,291.716 448.314,289.216 459.5,287.5C 457.913,273.902 457.079,260.235 457,246.5C 453.506,244.623 449.673,243.956 445.5,244.5C 445.5,243.5 445.5,242.5 445.5,241.5C 444.178,241.67 443.011,241.337 442,240.5C 441.128,242.613 439.628,243.946 437.5,244.5C 431.85,244.038 426.184,243.705 420.5,243.5C 415.946,244.431 411.446,245.431 407,246.5C 404.389,245.392 401.889,244.059 399.5,242.5C 402.764,238.7 405.764,234.7 408.5,230.5C 411.618,228.607 414.951,227.274 418.5,226.5C 422.249,229.093 426.249,229.76 430.5,228.5C 434.392,231.326 438.725,232.159 443.5,231C 444.756,230.583 445.423,229.75 445.5,228.5C 447.467,228.739 449.301,228.406 451,227.5C 452.163,220.87 452.996,214.204 453.5,207.5C 454.357,198.529 455.357,189.529 456.5,180.5C 457.003,175.141 457.67,169.807 458.5,164.5C 459.809,160.649 459.809,156.649 458.5,152.5C 454.833,150 451.167,147.5 447.5,145C 433.824,142.799 420.157,142.299 406.5,143.5C 410.217,141.934 414.217,140.768 418.5,140C 415.321,139.487 411.988,138.987 408.5,138.5C 406.311,138.594 404.311,139.261 402.5,140.5C 400.815,139.047 399.149,137.714 397.5,136.5C 398.719,126.522 399.719,116.522 400.5,106.5C 401.804,102.64 402.471,98.6403 402.5,94.5C 403.527,82.612 404.86,70.612 406.5,58.5C 392.433,55.6333 378.433,52.4667 364.5,49C 356.43,48.3145 348.43,48.8145 340.5,50.5C 340.137,51.1835 339.804,51.8501 339.5,52.5C 338.504,52.4142 337.671,52.7476 337,53.5C 331.08,63.1504 324.914,72.1504 318.5,80.5C 317.571,81.6888 317.238,83.0222 317.5,84.5C 313.834,84.9578 310.334,85.9578 307,87.5C 305.675,92.4012 305.175,97.4012 305.5,102.5C 302.106,106.408 299.273,110.742 297,115.5C 296.223,124.548 296.389,133.548 297.5,142.5C 285.015,150.304 273.348,159.304 262.5,169.5C 261.614,170.325 261.281,171.325 261.5,172.5C 260.778,172.082 260.278,171.416 260,170.5C 257.404,173.15 255.904,176.316 255.5,180C 255.167,188.831 255.167,197.498 255.5,206C 254.76,207.785 254.093,209.618 253.5,211.5C 253.141,215.91 253.141,220.41 253.5,225C 251.317,229.567 250.317,234.401 250.5,239.5C 247.234,239.567 245.734,237.901 246,234.5C 245.667,234.833 245.333,235.167 245,235.5C 243.133,215.822 241.133,196.156 239,176.5C 235.553,165.883 228.72,158.216 218.5,153.5C 216.765,149.954 214.098,147.287 210.5,145.5C 209.008,141.323 206.675,137.823 203.5,135C 205.143,131.36 204.476,128.193 201.5,125.5C 202.167,124.5 202.833,123.5 203.5,122.5C 201.013,115.47 197.513,109.137 193,103.5C 191.877,99.9205 190.21,96.5872 188,93.5C 183.798,88.6215 180.131,83.2882 177,77.5C 174.335,75.423 172.835,73.0897 172.5,70.5C 171,67.5 169.5,64.5 168,61.5C 163.894,57.3923 160.56,52.7256 158,47.5C 157.506,49.1341 157.34,50.8008 157.5,52.5C 157.167,52.5 156.833,52.5 156.5,52.5C 156.5,50.8333 156.5,49.1667 156.5,47.5C 145.279,47.363 133.946,47.6963 122.5,48.5C 116.097,49.9688 109.764,51.6355 103.5,53.5C 99.3474,54.5533 95.1807,55.5533 91,56.5C 91.7277,75.2188 93.2277,93.8855 95.5,112.5C 94.71,111.391 94.21,110.058 94,108.5C 93.6667,112.5 93.3333,116.5 93,120.5C 92.797,116.579 92.297,112.745 91.5,109C 92.8331,107.16 92.6665,106.66 91,107.5C 90.8422,112.412 91.3422,117.246 92.5,122C 92.5117,123.975 92.1784,126.142 91.5,128.5C 90.5,128.5 89.5,128.5 88.5,128.5C 88.2801,122.738 88.2801,117.071 88.5,111.5C 87.9598,110.252 87.2931,109.085 86.5,108C 87.398,103.337 87.0647,98.6704 85.5,94C 85.8163,90.9708 86.1496,87.9708 86.5,85C 84.979,80.9148 83.979,76.9148 83.5,73C 83.0306,71.038 83.6973,69.2047 85.5,67.5C 85.0856,64.9683 84.7523,62.4683 84.5,60C 87.1414,54.6919 91.1414,50.6919 96.5,48C 108.568,43.2129 121.068,40.3796 134,39.5C 146.397,38.4893 156.73,42.4893 165,51.5C 169.101,58.713 173.434,65.713 178,72.5C 179.067,73.1905 180.234,73.6905 181.5,74C 180.549,74.7175 180.383,75.5509 181,76.5C 186.576,83.3202 191.909,90.3202 197,97.5C 201.378,105.588 205.211,113.922 208.5,122.5C 207.263,124.5 207.597,126.334 209.5,128C 208.833,130.667 208.167,133.333 207.5,136C 215.558,143.215 223.891,150.215 232.5,157C 240.272,163.71 244.438,172.21 245,182.5C 245.763,179.937 246.263,179.937 246.5,182.5C 245.49,185.813 245.49,189.146 246.5,192.5C 248.124,192.64 249.29,191.973 250,190.5C 250.615,180.399 252.948,171.066 257,162.5C 261.138,158.965 264.971,155.799 268.5,153C 268.167,152.667 267.833,152.333 267.5,152C 272.889,149.577 277.389,146.077 281,141.5C 281.333,141.833 281.667,142.167 282,142.5C 286.128,137.213 287.628,131.38 286.5,125C 289.709,111.031 294.209,97.8641 300,85.5C 304.189,80.9767 308.689,76.81 313.5,73C 313.167,72.6667 312.833,72.3333 312.5,72C 313.667,70.1667 315.167,68.6667 317,67.5C 320.713,62.4434 324.046,57.1101 327,51.5C 334.126,41.6254 343.626,37.9587 355.5,40.5C 358.041,37.8997 360.541,37.8997 363,40.5C 368.598,40.1294 374.098,41.1294 379.5,43.5C 392.504,43.5626 403.671,48.2293 413,57.5C 413.446,60.343 413.946,63.1764 414.5,66C 414.055,67.4469 413.388,68.7803 412.5,70C 414.326,72.736 414.993,75.5694 414.5,78.5C 413.975,79.1924 413.308,79.6924 412.5,80C 412.833,83 413.167,86 413.5,89C 412.5,91.3333 411.5,93.6667 410.5,96C 411.308,96.3076 411.975,96.8076 412.5,97.5C 409.901,109.092 408.067,120.092 407,130.5C 412.262,134.374 417.762,135.041 423.5,132.5C 425.452,134.533 427.618,134.866 430,133.5C 430.388,134.428 431.055,135.095 432,135.5C 434.165,133.036 436.165,133.036 438,135.5C 441.881,133.728 445.047,134.561 447.5,138C 450.232,138.413 452.899,139.08 455.5,140C 454.549,140.718 454.383,141.551 455,142.5C 455.718,141.549 456.551,141.383 457.5,142C 458.714,143.979 460.381,145.479 462.5,146.5C 462.291,147.086 461.957,147.586 461.5,148C 467.376,151.041 469.042,155.708 466.5,162C 467.848,163.574 468.514,165.407 468.5,167.5C 465.825,179.807 464.325,192.14 464,204.5C 462.904,206.889 462.071,209.389 461.5,212C 462.059,212.725 462.392,213.558 462.5,214.5C 460.939,217.932 460.106,221.599 460,225.5C 458.865,228.785 457.032,231.618 454.5,234C 455.34,235.171 456.173,236.338 457,237.5C 457.414,237.043 457.914,236.709 458.5,236.5C 459.382,237.76 460.382,238.926 461.5,240C 460.315,242.778 461.315,244.278 464.5,244.5C 466.269,250.723 466.769,257.057 466,263.5C 465.5,264 465,264.5 464.5,265C 467.328,268.301 467.994,271.968 466.5,276C 467.167,276.333 467.833,276.667 468.5,277C 467.408,287.726 461.908,294.226 452,296.5C 449.297,299.079 446.297,300.079 443,299.5C 438.609,300.7 434.109,301.534 429.5,302C 426.187,303.968 422.854,305.968 419.5,308C 422.194,311.36 425.194,314.36 428.5,317C 434.278,320.447 439.778,324.28 445,328.5C 445.333,328.167 445.667,327.833 446,327.5C 446.483,328.448 446.649,329.448 446.5,330.5C 451.192,333.583 456.025,336.583 461,339.5C 461.199,341.402 462.033,342.902 463.5,344C 462.186,344.985 461.186,346.152 460.5,347.5 Z"/></g>
<g><path style="opacity:0.983" fill="#97863e" d="M 317.5,223.5 C 314.48,227.73 310.48,229.897 305.5,230C 302.613,225.716 299.613,221.549 296.5,217.5C 300.945,215.388 305.612,214.555 310.5,215C 313.423,217.416 315.757,220.25 317.5,223.5 Z"/></g>
<g><path style="opacity:0.982" fill="#0e99eb" d="M 331.5,211.5 C 327.793,216.535 323.126,220.535 317.5,223.5C 315.757,220.25 313.423,217.416 310.5,215C 305.612,214.555 300.945,215.388 296.5,217.5C 294.937,216.055 293.604,214.389 292.5,212.5C 301.504,206.053 311.504,204.553 322.5,208C 325.647,208.881 328.647,210.047 331.5,211.5 Z"/></g>
<g><path style="opacity:0.941" fill="#28692e" d="M 401.5,186.5 C 401.175,193.687 401.509,200.687 402.5,207.5C 402.158,208.338 401.492,208.672 400.5,208.5C 400.175,200.981 400.508,193.648 401.5,186.5 Z"/></g>
<g><path style="opacity:0.945" fill="#766a37" d="M 458.5,164.5 C 457.67,169.807 457.003,175.141 456.5,180.5C 451.427,183.794 446.594,187.46 442,191.5C 440.213,197.532 438.047,203.366 435.5,209C 435.85,210.257 436.517,210.591 437.5,210C 441.092,207.079 443.925,203.579 446,199.5C 448,202.666 450.5,205.332 453.5,207.5C 452.996,214.204 452.163,220.87 451,227.5C 449.301,228.406 447.467,228.739 445.5,228.5C 434.814,226.151 424.147,223.818 413.5,221.5C 409.255,220.198 404.922,218.865 400.5,217.5C 400.5,214.5 400.5,211.5 400.5,208.5C 401.492,208.672 402.158,208.338 402.5,207.5C 408.389,203.969 414.223,200.303 420,196.5C 419.11,190.257 418.61,183.924 418.5,177.5C 412.509,178.994 406.842,181.327 401.5,184.5C 402.292,178.87 402.625,173.203 402.5,167.5C 403.404,166.791 403.737,165.791 403.5,164.5C 405.226,164.185 406.893,164.019 408.5,164C 409.03,165.744 409.03,167.244 408.5,168.5C 410.333,167.948 412,167.115 413.5,166C 413.043,165.586 412.709,165.086 412.5,164.5C 414.197,163.636 415.363,162.303 416,160.5C 417.017,163.028 418.184,163.028 419.5,160.5C 420.666,162.365 420.333,164.032 418.5,165.5C 420.527,166.693 422.027,168.36 423,170.5C 425.084,167.967 427.084,167.967 429,170.5C 430.659,169.169 432.326,167.835 434,166.5C 435.416,167.573 436.75,167.573 438,166.5C 438.029,169.02 436.863,171.02 434.5,172.5C 437.168,173.515 437.834,175.182 436.5,177.5C 435.5,177 434.5,176.5 433.5,176C 433.833,175.667 434.167,175.333 434.5,175C 430.232,175.288 427.398,173.454 426,169.5C 424.587,171.652 423.754,173.986 423.5,176.5C 426.941,176.301 430.274,176.801 433.5,178C 432.007,179.156 432.174,179.99 434,180.5C 436.248,179.045 438.748,178.212 441.5,178C 444.014,175.943 445.347,173.61 445.5,171C 443.259,168.798 442.592,166.298 443.5,163.5C 444.799,164.09 445.632,165.09 446,166.5C 446.419,165.328 447.085,164.328 448,163.5C 448.9,165.398 450.066,167.064 451.5,168.5C 452.736,167.754 454.07,167.421 455.5,167.5C 455.183,164.466 456.183,163.466 458.5,164.5 Z"/></g>
<g><path style="opacity:0.926" fill="#0fc757" d="M 402.5,207.5 C 401.509,200.687 401.175,193.687 401.5,186.5C 401.5,185.833 401.5,185.167 401.5,184.5C 406.842,181.327 412.509,178.994 418.5,177.5C 418.61,183.924 419.11,190.257 420,196.5C 414.223,200.303 408.389,203.969 402.5,207.5 Z"/></g>
<g><path style="opacity:0.884" fill="#1390d7" d="M 456.5,180.5 C 455.357,189.529 454.357,198.529 453.5,207.5C 450.5,205.332 448,202.666 446,199.5C 443.925,203.579 441.092,207.079 437.5,210C 436.517,210.591 435.85,210.257 435.5,209C 438.047,203.366 440.213,197.532 442,191.5C 446.594,187.46 451.427,183.794 456.5,180.5 Z"/></g>
<g><path style="opacity:0.338" fill="#412c1f" d="M 397.5,136.5 C 399.149,137.714 400.815,139.047 402.5,140.5C 404.311,139.261 406.311,138.594 408.5,138.5C 411.988,138.987 415.321,139.487 418.5,140C 414.217,140.768 410.217,141.934 406.5,143.5C 405.566,144.568 405.232,145.901 405.5,147.5C 401.564,149.436 398.564,152.436 396.5,156.5C 394.895,154.121 393.562,154.121 392.5,156.5C 387.5,159.833 382.5,163.167 377.5,166.5C 377.631,165.761 377.464,165.094 377,164.5C 376,165.5 375,166.5 374,167.5C 373.833,167 373.667,166.5 373.5,166C 375.519,164.312 377.186,162.312 378.5,160C 386.201,157.921 389.201,153.421 387.5,146.5C 382.102,144.282 376.436,143.449 370.5,144C 358.776,150.718 350.276,160.218 345,172.5C 343.628,176.678 343.128,180.845 343.5,185C 344.991,187.494 346.491,189.994 348,192.5C 350.172,191.415 352.172,190.081 354,188.5C 359.154,181.682 364.654,175.182 370.5,169C 372.066,168.235 373.399,168.402 374.5,169.5C 374.5,171.167 374.5,172.833 374.5,174.5C 368.831,178.346 363.497,182.679 358.5,187.5C 354.222,203.388 350.389,219.388 347,235.5C 346.329,236.252 345.496,236.586 344.5,236.5C 344.144,234.81 343.144,233.81 341.5,233.5C 340.276,224.928 339.61,216.261 339.5,207.5C 341.184,205.983 342.517,204.15 343.5,202C 341.943,199.045 340.276,196.212 338.5,193.5C 338.334,184.827 338.5,176.16 339,167.5C 347.95,157.761 356.784,147.928 365.5,138C 366.793,137.51 368.127,137.343 369.5,137.5C 370.167,137.5 370.833,137.5 371.5,137.5C 373.265,138.461 375.265,138.795 377.5,138.5C 383.748,139.964 390.081,140.964 396.5,141.5C 396.216,139.585 396.549,137.919 397.5,136.5 Z"/></g>
<g><path style="opacity:0.977" fill="#786b37" d="M 392.5,156.5 C 393.145,165.993 393.145,175.66 392.5,185.5C 386.652,185.915 380.985,187.249 375.5,189.5C 374.506,184.544 374.173,179.544 374.5,174.5C 374.5,172.833 374.5,171.167 374.5,169.5C 375.833,168.833 376.833,167.833 377.5,166.5C 382.5,163.167 387.5,159.833 392.5,156.5 Z"/></g>
<g><path style="opacity:0.84" fill="#736636" d="M 458.5,164.5 C 456.183,163.466 455.183,164.466 455.5,167.5C 454.07,167.421 452.736,167.754 451.5,168.5C 450.066,167.064 448.9,165.398 448,163.5C 447.085,164.328 446.419,165.328 446,166.5C 445.632,165.09 444.799,164.09 443.5,163.5C 442.592,166.298 443.259,168.798 445.5,171C 445.347,173.61 444.014,175.943 441.5,178C 438.748,178.212 436.248,179.045 434,180.5C 432.174,179.99 432.007,179.156 433.5,178C 430.274,176.801 426.941,176.301 423.5,176.5C 423.754,173.986 424.587,171.652 426,169.5C 427.398,173.454 430.232,175.288 434.5,175C 434.167,175.333 433.833,175.667 433.5,176C 434.5,176.5 435.5,177 436.5,177.5C 437.834,175.182 437.168,173.515 434.5,172.5C 436.863,171.02 438.029,169.02 438,166.5C 436.75,167.573 435.416,167.573 434,166.5C 432.326,167.835 430.659,169.169 429,170.5C 427.084,167.967 425.084,167.967 423,170.5C 422.027,168.36 420.527,166.693 418.5,165.5C 420.333,164.032 420.666,162.365 419.5,160.5C 418.184,163.028 417.017,163.028 416,160.5C 415.363,162.303 414.197,163.636 412.5,164.5C 412.709,165.086 413.043,165.586 413.5,166C 412,167.115 410.333,167.948 408.5,168.5C 409.03,167.244 409.03,165.744 408.5,164C 406.893,164.019 405.226,164.185 403.5,164.5C 403.737,165.791 403.404,166.791 402.5,167.5C 402.843,160.681 403.843,154.014 405.5,147.5C 405.232,145.901 405.566,144.568 406.5,143.5C 420.157,142.299 433.824,142.799 447.5,145C 451.167,147.5 454.833,150 458.5,152.5C 459.809,156.649 459.809,160.649 458.5,164.5 Z"/></g>
<g><path style="opacity:0.066" fill="#4b3726" d="M 377.5,166.5 C 376.833,167.833 375.833,168.833 374.5,169.5C 373.399,168.402 372.066,168.235 370.5,169C 364.654,175.182 359.154,181.682 354,188.5C 352.172,190.081 350.172,191.415 348,192.5C 346.491,189.994 344.991,187.494 343.5,185C 343.128,180.845 343.628,176.678 345,172.5C 350.276,160.218 358.776,150.718 370.5,144C 376.436,143.449 382.102,144.282 387.5,146.5C 389.201,153.421 386.201,157.921 378.5,160C 377.186,162.312 375.519,164.312 373.5,166C 373.667,166.5 373.833,167 374,167.5C 375,166.5 376,165.5 377,164.5C 377.464,165.094 377.631,165.761 377.5,166.5 Z"/></g>
<g><path style="opacity:0.978" fill="#97853b" d="M 297.5,142.5 C 308.167,156.006 318.667,169.672 329,183.5C 331.952,187.099 335.118,190.433 338.5,193.5C 340.276,196.212 341.943,199.045 343.5,202C 342.517,204.15 341.184,205.983 339.5,207.5C 337.093,208.794 334.926,210.461 333,212.5C 332.617,211.944 332.117,211.611 331.5,211.5C 328.647,210.047 325.647,208.881 322.5,208C 311.504,204.553 301.504,206.053 292.5,212.5C 282.167,199.167 271.833,185.833 261.5,172.5C 261.281,171.325 261.614,170.325 262.5,169.5C 273.348,159.304 285.015,150.304 297.5,142.5 Z"/></g>
<g><path style="opacity:0.983" fill="#1dcd58" d="M 305.5,167.5 C 309.327,171.283 312.327,175.783 314.5,181C 314.355,181.772 314.022,182.439 313.5,183C 309.933,184.037 306.433,185.204 303,186.5C 301.443,183.706 301.11,180.706 302,177.5C 302.852,173.981 304.019,170.647 305.5,167.5 Z"/></g>
<g><path style="opacity:0.936" fill="#766a37" d="M 400.5,106.5 C 399.719,116.522 398.719,126.522 397.5,136.5C 396.549,137.919 396.216,139.585 396.5,141.5C 390.081,140.964 383.748,139.964 377.5,138.5C 380.194,128.927 382.36,119.26 384,109.5C 389.173,106.962 394.673,105.962 400.5,106.5 Z"/></g>
<g><path style="opacity:0.931" fill="#16c155" d="M 402.5,94.5 C 402.471,98.6403 401.804,102.64 400.5,106.5C 394.673,105.962 389.173,106.962 384,109.5C 382.36,119.26 380.194,128.927 377.5,138.5C 375.265,138.795 373.265,138.461 371.5,137.5C 374.59,123.982 378.423,110.649 383,97.5C 389.269,95.8895 395.436,93.8895 401.5,91.5C 402.386,92.325 402.719,93.325 402.5,94.5 Z"/></g>
<g><path style="opacity:0.971" fill="#383016" d="M 339.5,52.5 C 341.266,79.4926 342.933,106.493 344.5,133.5C 352.959,134.841 361.293,136.175 369.5,137.5C 368.127,137.343 366.793,137.51 365.5,138C 356.784,147.928 347.95,157.761 339,167.5C 338.5,176.16 338.334,184.827 338.5,193.5C 335.118,190.433 331.952,187.099 329,183.5C 318.667,169.672 308.167,156.006 297.5,142.5C 296.389,133.548 296.223,124.548 297,115.5C 299.273,110.742 302.106,106.408 305.5,102.5C 306.461,104.265 306.795,106.265 306.5,108.5C 312.574,107.919 318.574,106.919 324.5,105.5C 324.968,98.1234 324.968,90.7901 324.5,83.5C 322.253,84.3742 319.92,84.7076 317.5,84.5C 317.238,83.0222 317.571,81.6888 318.5,80.5C 324.914,72.1504 331.08,63.1504 337,53.5C 337.671,52.7476 338.504,52.4142 339.5,52.5 Z"/></g>
<g><path style="opacity:0.927" fill="#53471f" d="M 305.5,102.5 C 305.175,97.4012 305.675,92.4012 307,87.5C 310.334,85.9578 313.834,84.9578 317.5,84.5C 319.92,84.7076 322.253,84.3742 324.5,83.5C 324.968,90.7901 324.968,98.1234 324.5,105.5C 318.574,106.919 312.574,107.919 306.5,108.5C 306.795,106.265 306.461,104.265 305.5,102.5 Z"/></g>
<g><path style="opacity:0.839" fill="#746836" d="M 402.5,94.5 C 402.719,93.325 402.386,92.325 401.5,91.5C 395.436,93.8895 389.269,95.8895 383,97.5C 378.423,110.649 374.59,123.982 371.5,137.5C 370.833,137.5 370.167,137.5 369.5,137.5C 361.293,136.175 352.959,134.841 344.5,133.5C 342.933,106.493 341.266,79.4926 339.5,52.5C 339.804,51.8501 340.137,51.1835 340.5,50.5C 348.43,48.8145 356.43,48.3145 364.5,49C 378.433,52.4667 392.433,55.6333 406.5,58.5C 404.86,70.612 403.527,82.612 402.5,94.5 Z"/></g>
<g><path style="opacity:0.859" fill="#178dd2" d="M 355.5,76.5 C 357.167,76.5 358.833,76.5 360.5,76.5C 361.503,83.1876 362.336,89.8543 363,96.5C 358.59,98.2022 354.09,98.5356 349.5,97.5C 347.855,92.9181 346.521,88.2514 345.5,83.5C 345.919,82.3279 346.585,81.3279 347.5,80.5C 350.358,79.3391 353.025,78.0057 355.5,76.5 Z"/></g>
<g><path style="opacity:0.974" fill="#17cb57" d="M 122.5,48.5 C 121.178,54.768 120.178,61.1013 119.5,67.5C 116.11,66.9767 112.777,66.1434 109.5,65C 107.347,61.1918 105.347,57.3585 103.5,53.5C 109.764,51.6355 116.097,49.9688 122.5,48.5 Z"/></g>
<g><path style="opacity:0.95" fill="#776c38" d="M 219.5,295.5 C 221.423,298.603 223.59,301.603 226,304.5C 226.457,308.882 226.457,313.216 226,317.5C 230.95,310.599 235.116,303.266 238.5,295.5C 254.521,295.334 270.521,295.834 286.5,297C 285.748,297.671 285.414,298.504 285.5,299.5C 281.266,301.647 276.933,303.647 272.5,305.5C 274.454,309.766 277.121,313.433 280.5,316.5C 280.209,317.649 279.376,318.316 278,318.5C 261.864,318.214 245.697,318.214 229.5,318.5C 226.223,318.784 223.057,318.451 220,317.5C 218.062,310.579 215.896,303.746 213.5,297C 215.586,296.685 217.586,296.185 219.5,295.5 Z"/></g>
<g><path style="opacity:0.967" fill="#15c757" d="M 219.5,295.5 C 225.792,296.398 232.125,296.398 238.5,295.5C 235.116,303.266 230.95,310.599 226,317.5C 226.457,313.216 226.457,308.882 226,304.5C 223.59,301.603 221.423,298.603 219.5,295.5 Z"/></g>
<g><path style="opacity:0.982" fill="#52471e" d="M 137.5,299.5 C 138.376,299.369 139.043,299.702 139.5,300.5C 141.305,304.61 142.972,308.777 144.5,313C 142.629,315.904 140.629,318.737 138.5,321.5C 134.061,320.102 129.561,319.102 125,318.5C 124.501,313.511 124.334,308.511 124.5,303.5C 128.999,302.401 133.332,301.068 137.5,299.5 Z"/></g>
<g><path style="opacity:0.983" fill="#1b95df" d="M 285.5,299.5 C 283.958,305.218 282.291,310.885 280.5,316.5C 277.121,313.433 274.454,309.766 272.5,305.5C 276.933,303.647 281.266,301.647 285.5,299.5 Z"/></g>
<g><path style="opacity:0.976" fill="#54481f" d="M 339.5,308.5 C 340.74,312.149 342.407,315.649 344.5,319C 341.865,323.778 338.865,328.278 335.5,332.5C 332.596,330.88 329.596,329.547 326.5,328.5C 325.152,327.814 323.985,326.814 323,325.5C 322.333,320.833 322.333,316.167 323,311.5C 326.746,308.71 330.579,306.043 334.5,303.5C 336.401,305.006 338.068,306.673 339.5,308.5 Z"/></g>
<g><path style="opacity:0.974" fill="#54481f" d="M 87.5,310.5 C 96.6202,309.517 105.287,311.017 113.5,315C 122.712,321.212 130.212,329.045 136,338.5C 140.105,347.87 145.605,356.37 152.5,364C 171.688,377.256 193.021,382.756 216.5,380.5C 209.851,387.3 202.185,392.8 193.5,397C 179.638,397.699 166.971,394.032 155.5,386C 140.985,374.908 126.651,363.574 112.5,352C 94.756,347.361 77.756,349.195 61.5,357.5C 61.5086,355.692 61.0086,354.025 60,352.5C 54.6096,344.417 49.4429,336.25 44.5,328C 46.8883,325.645 49.5549,323.645 52.5,322C 57.3797,319.393 62.3797,317.06 67.5,315C 73.8483,312.108 80.5149,310.608 87.5,310.5 Z"/></g>
<g><path style="opacity:0.983" fill="#554a1f" d="M 157.5,320.5 C 165.775,319.385 173.442,320.885 180.5,325C 182.7,327.234 184.533,329.734 186,332.5C 188.014,353.001 198.014,367.334 216,375.5C 206.837,377.668 198.67,375.668 191.5,369.5C 184.707,362.544 178.874,354.877 174,346.5C 167.995,340.943 161.161,339.943 153.5,343.5C 152.336,336.524 152.169,329.524 153,322.5C 154.622,321.901 156.122,321.234 157.5,320.5 Z"/></g>
<g><path style="opacity:0.959" fill="#c7c705" d="M 241.5,322.5 C 237.757,325.482 234.757,324.815 232.5,320.5C 235.287,319.523 238.287,319.19 241.5,319.5C 241.5,320.5 241.5,321.5 241.5,322.5 Z"/></g>
<g><path style="opacity:0.969" fill="#c0c006" d="M 258.5,319.5 C 261.572,319.183 264.572,319.516 267.5,320.5C 263.593,326.014 260.593,325.681 258.5,319.5 Z"/></g>
<g><path style="opacity:0.88" fill="#917d38" d="M 387.5,288.5 C 389.735,289.228 391.568,290.561 393,292.5C 397.03,298.02 401.197,303.353 405.5,308.5C 410.179,313.178 415.179,317.511 420.5,321.5C 420.439,323.592 419.439,325.092 417.5,326C 420.492,326.519 421.492,328.019 420.5,330.5C 417.256,326.327 415.756,326.66 416,331.5C 415.329,332.252 414.496,332.586 413.5,332.5C 405.31,335.082 404.31,339.416 410.5,345.5C 411.5,345.5 412.5,345.5 413.5,345.5C 413.071,348.683 411.404,351.016 408.5,352.5C 407.201,351.91 406.368,350.91 406,349.5C 405.692,350.308 405.192,350.975 404.5,351.5C 403.532,350.511 402.365,349.844 401,349.5C 398.774,350.033 396.607,350.7 394.5,351.5C 388.532,347.351 382.199,344.017 375.5,341.5C 376.968,340.194 378.301,338.694 379.5,337C 378.256,336.544 377.423,337.044 377,338.5C 376.5,337.333 375.667,336.5 374.5,336C 377.373,334.567 380.206,334.067 383,334.5C 383.945,334.905 384.612,335.572 385,336.5C 385.297,333.562 386.797,331.562 389.5,330.5C 389.36,331.569 389.36,332.736 389.5,334C 388.552,334.483 387.552,334.649 386.5,334.5C 386.822,336.722 386.155,338.556 384.5,340C 387.01,340.121 389.344,339.454 391.5,338C 390.833,337.667 390.167,337.333 389.5,337C 391.291,334.894 391.958,332.394 391.5,329.5C 392.552,329.649 393.552,329.483 394.5,329C 393.529,327.796 392.529,327.296 391.5,327.5C 392.975,323.71 394.642,323.71 396.5,327.5C 398.063,322.855 400.396,322.688 403.5,327C 400.659,329.064 400.992,329.731 404.5,329C 406.689,328.323 407.022,327.156 405.5,325.5C 408.733,325.247 411.066,323.747 412.5,321C 412,320.5 411.5,320 411,319.5C 409.418,321.711 407.251,323.045 404.5,323.5C 400.891,322.479 397.724,320.812 395,318.5C 392.904,319.715 393.071,320.549 395.5,321C 394.095,322.269 392.429,322.769 390.5,322.5C 390.657,321.127 390.49,319.793 390,318.5C 389.252,320.332 388.252,321.999 387,323.5C 387.077,322.262 386.911,321.262 386.5,320.5C 383.229,324.089 379.229,325.256 374.5,324C 375.973,323.29 376.64,322.124 376.5,320.5C 389.552,321.716 391.218,318.549 381.5,311C 382.93,309.114 384.597,307.447 386.5,306C 384.071,305.549 383.904,304.715 386,303.5C 386.333,303.833 386.667,304.167 387,304.5C 388.5,302.333 390.333,300.5 392.5,299C 390.776,298.552 390.109,297.718 390.5,296.5C 389.186,297.313 388.019,298.313 387,299.5C 385.992,297.741 384.492,296.574 382.5,296C 387.461,295.096 388.461,292.763 385.5,289C 386.094,288.536 386.761,288.369 387.5,288.5 Z"/></g>
<g><path style="opacity:0.976" fill="#383016" d="M 71.5,324.5 C 74.8499,324.335 78.1832,324.502 81.5,325C 82.9606,327.421 84.2939,329.921 85.5,332.5C 83.4622,336.576 81.4622,340.576 79.5,344.5C 75.3997,342.244 71.0664,340.577 66.5,339.5C 67.0373,334.814 67.704,330.147 68.5,325.5C 69.791,325.737 70.791,325.404 71.5,324.5 Z"/></g>
<g><path style="opacity:0.984" fill="#736735" d="M 256.5,328.5 C 258.167,328.5 259.833,328.5 261.5,328.5C 261.5,329.833 261.5,331.167 261.5,332.5C 259.833,332.5 258.167,332.5 256.5,332.5C 256.5,331.167 256.5,329.833 256.5,328.5 Z"/></g>
<g><path style="opacity:0.959" fill="#776b37" d="M 232.5,332.5 C 233.018,333.577 233.352,334.744 233.5,336C 232.121,341.441 231.121,346.941 230.5,352.5C 224.613,351.425 218.947,349.758 213.5,347.5C 216.193,342.092 217.86,336.425 218.5,330.5C 223.062,331.796 227.729,332.462 232.5,332.5 Z"/></g>
<g><path style="opacity:0.934" fill="#544920" d="M 253.5,333.5 C 257.064,334.423 260.731,334.756 264.5,334.5C 264.5,338.5 264.5,342.5 264.5,346.5C 254.828,346.666 245.161,346.5 235.5,346C 235.177,342.29 235.177,338.457 235.5,334.5C 237.527,334.662 239.527,334.495 241.5,334C 239.893,332.951 239.227,331.451 239.5,329.5C 240.568,328.566 241.901,328.232 243.5,328.5C 243.5,330.167 243.5,331.833 243.5,333.5C 244.833,333.5 246.167,333.5 247.5,333.5C 247.5,331.833 247.5,330.167 247.5,328.5C 249.167,328.5 250.833,328.5 252.5,328.5C 252.216,330.415 252.549,332.081 253.5,333.5 Z"/></g>
<g><path style="opacity:0.981" fill="#786b37" d="M 265.5,332.5 C 269.846,332.334 274.179,332.501 278.5,333C 279.571,338.124 280.571,343.291 281.5,348.5C 276.473,349.372 271.473,350.372 266.5,351.5C 265.89,345.185 265.557,338.851 265.5,332.5 Z"/></g>
<g><path style="opacity:0.776" fill="#3e351a" d="M 413.5,332.5 C 414.809,335.487 416.142,338.487 417.5,341.5C 417.392,342.442 417.059,343.275 416.5,344C 414.292,344.191 412.292,344.691 410.5,345.5C 404.31,339.416 405.31,335.082 413.5,332.5 Z"/></g>
<g><path style="opacity:0.956" fill="#756836" d="M 112.5,335.5 C 113.5,335.5 114.5,335.5 115.5,335.5C 115.5,339.167 115.5,342.833 115.5,346.5C 112.833,346.5 110.167,346.5 107.5,346.5C 107.335,343.482 107.502,340.482 108,337.5C 109.622,336.901 111.122,336.234 112.5,335.5 Z"/></g>
<g><path style="opacity:0.976" fill="#776a37" d="M 304.5,333.5 C 305.5,333.5 306.5,333.5 307.5,333.5C 310.98,341.83 308.313,346.163 299.5,346.5C 299.219,344.037 298.219,341.87 296.5,340C 299.355,337.969 302.022,335.803 304.5,333.5 Z"/></g>
<g><path style="opacity:0.786" fill="#897537" d="M 420.5,321.5 C 432.81,331.661 446.143,340.327 460.5,347.5C 461.301,349.042 461.634,350.708 461.5,352.5C 459.147,354.86 457.147,357.527 455.5,360.5C 452.882,360.221 450.382,359.554 448,358.5C 444.497,358.451 441.664,358.951 439.5,360C 439.962,358.278 440.128,356.445 440,354.5C 440.925,353.953 441.758,353.287 442.5,352.5C 442.167,352.167 441.833,351.833 441.5,351.5C 440.3,352.531 438.966,353.365 437.5,354C 437.501,355.399 437.835,356.899 438.5,358.5C 436.813,359.568 435.146,359.401 433.5,358C 435.271,357.465 435.604,356.631 434.5,355.5C 433.554,355.013 432.554,354.68 431.5,354.5C 428.055,355.966 424.722,356.8 421.5,357C 426.453,359.731 431.453,360.897 436.5,360.5C 436.74,364.432 435.073,367.266 431.5,369C 433.085,369.085 434.418,369.251 435.5,369.5C 434.167,371.5 432.5,373.167 430.5,374.5C 430.709,375.086 431.043,375.586 431.5,376C 429.563,376.122 428.23,376.955 427.5,378.5C 416.81,369.145 405.81,360.145 394.5,351.5C 396.607,350.7 398.774,350.033 401,349.5C 402.365,349.844 403.532,350.511 404.5,351.5C 405.192,350.975 405.692,350.308 406,349.5C 406.368,350.91 407.201,351.91 408.5,352.5C 411.404,351.016 413.071,348.683 413.5,345.5C 412.5,345.5 411.5,345.5 410.5,345.5C 412.292,344.691 414.292,344.191 416.5,344C 417.059,343.275 417.392,342.442 417.5,341.5C 416.142,338.487 414.809,335.487 413.5,332.5C 414.496,332.586 415.329,332.252 416,331.5C 415.756,326.66 417.256,326.327 420.5,330.5C 421.492,328.019 420.492,326.519 417.5,326C 419.439,325.092 420.439,323.592 420.5,321.5 Z"/></g>
<g><path style="opacity:0.963" fill="#96833a" d="M 387.5,288.5 C 386.761,288.369 386.094,288.536 385.5,289C 388.461,292.763 387.461,295.096 382.5,296C 384.492,296.574 385.992,297.741 387,299.5C 388.019,298.313 389.186,297.313 390.5,296.5C 390.109,297.718 390.776,298.552 392.5,299C 390.333,300.5 388.5,302.333 387,304.5C 386.667,304.167 386.333,303.833 386,303.5C 383.904,304.715 384.071,305.549 386.5,306C 384.597,307.447 382.93,309.114 381.5,311C 391.218,318.549 389.552,321.716 376.5,320.5C 376.64,322.124 375.973,323.29 374.5,324C 379.229,325.256 383.229,324.089 386.5,320.5C 386.911,321.262 387.077,322.262 387,323.5C 388.252,321.999 389.252,320.332 390,318.5C 390.49,319.793 390.657,321.127 390.5,322.5C 392.429,322.769 394.095,322.269 395.5,321C 393.071,320.549 392.904,319.715 395,318.5C 397.724,320.812 400.891,322.479 404.5,323.5C 407.251,323.045 409.418,321.711 411,319.5C 411.5,320 412,320.5 412.5,321C 411.066,323.747 408.733,325.247 405.5,325.5C 407.022,327.156 406.689,328.323 404.5,329C 400.992,329.731 400.659,329.064 403.5,327C 400.396,322.688 398.063,322.855 396.5,327.5C 394.642,323.71 392.975,323.71 391.5,327.5C 392.529,327.296 393.529,327.796 394.5,329C 393.552,329.483 392.552,329.649 391.5,329.5C 391.958,332.394 391.291,334.894 389.5,337C 390.167,337.333 390.833,337.667 391.5,338C 389.344,339.454 387.01,340.121 384.5,340C 386.155,338.556 386.822,336.722 386.5,334.5C 387.552,334.649 388.552,334.483 389.5,334C 389.36,332.736 389.36,331.569 389.5,330.5C 386.797,331.562 385.297,333.562 385,336.5C 384.612,335.572 383.945,334.905 383,334.5C 380.206,334.067 377.373,334.567 374.5,336C 375.667,336.5 376.5,337.333 377,338.5C 377.423,337.044 378.256,336.544 379.5,337C 378.301,338.694 376.968,340.194 375.5,341.5C 371.681,341.605 368.014,342.438 364.5,344C 354.789,350.711 346.789,359.044 340.5,369C 344.848,369.415 349.181,369.249 353.5,368.5C 353.92,373.512 354.087,378.512 354,383.5C 348.447,385.955 342.614,387.288 336.5,387.5C 336.5,383.833 336.5,380.167 336.5,376.5C 330.799,380.69 325.466,385.523 320.5,391C 313.679,397.208 305.679,399.208 296.5,397C 287.052,395.297 279.219,390.797 273,383.5C 269.201,377.403 265.035,371.569 260.5,366C 257.181,363.495 253.514,362.495 249.5,363C 246.022,365.15 242.855,367.65 240,370.5C 230.219,384.614 220.053,398.448 209.5,412C 203.3,416.768 196.3,419.268 188.5,419.5C 189.26,424.82 189.927,430.153 190.5,435.5C 185.078,435.814 179.911,437.147 175,439.5C 172.136,436.277 169.636,432.777 167.5,429C 168.802,423.059 172.469,419.725 178.5,419C 169.929,416.707 161.596,413.873 153.5,410.5C 153.82,407.102 153.487,403.768 152.5,400.5C 149.833,399.167 147.167,397.833 144.5,396.5C 142.131,398.682 139.465,400.349 136.5,401.5C 129.055,398.611 121.722,395.445 114.5,392C 100.448,388.645 87.1148,390.311 74.5,397C 72.0038,398.331 70.0038,400.164 68.5,402.5C 64.8169,405.185 61.8169,408.518 59.5,412.5C 58.5,413.833 57.5,413.833 56.5,412.5C 48.9624,400.598 42.2957,388.098 36.5,375C 43.3998,367.209 51.7331,361.375 61.5,357.5C 77.756,349.195 94.756,347.361 112.5,352C 126.651,363.574 140.985,374.908 155.5,386C 166.971,394.032 179.638,397.699 193.5,397C 202.185,392.8 209.851,387.3 216.5,380.5C 223.5,375.167 230.5,369.833 237.5,364.5C 244.034,360.449 251.034,359.616 258.5,362C 269.078,368.549 280.078,369.216 291.5,364C 305.376,354.291 317.043,342.458 326.5,328.5C 329.596,329.547 332.596,330.88 335.5,332.5C 338.865,328.278 341.865,323.778 344.5,319C 342.407,315.649 340.74,312.149 339.5,308.5C 342.573,304.028 345.407,299.361 348,294.5C 354.225,288.135 361.725,283.969 370.5,282C 377.487,280.831 383.154,282.997 387.5,288.5 Z"/></g>
<g><path style="opacity:0.874" fill="#544820" d="M 375.5,341.5 C 382.199,344.017 388.532,347.351 394.5,351.5C 405.81,360.145 416.81,369.145 427.5,378.5C 429.477,380.814 431.477,383.147 433.5,385.5C 436.909,382.151 440.243,378.818 443.5,375.5C 449.315,380.573 455.315,385.406 461.5,390C 450.624,412.211 434.79,430.044 414,443.5C 411.257,440.346 408.757,437.012 406.5,433.5C 405.675,432.614 404.675,432.281 403.5,432.5C 405.901,431.461 408.235,430.127 410.5,428.5C 409.437,419.132 405.437,411.299 398.5,405C 395.673,403.336 392.673,402.17 389.5,401.5C 392.609,395.221 395.942,389.055 399.5,383C 396.96,378.086 394.294,373.253 391.5,368.5C 386.282,367.811 381.116,367.144 376,366.5C 374.333,366.833 372.667,367.167 371,367.5C 369.141,370.746 367.475,374.079 366,377.5C 366.008,385.567 366.841,393.567 368.5,401.5C 367.596,400.791 367.263,399.791 367.5,398.5C 359.669,399.218 352.669,401.884 346.5,406.5C 338.409,410.739 330.409,415.239 322.5,420C 318.608,421.64 314.608,422.973 310.5,424C 309.748,424.671 309.414,425.504 309.5,426.5C 307.604,419.229 304.27,418.563 299.5,424.5C 288.426,424.881 280.26,420.214 275,410.5C 270.701,402.186 266.367,393.853 262,385.5C 256.155,378.576 250.821,378.909 246,386.5C 244.361,389.742 243.361,393.076 243,396.5C 245.388,394.602 247.888,392.935 250.5,391.5C 252.697,391.848 254.53,392.848 256,394.5C 260.248,403.063 263.248,412.063 265,421.5C 267.024,426.319 269.191,430.986 271.5,435.5C 266.641,431.903 261.974,428.07 257.5,424C 252.824,420.759 248.157,420.759 243.5,424C 231.262,432.786 217.928,439.453 203.5,444C 191.369,445.139 179.369,444.472 167.5,442C 158.623,437.729 149.956,433.229 141.5,428.5C 141.66,426.801 141.494,425.134 141,423.5C 137.283,419.238 133.45,415.072 129.5,411C 128.833,410.833 128.167,410.667 127.5,410.5C 120.942,414.23 114.275,417.73 107.5,421C 106.951,423.538 106.618,426.038 106.5,428.5C 102.203,429.989 98.5365,432.489 95.5,436C 94.365,436.749 93.365,436.583 92.5,435.5C 84.7233,424.256 76.7233,413.256 68.5,402.5C 70.0038,400.164 72.0038,398.331 74.5,397C 87.1148,390.311 100.448,388.645 114.5,392C 121.722,395.445 129.055,398.611 136.5,401.5C 139.465,400.349 142.131,398.682 144.5,396.5C 147.167,397.833 149.833,399.167 152.5,400.5C 153.487,403.768 153.82,407.102 153.5,410.5C 161.596,413.873 169.929,416.707 178.5,419C 172.469,419.725 168.802,423.059 167.5,429C 169.636,432.777 172.136,436.277 175,439.5C 179.911,437.147 185.078,435.814 190.5,435.5C 189.927,430.153 189.26,424.82 188.5,419.5C 196.3,419.268 203.3,416.768 209.5,412C 220.053,398.448 230.219,384.614 240,370.5C 242.855,367.65 246.022,365.15 249.5,363C 253.514,362.495 257.181,363.495 260.5,366C 265.035,371.569 269.201,377.403 273,383.5C 279.219,390.797 287.052,395.297 296.5,397C 305.679,399.208 313.679,397.208 320.5,391C 325.466,385.523 330.799,380.69 336.5,376.5C 336.5,380.167 336.5,383.833 336.5,387.5C 342.614,387.288 348.447,385.955 354,383.5C 354.087,378.512 353.92,373.512 353.5,368.5C 349.181,369.249 344.848,369.415 340.5,369C 346.789,359.044 354.789,350.711 364.5,344C 368.014,342.438 371.681,341.605 375.5,341.5 Z"/></g>
<g><path style="opacity:0.965" fill="#564a20" d="M 107.5,366.5 C 118.61,367.959 121.61,373.792 116.5,384C 112.179,384.499 107.846,384.666 103.5,384.5C 102.662,379.835 102.162,375.169 102,370.5C 104.015,369.303 105.849,367.97 107.5,366.5 Z"/></g>
<g><path style="opacity:0.582" fill="#786432" d="M 455.5,360.5 C 451.47,365.524 447.47,370.524 443.5,375.5C 440.243,378.818 436.909,382.151 433.5,385.5C 431.477,383.147 429.477,380.814 427.5,378.5C 428.23,376.955 429.563,376.122 431.5,376C 431.043,375.586 430.709,375.086 430.5,374.5C 432.5,373.167 434.167,371.5 435.5,369.5C 434.418,369.251 433.085,369.085 431.5,369C 435.073,367.266 436.74,364.432 436.5,360.5C 431.453,360.897 426.453,359.731 421.5,357C 424.722,356.8 428.055,355.966 431.5,354.5C 432.554,354.68 433.554,355.013 434.5,355.5C 435.604,356.631 435.271,357.465 433.5,358C 435.146,359.401 436.813,359.568 438.5,358.5C 437.835,356.899 437.501,355.399 437.5,354C 438.966,353.365 440.3,352.531 441.5,351.5C 441.833,351.833 442.167,352.167 442.5,352.5C 441.758,353.287 440.925,353.953 440,354.5C 440.128,356.445 439.962,358.278 439.5,360C 441.664,358.951 444.497,358.451 448,358.5C 450.382,359.554 452.882,360.221 455.5,360.5 Z"/></g>
<g><path style="opacity:0.767" fill="#3d3319" d="M 389.5,401.5 C 388.609,402.261 387.942,403.261 387.5,404.5C 386.5,404.833 385.5,405.167 384.5,405.5C 379.131,404.139 373.798,402.806 368.5,401.5C 366.841,393.567 366.008,385.567 366,377.5C 367.475,374.079 369.141,370.746 371,367.5C 372.667,367.167 374.333,366.833 376,366.5C 381.116,367.144 386.282,367.811 391.5,368.5C 394.294,373.253 396.96,378.086 399.5,383C 395.942,389.055 392.609,395.221 389.5,401.5 Z"/></g>
<g><path style="opacity:0.819" fill="#8a7637" d="M 368.5,401.5 C 373.798,402.806 379.131,404.139 384.5,405.5C 385.5,405.167 386.5,404.833 387.5,404.5C 387.942,403.261 388.609,402.261 389.5,401.5C 392.673,402.17 395.673,403.336 398.5,405C 405.437,411.299 409.437,419.132 410.5,428.5C 408.235,430.127 405.901,431.461 403.5,432.5C 397.937,435.116 392.27,437.449 386.5,439.5C 386.137,437.089 387.137,435.589 389.5,435C 387.167,434.333 384.833,434.333 382.5,435C 380.598,436.301 378.598,436.968 376.5,437C 378.53,435.104 380.197,432.937 381.5,430.5C 384.762,434.3 386.762,433.967 387.5,429.5C 388.086,429.709 388.586,430.043 389,430.5C 389.814,428.718 390.981,427.218 392.5,426C 391.123,423.551 389.289,423.051 387,424.5C 383.07,422.746 378.903,422.579 374.5,424C 373.809,425.067 373.309,426.234 373,427.5C 370.382,426.262 367.715,426.262 365,427.5C 364.5,427.167 364,426.833 363.5,426.5C 364.325,425.614 365.325,425.281 366.5,425.5C 366.5,424.5 366.5,423.5 366.5,422.5C 367.675,422.719 368.675,422.386 369.5,421.5C 366.374,421.016 363.707,419.683 361.5,417.5C 359.471,418.629 359.137,418.129 360.5,416C 359.333,415.5 358.5,414.667 358,413.5C 356.867,415.211 355.367,415.711 353.5,415C 355.037,413.89 355.703,412.39 355.5,410.5C 353.473,410.662 351.473,410.495 349.5,410C 348.837,408.482 347.837,407.315 346.5,406.5C 352.669,401.884 359.669,399.218 367.5,398.5C 367.263,399.791 367.596,400.791 368.5,401.5 Z"/></g>
<g><path style="opacity:0.008" fill="#503d28" d="M 472.5,405.5 C 473.833,406.167 473.833,406.167 472.5,405.5 Z"/></g>
<g><path style="opacity:0.203" fill="#473222" d="M 59.5,412.5 C 61.8169,408.518 64.8169,405.185 68.5,402.5C 76.7233,413.256 84.7233,424.256 92.5,435.5C 93.365,436.583 94.365,436.749 95.5,436C 98.5365,432.489 102.203,429.989 106.5,428.5C 107.97,431.949 109.136,435.616 110,439.5C 111.771,440.304 113.271,441.471 114.5,443C 123.494,443.5 132.494,443.666 141.5,443.5C 141.5,438.5 141.5,433.5 141.5,428.5C 149.956,433.229 158.623,437.729 167.5,442C 179.369,444.472 191.369,445.139 203.5,444C 217.928,439.453 231.262,432.786 243.5,424C 248.157,420.759 252.824,420.759 257.5,424C 261.974,428.07 266.641,431.903 271.5,435.5C 277.585,440.878 284.585,444.711 292.5,447C 301.242,448.864 310.075,450.03 319,450.5C 340.097,449.567 360.931,446.734 381.5,442C 383.491,441.626 385.158,440.793 386.5,439.5C 392.27,437.449 397.937,435.116 403.5,432.5C 404.675,432.281 405.675,432.614 406.5,433.5C 408.757,437.012 411.257,440.346 414,443.5C 434.79,430.044 450.624,412.211 461.5,390C 455.315,385.406 449.315,380.573 443.5,375.5C 447.47,370.524 451.47,365.524 455.5,360.5C 457.147,357.527 459.147,354.86 461.5,352.5C 462.322,351.007 463.489,349.674 465,348.5C 465.5,348.833 466,349.167 466.5,349.5C 465.926,351.059 465.26,352.559 464.5,354C 465.167,354.333 465.833,354.667 466.5,355C 465.5,355.833 464.5,356.667 463.5,357.5C 464.311,358.216 464.978,359.05 465.5,360C 464.171,361.66 463.171,363.493 462.5,365.5C 461.675,366.386 460.675,366.719 459.5,366.5C 459.439,369.05 458.106,370.55 455.5,371C 456.667,371.5 457.5,372.333 458,373.5C 458.416,376.276 459.249,378.943 460.5,381.5C 461.908,382.243 463.241,383.077 464.5,384C 464.623,387.122 464.623,390.289 464.5,393.5C 466.993,395.248 466.827,396.914 464,398.5C 463.586,398.043 463.086,397.709 462.5,397.5C 460.884,401.316 460.551,405.15 461.5,409C 458.833,411 456.167,413 453.5,415C 453.833,415.333 454.167,415.667 454.5,416C 448.214,424.62 441.214,432.62 433.5,440C 430.553,440.112 429.22,441.612 429.5,444.5C 426.442,444.712 423.942,446.045 422,448.5C 421.309,446.109 420.309,446.109 419,448.5C 418.667,447.833 418.333,447.167 418,446.5C 416.343,447.509 414.677,448.509 413,449.5C 407.991,448.33 403.157,446.664 398.5,444.5C 396.884,445.115 395.551,446.115 394.5,447.5C 391.022,446.417 388.188,447.417 386,450.5C 385.667,449.833 385.333,449.167 385,448.5C 383.244,449.548 381.41,449.548 379.5,448.5C 377.022,450.813 374.022,452.146 370.5,452.5C 368.402,451.516 366.402,451.849 364.5,453.5C 363.914,453.291 363.414,452.957 363,452.5C 355.995,455.042 348.995,456.709 342,457.5C 340.077,456.684 338.077,456.017 336,455.5C 332.088,456.682 328.088,457.349 324,457.5C 317.976,456.442 312.143,456.442 306.5,457.5C 301.03,456.55 295.53,454.883 290,452.5C 289.667,452.833 289.333,453.167 289,453.5C 284.221,451.986 279.388,449.819 274.5,447C 267.843,439.339 259.509,434.839 249.5,433.5C 246.613,433.627 244.113,434.627 242,436.5C 241.439,435.978 240.772,435.645 240,435.5C 236.893,437.824 233.393,439.324 229.5,440C 226.465,441.701 224.132,444.035 222.5,447C 215.087,449.138 207.754,451.471 200.5,454C 192.975,454.032 185.308,454.032 177.5,454C 175.607,451.443 173.273,450.943 170.5,452.5C 164.939,450.386 159.606,447.72 154.5,444.5C 148.527,445.653 143.194,448.153 138.5,452C 125.189,455.626 113.522,452.959 103.5,444C 97.2241,443.265 91.2241,441.598 85.5,439C 79.9415,433.229 74.6082,427.229 69.5,421C 65.7924,418.868 61.7924,418.035 57.5,418.5C 58.1667,416.5 58.8333,414.5 59.5,412.5 Z"/></g>
<g><path style="opacity:0.969" fill="#383016" d="M 141.5,428.5 C 141.5,433.5 141.5,438.5 141.5,443.5C 132.494,443.666 123.494,443.5 114.5,443C 113.271,441.471 111.771,440.304 110,439.5C 109.136,435.616 107.97,431.949 106.5,428.5C 106.618,426.038 106.951,423.538 107.5,421C 114.275,417.73 120.942,414.23 127.5,410.5C 128.167,410.667 128.833,410.833 129.5,411C 133.45,415.072 137.283,419.238 141,423.5C 141.494,425.134 141.66,426.801 141.5,428.5 Z"/></g>
<g><path style="opacity:0.881" fill="#746836" d="M 221.5,404.5 C 224.167,404.5 226.833,404.5 229.5,404.5C 229.663,406.857 229.497,409.19 229,411.5C 227.013,412.218 225.179,413.218 223.5,414.5C 222.192,411.294 221.525,407.96 221.5,404.5 Z"/></g>
<g><path style="opacity:0.008" fill="#503d28" d="M 446.5,439.5 C 446.833,439.5 447.167,439.5 447.5,439.5C 447.315,440.17 446.981,440.17 446.5,439.5 Z"/></g>
<g><path style="opacity:0.958" fill="#938039" d="M 299.5,424.5 C 298.365,426.745 297.865,429.078 298,431.5C 302.08,435.367 306.08,435.367 310,431.5C 310.384,429.803 310.218,428.137 309.5,426.5C 309.414,425.504 309.748,424.671 310.5,424C 314.608,422.973 318.608,421.64 322.5,420C 330.409,415.239 338.409,410.739 346.5,406.5C 347.837,407.315 348.837,408.482 349.5,410C 351.473,410.495 353.473,410.662 355.5,410.5C 355.703,412.39 355.037,413.89 353.5,415C 355.367,415.711 356.867,415.211 358,413.5C 358.5,414.667 359.333,415.5 360.5,416C 359.137,418.129 359.471,418.629 361.5,417.5C 363.707,419.683 366.374,421.016 369.5,421.5C 368.675,422.386 367.675,422.719 366.5,422.5C 366.5,423.5 366.5,424.5 366.5,425.5C 365.325,425.281 364.325,425.614 363.5,426.5C 364,426.833 364.5,427.167 365,427.5C 367.715,426.262 370.382,426.262 373,427.5C 373.309,426.234 373.809,425.067 374.5,424C 378.903,422.579 383.07,422.746 387,424.5C 389.289,423.051 391.123,423.551 392.5,426C 390.981,427.218 389.814,428.718 389,430.5C 388.586,430.043 388.086,429.709 387.5,429.5C 386.762,433.967 384.762,434.3 381.5,430.5C 380.197,432.937 378.53,435.104 376.5,437C 378.598,436.968 380.598,436.301 382.5,435C 384.833,434.333 387.167,434.333 389.5,435C 387.137,435.589 386.137,437.089 386.5,439.5C 385.158,440.793 383.491,441.626 381.5,442C 360.931,446.734 340.097,449.567 319,450.5C 310.075,450.03 301.242,448.864 292.5,447C 284.585,444.711 277.585,440.878 271.5,435.5C 269.191,430.986 267.024,426.319 265,421.5C 263.248,412.063 260.248,403.063 256,394.5C 254.53,392.848 252.697,391.848 250.5,391.5C 247.888,392.935 245.388,394.602 243,396.5C 243.361,393.076 244.361,389.742 246,386.5C 250.821,378.909 256.155,378.576 262,385.5C 266.367,393.853 270.701,402.186 275,410.5C 280.26,420.214 288.426,424.881 299.5,424.5 Z"/></g>
<g><path style="opacity:0.896" fill="#3b3318" d="M 309.5,426.5 C 310.218,428.137 310.384,429.803 310,431.5C 306.08,435.367 302.08,435.367 298,431.5C 297.865,429.078 298.365,426.745 299.5,424.5C 304.27,418.563 307.604,419.229 309.5,426.5 Z"/></g>
<g><path style="opacity:0.008" fill="#503c28" d="M 438.5,446.5 C 439.833,447.167 439.833,447.167 438.5,446.5 Z"/></g>
</svg>
