<?xml version="1.0" encoding="UTF-8"?>
<!DOCTYPE svg PUBLIC "-//W3C//DTD SVG 1.1//EN" "http://www.w3.org/Graphics/SVG/1.1/DTD/svg11.dtd">
<svg xmlns="http://www.w3.org/2000/svg" version="1.1" width="500px" height="500px" style="shape-rendering:geometricPrecision; text-rendering:geometricPrecision; image-rendering:optimizeQuality; fill-rule:evenodd; clip-rule:evenodd" xmlns:xlink="http://www.w3.org/1999/xlink">
<g><path style="opacity:0.041" fill="#4e3927" d="M 67.5,29.5 C 76.971,29.1895 86.3044,30.1895 95.5,32.5C 108.451,29.3574 121.117,30.1907 133.5,35C 136.206,37.3706 138.539,40.0372 140.5,43C 150.733,42.7887 160.733,44.122 170.5,47C 178.952,51.6334 183.619,58.8001 184.5,68.5C 184.125,74.106 184.125,79.7727 184.5,85.5C 189.261,85.2065 193.928,84.3731 198.5,83C 202.12,78.2354 205.454,73.2354 208.5,68C 215.908,65.2976 223.574,63.9642 231.5,64C 232.5,63.5 233.5,63 234.5,62.5C 235.269,59.1282 236.935,56.2949 239.5,54C 249.243,49.2893 258.909,49.456 268.5,54.5C 270.975,58.1421 273.642,61.6421 276.5,65C 280.04,64.6083 283.54,64.4416 287,64.5C 291.056,64.9799 294.889,66.1465 298.5,68C 301.111,70.799 303.445,73.799 305.5,77C 305.929,79.0924 307.262,81.0924 309.5,83C 313.986,84.6707 318.486,85.1707 323,84.5C 323.167,83.6667 323.333,82.8333 323.5,82C 320.732,69.237 324.066,58.237 333.5,49C 335.5,48 337.5,47 339.5,46C 348.734,44.1533 358.067,42.9867 367.5,42.5C 370.726,36.5468 375.726,33.0468 382.5,32C 392.98,29.8489 403.314,30.3489 413.5,33.5C 425.76,29.0014 438.094,28.5014 450.5,32C 452.248,33.8701 454.415,35.0368 457,35.5C 458.352,38.3618 460.019,41.0285 462,43.5C 464.667,53.971 466.167,64.6377 466.5,75.5C 465.952,88.2859 465.952,100.786 466.5,113C 465.199,122.321 463.865,131.488 462.5,140.5C 458.837,187.476 447.504,231.143 428.5,271.5C 429.767,273.371 429.767,275.204 428.5,277C 432.192,284.409 435.692,291.909 439,299.5C 441.019,306.35 441.852,313.183 441.5,320C 443.389,324.299 444.889,328.799 446,333.5C 448.934,339.341 451.101,345.508 452.5,352C 451.812,356.633 450.645,361.133 449,365.5C 448.667,365.167 448.333,364.833 448,364.5C 444.958,368.331 441.125,369.998 436.5,369.5C 430.608,369.084 426.275,371.417 423.5,376.5C 424.748,380.418 427.415,382.418 431.5,382.5C 431.351,383.552 431.517,384.552 432,385.5C 435.424,386.211 436.591,388.044 435.5,391C 436.742,392.651 437.576,394.485 438,396.5C 438.224,401.224 437.724,405.891 436.5,410.5C 435.448,410.351 434.448,410.517 433.5,411C 432.167,411.667 432.167,412.333 433.5,413C 431.881,414.923 430.048,415.423 428,414.5C 423.815,416.317 419.315,417.317 414.5,417.5C 402.634,417.443 390.801,416.776 379,415.5C 377.657,416.214 376.324,415.88 375,414.5C 373.326,416.009 371.66,416.676 370,416.5C 369.647,417.672 369.813,418.838 370.5,420C 368.571,421.694 367.571,423.861 367.5,426.5C 364.611,426.946 361.944,427.946 359.5,429.5C 358.558,429.392 357.725,429.059 357,428.5C 349.852,429.138 342.686,429.972 335.5,431C 334.667,431.833 333.833,432.667 333,433.5C 330.98,442.913 328.647,452.246 326,461.5C 324.267,463.147 322.434,464.647 320.5,466C 316.532,466.234 312.698,467.067 309,468.5C 304.512,467.54 300.179,466.206 296,464.5C 295,462.833 294,461.167 293,459.5C 290.486,450.443 287.82,441.443 285,432.5C 284.097,431.299 282.931,430.465 281.5,430C 270.887,429.876 260.387,429.042 250,427.5C 244.119,429.326 237.952,430.326 231.5,430.5C 224.952,428.924 220.952,431.091 219.5,437C 217.499,445.315 215.333,453.482 213,461.5C 212.667,461.167 212.333,460.833 212,460.5C 211.535,461.931 210.701,463.097 209.5,464C 205.829,465.393 202.162,466.893 198.5,468.5C 194.28,467.089 189.947,466.256 185.5,466C 184.069,464.438 182.569,462.938 181,461.5C 178.22,454.047 176.22,446.381 175,438.5C 173.512,435.667 171.845,433.001 170,430.5C 161.667,429.833 153.333,429.167 145,428.5C 143.413,427.33 141.747,426.33 140,425.5C 139.251,423.32 138.751,420.987 138.5,418.5C 136.826,417.12 135.16,415.787 133.5,414.5C 130.331,415.959 126.998,416.792 123.5,417C 109.13,417.869 94.7966,417.536 80.5,416C 78.7536,415.529 77.087,414.862 75.5,414C 72.8487,411.02 69.8487,408.353 66.5,406C 62.701,405.765 59.3676,404.432 56.5,402C 55.6634,400.989 55.33,399.822 55.5,398.5C 53.0968,398.607 51.2635,397.607 50,395.5C 38.4012,374.168 37.4012,352.501 47,330.5C 52.9061,320.022 58.0728,309.688 62.5,299.5C 60.0918,298.547 57.9251,297.213 56,295.5C 55.6667,295.833 55.3333,296.167 55,296.5C 52.3396,295.166 49.5063,294.332 46.5,294C 43.9664,293.484 41.7998,292.317 40,290.5C 38.8746,285.349 37.7079,280.182 36.5,275C 36.6448,274.228 36.9781,273.561 37.5,273C 35.9552,268.244 34.2885,263.578 32.5,259C 33.8333,256.333 33.8333,253.667 32.5,251C 34.4595,246.91 36.7929,243.076 39.5,239.5C 40.086,239.709 40.586,240.043 41,240.5C 46.9583,236.511 53.4583,233.677 60.5,232C 61.3567,231.311 62.0233,230.478 62.5,229.5C 44.1918,171.227 38.0251,110.894 44,48.5C 45.2136,40.2885 49.7136,34.7885 57.5,32C 60.9523,31.1153 64.2856,30.282 67.5,29.5 Z"/></g>
<g><path style="opacity:0.207" fill="#473123" d="M 437.5,354.5 C 434.456,347.144 431.456,339.81 428.5,332.5C 426.5,325.833 424.5,319.167 422.5,312.5C 424.129,313.625 425.629,314.959 427,316.5C 427.167,316 427.333,315.5 427.5,315C 420.767,300.714 414.767,286.214 409.5,271.5C 411.823,268.865 413.656,265.865 415,262.5C 427.404,232.912 436.738,202.245 443,170.5C 445.409,153.143 447.576,135.809 449.5,118.5C 450.607,104.339 450.607,90.3388 449.5,76.5C 450.08,67.6689 449.247,59.0022 447,50.5C 444.806,47.8194 441.973,46.3194 438.5,46C 433.411,45.1743 428.411,45.5076 423.5,47C 422.667,47.8333 421.833,48.6667 421,49.5C 420.7,64.5014 420.867,79.5014 421.5,94.5C 421.813,97.2469 421.48,99.9135 420.5,102.5C 417.22,104.283 414.72,103.617 413,100.5C 412.233,83.7297 410.566,67.0631 408,50.5C 400.1,45.5448 391.933,45.2115 383.5,49.5C 382.416,50.6651 381.583,51.9984 381,53.5C 381.393,69.2098 382.56,84.8765 384.5,100.5C 384.471,102.029 383.804,103.196 382.5,104C 380.167,104.667 377.833,104.667 375.5,104C 373.026,91.681 371.192,79.181 370,66.5C 367.422,61.0423 363.088,58.7089 357,59.5C 345.977,59.3636 339.81,64.6969 338.5,75.5C 341.243,86.7142 343.409,98.0475 345,109.5C 345.5,117.159 345.666,124.826 345.5,132.5C 345.5,135.833 345.5,139.167 345.5,142.5C 344.517,146.298 344.183,150.298 344.5,154.5C 344.672,155.492 344.338,156.158 343.5,156.5C 343.663,154.143 343.497,151.81 343,149.5C 342.65,152.722 341.316,155.388 339,157.5C 336.119,159.028 333.786,158.362 332,155.5C 331.821,152.447 331.321,149.447 330.5,146.5C 329.832,149.306 329.166,151.972 328.5,154.5C 328.5,151.167 328.5,147.833 328.5,144.5C 321.891,146.554 315.725,149.554 310,153.5C 306.115,142.007 301.948,130.674 297.5,119.5C 296.998,118.479 296.332,118.312 295.5,119C 292.712,120.719 290.379,122.885 288.5,125.5C 284.536,128.963 280.702,132.63 277,136.5C 269.399,125.618 261.566,114.951 253.5,104.5C 246.175,113.816 239.342,123.482 233,133.5C 232.261,134.574 231.261,135.241 230,135.5C 228.357,134.685 226.857,133.685 225.5,132.5C 221.188,127.521 216.521,122.854 211.5,118.5C 206.061,129.383 201.728,140.716 198.5,152.5C 191.774,150.304 185.441,147.304 179.5,143.5C 178.707,150.141 178.707,156.808 179.5,163.5C 177.668,162.752 176.001,161.752 174.5,160.5C 174.44,159.957 174.107,159.624 173.5,159.5C 173.037,162.583 171.871,165.249 170,167.5C 166.903,166.711 166.736,165.544 169.5,164C 167.652,162.482 166.152,160.649 165,158.5C 164.505,160.473 164.338,162.473 164.5,164.5C 164.167,164.5 163.833,164.5 163.5,164.5C 163.821,159.305 163.487,154.305 162.5,149.5C 162.5,147.167 162.5,144.833 162.5,142.5C 162.5,138.833 162.5,135.167 162.5,131.5C 162.334,123.493 162.5,115.493 163,107.5C 164.275,96.1279 166.441,84.9613 169.5,74C 168.315,66.479 163.981,61.8124 156.5,60C 150.836,58.8412 145.502,59.5079 140.5,62C 138.396,64.0424 137.229,66.5424 137,69.5C 135.864,80.5256 134.531,91.5256 133,102.5C 130.53,104.487 127.697,104.987 124.5,104C 123.309,94.4883 123.809,84.9883 126,75.5C 126.667,67.8333 126.667,60.1667 126,52.5C 124.474,49.4216 121.974,47.5883 118.5,47C 113.833,46.3333 109.167,46.3333 104.5,47C 102.376,48.1217 100.543,49.6217 99,51.5C 96.8905,68.1534 95.2238,84.8201 94,101.5C 91.9251,103.648 89.5918,103.982 87,102.5C 86.6982,84.7807 86.5316,67.114 86.5,49.5C 82.9939,46.2763 78.8272,44.9429 74,45.5C 62.5733,45.3205 57.24,50.9871 58,62.5C 57.1712,81.3379 57.3378,100.005 58.5,118.5C 58.3646,123.95 59.0313,129.284 60.5,134.5C 60.5,136.833 60.5,139.167 60.5,141.5C 65.0021,176.336 73.0021,210.336 84.5,243.5C 84.3764,244.107 84.0431,244.44 83.5,244.5C 72.1771,245.501 61.5105,248.501 51.5,253.5C 50.5,253.5 49.5,253.5 48.5,253.5C 49.6871,252.466 50.5204,251.133 51,249.5C 57.7661,244.322 64.9327,239.989 72.5,236.5C 73.4379,233.911 73.7712,231.411 73.5,229C 69.4882,225.142 68.1549,220.809 69.5,216C 67.9861,214.561 67.6527,213.061 68.5,211.5C 67.2574,208.018 65.7574,204.684 64,201.5C 63.4054,200.101 63.5721,198.768 64.5,197.5C 63.9747,196.808 63.3081,196.308 62.5,196C 61.447,190.646 59.7804,185.146 57.5,179.5C 57.9572,175.264 57.2905,171.097 55.5,167C 55.4482,164.902 55.7815,162.736 56.5,160.5C 55.8333,159.167 55.1667,157.833 54.5,156.5C 53.8294,152.497 53.8294,148.664 54.5,145C 52.4034,139.772 51.7367,134.438 52.5,129C 50.7554,126.846 50.7554,124.346 52.5,121.5C 50.5522,116.25 49.5522,110.75 49.5,105C 50.2991,100.486 50.6325,95.9863 50.5,91.5C 48.9535,89.0674 47.9535,86.4007 47.5,83.5C 47.4371,81.5191 48.1038,79.8524 49.5,78.5C 49.1112,69.4634 50.2778,60.4634 53,51.5C 58.0541,41.7058 66.0541,37.3724 77,38.5C 82.8246,39.8798 88.3246,41.8798 93.5,44.5C 99.6275,42.6861 105.794,41.0195 112,39.5C 116.43,39.7849 120.597,40.9515 124.5,43C 128.605,46.1936 132.272,49.8603 135.5,54C 137.218,54.346 138.885,54.846 140.5,55.5C 143.662,53.2786 147.162,51.9453 151,51.5C 166.265,50.7722 174.765,57.9389 176.5,73C 175.87,74.892 174.87,76.5587 173.5,78C 174.167,78.6667 174.833,79.3333 175.5,80C 175.377,82.4558 175.377,84.9558 175.5,87.5C 174.387,90.4915 173.054,93.3249 171.5,96C 172.022,96.5613 172.355,97.228 172.5,98C 171.923,101.056 171.257,104.056 170.5,107C 170.648,111.112 170.648,115.279 170.5,119.5C 170.728,121.397 171.728,122.73 173.5,123.5C 177.452,118.799 180.952,113.799 184,108.5C 184.617,107.551 184.451,106.718 183.5,106C 185.123,103.92 186.623,101.754 188,99.5C 193.824,95.0105 199.99,91.1772 206.5,88C 209.957,85.7183 211.957,82.5516 212.5,78.5C 214.316,77.1851 215.983,75.6851 217.5,74C 224.24,73.0588 230.907,71.7255 237.5,70C 241.159,65.8444 245.492,62.6777 250.5,60.5C 252.371,61.767 254.204,61.767 256,60.5C 260.182,61.5027 263.348,63.836 265.5,67.5C 271.444,71.591 278.111,73.591 285.5,73.5C 286.994,73.7092 288.161,74.3759 289,75.5C 290.073,74.7203 291.24,74.887 292.5,76C 291.137,78.1293 291.471,78.6293 293.5,77.5C 294.324,80.6631 296.324,82.3298 299.5,82.5C 300.707,88.5488 304.374,92.2154 310.5,93.5C 313.801,95.6321 316.968,97.9655 320,100.5C 323.093,106.334 325.759,112 328,117.5C 330.185,119.54 332.685,120.874 335.5,121.5C 335.27,118.306 335.936,115.306 337.5,112.5C 335.079,102.129 333.079,91.6294 331.5,81C 332.054,79.4495 332.72,77.9495 333.5,76.5C 333.182,75.3527 332.516,74.5194 331.5,74C 332.506,68.2625 335.34,63.7625 340,60.5C 341.23,55.9358 344.063,54.2691 348.5,55.5C 351.102,54.2525 353.602,52.9192 356,51.5C 360.673,53.2346 365.173,54.568 369.5,55.5C 370.795,54.9017 372.128,54.4017 373.5,54C 377.54,50.6823 380.54,47.0156 382.5,43C 387.365,41.885 392.198,40.7183 397,39.5C 398.967,39.5419 400.801,40.0419 402.5,41C 405.431,43.5295 408.597,45.6962 412,47.5C 417.951,45.3537 423.117,42.0204 427.5,37.5C 432.113,37.6055 436.78,37.7722 441.5,38C 444.125,40.4602 447.125,42.2936 450.5,43.5C 454.581,46.5013 456.581,50.3346 456.5,55C 456.241,56.2613 455.574,57.2613 454.5,58C 455.449,58.6172 456.282,58.4506 457,57.5C 458.552,59.7682 459.385,62.2682 459.5,65C 459.639,74.041 459.306,82.8743 458.5,91.5C 459.167,92.1667 459.833,92.8333 460.5,93.5C 458.036,96.0738 458.036,98.7405 460.5,101.5C 458.921,101.828 458.254,103.328 458.5,106C 459.743,113.67 459.077,121.337 456.5,129C 457.122,134.022 457.122,139.188 456.5,144.5C 456.081,145.672 455.415,146.672 454.5,147.5C 454.477,150.353 454.81,152.853 455.5,155C 454.707,156.085 454.04,157.252 453.5,158.5C 453.5,160.833 453.5,163.167 453.5,165.5C 450.036,169.702 448.703,174.369 449.5,179.5C 447.105,186.973 444.771,194.473 442.5,202C 443.167,205.815 442.167,209.315 439.5,212.5C 440.97,214.482 440.636,216.148 438.5,217.5C 438.709,218.086 439.043,218.586 439.5,219C 437.536,221.518 436.87,224.184 437.5,227C 436.874,227.75 436.374,228.584 436,229.5C 435.667,229.167 435.333,228.833 435,228.5C 434.891,232.921 433.391,236.754 430.5,240C 430.833,240.333 431.167,240.667 431.5,241C 428.132,251.454 424.132,261.788 419.5,272C 420.167,273.333 420.833,274.667 421.5,276C 419.955,277.641 420.289,278.807 422.5,279.5C 423.548,284.759 425.548,289.592 428.5,294C 429.09,298.486 429.09,303.152 428.5,308C 431.711,312.613 433.045,317.613 432.5,323C 433.595,324.675 435.095,325.842 437,326.5C 438.357,331.451 439.524,336.451 440.5,341.5C 440.818,342.647 441.484,343.481 442.5,344C 441.859,348.14 440.193,351.64 437.5,354.5 Z"/></g>
<g><path style="opacity:0.871" fill="#a4aca9" d="M 449.5,76.5 C 449.751,79.909 449.417,83.2423 448.5,86.5C 448.167,86.8333 447.833,87.1667 447.5,87.5C 446.15,86.0499 444.484,85.3832 442.5,85.5C 442.5,84.5 442.5,83.5 442.5,82.5C 442.876,73.7646 442.376,65.0979 441,56.5C 436.72,52.9852 432.22,52.6518 427.5,55.5C 426.365,63.4508 426.198,71.4508 427,79.5C 427.929,84.9761 429.096,90.3094 430.5,95.5C 429.71,94.3915 429.21,93.0581 429,91.5C 426.381,92.2808 423.881,93.2808 421.5,94.5C 420.867,79.5014 420.7,64.5014 421,49.5C 421.833,48.6667 422.667,47.8333 423.5,47C 428.411,45.5076 433.411,45.1743 438.5,46C 441.973,46.3194 444.806,47.8194 447,50.5C 449.247,59.0022 450.08,67.6689 449.5,76.5 Z"/></g>
<g><path style="opacity:0.979" fill="#b0bcbb" d="M 162.5,131.5 C 160.983,131.489 159.816,130.823 159,129.5C 156.667,126.5 154.333,123.5 152,120.5C 151.602,114.144 151.935,107.811 153,101.5C 155.324,100.193 156.657,98.1927 157,95.5C 158.005,88.9707 159.172,82.4707 160.5,76C 158.408,69.7837 154.075,67.4504 147.5,69C 146.107,70.1711 145.273,71.6711 145,73.5C 143.805,79.6097 142.972,85.7764 142.5,92C 142.446,94.8551 143.112,97.5218 144.5,100C 143.471,106.123 142.804,112.289 142.5,118.5C 137.67,122.497 133.336,126.997 129.5,132C 128.833,132.667 128.167,132.667 127.5,132C 123.367,125.567 118.867,119.401 114,113.5C 113.501,109.848 113.335,106.182 113.5,102.5C 113.335,99.4816 113.502,96.4816 114,93.5C 115.74,92.2842 116.74,90.6175 117,88.5C 117.636,80.4778 118.469,72.4778 119.5,64.5C 119.373,61.6127 118.373,59.1127 116.5,57C 113.167,56.3333 109.833,56.3333 106.5,57C 105.671,58.8161 104.837,60.6494 104,62.5C 103.417,68.9937 102.917,75.4937 102.5,82C 104.598,91.7431 104.931,101.576 103.5,111.5C 97.9054,115.59 92.7387,120.256 88,125.5C 84.2717,118.975 80.4384,112.642 76.5,106.5C 76.4424,98.6224 77.6091,90.9557 80,83.5C 80.6667,74.1667 80.6667,64.8333 80,55.5C 76.4054,53.5441 72.572,53.0441 68.5,54C 67.2986,54.9025 66.4652,56.0692 66,57.5C 65.3333,67.5 65.3333,77.5 66,87.5C 68.0412,90.9834 68.8745,94.8167 68.5,99C 68.4583,102.251 68.125,105.417 67.5,108.5C 64.5,111.833 61.5,115.167 58.5,118.5C 57.3378,100.005 57.1712,81.3379 58,62.5C 57.24,50.9871 62.5733,45.3205 74,45.5C 78.8272,44.9429 82.9939,46.2763 86.5,49.5C 86.5316,67.114 86.6982,84.7807 87,102.5C 89.5918,103.982 91.9251,103.648 94,101.5C 95.2238,84.8201 96.8905,68.1534 99,51.5C 100.543,49.6217 102.376,48.1217 104.5,47C 109.167,46.3333 113.833,46.3333 118.5,47C 121.974,47.5883 124.474,49.4216 126,52.5C 126.667,60.1667 126.667,67.8333 126,75.5C 123.809,84.9883 123.309,94.4883 124.5,104C 127.697,104.987 130.53,104.487 133,102.5C 134.531,91.5256 135.864,80.5256 137,69.5C 137.229,66.5424 138.396,64.0424 140.5,62C 145.502,59.5079 150.836,58.8412 156.5,60C 163.981,61.8124 168.315,66.479 169.5,74C 166.441,84.9613 164.275,96.1279 163,107.5C 162.5,115.493 162.334,123.493 162.5,131.5 Z"/></g>
<g><path style="opacity:0.947" fill="#9c686f" d="M 162.5,131.5 C 162.5,135.167 162.5,138.833 162.5,142.5C 158.869,139.371 155.369,136.037 152,132.5C 150.684,135.688 150.184,139.022 150.5,142.5C 150.5,149.833 150.5,157.167 150.5,164.5C 147.167,164.167 143.833,163.833 140.5,163.5C 140.5,156.167 140.5,148.833 140.5,141.5C 140.5,138.833 140.5,136.167 140.5,133.5C 141.327,128.654 141.994,123.654 142.5,118.5C 142.804,112.289 143.471,106.123 144.5,100C 143.112,97.5218 142.446,94.8551 142.5,92C 142.972,85.7764 143.805,79.6097 145,73.5C 145.273,71.6711 146.107,70.1711 147.5,69C 154.075,67.4504 158.408,69.7837 160.5,76C 159.172,82.4707 158.005,88.9707 157,95.5C 156.657,98.1927 155.324,100.193 153,101.5C 151.935,107.811 151.602,114.144 152,120.5C 154.333,123.5 156.667,126.5 159,129.5C 159.816,130.823 160.983,131.489 162.5,131.5 Z"/></g>
<g><path style="opacity:0.946" fill="#99636a" d="M 113.5,102.5 C 112.736,110.021 112.069,117.688 111.5,125.5C 111.5,129.833 111.5,134.167 111.5,138.5C 111.5,146.167 111.5,153.833 111.5,161.5C 108.167,161.5 104.833,161.5 101.5,161.5C 101.5,153.833 101.5,146.167 101.5,138.5C 102.403,135.609 102.736,132.609 102.5,129.5C 103.49,123.69 103.823,117.69 103.5,111.5C 104.931,101.576 104.598,91.7431 102.5,82C 102.917,75.4937 103.417,68.9937 104,62.5C 104.837,60.6494 105.671,58.8161 106.5,57C 109.833,56.3333 113.167,56.3333 116.5,57C 118.373,59.1127 119.373,61.6127 119.5,64.5C 118.469,72.4778 117.636,80.4778 117,88.5C 116.74,90.6175 115.74,92.2842 114,93.5C 113.502,96.4816 113.335,99.4816 113.5,102.5 Z"/></g>
<g><path style="opacity:0.958" fill="#c7b8a9" d="M 110.5,61.5 C 112.849,61.4583 114.182,62.6249 114.5,65C 113.843,72.1802 113.01,79.3469 112,86.5C 111.047,88.5922 109.714,88.9255 108,87.5C 107.406,78.6225 108.239,69.9558 110.5,61.5 Z"/></g>
<g><path style="opacity:0.963" fill="#c7b9a9" d="M 153.5,74.5 C 154.152,75.4486 154.486,76.6153 154.5,78C 153.133,83.7723 152.133,89.6056 151.5,95.5C 148.757,95.9228 147.424,94.7561 147.5,92C 148.146,88.1875 148.646,84.3542 149,80.5C 149.979,78.0324 151.479,76.0324 153.5,74.5 Z"/></g>
<g><path style="opacity:0.639" fill="#8d8c84" d="M 449.5,76.5 C 450.607,90.3388 450.607,104.339 449.5,118.5C 446.25,114.975 443.25,111.308 440.5,107.5C 443.524,108.722 446.191,108.055 448.5,105.5C 449.489,101.893 449.823,98.226 449.5,94.5C 445.338,94.5931 442.338,92.9264 440.5,89.5C 441.065,87.0479 441.732,84.7146 442.5,82.5C 442.5,83.5 442.5,84.5 442.5,85.5C 444.484,85.3832 446.15,86.0499 447.5,87.5C 447.833,87.1667 448.167,86.8333 448.5,86.5C 449.417,83.2423 449.751,79.909 449.5,76.5 Z"/></g>
<g><path style="opacity:0.757" fill="#a4aca8" d="M 440.5,89.5 C 442.338,92.9264 445.338,94.5931 449.5,94.5C 449.823,98.226 449.489,101.893 448.5,105.5C 446.191,108.055 443.524,108.722 440.5,107.5C 440.5,106.833 440.167,106.5 439.5,106.5C 439.214,100.741 439.548,95.0748 440.5,89.5 Z"/></g>
<g><path style="opacity:0.926" fill="#b06434" d="M 252.5,64.5 C 254.017,64.5106 255.184,65.1772 256,66.5C 259.708,72.7506 263.541,78.9173 267.5,85C 272.733,84.2261 277.733,82.5594 282.5,80C 283.833,79.3333 285.167,79.3333 286.5,80C 290.732,86.7236 294.732,93.557 298.5,100.5C 302.605,101.149 306.605,100.483 310.5,98.5C 311.167,98.8333 311.833,99.1667 312.5,99.5C 317.363,110.726 322.363,121.892 327.5,133C 323.547,137.956 319.214,142.622 314.5,147C 313.551,147.617 312.718,147.451 312,146.5C 306.667,135.167 301.333,123.833 296,112.5C 289.989,119.343 283.822,126.01 277.5,132.5C 269.853,121.527 261.853,110.86 253.5,100.5C 245.86,111.307 238.026,121.974 230,132.5C 224,125.833 218,119.167 212,112.5C 205.804,124.227 200.137,136.227 195,148.5C 190.333,143.833 185.667,139.167 181,134.5C 180.333,132.833 180.333,131.167 181,129.5C 185.885,119 191.052,108.667 196.5,98.5C 200.361,100.28 204.361,101.113 208.5,101C 212.878,94.4131 216.878,87.5797 220.5,80.5C 221.167,80.1667 221.833,79.8333 222.5,79.5C 228.148,81.0728 233.648,83.0728 239,85.5C 244.117,78.8859 248.617,71.8859 252.5,64.5 Z"/></g>
<g><path style="opacity:0.849" fill="#925f63" d="M 442.5,82.5 C 441.732,84.7146 441.065,87.0479 440.5,89.5C 439.548,95.0748 439.214,100.741 439.5,106.5C 442.332,140.213 436.498,172.213 422,202.5C 417.218,211.088 411.718,219.088 405.5,226.5C 405.168,220.321 405.168,213.988 405.5,207.5C 415.837,194.154 423.004,179.154 427,162.5C 428.619,154.153 429.785,145.486 430.5,136.5C 430.5,133.167 430.5,129.833 430.5,126.5C 430.756,124.208 430.423,122.041 429.5,120C 432.028,118.684 432.028,117.517 429.5,116.5C 427.995,119.131 427.329,118.797 427.5,115.5C 428.5,115.5 429.5,115.5 430.5,115.5C 430.5,113.167 430.5,110.833 430.5,108.5C 430.5,104.167 430.5,99.8333 430.5,95.5C 429.096,90.3094 427.929,84.9761 427,79.5C 426.198,71.4508 426.365,63.4508 427.5,55.5C 432.22,52.6518 436.72,52.9852 441,56.5C 442.376,65.0979 442.876,73.7646 442.5,82.5 Z"/></g>
<g><path style="opacity:0.749" fill="#b2a292" d="M 431.5,58.5 C 435.375,57.8742 437.209,59.5408 437,63.5C 437.667,70.1667 437.667,76.8333 437,83.5C 436.019,86.6887 434.686,87.022 433,84.5C 431.855,75.8701 431.355,67.2034 431.5,58.5 Z"/></g>
<g><path style="opacity:0.931" fill="#acb6b4" d="M 421.5,94.5 C 423.881,93.2808 426.381,92.2808 429,91.5C 429.21,93.0581 429.71,94.3915 430.5,95.5C 430.5,99.8333 430.5,104.167 430.5,108.5C 428.326,111.63 426.326,114.963 424.5,118.5C 423.624,119.251 422.624,119.751 421.5,120C 422.423,122.048 421.923,123.881 420,125.5C 414.929,119.924 409.429,114.924 403.5,110.5C 403.17,100.419 403.837,90.4188 405.5,80.5C 405.076,74.1112 404.243,67.7779 403,61.5C 402.727,59.6711 401.893,58.1711 400.5,57C 391.845,54.4989 387.845,57.6656 388.5,66.5C 389.782,82.3899 391.782,98.0566 394.5,113.5C 389.495,119.516 384.829,125.85 380.5,132.5C 375.433,127.762 370.433,123.095 365.5,118.5C 364.834,112.843 364.168,107.177 363.5,101.5C 365.016,91.4047 364.516,81.4047 362,71.5C 357.042,67.2852 352.375,67.6185 348,72.5C 347.665,83.8298 349.998,94.4965 355,104.5C 358.304,116.243 355.137,125.576 345.5,132.5C 345.666,124.826 345.5,117.159 345,109.5C 343.409,98.0475 341.243,86.7142 338.5,75.5C 339.81,64.6969 345.977,59.3636 357,59.5C 363.088,58.7089 367.422,61.0423 370,66.5C 371.192,79.181 373.026,91.681 375.5,104C 377.833,104.667 380.167,104.667 382.5,104C 383.804,103.196 384.471,102.029 384.5,100.5C 382.56,84.8765 381.393,69.2098 381,53.5C 381.583,51.9984 382.416,50.6651 383.5,49.5C 391.933,45.2115 400.1,45.5448 408,50.5C 410.566,67.0631 412.233,83.7297 413,100.5C 414.72,103.617 417.22,104.283 420.5,102.5C 421.48,99.9135 421.813,97.2469 421.5,94.5 Z"/></g>
<g><path style="opacity:0.932" fill="#956166" d="M 403.5,110.5 C 404.098,115.813 404.431,121.146 404.5,126.5C 405.272,130.452 405.605,134.452 405.5,138.5C 405.802,148.745 406.468,158.912 407.5,169C 406.868,172.27 406.201,175.437 405.5,178.5C 405.5,172.833 405.5,167.167 405.5,161.5C 398.183,162.118 390.849,162.451 383.5,162.5C 387.684,161.834 392.018,161.167 396.5,160.5C 395.535,153.224 395.201,145.891 395.5,138.5C 395.5,134.5 395.5,130.5 395.5,126.5C 395.818,121.968 395.485,117.634 394.5,113.5C 391.782,98.0566 389.782,82.3899 388.5,66.5C 387.845,57.6656 391.845,54.4989 400.5,57C 401.893,58.1711 402.727,59.6711 403,61.5C 404.243,67.7779 405.076,74.1112 405.5,80.5C 403.837,90.4188 403.17,100.419 403.5,110.5 Z"/></g>
<g><path style="opacity:0.942" fill="#bdaea0" d="M 393.5,61.5 C 395.144,61.2865 396.644,61.6198 398,62.5C 399.029,68.4765 399.862,74.4765 400.5,80.5C 400.441,82.8912 400.107,85.2246 399.5,87.5C 398.311,88.4287 396.978,88.762 395.5,88.5C 394.393,79.5354 393.726,70.5354 393.5,61.5 Z"/></g>
<g><path style="opacity:0.956" fill="#a97d8d" d="M 76.5,106.5 C 80.4384,112.642 84.2717,118.975 88,125.5C 92.7387,120.256 97.9054,115.59 103.5,111.5C 103.823,117.69 103.49,123.69 102.5,129.5C 102.631,128.624 102.298,127.957 101.5,127.5C 97.5,130.5 93.5,133.5 89.5,136.5C 84.7952,132.96 80.9619,128.627 78,123.5C 77.51,124.793 77.3433,126.127 77.5,127.5C 76.5088,120.687 76.1755,113.687 76.5,106.5 Z"/></g>
<g><path style="opacity:0.951" fill="#a77c8a" d="M 67.5,108.5 C 68.0259,114.202 68.3592,119.868 68.5,125.5C 65.8333,128.5 63.1667,131.5 60.5,134.5C 59.0313,129.284 58.3646,123.95 58.5,118.5C 61.5,115.167 64.5,111.833 67.5,108.5 Z"/></g>
<g><path style="opacity:0.939" fill="#98656b" d="M 365.5,118.5 C 365.505,122.534 365.838,126.534 366.5,130.5C 367.244,134.119 367.577,137.785 367.5,141.5C 366.87,149.243 367.537,156.576 369.5,163.5C 365.702,164.483 361.702,164.817 357.5,164.5C 357.5,157.167 357.5,149.833 357.5,142.5C 357.816,139.022 357.316,135.688 356,132.5C 353.143,136.586 349.643,139.919 345.5,142.5C 345.5,139.167 345.5,135.833 345.5,132.5C 355.137,125.576 358.304,116.243 355,104.5C 349.998,94.4965 347.665,83.8298 348,72.5C 352.375,67.6185 357.042,67.2852 362,71.5C 364.516,81.4047 365.016,91.4047 363.5,101.5C 364.168,107.177 364.834,112.843 365.5,118.5 Z"/></g>
<g><path style="opacity:0.755" fill="#baaa9c" d="M 353.5,74.5 C 354.833,74.5 356.167,74.5 357.5,74.5C 358.274,79.4762 358.94,84.4762 359.5,89.5C 359.167,91.1667 358.833,92.8333 358.5,94.5C 357.833,94.8333 357.167,95.1667 356.5,95.5C 354.475,88.6575 353.475,81.6575 353.5,74.5 Z"/></g>
<g><path style="opacity:0.825" fill="#a17784" d="M 430.5,108.5 C 430.5,110.833 430.5,113.167 430.5,115.5C 429.5,115.5 428.5,115.5 427.5,115.5C 427.329,118.797 427.995,119.131 429.5,116.5C 432.028,117.517 432.028,118.684 429.5,120C 430.423,122.041 430.756,124.208 430.5,126.5C 426.348,127.581 423.348,130.081 421.5,134C 419.5,134.667 417.5,134.667 415.5,134C 412.122,130.985 408.456,128.485 404.5,126.5C 404.431,121.146 404.098,115.813 403.5,110.5C 409.429,114.924 414.929,119.924 420,125.5C 421.923,123.881 422.423,122.048 421.5,120C 422.624,119.751 423.624,119.251 424.5,118.5C 426.326,114.963 428.326,111.63 430.5,108.5 Z"/></g>
<g><path style="opacity:0.942" fill="#aa7e8e" d="M 113.5,102.5 C 113.335,106.182 113.501,109.848 114,113.5C 118.867,119.401 123.367,125.567 127.5,132C 128.167,132.667 128.833,132.667 129.5,132C 133.336,126.997 137.67,122.497 142.5,118.5C 141.994,123.654 141.327,128.654 140.5,133.5C 140.631,132.761 140.464,132.094 140,131.5C 135.667,135.167 131.333,138.833 127,142.5C 121.967,136.638 116.801,130.971 111.5,125.5C 112.069,117.688 112.736,110.021 113.5,102.5 Z"/></g>
<g><path style="opacity:0.946" fill="#a87d8c" d="M 394.5,113.5 C 395.485,117.634 395.818,121.968 395.5,126.5C 390.665,131.358 385.998,136.692 381.5,142.5C 376.168,138.826 371.168,134.826 366.5,130.5C 365.838,126.534 365.505,122.534 365.5,118.5C 370.433,123.095 375.433,127.762 380.5,132.5C 384.829,125.85 389.495,119.516 394.5,113.5 Z"/></g>
<g><path style="opacity:0.976" fill="#bd9e9d" d="M 68.5,125.5 C 68.5,129.833 68.5,134.167 68.5,138.5C 66.5168,139.706 64.5168,141.039 62.5,142.5C 61.8165,142.137 61.1499,141.804 60.5,141.5C 60.5,139.167 60.5,136.833 60.5,134.5C 63.1667,131.5 65.8333,128.5 68.5,125.5 Z"/></g>
<g><path style="opacity:0.97" fill="#bfa1a0" d="M 162.5,142.5 C 162.5,144.833 162.5,147.167 162.5,149.5C 162.649,150.552 162.483,151.552 162,152.5C 158.565,148.555 154.732,145.222 150.5,142.5C 150.184,139.022 150.684,135.688 152,132.5C 155.369,136.037 158.869,139.371 162.5,142.5 Z"/></g>
<g><path style="opacity:0.784" fill="#af928e" d="M 404.5,126.5 C 408.456,128.485 412.122,130.985 415.5,134C 417.5,134.667 419.5,134.667 421.5,134C 423.348,130.081 426.348,127.581 430.5,126.5C 430.5,129.833 430.5,133.167 430.5,136.5C 427.036,139.462 423.703,142.629 420.5,146C 418.833,146.667 417.167,146.667 415.5,146C 413.112,142.095 409.778,139.595 405.5,138.5C 405.605,134.452 405.272,130.452 404.5,126.5 Z"/></g>
<g><path style="opacity:0.978" fill="#bfa1a0" d="M 395.5,126.5 C 395.5,130.5 395.5,134.5 395.5,138.5C 393.66,140.168 391.66,141.668 389.5,143C 387.18,146.485 384.513,149.651 381.5,152.5C 376.796,148.786 372.129,145.119 367.5,141.5C 367.577,137.785 367.244,134.119 366.5,130.5C 371.168,134.826 376.168,138.826 381.5,142.5C 385.998,136.692 390.665,131.358 395.5,126.5 Z"/></g>
<g><path style="opacity:0.935" fill="#bb9c9b" d="M 357.5,142.5 C 352.56,145.77 348.227,149.77 344.5,154.5C 344.183,150.298 344.517,146.298 345.5,142.5C 349.643,139.919 353.143,136.586 356,132.5C 357.316,135.688 357.816,139.022 357.5,142.5 Z"/></g>
<g><path style="opacity:0.932" fill="#bfa09f" d="M 102.5,129.5 C 102.736,132.609 102.403,135.609 101.5,138.5C 97.2217,141.44 93.2217,144.773 89.5,148.5C 85.9211,143.94 81.9211,139.94 77.5,136.5C 77.5,133.5 77.5,130.5 77.5,127.5C 77.3433,126.127 77.51,124.793 78,123.5C 80.9619,128.627 84.7952,132.96 89.5,136.5C 93.5,133.5 97.5,130.5 101.5,127.5C 102.298,127.957 102.631,128.624 102.5,129.5 Z"/></g>
<g><path style="opacity:0.979" fill="#bfa1a0" d="M 111.5,125.5 C 116.801,130.971 121.967,136.638 127,142.5C 131.333,138.833 135.667,135.167 140,131.5C 140.464,132.094 140.631,132.761 140.5,133.5C 140.5,136.167 140.5,138.833 140.5,141.5C 135.939,145.039 131.439,148.705 127,152.5C 122.241,147.234 117.075,142.567 111.5,138.5C 111.5,134.167 111.5,129.833 111.5,125.5 Z"/></g>
<g><path style="opacity:0.977" fill="#aa7d8d" d="M 150.5,142.5 C 154.732,145.222 158.565,148.555 162,152.5C 162.483,151.552 162.649,150.552 162.5,149.5C 163.487,154.305 163.821,159.305 163.5,164.5C 159.313,165.662 154.98,165.662 150.5,164.5C 150.5,157.167 150.5,149.833 150.5,142.5 Z"/></g>
<g><path style="opacity:0.956" fill="#aa7d8d" d="M 111.5,138.5 C 117.075,142.567 122.241,147.234 127,152.5C 131.439,148.705 135.939,145.039 140.5,141.5C 140.5,148.833 140.5,156.167 140.5,163.5C 130.789,163.421 121.122,162.754 111.5,161.5C 111.5,153.833 111.5,146.167 111.5,138.5 Z"/></g>
<g><path style="opacity:0.976" fill="#a97c8c" d="M 357.5,142.5 C 357.5,149.833 357.5,157.167 357.5,164.5C 352.833,164.833 348.167,165.167 343.5,165.5C 343.5,162.5 343.5,159.5 343.5,156.5C 344.338,156.158 344.672,155.492 344.5,154.5C 348.227,149.77 352.56,145.77 357.5,142.5 Z"/></g>
<g><path style="opacity:0.99" fill="#bd8d2b" d="M 225.5,132.5 C 223.468,132.522 221.302,132.855 219,133.5C 217.023,129.914 214.856,129.747 212.5,133C 216.272,133.611 216.272,134.611 212.5,136C 217.368,138.496 217.368,140.329 212.5,141.5C 214.131,143.297 216.131,144.464 218.5,145C 217.5,145.833 216.5,146.667 215.5,147.5C 218.107,148.318 220.774,148.818 223.5,149C 222.112,149.889 222.278,150.389 224,150.5C 226.182,148.244 228.515,148.244 231,150.5C 232.619,149.917 234.452,149.917 236.5,150.5C 237.5,148.833 238.833,147.5 240.5,146.5C 240.833,146.833 241.167,147.167 241.5,147.5C 238.531,148.668 238.198,150.001 240.5,151.5C 239.711,153.488 238.545,153.821 237,152.5C 235.532,154.816 233.699,155.149 231.5,153.5C 227.303,153.99 226.636,155.657 229.5,158.5C 230.243,157.092 231.077,155.759 232,154.5C 232.677,156.689 233.844,157.022 235.5,155.5C 236.696,155.846 236.696,156.346 235.5,157C 241.183,157.241 241.516,159.241 236.5,163C 238.167,163.333 239.833,163.667 241.5,164C 241.043,164.414 240.709,164.914 240.5,165.5C 245.558,166.109 249.224,168.609 251.5,173C 250.327,176.11 250.827,176.277 253,173.5C 253.519,174.516 254.353,175.182 255.5,175.5C 259.411,175.308 263.411,175.141 267.5,175C 270.88,173.629 273.713,171.462 276,168.5C 276.711,170.367 276.211,171.867 274.5,173C 276.435,174.895 278.102,174.562 279.5,172C 282.117,171.178 284.784,170.678 287.5,170.5C 288.82,171.942 290.486,172.608 292.5,172.5C 294.492,164.51 296.492,156.51 298.5,148.5C 298.167,147.833 297.833,147.167 297.5,146.5C 295.275,148.11 292.941,149.443 290.5,150.5C 289.086,148.946 287.419,147.612 285.5,146.5C 284.573,148.946 282.906,149.779 280.5,149C 283.91,146.606 286.077,143.439 287,139.5C 288.171,138.107 289.671,137.273 291.5,137C 288.316,133.724 287.316,129.891 288.5,125.5C 290.379,122.885 292.712,120.719 295.5,119C 296.332,118.312 296.998,118.479 297.5,119.5C 301.948,130.674 306.115,142.007 310,153.5C 315.725,149.554 321.891,146.554 328.5,144.5C 328.5,147.833 328.5,151.167 328.5,154.5C 328.5,157.5 328.5,160.5 328.5,163.5C 313.359,173.792 299.192,185.458 286,198.5C 274.341,214.107 269.008,231.774 270,251.5C 267.496,259.511 261.996,263.177 253.5,262.5C 246.075,263.209 240.908,260.209 238,253.5C 237.293,243.803 236.293,234.137 235,224.5C 233.086,217.339 230.086,210.672 226,204.5C 220.199,197.698 214.032,191.198 207.5,185C 197.918,178.055 188.584,170.889 179.5,163.5C 178.707,156.808 178.707,150.141 179.5,143.5C 185.441,147.304 191.774,150.304 198.5,152.5C 201.728,140.716 206.061,129.383 211.5,118.5C 216.521,122.854 221.188,127.521 225.5,132.5 Z"/></g>
<g><path style="opacity:0.955" fill="#b34e23" d="M 208.5,147.5 C 209.251,146.427 210.251,146.26 211.5,147C 217.905,152.413 224.572,157.413 231.5,162C 226.432,166.587 220.766,170.087 214.5,172.5C 213.246,163.872 211.246,155.539 208.5,147.5 Z"/></g>
<g><path style="opacity:0.938" fill="#b14e24" d="M 287.5,170.5 C 283.429,168.557 279.762,165.89 276.5,162.5C 280.963,158.329 285.63,154.329 290.5,150.5C 292.941,149.443 295.275,148.11 297.5,146.5C 297.833,147.167 298.167,147.833 298.5,148.5C 296.492,156.51 294.492,164.51 292.5,172.5C 290.486,172.608 288.82,171.942 287.5,170.5 Z"/></g>
<g><path style="opacity:0.947" fill="#a97c8c" d="M 395.5,138.5 C 395.201,145.891 395.535,153.224 396.5,160.5C 392.018,161.167 387.684,161.834 383.5,162.5C 378.859,163.127 374.193,163.46 369.5,163.5C 367.537,156.576 366.87,149.243 367.5,141.5C 372.129,145.119 376.796,148.786 381.5,152.5C 384.513,149.651 387.18,146.485 389.5,143C 391.66,141.668 393.66,140.168 395.5,138.5 Z"/></g>
<g><path style="opacity:0.976" fill="#833845" d="M 101.5,161.5 C 104.833,161.5 108.167,161.5 111.5,161.5C 121.122,162.754 130.789,163.421 140.5,163.5C 143.833,163.833 147.167,164.167 150.5,164.5C 154.98,165.662 159.313,165.662 163.5,164.5C 163.833,164.5 164.167,164.5 164.5,164.5C 165.886,177.463 166.886,190.463 167.5,203.5C 158.833,202.833 150.167,202.167 141.5,201.5C 143.494,215.796 145.161,230.129 146.5,244.5C 143.108,249.605 139.941,254.938 137,260.5C 133.512,253.67 129.845,247.004 126,240.5C 123.543,246.748 120.543,252.748 117,258.5C 114.36,252.374 111.526,246.374 108.5,240.5C 106.295,243.577 104.628,246.91 103.5,250.5C 102.732,251.263 102.232,252.263 102,253.5C 102.312,245.87 102.478,238.203 102.5,230.5C 103.811,223.265 103.811,215.932 102.5,208.5C 102.521,192.824 102.187,177.157 101.5,161.5 Z"/></g>
<g><path style="opacity:0.931" fill="#b3862b" d="M 288.5,125.5 C 287.316,129.891 288.316,133.724 291.5,137C 289.671,137.273 288.171,138.107 287,139.5C 286.077,143.439 283.91,146.606 280.5,149C 282.906,149.779 284.573,148.946 285.5,146.5C 287.419,147.612 289.086,148.946 290.5,150.5C 285.63,154.329 280.963,158.329 276.5,162.5C 279.762,165.89 283.429,168.557 287.5,170.5C 284.784,170.678 282.117,171.178 279.5,172C 278.102,174.562 276.435,174.895 274.5,173C 276.211,171.867 276.711,170.367 276,168.5C 273.713,171.462 270.88,173.629 267.5,175C 263.411,175.141 259.411,175.308 255.5,175.5C 254.353,175.182 253.519,174.516 253,173.5C 250.827,176.277 250.327,176.11 251.5,173C 249.224,168.609 245.558,166.109 240.5,165.5C 240.709,164.914 241.043,164.414 241.5,164C 239.833,163.667 238.167,163.333 236.5,163C 241.516,159.241 241.183,157.241 235.5,157C 236.696,156.346 236.696,155.846 235.5,155.5C 233.844,157.022 232.677,156.689 232,154.5C 231.077,155.759 230.243,157.092 229.5,158.5C 226.636,155.657 227.303,153.99 231.5,153.5C 233.699,155.149 235.532,154.816 237,152.5C 238.545,153.821 239.711,153.488 240.5,151.5C 238.198,150.001 238.531,148.668 241.5,147.5C 241.167,147.167 240.833,146.833 240.5,146.5C 238.833,147.5 237.5,148.833 236.5,150.5C 234.452,149.917 232.619,149.917 231,150.5C 228.515,148.244 226.182,148.244 224,150.5C 222.278,150.389 222.112,149.889 223.5,149C 220.774,148.818 218.107,148.318 215.5,147.5C 216.5,146.667 217.5,145.833 218.5,145C 216.131,144.464 214.131,143.297 212.5,141.5C 217.368,140.329 217.368,138.496 212.5,136C 216.272,134.611 216.272,133.611 212.5,133C 214.856,129.747 217.023,129.914 219,133.5C 221.302,132.855 223.468,132.522 225.5,132.5C 226.857,133.685 228.357,134.685 230,135.5C 231.261,135.241 232.261,134.574 233,133.5C 239.342,123.482 246.175,113.816 253.5,104.5C 261.566,114.951 269.399,125.618 277,136.5C 280.702,132.63 284.536,128.963 288.5,125.5 Z"/></g>
<g><path style="opacity:0.815" fill="#a74b24" d="M 253.5,120.5 C 256.891,129.552 260.224,138.718 263.5,148C 257.175,148.5 250.842,148.666 244.5,148.5C 247.194,139.056 250.194,129.723 253.5,120.5 Z"/></g>
<g><path style="opacity:0.975" fill="#833845" d="M 405.5,178.5 C 405.5,188.167 405.5,197.833 405.5,207.5C 405.168,213.988 405.168,220.321 405.5,226.5C 405.914,235.682 405.914,244.682 405.5,253.5C 404.38,248.639 402.214,244.306 399,240.5C 396.44,246.621 393.606,252.621 390.5,258.5C 387.603,252.373 384.436,246.373 381,240.5C 377.963,247.254 374.463,253.587 370.5,259.5C 366.71,254.254 363.71,248.588 361.5,242.5C 362.117,228.757 363.451,215.091 365.5,201.5C 356.867,202.49 348.2,203.157 339.5,203.5C 341.27,190.882 342.603,178.215 343.5,165.5C 348.167,165.167 352.833,164.833 357.5,164.5C 361.702,164.817 365.702,164.483 369.5,163.5C 374.193,163.46 378.859,163.127 383.5,162.5C 390.849,162.451 398.183,162.118 405.5,161.5C 405.5,167.167 405.5,172.833 405.5,178.5 Z"/></g>
<g><path style="opacity:0.952" fill="#a47986" d="M 430.5,136.5 C 429.785,145.486 428.619,154.153 427,162.5C 423.004,179.154 415.837,194.154 405.5,207.5C 405.5,197.833 405.5,188.167 405.5,178.5C 406.201,175.437 406.868,172.27 407.5,169C 406.468,158.912 405.802,148.745 405.5,138.5C 409.778,139.595 413.112,142.095 415.5,146C 417.167,146.667 418.833,146.667 420.5,146C 423.703,142.629 427.036,139.462 430.5,136.5 Z"/></g>
<g><path style="opacity:0.958" fill="#a97c8c" d="M 77.5,136.5 C 81.9211,139.94 85.9211,143.94 89.5,148.5C 93.2217,144.773 97.2217,141.44 101.5,138.5C 101.5,146.167 101.5,153.833 101.5,161.5C 102.187,177.157 102.521,192.824 102.5,208.5C 86.2858,187.37 77.9524,163.37 77.5,136.5 Z"/></g>
<g><path style="opacity:0.985" fill="#bea74a" d="M 327.5,174.5 C 327.5,187.833 327.5,201.167 327.5,214.5C 330.385,214.806 333.052,214.473 335.5,213.5C 340.111,212.515 344.777,211.848 349.5,211.5C 351.5,211.833 353.5,212.167 355.5,212.5C 348.167,223.5 340.833,234.5 333.5,245.5C 338.864,250.865 344.531,255.865 350.5,260.5C 334.432,264.628 318.099,268.128 301.5,271C 292.271,277.109 282.937,282.942 273.5,288.5C 266.742,288.848 260.075,289.848 253.5,291.5C 247.01,290.57 240.676,289.236 234.5,287.5C 224.978,283.401 215.978,278.234 207.5,272C 190.63,268.488 173.963,264.654 157.5,260.5C 163.469,256.199 168.802,251.199 173.5,245.5C 166.305,234.287 158.972,223.12 151.5,212C 160.78,212.817 170.113,213.317 179.5,213.5C 179.168,200.483 179.501,187.483 180.5,174.5C 193.379,182.876 205.546,192.209 217,202.5C 222.654,210.141 226.987,218.475 230,227.5C 230.667,229.167 230.667,230.833 230,232.5C 225.983,226.096 220.149,223.429 212.5,224.5C 200.472,224.366 194.139,230.366 193.5,242.5C 194.97,256.97 202.97,264.637 217.5,265.5C 223.422,264.805 228.589,262.472 233,258.5C 246.885,273.132 260.719,273.132 274.5,258.5C 286.515,268.231 298.015,267.565 309,256.5C 313.07,249.735 314.403,242.401 313,234.5C 306.755,224.806 297.922,221.639 286.5,225C 282.388,226.779 279.222,229.612 277,233.5C 276.542,230.442 276.876,227.442 278,224.5C 282.369,213.967 288.535,204.634 296.5,196.5C 306.365,188.41 316.698,181.077 327.5,174.5 Z"/></g>
<g><path style="opacity:0.944" fill="#986168" d="M 76.5,106.5 C 76.1755,113.687 76.5088,120.687 77.5,127.5C 77.5,130.5 77.5,133.5 77.5,136.5C 77.9524,163.37 86.2858,187.37 102.5,208.5C 103.811,215.932 103.811,223.265 102.5,230.5C 97.8739,221.932 92.7072,213.598 87,205.5C 86,203.167 85,200.833 84,198.5C 82.8289,197.107 81.3289,196.273 79.5,196C 80.5156,195.481 81.1822,194.647 81.5,193.5C 75.277,177.677 70.6103,161.511 67.5,145C 68.4231,142.959 68.7564,140.792 68.5,138.5C 68.5,134.167 68.5,129.833 68.5,125.5C 68.3592,119.868 68.0259,114.202 67.5,108.5C 68.125,105.417 68.4583,102.251 68.5,99C 68.8745,94.8167 68.0412,90.9834 66,87.5C 65.3333,77.5 65.3333,67.5 66,57.5C 66.4652,56.0692 67.2986,54.9025 68.5,54C 72.572,53.0441 76.4054,53.5441 80,55.5C 80.6667,64.8333 80.6667,74.1667 80,83.5C 77.6091,90.9557 76.4424,98.6224 76.5,106.5 Z"/></g>
<g><path style="opacity:0.818" fill="#b7a798" d="M 71.5,58.5 C 73.1439,58.2865 74.6439,58.6198 76,59.5C 76.5981,67.5311 76.2648,75.5311 75,83.5C 74.4236,86.1242 73.0902,86.7908 71,85.5C 70.1965,76.4221 70.3631,67.4221 71.5,58.5 Z"/></g>
<g><path style="opacity:0.952" fill="#a77b8a" d="M 68.5,138.5 C 68.7564,140.792 68.4231,142.959 67.5,145C 70.6103,161.511 75.277,177.677 81.5,193.5C 81.1822,194.647 80.5156,195.481 79.5,196C 81.3289,196.273 82.8289,197.107 84,198.5C 85,200.833 86,203.167 87,205.5C 92.7072,213.598 97.8739,221.932 102.5,230.5C 102.478,238.203 102.312,245.87 102,253.5C 102.232,252.263 102.732,251.263 103.5,250.5C 102.34,254.806 101.34,259.139 100.5,263.5C 99.0227,260.409 97.3561,257.409 95.5,254.5C 92.3923,250.056 88.3923,246.722 83.5,244.5C 84.0431,244.44 84.3764,244.107 84.5,243.5C 73.0021,210.336 65.0021,176.336 60.5,141.5C 61.1499,141.804 61.8165,142.137 62.5,142.5C 64.5168,141.039 66.5168,139.706 68.5,138.5 Z"/></g>
<g><path style="opacity:0.925" fill="#a37885" d="M 439.5,106.5 C 440.167,106.5 440.5,106.833 440.5,107.5C 443.25,111.308 446.25,114.975 449.5,118.5C 447.576,135.809 445.409,153.143 443,170.5C 436.738,202.245 427.404,232.912 415,262.5C 413.656,265.865 411.823,268.865 409.5,271.5C 409.88,269.302 409.213,267.635 407.5,266.5C 407.032,262.869 407.699,259.535 409.5,256.5C 408.053,256.323 406.719,255.323 405.5,253.5C 405.914,244.682 405.914,235.682 405.5,226.5C 411.718,219.088 417.218,211.088 422,202.5C 436.498,172.213 442.332,140.213 439.5,106.5 Z"/></g>
<g><path style="opacity:0.977" fill="#aa3e23" d="M 350.5,260.5 C 344.531,255.865 338.864,250.865 333.5,245.5C 340.833,234.5 348.167,223.5 355.5,212.5C 353.5,212.167 351.5,211.833 349.5,211.5C 344.777,211.848 340.111,212.515 335.5,213.5C 333.167,213.5 330.833,213.5 328.5,213.5C 328.829,200.323 328.495,187.323 327.5,174.5C 316.698,181.077 306.365,188.41 296.5,196.5C 288.535,204.634 282.369,213.967 278,224.5C 276.876,227.442 276.542,230.442 277,233.5C 279.222,229.612 282.388,226.779 286.5,225C 297.922,221.639 306.755,224.806 313,234.5C 314.403,242.401 313.07,249.735 309,256.5C 298.015,267.565 286.515,268.231 274.5,258.5C 260.719,273.132 246.885,273.132 233,258.5C 228.589,262.472 223.422,264.805 217.5,265.5C 202.97,264.637 194.97,256.97 193.5,242.5C 194.139,230.366 200.472,224.366 212.5,224.5C 220.149,223.429 225.983,226.096 230,232.5C 230.667,230.833 230.667,229.167 230,227.5C 226.987,218.475 222.654,210.141 217,202.5C 205.546,192.209 193.379,182.876 180.5,174.5C 179.501,187.483 179.168,200.483 179.5,213.5C 170.113,213.317 160.78,212.817 151.5,212C 158.972,223.12 166.305,234.287 173.5,245.5C 168.802,251.199 163.469,256.199 157.5,260.5C 155.712,260.785 154.045,260.452 152.5,259.5C 157.608,254.773 162.941,250.273 168.5,246C 159.525,232.549 151.192,218.716 143.5,204.5C 148.52,203.886 153.52,204.386 158.5,206C 163.823,206.499 169.156,206.666 174.5,206.5C 173.343,191.007 173.343,175.674 174.5,160.5C 176.001,161.752 177.668,162.752 179.5,163.5C 188.584,170.889 197.918,178.055 207.5,185C 214.032,191.198 220.199,197.698 226,204.5C 230.086,210.672 233.086,217.339 235,224.5C 236.293,234.137 237.293,243.803 238,253.5C 240.908,260.209 246.075,263.209 253.5,262.5C 261.996,263.177 267.496,259.511 270,251.5C 269.008,231.774 274.341,214.107 286,198.5C 299.192,185.458 313.359,173.792 328.5,163.5C 330.148,162.19 331.814,160.857 333.5,159.5C 334.579,175.164 334.579,190.831 333.5,206.5C 343.534,206.225 353.534,205.559 363.5,204.5C 363.245,207.016 362.411,209.35 361,211.5C 353.583,222.664 346.417,233.998 339.5,245.5C 344.5,250.167 349.5,254.833 354.5,259.5C 353.311,260.429 351.978,260.762 350.5,260.5 Z"/></g>
<g><path style="opacity:0.986" fill="#93bb79" d="M 292.5,227.5 C 291.189,238.846 291.189,250.179 292.5,261.5C 282.598,261.928 276.931,257.261 275.5,247.5C 276.529,236.72 282.195,230.054 292.5,227.5 Z"/></g>
<g><path style="opacity:0.987" fill="#94bc79" d="M 212.5,227.5 C 211.545,238.449 211.211,249.449 211.5,260.5C 202.791,257.774 198.457,251.774 198.5,242.5C 199.039,233.628 203.705,228.628 212.5,227.5 Z"/></g>
<g><path style="opacity:0.984" fill="#b56f35" d="M 327.5,174.5 C 328.495,187.323 328.829,200.323 328.5,213.5C 330.833,213.5 333.167,213.5 335.5,213.5C 333.052,214.473 330.385,214.806 327.5,214.5C 327.5,201.167 327.5,187.833 327.5,174.5 Z"/></g>
<g><path style="opacity:0.988" fill="#b64e23" d="M 232.5,177.5 C 238.301,184.412 243.635,191.745 248.5,199.5C 248.291,200.086 247.957,200.586 247.5,201C 242.721,202.194 238.055,203.694 233.5,205.5C 232.502,196.19 232.168,186.857 232.5,177.5 Z"/></g>
<g><path style="opacity:0.94" fill="#b34f23" d="M 274.5,176.5 C 275.823,186.008 275.823,195.675 274.5,205.5C 269.075,203.955 263.742,202.122 258.5,200C 263.967,192.225 269.3,184.391 274.5,176.5 Z"/></g>
<g><path style="opacity:0.985" fill="#95c07c" d="M 295.5,227.5 C 307.36,230.239 311.527,237.573 308,249.5C 305.519,255.152 301.352,258.818 295.5,260.5C 296.785,249.519 296.785,238.519 295.5,227.5 Z"/></g>
<g><path style="opacity:0.982" fill="#0f0d09" d="M 212.5,227.5 C 213.791,227.263 214.791,227.596 215.5,228.5C 216.797,239.502 216.797,250.502 215.5,261.5C 214.041,261.567 212.708,261.234 211.5,260.5C 211.211,249.449 211.545,238.449 212.5,227.5 Z"/></g>
<g><path style="opacity:0.979" fill="#94bf7b" d="M 215.5,228.5 C 227.913,231.63 233.079,239.63 231,252.5C 227.776,258.7 222.609,261.7 215.5,261.5C 216.797,250.502 216.797,239.502 215.5,228.5 Z"/></g>
<g><path style="opacity:0.969" fill="#15130f" d="M 292.5,227.5 C 293.5,227.5 294.5,227.5 295.5,227.5C 296.785,238.519 296.785,249.519 295.5,260.5C 294.609,261.11 293.609,261.443 292.5,261.5C 291.189,250.179 291.189,238.846 292.5,227.5 Z"/></g>
<g><path style="opacity:0.62" fill="#5859a4" d="M 48.5,253.5 C 49.5,253.5 50.5,253.5 51.5,253.5C 51.1854,255.226 51.0187,256.893 51,258.5C 52.3159,255.972 53.4826,255.972 54.5,258.5C 55.891,257.355 57.2243,257.355 58.5,258.5C 57.0508,259.172 55.7175,259.839 54.5,260.5C 51.1566,259.941 48.1566,258.608 45.5,256.5C 46.3398,255.265 47.3398,254.265 48.5,253.5 Z"/></g>
<g><path style="opacity:0.839" fill="#5d66d8" d="M 83.5,244.5 C 88.3923,246.722 92.3923,250.056 95.5,254.5C 94.5416,254.953 93.7083,255.619 93,256.5C 92.6924,255.692 92.1924,255.025 91.5,254.5C 90.8681,257.03 89.8681,259.363 88.5,261.5C 91.1306,263.005 90.7973,263.671 87.5,263.5C 87.719,264.675 87.3857,265.675 86.5,266.5C 84.4841,265.294 82.4841,265.294 80.5,266.5C 84.4811,267.494 84.4811,268.494 80.5,269.5C 79.8333,269.167 79.1667,268.833 78.5,268.5C 75.6238,269.553 72.9571,270.22 70.5,270.5C 73.9869,271.509 75.3203,273.842 74.5,277.5C 73.325,277.281 72.325,277.614 71.5,278.5C 72.6888,279.429 74.0222,279.762 75.5,279.5C 75.687,281.564 76.187,283.564 77,285.5C 78.0195,284.313 79.1861,283.313 80.5,282.5C 81.5,282.833 82.1667,283.5 82.5,284.5C 81.1667,285.167 79.8333,285.833 78.5,286.5C 79.2458,287.736 79.5792,289.07 79.5,290.5C 74.7666,285.128 68.7666,281.794 61.5,280.5C 57.2512,279.457 52.9178,278.624 48.5,278C 56.0195,274.409 63.6862,271.075 71.5,268C 65.8079,265.387 60.1412,262.887 54.5,260.5C 55.7175,259.839 57.0508,259.172 58.5,258.5C 57.2243,257.355 55.891,257.355 54.5,258.5C 53.4826,255.972 52.3159,255.972 51,258.5C 51.0187,256.893 51.1854,255.226 51.5,253.5C 61.5105,248.501 72.1771,245.501 83.5,244.5 Z"/></g>
<g><path style="opacity:0.899" fill="#ac8783" d="M 146.5,244.5 C 148.419,256.769 149.752,269.103 150.5,281.5C 146.188,275.567 141.855,269.567 137.5,263.5C 133.07,270.024 129.403,277.024 126.5,284.5C 123,277.5 119.5,270.5 116,263.5C 113.505,269.835 110.338,275.835 106.5,281.5C 104.096,277.257 102.096,272.924 100.5,268.5C 100.5,266.833 100.5,265.167 100.5,263.5C 101.34,259.139 102.34,254.806 103.5,250.5C 104.628,246.91 106.295,243.577 108.5,240.5C 111.526,246.374 114.36,252.374 117,258.5C 120.543,252.748 123.543,246.748 126,240.5C 129.845,247.004 133.512,253.67 137,260.5C 139.941,254.938 143.108,249.605 146.5,244.5 Z"/></g>
<g><path style="opacity:0.477" fill="#422b1f" d="M 174.5,160.5 C 173.343,175.674 173.343,191.007 174.5,206.5C 169.156,206.666 163.823,206.499 158.5,206C 153.52,204.386 148.52,203.886 143.5,204.5C 151.192,218.716 159.525,232.549 168.5,246C 162.941,250.273 157.608,254.773 152.5,259.5C 154.045,260.452 155.712,260.785 157.5,260.5C 173.963,264.654 190.63,268.488 207.5,272C 215.978,278.234 224.978,283.401 234.5,287.5C 234.771,311.186 234.438,334.852 233.5,358.5C 231.661,359.508 230.328,361.008 229.5,363C 225.93,364.31 222.263,365.143 218.5,365.5C 218.5,354.833 218.5,344.167 218.5,333.5C 218.666,328.489 218.499,323.489 218,318.5C 209.992,313.998 202.325,308.998 195,303.5C 194.212,293.845 193.712,284.179 193.5,274.5C 193.38,273.414 192.713,272.747 191.5,272.5C 179.314,269.776 167.147,267.109 155,264.5C 157.19,289.967 160.356,315.301 164.5,340.5C 168.867,343.123 173.533,344.623 178.5,345C 184.14,339.36 189.806,333.694 195.5,328C 188.638,322.972 181.638,318.138 174.5,313.5C 173.507,318.12 173.173,322.786 173.5,327.5C 177.479,326.535 181.479,326.035 185.5,326C 181.199,329.606 176.199,331.773 170.5,332.5C 170.169,324.472 170.502,316.472 171.5,308.5C 180.87,314.846 190.204,321.18 199.5,327.5C 192.541,333.958 185.708,340.625 179,347.5C 178.501,353.491 178.334,359.491 178.5,365.5C 171.167,365.5 163.833,365.5 156.5,365.5C 155.478,356.593 153.811,347.926 151.5,339.5C 150.556,331.83 149.389,324.164 148,316.5C 147.153,314.807 146.32,313.14 145.5,311.5C 148.934,314.31 151.934,317.643 154.5,321.5C 154.79,308.029 153.457,294.696 150.5,281.5C 149.752,269.103 148.419,256.769 146.5,244.5C 145.161,230.129 143.494,215.796 141.5,201.5C 150.167,202.167 158.833,202.833 167.5,203.5C 166.886,190.463 165.886,177.463 164.5,164.5C 164.338,162.473 164.505,160.473 165,158.5C 166.152,160.649 167.652,162.482 169.5,164C 166.736,165.544 166.903,166.711 170,167.5C 171.871,165.249 173.037,162.583 173.5,159.5C 174.107,159.624 174.44,159.957 174.5,160.5 Z"/></g>
<g><path style="opacity:0.914" fill="#a88480" d="M 405.5,253.5 C 406.719,255.323 408.053,256.323 409.5,256.5C 407.699,259.535 407.032,262.869 407.5,266.5C 405.607,271.951 403.441,277.285 401,282.5C 397.922,276.009 394.588,269.675 391,263.5C 387.845,270.655 384.512,277.655 381,284.5C 377.966,277.207 374.466,270.207 370.5,263.5C 365.568,269.723 360.902,276.056 356.5,282.5C 357.695,268.969 359.362,255.636 361.5,242.5C 363.71,248.588 366.71,254.254 370.5,259.5C 374.463,253.587 377.963,247.254 381,240.5C 384.436,246.373 387.603,252.373 390.5,258.5C 393.606,252.621 396.44,246.621 399,240.5C 402.214,244.306 404.38,248.639 405.5,253.5 Z"/></g>
<g><path style="opacity:0.973" fill="#823844" d="M 407.5,266.5 C 409.213,267.635 409.88,269.302 409.5,271.5C 414.767,286.214 420.767,300.714 427.5,315C 427.333,315.5 427.167,316 427,316.5C 425.629,314.959 424.129,313.625 422.5,312.5C 418.542,309.715 414.709,306.715 411,303.5C 408.949,308.319 407.282,313.319 406,318.5C 405.586,318.957 405.086,319.291 404.5,319.5C 399.833,314.5 395.167,309.5 390.5,304.5C 386.637,309.796 382.971,315.129 379.5,320.5C 375.238,316.154 371.571,311.321 368.5,306C 367.833,305.333 367.167,305.333 366.5,306C 364.7,307.812 363.033,309.645 361.5,311.5C 357.532,315.639 353.699,319.973 350,324.5C 352.434,310.601 354.601,296.601 356.5,282.5C 360.902,276.056 365.568,269.723 370.5,263.5C 374.466,270.207 377.966,277.207 381,284.5C 384.512,277.655 387.845,270.655 391,263.5C 394.588,269.675 397.922,276.009 401,282.5C 403.441,277.285 405.607,271.951 407.5,266.5 Z"/></g>
<g><path style="opacity:0.983" fill="#966865" d="M 193.5,274.5 C 193.712,284.179 194.212,293.845 195,303.5C 202.325,308.998 209.992,313.998 218,318.5C 218.499,323.489 218.666,328.489 218.5,333.5C 216.721,329.405 215.388,325.072 214.5,320.5C 210.864,321.326 207.197,321.992 203.5,322.5C 203.5,319.167 203.5,315.833 203.5,312.5C 199.275,313.879 194.942,314.879 190.5,315.5C 190.737,311.727 190.237,308.06 189,304.5C 186.697,302.607 184.53,300.607 182.5,298.5C 185.761,296.408 188.095,293.574 189.5,290C 187.704,287.367 185.704,284.867 183.5,282.5C 186.49,279.347 189.823,276.68 193.5,274.5 Z"/></g>
<g><path style="opacity:0.975" fill="#843845" d="M 150.5,281.5 C 153.457,294.696 154.79,308.029 154.5,321.5C 151.934,317.643 148.934,314.31 145.5,311.5C 143.5,309.329 141.666,306.996 140,304.5C 136.239,309.696 132.739,315.029 129.5,320.5C 125.479,314.818 121.479,309.152 117.5,303.5C 113.065,308.691 108.399,313.691 103.5,318.5C 102.914,318.291 102.414,317.957 102,317.5C 101.689,313.91 100.856,310.577 99.5,307.5C 100.036,294.506 100.369,281.506 100.5,268.5C 102.096,272.924 104.096,277.257 106.5,281.5C 110.338,275.835 113.505,269.835 116,263.5C 119.5,270.5 123,277.5 126.5,284.5C 129.403,277.024 133.07,270.024 137.5,263.5C 141.855,269.567 146.188,275.567 150.5,281.5 Z"/></g>
<g><path style="opacity:0.98" fill="#833845" d="M 193.5,274.5 C 189.823,276.68 186.49,279.347 183.5,282.5C 185.704,284.867 187.704,287.367 189.5,290C 188.095,293.574 185.761,296.408 182.5,298.5C 184.53,300.607 186.697,302.607 189,304.5C 190.237,308.06 190.737,311.727 190.5,315.5C 194.942,314.879 199.275,313.879 203.5,312.5C 203.5,315.833 203.5,319.167 203.5,322.5C 207.197,321.992 210.864,321.326 214.5,320.5C 215.388,325.072 216.721,329.405 218.5,333.5C 218.5,344.167 218.5,354.833 218.5,365.5C 216.833,365.5 215.167,365.5 213.5,365.5C 209.882,361.238 206.049,357.238 202,353.5C 200.107,354.196 198.274,355.03 196.5,356C 194.043,359.058 191.043,361.392 187.5,363C 186.748,363.671 186.414,364.504 186.5,365.5C 183.833,365.5 181.167,365.5 178.5,365.5C 178.334,359.491 178.501,353.491 179,347.5C 185.708,340.625 192.541,333.958 199.5,327.5C 190.204,321.18 180.87,314.846 171.5,308.5C 170.502,316.472 170.169,324.472 170.5,332.5C 176.199,331.773 181.199,329.606 185.5,326C 181.479,326.035 177.479,326.535 173.5,327.5C 173.173,322.786 173.507,318.12 174.5,313.5C 181.638,318.138 188.638,322.972 195.5,328C 189.806,333.694 184.14,339.36 178.5,345C 173.533,344.623 168.867,343.123 164.5,340.5C 160.356,315.301 157.19,289.967 155,264.5C 167.147,267.109 179.314,269.776 191.5,272.5C 192.713,272.747 193.38,273.414 193.5,274.5 Z"/></g>
<g><path style="opacity:0.984" fill="#cabeae" d="M 199.5,273.5 C 202.187,273.336 204.854,273.503 207.5,274C 215.33,279.416 223.33,284.583 231.5,289.5C 232.497,296.468 232.83,303.468 232.5,310.5C 226.772,310.446 221.605,308.779 217,305.5C 212.249,297.663 207.249,289.996 202,282.5C 200.451,279.688 199.618,276.688 199.5,273.5 Z"/></g>
<g><path style="opacity:0.985" fill="#a35729" d="M 145.5,311.5 C 146.32,313.14 147.153,314.807 148,316.5C 149.389,324.164 150.556,331.83 151.5,339.5C 147.888,334.876 144.221,330.21 140.5,325.5C 136.209,330.292 131.709,334.959 127,339.5C 123.449,334.362 119.449,329.695 115,325.5C 110.511,329.32 106.011,333.153 101.5,337C 100.551,337.617 99.7175,337.451 99,336.5C 98.502,339.482 98.3354,342.482 98.5,345.5C 97.6305,332.948 97.9638,320.281 99.5,307.5C 100.856,310.577 101.689,313.91 102,317.5C 102.414,317.957 102.914,318.291 103.5,318.5C 108.399,313.691 113.065,308.691 117.5,303.5C 121.479,309.152 125.479,314.818 129.5,320.5C 132.739,315.029 136.239,309.696 140,304.5C 141.666,306.996 143.5,309.329 145.5,311.5 Z"/></g>
<g><path style="opacity:0.331" fill="#432c20" d="M 343.5,156.5 C 343.5,159.5 343.5,162.5 343.5,165.5C 342.603,178.215 341.27,190.882 339.5,203.5C 348.2,203.157 356.867,202.49 365.5,201.5C 363.451,215.091 362.117,228.757 361.5,242.5C 359.362,255.636 357.695,268.969 356.5,282.5C 354.601,296.601 352.434,310.601 350,324.5C 353.699,319.973 357.532,315.639 361.5,311.5C 360.004,320.482 358.671,329.482 357.5,338.5C 355.838,346.4 354.171,354.4 352.5,362.5C 351.778,362.918 351.278,363.584 351,364.5C 348.4,359.874 345.733,355.208 343,350.5C 340.146,353.189 338.313,356.523 337.5,360.5C 337.68,361.554 338.013,362.554 338.5,363.5C 336.945,367.493 335.945,371.66 335.5,376C 339.654,385.149 345.654,392.815 353.5,399C 352.396,400.131 352.729,400.965 354.5,401.5C 356.627,399.383 356.96,400.049 355.5,403.5C 356.616,403.402 357.616,403.902 358.5,405C 357.794,407.142 358.128,409.309 359.5,411.5C 359.043,412.298 358.376,412.631 357.5,412.5C 353.848,409.018 350.015,405.685 346,402.5C 343.695,405.906 341.861,409.573 340.5,413.5C 341.952,414.302 343.618,414.802 345.5,415C 340.436,415.658 335.436,417.325 330.5,420C 327.978,422.356 325.312,424.523 322.5,426.5C 321.479,430.526 320.479,434.526 319.5,438.5C 318.5,438.5 317.5,438.5 316.5,438.5C 316.737,437.209 316.404,436.209 315.5,435.5C 311.5,435.5 307.5,435.5 303.5,435.5C 299.771,435.27 297.938,433.27 298,429.5C 294.768,424.6 290.602,420.766 285.5,418C 280.764,418.239 276.097,417.239 271.5,415C 274.482,414.502 277.482,414.335 280.5,414.5C 280.737,413.209 280.404,412.209 279.5,411.5C 278.213,408.594 277.213,405.594 276.5,402.5C 275.448,402.351 274.448,402.517 273.5,403C 270.964,405.705 268.297,408.205 265.5,410.5C 264.167,410.5 262.833,410.5 261.5,410.5C 263.859,405.885 262.526,403.218 257.5,402.5C 252.481,402.53 249.148,404.864 247.5,409.5C 245.955,410.452 244.288,410.785 242.5,410.5C 239.52,407.856 236.52,405.189 233.5,402.5C 231.064,405.035 229.397,408.035 228.5,411.5C 227.999,413.129 227.999,414.629 228.5,416C 226.5,416.333 224.5,416.667 222.5,417C 220.385,419.484 217.885,420.317 215,419.5C 211.833,424.752 208.666,430.085 205.5,435.5C 205.709,436.086 206.043,436.586 206.5,437C 204.959,438.579 203.792,440.413 203,442.5C 202.536,441.906 202.369,441.239 202.5,440.5C 203.038,438.883 203.371,437.216 203.5,435.5C 199.167,435.5 194.833,435.5 190.5,435.5C 190.517,437.565 190.85,439.565 191.5,441.5C 190.432,442.434 189.099,442.768 187.5,442.5C 187.528,437.397 186.528,432.731 184.5,428.5C 180.943,425.064 177.609,421.397 174.5,417.5C 171.979,416.312 169.645,414.978 167.5,413.5C 166.718,409.27 164.885,405.603 162,402.5C 160.019,403.65 158.186,404.984 156.5,406.5C 152.979,406.17 149.979,404.67 147.5,402C 138.109,401.097 129.109,402.597 120.5,406.5C 114.186,405.206 107.853,405.206 101.5,406.5C 97.6102,405.158 93.6102,404.325 89.5,404C 88.244,403.583 87.5774,402.75 87.5,401.5C 100.504,401.667 113.504,401.5 126.5,401C 129.266,399.629 131.599,397.796 133.5,395.5C 147.167,395.5 160.833,395.5 174.5,395.5C 171.431,397.654 168.431,399.987 165.5,402.5C 167.167,405.833 168.833,409.167 170.5,412.5C 174.459,413.327 178.459,413.827 182.5,414C 185.58,419.57 188.08,425.403 190,431.5C 194.333,432.833 198.667,432.833 203,431.5C 205.977,425.712 208.811,419.879 211.5,414C 216.202,413.828 220.868,413.328 225.5,412.5C 226.495,408.325 228.161,404.491 230.5,401C 227.957,399.618 225.957,397.785 224.5,395.5C 235.549,395.85 246.549,395.35 257.5,394C 266.001,388.532 271.168,380.699 273,370.5C 273.5,343.169 273.667,315.835 273.5,288.5C 282.937,282.942 292.271,277.109 301.5,271C 318.099,268.128 334.432,264.628 350.5,260.5C 351.978,260.762 353.311,260.429 354.5,259.5C 349.5,254.833 344.5,250.167 339.5,245.5C 346.417,233.998 353.583,222.664 361,211.5C 362.411,209.35 363.245,207.016 363.5,204.5C 353.534,205.559 343.534,206.225 333.5,206.5C 334.579,190.831 334.579,175.164 333.5,159.5C 331.814,160.857 330.148,162.19 328.5,163.5C 328.5,160.5 328.5,157.5 328.5,154.5C 329.166,151.972 329.832,149.306 330.5,146.5C 331.321,149.447 331.821,152.447 332,155.5C 333.786,158.362 336.119,159.028 339,157.5C 341.316,155.388 342.65,152.722 343,149.5C 343.497,151.81 343.663,154.143 343.5,156.5 Z"/></g>
<g><path style="opacity:0.991" fill="#c9bdad" d="M 305.5,272.5 C 306.5,272.5 307.5,272.5 308.5,272.5C 308.242,276.44 307.076,280.107 305,283.5C 299.869,291.596 294.369,299.429 288.5,307C 284.002,308.041 279.669,309.541 275.5,311.5C 274.336,304.524 274.169,297.524 275,290.5C 284.777,283.54 294.943,277.54 305.5,272.5 Z"/></g>
<g><path style="opacity:0.987" fill="#966865" d="M 314.5,273.5 C 318.22,276.034 321.553,279.034 324.5,282.5C 322.115,284.884 320.115,287.55 318.5,290.5C 320.382,293.623 322.715,296.289 325.5,298.5C 323.833,300.833 321.833,302.833 319.5,304.5C 318.461,308.105 317.795,311.772 317.5,315.5C 313.538,314.624 309.538,313.958 305.5,313.5C 305.726,316.249 305.393,318.916 304.5,321.5C 303.5,321.833 302.5,322.167 301.5,322.5C 299.079,321.928 296.746,321.428 294.5,321C 293.032,325.282 291.366,329.449 289.5,333.5C 289.334,328.489 289.501,323.489 290,318.5C 298.041,313.985 305.708,308.985 313,303.5C 313.37,293.487 313.87,283.487 314.5,273.5 Z"/></g>
<g><path style="opacity:0.974" fill="#833845" d="M 289.5,333.5 C 291.366,329.449 293.032,325.282 294.5,321C 296.746,321.428 299.079,321.928 301.5,322.5C 302.5,322.167 303.5,321.833 304.5,321.5C 305.393,318.916 305.726,316.249 305.5,313.5C 309.538,313.958 313.538,314.624 317.5,315.5C 317.795,311.772 318.461,308.105 319.5,304.5C 321.833,302.833 323.833,300.833 325.5,298.5C 322.715,296.289 320.382,293.623 318.5,290.5C 320.115,287.55 322.115,284.884 324.5,282.5C 321.553,279.034 318.22,276.034 314.5,273.5C 327.156,269.679 340.156,266.679 353.5,264.5C 351.147,289.992 347.814,315.325 343.5,340.5C 339.48,342.223 335.646,344.223 332,346.5C 326.191,340.602 320.191,334.935 314,329.5C 313.251,328.365 313.417,327.365 314.5,326.5C 321.443,322.223 328.11,317.556 334.5,312.5C 335.779,317.186 335.779,321.853 334.5,326.5C 334.167,326.833 333.833,327.167 333.5,327.5C 330.243,326.449 326.91,325.782 323.5,325.5C 323.5,326.5 323.5,327.5 323.5,328.5C 327.913,329.538 332.246,330.871 336.5,332.5C 337.665,324.521 337.832,316.521 337,308.5C 327.341,314.67 317.841,321.004 308.5,327.5C 315.183,334.371 322.183,341.037 329.5,347.5C 330.665,355.145 330.831,362.812 330,370.5C 322.217,364.699 314.384,359.032 306.5,353.5C 300.806,358.527 295.473,363.86 290.5,369.5C 289.501,357.518 289.168,345.518 289.5,333.5 Z"/></g>
<g><path style="opacity:0.976" fill="#9e5527" d="M 422.5,312.5 C 424.5,319.167 426.5,325.833 428.5,332.5C 423.797,330.728 419.63,328.061 416,324.5C 412.905,328.189 410.739,332.356 409.5,337C 407.213,337.028 405.213,336.195 403.5,334.5C 400.587,331.083 397.42,327.749 394,324.5C 390.232,329.714 386.232,334.714 382,339.5C 377.358,335.024 372.858,330.357 368.5,325.5C 365.104,330.216 361.437,334.549 357.5,338.5C 358.671,329.482 360.004,320.482 361.5,311.5C 363.033,309.645 364.7,307.812 366.5,306C 367.167,305.333 367.833,305.333 368.5,306C 371.571,311.321 375.238,316.154 379.5,320.5C 382.971,315.129 386.637,309.796 390.5,304.5C 395.167,309.5 399.833,314.5 404.5,319.5C 405.086,319.291 405.586,318.957 406,318.5C 407.282,313.319 408.949,308.319 411,303.5C 414.709,306.715 418.542,309.715 422.5,312.5 Z"/></g>
<g><path style="opacity:0.774" fill="#92742c" d="M 428.5,332.5 C 431.456,339.81 434.456,347.144 437.5,354.5C 438.412,355.738 438.579,357.072 438,358.5C 431.173,355.087 424.506,351.421 418,347.5C 414.856,354.362 411.856,361.362 409,368.5C 404.92,363.257 400.42,358.59 395.5,354.5C 395.5,354.167 395.5,353.833 395.5,353.5C 398.083,352.461 400.583,351.128 403,349.5C 403.667,347.833 403.667,346.167 403,344.5C 401.187,345.609 400.354,344.942 400.5,342.5C 398.436,342.313 396.436,341.813 394.5,341C 395.634,339.984 395.301,339.317 393.5,339C 394.711,337.887 394.711,336.72 393.5,335.5C 395.142,332.816 397.142,332.316 399.5,334C 398.743,335.512 397.743,336.846 396.5,338C 399.886,338.881 402.22,337.714 403.5,334.5C 405.213,336.195 407.213,337.028 409.5,337C 410.739,332.356 412.905,328.189 416,324.5C 419.63,328.061 423.797,330.728 428.5,332.5 Z"/></g>
<g><path style="opacity:0.936" fill="#9e7e2e" d="M 403.5,334.5 C 402.22,337.714 399.886,338.881 396.5,338C 397.743,336.846 398.743,335.512 399.5,334C 397.142,332.316 395.142,332.816 393.5,335.5C 394.711,336.72 394.711,337.887 393.5,339C 395.301,339.317 395.634,339.984 394.5,341C 396.436,341.813 398.436,342.313 400.5,342.5C 400.354,344.942 401.187,345.609 403,344.5C 403.667,346.167 403.667,347.833 403,349.5C 400.583,351.128 398.083,352.461 395.5,353.5C 394.542,353.047 393.708,352.381 393,351.5C 389.176,357.81 385.343,364.143 381.5,370.5C 377.004,365.519 373.504,359.853 371,353.5C 370.329,352.748 369.496,352.414 368.5,352.5C 362.824,358.013 357.658,364.013 353,370.5C 352.503,367.854 352.336,365.187 352.5,362.5C 354.171,354.4 355.838,346.4 357.5,338.5C 361.437,334.549 365.104,330.216 368.5,325.5C 372.858,330.357 377.358,335.024 382,339.5C 386.232,334.714 390.232,329.714 394,324.5C 397.42,327.749 400.587,331.083 403.5,334.5 Z"/></g>
<g><path style="opacity:0.973" fill="#a2822e" d="M 151.5,339.5 C 153.811,347.926 155.478,356.593 156.5,365.5C 154.5,365.5 152.5,365.5 150.5,365.5C 147.805,362.474 145.138,359.474 142.5,356.5C 141.115,355.426 139.949,354.093 139,352.5C 136.731,356.038 134.731,359.705 133,363.5C 131.989,364.337 130.822,364.67 129.5,364.5C 127.167,364.5 124.833,364.5 122.5,364.5C 121.52,360.061 119.854,355.895 117.5,352C 114.664,352.085 112.331,353.251 110.5,355.5C 108.716,355.893 107.05,356.559 105.5,357.5C 101.12,354.747 98.7871,350.747 98.5,345.5C 98.3354,342.482 98.502,339.482 99,336.5C 99.7175,337.451 100.551,337.617 101.5,337C 106.011,333.153 110.511,329.32 115,325.5C 119.449,329.695 123.449,334.362 127,339.5C 131.709,334.959 136.209,330.292 140.5,325.5C 144.221,330.21 147.888,334.876 151.5,339.5 Z"/></g>
<g><path style="opacity:0.331" fill="#432e25" d="M 61.5,280.5 C 68.7666,281.794 74.7666,285.128 79.5,290.5C 81.1725,297.77 80.3391,304.77 77,311.5C 69.2737,324.286 62.607,337.619 57,351.5C 55.0879,363.505 57.4213,374.505 64,384.5C 65.3712,386.041 66.8712,387.375 68.5,388.5C 70.1667,389.833 71.8333,391.167 73.5,392.5C 72.5041,392.414 71.6708,392.748 71,393.5C 66.742,391.623 62.9087,389.123 59.5,386C 59.9574,385.586 60.2907,385.086 60.5,384.5C 59.2402,383.618 58.0736,382.618 57,381.5C 51.3186,369.687 50.652,357.02 55,343.5C 59.812,338.363 63.812,332.696 67,326.5C 67.3333,323.833 67.6667,321.167 68,318.5C 71.227,313.276 73.3936,307.609 74.5,301.5C 73.5697,299.895 73.5697,298.395 74.5,297C 72.6652,296.072 72.3318,294.906 73.5,293.5C 71.1592,291.329 68.6592,289.329 66,287.5C 64.9634,284.733 63.4634,282.399 61.5,280.5 Z"/></g>
<g><path style="opacity:0.937" fill="#a18f81" d="M 122.5,364.5 C 119.833,363.833 117.167,363.167 114.5,362.5C 114.445,359.386 113.112,357.052 110.5,355.5C 112.331,353.251 114.664,352.085 117.5,352C 119.854,355.895 121.52,360.061 122.5,364.5 Z"/></g>
<g><path style="opacity:0.491" fill="#452a1f" d="M 213.5,365.5 C 212.5,365.5 211.5,365.5 210.5,365.5C 208.154,362.321 205.321,359.654 202,357.5C 197.361,359.561 193.194,362.228 189.5,365.5C 188.5,365.5 187.5,365.5 186.5,365.5C 186.414,364.504 186.748,363.671 187.5,363C 191.043,361.392 194.043,359.058 196.5,356C 198.274,355.03 200.107,354.196 202,353.5C 206.049,357.238 209.882,361.238 213.5,365.5 Z"/></g>
<g><path style="opacity:0.489" fill="#422c20" d="M 142.5,356.5 C 145.138,359.474 147.805,362.474 150.5,365.5C 147.167,365.5 143.833,365.5 140.5,365.5C 141.167,362.5 141.833,359.5 142.5,356.5 Z"/></g>
<g><path style="opacity:0.482" fill="#3f2c23" d="M 110.5,355.5 C 113.112,357.052 114.445,359.386 114.5,362.5C 111.763,361.969 109.096,361.136 106.5,360C 105.748,359.329 105.414,358.496 105.5,357.5C 107.05,356.559 108.716,355.893 110.5,355.5 Z"/></g>
<g><path style="opacity:0.977" fill="#a49485" d="M 142.5,356.5 C 141.833,359.5 141.167,362.5 140.5,365.5C 136.629,365.815 132.962,365.482 129.5,364.5C 130.822,364.67 131.989,364.337 133,363.5C 134.731,359.705 136.731,356.038 139,352.5C 139.949,354.093 141.115,355.426 142.5,356.5 Z"/></g>
<g><path style="opacity:0.955" fill="#844b2a" d="M 210.5,365.5 C 208.833,365.5 207.167,365.5 205.5,365.5C 200.167,365.5 194.833,365.5 189.5,365.5C 193.194,362.228 197.361,359.561 202,357.5C 205.321,359.654 208.154,362.321 210.5,365.5 Z"/></g>
<g><path style="opacity:0.96" fill="#844a27" d="M 305.5,357.5 C 313.667,361.842 321.501,366.842 329,372.5C 329.333,378.833 329.667,385.167 330,391.5C 332.585,393.758 335.418,395.591 338.5,397C 340.122,398.295 341.455,399.795 342.5,401.5C 340.862,405.377 339.529,409.377 338.5,413.5C 333.456,413.173 328.456,413.506 323.5,414.5C 321.09,420.318 318.423,425.985 315.5,431.5C 311.217,432.492 306.884,432.826 302.5,432.5C 301.189,426.208 299.023,420.208 296,414.5C 291.879,413.861 287.713,413.195 283.5,412.5C 281.953,409.239 280.287,406.072 278.5,403C 281.628,399.834 285.128,397 289,394.5C 289.07,387.061 289.737,379.728 291,372.5C 295.398,366.998 300.231,361.998 305.5,357.5 Z"/></g>
<g><path style="opacity:0.957" fill="#5e6bed" d="M 234.5,287.5 C 240.676,289.236 247.01,290.57 253.5,291.5C 260.075,289.848 266.742,288.848 273.5,288.5C 273.667,315.835 273.5,343.169 273,370.5C 271.168,380.699 266.001,388.532 257.5,394C 246.549,395.35 235.549,395.85 224.5,395.5C 223.167,395.5 221.833,395.5 220.5,395.5C 219.402,394.603 219.402,393.77 220.5,393C 219.833,392.333 219.167,391.667 218.5,391C 220.592,390.047 220.925,388.714 219.5,387C 222.029,386.264 224.529,384.764 227,382.5C 227.442,384.679 228.442,385.345 230,384.5C 231.85,386.962 233.017,386.462 233.5,383C 233.167,382.667 232.833,382.333 232.5,382C 236.803,380.764 237.803,381.598 235.5,384.5C 236.33,386.135 236.497,387.802 236,389.5C 237.843,385.988 240.176,385.655 243,388.5C 245.255,387.958 247.088,386.791 248.5,385C 246.888,384.28 245.388,384.446 244,385.5C 242.244,383.726 242.244,382.059 244,380.5C 248.978,380.989 254.144,381.323 259.5,381.5C 259.67,380.178 259.337,379.011 258.5,378C 259.793,377.51 261.127,377.343 262.5,377.5C 262.5,376.5 262.5,375.5 262.5,374.5C 259.564,375.406 256.564,376.072 253.5,376.5C 253.336,373.813 253.503,371.146 254,368.5C 254.75,367.874 255.584,367.374 256.5,367C 254.754,366.529 253.087,365.862 251.5,365C 252.96,364.189 253.293,363.355 252.5,362.5C 251.231,364.18 249.564,365.347 247.5,366C 248.357,366.689 249.023,367.522 249.5,368.5C 245.607,369.815 241.607,370.482 237.5,370.5C 237.593,375.791 235.26,377.791 230.5,376.5C 228.16,378.671 225.494,380.338 222.5,381.5C 219.65,383.865 217.816,386.865 217,390.5C 215.295,389.237 213.628,388.903 212,389.5C 211.309,387.109 210.309,387.109 209,389.5C 207.601,388.773 206.101,388.273 204.5,388C 205.167,386.667 205.833,385.333 206.5,384C 208.578,384.032 210.578,383.866 212.5,383.5C 210.979,381.714 210.646,379.881 211.5,378C 211.833,377.833 212.167,377.667 212.5,377.5C 213.28,380.068 214.78,382.068 217,383.5C 217.5,383.333 218,383.167 218.5,383C 214.852,380.503 215.185,378.169 219.5,376C 218.549,375.282 218.383,374.449 219,373.5C 220.871,374.997 221.871,376.997 222,379.5C 223.356,378.62 224.856,378.286 226.5,378.5C 226.759,375.52 225.426,373.687 222.5,373C 223.126,372.25 223.626,371.416 224,370.5C 224.333,370.833 224.667,371.167 225,371.5C 225.37,369.336 226.204,367.336 227.5,365.5C 228.274,364.289 229.107,364.289 230,365.5C 231.037,362.616 232.871,361.95 235.5,363.5C 236.309,365.071 236.643,366.738 236.5,368.5C 239.845,368.674 241.012,367.341 240,364.5C 241.685,362.983 243.185,361.316 244.5,359.5C 243.655,356.588 241.988,355.588 239.5,356.5C 238.833,355.833 238.167,355.167 237.5,354.5C 236.479,356.188 235.145,357.521 233.5,358.5C 234.438,334.852 234.771,311.186 234.5,287.5 Z"/></g>
<g><path style="opacity:0.956" fill="#5e6cf1" d="M 95.5,254.5 C 97.3561,257.409 99.0227,260.409 100.5,263.5C 100.5,265.167 100.5,266.833 100.5,268.5C 100.369,281.506 100.036,294.506 99.5,307.5C 97.9638,320.281 97.6305,332.948 98.5,345.5C 98.7871,350.747 101.12,354.747 105.5,357.5C 105.414,358.496 105.748,359.329 106.5,360C 109.096,361.136 111.763,361.969 114.5,362.5C 117.167,363.167 119.833,363.833 122.5,364.5C 124.833,364.5 127.167,364.5 129.5,364.5C 132.962,365.482 136.629,365.815 140.5,365.5C 143.833,365.5 147.167,365.5 150.5,365.5C 152.5,365.5 154.5,365.5 156.5,365.5C 163.833,365.5 171.167,365.5 178.5,365.5C 181.167,365.5 183.833,365.5 186.5,365.5C 187.5,365.5 188.5,365.5 189.5,365.5C 194.833,365.5 200.167,365.5 205.5,365.5C 204.2,366.601 203.7,367.934 204,369.5C 204.741,368.359 205.575,368.359 206.5,369.5C 207.249,367.988 208.416,366.988 210,366.5C 210.382,367.828 211.549,369.161 213.5,370.5C 215.8,368.169 217.466,368.336 218.5,371C 214.32,372.794 209.986,372.96 205.5,371.5C 203.167,371.833 202.833,372.833 204.5,374.5C 201.43,378.79 199.097,378.456 197.5,373.5C 200.5,371.167 200.167,369.5 196.5,368.5C 195.808,369.025 195.308,369.692 195,370.5C 191.89,369.327 191.723,369.827 194.5,372C 193.833,372.333 193.167,372.667 192.5,373C 193.973,373.71 194.64,374.876 194.5,376.5C 189.498,376.384 184.831,376.718 180.5,377.5C 181.105,379.481 182.105,379.815 183.5,378.5C 184.795,379.098 186.128,379.598 187.5,380C 180.967,380.53 174.3,381.53 167.5,383C 165.126,385.039 163.126,387.372 161.5,390C 160.551,390.617 159.718,390.451 159,389.5C 157.691,391.891 156.691,391.891 156,389.5C 155.5,390 155,390.5 154.5,391C 156.167,392 157.833,393 159.5,394C 155.833,394.667 152.167,394.667 148.5,394C 149.167,393.667 149.833,393.333 150.5,393C 146.898,392.365 146.232,391.032 148.5,389C 147.914,387.427 146.747,385.927 145,384.5C 144.667,385.5 144.333,386.5 144,387.5C 142,386.833 140,386.167 138,385.5C 135.964,387.21 133.964,388.877 132,390.5C 130.348,390.14 128.682,389.807 127,389.5C 126.692,390.308 126.192,390.975 125.5,391.5C 123.868,390.703 122.368,389.703 121,388.5C 117.579,391.081 116.913,390.414 119,386.5C 119.414,386.957 119.914,387.291 120.5,387.5C 123.503,386.915 126.503,386.248 129.5,385.5C 128.624,384.749 127.624,384.249 126.5,384C 128.158,383.275 128.658,382.108 128,380.5C 126.294,381.308 125.461,382.641 125.5,384.5C 122.542,385.356 119.542,385.523 116.5,385C 114.561,385.908 113.561,387.408 113.5,389.5C 111.459,389.146 109.626,389.146 108,389.5C 107.46,387.865 107.96,386.532 109.5,385.5C 108.624,384.749 107.624,384.249 106.5,384C 107.696,383.346 107.696,382.846 106.5,382.5C 105.065,384.401 103.398,384.734 101.5,383.5C 98.5105,385.863 95.3439,387.863 92,389.5C 90.2297,388.937 88.2297,387.937 86,386.5C 85.6924,387.308 85.1924,387.975 84.5,388.5C 81.7589,384.676 82.7589,383.342 87.5,384.5C 89.124,383.131 89.624,381.464 89,379.5C 86.8692,381.544 84.3692,382.377 81.5,382C 81.9574,381.586 82.2907,381.086 82.5,380.5C 80.1567,379.275 78.3234,379.941 77,382.5C 76.3333,383.833 76.3333,385.167 77,386.5C 77.7175,385.549 78.5509,385.383 79.5,386C 79.0019,387.158 78.1685,387.991 77,388.5C 75.1209,388.961 72.2875,388.961 68.5,388.5C 66.8712,387.375 65.3712,386.041 64,384.5C 57.4213,374.505 55.0879,363.505 57,351.5C 62.607,337.619 69.2737,324.286 77,311.5C 80.3391,304.77 81.1725,297.77 79.5,290.5C 79.5792,289.07 79.2458,287.736 78.5,286.5C 79.8333,285.833 81.1667,285.167 82.5,284.5C 82.1667,283.5 81.5,282.833 80.5,282.5C 79.1861,283.313 78.0195,284.313 77,285.5C 76.187,283.564 75.687,281.564 75.5,279.5C 74.0222,279.762 72.6888,279.429 71.5,278.5C 72.325,277.614 73.325,277.281 74.5,277.5C 75.3203,273.842 73.9869,271.509 70.5,270.5C 72.9571,270.22 75.6238,269.553 78.5,268.5C 79.1667,268.833 79.8333,269.167 80.5,269.5C 84.4811,268.494 84.4811,267.494 80.5,266.5C 82.4841,265.294 84.4841,265.294 86.5,266.5C 87.3857,265.675 87.719,264.675 87.5,263.5C 90.7973,263.671 91.1306,263.005 88.5,261.5C 89.8681,259.363 90.8681,257.03 91.5,254.5C 92.1924,255.025 92.6924,255.692 93,256.5C 93.7083,255.619 94.5416,254.953 95.5,254.5 Z"/></g>
<g><path style="opacity:0.957" fill="#5e6ae8" d="M 220.5,395.5 C 205.167,395.5 189.833,395.5 174.5,395.5C 160.833,395.5 147.167,395.5 133.5,395.5C 119.5,395.5 105.5,395.5 91.5,395.5C 85.3611,395.272 79.3611,394.272 73.5,392.5C 71.8333,391.167 70.1667,389.833 68.5,388.5C 72.2875,388.961 75.1209,388.961 77,388.5C 78.1685,387.991 79.0019,387.158 79.5,386C 78.5509,385.383 77.7175,385.549 77,386.5C 76.3333,385.167 76.3333,383.833 77,382.5C 78.3234,379.941 80.1567,379.275 82.5,380.5C 82.2907,381.086 81.9574,381.586 81.5,382C 84.3692,382.377 86.8692,381.544 89,379.5C 89.624,381.464 89.124,383.131 87.5,384.5C 82.7589,383.342 81.7589,384.676 84.5,388.5C 85.1924,387.975 85.6924,387.308 86,386.5C 88.2297,387.937 90.2297,388.937 92,389.5C 95.3439,387.863 98.5105,385.863 101.5,383.5C 103.398,384.734 105.065,384.401 106.5,382.5C 107.696,382.846 107.696,383.346 106.5,384C 107.624,384.249 108.624,384.749 109.5,385.5C 107.96,386.532 107.46,387.865 108,389.5C 109.626,389.146 111.459,389.146 113.5,389.5C 113.561,387.408 114.561,385.908 116.5,385C 119.542,385.523 122.542,385.356 125.5,384.5C 125.461,382.641 126.294,381.308 128,380.5C 128.658,382.108 128.158,383.275 126.5,384C 127.624,384.249 128.624,384.749 129.5,385.5C 126.503,386.248 123.503,386.915 120.5,387.5C 119.914,387.291 119.414,386.957 119,386.5C 116.913,390.414 117.579,391.081 121,388.5C 122.368,389.703 123.868,390.703 125.5,391.5C 126.192,390.975 126.692,390.308 127,389.5C 128.682,389.807 130.348,390.14 132,390.5C 133.964,388.877 135.964,387.21 138,385.5C 140,386.167 142,386.833 144,387.5C 144.333,386.5 144.667,385.5 145,384.5C 146.747,385.927 147.914,387.427 148.5,389C 146.232,391.032 146.898,392.365 150.5,393C 149.833,393.333 149.167,393.667 148.5,394C 152.167,394.667 155.833,394.667 159.5,394C 157.833,393 156.167,392 154.5,391C 155,390.5 155.5,390 156,389.5C 156.691,391.891 157.691,391.891 159,389.5C 159.718,390.451 160.551,390.617 161.5,390C 163.126,387.372 165.126,385.039 167.5,383C 174.3,381.53 180.967,380.53 187.5,380C 186.128,379.598 184.795,379.098 183.5,378.5C 182.105,379.815 181.105,379.481 180.5,377.5C 184.831,376.718 189.498,376.384 194.5,376.5C 194.64,374.876 193.973,373.71 192.5,373C 193.167,372.667 193.833,372.333 194.5,372C 191.723,369.827 191.89,369.327 195,370.5C 195.308,369.692 195.808,369.025 196.5,368.5C 200.167,369.5 200.5,371.167 197.5,373.5C 199.097,378.456 201.43,378.79 204.5,374.5C 202.833,372.833 203.167,371.833 205.5,371.5C 209.986,372.96 214.32,372.794 218.5,371C 217.466,368.336 215.8,368.169 213.5,370.5C 211.549,369.161 210.382,367.828 210,366.5C 208.416,366.988 207.249,367.988 206.5,369.5C 205.575,368.359 204.741,368.359 204,369.5C 203.7,367.934 204.2,366.601 205.5,365.5C 207.167,365.5 208.833,365.5 210.5,365.5C 211.5,365.5 212.5,365.5 213.5,365.5C 215.167,365.5 216.833,365.5 218.5,365.5C 222.263,365.143 225.93,364.31 229.5,363C 230.328,361.008 231.661,359.508 233.5,358.5C 235.145,357.521 236.479,356.188 237.5,354.5C 238.167,355.167 238.833,355.833 239.5,356.5C 241.988,355.588 243.655,356.588 244.5,359.5C 243.185,361.316 241.685,362.983 240,364.5C 241.012,367.341 239.845,368.674 236.5,368.5C 236.643,366.738 236.309,365.071 235.5,363.5C 232.871,361.95 231.037,362.616 230,365.5C 229.107,364.289 228.274,364.289 227.5,365.5C 226.204,367.336 225.37,369.336 225,371.5C 224.667,371.167 224.333,370.833 224,370.5C 223.626,371.416 223.126,372.25 222.5,373C 225.426,373.687 226.759,375.52 226.5,378.5C 224.856,378.286 223.356,378.62 222,379.5C 221.871,376.997 220.871,374.997 219,373.5C 218.383,374.449 218.549,375.282 219.5,376C 215.185,378.169 214.852,380.503 218.5,383C 218,383.167 217.5,383.333 217,383.5C 214.78,382.068 213.28,380.068 212.5,377.5C 212.167,377.667 211.833,377.833 211.5,378C 210.646,379.881 210.979,381.714 212.5,383.5C 210.578,383.866 208.578,384.032 206.5,384C 205.833,385.333 205.167,386.667 204.5,388C 206.101,388.273 207.601,388.773 209,389.5C 210.309,387.109 211.309,387.109 212,389.5C 213.628,388.903 215.295,389.237 217,390.5C 217.816,386.865 219.65,383.865 222.5,381.5C 225.494,380.338 228.16,378.671 230.5,376.5C 235.26,377.791 237.593,375.791 237.5,370.5C 241.607,370.482 245.607,369.815 249.5,368.5C 249.023,367.522 248.357,366.689 247.5,366C 249.564,365.347 251.231,364.18 252.5,362.5C 253.293,363.355 252.96,364.189 251.5,365C 253.087,365.862 254.754,366.529 256.5,367C 255.584,367.374 254.75,367.874 254,368.5C 253.503,371.146 253.336,373.813 253.5,376.5C 256.564,376.072 259.564,375.406 262.5,374.5C 262.5,375.5 262.5,376.5 262.5,377.5C 261.127,377.343 259.793,377.51 258.5,378C 259.337,379.011 259.67,380.178 259.5,381.5C 254.144,381.323 248.978,380.989 244,380.5C 242.244,382.059 242.244,383.726 244,385.5C 245.388,384.446 246.888,384.28 248.5,385C 247.088,386.791 245.255,387.958 243,388.5C 240.176,385.655 237.843,385.988 236,389.5C 236.497,387.802 236.33,386.135 235.5,384.5C 237.803,381.598 236.803,380.764 232.5,382C 232.833,382.333 233.167,382.667 233.5,383C 233.017,386.462 231.85,386.962 230,384.5C 228.442,385.345 227.442,384.679 227,382.5C 224.529,384.764 222.029,386.264 219.5,387C 220.925,388.714 220.592,390.047 218.5,391C 219.167,391.667 219.833,392.333 220.5,393C 219.402,393.77 219.402,394.603 220.5,395.5 Z"/></g>
<g><path style="opacity:0.951" fill="#9d8c7e" d="M 91.5,395.5 C 105.5,395.5 119.5,395.5 133.5,395.5C 131.599,397.796 129.266,399.629 126.5,401C 113.504,401.5 100.504,401.667 87.5,401.5C 85.8008,401.66 84.1341,401.494 82.5,401C 85.752,399.434 88.752,397.601 91.5,395.5 Z"/></g>
<g><path style="opacity:0.747" fill="#958475" d="M 395.5,353.5 C 395.5,353.833 395.5,354.167 395.5,354.5C 395.057,363.608 395.557,372.608 397,381.5C 406.107,388.302 415.607,394.468 425.5,400C 410.167,400.667 394.833,400.667 379.5,400C 374.191,398.017 371.024,394.184 370,388.5C 369.456,376.499 368.956,364.499 368.5,352.5C 369.496,352.414 370.329,352.748 371,353.5C 373.504,359.853 377.004,365.519 381.5,370.5C 385.343,364.143 389.176,357.81 393,351.5C 393.708,352.381 394.542,353.047 395.5,353.5 Z"/></g>
<g><path style="opacity:0.931" fill="#a09485" d="M 167.5,413.5 C 161.499,414.643 155.499,414.643 149.5,413.5C 152.188,411.479 154.521,409.146 156.5,406.5C 158.186,404.984 160.019,403.65 162,402.5C 164.885,405.603 166.718,409.27 167.5,413.5 Z"/></g>
<g><path style="opacity:0.978" fill="#aa9f90" d="M 279.5,411.5 C 277.257,412.812 274.59,413.478 271.5,413.5C 268.833,413.333 266.167,413.167 263.5,413C 264.381,412.292 265.047,411.458 265.5,410.5C 268.297,408.205 270.964,405.705 273.5,403C 274.448,402.517 275.448,402.351 276.5,402.5C 277.213,405.594 278.213,408.594 279.5,411.5 Z"/></g>
<g><path style="opacity:0.784" fill="#9a8e7e" d="M 242.5,410.5 C 242.953,411.458 243.619,412.292 244.5,413C 241.833,413.167 239.167,413.333 236.5,413.5C 233.41,413.478 230.743,412.812 228.5,411.5C 229.397,408.035 231.064,405.035 233.5,402.5C 236.52,405.189 239.52,407.856 242.5,410.5 Z"/></g>
<g><path style="opacity:0.845" fill="#814927" d="M 174.5,395.5 C 189.833,395.5 205.167,395.5 220.5,395.5C 221.833,395.5 223.167,395.5 224.5,395.5C 225.957,397.785 227.957,399.618 230.5,401C 228.161,404.491 226.495,408.325 225.5,412.5C 220.868,413.328 216.202,413.828 211.5,414C 208.811,419.879 205.977,425.712 203,431.5C 198.667,432.833 194.333,432.833 190,431.5C 188.08,425.403 185.58,419.57 182.5,414C 178.459,413.827 174.459,413.327 170.5,412.5C 168.833,409.167 167.167,405.833 165.5,402.5C 168.431,399.987 171.431,397.654 174.5,395.5 Z"/></g>
<g><path style="opacity:0.816" fill="#9e9282" d="M 357.5,412.5 C 352.025,413.489 346.358,413.822 340.5,413.5C 341.861,409.573 343.695,405.906 346,402.5C 350.015,405.685 353.848,409.018 357.5,412.5 Z"/></g>
<g><path style="opacity:0.951" fill="#9f8f81" d="M 303.5,435.5 C 307.5,435.5 311.5,435.5 315.5,435.5C 314.367,442.655 312.534,449.655 310,456.5C 307.528,449.583 305.361,442.583 303.5,435.5 Z"/></g>
<g><path style="opacity:0.91" fill="#9d8c7e" d="M 202.5,440.5 C 200.608,445.671 198.775,451.005 197,456.5C 195.666,451.195 193.833,446.195 191.5,441.5C 190.85,439.565 190.517,437.565 190.5,435.5C 194.833,435.5 199.167,435.5 203.5,435.5C 203.371,437.216 203.038,438.883 202.5,440.5 Z"/></g>
<g><path style="opacity:0.008" fill="#503d28" d="M 205.5,466.5 C 206.833,467.167 206.833,467.167 205.5,466.5 Z"/></g>
</svg>
