<?xml version="1.0" encoding="UTF-8"?>
<!DOCTYPE svg PUBLIC "-//W3C//DTD SVG 1.1//EN" "http://www.w3.org/Graphics/SVG/1.1/DTD/svg11.dtd">
<svg xmlns="http://www.w3.org/2000/svg" version="1.1" width="50px" height="50px" style="shape-rendering:geometricPrecision; text-rendering:geometricPrecision; image-rendering:optimizeQuality; fill-rule:evenodd; clip-rule:evenodd" xmlns:xlink="http://www.w3.org/1999/xlink">
<g><path style="opacity:1" fill="#000000" d="M 14.5,2.5 C 21.1998,2.16998 27.8665,2.50331 34.5,3.5C 36.1932,4.22833 37.6932,5.22833 39,6.5C 39.6667,10.8333 39.6667,15.1667 39,19.5C 38.3333,20.1667 37.6667,20.8333 37,21.5C 36.265,29.9264 36.765,38.2597 38.5,46.5C 29.8333,46.5 21.1667,46.5 12.5,46.5C 13.2128,42.3676 13.8795,38.2009 14.5,34C 14.3333,31.8333 14.1667,29.6667 14,27.5C 8.84925,23.0791 7.01592,17.4124 8.5,10.5C 10.5,10.5 12.5,10.5 14.5,10.5C 14.5,7.83333 14.5,5.16667 14.5,2.5 Z"/></g>
<g><path style="opacity:1" fill="#beb7be" d="M 16.5,4.5 C 17.8333,4.5 19.1667,4.5 20.5,4.5C 20.5,8.5 20.5,12.5 20.5,16.5C 19.1667,16.5 17.8333,16.5 16.5,16.5C 16.5,12.5 16.5,8.5 16.5,4.5 Z"/></g>
<g><path style="opacity:1" fill="#beb7be" d="M 22.5,4.5 C 23.8333,4.5 25.1667,4.5 26.5,4.5C 26.5,8.5 26.5,12.5 26.5,16.5C 25.1667,16.5 23.8333,16.5 22.5,16.5C 22.5,12.5 22.5,8.5 22.5,4.5 Z"/></g>
<g><path style="opacity:1" fill="#beb7be" d="M 28.5,4.5 C 29.8333,4.5 31.1667,4.5 32.5,4.5C 32.5,8.5 32.5,12.5 32.5,16.5C 31.1667,16.5 29.8333,16.5 28.5,16.5C 28.5,12.5 28.5,8.5 28.5,4.5 Z"/></g>
<g><path style="opacity:1" fill="#aba4ab" d="M 34.5,6.5 C 35.4959,6.41423 36.3292,6.74756 37,7.5C 37.8236,10.8823 37.657,14.2156 36.5,17.5C 35.914,17.2907 35.414,16.9574 35,16.5C 34.5017,13.1832 34.335,9.8499 34.5,6.5 Z"/></g>
<g><path style="opacity:1" fill="#aca6ac" d="M 10.5,12.5 C 11.8333,12.5 13.1667,12.5 14.5,12.5C 14.6655,16.5138 14.4988,20.5138 14,24.5C 10.7838,21.2258 9.61709,17.2258 10.5,12.5 Z"/></g>
<g><path style="opacity:1" fill="#cfc9cf" d="M 16.5,18.5 C 22.5,18.5 28.5,18.5 34.5,18.5C 34.5,20.8333 34.5,23.1667 34.5,25.5C 28.5,25.5 22.5,25.5 16.5,25.5C 16.5,23.1667 16.5,20.8333 16.5,18.5 Z"/></g>
<g><path style="opacity:1" fill="#000000" d="M 18.5,19.5 C 22.869,20.5352 27.2024,20.5352 31.5,19.5C 34.1667,20.8333 34.1667,22.1667 31.5,23.5C 27.5,22.1667 23.5,22.1667 19.5,23.5C 17.3576,22.5629 17.0243,21.2296 18.5,19.5 Z"/></g>
<g><path style="opacity:1" fill="#ccc6cc" d="M 16.5,27.5 C 22.5,27.5 28.5,27.5 34.5,27.5C 34.5,28.5 34.5,29.5 34.5,30.5C 28.5,30.5 22.5,30.5 16.5,30.5C 16.5,29.5 16.5,28.5 16.5,27.5 Z"/></g>
<g><path style="opacity:1" fill="#ccc6cc" d="M 16.5,32.5 C 22.5,32.5 28.5,32.5 34.5,32.5C 34.5,35.1667 34.5,37.8333 34.5,40.5C 28.5,40.5 22.5,40.5 16.5,40.5C 16.5,37.8333 16.5,35.1667 16.5,32.5 Z"/></g>
<g><path style="opacity:1" fill="#000000" d="M 18.5,33.5 C 22.869,34.5352 27.2024,34.5352 31.5,33.5C 34.1667,34.8333 34.1667,36.1667 31.5,37.5C 27.5,36.1667 23.5,36.1667 19.5,37.5C 17.3576,36.5629 17.0243,35.2296 18.5,33.5 Z"/></g>
<g><path style="opacity:1" fill="#cdc6cd" d="M 14.5,42.5 C 21.8635,42.1694 29.1968,42.5027 36.5,43.5C 32.8333,43.8333 29.1667,44.1667 25.5,44.5C 21.4348,44.4888 17.7681,43.8222 14.5,42.5 Z"/></g>
</svg>
