<?xml version="1.0" encoding="UTF-8"?>
<!DOCTYPE svg PUBLIC "-//W3C//DTD SVG 1.1//EN" "http://www.w3.org/Graphics/SVG/1.1/DTD/svg11.dtd">
<svg xmlns="http://www.w3.org/2000/svg" version="1.1" width="50px" height="50px" style="shape-rendering:geometricPrecision; text-rendering:geometricPrecision; image-rendering:optimizeQuality; fill-rule:evenodd; clip-rule:evenodd" xmlns:xlink="http://www.w3.org/1999/xlink">
<g><path style="opacity:1" fill="#000000" d="M 18.5,2.5 C 26.5,2.5 34.5,2.5 42.5,2.5C 40.765,10.7403 40.265,19.0736 41,27.5C 48.1141,33.5115 48.2808,39.6782 41.5,46C 29.1667,46.6667 16.8333,46.6667 4.5,46C 4,45.5 3.5,45 3,44.5C 2.33333,39.8333 2.33333,35.1667 3,30.5C 3.5,30 4,29.5 4.5,29C 9.82294,28.5006 15.1563,28.334 20.5,28.5C 20.7565,19.7372 20.0898,11.0706 18.5,2.5 Z"/></g>
<g><path style="opacity:1" fill="#cdc6cd" d="M 20.5,4.5 C 27.1998,4.16998 33.8665,4.50331 40.5,5.5C 37.1667,5.83333 33.8333,6.16667 30.5,6.5C 26.7614,6.48638 23.428,5.81972 20.5,4.5 Z"/></g>
<g><path style="opacity:1" fill="#c9c2c9" d="M 22.5,8.5 C 27.8333,8.5 33.1667,8.5 38.5,8.5C 38.5,10.8333 38.5,13.1667 38.5,15.5C 33.1667,15.5 27.8333,15.5 22.5,15.5C 22.5,13.1667 22.5,10.8333 22.5,8.5 Z"/></g>
<g><path style="opacity:1" fill="#000000" d="M 24.5,9.5 C 28.1766,9.66169 31.8433,9.66169 35.5,9.5C 38.1667,10.8333 38.1667,12.1667 35.5,13.5C 32.1667,13.5 28.8333,13.5 25.5,13.5C 23.3576,12.5629 23.0243,11.2296 24.5,9.5 Z"/></g>
<g><path style="opacity:1" fill="#c8c2c8" d="M 22.5,17.5 C 27.8333,17.5 33.1667,17.5 38.5,17.5C 38.5,20.1667 38.5,22.8333 38.5,25.5C 33.1667,25.5 27.8333,25.5 22.5,25.5C 22.5,22.8333 22.5,20.1667 22.5,17.5 Z"/></g>
<g><path style="opacity:1" fill="#000000" d="M 24.5,19.5 C 28.1766,19.6617 31.8433,19.6617 35.5,19.5C 38.1667,20.8333 38.1667,22.1667 35.5,23.5C 32.1667,23.5 28.8333,23.5 25.5,23.5C 23.3576,22.5629 23.0243,21.2296 24.5,19.5 Z"/></g>
<g><path style="opacity:1" fill="#d3cdd3" d="M 36.5,27.5 C 34.5422,32.5431 33.5422,37.8764 33.5,43.5C 31.2646,43.2053 29.2646,43.5386 27.5,44.5C 26.5206,41.3752 26.1872,38.0419 26.5,34.5C 25.1667,34.5 23.8333,34.5 22.5,34.5C 22.5,32.1667 22.5,29.8333 22.5,27.5C 27.1667,27.5 31.8333,27.5 36.5,27.5 Z"/></g>
<g><path style="opacity:1" fill="#9b969b" d="M 36.5,27.5 C 39.2963,30.7418 38.7963,33.7418 35,36.5C 34.5026,39.146 34.3359,41.8127 34.5,44.5C 32.1667,44.5 29.8333,44.5 27.5,44.5C 29.2646,43.5386 31.2646,43.2053 33.5,43.5C 33.5422,37.8764 34.5422,32.5431 36.5,27.5 Z"/></g>
<g><path style="opacity:1" fill="#ada7ad" d="M 5.5,30.5 C 7.83333,30.5 10.1667,30.5 12.5,30.5C 12.5,35.1667 12.5,39.8333 12.5,44.5C 9.60347,44.8747 6.93681,44.3747 4.5,43C 10.8798,42.5031 10.8798,41.3364 4.5,39.5C 10.9462,38.5795 10.9462,37.2462 4.5,35.5C 11.0276,34.5165 11.0276,33.3498 4.5,32C 5.05596,31.6174 5.38929,31.1174 5.5,30.5 Z"/></g>
<g><path style="opacity:1" fill="#e9e6e9" d="M 20.5,31.5 C 19.8333,31.5 19.5,31.8333 19.5,32.5C 17.7704,31.0243 16.4371,31.3576 15.5,33.5C 15.8571,36.8588 16.1905,40.1922 16.5,43.5C 15.8333,43.5 15.5,43.8333 15.5,44.5C 14.5139,40.03 14.1805,35.3633 14.5,30.5C 16.7354,30.2053 18.7354,30.5386 20.5,31.5 Z"/></g>
<g><path style="opacity:1" fill="#000000" d="M 19.5,32.5 C 19.2018,35.5353 19.2018,38.5353 19.5,41.5C 18.9953,42.9185 17.9953,43.5852 16.5,43.5C 16.1905,40.1922 15.8571,36.8588 15.5,33.5C 16.4371,31.3576 17.7704,31.0243 19.5,32.5 Z"/></g>
<g><path style="opacity:1" fill="#a6a0a6" d="M 20.5,31.5 C 20.5,35.8333 20.5,40.1667 20.5,44.5C 18.8333,44.5 17.1667,44.5 15.5,44.5C 15.5,43.8333 15.8333,43.5 16.5,43.5C 17.9953,43.5852 18.9953,42.9185 19.5,41.5C 19.2018,38.5353 19.2018,35.5353 19.5,32.5C 19.5,31.8333 19.8333,31.5 20.5,31.5 Z"/></g>
<g><path style="opacity:1" fill="#a49ea4" d="M 40.5,30.5 C 45.8142,34.8762 45.8142,39.3762 40.5,44C 39.2068,44.49 37.8734,44.6567 36.5,44.5C 35.7153,40.4037 36.882,37.0704 40,34.5C 40.49,33.2068 40.6567,31.8734 40.5,30.5 Z"/></g>
<g><path style="opacity:1" fill="#9b969b" d="M 22.5,36.5 C 23.7479,37.3339 24.4146,38.6672 24.5,40.5C 24.1667,41.8333 23.8333,43.1667 23.5,44.5C 22.52,41.9135 22.1866,39.2469 22.5,36.5 Z"/></g>
</svg>
