<?xml version="1.0" encoding="UTF-8"?>
<!DOCTYPE svg PUBLIC "-//W3C//DTD SVG 1.1//EN" "http://www.w3.org/Graphics/SVG/1.1/DTD/svg11.dtd">
<svg xmlns="http://www.w3.org/2000/svg" version="1.1" width="283px" height="303px" style="shape-rendering:geometricPrecision; text-rendering:geometricPrecision; image-rendering:optimizeQuality; fill-rule:evenodd; clip-rule:evenodd" xmlns:xlink="http://www.w3.org/1999/xlink">
<g><path style="opacity:0.942" fill="#0b0608" d="M 246.5,-0.5 C 247.5,-0.5 248.5,-0.5 249.5,-0.5C 263.672,10.1321 273.172,24.1321 278,41.5C 279.731,48.5897 281.231,55.5897 282.5,62.5C 282.5,73.1667 282.5,83.8333 282.5,94.5C 276.528,121.751 262.028,143.417 239,159.5C 238.501,163.821 238.334,168.154 238.5,172.5C 233.429,173.69 228.429,175.19 223.5,177C 198.333,202.833 173.167,228.667 148,254.5C 146.371,260.318 144.871,266.151 143.5,272C 136.774,276.03 129.774,279.53 122.5,282.5C 117.116,289.043 110.45,293.876 102.5,297C 95.1766,299.425 87.8433,301.258 80.5,302.5C 69.5,302.5 58.5,302.5 47.5,302.5C 29.7314,300.202 15.5647,291.869 5,277.5C 2.84209,272.841 1.00876,268.175 -0.5,263.5C -0.5,256.833 -0.5,250.167 -0.5,243.5C 1.35916,235.782 4.85916,228.782 10,222.5C 11.0313,216.516 11.8646,210.516 12.5,204.5C 18.5045,203.998 24.5045,203.832 30.5,204C 32.625,207.082 34.625,210.249 36.5,213.5C 40.0447,214.791 43.5447,214.791 47,213.5C 49.0719,210.029 50.5719,206.362 51.5,202.5C 57.5,202.5 63.5,202.5 69.5,202.5C 70.0924,212.916 73.7591,222.083 80.5,230C 84.4463,231.324 88.4463,231.991 92.5,232C 95.724,227.703 99.0574,223.536 102.5,219.5C 108.792,220.608 115.125,221.108 121.5,221C 146.333,196.833 171.167,172.667 196,148.5C 196.516,142.782 196.516,137.115 196,131.5C 202.172,129.748 208.339,127.914 214.5,126C 223.782,108.156 230.282,89.3225 234,69.5C 238.497,46.1798 242.664,22.8465 246.5,-0.5 Z"/></g>
<g><path style="opacity:0.941" fill="#0a0507" d="M 41.5,19.5 C 52.1874,19.168 62.8541,19.5013 73.5,20.5C 81.9886,40.7979 89.6553,40.4645 96.5,19.5C 107.167,19.5 117.833,19.5 128.5,19.5C 126.828,33.0164 122.661,45.6831 116,57.5C 112.667,60.8333 109.333,64.1667 106,67.5C 105.179,70.5541 105.345,73.5541 106.5,76.5C 117.745,80.702 127.579,87.0354 136,95.5C 138.931,101.482 140.597,107.815 141,114.5C 141.667,126.167 141.667,137.833 141,149.5C 140.226,157.038 138.559,164.372 136,171.5C 134.533,174.266 132.7,176.766 130.5,179C 102.806,198.446 74.4723,199.446 45.5,182C 39.5123,177.195 35.6789,171.028 34,163.5C 29.1091,141.841 28.7758,120.175 33,98.5C 39.5502,88.2993 48.7168,81.466 60.5,78C 62.74,77.023 65.0733,76.523 67.5,76.5C 67.8174,73.4281 67.4841,70.4281 66.5,67.5C 58.4152,63.2482 52.5819,56.9149 49,48.5C 45.4012,39.1046 42.9012,29.4379 41.5,19.5 Z"/></g>
<g><path style="opacity:1" fill="#fbfbfb" d="M 252.5,20.5 C 267.062,33.6628 273.729,50.1628 272.5,70C 273.26,104.119 260.093,131.286 233,151.5C 230.63,148.961 228.13,146.628 225.5,144.5C 238.397,126.699 247.564,107.033 253,85.5C 256.719,64.5512 256.219,43.7179 251.5,23C 251.528,21.9302 251.861,21.0968 252.5,20.5 Z"/></g>
<g><path style="opacity:1" fill="#929292" d="M 252.5,20.5 C 251.861,21.0968 251.528,21.9302 251.5,23C 256.219,43.7179 256.719,64.5512 253,85.5C 247.564,107.033 238.397,126.699 225.5,144.5C 223.037,142.539 220.703,140.372 218.5,138C 231.66,119.87 240.16,99.7036 244,77.5C 246.963,58.1999 249.463,38.8666 251.5,19.5C 252.107,19.6236 252.44,19.9569 252.5,20.5 Z"/></g>
<g><path style="opacity:1" fill="#919191" d="M 93.5,60.5 C 92.5206,63.6248 92.1872,66.9581 92.5,70.5C 87.8333,70.5 83.1667,70.5 78.5,70.5C 78.665,67.1501 78.4983,63.8168 78,60.5C 65.0236,54.742 56.8569,44.9087 53.5,31C 57.5,30.3333 61.5,30.3333 65.5,31C 78.9236,53.0896 91.9236,52.7563 104.5,30C 108.821,29.501 113.154,29.3343 117.5,29.5C 114.135,37.2226 109.969,44.5559 105,51.5C 101.864,55.4784 98.0306,58.4784 93.5,60.5 Z"/></g>
<g><path style="opacity:1" fill="#424242" d="M 93.5,60.5 C 93.5,67.5 93.5,74.5 93.5,81.5C 88.5,81.5 83.5,81.5 78.5,81.5C 78.5,77.8333 78.5,74.1667 78.5,70.5C 83.1667,70.5 87.8333,70.5 92.5,70.5C 92.1872,66.9581 92.5206,63.6248 93.5,60.5 Z"/></g>
<g><path style="opacity:1" fill="#919191" d="M 78.5,81.5 C 83.5,81.5 88.5,81.5 93.5,81.5C 103.672,85.1674 112.839,90.5007 121,97.5C 121.464,98.0944 121.631,98.7611 121.5,99.5C 116.5,99.5 111.5,99.5 106.5,99.5C 92.5,99.5 78.5,99.5 64.5,99.5C 59.5,99.5 54.5,99.5 49.5,99.5C 51.2629,95.9012 53.9295,93.0678 57.5,91C 64.2841,87.2731 71.2841,84.1064 78.5,81.5 Z"/></g>
<g><path style="opacity:1" fill="#404040" d="M 49.5,99.5 C 54.5,99.5 59.5,99.5 64.5,99.5C 64.5,102.833 64.5,106.167 64.5,109.5C 59.5,109.5 54.5,109.5 49.5,109.5C 49.5,106.167 49.5,102.833 49.5,99.5 Z"/></g>
<g><path style="opacity:1" fill="#090406" d="M 64.5,99.5 C 78.5,99.5 92.5,99.5 106.5,99.5C 106.5,102.833 106.5,106.167 106.5,109.5C 106.167,109.5 105.833,109.5 105.5,109.5C 91.8333,109.5 78.1667,109.5 64.5,109.5C 64.5,106.167 64.5,102.833 64.5,99.5 Z"/></g>
<g><path style="opacity:1" fill="#464646" d="M 106.5,99.5 C 111.5,99.5 116.5,99.5 121.5,99.5C 121.5,102.833 121.5,106.167 121.5,109.5C 124.833,109.5 128.167,109.5 131.5,109.5C 131.5,110.5 131.5,111.5 131.5,112.5C 128.169,110.702 124.502,110.036 120.5,110.5C 115.637,110.819 110.97,110.486 106.5,109.5C 106.5,106.167 106.5,102.833 106.5,99.5 Z"/></g>
<g><path style="opacity:1" fill="#696969" d="M 49.5,109.5 C 54.5,109.5 59.5,109.5 64.5,109.5C 64.5,109.833 64.5,110.167 64.5,110.5C 59.8333,110.5 55.1667,110.5 50.5,110.5C 47.5,110.5 44.5,110.5 41.5,110.5C 41.7373,111.791 41.404,112.791 40.5,113.5C 40.5,112.167 40.5,110.833 40.5,109.5C 43.5,109.5 46.5,109.5 49.5,109.5 Z"/></g>
<g><path style="opacity:1" fill="#c2c1c1" d="M 64.5,109.5 C 78.1667,109.5 91.8333,109.5 105.5,109.5C 105.5,109.833 105.5,110.167 105.5,110.5C 91.9895,110.171 78.6562,110.504 65.5,111.5C 64.8333,111.5 64.5,111.167 64.5,110.5C 64.5,110.167 64.5,109.833 64.5,109.5 Z"/></g>
<g><path style="opacity:1" fill="#c2c0c0" d="M 50.5,110.5 C 54.9904,116.804 59.4904,123.137 64,129.5C 69.2352,134.979 74.2352,140.646 79,146.5C 79.4999,158.495 79.6665,170.495 79.5,182.5C 78.1667,182.5 76.8333,182.5 75.5,182.5C 63.9534,180.81 54.1201,175.81 46,167.5C 43.2056,162.536 41.5389,157.203 41,151.5C 40.5001,138.838 40.3334,126.171 40.5,113.5C 41.404,112.791 41.7373,111.791 41.5,110.5C 44.5,110.5 47.5,110.5 50.5,110.5 Z"/></g>
<g><path style="opacity:1" fill="#949494" d="M 105.5,109.5 C 105.833,109.5 106.167,109.5 106.5,109.5C 110.97,110.486 115.637,110.819 120.5,110.5C 111.731,123.015 102.231,135.015 92,146.5C 91.5001,158.495 91.3335,170.495 91.5,182.5C 92.5,182.5 93.5,182.5 94.5,182.5C 88.1667,183.833 81.8333,183.833 75.5,182.5C 76.8333,182.5 78.1667,182.5 79.5,182.5C 79.6665,170.495 79.4999,158.495 79,146.5C 74.2352,140.646 69.2352,134.979 64,129.5C 59.4904,123.137 54.9904,116.804 50.5,110.5C 55.1667,110.5 59.8333,110.5 64.5,110.5C 64.5,111.167 64.8333,111.5 65.5,111.5C 67.8373,114.681 70.004,118.014 72,121.5C 76.0483,125.055 80.2149,128.389 84.5,131.5C 93.8254,126.841 100.825,119.841 105.5,110.5C 105.5,110.167 105.5,109.833 105.5,109.5 Z"/></g>
<g><path style="opacity:1" fill="#fdfdfd" d="M 105.5,110.5 C 100.825,119.841 93.8254,126.841 84.5,131.5C 80.2149,128.389 76.0483,125.055 72,121.5C 70.004,118.014 67.8373,114.681 65.5,111.5C 78.6562,110.504 91.9895,110.171 105.5,110.5 Z"/></g>
<g><path style="opacity:1" fill="#c2c0c0" d="M 120.5,110.5 C 124.502,110.036 128.169,110.702 131.5,112.5C 132.051,127.26 131.218,141.927 129,156.5C 127.864,160.243 126.53,163.91 125,167.5C 116.338,175.449 106.171,180.449 94.5,182.5C 93.5,182.5 92.5,182.5 91.5,182.5C 91.3335,170.495 91.5001,158.495 92,146.5C 102.231,135.015 111.731,123.015 120.5,110.5 Z"/></g>
<g><path style="opacity:1" fill="#8e8c8d" d="M 203.5,143.5 C 206.187,143.336 208.854,143.503 211.5,144C 216,148.5 220.5,153 225,157.5C 224.9,160.306 224.067,162.972 222.5,165.5C 215.442,162.959 209.609,158.626 205,152.5C 204.498,149.487 203.998,146.487 203.5,143.5 Z"/></g>
<g><path style="opacity:1" fill="#c1bebf" d="M 199.5,162.5 C 204.179,164.608 208.345,167.608 212,171.5C 187.843,197.997 162.843,223.997 137,249.5C 133.333,245.5 129.667,241.5 126,237.5C 125.333,236.5 125.333,235.5 126,234.5C 150.7,210.633 175.2,186.633 199.5,162.5 Z"/></g>
<g><path style="opacity:1" fill="#bfbdbe" d="M 70.5,238.5 C 59.591,229.954 47.2576,227.121 33.5,230C 16.2427,233.584 8.74267,244.084 11,261.5C 12.441,266.885 13.941,272.218 15.5,277.5C 9.29079,271.212 6.62412,263.545 7.5,254.5C 6.49647,245.853 9.32981,238.853 16,233.5C 17.0797,227.861 17.913,222.195 18.5,216.5C 20.924,216.192 23.2573,216.526 25.5,217.5C 26.6667,220.5 27.8333,223.5 29,226.5C 29.7247,227.059 30.5581,227.392 31.5,227.5C 37.8327,226.911 44.166,226.245 50.5,225.5C 51.915,221.591 52.915,217.591 53.5,213.5C 56.2377,213.851 58.9044,214.518 61.5,215.5C 62.896,220.096 64.0627,224.763 65,229.5C 67.3578,232.222 69.1911,235.222 70.5,238.5 Z"/></g>
<g><path style="opacity:1" fill="#fcfcfc" d="M 70.5,238.5 C 71.8366,239.315 72.8366,240.482 73.5,242C 79.8946,243.798 86.2279,245.798 92.5,248C 94.4641,249.451 95.7974,251.284 96.5,253.5C 97.4617,256.757 98.9617,259.757 101,262.5C 104.46,270.796 103.96,278.796 99.5,286.5C 76.852,297.866 53.852,298.366 30.5,288C 25.0671,285.059 20.0671,281.559 15.5,277.5C 13.941,272.218 12.441,266.885 11,261.5C 8.74267,244.084 16.2427,233.584 33.5,230C 47.2576,227.121 59.591,229.954 70.5,238.5 Z"/></g>
<g><path style="opacity:1" fill="#908f8f" d="M 105.5,234.5 C 107.527,234.338 109.527,234.505 111.5,235C 117.635,242.136 124.135,248.969 131,255.5C 136.167,264.324 133.667,268.824 123.5,269C 115.479,260.447 107.813,251.614 100.5,242.5C 102.22,239.798 103.887,237.132 105.5,234.5 Z"/></g>
<g><path style="opacity:1" fill="#100c0d" d="M 29.5,252.5 C 39.6591,251.158 43.8257,255.491 42,265.5C 36.7886,272.939 31.122,273.273 25,266.5C 22.2144,260.414 23.7144,255.747 29.5,252.5 Z"/></g>
<g><path style="opacity:1" fill="#100d0e" d="M 84.5,263.5 C 92.2008,263.362 95.3674,267.029 94,274.5C 89.5847,279.726 85.2514,279.726 81,274.5C 79.6624,269.96 80.8291,266.293 84.5,263.5 Z"/></g>
<g><path style="opacity:1" fill="#c0bebe" d="M 96.5,253.5 C 102.636,260.476 108.636,267.643 114.5,275C 110.508,280.16 105.508,283.994 99.5,286.5C 103.96,278.796 104.46,270.796 101,262.5C 98.9617,259.757 97.4617,256.757 96.5,253.5 Z"/></g>
<g><path style="opacity:1" fill="#130f11" d="M 57.5,268.5 C 65.5431,269.02 67.8764,272.854 64.5,280C 56.9505,282.984 53.4505,280.484 54,272.5C 54.6897,270.65 55.8564,269.316 57.5,268.5 Z"/></g>
</svg>
