<?xml version="1.0" standalone="no"?>
<!DOCTYPE svg PUBLIC "-//W3C//DTD SVG 20010904//EN"
 "http://www.w3.org/TR/2001/REC-SVG-20010904/DTD/svg10.dtd">
<svg version="1.0" xmlns="http://www.w3.org/2000/svg"
 width="348.000000pt" height="246.000000pt" viewBox="0 0 348.000000 246.000000"
 preserveAspectRatio="xMidYMid meet">

<g transform="translate(0.000000,246.000000) scale(0.100000,-0.100000)"
fill="#000000" stroke="none">
<path d="M695 2450 c-4 -6 -1 -18 6 -26 18 -22 5 -27 -38 -15 -21 6 -60 12
-88 13 l-50 1 50 7 c42 6 34 7 -47 8 -54 1 -98 0 -98 -3 0 -5 149 -75 159 -75
3 1 -5 7 -19 15 -14 8 -20 14 -15 14 18 0 141 -68 125 -69 -9 0 -21 5 -27 11
-5 5 -68 12 -142 13 -85 3 -129 0 -123 -6 14 -14 91 -29 116 -23 11 2 15 2 8
-1 -6 -3 -10 -9 -8 -13 3 -4 -21 -6 -52 -4 -53 4 -56 3 -38 -11 11 -9 29 -17
40 -17 34 -3 70 -5 94 -7 33 -3 27 -22 -7 -22 -17 0 -33 -5 -37 -12 -5 -8 2
-9 27 -4 l34 6 -28 -19 -29 -18 27 -7 c14 -4 30 -4 36 -1 5 4 8 3 7 -2 -2 -4
7 -18 20 -30 12 -13 22 -18 22 -12 0 7 -8 18 -17 25 -10 7 -13 14 -7 14 18 0
37 -28 31 -44 -7 -18 -84 -59 -97 -51 -5 3 -12 0 -16 -6 -5 -8 -3 -9 6 -4 9 5
11 4 6 -4 -4 -6 -14 -10 -22 -9 -12 2 -16 -10 -18 -51 -3 -53 -2 -56 42 -103
44 -47 62 -58 62 -38 0 6 -6 10 -14 10 -8 0 -18 4 -21 10 -3 6 1 7 10 4 11 -5
14 -1 12 15 -2 11 -6 24 -10 27 -11 11 -8 84 3 84 5 0 7 -8 3 -17 -3 -10 -3
-15 1 -11 4 3 9 14 10 24 2 10 9 20 16 22 7 3 10 0 7 -5 -4 -6 9 -3 28 5 19 9
32 18 30 22 -2 3 4 6 13 7 9 1 27 4 39 8 19 6 23 2 32 -37 l11 -43 -5 40 c-2
22 -13 46 -22 54 -13 9 -14 12 -3 9 30 -9 41 -50 34 -125 -4 -46 -3 -73 4 -73
5 0 12 9 15 20 3 11 1 18 -4 14 -5 -3 -9 3 -9 12 0 10 3 14 7 11 8 -8 35 42
28 53 -3 4 2 11 11 14 8 3 12 11 8 17 -4 7 -3 10 2 7 5 -3 14 0 21 7 8 9 9 15
2 19 -5 2 -4 3 3 2 7 -2 12 -9 10 -16 -4 -18 8 -51 17 -45 5 2 16 -16 26 -41
12 -33 20 -42 26 -33 7 12 10 12 21 0 11 -11 11 -13 -1 -6 -9 5 -12 4 -7 -3 4
-6 22 -9 41 -7 19 3 37 0 41 -7 5 -7 2 -8 -7 -3 -16 9 -8 2 36 -35 l30 -25
-25 29 -25 29 32 -23 c32 -23 33 -23 53 -5 20 18 20 18 20 -12 0 -19 -6 -33
-16 -37 -22 -9 -24 -8 -25 12 -1 9 -5 -2 -11 -25 -5 -26 -15 -43 -26 -45 -11
-3 -8 -6 10 -10 17 -3 25 -1 21 5 -3 6 -1 7 5 3 13 -8 17 -57 5 -54 -5 1 -27
-8 -51 -21 -42 -21 -51 -41 -21 -49 12 -3 12 -2 0 6 -12 8 -7 15 24 33 22 13
45 24 52 25 21 3 58 38 58 54 0 8 8 16 19 18 11 3 16 0 12 -7 -4 -6 0 -11 11
-12 16 0 16 -1 -2 -9 -11 -5 -17 -9 -13 -9 4 -1 4 -11 -1 -23 -5 -14 -18 -23
-37 -25 -16 -3 -31 -9 -32 -14 -2 -5 -10 -15 -17 -23 -8 -7 -11 -16 -8 -19 3
-3 2 -27 -1 -51 -7 -46 -47 -106 -69 -106 -7 0 -4 5 6 11 19 11 47 60 47 81
-1 7 -7 -1 -14 -17 -20 -45 -44 -65 -79 -65 -18 0 -39 -5 -47 -10 -10 -6 -3
-8 22 -3 l38 6 -16 -47 c-9 -25 -20 -44 -24 -41 -5 3 -2 21 6 40 8 21 10 35 4
35 -5 0 -10 -5 -10 -11 0 -5 -4 -7 -10 -4 -5 3 -15 3 -21 -1 -8 -5 -8 -9 1
-14 15 -9 3 -53 -13 -47 -17 5 -21 58 -5 68 10 7 8 9 -6 9 -16 0 -17 5 -11 46
9 62 14 72 36 79 25 8 24 15 -10 55 -28 34 -29 35 -65 22 -28 -11 -40 -11 -51
-2 -8 6 -33 10 -57 9 -24 -2 -49 0 -55 4 -6 4 -37 4 -67 1 -55 -7 -56 -8 -68
-46 -9 -29 -9 -41 0 -50 25 -25 7 -77 -30 -91 -10 -3 -18 -14 -18 -22 0 -9 -5
-13 -10 -10 -6 4 -8 10 -5 15 3 5 -3 23 -14 42 -11 20 -18 50 -17 76 1 27 -2
42 -10 42 -6 0 -19 16 -28 35 -15 31 -20 34 -49 28 -18 -3 -37 -9 -42 -14 -6
-4 -21 -1 -35 6 -26 15 -92 20 -103 8 -4 -3 -35 -5 -68 -4 l-61 2 7 -30 c6
-28 23 -70 43 -110 13 -25 -4 -150 -23 -171 -16 -17 -17 -25 -7 -58 8 -28 9
-62 2 -118 -5 -43 -8 -96 -8 -118 2 -31 -3 -43 -25 -60 -24 -19 -27 -29 -27
-80 l0 -58 98 7 c53 4 109 14 125 22 20 10 32 11 46 3 29 -15 41 -12 41 10 0
13 10 24 26 30 27 11 26 19 -9 57 -17 19 -18 27 -9 48 13 27 32 31 64 14 17
-9 19 -17 14 -50 -5 -31 0 -50 26 -99 30 -57 32 -59 50 -44 20 19 19 20 36
-18 6 -16 7 -30 2 -33 -5 -3 -7 -34 -3 -69 4 -44 2 -65 -6 -71 -9 -5 -9 -11 3
-23 19 -22 37 -122 25 -144 -5 -9 -9 -50 -9 -91 0 -61 -3 -77 -20 -92 -26 -23
-25 -29 5 -43 14 -7 30 -23 37 -37 10 -23 17 -25 70 -25 32 0 58 4 58 9 0 17
57 33 78 22 31 -16 79 -14 86 5 10 26 -14 106 -39 132 -36 36 -29 83 15 107
20 11 29 11 51 -1 15 -7 29 -23 32 -34 6 -23 -10 -80 -23 -80 -4 0 -11 -12
-14 -26 -10 -40 17 -74 58 -74 18 0 50 -7 69 -15 46 -19 127 -20 127 -2 0 20
65 48 79 34 16 -16 93 -9 116 12 33 30 62 32 93 6 22 -18 45 -24 114 -30 82
-7 86 -6 93 14 3 12 15 26 26 31 26 15 24 53 -3 65 -27 12 -35 40 -18 60 27
32 76 0 66 -41 -4 -15 -2 -24 5 -24 6 0 9 -9 6 -20 -4 -14 2 -25 18 -36 13 -9
27 -29 30 -45 8 -34 15 -35 97 -13 33 8 67 13 75 10 32 -12 61 6 78 47 14 34
14 42 2 48 -7 5 -19 27 -26 51 -7 24 -17 50 -22 58 -19 31 -21 41 -15 64 11
45 83 47 103 3 9 -18 8 -30 -2 -48 -8 -13 -17 -30 -21 -37 -3 -7 1 -28 10 -47
11 -23 14 -44 10 -58 -4 -12 -7 -32 -5 -45 1 -13 -3 -29 -9 -37 -10 -12 -8
-22 7 -47 18 -30 23 -33 64 -31 160 9 219 25 219 62 0 9 -7 29 -15 45 -8 15
-15 46 -15 67 0 31 4 39 19 39 24 0 35 -45 32 -125 -2 -49 -8 -65 -29 -88
l-26 -27 33 -31 c34 -30 34 -30 105 -21 45 6 78 6 90 0 10 -6 31 -8 46 -4 41
8 102 -4 91 -18 -15 -18 14 -76 39 -76 11 0 20 5 20 10 0 13 33 13 47 -1 7 -7
38 -7 107 2 l96 13 -2 36 c-1 19 -4 42 -8 50 -4 8 -10 32 -13 53 -6 39 -6 39
12 18 30 -34 44 -77 33 -97 -7 -12 -5 -30 4 -58 l14 -41 118 3 c64 1 159 2
210 2 51 -1 96 1 101 4 7 5 -24 139 -35 155 -2 1 -22 4 -45 5 -48 3 -78 32
-105 103 -12 29 -23 43 -35 43 -11 0 -19 5 -19 10 0 6 7 10 15 10 8 0 15 9 15
19 0 11 11 28 25 39 21 17 23 23 13 48 -9 24 -7 38 11 76 25 55 27 102 6 152
-15 35 -22 40 -57 37 -22 -3 -106 82 -131 129 -10 19 -31 43 -47 52 -22 13
-30 24 -30 46 0 29 26 62 48 62 7 0 12 3 12 8 0 4 5 35 10 69 9 52 7 71 -7
115 -10 30 -28 63 -41 76 -12 12 -22 29 -22 37 0 10 -11 15 -32 16 -18 0 -42
4 -53 8 -14 6 -24 2 -36 -13 -13 -16 -20 -18 -31 -9 -13 11 -110 29 -220 40
-44 4 -49 3 -59 -21 -7 -14 -16 -26 -20 -26 -4 0 -14 -2 -21 -5 -24 -9 -36 36
-31 108 5 59 4 67 -10 61 -9 -3 -22 -2 -29 2 -17 11 -142 5 -146 -7 -2 -5 -54
-9 -116 -9 -86 0 -117 4 -135 16 -15 11 -44 16 -89 16 l-67 0 3 -33 c1 -19 7
-38 12 -43 6 -6 10 -22 10 -37 0 -22 -6 -30 -33 -38 -19 -7 -41 -9 -51 -5 -9
3 -26 0 -39 -9 -25 -16 -51 -10 -84 22 l-22 21 -6 -21 c-6 -19 -7 -20 -20 -2
-7 10 -11 20 -9 23 3 2 10 -2 15 -10 8 -11 8 -8 3 10 -4 14 -9 30 -11 37 -2 6
6 15 19 19 22 7 22 7 3 15 -29 11 -37 11 -29 -3 5 -8 2 -9 -10 -5 -10 4 -22 7
-27 7 -6 0 -7 4 -4 10 3 6 -1 7 -9 4 -11 -4 -16 0 -16 10 0 9 5 16 11 16 5 0
7 5 4 10 -3 6 0 13 9 16 8 3 13 11 10 18 -6 16 13 31 49 40 l28 7 -19 27 c-11
15 -22 39 -26 54 -3 16 -12 27 -18 25 -6 -1 -17 9 -24 22 -7 13 -18 27 -25 32
-8 4 -10 11 -6 16 5 4 12 1 16 -6 6 -9 19 -12 42 -7 19 3 39 7 46 8 7 1 10 5
7 9 -7 12 34 31 60 27 15 -2 32 8 50 27 15 17 33 30 38 30 6 0 12 15 14 33 2
18 9 42 14 53 8 14 7 19 -2 20 -7 0 -3 4 10 9 15 7 29 6 43 -3 23 -14 39 2 39
41 0 12 5 22 11 22 5 0 8 4 5 9 -3 5 -3 22 0 38 4 22 12 29 32 31 14 1 28 5
31 8 3 4 -6 4 -22 2 -15 -3 -30 -1 -33 3 -3 5 15 9 39 9 31 0 49 -6 58 -17 13
-17 12 -17 -4 -4 -16 13 -16 10 3 -27 24 -47 35 -55 20 -17 -18 46 -4 30 54
-65 5 -8 -4 -4 -20 10 l-29 25 25 -28 c13 -15 30 -40 36 -55 10 -24 11 -22 6
21 -3 30 -1 47 6 47 6 0 9 9 7 19 -2 13 6 26 22 36 14 10 22 12 19 6 -4 -6 0
-11 9 -11 10 0 14 5 9 13 -4 6 1 5 10 -4 12 -11 15 -24 10 -48 -5 -23 -9 -29
-15 -19 -7 10 -9 10 -9 -2 0 -8 -3 -25 -7 -38 -5 -22 -3 -23 28 -20 33 3 34 2
31 -32 -1 -26 0 -31 8 -20 7 11 10 -7 10 -60 0 -56 -3 -71 -11 -60 -8 12 -10
9 -6 -12 2 -15 0 -29 -5 -32 -5 -2 -4 -4 3 -2 6 1 9 4 8 6 -2 3 8 18 21 33 14
16 25 41 25 55 0 21 5 27 21 26 16 0 20 4 16 18 -2 10 1 18 8 18 7 0 10 7 6
15 -7 19 3 47 15 39 14 -8 11 9 -6 32 -8 12 -12 24 -8 27 3 4 0 13 -7 22 -7 8
-10 22 -6 30 3 8 1 15 -4 15 -6 0 -10 11 -10 24 0 13 -7 26 -15 30 -9 3 -12
12 -8 22 4 11 3 15 -5 10 -6 -3 -13 -2 -16 3 -3 5 1 11 9 15 8 3 15 11 15 18
0 6 14 27 32 45 18 18 27 33 20 33 -6 0 -15 -7 -20 -16 -9 -16 -82 -47 -90
-39 -3 2 13 12 34 22 22 10 42 22 46 28 13 18 -36 26 -120 19 -70 -5 -88 -11
-119 -35 -20 -16 -39 -27 -42 -24 -8 9 72 73 85 68 6 -2 14 3 18 12 5 14 0 15
-42 8 -26 -4 -62 -7 -80 -7 -18 0 -27 -3 -21 -7 8 -4 4 -9 -10 -14 -11 -3 -26
-3 -32 1 -8 5 -9 3 -4 -6 6 -9 2 -10 -16 -5 -22 7 -22 7 -6 -9 9 -10 17 -27
17 -38 0 -17 -2 -18 -15 -8 -8 7 -15 19 -15 27 0 11 -7 13 -24 9 -23 -6 -24
-4 -20 28 3 27 0 35 -16 39 -12 3 -20 0 -20 -7 0 -7 -7 -21 -16 -32 -15 -18
-15 -18 -9 10 5 23 3 27 -9 23 -8 -3 -17 -1 -20 6 -2 7 -5 4 -5 -7 -1 -12 -6
-16 -16 -12 -8 3 -15 0 -15 -6 0 -15 -48 -58 -66 -58 -8 0 -13 -4 -9 -9 3 -5
1 -12 -5 -16 -7 -4 -5 -14 5 -27 11 -16 12 -25 3 -35 -6 -7 -8 -16 -4 -20 3
-4 13 2 20 13 13 16 12 21 -1 36 -14 15 -13 19 12 42 16 15 32 26 36 26 5 0 8
5 6 11 -1 6 9 18 22 27 22 15 23 15 19 -4 -2 -10 -10 -18 -17 -16 -7 1 -11 -3
-8 -10 2 -7 -5 -26 -17 -43 -11 -16 -22 -49 -24 -74 -4 -74 -66 -193 -97 -188
-5 1 -11 -9 -12 -23 l-2 -25 8 25 c7 21 8 18 8 -17 -1 -32 -5 -43 -17 -43 -9
0 -21 -5 -26 -10 -16 -16 -42 -2 -46 23 -2 17 -10 22 -32 22 -17 0 -31 6 -34
15 -5 13 -3 13 12 1 33 -28 6 41 -33 84 -20 22 -37 41 -38 43 -1 2 -13 5 -27
6 -14 0 -26 4 -26 7 0 13 -50 16 -68 3 -10 -7 -33 -16 -52 -21 -18 -5 -38 -18
-44 -28 -13 -24 -28 -35 -37 -29 -4 2 -23 -5 -41 -16 -42 -25 -46 -25 -50 2
-2 13 -11 24 -23 27 -17 3 -39 25 -40 41 -1 15 -18 28 -30 24 -17 -7 -41 29
-50 76 -4 19 -11 40 -15 45 -5 6 -13 30 -19 55 -14 52 -42 110 -54 110 -4 0
-6 4 -3 9 6 9 -51 24 -63 17 -4 -3 -7 4 -7 14 0 11 6 22 13 24 7 3 13 2 13 -3
0 -5 8 -11 18 -14 9 -2 26 -8 37 -13 18 -7 18 -6 7 9 -8 9 -17 16 -20 15 -20
-2 -31 4 -34 18 -2 13 -7 12 -29 -8 l-26 -25 -23 24 c-29 30 -46 29 -58 -4 -6
-16 -11 -21 -11 -12 -1 23 -27 43 -36 29z m-200 -30 c3 -6 -1 -7 -9 -4 -18 7
-21 14 -7 14 6 0 13 -4 16 -10z m40 -20 c3 -6 -1 -7 -9 -4 -18 7 -21 14 -7 14
6 0 13 -4 16 -10z m-98 -66 c-3 -3 -12 -4 -19 -1 -8 3 -5 6 6 6 11 1 17 -2 13
-5z m138 -34 c13 -5 14 -9 5 -9 -8 0 -24 4 -35 9 -13 5 -14 9 -5 9 8 0 24 -4
35 -9z m1814 -16 c2 -2 -18 -4 -45 -4 -34 0 -44 3 -34 9 12 9 68 4 79 -5z
m-1915 -3 c4 -5 -3 -7 -14 -4 -23 6 -26 13 -6 13 8 0 17 -4 20 -9z m1899 -62
c-4 -15 -8 -17 -14 -8 -6 11 4 28 18 29 0 0 -1 -9 -4 -21z m-1774 -8 c9 -6 4
-10 -18 -13 -31 -4 -43 6 -18 15 18 8 21 8 36 -2z m44 -126 c-3 -9 -8 -14 -10
-11 -3 3 -2 9 2 15 9 16 15 13 8 -4z m807 -40 c0 -8 -4 -15 -10 -15 -5 0 -7 7
-4 15 4 8 8 15 10 15 2 0 4 -7 4 -15z m-912 -51 c2 -20 8 -46 13 -56 7 -13 7
-24 1 -30 -10 -10 -62 44 -62 65 0 7 9 -3 20 -20 21 -35 37 -45 25 -15 -15 35
-16 92 -1 92 1 0 3 -16 4 -36z m889 20 c-3 -3 -12 -4 -19 -1 -8 3 -5 6 6 6 11
1 17 -2 13 -5z m32 -64 c5 0 11 -9 14 -21 5 -17 3 -18 -9 -8 -8 6 -18 9 -22 5
-4 -4 1 -12 11 -17 9 -6 17 -17 17 -24 0 -8 4 -15 9 -15 5 0 11 -8 15 -17 3
-10 9 -24 12 -30 3 -7 1 -13 -5 -13 -6 0 -11 7 -11 16 0 8 -4 12 -10 9 -5 -3
-10 0 -11 7 0 7 -5 3 -11 -9 -6 -13 -15 -23 -20 -23 -4 0 -8 -5 -8 -10 0 -6 7
-10 16 -8 11 2 17 -6 20 -24 3 -27 -6 -33 -43 -29 -9 1 -9 -7 -2 -31 5 -18 9
-33 9 -34 0 -1 -9 -4 -20 -7 -11 -3 -25 -16 -30 -29 -9 -21 -10 -20 -7 10 2
18 -2 37 -9 43 -10 8 -6 17 19 40 25 24 27 29 12 25 -16 -5 -25 2 -38 24 -15
25 -16 29 -2 24 10 -4 15 0 15 11 0 12 5 15 20 10 14 -4 22 -1 26 10 4 9 13
14 20 11 8 -3 14 1 14 10 0 8 -4 12 -10 9 -6 -4 -10 6 -10 21 0 26 -1 27 -14
9 -7 -10 -11 -27 -8 -37 2 -10 0 -18 -6 -18 -5 0 -13 12 -17 27 -5 20 -2 30
12 40 37 25 45 36 40 55 -3 11 -3 27 1 36 5 12 8 7 10 -15 2 -18 7 -33 11 -33z
m25 44 c5 -14 4 -15 -9 -4 -17 14 -19 20 -6 20 5 0 12 -7 15 -16z m-197 0 c-3
-3 -12 -4 -19 -1 -8 3 -5 6 6 6 11 1 17 -2 13 -5z m128 -4 c3 -5 1 -10 -4 -10
-6 0 -11 5 -11 10 0 6 2 10 4 10 3 0 8 -4 11 -10z m3 -38 c6 -18 -26 -26 -51
-13 l-22 12 23 -5 c15 -3 22 1 22 11 0 17 22 13 28 -5z m92 -51 c0 -5 -7 -11
-15 -15 -15 -5 -20 5 -8 17 9 10 23 9 23 -2z m-260 -11 c0 -5 8 -10 18 -10 20
-1 56 -46 47 -60 -7 -11 -52 14 -72 40 -15 18 -17 40 -3 40 6 0 10 -4 10 -10z
m100 1 c0 -14 -18 -23 -30 -16 -6 4 -8 11 -5 16 8 12 35 12 35 0z m-170 -31
c0 -11 -2 -20 -4 -20 -2 0 -6 9 -9 20 -3 11 -1 20 4 20 5 0 9 -9 9 -20z m520
-50 c0 -5 -2 -10 -4 -10 -3 0 -8 5 -11 10 -3 6 -1 10 4 10 6 0 11 -4 11 -10z
m-130 -35 c0 -18 -15 -30 -41 -33 -19 -2 -28 2 -32 17 -2 11 -3 22 0 25 9 9
73 1 73 -9z m-267 -158 c13 -30 13 -36 1 -41 -13 -5 -16 0 -13 20 0 4 -4 10
-9 13 -5 3 -13 21 -17 40 -7 32 -6 33 8 19 9 -8 22 -31 30 -51z m237 39 c0 -7
6 -19 14 -25 11 -9 12 -20 5 -44 -13 -46 -11 -67 6 -67 8 0 23 -9 32 -20 10
-11 23 -20 30 -20 8 0 12 -13 11 -35 -1 -28 -4 -33 -15 -24 -7 6 -13 22 -13
35 0 20 -5 24 -28 24 -15 0 -38 8 -52 17 -17 12 -25 13 -28 5 -2 -7 -17 -19
-33 -27 -22 -12 -29 -22 -28 -43 l2 -27 4 28 c2 15 9 27 14 27 5 0 8 -12 6
-27 -6 -44 -32 -35 -32 10 0 20 -4 36 -10 34 -5 -2 -8 -19 -7 -37 3 -26 1 -32
-12 -27 -9 4 -27 -5 -45 -23 -16 -17 -39 -30 -50 -30 -22 0 -51 35 -51 61 0 9
-8 23 -17 30 -16 13 -17 12 -4 -4 12 -15 12 -17 -3 -11 -11 4 -16 1 -16 -13 0
-11 -7 -28 -15 -39 -14 -18 -14 -18 -15 8 0 15 6 33 13 40 15 15 16 33 3 45
-5 5 -6 2 -2 -7 4 -8 -2 -4 -13 9 -24 27 -27 64 -8 83 8 7 12 19 11 28 -5 21
23 57 35 44 24 -24 71 -130 72 -163 1 -36 1 -36 8 -6 4 17 3 43 -2 59 -8 24
-7 32 8 43 11 7 21 9 24 5 3 -5 13 -11 21 -14 11 -4 16 1 18 20 3 33 19 52 46
52 12 0 28 6 35 13 11 10 11 8 1 -13 -19 -38 -41 -60 -53 -53 -6 3 -7 1 -3 -5
3 -6 -2 -17 -12 -24 -10 -7 -22 -22 -26 -33 -5 -15 2 -11 27 13 18 18 37 29
42 25 4 -5 5 -2 1 5 -10 18 9 15 25 -4 20 -24 20 -47 2 -61 -9 -7 -12 -13 -6
-13 15 0 36 27 29 38 -3 6 4 12 15 15 17 5 19 10 13 29 -11 33 -12 78 -2 78 4
0 7 3 7 8 -3 14 1 22 11 22 6 0 10 -6 10 -14z m-180 -27 c0 -6 -4 -7 -10 -4
-5 3 -10 11 -10 16 0 6 5 7 10 4 6 -3 10 -11 10 -16z m-989 -33 c-10 -11 3
-46 67 -178 44 -89 81 -170 84 -178 3 -8 12 5 23 33 10 26 21 47 26 47 5 0 13
18 19 40 6 23 26 78 45 123 37 86 41 102 25 92 -5 -3 -10 1 -10 9 0 13 12 16
54 16 29 0 69 3 87 6 30 6 32 5 16 -7 -16 -13 -18 -37 -18 -278 l-1 -264 23
-13 c21 -12 14 -13 -61 -12 -47 0 -78 2 -68 5 9 2 19 11 22 19 3 8 1 12 -4 9
-6 -4 -11 62 -12 175 l-3 180 -85 -190 c-47 -104 -88 -190 -91 -190 -12 0 -62
119 -56 134 4 10 1 16 -9 16 -17 0 -37 46 -28 62 4 6 3 8 -3 5 -5 -3 -26 28
-46 69 -38 76 -51 127 -17 64 11 -19 19 -30 19 -25 0 19 -27 58 -42 61 -12 1
-17 -12 -22 -60 -4 -33 -11 -79 -17 -100 -5 -22 -12 -66 -14 -99 -3 -33 -8
-77 -13 -98 -8 -33 -6 -40 13 -53 19 -14 14 -15 -64 -15 -57 0 -78 3 -64 9 18
7 23 22 33 98 6 49 9 111 6 138 -3 36 -2 42 4 24 l9 -25 1 27 c1 15 7 45 15
65 19 50 27 143 15 168 -7 16 -8 13 -3 -10 4 -22 2 -27 -6 -19 -7 7 -8 31 -4
67 l7 57 61 0 c33 0 68 4 76 10 19 12 26 4 11 -14z m772 -22 c-16 -12 -16 -15
-3 -24 11 -7 11 -10 2 -10 -7 0 -11 -4 -7 -10 9 -14 -26 -49 -43 -42 -12 4
-14 0 -8 -22 4 -17 1 -34 -9 -49 -15 -21 -15 -21 -15 10 0 18 -5 35 -11 39 -7
4 -2 15 15 29 28 24 60 90 51 105 -3 5 5 10 17 12 29 4 36 -19 11 -38z m887
-152 c-5 -2 -9 -16 -9 -30 2 -26 2 -26 6 -3 l5 24 161 -7 c89 -4 167 -7 172
-7 6 -1 25 2 43 6 31 7 32 6 32 -24 l0 -31 -81 0 -80 0 1 -57 c1 -32 1 -62 0
-68 0 -5 -1 -74 0 -152 1 -91 -3 -143 -9 -143 -6 0 -8 8 -4 18 3 9 3 14 -2 10
-4 -4 -14 -3 -22 4 -18 14 -24 7 -17 -19 5 -17 15 -23 47 -25 75 -6 50 -23
-33 -23 -76 0 -101 7 -62 18 20 5 32 44 32 104 0 20 4 32 10 28 6 -3 10 -2 10
3 0 6 -7 12 -15 16 -12 4 -15 34 -18 148 -2 99 -3 77 -3 -70 -1 -117 -4 -216
-9 -220 -4 -4 -6 11 -5 33 2 22 2 120 1 218 l-1 177 -71 0 c-57 0 -75 -4 -85
-17 -12 -16 -13 -7 -13 57 0 69 1 73 15 55 9 -12 11 -21 4 -23z m-793 -24 c-3
-8 -6 -5 -6 6 -1 11 2 17 5 13 3 -3 4 -12 1 -19z m-1020 -10 c-3 -8 -6 -5 -6
6 -1 11 2 17 5 13 3 -3 4 -12 1 -19z m1423 -10 c-1 -21 -2 -21 -13 -6 -7 9
-24 18 -37 21 -18 3 -15 5 13 6 32 1 37 -2 37 -21z m-715 -59 c-57 -53 -58
-97 -6 -175 41 -62 86 -103 135 -126 20 -8 23 -14 14 -21 -9 -6 -6 -7 10 -4
12 3 22 1 22 -4 0 -32 140 25 158 65 12 28 -2 102 -36 177 -22 51 -81 105
-124 114 -41 10 -34 25 12 25 23 0 40 5 40 11 0 8 5 8 15 -1 8 -7 15 -19 15
-26 0 -19 17 -18 28 1 7 13 14 9 41 -21 18 -19 34 -42 35 -49 1 -7 8 -20 15
-28 6 -9 17 -45 23 -80 10 -60 9 -69 -12 -112 -12 -26 -29 -49 -37 -52 -9 -3
-26 -16 -39 -28 -47 -44 -127 -55 -211 -30 -40 12 -63 28 -109 78 -32 34 -54
56 -49 48 5 -10 4 -12 -4 -7 -21 14 -39 61 -45 121 l-5 60 13 -63 c7 -34 17
-66 21 -70 4 -4 5 2 2 13 -15 56 -17 97 -6 111 6 8 9 23 6 34 -3 11 -1 18 4
14 5 -3 9 1 9 9 0 15 66 77 75 69 3 -3 5 1 6 9 0 8 5 5 11 -7 9 -19 5 -27 -27
-55z m110 51 c4 -6 -7 -10 -25 -10 -18 0 -29 4 -25 10 3 6 15 10 25 10 10 0
22 -4 25 -10z m408 -61 c-8 -8 -6 -16 8 -30 10 -10 16 -25 13 -34 -4 -10 -2
-15 6 -13 7 2 44 -37 82 -87 38 -49 72 -93 76 -97 4 -4 6 51 4 123 -3 140 -7
132 58 143 27 5 32 4 22 -6 -17 -17 -17 -389 0 -406 9 -9 0 -12 -40 -12 -50 0
-52 1 -52 28 -1 29 -20 62 -38 62 -5 0 -15 14 -21 30 -5 17 -17 33 -26 36 -8
3 -15 14 -15 24 0 10 -3 20 -7 22 -5 2 -28 30 -53 63 l-45 60 -3 -150 c-2
-132 -1 -151 15 -162 14 -11 10 -13 -29 -13 l-45 0 -2 209 -2 210 43 4 c24 2
47 4 53 5 5 1 4 -3 -2 -9z m-343 -98 c12 -89 0 -161 -25 -161 -27 0 -44 112
-29 189 4 17 10 29 14 26 4 -3 10 5 13 17 10 35 16 17 27 -71z m902 69 c-2 -8
10 -11 35 -9 21 1 47 1 58 0 17 -1 18 -3 5 -12 -12 -8 -9 -10 13 -6 15 2 27 3
27 2 0 -2 -11 -23 -25 -46 -14 -24 -25 -37 -25 -29 0 43 -181 72 -233 37 -32
-21 -35 -47 -7 -54 11 -3 20 -12 20 -19 0 -14 26 -17 145 -19 49 -1 87 -13 80
-26 -3 -5 0 -6 8 -3 18 7 29 -18 34 -79 3 -42 0 -51 -26 -77 -16 -17 -39 -30
-50 -30 -11 0 -23 -4 -26 -10 -12 -19 -156 -11 -231 13 l-71 22 18 43 c22 50
47 57 40 10 -2 -12 50 -35 108 -47 81 -17 171 13 171 58 0 14 -2 14 -11 1 -8
-12 -10 -9 -6 12 5 31 14 28 -146 49 -77 10 -92 15 -122 43 -40 38 -49 71 -31
111 8 17 15 24 15 17 1 -8 16 -1 39 17 29 24 52 32 107 39 79 11 91 9 87 -8z
m939 3 c13 -16 12 -17 -3 -4 -17 13 -22 21 -14 21 2 0 10 -8 17 -17z m-253
-462 c1 27 7 38 22 42 17 4 20 0 20 -28 0 -20 6 -35 15 -39 33 -12 12 -26 -40
-26 -30 0 -55 5 -55 10 0 6 5 10 10 10 6 0 11 91 12 248 l2 247 6 -250 c3
-137 7 -234 8 -214z m128 450 c-3 -5 5 -8 19 -8 14 0 22 3 19 8 -3 5 10 9 29
9 23 0 43 -9 61 -25 27 -25 27 -25 20 -3 -3 13 -3 20 1 16 4 -4 9 -19 11 -34
1 -14 0 -23 -3 -20 -3 3 -14 1 -25 -5 -13 -7 -17 -16 -13 -30 9 -26 -3 -89
-15 -89 -6 0 -6 9 0 24 5 14 6 41 3 60 l-6 36 -77 0 c-43 0 -85 3 -94 6 -14 5
-16 -4 -16 -62 0 -48 -3 -64 -10 -54 -5 8 -7 30 -4 48 5 25 3 32 -7 30 -10 -2
-15 11 -17 50 l-3 52 66 0 c36 0 64 -4 61 -9z m-448 -225 c-2 -90 0 -162 5
-159 4 2 7 18 7 34 0 18 4 28 10 24 6 -4 10 7 10 25 0 18 -4 29 -10 25 -6 -4
-10 22 -10 70 0 48 4 74 10 70 6 -4 10 10 10 34 l0 41 108 1 c73 1 96 4 72 9
l-35 7 40 2 c35 1 41 -2 43 -21 1 -23 0 -23 -108 -20 l-110 3 0 -61 0 -62 75
4 c73 3 75 2 75 -20 0 -23 -2 -23 -75 -20 l-75 3 0 -58 c0 -93 5 -97 115 -97
81 0 94 2 98 18 3 10 5 6 6 -11 l1 -28 -145 2 c-119 2 -145 5 -140 17 3 7 5
93 5 190 1 125 4 172 11 160 6 -11 9 -83 7 -182z m32 175 c0 -6 -4 -13 -10
-16 -5 -3 -10 1 -10 9 0 9 5 16 10 16 6 0 10 -4 10 -9z m-2223 -38 c-3 -10 -5
-4 -5 12 0 17 2 24 5 18 2 -7 2 -21 0 -30z m2793 -34 c0 -5 -4 -9 -10 -9 -5 0
-10 7 -10 16 0 8 5 12 10 9 6 -3 10 -10 10 -16z m-2803 -46 c-3 -10 -5 -2 -5
17 0 19 2 27 5 18 2 -10 2 -26 0 -35z m2813 -52 c-6 -16 -22 -34 -35 -41 l-23
-12 19 -45 c11 -25 37 -66 59 -91 22 -24 40 -50 40 -56 0 -6 -7 -2 -15 9 -8
11 -25 31 -39 45 -13 14 -31 39 -39 55 -9 17 -16 25 -17 19 0 -6 11 -26 25
-45 13 -19 35 -49 47 -66 13 -18 28 -32 33 -32 22 3 35 -2 35 -11 0 -6 -32
-10 -75 -10 -73 0 -86 5 -65 26 6 6 -1 31 -20 73 -17 34 -30 74 -30 87 0 14
-4 23 -9 20 -5 -4 -11 -1 -13 6 -3 7 -26 11 -66 9 -38 -1 -62 2 -62 8 0 6 22
11 50 11 47 0 63 11 40 25 -5 3 -10 11 -10 16 0 14 109 7 115 -8 7 -20 32 -4
46 29 7 17 15 26 17 19 2 -7 -1 -25 -8 -40z m-2823 -3 c-3 -7 -5 -2 -5 12 0
14 2 19 5 13 2 -7 2 -19 0 -25z m1684 -73 c19 -8 27 -14 19 -14 -14 0 -72 28
-59 29 4 0 22 -7 40 -15z m66 -21 c-3 -3 -12 -4 -19 -1 -8 3 -5 6 6 6 11 1 17
-2 13 -5z m-1147 -13 c0 -5 -7 -11 -15 -15 -12 -4 -15 -27 -15 -113 l0 -108
138 0 137 0 1 60 1 60 -7 -60 c-6 -50 -7 -43 -6 45 l1 105 42 1 c22 1 48 4 57
7 20 8 20 0 1 -19 -12 -12 -15 -47 -16 -172 -1 -316 0 -325 24 -344 21 -17 20
-18 -58 -17 -65 0 -76 2 -57 11 16 8 22 19 21 42 l-1 31 -8 -30 c-5 -20 -8 9
-9 83 l-1 112 -85 0 c-52 0 -85 4 -85 10 0 7 -7 7 -21 -1 -12 -6 -32 -9 -45
-6 l-24 4 0 -127 c0 -122 1 -127 23 -138 18 -9 7 -11 -58 -11 -52 -1 -75 3
-66 8 10 7 15 27 14 63 l-1 53 7 -45 6 -45 6 50 c3 28 3 73 0 100 l-5 50 -7
-40 c-3 -22 -7 56 -8 173 l-1 212 38 0 c20 0 44 5 52 10 19 12 30 13 30 1z
m1942 -63 c-9 -9 -12 -7 -12 12 0 19 3 21 12 12 9 -9 9 -15 0 -24z m-1095 -42
c-3 -8 19 -44 52 -82 31 -38 66 -87 77 -108 11 -22 29 -44 40 -50 10 -6 24
-18 29 -26 7 -11 12 27 16 125 l5 140 0 -158 c-1 -86 2 -157 7 -157 4 0 7 72
7 159 0 151 1 159 19 154 10 -3 22 0 25 6 4 6 12 11 19 11 8 0 8 -3 -1 -12
-15 -15 -17 -404 -2 -413 24 -15 6 -25 -45 -25 -52 0 -55 1 -55 26 0 14 4 23
10 19 6 -4 7 -11 4 -17 -4 -7 -2 -8 5 -4 8 5 6 13 -6 29 -101 126 -143 178
-173 210 -19 21 -39 45 -43 53 -21 37 -27 5 -27 -136 0 -125 3 -152 15 -156
32 -13 12 -24 -42 -24 -49 1 -55 3 -41 13 19 15 30 98 19 149 -6 24 -8 13 -9
-46 -1 -43 -3 -81 -6 -83 -2 -3 -4 89 -3 204 0 148 2 184 7 123 l6 -85 2 82 2
82 38 4 c20 2 41 4 46 5 4 1 6 -4 3 -12z m369 -7 c3 -6 2 -14 -4 -18 -12 -7
-13 -61 -1 -61 5 0 9 5 9 10 0 7 6 7 19 0 11 -5 47 -10 80 -10 l61 0 0 -208 0
-207 44 3 c25 2 53 -1 63 -7 14 -8 6 -10 -39 -11 -31 0 -62 -2 -70 -5 -11 -4
-12 33 -10 205 l3 210 -63 1 c-35 1 -65 1 -68 1 -3 0 -15 -3 -27 -7 -22 -6
-23 -4 -23 54 0 57 10 76 26 50z m-770 -14 c-3 -9 -6 -75 -7 -147 -1 -131 -1
-132 25 -155 15 -13 39 -23 54 -24 l27 -1 -25 -8 c-22 -7 -21 -8 13 -9 44 -1
92 21 107 48 5 11 10 76 10 144 0 110 2 125 18 131 9 3 24 9 32 12 12 5 13 4
3 -7 -9 -9 -13 -56 -13 -161 0 -143 -1 -150 -23 -172 -44 -44 -217 -58 -217
-19 0 9 -6 13 -15 9 -8 -3 -15 -1 -15 4 0 6 -11 20 -25 32 -25 21 -25 24 -25
173 l0 151 32 2 c18 2 34 5 37 7 9 10 13 5 7 -10z m1244 -45 l0 -40 -110 0
-110 0 -1 -77 c-1 -43 -1 -129 0 -190 0 -66 -4 -113 -9 -113 -6 0 -10 7 -10
15 0 19 -29 20 -36 0 -4 -8 -10 -13 -14 -10 -9 6 -12 287 -2 300 4 6 18 10 32
10 14 0 26 6 26 13 1 6 2 26 3 42 l1 30 75 0 c75 0 75 0 69 24 -5 23 -3 25 38
29 23 2 44 4 46 5 1 1 2 -16 2 -38z m-1060 -238 c-11 -16 -11 -15 -6 1 3 10 7
76 8 145 l2 127 3 -128 c2 -81 0 -134 -7 -145z m1721 193 c17 -9 27 -21 23
-27 -4 -7 -3 -8 4 -4 6 4 18 -6 27 -24 8 -16 11 -30 6 -30 -5 0 -5 -16 0 -39
12 -54 5 -122 -16 -154 -9 -15 -20 -27 -24 -27 -3 0 -14 -7 -25 -15 -18 -13
-18 -15 3 -43 12 -17 21 -38 21 -47 0 -9 11 -26 25 -37 26 -20 35 -44 13 -33
-7 4 -5 0 4 -8 10 -8 16 -17 13 -20 -3 -4 -2 -5 2 -2 8 6 33 -14 33 -27 0 -5
-6 -6 -12 -2 -9 5 -9 3 1 -9 7 -9 16 -15 20 -13 3 2 17 -2 31 -10 22 -12 14
-13 -85 -13 -94 0 -107 2 -92 13 26 20 21 38 -40 140 l-58 95 -62 1 -63 0 0
-105 c0 -85 3 -107 15 -111 35 -14 10 -24 -57 -24 -56 0 -69 3 -60 12 7 7 12
43 12 89 0 43 4 89 10 103 5 14 6 26 2 26 -4 0 -8 77 -9 170 l-2 170 44 0 c53
0 64 -14 36 -44 -19 -20 -20 -24 -6 -36 11 -9 15 -33 15 -91 l0 -79 99 0 c84
0 102 3 122 20 21 17 21 19 4 13 -17 -6 -18 -5 -7 9 8 10 12 36 10 70 l-3 53
-95 2 c-52 2 -105 5 -118 8 -42 10 -12 25 49 25 35 0 58 4 54 9 -7 13 30 24
55 16 12 -4 20 -2 20 5 0 8 13 11 35 8 19 -2 35 -3 35 -1 0 1 -12 9 -27 17
-37 20 -20 20 18 1z m-666 -45 c3 -6 -1 -7 -9 -4 -18 7 -21 14 -7 14 6 0 13
-4 16 -10z m-26 -172 c-1 -116 -4 -150 -10 -118 -11 67 -11 280 1 280 6 0 10
-60 9 -162z m301 131 l0 -31 -125 4 -125 3 0 -62 0 -63 59 0 c40 0 65 -5 75
-15 19 -19 24 -19 29 3 3 9 5 4 6 -13 l1 -30 -86 3 -86 4 4 -74 3 -73 121 -3
c120 -3 122 -3 126 -27 3 -14 4 -26 2 -27 -1 -2 -75 -2 -163 0 l-161 3 4 32
c2 18 4 40 5 50 0 9 4 17 9 17 4 0 6 -19 4 -42 -3 -24 -1 -40 3 -36 3 3 6 45
6 93 0 63 4 93 15 111 11 16 12 24 5 24 -7 0 -9 5 -6 10 3 6 1 10 -4 10 -7 0
-11 29 -11 75 0 69 2 75 20 75 18 0 19 -3 9 -22 -9 -19 -9 -21 2 -10 9 8 49
12 122 12 96 0 108 2 97 15 -11 13 -8 15 14 15 22 0 26 -4 26 -31z m-133 -136
c-20 -2 -52 -2 -70 0 -17 2 0 4 38 4 39 0 53 -2 32 -4z m406 -20 c-24 -2 -62
-2 -85 0 -24 2 -5 4 42 4 47 0 66 -2 43 -4z m-345 -180 c-32 -2 -84 -2 -115 0
-32 2 -6 3 57 3 63 0 89 -1 58 -3z"/>
<path d="M1230 1600 c6 -11 13 -20 16 -20 2 0 0 9 -6 20 -6 11 -13 20 -16 20
-2 0 0 -9 6 -20z"/>
<path d="M1408 1613 c-10 -2 -18 -9 -18 -14 0 -6 8 -5 20 1 11 6 20 13 20 15
0 3 -1 4 -2 4 -2 -1 -11 -3 -20 -6z"/>
<path d="M1256 1557 c3 -10 9 -15 12 -12 3 3 0 11 -7 18 -10 9 -11 8 -5 -6z"/>
<path d="M1277 1484 c4 -41 43 -131 43 -99 -1 6 -7 19 -15 29 -8 11 -15 36
-15 55 0 20 -4 42 -9 50 -5 8 -7 -5 -4 -35z"/>
<path d="M1330 1486 c0 -8 4 -17 9 -20 10 -7 23 19 14 28 -11 11 -23 6 -23 -8z"/>
<path d="M232 1570 c0 -14 2 -19 5 -12 2 6 2 18 0 25 -3 6 -5 1 -5 -13z"/>
<path d="M702 1455 c0 -16 2 -22 5 -12 2 9 2 23 0 30 -3 6 -5 -1 -5 -18z"/>
<path d="M702 1380 c0 -14 2 -19 5 -12 2 6 2 18 0 25 -3 6 -5 1 -5 -13z"/>
<path d="M704 1220 c0 -69 1 -97 3 -62 2 34 2 90 0 125 -2 34 -3 6 -3 -63z"/>
<path d="M2245 1130 c3 -6 0 -10 -8 -10 -13 0 -13 -4 -4 -25 7 -14 18 -25 25
-25 18 0 15 57 -4 64 -8 3 -12 2 -9 -4z"/>
<path d="M1271 1124 c0 -11 3 -14 6 -6 3 7 2 16 -1 19 -3 4 -6 -2 -5 -13z"/>
<path d="M1363 1125 c0 -38 2 -53 4 -32 2 20 2 52 0 70 -2 17 -4 1 -4 -38z"/>
<path d="M1648 1045 c-2 -25 0 -45 4 -45 5 0 8 20 8 45 0 25 -2 45 -4 45 -2 0
-6 -20 -8 -45z"/>
<path d="M1052 1170 c0 -14 2 -19 5 -12 2 6 2 18 0 25 -3 6 -5 1 -5 -13z"/>
<path d="M1757 1159 c4 -13 8 -18 11 -10 2 7 -1 18 -6 23 -8 8 -9 4 -5 -13z"/>
<path d="M1756 963 c-6 -14 -5 -15 5 -6 7 7 10 15 7 18 -3 3 -9 -2 -12 -12z"/>
<path d="M2025 930 c-3 -6 1 -7 9 -4 18 7 21 14 7 14 -6 0 -13 -4 -16 -10z"/>
<path d="M2900 994 c0 -6 7 -19 16 -30 14 -18 14 -18 3 6 -14 31 -19 36 -19
24z"/>
<path d="M652 660 c0 -19 2 -27 5 -17 2 9 2 25 0 35 -3 9 -5 1 -5 -18z"/>
<path d="M1758 578 c5 -5 16 -8 23 -6 8 3 3 7 -10 11 -17 4 -21 3 -13 -5z"/>
<path d="M1143 700 c0 -25 2 -35 4 -22 2 12 2 32 0 45 -2 12 -4 2 -4 -23z"/>
<path d="M2792 560 c0 -14 2 -19 5 -12 2 6 2 18 0 25 -3 6 -5 1 -5 -13z"/>
<path d="M3130 276 c0 -2 7 -7 16 -10 8 -3 12 -2 9 4 -6 10 -25 14 -25 6z"/>
<path d="M2540 271 c0 -6 17 -11 37 -11 42 0 39 9 -6 16 -18 3 -31 1 -31 -5z"/>
<path d="M948 2399 c-4 -9 2 -22 12 -29 11 -8 17 -17 14 -22 -3 -4 0 -8 6 -8
6 0 8 -4 5 -10 -3 -5 -1 -10 5 -10 6 0 8 -5 4 -11 -3 -6 0 -15 7 -20 11 -7 10
-11 -6 -25 -19 -15 -19 -15 5 -1 14 9 23 21 21 29 -2 7 -4 19 -4 26 0 6 -5 12
-11 12 -6 0 -4 5 4 10 13 9 13 10 0 10 -16 0 -44 28 -52 51 -3 10 -6 10 -10
-2z"/>
<path d="M1890 2360 c-8 -5 -10 -10 -5 -10 6 0 17 5 25 10 8 5 11 10 5 10 -5
0 -17 -5 -25 -10z"/>
<path d="M498 2353 c6 -2 18 -2 25 0 6 3 1 5 -13 5 -14 0 -19 -2 -12 -5z"/>
<path d="M2238 2313 c7 -3 16 -2 19 1 4 3 -2 6 -13 5 -11 0 -14 -3 -6 -6z"/>
<path d="M498 2253 c7 -3 16 -2 19 1 4 3 -2 6 -13 5 -11 0 -14 -3 -6 -6z"/>
<path d="M450 2240 c20 -13 43 -13 35 0 -3 6 -16 10 -28 10 -18 0 -19 -2 -7
-10z"/>
<path d="M1781 2134 c0 -11 3 -14 6 -6 3 7 2 16 -1 19 -3 4 -6 -2 -5 -13z"/>
<path d="M1429 2136 c-2 -3 -16 -6 -29 -8 -14 -2 -35 -10 -48 -16 -12 -7 -26
-10 -31 -7 -5 3 -12 -1 -14 -7 -4 -10 -7 -10 -15 0 -7 11 -10 11 -15 -2 -4 -9
-13 -16 -21 -16 -10 0 -13 -6 -10 -15 4 -10 0 -15 -11 -15 -15 0 -15 -1 0 -16
18 -19 22 -17 27 11 4 26 20 44 35 38 6 -3 28 3 47 12 39 19 85 23 129 12 17
-5 27 -3 27 3 0 6 -4 8 -10 5 -5 -3 -10 -2 -10 4 0 6 -7 8 -16 4 -9 -3 -19 -1
-23 6 -4 6 -9 9 -12 7z"/>
<path d="M568 2114 c-38 -20 -36 -28 2 -9 17 9 30 18 30 20 0 7 -1 6 -32 -11z"/>
<path d="M1536 2050 c22 -22 47 -40 57 -40 14 0 16 -4 7 -19 -5 -11 -10 -26
-10 -33 1 -11 30 47 30 58 0 2 -9 4 -20 4 -11 0 -20 7 -20 15 0 8 -7 15 -16
15 -8 0 -12 5 -9 10 3 6 -3 10 -14 10 -12 0 -21 5 -21 10 0 6 -5 10 -11 10 -7
0 6 -18 27 -40z"/>
<path d="M2233 2075 c-3 -9 -3 -18 -1 -21 3 -3 8 4 11 16 6 23 -1 27 -10 5z"/>
<path d="M2281 2074 c0 -11 3 -14 6 -6 3 7 2 16 -1 19 -3 4 -6 -2 -5 -13z"/>
<path d="M1756 2063 c-6 -14 -5 -15 5 -6 7 7 10 15 7 18 -3 3 -9 -2 -12 -12z"/>
<path d="M1173 2053 c9 -2 23 -2 30 0 6 3 -1 5 -18 5 -16 0 -22 -2 -12 -5z"/>
<path d="M1138 2043 c6 -2 12 -11 12 -19 0 -8 5 -14 10 -14 16 0 11 27 -6 34
-9 3 -19 6 -22 5 -4 0 -1 -3 6 -6z"/>
<path d="M471 2024 c0 -11 3 -14 6 -6 3 7 2 16 -1 19 -3 4 -6 -2 -5 -13z"/>
<path d="M1736 2023 c-6 -14 -5 -15 5 -6 7 7 10 15 7 18 -3 3 -9 -2 -12 -12z"/>
<path d="M2211 1994 c0 -11 3 -14 6 -6 3 7 2 16 -1 19 -3 4 -6 -2 -5 -13z"/>
<path d="M1941 1958 c-1 -23 15 -32 23 -12 3 8 2 13 -3 9 -5 -3 -12 1 -14 7
-4 8 -6 7 -6 -4z"/>
<path d="M902 1930 c0 -8 3 -26 7 -40 7 -25 7 -25 13 -2 3 12 2 22 -2 22 -5 0
-11 8 -13 18 -3 11 -5 12 -5 2z"/>
<path d="M1071 1834 c0 -11 3 -14 6 -6 3 7 2 16 -1 19 -3 4 -6 -2 -5 -13z"/>
<path d="M1066 1643 c7 -4 14 -17 17 -28 5 -16 5 -15 4 4 -1 14 -9 26 -17 28
-10 3 -11 2 -4 -4z"/>
<path d="M1715 1451 c-3 -5 -1 -12 5 -16 5 -3 10 1 10 9 0 18 -6 21 -15 7z"/>
<path d="M1761 1434 c0 -11 3 -14 6 -6 3 7 2 16 -1 19 -3 4 -6 -2 -5 -13z"/>
</g>
</svg>
