<?xml version="1.0" encoding="UTF-8"?>
<!DOCTYPE svg PUBLIC "-//W3C//DTD SVG 1.1//EN" "http://www.w3.org/Graphics/SVG/1.1/DTD/svg11.dtd">
<svg xmlns="http://www.w3.org/2000/svg" version="1.1" width="289px" height="302px" style="shape-rendering:geometricPrecision; text-rendering:geometricPrecision; image-rendering:optimizeQuality; fill-rule:evenodd; clip-rule:evenodd" xmlns:xlink="http://www.w3.org/1999/xlink">
<g><path style="opacity:0.974" fill="#0a0507" d="M -0.5,-0.5 C 39.1667,-0.5 78.8333,-0.5 118.5,-0.5C 127.438,7.93705 136.272,16.6037 145,25.5C 153.005,16.662 161.172,7.99529 169.5,-0.5C 209.167,-0.5 248.833,-0.5 288.5,-0.5C 288.5,0.833333 288.5,2.16667 288.5,3.5C 285.381,13.2932 282.548,23.2932 280,33.5C 278.556,70.4956 277.222,107.496 276,144.5C 258.5,162 241,179.5 223.5,197C 210.171,197.5 196.837,197.667 183.5,197.5C 183.5,215.167 183.5,232.833 183.5,250.5C 179.167,250.5 174.833,250.5 170.5,250.5C 170.5,254.833 170.5,259.167 170.5,263.5C 166.167,263.5 161.833,263.5 157.5,263.5C 157.5,267.5 157.5,271.5 157.5,275.5C 161.833,275.5 166.167,275.5 170.5,275.5C 170.5,284.167 170.5,292.833 170.5,301.5C 152.833,301.5 135.167,301.5 117.5,301.5C 117.5,292.5 117.5,283.5 117.5,274.5C 121.5,274.5 125.5,274.5 129.5,274.5C 129.5,270.833 129.5,267.167 129.5,263.5C 120.833,263.5 112.167,263.5 103.5,263.5C 103.5,241.5 103.5,219.5 103.5,197.5C 90.1625,197.667 76.8292,197.5 63.5,197C 46.6956,179.195 29.5289,161.695 12,144.5C 10.483,108.507 9.14967,72.507 8,36.5C 5.60933,25.2672 2.77599,14.2672 -0.5,3.5C -0.5,2.16667 -0.5,0.833333 -0.5,-0.5 Z M 182.5,149.5 C 183.495,160.321 183.828,171.321 183.5,182.5C 179.167,182.5 174.833,182.5 170.5,182.5C 170.334,174.826 170.5,167.159 171,159.5C 175.186,156.503 179.019,153.17 182.5,149.5 Z M 105.5,151.5 C 109.439,154.262 113.272,157.262 117,160.5C 117.5,172.495 117.667,184.495 117.5,196.5C 113.5,196.5 109.5,196.5 105.5,196.5C 105.5,181.5 105.5,166.5 105.5,151.5 Z"/></g>
<g><path style="opacity:1" fill="#868384" d="M 39.5,12.5 C 31.6484,12.1746 23.9818,12.508 16.5,13.5C 15.9569,13.44 15.6236,13.1067 15.5,12.5C 23.6572,11.1796 31.6572,11.1796 39.5,12.5 Z"/></g>
<g><path style="opacity:1" fill="#fcfcfc" d="M 39.5,12.5 C 39.6548,18.1214 41.4881,23.1214 45,27.5C 50.4717,31.2225 56.3051,34.3891 62.5,37C 66.455,41.204 66.455,45.3707 62.5,49.5C 57.5562,51.486 52.5562,53.3193 47.5,55C 39.8859,60.2078 37.3859,67.3745 40,76.5C 41.6891,81.5252 44.8558,85.3585 49.5,88C 54.5324,89.5982 59.0324,92.0982 63,95.5C 64.1825,99.2739 63.3492,102.441 60.5,105C 52.8288,106.916 46.3288,110.75 41,116.5C 38.4659,124.273 39.4659,131.606 44,138.5C 57.0828,153.089 72.9161,163.422 91.5,169.5C 91.5,174.167 91.5,178.833 91.5,183.5C 83.8261,183.666 76.1594,183.5 68.5,183C 54.6379,168.804 40.4713,154.971 26,141.5C 24.3332,104.83 22.6665,68.1629 21,31.5C 19.4954,25.4817 17.9954,19.4817 16.5,13.5C 23.9818,12.508 31.6484,12.1746 39.5,12.5 Z"/></g>
<g><path style="opacity:1" fill="#767676" d="M 39.5,12.5 C 60.8333,12.5 82.1667,12.5 103.5,12.5C 103.5,21.1667 103.5,29.8333 103.5,38.5C 94.8333,38.5 86.1667,38.5 77.5,38.5C 77.1685,69.6712 77.5018,100.671 78.5,131.5C 82.8333,131.5 87.1667,131.5 91.5,131.5C 91.5,144.167 91.5,156.833 91.5,169.5C 72.9161,163.422 57.0828,153.089 44,138.5C 39.4659,131.606 38.4659,124.273 41,116.5C 46.3288,110.75 52.8288,106.916 60.5,105C 63.3492,102.441 64.1825,99.2739 63,95.5C 59.0324,92.0982 54.5324,89.5982 49.5,88C 44.8558,85.3585 41.6891,81.5252 40,76.5C 37.3859,67.3745 39.8859,60.2078 47.5,55C 52.5562,53.3193 57.5562,51.486 62.5,49.5C 66.455,45.3707 66.455,41.204 62.5,37C 56.3051,34.3891 50.4717,31.2225 45,27.5C 41.4881,23.1214 39.6548,18.1214 39.5,12.5 Z"/></g>
<g><path style="opacity:1" fill="#767676" d="M 184.5,12.5 C 213.508,12.1668 242.508,12.5002 271.5,13.5C 271.376,14.1067 271.043,14.44 270.5,14.5C 264.69,13.5104 258.69,13.1771 252.5,13.5C 252.318,21.1714 248.985,27.0047 242.5,31C 237.888,32.6394 233.554,34.8061 229.5,37.5C 225.41,41.9223 225.743,46.089 230.5,50C 235.822,51.9984 241.155,53.9984 246.5,56C 253.804,63.0326 255.304,71.1992 251,80.5C 249.5,83.3333 247.333,85.5 244.5,87C 239.711,89.148 235.044,91.4814 230.5,94C 227.833,97.3333 227.833,100.667 230.5,104C 235.295,106.713 240.295,109.046 245.5,111C 253.47,116.923 255.303,124.423 251,133.5C 246.215,141.952 239.715,148.786 231.5,154C 220.85,161.659 209.183,167.159 196.5,170.5C 196.5,157.5 196.5,144.5 196.5,131.5C 201.167,131.5 205.833,131.5 210.5,131.5C 210.5,100.5 210.5,69.5 210.5,38.5C 201.833,38.5 193.167,38.5 184.5,38.5C 184.5,29.8333 184.5,21.1667 184.5,12.5 Z"/></g>
<g><path style="opacity:1" fill="#fbfbfb" d="M 270.5,14.5 C 268.774,20.1798 266.94,25.8465 265,31.5C 264.291,68.1857 263.291,104.852 262,141.5C 248.137,155.029 234.637,168.862 221.5,183C 213.173,183.5 204.84,183.666 196.5,183.5C 196.5,179.167 196.5,174.833 196.5,170.5C 209.183,167.159 220.85,161.659 231.5,154C 239.715,148.786 246.215,141.952 251,133.5C 255.303,124.423 253.47,116.923 245.5,111C 240.295,109.046 235.295,106.713 230.5,104C 227.833,100.667 227.833,97.3333 230.5,94C 235.044,91.4814 239.711,89.148 244.5,87C 247.333,85.5 249.5,83.3333 251,80.5C 255.304,71.1992 253.804,63.0326 246.5,56C 241.155,53.9984 235.822,51.9984 230.5,50C 225.743,46.089 225.41,41.9223 229.5,37.5C 233.554,34.8061 237.888,32.6394 242.5,31C 248.985,27.0047 252.318,21.1714 252.5,13.5C 258.69,13.1771 264.69,13.5104 270.5,14.5 Z"/></g>
<g><path style="opacity:1" fill="#595556" d="M 103.5,12.5 C 104.493,21.3178 104.827,30.3178 104.5,39.5C 95.8333,39.5 87.1667,39.5 78.5,39.5C 78.5,70.1667 78.5,100.833 78.5,131.5C 77.5018,100.671 77.1685,69.6712 77.5,38.5C 86.1667,38.5 94.8333,38.5 103.5,38.5C 103.5,29.8333 103.5,21.1667 103.5,12.5 Z"/></g>
<g><path style="opacity:1" fill="#fdfdfd" d="M 196.5,52.5 C 196.667,74.1692 196.5,95.8359 196,117.5C 179.167,130.333 162.333,143.167 145.5,156C 143.721,155.956 142.055,155.289 140.5,154C 124.622,141.949 108.622,130.116 92.5,118.5C 92.5,96.5 92.5,74.5 92.5,52.5C 127.167,52.5 161.833,52.5 196.5,52.5 Z"/></g>
<g><path style="opacity:1" fill="#989596" d="M 196.5,52.5 C 161.833,52.5 127.167,52.5 92.5,52.5C 92.5,74.5 92.5,96.5 92.5,118.5C 91.5026,96.3396 91.1692,74.0062 91.5,51.5C 126.671,51.1683 161.671,51.5016 196.5,52.5 Z"/></g>
<g><path style="opacity:1" fill="#414040" d="M 184.5,12.5 C 184.5,21.1667 184.5,29.8333 184.5,38.5C 193.167,38.5 201.833,38.5 210.5,38.5C 210.5,69.5 210.5,100.5 210.5,131.5C 205.833,131.5 201.167,131.5 196.5,131.5C 200.634,130.515 204.968,130.182 209.5,130.5C 209.5,100.167 209.5,69.8333 209.5,39.5C 200.833,39.5 192.167,39.5 183.5,39.5C 183.173,30.3178 183.507,21.3178 184.5,12.5 Z"/></g>
<g><path style="opacity:1" fill="#929292" d="M 104.5,66.5 C 130.661,65.5022 156.995,65.1688 183.5,65.5C 183.829,79.0105 183.496,92.3438 182.5,105.5C 182.5,92.5 182.5,79.5 182.5,66.5C 156.5,66.5 130.5,66.5 104.5,66.5 Z"/></g>
<g><path style="opacity:1" fill="#777777" d="M 104.5,66.5 C 130.5,66.5 156.5,66.5 182.5,66.5C 182.5,79.5 182.5,92.5 182.5,105.5C 170.862,113.323 159.195,121.157 147.5,129C 145.956,130.187 144.289,130.52 142.5,130C 130.167,121.833 117.833,113.667 105.5,105.5C 104.501,92.5171 104.168,79.5171 104.5,66.5 Z"/></g>
<g><path style="opacity:1" fill="#c2c1c1" d="M 117.5,75.5 C 135.167,75.5 152.833,75.5 170.5,75.5C 170.666,84.1731 170.5,92.8397 170,101.5C 161.607,106.737 153.107,111.737 144.5,116.5C 135.305,112.139 126.472,107.139 118,101.5C 117.5,92.8397 117.334,84.1731 117.5,75.5 Z"/></g>
<g><path style="opacity:1" fill="#c2bfc0" d="M 156.5,170.5 C 156.5,174.833 156.5,179.167 156.5,183.5C 156.167,183.5 155.833,183.5 155.5,183.5C 151.167,183.5 146.833,183.5 142.5,183.5C 142.5,187.833 142.5,192.167 142.5,196.5C 138.5,196.5 134.5,196.5 130.5,196.5C 130.5,187.833 130.5,179.167 130.5,170.5C 139.167,170.5 147.833,170.5 156.5,170.5 Z"/></g>
<g><path style="opacity:1" fill="#504d4f" d="M 156.5,170.5 C 157.483,174.298 157.817,178.298 157.5,182.5C 158.791,182.263 159.791,182.596 160.5,183.5C 159.167,183.5 157.833,183.5 156.5,183.5C 156.5,179.167 156.5,174.833 156.5,170.5 Z"/></g>
<g><path style="opacity:1" fill="#f8f8f8" d="M 156.5,183.5 C 157.833,183.5 159.167,183.5 160.5,183.5C 163.5,183.5 166.5,183.5 169.5,183.5C 169.5,187.833 169.5,192.167 169.5,196.5C 165.167,196.5 160.833,196.5 156.5,196.5C 156.5,192.167 156.5,187.833 156.5,183.5 Z"/></g>
<g><path style="opacity:1" fill="#fcfcfc" d="M 143.5,197.5 C 147.5,197.5 151.5,197.5 155.5,197.5C 155.183,201.702 155.517,205.702 156.5,209.5C 160.298,210.483 164.298,210.817 168.5,210.5C 168.5,214.833 168.5,219.167 168.5,223.5C 164.5,223.5 160.5,223.5 156.5,223.5C 155.515,227.634 155.182,231.968 155.5,236.5C 151.5,236.5 147.5,236.5 143.5,236.5C 143.5,223.5 143.5,210.5 143.5,197.5 Z"/></g>
<g><path style="opacity:1" fill="#959193" d="M 155.5,183.5 C 155.833,183.5 156.167,183.5 156.5,183.5C 156.5,187.833 156.5,192.167 156.5,196.5C 160.833,196.5 165.167,196.5 169.5,196.5C 165.366,197.485 161.032,197.818 156.5,197.5C 156.5,201.5 156.5,205.5 156.5,209.5C 155.517,205.702 155.183,201.702 155.5,197.5C 151.5,197.5 147.5,197.5 143.5,197.5C 147.298,196.517 151.298,196.183 155.5,196.5C 155.5,192.167 155.5,187.833 155.5,183.5 Z"/></g>
<g><path style="opacity:1" fill="#c1bfc0" d="M 116.5,209.5 C 120.833,209.5 125.167,209.5 129.5,209.5C 129.5,213.833 129.5,218.167 129.5,222.5C 125.167,222.5 120.833,222.5 116.5,222.5C 116.5,218.167 116.5,213.833 116.5,209.5 Z"/></g>
<g><path style="opacity:1" fill="#b9b8b8" d="M 156.5,209.5 C 160.833,209.5 165.167,209.5 169.5,209.5C 169.819,214.363 169.486,219.03 168.5,223.5C 168.5,219.167 168.5,214.833 168.5,210.5C 164.298,210.817 160.298,210.483 156.5,209.5 Z"/></g>
<g><path style="opacity:1" fill="#c4c1c2" d="M 117.5,236.5 C 121.534,236.505 125.534,236.838 129.5,237.5C 129.5,241.5 129.5,245.5 129.5,249.5C 125.5,249.5 121.5,249.5 117.5,249.5C 117.5,245.167 117.5,240.833 117.5,236.5 Z"/></g>
<g><path style="opacity:1" fill="#f9f8f9" d="M 156.5,236.5 C 160.833,236.5 165.167,236.5 169.5,236.5C 169.5,241.167 169.5,245.833 169.5,250.5C 165.167,250.5 160.833,250.5 156.5,250.5C 156.5,245.833 156.5,241.167 156.5,236.5 Z"/></g>
<g><path style="opacity:1" fill="#b7b5b5" d="M 156.5,223.5 C 156.5,227.833 156.5,232.167 156.5,236.5C 156.5,241.167 156.5,245.833 156.5,250.5C 156.5,254.5 156.5,258.5 156.5,262.5C 151.833,262.5 147.167,262.5 142.5,262.5C 142.5,258.5 142.5,254.5 142.5,250.5C 146.833,250.5 151.167,250.5 155.5,250.5C 155.5,245.833 155.5,241.167 155.5,236.5C 155.182,231.968 155.515,227.634 156.5,223.5 Z"/></g>
<g><path style="opacity:1" fill="#716e6f" d="M 130.5,282.5 C 130.5,286.167 130.5,289.833 130.5,293.5C 138.833,293.5 147.167,293.5 155.5,293.5C 155.5,289.833 155.5,286.167 155.5,282.5C 156.483,286.298 156.817,290.298 156.5,294.5C 147.5,294.5 138.5,294.5 129.5,294.5C 129.183,290.298 129.517,286.298 130.5,282.5 Z"/></g>
<g><path style="opacity:1" fill="#c2c0c1" d="M 130.5,282.5 C 138.833,282.5 147.167,282.5 155.5,282.5C 155.5,286.167 155.5,289.833 155.5,293.5C 147.167,293.5 138.833,293.5 130.5,293.5C 130.5,289.833 130.5,286.167 130.5,282.5 Z"/></g>
</svg>
