<?xml version="1.0" encoding="UTF-8"?>
<!DOCTYPE svg PUBLIC "-//W3C//DTD SVG 1.1//EN" "http://www.w3.org/Graphics/SVG/1.1/DTD/svg11.dtd">
<svg xmlns="http://www.w3.org/2000/svg" version="1.1" width="65px" height="65px" style="shape-rendering:geometricPrecision; text-rendering:geometricPrecision; image-rendering:optimizeQuality; fill-rule:evenodd; clip-rule:evenodd" xmlns:xlink="http://www.w3.org/1999/xlink">
<g><path style="opacity:1" fill="#171512" d="M 24.5,30.5 C 23.625,33.5174 24.9583,35.3507 28.5,36C 27.2625,36.2321 26.2625,36.7321 25.5,37.5C 20.2707,38.7813 15.6041,41.1146 11.5,44.5C 11.6309,43.6236 11.2975,42.9569 10.5,42.5C 9.18614,43.3128 8.01948,44.3128 7,45.5C 6.60123,45.2716 6.43456,44.9382 6.5,44.5C 8.46129,42.7084 9.79462,40.5418 10.5,38C 1.02966,15.7335 8.02966,3.56687 31.5,1.5C 31.6495,2.55198 31.4828,3.55198 31,4.5C 20.1147,10.989 17.948,19.6557 24.5,30.5 Z"/></g>
<g><path style="opacity:0.779" fill="#15120e" d="M 36.5,45.5 C 36.8333,44.8333 37.1667,44.1667 37.5,43.5C 42.521,44.843 47.1877,47.0097 51.5,50C 52.5,50.6667 53.5,50.6667 54.5,50C 55.7596,48.1862 55.7596,46.3529 54.5,44.5C 50.7631,42.4891 47.0965,40.4891 43.5,38.5C 43.5,37.8333 43.5,37.1667 43.5,36.5C 45.7638,37.2186 48.0971,37.552 50.5,37.5C 52.2649,32.9576 53.7649,28.291 55,23.5C 55.6597,13.3063 50.8264,7.30628 40.5,5.5C 39.609,6.10978 38.609,6.44312 37.5,6.5C 36.2921,5.76589 34.9587,5.43255 33.5,5.5C 33.5,4.16667 33.5,2.83333 33.5,1.5C 45.247,1.28021 53.747,6.28021 59,16.5C 59.6667,18.8333 59.6667,21.1667 59,23.5C 57.7877,28.9216 56.2877,34.2549 54.5,39.5C 56.6109,41.792 58.6109,44.292 60.5,47C 58.9623,49.9087 57.2956,52.742 55.5,55.5C 53.2546,53.3773 50.5879,52.3773 47.5,52.5C 47.9188,62.5336 43.5855,65.0336 34.5,60C 33.6092,56.8573 33.4425,53.3573 34,49.5C 37.1988,50.2364 37.3655,49.4031 34.5,47C 35.4158,46.7216 36.0825,46.2216 36.5,45.5 Z"/></g>
<g><path style="opacity:0.957" fill="#1c1a18" d="M 40.5,5.5 C 45.4612,8.42253 48.1278,12.7559 48.5,18.5C 46.8412,24.4896 45.1745,30.4896 43.5,36.5C 43.5,37.1667 43.5,37.8333 43.5,38.5C 40.8728,37.9084 38.2062,37.5751 35.5,37.5C 33.1238,36.1834 31.4571,36.8501 30.5,39.5C 29.4479,37.744 27.7812,37.0773 25.5,37.5C 26.2625,36.7321 27.2625,36.2321 28.5,36C 24.9583,35.3507 23.625,33.5174 24.5,30.5C 24.9256,32.2849 26.0922,33.2849 28,33.5C 31.7614,33.0617 35.5947,32.7284 39.5,32.5C 46.0193,22.8624 45.3526,14.1957 37.5,6.5C 38.609,6.44312 39.609,6.10978 40.5,5.5 Z"/></g>
<g><path style="opacity:1" fill="#dddddb" d="M 22.5,5.5 C 23.2389,5.36899 23.9056,5.53566 24.5,6C 17.2555,11.6084 15.4221,18.7751 19,27.5C 23.9002,32.3854 23.2336,35.7188 17,37.5C 13.5274,33.5391 11.5274,28.8724 11,23.5C 9.57389,18.2434 10.7406,13.7434 14.5,10C 17.0993,8.20496 19.7659,6.70496 22.5,5.5 Z"/></g>
<g><path style="opacity:1" fill="#e4e4e2" d="M 40.5,5.5 C 50.8264,7.30628 55.6597,13.3063 55,23.5C 53.7649,28.291 52.2649,32.9576 50.5,37.5C 48.0971,37.552 45.7638,37.2186 43.5,36.5C 45.1745,30.4896 46.8412,24.4896 48.5,18.5C 48.1278,12.7559 45.4612,8.42253 40.5,5.5 Z"/></g>
<g><path style="opacity:0.004" fill="#000000" d="M 33.5,29.5 C 34.8333,30.1667 34.8333,30.1667 33.5,29.5 Z"/></g>
<g><path style="opacity:0.004" fill="#000000" d="M 7.5,37.5 C 8.83333,38.1667 8.83333,38.1667 7.5,37.5 Z"/></g>
<g><path style="opacity:1" fill="#dbdbd9" d="M 35.5,37.5 C 38.2062,37.5751 40.8728,37.9084 43.5,38.5C 47.0965,40.4891 50.7631,42.4891 54.5,44.5C 55.7596,46.3529 55.7596,48.1862 54.5,50C 53.5,50.6667 52.5,50.6667 51.5,50C 47.1877,47.0097 42.521,44.843 37.5,43.5C 35.6921,42.0821 35.0254,40.0821 35.5,37.5 Z"/></g>
<g><path style="opacity:1" fill="#dad9d8" d="M 25.5,37.5 C 27.7812,37.0773 29.4479,37.744 30.5,39.5C 30.5,40.5 30.5,41.5 30.5,42.5C 23.7801,43.5262 17.7801,46.1929 12.5,50.5C 9.12811,48.7766 8.79477,46.7766 11.5,44.5C 15.6041,41.1146 20.2707,38.7813 25.5,37.5 Z"/></g>
<g><path style="opacity:0.004" fill="#000000" d="M 32.5,46.5 C 33.8333,47.1667 33.8333,47.1667 32.5,46.5 Z"/></g>
<g><path style="opacity:0.822" fill="#110f0d" d="M 35.5,37.5 C 35.0254,40.0821 35.6921,42.0821 37.5,43.5C 37.1667,44.1667 36.8333,44.8333 36.5,45.5C 33.0844,44.8941 30.4178,45.8941 28.5,48.5C 29.3467,49.8448 30.5134,50.8448 32,51.5C 33.7945,57.9113 31.4611,61.9113 25,63.5C 19.5891,61.9762 17.4225,58.6429 18.5,53.5C 18.1924,52.6919 17.6924,52.0253 17,51.5C 15.3232,52.5159 13.6565,53.5159 12,54.5C 9.38379,52.8878 7.05045,50.8878 5,48.5C 4.65219,46.8602 5.15219,45.5268 6.5,44.5C 6.43456,44.9382 6.60123,45.2716 7,45.5C 8.01948,44.3128 9.18614,43.3128 10.5,42.5C 11.2975,42.9569 11.6309,43.6236 11.5,44.5C 8.79477,46.7766 9.12811,48.7766 12.5,50.5C 17.7801,46.1929 23.7801,43.5262 30.5,42.5C 30.5,41.5 30.5,40.5 30.5,39.5C 31.4571,36.8501 33.1238,36.1834 35.5,37.5 Z"/></g>
<g><path style="opacity:1" fill="#525454" d="M 41.5,47.5 C 43.2517,47.4176 44.2517,48.2509 44.5,50C 43.8392,52.464 43.3392,54.964 43,57.5C 40.1297,59.0746 37.963,58.4079 36.5,55.5C 38.1569,52.8397 39.8236,50.1731 41.5,47.5 Z"/></g>
<g><path style="opacity:1" fill="#525353" d="M 22.5,47.5 C 24.7764,49.2722 26.9431,51.2722 29,53.5C 29.9337,58.0833 28.1004,59.5833 23.5,58C 21.2084,56.8032 20.8751,55.1365 22.5,53C 22.0496,51.7147 21.3829,50.548 20.5,49.5C 21.2427,48.8182 21.9094,48.1515 22.5,47.5 Z"/></g>
<g><path style="opacity:0.004" fill="#000000" d="M 50.5,57.5 C 51.8333,58.1667 51.8333,58.1667 50.5,57.5 Z"/></g>
<g><path style="opacity:0.004" fill="#000000" d="M 32.5,61.5 C 33.8333,62.1667 33.8333,62.1667 32.5,61.5 Z"/></g>
<g><path style="opacity:0.004" fill="#000000" d="M 32.5,62.5 C 31.8333,63.1667 31.8333,63.1667 32.5,62.5 Z"/></g>
<g><path style="opacity:0.004" fill="#feff00" d="M 20.5,64.5 C 19.8333,63.1667 19.8333,63.1667 20.5,64.5 Z"/></g>
</svg>
