<?xml version="1.0" encoding="UTF-8"?>
<!DOCTYPE svg PUBLIC "-//W3C//DTD SVG 1.1//EN" "http://www.w3.org/Graphics/SVG/1.1/DTD/svg11.dtd">
<svg xmlns="http://www.w3.org/2000/svg" version="1.1" width="65px" height="65px" style="shape-rendering:geometricPrecision; text-rendering:geometricPrecision; image-rendering:optimizeQuality; fill-rule:evenodd; clip-rule:evenodd" xmlns:xlink="http://www.w3.org/1999/xlink">
<g><path style="opacity:0.837" fill="#181512" d="M 37.5,1.5 C 42.7013,1.90204 47.7013,1.90204 52.5,1.5C 52.8333,2.16667 53.1667,2.83333 53.5,3.5C 50.2348,9.27527 46.7348,14.9419 43,20.5C 42.3333,26.1667 42.3333,31.8333 43,37.5C 44.0217,38.354 44.8551,39.354 45.5,40.5C 44.3291,42.1693 42.9958,43.6693 41.5,45C 41.9031,46.4728 42.5697,47.8061 43.5,49C 46.4262,49.2178 49.2595,49.7178 52,50.5C 52.0684,53.6626 52.0684,56.6626 52,59.5C 51.6258,60.4162 51.1258,61.2496 50.5,62C 39.9654,65.0891 32.7987,61.5891 29,51.5C 28.4387,50.9781 27.772,50.6448 27,50.5C 21.6412,53.2654 16.1412,55.5988 10.5,57.5C 10.704,50.9696 10.3707,44.8029 9.5,39C 8.22564,27.1536 11.8923,17.1536 20.5,9C 25.7986,5.34372 31.4652,2.84372 37.5,1.5 Z"/></g>
<g><path style="opacity:1" fill="#f8f8f8" d="M 34.5,6.5 C 43.3789,5.80754 43.7122,7.30754 35.5,11C 31.2477,14.5813 27.7477,18.748 25,23.5C 24.8034,31.9112 24.3034,40.2446 23.5,48.5C 20.8544,49.4866 18.1878,50.4866 15.5,51.5C 14.3345,41.8505 14.1679,32.1839 15,22.5C 18.7201,13.5992 25.2201,8.26583 34.5,6.5 Z"/></g>
<g><path style="opacity:1" fill="#535252" d="M 34.5,6.5 C 39.0152,5.18757 43.6819,5.18757 48.5,6.5C 48.3764,7.10667 48.0431,7.44001 47.5,7.5C 39.4503,10.4464 32.9503,15.4464 28,22.5C 27.8333,26.3333 27.6667,30.1667 27.5,34C 27.5102,38.229 28.1768,42.0623 29.5,45.5C 27.5439,46.478 25.5439,47.478 23.5,48.5C 24.3034,40.2446 24.8034,31.9112 25,23.5C 27.7477,18.748 31.2477,14.5813 35.5,11C 43.7122,7.30754 43.3789,5.80754 34.5,6.5 Z"/></g>
<g><path style="opacity:1" fill="#828282" d="M 47.5,7.5 C 45.01,11.1379 42.51,14.8045 40,18.5C 39.5065,20.1341 39.3398,21.8008 39.5,23.5C 38.1667,23.5 36.8333,23.5 35.5,23.5C 35.5,24.5 35.5,25.5 35.5,26.5C 33.4078,26.4386 31.9078,25.4386 31,23.5C 30.3333,24.8333 30.3333,26.1667 31,27.5C 33.3333,28.8333 35.6667,28.8333 38,27.5C 38.6667,29.8333 38.6667,32.1667 38,34.5C 36.1159,32.4237 33.9492,32.0903 31.5,33.5C 29.4488,38.6172 31.1155,40.4506 36.5,39C 37.3734,37.955 38.3734,37.1217 39.5,36.5C 40.4132,38.0861 40.4132,39.5861 39.5,41C 36.2136,42.5958 32.8803,44.0958 29.5,45.5C 28.1768,42.0623 27.5102,38.229 27.5,34C 27.6667,30.1667 27.8333,26.3333 28,22.5C 32.9503,15.4464 39.4503,10.4464 47.5,7.5 Z"/></g>
<g><path style="opacity:1" fill="#4e4d4d" d="M 39.5,23.5 C 39.5,27.8333 39.5,32.1667 39.5,36.5C 38.3734,37.1217 37.3734,37.955 36.5,39C 31.1155,40.4506 29.4488,38.6172 31.5,33.5C 33.9492,32.0903 36.1159,32.4237 38,34.5C 38.6667,32.1667 38.6667,29.8333 38,27.5C 35.6667,28.8333 33.3333,28.8333 31,27.5C 30.3333,26.1667 30.3333,24.8333 31,23.5C 31.9078,25.4386 33.4078,26.4386 35.5,26.5C 35.5,25.5 35.5,24.5 35.5,23.5C 36.8333,23.5 38.1667,23.5 39.5,23.5 Z"/></g>
<g><path style="opacity:1" fill="#c8c6c7" d="M 32.5,34.5 C 33.5,34.5 34.5,34.5 35.5,34.5C 35.5,35.5 35.5,36.5 35.5,37.5C 34.5,37.5 33.5,37.5 32.5,37.5C 32.5,36.5 32.5,35.5 32.5,34.5 Z"/></g>
<g><path style="opacity:1" fill="#cfcecc" d="M 36.5,44.5 C 38.2252,44.8425 38.7252,45.8425 38,47.5C 36.4157,48.8613 34.5824,49.528 32.5,49.5C 32.5,48.5 32.5,47.5 32.5,46.5C 34.3797,46.7709 35.713,46.1042 36.5,44.5 Z"/></g>
<g><path style="opacity:1" fill="#e7e6e4" d="M 37.5,50.5 C 38.3764,50.3691 39.0431,50.7025 39.5,51.5C 38.5197,52.9814 37.353,54.3147 36,55.5C 34.1204,53.2362 34.6204,51.5696 37.5,50.5 Z"/></g>
<g><path style="opacity:1" fill="#e1e0e0" d="M 41.5,53.5 C 43.1765,54.1834 43.8432,55.5168 43.5,57.5C 41.8008,57.6602 40.1341,57.4935 38.5,57C 39.7101,55.9609 40.7101,54.7942 41.5,53.5 Z"/></g>
<g><path style="opacity:1" fill="#d5d2d2" d="M 46.5,53.5 C 47.5862,53.62 48.2528,54.2867 48.5,55.5C 48.1667,56.1667 47.8333,56.8333 47.5,57.5C 46.5713,56.3112 46.238,54.9778 46.5,53.5 Z"/></g>
<g><path style="opacity:0.004" fill="#fe00ff" d="M 35.5,64.5 C 34.8333,63.1667 34.8333,63.1667 35.5,64.5 Z"/></g>
</svg>
