<?xml version="1.0" encoding="UTF-8"?>
<!DOCTYPE svg PUBLIC "-//W3C//DTD SVG 1.1//EN" "http://www.w3.org/Graphics/SVG/1.1/DTD/svg11.dtd">
<svg xmlns="http://www.w3.org/2000/svg" version="1.1" width="66px" height="66px" style="shape-rendering:geometricPrecision; text-rendering:geometricPrecision; image-rendering:optimizeQuality; fill-rule:evenodd; clip-rule:evenodd" xmlns:xlink="http://www.w3.org/1999/xlink">
<g><path style="opacity:0.803" fill="#1a1815" d="M 37.5,12.5 C 38.1667,13.1667 38.8333,13.8333 39.5,14.5C 39.5,14.8333 39.5,15.1667 39.5,15.5C 37.0632,17.9835 34.0632,19.3168 30.5,19.5C 29.9251,24.2384 31.5917,27.9051 35.5,30.5C 35.5,31.1667 35.5,31.8333 35.5,32.5C 35.5,35.8333 35.5,39.1667 35.5,42.5C 34.6873,40.7392 33.6873,39.0725 32.5,37.5C 31.8519,35.9142 31.3519,34.2475 31,32.5C 30.8333,33.3333 30.6667,34.1667 30.5,35C 31.4407,38.029 31.774,40.8624 31.5,43.5C 32.5624,44.5754 32.5624,45.5754 31.5,46.5C 29.9954,43.8694 29.3287,44.2027 29.5,47.5C 23.4632,47.1707 17.4632,47.5041 11.5,48.5C 11.1373,49.1835 10.8039,49.8501 10.5,50.5C 9.41683,50.4606 8.41683,50.1272 7.5,49.5C 5.9507,51.8379 4.9507,51.3379 4.5,48C 5.16667,46.6667 5.83333,45.3333 6.5,44C 5.99148,42.8315 5.15815,41.9981 4,41.5C 3.3708,37.1294 3.53747,32.796 4.5,28.5C 7.1569,28.838 9.49024,28.1713 11.5,26.5C 9.30519,25.2309 7.13853,25.2309 5,26.5C 4.30762,25.9747 3.80762,25.3081 3.5,24.5C 3.77036,19.1927 3.93703,13.8594 4,8.5C 6.23651,6.71934 8.23651,4.71934 10,2.5C 12.0408,3.42308 14.2075,3.75642 16.5,3.5C 16.5,5.16667 16.5,6.83333 16.5,8.5C 20.1064,8.78917 23.6064,8.45584 27,7.5C 28.7566,9.87996 28.9233,12.38 27.5,15C 28.1079,15.8699 28.9412,16.3699 30,16.5C 33.0081,16.0063 35.5081,14.6729 37.5,12.5 Z M 26.5,27.5 C 26.6121,23.6607 27.2787,23.6607 28.5,27.5C 28.0302,28.463 27.3635,28.463 26.5,27.5 Z"/></g>
<g><path style="opacity:1" fill="#8f8e8e" d="M 14.5,11.5 C 18.226,11.1774 21.8927,11.5108 25.5,12.5C 23.6667,12.8333 21.8333,13.1667 20,13.5C 17.7047,13.4535 15.8714,12.7868 14.5,11.5 Z"/></g>
<g><path style="opacity:0.781" fill="#15110f" d="M 37.5,12.5 C 41.9811,11.3516 46.6478,11.1849 51.5,12C 54.5215,14.7606 58.0215,16.594 62,17.5C 61.3099,19.6562 61.4766,21.8229 62.5,24C 61.3758,26.411 59.8758,28.5777 58,30.5C 57.6667,36.5 57.3333,42.5 57,48.5C 52.6679,56.3668 46.1679,58.7001 37.5,55.5C 35.8766,53.2087 34.0433,51.2087 32,49.5C 30.7651,50.6155 29.5984,50.6155 28.5,49.5C 27.1451,50.1882 26.1451,51.1882 25.5,52.5C 25.5,53.5 25.5,54.5 25.5,55.5C 26.5796,59.3252 25.0796,61.9919 21,63.5C 17.7368,63.1021 14.4035,63.1021 11,63.5C 10.2496,62.8742 9.41623,62.3742 8.5,62C 8.93688,59.7827 8.93688,57.4494 8.5,55C 9.50464,53.4933 10.838,52.3267 12.5,51.5C 11.7997,51.2129 11.1331,50.8795 10.5,50.5C 10.8039,49.8501 11.1373,49.1835 11.5,48.5C 17.4632,47.5041 23.4632,47.1707 29.5,47.5C 29.3287,44.2027 29.9954,43.8694 31.5,46.5C 32.5624,45.5754 32.5624,44.5754 31.5,43.5C 32.3414,41.6208 32.6747,39.6208 32.5,37.5C 33.6873,39.0725 34.6873,40.7392 35.5,42.5C 35.4084,46.4067 36.7417,49.7401 39.5,52.5C 42.8333,53.8333 46.1667,53.8333 49.5,52.5C 50.657,50.8624 51.8236,49.1957 53,47.5C 53.4993,42.5111 53.6659,37.5111 53.5,32.5C 53.5,31.8333 53.5,31.1667 53.5,30.5C 57.4083,27.9051 59.0749,24.2384 58.5,19.5C 54.8707,19.5175 51.8707,18.1842 49.5,15.5C 46.3752,14.5206 43.0419,14.1872 39.5,14.5C 38.8333,13.8333 38.1667,13.1667 37.5,12.5 Z"/></g>
<g><path style="opacity:1" fill="#d1d0d0" d="M 10.5,6.5 C 12.4417,11.0557 13.1083,16.0557 12.5,21.5C 10.8333,21.5 9.16667,21.5 7.5,21.5C 7.33449,17.4862 7.50115,13.4862 8,9.5C 9.04499,8.62656 9.87833,7.62656 10.5,6.5 Z"/></g>
<g><path style="opacity:1" fill="#919191" d="M 49.5,15.5 C 51.8707,18.1842 54.8707,19.5175 58.5,19.5C 59.0749,24.2384 57.4083,27.9051 53.5,30.5C 50.8333,30.5 48.1667,30.5 45.5,30.5C 45.5,25.5 45.5,20.5 45.5,15.5C 46.8333,15.5 48.1667,15.5 49.5,15.5 Z"/></g>
<g><path style="opacity:1" fill="#8f8f8f" d="M 14.5,16.5 C 17.1667,16.5 19.8333,16.5 22.5,16.5C 22.5,20.8333 22.5,25.1667 22.5,29.5C 19.8333,29.5 17.1667,29.5 14.5,29.5C 14.5,25.1667 14.5,20.8333 14.5,16.5 Z"/></g>
<g><path style="opacity:1" fill="#676767" d="M 39.5,15.5 C 39.5,15.1667 39.5,14.8333 39.5,14.5C 43.0419,14.1872 46.3752,14.5206 49.5,15.5C 48.1667,15.5 46.8333,15.5 45.5,15.5C 45.5,20.5 45.5,25.5 45.5,30.5C 48.1667,30.5 50.8333,30.5 53.5,30.5C 53.5,31.1667 53.5,31.8333 53.5,32.5C 50.8333,32.5 48.1667,32.5 45.5,32.5C 45.5,39.1667 45.5,45.8333 45.5,52.5C 46.8333,52.5 48.1667,52.5 49.5,52.5C 46.1667,53.8333 42.8333,53.8333 39.5,52.5C 40.8333,52.5 42.1667,52.5 43.5,52.5C 43.5,45.8333 43.5,39.1667 43.5,32.5C 40.8333,32.5 38.1667,32.5 35.5,32.5C 35.5,31.8333 35.5,31.1667 35.5,30.5C 38.1667,30.5 40.8333,30.5 43.5,30.5C 43.5,25.5 43.5,20.5 43.5,15.5C 42.1667,15.5 40.8333,15.5 39.5,15.5 Z"/></g>
<g><path style="opacity:1" fill="#121212" d="M 48.5,22.5 C 49.6491,22.7911 50.3158,23.6244 50.5,25C 50.1667,25.8333 49.8333,26.6667 49.5,27.5C 48.5481,25.9547 48.2148,24.288 48.5,22.5 Z"/></g>
<g><path style="opacity:1" fill="#d4d4d3" d="M 39.5,15.5 C 40.8333,15.5 42.1667,15.5 43.5,15.5C 43.5,20.5 43.5,25.5 43.5,30.5C 40.8333,30.5 38.1667,30.5 35.5,30.5C 31.5917,27.9051 29.9251,24.2384 30.5,19.5C 34.0632,19.3168 37.0632,17.9835 39.5,15.5 Z"/></g>
<g><path style="opacity:1" fill="#181817" d="M 38.5,22.5 C 39.6491,22.7911 40.3158,23.6244 40.5,25C 40.1667,25.8333 39.8333,26.6667 39.5,27.5C 38.5481,25.9547 38.2148,24.288 38.5,22.5 Z"/></g>
<g><path style="opacity:1" fill="#959595" d="M 7.5,31.5 C 9.25605,32.5521 9.92271,34.2188 9.5,36.5C 11.1667,36.5 12.8333,36.5 14.5,36.5C 14.5,34.8333 14.5,33.1667 14.5,31.5C 16.1667,31.5 17.8333,31.5 19.5,31.5C 19.5,33.1667 19.5,34.8333 19.5,36.5C 21.5,36.5 23.5,36.5 25.5,36.5C 25.2148,34.712 25.5481,33.0453 26.5,31.5C 27.4742,33.7427 27.8076,36.076 27.5,38.5C 20.8333,38.5 14.1667,38.5 7.5,38.5C 7.5,36.1667 7.5,33.8333 7.5,31.5 Z"/></g>
<g><path style="opacity:1" fill="#939393" d="M 35.5,32.5 C 38.1667,32.5 40.8333,32.5 43.5,32.5C 43.5,39.1667 43.5,45.8333 43.5,52.5C 42.1667,52.5 40.8333,52.5 39.5,52.5C 36.7417,49.7401 35.4084,46.4067 35.5,42.5C 35.5,39.1667 35.5,35.8333 35.5,32.5 Z"/></g>
<g><path style="opacity:1" fill="#131213" d="M 38.5,35.5 C 39.6491,35.7911 40.3158,36.6244 40.5,38C 40.1667,38.8333 39.8333,39.6667 39.5,40.5C 38.5481,38.9547 38.2148,37.288 38.5,35.5 Z"/></g>
<g><path style="opacity:1" fill="#dcdcdb" d="M 53.5,32.5 C 53.6659,37.5111 53.4993,42.5111 53,47.5C 51.8236,49.1957 50.657,50.8624 49.5,52.5C 48.1667,52.5 46.8333,52.5 45.5,52.5C 45.5,45.8333 45.5,39.1667 45.5,32.5C 48.1667,32.5 50.8333,32.5 53.5,32.5 Z"/></g>
<g><path style="opacity:1" fill="#1b1b1a" d="M 48.5,35.5 C 49.6491,35.7911 50.3158,36.6244 50.5,38C 50.1667,38.8333 49.8333,39.6667 49.5,40.5C 48.5481,38.9547 48.2148,37.288 48.5,35.5 Z"/></g>
<g><path style="opacity:1" fill="#d4d4d3" d="M 11.5,41.5 C 16.544,41.1725 21.544,41.5059 26.5,42.5C 27.1667,43.5 27.8333,44.5 28.5,45.5C 22.5368,46.4959 16.5368,46.8293 10.5,46.5C 10.6287,44.7839 10.962,43.1172 11.5,41.5 Z"/></g>
<g><path style="opacity:1" fill="#8f8e8e" d="M 15.5,48.5 C 17.8333,48.5 20.1667,48.5 22.5,48.5C 24.8008,57.8679 21.4675,60.8679 12.5,57.5C 14.1091,54.7013 15.1091,51.7013 15.5,48.5 Z"/></g>
<g><path style="opacity:0.007" fill="#000000" d="M 57.5,52.5 C 58.7733,53.0768 58.7733,53.7435 57.5,54.5C 56.537,54.0302 56.537,53.3635 57.5,52.5 Z"/></g>
<g><path style="opacity:0.008" fill="#a29911" d="M 25.5,52.5 C 27.5567,52.9567 27.5567,53.9567 25.5,55.5C 25.5,54.5 25.5,53.5 25.5,52.5 Z"/></g>
<g><path style="opacity:0.004" fill="#000000" d="M 35.5,55.5 C 36.8333,56.1667 36.8333,56.1667 35.5,55.5 Z"/></g>
<g><path style="opacity:0.004" fill="#000000" d="M 21.5,65.5 C 20.8333,64.1667 20.8333,64.1667 21.5,65.5 Z"/></g>
</svg>
