<?xml version="1.0" encoding="UTF-8"?>
<!DOCTYPE svg PUBLIC "-//W3C//DTD SVG 1.1//EN" "http://www.w3.org/Graphics/SVG/1.1/DTD/svg11.dtd">
<svg xmlns="http://www.w3.org/2000/svg" version="1.1" width="65px" height="65px" style="shape-rendering:geometricPrecision; text-rendering:geometricPrecision; image-rendering:optimizeQuality; fill-rule:evenodd; clip-rule:evenodd" xmlns:xlink="http://www.w3.org/1999/xlink">
<g><path style="opacity:0.875" fill="#181614" d="M 26.5,2.5 C 30.237,3.54165 33.737,3.54165 37,2.5C 39.9101,3.45025 41.0768,5.45025 40.5,8.5C 47.592,8.03371 54.092,9.70038 60,13.5C 60.3742,14.4162 60.8742,15.2496 61.5,16C 60.9569,20.7645 59.9569,25.4311 58.5,30C 59.9375,31.2408 61.4375,31.7408 63,31.5C 63.498,34.4816 63.6646,37.4816 63.5,40.5C 60.9379,41.18 58.2713,41.3467 55.5,41C 56.4558,44.3936 56.7892,47.8936 56.5,51.5C 53.1016,51.1796 49.7683,51.513 46.5,52.5C 45.5888,55.1021 45.5888,57.9355 46.5,61C 44.236,61.2362 42.0693,61.7362 40,62.5C 34.1632,61.5596 28.1632,61.5596 22,62.5C 21.2496,61.8742 20.4162,61.3742 19.5,61C 18.1879,53.8907 18.1879,46.7241 19.5,39.5C 20.4255,38.3595 21.2588,38.3595 22,39.5C 22.4994,35.6523 22.3327,31.819 21.5,28C 22.1667,27.3333 22.8333,26.6667 23.5,26C 21.3853,25.4427 19.3853,24.6094 17.5,23.5C 17.3838,28.235 16.8838,32.9016 16,37.5C 15.1667,38.3333 14.3333,39.1667 13.5,40C 9.91064,40.2069 6.41064,40.7069 3,41.5C 1.4431,38.7055 1.10976,35.7055 2,32.5C 2.89963,31.2298 4.06629,30.2298 5.5,29.5C -0.441756,17.8849 2.89158,11.0516 15.5,9C 18.1667,8.66667 20.8333,8.33333 23.5,8C 24.1305,5.90102 25.1305,4.06769 26.5,2.5 Z M 44.5,24.5 C 45.5,24.5 46.5,24.5 47.5,24.5C 47.6602,26.1992 47.4935,27.8659 47,29.5C 46.6458,27.1925 45.6458,26.8592 44,28.5C 42.8288,27.6604 41.6621,26.8271 40.5,26C 42.0581,25.79 43.3915,25.29 44.5,24.5 Z"/></g>
<g><path style="opacity:1" fill="#a8a7a6" d="M 27.5,6.5 C 30.5,6.5 33.5,6.5 36.5,6.5C 36.5,7.5 36.5,8.5 36.5,9.5C 33.5,9.5 30.5,9.5 27.5,9.5C 27.5,8.5 27.5,7.5 27.5,6.5 Z"/></g>
<g><path style="opacity:0.004" fill="#000000" d="M 6.5,8.5 C 7.83333,9.16667 7.83333,9.16667 6.5,8.5 Z"/></g>
<g><path style="opacity:1" fill="#6a6969" d="M 38.5,22.5 C 34.3656,23.4849 30.0323,23.8182 25.5,23.5C 25.5,19.8333 25.5,16.1667 25.5,12.5C 30.1667,12.5 34.8333,12.5 39.5,12.5C 39.8128,16.0419 39.4794,19.3752 38.5,22.5 Z"/></g>
<g><path style="opacity:1" fill="#bcbcbc" d="M 38.5,22.5 C 34.5,22.5 30.5,22.5 26.5,22.5C 26.5,19.5 26.5,16.5 26.5,13.5C 30.5,13.5 34.5,13.5 38.5,13.5C 38.5,16.5 38.5,19.5 38.5,22.5 Z"/></g>
<g><path style="opacity:1" fill="#dbdbd9" d="M 13.5,13.5 C 16.8333,13.5 20.1667,13.5 23.5,13.5C 23.8174,16.5719 23.4841,19.5719 22.5,22.5C 19.8066,19.5238 16.64,18.8571 13,20.5C 12.6667,25.5 12.3333,30.5 12,35.5C 9.86147,36.7691 7.69481,36.7691 5.5,35.5C 9.69112,33.0519 10.5244,29.7185 8,25.5C 7.33333,22.1667 7.33333,18.8333 8,15.5C 9.94828,14.8906 11.7816,14.224 13.5,13.5 Z"/></g>
<g><path style="opacity:1" fill="#e6e5e3" d="M 41.5,13.5 C 46.6362,13.2925 51.6362,13.9592 56.5,15.5C 56.1966,21.1849 56.0299,26.8516 56,32.5C 56.6449,33.646 57.4783,34.646 58.5,35.5C 56.3052,36.7691 54.1385,36.7691 52,35.5C 51.5006,30.1771 51.334,24.8437 51.5,19.5C 48.1934,19.0632 45.1934,19.7298 42.5,21.5C 41.52,18.9135 41.1866,16.2469 41.5,13.5 Z"/></g>
<g><path style="opacity:1" fill="#777776" d="M 35.5,35.5 C 36.1614,36.7175 36.8281,38.0508 37.5,39.5C 38.4841,36.5719 38.8174,33.5719 38.5,30.5C 34.5,30.5 30.5,30.5 26.5,30.5C 25.9455,34.0122 26.6122,37.0122 28.5,39.5C 27.791,40.404 26.791,40.7373 25.5,40.5C 25.5,36.8333 25.5,33.1667 25.5,29.5C 30.1667,29.5 34.8333,29.5 39.5,29.5C 39.5,33.1667 39.5,36.8333 39.5,40.5C 38.1667,40.5 36.8333,40.5 35.5,40.5C 35.5,38.8333 35.5,37.1667 35.5,35.5 Z"/></g>
<g><path style="opacity:1" fill="#bdbdbd" d="M 35.5,35.5 C 33.4858,31.5611 31.3191,31.5611 29,35.5C 28.51,36.7932 28.3433,38.1266 28.5,39.5C 26.6122,37.0122 25.9455,34.0122 26.5,30.5C 30.5,30.5 34.5,30.5 38.5,30.5C 38.8174,33.5719 38.4841,36.5719 37.5,39.5C 36.8281,38.0508 36.1614,36.7175 35.5,35.5 Z"/></g>
<g><path style="opacity:0.004" fill="#fe0000" d="M -0.5,40.5 C 0.833333,41.1667 0.833333,41.1667 -0.5,40.5 Z"/></g>
<g><path style="opacity:0.004" fill="#000000" d="M 5.5,45.5 C 6.83333,46.1667 6.83333,46.1667 5.5,45.5 Z"/></g>
<g><path style="opacity:1" fill="#6c6c6c" d="M 28.5,42.5 C 29.4682,44.6074 29.8016,46.9407 29.5,49.5C 31.5,49.5 33.5,49.5 35.5,49.5C 35.5,47.1667 35.5,44.8333 35.5,42.5C 38.0593,42.1984 40.3926,42.5318 42.5,43.5C 40.5,43.5 38.5,43.5 36.5,43.5C 36.5,45.8333 36.5,48.1667 36.5,50.5C 33.8333,50.5 31.1667,50.5 28.5,50.5C 28.5,47.8333 28.5,45.1667 28.5,42.5 Z"/></g>
<g><path style="opacity:1" fill="#666666" d="M 30.5,42.5 C 31.5,42.5 32.5,42.5 33.5,42.5C 33.5,44.5 33.5,46.5 33.5,48.5C 32.5,48.5 31.5,48.5 30.5,48.5C 30.5,46.5 30.5,44.5 30.5,42.5 Z"/></g>
<g><path style="opacity:1" fill="#aeaeae" d="M 41.5,32.5 C 43.8333,32.5 46.1667,32.5 48.5,32.5C 48.5,36.8333 48.5,41.1667 48.5,45.5C 49.9778,45.238 51.3112,45.5713 52.5,46.5C 50.604,47.4656 48.604,47.7989 46.5,47.5C 46.5,43.1667 46.5,38.8333 46.5,34.5C 44.2188,34.9227 42.5521,34.256 41.5,32.5 Z"/></g>
<g><path style="opacity:1" fill="#bcbbbb" d="M 28.5,42.5 C 28.5,45.1667 28.5,47.8333 28.5,50.5C 31.1667,50.5 33.8333,50.5 36.5,50.5C 36.5,48.1667 36.5,45.8333 36.5,43.5C 38.5,43.5 40.5,43.5 42.5,43.5C 42.5,48.1667 42.5,52.8333 42.5,57.5C 35.8333,57.5 29.1667,57.5 22.5,57.5C 22.5,52.5 22.5,47.5 22.5,42.5C 24.5,42.5 26.5,42.5 28.5,42.5 Z"/></g>
<g><path style="opacity:0.004" fill="#000000" d="M 3.5,64.5 C 2.83333,63.1667 2.83333,63.1667 3.5,64.5 Z"/></g>
</svg>
