<?xml version="1.0" encoding="UTF-8"?>
<!DOCTYPE svg PUBLIC "-//W3C//DTD SVG 1.1//EN" "http://www.w3.org/Graphics/SVG/1.1/DTD/svg11.dtd">
<svg xmlns="http://www.w3.org/2000/svg" version="1.1" width="50px" height="50px" style="shape-rendering:geometricPrecision; text-rendering:geometricPrecision; image-rendering:optimizeQuality; fill-rule:evenodd; clip-rule:evenodd" xmlns:xlink="http://www.w3.org/1999/xlink">
<g><path style="opacity:1" fill="#010101" d="M 22.5,0.5 C 39.8217,0.756832 46.3217,9.4235 42,26.5C 38.3557,29.464 35.5223,32.964 33.5,37C 33.4683,38.9711 34.3016,40.4711 36,41.5C 36.4955,43.4727 36.6621,45.4727 36.5,47.5C 28.5,47.5 20.5,47.5 12.5,47.5C 11.972,43.7895 12.972,40.6228 15.5,38C 12.0478,33.5451 8.21442,29.3784 4,25.5C 3.50454,23.5273 3.33788,21.5273 3.5,19.5C 5.16667,19.5 6.83333,19.5 8.5,19.5C 8.5,18.5 8.5,17.5 8.5,16.5C 7.5,16.5 6.5,16.5 5.5,16.5C 5.5,11.8333 5.5,7.16667 5.5,2.5C 8.2626,2.74381 10.4293,4.07714 12,6.5C 15.0688,3.55447 18.5688,1.55447 22.5,0.5 Z M 10.5,16.5 C 12.4646,16.9483 12.7979,17.9483 11.5,19.5C 10.6143,18.675 10.281,17.675 10.5,16.5 Z M 14.5,16.5 C 16.4646,16.9483 16.7979,17.9483 15.5,19.5C 14.6143,18.675 14.281,17.675 14.5,16.5 Z M 18.5,16.5 C 20.4646,16.9483 20.7979,17.9483 19.5,19.5C 18.6143,18.675 18.281,17.675 18.5,16.5 Z M 22.5,16.5 C 24.4646,16.9483 24.7979,17.9483 23.5,19.5C 22.6143,18.675 22.281,17.675 22.5,16.5 Z"/></g>
<g><path style="opacity:1" fill="#cdc7cd" d="M 30.5,3.5 C 30.9528,4.45837 31.6195,5.2917 32.5,6C 26.8431,6.49942 21.1764,6.66609 15.5,6.5C 20.046,2.81189 25.046,1.81189 30.5,3.5 Z"/></g>
<g><path style="opacity:1" fill="#9c969c" d="M 30.5,3.5 C 36.7786,4.60439 39.9453,8.27105 40,14.5C 37.8333,12.3333 35.6667,10.1667 33.5,8C 26.7468,7.85228 20.7468,7.35228 15.5,6.5C 21.1764,6.66609 26.8431,6.49942 32.5,6C 31.6195,5.2917 30.9528,4.45837 30.5,3.5 Z"/></g>
<g><path style="opacity:1" fill="#ccc7cc" d="M 7.5,5.5 C 8.9616,6.45773 10.2949,7.62439 11.5,9C 18.5,9.33333 25.5,9.66667 32.5,10C 33.5,11 34.5,12 35.5,13C 32.8333,13.3333 30.1667,13.6667 27.5,14C 27,14.5 26.5,15 26,15.5C 19.9242,14.5236 13.7576,14.1903 7.5,14.5C 7.5,11.5 7.5,8.5 7.5,5.5 Z"/></g>
<g><path style="opacity:1" fill="#9b969b" d="M 39.5,16.5 C 40.6378,19.3035 40.8045,22.3035 40,25.5C 37.8333,27.6667 35.6667,29.8333 33.5,32C 30.5,32.6667 27.5,32.6667 24.5,32C 29.7031,26.9646 34.7031,21.798 39.5,16.5 Z"/></g>
<g><path style="opacity:1" fill="#d1ccd1" d="M 21.5,31.5 C 20.4382,33.7565 18.7715,34.9232 16.5,35C 13,31.5 9.5,28 6,24.5C 5.51722,23.552 5.35055,22.552 5.5,21.5C 12.5,21.5 19.5,21.5 26.5,21.5C 26.504,16.0115 29.1707,14.1781 34.5,16C 35.7836,17.2975 35.6169,18.4642 34,19.5C 33.3878,16.9683 31.8878,16.1349 29.5,17C 27.987,19.4541 28.6537,21.1207 31.5,22C 28.2975,25.3709 24.9641,28.5375 21.5,31.5 Z"/></g>
<g><path style="opacity:1" fill="#000000" d="M 9.5,24.5 C 12.4073,25.7341 14.7407,27.7341 16.5,30.5C 15.9984,31.521 15.3317,31.6877 14.5,31C 12.2101,29.2228 10.5434,27.0562 9.5,24.5 Z"/></g>
<g><path style="opacity:1" fill="#000000" d="M 21.5,31.5 C 18.5927,30.2659 16.2593,28.2659 14.5,25.5C 15.0016,24.479 15.6683,24.3123 16.5,25C 18.7899,26.7772 20.4566,28.9438 21.5,31.5 Z"/></g>
<g><path style="opacity:1" fill="#000000" d="M 19.5,24.5 C 21.3841,24.7118 22.7174,25.7118 23.5,27.5C 21.2192,28.2617 19.8859,27.2617 19.5,24.5 Z"/></g>
<g><path style="opacity:1" fill="#b7b1b7" d="M 21.5,34.5 C 24.8333,34.5 28.1667,34.5 31.5,34.5C 31.5,35.8333 31.5,37.1667 31.5,38.5C 27.1539,38.6657 22.8206,38.499 18.5,38C 19.7101,36.9609 20.7101,35.7942 21.5,34.5 Z"/></g>
<g><path style="opacity:1" fill="#a6a0a6" d="M 16.5,40.5 C 21.8437,40.334 27.1771,40.5006 32.5,41C 34.4206,42.2408 34.754,43.7408 33.5,45.5C 32.1667,42.8333 30.8333,42.8333 29.5,45.5C 28.8333,44.8333 28.1667,44.1667 27.5,43.5C 25.5,46.1667 23.5,46.1667 21.5,43.5C 20.1667,46.1667 18.8333,46.1667 17.5,43.5C 16.8333,44.1667 16.1667,44.8333 15.5,45.5C 14.3482,43.6029 14.6815,41.9362 16.5,40.5 Z"/></g>
</svg>
