<?xml version="1.0" encoding="UTF-8"?>
<!DOCTYPE svg PUBLIC "-//W3C//DTD SVG 1.1//EN" "http://www.w3.org/Graphics/SVG/1.1/DTD/svg11.dtd">
<svg xmlns="http://www.w3.org/2000/svg" version="1.1" width="65px" height="66px" style="shape-rendering:geometricPrecision; text-rendering:geometricPrecision; image-rendering:optimizeQuality; fill-rule:evenodd; clip-rule:evenodd" xmlns:xlink="http://www.w3.org/1999/xlink">
<g><path style="opacity:0.944" fill="#1b1917" d="M 62.5,34.5 C 62.8076,36.924 62.4742,39.2573 61.5,41.5C 59.1831,43.316 57.0165,45.316 55,47.5C 54.5022,49.5269 54.6689,51.5269 55.5,53.5C 55.2237,55.3302 54.557,56.9968 53.5,58.5C 50.7946,57.8708 48.1279,57.5374 45.5,57.5C 40.2021,60.0348 34.5355,61.2015 28.5,61C 26.9826,62.5084 25.1493,63.3417 23,63.5C 20.5177,62.3653 18.0177,61.1986 15.5,60C 12.1667,59.6667 8.83333,59.3333 5.5,59C 5.45436,53.4654 4.12102,48.132 1.5,43C 2.67491,37.6381 5.67491,33.4714 10.5,30.5C 5.22428,26.0078 5.22428,21.5078 10.5,17C 11.4491,16.3828 12.2825,16.5494 13,17.5C 13.2117,14.2423 13.7117,11.0757 14.5,8C 21.4241,7.04031 26.9241,9.54031 31,15.5C 31.6667,17.1667 31.6667,18.8333 31,20.5C 29.1667,22.3333 27.3333,24.1667 25.5,26C 31.5,26.6667 37.5,26.6667 43.5,26C 43.3663,21.8766 43.6996,17.8766 44.5,14C 42.9733,12.3067 41.6399,10.4734 40.5,8.5C 40.6938,6.73667 40.6938,4.90334 40.5,3C 42.1012,2.72662 43.6012,2.22662 45,1.5C 49.143,1.61849 53.3097,1.78516 57.5,2C 59.4877,5.47727 59.3211,8.97727 57,12.5C 56.1689,19.5237 56.3356,26.5237 57.5,33.5C 59.1283,33.5786 60.7949,33.9119 62.5,34.5 Z"/></g>
<g><path style="opacity:1" fill="#a9a9a8" d="M 44.5,5.5 C 46.5695,5.44862 48.4029,6.11528 50,7.5C 51.5671,6.14391 53.4004,5.47724 55.5,5.5C 55.2623,8.98204 53.429,10.982 50,11.5C 46.2324,11.2337 44.3991,9.23371 44.5,5.5 Z"/></g>
<g><path style="opacity:0.004" fill="#000000" d="M 32.5,11.5 C 33.8333,12.1667 33.8333,12.1667 32.5,11.5 Z"/></g>
<g><path style="opacity:1" fill="#d7d6d6" d="M 47.5,14.5 C 49.1667,14.5 50.8333,14.5 52.5,14.5C 52.5,16.8333 52.5,19.1667 52.5,21.5C 50.8333,21.5 49.1667,21.5 47.5,21.5C 47.5,19.1667 47.5,16.8333 47.5,14.5 Z"/></g>
<g><path style="opacity:1" fill="#e4e4e4" d="M 17.5,10.5 C 18.552,10.3505 19.552,10.5172 20.5,11C 22.8723,12.8444 25.2056,14.6777 27.5,16.5C 23.6058,23.8829 22.2725,23.8829 23.5,16.5C 22.5,16.5 21.5,16.5 20.5,16.5C 20.7839,19.7766 20.4505,22.9433 19.5,26C 16.5,26.6667 13.5,26.6667 10.5,26C 9.48288,24.9505 9.31621,23.7839 10,22.5C 12.3806,21.565 14.8806,21.2317 17.5,21.5C 17.5,17.8333 17.5,14.1667 17.5,10.5 Z"/></g>
<g><path style="opacity:0.004" fill="#000000" d="M 62.5,33.5 C 63.8333,34.1667 63.8333,34.1667 62.5,33.5 Z"/></g>
<g><path style="opacity:1" fill="#a9a8a7" d="M 51.5,37.5 C 53.604,37.2011 55.604,37.5344 57.5,38.5C 53.4154,46.5878 51.4154,46.2545 51.5,37.5 Z"/></g>
<g><path style="opacity:1" fill="#e0e0df" d="M 47.5,23.5 C 49.1667,23.5 50.8333,23.5 52.5,23.5C 52.5,27.5 52.5,31.5 52.5,35.5C 51.5,35.5 50.5,35.5 49.5,35.5C 49.5,38.5 49.5,41.5 49.5,44.5C 46.8333,44.5 44.1667,44.5 41.5,44.5C 43.4956,53.1605 40.1623,57.1605 31.5,56.5C 31.5,55.5 31.5,54.5 31.5,53.5C 28.1667,53.5 24.8333,53.5 21.5,53.5C 21.5,54.5 21.5,55.5 21.5,56.5C 19.8008,56.6602 18.1341,56.4935 16.5,56C 13.3333,52.8333 10.1667,49.6667 7,46.5C 6.33333,44.1667 6.33333,41.8333 7,39.5C 9.5,37 12,34.5 14.5,32C 24.4944,31.5002 34.4944,31.3335 44.5,31.5C 44.6602,33.1992 44.4935,34.8659 44,36.5C 40.8333,39.6667 37.6667,42.8333 34.5,46C 29.1667,46.6667 23.8333,46.6667 18.5,46C 17.3128,44.9805 16.3128,43.8139 15.5,42.5C 17.5,40.8333 19.5,39.1667 21.5,37.5C 25.7581,39.9043 25.4248,41.5709 20.5,42.5C 20.7093,43.086 21.0426,43.586 21.5,44C 24.8823,44.8236 28.2156,44.657 31.5,43.5C 28.4805,39.6468 24.9805,36.3135 21,33.5C 17.8333,36.6667 14.6667,39.8333 11.5,43C 13.5,45 15.5,47 17.5,49C 23.5,49.6667 29.5,49.6667 35.5,49C 39.3333,45.1667 43.1667,41.3333 47,37.5C 47.4992,32.8452 47.6658,28.1785 47.5,23.5 Z"/></g>
<g><path style="opacity:1" fill="#aeadad" d="M 44.5,46.5 C 46.5,46.5 48.5,46.5 50.5,46.5C 50.5,48.8333 50.5,51.1667 50.5,53.5C 48.5,53.5 46.5,53.5 44.5,53.5C 44.5,51.1667 44.5,48.8333 44.5,46.5 Z"/></g>
<g><path style="opacity:1" fill="#aeaead" d="M 23.5,55.5 C 25.1992,55.3398 26.8659,55.5065 28.5,56C 26.981,57.3513 25.6477,58.8513 24.5,60.5C 23.5481,58.9547 23.2148,57.288 23.5,55.5 Z"/></g>
</svg>
