<?xml version="1.0" encoding="UTF-8"?>
<!DOCTYPE svg PUBLIC "-//W3C//DTD SVG 1.1//EN" "http://www.w3.org/Graphics/SVG/1.1/DTD/svg11.dtd">
<svg xmlns="http://www.w3.org/2000/svg" version="1.1" width="65px" height="65px" style="shape-rendering:geometricPrecision; text-rendering:geometricPrecision; image-rendering:optimizeQuality; fill-rule:evenodd; clip-rule:evenodd" xmlns:xlink="http://www.w3.org/1999/xlink">
<g><path style="opacity:0.885" fill="#181411" d="M 49.5,15.5 C 48.5084,15.3284 47.8417,15.6618 47.5,16.5C 45.7041,15.2073 44.0375,13.7073 42.5,12C 35.5,11.3333 28.5,11.3333 21.5,12C 19.6667,13.8333 17.8333,15.6667 16,17.5C 15.6667,22.8333 15.3333,28.1667 15,33.5C 12.8333,35 11.3333,34.5 10.5,32C 11.0223,31.0497 11.689,30.2164 12.5,29.5C 10.9255,28.3691 9.25883,28.2025 7.5,29C 6.20464,35.868 9.20464,38.7013 16.5,37.5C 17.1667,38.1667 17.8333,38.8333 18.5,39.5C 13.0222,42.6994 8.18882,41.6994 4,36.5C 3.33333,33.8333 3.33333,31.1667 4,28.5C 6.40947,26.4011 9.07614,24.7344 12,23.5C 11.5704,21.873 11.4037,20.373 11.5,19C 15.0957,13.0533 20.0957,9.05332 26.5,7C 25.9491,5.60151 25.6158,4.26818 25.5,3C 26.8721,2.59826 28.2054,2.09826 29.5,1.5C 31.741,1.49822 34.0743,1.83155 36.5,2.5C 36.1323,4.50648 36.6323,6.50648 38,8.5C 39.3876,7.44636 40.8876,7.27969 42.5,8C 45.0386,10.3697 47.3719,12.8697 49.5,15.5 Z"/></g>
<g><path style="opacity:1" fill="#c7c7c5" d="M 30.5,5.5 C 31.5,5.5 32.5,5.5 33.5,5.5C 33.5,6.5 33.5,7.5 33.5,8.5C 32.5,8.5 31.5,8.5 30.5,8.5C 30.5,7.5 30.5,6.5 30.5,5.5 Z"/></g>
<g><path style="opacity:0.798" fill="#1d1a18" d="M 47.5,16.5 C 47.8417,15.6618 48.5084,15.3284 49.5,15.5C 50.4584,15.9528 51.2917,16.6195 52,17.5C 52.1858,19.9005 52.6858,22.2338 53.5,24.5C 59.7228,26.1099 61.8895,30.1099 60,36.5C 57.5752,41.0628 53.7419,42.7294 48.5,41.5C 50.7557,50.0616 47.7557,53.5616 39.5,52C 39.421,54.305 39.2543,56.805 39,59.5C 36.0453,63.2765 32.212,64.4432 27.5,63C 23.9651,60.2929 22.7984,56.7929 24,52.5C 27.3793,46.3868 26.7126,40.7201 22,35.5C 21.34,37.3237 20.1733,38.657 18.5,39.5C 17.8333,38.8333 17.1667,38.1667 16.5,37.5C 16.7828,36.7109 17.2828,36.0442 18,35.5C 18.1705,30.1358 18.6705,24.8025 19.5,19.5C 22.619,15.573 26.7857,13.9063 32,14.5C 34.8333,14.8333 37.6667,15.1667 40.5,15.5C 41.5,17.1667 42.8333,18.5 44.5,19.5C 45.3295,24.8025 45.8295,30.1358 46,35.5C 48.4973,37.4782 51.3307,37.9782 54.5,37C 56.6187,34.7815 56.952,32.2815 55.5,29.5C 54.109,28.3554 52.7757,28.3554 51.5,29.5C 52.3094,31.0709 52.6427,32.7376 52.5,34.5C 51.1779,34.67 50.0113,34.3366 49,33.5C 48.788,27.7521 48.288,22.0855 47.5,16.5 Z M 21.5,32.5 C 22.0768,31.2267 22.7435,31.2267 23.5,32.5C 23.0302,33.463 22.3635,33.463 21.5,32.5 Z M 40.5,33.5 C 41.7879,35.0348 41.7879,36.7015 40.5,38.5C 39.5661,36.9052 39.5661,35.2385 40.5,33.5 Z"/></g>
<g><path style="opacity:1" fill="#e3e3e1" d="M 47.5,16.5 C 48.288,22.0855 48.788,27.7521 49,33.5C 50.0113,34.3366 51.1779,34.67 52.5,34.5C 52.6427,32.7376 52.3094,31.0709 51.5,29.5C 52.7757,28.3554 54.109,28.3554 55.5,29.5C 56.952,32.2815 56.6187,34.7815 54.5,37C 51.3307,37.9782 48.4973,37.4782 46,35.5C 45.8295,30.1358 45.3295,24.8025 44.5,19.5C 42.8333,18.5 41.5,17.1667 40.5,15.5C 37.6667,15.1667 34.8333,14.8333 32,14.5C 26.7857,13.9063 22.619,15.573 19.5,19.5C 18.6705,24.8025 18.1705,30.1358 18,35.5C 17.2828,36.0442 16.7828,36.7109 16.5,37.5C 9.20464,38.7013 6.20464,35.868 7.5,29C 9.25883,28.2025 10.9255,28.3691 12.5,29.5C 11.689,30.2164 11.0223,31.0497 10.5,32C 11.3333,34.5 12.8333,35 15,33.5C 15.3333,28.1667 15.6667,22.8333 16,17.5C 17.8333,15.6667 19.6667,13.8333 21.5,12C 28.5,11.3333 35.5,11.3333 42.5,12C 44.0375,13.7073 45.7041,15.2073 47.5,16.5 Z M 21.5,32.5 C 22.3635,33.463 23.0302,33.463 23.5,32.5C 22.7435,31.2267 22.0768,31.2267 21.5,32.5 Z"/></g>
<g><path style="opacity:1" fill="#e8e8e6" d="M 25.5,18.5 C 29.8333,18.5 34.1667,18.5 38.5,18.5C 38.8488,26.4554 37.5155,34.122 34.5,41.5C 33.5481,39.9547 33.2148,38.288 33.5,36.5C 32.5,36.5 31.5,36.5 30.5,36.5C 30.7989,38.604 30.4656,40.604 29.5,42.5C 26.2467,34.8894 24.9134,26.8894 25.5,18.5 Z"/></g>
<g><path style="opacity:0.004" fill="#000000" d="M 54.5,22.5 C 55.8333,23.1667 55.8333,23.1667 54.5,22.5 Z"/></g>
<g><path style="opacity:0.004" fill="#54b6ff" d="M -0.5,32.5 C 0.833333,33.1667 0.833333,33.8333 -0.5,34.5C -0.5,33.8333 -0.5,33.1667 -0.5,32.5 Z"/></g>
<g><path style="opacity:0.004" fill="#feff00" d="M 64.5,35.5 C 64.5,35.8333 64.5,36.1667 64.5,36.5C 63.8299,36.0187 63.8299,35.6853 64.5,35.5 Z"/></g>
<g><path style="opacity:1" fill="#949394" d="M 41.5,42.5 C 42.5,42.5 43.5,42.5 44.5,42.5C 44.5,44.5 44.5,46.5 44.5,48.5C 41.8333,48.5 39.1667,48.5 36.5,48.5C 36.5,47.1667 36.5,45.8333 36.5,44.5C 37.8221,44.33 38.9887,44.6634 40,45.5C 40.5133,44.4734 41.0133,43.4734 41.5,42.5 Z"/></g>
<g><path style="opacity:1" fill="#a8a8a8" d="M 30.5,43.5 C 31.5,43.5 32.5,43.5 33.5,43.5C 33.8627,47.2241 34.5293,50.8907 35.5,54.5C 36.2241,57.9378 34.8908,59.6044 31.5,59.5C 28.2533,59.7516 26.9199,58.2516 27.5,55C 29.198,51.3964 30.198,47.5631 30.5,43.5 Z"/></g>
</svg>
