<?xml version="1.0" encoding="UTF-8"?>
<!DOCTYPE svg PUBLIC "-//W3C//DTD SVG 1.1//EN" "http://www.w3.org/Graphics/SVG/1.1/DTD/svg11.dtd">
<svg xmlns="http://www.w3.org/2000/svg" version="1.1" width="65px" height="65px" style="shape-rendering:geometricPrecision; text-rendering:geometricPrecision; image-rendering:optimizeQuality; fill-rule:evenodd; clip-rule:evenodd" xmlns:xlink="http://www.w3.org/1999/xlink">
<g><path style="opacity:0.882" fill="#151110" d="M 45.5,9.5 C 47.0331,7.6452 48.6997,5.81187 50.5,4C 52.1796,3.96566 53.6796,3.799 55,3.5C 57.7906,6.78683 60.6239,9.95349 63.5,13C 60.5,16.6667 57.5,20.3333 54.5,24C 58.1202,26.7032 58.2869,29.5366 55,32.5C 53.3399,35.2701 51.1733,36.4368 48.5,36C 40.2997,46.5461 30.633,55.2128 19.5,62C 14.6436,62.7926 9.97695,61.9593 5.5,59.5C 6.83333,59.1667 6.83333,58.8333 5.5,58.5C 5.16667,57.5 4.5,56.8333 3.5,56.5C 3.5,56.8333 3.5,57.1667 3.5,57.5C 1.91473,56.5263 0.914726,55.0263 0.5,53C 1.05085,51.6015 1.38419,50.2682 1.5,49C 7.46181,48.8085 13.1285,47.4752 18.5,45C 24.5046,39.3284 30.1713,33.3284 35.5,27C 32.6471,25.4695 31.9804,23.3029 33.5,20.5C 33,20.1667 32.5,19.8333 32,19.5C 30.51,20.3169 29.01,21.1502 27.5,22C 22.3189,22.7932 17.1523,23.6265 12,24.5C 9.0396,23.8721 7.5396,22.0387 7.5,19C 8.12268,15.5187 8.62268,12.0187 9,8.5C 10.9914,6.54277 12.9914,4.54277 15,2.5C 15.6667,3.83333 16.3333,3.83333 17,2.5C 20.9046,5.39772 25.0713,7.89772 29.5,10C 35.0164,10.8174 40.3497,10.6507 45.5,9.5 Z"/></g>
<g><path style="opacity:1" fill="#7d7c7d" d="M 15.5,5.5 C 19.2093,6.54878 21.0426,8.88211 21,12.5C 19.6218,10.7866 17.9552,9.4533 16,8.5C 15.5172,7.55198 15.3505,6.55198 15.5,5.5 Z"/></g>
<g><path style="opacity:0.004" fill="#000000" d="M 45.5,9.5 C 44.8333,8.16667 44.8333,8.16667 45.5,9.5 Z"/></g>
<g><path style="opacity:1" fill="#7d7d7d" d="M 10.5,10.5 C 14.8874,9.89534 18.5541,11.2287 21.5,14.5C 19.2351,15.6474 16.9018,15.8141 14.5,15C 12.249,14.2525 10.9156,12.7525 10.5,10.5 Z"/></g>
<g><path style="opacity:1" fill="#7a7a7a" d="M 23.5,11.5 C 28.2624,12.0925 29.5957,14.5925 27.5,19C 26.2068,19.49 24.8734,19.6567 23.5,19.5C 23.5,16.8333 23.5,14.1667 23.5,11.5 Z"/></g>
<g><path style="opacity:1" fill="#858685" d="M 30.5,13.5 C 34.8839,13.1744 39.2172,13.5078 43.5,14.5C 41.3333,14.8333 39.1667,15.1667 37,15.5C 34.3897,15.4668 32.223,14.8001 30.5,13.5 Z"/></g>
<g><path style="opacity:1" fill="#595858" d="M 50.5,9.5 C 53.4206,9.14591 55.7539,10.1459 57.5,12.5C 55.7204,16.4011 53.2204,19.7344 50,22.5C 48.0986,21.4645 46.2652,20.2978 44.5,19C 47.1461,16.1984 49.1461,13.0317 50.5,9.5 Z"/></g>
<g><path style="opacity:1" fill="#7f8080" d="M 11.5,17.5 C 14.8984,17.1796 18.2317,17.513 21.5,18.5C 19.8333,18.8333 18.1667,19.1667 16.5,19.5C 14.3603,19.4439 12.6936,18.7773 11.5,17.5 Z"/></g>
<g><path style="opacity:1" fill="#dededc" d="M 38.5,19.5 C 44.0576,21.8157 48.5576,25.149 52,29.5C 50.9505,30.5171 49.7839,30.6838 48.5,30C 46.0993,27.9376 43.4326,26.2709 40.5,25C 38.8446,23.5557 38.178,21.7224 38.5,19.5 Z"/></g>
<g><path style="opacity:1" fill="#e1e1e1" d="M 42.5,30.5 C 44.0847,31.0024 44.5847,32.0024 44,33.5C 36.7529,42.7493 28.2529,50.5826 18.5,57C 15.1667,57.6667 11.8333,57.6667 8.5,57C 7.94404,56.6174 7.61071,56.1174 7.5,55.5C 13.5338,54.7182 19.2005,52.5516 24.5,49C 30.779,42.8907 36.779,36.724 42.5,30.5 Z"/></g>
<g><path style="opacity:1" fill="#878787" d="M 42.5,30.5 C 36.779,36.724 30.779,42.8907 24.5,49C 19.2005,52.5516 13.5338,54.7182 7.5,55.5C 6.59603,54.791 6.26269,53.791 6.5,52.5C 8.85684,52.6633 11.1902,52.4966 13.5,52C 15.6705,50.4138 18.0038,49.0804 20.5,48C 26.9988,41.834 33.1655,35.334 39,28.5C 40.4595,28.8082 41.6261,29.4749 42.5,30.5 Z"/></g>
<g><path style="opacity:0.008" fill="#8a890f" d="M 3.5,56.5 C 4.5,56.8333 5.16667,57.5 5.5,58.5C 5.5,58.8333 5.5,59.1667 5.5,59.5C 4.5,59.1667 3.83333,58.5 3.5,57.5C 3.5,57.1667 3.5,56.8333 3.5,56.5 Z"/></g>
</svg>
