<?xml version="1.0" encoding="UTF-8"?>
<!DOCTYPE svg PUBLIC "-//W3C//DTD SVG 1.1//EN" "http://www.w3.org/Graphics/SVG/1.1/DTD/svg11.dtd">
<svg xmlns="http://www.w3.org/2000/svg" version="1.1" width="294px" height="305px" style="shape-rendering:geometricPrecision; text-rendering:geometricPrecision; image-rendering:optimizeQuality; fill-rule:evenodd; clip-rule:evenodd" xmlns:xlink="http://www.w3.org/1999/xlink">
<g><path style="opacity:0.972" fill="#020202" d="M 212.5,-0.5 C 239.5,-0.5 266.5,-0.5 293.5,-0.5C 293.5,41.1667 293.5,82.8333 293.5,124.5C 275.368,142.132 257.368,159.965 239.5,178C 230.173,178.5 220.839,178.666 211.5,178.5C 211.5,164.833 211.5,151.167 211.5,137.5C 207.5,137.5 203.5,137.5 199.5,137.5C 199.667,160.169 199.5,182.836 199,205.5C 194.833,209.667 190.667,213.833 186.5,218C 181.845,218.499 177.179,218.666 172.5,218.5C 172.5,228.833 172.5,239.167 172.5,249.5C 177.167,249.5 181.833,249.5 186.5,249.5C 186.5,267.833 186.5,286.167 186.5,304.5C 163.833,304.5 141.167,304.5 118.5,304.5C 118.5,295.167 118.5,285.833 118.5,276.5C 114.5,276.5 110.5,276.5 106.5,276.5C 106.5,256.5 106.5,236.5 106.5,216.5C 101.833,216.5 97.1667,216.5 92.5,216.5C 92.5,225.833 92.5,235.167 92.5,244.5C 75.4054,244.971 58.4054,244.471 41.5,243C 31.0902,235.927 21.2569,228.094 12,219.5C 7.09906,207.296 2.93239,194.962 -0.5,182.5C -0.5,132.167 -0.5,81.8333 -0.5,31.5C 26.1667,31.5 52.8333,31.5 79.5,31.5C 79.5,26.8333 79.5,22.1667 79.5,17.5C 119.5,17.5 159.5,17.5 199.5,17.5C 199.5,30.5 199.5,43.5 199.5,56.5C 203.5,56.5 207.5,56.5 211.5,56.5C 211.326,37.487 211.66,18.487 212.5,-0.5 Z M 199.5,84.5 C 203.5,84.5 207.5,84.5 211.5,84.5C 211.5,93.5 211.5,102.5 211.5,111.5C 207.5,111.5 203.5,111.5 199.5,111.5C 199.5,102.5 199.5,93.5 199.5,84.5 Z M 92.5,152.5 C 97.1667,152.5 101.833,152.5 106.5,152.5C 106.5,160.833 106.5,169.167 106.5,177.5C 101.833,177.5 97.1667,177.5 92.5,177.5C 92.8321,188.52 92.4988,199.52 91.5,210.5C 71.9748,202.116 63.9748,187.449 67.5,166.5C 75.8068,165.502 84.1401,165.169 92.5,165.5C 92.5,161.167 92.5,156.833 92.5,152.5 Z"/></g>
<g><path style="opacity:1" fill="#b5b5b5" d="M 254.5,12.5 C 249.37,18.1314 244.036,23.6314 238.5,29C 247.55,36.3847 256.884,43.3847 266.5,50C 257.424,59.0759 248.424,68.0759 239.5,77C 247.803,86.3036 256.469,95.3036 265.5,104C 256.674,112.659 248.008,121.493 239.5,130.5C 243.299,134.885 247.632,138.552 252.5,141.5C 243.945,150.557 235.111,159.557 226,168.5C 225.5,116.501 225.333,64.5011 225.5,12.5C 235.167,12.5 244.833,12.5 254.5,12.5 Z"/></g>
<g><path style="opacity:1" fill="#e7e7e7" d="M 254.5,12.5 C 262.833,12.5 271.167,12.5 279.5,12.5C 279.667,47.1683 279.5,81.8349 279,116.5C 270.599,125.404 261.766,133.737 252.5,141.5C 247.632,138.552 243.299,134.885 239.5,130.5C 248.008,121.493 256.674,112.659 265.5,104C 256.469,95.3036 247.803,86.3036 239.5,77C 248.424,68.0759 257.424,59.0759 266.5,50C 256.884,43.3847 247.55,36.3847 238.5,29C 244.036,23.6314 249.37,18.1314 254.5,12.5 Z"/></g>
<g><path style="opacity:1" fill="#888888" d="M 186.5,30.5 C 186.5,70.8333 186.5,111.167 186.5,151.5C 164.167,151.5 141.833,151.5 119.5,151.5C 119.818,146.968 119.485,142.634 118.5,138.5C 109.5,138.5 100.5,138.5 91.5,138.5C 91.5,129.833 91.5,121.167 91.5,112.5C 83.3501,111.507 75.0168,111.174 66.5,111.5C 66.5,102.5 66.5,93.5 66.5,84.5C 75.1667,84.5 83.8333,84.5 92.5,84.5C 92.5,80.1667 92.5,75.8333 92.5,71.5C 92.5,57.8333 92.5,44.1667 92.5,30.5C 123.833,30.5 155.167,30.5 186.5,30.5 Z"/></g>
<g><path style="opacity:1" fill="#b5b5b5" d="M 52.5,44.5 C 61.1667,44.5 69.8333,44.5 78.5,44.5C 78.5,53.5 78.5,62.5 78.5,71.5C 69.8333,71.5 61.1667,71.5 52.5,71.5C 52.5,62.5 52.5,53.5 52.5,44.5 Z"/></g>
<g><path style="opacity:1" fill="#454545" d="M 149.5,44.5 C 168.345,44.1669 176.178,53.1669 173,71.5C 167.251,82.4899 158.417,85.9899 146.5,82C 141.667,79.8333 138.167,76.3333 136,71.5C 132.653,58.2905 137.153,49.2905 149.5,44.5 Z"/></g>
<g><path style="opacity:1" fill="#e6e6e6" d="M 52.5,44.5 C 52.5,53.5 52.5,62.5 52.5,71.5C 52.5,89.1667 52.5,106.833 52.5,124.5C 52.5,133.5 52.5,142.5 52.5,151.5C 50.181,170.387 53.0143,188.387 61,205.5C 65.9304,211.122 71.5971,215.789 78,219.5C 78.8279,223.466 79.3279,227.466 79.5,231.5C 68.8281,231.667 58.1615,231.5 47.5,231C 38.1639,225.673 29.9973,218.839 23,210.5C 17.8243,201.137 14.4909,191.137 13,180.5C 12.5,135.168 12.3333,89.8346 12.5,44.5C 25.8333,44.5 39.1667,44.5 52.5,44.5 Z"/></g>
<g><path style="opacity:1" fill="#b3b3b3" d="M 150.5,56.5 C 157.304,55.2214 161.304,57.8881 162.5,64.5C 161.592,70.9586 157.926,73.4586 151.5,72C 146.776,69.5647 145.276,65.7314 147,60.5C 148.376,59.2949 149.542,57.9616 150.5,56.5 Z"/></g>
<g><path style="opacity:1" fill="#454545" d="M 149.5,100.5 C 168.312,100.137 176.145,109.137 173,127.5C 167.988,137.81 159.821,141.644 148.5,139C 135.73,133.274 131.896,123.774 137,110.5C 140.191,105.837 144.358,102.503 149.5,100.5 Z"/></g>
<g><path style="opacity:1" fill="#4b4b4b" d="M 92.5,71.5 C 92.5,75.8333 92.5,80.1667 92.5,84.5C 83.8333,84.5 75.1667,84.5 66.5,84.5C 66.5,93.5 66.5,102.5 66.5,111.5C 75.0168,111.174 83.3501,111.507 91.5,112.5C 82.8333,112.5 74.1667,112.5 65.5,112.5C 65.5,102.833 65.5,93.1667 65.5,83.5C 74.1667,83.5 82.8333,83.5 91.5,83.5C 91.1832,79.2984 91.5166,75.2984 92.5,71.5 Z"/></g>
<g><path style="opacity:1" fill="#b3b3b3" d="M 150.5,112.5 C 157.304,111.221 161.304,113.888 162.5,120.5C 161.592,126.959 157.926,129.459 151.5,128C 146.776,125.565 145.276,121.731 147,116.5C 148.376,115.295 149.542,113.962 150.5,112.5 Z"/></g>
<g><path style="opacity:1" fill="#b5b5b5" d="M 52.5,124.5 C 61.1667,124.5 69.8333,124.5 78.5,124.5C 78.5,133.5 78.5,142.5 78.5,151.5C 69.8333,151.5 61.1667,151.5 52.5,151.5C 52.5,142.5 52.5,133.5 52.5,124.5 Z"/></g>
<g><path style="opacity:1" fill="#424242" d="M 186.5,30.5 C 187.499,70.9966 187.832,111.663 187.5,152.5C 164.5,152.5 141.5,152.5 118.5,152.5C 118.5,147.833 118.5,143.167 118.5,138.5C 119.485,142.634 119.818,146.968 119.5,151.5C 141.833,151.5 164.167,151.5 186.5,151.5C 186.5,111.167 186.5,70.8333 186.5,30.5 Z"/></g>
<g><path style="opacity:1" fill="#b4b4b4" d="M 135.5,164.5 C 137.76,181.248 147.093,187.415 163.5,183C 170.104,178.631 173.771,172.465 174.5,164.5C 178.5,164.5 182.5,164.5 186.5,164.5C 186.5,177.833 186.5,191.167 186.5,204.5C 159.833,204.5 133.167,204.5 106.5,204.5C 106.5,200.167 106.5,195.833 106.5,191.5C 110.833,191.5 115.167,191.5 119.5,191.5C 119.5,188.833 119.5,186.167 119.5,183.5C 119.5,177.167 119.5,170.833 119.5,164.5C 124.833,164.5 130.167,164.5 135.5,164.5 Z"/></g>
<g><path style="opacity:1" fill="#454545" d="M 135.5,164.5 C 139.5,164.5 143.5,164.5 147.5,164.5C 147.853,171.673 151.52,174.506 158.5,173C 161.596,170.971 163.262,168.138 163.5,164.5C 167.167,164.5 170.833,164.5 174.5,164.5C 173.771,172.465 170.104,178.631 163.5,183C 147.093,187.415 137.76,181.248 135.5,164.5 Z"/></g>
<g><path style="opacity:1" fill="#b1b1b1" d="M 147.5,164.5 C 152.833,164.5 158.167,164.5 163.5,164.5C 163.262,168.138 161.596,170.971 158.5,173C 151.52,174.506 147.853,171.673 147.5,164.5 Z"/></g>
<g><path style="opacity:1" fill="#4f4f4f" d="M 119.5,183.5 C 119.5,186.167 119.5,188.833 119.5,191.5C 115.167,191.5 110.833,191.5 106.5,191.5C 106.5,195.833 106.5,200.167 106.5,204.5C 105.514,200.03 105.181,195.363 105.5,190.5C 109.833,190.5 114.167,190.5 118.5,190.5C 118.198,187.941 118.532,185.607 119.5,183.5 Z"/></g>
<g><path style="opacity:1" fill="#434343" d="M 119.5,217.5 C 123.833,217.5 128.167,217.5 132.5,217.5C 132.5,232.5 132.5,247.5 132.5,262.5C 128.167,262.5 123.833,262.5 119.5,262.5C 119.5,247.5 119.5,232.5 119.5,217.5 Z"/></g>
<g><path style="opacity:1" fill="#848484" d="M 146.5,217.5 C 146.5,222.167 146.5,226.833 146.5,231.5C 150.833,231.5 155.167,231.5 159.5,231.5C 159.5,226.833 159.5,222.167 159.5,217.5C 160.496,232.658 160.83,247.991 160.5,263.5C 159.51,257.355 159.177,251.022 159.5,244.5C 155.167,244.5 150.833,244.5 146.5,244.5C 146.768,242.901 146.434,241.568 145.5,240.5C 145.175,232.648 145.508,224.982 146.5,217.5 Z"/></g>
<g><path style="opacity:1" fill="#e8e8e8" d="M 146.5,217.5 C 150.833,217.5 155.167,217.5 159.5,217.5C 159.5,222.167 159.5,226.833 159.5,231.5C 155.167,231.5 150.833,231.5 146.5,231.5C 146.5,226.833 146.5,222.167 146.5,217.5 Z"/></g>
<g><path style="opacity:1" fill="#6b6b6b" d="M 145.5,240.5 C 146.434,241.568 146.768,242.901 146.5,244.5C 146.5,250.5 146.5,256.5 146.5,262.5C 150.5,262.5 154.5,262.5 158.5,262.5C 158.5,266.833 158.5,271.167 158.5,275.5C 154.5,275.5 150.5,275.5 146.5,275.5C 146.817,271.298 146.483,267.298 145.5,263.5C 145.5,255.833 145.5,248.167 145.5,240.5 Z"/></g>
<g><path style="opacity:1" fill="#e7e7e7" d="M 146.5,244.5 C 150.833,244.5 155.167,244.5 159.5,244.5C 159.177,251.022 159.51,257.355 160.5,263.5C 164.167,263.5 167.833,263.5 171.5,263.5C 171.5,272.5 171.5,281.5 171.5,290.5C 158.5,290.5 145.5,290.5 132.5,290.5C 132.5,281.5 132.5,272.5 132.5,263.5C 136.833,263.5 141.167,263.5 145.5,263.5C 146.483,267.298 146.817,271.298 146.5,275.5C 150.5,275.5 154.5,275.5 158.5,275.5C 158.5,271.167 158.5,266.833 158.5,262.5C 154.5,262.5 150.5,262.5 146.5,262.5C 146.5,256.5 146.5,250.5 146.5,244.5 Z"/></g>
<g><path style="opacity:1" fill="#8d8d8d" d="M 132.5,263.5 C 132.5,272.5 132.5,281.5 132.5,290.5C 145.5,290.5 158.5,290.5 171.5,290.5C 171.5,281.5 171.5,272.5 171.5,263.5C 172.494,272.652 172.827,281.985 172.5,291.5C 158.833,291.5 145.167,291.5 131.5,291.5C 131.173,281.985 131.506,272.652 132.5,263.5 Z"/></g>
</svg>
