<?xml version="1.0" encoding="UTF-8"?>
<!DOCTYPE svg PUBLIC "-//W3C//DTD SVG 1.1//EN" "http://www.w3.org/Graphics/SVG/1.1/DTD/svg11.dtd">
<svg xmlns="http://www.w3.org/2000/svg" version="1.1" width="50px" height="50px" style="shape-rendering:geometricPrecision; text-rendering:geometricPrecision; image-rendering:optimizeQuality; fill-rule:evenodd; clip-rule:evenodd" xmlns:xlink="http://www.w3.org/1999/xlink">
<g><path style="opacity:1" fill="#000000" d="M 2.5,2.5 C 7.83333,2.5 13.1667,2.5 18.5,2.5C 17.1746,7.8273 19.1746,10.494 24.5,10.5C 29.8254,10.494 31.8254,7.8273 30.5,2.5C 35.8333,2.5 41.1667,2.5 46.5,2.5C 46.5,7.83333 46.5,13.1667 46.5,18.5C 45.1667,18.5 43.8333,18.5 42.5,18.5C 42.9522,23.9984 42.2855,29.3317 40.5,34.5C 42.9944,38.146 44.3277,42.146 44.5,46.5C 31.1667,46.5 17.8333,46.5 4.5,46.5C 4.67225,42.146 6.00559,38.146 8.5,34.5C 6.71448,29.3317 6.04781,23.9984 6.5,18.5C 5.16667,18.5 3.83333,18.5 2.5,18.5C 2.5,13.1667 2.5,7.83333 2.5,2.5 Z"/></g>
<g><path style="opacity:1" fill="#cdc7cd" d="M 4.5,4.5 C 8.5,4.5 12.5,4.5 16.5,4.5C 16.5,6.5 16.5,8.5 16.5,10.5C 12.6743,10.7967 9.67432,12.6301 7.5,16C 6.55198,16.4828 5.55198,16.6495 4.5,16.5C 4.5,12.5 4.5,8.5 4.5,4.5 Z"/></g>
<g><path style="opacity:1" fill="#c8c3c8" d="M 32.5,4.5 C 36.5,4.5 40.5,4.5 44.5,4.5C 44.5,8.5 44.5,12.5 44.5,16.5C 41.213,15.736 38.5463,13.9027 36.5,11C 35.2068,10.51 33.8734,10.3433 32.5,10.5C 32.5,8.5 32.5,6.5 32.5,4.5 Z"/></g>
<g><path style="opacity:1" fill="#c9c3c9" d="M 13.5,12.5 C 14.3282,16.2553 16.4949,17.2553 20,15.5C 20.4828,14.552 20.6495,13.552 20.5,12.5C 23.1667,12.5 25.8333,12.5 28.5,12.5C 28.7007,16.35 30.5341,17.35 34,15.5C 34.3333,14.5 34.6667,13.5 35,12.5C 37.9027,14.5463 39.736,17.213 40.5,20.5C 35.3876,22.0553 30.0543,22.722 24.5,22.5C 18.9457,22.722 13.6124,22.0553 8.5,20.5C 8.35055,19.448 8.51722,18.448 9,17.5C 10.7073,15.9625 12.2073,14.2959 13.5,12.5 Z"/></g>
<g><path style="opacity:1" fill="#9b969b" d="M 30.5,12.5 C 32.337,12.6395 32.6704,13.3061 31.5,14.5C 30.7025,14.0431 30.3691,13.3764 30.5,12.5 Z"/></g>
<g><path style="opacity:1" fill="#9b969b" d="M 16.5,12.5 C 18.337,12.6395 18.6704,13.3061 17.5,14.5C 16.7025,14.0431 16.3691,13.3764 16.5,12.5 Z"/></g>
<g><path style="opacity:1" fill="#9b969b" d="M 8.5,22.5 C 10.337,22.6395 10.6704,23.3061 9.5,24.5C 8.70245,24.0431 8.36912,23.3764 8.5,22.5 Z"/></g>
<g><path style="opacity:1" fill="#9b969b" d="M 38.5,22.5 C 40.337,22.6395 40.6704,23.3061 39.5,24.5C 38.7025,24.0431 38.3691,23.3764 38.5,22.5 Z"/></g>
<g><path style="opacity:1" fill="#9b969b" d="M 37.5,26.5 C 28.8333,26.5 20.1667,26.5 11.5,26.5C 11.6107,25.8826 11.944,25.3826 12.5,25C 20.5,24.3333 28.5,24.3333 36.5,25C 37.056,25.3826 37.3893,25.8826 37.5,26.5 Z"/></g>
<g><path style="opacity:1" fill="#ccc5cc" d="M 11.5,26.5 C 20.1667,26.5 28.8333,26.5 37.5,26.5C 38.5,26.5 39.5,26.5 40.5,26.5C 39.3573,29.6839 38.6906,33.0173 38.5,36.5C 29.1667,36.5 19.8333,36.5 10.5,36.5C 10.3094,33.0173 9.64273,29.6839 8.5,26.5C 9.5,26.5 10.5,26.5 11.5,26.5 Z"/></g>
<g><path style="opacity:1" fill="#000000" d="M 14.5,32.5 C 16.337,32.6395 16.6704,33.3061 15.5,34.5C 14.7025,34.0431 14.3691,33.3764 14.5,32.5 Z"/></g>
<g><path style="opacity:1" fill="#000000" d="M 18.5,32.5 C 20.337,32.6395 20.6704,33.3061 19.5,34.5C 18.7025,34.0431 18.3691,33.3764 18.5,32.5 Z"/></g>
<g><path style="opacity:1" fill="#000000" d="M 24.5,32.5 C 26.337,32.6395 26.6704,33.3061 25.5,34.5C 24.7025,34.0431 24.3691,33.3764 24.5,32.5 Z"/></g>
<g><path style="opacity:1" fill="#000000" d="M 28.5,32.5 C 30.337,32.6395 30.6704,33.3061 29.5,34.5C 28.7025,34.0431 28.3691,33.3764 28.5,32.5 Z"/></g>
<g><path style="opacity:1" fill="#000000" d="M 32.5,32.5 C 34.337,32.6395 34.6704,33.3061 33.5,34.5C 32.7025,34.0431 32.3691,33.3764 32.5,32.5 Z"/></g>
<g><path style="opacity:1" fill="#d6d4d6" d="M 8.5,38.5 C 19.1874,38.168 29.8541,38.5013 40.5,39.5C 35.1667,39.8333 29.8333,40.1667 24.5,40.5C 18.7891,40.4949 13.4558,39.8282 8.5,38.5 Z"/></g>
<g><path style="opacity:1" fill="#d6d4d6" d="M 6.5,42.5 C 18.5185,42.1677 30.5185,42.501 42.5,43.5C 36.5,43.8333 30.5,44.1667 24.5,44.5C 18.1275,44.496 12.1275,43.8293 6.5,42.5 Z"/></g>
</svg>
