<?xml version="1.0" encoding="UTF-8"?>
<!DOCTYPE svg PUBLIC "-//W3C//DTD SVG 1.1//EN" "http://www.w3.org/Graphics/SVG/1.1/DTD/svg11.dtd">
<svg xmlns="http://www.w3.org/2000/svg" version="1.1" width="500px" height="500px" style="shape-rendering:geometricPrecision; text-rendering:geometricPrecision; image-rendering:optimizeQuality; fill-rule:evenodd; clip-rule:evenodd" xmlns:xlink="http://www.w3.org/1999/xlink">
<g><path style="opacity:0.042" fill="#4f3b27" d="M 455.5,82.5 C 458.365,88.8692 460.532,95.8692 462,103.5C 464.33,115.379 466.163,127.379 467.5,139.5C 467.167,140.167 466.833,140.833 466.5,141.5C 468.252,149.329 468.585,157.162 467.5,165C 468.2,175.783 468.866,186.617 469.5,197.5C 468.939,200.535 468.273,203.535 467.5,206.5C 469.004,239.213 469.671,272.046 469.5,305C 469.084,313.579 468.084,322.079 466.5,330.5C 467.062,335.045 467.396,339.212 467.5,343C 466.8,348.845 465.8,354.678 464.5,360.5C 465.025,361.192 465.692,361.692 466.5,362C 465.833,365 465.167,368 464.5,371C 465.022,371.561 465.355,372.228 465.5,373C 465.027,376.529 464.027,379.862 462.5,383C 463.718,384.438 464.385,386.105 464.5,388C 463.311,399.259 460.644,410.259 456.5,421C 456.833,421.333 457.167,421.667 457.5,422C 453.207,427.434 449.207,432.934 445.5,438.5C 444.448,438.351 443.448,438.517 442.5,439C 440.181,441.49 437.514,443.49 434.5,445C 433.91,446.509 433.244,448.009 432.5,449.5C 418.89,454.342 404.724,456.675 390,456.5C 331.521,461.219 273.021,461.386 214.5,457C 211.452,456.394 208.952,454.894 207,452.5C 205.688,448.736 203.854,445.403 201.5,442.5C 195.888,444.131 191.055,442.798 187,438.5C 184.344,425.287 182.344,411.954 181,398.5C 180,397.167 179,397.167 178,398.5C 176.706,410.222 175.04,421.888 173,433.5C 171.292,436.381 169.792,439.381 168.5,442.5C 166.833,443.833 165.167,443.833 163.5,442.5C 160.107,443.548 157.107,444.548 154.5,445.5C 150.647,443.937 146.647,442.77 142.5,442C 139.513,438.382 137.679,434.215 137,429.5C 134.846,418.265 133.512,406.931 133,395.5C 132.312,389.007 130.979,382.674 129,376.5C 119.696,370.586 110.196,364.753 100.5,359C 93.3206,353.487 87.1539,346.987 82,339.5C 80.5531,333.317 79.0531,327.15 77.5,321C 74.2041,316.931 70.3708,313.431 66,310.5C 65.5172,309.552 65.3505,308.552 65.5,307.5C 62.5,307.833 61.1667,306.5 61.5,303.5C 58.033,303.554 55.3663,302.054 53.5,299C 51.412,296.912 48.912,294.412 46,291.5C 45.9994,288.313 45.1661,285.48 43.5,283C 43.8333,282.667 44.1667,282.333 44.5,282C 41.9758,277.385 41.9758,272.718 44.5,268C 44.4148,266.893 44.0814,265.893 43.5,265C 44.8941,264.044 45.5607,262.711 45.5,261C 43.3795,256.766 41.8795,252.266 41,247.5C 40.1931,245.423 39.0264,243.589 37.5,242C 37.5574,237.315 36.2241,232.815 33.5,228.5C 33.8333,227.833 34.1667,227.167 34.5,226.5C 30.5016,214.676 28.5016,202.51 28.5,190C 28.9031,188.527 29.5697,187.194 30.5,186C 29.0905,178.199 32.4238,173.532 40.5,172C 46.8116,171.876 52.9782,171.043 59,169.5C 61.315,149.907 65.9816,130.907 73,112.5C 78.7027,109.274 84.8693,107.774 91.5,108C 94.8056,88.0646 104.139,71.3979 119.5,58C 134.199,48.6555 150.199,42.6555 167.5,40C 205.341,39.2139 243.174,39.3806 281,40.5C 301.902,38.8936 322.736,37.8936 343.5,37.5C 362.054,37.9551 380.388,40.1218 398.5,44C 407.712,48.0733 417.046,51.0733 426.5,53C 428.962,55.536 431.962,57.036 435.5,57.5C 437.846,60.7074 440.346,63.0407 443,64.5C 443.333,64.1667 443.667,63.8333 444,63.5C 445.188,64.5634 445.688,65.8967 445.5,67.5C 447.824,67.6615 449.491,68.8282 450.5,71C 450.167,71.3333 449.833,71.6667 449.5,72C 451.921,75.3507 453.921,78.8507 455.5,82.5 Z M 261.5,390.5 C 265.514,390.334 269.514,390.501 273.5,391C 275.329,394.828 278.329,397.161 282.5,398C 285.626,398.759 288.793,399.259 292,399.5C 297.852,397.599 303.352,398.265 308.5,401.5C 307.478,402.354 306.645,403.354 306,404.5C 305.439,403.978 304.772,403.645 304,403.5C 276.285,409.298 248.785,414.632 221.5,419.5C 222.378,413.853 223.211,408.187 224,402.5C 224.394,399.107 226.227,396.94 229.5,396C 236.144,395.113 242.811,394.446 249.5,394C 253.709,393.119 257.709,391.953 261.5,390.5 Z M 309.5,399.5 C 314.399,400.53 314.566,401.864 310,403.5C 309.51,402.207 309.343,400.873 309.5,399.5 Z"/></g>
<g><path style="opacity:0.207" fill="#493424" d="M 218.5,441.5 C 274.542,445.395 330.542,445.395 386.5,441.5C 395.545,441.643 404.211,440.143 412.5,437C 415.5,436.667 418.5,436.333 421.5,436C 427.804,430.273 433.971,424.44 440,418.5C 440.813,416.564 441.313,414.564 441.5,412.5C 442.458,412.047 443.292,411.381 444,410.5C 446.252,405.591 446.752,400.591 445.5,395.5C 446.822,395.67 447.989,395.337 449,394.5C 448.179,390.838 448.346,387.172 449.5,383.5C 449.5,376.5 449.5,369.5 449.5,362.5C 449.864,358.622 449.864,354.622 449.5,350.5C 449.5,349.833 449.833,349.5 450.5,349.5C 450.5,351.5 450.5,353.5 450.5,355.5C 451.5,355.5 452.5,355.5 453.5,355.5C 453.452,352.687 452.785,350.021 451.5,347.5C 452.313,346.186 453.313,345.019 454.5,344C 453.231,340.419 453.564,336.919 455.5,333.5C 453.474,330.822 453.807,328.156 456.5,325.5C 455.975,324.808 455.308,324.308 454.5,324C 455.833,322.667 455.833,321.333 454.5,320C 456.917,318.327 456.917,316.494 454.5,314.5C 459.136,309.04 459.469,303.373 455.5,297.5C 457.65,295.078 457.983,292.411 456.5,289.5C 458.422,288.04 459.089,286.373 458.5,284.5C 457.736,280.033 457.069,275.533 456.5,271C 456.245,269.674 455.578,268.674 454.5,268C 457.316,265.868 458.649,263.035 458.5,259.5C 457.887,254.579 456.22,250.079 453.5,246C 456.485,243.547 457.152,240.547 455.5,237C 456.231,233.049 456.898,229.049 457.5,225C 456.833,223 456.167,221 455.5,219C 456.794,210.628 456.794,201.961 455.5,193C 457.168,185.173 457.835,177.34 457.5,169.5C 457.368,167.399 456.368,165.899 454.5,165C 458.567,162.016 458.234,160.016 453.5,159C 454.899,157.938 455.899,156.605 456.5,155C 456.239,152.26 456.239,149.594 456.5,147C 455.376,146.751 454.376,146.251 453.5,145.5C 454.167,144.167 454.833,142.833 455.5,141.5C 454.833,141.167 454.167,140.833 453.5,140.5C 455.084,133.752 454.417,127.252 451.5,121C 451.957,120.586 452.291,120.086 452.5,119.5C 451.137,118.107 450.304,116.441 450,114.5C 449.667,111.167 449.333,107.833 449,104.5C 447.699,99.3436 445.532,94.1769 442.5,89C 443.883,85.6031 442.716,83.4365 439,82.5C 437.683,79.1126 435.85,76.1126 433.5,73.5C 432.833,73.8333 432.167,74.1667 431.5,74.5C 429.036,71.8656 426.369,69.5323 423.5,67.5C 420.988,66.2054 418.321,65.5387 415.5,65.5C 415.439,62.9505 414.106,61.4505 411.5,61C 408.571,60.2228 405.737,60.3895 403,61.5C 402.355,60.354 401.522,59.354 400.5,58.5C 398.034,57.8765 395.701,57.0432 393.5,56C 389.018,56.0631 384.852,55.2297 381,53.5C 380.043,55.7092 378.876,55.5425 377.5,53C 370.61,51.2066 363.61,50.0399 356.5,49.5C 343.646,49.8309 330.646,49.8309 317.5,49.5C 314.105,49.8486 310.772,50.5153 307.5,51.5C 303.732,50.8248 300.066,50.4914 296.5,50.5C 292.259,51.6772 288.092,52.6772 284,53.5C 279.622,53.5104 275.455,52.8437 271.5,51.5C 265.123,52.3204 258.79,52.6537 252.5,52.5C 250.38,51.1091 248.047,50.4424 245.5,50.5C 229.365,51.2004 213.532,51.2004 198,50.5C 193.213,50.3887 188.546,51.0553 184,52.5C 183.055,52.0946 182.388,51.428 182,50.5C 165.134,50.8438 149.301,55.1771 134.5,63.5C 133.614,64.325 133.281,65.325 133.5,66.5C 131.692,66.4914 130.025,66.9914 128.5,68C 122.088,74.314 116.255,81.1473 111,88.5C 106.902,97.0741 104.735,105.907 104.5,115C 100.61,120.443 95.2771,122.943 88.5,122.5C 87.5,122.5 86.5,122.5 85.5,122.5C 85.634,124.292 85.3007,125.958 84.5,127.5C 83.1779,127.33 82.0113,127.663 81,128.5C 79.7846,133.047 78.118,137.38 76,141.5C 75.7943,147.695 74.6276,153.695 72.5,159.5C 72.5507,161.1 72.8841,162.6 73.5,164C 72.2011,169.336 70.5345,174.503 68.5,179.5C 61.5692,181.409 54.5692,183.076 47.5,184.5C 46.8333,184.167 46.1667,183.833 45.5,183.5C 43.6729,185.5 42.0062,187.667 40.5,190C 40.8333,190.333 41.1667,190.667 41.5,191C 40.6919,191.308 40.0253,191.808 39.5,192.5C 37.4862,196.518 37.4862,200.351 39.5,204C 38.1911,209.306 39.1911,214.472 42.5,219.5C 42.2187,221.886 42.2187,224.219 42.5,226.5C 43.325,227.386 44.325,227.719 45.5,227.5C 45.594,231.68 46.9274,235.347 49.5,238.5C 49.1667,239.167 48.8333,239.833 48.5,240.5C 49.9643,243.003 51.131,245.67 52,248.5C 52.7504,249.126 53.5838,249.626 54.5,250C 53.5939,251.699 53.2606,253.533 53.5,255.5C 50.5814,249.934 47.7481,244.268 45,238.5C 42.4704,229.732 39.9704,221.232 37.5,213C 37.0618,209.791 37.0618,206.458 37.5,203C 34.8951,198.828 35.2285,194.828 38.5,191C 38.0426,190.586 37.7093,190.086 37.5,189.5C 39.7666,184.671 43.4333,181.171 48.5,179C 53.069,178.086 57.569,176.92 62,175.5C 63.221,174.728 64.221,173.728 65,172.5C 67.3052,163.973 68.9719,155.307 70,146.5C 70.9999,141.49 72.4999,136.657 74.5,132C 75.6337,125.15 79.6337,120.15 86.5,117C 91.8014,117.895 95.968,116.061 99,111.5C 99.5625,104.396 101.729,97.8964 105.5,92C 104.689,89.7088 105.523,87.8754 108,86.5C 109,84.1667 110,81.8333 111,79.5C 114.029,77.971 116.195,75.6377 117.5,72.5C 118.689,71.5713 120.022,71.238 121.5,71.5C 121.081,68.6755 122.081,66.5088 124.5,65C 135.917,56.7831 148.25,51.1164 161.5,48C 167.546,47.6848 173.38,46.5181 179,44.5C 180.555,45.8475 182.389,46.5142 184.5,46.5C 205.666,45.7356 226.332,45.4022 246.5,45.5C 255.168,46.0799 263.835,46.7466 272.5,47.5C 274.286,49.9224 275.952,49.9224 277.5,47.5C 279.667,48.9542 281.667,48.7875 283.5,47C 290.017,46.6865 296.517,46.1865 303,45.5C 304.658,45.6752 305.991,46.3418 307,47.5C 310.269,46.0156 313.602,44.6822 317,43.5C 319.264,45.417 321.764,45.417 324.5,43.5C 334.03,43.1965 343.53,43.8631 353,45.5C 356.48,44.567 360.147,44.2336 364,44.5C 367.982,45.4659 371.815,46.7992 375.5,48.5C 380.159,47.4698 384.825,47.6365 389.5,49C 399.474,51.9369 409.141,55.1036 418.5,58.5C 418.5,59.5 418.5,60.5 418.5,61.5C 422.827,60.8033 425.494,62.47 426.5,66.5C 429.688,66.6178 432.688,67.4511 435.5,69C 435.043,69.414 434.709,69.914 434.5,70.5C 440.254,71.3352 443.254,74.6685 443.5,80.5C 446.361,80.5126 447.361,81.6793 446.5,84C 449.712,85.7091 449.878,87.2091 447,88.5C 446.134,90.8961 446.634,91.5628 448.5,90.5C 449.279,93.0656 450.779,95.0656 453,96.5C 455.957,110.731 458.457,124.731 460.5,138.5C 460.038,141.693 459.704,144.86 459.5,148C 460.357,148.689 461.023,149.522 461.5,150.5C 460.61,151.711 460.61,153.045 461.5,154.5C 461.182,155.647 460.516,156.481 459.5,157C 461.471,162.621 462.471,168.455 462.5,174.5C 462.306,183.942 462.306,192.942 462.5,201.5C 461.953,205.064 461.286,208.564 460.5,212C 460.828,223.997 461.495,236.163 462.5,248.5C 462.076,252.559 462.076,256.725 462.5,261C 462.343,263.637 461.677,266.137 460.5,268.5C 461.852,271.168 462.519,274.001 462.5,277C 461.903,281.19 461.903,285.523 462.5,290C 462.333,292.5 462.167,295 462,297.5C 461.5,298 461,298.5 460.5,299C 461.743,300.87 462.41,303.036 462.5,305.5C 462.333,307.5 462.167,309.5 462,311.5C 461.282,310.549 460.449,310.383 459.5,311C 460.167,312 460.833,313 461.5,314C 460.509,317.831 460.509,321.498 461.5,325C 461.259,326.984 460.592,328.817 459.5,330.5C 460.542,337.645 460.542,344.812 459.5,352C 457.419,353.382 457.085,355.049 458.5,357C 457.937,359.727 457.27,362.393 456.5,365C 457.308,365.308 457.975,365.808 458.5,366.5C 456.979,368.286 456.646,370.119 457.5,372C 454.325,373.577 453.991,375.41 456.5,377.5C 456.377,380.044 456.377,382.544 456.5,385C 454.043,386.154 454.043,387.488 456.5,389C 456.5,391.333 456.5,393.667 456.5,396C 455.667,396.833 454.833,397.667 454,398.5C 453.667,401.167 453.333,403.833 453,406.5C 451.438,406.259 449.938,406.759 448.5,408C 450.18,408.347 451.18,409.347 451.5,411C 450.5,412.667 449.5,414.333 448.5,416C 448.735,416.873 449.069,417.707 449.5,418.5C 446.749,422.43 443.749,426.264 440.5,430C 438.167,431 435.833,432 433.5,433C 431.996,434.491 431.163,436.324 431,438.5C 423.518,442.406 415.685,445.572 407.5,448C 399.833,449.6 391.833,450.767 383.5,451.5C 367.976,452.235 352.143,452.235 336,451.5C 334.209,453.513 332.875,453.513 332,451.5C 330.667,452.833 329.333,452.833 328,451.5C 327.612,452.428 326.945,453.095 326,453.5C 316.121,453.746 306.121,453.746 296,453.5C 293.923,454.017 291.923,454.684 290,455.5C 286.554,454.279 283.054,454.279 279.5,455.5C 261.852,453.12 244.519,451.287 227.5,450C 223.651,448.253 219.985,446.253 216.5,444C 217.066,443.005 217.733,442.172 218.5,441.5 Z"/></g>
<g><path style="opacity:0.958" fill="#1c2119" d="M 165.5,56.5 C 171.842,56.3338 178.175,56.5005 184.5,57C 184.167,57.3333 183.833,57.6667 183.5,58C 184.701,58.9025 185.535,60.0692 186,61.5C 186.72,59.8876 186.554,58.3876 185.5,57C 193.081,56.8459 200.581,56.6792 208,56.5C 211.303,56.9266 214.136,57.5933 216.5,58.5C 217.328,57.5853 218.328,56.9186 219.5,56.5C 224.399,56.7608 229.399,56.7608 234.5,56.5C 234.126,61.2969 234.792,61.9635 236.5,58.5C 235.196,56.9843 235.696,56.3176 238,56.5C 238.833,56.6667 239.667,56.8333 240.5,57C 239.289,57.8928 239.289,58.7261 240.5,59.5C 241.281,58.2634 242.281,57.2634 243.5,56.5C 243.402,57.6161 243.902,58.6161 245,59.5C 245.5,59.3333 246,59.1667 246.5,59C 245.167,58.3333 245.167,57.6667 246.5,57C 253.782,56.7591 254.115,57.9258 247.5,60.5C 248.167,60.8333 248.833,61.1667 249.5,61.5C 251.898,60.611 253.898,59.111 255.5,57C 260.5,56.3333 265.5,56.3333 270.5,57C 269.975,57.6924 269.308,58.1924 268.5,58.5C 265.455,57.8016 262.455,57.4682 259.5,57.5C 257.999,58.7515 256.332,59.7515 254.5,60.5C 253.479,61.0016 253.312,61.6683 254,62.5C 256.671,62.3026 259.337,61.3026 262,59.5C 262.317,61.3008 262.984,61.6341 264,60.5C 264.7,62.032 265.866,63.032 267.5,63.5C 268.695,61.703 270.362,60.703 272.5,60.5C 272.351,59.448 272.517,58.448 273,57.5C 274.974,57.6256 277.141,57.7922 279.5,58C 277.956,58.2896 276.623,58.9563 275.5,60C 277.61,62.9714 277.443,65.4714 275,67.5C 274.383,66.5509 274.549,65.7175 275.5,65C 274.892,64.1301 274.059,63.6301 273,63.5C 271.257,66.2389 268.757,67.7389 265.5,68C 267.709,68.957 267.543,70.1236 265,71.5C 264.586,71.0426 264.086,70.7093 263.5,70.5C 262.088,71.8064 260.421,72.6397 258.5,73C 260.481,73.6054 260.815,74.6054 259.5,76C 262.032,76.6189 264.365,77.6189 266.5,79C 263.523,81.7395 260.023,83.5728 256,84.5C 255.667,82.9532 256.167,81.6199 257.5,80.5C 255.235,79.3526 252.902,79.1859 250.5,80C 249.167,80.6667 249.167,81.3333 250.5,82C 248.714,82.7845 247.214,83.9512 246,85.5C 243.891,84.9647 243.391,83.9647 244.5,82.5C 244.192,81.6919 243.692,81.0253 243,80.5C 242.464,82.8689 241.297,84.8689 239.5,86.5C 240.025,87.1924 240.692,87.6924 241.5,88C 239.606,89.0793 239.273,90.4126 240.5,92C 247.998,93.1107 254.665,91.2774 260.5,86.5C 262.513,87.5964 264.346,87.2631 266,85.5C 267,86.1667 268,86.8333 269,87.5C 271.294,85.5407 273.794,85.2074 276.5,86.5C 275.494,87.3957 275.494,88.0623 276.5,88.5C 278.299,86.0797 279.966,83.7464 281.5,81.5C 281.5,81.8333 281.5,82.1667 281.5,82.5C 281.817,85.5719 281.484,88.5719 280.5,91.5C 276.944,88.7408 276.277,89.0741 278.5,92.5C 277.15,93.9501 275.484,94.6168 273.5,94.5C 273.703,96.6382 274.703,98.3049 276.5,99.5C 276.167,99.8333 275.833,100.167 275.5,100.5C 272.795,98.2909 269.961,96.2909 267,94.5C 264.645,94.9586 262.479,95.7919 260.5,97C 261.167,97.3333 261.833,97.6667 262.5,98C 260.5,98.3333 258.5,98.6667 256.5,99C 258.5,99.8333 260.5,100.667 262.5,101.5C 261.349,102.731 260.183,102.731 259,101.5C 256.332,102.98 256.165,104.48 258.5,106C 255.258,106.283 254.924,107.117 257.5,108.5C 258.814,107.687 259.981,106.687 261,105.5C 261.333,106.5 261.667,107.5 262,108.5C 263.697,110.925 265.697,112.258 268,112.5C 273.715,105.568 274.548,105.902 270.5,113.5C 270.737,116.063 271.237,116.063 272,113.5C 272.684,114.784 272.517,115.951 271.5,117C 273.286,117.196 274.619,118.029 275.5,119.5C 274.369,120.604 273.535,120.271 273,118.5C 271.933,119.191 270.766,119.691 269.5,120C 270.5,120.833 271.5,121.667 272.5,122.5C 271.185,124.316 269.685,125.983 268,127.5C 267.667,126.833 267.333,126.167 267,125.5C 266.612,126.428 265.945,127.095 265,127.5C 261.539,126.782 258.039,126.282 254.5,126C 255.623,124.956 256.956,124.29 258.5,124C 257.359,123.259 257.359,122.425 258.5,121.5C 257.483,118.972 256.316,118.972 255,121.5C 255.984,119.402 255.651,117.402 254,115.5C 251.5,118.667 248.667,121.5 245.5,124C 246.167,124.667 246.833,125.333 247.5,126C 244.768,126.413 242.101,127.08 239.5,128C 241.441,128.743 243.274,128.576 245,127.5C 246.91,128.991 248.077,130.491 248.5,132C 247,133.5 245.5,135 244,136.5C 242.644,135.62 241.144,135.286 239.5,135.5C 236.5,131.833 233.167,128.5 229.5,125.5C 225.719,119.93 221.053,115.263 215.5,111.5C 215.217,110.711 214.717,110.044 214,109.5C 213.502,112.817 213.335,116.15 213.5,119.5C 213.5,121.5 213.5,123.5 213.5,125.5C 212.043,130.598 211.376,135.931 211.5,141.5C 218.18,141.388 224.847,141.054 231.5,140.5C 232.496,140.414 233.329,140.748 234,141.5C 236.804,139.656 239.97,138.989 243.5,139.5C 243.5,140.5 243.5,141.5 243.5,142.5C 241.08,142.708 238.747,142.374 236.5,141.5C 234.227,142.375 233.227,144.042 233.5,146.5C 225.456,147.933 217.456,149.267 209.5,150.5C 208.22,161.849 207.054,173.182 206,184.5C 207.062,185.097 208.228,185.43 209.5,185.5C 212.437,184.53 215.437,183.863 218.5,183.5C 220.792,183.244 222.959,183.577 225,184.5C 227.47,182.513 230.303,182.013 233.5,183C 231.842,183.725 231.342,184.892 232,186.5C 233.583,184.007 235.083,184.174 236.5,187C 232.815,187.914 233.148,188.581 237.5,189C 235.618,189.198 233.952,189.698 232.5,190.5C 228.295,190.717 224.295,191.383 220.5,192.5C 214.804,192.447 209.138,192.78 203.5,193.5C 201.668,204.156 200.002,214.823 198.5,225.5C 196.976,229.003 196.642,232.67 197.5,236.5C 200.515,235.182 203.515,234.182 206.5,233.5C 213.9,230.398 221.567,228.065 229.5,226.5C 232.307,215.606 234.64,204.606 236.5,193.5C 237.239,193.631 237.906,193.464 238.5,193C 237.167,191.16 237.334,190.66 239,191.5C 239.772,190.151 240.939,189.318 242.5,189C 246.821,188.501 251.154,188.334 255.5,188.5C 266.532,187.575 277.532,187.241 288.5,187.5C 295.175,187.334 301.842,187.5 308.5,188C 309.022,188.561 309.355,189.228 309.5,190C 308.536,193.894 307.369,197.727 306,201.5C 305.21,212.059 303.377,222.392 300.5,232.5C 294.872,233.495 289.206,233.829 283.5,233.5C 266.483,232.626 249.483,232.292 232.5,232.5C 232.682,234.591 232.348,236.591 231.5,238.5C 232.624,239.914 233.624,241.414 234.5,243C 250.805,254.486 268.472,263.319 287.5,269.5C 289.25,270.87 291.25,271.87 293.5,272.5C 295.372,273.511 297.372,274.345 299.5,275C 296.882,277.106 294.882,279.606 293.5,282.5C 286.835,288.664 280.001,294.664 273,300.5C 272.617,299.944 272.117,299.611 271.5,299.5C 271.389,298.883 271.056,298.383 270.5,298C 257.246,295.551 244.246,292.217 231.5,288C 227.878,286.894 224.211,286.561 220.5,287C 219.167,288.667 219.167,290.333 220.5,292C 231.596,299.926 242.262,308.426 252.5,317.5C 256.571,318.378 259.904,320.545 262.5,324C 253.922,337.917 242.255,348.25 227.5,355C 223.239,359.102 218.572,362.602 213.5,365.5C 207.795,369.353 201.795,372.686 195.5,375.5C 190.817,377.862 186.15,380.195 181.5,382.5C 175.497,381.278 169.83,379.278 164.5,376.5C 158.5,372.833 152.5,369.167 146.5,365.5C 135.137,359.361 123.804,352.861 112.5,346C 104.329,340.169 97.9958,332.836 93.5,324C 96.2485,321.31 99.2485,319.144 102.5,317.5C 112.575,308.749 122.909,300.415 133.5,292.5C 135.333,291.032 135.666,289.365 134.5,287.5C 131.897,286.438 129.23,286.272 126.5,287C 116.072,290.607 105.405,293.274 94.5,295C 90.7385,296.564 87.0719,298.064 83.5,299.5C 82.1266,299.657 80.7932,299.49 79.5,299C 71.9776,292.476 64.811,285.643 58,278.5C 56.9914,276.975 56.4914,275.308 56.5,273.5C 60.7843,272.739 64.7843,271.405 68.5,269.5C 86.9703,262.781 104.304,253.781 120.5,242.5C 125.62,235.761 123.953,232.427 115.5,232.5C 100.853,232.317 86.1865,232.651 71.5,233.5C 65.2424,233.81 59.0758,233.476 53,232.5C 47.3563,218.054 44.6896,203.054 45,187.5C 54,186.833 63,186.167 72,185.5C 75.0567,186.451 78.2234,186.784 81.5,186.5C 91.7505,188.55 102.084,188.883 112.5,187.5C 112.703,185.61 112.037,184.11 110.5,183C 99.3936,175.721 88.7269,167.888 78.5,159.5C 78.335,156.15 78.5017,152.817 79,149.5C 81.397,142.361 83.2304,135.027 84.5,127.5C 85.3007,125.958 85.634,124.292 85.5,122.5C 86.5,122.5 87.5,122.5 88.5,122.5C 94.3626,126.599 100.696,129.933 107.5,132.5C 105.6,90.9686 124.933,65.6352 165.5,56.5 Z"/></g>
<g><path style="opacity:0.008" fill="#503d28" d="M 455.5,81.5 C 456.833,82.1667 456.833,82.1667 455.5,81.5 Z"/></g>
<g><path style="opacity:0.849" fill="#21241b" d="M 281.5,82.5 C 282.19,94.3571 283.024,106.357 284,118.5C 284.813,131.575 284.646,144.575 283.5,157.5C 269.145,165.103 255.645,174.103 243,184.5C 242.517,185.448 242.351,186.448 242.5,187.5C 247.032,187.182 251.366,187.515 255.5,188.5C 251.154,188.334 246.821,188.501 242.5,189C 240.939,189.318 239.772,190.151 239,191.5C 237.334,190.66 237.167,191.16 238.5,193C 237.906,193.464 237.239,193.631 236.5,193.5C 236.737,192.209 236.404,191.209 235.5,190.5C 234.5,190.5 233.5,190.5 232.5,190.5C 233.952,189.698 235.618,189.198 237.5,189C 233.148,188.581 232.815,187.914 236.5,187C 235.083,184.174 233.583,184.007 232,186.5C 231.342,184.892 231.842,183.725 233.5,183C 230.303,182.013 227.47,182.513 225,184.5C 222.959,183.577 220.792,183.244 218.5,183.5C 224.838,182.052 231.338,181.052 238,180.5C 240.325,169.076 241.825,157.743 242.5,146.5C 239.5,146.5 236.5,146.5 233.5,146.5C 233.227,144.042 234.227,142.375 236.5,141.5C 238.747,142.374 241.08,142.708 243.5,142.5C 243.5,141.5 243.5,140.5 243.5,139.5C 239.97,138.989 236.804,139.656 234,141.5C 233.329,140.748 232.496,140.414 231.5,140.5C 233.78,138.777 236.447,138.111 239.5,138.5C 239.5,137.5 239.5,136.5 239.5,135.5C 241.144,135.286 242.644,135.62 244,136.5C 245.5,135 247,133.5 248.5,132C 248.077,130.491 246.91,128.991 245,127.5C 243.274,128.576 241.441,128.743 239.5,128C 242.101,127.08 244.768,126.413 247.5,126C 246.833,125.333 246.167,124.667 245.5,124C 248.667,121.5 251.5,118.667 254,115.5C 255.651,117.402 255.984,119.402 255,121.5C 256.316,118.972 257.483,118.972 258.5,121.5C 257.359,122.425 257.359,123.259 258.5,124C 256.956,124.29 255.623,124.956 254.5,126C 258.039,126.282 261.539,126.782 265,127.5C 265.945,127.095 266.612,126.428 267,125.5C 267.333,126.167 267.667,126.833 268,127.5C 269.685,125.983 271.185,124.316 272.5,122.5C 271.5,121.667 270.5,120.833 269.5,120C 270.766,119.691 271.933,119.191 273,118.5C 273.535,120.271 274.369,120.604 275.5,119.5C 274.619,118.029 273.286,117.196 271.5,117C 272.517,115.951 272.684,114.784 272,113.5C 271.237,116.063 270.737,116.063 270.5,113.5C 274.548,105.902 273.715,105.568 268,112.5C 265.697,112.258 263.697,110.925 262,108.5C 261.667,107.5 261.333,106.5 261,105.5C 259.981,106.687 258.814,107.687 257.5,108.5C 254.924,107.117 255.258,106.283 258.5,106C 256.165,104.48 256.332,102.98 259,101.5C 260.183,102.731 261.349,102.731 262.5,101.5C 260.5,100.667 258.5,99.8333 256.5,99C 258.5,98.6667 260.5,98.3333 262.5,98C 261.833,97.6667 261.167,97.3333 260.5,97C 262.479,95.7919 264.645,94.9586 267,94.5C 269.961,96.2909 272.795,98.2909 275.5,100.5C 275.833,100.167 276.167,99.8333 276.5,99.5C 274.703,98.3049 273.703,96.6382 273.5,94.5C 275.484,94.6168 277.15,93.9501 278.5,92.5C 276.277,89.0741 276.944,88.7408 280.5,91.5C 281.484,88.5719 281.817,85.5719 281.5,82.5 Z"/></g>
<g><path style="opacity:0.929" fill="#4b5454" d="M 407.5,211.5 C 405.336,207.17 403.836,202.503 403,197.5C 399.97,190.891 394.803,187.058 387.5,186C 379.167,185.667 370.833,185.333 362.5,185C 361.944,184.617 361.611,184.117 361.5,183.5C 361.051,177.107 360.218,170.773 359,164.5C 358.308,163.975 357.808,163.308 357.5,162.5C 352.198,161.671 346.864,161.171 341.5,161C 342.381,160.292 343.047,159.458 343.5,158.5C 347.83,154.002 351.997,149.335 356,144.5C 356.868,141.515 357.201,138.515 357,135.5C 354.833,133.333 352.667,131.167 350.5,129C 351.577,128.53 352.577,128.697 353.5,129.5C 364.413,122.367 375.747,115.7 387.5,109.5C 387.833,110 388.167,110.5 388.5,111C 386.536,127.474 384.869,143.974 383.5,160.5C 388.534,160.664 393.534,160.331 398.5,159.5C 400.922,159.257 402.588,160.257 403.5,162.5C 404.834,178.839 406.168,195.172 407.5,211.5 Z"/></g>
<g><path style="opacity:0.963" fill="#e5dc6f" d="M 139.5,111.5 C 140.167,114.167 140.833,116.833 141.5,119.5C 142.448,126.806 143.115,134.139 143.5,141.5C 133.997,141.666 124.664,140.666 115.5,138.5C 115.343,137.127 115.51,135.793 116,134.5C 123.755,126.576 131.589,118.91 139.5,111.5 Z"/></g>
<g><path style="opacity:0.968" fill="#ebe171" d="M 215.5,111.5 C 221.053,115.263 225.719,119.93 229.5,125.5C 229.207,127.689 228.707,129.689 228,131.5C 228.333,131.167 228.667,130.833 229,130.5C 233.895,130.915 234.395,132.248 230.5,134.5C 228.52,133.617 226.52,133.783 224.5,135C 225.025,135.692 225.692,136.192 226.5,136.5C 227.451,135.674 228.451,135.508 229.5,136C 228.167,137 228.167,138 229.5,139C 227.029,139.706 224.695,139.373 222.5,138C 222.833,137.667 223.167,137.333 223.5,137C 220.841,135.829 218.841,133.996 217.5,131.5C 216.646,132.522 215.646,133.355 214.5,134C 215.5,134.333 216.5,134.667 217.5,135C 214.751,137.19 215.085,138.857 218.5,140C 216.527,140.495 214.527,140.662 212.5,140.5C 213.164,135.527 213.497,130.527 213.5,125.5C 213.5,123.5 213.5,121.5 213.5,119.5C 214.167,116.833 214.833,114.167 215.5,111.5 Z"/></g>
<g><path style="opacity:0.938" fill="#1f231a" d="M 365.5,55.5 C 378.026,55.134 389.693,57.8007 400.5,63.5C 422.939,65.4507 437.439,77.1174 444,98.5C 450.983,129.081 453.816,160.081 452.5,191.5C 451.686,193.631 451.186,195.964 451,198.5C 449.129,197.332 447.629,197.832 446.5,200C 449.943,200.221 450.276,201.221 447.5,203C 448.584,205.825 449.751,205.992 451,203.5C 451.833,215.847 451.666,228.18 450.5,240.5C 448.884,241.115 447.551,242.115 446.5,243.5C 445.742,242.189 444.742,241.689 443.5,242C 443.736,243.784 443.736,245.618 443.5,247.5C 433.141,244.158 422.807,240.824 412.5,237.5C 410.829,237.668 409.496,238.335 408.5,239.5C 407.506,230.348 407.173,221.015 407.5,211.5C 406.168,195.172 404.834,178.839 403.5,162.5C 402.588,160.257 400.922,159.257 398.5,159.5C 393.534,160.331 388.534,160.664 383.5,160.5C 384.869,143.974 386.536,127.474 388.5,111C 388.167,110.5 387.833,110 387.5,109.5C 375.747,115.7 364.413,122.367 353.5,129.5C 341.327,120.332 330.327,109.665 320.5,97.5C 316.579,94.7203 312.913,91.7203 309.5,88.5C 311.446,86.4903 311.446,84.8236 309.5,83.5C 310.145,82.354 310.978,81.354 312,80.5C 316.476,79.5607 320.309,79.5607 323.5,80.5C 324.052,78.9974 324.052,77.3307 323.5,75.5C 327.797,73.857 329.797,75.5237 329.5,80.5C 332.226,80.7361 334.559,79.9028 336.5,78C 339.554,77.1786 342.554,77.3452 345.5,78.5C 341.636,79.95 341.636,81.45 345.5,83C 344.62,84.3561 344.286,85.8561 344.5,87.5C 343.5,87.5 342.5,87.5 341.5,87.5C 338.994,86.2504 336.327,85.5838 333.5,85.5C 332.791,84.596 331.791,84.2627 330.5,84.5C 330.5,89.1667 330.5,93.8333 330.5,98.5C 331.791,98.7373 332.791,98.404 333.5,97.5C 334.514,96.3263 335.847,95.6596 337.5,95.5C 338.92,96.8664 340.42,98.1998 342,99.5C 346.915,99.1317 351.748,98.465 356.5,97.5C 357.354,98.5217 358.354,99.3551 359.5,100C 364.668,100.359 369.668,100.192 374.5,99.5C 377.494,102.964 380.827,103.297 384.5,100.5C 385.986,101.814 387.653,102.814 389.5,103.5C 390.167,103.333 390.833,103.167 391.5,103C 391.167,102 390.833,101 390.5,100C 393.053,99.1487 395.386,99.482 397.5,101C 396.833,101.667 396.167,102.333 395.5,103C 397.78,103.233 399.78,104.066 401.5,105.5C 402.105,104.413 401.772,103.246 400.5,102C 403.469,101.701 404.969,100.201 405,97.5C 403.542,99.524 401.709,99.6907 399.5,98C 400.413,96.5861 400.413,95.0861 399.5,93.5C 401.332,92.8595 401.665,91.8595 400.5,90.5C 397.136,89.1632 393.803,87.8299 390.5,86.5C 390.196,85.8501 389.863,85.1835 389.5,84.5C 390.981,83.5197 392.315,82.353 393.5,81C 392.978,80.4387 392.645,79.772 392.5,79C 393.167,77.6667 393.833,76.3333 394.5,75C 394.167,74.5 393.833,74 393.5,73.5C 390.46,76.375 388.794,75.7083 388.5,71.5C 386.508,71.3285 384.842,71.9951 383.5,73.5C 382.575,72.3595 381.741,72.3595 381,73.5C 380.667,72.8333 380.333,72.1667 380,71.5C 379,75.5 378,75.5 377,71.5C 375.869,72.6039 375.035,72.2705 374.5,70.5C 375.025,69.8076 375.692,69.3076 376.5,69C 372.074,67.9662 371.574,66.1329 375,63.5C 375.826,65.4054 376.993,65.7388 378.5,64.5C 377.149,62.981 375.649,61.6477 374,60.5C 372.471,61.7287 371.304,63.2287 370.5,65C 368.945,66.2893 367.279,66.956 365.5,67C 368.21,65.5402 368.876,63.5402 367.5,61C 369.271,60.4646 369.604,59.6313 368.5,58.5C 366.419,60.4464 364.086,60.4464 361.5,58.5C 362.283,56.7118 363.616,55.7118 365.5,55.5 Z"/></g>
<g><path style="opacity:0.918" fill="#d6cc68" d="M 213.5,125.5 C 213.497,130.527 213.164,135.527 212.5,140.5C 214.527,140.662 216.527,140.495 218.5,140C 215.085,138.857 214.751,137.19 217.5,135C 216.5,134.667 215.5,134.333 214.5,134C 215.646,133.355 216.646,132.522 217.5,131.5C 218.841,133.996 220.841,135.829 223.5,137C 223.167,137.333 222.833,137.667 222.5,138C 224.695,139.373 227.029,139.706 229.5,139C 228.167,138 228.167,137 229.5,136C 228.451,135.508 227.451,135.674 226.5,136.5C 225.692,136.192 225.025,135.692 224.5,135C 226.52,133.783 228.52,133.617 230.5,134.5C 234.395,132.248 233.895,130.915 229,130.5C 228.667,130.833 228.333,131.167 228,131.5C 228.707,129.689 229.207,127.689 229.5,125.5C 233.167,128.5 236.5,131.833 239.5,135.5C 239.5,136.5 239.5,137.5 239.5,138.5C 236.447,138.111 233.78,138.777 231.5,140.5C 224.847,141.054 218.18,141.388 211.5,141.5C 211.376,135.931 212.043,130.598 213.5,125.5 Z"/></g>
<g><path style="opacity:0.969" fill="#e9e071" d="M 233.5,146.5 C 236.5,146.5 239.5,146.5 242.5,146.5C 241.825,157.743 240.325,169.076 238,180.5C 231.338,181.052 224.838,182.052 218.5,183.5C 215.437,183.863 212.437,184.53 209.5,185.5C 208.228,185.43 207.062,185.097 206,184.5C 207.054,173.182 208.22,161.849 209.5,150.5C 217.456,149.267 225.456,147.933 233.5,146.5 Z"/></g>
<g><path style="opacity:0.491" fill="#3c271d" d="M 309.5,88.5 C 312.913,91.7203 316.579,94.7203 320.5,97.5C 330.327,109.665 341.327,120.332 353.5,129.5C 352.577,128.697 351.577,128.53 350.5,129C 352.667,131.167 354.833,133.333 357,135.5C 357.201,138.515 356.868,141.515 356,144.5C 351.997,149.335 347.83,154.002 343.5,158.5C 342.883,158.389 342.383,158.056 342,157.5C 340.951,159.107 339.451,159.773 337.5,159.5C 336.167,162.5 334.833,165.5 333.5,168.5C 325.879,175.962 318.713,183.962 312,192.5C 311.871,201.665 310.704,210.665 308.5,219.5C 306.352,231.112 302.518,242.112 297,252.5C 296.508,257.136 295.175,261.469 293,265.5C 292.444,267.885 292.61,270.218 293.5,272.5C 291.25,271.87 289.25,270.87 287.5,269.5C 288.869,266.88 290.369,264.213 292,261.5C 293.183,252.452 295.683,243.785 299.5,235.5C 294.015,234.833 288.681,234.167 283.5,233.5C 289.206,233.829 294.872,233.495 300.5,232.5C 303.377,222.392 305.21,212.059 306,201.5C 307.369,197.727 308.536,193.894 309.5,190C 309.355,189.228 309.022,188.561 308.5,188C 301.842,187.5 295.175,187.334 288.5,187.5C 287.191,177.315 285.524,167.315 283.5,157.5C 284.646,144.575 284.813,131.575 284,118.5C 283.024,106.357 282.19,94.3571 281.5,82.5C 281.5,82.1667 281.5,81.8333 281.5,81.5C 281.335,78.1501 281.502,74.8168 282,71.5C 284.064,70.4086 286.231,70.2419 288.5,71C 295.056,77.3918 302.056,83.2251 309.5,88.5 Z"/></g>
<g><path style="opacity:0.956" fill="#1d221a" d="M 290.5,78.5 C 313.295,96.287 334.295,116.287 353.5,138.5C 342.466,151.534 330.466,163.534 317.5,174.5C 315.237,159.498 314.237,144.498 314.5,129.5C 319.193,133.861 323.859,138.195 328.5,142.5C 324.1,145.3 321.767,149.3 321.5,154.5C 326.067,154.944 329.067,152.944 330.5,148.5C 331.689,147.571 333.022,147.238 334.5,147.5C 334.561,143.951 333.727,140.618 332,137.5C 327.786,133.618 323.286,130.118 318.5,127C 315.26,124.099 312.426,120.932 310,117.5C 309.118,120.789 308.452,124.123 308,127.5C 306.965,145.907 307.465,164.24 309.5,182.5C 303.5,182.5 297.5,182.5 291.5,182.5C 290.82,151.868 289.82,121.035 288.5,90C 288.653,85.9866 289.32,82.1533 290.5,78.5 Z"/></g>
<g><path style="opacity:0.973" fill="#dbd36b" d="M 294.5,155.5 C 297.879,155.853 300.879,157.187 303.5,159.5C 301.637,162.712 298.97,164.712 295.5,165.5C 295.167,162.167 294.833,158.833 294.5,155.5 Z"/></g>
<g><path style="opacity:0.983" fill="#dfd76d" d="M 294.5,123.5 C 297.789,125.145 301.122,126.811 304.5,128.5C 302.669,131.874 300.003,133.707 296.5,134C 294.737,130.757 294.071,127.257 294.5,123.5 Z"/></g>
<g><path style="opacity:0.953" fill="#7d1f20" d="M 283.5,157.5 C 285.524,167.315 287.191,177.315 288.5,187.5C 277.532,187.241 266.532,187.575 255.5,188.5C 251.366,187.515 247.032,187.182 242.5,187.5C 242.351,186.448 242.517,185.448 243,184.5C 255.645,174.103 269.145,165.103 283.5,157.5 Z"/></g>
<g><path style="opacity:0.962" fill="#7e1f20" d="M 78.5,159.5 C 88.7269,167.888 99.3936,175.721 110.5,183C 112.037,184.11 112.703,185.61 112.5,187.5C 102.084,188.883 91.7505,188.55 81.5,186.5C 78.9723,185.834 76.3056,185.168 73.5,184.5C 74.7746,176.534 75.9413,168.534 77,160.5C 77.3826,159.944 77.8826,159.611 78.5,159.5 Z"/></g>
<g><path style="opacity:0.971" fill="#ebe171" d="M 148.5,184.5 C 145.167,184.167 141.833,183.833 138.5,183.5C 131.262,182.728 124.095,181.728 117,180.5C 115.641,169.711 114.141,159.044 112.5,148.5C 112.833,147.5 113.167,146.5 113.5,145.5C 124.043,147.942 134.709,149.608 145.5,150.5C 146.422,160.879 147.756,171.213 149.5,181.5C 149.48,182.726 149.147,183.726 148.5,184.5 Z"/></g>
<g><path style="opacity:0.98" fill="#1a2019" d="M 333.5,168.5 C 334.5,168.5 335.5,168.5 336.5,168.5C 336.5,170.833 336.5,173.167 336.5,175.5C 335.284,190.079 333.951,204.745 332.5,219.5C 328.835,224.329 325.002,228.996 321,233.5C 317.526,228.223 313.36,223.557 308.5,219.5C 310.704,210.665 311.871,201.665 312,192.5C 318.713,183.962 325.879,175.962 333.5,168.5 Z"/></g>
<g><path style="opacity:0.347" fill="#443022" d="M 343.5,158.5 C 343.047,159.458 342.381,160.292 341.5,161C 346.864,161.171 352.198,161.671 357.5,162.5C 357.808,163.308 358.308,163.975 359,164.5C 360.218,170.773 361.051,177.107 361.5,183.5C 358.603,186.859 354.936,189.359 350.5,191C 347.5,191.667 344.5,191.667 341.5,191C 340.333,190.5 339.5,189.667 339,188.5C 338.004,184.184 337.17,179.851 336.5,175.5C 336.5,173.167 336.5,170.833 336.5,168.5C 335.5,168.5 334.5,168.5 333.5,168.5C 334.833,165.5 336.167,162.5 337.5,159.5C 339.451,159.773 340.951,159.107 342,157.5C 342.383,158.056 342.883,158.389 343.5,158.5 Z"/></g>
<g><path style="opacity:0.984" fill="#898748" d="M 138.5,183.5 C 141.833,183.833 145.167,184.167 148.5,184.5C 145.07,185.71 141.737,185.376 138.5,183.5 Z"/></g>
<g><path style="opacity:0.988" fill="#b1ad5a" d="M 232.5,190.5 C 233.5,190.5 234.5,190.5 235.5,190.5C 230.731,191.889 225.731,192.556 220.5,192.5C 224.295,191.383 228.295,190.717 232.5,190.5 Z"/></g>
<g><path style="opacity:0.989" fill="#efe673" d="M 235.5,190.5 C 236.404,191.209 236.737,192.209 236.5,193.5C 234.64,204.606 232.307,215.606 229.5,226.5C 221.567,228.065 213.9,230.398 206.5,233.5C 203.833,232.833 201.167,232.167 198.5,231.5C 198.5,229.5 198.5,227.5 198.5,225.5C 200.002,214.823 201.668,204.156 203.5,193.5C 209.138,192.78 214.804,192.447 220.5,192.5C 225.731,192.556 230.731,191.889 235.5,190.5 Z"/></g>
<g><path style="opacity:0.985" fill="#ece272" d="M 124.5,222.5 C 123.658,217.351 122.658,212.351 121.5,207.5C 120.34,201.861 119.34,196.195 118.5,190.5C 129.468,191.83 140.468,192.83 151.5,193.5C 153.318,207.591 155.652,221.591 158.5,235.5C 158.167,235.833 157.833,236.167 157.5,236.5C 147.181,232.417 136.515,229.25 125.5,227C 124.62,225.644 124.286,224.144 124.5,222.5 Z"/></g>
<g><path style="opacity:0.898" fill="#5f5934" d="M 121.5,207.5 C 122.658,212.351 123.658,217.351 124.5,222.5C 122.124,217.894 121.124,212.894 121.5,207.5 Z"/></g>
<g><path style="opacity:0.988" fill="#c7c162" d="M 198.5,225.5 C 198.5,227.5 198.5,229.5 198.5,231.5C 201.167,232.167 203.833,232.833 206.5,233.5C 203.515,234.182 200.515,235.182 197.5,236.5C 196.642,232.67 196.976,229.003 198.5,225.5 Z"/></g>
<g><path style="opacity:0.974" fill="#801e20" d="M 283.5,233.5 C 288.681,234.167 294.015,234.833 299.5,235.5C 295.683,243.785 293.183,252.452 292,261.5C 290.369,264.213 288.869,266.88 287.5,269.5C 268.472,263.319 250.805,254.486 234.5,243C 233.624,241.414 232.624,239.914 231.5,238.5C 232.348,236.591 232.682,234.591 232.5,232.5C 249.483,232.292 266.483,232.626 283.5,233.5 Z"/></g>
<g><path style="opacity:0.354" fill="#422d20" d="M 450.5,349.5 C 451.831,342.517 451.831,335.851 450.5,329.5C 451.299,326.57 451.632,323.57 451.5,320.5C 450.209,320.737 449.209,320.404 448.5,319.5C 449.833,319.5 451.167,319.5 452.5,319.5C 452.911,310.524 452.911,301.524 452.5,292.5C 452.5,290.833 452.5,289.167 452.5,287.5C 452.906,255.671 452.906,223.671 452.5,191.5C 453.816,160.081 450.983,129.081 444,98.5C 437.439,77.1174 422.939,65.4507 400.5,63.5C 389.693,57.8007 378.026,55.134 365.5,55.5C 356.517,54.4302 347.35,53.7635 338,53.5C 318.513,54.7431 299.013,55.7431 279.5,56.5C 241.338,55.2139 203.338,55.2139 165.5,56.5C 124.933,65.6352 105.6,90.9686 107.5,132.5C 100.696,129.933 94.3626,126.599 88.5,122.5C 95.2771,122.943 100.61,120.443 104.5,115C 104.735,105.907 106.902,97.0741 111,88.5C 116.255,81.1473 122.088,74.314 128.5,68C 130.025,66.9914 131.692,66.4914 133.5,66.5C 133.281,65.325 133.614,64.325 134.5,63.5C 149.301,55.1771 165.134,50.8438 182,50.5C 182.388,51.428 183.055,52.0946 184,52.5C 188.546,51.0553 193.213,50.3887 198,50.5C 213.532,51.2004 229.365,51.2004 245.5,50.5C 248.047,50.4424 250.38,51.1091 252.5,52.5C 258.79,52.6537 265.123,52.3204 271.5,51.5C 275.455,52.8437 279.622,53.5104 284,53.5C 288.092,52.6772 292.259,51.6772 296.5,50.5C 300.066,50.4914 303.732,50.8248 307.5,51.5C 310.772,50.5153 314.105,49.8486 317.5,49.5C 330.646,49.8309 343.646,49.8309 356.5,49.5C 363.61,50.0399 370.61,51.2066 377.5,53C 378.876,55.5425 380.043,55.7092 381,53.5C 384.852,55.2297 389.018,56.0631 393.5,56C 395.701,57.0432 398.034,57.8765 400.5,58.5C 401.522,59.354 402.355,60.354 403,61.5C 405.737,60.3895 408.571,60.2228 411.5,61C 414.106,61.4505 415.439,62.9505 415.5,65.5C 418.321,65.5387 420.988,66.2054 423.5,67.5C 426.369,69.5323 429.036,71.8656 431.5,74.5C 432.167,74.1667 432.833,73.8333 433.5,73.5C 435.85,76.1126 437.683,79.1126 439,82.5C 442.716,83.4365 443.883,85.6031 442.5,89C 445.532,94.1769 447.699,99.3436 449,104.5C 449.333,107.833 449.667,111.167 450,114.5C 450.304,116.441 451.137,118.107 452.5,119.5C 452.291,120.086 451.957,120.586 451.5,121C 454.417,127.252 455.084,133.752 453.5,140.5C 454.167,140.833 454.833,141.167 455.5,141.5C 454.833,142.833 454.167,144.167 453.5,145.5C 454.376,146.251 455.376,146.751 456.5,147C 456.239,149.594 456.239,152.26 456.5,155C 455.899,156.605 454.899,157.938 453.5,159C 458.234,160.016 458.567,162.016 454.5,165C 456.368,165.899 457.368,167.399 457.5,169.5C 457.835,177.34 457.168,185.173 455.5,193C 456.794,201.961 456.794,210.628 455.5,219C 456.167,221 456.833,223 457.5,225C 456.898,229.049 456.231,233.049 455.5,237C 457.152,240.547 456.485,243.547 453.5,246C 456.22,250.079 457.887,254.579 458.5,259.5C 458.649,263.035 457.316,265.868 454.5,268C 455.578,268.674 456.245,269.674 456.5,271C 457.069,275.533 457.736,280.033 458.5,284.5C 459.089,286.373 458.422,288.04 456.5,289.5C 457.983,292.411 457.65,295.078 455.5,297.5C 459.469,303.373 459.136,309.04 454.5,314.5C 456.917,316.494 456.917,318.327 454.5,320C 455.833,321.333 455.833,322.667 454.5,324C 455.308,324.308 455.975,324.808 456.5,325.5C 453.807,328.156 453.474,330.822 455.5,333.5C 453.564,336.919 453.231,340.419 454.5,344C 453.313,345.019 452.313,346.186 451.5,347.5C 452.785,350.021 453.452,352.687 453.5,355.5C 452.5,355.5 451.5,355.5 450.5,355.5C 450.5,353.5 450.5,351.5 450.5,349.5 Z"/></g>
<g><path style="opacity:0.945" fill="#8f8c4b" d="M 215.5,111.5 C 214.833,114.167 214.167,116.833 213.5,119.5C 213.335,116.15 213.502,112.817 214,109.5C 214.717,110.044 215.217,110.711 215.5,111.5 Z"/></g>
<g><path style="opacity:0.941" fill="#888648" d="M 141.5,119.5 C 140.833,116.833 140.167,114.167 139.5,111.5C 139.783,110.711 140.283,110.044 141,109.5C 141.498,112.817 141.665,116.15 141.5,119.5 Z"/></g>
<g><path style="opacity:0.943" fill="#ddd46b" d="M 296.5,94.5 C 300.256,96.0513 303.256,98.5513 305.5,102C 302.511,105.161 298.844,106.661 294.5,106.5C 294.892,102.418 295.558,98.4185 296.5,94.5 Z"/></g>
<g><path style="opacity:0.887" fill="#d4cb67" d="M 390.5,86.5 C 393.803,87.8299 397.136,89.1632 400.5,90.5C 401.665,91.8595 401.332,92.8595 399.5,93.5C 395.941,95.4466 392.275,97.1133 388.5,98.5C 387.911,94.0293 388.577,90.0293 390.5,86.5 Z"/></g>
<g><path style="opacity:0.932" fill="#dfd46b" d="M 333.5,85.5 C 336.327,85.5838 338.994,86.2504 341.5,87.5C 341.982,88.4163 342.315,89.4163 342.5,90.5C 341.037,92.3927 339.37,94.0594 337.5,95.5C 335.847,95.6596 334.514,96.3263 333.5,97.5C 332.206,95.9522 331.539,93.9522 331.5,91.5C 331.539,89.0478 332.206,87.0478 333.5,85.5 Z"/></g>
<g><path style="opacity:0.925" fill="#817f44" d="M 333.5,85.5 C 332.206,87.0478 331.539,89.0478 331.5,91.5C 331.539,93.9522 332.206,95.9522 333.5,97.5C 332.791,98.404 331.791,98.7373 330.5,98.5C 330.5,93.8333 330.5,89.1667 330.5,84.5C 331.791,84.2627 332.791,84.596 333.5,85.5 Z"/></g>
<g><path style="opacity:0.841" fill="#22241b" d="M 365.5,55.5 C 363.616,55.7118 362.283,56.7118 361.5,58.5C 364.086,60.4464 366.419,60.4464 368.5,58.5C 369.604,59.6313 369.271,60.4646 367.5,61C 368.876,63.5402 368.21,65.5402 365.5,67C 367.279,66.956 368.945,66.2893 370.5,65C 371.304,63.2287 372.471,61.7287 374,60.5C 375.649,61.6477 377.149,62.981 378.5,64.5C 376.993,65.7388 375.826,65.4054 375,63.5C 371.574,66.1329 372.074,67.9662 376.5,69C 375.692,69.3076 375.025,69.8076 374.5,70.5C 375.035,72.2705 375.869,72.6039 377,71.5C 378,75.5 379,75.5 380,71.5C 380.333,72.1667 380.667,72.8333 381,73.5C 381.741,72.3595 382.575,72.3595 383.5,73.5C 384.842,71.9951 386.508,71.3285 388.5,71.5C 388.794,75.7083 390.46,76.375 393.5,73.5C 393.833,74 394.167,74.5 394.5,75C 393.833,76.3333 393.167,77.6667 392.5,79C 392.645,79.772 392.978,80.4387 393.5,81C 392.315,82.353 390.981,83.5197 389.5,84.5C 389.863,85.1835 390.196,85.8501 390.5,86.5C 388.577,90.0293 387.911,94.0293 388.5,98.5C 392.275,97.1133 395.941,95.4466 399.5,93.5C 400.413,95.0861 400.413,96.5861 399.5,98C 401.709,99.6907 403.542,99.524 405,97.5C 404.969,100.201 403.469,101.701 400.5,102C 401.772,103.246 402.105,104.413 401.5,105.5C 399.78,104.066 397.78,103.233 395.5,103C 396.167,102.333 396.833,101.667 397.5,101C 395.386,99.482 393.053,99.1487 390.5,100C 390.833,101 391.167,102 391.5,103C 390.833,103.167 390.167,103.333 389.5,103.5C 387.653,102.814 385.986,101.814 384.5,100.5C 380.827,103.297 377.494,102.964 374.5,99.5C 369.668,100.192 364.668,100.359 359.5,100C 358.354,99.3551 357.354,98.5217 356.5,97.5C 351.748,98.465 346.915,99.1317 342,99.5C 340.42,98.1998 338.92,96.8664 337.5,95.5C 339.37,94.0594 341.037,92.3927 342.5,90.5C 342.315,89.4163 341.982,88.4163 341.5,87.5C 342.5,87.5 343.5,87.5 344.5,87.5C 344.286,85.8561 344.62,84.3561 345.5,83C 341.636,81.45 341.636,79.95 345.5,78.5C 342.554,77.3452 339.554,77.1786 336.5,78C 334.559,79.9028 332.226,80.7361 329.5,80.5C 329.797,75.5237 327.797,73.857 323.5,75.5C 324.052,77.3307 324.052,78.9974 323.5,80.5C 320.309,79.5607 316.476,79.5607 312,80.5C 310.978,81.354 310.145,82.354 309.5,83.5C 311.446,84.8236 311.446,86.4903 309.5,88.5C 302.056,83.2251 295.056,77.3918 288.5,71C 286.231,70.2419 284.064,70.4086 282,71.5C 281.502,74.8168 281.335,78.1501 281.5,81.5C 279.966,83.7464 278.299,86.0797 276.5,88.5C 275.494,88.0623 275.494,87.3957 276.5,86.5C 273.794,85.2074 271.294,85.5407 269,87.5C 268,86.8333 267,86.1667 266,85.5C 264.346,87.2631 262.513,87.5964 260.5,86.5C 254.665,91.2774 247.998,93.1107 240.5,92C 239.273,90.4126 239.606,89.0793 241.5,88C 240.692,87.6924 240.025,87.1924 239.5,86.5C 241.297,84.8689 242.464,82.8689 243,80.5C 243.692,81.0253 244.192,81.6919 244.5,82.5C 243.391,83.9647 243.891,84.9647 246,85.5C 247.214,83.9512 248.714,82.7845 250.5,82C 249.167,81.3333 249.167,80.6667 250.5,80C 252.902,79.1859 255.235,79.3526 257.5,80.5C 256.167,81.6199 255.667,82.9532 256,84.5C 260.023,83.5728 263.523,81.7395 266.5,79C 264.365,77.6189 262.032,76.6189 259.5,76C 260.815,74.6054 260.481,73.6054 258.5,73C 260.421,72.6397 262.088,71.8064 263.5,70.5C 264.086,70.7093 264.586,71.0426 265,71.5C 267.543,70.1236 267.709,68.957 265.5,68C 268.757,67.7389 271.257,66.2389 273,63.5C 274.059,63.6301 274.892,64.1301 275.5,65C 274.549,65.7175 274.383,66.5509 275,67.5C 277.443,65.4714 277.61,62.9714 275.5,60C 276.623,58.9563 277.956,58.2896 279.5,58C 277.141,57.7922 274.974,57.6256 273,57.5C 272.517,58.448 272.351,59.448 272.5,60.5C 270.362,60.703 268.695,61.703 267.5,63.5C 265.866,63.032 264.7,62.032 264,60.5C 262.984,61.6341 262.317,61.3008 262,59.5C 259.337,61.3026 256.671,62.3026 254,62.5C 253.312,61.6683 253.479,61.0016 254.5,60.5C 256.332,59.7515 257.999,58.7515 259.5,57.5C 262.455,57.4682 265.455,57.8016 268.5,58.5C 269.308,58.1924 269.975,57.6924 270.5,57C 265.5,56.3333 260.5,56.3333 255.5,57C 253.898,59.111 251.898,60.611 249.5,61.5C 248.833,61.1667 248.167,60.8333 247.5,60.5C 254.115,57.9258 253.782,56.7591 246.5,57C 245.167,57.6667 245.167,58.3333 246.5,59C 246,59.1667 245.5,59.3333 245,59.5C 243.902,58.6161 243.402,57.6161 243.5,56.5C 242.281,57.2634 241.281,58.2634 240.5,59.5C 239.289,58.7261 239.289,57.8928 240.5,57C 239.667,56.8333 238.833,56.6667 238,56.5C 235.696,56.3176 235.196,56.9843 236.5,58.5C 234.792,61.9635 234.126,61.2969 234.5,56.5C 229.399,56.7608 224.399,56.7608 219.5,56.5C 218.328,56.9186 217.328,57.5853 216.5,58.5C 214.136,57.5933 211.303,56.9266 208,56.5C 200.581,56.6792 193.081,56.8459 185.5,57C 186.554,58.3876 186.72,59.8876 186,61.5C 185.535,60.0692 184.701,58.9025 183.5,58C 183.833,57.6667 184.167,57.3333 184.5,57C 178.175,56.5005 171.842,56.3338 165.5,56.5C 203.338,55.2139 241.338,55.2139 279.5,56.5C 299.013,55.7431 318.513,54.7431 338,53.5C 347.35,53.7635 356.517,54.4302 365.5,55.5 Z"/></g>
<g><path style="opacity:0.902" fill="#d1c966" d="M 360.5,84.5 C 361.873,84.3433 363.207,84.51 364.5,85C 366.888,86.8605 369.554,88.1939 372.5,89C 373.705,91.2342 373.039,92.9008 370.5,94C 366.884,95.8115 363.217,97.3115 359.5,98.5C 360.127,93.8592 360.46,89.1925 360.5,84.5 Z"/></g>
<g><path style="opacity:0.893" fill="#7d2020" d="M 68.5,269.5 C 62.2743,258.496 57.6077,246.83 54.5,234.5C 60.358,234.822 66.0247,234.489 71.5,233.5C 86.1865,232.651 100.853,232.317 115.5,232.5C 123.953,232.427 125.62,235.761 120.5,242.5C 104.304,253.781 86.9703,262.781 68.5,269.5 Z"/></g>
<g><path style="opacity:0.971" fill="#e9e071" d="M 212.5,245.5 C 216.5,245.5 220.5,245.5 224.5,245.5C 222.476,255.889 220.143,266.222 217.5,276.5C 208.084,279.239 198.584,282.239 189,285.5C 189.61,274.062 191.11,262.729 193.5,251.5C 195.361,250.158 197.361,249.158 199.5,248.5C 203.673,246.888 208.007,245.888 212.5,245.5 Z"/></g>
<g><path style="opacity:0.98" fill="#5a5d34" d="M 199.5,248.5 C 197.361,249.158 195.361,250.158 193.5,251.5C 193.5,250.5 193.5,249.5 193.5,248.5C 195.5,248.5 197.5,248.5 199.5,248.5 Z"/></g>
<g><path style="opacity:0.745" fill="#4c4f4c" d="M 443.5,247.5 C 445.59,249.39 447.923,251.057 450.5,252.5C 447.36,254.473 444.36,256.64 441.5,259C 430.805,263.431 420.305,268.264 410,273.5C 409.819,270.305 409.319,267.305 408.5,264.5C 408.5,256.167 408.5,247.833 408.5,239.5C 409.496,238.335 410.829,237.668 412.5,237.5C 422.807,240.824 433.141,244.158 443.5,247.5 Z"/></g>
<g><path style="opacity:0.89" fill="#848146" d="M 212.5,245.5 C 216.97,244.514 221.637,244.181 226.5,244.5C 224.586,254.58 222.253,264.58 219.5,274.5C 219.253,275.713 218.586,276.38 217.5,276.5C 220.143,266.222 222.476,255.889 224.5,245.5C 220.5,245.5 216.5,245.5 212.5,245.5 Z"/></g>
<g><path style="opacity:0.747" fill="#28281e" d="M 452.5,191.5 C 452.906,223.671 452.906,255.671 452.5,287.5C 450.598,288.511 448.598,288.678 446.5,288C 434.369,284.288 422.202,280.788 410,277.5C 409.722,278.416 409.222,279.082 408.5,279.5C 408.5,274.5 408.5,269.5 408.5,264.5C 409.319,267.305 409.819,270.305 410,273.5C 420.305,268.264 430.805,263.431 441.5,259C 444.36,256.64 447.36,254.473 450.5,252.5C 447.923,251.057 445.59,249.39 443.5,247.5C 443.736,245.618 443.736,243.784 443.5,242C 444.742,241.689 445.742,242.189 446.5,243.5C 447.551,242.115 448.884,241.115 450.5,240.5C 451.666,228.18 451.833,215.847 451,203.5C 449.751,205.992 448.584,205.825 447.5,203C 450.276,201.221 449.943,200.221 446.5,200C 447.629,197.832 449.129,197.332 451,198.5C 451.186,195.964 451.686,193.631 452.5,191.5 Z"/></g>
<g><path style="opacity:0.831" fill="#656035" d="M 162.5,259.5 C 164.118,262.171 164.785,265.171 164.5,268.5C 163.087,265.781 162.42,262.781 162.5,259.5 Z"/></g>
<g><path style="opacity:0.431" fill="#3f2a1f" d="M 336.5,175.5 C 337.17,179.851 338.004,184.184 339,188.5C 339.5,189.667 340.333,190.5 341.5,191C 344.5,191.667 347.5,191.667 350.5,191C 354.936,189.359 358.603,186.859 361.5,183.5C 361.611,184.117 361.944,184.617 362.5,185C 370.833,185.333 379.167,185.667 387.5,186C 394.803,187.058 399.97,190.891 403,197.5C 403.836,202.503 405.336,207.17 407.5,211.5C 407.173,221.015 407.506,230.348 408.5,239.5C 408.5,247.833 408.5,256.167 408.5,264.5C 408.5,269.5 408.5,274.5 408.5,279.5C 408.057,294.833 407.557,310.166 407,325.5C 406.552,332.029 405.718,338.363 404.5,344.5C 403.571,343.685 402.571,342.852 401.5,342C 401.833,341.667 402.167,341.333 402.5,341C 401.422,340.326 400.755,339.326 400.5,338C 401.077,335.863 401.41,333.696 401.5,331.5C 397.757,331.541 397.59,330.874 401,329.5C 401.333,329.833 401.667,330.167 402,330.5C 402.432,329.4 401.932,328.733 400.5,328.5C 398.813,328.76 397.313,329.427 396,330.5C 395.667,330.167 395.333,329.833 395,329.5C 392.411,335.016 389.078,340.016 385,344.5C 384.308,350.373 382.141,355.54 378.5,360C 379.239,364.773 377.739,368.939 374,372.5C 373.517,373.448 373.351,374.448 373.5,375.5C 372.5,375.5 371.5,375.5 370.5,375.5C 370.5,374.5 370.5,373.5 370.5,372.5C 373.61,364.675 376.443,356.675 379,348.5C 382.064,342.04 385.397,335.707 389,329.5C 389.49,328.207 389.657,326.873 389.5,325.5C 392.893,321.067 396.06,316.401 399,311.5C 400.235,304.712 400.569,297.712 400,290.5C 398.581,289.54 397.081,288.707 395.5,288C 386.167,287.667 376.833,287.333 367.5,287C 365.212,286.178 362.878,285.511 360.5,285C 358.996,283.509 358.163,281.676 358,279.5C 356.853,264.528 356.02,249.528 355.5,234.5C 356.03,229.17 356.53,223.836 357,218.5C 358.167,217.333 359.333,216.167 360.5,215C 367.509,214.624 374.509,214.124 381.5,213.5C 385.846,212.58 388.346,214.247 389,218.5C 389.667,233.5 389.667,248.5 389,263.5C 388.07,265.552 386.57,267.052 384.5,268C 380.833,268.667 377.167,268.667 373.5,268C 373,267.5 372.5,267 372,266.5C 371.02,255.854 370.52,245.187 370.5,234.5C 372.144,234.286 373.644,234.62 375,235.5C 375.134,244.248 375.967,252.914 377.5,261.5C 379.747,262.374 382.08,262.708 384.5,262.5C 384.5,247.833 384.5,233.167 384.5,218.5C 376.833,219.167 369.167,219.833 361.5,220.5C 361.103,240.533 361.603,260.533 363,280.5C 375.108,281.688 387.275,281.688 399.5,280.5C 402.198,257.545 402.698,234.545 401,211.5C 400.333,210.833 399.667,210.167 399,209.5C 398.869,204.318 397.869,199.318 396,194.5C 394.649,192.981 393.149,191.648 391.5,190.5C 390.784,191.311 389.95,191.978 389,192.5C 374.811,189.764 360.645,189.931 346.5,193C 343.16,195.672 341.326,199.172 341,203.5C 340.667,209.167 340.333,214.833 340,220.5C 340.257,250.492 340.424,280.492 340.5,310.5C 346.322,310.79 351.988,310.123 357.5,308.5C 357.263,309.791 357.596,310.791 358.5,311.5C 352.032,317.136 346.032,323.303 340.5,330C 328.094,340.851 315.761,351.684 303.5,362.5C 298.214,365.788 293.214,369.454 288.5,373.5C 287.698,374.952 287.198,376.618 287,378.5C 286.626,377.584 286.126,376.75 285.5,376C 283.5,375.5 281.5,375 279.5,374.5C 272.188,376.481 264.855,378.314 257.5,380C 253.179,380.499 248.846,380.666 244.5,380.5C 244.5,379.167 244.5,377.833 244.5,376.5C 253.183,375.903 261.85,375.07 270.5,374C 271.252,373.329 271.586,372.496 271.5,371.5C 275.503,371.029 278.669,369.029 281,365.5C 297.602,345.197 314.935,325.53 333,306.5C 332.375,293.88 331.875,281.213 331.5,268.5C 331.73,252.162 332.063,235.829 332.5,219.5C 333.951,204.745 335.284,190.079 336.5,175.5 Z"/></g>
<g><path style="opacity:0.958" fill="#1c2119" d="M 389.5,325.5 C 387.51,322.618 385.51,319.618 383.5,316.5C 379.746,320.548 375.413,323.882 370.5,326.5C 368.475,320.117 365.642,314.117 362,308.5C 360.961,309.71 359.794,310.71 358.5,311.5C 357.596,310.791 357.263,309.791 357.5,308.5C 351.988,310.123 346.322,310.79 340.5,310.5C 340.424,280.492 340.257,250.492 340,220.5C 340.333,214.833 340.667,209.167 341,203.5C 341.326,199.172 343.16,195.672 346.5,193C 360.645,189.931 374.811,189.764 389,192.5C 389.95,191.978 390.784,191.311 391.5,190.5C 393.149,191.648 394.649,192.981 396,194.5C 397.869,199.318 398.869,204.318 399,209.5C 399.667,210.167 400.333,210.833 401,211.5C 402.698,234.545 402.198,257.545 399.5,280.5C 387.275,281.688 375.108,281.688 363,280.5C 361.603,260.533 361.103,240.533 361.5,220.5C 369.167,219.833 376.833,219.167 384.5,218.5C 384.5,233.167 384.5,247.833 384.5,262.5C 382.08,262.708 379.747,262.374 377.5,261.5C 375.967,252.914 375.134,244.248 375,235.5C 373.644,234.62 372.144,234.286 370.5,234.5C 370.52,245.187 371.02,255.854 372,266.5C 372.5,267 373,267.5 373.5,268C 377.167,268.667 380.833,268.667 384.5,268C 386.57,267.052 388.07,265.552 389,263.5C 389.667,248.5 389.667,233.5 389,218.5C 388.346,214.247 385.846,212.58 381.5,213.5C 374.509,214.124 367.509,214.624 360.5,215C 359.333,216.167 358.167,217.333 357,218.5C 356.53,223.836 356.03,229.17 355.5,234.5C 356.02,249.528 356.853,264.528 358,279.5C 358.163,281.676 358.996,283.509 360.5,285C 362.878,285.511 365.212,286.178 367.5,287C 376.833,287.333 386.167,287.667 395.5,288C 397.081,288.707 398.581,289.54 400,290.5C 400.569,297.712 400.235,304.712 399,311.5C 396.06,316.401 392.893,321.067 389.5,325.5 Z"/></g>
<g><path style="opacity:0.925" fill="#e5dc6f" d="M 162.5,259.5 C 162.42,262.781 163.087,265.781 164.5,268.5C 164.5,269.5 164.5,270.5 164.5,271.5C 164.966,276.029 164.966,280.363 164.5,284.5C 155.821,281.416 146.821,279.416 137.5,278.5C 135.039,267.118 132.373,255.784 129.5,244.5C 140.166,244.833 150.499,246.666 160.5,250C 161.432,253.085 162.099,256.252 162.5,259.5 Z"/></g>
<g><path style="opacity:0.988" fill="#4b5455" d="M 308.5,219.5 C 313.36,223.557 317.526,228.223 321,233.5C 325.002,228.996 328.835,224.329 332.5,219.5C 332.063,235.829 331.73,252.162 331.5,268.5C 331.875,281.213 332.375,293.88 333,306.5C 314.935,325.53 297.602,345.197 281,365.5C 278.669,369.029 275.503,371.029 271.5,371.5C 270.815,369.586 270.315,367.586 270,365.5C 269.439,364.978 268.772,364.645 268,364.5C 264.979,367.688 261.813,370.688 258.5,373.5C 255.295,371.445 253.462,368.445 253,364.5C 251.644,363.62 250.144,363.286 248.5,363.5C 248.649,364.552 248.483,365.552 248,366.5C 244.511,368.97 241.677,371.97 239.5,375.5C 238.167,375.5 236.833,375.5 235.5,375.5C 237.667,371.341 237.667,367.008 235.5,362.5C 238.116,361.52 240.449,360.02 242.5,358C 259.021,343.144 275.187,327.977 291,312.5C 291.97,302.501 292.804,292.501 293.5,282.5C 294.882,279.606 296.882,277.106 299.5,275C 297.372,274.345 295.372,273.511 293.5,272.5C 292.61,270.218 292.444,267.885 293,265.5C 295.175,261.469 296.508,257.136 297,252.5C 302.518,242.112 306.352,231.112 308.5,219.5 Z"/></g>
<g><path style="opacity:0.938" fill="#1e231b" d="M 311.5,261.5 C 315.767,261.203 319.934,261.536 324,262.5C 324.667,263.833 324.667,265.167 324,266.5C 322.118,269.478 320.618,272.645 319.5,276C 318.668,276.688 318.002,276.521 317.5,275.5C 315.527,272.36 313.36,269.36 311,266.5C 310.36,264.735 310.527,263.068 311.5,261.5 Z"/></g>
<g><path style="opacity:0.955" fill="#1d231b" d="M 310.5,238.5 C 315.833,238.5 321.167,238.5 326.5,238.5C 324.646,244.155 321.813,249.155 318,253.5C 317.228,253.355 316.561,253.022 316,252.5C 314.249,247.736 312.415,243.07 310.5,238.5 Z"/></g>
<g><path style="opacity:0.933" fill="#aea756" d="M 164.5,271.5 C 166.435,275.945 166.768,280.612 165.5,285.5C 164.893,285.376 164.56,285.043 164.5,284.5C 164.966,280.363 164.966,276.029 164.5,271.5 Z"/></g>
<g><path style="opacity:0.205" fill="#463122" d="M 84.5,127.5 C 83.2304,135.027 81.397,142.361 79,149.5C 78.5017,152.817 78.335,156.15 78.5,159.5C 77.8826,159.611 77.3826,159.944 77,160.5C 75.9413,168.534 74.7746,176.534 73.5,184.5C 76.3056,185.168 78.9723,185.834 81.5,186.5C 78.2234,186.784 75.0567,186.451 72,185.5C 63,186.167 54,186.833 45,187.5C 44.6896,203.054 47.3563,218.054 53,232.5C 59.0758,233.476 65.2424,233.81 71.5,233.5C 66.0247,234.489 60.358,234.822 54.5,234.5C 57.6077,246.83 62.2743,258.496 68.5,269.5C 64.7843,271.405 60.7843,272.739 56.5,273.5C 56.4914,275.308 56.9914,276.975 58,278.5C 64.811,285.643 71.9776,292.476 79.5,299C 80.7932,299.49 82.1266,299.657 83.5,299.5C 87.8864,305.713 92.8864,311.546 98.5,317C 99.7932,317.49 101.127,317.657 102.5,317.5C 99.2485,319.144 96.2485,321.31 93.5,324C 97.9958,332.836 104.329,340.169 112.5,346C 123.804,352.861 135.137,359.361 146.5,365.5C 145.665,368.994 145.665,372.66 146.5,376.5C 146.299,379.728 146.633,382.895 147.5,386C 144.114,390.975 143.447,396.142 145.5,401.5C 144.669,403.473 144.502,405.473 145,407.5C 146.164,410.135 147.331,412.802 148.5,415.5C 149.192,414.975 149.692,414.308 150,413.5C 150.455,416.854 150.955,420.187 151.5,423.5C 149.801,423.66 148.134,423.494 146.5,423C 142.8,415.188 141.467,407.021 142.5,398.5C 141.062,389.87 139.562,381.537 138,373.5C 131.822,365.339 123.989,359.506 114.5,356C 108.577,352.108 103.077,347.608 98,342.5C 95.1869,339.554 92.8535,336.221 91,332.5C 89.3234,327.153 87.6567,321.819 86,316.5C 80.3245,312.158 75.1579,306.992 70.5,301C 63.5761,297.408 57.9094,292.408 53.5,286C 52.7561,283.517 52.7561,280.851 53.5,278C 51.1088,277.309 51.1088,276.309 53.5,275C 52.8677,271.847 53.5344,268.847 55.5,266C 53.9977,263.994 54.331,262.328 56.5,261C 55.7709,258.942 54.7709,257.109 53.5,255.5C 53.2606,253.533 53.5939,251.699 54.5,250C 53.5838,249.626 52.7504,249.126 52,248.5C 51.131,245.67 49.9643,243.003 48.5,240.5C 48.8333,239.833 49.1667,239.167 49.5,238.5C 46.9274,235.347 45.594,231.68 45.5,227.5C 44.325,227.719 43.325,227.386 42.5,226.5C 42.2187,224.219 42.2187,221.886 42.5,219.5C 39.1911,214.472 38.1911,209.306 39.5,204C 37.4862,200.351 37.4862,196.518 39.5,192.5C 40.0253,191.808 40.6919,191.308 41.5,191C 41.1667,190.667 40.8333,190.333 40.5,190C 42.0062,187.667 43.6729,185.5 45.5,183.5C 46.1667,183.833 46.8333,184.167 47.5,184.5C 54.5692,183.076 61.5692,181.409 68.5,179.5C 70.5345,174.503 72.2011,169.336 73.5,164C 72.8841,162.6 72.5507,161.1 72.5,159.5C 74.6276,153.695 75.7943,147.695 76,141.5C 78.118,137.38 79.7846,133.047 81,128.5C 82.0113,127.663 83.1779,127.33 84.5,127.5 Z"/></g>
<g><path style="opacity:0.967" fill="#7f1e1f" d="M 102.5,317.5 C 101.127,317.657 99.7932,317.49 98.5,317C 92.8864,311.546 87.8864,305.713 83.5,299.5C 87.0719,298.064 90.7385,296.564 94.5,295C 105.405,293.274 116.072,290.607 126.5,287C 129.23,286.272 131.897,286.438 134.5,287.5C 135.666,289.365 135.333,291.032 133.5,292.5C 122.909,300.415 112.575,308.749 102.5,317.5 Z"/></g>
<g><path style="opacity:0.987" fill="#1b221b" d="M 311.5,285.5 C 316.511,285.334 321.511,285.501 326.5,286C 324.781,290.773 322.781,295.439 320.5,300C 319.833,300.667 319.167,300.667 318.5,300C 315.605,295.947 312.939,291.78 310.5,287.5C 310.863,286.817 311.196,286.15 311.5,285.5 Z"/></g>
<g><path style="opacity:0.957" fill="#7f1e20" d="M 271.5,299.5 C 271.675,302.329 270.342,303.996 267.5,304.5C 264.334,309.163 260.667,313.329 256.5,317C 255.207,317.49 253.873,317.657 252.5,317.5C 242.262,308.426 231.596,299.926 220.5,292C 219.167,290.333 219.167,288.667 220.5,287C 224.211,286.561 227.878,286.894 231.5,288C 244.246,292.217 257.246,295.551 270.5,298C 271.056,298.383 271.389,298.883 271.5,299.5 Z"/></g>
<g><path style="opacity:0.972" fill="#ece372" d="M 174.5,353.5 C 174.802,356.059 174.468,358.393 173.5,360.5C 171.496,357.458 169.496,354.458 167.5,351.5C 167.025,347.916 166.025,344.583 164.5,341.5C 164.34,339.847 163.674,338.514 162.5,337.5C 162.097,334.514 161.097,331.848 159.5,329.5C 154.994,316.819 149.994,304.319 144.5,292C 151.878,292.339 159.211,293.339 166.5,295C 167.308,295.308 167.975,295.808 168.5,296.5C 171.999,315.33 173.999,334.33 174.5,353.5 Z"/></g>
<g><path style="opacity:0.989" fill="#ece372" d="M 199.5,330.5 C 197.905,333.285 196.905,336.285 196.5,339.5C 194.896,340.287 194.229,341.62 194.5,343.5C 192.935,345.509 191.935,347.843 191.5,350.5C 189.773,354.948 187.273,358.948 184,362.5C 185.37,340.561 186.537,318.561 187.5,296.5C 196.348,293.992 205.015,291.325 213.5,288.5C 209.842,302.806 205.176,316.806 199.5,330.5 Z"/></g>
<g><path style="opacity:0.846" fill="#23251c" d="M 452.5,292.5 C 452.911,301.524 452.911,310.524 452.5,319.5C 451.167,319.5 449.833,319.5 448.5,319.5C 436.8,316.525 425.133,313.359 413.5,310C 411.987,307.546 412.654,305.879 415.5,305C 424.578,301.531 433.911,298.864 443.5,297C 446.438,295.192 449.438,293.692 452.5,292.5 Z"/></g>
<g><path style="opacity:0.988" fill="#1b221b" d="M 303.5,305.5 C 305.308,305.491 306.975,305.991 308.5,307C 310.957,310.058 313.957,312.392 317.5,314C 311.806,315.349 306.473,317.516 301.5,320.5C 301.167,320.167 300.833,319.833 300.5,319.5C 301.317,314.771 302.317,310.104 303.5,305.5 Z"/></g>
<g><path style="opacity:0.941" fill="#4b5354" d="M 389.5,325.5 C 389.657,326.873 389.49,328.207 389,329.5C 385.397,335.707 382.064,342.04 379,348.5C 376.443,356.675 373.61,364.675 370.5,372.5C 369.566,373.568 369.232,374.901 369.5,376.5C 368.209,376.737 367.209,376.404 366.5,375.5C 367.573,374.749 367.74,373.749 367,372.5C 363.903,368.73 360.236,365.73 356,363.5C 351.302,367.37 346.802,371.37 342.5,375.5C 342.167,375.5 341.833,375.5 341.5,375.5C 337.479,372.478 334.145,368.811 331.5,364.5C 327.801,366.68 324.134,368.847 320.5,371C 318.536,372.451 317.203,374.284 316.5,376.5C 310.833,376.5 305.167,376.5 299.5,376.5C 302.897,375.802 306.397,375.135 310,374.5C 310.667,372.833 310.667,371.167 310,369.5C 308.667,367.5 307.333,365.5 306,363.5C 305.329,362.748 304.496,362.414 303.5,362.5C 315.761,351.684 328.094,340.851 340.5,330C 346.032,323.303 352.032,317.136 358.5,311.5C 359.794,310.71 360.961,309.71 362,308.5C 365.642,314.117 368.475,320.117 370.5,326.5C 375.413,323.882 379.746,320.548 383.5,316.5C 385.51,319.618 387.51,322.618 389.5,325.5 Z"/></g>
<g><path style="opacity:0.987" fill="#1b221b" d="M 289.5,323.5 C 294.552,324.859 298.552,327.859 301.5,332.5C 296.654,334.395 291.821,336.395 287,338.5C 286.967,333.364 287.8,328.364 289.5,323.5 Z"/></g>
<g><path style="opacity:0.48" fill="#3f2a1e" d="M 293.5,282.5 C 292.804,292.501 291.97,302.501 291,312.5C 275.187,327.977 259.021,343.144 242.5,358C 240.449,360.02 238.116,361.52 235.5,362.5C 229.64,365.353 224.307,369.019 219.5,373.5C 215,375.224 213,373.558 213.5,368.5C 213.5,367.5 213.5,366.5 213.5,365.5C 218.572,362.602 223.239,359.102 227.5,355C 242.255,348.25 253.922,337.917 262.5,324C 259.904,320.545 256.571,318.378 252.5,317.5C 253.873,317.657 255.207,317.49 256.5,317C 260.667,313.329 264.334,309.163 267.5,304.5C 270.342,303.996 271.675,302.329 271.5,299.5C 272.117,299.611 272.617,299.944 273,300.5C 280.001,294.664 286.835,288.664 293.5,282.5 Z"/></g>
<g><path style="opacity:0.207" fill="#473323" d="M 404.5,344.5 C 404.27,365.386 396.77,383.053 382,397.5C 380.425,401.595 377.592,404.761 373.5,407C 365.665,410.052 357.665,412.219 349.5,413.5C 306.744,419.441 264.41,427.441 222.5,437.5C 220.96,433.957 221.96,431.124 225.5,429C 232.444,426.725 239.277,424.225 246,421.5C 246.873,421.735 247.707,422.069 248.5,422.5C 265.162,417.788 281.995,414.454 299,412.5C 318.46,408.107 337.627,404.941 356.5,403C 356.957,402.586 357.291,402.086 357.5,401.5C 365.756,400.725 372.09,396.892 376.5,390C 377.766,389.691 378.933,389.191 380,388.5C 380.36,386.579 381.194,384.912 382.5,383.5C 381.674,382.549 381.508,381.549 382,380.5C 385.153,377.84 387.319,374.506 388.5,370.5C 390.366,371.563 390.866,370.896 390,368.5C 389.346,369.696 388.846,369.696 388.5,368.5C 389.025,367.808 389.692,367.308 390.5,367C 390.5,365 390.5,363 390.5,361C 392.891,359.691 392.891,358.691 390.5,358C 391.167,357.667 391.833,357.333 392.5,357C 392.132,353.612 391.965,350.112 392,346.5C 390.408,349.835 388.574,353.001 386.5,356C 385.462,360.944 384.128,365.777 382.5,370.5C 380.833,370.5 379.167,370.5 377.5,370.5C 376.909,373.614 375.242,376.114 372.5,378C 369.638,380.6 366.304,382.433 362.5,383.5C 362.081,384.672 361.415,385.672 360.5,386.5C 355.019,387.802 349.685,389.468 344.5,391.5C 342.941,390.553 341.274,389.887 339.5,389.5C 333.292,390.245 327.125,391.245 321,392.5C 314.804,390.91 308.637,389.243 302.5,387.5C 298.622,389.192 294.289,389.692 289.5,389C 284.924,386.214 280.257,383.714 275.5,381.5C 258.706,385.224 241.706,387.391 224.5,388C 221.333,389.167 219.167,391.333 218,394.5C 217.376,399.495 216.209,404.328 214.5,409C 215.741,410.487 215.241,411.32 213,411.5C 211.893,411.415 210.893,411.081 210,410.5C 210.374,408.231 210.374,405.898 210,403.5C 208.542,408.594 207.709,408.261 207.5,402.5C 209.236,390.986 211.236,379.653 213.5,368.5C 213,373.558 215,375.224 219.5,373.5C 219.24,377.348 219.906,381.015 221.5,384.5C 222.795,382.672 223.795,380.672 224.5,378.5C 228.136,377.341 231.802,376.341 235.5,375.5C 236.833,375.5 238.167,375.5 239.5,375.5C 239.632,378.797 241.298,380.463 244.5,380.5C 248.846,380.666 253.179,380.499 257.5,380C 264.855,378.314 272.188,376.481 279.5,374.5C 281.5,375 283.5,375.5 285.5,376C 286.126,376.75 286.626,377.584 287,378.5C 287.198,376.618 287.698,374.952 288.5,373.5C 288.335,377.182 288.501,380.848 289,384.5C 289.561,385.022 290.228,385.355 291,385.5C 293.24,382.089 296.073,379.089 299.5,376.5C 305.167,376.5 310.833,376.5 316.5,376.5C 316.392,380.247 316.892,383.914 318,387.5C 319.011,388.337 320.178,388.67 321.5,388.5C 322.436,385.041 324.436,382.207 327.5,380C 331.59,377.848 335.757,377.015 340,377.5C 341.03,377.164 341.53,376.497 341.5,375.5C 341.833,375.5 342.167,375.5 342.5,375.5C 343.167,378.833 343.833,382.167 344.5,385.5C 345.552,385.649 346.552,385.483 347.5,385C 351.427,377.332 357.76,374.165 366.5,375.5C 367.209,376.404 368.209,376.737 369.5,376.5C 369.232,374.901 369.566,373.568 370.5,372.5C 370.5,373.5 370.5,374.5 370.5,375.5C 371.5,375.5 372.5,375.5 373.5,375.5C 373.351,374.448 373.517,373.448 374,372.5C 377.739,368.939 379.239,364.773 378.5,360C 382.141,355.54 384.308,350.373 385,344.5C 389.078,340.016 392.411,335.016 395,329.5C 395.333,329.833 395.667,330.167 396,330.5C 397.313,329.427 398.813,328.76 400.5,328.5C 401.932,328.733 402.432,329.4 402,330.5C 401.667,330.167 401.333,329.833 401,329.5C 397.59,330.874 397.757,331.541 401.5,331.5C 401.41,333.696 401.077,335.863 400.5,338C 400.755,339.326 401.422,340.326 402.5,341C 402.167,341.333 401.833,341.667 401.5,342C 402.571,342.852 403.571,343.685 404.5,344.5 Z M 309.5,399.5 C 309.343,400.873 309.51,402.207 310,403.5C 314.566,401.864 314.399,400.53 309.5,399.5 Z"/></g>
<g><path style="opacity:0.953" fill="#1c221b" d="M 360.5,331.5 C 380.098,330.624 381.431,334.957 364.5,344.5C 362.703,340.314 361.37,335.981 360.5,331.5 Z"/></g>
<g><path style="opacity:0.981" fill="#7e2220" d="M 199.5,330.5 C 201.067,331.681 201.901,333.347 202,335.5C 203.499,342.656 201.666,343.989 196.5,339.5C 196.905,336.285 197.905,333.285 199.5,330.5 Z"/></g>
<g><path style="opacity:0.986" fill="#792120" d="M 159.5,329.5 C 161.097,331.848 162.097,334.514 162.5,337.5C 160.906,338.983 159.24,340.483 157.5,342C 156.551,342.617 155.718,342.451 155,341.5C 154.333,340.167 154.333,338.833 155,337.5C 156.795,334.901 158.295,332.234 159.5,329.5 Z"/></g>
<g><path style="opacity:0.728" fill="#27271d" d="M 450.5,329.5 C 451.831,335.851 451.831,342.517 450.5,349.5C 449.833,349.5 449.5,349.833 449.5,350.5C 435.874,349.4 422.874,346.067 410.5,340.5C 410.709,339.914 411.043,339.414 411.5,339C 424.374,335.031 437.374,331.864 450.5,329.5 Z"/></g>
<g><path style="opacity:0.976" fill="#1b221a" d="M 274.5,338.5 C 277.778,341.146 281.445,343.313 285.5,345C 286.747,346.494 286.747,347.994 285.5,349.5C 280.276,350.528 275.443,352.528 271,355.5C 270.916,349.602 272.082,343.935 274.5,338.5 Z"/></g>
<g><path style="opacity:0.969" fill="#792020" d="M 164.5,341.5 C 166.025,344.583 167.025,347.916 167.5,351.5C 157.393,350.035 156.393,346.702 164.5,341.5 Z"/></g>
<g><path style="opacity:0.988" fill="#822321" d="M 194.5,343.5 C 197.538,344.042 199.038,345.709 199,348.5C 196.699,349.867 194.199,350.534 191.5,350.5C 191.935,347.843 192.935,345.509 194.5,343.5 Z"/></g>
<g><path style="opacity:0.936" fill="#1f231b" d="M 355.5,348.5 C 360.239,349.185 364.906,350.185 369.5,351.5C 367.491,355.027 364.824,358.194 361.5,361C 360.207,361.49 358.873,361.657 357.5,361.5C 356.914,357.146 356.248,352.812 355.5,348.5 Z"/></g>
<g><path style="opacity:0.973" fill="#9f9a52" d="M 174.5,353.5 C 175.8,356.024 175.8,358.691 174.5,361.5C 173.893,361.376 173.56,361.043 173.5,360.5C 174.468,358.393 174.802,356.059 174.5,353.5 Z"/></g>
<g><path style="opacity:0.941" fill="#1e221a" d="M 235.5,362.5 C 237.667,367.008 237.667,371.341 235.5,375.5C 231.802,376.341 228.136,377.341 224.5,378.5C 223.795,380.672 222.795,382.672 221.5,384.5C 219.906,381.015 219.24,377.348 219.5,373.5C 224.307,369.019 229.64,365.353 235.5,362.5 Z"/></g>
<g><path style="opacity:0.491" fill="#322d21" d="M 449.5,362.5 C 449.5,369.5 449.5,376.5 449.5,383.5C 448.71,382.391 448.21,381.058 448,379.5C 447.586,379.957 447.086,380.291 446.5,380.5C 434.99,378.566 423.656,376.066 412.5,373C 409.876,372.424 409.209,371.09 410.5,369C 423.328,365.708 436.328,363.542 449.5,362.5 Z"/></g>
<g><path style="opacity:0.93" fill="#1e231b" d="M 366.5,375.5 C 357.76,374.165 351.427,377.332 347.5,385C 346.552,385.483 345.552,385.649 344.5,385.5C 343.833,382.167 343.167,378.833 342.5,375.5C 346.802,371.37 351.302,367.37 356,363.5C 360.236,365.73 363.903,368.73 367,372.5C 367.74,373.749 367.573,374.749 366.5,375.5 Z"/></g>
<g><path style="opacity:0.971" fill="#1c221a" d="M 303.5,362.5 C 304.496,362.414 305.329,362.748 306,363.5C 307.333,365.5 308.667,367.5 310,369.5C 310.667,371.167 310.667,372.833 310,374.5C 306.397,375.135 302.897,375.802 299.5,376.5C 296.073,379.089 293.24,382.089 291,385.5C 290.228,385.355 289.561,385.022 289,384.5C 288.501,380.848 288.335,377.182 288.5,373.5C 293.214,369.454 298.214,365.788 303.5,362.5 Z"/></g>
<g><path style="opacity:0.958" fill="#1d221a" d="M 341.5,375.5 C 341.53,376.497 341.03,377.164 340,377.5C 335.757,377.015 331.59,377.848 327.5,380C 324.436,382.207 322.436,385.041 321.5,388.5C 320.178,388.67 319.011,388.337 318,387.5C 316.892,383.914 316.392,380.247 316.5,376.5C 317.203,374.284 318.536,372.451 320.5,371C 324.134,368.847 327.801,366.68 331.5,364.5C 334.145,368.811 337.479,372.478 341.5,375.5 Z"/></g>
<g><path style="opacity:0.913" fill="#21241c" d="M 271.5,371.5 C 271.586,372.496 271.252,373.329 270.5,374C 261.85,375.07 253.183,375.903 244.5,376.5C 244.5,377.833 244.5,379.167 244.5,380.5C 241.298,380.463 239.632,378.797 239.5,375.5C 241.677,371.97 244.511,368.97 248,366.5C 248.483,365.552 248.649,364.552 248.5,363.5C 250.144,363.286 251.644,363.62 253,364.5C 253.462,368.445 255.295,371.445 258.5,373.5C 261.813,370.688 264.979,367.688 268,364.5C 268.772,364.645 269.439,364.978 270,365.5C 270.315,367.586 270.815,369.586 271.5,371.5 Z"/></g>
<g><path style="opacity:0.204" fill="#483423" d="M 195.5,375.5 C 197.363,391.465 198.697,407.465 199.5,423.5C 199.5,424.833 199.5,426.167 199.5,427.5C 197.019,427.677 195.186,426.677 194,424.5C 190.954,414.664 188.288,404.331 186,393.5C 181.739,389.577 177.406,389.577 173,393.5C 170.78,396.869 169.946,400.369 170.5,404C 169.825,410.917 168.658,417.751 167,424.5C 164.55,427.464 161.717,429.798 158.5,431.5C 158.5,429.5 158.5,427.5 158.5,425.5C 160.604,410.592 162.104,395.592 163,380.5C 163.41,379.099 163.91,377.766 164.5,376.5C 169.83,379.278 175.497,381.278 181.5,382.5C 186.15,380.195 190.817,377.862 195.5,375.5 Z"/></g>
<g><path style="opacity:0.944" fill="#e8de70" d="M 146.5,365.5 C 152.5,369.167 158.5,372.833 164.5,376.5C 163.91,377.766 163.41,379.099 163,380.5C 162.104,395.592 160.604,410.592 158.5,425.5C 157.835,427.698 157.168,430.031 156.5,432.5C 155.522,432.023 154.689,431.357 154,430.5C 151.169,412.395 148.669,394.395 146.5,376.5C 145.665,372.66 145.665,368.994 146.5,365.5 Z"/></g>
<g><path style="opacity:0.853" fill="#25261d" d="M 445.5,395.5 C 446.752,400.591 446.252,405.591 444,410.5C 443.292,411.381 442.458,412.047 441.5,412.5C 428.708,407.102 416.375,400.602 404.5,393C 403.663,391.989 403.33,390.822 403.5,389.5C 417.758,390.414 431.758,392.414 445.5,395.5 Z"/></g>
<g><path style="opacity:0.872" fill="#d9cf69" d="M 213.5,365.5 C 213.5,366.5 213.5,367.5 213.5,368.5C 211.236,379.653 209.236,390.986 207.5,402.5C 205.444,411.932 204.111,421.598 203.5,431.5C 202.5,431.5 201.5,431.5 200.5,431.5C 200.806,428.615 200.473,425.948 199.5,423.5C 198.697,407.465 197.363,391.465 195.5,375.5C 201.795,372.686 207.795,369.353 213.5,365.5 Z"/></g>
<g><path style="opacity:0.76" fill="#4c504d" d="M 452.5,287.5 C 452.5,289.167 452.5,290.833 452.5,292.5C 449.438,293.692 446.438,295.192 443.5,297C 433.911,298.864 424.578,301.531 415.5,305C 412.654,305.879 411.987,307.546 413.5,310C 425.133,313.359 436.8,316.525 448.5,319.5C 449.209,320.404 450.209,320.737 451.5,320.5C 451.632,323.57 451.299,326.57 450.5,329.5C 437.374,331.864 424.374,335.031 411.5,339C 411.043,339.414 410.709,339.914 410.5,340.5C 422.874,346.067 435.874,349.4 449.5,350.5C 449.864,354.622 449.864,358.622 449.5,362.5C 436.328,363.542 423.328,365.708 410.5,369C 409.209,371.09 409.876,372.424 412.5,373C 423.656,376.066 434.99,378.566 446.5,380.5C 447.086,380.291 447.586,379.957 448,379.5C 448.21,381.058 448.71,382.391 449.5,383.5C 448.346,387.172 448.179,390.838 449,394.5C 447.989,395.337 446.822,395.67 445.5,395.5C 431.758,392.414 417.758,390.414 403.5,389.5C 403.33,390.822 403.663,391.989 404.5,393C 416.375,400.602 428.708,407.102 441.5,412.5C 441.313,414.564 440.813,416.564 440,418.5C 433.971,424.44 427.804,430.273 421.5,436C 418.5,436.333 415.5,436.667 412.5,437C 404.211,440.143 395.545,441.643 386.5,441.5C 387.031,439.376 388.365,437.876 390.5,437C 390,436.5 389.5,436 389,435.5C 384.796,437.087 380.63,438.587 376.5,440C 378.46,437.894 380.294,435.727 382,433.5C 383.338,434.506 384.671,435.506 386,436.5C 387.688,435.675 387.855,434.675 386.5,433.5C 387.698,433.06 388.865,432.727 390,432.5C 391.019,430.731 391.186,429.064 390.5,427.5C 385.301,427.177 379.967,426.344 374.5,425C 377.187,423.805 379.854,423.638 382.5,424.5C 383.228,422.807 384.228,421.307 385.5,420C 380.64,420.069 376.64,420.903 373.5,422.5C 373.349,419.282 372.516,418.949 371,421.5C 370.517,420.552 370.351,419.552 370.5,418.5C 368.336,417.522 366.17,416.522 364,415.5C 361.837,415.495 360.337,416.495 359.5,418.5C 358.808,417.975 358.308,417.308 358,416.5C 356.759,418.421 355.259,418.754 353.5,417.5C 354.025,416.808 354.692,416.308 355.5,416C 353.831,414.331 351.831,413.498 349.5,413.5C 357.665,412.219 365.665,410.052 373.5,407C 377.592,404.761 380.425,401.595 382,397.5C 396.77,383.053 404.27,365.386 404.5,344.5C 405.718,338.363 406.552,332.029 407,325.5C 407.557,310.166 408.057,294.833 408.5,279.5C 409.222,279.082 409.722,278.416 410,277.5C 422.202,280.788 434.369,284.288 446.5,288C 448.598,288.678 450.598,288.511 452.5,287.5 Z"/></g>
<g><path style="opacity:0.911" fill="#4c5252" d="M 349.5,413.5 C 351.831,413.498 353.831,414.331 355.5,416C 354.692,416.308 354.025,416.808 353.5,417.5C 355.259,418.754 356.759,418.421 358,416.5C 358.308,417.308 358.808,417.975 359.5,418.5C 360.337,416.495 361.837,415.495 364,415.5C 366.17,416.522 368.336,417.522 370.5,418.5C 370.351,419.552 370.517,420.552 371,421.5C 372.516,418.949 373.349,419.282 373.5,422.5C 376.64,420.903 380.64,420.069 385.5,420C 384.228,421.307 383.228,422.807 382.5,424.5C 379.854,423.638 377.187,423.805 374.5,425C 379.967,426.344 385.301,427.177 390.5,427.5C 391.186,429.064 391.019,430.731 390,432.5C 388.865,432.727 387.698,433.06 386.5,433.5C 387.855,434.675 387.688,435.675 386,436.5C 384.671,435.506 383.338,434.506 382,433.5C 380.294,435.727 378.46,437.894 376.5,440C 380.63,438.587 384.796,437.087 389,435.5C 389.5,436 390,436.5 390.5,437C 388.365,437.876 387.031,439.376 386.5,441.5C 330.542,445.395 274.542,445.395 218.5,441.5C 218.082,440.778 217.416,440.278 216.5,440C 218.611,439.155 220.611,438.322 222.5,437.5C 264.41,427.441 306.744,419.441 349.5,413.5 Z"/></g>
<g><path style="opacity:0.384" fill="#443527" d="M 60.5,459.5 C 61.2506,458.427 62.2506,458.26 63.5,459C 62.552,459.483 61.552,459.649 60.5,459.5 Z"/></g>
<g><path style="opacity:0.439" fill="#413327" d="M 433.5,459.5 C 434.251,458.427 435.251,458.26 436.5,459C 435.552,459.483 434.552,459.649 433.5,459.5 Z"/></g>
</svg>
