<?xml version="1.0" encoding="UTF-8"?>
<!DOCTYPE svg PUBLIC "-//W3C//DTD SVG 1.1//EN" "http://www.w3.org/Graphics/SVG/1.1/DTD/svg11.dtd">
<svg xmlns="http://www.w3.org/2000/svg" version="1.1" width="500px" height="500px" style="shape-rendering:geometricPrecision; text-rendering:geometricPrecision; image-rendering:optimizeQuality; fill-rule:evenodd; clip-rule:evenodd" xmlns:xlink="http://www.w3.org/1999/xlink">
<g><path style="opacity:0.03" fill="#4e3b27" d="M 386.5,422.5 C 387.892,424.924 389.725,426.257 392,426.5C 393.398,428.814 393.565,431.147 392.5,433.5C 392.846,434.696 393.346,434.696 394,433.5C 394.167,434.667 394.333,435.833 394.5,437C 392.885,440.347 392.052,443.847 392,447.5C 390.833,450 389,451.833 386.5,453C 348.496,454.127 310.496,455.294 272.5,456.5C 265.321,456.541 257.988,456.375 250.5,456C 248.345,454.643 246.178,454.476 244,455.5C 230.666,453.516 223.833,446.016 223.5,433C 222.773,431.601 222.273,430.101 222,428.5C 221.713,418.472 221.046,408.472 220,398.5C 216.165,389.468 209.665,382.968 200.5,379C 195.224,377.233 189.891,377.066 184.5,378.5C 180.326,377.899 176.326,376.733 172.5,375C 171.299,374.097 170.465,372.931 170,371.5C 169.092,366.971 168.259,362.471 167.5,358C 161.264,359.627 154.931,361.294 148.5,363C 138.809,363.89 129.142,364.89 119.5,366C 108.518,376.163 96.1844,378.33 82.5,372.5C 78.3622,360.959 79.5289,349.959 86,339.5C 86.9347,337.091 87.4347,334.591 87.5,332C 86.9338,325.514 86.6004,319.014 86.5,312.5C 86.7475,302.123 87.2475,291.79 88,281.5C 78.8317,277.568 70.165,273.568 62,269.5C 60.391,266.24 58.0576,264.574 55,264.5C 50.4066,263.036 46.0733,261.036 42,258.5C 41.6667,258.833 41.3333,259.167 41,259.5C 40.7165,257.114 39.7165,256.448 38,257.5C 37.7203,254.527 36.887,251.693 35.5,249C 36.7063,246.983 36.373,245.149 34.5,243.5C 36.2963,238.937 37.963,234.437 39.5,230C 39.1667,229.667 38.8333,229.333 38.5,229C 44.0234,223.256 48.3568,216.756 51.5,209.5C 53.0016,208.917 54.3349,208.084 55.5,207C 55.1667,206.667 54.8333,206.333 54.5,206C 56.2495,203.914 57.5828,201.581 58.5,199C 42.1841,170.288 36.0174,139.455 40,106.5C 40.7867,98.16 41.6201,89.8267 42.5,81.5C 41.6318,73.8231 40.6318,66.1564 39.5,58.5C 39.6451,53.5773 40.9784,49.0773 43.5,45C 53.1244,40.9092 62.791,41.0758 72.5,45.5C 75.2846,48.3998 78.6179,50.5664 82.5,52C 102.073,55.8559 120.406,62.8559 137.5,73C 145.662,78.3395 153.662,83.8395 161.5,89.5C 163.353,88.8113 164.519,87.478 165,85.5C 165.421,81.1279 166.088,76.7946 167,72.5C 167.273,70.6711 168.107,69.1711 169.5,68C 178.648,63.354 187.648,63.6874 196.5,69C 210.679,88.1835 228.679,102.517 250.5,112C 258.147,113.426 265.814,114.759 273.5,116C 278.303,118.403 283.303,120.236 288.5,121.5C 290.997,119.869 293.663,118.369 296.5,117C 302.187,116.065 307.854,115.065 313.5,114C 318.129,107.436 323.462,101.436 329.5,96C 343.373,84.9312 357.039,75.0978 370.5,66.5C 379.022,63.3019 386.688,60.4686 393.5,58C 401.468,55.7848 409.468,53.7848 417.5,52C 427.529,42.5356 439.529,39.869 453.5,44C 456.49,46.6458 458.156,49.9791 458.5,54C 457.579,56.6166 457.579,59.2833 458.5,62C 457.086,66.0763 455.753,70.243 454.5,74.5C 455.021,76.4919 455.021,78.6586 454.5,81C 456.291,88.7728 457.625,96.9395 458.5,105.5C 458.429,118.355 458.429,131.022 458.5,143.5C 456.674,152.143 454.84,160.809 453,169.5C 449.502,179.841 445.335,189.841 440.5,199.5C 446.22,209.922 452.72,219.922 460,229.5C 463.12,237.327 463.787,245.327 462,253.5C 461.208,255.587 460.041,257.421 458.5,259C 454.101,261.153 449.601,261.987 445,261.5C 443.471,262.729 442.304,264.229 441.5,266C 431.04,271.931 420.54,277.097 410,281.5C 410.905,291.881 411.405,302.548 411.5,313.5C 411.386,321.676 411.053,329.676 410.5,337.5C 413,340.574 414.834,343.574 416,346.5C 417.195,349.187 417.362,351.854 416.5,354.5C 417.544,355.623 418.21,356.956 418.5,358.5C 417.74,360.596 417.74,362.596 418.5,364.5C 417.039,373.114 411.873,377.114 403,376.5C 393.251,375.518 385.084,372.018 378.5,366C 362.35,365.812 346.683,362.979 331.5,357.5C 330.914,357.709 330.414,358.043 330,358.5C 331.879,371.443 326.379,378.109 313.5,378.5C 296.677,376.783 284.844,383.783 278,399.5C 277.013,402.697 277.513,405.53 279.5,408C 313.083,412.657 346.583,416.49 380,419.5C 382.368,420.2 384.534,421.2 386.5,422.5 Z M 291.5,165.5 C 292.117,165.611 292.617,165.944 293,166.5C 293.187,174.436 290.354,181.102 284.5,186.5C 284.21,178.703 286.543,171.703 291.5,165.5 Z M 204.5,159.5 C 208.499,159.074 210.999,160.741 212,164.5C 212.861,171.721 213.194,178.721 213,185.5C 206.035,178.108 203.202,169.441 204.5,159.5 Z"/></g>
<g><path style="opacity:0.119" fill="#453423" d="M 179.5,78.5 C 181.815,83.7564 184.148,89.0897 186.5,94.5C 185.892,97.4062 184.559,99.7396 182.5,101.5C 180.856,99.5193 179.19,97.5193 177.5,95.5C 177.167,96 176.833,96.5 176.5,97C 177.409,99.8946 178.409,102.728 179.5,105.5C 175.689,105.181 174.356,106.681 175.5,110C 170.919,110.879 166.919,109.712 163.5,106.5C 158.675,101.843 153.675,97.3435 148.5,93C 146.285,91.9562 143.952,91.2895 141.5,91C 128.687,81.7647 115.02,74.4314 100.5,69C 95.6552,68.2154 90.9885,66.8821 86.5,65C 84.3203,64.5812 82.1537,64.7479 80,65.5C 76.3065,64.1138 72.4731,63.2805 68.5,63C 67.4275,59.7017 65.4275,58.8684 62.5,60.5C 59.8996,59.0812 57.3996,57.4146 55,55.5C 55.1621,58.4885 55.6621,61.4885 56.5,64.5C 54.3227,65.3654 53.3227,67.0321 53.5,69.5C 54.0479,74.5363 54.7146,79.5363 55.5,84.5C 54.689,85.2164 54.0223,86.0497 53.5,87C 54.6155,88.2349 54.6155,89.4016 53.5,90.5C 54.0253,91.1924 54.6919,91.6924 55.5,92C 52.5525,93.0095 51.8858,94.8429 53.5,97.5C 51.9813,100.148 50.9813,102.982 50.5,106C 47.5398,132.547 51.7065,157.713 63,181.5C 65.5869,184.167 68.2535,186.833 71,189.5C 72.7208,193.11 74.5542,196.61 76.5,200C 75.7728,202.124 75.1062,204.291 74.5,206.5C 65.8069,213.211 59.8069,221.878 56.5,232.5C 56.6236,233.107 56.9569,233.44 57.5,233.5C 57.5,233.833 57.5,234.167 57.5,234.5C 56.1751,235.953 55.3418,235.619 55,233.5C 54.7138,237.802 52.7138,241.135 49,243.5C 48.5172,244.448 48.3505,245.448 48.5,246.5C 51.8333,246.5 55.1667,246.5 58.5,246.5C 58.2196,249.388 59.5529,250.888 62.5,251C 62.0426,251.414 61.7093,251.914 61.5,252.5C 63.1667,253.167 64.8333,253.833 66.5,254.5C 64.711,255.623 64.3776,256.956 65.5,258.5C 74.8399,264.549 84.8399,268.716 95.5,271C 99.5033,274.174 101.503,278.341 101.5,283.5C 96.3231,299.946 95.3231,316.279 98.5,332.5C 98.3961,334.709 98.0628,336.876 97.5,339C 99.0028,340.921 99.6695,343.088 99.5,345.5C 100.5,345.5 101.5,345.5 102.5,345.5C 100.076,351.503 96.7423,356.836 92.5,361.5C 91.2502,361.423 90.4169,360.756 90,359.5C 89.6156,354.465 89.4489,349.632 89.5,345C 91.7431,341.33 93.0764,337.33 93.5,333C 90.4616,315.956 91.1283,298.956 95.5,282C 94.2314,279.063 92.2314,276.73 89.5,275C 80.1063,270.322 70.773,265.655 61.5,261C 58.7332,258.675 56.0665,256.341 53.5,254C 52.451,253.508 51.451,253.674 50.5,254.5C 47.5071,250.365 45.1738,245.865 43.5,241C 45.4993,234.655 47.9993,228.488 51,222.5C 56.7141,216.013 62.2141,209.346 67.5,202.5C 66.233,200.629 66.233,198.796 67.5,197C 65.8753,196.147 65.5419,195.147 66.5,194C 64.6711,193.727 63.1711,192.893 62,191.5C 58.7135,184.597 55.7135,177.597 53,170.5C 52.4054,169.101 52.5721,167.768 53.5,166.5C 52.3112,165.571 50.9778,165.238 49.5,165.5C 47.5529,158.982 46.2196,152.315 45.5,145.5C 45.723,144.033 46.0563,142.533 46.5,141C 44.9767,137.194 44.3101,133.194 44.5,129C 44.6799,119.272 45.1799,109.439 46,99.5C 47.6783,98.3183 47.5117,97.1516 45.5,96C 48.2909,89.0569 49.6243,82.0569 49.5,75C 49.0313,70.7096 48.0313,66.3762 46.5,62C 47.7816,56.7943 50.7816,52.7943 55.5,50C 58.0598,50.4376 60.5598,50.271 63,49.5C 72.5376,54.9028 82.7043,58.7362 93.5,61C 95.2337,63.0568 97.2337,63.5568 99.5,62.5C 105.567,65.6888 111.901,68.1888 118.5,70C 134.212,78.8554 148.879,89.1888 162.5,101C 165.099,101.769 167.599,101.602 170,100.5C 172.291,94.7296 173.958,88.7296 175,82.5C 176.333,81.8333 177.333,80.8333 178,79.5C 179.087,81.9316 179.587,81.5983 179.5,78.5 Z"/></g>
<g><path style="opacity:0.935" fill="#1e1d1e" d="M 62.5,60.5 C 65.7604,62.4185 68.7604,64.7518 71.5,67.5C 65.1411,72.8933 60.8077,79.5599 58.5,87.5C 58.3559,80.9822 58.1893,74.3155 58,67.5C 57.7679,66.2625 57.2679,65.2625 56.5,64.5C 55.6621,61.4885 55.1621,58.4885 55,55.5C 57.3996,57.4146 59.8996,59.0812 62.5,60.5 Z"/></g>
<g><path style="opacity:0.12" fill="#483624" d="M 403.5,358.5 C 402.833,358.5 402.5,358.167 402.5,357.5C 402.02,354.315 402.686,351.481 404.5,349C 403.966,345.505 402.633,342.338 400.5,339.5C 401.167,338.5 401.833,337.5 402.5,336.5C 400.353,333.999 400.353,331.332 402.5,328.5C 401.975,327.808 401.308,327.308 400.5,327C 401.752,324.959 402.419,322.625 402.5,320C 401.979,316.109 401.312,312.276 400.5,308.5C 401.552,308.649 402.552,308.483 403.5,308C 402.944,305.763 401.944,303.763 400.5,302C 401.174,300.249 401.507,298.583 401.5,297C 400.833,296.667 400.167,296.333 399.5,296C 400.98,294.701 401.646,293.034 401.5,291C 399.389,285.859 399.222,280.693 401,275.5C 409.583,268.609 419.083,263.442 429.5,260C 430.337,258.989 430.67,257.822 430.5,256.5C 432.167,256.5 433.833,256.5 435.5,256.5C 435.5,255.5 435.5,254.5 435.5,253.5C 441.781,254.877 445.448,252.543 446.5,246.5C 447.5,246.5 448.5,246.5 449.5,246.5C 449.082,243.561 447.582,241.228 445,239.5C 444.581,237.32 444.748,235.154 445.5,233C 445.375,231.373 444.875,229.873 444,228.5C 437.7,220.054 431.533,211.554 425.5,203C 426.097,201.372 425.763,199.705 424.5,198C 426.246,194.58 428.413,191.413 431,188.5C 432.914,185.423 434.081,182.089 434.5,178.5C 435.5,178.5 436.5,178.5 437.5,178.5C 436.763,173.238 438.43,168.905 442.5,165.5C 444.677,166.504 445.011,165.838 443.5,163.5C 444.463,160.717 445.63,158.05 447,155.5C 447.626,153.287 447.459,151.12 446.5,149C 448.939,146.446 448.939,143.946 446.5,141.5C 448.542,140.497 448.875,139.163 447.5,137.5C 449.535,133.636 449.868,129.969 448.5,126.5C 449.135,122.633 449.801,118.8 450.5,115C 449.283,113.352 448.45,111.519 448,109.5C 447.346,110.696 446.846,110.696 446.5,109.5C 447.937,107.979 448.604,106.145 448.5,104C 447.477,100.595 447.477,97.2617 448.5,94C 445.094,91.1152 443.761,87.6152 444.5,83.5C 443.936,81.1807 443.436,78.8474 443,76.5C 442.002,79.0278 441.169,79.0278 440.5,76.5C 441.167,74.8333 441.833,73.1667 442.5,71.5C 442.253,70.2867 441.586,69.62 440.5,69.5C 442.433,64.5029 443.433,59.5029 443.5,54.5C 442.389,56.5522 440.723,57.8855 438.5,58.5C 438.582,56.7483 437.749,55.7483 436,55.5C 434.072,56.5597 432.405,57.893 431,59.5C 430.667,58.8333 430.333,58.1667 430,57.5C 427.825,58.2546 425.659,59.088 423.5,60C 423.07,60.9195 422.736,61.7528 422.5,62.5C 421.5,61.8333 420.5,61.1667 419.5,60.5C 419.167,61.1667 418.833,61.8333 418.5,62.5C 417.707,62.0688 416.873,61.7355 416,61.5C 411.615,63.038 407.115,64.2047 402.5,65C 401.371,67.1678 399.871,67.6678 398,66.5C 393.991,67.3901 390.657,69.3901 388,72.5C 387.586,72.0426 387.086,71.7093 386.5,71.5C 365.515,81.6965 346.682,94.6965 330,110.5C 329.333,111.833 328.667,113.167 328,114.5C 324.5,118 321,121.5 317.5,125C 314.269,127.558 310.602,129.058 306.5,129.5C 305.377,128.243 304.711,128.576 304.5,130.5C 303.339,133.818 302.672,137.318 302.5,141C 303.258,147.844 303.758,154.678 304,161.5C 303.047,173.312 299.047,183.978 292,193.5C 287.786,197.382 283.286,200.882 278.5,204C 273.847,205.193 271.18,203.359 270.5,198.5C 272.904,184.074 277.237,170.407 283.5,157.5C 285.592,157.439 287.092,156.439 288,154.5C 289.171,150.987 290.338,147.487 291.5,144C 289.753,140.404 287.753,136.904 285.5,133.5C 279.883,129.858 273.883,127.025 267.5,125C 258.505,123.93 249.505,121.93 240.5,119C 223.952,110.555 208.952,99.8882 195.5,87C 192.832,86.433 190.166,85.933 187.5,85.5C 185.147,83.1401 183.147,80.4735 181.5,77.5C 185.599,76.1855 189.599,76.5188 193.5,78.5C 197.125,81.6231 200.625,84.9564 204,88.5C 204.483,89.448 204.649,90.448 204.5,91.5C 205.552,91.3505 206.552,91.5172 207.5,92C 221.345,105.8 237.512,115.3 256,120.5C 257.399,120.499 258.899,120.165 260.5,119.5C 271.813,122.324 282.48,126.657 292.5,132.5C 295.851,130.824 298.851,128.657 301.5,126C 306.296,125.09 310.963,123.757 315.5,122C 322.74,114.816 329.74,107.483 336.5,100C 338.579,98.3602 340.912,97.1936 343.5,96.5C 344.386,95.675 344.719,94.675 344.5,93.5C 347.815,93.0283 350.149,91.195 351.5,88C 363.587,80.2457 375.92,72.9123 388.5,66C 398.156,62.6917 407.99,59.8583 418,57.5C 420.667,57.5 423.333,57.5 426,57.5C 426.5,55.6667 427.667,54.5 429.5,54C 429.167,53.6667 428.833,53.3333 428.5,53C 430.402,52.8008 431.902,51.9675 433,50.5C 437.631,49.9097 442.131,50.5763 446.5,52.5C 445.756,55.9496 447.09,57.6162 450.5,57.5C 450.205,64.2284 450.205,70.5618 450.5,76.5C 449.689,77.2164 449.022,78.0497 448.5,79C 448.833,80.6667 449.167,82.3333 449.5,84C 448.516,85.6565 447.516,87.3232 446.5,89C 447.793,89.49 449.127,89.6567 450.5,89.5C 450.939,94.4035 451.606,99.2368 452.5,104C 451.062,107.993 451.395,111.826 453.5,115.5C 452.568,119.749 452.901,123.916 454.5,128C 453.776,132.062 452.776,136.062 451.5,140C 452.634,141.016 452.301,141.683 450.5,142C 450.545,145.259 450.878,148.426 451.5,151.5C 449.067,154.596 448.234,157.929 449,161.5C 445.639,167.881 443.139,174.548 441.5,181.5C 437.899,187.04 434.565,192.706 431.5,198.5C 433.191,205.024 436.691,210.357 442,214.5C 442.914,216.664 444.081,218.664 445.5,220.5C 445.291,221.086 444.957,221.586 444.5,222C 449.107,226.162 452.44,231.162 454.5,237C 453.643,237.689 452.977,238.522 452.5,239.5C 453.767,241.371 453.767,243.204 452.5,245C 453.167,245.667 453.833,246.333 454.5,247C 451.96,250.541 448.793,253.374 445,255.5C 442.244,254.305 440.744,255.305 440.5,258.5C 433.056,261.452 425.723,264.619 418.5,268C 417.521,270.403 416.021,271.236 414,270.5C 410.934,273.258 407.601,275.591 404,277.5C 403.787,287.481 404.953,297.314 407.5,307C 407.05,308.285 406.383,309.452 405.5,310.5C 406.035,317.127 406.369,323.793 406.5,330.5C 403.712,338.111 404.379,345.278 408.5,352C 407.332,353.406 407.665,354.572 409.5,355.5C 408.975,356.192 408.308,356.692 407.5,357C 408.28,358.073 408.113,359.24 407,360.5C 406.517,359.552 406.351,358.552 406.5,357.5C 405.209,357.263 404.209,357.596 403.5,358.5 Z M 291.5,165.5 C 286.543,171.703 284.21,178.703 284.5,186.5C 290.354,181.102 293.187,174.436 293,166.5C 292.617,165.944 292.117,165.611 291.5,165.5 Z"/></g>
<g><path style="opacity:0.212" fill="#3c2d1e" d="M 438.5,58.5 C 436.032,60.0348 433.365,61.0348 430.5,61.5C 430.5,62.5 430.5,63.5 430.5,64.5C 427.189,64.3072 424.522,65.3072 422.5,67.5C 384.839,75.8849 353.506,94.5515 328.5,123.5C 326.685,124.63 324.685,125.296 322.5,125.5C 322.034,127.201 322.034,128.701 322.5,130C 319.057,131.618 316.057,133.785 313.5,136.5C 310.812,134.479 308.479,132.146 306.5,129.5C 310.602,129.058 314.269,127.558 317.5,125C 321,121.5 324.5,118 328,114.5C 328.667,113.167 329.333,111.833 330,110.5C 346.682,94.6965 365.515,81.6965 386.5,71.5C 387.086,71.7093 387.586,72.0426 388,72.5C 390.657,69.3901 393.991,67.3901 398,66.5C 399.871,67.6678 401.371,67.1678 402.5,65C 407.115,64.2047 411.615,63.038 416,61.5C 416.873,61.7355 417.707,62.0688 418.5,62.5C 418.833,61.8333 419.167,61.1667 419.5,60.5C 420.5,61.1667 421.5,61.8333 422.5,62.5C 422.736,61.7528 423.07,60.9195 423.5,60C 425.659,59.088 427.825,58.2546 430,57.5C 430.333,58.1667 430.667,58.8333 431,59.5C 432.405,57.893 434.072,56.5597 436,55.5C 437.749,55.7483 438.582,56.7483 438.5,58.5 Z"/></g>
<g><path style="opacity:0.631" fill="#2d2723" d="M 440.5,69.5 C 439.193,72.7252 438.193,76.0585 437.5,79.5C 435.114,75.6033 432.114,72.1033 428.5,69C 426.655,67.872 424.655,67.372 422.5,67.5C 424.522,65.3072 427.189,64.3072 430.5,64.5C 430.5,63.5 430.5,62.5 430.5,61.5C 433.365,61.0348 436.032,60.0348 438.5,58.5C 440.723,57.8855 442.389,56.5522 443.5,54.5C 443.433,59.5029 442.433,64.5029 440.5,69.5 Z"/></g>
<g><path style="opacity:0.883" fill="#515675" d="M 422.5,67.5 C 424.655,67.372 426.655,67.872 428.5,69C 432.114,72.1033 435.114,75.6033 437.5,79.5C 442.661,102.587 443.828,125.92 441,149.5C 438.533,163.731 433.2,176.731 425,188.5C 421.61,192.393 417.777,195.727 413.5,198.5C 423.27,208.109 431.77,218.776 439,230.5C 440.67,234.49 440.836,238.49 439.5,242.5C 437.864,243.246 436.197,242.912 434.5,241.5C 433.522,241.977 432.689,242.643 432,243.5C 431.667,242.833 431.333,242.167 431,241.5C 429.667,242.833 428.333,244.167 427,245.5C 425.667,244.833 424.333,244.167 423,243.5C 421.667,245.5 420,247.167 418,248.5C 417.517,249.448 417.351,250.448 417.5,251.5C 416.07,251.579 414.736,251.246 413.5,250.5C 412.481,251.687 411.314,252.687 410,253.5C 409.583,252.244 408.75,251.577 407.5,251.5C 413.424,247.58 417.424,242.247 419.5,235.5C 420.823,231.402 420.489,227.402 418.5,223.5C 419.249,219.181 419.415,214.848 419,210.5C 418.439,209.978 417.772,209.645 417,209.5C 415.202,210.504 413.368,211.004 411.5,211C 409.333,207.667 406.666,204.834 403.5,202.5C 400.394,199.109 396.728,196.442 392.5,194.5C 402.293,188.259 409.793,179.926 415,169.5C 417.714,163.747 419.547,157.747 420.5,151.5C 413.112,155.125 409.112,152.792 408.5,144.5C 408.369,143.624 408.702,142.957 409.5,142.5C 411.638,141.757 413.804,141.09 416,140.5C 418.081,142.713 419.415,145.38 420,148.5C 421.339,143.264 421.839,137.93 421.5,132.5C 418.52,132.38 415.687,131.713 413,130.5C 412.003,127.199 411.67,123.866 412,120.5C 414.185,119.072 416.185,117.405 418,115.5C 417.618,104.899 412.785,97.066 403.5,92C 382.176,91.8278 363.509,98.6612 347.5,112.5C 338.188,119.481 329.522,127.148 321.5,135.5C 323.317,131.199 325.65,127.199 328.5,123.5C 353.506,94.5515 384.839,75.8849 422.5,67.5 Z"/></g>
<g><path style="opacity:0.474" fill="#2e231a" d="M 186.5,94.5 C 198.676,114.598 215.676,129.098 237.5,138C 213.877,133.852 195.544,121.685 182.5,101.5C 184.559,99.7396 185.892,97.4062 186.5,94.5 Z"/></g>
<g><path style="opacity:0.914" fill="#88a0cc" d="M 408.5,144.5 C 403.916,145.277 399.25,145.777 394.5,146C 395.602,148.391 394.936,148.891 392.5,147.5C 391.52,144.914 391.187,142.247 391.5,139.5C 387.07,138.976 382.736,137.976 378.5,136.5C 376.997,137.523 375.497,138.523 374,139.5C 372.436,139.011 370.936,138.678 369.5,138.5C 380.625,125.538 391.958,112.705 403.5,100C 402.833,99.3333 402.167,99.3333 401.5,100C 394.89,107.451 387.556,113.951 379.5,119.5C 378.319,117.933 376.653,117.099 374.5,117C 375.025,116.308 375.692,115.808 376.5,115.5C 378.335,115.259 380.001,115.759 381.5,117C 381.167,116.667 380.833,116.333 380.5,116C 381.191,114.933 381.691,113.766 382,112.5C 382.414,112.957 382.914,113.291 383.5,113.5C 384.931,110.614 387.264,108.947 390.5,108.5C 388.582,108.212 386.582,107.212 384.5,105.5C 381.937,105.737 381.937,106.237 384.5,107C 383.167,107.667 382.167,108.667 381.5,110C 377.579,110.395 373.912,110.228 370.5,109.5C 369.304,109.846 369.304,110.346 370.5,111C 368.598,111.199 367.098,112.033 366,113.5C 364.334,112.66 364.167,113.16 365.5,115C 363.392,115.36 361.392,116.027 359.5,117C 362.507,117.301 365.507,117.135 368.5,116.5C 368.36,118.124 369.027,119.29 370.5,120C 369.692,120.308 369.025,120.808 368.5,121.5C 369.59,122.609 369.59,123.609 368.5,124.5C 364.293,123.354 360.293,122.687 356.5,122.5C 356.5,120.833 356.5,119.167 356.5,117.5C 354.801,117.66 353.134,117.494 351.5,117C 353.333,115.212 355.333,115.046 357.5,116.5C 357.833,116.167 358.167,115.833 358.5,115.5C 357.675,114.614 356.675,114.281 355.5,114.5C 355.688,112.897 355.188,111.563 354,110.5C 352.253,112.919 350.086,113.585 347.5,112.5C 363.509,98.6612 382.176,91.8278 403.5,92C 412.785,97.066 417.618,104.899 418,115.5C 416.185,117.405 414.185,119.072 412,120.5C 411.67,123.866 412.003,127.199 413,130.5C 415.687,131.713 418.52,132.38 421.5,132.5C 421.839,137.93 421.339,143.264 420,148.5C 419.415,145.38 418.081,142.713 416,140.5C 413.804,141.09 411.638,141.757 409.5,142.5C 408.702,142.957 408.369,143.624 408.5,144.5 Z"/></g>
<g><path style="opacity:0.939" fill="#555c7e" d="M 402.5,115.5 C 409.542,117.207 410.042,119.874 404,123.5C 401.288,121.309 400.788,118.642 402.5,115.5 Z"/></g>
<g><path style="opacity:0.874" fill="#54597b" d="M 408.5,101.5 C 409.822,101.33 410.989,101.663 412,102.5C 417.662,108.492 416.495,112.159 408.5,113.5C 405.698,113.029 404.364,111.362 404.5,108.5C 405.429,105.912 406.762,103.579 408.5,101.5 Z"/></g>
<g><path style="opacity:0.972" fill="#545c81" d="M 373.5,99.5 C 375.167,99.5 376.833,99.5 378.5,99.5C 378.662,101.527 378.495,103.527 378,105.5C 374.828,108.388 372.661,107.722 371.5,103.5C 371.752,101.927 372.418,100.594 373.5,99.5 Z"/></g>
<g><path style="opacity:0.85" fill="#545979" d="M 390.5,93.5 C 392.288,93.2148 393.955,93.5481 395.5,94.5C 396.167,96.5 396.833,98.5 397.5,100.5C 395.295,102.854 392.795,104.854 390,106.5C 387.357,105.064 385.523,102.897 384.5,100C 386.014,97.3219 388.014,95.1552 390.5,93.5 Z"/></g>
<g><path style="opacity:0.943" fill="#1b1b1f" d="M 369.5,138.5 C 362.606,146.61 356.44,155.277 351,164.5C 348.386,170.284 346.386,176.284 345,182.5C 337.803,172.534 327.97,168.367 315.5,170C 323.122,164.933 327.289,157.766 328,148.5C 328.172,143.798 328.672,139.132 329.5,134.5C 333.744,140.29 339.411,142.79 346.5,142C 359.028,136.621 370.028,129.121 379.5,119.5C 387.556,113.951 394.89,107.451 401.5,100C 402.167,99.3333 402.833,99.3333 403.5,100C 391.958,112.705 380.625,125.538 369.5,138.5 Z"/></g>
<g><path style="opacity:0.827" fill="#545777" d="M 399.5,130.5 C 401.792,130.244 403.959,130.577 406,131.5C 406.497,134.146 406.664,136.813 406.5,139.5C 402.022,141.422 398.689,140.255 396.5,136C 397.562,134.159 398.562,132.326 399.5,130.5 Z"/></g>
<g><path style="opacity:0.928" fill="#505677" d="M 179.5,78.5 C 179.842,77.6618 180.508,77.3284 181.5,77.5C 183.147,80.4735 185.147,83.1401 187.5,85.5C 205.336,109.103 228.669,124.77 257.5,132.5C 257.5,131.167 257.5,129.833 257.5,128.5C 262.156,130.16 266.823,131.826 271.5,133.5C 271.5,133.833 271.5,134.167 271.5,134.5C 269.412,136.336 268.079,138.669 267.5,141.5C 263.23,139.85 258.897,138.684 254.5,138C 255.26,139.441 255.926,140.941 256.5,142.5C 253.988,143.795 251.321,144.461 248.5,144.5C 249.413,147.606 250.246,150.606 251,153.5C 247.535,155.963 244.369,158.796 241.5,162C 243.9,162.186 246.234,162.686 248.5,163.5C 248.058,164.739 247.391,165.739 246.5,166.5C 244.44,165.189 242.274,165.189 240,166.5C 238.784,164.038 238.118,161.371 238,158.5C 235.285,161.214 232.951,164.214 231,167.5C 230.764,165.881 229.931,164.881 228.5,164.5C 230.915,160.578 233.915,157.078 237.5,154C 217.391,147.213 200.558,135.713 187,119.5C 184.206,114.907 181.706,110.24 179.5,105.5C 178.409,102.728 177.409,99.8946 176.5,97C 176.833,96.5 177.167,96 177.5,95.5C 179.19,97.5193 180.856,99.5193 182.5,101.5C 195.544,121.685 213.877,133.852 237.5,138C 215.676,129.098 198.676,114.598 186.5,94.5C 184.148,89.0897 181.815,83.7564 179.5,78.5 Z"/></g>
<g><path style="opacity:0.256" fill="#372a1d" d="M 56.5,64.5 C 57.2679,65.2625 57.7679,66.2625 58,67.5C 58.1893,74.3155 58.3559,80.9822 58.5,87.5C 54.7932,109.481 54.6265,131.481 58,153.5C 61.2583,167.012 66.925,179.345 75,190.5C 77.7273,193.731 80.894,196.397 84.5,198.5C 73.7854,208.972 64.7854,220.639 57.5,233.5C 56.9569,233.44 56.6236,233.107 56.5,232.5C 59.8069,221.878 65.8069,213.211 74.5,206.5C 75.1062,204.291 75.7728,202.124 76.5,200C 74.5542,196.61 72.7208,193.11 71,189.5C 68.2535,186.833 65.5869,184.167 63,181.5C 51.7065,157.713 47.5398,132.547 50.5,106C 50.9813,102.982 51.9813,100.148 53.5,97.5C 51.8858,94.8429 52.5525,93.0095 55.5,92C 54.6919,91.6924 54.0253,91.1924 53.5,90.5C 54.6155,89.4016 54.6155,88.2349 53.5,87C 54.0223,86.0497 54.689,85.2164 55.5,84.5C 54.7146,79.5363 54.0479,74.5363 53.5,69.5C 53.3227,67.0321 54.3227,65.3654 56.5,64.5 Z"/></g>
<g><path style="opacity:0.97" fill="#515779" d="M 71.5,67.5 C 90.0842,69.6259 107.418,75.4592 123.5,85C 135.031,92.266 146.031,100.266 156.5,109C 162.668,114.545 168.002,120.711 172.5,127.5C 174.098,129.698 175.431,132.031 176.5,134.5C 164.025,122.25 150.359,111.417 135.5,102C 132.527,101.617 129.694,102.117 127,103.5C 125.92,101.447 125.086,99.2798 124.5,97C 121.363,96.3989 118.363,95.3989 115.5,94C 113.5,93.3333 111.5,93.3333 109.5,94C 105.316,98.8426 101.983,98.176 99.5,92C 90.9269,92.534 85.0935,97.034 82,105.5C 78.0734,115.896 76.5734,126.563 77.5,137.5C 79.84,137.866 81.5067,139.033 82.5,141C 80.1419,143.502 78.4752,146.335 77.5,149.5C 78.5941,157.785 81.2608,165.452 85.5,172.5C 83.7687,174.345 82.102,176.178 80.5,178C 81.4841,179.657 82.4841,181.323 83.5,183C 86.5144,183.128 89.5144,183.128 92.5,183C 96.0003,187.754 100.334,191.587 105.5,194.5C 94.4021,201.597 85.7354,210.93 79.5,222.5C 79.8555,223.522 80.5222,224.189 81.5,224.5C 81.5191,226.06 81.8524,227.56 82.5,229C 81.1195,231.006 79.7862,233.006 78.5,235C 79.7261,241.285 83.0595,246.119 88.5,249.5C 91.9645,245.318 94.9645,245.651 97.5,250.5C 94.6854,254.072 95.6854,256.072 100.5,256.5C 108.206,260.615 116.539,262.781 125.5,263C 123.934,265.326 122.268,267.492 120.5,269.5C 118.926,269.937 117.759,270.937 117,272.5C 116.586,272.043 116.086,271.709 115.5,271.5C 113.821,273.104 111.821,273.771 109.5,273.5C 110.625,271.871 111.959,270.371 113.5,269C 95.6015,266.591 79.2682,260.258 64.5,250C 59.3687,246.109 57.0354,240.943 57.5,234.5C 57.5,234.167 57.5,233.833 57.5,233.5C 64.7854,220.639 73.7854,208.972 84.5,198.5C 80.894,196.397 77.7273,193.731 75,190.5C 66.925,179.345 61.2583,167.012 58,153.5C 54.6265,131.481 54.7932,109.481 58.5,87.5C 60.8077,79.5599 65.1411,72.8933 71.5,67.5 Z"/></g>
<g><path style="opacity:0.26" fill="#36291c" d="M 179.5,105.5 C 181.706,110.24 184.206,114.907 187,119.5C 200.558,135.713 217.391,147.213 237.5,154C 233.915,157.078 230.915,160.578 228.5,164.5C 227.475,165.374 226.808,166.541 226.5,168C 232.693,184.656 236.693,201.823 238.5,219.5C 219.826,215.745 204.993,206.079 194,190.5C 191.25,184.418 189.416,178.084 188.5,171.5C 187.885,168.029 188.552,164.696 190.5,161.5C 190.14,159.392 189.473,157.392 188.5,155.5C 190.432,147.414 192.099,139.247 193.5,131C 193.167,130.5 192.833,130 192.5,129.5C 190.35,131.149 188.35,132.982 186.5,135C 185.207,135.49 183.873,135.657 182.5,135.5C 182.5,134.5 182.5,133.5 182.5,132.5C 179.489,130.328 176.156,128.661 172.5,127.5C 168.002,120.711 162.668,114.545 156.5,109C 146.031,100.266 135.031,92.266 123.5,85C 107.418,75.4592 90.0842,69.6259 71.5,67.5C 68.7604,64.7518 65.7604,62.4185 62.5,60.5C 65.4275,58.8684 67.4275,59.7017 68.5,63C 72.4731,63.2805 76.3065,64.1138 80,65.5C 82.1537,64.7479 84.3203,64.5812 86.5,65C 90.9885,66.8821 95.6552,68.2154 100.5,69C 115.02,74.4314 128.687,81.7647 141.5,91C 143.952,91.2895 146.285,91.9562 148.5,93C 153.675,97.3435 158.675,101.843 163.5,106.5C 166.919,109.712 170.919,110.879 175.5,110C 174.356,106.681 175.689,105.181 179.5,105.5 Z M 204.5,159.5 C 203.202,169.441 206.035,178.108 213,185.5C 213.194,178.721 212.861,171.721 212,164.5C 210.999,160.741 208.499,159.074 204.5,159.5 Z"/></g>
<g><path style="opacity:0.263" fill="#3c2d1f" d="M 187.5,85.5 C 190.166,85.933 192.832,86.433 195.5,87C 208.952,99.8882 223.952,110.555 240.5,119C 249.505,121.93 258.505,123.93 267.5,125C 273.883,127.025 279.883,129.858 285.5,133.5C 287.753,136.904 289.753,140.404 291.5,144C 290.338,147.487 289.171,150.987 288,154.5C 287.092,156.439 285.592,157.439 283.5,157.5C 277.237,170.407 272.904,184.074 270.5,198.5C 271.18,203.359 273.847,205.193 278.5,204C 283.286,200.882 287.786,197.382 292,193.5C 299.047,183.978 303.047,173.312 304,161.5C 303.758,154.678 303.258,147.844 302.5,141C 302.672,137.318 303.339,133.818 304.5,130.5C 306.097,139.694 307.764,148.694 309.5,157.5C 309.543,162.294 308.377,166.627 306,170.5C 302.773,189.561 292.273,202.894 274.5,210.5C 272.465,209.959 270.465,209.292 268.5,208.5C 267.532,205.727 266.199,203.227 264.5,201C 266.591,196.316 268.258,191.483 269.5,186.5C 269.291,185.914 268.957,185.414 268.5,185C 271.516,178.272 273.85,171.606 275.5,165C 279.695,162.304 282.029,158.47 282.5,153.5C 283.583,153.539 284.583,153.873 285.5,154.5C 286.495,148.872 286.829,143.206 286.5,137.5C 283.813,137.664 281.146,137.497 278.5,137C 276.473,135.121 274.14,133.954 271.5,133.5C 266.823,131.826 262.156,130.16 257.5,128.5C 257.5,129.833 257.5,131.167 257.5,132.5C 228.669,124.77 205.336,109.103 187.5,85.5 Z M 291.5,165.5 C 286.543,171.703 284.21,178.703 284.5,186.5C 290.354,181.102 293.187,174.436 293,166.5C 292.617,165.944 292.117,165.611 291.5,165.5 Z"/></g>
<g><path style="opacity:0.987" fill="#191a1d" d="M 169.5,239.5 C 166.337,236.557 162.67,233.391 158.5,230C 155.833,229 153.167,228 150.5,227C 135.912,226.036 121.579,226.869 107.5,229.5C 101.817,230.253 96.1508,230.753 90.5,231C 96.8033,229.387 102.803,227.221 108.5,224.5C 120.824,220.556 132.824,215.723 144.5,210C 149.26,204.401 152.094,197.901 153,190.5C 156.566,197.391 162.066,202.225 169.5,205C 176.5,205.333 183.5,205.667 190.5,206C 183.07,210.433 176.57,215.933 171,222.5C 169.783,228.101 169.283,233.768 169.5,239.5 Z"/></g>
<g><path style="opacity:0.988" fill="#8eaadd" d="M 176.5,134.5 C 180.75,140.663 184.25,147.33 187,154.5C 187.173,160.348 187.673,166.015 188.5,171.5C 189.416,178.084 191.25,184.418 194,190.5C 204.993,206.079 219.826,215.745 238.5,219.5C 241.975,213.897 245.475,208.231 249,202.5C 252.191,207.564 255.358,212.564 258.5,217.5C 258.5,218.167 258.833,218.5 259.5,218.5C 276.021,216.31 289.854,208.643 301,195.5C 308.581,183.177 311.748,169.844 310.5,155.5C 313.153,148.188 316.82,141.521 321.5,135.5C 329.522,127.148 338.188,119.481 347.5,112.5C 350.086,113.585 352.253,112.919 354,110.5C 355.188,111.563 355.688,112.897 355.5,114.5C 356.675,114.281 357.675,114.614 358.5,115.5C 358.167,115.833 357.833,116.167 357.5,116.5C 355.333,115.046 353.333,115.212 351.5,117C 353.134,117.494 354.801,117.66 356.5,117.5C 356.5,119.167 356.5,120.833 356.5,122.5C 360.293,122.687 364.293,123.354 368.5,124.5C 369.59,123.609 369.59,122.609 368.5,121.5C 369.025,120.808 369.692,120.308 370.5,120C 369.027,119.29 368.36,118.124 368.5,116.5C 365.507,117.135 362.507,117.301 359.5,117C 361.392,116.027 363.392,115.36 365.5,115C 364.167,113.16 364.334,112.66 366,113.5C 367.098,112.033 368.598,111.199 370.5,111C 369.304,110.346 369.304,109.846 370.5,109.5C 373.912,110.228 377.579,110.395 381.5,110C 382.167,108.667 383.167,107.667 384.5,107C 381.937,106.237 381.937,105.737 384.5,105.5C 386.582,107.212 388.582,108.212 390.5,108.5C 387.264,108.947 384.931,110.614 383.5,113.5C 382.914,113.291 382.414,112.957 382,112.5C 381.691,113.766 381.191,114.933 380.5,116C 380.833,116.333 381.167,116.667 381.5,117C 380.001,115.759 378.335,115.259 376.5,115.5C 375.692,115.808 375.025,116.308 374.5,117C 376.653,117.099 378.319,117.933 379.5,119.5C 370.028,129.121 359.028,136.621 346.5,142C 339.411,142.79 333.744,140.29 329.5,134.5C 328.672,139.132 328.172,143.798 328,148.5C 327.289,157.766 323.122,164.933 315.5,170C 327.97,168.367 337.803,172.534 345,182.5C 346.386,176.284 348.386,170.284 351,164.5C 356.44,155.277 362.606,146.61 369.5,138.5C 370.936,138.678 372.436,139.011 374,139.5C 375.497,138.523 376.997,137.523 378.5,136.5C 382.736,137.976 387.07,138.976 391.5,139.5C 391.187,142.247 391.52,144.914 392.5,147.5C 394.936,148.891 395.602,148.391 394.5,146C 399.25,145.777 403.916,145.277 408.5,144.5C 409.112,152.792 413.112,155.125 420.5,151.5C 419.547,157.747 417.714,163.747 415,169.5C 409.793,179.926 402.293,188.259 392.5,194.5C 396.728,196.442 400.394,199.109 403.5,202.5C 403.586,203.496 403.252,204.329 402.5,205C 403.167,205.333 403.833,205.667 404.5,206C 403.409,207.55 402.076,208.717 400.5,209.5C 397.645,212.592 396.812,216.259 398,220.5C 399.011,221.337 400.178,221.67 401.5,221.5C 403.292,222.309 405.292,222.809 407.5,223C 406.577,225.041 406.244,227.208 406.5,229.5C 405.5,229.5 404.5,229.5 403.5,229.5C 386.252,224.52 369.585,218.02 353.5,210C 349.328,204.501 346.495,198.334 345,191.5C 341.915,197.636 337.081,201.802 330.5,204C 322.911,205.231 315.244,205.897 307.5,206C 314.24,210.07 320.407,214.904 326,220.5C 326.862,222.087 327.529,223.754 328,225.5C 328.333,230.5 328.667,235.5 329,240.5C 338.393,227.92 350.893,223.42 366.5,227C 378.175,228.167 389.841,229.334 401.5,230.5C 405.802,231.571 410.135,232.905 414.5,234.5C 415.521,233.998 415.688,233.332 415,232.5C 413.933,231.809 412.766,231.309 411.5,231C 413.473,230.505 415.473,230.338 417.5,230.5C 417.198,227.941 417.532,225.607 418.5,223.5C 420.489,227.402 420.823,231.402 419.5,235.5C 416.827,236.703 414.16,236.703 411.5,235.5C 410.476,236.853 409.143,237.52 407.5,237.5C 403.327,235.653 400.66,236.987 399.5,241.5C 398.85,241.196 398.183,240.863 397.5,240.5C 396.5,242.167 395.167,243.5 393.5,244.5C 393.089,243.738 392.923,242.738 393,241.5C 391.165,244.858 388.998,245.191 386.5,242.5C 385.158,243.902 384.324,243.569 384,241.5C 381.972,245.543 379.305,246.209 376,243.5C 374.757,245.833 373.091,246.5 371,245.5C 368.859,248.491 366.025,249.658 362.5,249C 362.833,248.667 363.167,248.333 363.5,248C 362.692,247.692 362.025,247.192 361.5,246.5C 362.989,246.467 364.322,245.967 365.5,245C 363.868,243.69 362.201,243.19 360.5,243.5C 361.313,242.186 362.313,241.019 363.5,240C 362.584,239.626 361.75,239.126 361,238.5C 359.021,240.565 357.188,242.732 355.5,245C 353.236,244.302 351.403,244.802 350,246.5C 348.757,245.664 347.59,245.997 346.5,247.5C 347.167,247.833 347.833,248.167 348.5,248.5C 345.736,249.965 342.903,251.299 340,252.5C 339.055,252.095 338.388,251.428 338,250.5C 335.749,254.126 332.582,255.293 328.5,254C 327.167,253.333 327.167,252.667 328.5,252C 327.309,251.302 326.309,250.469 325.5,249.5C 326.028,248.153 326.195,246.819 326,245.5C 319.479,250.448 312.313,251.615 304.5,249C 292.947,243.778 282.781,236.611 274,227.5C 277.245,233.99 280.578,240.657 284,247.5C 288.791,255.932 289.458,264.599 286,273.5C 284.167,275.333 282.333,277.167 280.5,279C 298.829,277.863 315.496,282.53 330.5,293C 341.229,299.728 351.396,307.228 361,315.5C 361.667,314.833 361.667,314.167 361,313.5C 349.376,301.557 339.21,288.557 330.5,274.5C 330.373,272.085 330.207,269.751 330,267.5C 331.869,269.981 333.535,272.647 335,275.5C 337.849,272.776 339.516,269.776 340,266.5C 341.892,267.13 343.559,268.13 345,269.5C 348.278,268.394 351.278,269.061 354,271.5C 355.447,269.597 357.114,267.93 359,266.5C 359.333,268.5 359.667,270.5 360,272.5C 361.566,273.061 362.899,272.394 364,270.5C 364.308,271.308 364.808,271.975 365.5,272.5C 367.179,271.218 369.013,270.218 371,269.5C 371.684,270.784 371.517,271.951 370.5,273C 374.263,274.408 375.263,276.908 373.5,280.5C 371.615,282.053 370.615,284.053 370.5,286.5C 370.047,287.458 369.381,288.292 368.5,289C 369.416,289.374 370.25,289.874 371,290.5C 372.814,289.24 374.647,289.24 376.5,290.5C 375.349,291.731 374.183,291.731 373,290.5C 371.666,291.878 371.499,293.211 372.5,294.5C 369.205,295.136 367.872,297.136 368.5,300.5C 368.029,304.357 369.695,306.357 373.5,306.5C 375.292,307.309 377.292,307.809 379.5,308C 379.167,308.333 378.833,308.667 378.5,309C 379.756,309.417 380.423,310.25 380.5,311.5C 380.67,312.822 380.337,313.989 379.5,315C 376.869,315.107 374.369,315.273 372,315.5C 371.793,319.089 371.293,322.589 370.5,326C 358.312,331.944 345.645,333.11 332.5,329.5C 333.295,325.215 333.628,320.881 333.5,316.5C 329.846,316.058 326.179,315.724 322.5,315.5C 322.528,317.582 321.861,319.416 320.5,321C 321.337,322.011 321.67,323.178 321.5,324.5C 316.299,322.902 311.299,320.735 306.5,318C 301.944,314.893 297.277,312.06 292.5,309.5C 290.396,307.901 288.396,306.068 286.5,304C 285.833,303.333 285.167,303.333 284.5,304C 293.397,318.193 298.397,333.693 299.5,350.5C 295.473,351.209 291.473,351.709 287.5,352C 284.127,345.42 280.627,338.92 277,332.5C 276.667,340.833 276.333,349.167 276,357.5C 271.682,359.492 267.349,361.492 263,363.5C 258.548,355.967 254.381,348.3 250.5,340.5C 250.5,338.833 250.5,337.167 250.5,335.5C 250.19,332.287 250.523,329.287 251.5,326.5C 251.281,327.675 251.614,328.675 252.5,329.5C 255.807,331.64 258.974,333.974 262,336.5C 262.695,332.467 263.528,328.467 264.5,324.5C 266.924,325.423 268.924,326.923 270.5,329C 271.448,329.483 272.448,329.649 273.5,329.5C 273.5,326.5 273.5,323.5 273.5,320.5C 276.611,322.222 279.945,323.056 283.5,323C 275.593,311.683 270.593,299.183 268.5,285.5C 269.987,284.196 271.654,283.03 273.5,282C 271.347,281.901 269.681,281.067 268.5,279.5C 268.5,277.5 268.5,275.5 268.5,273.5C 266.071,273.415 264.071,272.415 262.5,270.5C 265.009,269.079 267.343,267.412 269.5,265.5C 267.343,264.21 265.01,263.376 262.5,263C 261.643,262.311 260.977,261.478 260.5,260.5C 262.167,258.5 263.833,256.5 265.5,254.5C 262.553,253.679 259.553,253.179 256.5,253C 258.291,250.586 259.957,248.086 261.5,245.5C 259.167,244.833 256.833,244.167 254.5,243.5C 255.833,241.5 257.167,239.5 258.5,237.5C 254.012,231.21 251.179,224.21 250,216.5C 248.82,224.19 245.987,231.19 241.5,237.5C 243.226,239.228 244.559,241.228 245.5,243.5C 243.5,244.167 241.5,244.833 239.5,245.5C 241.076,247.979 242.076,250.646 242.5,253.5C 239.813,253.336 237.146,253.503 234.5,254C 235.207,256.543 236.54,258.709 238.5,260.5C 236.174,262.331 233.841,264.165 231.5,266C 232.952,267.565 234.619,268.898 236.5,270C 235.347,271.883 233.681,272.716 231.5,272.5C 231.5,274.5 231.5,276.5 231.5,278.5C 229.364,279.403 227.364,280.569 225.5,282C 227.763,283.617 229.763,285.45 231.5,287.5C 228.102,299.968 222.769,311.634 215.5,322.5C 216,322.833 216.5,323.167 217,323.5C 219.724,322.313 222.557,321.647 225.5,321.5C 225.183,324.572 225.516,327.572 226.5,330.5C 228.884,328.115 231.55,326.115 234.5,324.5C 235.167,328.833 235.833,333.167 236.5,337.5C 239.495,334.675 242.662,332.008 246,329.5C 246.494,327.866 246.66,326.199 246.5,324.5C 247.482,327.962 247.815,331.629 247.5,335.5C 247.662,337.527 247.495,339.527 247,341.5C 243.455,349.271 239.455,356.604 235,363.5C 233.2,362.68 231.366,362.014 229.5,361.5C 227.574,359.707 225.241,358.707 222.5,358.5C 222.666,349.494 222.5,340.494 222,331.5C 218.245,338.009 214.745,344.676 211.5,351.5C 207.017,352.703 202.85,352.036 199,349.5C 200.165,333.838 204.665,319.171 212.5,305.5C 212.167,305.167 211.833,304.833 211.5,304.5C 197.712,315.428 182.378,323.595 165.5,329C 160.587,330.585 155.587,331.252 150.5,331C 154.423,327.752 154.423,324.585 150.5,321.5C 143.896,322.057 142.229,325.057 145.5,330.5C 141.265,332.551 139.098,331.218 139,326.5C 135.973,322.754 133.139,323.088 130.5,327.5C 120.832,322.563 116.165,314.563 116.5,303.5C 116.201,301.396 116.534,299.396 117.5,297.5C 119.508,297.741 121.175,298.407 122.5,299.5C 122.5,301.5 122.5,303.5 122.5,305.5C 125.93,306.245 127.597,304.911 127.5,301.5C 127.36,299.97 126.693,298.97 125.5,298.5C 126.953,297.175 126.619,296.342 124.5,296C 125.667,294.833 126.833,293.667 128,292.5C 128.957,294.709 130.124,294.543 131.5,292C 131.167,291.667 130.833,291.333 130.5,291C 134.264,289.642 135.431,287.142 134,283.5C 135.439,281.986 136.939,281.653 138.5,282.5C 142.162,282.162 142.829,280.995 140.5,279C 142.655,277.643 144.822,277.476 147,278.5C 148.168,277.491 149.335,276.491 150.5,275.5C 150.576,277.282 150.909,278.949 151.5,280.5C 152.853,278.817 154.52,277.484 156.5,276.5C 157.086,276.709 157.586,277.043 158,277.5C 160.258,275.601 161.591,273.601 162,271.5C 163.434,271.93 164.601,272.764 165.5,274C 164.09,274.368 163.09,275.201 162.5,276.5C 163.636,276.964 164.636,277.298 165.5,277.5C 157.843,289.671 149.176,301.171 139.5,312C 139.833,312.167 140.167,312.333 140.5,312.5C 152.807,302.677 165.807,293.844 179.5,286C 191.483,280.232 204.15,277.899 217.5,279C 211.208,273.922 208.708,267.422 210,259.5C 213.095,248.478 217.928,238.311 224.5,229C 223.833,228.333 223.167,228.333 222.5,229C 214.052,237.394 204.385,244.061 193.5,249C 186.236,251.547 179.569,250.714 173.5,246.5C 171.884,244.262 170.551,241.929 169.5,239.5C 169.283,233.768 169.783,228.101 171,222.5C 176.57,215.933 183.07,210.433 190.5,206C 183.5,205.667 176.5,205.333 169.5,205C 162.066,202.225 156.566,197.391 153,190.5C 152.094,197.901 149.26,204.401 144.5,210C 132.824,215.723 120.824,220.556 108.5,224.5C 104.508,224.279 100.508,223.779 96.5,223C 95.8333,221.667 94.8333,220.667 93.5,220C 95.1667,218.167 96.8333,216.333 98.5,214.5C 97.7573,213.818 97.0906,213.151 96.5,212.5C 97.9177,210.012 97.0844,208.346 94,207.5C 93.228,207.645 92.5613,207.978 92,208.5C 91.2204,210.387 91.3871,212.054 92.5,213.5C 93.8146,214.895 93.4812,215.895 91.5,216.5C 88.0524,215.901 85.3857,216.901 83.5,219.5C 82.8333,221.167 82.1667,222.833 81.5,224.5C 80.5222,224.189 79.8555,223.522 79.5,222.5C 85.7354,210.93 94.4021,201.597 105.5,194.5C 100.334,191.587 96.0003,187.754 92.5,183C 89.5144,183.128 86.5144,183.128 83.5,183C 82.4841,181.323 81.4841,179.657 80.5,178C 82.102,176.178 83.7687,174.345 85.5,172.5C 81.2608,165.452 78.5941,157.785 77.5,149.5C 78.4752,146.335 80.1419,143.502 82.5,141C 81.5067,139.033 79.84,137.866 77.5,137.5C 76.5734,126.563 78.0734,115.896 82,105.5C 85.0935,97.034 90.9269,92.534 99.5,92C 101.983,98.176 105.316,98.8426 109.5,94C 111.5,93.3333 113.5,93.3333 115.5,94C 118.363,95.3989 121.363,96.3989 124.5,97C 125.086,99.2798 125.92,101.447 127,103.5C 129.694,102.117 132.527,101.617 135.5,102C 150.359,111.417 164.025,122.25 176.5,134.5 Z M 291.5,165.5 C 286.543,171.703 284.21,178.703 284.5,186.5C 290.354,181.102 293.187,174.436 293,166.5C 292.617,165.944 292.117,165.611 291.5,165.5 Z M 204.5,159.5 C 203.202,169.441 206.035,178.108 213,185.5C 213.194,178.721 212.861,171.721 212,164.5C 210.999,160.741 208.499,159.074 204.5,159.5 Z"/></g>
<g><path style="opacity:0.953" fill="#555d81" d="M 96.5,212.5 C 95.1667,212.833 93.8333,213.167 92.5,213.5C 91.3871,212.054 91.2204,210.387 92,208.5C 92.5613,207.978 93.228,207.645 94,207.5C 97.0844,208.346 97.9177,210.012 96.5,212.5 Z"/></g>
<g><path style="opacity:0.988" fill="#191a1e" d="M 403.5,229.5 C 403.158,230.338 402.492,230.672 401.5,230.5C 389.841,229.334 378.175,228.167 366.5,227C 350.893,223.42 338.393,227.92 329,240.5C 328.667,235.5 328.333,230.5 328,225.5C 327.529,223.754 326.862,222.087 326,220.5C 320.407,214.904 314.24,210.07 307.5,206C 315.244,205.897 322.911,205.231 330.5,204C 337.081,201.802 341.915,197.636 345,191.5C 346.495,198.334 349.328,204.501 353.5,210C 369.585,218.02 386.252,224.52 403.5,229.5 Z"/></g>
<g><path style="opacity:0.924" fill="#555d80" d="M 395.5,198.5 C 399.061,199.473 400.395,201.64 399.5,205C 397.527,205.495 395.527,205.662 393.5,205.5C 393.185,202.789 393.852,200.456 395.5,198.5 Z"/></g>
<g><path style="opacity:0.933" fill="#545c7f" d="M 98.5,181.5 C 99.5,181.5 100.5,181.5 101.5,181.5C 102.244,184.95 100.91,186.616 97.5,186.5C 97.366,184.708 97.6993,183.042 98.5,181.5 Z"/></g>
<g><path style="opacity:0.962" fill="#e0e0c1" d="M 268.5,172.5 C 264.642,187.648 261.642,202.981 259.5,218.5C 258.833,218.5 258.5,218.167 258.5,217.5C 256.115,202.281 255.115,186.948 255.5,171.5C 254.535,166.244 256.201,162.244 260.5,159.5C 261.308,159.808 261.975,160.308 262.5,161C 262.384,162.268 262.051,163.602 261.5,165C 262.328,165.915 263.328,166.581 264.5,167C 263.137,169.129 263.471,169.629 265.5,168.5C 266.934,169.588 267.934,170.922 268.5,172.5 Z"/></g>
<g><path style="opacity:0.342" fill="#33281c" d="M 277.5,148.5 C 280.763,148.674 282.43,150.341 282.5,153.5C 282.029,158.47 279.695,162.304 275.5,165C 273.85,171.606 271.516,178.272 268.5,185C 268.957,185.414 269.291,185.914 269.5,186.5C 268.258,191.483 266.591,196.316 264.5,201C 266.199,203.227 267.532,205.727 268.5,208.5C 270.465,209.292 272.465,209.959 274.5,210.5C 292.273,202.894 302.773,189.561 306,170.5C 308.377,166.627 309.543,162.294 309.5,157.5C 309.328,156.508 309.662,155.842 310.5,155.5C 311.748,169.844 308.581,183.177 301,195.5C 289.854,208.643 276.021,216.31 259.5,218.5C 261.642,202.981 264.642,187.648 268.5,172.5C 271.672,164.999 274.672,157.332 277.5,149.5C 277.5,149.167 277.5,148.833 277.5,148.5 Z M 291.5,165.5 C 286.543,171.703 284.21,178.703 284.5,186.5C 290.354,181.102 293.187,174.436 293,166.5C 292.617,165.944 292.117,165.611 291.5,165.5 Z"/></g>
<g><path style="opacity:0.917" fill="#525b7e" d="M 92.5,165.5 C 97.7442,165.509 99.7442,168.009 98.5,173C 91.2545,174.274 89.2545,171.774 92.5,165.5 Z"/></g>
<g><path style="opacity:0.763" fill="#cbc9ab" d="M 277.5,149.5 C 274.672,157.332 271.672,164.999 268.5,172.5C 267.934,170.922 266.934,169.588 265.5,168.5C 263.471,169.629 263.137,169.129 264.5,167C 263.328,166.581 262.328,165.915 261.5,165C 262.051,163.602 262.384,162.268 262.5,161C 261.975,160.308 261.308,159.808 260.5,159.5C 256.201,162.244 254.535,166.244 255.5,171.5C 255.167,171.5 254.833,171.5 254.5,171.5C 252.308,161.93 255.308,154.93 263.5,150.5C 268.13,149.771 272.797,149.437 277.5,149.5 Z"/></g>
<g><path style="opacity:0.978" fill="#525a7e" d="M 246.5,166.5 C 245.566,168.239 245.566,169.905 246.5,171.5C 247.833,169.5 249.5,167.833 251.5,166.5C 252.761,170.061 253.594,173.728 254,177.5C 254.495,175.527 254.662,173.527 254.5,171.5C 254.833,171.5 255.167,171.5 255.5,171.5C 255.115,186.948 256.115,202.281 258.5,217.5C 255.358,212.564 252.191,207.564 249,202.5C 245.475,208.231 241.975,213.897 238.5,219.5C 236.693,201.823 232.693,184.656 226.5,168C 226.808,166.541 227.475,165.374 228.5,164.5C 229.931,164.881 230.764,165.881 231,167.5C 232.951,164.214 235.285,161.214 238,158.5C 238.118,161.371 238.784,164.038 240,166.5C 242.274,165.189 244.44,165.189 246.5,166.5 Z"/></g>
<g><path style="opacity:0.978" fill="#8ba6d8" d="M 248.5,186.5 C 251.343,189.192 252.509,192.526 252,196.5C 249.724,193.936 247.724,194.27 246,197.5C 245.486,193.538 246.32,189.871 248.5,186.5 Z"/></g>
<g><path style="opacity:0.912" fill="#1e1d1f" d="M 267.5,141.5 C 266.611,144.772 265.277,147.772 263.5,150.5C 255.308,154.93 252.308,161.93 254.5,171.5C 254.662,173.527 254.495,175.527 254,177.5C 253.594,173.728 252.761,170.061 251.5,166.5C 249.5,167.833 247.833,169.5 246.5,171.5C 245.566,169.905 245.566,168.239 246.5,166.5C 247.391,165.739 248.058,164.739 248.5,163.5C 246.234,162.686 243.9,162.186 241.5,162C 244.369,158.796 247.535,155.963 251,153.5C 250.246,150.606 249.413,147.606 248.5,144.5C 251.321,144.461 253.988,143.795 256.5,142.5C 255.926,140.941 255.26,139.441 254.5,138C 258.897,138.684 263.23,139.85 267.5,141.5 Z"/></g>
<g><path style="opacity:0.034" fill="#4a3825" d="M 197.5,142.5 C 199.807,142.986 201.973,142.986 204,142.5C 206.305,144.93 209.138,145.93 212.5,145.5C 213.32,149.817 215.987,152.317 220.5,153C 222.102,154.935 223.269,157.101 224,159.5C 223.753,164.859 223.753,170.526 224,176.5C 225.51,182.872 227.176,189.205 229,195.5C 229.837,199.295 229.504,202.961 228,206.5C 225.599,207.602 223.099,207.769 220.5,207C 215.311,202.482 209.811,198.315 204,194.5C 193.959,179.235 190.959,162.901 195,145.5C 196.045,144.627 196.878,143.627 197.5,142.5 Z M 204.5,159.5 C 203.202,169.441 206.035,178.108 213,185.5C 213.194,178.721 212.861,171.721 212,164.5C 210.999,160.741 208.499,159.074 204.5,159.5 Z"/></g>
<g><path style="opacity:0.961" fill="#1a1a1e" d="M 92.5,98.5 C 92.8966,97.475 93.5632,97.3083 94.5,98C 110.517,114.49 128.184,128.823 147.5,141C 156.086,143.695 163.252,141.528 169,134.5C 168.535,144.72 170.535,154.387 175,163.5C 177.205,166.04 179.705,168.207 182.5,170C 169.398,167.795 159.565,172.295 153,183.5C 151.49,173.301 147.824,163.968 142,155.5C 126.899,135.307 110.399,116.307 92.5,98.5 Z"/></g>
<g><path style="opacity:0.95" fill="#525b7e" d="M 84.5,147.5 C 88.9225,146.425 90.9225,148.092 90.5,152.5C 90.2061,156.987 87.8727,158.487 83.5,157C 79.2837,153.175 79.617,150.008 84.5,147.5 Z"/></g>
<g><path style="opacity:0.875" fill="#d4cc38" d="M 260.5,143.5 C 261.833,143.5 263.167,143.5 264.5,143.5C 264.5,144.833 264.5,146.167 264.5,147.5C 261.5,147.833 260.167,146.5 260.5,143.5 Z"/></g>
<g><path style="opacity:0.885" fill="#8394b8" d="M 271.5,134.5 C 273.521,136.693 275.188,139.193 276.5,142C 275.182,143.99 273.848,145.99 272.5,148C 274.134,148.494 275.801,148.66 277.5,148.5C 277.5,148.833 277.5,149.167 277.5,149.5C 272.797,149.437 268.13,149.771 263.5,150.5C 265.277,147.772 266.611,144.772 267.5,141.5C 268.079,138.669 269.412,136.336 271.5,134.5 Z"/></g>
<g><path style="opacity:0.867" fill="#222020" d="M 271.5,134.5 C 271.5,134.167 271.5,133.833 271.5,133.5C 274.14,133.954 276.473,135.121 278.5,137C 281.146,137.497 283.813,137.664 286.5,137.5C 286.829,143.206 286.495,148.872 285.5,154.5C 284.583,153.873 283.583,153.539 282.5,153.5C 282.43,150.341 280.763,148.674 277.5,148.5C 275.801,148.66 274.134,148.494 272.5,148C 273.848,145.99 275.182,143.99 276.5,142C 275.188,139.193 273.521,136.693 271.5,134.5 Z"/></g>
<g><path style="opacity:0.517" fill="#27201b" d="M 328.5,123.5 C 325.65,127.199 323.317,131.199 321.5,135.5C 316.82,141.521 313.153,148.188 310.5,155.5C 309.662,155.842 309.328,156.508 309.5,157.5C 307.764,148.694 306.097,139.694 304.5,130.5C 304.711,128.576 305.377,128.243 306.5,129.5C 308.479,132.146 310.812,134.479 313.5,136.5C 316.057,133.785 319.057,131.618 322.5,130C 322.034,128.701 322.034,127.201 322.5,125.5C 324.685,125.296 326.685,124.63 328.5,123.5 Z"/></g>
<g><path style="opacity:0.937" fill="#545d81" d="M 81.5,127.5 C 82.8333,127.5 84.1667,127.5 85.5,127.5C 85.6621,129.527 85.4955,131.527 85,133.5C 82.2472,134.779 80.7472,133.779 80.5,130.5C 80.685,129.416 81.0183,128.416 81.5,127.5 Z"/></g>
<g><path style="opacity:0.437" fill="#29211c" d="M 172.5,127.5 C 176.156,128.661 179.489,130.328 182.5,132.5C 182.5,133.5 182.5,134.5 182.5,135.5C 183.873,135.657 185.207,135.49 186.5,135C 188.35,132.982 190.35,131.149 192.5,129.5C 192.833,130 193.167,130.5 193.5,131C 192.099,139.247 190.432,147.414 188.5,155.5C 189.473,157.392 190.14,159.392 190.5,161.5C 188.552,164.696 187.885,168.029 188.5,171.5C 187.673,166.015 187.173,160.348 187,154.5C 184.25,147.33 180.75,140.663 176.5,134.5C 175.431,132.031 174.098,129.698 172.5,127.5 Z"/></g>
<g><path style="opacity:0.897" fill="#535a7c" d="M 85.5,103.5 C 89.9833,104.921 93.6499,107.587 96.5,111.5C 95.0295,114.136 93.3628,116.636 91.5,119C 83.1705,119.64 80.3371,115.807 83,107.5C 83.6622,106.016 84.4955,104.683 85.5,103.5 Z"/></g>
<g><path style="opacity:0.965" fill="#535a7f" d="M 135.5,106.5 C 139.161,106.35 140.161,107.85 138.5,111C 137.552,111.483 136.552,111.649 135.5,111.5C 135.5,109.833 135.5,108.167 135.5,106.5 Z"/></g>
<g><path style="opacity:0.93" fill="#555a7d" d="M 110.5,98.5 C 111.822,98.33 112.989,98.6634 114,99.5C 114.495,101.473 114.662,103.473 114.5,105.5C 108.347,105.873 107.014,103.539 110.5,98.5 Z"/></g>
<g><path style="opacity:0.955" fill="#535a7e" d="M 400.5,209.5 C 403.187,209.336 405.854,209.503 408.5,210C 409.432,213.085 410.099,216.252 410.5,219.5C 407.664,220.776 404.664,221.442 401.5,221.5C 400.178,221.67 399.011,221.337 398,220.5C 396.812,216.259 397.645,212.592 400.5,209.5 Z"/></g>
<g><path style="opacity:0.931" fill="#829ac6" d="M 403.5,202.5 C 406.666,204.834 409.333,207.667 411.5,211C 413.368,211.004 415.202,210.504 417,209.5C 417.772,209.645 418.439,209.978 419,210.5C 419.415,214.848 419.249,219.181 418.5,223.5C 417.532,225.607 417.198,227.941 417.5,230.5C 415.473,230.338 413.473,230.505 411.5,231C 412.766,231.309 413.933,231.809 415,232.5C 415.688,233.332 415.521,233.998 414.5,234.5C 410.135,232.905 405.802,231.571 401.5,230.5C 402.492,230.672 403.158,230.338 403.5,229.5C 404.5,229.5 405.5,229.5 406.5,229.5C 406.244,227.208 406.577,225.041 407.5,223C 405.292,222.809 403.292,222.309 401.5,221.5C 404.664,221.442 407.664,220.776 410.5,219.5C 410.099,216.252 409.432,213.085 408.5,210C 405.854,209.503 403.187,209.336 400.5,209.5C 402.076,208.717 403.409,207.55 404.5,206C 403.833,205.667 403.167,205.333 402.5,205C 403.252,204.329 403.586,203.496 403.5,202.5 Z"/></g>
<g><path style="opacity:0.937" fill="#576085" d="M 391.5,216.5 C 392.5,216.5 393.5,216.5 394.5,216.5C 395.167,220.5 393.5,222.167 389.5,221.5C 389.392,219.486 390.058,217.82 391.5,216.5 Z"/></g>
<g><path style="opacity:0.965" fill="#535b7e" d="M 91.5,216.5 C 93.7865,221.755 92.4532,225.755 87.5,228.5C 83.993,226.539 82.6597,223.539 83.5,219.5C 85.3857,216.901 88.0524,215.901 91.5,216.5 Z"/></g>
<g><path style="opacity:0.988" fill="#d5dac7" d="M 268.5,279.5 C 260.059,276.01 254.893,269.676 253,260.5C 251.946,251.459 250.613,242.459 249,233.5C 248.371,244.769 246.371,255.769 243,266.5C 240.988,272.344 237.154,276.344 231.5,278.5C 231.5,276.5 231.5,274.5 231.5,272.5C 233.681,272.716 235.347,271.883 236.5,270C 234.619,268.898 232.952,267.565 231.5,266C 233.841,264.165 236.174,262.331 238.5,260.5C 236.54,258.709 235.207,256.543 234.5,254C 237.146,253.503 239.813,253.336 242.5,253.5C 242.076,250.646 241.076,247.979 239.5,245.5C 241.5,244.833 243.5,244.167 245.5,243.5C 244.559,241.228 243.226,239.228 241.5,237.5C 245.987,231.19 248.82,224.19 250,216.5C 251.179,224.21 254.012,231.21 258.5,237.5C 257.167,239.5 255.833,241.5 254.5,243.5C 256.833,244.167 259.167,244.833 261.5,245.5C 259.957,248.086 258.291,250.586 256.5,253C 259.553,253.179 262.553,253.679 265.5,254.5C 263.833,256.5 262.167,258.5 260.5,260.5C 260.977,261.478 261.643,262.311 262.5,263C 265.01,263.376 267.343,264.21 269.5,265.5C 267.343,267.412 265.009,269.079 262.5,270.5C 264.071,272.415 266.071,273.415 268.5,273.5C 268.5,275.5 268.5,277.5 268.5,279.5 Z"/></g>
<g><path style="opacity:0.855" fill="#525777" d="M 407.5,237.5 C 412.969,245.384 410.969,248.551 401.5,247C 399.845,245.556 399.178,243.722 399.5,241.5C 400.66,236.987 403.327,235.653 407.5,237.5 Z"/></g>
<g><path style="opacity:0.94" fill="#1b1b1e" d="M 325.5,249.5 C 323.234,258.681 324.901,267.014 330.5,274.5C 339.21,288.557 349.376,301.557 361,313.5C 361.667,314.167 361.667,314.833 361,315.5C 351.396,307.228 341.229,299.728 330.5,293C 315.496,282.53 298.829,277.863 280.5,279C 282.333,277.167 284.167,275.333 286,273.5C 289.458,264.599 288.791,255.932 284,247.5C 280.578,240.657 277.245,233.99 274,227.5C 282.781,236.611 292.947,243.778 304.5,249C 312.313,251.615 319.479,250.448 326,245.5C 326.195,246.819 326.028,248.153 325.5,249.5 Z"/></g>
<g><path style="opacity:0.945" fill="#88a1ce" d="M 96.5,212.5 C 97.0906,213.151 97.7573,213.818 98.5,214.5C 96.8333,216.333 95.1667,218.167 93.5,220C 94.8333,220.667 95.8333,221.667 96.5,223C 100.508,223.779 104.508,224.279 108.5,224.5C 102.803,227.221 96.8033,229.387 90.5,231C 96.1508,230.753 101.817,230.253 107.5,229.5C 106.972,231.445 105.805,233.445 104,235.5C 102.455,234.179 101.289,234.512 100.5,236.5C 102.095,237.768 104.095,237.768 106.5,236.5C 106.5,237.5 106.5,238.5 106.5,239.5C 108.308,239.491 109.975,239.991 111.5,241C 112.728,243.14 114.395,244.807 116.5,246C 113.51,246.821 110.343,247.987 107,249.5C 104.771,247.854 102.437,247.521 100,248.5C 98.7425,248.85 98.4092,249.517 99,250.5C 100.073,249.72 101.24,249.887 102.5,251C 101.167,252 101.167,253 102.5,254C 101.619,254.708 100.953,255.542 100.5,256.5C 95.6854,256.072 94.6854,254.072 97.5,250.5C 94.9645,245.651 91.9645,245.318 88.5,249.5C 83.0595,246.119 79.7261,241.285 78.5,235C 79.7862,233.006 81.1195,231.006 82.5,229C 81.8524,227.56 81.5191,226.06 81.5,224.5C 82.1667,222.833 82.8333,221.167 83.5,219.5C 82.6597,223.539 83.993,226.539 87.5,228.5C 92.4532,225.755 93.7865,221.755 91.5,216.5C 93.4812,215.895 93.8146,214.895 92.5,213.5C 93.8333,213.167 95.1667,212.833 96.5,212.5 Z"/></g>
<g><path style="opacity:0.877" fill="#555877" d="M 85.5,238.5 C 90.1585,238.015 91.4919,239.848 89.5,244C 87.8659,244.494 86.1992,244.66 84.5,244.5C 84.5172,242.435 84.8505,240.435 85.5,238.5 Z"/></g>
<g><path style="opacity:0.947" fill="#1a1a1d" d="M 165.5,277.5 C 167.892,274.402 170.058,271.069 172,267.5C 173.422,260.326 173.922,253.326 173.5,246.5C 179.569,250.714 186.236,251.547 193.5,249C 204.385,244.061 214.052,237.394 222.5,229C 223.167,228.333 223.833,228.333 224.5,229C 217.928,238.311 213.095,248.478 210,259.5C 208.708,267.422 211.208,273.922 217.5,279C 204.15,277.899 191.483,280.232 179.5,286C 165.807,293.844 152.807,302.677 140.5,312.5C 140.167,312.333 139.833,312.167 139.5,312C 149.176,301.171 157.843,289.671 165.5,277.5 Z"/></g>
<g><path style="opacity:0.929" fill="#8aa4d2" d="M 419.5,235.5 C 417.424,242.247 413.424,247.58 407.5,251.5C 404.813,251.336 402.146,251.503 399.5,252C 397.247,257.065 393.247,259.898 387.5,260.5C 382.492,261.001 377.492,261.668 372.5,262.5C 378.257,270.162 381.59,278.828 382.5,288.5C 384.167,288.5 385.833,288.5 387.5,288.5C 387.808,290.924 387.474,293.257 386.5,295.5C 385.264,296.246 383.93,296.579 382.5,296.5C 382.698,301.75 382.031,306.75 380.5,311.5C 380.423,310.25 379.756,309.417 378.5,309C 378.833,308.667 379.167,308.333 379.5,308C 377.292,307.809 375.292,307.309 373.5,306.5C 375.527,306.662 377.527,306.495 379.5,306C 383.277,300.165 381.944,295.998 375.5,293.5C 374.583,294.127 373.583,294.461 372.5,294.5C 371.499,293.211 371.666,291.878 373,290.5C 374.183,291.731 375.349,291.731 376.5,290.5C 374.647,289.24 372.814,289.24 371,290.5C 370.25,289.874 369.416,289.374 368.5,289C 369.381,288.292 370.047,287.458 370.5,286.5C 373.337,289.101 376.17,289.101 379,286.5C 379.499,282.494 377.665,280.494 373.5,280.5C 375.263,276.908 374.263,274.408 370.5,273C 371.517,271.951 371.684,270.784 371,269.5C 369.013,270.218 367.179,271.218 365.5,272.5C 364.808,271.975 364.308,271.308 364,270.5C 362.899,272.394 361.566,273.061 360,272.5C 359.667,270.5 359.333,268.5 359,266.5C 357.114,267.93 355.447,269.597 354,271.5C 351.278,269.061 348.278,268.394 345,269.5C 343.559,268.13 341.892,267.13 340,266.5C 339.516,269.776 337.849,272.776 335,275.5C 333.535,272.647 331.869,269.981 330,267.5C 330.207,269.751 330.373,272.085 330.5,274.5C 324.901,267.014 323.234,258.681 325.5,249.5C 326.309,250.469 327.309,251.302 328.5,252C 327.167,252.667 327.167,253.333 328.5,254C 332.582,255.293 335.749,254.126 338,250.5C 338.388,251.428 339.055,252.095 340,252.5C 342.903,251.299 345.736,249.965 348.5,248.5C 347.833,248.167 347.167,247.833 346.5,247.5C 347.59,245.997 348.757,245.664 350,246.5C 351.403,244.802 353.236,244.302 355.5,245C 357.188,242.732 359.021,240.565 361,238.5C 361.75,239.126 362.584,239.626 363.5,240C 362.313,241.019 361.313,242.186 360.5,243.5C 362.201,243.19 363.868,243.69 365.5,245C 364.322,245.967 362.989,246.467 361.5,246.5C 362.025,247.192 362.692,247.692 363.5,248C 363.167,248.333 362.833,248.667 362.5,249C 366.025,249.658 368.859,248.491 371,245.5C 373.091,246.5 374.757,245.833 376,243.5C 379.305,246.209 381.972,245.543 384,241.5C 384.324,243.569 385.158,243.902 386.5,242.5C 388.998,245.191 391.165,244.858 393,241.5C 392.923,242.738 393.089,243.738 393.5,244.5C 395.167,243.5 396.5,242.167 397.5,240.5C 398.183,240.863 398.85,241.196 399.5,241.5C 399.178,243.722 399.845,245.556 401.5,247C 410.969,248.551 412.969,245.384 407.5,237.5C 409.143,237.52 410.476,236.853 411.5,235.5C 414.16,236.703 416.827,236.703 419.5,235.5 Z"/></g>
<g><path style="opacity:0.797" fill="#505269" d="M 439.5,242.5 C 435.862,248.35 430.862,252.85 424.5,256C 415.232,261.654 405.232,265.488 394.5,267.5C 393.026,266.325 391.36,265.325 389.5,264.5C 391.565,264.738 393.565,264.238 395.5,263C 392.621,263.321 389.954,262.488 387.5,260.5C 393.247,259.898 397.247,257.065 399.5,252C 402.146,251.503 404.813,251.336 407.5,251.5C 408.75,251.577 409.583,252.244 410,253.5C 411.314,252.687 412.481,251.687 413.5,250.5C 414.736,251.246 416.07,251.579 417.5,251.5C 417.351,250.448 417.517,249.448 418,248.5C 420,247.167 421.667,245.5 423,243.5C 424.333,244.167 425.667,244.833 427,245.5C 428.333,244.167 429.667,242.833 431,241.5C 431.333,242.167 431.667,242.833 432,243.5C 432.689,242.643 433.522,241.977 434.5,241.5C 436.197,242.912 437.864,243.246 439.5,242.5 Z"/></g>
<g><path style="opacity:0.778" fill="#525672" d="M 391.5,246.5 C 393.017,246.511 394.184,247.177 395,248.5C 396.667,255.167 394.333,257.167 388,254.5C 386.78,250.707 387.947,248.04 391.5,246.5 Z"/></g>
<g><path style="opacity:0.206" fill="#3b2c1e" d="M 440.5,69.5 C 441.586,69.62 442.253,70.2867 442.5,71.5C 441.833,73.1667 441.167,74.8333 440.5,76.5C 441.169,79.0278 442.002,79.0278 443,76.5C 443.436,78.8474 443.936,81.1807 444.5,83.5C 443.761,87.6152 445.094,91.1152 448.5,94C 447.477,97.2617 447.477,100.595 448.5,104C 448.604,106.145 447.937,107.979 446.5,109.5C 446.846,110.696 447.346,110.696 448,109.5C 448.45,111.519 449.283,113.352 450.5,115C 449.801,118.8 449.135,122.633 448.5,126.5C 449.868,129.969 449.535,133.636 447.5,137.5C 448.875,139.163 448.542,140.497 446.5,141.5C 448.939,143.946 448.939,146.446 446.5,149C 447.459,151.12 447.626,153.287 447,155.5C 445.63,158.05 444.463,160.717 443.5,163.5C 445.011,165.838 444.677,166.504 442.5,165.5C 438.43,168.905 436.763,173.238 437.5,178.5C 436.5,178.5 435.5,178.5 434.5,178.5C 434.081,182.089 432.914,185.423 431,188.5C 428.413,191.413 426.246,194.58 424.5,198C 425.763,199.705 426.097,201.372 425.5,203C 431.533,211.554 437.7,220.054 444,228.5C 444.875,229.873 445.375,231.373 445.5,233C 444.748,235.154 444.581,237.32 445,239.5C 447.582,241.228 449.082,243.561 449.5,246.5C 448.5,246.5 447.5,246.5 446.5,246.5C 445.448,252.543 441.781,254.877 435.5,253.5C 435.5,254.5 435.5,255.5 435.5,256.5C 433.833,256.5 432.167,256.5 430.5,256.5C 430.67,257.822 430.337,258.989 429.5,260C 419.083,263.442 409.583,268.609 401,275.5C 399.222,280.693 399.389,285.859 401.5,291C 401.646,293.034 400.98,294.701 399.5,296C 400.167,296.333 400.833,296.667 401.5,297C 401.507,298.583 401.174,300.249 400.5,302C 401.944,303.763 402.944,305.763 403.5,308C 402.552,308.483 401.552,308.649 400.5,308.5C 401.312,312.276 401.979,316.109 402.5,320C 402.419,322.625 401.752,324.959 400.5,327C 401.308,327.308 401.975,327.808 402.5,328.5C 400.353,331.332 400.353,333.999 402.5,336.5C 401.833,337.5 401.167,338.5 400.5,339.5C 402.633,342.338 403.966,345.505 404.5,349C 402.686,351.481 402.02,354.315 402.5,357.5C 400.433,354.192 398.266,350.859 396,347.5C 394.801,344.274 394.301,340.941 394.5,337.5C 395.514,323.181 395.68,308.848 395,294.5C 394.34,285.002 391.174,276.502 385.5,269C 388.513,268.498 391.513,267.998 394.5,267.5C 405.232,265.488 415.232,261.654 424.5,256C 430.862,252.85 435.862,248.35 439.5,242.5C 440.836,238.49 440.67,234.49 439,230.5C 431.77,218.776 423.27,208.109 413.5,198.5C 417.777,195.727 421.61,192.393 425,188.5C 433.2,176.731 438.533,163.731 441,149.5C 443.828,125.92 442.661,102.587 437.5,79.5C 438.193,76.0585 439.193,72.7252 440.5,69.5 Z"/></g>
<g><path style="opacity:0.965" fill="#8ca7d7" d="M 169.5,239.5 C 170.551,241.929 171.884,244.262 173.5,246.5C 173.922,253.326 173.422,260.326 172,267.5C 170.058,271.069 167.892,274.402 165.5,277.5C 164.636,277.298 163.636,276.964 162.5,276.5C 163.09,275.201 164.09,274.368 165.5,274C 164.601,272.764 163.434,271.93 162,271.5C 161.591,273.601 160.258,275.601 158,277.5C 157.586,277.043 157.086,276.709 156.5,276.5C 154.52,277.484 152.853,278.817 151.5,280.5C 150.909,278.949 150.576,277.282 150.5,275.5C 149.335,276.491 148.168,277.491 147,278.5C 144.822,277.476 142.655,277.643 140.5,279C 142.829,280.995 142.162,282.162 138.5,282.5C 136.939,281.653 135.439,281.986 134,283.5C 135.431,287.142 134.264,289.642 130.5,291C 130.833,291.333 131.167,291.667 131.5,292C 130.124,294.543 128.957,294.709 128,292.5C 126.833,293.667 125.667,294.833 124.5,296C 126.619,296.342 126.953,297.175 125.5,298.5C 124.391,298.557 123.391,298.89 122.5,299.5C 121.175,298.407 119.508,297.741 117.5,297.5C 116.534,299.396 116.201,301.396 116.5,303.5C 115.203,301.307 115.203,298.973 116.5,296.5C 122.159,295.355 124.325,292.021 123,286.5C 121.622,284.787 119.955,283.453 118,282.5C 117.716,277.967 118.549,273.634 120.5,269.5C 122.268,267.492 123.934,265.326 125.5,263C 116.539,262.781 108.206,260.615 100.5,256.5C 100.953,255.542 101.619,254.708 102.5,254C 101.167,253 101.167,252 102.5,251C 101.24,249.887 100.073,249.72 99,250.5C 98.4092,249.517 98.7425,248.85 100,248.5C 102.437,247.521 104.771,247.854 107,249.5C 110.343,247.987 113.51,246.821 116.5,246C 114.395,244.807 112.728,243.14 111.5,241C 109.975,239.991 108.308,239.491 106.5,239.5C 106.5,238.5 106.5,237.5 106.5,236.5C 104.095,237.768 102.095,237.768 100.5,236.5C 101.289,234.512 102.455,234.179 104,235.5C 105.805,233.445 106.972,231.445 107.5,229.5C 121.579,226.869 135.912,226.036 150.5,227C 153.167,228 155.833,229 158.5,230C 162.67,233.391 166.337,236.557 169.5,239.5 Z"/></g>
<g><path style="opacity:0.336" fill="#35291c" d="M 57.5,234.5 C 57.0354,240.943 59.3687,246.109 64.5,250C 79.2682,260.258 95.6015,266.591 113.5,269C 111.959,270.371 110.625,271.871 109.5,273.5C 105.828,280.353 103.661,287.686 103,295.5C 102.032,310.245 102.532,324.912 104.5,339.5C 104.396,341.703 103.73,343.703 102.5,345.5C 101.5,345.5 100.5,345.5 99.5,345.5C 99.6695,343.088 99.0028,340.921 97.5,339C 98.0628,336.876 98.3961,334.709 98.5,332.5C 95.3231,316.279 96.3231,299.946 101.5,283.5C 101.503,278.341 99.5033,274.174 95.5,271C 84.8399,268.716 74.8399,264.549 65.5,258.5C 64.3776,256.956 64.711,255.623 66.5,254.5C 64.8333,253.833 63.1667,253.167 61.5,252.5C 61.7093,251.914 62.0426,251.414 62.5,251C 59.5529,250.888 58.2196,249.388 58.5,246.5C 55.1667,246.5 51.8333,246.5 48.5,246.5C 48.3505,245.448 48.5172,244.448 49,243.5C 52.7138,241.135 54.7138,237.802 55,233.5C 55.3418,235.619 56.1751,235.953 57.5,234.5 Z"/></g>
<g><path style="opacity:0.944" fill="#1b1b1e" d="M 268.5,279.5 C 269.681,281.067 271.347,281.901 273.5,282C 271.654,283.03 269.987,284.196 268.5,285.5C 263.397,289.105 259.564,293.771 257,299.5C 254.194,308.319 252.36,317.319 251.5,326.5C 250.523,329.287 250.19,332.287 250.5,335.5C 249.681,338.305 249.181,341.305 249,344.5C 248.819,341.305 248.319,338.305 247.5,335.5C 247.815,331.629 247.482,327.962 246.5,324.5C 245.909,313.026 242.742,302.359 237,292.5C 235.574,290.234 233.74,288.568 231.5,287.5C 229.763,285.45 227.763,283.617 225.5,282C 227.364,280.569 229.364,279.403 231.5,278.5C 237.154,276.344 240.988,272.344 243,266.5C 246.371,255.769 248.371,244.769 249,233.5C 250.613,242.459 251.946,251.459 253,260.5C 254.893,269.676 260.059,276.01 268.5,279.5 Z"/></g>
<g><path style="opacity:0.962" fill="#566084" d="M 124.5,276.5 C 125.833,276.5 127.167,276.5 128.5,276.5C 128.5,278.833 128.5,281.167 128.5,283.5C 126.5,283.5 124.5,283.5 122.5,283.5C 122.166,280.812 122.832,278.479 124.5,276.5 Z"/></g>
<g><path style="opacity:0.971" fill="#545d82" d="M 373.5,280.5 C 377.665,280.494 379.499,282.494 379,286.5C 376.17,289.101 373.337,289.101 370.5,286.5C 370.615,284.053 371.615,282.053 373.5,280.5 Z"/></g>
<g><path style="opacity:0.969" fill="#545c80" d="M 373.5,306.5 C 369.695,306.357 368.029,304.357 368.5,300.5C 367.872,297.136 369.205,295.136 372.5,294.5C 373.583,294.461 374.583,294.127 375.5,293.5C 381.944,295.998 383.277,300.165 379.5,306C 377.527,306.495 375.527,306.662 373.5,306.5 Z"/></g>
<g><path style="opacity:0.986" fill="#d8ddc8" d="M 268.5,285.5 C 270.593,299.183 275.593,311.683 283.5,323C 279.945,323.056 276.611,322.222 273.5,320.5C 273.5,323.5 273.5,326.5 273.5,329.5C 272.448,329.649 271.448,329.483 270.5,329C 268.924,326.923 266.924,325.423 264.5,324.5C 263.528,328.467 262.695,332.467 262,336.5C 258.974,333.974 255.807,331.64 252.5,329.5C 251.614,328.675 251.281,327.675 251.5,326.5C 252.36,317.319 254.194,308.319 257,299.5C 259.564,293.771 263.397,289.105 268.5,285.5 Z"/></g>
<g><path style="opacity:0.979" fill="#576288" d="M 125.5,298.5 C 126.693,298.97 127.36,299.97 127.5,301.5C 127.597,304.911 125.93,306.245 122.5,305.5C 122.5,303.5 122.5,301.5 122.5,299.5C 123.391,298.89 124.391,298.557 125.5,298.5 Z"/></g>
<g><path style="opacity:0.953" fill="#d6dac5" d="M 231.5,287.5 C 233.74,288.568 235.574,290.234 237,292.5C 242.742,302.359 245.909,313.026 246.5,324.5C 246.66,326.199 246.494,327.866 246,329.5C 242.662,332.008 239.495,334.675 236.5,337.5C 235.833,333.167 235.167,328.833 234.5,324.5C 231.55,326.115 228.884,328.115 226.5,330.5C 225.516,327.572 225.183,324.572 225.5,321.5C 222.557,321.647 219.724,322.313 217,323.5C 216.5,323.167 216,322.833 215.5,322.5C 222.769,311.634 228.102,299.968 231.5,287.5 Z"/></g>
<g><path style="opacity:0.977" fill="#51597e" d="M 120.5,269.5 C 118.549,273.634 117.716,277.967 118,282.5C 119.955,283.453 121.622,284.787 123,286.5C 124.325,292.021 122.159,295.355 116.5,296.5C 115.203,298.973 115.203,301.307 116.5,303.5C 116.165,314.563 120.832,322.563 130.5,327.5C 133.139,323.088 135.973,322.754 139,326.5C 139.098,331.218 141.265,332.551 145.5,330.5C 142.229,325.057 143.896,322.057 150.5,321.5C 154.423,324.585 154.423,327.752 150.5,331C 155.587,331.252 160.587,330.585 165.5,329C 182.378,323.595 197.712,315.428 211.5,304.5C 211.833,304.833 212.167,305.167 212.5,305.5C 204.665,319.171 200.165,333.838 199,349.5C 202.85,352.036 207.017,352.703 211.5,351.5C 214.745,344.676 218.245,338.009 222,331.5C 222.5,340.494 222.666,349.494 222.5,358.5C 225.241,358.707 227.574,359.707 229.5,361.5C 227.97,362.067 226.47,362.733 225,363.5C 221.624,361.344 218.124,359.344 214.5,357.5C 213.808,358.025 213.308,358.692 213,359.5C 211.484,356.949 210.651,357.282 210.5,360.5C 208.379,360.325 206.379,360.659 204.5,361.5C 200.161,359.811 195.828,358.477 191.5,357.5C 190.537,354.256 189.204,351.256 187.5,348.5C 188.709,344.411 190.209,340.411 192,336.5C 196.75,327.654 201.416,318.987 206,310.5C 191.468,323.685 175.302,334.518 157.5,343C 143.573,348.433 129.24,349.933 114.5,347.5C 110.251,345.912 106.918,343.245 104.5,339.5C 102.532,324.912 102.032,310.245 103,295.5C 103.661,287.686 105.828,280.353 109.5,273.5C 111.821,273.771 113.821,273.104 115.5,271.5C 116.086,271.709 116.586,272.043 117,272.5C 117.759,270.937 118.926,269.937 120.5,269.5 Z"/></g>
<g><path style="opacity:0.985" fill="#566087" d="M 122.5,308.5 C 126.295,307.959 128.295,309.625 128.5,313.5C 127.531,316.987 125.198,318.32 121.5,317.5C 121.489,315.453 121.156,313.453 120.5,311.5C 120.942,310.261 121.609,309.261 122.5,308.5 Z"/></g>
<g><path style="opacity:0.971" fill="#51587b" d="M 387.5,260.5 C 389.954,262.488 392.621,263.321 395.5,263C 393.565,264.238 391.565,264.738 389.5,264.5C 391.36,265.325 393.026,266.325 394.5,267.5C 391.513,267.998 388.513,268.498 385.5,269C 391.174,276.502 394.34,285.002 395,294.5C 395.68,308.848 395.514,323.181 394.5,337.5C 391.511,343.835 386.511,347.502 379.5,348.5C 366.002,349.852 353.002,348.019 340.5,343C 322.386,334.696 306.386,323.53 292.5,309.5C 297.277,312.06 301.944,314.893 306.5,318C 311.299,320.735 316.299,322.902 321.5,324.5C 321.67,323.178 321.337,322.011 320.5,321C 321.861,319.416 322.528,317.582 322.5,315.5C 326.179,315.724 329.846,316.058 333.5,316.5C 333.628,320.881 333.295,325.215 332.5,329.5C 345.645,333.11 358.312,331.944 370.5,326C 371.293,322.589 371.793,319.089 372,315.5C 374.369,315.273 376.869,315.107 379.5,315C 380.337,313.989 380.67,312.822 380.5,311.5C 382.031,306.75 382.698,301.75 382.5,296.5C 383.93,296.579 385.264,296.246 386.5,295.5C 387.474,293.257 387.808,290.924 387.5,288.5C 385.833,288.5 384.167,288.5 382.5,288.5C 381.59,278.828 378.257,270.162 372.5,262.5C 377.492,261.668 382.492,261.001 387.5,260.5 Z"/></g>
<g><path style="opacity:0.965" fill="#535c80" d="M 356.5,321.5 C 360.908,321.062 362.575,323.062 361.5,327.5C 359.5,327.5 357.5,327.5 355.5,327.5C 355.325,325.379 355.659,323.379 356.5,321.5 Z"/></g>
<g><path style="opacity:0.975" fill="#545d83" d="M 344.5,319.5 C 346.167,319.5 347.833,319.5 349.5,319.5C 349.664,322.187 349.497,324.854 349,327.5C 344.859,330.584 342.026,329.584 340.5,324.5C 341.127,322.213 342.46,320.546 344.5,319.5 Z"/></g>
<g><path style="opacity:0.346" fill="#31251a" d="M 187.5,348.5 C 187.167,348.5 186.833,348.5 186.5,348.5C 185.833,344.5 185.167,340.5 184.5,336.5C 181.393,336.351 178.393,336.851 175.5,338C 153.86,349.986 130.526,355.486 105.5,354.5C 108.398,351.902 111.398,349.569 114.5,347.5C 129.24,349.933 143.573,348.433 157.5,343C 175.302,334.518 191.468,323.685 206,310.5C 201.416,318.987 196.75,327.654 192,336.5C 190.209,340.411 188.709,344.411 187.5,348.5 Z"/></g>
<g><path style="opacity:0.211" fill="#3f2f20" d="M 386.5,350.5 C 389.438,352.912 392.771,354.745 396.5,356C 397.252,356.671 397.586,357.504 397.5,358.5C 394.054,360.172 390.887,359.839 388,357.5C 387.439,358.022 386.772,358.355 386,358.5C 374.538,357.044 363.038,355.544 351.5,354C 341.666,351.336 332.166,347.836 323,343.5C 321.289,343.439 319.956,344.106 319,345.5C 318.762,349.222 318.262,352.889 317.5,356.5C 318.065,358.747 317.399,360.747 315.5,362.5C 314.693,359.704 313.693,356.87 312.5,354C 313.516,353.481 314.182,352.647 314.5,351.5C 313.94,347.605 313.274,343.772 312.5,340C 314.975,336.037 318.308,335.37 322.5,338C 342.639,350.215 363.972,354.382 386.5,350.5 Z"/></g>
<g><path style="opacity:0.977" fill="#51597e" d="M 292.5,309.5 C 291.761,309.369 291.094,309.536 290.5,310C 298.743,321.487 305.41,333.82 310.5,347C 308.86,350.756 307.526,354.589 306.5,358.5C 292.203,360.732 280.036,367.065 270,377.5C 266.429,381.975 263.929,386.975 262.5,392.5C 261.778,392.918 261.278,393.584 261,394.5C 258.554,390.606 256.388,386.606 254.5,382.5C 254.783,381.711 255.283,381.044 256,380.5C 258.181,381.702 260.681,381.702 263.5,380.5C 264.96,378.274 265.96,376.107 266.5,374C 264.866,373.506 263.199,373.34 261.5,373.5C 261.671,376.797 261.005,377.131 259.5,374.5C 258.549,375.326 257.549,375.492 256.5,375C 256.255,372.911 256.255,370.911 256.5,369C 255.833,368.667 255.167,368.333 254.5,368C 256.246,367.529 257.913,366.862 259.5,366C 256.165,365.232 252.999,364.066 250,362.5C 250.186,355.191 250.353,347.858 250.5,340.5C 254.381,348.3 258.548,355.967 263,363.5C 267.349,361.492 271.682,359.492 276,357.5C 276.333,349.167 276.667,340.833 277,332.5C 280.627,338.92 284.127,345.42 287.5,352C 291.473,351.709 295.473,351.209 299.5,350.5C 298.397,333.693 293.397,318.193 284.5,304C 285.167,303.333 285.833,303.333 286.5,304C 288.396,306.068 290.396,307.901 292.5,309.5 Z"/></g>
<g><path style="opacity:0.949" fill="#1e1e21" d="M 104.5,339.5 C 106.918,343.245 110.251,345.912 114.5,347.5C 111.398,349.569 108.398,351.902 105.5,354.5C 101.56,357.285 97.8935,360.285 94.5,363.5C 93.1667,363.5 92.5,362.833 92.5,361.5C 96.7423,356.836 100.076,351.503 102.5,345.5C 103.73,343.703 104.396,341.703 104.5,339.5 Z"/></g>
<g><path style="opacity:0.919" fill="#221f20" d="M 394.5,337.5 C 394.301,340.941 394.801,344.274 396,347.5C 398.266,350.859 400.433,354.192 402.5,357.5C 402.5,358.167 402.833,358.5 403.5,358.5C 405.319,359.936 405.652,361.603 404.5,363.5C 402.674,361.09 400.34,359.423 397.5,358.5C 397.586,357.504 397.252,356.671 396.5,356C 392.771,354.745 389.438,352.912 386.5,350.5C 384.401,349.388 382.067,348.721 379.5,348.5C 386.511,347.502 391.511,343.835 394.5,337.5 Z"/></g>
<g><path style="opacity:0.98" fill="#262427" d="M 186.5,348.5 C 186.833,348.5 187.167,348.5 187.5,348.5C 189.204,351.256 190.537,354.256 191.5,357.5C 190.566,358.568 190.232,359.901 190.5,361.5C 188.901,361.232 187.568,361.566 186.5,362.5C 185.833,362.5 185.5,362.833 185.5,363.5C 184.694,366.422 183.694,366.756 182.5,364.5C 184.152,359.226 185.485,353.892 186.5,348.5 Z"/></g>
<g><path style="opacity:0.119" fill="#463423" d="M 186.5,348.5 C 185.485,353.892 184.152,359.226 182.5,364.5C 183.694,366.756 184.694,366.422 185.5,363.5C 193.257,366.858 201.257,369.691 209.5,372C 214.359,375.498 218.859,379.331 223,383.5C 226.452,390.217 229.285,397.05 231.5,404C 230.707,405.085 230.04,406.252 229.5,407.5C 229.794,414.632 231.128,421.465 233.5,428C 232.446,429.388 232.28,430.888 233,432.5C 235.612,437.054 238.612,440.721 242,443.5C 245.004,442.713 247.837,443.379 250.5,445.5C 250.833,444.833 251.167,444.167 251.5,443.5C 254.394,445.821 257.727,446.988 261.5,447C 274.546,447.324 287.546,447.491 300.5,447.5C 309.901,447.031 319.234,446.031 328.5,444.5C 332.702,444.765 336.869,445.098 341,445.5C 344.424,444.065 347.924,442.731 351.5,441.5C 356.254,443.629 359.921,442.629 362.5,438.5C 367.833,438.5 373.167,438.5 378.5,438.5C 378.154,442.667 375.82,444.5 371.5,444C 370.789,445.255 369.956,446.421 369,447.5C 366.848,446.819 364.348,446.486 361.5,446.5C 357.196,447.628 352.862,448.628 348.5,449.5C 341.341,449.72 334.341,449.387 327.5,448.5C 326.167,449.167 324.833,449.833 323.5,450.5C 316.183,450.623 309.016,450.29 302,449.5C 288.489,450.216 275.155,450.883 262,451.5C 252.692,449.9 244.192,447.067 236.5,443C 232.897,440.296 230.397,436.796 229,432.5C 227.593,426.708 226.427,420.875 225.5,415C 226.167,414 226.833,413 227.5,412C 226.167,409.333 226.167,406.667 227.5,404C 226.245,398.299 224.412,392.799 222,387.5C 217.5,383.333 213,379.167 208.5,375C 200.899,372.26 193.066,370.426 185,369.5C 177.626,365.866 174.46,360.033 175.5,352C 173.824,347.763 171.49,347.096 168.5,350C 153.709,356.43 138.376,359.763 122.5,360C 115.841,361.174 109.507,363.174 103.5,366C 99.8333,366.667 96.1667,366.667 92.5,366C 93.756,365.583 94.4226,364.75 94.5,363.5C 97.8935,360.285 101.56,357.285 105.5,354.5C 130.526,355.486 153.86,349.986 175.5,338C 178.393,336.851 181.393,336.351 184.5,336.5C 185.167,340.5 185.833,344.5 186.5,348.5 Z"/></g>
<g><path style="opacity:0.118" fill="#463423" d="M 314.5,366.5 C 314.64,368.124 313.973,369.29 312.5,370C 294.937,370.27 281.937,377.936 273.5,393C 273.957,393.414 274.291,393.914 274.5,394.5C 270.098,401.809 271.264,408.142 278,413.5C 278.725,412.941 279.558,412.608 280.5,412.5C 288.724,415.43 297.057,416.93 305.5,417C 308.327,419.414 311.494,419.581 315,417.5C 317.193,418.773 319.36,419.106 321.5,418.5C 324.039,419.115 326.539,419.782 329,420.5C 341.548,420.507 354.048,422.007 366.5,425C 367.469,426.758 368.636,427.258 370,426.5C 372.172,427.912 374.338,428.412 376.5,428C 378.113,430.228 378.78,432.728 378.5,435.5C 370.084,435.717 361.75,435.05 353.5,433.5C 345.719,431.381 337.885,429.048 330,426.5C 329.127,426.735 328.293,427.069 327.5,427.5C 324.145,424.761 320.478,424.095 316.5,425.5C 311.684,424.003 306.851,422.67 302,421.5C 301.586,421.957 301.086,422.291 300.5,422.5C 293.214,421.144 285.881,419.977 278.5,419C 272.841,418.004 269.007,414.838 267,409.5C 265.509,396.157 269.842,385.157 280,376.5C 280.483,375.552 280.649,374.552 280.5,373.5C 290.523,369.213 300.689,365.213 311,361.5C 312.176,363.196 313.343,364.862 314.5,366.5 Z"/></g>
<g><path style="opacity:0.85" fill="#505676" d="M 247.5,335.5 C 248.319,338.305 248.819,341.305 249,344.5C 249.181,341.305 249.681,338.305 250.5,335.5C 250.5,337.167 250.5,338.833 250.5,340.5C 250.353,347.858 250.186,355.191 250,362.5C 252.999,364.066 256.165,365.232 259.5,366C 257.913,366.862 256.246,367.529 254.5,368C 255.167,368.333 255.833,368.667 256.5,369C 256.255,370.911 256.255,372.911 256.5,375C 257.549,375.492 258.549,375.326 259.5,374.5C 261.005,377.131 261.671,376.797 261.5,373.5C 263.199,373.34 264.866,373.506 266.5,374C 265.96,376.107 264.96,378.274 263.5,380.5C 260.681,381.702 258.181,381.702 256,380.5C 255.283,381.044 254.783,381.711 254.5,382.5C 252.686,380.236 250.853,377.903 249,375.5C 244.72,381.063 241.22,387.063 238.5,393.5C 237.833,393.833 237.167,394.167 236.5,394.5C 233.591,383.86 227.591,375.36 218.5,369C 213.899,366.202 209.232,363.702 204.5,361.5C 206.379,360.659 208.379,360.325 210.5,360.5C 210.651,357.282 211.484,356.949 213,359.5C 213.308,358.692 213.808,358.025 214.5,357.5C 218.124,359.344 221.624,361.344 225,363.5C 226.47,362.733 227.97,362.067 229.5,361.5C 231.366,362.014 233.2,362.68 235,363.5C 239.455,356.604 243.455,349.271 247,341.5C 247.495,339.527 247.662,337.527 247.5,335.5 Z"/></g>
<g><path style="opacity:0.345" fill="#35281c" d="M 191.5,357.5 C 195.828,358.477 200.161,359.811 204.5,361.5C 209.232,363.702 213.899,366.202 218.5,369C 227.591,375.36 233.591,383.86 236.5,394.5C 236.784,406.781 237.45,419.114 238.5,431.5C 236.441,428.389 234.608,425.056 233,421.5C 233.347,417.539 233.513,413.706 233.5,410C 233.05,408.715 232.383,407.548 231.5,406.5C 232.167,405.833 232.833,405.167 233.5,404.5C 231.792,399.638 230.292,394.638 229,389.5C 226.446,386.64 224.779,383.307 224,379.5C 222.5,378 221,376.5 219.5,375C 213.929,372.881 208.596,370.215 203.5,367C 197.626,365.949 191.96,364.449 186.5,362.5C 187.568,361.566 188.901,361.232 190.5,361.5C 190.232,359.901 190.566,358.568 191.5,357.5 Z"/></g>
<g><path style="opacity:0.333" fill="#32271c" d="M 292.5,309.5 C 306.386,323.53 322.386,334.696 340.5,343C 353.002,348.019 366.002,349.852 379.5,348.5C 382.067,348.721 384.401,349.388 386.5,350.5C 363.972,354.382 342.639,350.215 322.5,338C 318.308,335.37 314.975,336.037 312.5,340C 313.274,343.772 313.94,347.605 314.5,351.5C 314.182,352.647 313.516,353.481 312.5,354C 313.693,356.87 314.693,359.704 315.5,362.5C 315.768,364.099 315.434,365.432 314.5,366.5C 313.343,364.862 312.176,363.196 311,361.5C 300.689,365.213 290.523,369.213 280.5,373.5C 280.649,374.552 280.483,375.552 280,376.5C 269.842,385.157 265.509,396.157 267,409.5C 269.007,414.838 272.841,418.004 278.5,419C 285.881,419.977 293.214,421.144 300.5,422.5C 301.086,422.291 301.586,421.957 302,421.5C 306.851,422.67 311.684,424.003 316.5,425.5C 320.478,424.095 324.145,424.761 327.5,427.5C 328.293,427.069 329.127,426.735 330,426.5C 337.885,429.048 345.719,431.381 353.5,433.5C 341.266,431.392 328.933,429.892 316.5,429C 312.218,428.763 308.218,427.597 304.5,425.5C 303.328,425.919 302.328,426.585 301.5,427.5C 296.699,425.681 291.699,425.014 286.5,425.5C 279.8,425.83 273.134,425.497 266.5,424.5C 265.672,423.585 264.672,422.919 263.5,422.5C 261.172,412.598 260.839,402.598 262.5,392.5C 263.929,386.975 266.429,381.975 270,377.5C 280.036,367.065 292.203,360.732 306.5,358.5C 307.526,354.589 308.86,350.756 310.5,347C 305.41,333.82 298.743,321.487 290.5,310C 291.094,309.536 291.761,309.369 292.5,309.5 Z"/></g>
<g><path style="opacity:0.831" fill="#23201f" d="M 238.5,393.5 C 240.5,393.5 242.5,393.5 244.5,393.5C 244.5,394.833 244.5,396.167 244.5,397.5C 246.355,397.272 247.188,397.939 247,399.5C 246.085,400.328 245.419,401.328 245,402.5C 244.61,398.834 243.443,398.668 241.5,402C 242.974,403.316 244.641,404.316 246.5,405C 245.833,405.667 245.167,406.333 244.5,407C 248.48,407.439 249.147,408.939 246.5,411.5C 247.711,412.72 247.711,413.887 246.5,415C 248.014,418.287 250.347,420.953 253.5,423C 251.901,424.066 250.901,425.566 250.5,427.5C 253.408,428.407 256.242,428.073 259,426.5C 259.645,427.646 260.478,428.646 261.5,429.5C 261.291,430.086 260.957,430.586 260.5,431C 265.694,431.989 265.694,433.156 260.5,434.5C 259.74,433.511 258.573,432.845 257,432.5C 255.393,432.769 254.226,433.603 253.5,435C 255.5,435.667 257.5,436.333 259.5,437C 258.692,437.308 258.025,437.808 257.5,438.5C 260.898,438.962 264.564,439.295 268.5,439.5C 275.431,438.278 282.431,437.445 289.5,437C 290.833,436 290.833,435 289.5,434C 290.949,432.883 292.616,432.216 294.5,432C 292.326,429.057 289.66,426.891 286.5,425.5C 291.699,425.014 296.699,425.681 301.5,427.5C 302.328,426.585 303.328,425.919 304.5,425.5C 308.218,427.597 312.218,428.763 316.5,429C 328.933,429.892 341.266,431.392 353.5,433.5C 361.75,435.05 370.084,435.717 378.5,435.5C 383.767,436.562 383.767,437.562 378.5,438.5C 373.167,438.5 367.833,438.5 362.5,438.5C 334.449,438.107 306.449,439.107 278.5,441.5C 270.487,441.333 262.487,441 254.5,440.5C 254.5,439.5 254.5,438.5 254.5,437.5C 251.289,437.012 248.456,437.679 246,439.5C 241.917,438.252 239.417,435.585 238.5,431.5C 237.45,419.114 236.784,406.781 236.5,394.5C 237.167,394.167 237.833,393.833 238.5,393.5 Z"/></g>
<g><path style="opacity:0.915" fill="#1d1b1d" d="M 254.5,382.5 C 256.388,386.606 258.554,390.606 261,394.5C 261.278,393.584 261.778,392.918 262.5,392.5C 260.839,402.598 261.172,412.598 263.5,422.5C 264.672,422.919 265.672,423.585 266.5,424.5C 273.134,425.497 279.8,425.83 286.5,425.5C 289.66,426.891 292.326,429.057 294.5,432C 292.616,432.216 290.949,432.883 289.5,434C 290.833,435 290.833,436 289.5,437C 282.431,437.445 275.431,438.278 268.5,439.5C 264.564,439.295 260.898,438.962 257.5,438.5C 258.025,437.808 258.692,437.308 259.5,437C 257.5,436.333 255.5,435.667 253.5,435C 254.226,433.603 255.393,432.769 257,432.5C 258.573,432.845 259.74,433.511 260.5,434.5C 265.694,433.156 265.694,431.989 260.5,431C 260.957,430.586 261.291,430.086 261.5,429.5C 260.478,428.646 259.645,427.646 259,426.5C 256.242,428.073 253.408,428.407 250.5,427.5C 250.901,425.566 251.901,424.066 253.5,423C 250.347,420.953 248.014,418.287 246.5,415C 247.711,413.887 247.711,412.72 246.5,411.5C 249.147,408.939 248.48,407.439 244.5,407C 245.167,406.333 245.833,405.667 246.5,405C 244.641,404.316 242.974,403.316 241.5,402C 243.443,398.668 244.61,398.834 245,402.5C 245.419,401.328 246.085,400.328 247,399.5C 247.188,397.939 246.355,397.272 244.5,397.5C 244.5,396.167 244.5,394.833 244.5,393.5C 242.5,393.5 240.5,393.5 238.5,393.5C 241.22,387.063 244.72,381.063 249,375.5C 250.853,377.903 252.686,380.236 254.5,382.5 Z"/></g>
<g><path style="opacity:0.008" fill="#4f3d28" d="M 386.5,421.5 C 387.833,422.167 387.833,422.167 386.5,421.5 Z"/></g>
<g><path style="opacity:0.205" fill="#3e2f20" d="M 185.5,363.5 C 185.5,362.833 185.833,362.5 186.5,362.5C 191.96,364.449 197.626,365.949 203.5,367C 208.596,370.215 213.929,372.881 219.5,375C 221,376.5 222.5,378 224,379.5C 224.779,383.307 226.446,386.64 229,389.5C 230.292,394.638 231.792,399.638 233.5,404.5C 232.833,405.167 232.167,405.833 231.5,406.5C 232.383,407.548 233.05,408.715 233.5,410C 233.513,413.706 233.347,417.539 233,421.5C 234.608,425.056 236.441,428.389 238.5,431.5C 239.417,435.585 241.917,438.252 246,439.5C 248.456,437.679 251.289,437.012 254.5,437.5C 254.5,438.5 254.5,439.5 254.5,440.5C 262.487,441 270.487,441.333 278.5,441.5C 306.449,439.107 334.449,438.107 362.5,438.5C 359.921,442.629 356.254,443.629 351.5,441.5C 347.924,442.731 344.424,444.065 341,445.5C 336.869,445.098 332.702,444.765 328.5,444.5C 319.234,446.031 309.901,447.031 300.5,447.5C 287.546,447.491 274.546,447.324 261.5,447C 257.727,446.988 254.394,445.821 251.5,443.5C 251.167,444.167 250.833,444.833 250.5,445.5C 247.837,443.379 245.004,442.713 242,443.5C 238.612,440.721 235.612,437.054 233,432.5C 232.28,430.888 232.446,429.388 233.5,428C 231.128,421.465 229.794,414.632 229.5,407.5C 230.04,406.252 230.707,405.085 231.5,404C 229.285,397.05 226.452,390.217 223,383.5C 218.859,379.331 214.359,375.498 209.5,372C 201.257,369.691 193.257,366.858 185.5,363.5 Z"/></g>
</svg>
