<?xml version="1.0" encoding="UTF-8"?>
<!DOCTYPE svg PUBLIC "-//W3C//DTD SVG 1.1//EN" "http://www.w3.org/Graphics/SVG/1.1/DTD/svg11.dtd">
<svg xmlns="http://www.w3.org/2000/svg" version="1.1" width="500px" height="500px" style="shape-rendering:geometricPrecision; text-rendering:geometricPrecision; image-rendering:optimizeQuality; fill-rule:evenodd; clip-rule:evenodd" xmlns:xlink="http://www.w3.org/1999/xlink">
<g><path style="opacity:0.03" fill="#4e3b27" d="M 455.5,254.5 C 454.167,254.833 454.167,255.167 455.5,255.5C 453.654,259.511 450.654,262.345 446.5,264C 446.833,264.333 447.167,264.667 447.5,265C 439.334,271.123 433.334,278.289 429.5,286.5C 425.167,287.5 422.5,290.167 421.5,294.5C 417.167,295.5 414.5,298.167 413.5,302.5C 407.011,305.853 401.511,310.519 397,316.5C 389.77,332.906 382.77,348.906 376,364.5C 373.157,367.584 369.824,369.917 366,371.5C 365.762,375.222 365.262,378.889 364.5,382.5C 365.244,396.837 365.577,411.004 365.5,425C 365.398,432.036 363.565,438.536 360,444.5C 358.167,445.667 356.333,446.833 354.5,448C 334.108,454.686 313.442,460.353 292.5,465C 280.574,466.258 269.907,463.925 260.5,458C 258.444,457.689 256.444,457.189 254.5,456.5C 252.327,453.828 249.827,451.494 247,449.5C 246.208,447.413 245.041,445.579 243.5,444C 241.382,443.74 239.716,442.74 238.5,441C 238.833,440.667 239.167,440.333 239.5,440C 237.382,439.74 235.716,438.74 234.5,437C 234.957,436.586 235.291,436.086 235.5,435.5C 232.778,433.675 232.111,431.342 233.5,428.5C 232.833,427.833 232.167,427.167 231.5,426.5C 230.905,422.233 231.571,418.066 233.5,414C 233.152,411.945 233.819,409.945 235.5,408C 237.957,406.438 240.624,405.438 243.5,405C 254.153,404.124 264.82,403.457 275.5,403C 276.938,402.781 278.271,402.281 279.5,401.5C 267.805,395.46 261.638,385.793 261,372.5C 260.667,364.5 260.333,356.5 260,348.5C 258.307,346.396 256.14,344.896 253.5,344C 252.174,341.842 250.507,340.008 248.5,338.5C 246.724,340.538 245.057,342.704 243.5,345C 241.043,346.562 238.376,347.562 235.5,348C 222.542,349.544 209.542,349.877 196.5,349C 192.232,348.466 188.232,347.133 184.5,345C 181.94,340.206 179.606,335.373 177.5,330.5C 173.215,333.558 168.715,336.225 164,338.5C 163.226,346.038 161.559,353.372 159,360.5C 155.167,365 151.333,369.5 147.5,374C 143.339,375.737 139.005,376.737 134.5,377C 126.5,377.333 118.5,377.667 110.5,378C 101.358,384.87 91.3577,386.203 80.5,382C 76.2548,378.187 73.2548,373.52 71.5,368C 50.7392,360.006 39.5725,344.84 38,322.5C 36.4072,306.197 37.7405,290.197 42,274.5C 45.3963,269.569 47.8963,264.235 49.5,258.5C 52.0101,258.946 54.0101,258.28 55.5,256.5C 58.0508,253.874 61.0508,251.708 64.5,250C 63.9394,248.434 64.6061,247.101 66.5,246C 59.8345,229.904 53.5012,214.071 47.5,198.5C 46.1813,190.228 46.1813,182.062 47.5,174C 49.0456,171.743 50.7123,169.576 52.5,167.5C 50.7382,155.22 49.2382,142.887 48,130.5C 47.7371,122.443 47.5704,114.777 47.5,107.5C 48.1951,104.72 49.1951,102.053 50.5,99.5C 51.2739,98.2888 52.1072,98.2888 53,99.5C 53.4828,98.552 53.6495,97.552 53.5,96.5C 57.0624,96.4362 58.7291,94.6028 58.5,91C 56.9517,81.3561 54.7851,71.8561 52,62.5C 51.1097,55.086 51.443,47.7527 53,40.5C 53.8333,38.3333 55.3333,36.8333 57.5,36C 72.4732,31.9887 85.1398,35.6554 95.5,47C 106.49,52.4934 117.157,58.4934 127.5,65C 129.333,66.8333 131.167,68.6667 133,70.5C 134.989,78.7704 136.656,87.1037 138,95.5C 139.039,97.7463 140.206,99.913 141.5,102C 149.626,102.911 157.626,104.411 165.5,106.5C 168.59,115.65 169.257,124.983 167.5,134.5C 173.176,134.666 178.843,134.499 184.5,134C 186.051,129.232 187.551,124.398 189,119.5C 193.453,114.838 198.953,112.838 205.5,113.5C 209.524,113.907 213.524,114.074 217.5,114C 219.254,110.336 220.754,106.503 222,102.5C 226.564,98.2068 232.064,96.2068 238.5,96.5C 244.806,97.6643 251.139,98.1643 257.5,98C 261.11,94.361 265.444,92.0276 270.5,91C 276.928,90.8354 283.262,90.8354 289.5,91C 292.171,92.25 294.337,94.0833 296,96.5C 298.11,101.055 299.944,105.722 301.5,110.5C 306.839,111.303 312.173,112.137 317.5,113C 320.034,113.516 322.2,114.683 324,116.5C 325.884,121.668 327.051,127.002 327.5,132.5C 333.048,133.308 338.381,134.808 343.5,137C 346.004,141.825 347.504,146.992 348,152.5C 352.184,153.538 356.35,154.705 360.5,156C 361.667,157.167 362.833,158.333 364,159.5C 365.214,164.114 366.214,168.78 367,173.5C 371.243,174.293 375.41,175.46 379.5,177C 380.333,177.833 381.167,178.667 382,179.5C 382.863,182.959 384.03,186.293 385.5,189.5C 386.971,188.619 387.804,187.286 388,185.5C 391.473,169.924 395.64,154.591 400.5,139.5C 395.304,127.081 390.971,114.248 387.5,101C 387.937,97.1468 387.937,93.1468 387.5,89C 387.584,85.307 388.25,81.807 389.5,78.5C 389.167,77.8333 388.833,77.1667 388.5,76.5C 390.506,72.83 392.506,69.1634 394.5,65.5C 392.588,55.8325 393.588,46.4991 397.5,37.5C 399.131,35.7026 401.131,34.5359 403.5,34C 406.525,33.6393 409.525,33.1393 412.5,32.5C 414.029,32.5288 415.196,33.1955 416,34.5C 419.146,33.4506 422.312,33.6173 425.5,35C 435.273,41.6049 443.773,49.4382 451,58.5C 451.333,58.1667 451.667,57.8333 452,57.5C 455.937,61.7093 457.937,66.7093 458,72.5C 458.5,73 459,73.5 459.5,74C 458.949,75.3985 458.616,76.7318 458.5,78C 460.902,88.9876 460.902,99.9876 458.5,111C 459.561,154.34 459.728,197.84 459,241.5C 458.295,245.989 457.128,250.322 455.5,254.5 Z"/></g>
<g><path style="opacity:0.12" fill="#463523" d="M 412.5,40.5 C 415.079,41.2276 417.746,41.7276 420.5,42C 422.221,43.5272 424.221,44.5272 426.5,45C 429.374,48.3742 432.707,51.2075 436.5,53.5C 438.854,58.1284 442.354,61.7951 447,64.5C 448.849,68.8851 450.849,73.2184 453,77.5C 453.744,80.8708 453.244,84.0375 451.5,87C 451.996,88.9964 452.996,90.6631 454.5,92C 453.833,92.3333 453.167,92.6667 452.5,93C 453.684,94.1803 454.351,95.6803 454.5,97.5C 453.879,99.9856 453.879,102.319 454.5,104.5C 453.419,106.211 452.085,107.711 450.5,109C 453.35,112.64 454.017,116.64 452.5,121C 453.167,122.333 453.833,123.667 454.5,125C 453.643,128.471 453.643,132.138 454.5,136C 452.646,137.29 452.313,138.79 453.5,140.5C 452.907,142.382 452.24,144.215 451.5,146C 454.622,149.681 455.289,153.848 453.5,158.5C 454.043,165.537 454.71,172.537 455.5,179.5C 455.721,183.603 455.054,187.77 453.5,192C 454.737,206.221 454.737,220.554 453.5,235C 452.264,238.097 451.597,241.097 451.5,244C 450.728,245.221 449.728,246.221 448.5,247C 449.308,247.308 449.975,247.808 450.5,248.5C 446.786,256.188 441.119,261.854 433.5,265.5C 432.09,268.496 430.09,270.996 427.5,273C 427.833,273.333 428.167,273.667 428.5,274C 425.802,274.912 423.135,276.579 420.5,279C 419.405,281.195 418.405,283.362 417.5,285.5C 412.403,289.719 407.736,294.386 403.5,299.5C 399.203,301.297 396.036,304.297 394,308.5C 392.516,312.132 390.516,315.466 388,318.5C 386.592,322.057 385.592,325.724 385,329.5C 379.924,337.151 375.757,345.318 372.5,354C 373.38,355.356 373.714,356.856 373.5,358.5C 367.867,360.421 363.033,363.755 359,368.5C 358.469,372.477 358.969,376.31 360.5,380C 359.833,381 359.167,382 358.5,383C 358.934,395.763 359.267,408.763 359.5,422C 359.138,425.704 357.805,429.038 355.5,432C 356.337,433.011 356.67,434.178 356.5,435.5C 355.5,435.5 354.5,435.5 353.5,435.5C 354,439.493 352.5,441.16 349,440.5C 346.546,443.281 343.546,445.281 340,446.5C 339.667,446.167 339.333,445.833 339,445.5C 337.266,446.249 335.433,446.749 333.5,447C 328.665,448.982 323.665,450.648 318.5,452C 316.945,454.465 314.945,454.965 312.5,453.5C 309.885,455.279 307.218,455.945 304.5,455.5C 300.206,456.939 295.873,458.272 291.5,459.5C 286.731,459.572 282.064,459.405 277.5,459C 272.603,456.717 267.603,454.717 262.5,453C 255.721,446.887 249.221,440.387 243,433.5C 242.504,431.965 242.67,430.465 243.5,429C 240.408,425.638 239.908,421.805 242,417.5C 244.553,415.403 246.886,413.07 249,410.5C 250,410.833 251,411.167 252,411.5C 252.5,411 253,410.5 253.5,410C 266.643,410.116 279.31,408.616 291.5,405.5C 296.596,405.326 301.763,405.66 307,406.5C 307.465,405.069 308.299,403.903 309.5,403C 307.103,399.372 303.936,398.205 300,399.5C 295.972,398.157 291.805,397.324 287.5,397C 281.415,393.578 275.915,389.412 271,384.5C 264.996,372.132 262.996,359.132 265,345.5C 263.599,341.619 261.099,338.953 257.5,337.5C 254.487,330.782 251.987,323.782 250,316.5C 246.545,312.336 243.379,312.503 240.5,317C 241.913,322.549 241.746,328.049 240,333.5C 237.317,336.016 234.817,338.683 232.5,341.5C 227.959,342.269 223.459,343.269 219,344.5C 211.064,344.656 203.23,344.156 195.5,343C 195.833,342.667 196.167,342.333 196.5,342C 192.769,341.079 190.269,338.913 189,335.5C 188,334.833 187,334.167 186,333.5C 182.776,321.513 182.776,309.513 186,297.5C 186.745,295.797 187.579,294.13 188.5,292.5C 187.387,290.216 186.387,287.883 185.5,285.5C 184.002,283.841 182.502,282.175 181,280.5C 179.133,281.377 177.966,282.877 177.5,285C 177.739,292.58 178.073,300.413 178.5,308.5C 178.263,311.063 177.763,311.063 177,308.5C 176.587,318.581 172.42,325.748 164.5,330C 158.884,334.838 156.384,341.004 157,348.5C 154.083,352.666 151.416,356.999 149,361.5C 142.068,368.541 133.568,372.207 123.5,372.5C 119.5,371.833 115.5,371.167 111.5,370.5C 105.211,372.988 98.878,375.321 92.5,377.5C 88.5478,374.907 84.5478,372.407 80.5,370C 75.7285,363.602 69.7285,358.602 62.5,355C 51.9103,345.809 45.9103,334.476 44.5,321C 42.945,316.668 41.945,312.168 41.5,307.5C 42.7994,304.301 42.7994,301.135 41.5,298C 43.9266,290.886 46.26,283.72 48.5,276.5C 51.4734,272.026 54.6401,267.693 58,263.5C 64.4631,259.205 69.2964,253.538 72.5,246.5C 71.6323,243.934 70.6323,241.434 69.5,239C 69.5012,237.601 69.8346,236.101 70.5,234.5C 68.4877,231.246 66.6543,227.912 65,224.5C 63.1489,215.9 60.1489,207.566 56,199.5C 53.8913,198.965 53.3913,197.965 54.5,196.5C 53.3887,195.389 52.722,194.055 52.5,192.5C 53.153,186.694 54.8196,181.194 57.5,176C 57.403,169.195 56.7364,162.361 55.5,155.5C 56.6085,150.259 55.9419,144.926 53.5,139.5C 54.3098,135.902 54.6431,132.402 54.5,129C 54.3893,127.278 53.8893,127.112 53,128.5C 52.4686,124.523 52.9686,120.69 54.5,117C 54.1667,116.667 53.8333,116.333 53.5,116C 54.1667,114.333 54.8333,112.667 55.5,111C 55.1667,110.667 54.8333,110.333 54.5,110C 56.7049,108.294 59.0383,106.794 61.5,105.5C 62.8732,103.51 63.8732,101.343 64.5,99C 64.1728,95.2461 64.0061,91.0794 64,86.5C 62.0053,76.4549 59.5053,66.2882 56.5,56C 59.2118,44.6437 66.2118,40.477 77.5,43.5C 82.8257,45.3281 87.159,48.4947 90.5,53C 95.2871,54.6981 99.9538,56.6981 104.5,59C 108.692,62.5316 113.359,65.1983 118.5,67C 122.75,70.579 126.25,74.7457 129,79.5C 130.525,87.2418 132.358,94.9084 134.5,102.5C 136.091,105.256 138.424,107.089 141.5,108C 145.338,109.474 149.338,110.474 153.5,111C 157.443,114.579 160.109,118.913 161.5,124C 160.833,125.333 159.833,126.333 158.5,127C 158.957,127.414 159.291,127.914 159.5,128.5C 157.065,133.847 155.065,139.347 153.5,145C 153.775,147.931 154.441,150.765 155.5,153.5C 155.069,154.293 154.735,155.127 154.5,156C 155.608,158.112 157.108,159.946 159,161.5C 162.041,155.917 165.208,150.417 168.5,145C 174.39,141.997 180.723,140.664 187.5,141C 190.427,136.897 192.593,132.397 194,127.5C 197.979,123.059 202.979,120.725 209,120.5C 218.26,123.882 223.927,120.882 226,111.5C 228.193,108.442 231.027,106.275 234.5,105C 236,104.5 237.5,104 239,103.5C 245.088,104.584 251.088,105.917 257,107.5C 263.557,102.878 270.723,99.2109 278.5,96.5C 282.278,98.354 285.944,100.354 289.5,102.5C 292.226,107.401 295.559,111.901 299.5,116C 301.974,118.099 304.641,118.599 307.5,117.5C 312.279,118.441 315.779,121.107 318,125.5C 319.927,128.948 321.261,132.615 322,136.5C 323.101,138.394 324.434,139.061 326,138.5C 329.87,139.787 333.536,141.453 337,143.5C 338.506,147.228 340.173,151.228 342,155.5C 346.07,159.12 350.57,162.12 355.5,164.5C 358.016,168.184 359.85,172.184 361,176.5C 363.518,179.508 366.684,181.508 370.5,182.5C 372.5,184.5 374.5,186.5 376.5,188.5C 377.396,191.144 378.229,193.81 379,196.5C 385.232,201.23 389.899,199.896 393,192.5C 393.606,189.287 394.773,186.287 396.5,183.5C 395.57,180.549 396.237,177.883 398.5,175.5C 398.167,174.833 397.833,174.167 397.5,173.5C 401.498,161.202 405.831,149.369 410.5,138C 409.11,135.294 407.944,132.461 407,129.5C 403.46,127.819 401.627,125.319 401.5,122C 398.189,113.391 395.189,104.725 392.5,96C 393.293,92.5894 393.793,89.0894 394,85.5C 394.473,83.221 395.473,81.221 397,79.5C 397.333,80.1667 397.667,80.8333 398,81.5C 399.097,76.9455 400.263,72.4455 401.5,68C 399.97,64.1681 398.97,60.1681 398.5,56C 400.035,53.0985 401.701,50.2652 403.5,47.5C 403.291,46.914 402.957,46.414 402.5,46C 406.016,44.4441 409.349,42.6108 412.5,40.5 Z"/></g>
<g><path style="opacity:0.749" fill="#8a4728" d="M 146.5,226.5 C 147.167,231.167 147.833,235.833 148.5,240.5C 148.5,241.167 148.5,241.833 148.5,242.5C 148.167,242.5 147.833,242.5 147.5,242.5C 146.512,237.36 146.179,232.026 146.5,226.5 Z"/></g>
<g><path style="opacity:0.955" fill="#c55c2d" d="M 130.5,218.5 C 132.795,221.297 135.295,223.964 138,226.5C 140.317,229.468 141.817,232.801 142.5,236.5C 140.117,247.75 138.117,259.083 136.5,270.5C 133.366,269.099 130.366,267.432 127.5,265.5C 126.828,264.733 125.995,264.066 125,263.5C 124.183,269.016 124.349,274.35 125.5,279.5C 127.479,282.146 129.812,284.479 132.5,286.5C 134.678,284.142 136.345,281.475 137.5,278.5C 138.338,278.158 138.672,277.492 138.5,276.5C 139.124,276.917 139.457,277.584 139.5,278.5C 138.67,280.828 137.837,283.162 137,285.5C 135.924,288.079 134.091,289.746 131.5,290.5C 127.888,288.391 124.722,285.724 122,282.5C 121.5,275.508 121.334,268.508 121.5,261.5C 121.5,260.5 121.5,259.5 121.5,258.5C 122.412,244.192 122.745,229.858 122.5,215.5C 125.406,215.957 128.072,216.957 130.5,218.5 Z"/></g>
<g><path style="opacity:0.9" fill="#613f1d" d="M 428.5,211.5 C 429.496,211.414 430.329,211.748 431,212.5C 431.65,215.784 432.816,218.784 434.5,221.5C 432.167,221.5 429.833,221.5 427.5,221.5C 426.167,221.5 424.833,221.5 423.5,221.5C 423.592,217.316 425.259,213.983 428.5,211.5 Z"/></g>
<g><path style="opacity:0.952" fill="#83b5ce" d="M 434.5,144.5 C 437.21,146.945 440.044,149.278 443,151.5C 443.667,181.167 443.667,210.833 443,240.5C 442.685,242.586 442.185,244.586 441.5,246.5C 440.71,245.391 440.21,244.058 440,242.5C 439,243.167 438,243.833 437,244.5C 434.713,243.456 432.547,242.456 430.5,241.5C 429.508,238.177 428.508,234.844 427.5,231.5C 427.5,228.167 427.5,224.833 427.5,221.5C 429.833,221.5 432.167,221.5 434.5,221.5C 432.816,218.784 431.65,215.784 431,212.5C 430.329,211.748 429.496,211.414 428.5,211.5C 428.5,208.167 428.5,204.833 428.5,201.5C 430.167,201.5 431.833,201.5 433.5,201.5C 432.552,198.86 431.552,196.193 430.5,193.5C 430.5,191.5 430.5,189.5 430.5,187.5C 431.833,187.5 433.167,187.5 434.5,187.5C 433.207,183.914 432.207,180.248 431.5,176.5C 431.5,174.5 431.5,172.5 431.5,170.5C 432.833,170.5 434.167,170.5 435.5,170.5C 434.833,166.5 434.167,162.5 433.5,158.5C 433.449,156.43 434.115,154.597 435.5,153C 434.652,150.23 434.319,147.397 434.5,144.5 Z"/></g>
<g><path style="opacity:0.342" fill="#281d12" d="M 420.5,155.5 C 419.5,160.833 418.5,166.167 417.5,171.5C 414.477,186.331 409.977,200.664 404,214.5C 402.404,217.369 400.57,220.036 398.5,222.5C 390.644,224.318 382.644,224.985 374.5,224.5C 367.579,219.579 361.579,213.579 356.5,206.5C 357.552,206.351 358.552,206.517 359.5,207C 360.826,209.158 362.493,210.992 364.5,212.5C 366.34,206.815 367.673,201.149 368.5,195.5C 368.557,201.35 370.557,206.35 374.5,210.5C 376.167,209.167 377.833,207.833 379.5,206.5C 380.262,207.628 380.929,208.795 381.5,210C 385.711,210.921 389.711,210.421 393.5,208.5C 395.477,205.688 397.644,203.022 400,200.5C 401.596,192.782 403.429,185.449 405.5,178.5C 408.635,177.489 410.301,175.322 410.5,172C 409.138,169.966 408.138,167.799 407.5,165.5C 409.681,165.716 411.347,164.883 412.5,163C 412.475,160.346 412.475,157.679 412.5,155C 414.06,152.069 416.393,150.403 419.5,150C 420.406,151.699 420.739,153.533 420.5,155.5 Z"/></g>
<g><path style="opacity:0.494" fill="#31271d" d="M 149.5,127.5 C 147.999,133.367 146.666,139.367 145.5,145.5C 148.807,177.984 158.474,179.984 174.5,151.5C 173.617,156.132 172.95,160.798 172.5,165.5C 174.921,165.122 177.254,164.455 179.5,163.5C 177.784,165.447 175.617,166.781 173,167.5C 172.667,167.167 172.333,166.833 172,166.5C 170.603,168.07 169.103,169.404 167.5,170.5C 152.049,176.838 144.882,188.504 146,205.5C 145.179,212.679 145.345,219.679 146.5,226.5C 146.179,232.026 146.512,237.36 147.5,242.5C 144.612,252.169 140.945,261.503 136.5,270.5C 138.117,259.083 140.117,247.75 142.5,236.5C 141.817,232.801 140.317,229.468 138,226.5C 135.295,223.964 132.795,221.297 130.5,218.5C 130.5,218.167 130.5,217.833 130.5,217.5C 133.797,220.296 136.964,223.296 140,226.5C 141.424,220.224 141.758,213.891 141,207.5C 135.577,200.573 130.744,193.24 126.5,185.5C 126.043,184.702 125.376,184.369 124.5,184.5C 125.551,183.778 126.218,182.778 126.5,181.5C 131.047,189.396 136.047,197.063 141.5,204.5C 142.75,196.416 144.417,188.416 146.5,180.5C 144.592,166.234 143.592,151.901 143.5,137.5C 142.5,137.5 141.5,137.5 140.5,137.5C 142.766,133.564 145.766,130.231 149.5,127.5 Z"/></g>
<g><path style="opacity:0.981" fill="#87bdd9" d="M 213.5,246.5 C 213.333,258.171 213.5,269.838 214,281.5C 214.5,282 215,282.5 215.5,283C 218.482,283.498 221.482,283.665 224.5,283.5C 224.5,286.167 224.5,288.833 224.5,291.5C 213.085,288.21 201.918,284.21 191,279.5C 190.793,261.147 190.127,242.813 189,224.5C 188.5,224 188,223.5 187.5,223C 180.808,222.169 174.142,222.336 167.5,223.5C 167.137,224.183 166.804,224.85 166.5,225.5C 165.67,234.658 165.17,243.991 165,253.5C 163.543,251.342 161.71,249.509 159.5,248C 160.451,247.282 160.617,246.449 160,245.5C 157.123,250.343 154.123,250.343 151,245.5C 150.667,245.833 150.333,246.167 150,246.5C 149.79,244.942 149.29,243.609 148.5,242.5C 148.5,241.833 148.5,241.167 148.5,240.5C 151.33,231.853 154.163,223.186 157,214.5C 158.211,211.241 160.044,208.408 162.5,206C 174.404,204.375 186.404,204.042 198.5,205C 199.931,205.465 201.097,206.299 202,207.5C 202.519,218.176 203.186,228.843 204,239.5C 205.922,243.597 209.088,245.93 213.5,246.5 Z"/></g>
<g><path style="opacity:0.487" fill="#2a1f13" d="M 66.5,48.5 C 67.063,55.415 68.563,62.0816 71,68.5C 72.9734,67.3601 74.8067,66.0267 76.5,64.5C 77.1835,64.8627 77.8501,65.1961 78.5,65.5C 76.0416,67.4557 73.7083,69.6223 71.5,72C 74.9862,87.4121 77.8196,102.912 80,118.5C 88.3811,132.415 98.5478,144.915 110.5,156C 113.583,157.139 116.583,158.472 119.5,160C 122.227,160.818 124.894,160.652 127.5,159.5C 131.38,151.573 135.38,143.74 139.5,136C 137.609,131.72 135.609,127.553 133.5,123.5C 133.5,121.833 133.5,120.167 133.5,118.5C 140.131,119.331 146.798,119.664 153.5,119.5C 153.5,120.167 153.833,120.5 154.5,120.5C 153.246,123.093 151.58,125.427 149.5,127.5C 145.766,130.231 142.766,133.564 140.5,137.5C 132.758,151.384 128.092,166.05 126.5,181.5C 126.218,182.778 125.551,183.778 124.5,184.5C 123.516,193.814 123.349,203.148 124,212.5C 126.352,214.03 128.519,215.697 130.5,217.5C 130.5,217.833 130.5,218.167 130.5,218.5C 128.072,216.957 125.406,215.957 122.5,215.5C 122.745,229.858 122.412,244.192 121.5,258.5C 119.698,251.905 118.865,244.905 119,237.5C 114.121,234.037 108.954,231.037 103.5,228.5C 96.1463,220.314 88.9796,211.981 82,203.5C 80.254,199.673 78.254,196.007 76,192.5C 74.8173,191.269 73.6507,191.269 72.5,192.5C 71.8131,196.914 69.4798,199.914 65.5,201.5C 64.485,195.615 63.1516,189.782 61.5,184C 61.8333,183.5 62.1667,183 62.5,182.5C 64.6416,183.601 66.8083,184.601 69,185.5C 70.3104,183.868 70.8104,182.201 70.5,180.5C 71.2652,181.612 72.2652,182.279 73.5,182.5C 82.4047,197.614 93.238,211.28 106,223.5C 110.989,219.848 115.989,216.181 121,212.5C 122.517,201.544 122.85,190.544 122,179.5C 107.823,161.172 93.1561,143.172 78,125.5C 74.0176,127.662 70.1843,129.995 66.5,132.5C 65.6413,131.047 64.808,129.047 64,126.5C 63.5006,120.843 63.3339,115.176 63.5,109.5C 65.5574,109.577 67.7241,109.577 70,109.5C 70.2382,105.778 70.7382,102.111 71.5,98.5C 69.2871,86.8432 67.1204,75.1766 65,63.5C 64.0993,58.2254 64.5993,53.2254 66.5,48.5 Z"/></g>
<g><path style="opacity:0.976" fill="#82b9d4" d="M 124.5,184.5 C 125.376,184.369 126.043,184.702 126.5,185.5C 130.744,193.24 135.577,200.573 141,207.5C 141.758,213.891 141.424,220.224 140,226.5C 136.964,223.296 133.797,220.296 130.5,217.5C 128.519,215.697 126.352,214.03 124,212.5C 123.349,203.148 123.516,193.814 124.5,184.5 Z"/></g>
<g><path style="opacity:0.971" fill="#1c1409" d="M 368.5,195.5 C 367.673,201.149 366.34,206.815 364.5,212.5C 362.493,210.992 360.826,209.158 359.5,207C 358.552,206.517 357.552,206.351 356.5,206.5C 356.611,205.883 356.944,205.383 357.5,205C 354.258,201.822 351.258,198.489 348.5,195C 348.905,194.055 349.572,193.388 350.5,193C 353.678,192.34 356.678,191.507 359.5,190.5C 362.833,190.167 366.167,189.833 369.5,189.5C 369.483,191.565 369.15,193.565 368.5,195.5 Z"/></g>
<g><path style="opacity:0.975" fill="#1c1409" d="M 350.5,176.5 C 348.93,181.314 347.596,186.314 346.5,191.5C 341.483,185.649 335.983,180.316 330,175.5C 329.517,174.552 329.351,173.552 329.5,172.5C 334.471,172.344 339.138,171.344 343.5,169.5C 345.806,169.007 348.139,168.674 350.5,168.5C 350.5,171.167 350.5,173.833 350.5,176.5 Z"/></g>
<g><path style="opacity:0.981" fill="#5f3914" d="M 301.5,145.5 C 302.833,147.167 304.167,148.833 305.5,150.5C 322.528,169.193 339.528,187.859 356.5,206.5C 361.579,213.579 367.579,219.579 374.5,224.5C 364.759,224.38 355.093,225.046 345.5,226.5C 346.973,218.759 348.64,211.092 350.5,203.5C 342.813,203.46 335.146,203.793 327.5,204.5C 329.156,197.211 330.49,189.878 331.5,182.5C 323.929,182.978 316.429,183.978 309,185.5C 308.5,185.167 308,184.833 307.5,184.5C 309.176,176.48 310.843,168.48 312.5,160.5C 306.714,160.312 301.047,160.978 295.5,162.5C 292.887,163.435 290.221,163.602 287.5,163C 289.561,155.165 291.394,147.332 293,139.5C 286.955,142.44 281.121,145.773 275.5,149.5C 271.557,143.278 268.391,136.611 266,129.5C 262.635,136.601 259.468,143.767 256.5,151C 255.167,151.667 253.833,151.667 252.5,151C 245.216,147.851 237.883,145.017 230.5,142.5C 229.816,147.9 228.816,153.233 227.5,158.5C 226.808,161.26 225.808,163.927 224.5,166.5C 215.604,162.703 206.604,159.537 197.5,157C 194.075,165.104 190.742,173.271 187.5,181.5C 182.5,178.333 177.5,175.167 172.5,172C 170.975,170.991 169.308,170.491 167.5,170.5C 169.103,169.404 170.603,168.07 172,166.5C 172.333,166.833 172.667,167.167 173,167.5C 175.617,166.781 177.784,165.447 179.5,163.5C 183.559,162.636 187.226,160.97 190.5,158.5C 195.522,155.796 200.522,153.13 205.5,150.5C 206.167,150.167 206.833,149.833 207.5,149.5C 225.54,140.646 243.54,131.479 261.5,122C 264.923,121.451 268.256,120.618 271.5,119.5C 274.528,119.847 277.194,121.014 279.5,123C 286.673,130.673 294.007,138.173 301.5,145.5 Z"/></g>
<g><path style="opacity:0.986" fill="#cb5e2d" d="M 295.5,162.5 C 301.047,160.978 306.714,160.312 312.5,160.5C 310.843,168.48 309.176,176.48 307.5,184.5C 308,184.833 308.5,185.167 309,185.5C 316.429,183.978 323.929,182.978 331.5,182.5C 330.49,189.878 329.156,197.211 327.5,204.5C 335.146,203.793 342.813,203.46 350.5,203.5C 348.64,211.092 346.973,218.759 345.5,226.5C 355.093,225.046 364.759,224.38 374.5,224.5C 382.644,224.985 390.644,224.318 398.5,222.5C 401.091,224.595 403.925,224.928 407,223.5C 409.057,225.633 410.557,227.633 411.5,229.5C 413.197,228.636 414.363,227.303 415,225.5C 417.339,227.14 418.172,229.14 417.5,231.5C 418.5,232.333 419.5,233.167 420.5,234C 417.383,236.715 413.883,238.881 410,240.5C 409.439,239.978 408.772,239.645 408,239.5C 403.602,243.461 399.102,243.461 394.5,239.5C 392.069,240.806 392.403,241.806 395.5,242.5C 393.017,246.436 391.851,246.436 392,242.5C 389.667,243.833 387.333,245.167 385,246.5C 384.667,245.833 384.333,245.167 384,244.5C 383,245.833 382,245.833 381,244.5C 380.311,245.357 379.478,246.023 378.5,246.5C 377.033,246.277 375.533,245.944 374,245.5C 373.667,246.5 373.333,247.5 373,248.5C 370.609,247.398 370.109,248.064 371.5,250.5C 373.475,250.492 375.309,249.492 377,247.5C 378.679,250.934 381.512,252.767 385.5,253C 385.112,254.601 384.445,256.435 383.5,258.5C 382.127,258.657 380.793,258.49 379.5,258C 380.743,256.846 381.743,255.512 382.5,254C 381.5,253.333 380.5,253.333 379.5,254C 380.34,255.666 379.84,255.833 378,254.5C 376.126,256.776 374.459,256.443 373,253.5C 372,254.167 371,254.833 370,255.5C 369.581,254.328 368.915,253.328 368,252.5C 365.783,252.937 363.449,252.937 361,252.5C 360.935,254.883 360.102,255.55 358.5,254.5C 357.522,254.977 356.689,255.643 356,256.5C 352.667,254.833 351.333,255.833 352,259.5C 353.065,257.604 353.898,257.437 354.5,259C 354.095,259.945 353.428,260.612 352.5,261C 353.167,261.333 353.833,261.667 354.5,262C 352.854,263.555 352.521,265.221 353.5,267C 348.427,268.436 348.427,269.936 353.5,271.5C 353.525,267.716 355.192,266.716 358.5,268.5C 359.768,270.905 360.435,273.572 360.5,276.5C 358.614,277.361 356.78,278.361 355,279.5C 354.667,300.167 354.333,320.833 354,341.5C 350.619,348.712 345.452,354.046 338.5,357.5C 333.864,358.149 329.198,358.649 324.5,359C 323.619,359.708 322.953,360.542 322.5,361.5C 321.393,372.555 315.726,375.555 305.5,370.5C 303.425,373.075 302.091,376.075 301.5,379.5C 300.5,379.833 299.5,380.167 298.5,380.5C 291.184,378.926 284.184,376.592 277.5,373.5C 276.589,364.874 276.255,356.208 276.5,347.5C 276.033,311.793 276.533,276.126 278,240.5C 279.141,238.391 280.641,236.558 282.5,235C 299.5,234.333 316.5,234.333 333.5,235C 336.473,236.765 338.64,239.265 340,242.5C 340.984,272.586 340.651,302.586 339,332.5C 337.786,334.049 336.286,335.215 334.5,336C 325.5,336.667 316.5,336.667 307.5,336C 305.324,335.837 303.491,335.004 302,333.5C 300.354,310.255 300.021,286.921 301,263.5C 301.465,262.069 302.299,260.903 303.5,260C 309.749,259.191 315.916,259.358 322,260.5C 322.833,277.51 322.666,294.51 321.5,311.5C 318.58,313.08 315.914,312.747 313.5,310.5C 312.502,301.525 312.168,292.525 312.5,283.5C 311.5,283.5 310.5,283.5 309.5,283.5C 309.141,293.224 309.641,302.891 311,312.5C 315.667,316.5 320.333,316.5 325,312.5C 325.467,294.484 325.8,276.484 326,258.5C 325.5,258 325,257.5 324.5,257C 320.667,256.833 316.833,256.667 313,256.5C 308.388,256.393 303.888,256.893 299.5,258C 298.874,258.75 298.374,259.584 298,260.5C 297.333,285.167 297.333,309.833 298,334.5C 299.543,336.378 301.376,337.878 303.5,339C 313.833,339.667 324.167,339.667 334.5,339C 337.558,337.782 340.224,335.949 342.5,333.5C 343.191,305.49 343.858,277.49 344.5,249.5C 344.483,241.287 340.817,235.454 333.5,232C 316.167,231.333 298.833,231.333 281.5,232C 276.935,234.056 274.602,237.556 274.5,242.5C 273.507,250.65 273.174,258.983 273.5,267.5C 271.5,267.5 269.5,267.5 267.5,267.5C 265.143,267.663 262.81,267.497 260.5,267C 253.464,263.933 246.13,261.767 238.5,260.5C 238.5,266.833 238.5,273.167 238.5,279.5C 232.591,278.545 226.591,278.211 220.5,278.5C 220.5,268.833 220.5,259.167 220.5,249.5C 224.007,248.994 227.174,249.66 230,251.5C 230.499,257.157 230.666,262.824 230.5,268.5C 229.5,268.5 228.5,268.5 227.5,268.5C 227.5,263.5 227.5,258.5 227.5,253.5C 226.167,253.5 224.833,253.5 223.5,253.5C 223.5,260.5 223.5,267.5 223.5,274.5C 227.5,274.5 231.5,274.5 235.5,274.5C 235.666,264.494 235.5,254.494 235,244.5C 228.582,243.357 222.082,243.19 215.5,244C 214.934,244.995 214.267,245.828 213.5,246.5C 209.088,245.93 205.922,243.597 204,239.5C 203.186,228.843 202.519,218.176 202,207.5C 201.097,206.299 199.931,205.465 198.5,205C 186.404,204.042 174.404,204.375 162.5,206C 160.044,208.408 158.211,211.241 157,214.5C 154.163,223.186 151.33,231.853 148.5,240.5C 147.833,235.833 147.167,231.167 146.5,226.5C 145.345,219.679 145.179,212.679 146,205.5C 144.882,188.504 152.049,176.838 167.5,170.5C 169.308,170.491 170.975,170.991 172.5,172C 177.5,175.167 182.5,178.333 187.5,181.5C 190.742,173.271 194.075,165.104 197.5,157C 206.604,159.537 215.604,162.703 224.5,166.5C 225.808,163.927 226.808,161.26 227.5,158.5C 228.268,157.737 228.768,156.737 229,155.5C 230.64,159.34 232.14,159.34 233.5,155.5C 236.07,156.634 238.736,157.468 241.5,158C 236.701,162.451 237.534,165.284 244,166.5C 246.954,166.406 247.121,165.906 244.5,165C 245,164.5 245.5,164 246,163.5C 249.364,166.557 252.03,170.224 254,174.5C 254.333,174.167 254.667,173.833 255,173.5C 257.521,176.315 259.187,175.982 260,172.5C 264.022,174.978 268.189,175.478 272.5,174C 274.928,170.902 277.928,168.569 281.5,167C 281.876,165.16 283.043,163.327 285,161.5C 286.828,163.403 286.661,165.236 284.5,167C 286.421,167.36 288.088,168.194 289.5,169.5C 291.451,167.378 293.785,165.878 296.5,165C 295.748,164.329 295.414,163.496 295.5,162.5 Z"/></g>
<g><path style="opacity:0.983" fill="#623a14" d="M 299.5,206.5 C 305.396,209.279 311.062,212.279 316.5,215.5C 311.089,218.623 305.589,221.623 300,224.5C 299.501,218.509 299.334,212.509 299.5,206.5 Z"/></g>
<g><path style="opacity:0.974" fill="#5f3913" d="M 255.5,207.5 C 261.145,209.988 266.812,212.488 272.5,215C 267.325,218.088 261.992,220.921 256.5,223.5C 255.505,218.208 255.172,212.875 255.5,207.5 Z"/></g>
<g><path style="opacity:0.983" fill="#633a14" d="M 210.5,206.5 C 216.171,209.336 221.838,212.169 227.5,215C 222.332,218.419 216.998,221.585 211.5,224.5C 210.504,218.537 210.171,212.537 210.5,206.5 Z"/></g>
<g><path style="opacity:0.979" fill="#603913" d="M 277.5,206.5 C 282.861,209.847 288.528,212.681 294.5,215C 288.918,218.04 283.418,221.207 278,224.5C 277.501,218.509 277.334,212.509 277.5,206.5 Z"/></g>
<g><path style="opacity:0.988" fill="#623a13" d="M 232.5,206.5 C 238.145,209.322 243.811,212.156 249.5,215C 244.332,218.419 238.998,221.585 233.5,224.5C 232.504,218.537 232.171,212.537 232.5,206.5 Z"/></g>
<g><path style="opacity:0.895" fill="#bf5b2d" d="M 295.5,162.5 C 295.414,163.496 295.748,164.329 296.5,165C 293.785,165.878 291.451,167.378 289.5,169.5C 288.088,168.194 286.421,167.36 284.5,167C 286.661,165.236 286.828,163.403 285,161.5C 283.043,163.327 281.876,165.16 281.5,167C 277.928,168.569 274.928,170.902 272.5,174C 268.189,175.478 264.022,174.978 260,172.5C 259.187,175.982 257.521,176.315 255,173.5C 254.667,173.833 254.333,174.167 254,174.5C 252.03,170.224 249.364,166.557 246,163.5C 245.5,164 245,164.5 244.5,165C 247.121,165.906 246.954,166.406 244,166.5C 237.534,165.284 236.701,162.451 241.5,158C 238.736,157.468 236.07,156.634 233.5,155.5C 232.14,159.34 230.64,159.34 229,155.5C 228.768,156.737 228.268,157.737 227.5,158.5C 228.816,153.233 229.816,147.9 230.5,142.5C 237.883,145.017 245.216,147.851 252.5,151C 253.833,151.667 255.167,151.667 256.5,151C 259.468,143.767 262.635,136.601 266,129.5C 268.391,136.611 271.557,143.278 275.5,149.5C 281.121,145.773 286.955,142.44 293,139.5C 291.394,147.332 289.561,155.165 287.5,163C 290.221,163.602 292.887,163.435 295.5,162.5 Z"/></g>
<g><path style="opacity:0.222" fill="#3b2d1e" d="M 410.5,64.5 C 413.333,72.9858 415.667,81.6524 417.5,90.5C 422.468,95.1324 427.468,99.7991 432.5,104.5C 434.167,106.833 436.167,108.833 438.5,110.5C 439.479,112.145 440.812,113.479 442.5,114.5C 443.22,103.327 443.887,92.1602 444.5,81C 444.472,79.9302 444.139,79.0968 443.5,78.5C 443.25,71.7094 444.917,71.0428 448.5,76.5C 448.932,79.962 449.599,83.6286 450.5,87.5C 449.167,87.5 447.833,87.5 446.5,87.5C 446.259,90.999 447.092,91.3323 449,88.5C 449.273,90.1012 449.773,91.6012 450.5,93C 450.167,93.3333 449.833,93.6667 449.5,94C 451.957,95.5123 451.957,96.8456 449.5,98C 450.458,102.053 449.791,105.887 447.5,109.5C 448.814,112.728 449.48,116.395 449.5,120.5C 448.28,127.879 446.946,135.213 445.5,142.5C 446.766,143.724 447.933,145.057 449,146.5C 449.3,152.074 450.134,157.574 451.5,163C 451.686,174.769 451.353,186.936 450.5,199.5C 452.484,204.894 452.484,210.394 450.5,216C 450.887,221.458 451.221,226.958 451.5,232.5C 449.308,239.238 446.808,245.905 444,252.5C 442.758,253.872 441.258,254.872 439.5,255.5C 438.306,258.86 435.972,261.027 432.5,262C 432.833,262.333 433.167,262.667 433.5,263C 432.377,264.044 431.044,264.71 429.5,265C 428.036,269.846 425.036,272.18 420.5,272C 413.134,282.511 404.634,291.345 395,298.5C 391.869,302.974 388.702,307.474 385.5,312C 384.295,316.953 381.962,321.286 378.5,325C 378.957,325.414 379.291,325.914 379.5,326.5C 375.6,337.852 370.267,348.352 363.5,358C 358.812,359.224 354.979,361.724 352,365.5C 353.59,376.02 354.424,386.353 354.5,396.5C 353.5,398.167 352.5,399.833 351.5,401.5C 352.722,403.835 352.389,406.168 350.5,408.5C 351.025,409.192 351.692,409.692 352.5,410C 351.843,411.695 351.843,413.528 352.5,415.5C 351.953,418.826 351.453,422.16 351,425.5C 350.617,426.056 350.117,426.389 349.5,426.5C 349.833,407.821 349.5,389.155 348.5,370.5C 340.125,367.867 331.459,366.534 322.5,366.5C 322.5,364.833 322.5,363.167 322.5,361.5C 322.953,360.542 323.619,359.708 324.5,359C 329.198,358.649 333.864,358.149 338.5,357.5C 345.555,357.73 352.555,357.23 359.5,356C 368.026,340.107 375.36,323.607 381.5,306.5C 391.161,296.506 400.827,286.506 410.5,276.5C 420.887,266.445 431.22,256.445 441.5,246.5C 442.185,244.586 442.685,242.586 443,240.5C 443.667,210.833 443.667,181.167 443,151.5C 440.044,149.278 437.21,146.945 434.5,144.5C 432.063,142.567 429.729,140.4 427.5,138C 426.833,137.333 426.167,137.333 425.5,138C 424.2,144.027 422.533,149.861 420.5,155.5C 420.739,153.533 420.406,151.699 419.5,150C 416.393,150.403 414.06,152.069 412.5,155C 412.475,157.679 412.475,160.346 412.5,163C 411.347,164.883 409.681,165.716 407.5,165.5C 408.138,167.799 409.138,169.966 410.5,172C 410.301,175.322 408.635,177.489 405.5,178.5C 403.429,185.449 401.596,192.782 400,200.5C 397.644,203.022 395.477,205.688 393.5,208.5C 389.711,210.421 385.711,210.921 381.5,210C 380.929,208.795 380.262,207.628 379.5,206.5C 377.833,207.833 376.167,209.167 374.5,210.5C 370.557,206.35 368.557,201.35 368.5,195.5C 369.15,193.565 369.483,191.565 369.5,189.5C 366.167,189.833 362.833,190.167 359.5,190.5C 353.316,187.966 350.316,183.299 350.5,176.5C 350.5,173.833 350.5,171.167 350.5,168.5C 348.139,168.674 345.806,169.007 343.5,169.5C 339.789,169.386 336.455,168.386 333.5,166.5C 332.537,162.899 331.87,159.233 331.5,155.5C 331.244,153.208 331.577,151.041 332.5,149C 331.906,148.536 331.239,148.369 330.5,148.5C 316.224,148.207 310.224,140.874 312.5,126.5C 306.25,126.604 300.25,125.437 294.5,123C 290.193,119.206 286.527,115.04 283.5,110.5C 283.561,105.209 281.227,103.542 276.5,105.5C 274.139,105.674 271.806,106.007 269.5,106.5C 269.67,107.822 269.337,108.989 268.5,110C 265.591,111.705 262.758,113.539 260,115.5C 254.153,115.032 247.986,114.032 241.5,112.5C 239.685,111.37 237.685,110.704 235.5,110.5C 236.425,108.116 238.258,107.116 241,107.5C 244.636,107.827 248.136,108.66 251.5,110C 254.5,110.667 257.5,110.667 260.5,110C 267.526,103.556 275.526,101.556 284.5,104C 286.228,105.973 288.061,107.806 290,109.5C 290.313,113.965 292.479,117.132 296.5,119C 304.423,120.042 310.923,123.542 316,129.5C 316.92,132.101 317.587,134.768 318,137.5C 321.943,141.89 326.776,144.89 332.5,146.5C 336.021,150.213 338.521,154.547 340,159.5C 343.437,162.2 347.103,164.534 351,166.5C 352.205,171.651 353.871,176.651 356,181.5C 357.558,183.359 359.391,184.859 361.5,186C 365.278,187.344 368.945,188.844 372.5,190.5C 374.329,194.158 376.162,197.824 378,201.5C 380.2,202.522 382.2,203.855 384,205.5C 388.89,204.993 392.557,202.66 395,198.5C 400.331,182.692 404.998,167.026 409,151.5C 410.011,150.663 411.178,150.33 412.5,150.5C 412.579,149.07 412.246,147.736 411.5,146.5C 413.094,143.235 414.094,139.735 414.5,136C 409.476,126.085 405.143,115.918 401.5,105.5C 402.223,103.836 401.89,102.169 400.5,100.5C 401.025,99.8076 401.692,99.3076 402.5,99C 400.148,98.4241 399.148,96.9241 399.5,94.5C 399.987,91.5453 400.987,88.8787 402.5,86.5C 402.335,89.8499 402.502,93.1832 403,96.5C 406.222,104.286 408.888,112.286 411,120.5C 416.04,125.044 421.206,129.378 426.5,133.5C 429.271,136.392 432.271,139.058 435.5,141.5C 437.789,143.448 440.122,145.448 442.5,147.5C 443.665,138.184 443.832,128.851 443,119.5C 440.724,118.238 438.891,116.571 437.5,114.5C 436.167,112.5 434.5,110.833 432.5,109.5C 423.348,100.401 414.348,91.0673 405.5,81.5C 406.3,74.4125 407.133,67.0791 408,59.5C 408.333,59.1667 408.667,58.8333 409,58.5C 409.191,60.7078 409.691,62.7078 410.5,64.5 Z"/></g>
<g><path style="opacity:0.909" fill="#603d1a" d="M 430.5,193.5 C 431.552,196.193 432.552,198.86 433.5,201.5C 431.833,201.5 430.167,201.5 428.5,201.5C 427.022,201.762 425.689,201.429 424.5,200.5C 426.281,197.909 428.281,195.575 430.5,193.5 Z"/></g>
<g><path style="opacity:0.932" fill="#624323" d="M 431.5,176.5 C 432.207,180.248 433.207,183.914 434.5,187.5C 433.167,187.5 431.833,187.5 430.5,187.5C 429.048,186.698 427.382,186.198 425.5,186C 427.394,182.639 429.394,179.473 431.5,176.5 Z"/></g>
<g><path style="opacity:0.81" fill="#b1562b" d="M 434.5,144.5 C 434.319,147.397 434.652,150.23 435.5,153C 434.115,154.597 433.449,156.43 433.5,158.5C 432.412,162.009 430.745,165.343 428.5,168.5C 428.855,169.522 429.522,170.189 430.5,170.5C 429.342,173.134 428.342,172.967 427.5,170C 424.732,168.9 422.065,168.4 419.5,168.5C 418.824,169.602 418.158,170.602 417.5,171.5C 418.5,166.167 419.5,160.833 420.5,155.5C 422.533,149.861 424.2,144.027 425.5,138C 426.167,137.333 426.833,137.333 427.5,138C 429.729,140.4 432.063,142.567 434.5,144.5 Z"/></g>
<g><path style="opacity:0.82" fill="#664122" d="M 433.5,158.5 C 434.167,162.5 434.833,166.5 435.5,170.5C 434.167,170.5 432.833,170.5 431.5,170.5C 431.167,170.5 430.833,170.5 430.5,170.5C 429.522,170.189 428.855,169.522 428.5,168.5C 430.745,165.343 432.412,162.009 433.5,158.5 Z"/></g>
<g><path style="opacity:0.962" fill="#1c1409" d="M 330.5,148.5 C 331.239,148.369 331.906,148.536 332.5,149C 331.577,151.041 331.244,153.208 331.5,155.5C 330.532,161.064 329.365,166.731 328,172.5C 321.701,166.546 315.868,160.213 310.5,153.5C 317.295,151.733 323.962,150.066 330.5,148.5 Z"/></g>
<g><path style="opacity:0.964" fill="#1d150a" d="M 190.5,158.5 C 187.226,160.97 183.559,162.636 179.5,163.5C 177.254,164.455 174.921,165.122 172.5,165.5C 172.95,160.798 173.617,156.132 174.5,151.5C 174.281,150.325 174.614,149.325 175.5,148.5C 179.167,150.333 182.833,152.167 186.5,154C 188.635,154.876 189.969,156.376 190.5,158.5 Z"/></g>
<g><path style="opacity:0.979" fill="#83b9d5" d="M 140.5,137.5 C 141.5,137.5 142.5,137.5 143.5,137.5C 143.592,151.901 144.592,166.234 146.5,180.5C 144.417,188.416 142.75,196.416 141.5,204.5C 136.047,197.063 131.047,189.396 126.5,181.5C 128.092,166.05 132.758,151.384 140.5,137.5 Z"/></g>
<g><path style="opacity:0.827" fill="#7ea7ba" d="M 437.5,114.5 C 438.891,116.571 440.724,118.238 443,119.5C 443.832,128.851 443.665,138.184 442.5,147.5C 440.122,145.448 437.789,143.448 435.5,141.5C 435.5,139.5 435.5,137.5 435.5,135.5C 437.519,134.462 437.853,133.128 436.5,131.5C 436.5,129.167 436.5,126.833 436.5,124.5C 437.5,124.5 438.5,124.5 439.5,124.5C 439.473,122.801 438.806,121.467 437.5,120.5C 437.5,118.5 437.5,116.5 437.5,114.5 Z"/></g>
<g><path style="opacity:0.208" fill="#3d2e1f" d="M 235.5,110.5 C 235.167,112.5 234.833,114.5 234.5,116.5C 231.907,119.738 229.907,123.405 228.5,127.5C 227.5,128.333 226.5,129.167 225.5,130C 222.905,130.226 220.405,130.726 218,131.5C 215.435,129.821 212.602,129.154 209.5,129.5C 207.559,129.131 205.725,128.464 204,127.5C 201.286,135.582 199.952,143.915 200,152.5C 201.444,150.845 203.278,150.178 205.5,150.5C 200.522,153.13 195.522,155.796 190.5,158.5C 189.969,156.376 188.635,154.876 186.5,154C 182.833,152.167 179.167,150.333 175.5,148.5C 174.614,149.325 174.281,150.325 174.5,151.5C 158.474,179.984 148.807,177.984 145.5,145.5C 146.666,139.367 147.999,133.367 149.5,127.5C 151.58,125.427 153.246,123.093 154.5,120.5C 155.147,121.274 155.48,122.274 155.5,123.5C 154.586,130.404 152.586,136.904 149.5,143C 150.781,150.841 152.281,158.674 154,166.5C 156.96,165.714 159.794,164.548 162.5,163C 165.426,157.145 169.093,151.812 173.5,147C 186.029,148.753 193.696,143.586 196.5,131.5C 199.886,127.308 204.22,124.975 209.5,124.5C 213.827,125.251 218.16,125.417 222.5,125C 223.416,124.626 224.25,124.126 225,123.5C 226.147,120.382 227.48,117.382 229,114.5C 230.638,112.266 232.805,110.933 235.5,110.5 Z"/></g>
<g><path style="opacity:0.906" fill="#653f16" d="M 436.5,131.5 C 437.853,133.128 437.519,134.462 435.5,135.5C 434.503,135.53 433.836,135.03 433.5,134C 433.748,132.251 434.748,131.418 436.5,131.5 Z"/></g>
<g><path style="opacity:0.949" fill="#1f160b" d="M 209.5,129.5 C 214.593,132.602 219.926,135.435 225.5,138C 220.188,141.659 214.522,144.826 208.5,147.5C 207.702,147.957 207.369,148.624 207.5,149.5C 206.833,149.833 206.167,150.167 205.5,150.5C 203.278,150.178 201.444,150.845 200,152.5C 199.952,143.915 201.286,135.582 204,127.5C 205.725,128.464 207.559,129.131 209.5,129.5 Z"/></g>
<g><path style="opacity:0.872" fill="#b8582b" d="M 432.5,109.5 C 434.5,110.833 436.167,112.5 437.5,114.5C 437.5,116.5 437.5,118.5 437.5,120.5C 436.414,120.62 435.747,121.287 435.5,122.5C 435.543,123.416 435.876,124.083 436.5,124.5C 436.5,126.833 436.5,129.167 436.5,131.5C 434.748,131.418 433.748,132.251 433.5,134C 433.836,135.03 434.503,135.53 435.5,135.5C 435.5,137.5 435.5,139.5 435.5,141.5C 432.271,139.058 429.271,136.392 426.5,133.5C 427.312,128.525 428.145,123.525 429,118.5C 429.661,115.198 430.828,112.198 432.5,109.5 Z"/></g>
<g><path style="opacity:0.961" fill="#5d3813" d="M 73.5,182.5 C 72.3599,180.22 71.1932,177.886 70,175.5C 69.3254,169.432 68.3254,163.432 67,157.5C 66.0466,149.094 65.88,140.761 66.5,132.5C 70.1843,129.995 74.0176,127.662 78,125.5C 93.1561,143.172 107.823,161.172 122,179.5C 122.85,190.544 122.517,201.544 121,212.5C 115.989,216.181 110.989,219.848 106,223.5C 93.238,211.28 82.4047,197.614 73.5,182.5 Z"/></g>
<g><path style="opacity:0.444" fill="#2f2216" d="M 276.5,105.5 C 271.195,109.515 266.195,114.015 261.5,119C 266.797,118.562 272.13,118.562 277.5,119C 280.209,121.675 282.876,124.342 285.5,127C 286.448,127.483 287.448,127.649 288.5,127.5C 287.287,121.637 285.62,115.971 283.5,110.5C 286.527,115.04 290.193,119.206 294.5,123C 300.25,125.437 306.25,126.604 312.5,126.5C 310.224,140.874 316.224,148.207 330.5,148.5C 323.962,150.066 317.295,151.733 310.5,153.5C 315.868,160.213 321.701,166.546 328,172.5C 329.365,166.731 330.532,161.064 331.5,155.5C 331.87,159.233 332.537,162.899 333.5,166.5C 336.455,168.386 339.789,169.386 343.5,169.5C 339.138,171.344 334.471,172.344 329.5,172.5C 329.351,173.552 329.517,174.552 330,175.5C 335.983,180.316 341.483,185.649 346.5,191.5C 347.596,186.314 348.93,181.314 350.5,176.5C 350.316,183.299 353.316,187.966 359.5,190.5C 356.678,191.507 353.678,192.34 350.5,193C 349.572,193.388 348.905,194.055 348.5,195C 351.258,198.489 354.258,201.822 357.5,205C 356.944,205.383 356.611,205.883 356.5,206.5C 339.528,187.859 322.528,169.193 305.5,150.5C 306.5,150.5 307.5,150.5 308.5,150.5C 309.608,142.85 310.608,135.184 311.5,127.5C 303.814,128.086 296.147,128.919 288.5,130C 293.167,135 297.833,140 302.5,145C 302.272,145.399 301.938,145.565 301.5,145.5C 294.007,138.173 286.673,130.673 279.5,123C 277.194,121.014 274.528,119.847 271.5,119.5C 268.256,120.618 264.923,121.451 261.5,122C 243.54,131.479 225.54,140.646 207.5,149.5C 207.369,148.624 207.702,147.957 208.5,147.5C 214.522,144.826 220.188,141.659 225.5,138C 219.926,135.435 214.593,132.602 209.5,129.5C 212.602,129.154 215.435,129.821 218,131.5C 220.405,130.726 222.905,130.226 225.5,130C 226.5,129.167 227.5,128.333 228.5,127.5C 229.907,123.405 231.907,119.738 234.5,116.5C 233.285,122.46 232.285,128.46 231.5,134.5C 240.515,130.935 249.181,126.601 257.5,121.5C 252.104,118.473 246.771,115.473 241.5,112.5C 247.986,114.032 254.153,115.032 260,115.5C 262.758,113.539 265.591,111.705 268.5,110C 269.337,108.989 269.67,107.822 269.5,106.5C 271.806,106.007 274.139,105.674 276.5,105.5 Z"/></g>
<g><path style="opacity:0.963" fill="#1c1409" d="M 305.5,150.5 C 304.167,148.833 302.833,147.167 301.5,145.5C 301.938,145.565 302.272,145.399 302.5,145C 297.833,140 293.167,135 288.5,130C 296.147,128.919 303.814,128.086 311.5,127.5C 310.608,135.184 309.608,142.85 308.5,150.5C 307.5,150.5 306.5,150.5 305.5,150.5 Z"/></g>
<g><path style="opacity:0.752" fill="#654224" d="M 437.5,120.5 C 438.806,121.467 439.473,122.801 439.5,124.5C 438.5,124.5 437.5,124.5 436.5,124.5C 435.876,124.083 435.543,123.416 435.5,122.5C 435.747,121.287 436.414,120.62 437.5,120.5 Z"/></g>
<g><path style="opacity:0.901" fill="#20170b" d="M 235.5,110.5 C 237.685,110.704 239.685,111.37 241.5,112.5C 246.771,115.473 252.104,118.473 257.5,121.5C 249.181,126.601 240.515,130.935 231.5,134.5C 232.285,128.46 233.285,122.46 234.5,116.5C 234.833,114.5 235.167,112.5 235.5,110.5 Z"/></g>
<g><path style="opacity:0.825" fill="#22180d" d="M 283.5,110.5 C 285.62,115.971 287.287,121.637 288.5,127.5C 287.448,127.649 286.448,127.483 285.5,127C 282.876,124.342 280.209,121.675 277.5,119C 272.13,118.562 266.797,118.562 261.5,119C 266.195,114.015 271.195,109.515 276.5,105.5C 281.227,103.542 283.561,105.209 283.5,110.5 Z"/></g>
<g><path style="opacity:0.853" fill="#5c3915" d="M 405.5,81.5 C 414.348,91.0673 423.348,100.401 432.5,109.5C 430.828,112.198 429.661,115.198 429,118.5C 428.145,123.525 427.312,128.525 426.5,133.5C 421.206,129.378 416.04,125.044 411,120.5C 408.888,112.286 406.222,104.286 403,96.5C 402.502,93.1832 402.335,89.8499 402.5,86.5C 401.916,83.715 402.916,82.0483 405.5,81.5 Z"/></g>
<g><path style="opacity:0.22" fill="#3b2c1d" d="M 153.5,119.5 C 146.798,119.664 140.131,119.331 133.5,118.5C 133.5,120.167 133.5,121.833 133.5,123.5C 130.618,118.758 127.451,114.092 124,109.5C 121.22,100.039 119.553,90.3728 119,80.5C 108.385,74.4459 97.8855,68.2792 87.5,62C 86.1667,61.3333 84.8333,61.3333 83.5,62C 82.2107,63.8022 80.5441,64.9688 78.5,65.5C 80.7348,63.6971 81.9014,61.3638 82,58.5C 77.2014,54.5229 72.0347,51.1896 66.5,48.5C 67.624,47.1914 69.124,46.5247 71,46.5C 77.9604,47.0638 83.7938,49.8971 88.5,55C 97.8687,60.0704 107.202,65.237 116.5,70.5C 120.601,74.1082 123.768,78.4415 126,83.5C 127.496,90.981 129.496,98.3144 132,105.5C 136.478,110.635 141.978,113.135 148.5,113C 150.865,114.789 152.532,116.956 153.5,119.5 Z"/></g>
<g><path style="opacity:0.839" fill="#7d5b3f" d="M 440.5,94.5 C 440.844,99.1219 440.177,103.455 438.5,107.5C 438.643,105.738 438.309,104.071 437.5,102.5C 438.949,99.9041 439.949,97.2374 440.5,94.5 Z"/></g>
<g><path style="opacity:0.933" fill="#b7582b" d="M 440.5,71.5 C 441.117,71.6107 441.617,71.944 442,72.5C 442.495,74.4727 442.662,76.4727 442.5,78.5C 441.527,80.9479 441.194,83.6146 441.5,86.5C 440.776,88.2184 440.109,90.0517 439.5,92C 440.056,92.3826 440.389,92.8826 440.5,93.5C 440.5,93.8333 440.5,94.1667 440.5,94.5C 439.949,97.2374 438.949,99.9041 437.5,102.5C 438.309,104.071 438.643,105.738 438.5,107.5C 438.5,108.5 438.5,109.5 438.5,110.5C 436.167,108.833 434.167,106.833 432.5,104.5C 435.061,93.4579 437.728,82.4579 440.5,71.5 Z"/></g>
<g><path style="opacity:0.8" fill="#7ca3b4" d="M 442.5,78.5 C 442.833,78.5 443.167,78.5 443.5,78.5C 444.139,79.0968 444.472,79.9302 444.5,81C 443.887,92.1602 443.22,103.327 442.5,114.5C 440.812,113.479 439.479,112.145 438.5,110.5C 438.5,109.5 438.5,108.5 438.5,107.5C 440.177,103.455 440.844,99.1219 440.5,94.5C 440.5,94.1667 440.5,93.8333 440.5,93.5C 441.468,91.3926 441.802,89.0593 441.5,86.5C 441.194,83.6146 441.527,80.9479 442.5,78.5 Z"/></g>
<g><path style="opacity:0.922" fill="#694c32" d="M 441.5,86.5 C 441.802,89.0593 441.468,91.3926 440.5,93.5C 440.389,92.8826 440.056,92.3826 439.5,92C 440.109,90.0517 440.776,88.2184 441.5,86.5 Z"/></g>
<g><path style="opacity:0.956" fill="#5d3814" d="M 133.5,123.5 C 135.609,127.553 137.609,131.72 139.5,136C 135.38,143.74 131.38,151.573 127.5,159.5C 124.894,160.652 122.227,160.818 119.5,160C 116.583,158.472 113.583,157.139 110.5,156C 98.5478,144.915 88.3811,132.415 80,118.5C 77.8196,102.912 74.9862,87.4121 71.5,72C 73.7083,69.6223 76.0416,67.4557 78.5,65.5C 80.5441,64.9688 82.2107,63.8022 83.5,62C 84.8333,61.3333 86.1667,61.3333 87.5,62C 97.8855,68.2792 108.385,74.4459 119,80.5C 119.553,90.3728 121.22,100.039 124,109.5C 127.451,114.092 130.618,118.758 133.5,123.5 Z"/></g>
<g><path style="opacity:0.831" fill="#5c3917" d="M 440.5,71.5 C 437.728,82.4579 435.061,93.4579 432.5,104.5C 427.468,99.7991 422.468,95.1324 417.5,90.5C 415.667,81.6524 413.333,72.9858 410.5,64.5C 410.171,58.4632 410.504,52.4632 411.5,46.5C 421.557,54.5697 431.223,62.903 440.5,71.5 Z"/></g>
<g><path style="opacity:0.898" fill="#22180d" d="M 66.5,48.5 C 72.0347,51.1896 77.2014,54.5229 82,58.5C 81.9014,61.3638 80.7348,63.6971 78.5,65.5C 77.8501,65.1961 77.1835,64.8627 76.5,64.5C 74.8067,66.0267 72.9734,67.3601 71,68.5C 68.563,62.0816 67.063,55.415 66.5,48.5 Z"/></g>
<g><path style="opacity:0.867" fill="#5f3d1b" d="M 427.5,231.5 C 428.508,234.844 429.508,238.177 430.5,241.5C 430.5,242.5 430.5,243.5 430.5,244.5C 429.167,244.5 427.833,244.5 426.5,244.5C 424.355,243.022 422.021,241.688 419.5,240.5C 421.556,236.787 424.223,233.787 427.5,231.5 Z"/></g>
<g><path style="opacity:0.898" fill="#251a0e" d="M 82.5,260.5 C 80.567,260.271 78.9003,259.438 77.5,258C 78.9228,254.284 80.5895,250.617 82.5,247C 80.6218,245.007 80.2885,242.841 81.5,240.5C 82.1719,241.949 82.8386,243.282 83.5,244.5C 83.3691,245.376 83.7025,246.043 84.5,246.5C 86.4591,244.446 87.9591,242.113 89,239.5C 91.3045,246.385 93.1378,253.385 94.5,260.5C 90.5,260.5 86.5,260.5 82.5,260.5 Z"/></g>
<g><path style="opacity:0.896" fill="#c15b2d" d="M 430.5,170.5 C 430.833,170.5 431.167,170.5 431.5,170.5C 431.5,172.5 431.5,174.5 431.5,176.5C 429.394,179.473 427.394,182.639 425.5,186C 427.382,186.198 429.048,186.698 430.5,187.5C 430.5,189.5 430.5,191.5 430.5,193.5C 428.281,195.575 426.281,197.909 424.5,200.5C 425.689,201.429 427.022,201.762 428.5,201.5C 428.5,204.833 428.5,208.167 428.5,211.5C 425.259,213.983 423.592,217.316 423.5,221.5C 424.833,221.5 426.167,221.5 427.5,221.5C 427.5,224.833 427.5,228.167 427.5,231.5C 424.223,233.787 421.556,236.787 419.5,240.5C 422.021,241.688 424.355,243.022 426.5,244.5C 425.833,245.167 425.167,245.833 424.5,246.5C 418.201,247.797 411.867,248.964 405.5,250C 406.743,251.154 407.743,252.488 408.5,254C 406.881,254.236 405.881,255.069 405.5,256.5C 404.209,256.263 403.209,256.596 402.5,257.5C 396.5,257.167 390.5,256.833 384.5,256.5C 384.858,259.267 385.525,261.933 386.5,264.5C 384.365,266.071 382.032,267.404 379.5,268.5C 372.339,267.477 365.339,267.477 358.5,268.5C 355.192,266.716 353.525,267.716 353.5,271.5C 348.427,269.936 348.427,268.436 353.5,267C 352.521,265.221 352.854,263.555 354.5,262C 353.833,261.667 353.167,261.333 352.5,261C 353.428,260.612 354.095,259.945 354.5,259C 353.898,257.437 353.065,257.604 352,259.5C 351.333,255.833 352.667,254.833 356,256.5C 356.689,255.643 357.522,254.977 358.5,254.5C 360.102,255.55 360.935,254.883 361,252.5C 363.449,252.937 365.783,252.937 368,252.5C 368.915,253.328 369.581,254.328 370,255.5C 371,254.833 372,254.167 373,253.5C 374.459,256.443 376.126,256.776 378,254.5C 379.84,255.833 380.34,255.666 379.5,254C 380.5,253.333 381.5,253.333 382.5,254C 381.743,255.512 380.743,256.846 379.5,258C 380.793,258.49 382.127,258.657 383.5,258.5C 384.445,256.435 385.112,254.601 385.5,253C 381.512,252.767 378.679,250.934 377,247.5C 375.309,249.492 373.475,250.492 371.5,250.5C 370.109,248.064 370.609,247.398 373,248.5C 373.333,247.5 373.667,246.5 374,245.5C 375.533,245.944 377.033,246.277 378.5,246.5C 379.478,246.023 380.311,245.357 381,244.5C 382,245.833 383,245.833 384,244.5C 384.333,245.167 384.667,245.833 385,246.5C 387.333,245.167 389.667,243.833 392,242.5C 391.851,246.436 393.017,246.436 395.5,242.5C 392.403,241.806 392.069,240.806 394.5,239.5C 399.102,243.461 403.602,243.461 408,239.5C 408.772,239.645 409.439,239.978 410,240.5C 413.883,238.881 417.383,236.715 420.5,234C 419.5,233.167 418.5,232.333 417.5,231.5C 418.172,229.14 417.339,227.14 415,225.5C 414.363,227.303 413.197,228.636 411.5,229.5C 410.557,227.633 409.057,225.633 407,223.5C 403.925,224.928 401.091,224.595 398.5,222.5C 400.57,220.036 402.404,217.369 404,214.5C 409.977,200.664 414.477,186.331 417.5,171.5C 418.158,170.602 418.824,169.602 419.5,168.5C 422.065,168.4 424.732,168.9 427.5,170C 428.342,172.967 429.342,173.134 430.5,170.5 Z"/></g>
<g><path style="opacity:0.804" fill="#643f1f" d="M 424.5,246.5 C 419.515,250.086 415.682,254.752 413,260.5C 411.312,258.812 409.645,257.145 408,255.5C 407.098,255.743 406.265,256.077 405.5,256.5C 405.881,255.069 406.881,254.236 408.5,254C 407.743,252.488 406.743,251.154 405.5,250C 411.867,248.964 418.201,247.797 424.5,246.5 Z"/></g>
<g><path style="opacity:0.714" fill="#7e452a" d="M 274.5,242.5 C 274.826,251.349 274.493,260.016 273.5,268.5C 271.265,268.795 269.265,268.461 267.5,267.5C 269.5,267.5 271.5,267.5 273.5,267.5C 273.174,258.983 273.507,250.65 274.5,242.5 Z"/></g>
<g><path style="opacity:0.008" fill="#4f3d28" d="M 455.5,254.5 C 456.833,255.167 456.833,255.167 455.5,254.5 Z"/></g>
<g><path style="opacity:0.008" fill="#503d28" d="M 55.5,256.5 C 54.8333,255.167 54.8333,255.167 55.5,256.5 Z"/></g>
<g><path style="opacity:0.647" fill="#7697a5" d="M 430.5,241.5 C 432.547,242.456 434.713,243.456 437,244.5C 438,243.833 439,243.167 440,242.5C 440.21,244.058 440.71,245.391 441.5,246.5C 431.22,256.445 420.887,266.445 410.5,276.5C 410.646,274.058 409.813,273.391 408,274.5C 407.626,273.584 407.126,272.75 406.5,272C 407.451,271.282 407.617,270.449 407,269.5C 405.186,270.76 403.353,270.76 401.5,269.5C 403.981,268.14 403.648,267.14 400.5,266.5C 398.51,269.014 396.177,270.014 393.5,269.5C 396.5,265.5 399.5,261.5 402.5,257.5C 403.209,256.596 404.209,256.263 405.5,256.5C 406.265,256.077 407.098,255.743 408,255.5C 409.645,257.145 411.312,258.812 413,260.5C 415.682,254.752 419.515,250.086 424.5,246.5C 425.167,245.833 425.833,245.167 426.5,244.5C 427.833,244.5 429.167,244.5 430.5,244.5C 430.5,243.5 430.5,242.5 430.5,241.5 Z"/></g>
<g><path style="opacity:0.814" fill="#5b3a18" d="M 402.5,257.5 C 399.5,261.5 396.5,265.5 393.5,269.5C 392.399,270.8 391.066,271.3 389.5,271C 388.269,268.834 387.269,266.667 386.5,264.5C 385.525,261.933 384.858,259.267 384.5,256.5C 390.5,256.833 396.5,257.167 402.5,257.5 Z"/></g>
<g><path style="opacity:0.943" fill="#23190c" d="M 118.5,262.5 C 115.862,268.13 112.862,273.463 109.5,278.5C 106.425,273.253 102.759,268.42 98.5,264C 105.076,262.623 111.743,262.123 118.5,262.5 Z"/></g>
<g><path style="opacity:0.96" fill="#5c3814" d="M 121.5,258.5 C 121.5,259.5 121.5,260.5 121.5,261.5C 120.209,261.263 119.209,261.596 118.5,262.5C 111.743,262.123 105.076,262.623 98.5,264C 102.759,268.42 106.425,273.253 109.5,278.5C 109.545,281.321 110.545,283.654 112.5,285.5C 111.761,285.369 111.094,285.536 110.5,286C 111.475,291.741 111.808,297.575 111.5,303.5C 111.5,305.5 111.5,307.5 111.5,309.5C 111.5,313.833 111.5,318.167 111.5,322.5C 111.5,323.167 111.5,323.833 111.5,324.5C 109.485,333.224 107.152,341.89 104.5,350.5C 108.262,350.373 111.928,349.706 115.5,348.5C 113.252,345.672 111.252,342.672 109.5,339.5C 112.326,337.585 115.326,335.919 118.5,334.5C 123.305,335.487 128.305,335.821 133.5,335.5C 134.324,339.312 134.824,343.312 135,347.5C 135.619,350.032 136.619,352.365 138,354.5C 138.342,347.95 138.509,341.617 138.5,335.5C 141.5,336.833 144.5,336.833 147.5,335.5C 147.5,337.5 147.5,339.5 147.5,341.5C 146.898,347.266 144.232,351.933 139.5,355.5C 138.534,357.396 138.201,359.396 138.5,361.5C 130.16,361.666 121.827,361.5 113.5,361C 109.87,358.021 105.87,355.854 101.5,354.5C 85.9183,356.474 72.7516,351.807 62,340.5C 60.3333,337.833 58.6667,335.167 57,332.5C 56.7468,329.21 55.7468,326.21 54,323.5C 53.3333,312.833 53.3333,302.167 54,291.5C 57.5092,275.497 67.0092,265.163 82.5,260.5C 86.5,260.5 90.5,260.5 94.5,260.5C 93.1378,253.385 91.3045,246.385 89,239.5C 87.9591,242.113 86.4591,244.446 84.5,246.5C 83.7025,246.043 83.3691,245.376 83.5,244.5C 83.6602,242.801 83.4935,241.134 83,239.5C 77.4659,227.39 72.6326,215.057 68.5,202.5C 67.209,202.737 66.209,202.404 65.5,201.5C 69.4798,199.914 71.8131,196.914 72.5,192.5C 73.6507,191.269 74.8173,191.269 76,192.5C 78.254,196.007 80.254,199.673 82,203.5C 88.9796,211.981 96.1463,220.314 103.5,228.5C 108.954,231.037 114.121,234.037 119,237.5C 118.865,244.905 119.698,251.905 121.5,258.5 Z"/></g>
<g><path style="opacity:0.953" fill="#a4908a" d="M 127.5,265.5 C 125.564,269.715 124.897,274.381 125.5,279.5C 124.349,274.35 124.183,269.016 125,263.5C 125.995,264.066 126.828,264.733 127.5,265.5 Z"/></g>
<g><path style="opacity:0.93" fill="#251a0a" d="M 86.5,265.5 C 90.8422,267.328 94.5088,270.161 97.5,274C 93.2486,275.195 88.9152,275.695 84.5,275.5C 85.0396,272.135 85.7063,268.802 86.5,265.5 Z"/></g>
<g><path style="opacity:0.969" fill="#5d3915" d="M 358.5,268.5 C 365.339,267.477 372.339,267.477 379.5,268.5C 374.536,273.965 369.37,279.298 364,284.5C 362.907,281.691 361.74,279.024 360.5,276.5C 360.435,273.572 359.768,270.905 358.5,268.5 Z"/></g>
<g><path style="opacity:0.975" fill="#85bad5" d="M 386.5,264.5 C 387.269,266.667 388.269,268.834 389.5,271C 391.066,271.3 392.399,270.8 393.5,269.5C 396.177,270.014 398.51,269.014 400.5,266.5C 403.648,267.14 403.981,268.14 401.5,269.5C 403.353,270.76 405.186,270.76 407,269.5C 407.617,270.449 407.451,271.282 406.5,272C 407.126,272.75 407.626,273.584 408,274.5C 409.813,273.391 410.646,274.058 410.5,276.5C 400.827,286.506 391.161,296.506 381.5,306.5C 375.36,323.607 368.026,340.107 359.5,356C 352.555,357.23 345.555,357.73 338.5,357.5C 345.452,354.046 350.619,348.712 354,341.5C 354.333,320.833 354.667,300.167 355,279.5C 356.78,278.361 358.614,277.361 360.5,276.5C 361.74,279.024 362.907,281.691 364,284.5C 369.37,279.298 374.536,273.965 379.5,268.5C 382.032,267.404 384.365,266.071 386.5,264.5 Z"/></g>
<g><path style="opacity:0.931" fill="#24180b" d="M 72.5,280.5 C 74.7247,283.262 76.7247,286.262 78.5,289.5C 75.2317,290.487 71.8984,290.82 68.5,290.5C 69.2759,286.948 70.6092,283.614 72.5,280.5 Z"/></g>
<g><path style="opacity:0.976" fill="#5e3a15" d="M 238.5,279.5 C 238.5,285.5 238.5,291.5 238.5,297.5C 238.663,299.857 238.497,302.19 238,304.5C 236.698,305.085 235.531,305.751 234.5,306.5C 225.244,307.307 215.91,307.807 206.5,308C 205.529,313.072 205.195,318.238 205.5,323.5C 208.167,323.5 210.833,323.5 213.5,323.5C 212.912,326.063 211.912,328.396 210.5,330.5C 209.596,331.209 209.263,332.209 209.5,333.5C 205.486,333.666 201.486,333.499 197.5,333C 197,332.5 196.5,332 196,331.5C 195.5,321.172 195.334,310.839 195.5,300.5C 195.577,299.25 196.244,298.417 197.5,298C 205.833,297.667 214.167,297.333 222.5,297C 223.861,295.416 224.528,293.582 224.5,291.5C 224.5,288.833 224.5,286.167 224.5,283.5C 221.482,283.665 218.482,283.498 215.5,283C 215,282.5 214.5,282 214,281.5C 213.5,269.838 213.333,258.171 213.5,246.5C 214.267,245.828 214.934,244.995 215.5,244C 222.082,243.19 228.582,243.357 235,244.5C 235.5,254.494 235.666,264.494 235.5,274.5C 231.5,274.5 227.5,274.5 223.5,274.5C 223.5,267.5 223.5,260.5 223.5,253.5C 224.833,253.5 226.167,253.5 227.5,253.5C 227.5,258.5 227.5,263.5 227.5,268.5C 228.5,268.5 229.5,268.5 230.5,268.5C 230.666,262.824 230.499,257.157 230,251.5C 227.174,249.66 224.007,248.994 220.5,249.5C 220.5,259.167 220.5,268.833 220.5,278.5C 226.591,278.211 232.591,278.545 238.5,279.5 Z"/></g>
<g><path style="opacity:0.978" fill="#84b9d4" d="M 166.5,225.5 C 166.833,256.174 166.5,286.841 165.5,317.5C 160.563,321.479 154.896,323.479 148.5,323.5C 148.817,327.702 148.483,331.702 147.5,335.5C 144.5,336.833 141.5,336.833 138.5,335.5C 138.099,323.161 137.933,310.828 138,298.5C 138.833,297.667 139.667,296.833 140.5,296C 144.152,295.501 147.818,295.335 151.5,295.5C 151.993,297.806 152.326,300.139 152.5,302.5C 150.167,302.5 147.833,302.5 145.5,302.5C 144.425,301.438 143.425,301.438 142.5,302.5C 143.246,303.736 143.579,305.07 143.5,306.5C 146.518,306.665 149.518,306.498 152.5,306C 153.252,305.329 153.586,304.496 153.5,303.5C 153.5,299.167 153.5,294.833 153.5,290.5C 148.968,290.182 144.634,290.515 140.5,291.5C 138.606,292.048 136.94,293.048 135.5,294.5C 134.146,293.146 132.812,291.812 131.5,290.5C 134.091,289.746 135.924,288.079 137,285.5C 137.837,283.162 138.67,280.828 139.5,278.5C 139.457,277.584 139.124,276.917 138.5,276.5C 137.167,274.5 135.5,272.833 133.5,271.5C 132.185,270.524 130.852,269.524 129.5,268.5C 128.343,271.784 128.176,275.118 129,278.5C 130.323,281.059 132.157,281.725 134.5,280.5C 134.137,279.817 133.804,279.15 133.5,278.5C 134.241,273.497 135.574,273.497 137.5,278.5C 136.345,281.475 134.678,284.142 132.5,286.5C 129.812,284.479 127.479,282.146 125.5,279.5C 124.897,274.381 125.564,269.715 127.5,265.5C 130.366,267.432 133.366,269.099 136.5,270.5C 140.945,261.503 144.612,252.169 147.5,242.5C 147.833,242.5 148.167,242.5 148.5,242.5C 149.29,243.609 149.79,244.942 150,246.5C 150.333,246.167 150.667,245.833 151,245.5C 154.123,250.343 157.123,250.343 160,245.5C 160.617,246.449 160.451,247.282 159.5,248C 161.71,249.509 163.543,251.342 165,253.5C 165.17,243.991 165.67,234.658 166.5,225.5 Z"/></g>
<g><path style="opacity:0.949" fill="#b38470" d="M 133.5,271.5 C 135.5,272.833 137.167,274.5 138.5,276.5C 138.672,277.492 138.338,278.158 137.5,278.5C 135.574,273.497 134.241,273.497 133.5,278.5C 132.244,276.274 132.244,273.941 133.5,271.5 Z"/></g>
<g><path style="opacity:0.93" fill="#5e3d1b" d="M 155.5,264.5 C 158.724,268.593 161.724,272.926 164.5,277.5C 158.833,278.833 153.167,278.833 147.5,277.5C 150.429,273.306 153.095,268.973 155.5,264.5 Z"/></g>
<g><path style="opacity:0.93" fill="#c85e30" d="M 133.5,271.5 C 132.244,273.941 132.244,276.274 133.5,278.5C 133.804,279.15 134.137,279.817 134.5,280.5C 132.157,281.725 130.323,281.059 129,278.5C 128.176,275.118 128.343,271.784 129.5,268.5C 130.852,269.524 132.185,270.524 133.5,271.5 Z"/></g>
<g><path style="opacity:0.98" fill="#85bdd9" d="M 267.5,267.5 C 269.265,268.461 271.265,268.795 273.5,268.5C 273.5,289.833 273.5,311.167 273.5,332.5C 270.07,332.893 266.904,332.227 264,330.5C 262.738,322.054 261.072,313.721 259,305.5C 257.833,304.333 256.667,303.167 255.5,302C 249.938,300.026 244.271,298.526 238.5,297.5C 238.5,291.5 238.5,285.5 238.5,279.5C 238.5,273.167 238.5,266.833 238.5,260.5C 246.13,261.767 253.464,263.933 260.5,267C 262.81,267.497 265.143,267.663 267.5,267.5 Z"/></g>
<g><path style="opacity:0.968" fill="#231b10" d="M 112.5,285.5 C 116.801,287.317 120.801,289.65 124.5,292.5C 120.466,296.536 116.132,300.202 111.5,303.5C 111.808,297.575 111.475,291.741 110.5,286C 111.094,285.536 111.761,285.369 112.5,285.5 Z"/></g>
<g><path style="opacity:0.931" fill="#23170a" d="M 97.5,288.5 C 98.9311,288.881 99.7645,289.881 100,291.5C 100.497,294.146 100.664,296.813 100.5,299.5C 97.0792,298.622 94.0792,296.956 91.5,294.5C 93.8272,292.839 95.8272,290.839 97.5,288.5 Z"/></g>
<g><path style="opacity:0.981" fill="#83b8d1" d="M 118.5,262.5 C 120.304,269.432 121.137,276.765 121,284.5C 125.333,288.167 129.667,291.833 134,295.5C 134.715,308.852 134.548,322.185 133.5,335.5C 128.305,335.821 123.305,335.487 118.5,334.5C 116.192,331.185 113.859,327.851 111.5,324.5C 111.5,323.833 111.5,323.167 111.5,322.5C 113.975,319.759 116.975,317.759 120.5,316.5C 126.187,319.507 130.187,317.674 132.5,311C 131.109,304.472 127.109,301.639 120.5,302.5C 120.5,306.5 120.5,310.5 120.5,314.5C 117.688,312.592 114.688,310.925 111.5,309.5C 111.5,307.5 111.5,305.5 111.5,303.5C 116.132,300.202 120.466,296.536 124.5,292.5C 120.801,289.65 116.801,287.317 112.5,285.5C 110.545,283.654 109.545,281.321 109.5,278.5C 112.862,273.463 115.862,268.13 118.5,262.5 Z"/></g>
<g><path style="opacity:0.486" fill="#332b24" d="M 118.5,262.5 C 119.209,261.596 120.209,261.263 121.5,261.5C 121.334,268.508 121.5,275.508 122,282.5C 124.722,285.724 127.888,288.391 131.5,290.5C 132.812,291.812 134.146,293.146 135.5,294.5C 136.94,293.048 138.606,292.048 140.5,291.5C 144.5,291.5 148.5,291.5 152.5,291.5C 152.768,293.099 152.434,294.432 151.5,295.5C 147.818,295.335 144.152,295.501 140.5,296C 139.667,296.833 138.833,297.667 138,298.5C 137.933,310.828 138.099,323.161 138.5,335.5C 138.509,341.617 138.342,347.95 138,354.5C 136.619,352.365 135.619,350.032 135,347.5C 134.824,343.312 134.324,339.312 133.5,335.5C 134.548,322.185 134.715,308.852 134,295.5C 129.667,291.833 125.333,288.167 121,284.5C 121.137,276.765 120.304,269.432 118.5,262.5 Z"/></g>
<g><path style="opacity:0.514" fill="#444949" d="M 140.5,291.5 C 144.634,290.515 148.968,290.182 153.5,290.5C 153.5,294.833 153.5,299.167 153.5,303.5C 150.615,303.806 147.948,303.473 145.5,302.5C 147.833,302.5 150.167,302.5 152.5,302.5C 152.326,300.139 151.993,297.806 151.5,295.5C 152.434,294.432 152.768,293.099 152.5,291.5C 148.5,291.5 144.5,291.5 140.5,291.5 Z"/></g>
<g><path style="opacity:0.264" fill="#35281b" d="M 224.5,291.5 C 224.528,293.582 223.861,295.416 222.5,297C 214.167,297.333 205.833,297.667 197.5,298C 196.244,298.417 195.577,299.25 195.5,300.5C 194.833,310.341 194.167,320.341 193.5,330.5C 191.855,328.075 190.689,325.408 190,322.5C 189.646,317.662 189.48,312.995 189.5,308.5C 191.435,303.975 192.768,299.309 193.5,294.5C 195.346,294.778 196.68,294.111 197.5,292.5C 195.439,288.2 192.773,284.367 189.5,281C 188.333,278.167 187.167,275.333 186,272.5C 184.831,260.367 184.164,248.367 184,236.5C 182.517,232.335 179.684,230.835 175.5,232C 173.274,235.472 171.941,239.305 171.5,243.5C 171.583,247.626 171.916,251.459 172.5,255C 171.643,255.689 170.977,256.522 170.5,257.5C 170.846,258.696 171.346,258.696 172,257.5C 172.167,258.5 172.333,259.5 172.5,260.5C 171.799,274.737 171.799,289.07 172.5,303.5C 172.733,309.938 170.567,315.271 166,319.5C 165.517,320.448 165.351,321.448 165.5,322.5C 162.19,322.461 159.524,323.794 157.5,326.5C 153.335,330.5 150.669,335.334 149.5,341C 148.969,342.718 148.302,342.885 147.5,341.5C 147.5,339.5 147.5,337.5 147.5,335.5C 148.483,331.702 148.817,327.702 148.5,323.5C 154.896,323.479 160.563,321.479 165.5,317.5C 166.5,286.841 166.833,256.174 166.5,225.5C 166.804,224.85 167.137,224.183 167.5,223.5C 174.142,222.336 180.808,222.169 187.5,223C 188,223.5 188.5,224 189,224.5C 190.127,242.813 190.793,261.147 191,279.5C 201.918,284.21 213.085,288.21 224.5,291.5 Z"/></g>
<g><path style="opacity:0.927" fill="#261b0b" d="M 78.5,303.5 C 79.8333,303.5 81.1667,303.5 82.5,303.5C 82.8226,307.226 82.4892,310.893 81.5,314.5C 77.9181,312.88 74.9181,310.547 72.5,307.5C 74.5654,306.143 76.5654,304.81 78.5,303.5 Z"/></g>
<g><path style="opacity:0.495" fill="#302a22" d="M 145.5,302.5 C 147.948,303.473 150.615,303.806 153.5,303.5C 153.586,304.496 153.252,305.329 152.5,306C 149.518,306.498 146.518,306.665 143.5,306.5C 143.579,305.07 143.246,303.736 142.5,302.5C 143.425,301.438 144.425,301.438 145.5,302.5 Z"/></g>
<g><path style="opacity:0.174" fill="#3c2d1e" d="M 195.5,300.5 C 195.334,310.839 195.5,321.172 196,331.5C 196.5,332 197,332.5 197.5,333C 201.486,333.499 205.486,333.666 209.5,333.5C 209.263,332.209 209.596,331.209 210.5,330.5C 210.577,331.75 211.244,332.583 212.5,333C 219.148,332.371 225.815,332.538 232.5,333.5C 232.828,328.125 232.495,322.792 231.5,317.5C 229.983,318.911 228.649,318.744 227.5,317C 229.35,315.155 229.683,313.155 228.5,311C 230.256,310.798 231.922,310.298 233.5,309.5C 234.09,308.201 235.09,307.368 236.5,307C 235.906,306.536 235.239,306.369 234.5,306.5C 235.531,305.751 236.698,305.085 238,304.5C 238.497,302.19 238.663,299.857 238.5,297.5C 244.271,298.526 249.938,300.026 255.5,302C 256.667,303.167 257.833,304.333 259,305.5C 261.072,313.721 262.738,322.054 264,330.5C 266.904,332.227 270.07,332.893 273.5,332.5C 272.391,333.29 271.058,333.79 269.5,334C 271,334.833 272.167,336 273,337.5C 273.332,340.506 274.166,343.34 275.5,346C 274.316,347.18 273.649,348.68 273.5,350.5C 273.682,353.226 274.182,355.893 275,358.5C 275.177,354.644 275.677,350.977 276.5,347.5C 276.255,356.208 276.589,364.874 277.5,373.5C 279.108,378.952 282.441,383.119 287.5,386C 299.834,387.916 312.168,389.75 324.5,391.5C 324.83,398.532 324.497,405.532 323.5,412.5C 305.926,415.511 288.259,418.011 270.5,420C 269.748,420.671 269.414,421.504 269.5,422.5C 264.583,419.832 259.25,418.832 253.5,419.5C 256.969,416.777 260.802,415.777 265,416.5C 274.431,415.151 283.764,413.484 293,411.5C 299.181,412.09 305.181,412.09 311,411.5C 311.333,408.5 313,406.833 316,406.5C 317.699,400.434 315.533,396.601 309.5,395C 303.833,394 298.167,393 292.5,392C 290.175,390.395 287.842,388.728 285.5,387C 284.207,386.51 282.873,386.343 281.5,386.5C 281.452,383.365 279.785,381.698 276.5,381.5C 274.769,378.1 272.769,374.933 270.5,372C 269.922,370.189 269.422,368.355 269,366.5C 271.71,351.695 267.876,339.195 257.5,329C 255.843,322.854 253.509,317.021 250.5,311.5C 245.633,308.539 241.3,309.206 237.5,313.5C 236.343,317.973 236.343,322.14 237.5,326C 235.445,334.368 230.112,339.034 221.5,340C 194.16,344.326 182.993,332.826 188,305.5C 189.437,300.799 191.27,296.299 193.5,292C 190.705,286.239 187.539,280.739 184,275.5C 182.772,263.214 182.105,250.881 182,238.5C 179.751,234.686 177.251,234.519 174.5,238C 174.208,247.207 174.542,256.54 175.5,266C 174.833,269 174.167,272 173.5,275C 173.88,282.392 174.214,289.725 174.5,297C 176.547,309.762 172.547,320.096 162.5,328C 161.552,328.483 160.552,328.649 159.5,328.5C 156.602,336.977 153.102,345.31 149,353.5C 143.669,363.497 135.336,368.497 124,368.5C 121.052,367.964 118.219,367.964 115.5,368.5C 114.5,367.833 113.5,367.167 112.5,366.5C 107.315,368.531 101.982,370.031 96.5,371C 95.7894,372.255 94.956,373.421 94,374.5C 93.5204,372.867 92.6871,371.534 91.5,370.5C 92.4959,370.586 93.3292,370.252 94,369.5C 95.7519,366.328 97.7519,363.328 100,360.5C 101.128,358.655 101.628,356.655 101.5,354.5C 105.87,355.854 109.87,358.021 113.5,361C 121.827,361.5 130.16,361.666 138.5,361.5C 138.201,359.396 138.534,357.396 139.5,355.5C 144.232,351.933 146.898,347.266 147.5,341.5C 148.302,342.885 148.969,342.718 149.5,341C 150.669,335.334 153.335,330.5 157.5,326.5C 159.524,323.794 162.19,322.461 165.5,322.5C 165.351,321.448 165.517,320.448 166,319.5C 170.567,315.271 172.733,309.938 172.5,303.5C 171.799,289.07 171.799,274.737 172.5,260.5C 172.333,259.5 172.167,258.5 172,257.5C 171.346,258.696 170.846,258.696 170.5,257.5C 170.977,256.522 171.643,255.689 172.5,255C 171.916,251.459 171.583,247.626 171.5,243.5C 171.941,239.305 173.274,235.472 175.5,232C 179.684,230.835 182.517,232.335 184,236.5C 184.164,248.367 184.831,260.367 186,272.5C 187.167,275.333 188.333,278.167 189.5,281C 192.773,284.367 195.439,288.2 197.5,292.5C 196.68,294.111 195.346,294.778 193.5,294.5C 192.768,299.309 191.435,303.975 189.5,308.5C 189.48,312.995 189.646,317.662 190,322.5C 190.689,325.408 191.855,328.075 193.5,330.5C 194.167,320.341 194.833,310.341 195.5,300.5 Z"/></g>
<g><path style="opacity:0.344" fill="#2a1f14" d="M 234.5,306.5 C 235.239,306.369 235.906,306.536 236.5,307C 235.09,307.368 234.09,308.201 233.5,309.5C 231.922,310.298 230.256,310.798 228.5,311C 229.683,313.155 229.35,315.155 227.5,317C 228.649,318.744 229.983,318.911 231.5,317.5C 232.495,322.792 232.828,328.125 232.5,333.5C 225.815,332.538 219.148,332.371 212.5,333C 211.244,332.583 210.577,331.75 210.5,330.5C 211.912,328.396 212.912,326.063 213.5,323.5C 210.833,323.5 208.167,323.5 205.5,323.5C 205.195,318.238 205.529,313.072 206.5,308C 215.91,307.807 225.244,307.307 234.5,306.5 Z"/></g>
<g><path style="opacity:0.982" fill="#261e15" d="M 111.5,309.5 C 114.688,310.925 117.688,312.592 120.5,314.5C 120.5,315.167 120.5,315.833 120.5,316.5C 116.975,317.759 113.975,319.759 111.5,322.5C 111.5,318.167 111.5,313.833 111.5,309.5 Z"/></g>
<g><path style="opacity:0.976" fill="#d7ca2d" d="M 120.5,316.5 C 120.5,315.833 120.5,315.167 120.5,314.5C 120.5,310.5 120.5,306.5 120.5,302.5C 127.109,301.639 131.109,304.472 132.5,311C 130.187,317.674 126.187,319.507 120.5,316.5 Z"/></g>
<g><path style="opacity:0.99" fill="#2b220e" d="M 124.5,306.5 C 125.5,306.5 126.5,306.5 127.5,306.5C 127.663,308.857 127.497,311.19 127,313.5C 124.355,314.708 123.188,313.708 123.5,310.5C 123.623,309.075 123.957,307.742 124.5,306.5 Z"/></g>
<g><path style="opacity:0.491" fill="#372518" d="M 276.5,347.5 C 275.677,350.977 275.177,354.644 275,358.5C 274.182,355.893 273.682,353.226 273.5,350.5C 273.649,348.68 274.316,347.18 275.5,346C 274.166,343.34 273.332,340.506 273,337.5C 272.167,336 271,334.833 269.5,334C 271.058,333.79 272.391,333.29 273.5,332.5C 273.5,311.167 273.5,289.833 273.5,268.5C 274.493,260.016 274.826,251.349 274.5,242.5C 274.602,237.556 276.935,234.056 281.5,232C 298.833,231.333 316.167,231.333 333.5,232C 340.817,235.454 344.483,241.287 344.5,249.5C 343.858,277.49 343.191,305.49 342.5,333.5C 340.224,335.949 337.558,337.782 334.5,339C 324.167,339.667 313.833,339.667 303.5,339C 301.376,337.878 299.543,336.378 298,334.5C 297.333,309.833 297.333,285.167 298,260.5C 298.374,259.584 298.874,258.75 299.5,258C 303.888,256.893 308.388,256.393 313,256.5C 316.833,256.667 320.667,256.833 324.5,257C 325,257.5 325.5,258 326,258.5C 325.8,276.484 325.467,294.484 325,312.5C 320.333,316.5 315.667,316.5 311,312.5C 309.641,302.891 309.141,293.224 309.5,283.5C 310.5,283.5 311.5,283.5 312.5,283.5C 312.168,292.525 312.502,301.525 313.5,310.5C 315.914,312.747 318.58,313.08 321.5,311.5C 322.666,294.51 322.833,277.51 322,260.5C 315.916,259.358 309.749,259.191 303.5,260C 302.299,260.903 301.465,262.069 301,263.5C 300.021,286.921 300.354,310.255 302,333.5C 303.491,335.004 305.324,335.837 307.5,336C 316.5,336.667 325.5,336.667 334.5,336C 336.286,335.215 337.786,334.049 339,332.5C 340.651,302.586 340.984,272.586 340,242.5C 338.64,239.265 336.473,236.765 333.5,235C 316.5,234.333 299.5,234.333 282.5,235C 280.641,236.558 279.141,238.391 278,240.5C 276.533,276.126 276.033,311.793 276.5,347.5 Z"/></g>
<g><path style="opacity:0.965" fill="#6b3d16" d="M 331.5,309.5 C 334.5,309.167 335.833,310.5 335.5,313.5C 334.167,313.5 332.833,313.5 331.5,313.5C 331.5,312.167 331.5,310.833 331.5,309.5 Z"/></g>
<g><path style="opacity:0.987" fill="#633a14" d="M 286.5,294.5 C 289.26,295.423 291.26,297.256 292.5,300C 289.283,304.581 286.283,304.581 283.5,300C 284.124,297.915 285.124,296.082 286.5,294.5 Z"/></g>
<g><path style="opacity:0.958" fill="#653b15" d="M 330.5,286.5 C 332.167,286.5 333.833,286.5 335.5,286.5C 336.169,290.676 334.669,292.009 331,290.5C 330.51,289.207 330.343,287.873 330.5,286.5 Z"/></g>
<g><path style="opacity:0.954" fill="#643a15" d="M 285.5,266.5 C 289.713,266.699 291.046,268.699 289.5,272.5C 283.344,273.946 282.011,271.946 285.5,266.5 Z"/></g>
<g><path style="opacity:0.94" fill="#633b13" d="M 331.5,260.5 C 335.5,259.833 337.167,261.5 336.5,265.5C 334.833,265.5 333.167,265.5 331.5,265.5C 331.5,263.833 331.5,262.167 331.5,260.5 Z"/></g>
<g><path style="opacity:0.969" fill="#633b14" d="M 295.5,241.5 C 299.976,241.8 301.31,243.967 299.5,248C 293.339,248.878 292.006,246.711 295.5,241.5 Z"/></g>
<g><path style="opacity:0.951" fill="#6a3d17" d="M 321.5,241.5 C 326.747,241.64 327.747,243.806 324.5,248C 319.148,248.175 318.148,246.009 321.5,241.5 Z"/></g>
<g><path style="opacity:0.208" fill="#3b2c1d" d="M 63.5,109.5 C 63.3339,115.176 63.5006,120.843 64,126.5C 64.808,129.047 65.6413,131.047 66.5,132.5C 65.88,140.761 66.0466,149.094 67,157.5C 68.3254,163.432 69.3254,169.432 70,175.5C 71.1932,177.886 72.3599,180.22 73.5,182.5C 72.2652,182.279 71.2652,181.612 70.5,180.5C 70.8104,182.201 70.3104,183.868 69,185.5C 66.8083,184.601 64.6416,183.601 62.5,182.5C 62.1667,183 61.8333,183.5 61.5,184C 63.1516,189.782 64.485,195.615 65.5,201.5C 66.209,202.404 67.209,202.737 68.5,202.5C 72.6326,215.057 77.4659,227.39 83,239.5C 83.4935,241.134 83.6602,242.801 83.5,244.5C 82.8386,243.282 82.1719,241.949 81.5,240.5C 80.2885,242.841 80.6218,245.007 82.5,247C 80.5895,250.617 78.9228,254.284 77.5,258C 78.9003,259.438 80.567,260.271 82.5,260.5C 67.0092,265.163 57.5092,275.497 54,291.5C 53.3333,302.167 53.3333,312.833 54,323.5C 55.7468,326.21 56.7468,329.21 57,332.5C 58.6667,335.167 60.3333,337.833 62,340.5C 72.7516,351.807 85.9183,356.474 101.5,354.5C 96.1563,354.334 90.8229,354.501 85.5,355C 87.072,359.218 88.7387,363.385 90.5,367.5C 88.6916,367.509 87.0249,367.009 85.5,366C 80.3117,361.492 74.9784,357.159 69.5,353C 67.2852,351.956 64.9519,351.29 62.5,351C 51.8814,340.917 46.2147,328.417 45.5,313.5C 45.8132,309.677 45.8132,305.843 45.5,302C 45.4458,299.145 46.1125,296.478 47.5,294C 47.3552,293.228 47.0219,292.561 46.5,292C 48.6501,287.31 50.6501,282.476 52.5,277.5C 53.914,276.376 55.414,275.376 57,274.5C 56.7751,271.175 58.1084,268.842 61,267.5C 61.4828,266.552 61.6495,265.552 61.5,264.5C 62.8221,264.67 63.9887,264.337 65,263.5C 68.5628,259.608 71.7295,255.441 74.5,251C 76.0566,245.339 75.3899,239.672 72.5,234C 73.6682,232.594 73.3348,231.428 71.5,230.5C 72.0253,229.808 72.6919,229.308 73.5,229C 72.2068,228.51 70.8734,228.343 69.5,228.5C 67.3794,223.027 65.7127,217.361 64.5,211.5C 62.3796,210.597 62.0462,209.263 63.5,207.5C 62.7657,205.185 61.4324,203.352 59.5,202C 60.0814,201.107 60.4148,200.107 60.5,199C 58.9922,195.644 57.9922,192.144 57.5,188.5C 59.6602,182.867 60.9935,177.034 61.5,171C 60.6235,164.741 59.6235,158.241 58.5,151.5C 60.5732,146.766 61.9065,141.766 62.5,136.5C 61.5191,131.836 61.1858,127.336 61.5,123C 62.142,118.399 62.8087,113.899 63.5,109.5 Z"/></g>
<g><path style="opacity:0.981" fill="#221709" d="M 98.5,315.5 C 99.5,315.5 100.5,315.5 101.5,315.5C 101.167,318.833 100.833,322.167 100.5,325.5C 97.03,324.712 94.3633,322.712 92.5,319.5C 94.2187,317.648 96.2187,316.314 98.5,315.5 Z"/></g>
<g><path style="opacity:0.984" fill="#633b14" d="M 285.5,321.5 C 288.649,321.976 290.982,323.643 292.5,326.5C 289.67,332.972 286.337,333.139 282.5,327C 283.741,325.269 284.741,323.436 285.5,321.5 Z"/></g>
<g><path style="opacity:0.964" fill="#24180b" d="M 69.5,326.5 C 72.5,326.5 75.5,326.5 78.5,326.5C 77.3091,329.889 75.8091,333.222 74,336.5C 71.676,333.52 70.176,330.187 69.5,326.5 Z"/></g>
<g><path style="opacity:0.944" fill="#24190a" d="M 85.5,339.5 C 88.8499,339.335 92.1832,339.502 95.5,340C 92.7388,342.344 90.5722,345.178 89,348.5C 87.2776,345.721 86.1109,342.721 85.5,339.5 Z"/></g>
<g><path style="opacity:0.947" fill="#24190c" d="M 111.5,324.5 C 113.859,327.851 116.192,331.185 118.5,334.5C 115.326,335.919 112.326,337.585 109.5,339.5C 111.252,342.672 113.252,345.672 115.5,348.5C 111.928,349.706 108.262,350.373 104.5,350.5C 107.152,341.89 109.485,333.224 111.5,324.5 Z"/></g>
<g><path style="opacity:0.972" fill="#281a0b" d="M 121.5,340.5 C 121.972,343.902 123.472,346.902 126,349.5C 125.385,347.244 125.052,344.911 125,342.5C 126.356,341.62 127.856,341.286 129.5,341.5C 129.665,344.85 129.498,348.183 129,351.5C 128.439,352.022 127.772,352.355 127,352.5C 122.003,350.088 120.169,346.088 121.5,340.5 Z"/></g>
<g><path style="opacity:0.979" fill="#613a13" d="M 287.5,346.5 C 290.167,346.5 292.833,346.5 295.5,346.5C 295.665,349.85 295.498,353.183 295,356.5C 290.421,359.645 286.921,358.645 284.5,353.5C 285.312,351.055 286.312,348.722 287.5,346.5 Z"/></g>
<g><path style="opacity:0.008" fill="#503e29" d="M 385.5,351.5 C 386.773,352.077 386.773,352.743 385.5,353.5C 384.537,353.03 384.537,352.363 385.5,351.5 Z"/></g>
<g><path style="opacity:0.966" fill="#1d1509" d="M 101.5,354.5 C 101.628,356.655 101.128,358.655 100,360.5C 97.7519,363.328 95.7519,366.328 94,369.5C 93.3292,370.252 92.4959,370.586 91.5,370.5C 91.4431,369.391 91.1098,368.391 90.5,367.5C 88.7387,363.385 87.072,359.218 85.5,355C 90.8229,354.501 96.1563,354.334 101.5,354.5 Z"/></g>
<g><path style="opacity:0.95" fill="#5c3814" d="M 322.5,361.5 C 322.5,363.167 322.5,364.833 322.5,366.5C 331.459,366.534 340.125,367.867 348.5,370.5C 349.5,389.155 349.833,407.821 349.5,426.5C 349.414,428.677 348.747,430.677 347.5,432.5C 343.556,433.391 339.889,434.724 336.5,436.5C 321.878,439.752 307.544,443.752 293.5,448.5C 285.502,439.843 277.502,431.176 269.5,422.5C 269.414,421.504 269.748,420.671 270.5,420C 288.259,418.011 305.926,415.511 323.5,412.5C 324.497,405.532 324.83,398.532 324.5,391.5C 312.168,389.75 299.834,387.916 287.5,386C 282.441,383.119 279.108,378.952 277.5,373.5C 284.184,376.592 291.184,378.926 298.5,380.5C 299.5,380.167 300.5,379.833 301.5,379.5C 302.091,376.075 303.425,373.075 305.5,370.5C 315.726,375.555 321.393,372.555 322.5,361.5 Z"/></g>
<g><path style="opacity:0.924" fill="#26190a" d="M 335.5,390.5 C 339.076,393.305 341.409,396.972 342.5,401.5C 338.445,401.824 334.445,401.491 330.5,400.5C 332.179,397.101 333.846,393.768 335.5,390.5 Z"/></g>
<g><path style="opacity:0.941" fill="#27190b" d="M 336.5,411.5 C 337.809,413.571 338.475,416.071 338.5,419C 338.167,421.5 337.833,424 337.5,426.5C 333.184,424.162 329.184,421.495 325.5,418.5C 328.179,416.313 331.179,414.813 334.5,414C 335.381,413.292 336.047,412.458 336.5,411.5 Z"/></g>
<g><path style="opacity:0.924" fill="#25190b" d="M 306.5,423.5 C 311.497,422.715 316.497,423.382 321.5,425.5C 319.14,428.527 316.473,431.194 313.5,433.5C 310.652,430.45 308.318,427.116 306.5,423.5 Z"/></g>
<g><path style="opacity:0.863" fill="#261a0c" d="M 285.5,425.5 C 291.243,426.041 296.91,427.041 302.5,428.5C 300.528,432.105 297.861,435.105 294.5,437.5C 290.52,434.194 287.52,430.194 285.5,425.5 Z"/></g>
<g><path style="opacity:0.954" fill="#21170c" d="M 253.5,419.5 C 259.25,418.832 264.583,419.832 269.5,422.5C 270.441,424.466 271.441,426.466 272.5,428.5C 270.234,429.314 267.9,429.814 265.5,430C 268.882,430.176 272.215,430.676 275.5,431.5C 279.658,436.824 284.158,441.824 289,446.5C 289.49,447.793 289.657,449.127 289.5,450.5C 280.984,448.573 272.651,446.073 264.5,443C 260.636,439.635 257.303,435.802 254.5,431.5C 255.5,430.833 256.5,430.167 257.5,429.5C 254.813,428.74 252.147,428.073 249.5,427.5C 243.288,421.257 244.621,418.591 253.5,419.5 Z"/></g>
<g><path style="opacity:0.255" fill="#37291b" d="M 269.5,422.5 C 277.502,431.176 285.502,439.843 293.5,448.5C 307.544,443.752 321.878,439.752 336.5,436.5C 338.144,436.714 339.644,436.38 341,435.5C 341.483,436.448 341.649,437.448 341.5,438.5C 329.431,443.135 317.097,447.301 304.5,451C 291.92,454.813 279.586,454.146 267.5,449C 264.892,445.562 261.558,443.062 257.5,441.5C 255.07,439.356 253.07,436.856 251.5,434C 251.957,433.586 252.291,433.086 252.5,432.5C 250.703,431.305 249.703,429.638 249.5,427.5C 252.147,428.073 254.813,428.74 257.5,429.5C 256.5,430.167 255.5,430.833 254.5,431.5C 257.303,435.802 260.636,439.635 264.5,443C 272.651,446.073 280.984,448.573 289.5,450.5C 289.657,449.127 289.49,447.793 289,446.5C 284.158,441.824 279.658,436.824 275.5,431.5C 272.215,430.676 268.882,430.176 265.5,430C 267.9,429.814 270.234,429.314 272.5,428.5C 271.441,426.466 270.441,424.466 269.5,422.5 Z"/></g>
</svg>
