<?xml version="1.0" encoding="UTF-8"?>
<!DOCTYPE svg PUBLIC "-//W3C//DTD SVG 1.1//EN" "http://www.w3.org/Graphics/SVG/1.1/DTD/svg11.dtd">
<svg xmlns="http://www.w3.org/2000/svg" version="1.1" width="500px" height="500px" style="shape-rendering:geometricPrecision; text-rendering:geometricPrecision; image-rendering:optimizeQuality; fill-rule:evenodd; clip-rule:evenodd" xmlns:xlink="http://www.w3.org/1999/xlink">
<g><path style="opacity:0.031" fill="#4e3b27" d="M 247.5,449.5 C 247.047,448.542 246.381,447.708 245.5,447C 245.833,446.667 246.167,446.333 246.5,446C 242.438,443.5 238.938,441 236,438.5C 235.383,437.551 235.549,436.718 236.5,436C 234.422,434.514 233.089,432.514 232.5,430C 232.956,425.458 233.123,420.625 233,415.5C 233.022,413.079 234.022,410.746 236,408.5C 239.215,406.539 242.715,405.373 246.5,405C 258.278,404.982 269.944,403.982 281.5,402C 269.614,396.762 263.114,387.596 262,374.5C 261.038,365.189 260.372,355.855 260,346.5C 255.124,344.956 251.457,341.956 249,337.5C 247.348,340.086 245.515,342.586 243.5,345C 233.485,348.429 223.152,349.929 212.5,349.5C 203.596,349.966 194.929,348.799 186.5,346C 182.148,341.788 179.814,336.622 179.5,330.5C 174.322,332.67 169.155,335.003 164,337.5C 163.18,345.572 161.347,353.405 158.5,361C 154.498,365.341 150.498,369.675 146.5,374C 142.024,375.811 137.357,376.811 132.5,377C 124.833,377.333 117.167,377.667 109.5,378C 106.227,382.075 101.893,384.075 96.5,384C 90.288,384.782 84.288,383.948 78.5,381.5C 75.4048,376.696 72.4048,371.862 69.5,367C 51.3211,360.484 40.8211,347.651 38,328.5C 36.5958,315.837 36.0958,303.337 36.5,291C 39.1111,284.569 40.7778,278.236 41.5,272C 43.645,270.057 45.3117,267.724 46.5,265C 46.7057,262.135 48.2057,259.635 51,257.5C 51.3333,257.833 51.6667,258.167 52,258.5C 53.5737,257.016 54.907,255.349 56,253.5C 56.9138,254.654 57.7471,254.487 58.5,253C 58.1667,252.667 57.8333,252.333 57.5,252C 59.3898,250.127 61.3898,249.294 63.5,249.5C 63.8333,248.333 64.1667,247.167 64.5,246C 61.5597,237.51 59.2264,228.843 57.5,220C 57.7079,216.312 57.7079,212.645 57.5,209C 57.7549,207.674 58.4216,206.674 59.5,206C 58.3281,204.132 58.4947,202.298 60,200.5C 63.2513,199.018 66.5846,197.684 70,196.5C 73.6764,196.561 77.5098,196.727 81.5,197C 85.1943,197.732 88.861,198.565 92.5,199.5C 96.6011,197.521 100.934,196.021 105.5,195C 111.634,194.1 117.634,194.6 123.5,196.5C 124.799,195.91 125.632,194.91 126,193.5C 127.904,178.154 135.404,166.654 148.5,159C 175.833,145 203.167,131 230.5,117C 244.251,111.758 257.584,112.591 270.5,119.5C 304.329,147.825 338.329,175.992 372.5,204C 379.924,210.442 386.758,209.942 393,202.5C 394.862,198.581 396.529,194.581 398,190.5C 401.768,174.722 405.268,158.889 408.5,143C 406.877,137.572 405.377,132.072 404,126.5C 403.183,117.255 403.35,108.089 404.5,99C 400.657,81.7396 399.157,64.2396 400,46.5C 400.911,38.0666 405.411,34.3999 413.5,35.5C 413.489,34.5585 413.989,33.8919 415,33.5C 417.352,33.7346 419.852,33.9012 422.5,34C 424.762,34.6419 426.929,35.4752 429,36.5C 429.414,36.0426 429.914,35.7093 430.5,35.5C 439.493,42.331 447.993,49.6643 456,57.5C 458.907,62.5676 460.74,67.7342 461.5,73C 461.167,74 460.833,75 460.5,76C 461.391,82.0265 462.058,87.8599 462.5,93.5C 461.88,99.1892 461.213,104.856 460.5,110.5C 461.807,155.875 461.807,201.042 460.5,246C 458.452,249.417 457.286,252.917 457,256.5C 450.153,263.665 442.653,270.832 434.5,278C 434.833,278.333 435.167,278.667 435.5,279C 432.758,280.886 431.091,283.386 430.5,286.5C 426.167,287.5 423.5,290.167 422.5,294.5C 418.167,295.5 415.5,298.167 414.5,302.5C 406.575,306.591 400.408,312.591 396,320.5C 390.401,334.634 384.735,348.3 379,361.5C 376.195,366.308 372.195,369.642 367,371.5C 366.819,380.411 366.319,389.245 365.5,398C 365.704,408.807 366.038,419.641 366.5,430.5C 366.134,437.168 363.467,442.668 358.5,447C 338.485,454.004 318.152,460.004 297.5,465C 283.591,467.485 270.758,464.985 259,457.5C 258.667,457.833 258.333,458.167 258,458.5C 255.929,457.636 254.262,456.303 253,454.5C 252.667,454.833 252.333,455.167 252,455.5C 250.847,453.182 249.347,451.182 247.5,449.5 Z"/></g>
<g><path style="opacity:0.027" fill="#513d29" d="M 398.5,99.5 C 399.224,101.218 399.891,103.052 400.5,105C 399.068,105.27 398.068,104.604 397.5,103C 398.337,101.989 398.67,100.822 398.5,99.5 Z"/></g>
<g><path style="opacity:0.008" fill="#503d28" d="M 400.5,100.5 C 401.833,101.167 401.833,101.167 400.5,100.5 Z"/></g>
<g><path style="opacity:0.119" fill="#473523" d="M 419.5,41.5 C 425.705,42.8479 430.872,45.8479 435,50.5C 436.073,49.7203 437.24,49.887 438.5,51C 439.833,53 441.5,54.6667 443.5,56C 442.833,56.3333 442.167,56.6667 441.5,57C 446.333,57.8333 449.167,60.6667 450,65.5C 450.667,64.1667 451.333,64.1667 452,65.5C 452.684,66.7839 452.517,67.9505 451.5,69C 453.574,71.3016 454.908,73.9683 455.5,77C 455.536,81.2593 454.869,85.5927 453.5,90C 453.646,91.7271 454.313,91.8938 455.5,90.5C 455.833,92 456.167,93.5 456.5,95C 455.788,98.0692 455.788,101.069 456.5,104C 456.266,107.176 454.932,109.676 452.5,111.5C 453.325,112.386 454.325,112.719 455.5,112.5C 455.726,115.249 455.393,117.916 454.5,120.5C 455.04,121.748 455.707,122.915 456.5,124C 455.739,129.376 455.739,134.876 456.5,140.5C 455.872,142.258 454.872,143.758 453.5,145C 455.41,145.408 456.41,146.575 456.5,148.5C 455.268,150.683 455.268,152.849 456.5,155C 454.437,157.274 454.437,159.774 456.5,162.5C 456.802,171.861 456.469,181.361 455.5,191C 457.994,194.084 457.994,197.084 455.5,200C 455.886,209.262 456.219,218.262 456.5,227C 456.691,230.698 456.024,234.198 454.5,237.5C 455.191,240.002 454.858,242.502 453.5,245C 451.554,247.502 450.387,250.336 450,253.5C 448.989,254.337 447.822,254.67 446.5,254.5C 446.649,255.552 446.483,256.552 446,257.5C 442.885,260.378 439.385,262.711 435.5,264.5C 433.514,267.649 431.181,270.483 428.5,273C 428.833,273.333 429.167,273.667 429.5,274C 426.802,274.912 424.135,276.579 421.5,279C 420.405,281.195 419.405,283.362 418.5,285.5C 411.844,291.438 405.177,297.438 398.5,303.5C 395.402,308.033 392.569,312.7 390,317.5C 384.505,331.487 378.339,345.154 371.5,358.5C 367.25,362.254 363.25,366.087 359.5,370C 360.083,376.105 361.083,382.105 362.5,388C 359.826,392.125 359.493,396.292 361.5,400.5C 360.007,407.386 359.341,414.219 359.5,421C 362.025,423.607 362.025,426.273 359.5,429C 360.943,431.078 360.276,431.911 357.5,431.5C 357.559,435.548 355.892,438.715 352.5,441C 348.385,442.223 344.718,444.223 341.5,447C 326.667,451.313 311.667,455.313 296.5,459C 290.113,459.004 283.779,459.171 277.5,459.5C 272.308,456.702 266.975,454.202 261.5,452C 255.232,446.046 248.899,439.379 242.5,432C 243.292,429.309 242.959,426.642 241.5,424C 242.758,421.815 242.758,419.648 241.5,417.5C 244.466,413.515 248.466,411.349 253.5,411C 252.5,410.667 251.5,410.333 250.5,410C 263.203,410.282 275.87,409.449 288.5,407.5C 289.086,407.709 289.586,408.043 290,408.5C 292.386,406.909 295.053,405.909 298,405.5C 301.325,405.708 304.658,406.041 308,406.5C 308.635,405.034 309.469,403.7 310.5,402.5C 309.91,401.201 308.91,400.368 307.5,400C 283.228,400.063 269.228,388.229 265.5,364.5C 266.163,358.487 266.496,352.32 266.5,346C 265.283,344.352 264.45,342.519 264,340.5C 262.736,338.393 260.903,337.393 258.5,337.5C 255.45,330.375 252.616,323.042 250,315.5C 248.028,313.558 245.861,313.224 243.5,314.5C 241.821,320.831 240.988,327.165 241,333.5C 238.075,336.695 234.908,339.528 231.5,342C 228.532,342.694 225.532,343.194 222.5,343.5C 214.273,343.377 206.106,343.377 198,343.5C 192.948,340.448 188.948,336.448 186,331.5C 182.093,318.949 182.926,306.783 188.5,295C 187.718,292.26 187.218,289.426 187,286.5C 184.667,283.833 182.333,281.167 180,278.5C 178.176,285.702 177.009,293.035 176.5,300.5C 178.319,310.217 176.319,318.551 170.5,325.5C 164.432,327.992 160.266,332.325 158,338.5C 157.28,340.112 157.446,341.612 158.5,343C 156.407,345.782 155.24,348.949 155,352.5C 151.898,355.212 149.398,358.379 147.5,362C 144.203,364.295 141.203,366.962 138.5,370C 128.679,371.697 118.845,371.863 109,370.5C 103.365,372.711 97.6988,374.711 92,376.5C 89.2641,375.273 86.4308,374.273 83.5,373.5C 82.6143,372.675 82.281,371.675 82.5,370.5C 79.234,370.567 77.734,368.901 78,365.5C 72.253,361.041 66.0863,357.207 59.5,354C 48.1984,342.636 42.1984,328.802 41.5,312.5C 41.5668,305.903 41.7335,299.236 42,292.5C 44.0339,287.398 45.8672,282.231 47.5,277C 48.0981,275.699 49.0981,274.865 50.5,274.5C 51.7954,270.72 53.2954,267.053 55,263.5C 58.3914,261.268 61.8914,259.268 65.5,257.5C 66.8709,254.226 68.7042,251.226 71,248.5C 71.8499,244.464 71.3499,240.631 69.5,237C 69.9574,236.586 70.2907,236.086 70.5,235.5C 66.4432,232.614 64.4432,228.614 64.5,223.5C 64.5537,220.366 64.5537,217.199 64.5,214C 66.9042,213.492 67.5709,212.325 66.5,210.5C 69.1359,207.181 72.4692,204.848 76.5,203.5C 82.4938,204.142 88.3271,205.475 94,207.5C 98.8917,206.203 103.725,204.703 108.5,203C 113.979,201.715 118.479,203.215 122,207.5C 123.248,210.579 125.081,213.246 127.5,215.5C 128.086,215.291 128.586,214.957 129,214.5C 128.996,209.503 129.829,204.503 131.5,199.5C 131.167,198.833 130.833,198.167 130.5,197.5C 133.406,187.939 137.739,179.106 143.5,171C 148.996,167.084 154.663,163.418 160.5,160C 184.441,147.695 208.441,135.362 232.5,123C 237.762,121.524 243.096,120.357 248.5,119.5C 253.725,120.457 258.725,121.957 263.5,124C 266.13,127.317 269.463,129.65 273.5,131C 275.759,134.265 278.426,137.265 281.5,140C 288.455,144.369 295.121,149.202 301.5,154.5C 323.189,172.853 345.189,190.853 367.5,208.5C 384.79,218.836 396.79,214.502 403.5,195.5C 403.122,191.442 404.122,187.608 406.5,184C 406.265,183.127 405.931,182.293 405.5,181.5C 407.501,174.15 409.501,166.817 411.5,159.5C 411.291,158.914 410.957,158.414 410.5,158C 413.333,153.338 415.333,148.338 416.5,143C 415.718,140.26 415.218,137.426 415,134.5C 412.554,129.706 410.554,124.706 409,119.5C 408.98,114.922 408.813,110.422 408.5,106C 411.093,95.6691 410.093,85.6691 405.5,76C 405.566,69.7604 405.566,63.5937 405.5,57.5C 407.619,54.6795 409.285,51.0128 410.5,46.5C 413.703,45.3189 416.703,43.6522 419.5,41.5 Z"/></g>
<g><path style="opacity:0.204" fill="#3d2e20" d="M 250.5,428.5 C 251.708,429.234 253.041,429.567 254.5,429.5C 253.375,430.652 253.375,431.652 254.5,432.5C 257.489,436.297 260.822,439.797 264.5,443C 272.863,446.677 281.53,449.511 290.5,451.5C 290.5,450.5 290.5,449.5 290.5,448.5C 290.5,447.833 290.5,447.167 290.5,446.5C 293.913,448.607 297.58,448.773 301.5,447C 316.415,442.249 331.415,437.916 346.5,434C 348.333,433.5 349.5,432.333 350,430.5C 350.667,410.5 350.667,390.5 350,370.5C 349.5,370 349,369.5 348.5,369C 339.875,367.799 331.208,367.299 322.5,367.5C 322.205,365.265 322.539,363.265 323.5,361.5C 323.5,363.167 323.5,364.833 323.5,366.5C 326.85,366.665 330.183,366.498 333.5,366C 334.191,364.933 334.691,363.766 335,362.5C 335.967,365.905 337.8,366.405 340.5,364C 339.359,363.259 339.359,362.425 340.5,361.5C 341.912,360.194 343.579,359.36 345.5,359C 342.183,358.502 338.85,358.335 335.5,358.5C 336.919,357.549 338.585,357.216 340.5,357.5C 347.23,357.774 353.897,357.274 360.5,356C 361.333,355.167 362.167,354.333 363,353.5C 369.942,337.949 376.609,322.282 383,306.5C 392.339,296.328 401.839,286.328 411.5,276.5C 412.5,276.167 413.167,275.5 413.5,274.5C 423.194,265.473 432.527,256.14 441.5,246.5C 443.941,244.925 445.107,242.592 445,239.5C 445.5,219.169 445.667,198.836 445.5,178.5C 445.666,168.828 445.5,159.161 445,149.5C 442.002,147.332 439.169,144.999 436.5,142.5C 433.79,140.055 430.956,137.722 428,135.5C 425.739,146.97 422.906,158.303 419.5,169.5C 417.935,179.652 415.602,189.652 412.5,199.5C 411.313,198.466 410.48,197.133 410,195.5C 405.161,217.342 391.994,224.842 370.5,218C 350.163,204.136 330.83,188.802 312.5,172C 307.664,169.493 303.83,165.993 301,161.5C 297.175,158.675 293.675,155.508 290.5,152C 288.109,151.713 285.776,151.213 283.5,150.5C 282.157,145.635 279.324,142.968 275,142.5C 273.231,140.055 271.398,137.722 269.5,135.5C 270.552,135.351 271.552,135.517 272.5,136C 280.664,142.579 288.997,148.912 297.5,155C 317.471,171.958 337.804,188.624 358.5,205C 367.024,214.399 377.691,218.065 390.5,216C 397.391,212.434 402.225,206.934 405,199.5C 407.651,190.899 409.651,182.232 411,173.5C 412.71,167.269 414.544,161.102 416.5,155C 415.391,153.187 416.058,152.354 418.5,152.5C 418.286,150.856 418.62,149.356 419.5,148C 416.742,145.598 417.075,143.598 420.5,142C 419.374,135.841 417.207,130.007 414,124.5C 413.578,122.645 413.078,120.811 412.5,119C 413.492,115.93 413.159,112.93 411.5,110C 412.159,103.028 413.825,96.3609 416.5,90C 414.536,87.4822 413.87,84.8155 414.5,82C 413.316,80.8197 412.649,79.3197 412.5,77.5C 411.551,72.0357 411.218,66.7024 411.5,61.5C 411.633,58.5862 412.8,56.2529 415,54.5C 415.333,60.1667 415.667,65.8333 416,71.5C 416.232,72.7375 416.732,73.7375 417.5,74.5C 417.945,80.061 419.279,85.3943 421.5,90.5C 425.828,94.4937 430.161,98.4937 434.5,102.5C 436.167,104.833 438.167,106.833 440.5,108.5C 441.793,110.296 443.293,111.963 445,113.5C 445.5,106.174 445.666,98.8409 445.5,91.5C 445.356,87.6255 445.69,83.7921 446.5,80C 446.475,78.124 445.809,76.624 444.5,75.5C 444.946,72.9899 444.28,70.9899 442.5,69.5C 436.157,63.1584 429.491,57.1584 422.5,51.5C 422.5,50.5 422.5,49.5 422.5,48.5C 425.394,48.0423 427.894,48.709 430,50.5C 430.333,50.1667 430.667,49.8333 431,49.5C 432.857,52.0702 435.191,54.0702 438,55.5C 439.863,58.1691 441.863,60.8358 444,63.5C 445.147,62.5419 446.147,62.8753 447,64.5C 448.627,69.3773 450.46,74.2106 452.5,79C 450.175,80.8812 450.175,82.5478 452.5,84C 452.113,86.2607 450.779,87.594 448.5,88C 449.833,88.6667 451.167,89.3333 452.5,90C 451.949,91.3985 451.616,92.7318 451.5,94C 452.167,94.6667 452.833,95.3333 453.5,96C 451.925,101.215 450.591,106.548 449.5,112C 450.94,115.055 451.273,118.222 450.5,121.5C 451.858,124.588 452.858,127.755 453.5,131C 450.675,132.474 450.342,133.974 452.5,135.5C 451.986,138.735 450.652,141.568 448.5,144C 451.696,148.072 452.696,152.572 451.5,157.5C 452.559,160.235 453.225,163.069 453.5,166C 453.484,175.502 453.484,185.002 453.5,194.5C 453.61,196.374 452.944,197.874 451.5,199C 452.743,200.87 453.41,203.036 453.5,205.5C 452.338,212.854 452.338,220.02 453.5,227C 452.539,233.335 451.205,239.501 449.5,245.5C 448.448,245.351 447.448,245.517 446.5,246C 446.848,248.508 446.181,251.008 444.5,253.5C 441.065,256.548 437.398,259.381 433.5,262C 433.833,262.333 434.167,262.667 434.5,263C 433.377,264.044 432.044,264.71 430.5,265C 429.031,269.322 426.365,271.822 422.5,272.5C 422.709,273.086 423.043,273.586 423.5,274C 420.179,276.452 417.679,279.618 416,283.5C 412.849,286.407 409.516,289.074 406,291.5C 403.774,293.285 402.608,295.618 402.5,298.5C 401.5,298.5 400.5,298.5 399.5,298.5C 396.28,303.225 392.78,307.892 389,312.5C 383.994,324.51 378.994,336.51 374,348.5C 369.616,355.884 363.616,361.551 356,365.5C 355.79,370.828 356.623,375.995 358.5,381C 357.833,382.667 357.167,384.333 356.5,386C 357.167,386.333 357.833,386.667 358.5,387C 356.978,394.435 356.645,401.935 357.5,409.5C 357.019,412.083 356.352,414.583 355.5,417C 357.487,419.47 357.987,422.303 357,425.5C 355.315,429.231 353.482,432.898 351.5,436.5C 345.729,440.707 339.396,443.874 332.5,446C 320.05,449.737 307.55,453.237 295,456.5C 290.467,455.22 285.967,455.22 281.5,456.5C 279.382,455.054 277.049,454.387 274.5,454.5C 274.719,453.325 274.386,452.325 273.5,451.5C 270.202,449.84 266.869,448.173 263.5,446.5C 260.647,443.372 257.647,440.372 254.5,437.5C 253.312,434.377 251.979,431.377 250.5,428.5 Z"/></g>
<g><path style="opacity:0.806" fill="#695e39" d="M 434.5,160.5 C 436.397,162.698 437.397,165.364 437.5,168.5C 436.5,168.5 435.5,168.5 434.5,168.5C 433.5,168.5 432.5,168.5 431.5,168.5C 430.747,165.312 431.747,162.646 434.5,160.5 Z"/></g>
<g><path style="opacity:0.92" fill="#ad8954" d="M 436.5,142.5 C 436.5,144.833 436.5,147.167 436.5,149.5C 435.061,148.491 433.728,148.824 432.5,150.5C 432.879,152.213 433.879,153.213 435.5,153.5C 435.552,155.903 435.219,158.236 434.5,160.5C 431.747,162.646 430.747,165.312 431.5,168.5C 431.361,169.919 430.861,171.252 430,172.5C 428.948,170.189 427.115,168.856 424.5,168.5C 422.735,169.026 421.068,169.359 419.5,169.5C 422.906,158.303 425.739,146.97 428,135.5C 430.956,137.722 433.79,140.055 436.5,142.5 Z"/></g>
<g><path style="opacity:0.71" fill="#715f3b" d="M 436.5,149.5 C 437.954,151.263 437.62,152.597 435.5,153.5C 433.879,153.213 432.879,152.213 432.5,150.5C 433.728,148.824 435.061,148.491 436.5,149.5 Z"/></g>
<g><path style="opacity:0.859" fill="#95b0bd" d="M 445.5,133.5 C 445.666,137.846 445.499,142.179 445,146.5C 442.002,144.667 439.502,142.334 437.5,139.5C 437.248,136.756 437.915,134.256 439.5,132C 437.674,127.751 438.341,124.084 441.5,121C 441.43,120.235 441.097,119.735 440.5,119.5C 440.369,118.761 440.536,118.094 441,117.5C 442.011,118.337 443.178,118.67 444.5,118.5C 444.644,122.375 444.31,126.208 443.5,130C 443.387,131.699 444.053,132.866 445.5,133.5 Z"/></g>
<g><path style="opacity:0.588" fill="#809093" d="M 439.5,113.5 C 441.735,114.228 443.568,115.561 445,117.5C 445.499,122.823 445.666,128.156 445.5,133.5C 444.053,132.866 443.387,131.699 443.5,130C 444.31,126.208 444.644,122.375 444.5,118.5C 443.178,118.67 442.011,118.337 441,117.5C 440.536,118.094 440.369,118.761 440.5,119.5C 439.539,117.735 439.205,115.735 439.5,113.5 Z"/></g>
<g><path style="opacity:0.885" fill="#685d39" d="M 434.5,107.5 C 431.167,115.279 429.167,123.612 428.5,132.5C 425.831,130.001 422.998,127.668 420,125.5C 419.5,115.172 419.334,104.839 419.5,94.5C 420.552,94.3505 421.552,94.5172 422.5,95C 426.03,99.6955 430.03,103.862 434.5,107.5 Z"/></g>
<g><path style="opacity:0.769" fill="#a68551" d="M 434.5,107.5 C 436.914,108.911 438.581,110.911 439.5,113.5C 439.205,115.735 439.539,117.735 440.5,119.5C 441.097,119.735 441.43,120.235 441.5,121C 438.341,124.084 437.674,127.751 439.5,132C 437.915,134.256 437.248,136.756 437.5,139.5C 434.19,137.518 431.19,135.185 428.5,132.5C 429.167,123.612 431.167,115.279 434.5,107.5 Z"/></g>
<g><path style="opacity:0.816" fill="#8fa5b0" d="M 442.5,91.5 C 443.5,91.5 444.5,91.5 445.5,91.5C 445.666,98.8409 445.5,106.174 445,113.5C 443.293,111.963 441.793,110.296 440.5,108.5C 442.022,102.948 442.689,97.2816 442.5,91.5 Z"/></g>
<g><path style="opacity:0.914" fill="#a88753" d="M 442.5,69.5 C 444.28,70.9899 444.946,72.9899 444.5,75.5C 443.431,80.8802 442.764,86.2135 442.5,91.5C 442.689,97.2816 442.022,102.948 440.5,108.5C 438.167,106.833 436.167,104.833 434.5,102.5C 436.411,91.1943 439.077,80.1943 442.5,69.5 Z"/></g>
<g><path style="opacity:0.579" fill="#858989" d="M 444.5,75.5 C 445.809,76.624 446.475,78.124 446.5,80C 445.69,83.7921 445.356,87.6255 445.5,91.5C 444.5,91.5 443.5,91.5 442.5,91.5C 442.764,86.2135 443.431,80.8802 444.5,75.5 Z"/></g>
<g><path style="opacity:0.916" fill="#665a38" d="M 422.5,51.5 C 429.491,57.1584 436.157,63.1584 442.5,69.5C 439.077,80.1943 436.411,91.1943 434.5,102.5C 430.161,98.4937 425.828,94.4937 421.5,90.5C 419.279,85.3943 417.945,80.061 417.5,74.5C 416.446,65.194 416.279,55.8606 417,46.5C 418.704,48.3734 420.537,50.0401 422.5,51.5 Z"/></g>
<g><path style="opacity:0.342" fill="#35281b" d="M 269.5,135.5 C 271.398,137.722 273.231,140.055 275,142.5C 279.324,142.968 282.157,145.635 283.5,150.5C 285.776,151.213 288.109,151.713 290.5,152C 293.675,155.508 297.175,158.675 301,161.5C 303.83,165.993 307.664,169.493 312.5,172C 330.83,188.802 350.163,204.136 370.5,218C 391.994,224.842 405.161,217.342 410,195.5C 410.48,197.133 411.313,198.466 412.5,199.5C 410.24,208.405 405.907,216.072 399.5,222.5C 391.979,224.308 384.312,224.975 376.5,224.5C 375.5,224.5 374.5,224.5 373.5,224.5C 371.708,223.691 369.708,223.191 367.5,223C 346.138,205.004 324.472,187.504 302.5,170.5C 302.167,170.5 301.833,170.5 301.5,170.5C 301.141,168.629 300.141,167.129 298.5,166C 284.167,154.333 269.833,142.667 255.5,131C 253.242,129.897 250.909,129.064 248.5,128.5C 221.143,140.845 194.476,154.179 168.5,168.5C 161.27,171.362 154.77,175.362 149,180.5C 146.28,185.33 143.947,190.33 142,195.5C 141.833,205.333 141.667,215.167 141.5,225C 141.501,235.19 142.168,245.023 143.5,254.5C 140.933,258.852 138.933,263.519 137.5,268.5C 136.833,268.833 136.167,269.167 135.5,269.5C 137.274,262.907 138.441,256.241 139,249.5C 134.405,241.967 129.571,234.633 124.5,227.5C 126.964,227.176 129.631,227.009 132.5,227C 133,226.5 133.5,226 134,225.5C 134.986,219.646 135.819,213.812 136.5,208C 135.632,193.715 140.632,181.715 151.5,172C 161.194,165.653 171.528,160.653 182.5,157C 190.626,152.851 198.626,148.518 206.5,144C 208.5,143.667 210.5,143.333 212.5,143C 213.836,139.168 216.503,137.668 220.5,138.5C 220.561,136.408 221.561,134.908 223.5,134C 228.806,131.097 234.306,128.597 240,126.5C 244.359,126.516 248.859,126.683 253.5,127C 259.289,129.06 264.623,131.894 269.5,135.5 Z"/></g>
<g><path style="opacity:0.949" fill="#b59057" d="M 282.5,167.5 C 278.177,170.082 273.844,172.749 269.5,175.5C 267.629,174.233 265.796,174.233 264,175.5C 262.62,172.942 261.12,172.942 259.5,175.5C 258.575,174.359 257.741,174.359 257,175.5C 256.309,173.109 255.309,173.109 254,175.5C 254.431,172.968 253.598,170.634 251.5,168.5C 247.98,167.536 244.647,166.203 241.5,164.5C 240.749,165.376 240.249,166.376 240,167.5C 239.749,165.567 239.249,163.734 238.5,162C 239.167,161.667 239.833,161.333 240.5,161C 239.167,160.333 239.167,159.667 240.5,159C 237.741,159.156 235.907,160.656 235,163.5C 234.5,163 234,162.5 233.5,162C 234.5,159.667 236.167,158 238.5,157C 237.667,156.833 236.833,156.667 236,156.5C 234.113,156.969 232.613,157.969 231.5,159.5C 231.167,159.167 230.833,158.833 230.5,158.5C 231.833,157.5 231.833,156.5 230.5,155.5C 231.5,154.5 232.5,153.5 233.5,152.5C 235.702,153.78 237.868,153.78 240,152.5C 241.693,153.184 243.193,154.184 244.5,155.5C 245.522,155.145 246.189,154.478 246.5,153.5C 247.482,154.141 248.482,154.807 249.5,155.5C 253.578,150.343 257.412,145.01 261,139.5C 262.489,145.433 263.656,151.433 264.5,157.5C 270.193,156.162 275.86,154.829 281.5,153.5C 281.998,158.152 282.331,162.819 282.5,167.5 Z"/></g>
<g><path style="opacity:0.937" fill="#695e3a" d="M 301.5,170.5 C 294.829,170.208 288.496,169.208 282.5,167.5C 282.331,162.819 281.998,158.152 281.5,153.5C 275.86,154.829 270.193,156.162 264.5,157.5C 263.656,151.433 262.489,145.433 261,139.5C 257.412,145.01 253.578,150.343 249.5,155.5C 248.482,154.807 247.482,154.141 246.5,153.5C 241.565,149.742 236.732,145.742 232,141.5C 229.473,148.291 227.473,155.291 226,162.5C 225.612,163.428 224.945,164.095 224,164.5C 214.964,160.988 205.798,157.988 196.5,155.5C 194.403,163.693 191.736,171.693 188.5,179.5C 187.448,179.649 186.448,179.483 185.5,179C 179.931,175.248 174.264,171.748 168.5,168.5C 194.476,154.179 221.143,140.845 248.5,128.5C 250.909,129.064 253.242,129.897 255.5,131C 269.833,142.667 284.167,154.333 298.5,166C 300.141,167.129 301.141,168.629 301.5,170.5 Z"/></g>
<g><path style="opacity:0.886" fill="#95b1bc" d="M 436.5,142.5 C 439.169,144.999 442.002,147.332 445,149.5C 445.5,159.161 445.666,168.828 445.5,178.5C 442.927,179.493 440.26,180.326 437.5,181C 436.748,181.671 436.414,182.504 436.5,183.5C 434.744,181.751 433.411,179.751 432.5,177.5C 433.167,174.5 433.833,171.5 434.5,168.5C 435.5,168.5 436.5,168.5 437.5,168.5C 437.397,165.364 436.397,162.698 434.5,160.5C 435.219,158.236 435.552,155.903 435.5,153.5C 437.62,152.597 437.954,151.263 436.5,149.5C 436.5,147.167 436.5,144.833 436.5,142.5 Z"/></g>
<g><path style="opacity:0.969" fill="#706241" d="M 432.5,177.5 C 433.411,179.751 434.744,181.751 436.5,183.5C 435.817,185.176 434.483,185.843 432.5,185.5C 430.712,185.785 429.045,185.452 427.5,184.5C 428.836,181.846 430.503,179.513 432.5,177.5 Z"/></g>
<g><path style="opacity:0.008" fill="#503d28" d="M 106.5,184.5 C 107.525,184.897 107.692,185.563 107,186.5C 106.536,185.906 106.369,185.239 106.5,184.5 Z"/></g>
<g><path style="opacity:0.917" fill="#6d5f3d" d="M 431.5,192.5 C 433.891,194.615 435.224,197.281 435.5,200.5C 433.833,200.5 432.167,200.5 430.5,200.5C 429.099,200.029 427.766,199.362 426.5,198.5C 428.185,196.429 429.852,194.429 431.5,192.5 Z"/></g>
<g><path style="opacity:0.989" fill="#9fc4d3" d="M 211.5,245.5 C 213.124,257.094 214.124,268.76 214.5,280.5C 214.611,281.117 214.944,281.617 215.5,282C 218.695,282.181 221.695,282.681 224.5,283.5C 224.975,286.082 224.308,288.082 222.5,289.5C 214.566,288.032 206.899,285.699 199.5,282.5C 196.976,281.26 194.309,280.093 191.5,279C 190.748,278.329 190.414,277.496 190.5,276.5C 190.766,258.477 190.266,240.477 189,222.5C 188.5,222 188,221.5 187.5,221C 181.167,220.333 174.833,220.333 168.5,221C 167.177,221.816 166.511,222.983 166.5,224.5C 165.833,239.339 165.167,254.339 164.5,269.5C 163.05,268.15 162.383,266.484 162.5,264.5C 160.708,264.366 159.042,264.699 157.5,265.5C 157.5,265.167 157.5,264.833 157.5,264.5C 158.509,263.061 158.176,261.728 156.5,260.5C 155.268,259.855 153.935,259.689 152.5,260C 154.95,257.611 156.117,254.778 156,251.5C 154.429,254.073 152.596,256.406 150.5,258.5C 147.847,257.715 147.18,256.215 148.5,254C 147.551,253.383 146.718,253.549 146,254.5C 145.51,253.207 145.343,251.873 145.5,250.5C 145.75,249.078 146.583,248.078 148,247.5C 149.771,233.185 153.771,219.519 160,206.5C 161.255,205.789 162.421,204.956 163.5,204C 175.5,203.333 187.5,203.333 199.5,204C 200.333,204.833 201.167,205.667 202,206.5C 202.226,217.577 203.226,228.577 205,239.5C 206.385,242.386 208.551,244.386 211.5,245.5 Z"/></g>
<g><path style="opacity:0.989" fill="#6a603b" d="M 302.5,170.5 C 324.472,187.504 346.138,205.004 367.5,223C 369.708,223.191 371.708,223.691 373.5,224.5C 364.446,224.194 355.446,224.528 346.5,225.5C 345.503,218.866 345.17,212.2 345.5,205.5C 338.5,205.5 331.5,205.5 324.5,205.5C 323.893,199.489 323.226,193.489 322.5,187.5C 316.167,187.5 309.833,187.5 303.5,187.5C 303.786,181.741 303.452,176.075 302.5,170.5 Z"/></g>
<g><path style="opacity:0.907" fill="#3a362b" d="M 90.5,218.5 C 87.985,224.348 84.3183,229.348 79.5,233.5C 76.8358,227.176 74.1691,220.843 71.5,214.5C 71.238,213.022 71.5713,211.689 72.5,210.5C 78.7879,212.647 84.7879,215.313 90.5,218.5 Z"/></g>
<g><path style="opacity:0.952" fill="#b99359" d="M 431.5,168.5 C 432.5,168.5 433.5,168.5 434.5,168.5C 433.833,171.5 433.167,174.5 432.5,177.5C 430.503,179.513 428.836,181.846 427.5,184.5C 429.045,185.452 430.712,185.785 432.5,185.5C 432.702,187.95 432.369,190.283 431.5,192.5C 429.852,194.429 428.185,196.429 426.5,198.5C 427.766,199.362 429.099,200.029 430.5,200.5C 430.5,203.5 430.5,206.5 430.5,209.5C 428.343,211.804 426.676,214.471 425.5,217.5C 425.719,219.915 427.052,220.915 429.5,220.5C 429.5,223.833 429.5,227.167 429.5,230.5C 426.627,232.554 423.961,234.887 421.5,237.5C 421.423,236.25 420.756,235.417 419.5,235C 420.5,234.667 421.5,234.333 422.5,234C 420.998,233.417 419.665,232.584 418.5,231.5C 419.025,230.808 419.692,230.308 420.5,230C 418.895,228.64 417.395,227.14 416,225.5C 415.691,226.766 415.191,227.933 414.5,229C 415.5,229.333 416.5,229.667 417.5,230C 415.424,231.693 413.091,232.36 410.5,232C 410.833,231.667 411.167,231.333 411.5,231C 410.175,231.148 409.008,230.982 408,230.5C 407.691,229.234 407.191,228.067 406.5,227C 407.951,227.263 409.284,227.096 410.5,226.5C 408.537,224.731 408.87,222.898 411.5,221C 409.782,220.654 408.115,220.154 406.5,219.5C 403.924,220.883 404.258,221.717 407.5,222C 407.043,222.414 406.709,222.914 406.5,223.5C 404.083,224.072 401.916,225.072 400,226.5C 399.493,225.004 399.993,223.837 401.5,223C 400.906,222.536 400.239,222.369 399.5,222.5C 405.907,216.072 410.24,208.405 412.5,199.5C 415.602,189.652 417.935,179.652 419.5,169.5C 421.068,169.359 422.735,169.026 424.5,168.5C 427.115,168.856 428.948,170.189 430,172.5C 430.861,171.252 431.361,169.919 431.5,168.5 Z"/></g>
<g><path style="opacity:0.944" fill="#9abcca" d="M 445.5,178.5 C 445.667,198.836 445.5,219.169 445,239.5C 445.107,242.592 443.941,244.925 441.5,246.5C 442.112,242.124 440.946,241.457 438,244.5C 435.335,243.61 433.501,241.943 432.5,239.5C 431.213,236.594 430.213,233.594 429.5,230.5C 429.5,227.167 429.5,223.833 429.5,220.5C 431.5,220.5 433.5,220.5 435.5,220.5C 434.964,217.445 434.131,214.445 433,211.5C 432.005,210.934 431.172,210.267 430.5,209.5C 430.5,206.5 430.5,203.5 430.5,200.5C 432.167,200.5 433.833,200.5 435.5,200.5C 435.224,197.281 433.891,194.615 431.5,192.5C 432.369,190.283 432.702,187.95 432.5,185.5C 434.483,185.843 435.817,185.176 436.5,183.5C 436.414,182.504 436.748,181.671 437.5,181C 440.26,180.326 442.927,179.493 445.5,178.5 Z"/></g>
<g><path style="opacity:0.885" fill="#6f613f" d="M 430.5,209.5 C 431.172,210.267 432.005,210.934 433,211.5C 434.131,214.445 434.964,217.445 435.5,220.5C 433.5,220.5 431.5,220.5 429.5,220.5C 427.052,220.915 425.719,219.915 425.5,217.5C 426.676,214.471 428.343,211.804 430.5,209.5 Z"/></g>
<g><path style="opacity:0.948" fill="#38352a" d="M 115.5,218.5 C 117.031,222.79 117.364,227.124 116.5,231.5C 111.497,227.392 105.83,225.059 99.5,224.5C 99.4914,222.692 99.9914,221.025 101,219.5C 102.707,217.963 104.207,216.296 105.5,214.5C 108.13,212.372 110.63,210.039 113,207.5C 113.995,211.145 114.828,214.812 115.5,218.5 Z"/></g>
<g><path style="opacity:0.491" fill="#302418" d="M 105.5,214.5 C 104.207,216.296 102.707,217.963 101,219.5C 99.9914,221.025 99.4914,222.692 99.5,224.5C 105.83,225.059 111.497,227.392 116.5,231.5C 117.364,227.124 117.031,222.79 115.5,218.5C 116.5,218.5 117.5,218.5 118.5,218.5C 120.351,222.342 121.684,226.342 122.5,230.5C 121.943,240.557 121.277,250.557 120.5,260.5C 120.167,260.5 119.833,260.5 119.5,260.5C 119.666,252.493 119.5,244.493 119,236.5C 110.982,231.743 102.816,227.41 94.5,223.5C 89.842,226.521 85.842,230.187 82.5,234.5C 80.4524,234.84 79.4524,234.507 79.5,233.5C 84.3183,229.348 87.985,224.348 90.5,218.5C 90.369,217.761 90.5357,217.094 91,216.5C 92.3333,217.167 93.6667,217.833 95,218.5C 98.3237,216.67 101.824,215.337 105.5,214.5 Z"/></g>
<g><path style="opacity:0.957" fill="#b8925a" d="M 124.5,227.5 C 129.571,234.633 134.405,241.967 139,249.5C 138.441,256.241 137.274,262.907 135.5,269.5C 131.939,267.952 128.606,265.952 125.5,263.5C 124.338,268.467 124.171,273.467 125,278.5C 126.94,281.395 129.44,283.728 132.5,285.5C 134.632,282.937 136.298,280.104 137.5,277C 136.831,275.153 135.497,273.986 133.5,273.5C 132.969,276.099 132.802,278.765 133,281.5C 127.551,278.291 126.051,273.624 128.5,267.5C 131.039,268.931 133.372,270.597 135.5,272.5C 138.518,273.855 139.851,276.188 139.5,279.5C 138.105,282.142 136.605,284.809 135,287.5C 134.241,289.063 133.074,290.063 131.5,290.5C 127.914,288.42 124.747,285.754 122,282.5C 121.51,281.207 121.343,279.873 121.5,278.5C 121.789,272.409 121.455,266.409 120.5,260.5C 121.277,250.557 121.943,240.557 122.5,230.5C 122.343,229.127 122.51,227.793 123,226.5C 123.383,227.056 123.883,227.389 124.5,227.5 Z"/></g>
<g><path style="opacity:0.844" fill="#ac8954" d="M 421.5,237.5 C 422.205,240.543 424.205,242.21 427.5,242.5C 427.463,245.702 425.797,247.368 422.5,247.5C 417.456,247.173 412.456,247.506 407.5,248.5C 408.559,250.534 409.559,252.534 410.5,254.5C 407.892,254.4 405.558,255.067 403.5,256.5C 399.495,256.926 395.995,255.926 393,253.5C 390.865,255.278 388.365,255.945 385.5,255.5C 386.609,254.71 387.942,254.21 389.5,254C 390.461,251.424 391.961,249.257 394,247.5C 394.492,248.549 394.326,249.549 393.5,250.5C 394.853,251.524 395.52,252.857 395.5,254.5C 397.889,253.253 399.889,253.253 401.5,254.5C 402.78,251.485 403.113,248.485 402.5,245.5C 404.328,244.205 406.328,243.205 408.5,242.5C 408.137,241.817 407.804,241.15 407.5,240.5C 408.542,239.209 409.708,239.209 411,240.5C 414.234,237.914 417.734,236.914 421.5,237.5 Z"/></g>
<g><path style="opacity:0.344" fill="#34281c" d="M 190.5,276.5 C 186.388,269.136 185.388,261.469 187.5,253.5C 186.956,246.45 186.123,239.45 185,232.5C 181.768,226.622 177.601,225.956 172.5,230.5C 170.483,234.919 169.483,239.585 169.5,244.5C 170.291,265.805 170.457,287.139 170,308.5C 169.692,309.308 169.192,309.975 168.5,310.5C 167.828,309.051 167.161,307.718 166.5,306.5C 166.5,279.167 166.5,251.833 166.5,224.5C 166.511,222.983 167.177,221.816 168.5,221C 174.833,220.333 181.167,220.333 187.5,221C 188,221.5 188.5,222 189,222.5C 190.266,240.477 190.766,258.477 190.5,276.5 Z"/></g>
<g><path style="opacity:0.911" fill="#6b5e3c" d="M 429.5,230.5 C 430.213,233.594 431.213,236.594 432.5,239.5C 432.762,240.978 432.429,242.311 431.5,243.5C 430.264,242.754 428.93,242.421 427.5,242.5C 424.205,242.21 422.205,240.543 421.5,237.5C 423.961,234.887 426.627,232.554 429.5,230.5 Z"/></g>
<g><path style="opacity:0.891" fill="#3c372b" d="M 78.5,260.5 C 80.0342,256.599 81.7008,252.766 83.5,249C 82.7135,246.901 82.3801,244.734 82.5,242.5C 83.29,243.609 83.79,244.942 84,246.5C 85.5862,244.33 86.9196,241.996 88,239.5C 90.3933,245.899 92.56,252.399 94.5,259C 89.118,259.265 83.7846,259.765 78.5,260.5 Z"/></g>
<g><path style="opacity:0.901" fill="#b79158" d="M 407.5,240.5 C 407.804,241.15 408.137,241.817 408.5,242.5C 406.328,243.205 404.328,244.205 402.5,245.5C 403.113,248.485 402.78,251.485 401.5,254.5C 399.889,253.253 397.889,253.253 395.5,254.5C 395.52,252.857 394.853,251.524 393.5,250.5C 394.326,249.549 394.492,248.549 394,247.5C 391.961,249.257 390.461,251.424 389.5,254C 387.942,254.21 386.609,254.71 385.5,255.5C 386.216,258.598 387.216,261.598 388.5,264.5C 385.982,265.264 383.649,266.264 381.5,267.5C 374.52,266.835 367.52,266.502 360.5,266.5C 360.5,267.5 360.5,268.5 360.5,269.5C 359.778,269.082 359.278,268.416 359,267.5C 358.259,268.641 357.425,268.641 356.5,267.5C 355.571,268.689 355.238,270.022 355.5,271.5C 353.284,271.725 351.617,270.892 350.5,269C 351.623,267.956 352.956,267.29 354.5,267C 354.279,265.201 353.946,263.368 353.5,261.5C 354.167,260.833 354.833,260.167 355.5,259.5C 354.726,258.289 353.893,258.289 353,259.5C 353.221,255.567 354.888,252.233 358,249.5C 358.181,251.674 357.348,253.507 355.5,255C 356,255.5 356.5,256 357,256.5C 358.138,253.099 360.471,251.099 364,250.5C 364.308,251.308 364.808,251.975 365.5,252.5C 366.624,251.086 367.624,249.586 368.5,248C 369.744,247.544 370.577,248.044 371,249.5C 372.097,247.947 373.43,246.614 375,245.5C 376.533,245.944 378.033,246.277 379.5,246.5C 381.79,244.033 383.957,244.033 386,246.5C 388.61,246.347 390.943,245.014 393,242.5C 392.851,246.436 394.017,246.436 396.5,242.5C 392.875,241.357 392.709,240.024 396,238.5C 399.278,242.782 403.111,243.448 407.5,240.5 Z"/></g>
<g><path style="opacity:0.774" fill="#685c39" d="M 422.5,247.5 C 419.917,250.997 417.584,254.664 415.5,258.5C 413.225,257.889 411.559,256.555 410.5,254.5C 409.559,252.534 408.559,250.534 407.5,248.5C 412.456,247.506 417.456,247.173 422.5,247.5 Z"/></g>
<g><path style="opacity:0.765" fill="#685b3a" d="M 403.5,256.5 C 400.794,261.386 397.461,265.886 393.5,270C 392.365,270.749 391.365,270.583 390.5,269.5C 389.826,267.805 389.159,266.138 388.5,264.5C 387.216,261.598 386.216,258.598 385.5,255.5C 388.365,255.945 390.865,255.278 393,253.5C 395.995,255.926 399.495,256.926 403.5,256.5 Z"/></g>
<g><path style="opacity:0.209" fill="#3e2f1f" d="M 190.5,276.5 C 190.414,277.496 190.748,278.329 191.5,279C 194.309,280.093 196.976,281.26 199.5,282.5C 198.761,282.369 198.094,282.536 197.5,283C 200.843,285.177 203.51,288.01 205.5,291.5C 204.446,293.201 203.446,294.868 202.5,296.5C 199.369,295.908 197.036,296.908 195.5,299.5C 194.67,309.992 194.17,320.659 194,331.5C 190.993,326.978 189.493,321.978 189.5,316.5C 189.928,310.343 190.761,304.343 192,298.5C 190.725,300.717 189.725,303.051 189,305.5C 188.667,311.5 188.333,317.5 188,323.5C 187.682,319.805 187.182,316.138 186.5,312.5C 187.838,304.665 190.172,297.165 193.5,290C 189.688,284.876 186.521,279.376 184,273.5C 182.94,261.387 182.273,249.387 182,237.5C 180.091,232.684 177.758,232.351 175,236.5C 173.844,245.85 173.677,255.183 174.5,264.5C 172.973,271.678 172.307,278.511 172.5,285C 175.32,295.293 175.153,305.793 172,316.5C 167.7,321.801 163.034,326.801 158,331.5C 154.822,339.173 151.489,346.84 148,354.5C 143.661,362.179 137.161,366.679 128.5,368C 122.718,368.354 117.218,368.187 112,367.5C 105.499,368.585 98.9991,369.585 92.5,370.5C 93.5116,369.128 94.5116,367.795 95.5,366.5C 99.5776,365.863 103.411,364.53 107,362.5C 115.133,364.43 123.3,364.597 131.5,363C 130.944,362.617 130.611,362.117 130.5,361.5C 136.5,362.833 138.833,360.5 137.5,354.5C 137.833,354.5 138.167,354.5 138.5,354.5C 141.764,353.073 144.264,350.739 146,347.5C 147.015,343.56 147.515,339.56 147.5,335.5C 148.485,331.366 148.818,327.032 148.5,322.5C 154.456,323.125 159.789,321.625 164.5,318C 165.252,317.329 165.586,316.496 165.5,315.5C 166.477,312.713 166.81,309.713 166.5,306.5C 167.161,307.718 167.828,309.051 168.5,310.5C 169.192,309.975 169.692,309.308 170,308.5C 170.457,287.139 170.291,265.805 169.5,244.5C 169.483,239.585 170.483,234.919 172.5,230.5C 177.601,225.956 181.768,226.622 185,232.5C 186.123,239.45 186.956,246.45 187.5,253.5C 185.388,261.469 186.388,269.136 190.5,276.5 Z"/></g>
<g><path style="opacity:0.602" fill="#85979b" d="M 432.5,239.5 C 433.501,241.943 435.335,243.61 438,244.5C 440.946,241.457 442.112,242.124 441.5,246.5C 432.527,256.14 423.194,265.473 413.5,274.5C 413.389,273.883 413.056,273.383 412.5,273C 413.687,271.981 414.687,270.814 415.5,269.5C 414.289,268.28 414.289,267.113 415.5,266C 413.109,265.309 413.109,264.309 415.5,263C 414.833,262.667 414.167,262.333 413.5,262C 415.345,261.813 417.011,260.98 418.5,259.5C 417.675,258.614 416.675,258.281 415.5,258.5C 417.584,254.664 419.917,250.997 422.5,247.5C 425.797,247.368 427.463,245.702 427.5,242.5C 428.93,242.421 430.264,242.754 431.5,243.5C 432.429,242.311 432.762,240.978 432.5,239.5 Z"/></g>
<g><path style="opacity:0.937" fill="#3c382c" d="M 117.5,261.5 C 114.56,267.046 111.894,272.713 109.5,278.5C 106.273,273.259 102.607,268.259 98.5,263.5C 99.376,262.749 100.376,262.249 101.5,262C 106.823,261.501 112.156,261.334 117.5,261.5 Z"/></g>
<g><path style="opacity:0.792" fill="#90a9b2" d="M 410.5,254.5 C 411.559,256.555 413.225,257.889 415.5,258.5C 416.675,258.281 417.675,258.614 418.5,259.5C 417.011,260.98 415.345,261.813 413.5,262C 414.167,262.333 414.833,262.667 415.5,263C 413.109,264.309 413.109,265.309 415.5,266C 414.289,267.113 414.289,268.28 415.5,269.5C 414.687,270.814 413.687,271.981 412.5,273C 413.056,273.383 413.389,273.883 413.5,274.5C 413.167,275.5 412.5,276.167 411.5,276.5C 411.646,274.058 410.813,273.391 409,274.5C 408.626,273.584 408.126,272.75 407.5,272C 408.451,271.282 408.617,270.449 408,269.5C 406.097,269.694 404.263,269.694 402.5,269.5C 404.991,268.459 404.991,267.626 402.5,267C 404.396,265.935 404.563,265.102 403,264.5C 398.962,268.442 394.795,272.276 390.5,276C 388.5,276.667 386.5,276.667 384.5,276C 386.685,274.074 388.185,271.908 389,269.5C 387.301,270.406 385.467,270.739 383.5,270.5C 383.715,268.821 383.048,267.821 381.5,267.5C 383.649,266.264 385.982,265.264 388.5,264.5C 389.159,266.138 389.826,267.805 390.5,269.5C 391.365,270.583 392.365,270.749 393.5,270C 397.461,265.886 400.794,261.386 403.5,256.5C 405.558,255.067 407.892,254.4 410.5,254.5 Z"/></g>
<g><path style="opacity:0.698" fill="#635c54" d="M 119.5,260.5 C 119.833,260.5 120.167,260.5 120.5,260.5C 121.455,266.409 121.789,272.409 121.5,278.5C 120.539,280.265 120.205,282.265 120.5,284.5C 119.508,276.684 119.174,268.684 119.5,260.5 Z"/></g>
<g><path style="opacity:0.956" fill="#9abbc8" d="M 145.5,250.5 C 145.343,251.873 145.51,253.207 146,254.5C 146.718,253.549 147.551,253.383 148.5,254C 147.18,256.215 147.847,257.715 150.5,258.5C 152.596,256.406 154.429,254.073 156,251.5C 156.117,254.778 154.95,257.611 152.5,260C 153.935,259.689 155.268,259.855 156.5,260.5C 158.176,261.728 158.509,263.061 157.5,264.5C 155.61,264.297 154.11,264.963 153,266.5C 151.435,269.962 149.602,273.295 147.5,276.5C 153.128,277.495 158.794,277.829 164.5,277.5C 156.311,278.256 147.978,278.922 139.5,279.5C 139.851,276.188 138.518,273.855 135.5,272.5C 136.167,271.167 136.833,269.833 137.5,268.5C 138.933,263.519 140.933,258.852 143.5,254.5C 144.167,253.167 144.833,251.833 145.5,250.5 Z"/></g>
<g><path style="opacity:0.969" fill="#87908e" d="M 211.5,245.5 C 212.5,245.5 213.5,245.5 214.5,245.5C 214.5,257.167 214.5,268.833 214.5,280.5C 214.124,268.76 213.124,257.094 211.5,245.5 Z"/></g>
<g><path style="opacity:0.917" fill="#6d623f" d="M 381.5,267.5 C 376.188,273.146 370.855,278.813 365.5,284.5C 364.308,282.258 363.308,279.925 362.5,277.5C 362.043,276.702 361.376,276.369 360.5,276.5C 361.438,274.244 361.438,271.91 360.5,269.5C 360.5,268.5 360.5,267.5 360.5,266.5C 367.52,266.502 374.52,266.835 381.5,267.5 Z"/></g>
<g><path style="opacity:0.876" fill="#92afbc" d="M 166.5,224.5 C 166.5,251.833 166.5,279.167 166.5,306.5C 166.81,309.713 166.477,312.713 165.5,315.5C 165.829,302.656 165.495,289.989 164.5,277.5C 162.178,273.528 159.845,269.528 157.5,265.5C 159.042,264.699 160.708,264.366 162.5,264.5C 162.383,266.484 163.05,268.15 164.5,269.5C 165.167,254.339 165.833,239.339 166.5,224.5 Z"/></g>
<g><path style="opacity:0.922" fill="#6b523f" d="M 157.5,264.5 C 157.5,264.833 157.5,265.167 157.5,265.5C 159.845,269.528 162.178,273.528 164.5,277.5C 158.794,277.829 153.128,277.495 147.5,276.5C 149.602,273.295 151.435,269.962 153,266.5C 154.11,264.963 155.61,264.297 157.5,264.5 Z"/></g>
<g><path style="opacity:0.961" fill="#99b8c7" d="M 119.5,260.5 C 119.174,268.684 119.508,276.684 120.5,284.5C 124.5,287.833 128.5,291.167 132.5,294.5C 129.261,296.056 126.928,295.056 125.5,291.5C 125.733,293.715 124.733,295.715 122.5,297.5C 121.311,298.429 119.978,298.762 118.5,298.5C 118.5,299.833 118.5,301.167 118.5,302.5C 117.167,302.5 115.833,302.5 114.5,302.5C 113.106,307.302 114.773,310.636 119.5,312.5C 119.5,313.167 119.5,313.833 119.5,314.5C 116.672,312.252 113.672,310.252 110.5,308.5C 111.038,306.883 111.371,305.216 111.5,303.5C 115.67,299.83 119.67,295.997 123.5,292C 119.419,288.421 114.752,285.921 109.5,284.5C 109.5,282.5 109.5,280.5 109.5,278.5C 111.894,272.713 114.56,267.046 117.5,261.5C 118.167,261.167 118.833,260.833 119.5,260.5 Z"/></g>
<g><path style="opacity:0.969" fill="#a1adc5" d="M 135.5,269.5 C 136.167,269.167 136.833,268.833 137.5,268.5C 136.833,269.833 136.167,271.167 135.5,272.5C 133.372,270.597 131.039,268.931 128.5,267.5C 126.051,273.624 127.551,278.291 133,281.5C 132.802,278.765 132.969,276.099 133.5,273.5C 135.497,273.986 136.831,275.153 137.5,277C 136.298,280.104 134.632,282.937 132.5,285.5C 129.44,283.728 126.94,281.395 125,278.5C 124.171,273.467 124.338,268.467 125.5,263.5C 128.606,265.952 131.939,267.952 135.5,269.5 Z"/></g>
<g><path style="opacity:0.978" fill="#6a5f3a" d="M 238.5,278.5 C 238.5,284.5 238.5,290.5 238.5,296.5C 238.813,299.247 238.48,301.914 237.5,304.5C 236.5,305 235.5,305.5 234.5,306C 225.226,307.22 215.893,307.887 206.5,308C 205.529,313.072 205.195,318.238 205.5,323.5C 208.698,322.964 211.365,323.631 213.5,325.5C 212.379,327.741 211.213,330.075 210,332.5C 208.989,333.337 207.822,333.67 206.5,333.5C 203.061,333.747 199.728,333.414 196.5,332.5C 195.523,321.581 195.19,310.581 195.5,299.5C 197.036,296.908 199.369,295.908 202.5,296.5C 209.508,296.666 216.508,296.5 223.5,296C 224.406,294.301 224.739,292.467 224.5,290.5C 225.833,288.167 225.833,285.833 224.5,283.5C 221.695,282.681 218.695,282.181 215.5,282C 214.944,281.617 214.611,281.117 214.5,280.5C 214.5,268.833 214.5,257.167 214.5,245.5C 214.953,244.542 215.619,243.708 216.5,243C 222.825,242.5 229.158,242.334 235.5,242.5C 235.5,252.833 235.5,263.167 235.5,273.5C 231.5,273.5 227.5,273.5 223.5,273.5C 223.5,266.5 223.5,259.5 223.5,252.5C 225.144,252.286 226.644,252.62 228,253.5C 228.172,258.202 228.672,262.868 229.5,267.5C 230.791,261.476 230.791,255.476 229.5,249.5C 226.572,248.516 223.572,248.183 220.5,248.5C 220.192,258.22 220.526,267.887 221.5,277.5C 227.128,278.495 232.794,278.829 238.5,278.5 Z"/></g>
<g><path style="opacity:0.975" fill="#8a9296" d="M 238.5,278.5 C 238.833,278.5 239.167,278.5 239.5,278.5C 239.211,284.591 239.545,290.591 240.5,296.5C 239.833,296.5 239.167,296.5 238.5,296.5C 238.5,290.5 238.5,284.5 238.5,278.5 Z"/></g>
<g><path style="opacity:0.958" fill="#3f3c30" d="M 109.5,284.5 C 114.752,285.921 119.419,288.421 123.5,292C 119.67,295.997 115.67,299.83 111.5,303.5C 110.757,297.3 110.09,290.966 109.5,284.5 Z"/></g>
<g><path style="opacity:0.937" fill="#828784" d="M 224.5,283.5 C 225.833,285.833 225.833,288.167 224.5,290.5C 223.508,290.672 222.842,290.338 222.5,289.5C 224.308,288.082 224.975,286.082 224.5,283.5 Z"/></g>
<g><path style="opacity:0.476" fill="#2c2117" d="M 199.5,282.5 C 206.899,285.699 214.566,288.032 222.5,289.5C 222.842,290.338 223.508,290.672 224.5,290.5C 224.739,292.467 224.406,294.301 223.5,296C 216.508,296.5 209.508,296.666 202.5,296.5C 203.446,294.868 204.446,293.201 205.5,291.5C 203.51,288.01 200.843,285.177 197.5,283C 198.094,282.536 198.761,282.369 199.5,282.5 Z"/></g>
<g><path style="opacity:0.975" fill="#9ec3d2" d="M 242.5,260.5 C 248.724,261.721 254.724,263.554 260.5,266C 265.171,266.538 269.838,267.038 274.5,267.5C 274.5,272.5 274.5,277.5 274.5,282.5C 273.504,298.658 273.17,314.991 273.5,331.5C 271.833,331.5 270.167,331.5 268.5,331.5C 267.417,331.461 266.417,331.127 265.5,330.5C 264.275,325.014 262.942,319.68 261.5,314.5C 261.97,308.852 259.97,304.352 255.5,301C 250.573,299.183 245.573,297.683 240.5,296.5C 239.545,290.591 239.211,284.591 239.5,278.5C 239.5,272.5 239.5,266.5 239.5,260.5C 240.5,260.5 241.5,260.5 242.5,260.5 Z"/></g>
<g><path style="opacity:0.972" fill="#695e3a" d="M 119.5,260.5 C 118.833,260.833 118.167,261.167 117.5,261.5C 112.156,261.334 106.823,261.501 101.5,262C 100.376,262.249 99.376,262.749 98.5,263.5C 102.607,268.259 106.273,273.259 109.5,278.5C 109.5,280.5 109.5,282.5 109.5,284.5C 110.09,290.966 110.757,297.3 111.5,303.5C 111.371,305.216 111.038,306.883 110.5,308.5C 110.5,313.167 110.5,317.833 110.5,322.5C 110.5,323.167 110.5,323.833 110.5,324.5C 108.342,332.799 106.342,341.133 104.5,349.5C 114.788,351.238 116.621,348.571 110,341.5C 109.51,340.207 109.343,338.873 109.5,337.5C 112.406,337.043 115.072,336.043 117.5,334.5C 122.833,334.833 128.167,335.167 133.5,335.5C 132.692,342.337 134.025,348.671 137.5,354.5C 138.833,360.5 136.5,362.833 130.5,361.5C 124.824,361.666 119.157,361.499 113.5,361C 109.929,358.579 106.262,356.413 102.5,354.5C 96.5907,353.545 90.5907,353.211 84.5,353.5C 66.4274,349.924 55.9274,338.924 53,320.5C 51.6016,307.274 52.6016,294.274 56,281.5C 61.046,271.89 68.546,264.89 78.5,260.5C 83.7846,259.765 89.118,259.265 94.5,259C 92.56,252.399 90.3933,245.899 88,239.5C 86.9196,241.996 85.5862,244.33 84,246.5C 83.79,244.942 83.29,243.609 82.5,242.5C 81.2857,239.871 81.2857,237.204 82.5,234.5C 85.842,230.187 89.842,226.521 94.5,223.5C 102.816,227.41 110.982,231.743 119,236.5C 119.5,244.493 119.666,252.493 119.5,260.5 Z"/></g>
<g><path style="opacity:0.934" fill="#3b372c" d="M 71.5,280.5 C 74.4495,282.728 76.1162,285.728 76.5,289.5C 73.4816,289.665 70.4816,289.498 67.5,289C 68.7025,286.095 70.0359,283.262 71.5,280.5 Z"/></g>
<g><path style="opacity:0.93" fill="#3f3b2d" d="M 85.5,264.5 C 89.812,266.289 93.4786,269.123 96.5,273C 92.2177,274.157 87.8843,274.99 83.5,275.5C 84.1667,271.833 84.8333,268.167 85.5,264.5 Z"/></g>
<g><path style="opacity:0.937" fill="#3e3a2d" d="M 97.5,287.5 C 98.7251,288.152 99.3917,289.319 99.5,291C 100.39,293.893 100.39,296.726 99.5,299.5C 96.3388,298.087 93.3388,296.42 90.5,294.5C 92.6729,291.932 95.0062,289.599 97.5,287.5 Z"/></g>
<g><path style="opacity:0.487" fill="#332b23" d="M 121.5,278.5 C 121.343,279.873 121.51,281.207 122,282.5C 124.747,285.754 127.914,288.42 131.5,290.5C 133.674,293.937 136.008,294.103 138.5,291C 143.489,290.501 148.489,290.334 153.5,290.5C 153.827,295.544 153.494,300.544 152.5,305.5C 149.229,306.198 145.896,306.198 142.5,305.5C 142.5,304.167 142.5,302.833 142.5,301.5C 145.469,302.329 148.469,302.495 151.5,302C 152.333,299.919 152.333,297.752 151.5,295.5C 147.486,295.334 143.486,295.501 139.5,296C 139,296.5 138.5,297 138,297.5C 137.204,310.545 137.371,323.545 138.5,336.5C 138.5,342.5 138.5,348.5 138.5,354.5C 138.167,354.5 137.833,354.5 137.5,354.5C 134.025,348.671 132.692,342.337 133.5,335.5C 134.174,322.169 134.341,308.836 134,295.5C 133.617,294.944 133.117,294.611 132.5,294.5C 128.5,291.167 124.5,287.833 120.5,284.5C 120.205,282.265 120.539,280.265 121.5,278.5 Z"/></g>
<g><path style="opacity:0.979" fill="#9dc0ce" d="M 411.5,276.5 C 401.839,286.328 392.339,296.328 383,306.5C 376.609,322.282 369.942,337.949 363,353.5C 362.167,354.333 361.333,355.167 360.5,356C 353.897,357.274 347.23,357.774 340.5,357.5C 346.86,353.636 351.693,348.303 355,341.5C 355.333,321.5 355.667,301.5 356,281.5C 356.288,278.713 357.788,277.047 360.5,276.5C 361.376,276.369 362.043,276.702 362.5,277.5C 363.308,279.925 364.308,282.258 365.5,284.5C 370.855,278.813 376.188,273.146 381.5,267.5C 383.048,267.821 383.715,268.821 383.5,270.5C 385.467,270.739 387.301,270.406 389,269.5C 388.185,271.908 386.685,274.074 384.5,276C 386.5,276.667 388.5,276.667 390.5,276C 394.795,272.276 398.962,268.442 403,264.5C 404.563,265.102 404.396,265.935 402.5,267C 404.991,267.626 404.991,268.459 402.5,269.5C 404.263,269.694 406.097,269.694 408,269.5C 408.617,270.449 408.451,271.282 407.5,272C 408.126,272.75 408.626,273.584 409,274.5C 410.813,273.391 411.646,274.058 411.5,276.5 Z"/></g>
<g><path style="opacity:0.881" fill="#3f3a2b" d="M 80.5,301.5 C 81.7773,302.694 82.4439,304.36 82.5,306.5C 82.6793,309.131 82.0127,311.465 80.5,313.5C 77.2911,311.735 74.2911,309.735 71.5,307.5C 74.5178,305.474 77.5178,303.474 80.5,301.5 Z"/></g>
<g><path style="opacity:0.987" fill="#c4b760" d="M 119.5,314.5 C 119.5,313.833 119.5,313.167 119.5,312.5C 119.5,308.833 119.5,305.167 119.5,301.5C 128.056,301.218 131.889,305.218 131,313.5C 128.45,317.192 124.95,318.858 120.5,318.5C 120.768,316.901 120.434,315.568 119.5,314.5 Z"/></g>
<g><path style="opacity:0.99" fill="#423b2f" d="M 124.5,305.5 C 127.183,307.041 128.016,309.374 127,312.5C 125.989,313.337 124.822,313.67 123.5,313.5C 123.279,310.721 123.612,308.054 124.5,305.5 Z"/></g>
<g><path style="opacity:0.977" fill="#9dc2d1" d="M 164.5,277.5 C 165.495,289.989 165.829,302.656 165.5,315.5C 165.586,316.496 165.252,317.329 164.5,318C 159.789,321.625 154.456,323.125 148.5,322.5C 147.78,326.73 147.113,331.063 146.5,335.5C 143.946,336.388 141.279,336.721 138.5,336.5C 137.371,323.545 137.204,310.545 138,297.5C 138.5,297 139,296.5 139.5,296C 143.486,295.501 147.486,295.334 151.5,295.5C 152.333,297.752 152.333,299.919 151.5,302C 148.469,302.495 145.469,302.329 142.5,301.5C 142.5,302.833 142.5,304.167 142.5,305.5C 145.896,306.198 149.229,306.198 152.5,305.5C 153.494,300.544 153.827,295.544 153.5,290.5C 148.489,290.334 143.489,290.501 138.5,291C 136.008,294.103 133.674,293.937 131.5,290.5C 133.074,290.063 134.241,289.063 135,287.5C 136.605,284.809 138.105,282.142 139.5,279.5C 147.978,278.922 156.311,278.256 164.5,277.5 Z"/></g>
<g><path style="opacity:0.437" fill="#302519" d="M 238.5,296.5 C 239.167,296.5 239.833,296.5 240.5,296.5C 245.573,297.683 250.573,299.183 255.5,301C 259.97,304.352 261.97,308.852 261.5,314.5C 260.5,314.5 259.5,314.5 258.5,314.5C 258.416,307.17 254.582,303.837 247,304.5C 237.658,305.214 231.158,309.714 227.5,318C 228.448,318.483 229.448,318.649 230.5,318.5C 228.933,321.967 227.099,325.3 225,328.5C 224.712,323.399 223.878,318.399 222.5,313.5C 219.417,317.997 216.583,322.664 214,327.5C 213.536,326.906 213.369,326.239 213.5,325.5C 211.365,323.631 208.698,322.964 205.5,323.5C 205.195,318.238 205.529,313.072 206.5,308C 215.893,307.887 225.226,307.22 234.5,306C 235.5,305.5 236.5,305 237.5,304.5C 238.48,301.914 238.813,299.247 238.5,296.5 Z"/></g>
<g><path style="opacity:0.978" fill="#434034" d="M 110.5,308.5 C 113.672,310.252 116.672,312.252 119.5,314.5C 116.729,317.392 113.729,320.058 110.5,322.5C 110.5,317.833 110.5,313.167 110.5,308.5 Z"/></g>
<g><path style="opacity:0.978" fill="#3d3b2d" d="M 96.5,315.5 C 97.8333,315.5 99.1667,315.5 100.5,315.5C 100.737,319.273 100.237,322.94 99,326.5C 96.5536,324.041 94.0536,321.708 91.5,319.5C 93.0147,317.918 94.6814,316.584 96.5,315.5 Z"/></g>
<g><path style="opacity:0.913" fill="#8fa1aa" d="M 274.5,282.5 C 274.5,299.167 274.5,315.833 274.5,332.5C 272.5,332.5 270.5,332.5 268.5,332.5C 268.5,332.167 268.5,331.833 268.5,331.5C 270.167,331.5 271.833,331.5 273.5,331.5C 273.17,314.991 273.504,298.658 274.5,282.5 Z"/></g>
<g><path style="opacity:0.253" fill="#3b2c1e" d="M 71.5,214.5 C 74.1691,220.843 76.8358,227.176 79.5,233.5C 79.4524,234.507 80.4524,234.84 82.5,234.5C 81.2857,237.204 81.2857,239.871 82.5,242.5C 82.3801,244.734 82.7135,246.901 83.5,249C 81.7008,252.766 80.0342,256.599 78.5,260.5C 68.546,264.89 61.046,271.89 56,281.5C 52.6016,294.274 51.6016,307.274 53,320.5C 55.9274,338.924 66.4274,349.924 84.5,353.5C 86.0166,359.529 88.3499,365.196 91.5,370.5C 85.2039,369.366 80.2039,366.032 76.5,360.5C 65.156,354.651 56.3227,346.318 50,335.5C 43.9332,319.357 42.9332,303.024 47,286.5C 50.3439,278.509 55.1773,271.676 61.5,266C 60.3595,265.259 60.3595,264.425 61.5,263.5C 64.8174,260.782 68.4841,257.615 72.5,254C 72.1667,253.667 71.8333,253.333 71.5,253C 72.4706,251.796 73.4706,251.296 74.5,251.5C 71.972,250.483 71.972,249.316 74.5,248C 74.1667,247.667 73.8333,247.333 73.5,247C 74.1667,244.667 74.8333,242.333 75.5,240C 72.9047,238.654 72.238,236.82 73.5,234.5C 72.7515,232.964 71.7515,231.631 70.5,230.5C 74.3107,229.262 74.3107,228.596 70.5,228.5C 68.5996,224.726 67.5996,220.893 67.5,217C 68.3079,215.294 69.6412,214.461 71.5,214.5 Z"/></g>
<g><path style="opacity:0.988" fill="#9fc3d2" d="M 132.5,294.5 C 133.117,294.611 133.617,294.944 134,295.5C 134.341,308.836 134.174,322.169 133.5,335.5C 128.167,335.167 122.833,334.833 117.5,334.5C 117.649,333.448 117.483,332.448 117,331.5C 114.817,329.093 112.65,326.76 110.5,324.5C 110.5,323.833 110.5,323.167 110.5,322.5C 113.729,320.058 116.729,317.392 119.5,314.5C 120.434,315.568 120.768,316.901 120.5,318.5C 124.95,318.858 128.45,317.192 131,313.5C 131.889,305.218 128.056,301.218 119.5,301.5C 119.5,305.167 119.5,308.833 119.5,312.5C 114.773,310.636 113.106,307.302 114.5,302.5C 115.833,302.5 117.167,302.5 118.5,302.5C 118.5,301.167 118.5,299.833 118.5,298.5C 119.978,298.762 121.311,298.429 122.5,297.5C 124.733,295.715 125.733,293.715 125.5,291.5C 126.928,295.056 129.261,296.056 132.5,294.5 Z"/></g>
<g><path style="opacity:0.985" fill="#be975b" d="M 246.5,153.5 C 246.189,154.478 245.522,155.145 244.5,155.5C 243.193,154.184 241.693,153.184 240,152.5C 237.868,153.78 235.702,153.78 233.5,152.5C 232.5,153.5 231.5,154.5 230.5,155.5C 231.833,156.5 231.833,157.5 230.5,158.5C 230.833,158.833 231.167,159.167 231.5,159.5C 232.613,157.969 234.113,156.969 236,156.5C 236.833,156.667 237.667,156.833 238.5,157C 236.167,158 234.5,159.667 233.5,162C 234,162.5 234.5,163 235,163.5C 235.907,160.656 237.741,159.156 240.5,159C 239.167,159.667 239.167,160.333 240.5,161C 239.833,161.333 239.167,161.667 238.5,162C 239.249,163.734 239.749,165.567 240,167.5C 240.249,166.376 240.749,165.376 241.5,164.5C 244.647,166.203 247.98,167.536 251.5,168.5C 253.598,170.634 254.431,172.968 254,175.5C 255.309,173.109 256.309,173.109 257,175.5C 257.741,174.359 258.575,174.359 259.5,175.5C 261.12,172.942 262.62,172.942 264,175.5C 265.796,174.233 267.629,174.233 269.5,175.5C 273.844,172.749 278.177,170.082 282.5,167.5C 288.496,169.208 294.829,170.208 301.5,170.5C 301.833,170.5 302.167,170.5 302.5,170.5C 303.452,176.075 303.786,181.741 303.5,187.5C 309.833,187.5 316.167,187.5 322.5,187.5C 323.226,193.489 323.893,199.489 324.5,205.5C 331.5,205.5 338.5,205.5 345.5,205.5C 345.17,212.2 345.503,218.866 346.5,225.5C 355.446,224.528 364.446,224.194 373.5,224.5C 374.5,224.5 375.5,224.5 376.5,224.5C 382.653,225.653 388.986,225.82 395.5,225C 397.32,224.8 398.653,223.966 399.5,222.5C 400.239,222.369 400.906,222.536 401.5,223C 399.993,223.837 399.493,225.004 400,226.5C 401.916,225.072 404.083,224.072 406.5,223.5C 406.709,222.914 407.043,222.414 407.5,222C 404.258,221.717 403.924,220.883 406.5,219.5C 408.115,220.154 409.782,220.654 411.5,221C 408.87,222.898 408.537,224.731 410.5,226.5C 409.284,227.096 407.951,227.263 406.5,227C 407.191,228.067 407.691,229.234 408,230.5C 409.008,230.982 410.175,231.148 411.5,231C 411.167,231.333 410.833,231.667 410.5,232C 413.091,232.36 415.424,231.693 417.5,230C 416.5,229.667 415.5,229.333 414.5,229C 415.191,227.933 415.691,226.766 416,225.5C 417.395,227.14 418.895,228.64 420.5,230C 419.692,230.308 419.025,230.808 418.5,231.5C 419.665,232.584 420.998,233.417 422.5,234C 421.5,234.333 420.5,234.667 419.5,235C 420.756,235.417 421.423,236.25 421.5,237.5C 417.734,236.914 414.234,237.914 411,240.5C 409.708,239.209 408.542,239.209 407.5,240.5C 403.111,243.448 399.278,242.782 396,238.5C 392.709,240.024 392.875,241.357 396.5,242.5C 394.017,246.436 392.851,246.436 393,242.5C 390.943,245.014 388.61,246.347 386,246.5C 383.957,244.033 381.79,244.033 379.5,246.5C 378.033,246.277 376.533,245.944 375,245.5C 373.43,246.614 372.097,247.947 371,249.5C 370.577,248.044 369.744,247.544 368.5,248C 367.624,249.586 366.624,251.086 365.5,252.5C 364.808,251.975 364.308,251.308 364,250.5C 360.471,251.099 358.138,253.099 357,256.5C 356.5,256 356,255.5 355.5,255C 357.348,253.507 358.181,251.674 358,249.5C 354.888,252.233 353.221,255.567 353,259.5C 353.893,258.289 354.726,258.289 355.5,259.5C 354.833,260.167 354.167,260.833 353.5,261.5C 353.946,263.368 354.279,265.201 354.5,267C 352.956,267.29 351.623,267.956 350.5,269C 351.617,270.892 353.284,271.725 355.5,271.5C 355.238,270.022 355.571,268.689 356.5,267.5C 357.425,268.641 358.259,268.641 359,267.5C 359.278,268.416 359.778,269.082 360.5,269.5C 361.438,271.91 361.438,274.244 360.5,276.5C 357.788,277.047 356.288,278.713 356,281.5C 355.667,301.5 355.333,321.5 355,341.5C 351.693,348.303 346.86,353.636 340.5,357.5C 338.585,357.216 336.919,357.549 335.5,358.5C 332.15,358.335 328.817,358.502 325.5,359C 324.619,359.708 323.953,360.542 323.5,361.5C 322.539,363.265 322.205,365.265 322.5,367.5C 318.291,373.04 312.958,374.04 306.5,370.5C 304.089,373.772 302.423,377.439 301.5,381.5C 294.268,379.12 286.934,377.12 279.5,375.5C 278.139,371.154 277.139,366.821 276.5,362.5C 277.228,323.506 277.728,284.506 278,245.5C 277.831,240.167 279.998,236.167 284.5,233.5C 301.503,233.333 318.503,233.5 335.5,234C 337.709,235.873 339.542,238.04 341,240.5C 341.977,271.228 341.643,301.895 340,332.5C 338.59,333.787 337.09,334.954 335.5,336C 326.5,336.667 317.5,336.667 308.5,336C 306.481,335.55 304.648,334.717 303,333.5C 301.354,309.921 301.021,286.255 302,262.5C 302.465,261.069 303.299,259.903 304.5,259C 310.749,258.191 316.916,258.358 323,259.5C 323.667,276.5 323.667,293.5 323,310.5C 319.76,312.036 316.76,311.703 314,309.5C 313.5,300.84 313.334,292.173 313.5,283.5C 312.791,282.596 311.791,282.263 310.5,282.5C 310.174,290.684 310.508,298.684 311.5,306.5C 311.16,309.144 311.827,311.477 313.5,313.5C 318.802,315.532 323.302,314.532 327,310.5C 327.667,292.833 327.667,275.167 327,257.5C 326.5,257 326,256.5 325.5,256C 317.13,255.316 308.797,255.649 300.5,257C 299.874,257.75 299.374,258.584 299,259.5C 298.618,284.199 298.285,308.866 298,333.5C 299.873,335.709 302.04,337.542 304.5,339C 314.5,339.667 324.5,339.667 334.5,339C 338.487,337.848 341.82,335.682 344.5,332.5C 345.667,302.172 345.833,271.839 345,241.5C 342.501,235.829 338.335,232.162 332.5,230.5C 315.497,230.333 298.497,230.5 281.5,231C 277.959,233.255 275.793,236.421 275,240.5C 274.5,249.494 274.334,258.494 274.5,267.5C 269.838,267.038 265.171,266.538 260.5,266C 254.724,263.554 248.724,261.721 242.5,260.5C 241.432,259.566 240.099,259.232 238.5,259.5C 238.5,265.833 238.5,272.167 238.5,278.5C 232.794,278.829 227.128,278.495 221.5,277.5C 220.526,267.887 220.192,258.22 220.5,248.5C 223.572,248.183 226.572,248.516 229.5,249.5C 230.791,255.476 230.791,261.476 229.5,267.5C 228.672,262.868 228.172,258.202 228,253.5C 226.644,252.62 225.144,252.286 223.5,252.5C 223.5,259.5 223.5,266.5 223.5,273.5C 227.5,273.5 231.5,273.5 235.5,273.5C 235.5,263.167 235.5,252.833 235.5,242.5C 229.158,242.334 222.825,242.5 216.5,243C 215.619,243.708 214.953,244.542 214.5,245.5C 213.5,245.5 212.5,245.5 211.5,245.5C 208.551,244.386 206.385,242.386 205,239.5C 203.226,228.577 202.226,217.577 202,206.5C 201.167,205.667 200.333,204.833 199.5,204C 187.5,203.333 175.5,203.333 163.5,204C 162.421,204.956 161.255,205.789 160,206.5C 153.771,219.519 149.771,233.185 148,247.5C 146.583,248.078 145.75,249.078 145.5,250.5C 144.833,251.833 144.167,253.167 143.5,254.5C 142.168,245.023 141.501,235.19 141.5,225C 141.667,215.167 141.833,205.333 142,195.5C 143.947,190.33 146.28,185.33 149,180.5C 154.77,175.362 161.27,171.362 168.5,168.5C 174.264,171.748 179.931,175.248 185.5,179C 186.448,179.483 187.448,179.649 188.5,179.5C 191.736,171.693 194.403,163.693 196.5,155.5C 205.798,157.988 214.964,160.988 224,164.5C 224.945,164.095 225.612,163.428 226,162.5C 227.473,155.291 229.473,148.291 232,141.5C 236.732,145.742 241.565,149.742 246.5,153.5 Z"/></g>
<g><path style="opacity:0.499" fill="#3c2e1e" d="M 332.5,230.5 C 338.335,232.162 342.501,235.829 345,241.5C 345.833,271.839 345.667,302.172 344.5,332.5C 341.82,335.682 338.487,337.848 334.5,339C 324.5,339.667 314.5,339.667 304.5,339C 302.04,337.542 299.873,335.709 298,333.5C 298.285,308.866 298.618,284.199 299,259.5C 299.374,258.584 299.874,257.75 300.5,257C 308.797,255.649 317.13,255.316 325.5,256C 326,256.5 326.5,257 327,257.5C 327.667,275.167 327.667,292.833 327,310.5C 323.302,314.532 318.802,315.532 313.5,313.5C 311.827,311.477 311.16,309.144 311.5,306.5C 310.868,298.427 311.535,290.76 313.5,283.5C 313.334,292.173 313.5,300.84 314,309.5C 316.76,311.703 319.76,312.036 323,310.5C 323.667,293.5 323.667,276.5 323,259.5C 316.916,258.358 310.749,258.191 304.5,259C 303.299,259.903 302.465,261.069 302,262.5C 301.021,286.255 301.354,309.921 303,333.5C 304.648,334.717 306.481,335.55 308.5,336C 317.5,336.667 326.5,336.667 335.5,336C 337.09,334.954 338.59,333.787 340,332.5C 341.643,301.895 341.977,271.228 341,240.5C 339.542,238.04 337.709,235.873 335.5,234C 318.503,233.5 301.503,233.333 284.5,233.5C 300.486,232.234 316.486,231.234 332.5,230.5 Z"/></g>
<g><path style="opacity:0.971" fill="#776940" d="M 332.5,309.5 C 333.833,309.5 335.167,309.5 336.5,309.5C 336.833,312.5 335.5,313.833 332.5,313.5C 332.5,312.167 332.5,310.833 332.5,309.5 Z"/></g>
<g><path style="opacity:0.987" fill="#70643e" d="M 287.5,293.5 C 290.37,294.528 292.37,296.528 293.5,299.5C 290.203,304.902 287.203,304.735 284.5,299C 285.124,296.915 286.124,295.082 287.5,293.5 Z"/></g>
<g><path style="opacity:0.657" fill="#5d492d" d="M 313.5,283.5 C 311.535,290.76 310.868,298.427 311.5,306.5C 310.508,298.684 310.174,290.684 310.5,282.5C 311.791,282.263 312.791,282.596 313.5,283.5 Z"/></g>
<g><path style="opacity:0.95" fill="#6f633c" d="M 332.5,285.5 C 335.91,285.384 337.244,287.05 336.5,290.5C 332.065,291.078 330.732,289.411 332.5,285.5 Z"/></g>
<g><path style="opacity:0.954" fill="#6e633c" d="M 286.5,265.5 C 287.822,265.33 288.989,265.663 290,266.5C 290.495,268.473 290.662,270.473 290.5,272.5C 288.5,272.5 286.5,272.5 284.5,272.5C 284.166,269.812 284.832,267.479 286.5,265.5 Z"/></g>
<g><path style="opacity:0.969" fill="#b59f86" d="M 242.5,260.5 C 241.5,260.5 240.5,260.5 239.5,260.5C 239.5,266.5 239.5,272.5 239.5,278.5C 239.167,278.5 238.833,278.5 238.5,278.5C 238.5,272.167 238.5,265.833 238.5,259.5C 240.099,259.232 241.432,259.566 242.5,260.5 Z"/></g>
<g><path style="opacity:0.937" fill="#70633c" d="M 332.5,259.5 C 336.5,258.833 338.167,260.5 337.5,264.5C 335.833,264.5 334.167,264.5 332.5,264.5C 332.5,262.833 332.5,261.167 332.5,259.5 Z"/></g>
<g><path style="opacity:0.973" fill="#6f633d" d="M 296.5,240.5 C 300.976,240.8 302.31,242.967 300.5,247C 294.339,247.878 293.006,245.711 296.5,240.5 Z"/></g>
<g><path style="opacity:0.938" fill="#71643d" d="M 323.5,240.5 C 327.071,240.408 328.238,242.074 327,245.5C 324.161,248.409 321.994,248.075 320.5,244.5C 320.787,242.557 321.787,241.223 323.5,240.5 Z"/></g>
<g><path style="opacity:0.749" fill="#8b6e43" d="M 399.5,222.5 C 398.653,223.966 397.32,224.8 395.5,225C 388.986,225.82 382.653,225.653 376.5,224.5C 384.312,224.975 391.979,224.308 399.5,222.5 Z"/></g>
<g><path style="opacity:0.979" fill="#6d633c" d="M 277.5,205.5 C 283.63,208.065 289.63,210.898 295.5,214C 290.325,217.088 284.992,219.921 279.5,222.5C 278.473,216.871 277.807,211.205 277.5,205.5 Z"/></g>
<g><path style="opacity:0.968" fill="#6e633b" d="M 255.5,205.5 C 261.327,208.579 267.327,211.412 273.5,214C 267.557,217.14 261.557,219.973 255.5,222.5C 255.5,216.833 255.5,211.167 255.5,205.5 Z"/></g>
<g><path style="opacity:0.988" fill="#6d623c" d="M 233.5,205.5 C 239.171,208.336 244.838,211.169 250.5,214C 245.325,217.088 239.992,219.921 234.5,222.5C 233.505,216.872 233.171,211.206 233.5,205.5 Z"/></g>
<g><path style="opacity:0.982" fill="#6f643d" d="M 210.5,205.5 C 216.366,208.511 222.366,211.345 228.5,214C 222.51,216.66 216.844,219.826 211.5,223.5C 210.504,217.537 210.171,211.537 210.5,205.5 Z"/></g>
<g><path style="opacity:0.982" fill="#6d623c" d="M 300.5,205.5 C 306.145,208.322 311.811,211.156 317.5,214C 311.918,217.04 306.418,220.207 301,223.5C 300.501,217.509 300.334,211.509 300.5,205.5 Z"/></g>
<g><path style="opacity:0.986" fill="#6e633c" d="M 286.5,321.5 C 294.877,323.298 295.544,326.631 288.5,331.5C 282.877,328.973 282.21,325.64 286.5,321.5 Z"/></g>
<g><path style="opacity:0.698" fill="#656f77" d="M 148.5,322.5 C 148.818,327.032 148.485,331.366 147.5,335.5C 147.167,335.5 146.833,335.5 146.5,335.5C 147.113,331.063 147.78,326.73 148.5,322.5 Z"/></g>
<g><path style="opacity:0.968" fill="#3d3a2c" d="M 68.5,326.5 C 71.5,326.5 74.5,326.5 77.5,326.5C 74.5,339.833 71.5,339.833 68.5,326.5 Z"/></g>
<g><path style="opacity:0.331" fill="#383125" d="M 230.5,318.5 C 231.008,316.767 231.841,316.434 233,317.5C 233.499,322.489 233.666,327.489 233.5,332.5C 223.298,335.651 212.965,336.485 202.5,335C 204.058,334.79 205.391,334.29 206.5,333.5C 207.822,333.67 208.989,333.337 210,332.5C 211.213,330.075 212.379,327.741 213.5,325.5C 213.369,326.239 213.536,326.906 214,327.5C 216.583,322.664 219.417,317.997 222.5,313.5C 223.878,318.399 224.712,323.399 225,328.5C 227.099,325.3 228.933,321.967 230.5,318.5 Z"/></g>
<g><path style="opacity:0.948" fill="#3d392c" d="M 84.5,340.5 C 87.6399,339.359 90.9733,339.192 94.5,340C 92.3333,342.833 90.1667,345.667 88,348.5C 87.0575,345.626 85.8908,342.96 84.5,340.5 Z"/></g>
<g><path style="opacity:0.948" fill="#675c39" d="M 146.5,335.5 C 146.833,335.5 147.167,335.5 147.5,335.5C 147.515,339.56 147.015,343.56 146,347.5C 144.264,350.739 141.764,353.073 138.5,354.5C 138.5,348.5 138.5,342.5 138.5,336.5C 141.279,336.721 143.946,336.388 146.5,335.5 Z"/></g>
<g><path style="opacity:0.976" fill="#403d2e" d="M 120.5,339.5 C 121.846,342.908 123.68,346.241 126,349.5C 125.581,347.497 124.747,345.497 123.5,343.5C 124.85,342.05 126.516,341.383 128.5,341.5C 128.665,344.85 128.498,348.183 128,351.5C 127.586,351.957 127.086,352.291 126.5,352.5C 124.807,350.973 122.973,349.64 121,348.5C 120.502,345.518 120.335,342.518 120.5,339.5 Z"/></g>
<g><path style="opacity:0.329" fill="#35281b" d="M 332.5,230.5 C 316.486,231.234 300.486,232.234 284.5,233.5C 279.998,236.167 277.831,240.167 278,245.5C 277.728,284.506 277.228,323.506 276.5,362.5C 275.414,362.62 274.747,363.287 274.5,364.5C 274.939,366.104 275.606,367.604 276.5,369C 275.99,370.826 275.156,370.993 274,369.5C 273.898,361.942 273.231,354.276 272,346.5C 270.837,342.009 269.003,337.843 266.5,334C 266.836,332.97 267.503,332.47 268.5,332.5C 270.5,332.5 272.5,332.5 274.5,332.5C 274.5,315.833 274.5,299.167 274.5,282.5C 274.5,277.5 274.5,272.5 274.5,267.5C 274.334,258.494 274.5,249.494 275,240.5C 275.793,236.421 277.959,233.255 281.5,231C 298.497,230.5 315.497,230.333 332.5,230.5 Z"/></g>
<g><path style="opacity:0.955" fill="#3d392d" d="M 110.5,324.5 C 112.65,326.76 114.817,329.093 117,331.5C 117.483,332.448 117.649,333.448 117.5,334.5C 115.072,336.043 112.406,337.043 109.5,337.5C 109.343,338.873 109.51,340.207 110,341.5C 116.621,348.571 114.788,351.238 104.5,349.5C 106.342,341.133 108.342,332.799 110.5,324.5 Z"/></g>
<g><path style="opacity:0.98" fill="#6d623c" d="M 288.5,346.5 C 291.167,346.5 293.833,346.5 296.5,346.5C 296.665,349.85 296.498,353.183 296,356.5C 291.108,359.758 287.608,358.592 285.5,353C 286.03,350.557 287.03,348.39 288.5,346.5 Z"/></g>
<g><path style="opacity:0.012" fill="#513e29" d="M 386.5,352.5 C 387.833,353.167 387.833,353.167 386.5,352.5 Z"/></g>
<g><path style="opacity:0.479" fill="#2c2116" d="M 335.5,358.5 C 338.85,358.335 342.183,358.502 345.5,359C 343.579,359.36 341.912,360.194 340.5,361.5C 339.359,362.425 339.359,363.259 340.5,364C 337.8,366.405 335.967,365.905 335,362.5C 334.691,363.766 334.191,364.933 333.5,366C 330.183,366.498 326.85,366.665 323.5,366.5C 323.5,364.833 323.5,363.167 323.5,361.5C 323.953,360.542 324.619,359.708 325.5,359C 328.817,358.502 332.15,358.335 335.5,358.5 Z"/></g>
<g><path style="opacity:0.342" fill="#322619" d="M 102.5,354.5 C 106.262,356.413 109.929,358.579 113.5,361C 119.157,361.499 124.824,361.666 130.5,361.5C 130.611,362.117 130.944,362.617 131.5,363C 123.3,364.597 115.133,364.43 107,362.5C 103.411,364.53 99.5776,365.863 95.5,366.5C 97.845,362.472 100.178,358.472 102.5,354.5 Z"/></g>
<g><path style="opacity:0.979" fill="#39362b" d="M 84.5,353.5 C 90.5907,353.211 96.5907,353.545 102.5,354.5C 100.178,358.472 97.845,362.472 95.5,366.5C 94.5116,367.795 93.5116,369.128 92.5,370.5C 92.1667,370.5 91.8333,370.5 91.5,370.5C 88.3499,365.196 86.0166,359.529 84.5,353.5 Z"/></g>
<g><path style="opacity:0.923" fill="#685d39" d="M 322.5,367.5 C 331.208,367.299 339.875,367.799 348.5,369C 349,369.5 349.5,370 350,370.5C 350.667,390.5 350.667,410.5 350,430.5C 349.5,432.333 348.333,433.5 346.5,434C 331.415,437.916 316.415,442.249 301.5,447C 297.58,448.773 293.913,448.607 290.5,446.5C 283.88,438.205 277.214,429.871 270.5,421.5C 270.709,420.914 271.043,420.414 271.5,420C 289.512,417.858 307.512,415.692 325.5,413.5C 325.5,406.167 325.5,398.833 325.5,391.5C 321.548,390.728 317.548,390.395 313.5,390.5C 304.906,389.331 296.24,387.831 287.5,386C 283.821,383.169 281.154,379.669 279.5,375.5C 286.934,377.12 294.268,379.12 301.5,381.5C 302.423,377.439 304.089,373.772 306.5,370.5C 312.958,374.04 318.291,373.04 322.5,367.5 Z"/></g>
<g><path style="opacity:0.912" fill="#3f3a2d" d="M 336.5,390.5 C 337.496,390.414 338.329,390.748 339,391.5C 339.82,395.133 341.653,398.133 344.5,400.5C 340.167,401.833 335.833,401.833 331.5,400.5C 333.18,397.14 334.847,393.807 336.5,390.5 Z"/></g>
<g><path style="opacity:0.205" fill="#3f2f20" d="M 261.5,314.5 C 262.942,319.68 264.275,325.014 265.5,330.5C 266.417,331.127 267.417,331.461 268.5,331.5C 268.5,331.833 268.5,332.167 268.5,332.5C 267.503,332.47 266.836,332.97 266.5,334C 269.003,337.843 270.837,342.009 272,346.5C 273.231,354.276 273.898,361.942 274,369.5C 275.156,370.993 275.99,370.826 276.5,369C 275.606,367.604 274.939,366.104 274.5,364.5C 274.747,363.287 275.414,362.62 276.5,362.5C 277.139,366.821 278.139,371.154 279.5,375.5C 281.154,379.669 283.821,383.169 287.5,386C 296.24,387.831 304.906,389.331 313.5,390.5C 311.801,390.34 310.134,390.506 308.5,391C 317.645,392.26 321.312,397.427 319.5,406.5C 317.5,407.833 315.833,409.5 314.5,411.5C 306.74,413.748 298.74,415.082 290.5,415.5C 288.772,415.41 287.106,415.077 285.5,414.5C 276.817,417.695 267.817,419.195 258.5,419C 260.708,419.191 262.708,419.691 264.5,420.5C 258.833,420.5 253.167,420.5 247.5,420.5C 249.323,417.623 252.323,415.29 256.5,413.5C 257.442,413.608 258.275,413.941 259,414.5C 273.103,413.28 287.103,411.28 301,408.5C 308.266,410.975 313.1,408.642 315.5,401.5C 313.641,399.808 311.641,398.308 309.5,397C 304.167,396.333 298.833,395.667 293.5,395C 290.205,392.566 286.538,390.899 282.5,390C 280.097,387.318 277.597,384.818 275,382.5C 273.392,379.618 272.059,376.618 271,373.5C 269.123,363.285 268.456,353.285 269,343.5C 266.623,338.053 263.29,333.386 259,329.5C 257.906,324.643 256.24,319.976 254,315.5C 249.464,307.531 244.131,306.865 238,313.5C 237.331,319.505 236.664,325.505 236,331.5C 234.437,334.728 231.937,336.895 228.5,338C 219.13,340.06 209.797,339.893 200.5,337.5C 198.834,335.667 196.834,334.334 194.5,333.5C 194.957,332.702 195.624,332.369 196.5,332.5C 199.728,333.414 203.061,333.747 206.5,333.5C 205.391,334.29 204.058,334.79 202.5,335C 212.965,336.485 223.298,335.651 233.5,332.5C 233.666,327.489 233.499,322.489 233,317.5C 231.841,316.434 231.008,316.767 230.5,318.5C 229.448,318.649 228.448,318.483 227.5,318C 231.158,309.714 237.658,305.214 247,304.5C 254.582,303.837 258.416,307.17 258.5,314.5C 259.5,314.5 260.5,314.5 261.5,314.5 Z"/></g>
<g><path style="opacity:0.927" fill="#3f3a2d" d="M 336.5,412.5 C 337.5,412.5 338.5,412.5 339.5,412.5C 339.827,417.214 339.493,421.88 338.5,426.5C 334.714,423.941 330.714,421.941 326.5,420.5C 326.281,419.325 326.614,418.325 327.5,417.5C 331.015,416.58 334.015,414.913 336.5,412.5 Z"/></g>
<g><path style="opacity:0.929" fill="#3a362b" d="M 247.5,420.5 C 253.167,420.5 258.833,420.5 264.5,420.5C 267.931,422.095 270.598,424.595 272.5,428C 266.319,428.172 260.319,428.672 254.5,429.5C 253.041,429.567 251.708,429.234 250.5,428.5C 248.723,426.461 247.057,424.294 245.5,422C 245.836,420.97 246.503,420.47 247.5,420.5 Z"/></g>
<g><path style="opacity:0.911" fill="#3e3a2d" d="M 307.5,423.5 C 307.56,422.957 307.893,422.624 308.5,422.5C 313.345,423.163 318.012,424.33 322.5,426C 319.65,428.682 316.984,431.516 314.5,434.5C 311.68,431.04 309.347,427.373 307.5,423.5 Z"/></g>
<g><path style="opacity:0.874" fill="#3d382c" d="M 286.5,427.5 C 287.274,426.853 288.274,426.52 289.5,426.5C 293.486,427.11 297.486,427.61 301.5,428C 302.022,428.561 302.355,429.228 302.5,430C 300.369,432.968 298.036,435.801 295.5,438.5C 292.068,435.08 289.068,431.413 286.5,427.5 Z"/></g>
<g><path style="opacity:0.514" fill="#31261a" d="M 313.5,390.5 C 317.548,390.395 321.548,390.728 325.5,391.5C 325.5,398.833 325.5,406.167 325.5,413.5C 307.512,415.692 289.512,417.858 271.5,420C 271.043,420.414 270.709,420.914 270.5,421.5C 277.214,429.871 283.88,438.205 290.5,446.5C 290.5,447.167 290.5,447.833 290.5,448.5C 285.848,442.707 280.848,437.207 275.5,432C 268.321,431.179 261.321,431.345 254.5,432.5C 253.375,431.652 253.375,430.652 254.5,429.5C 260.319,428.672 266.319,428.172 272.5,428C 270.598,424.595 267.931,422.095 264.5,420.5C 262.708,419.691 260.708,419.191 258.5,419C 267.817,419.195 276.817,417.695 285.5,414.5C 287.106,415.077 288.772,415.41 290.5,415.5C 298.74,415.082 306.74,413.748 314.5,411.5C 315.833,409.5 317.5,407.833 319.5,406.5C 321.312,397.427 317.645,392.26 308.5,391C 310.134,390.506 311.801,390.34 313.5,390.5 Z"/></g>
<g><path style="opacity:0.919" fill="#3a352a" d="M 254.5,432.5 C 261.321,431.345 268.321,431.179 275.5,432C 280.848,437.207 285.848,442.707 290.5,448.5C 290.5,449.5 290.5,450.5 290.5,451.5C 281.53,449.511 272.863,446.677 264.5,443C 260.822,439.797 257.489,436.297 254.5,432.5 Z"/></g>
<g><path style="opacity:0.008" fill="#503d28" d="M 247.5,449.5 C 246.833,450.167 246.833,450.167 247.5,449.5 Z"/></g>
</svg>
