<?xml version="1.0" encoding="UTF-8"?>
<!DOCTYPE svg PUBLIC "-//W3C//DTD SVG 1.1//EN" "http://www.w3.org/Graphics/SVG/1.1/DTD/svg11.dtd">
<svg xmlns="http://www.w3.org/2000/svg" version="1.1" width="500px" height="500px" style="shape-rendering:geometricPrecision; text-rendering:geometricPrecision; image-rendering:optimizeQuality; fill-rule:evenodd; clip-rule:evenodd" xmlns:xlink="http://www.w3.org/1999/xlink">
<g><path style="opacity:0.039" fill="#4e3a27" d="M 248.5,52.5 C 254.692,52.249 260.692,53.749 266.5,57C 268.609,59.8955 270.109,63.0622 271,66.5C 271.333,66.1667 271.667,65.8333 272,65.5C 272.519,66.5156 273.353,67.1822 274.5,67.5C 276.623,66.6882 278.79,66.0215 281,65.5C 284.689,65.6674 288.522,65.834 292.5,66C 298.799,67.4574 303.132,71.2907 305.5,77.5C 310.102,78.8963 314.769,80.0629 319.5,81C 323.347,86.2069 327.014,91.5402 330.5,97C 335.334,98.7307 340.334,99.7307 345.5,100C 347.624,101.122 349.457,102.622 351,104.5C 353.273,109.608 355.773,114.608 358.5,119.5C 364.989,126.157 371.322,132.99 377.5,140C 381.527,140.331 385.527,139.998 389.5,139C 392.298,137.547 395.298,136.547 398.5,136C 405.743,135.688 412.91,135.521 420,135.5C 428.211,138.759 436.378,142.092 444.5,145.5C 447.488,146.923 450.321,149.256 453,152.5C 456.668,160.006 460.668,167.339 465,174.5C 466.626,182.142 466.626,189.809 465,197.5C 464.167,199.667 462.667,201.167 460.5,202C 448.196,205.653 437.196,203.486 427.5,195.5C 423.837,193.486 420.17,193.319 416.5,195C 415.874,195.75 415.374,196.584 415,197.5C 414.688,202.269 415.355,206.935 417,211.5C 419.48,219.275 422.147,226.942 425,234.5C 426.597,237.219 428.763,239.386 431.5,241C 431.167,241.333 430.833,241.667 430.5,242C 433.924,245.259 437.924,247.592 442.5,249C 444.372,251.293 445.872,253.793 447,256.5C 450.594,255.697 453.761,256.697 456.5,259.5C 456.826,264.971 458.159,271.304 460.5,278.5C 459.416,286.012 458.583,293.679 458,301.5C 457.751,304.832 456.918,307.999 455.5,311C 455.645,311.772 455.978,312.439 456.5,313C 454.6,317.809 452.934,322.975 451.5,328.5C 451.587,330.703 451.587,332.87 451.5,335C 450.484,335.519 449.818,336.353 449.5,337.5C 447.579,346.649 444.912,355.816 441.5,365C 435.729,396.923 427.562,428.089 417,458.5C 415.989,459.337 414.822,459.67 413.5,459.5C 413.5,460.5 413.5,461.5 413.5,462.5C 409.812,463.172 406.145,464.005 402.5,465C 381.167,465.667 359.833,465.667 338.5,465C 335.647,464.807 332.647,464.14 329.5,463C 325.541,461.035 323.041,457.869 322,453.5C 319.781,440.91 318.281,428.243 317.5,415.5C 310.572,415.026 304.405,412.693 299,408.5C 294.367,398.36 291.367,387.693 290,376.5C 289.5,376 289,375.5 288.5,375C 284.868,375.077 281.201,375.41 277.5,376C 269.2,379.212 260.534,380.712 251.5,380.5C 238.597,379.976 225.93,377.976 213.5,374.5C 212.522,374.977 211.689,375.643 211,376.5C 209.667,383.167 208.333,389.833 207,396.5C 206.682,398.061 205.849,399.228 204.5,400C 205.175,402.242 204.675,404.409 203,406.5C 201.167,407.667 199.667,409.167 198.5,411C 193.125,413.219 187.625,415.052 182,416.5C 180.962,427.969 179.295,439.303 177,450.5C 176.464,454.451 174.964,457.951 172.5,461C 168.016,462.623 163.182,464.123 158,465.5C 137.58,465.611 117.08,465.444 96.5,465C 90.9421,464.603 86.2754,462.436 82.5,458.5C 68.208,415.364 55.3747,371.03 44,325.5C 39.5294,304.159 38.5294,283.159 41,262.5C 42.5655,263.061 43.8989,262.394 45,260.5C 45.4828,259.552 45.6495,258.552 45.5,257.5C 48.3085,257.307 50.9752,256.64 53.5,255.5C 53.3433,254.127 53.51,252.793 54,251.5C 55.2812,251.619 56.4479,251.119 57.5,250C 56.8333,249.667 56.1667,249.333 55.5,249C 57.0806,248.293 58.5806,247.46 60,246.5C 60.3333,246.833 60.6667,247.167 61,247.5C 61.4702,245.226 62.4702,243.226 64,241.5C 66.854,239.402 69.5206,237.069 72,234.5C 76.5726,222.781 80.7392,210.947 84.5,199C 83.8651,195.366 81.6985,193.532 78,193.5C 72.9504,193.961 68.7837,196.128 65.5,200C 58.7324,202.777 51.7324,203.777 44.5,203C 41.0684,202.884 38.0684,201.717 35.5,199.5C 34.3595,198.575 34.3595,197.741 35.5,197C 33.3956,196.511 33.0622,195.345 34.5,193.5C 32.0899,187.222 31.9232,180.888 34,174.5C 37.8963,165.705 42.563,157.371 48,149.5C 60.6592,141.225 74.4925,136.225 89.5,134.5C 98.792,134.906 107.792,136.74 116.5,140C 118.833,140.667 121.167,140.667 123.5,140C 132.368,128.431 140.868,116.598 149,104.5C 150.952,102.106 153.452,100.606 156.5,100C 161.27,98.763 165.937,98.0964 170.5,98C 173.318,92.0312 176.651,86.3645 180.5,81C 185.428,79.6784 190.428,78.6784 195.5,78C 197.732,75.5506 199.732,72.884 201.5,70C 210.557,66.238 219.89,65.4046 229.5,67.5C 232.62,58.3757 238.953,53.3757 248.5,52.5 Z"/></g>
<g><path style="opacity:0.203" fill="#442f21" d="M 252.5,66.5 C 256.286,66.3932 259.286,67.8932 261.5,71C 261.167,71.3333 260.833,71.6667 260.5,72C 263.885,72.881 265.552,75.0477 265.5,78.5C 265.955,80.0961 268.122,81.0961 272,81.5C 273.01,78.5525 274.843,77.8858 277.5,79.5C 281.267,76.9798 285.1,76.9798 289,79.5C 289.333,79.1667 289.667,78.8333 290,78.5C 290.576,81.1242 291.91,81.7908 294,80.5C 295.833,83 298,85.1667 300.5,87C 299.66,88.6665 300.16,88.8331 302,87.5C 306.167,89.6667 310.333,91.8333 314.5,94C 318.364,97.7775 322.031,101.778 325.5,106C 331.518,107.559 337.184,109.893 342.5,113C 346.206,119.548 350.04,125.381 354,130.5C 358.805,135.64 363.639,140.807 368.5,146C 371.005,147.753 373.671,149.253 376.5,150.5C 385.972,148.105 395.472,145.772 405,143.5C 410.042,144.84 415.209,145.673 420.5,146C 427.857,148.903 434.857,152.57 441.5,157C 441.167,157.333 440.833,157.667 440.5,158C 441.939,158.991 442.939,160.324 443.5,162C 444.449,162.617 445.282,162.451 446,161.5C 446.71,162.973 447.876,163.64 449.5,163.5C 449.576,167.229 450.743,170.562 453,173.5C 453.498,176.817 453.665,180.15 453.5,183.5C 452.5,183.5 451.5,183.5 450.5,183.5C 449.471,181.483 448.471,179.483 447.5,177.5C 445.167,173.5 442.833,169.5 440.5,165.5C 437.618,161.376 433.618,158.709 428.5,157.5C 425.899,156.199 423.232,154.866 420.5,153.5C 417.297,152.317 414.13,150.984 411,149.5C 405.35,150.786 399.85,152.453 394.5,154.5C 391.458,154.733 388.792,155.733 386.5,157.5C 383.219,157.42 380.219,158.087 377.5,159.5C 374.659,159.56 371.993,160.226 369.5,161.5C 369.657,160.127 369.49,158.793 369,157.5C 361.333,149.167 353.667,140.833 346,132.5C 342.167,125.5 338.333,118.5 334.5,111.5C 330.814,115.02 326.981,118.353 323,121.5C 317.667,111.5 312.333,101.5 307,91.5C 303.554,95.5482 299.554,98.8816 295,101.5C 292.673,94.8432 290.34,88.1765 288,81.5C 287.612,80.572 286.945,79.9054 286,79.5C 279.724,83.7322 273.89,88.5655 268.5,94C 267.833,94.6667 267.167,94.6667 266.5,94C 261.167,85.165 256.5,75.9983 252.5,66.5 Z"/></g>
<g><path style="opacity:0.203" fill="#443021" d="M 252.5,65.5 C 244.459,74.5596 237.125,84.2263 230.5,94.5C 224.472,90.4976 219.305,85.4976 215,79.5C 212.651,87.5838 208.984,94.9171 204,101.5C 200.511,98.6804 197.011,95.847 193.5,93C 192.668,92.3123 192.002,92.479 191.5,93.5C 189.558,103.866 184.892,112.699 177.5,120C 173.462,119.006 170.128,116.673 167.5,113C 166.833,112.333 166.167,112.333 165.5,113C 153.844,129.171 141.844,145.004 129.5,160.5C 126.733,160.142 124.067,159.475 121.5,158.5C 118.123,158.041 114.789,157.374 111.5,156.5C 108.746,155.054 105.746,154.054 102.5,153.5C 97.578,152.019 92.578,150.686 87.5,149.5C 84.3611,150.57 81.3611,151.904 78.5,153.5C 76.0462,154.227 73.7128,155.227 71.5,156.5C 68.3113,158.26 64.9779,159.76 61.5,161C 60.1175,162.271 59.1175,163.771 58.5,165.5C 56.1816,169.465 53.8483,173.465 51.5,177.5C 50.7368,179.368 49.7368,181.035 48.5,182.5C 46.6977,181.685 45.6977,180.185 45.5,178C 46.8709,172.281 49.5376,167.281 53.5,163C 53.1667,162.667 52.8333,162.333 52.5,162C 68.9744,145.458 87.641,140.458 108.5,147C 106.099,147.805 106.266,148.638 109,149.5C 114.849,149.146 121.015,148.98 127.5,149C 131.702,147.631 134.369,144.797 135.5,140.5C 137.167,139.333 138.833,138.167 140.5,137C 140.142,133.953 141.642,131.786 145,130.5C 146.667,127.167 148.333,123.833 150,120.5C 153.167,118.667 155.667,116.167 157.5,113C 159.968,111.697 162.301,110.197 164.5,108.5C 165.167,108.833 165.833,109.167 166.5,109.5C 169.748,108.355 173.081,107.521 176.5,107C 177.219,104.444 178.886,103.277 181.5,103.5C 181.36,101.876 182.027,100.71 183.5,100C 182.483,98.9505 182.316,97.7839 183,96.5C 187.375,91.5897 192.875,88.7564 199.5,88C 204.342,85.1772 209.009,82.1772 213.5,79C 217.947,78.4207 222.28,78.9207 226.5,80.5C 231.698,79.0402 235.198,76.3736 237,72.5C 240.026,69.3162 243.526,66.8162 247.5,65C 249.387,64.2204 251.054,64.3871 252.5,65.5 Z"/></g>
<g><path style="opacity:0.949" fill="#2e2726" d="M 252.5,65.5 C 252.5,65.8333 252.5,66.1667 252.5,66.5C 256.5,75.9983 261.167,85.165 266.5,94C 267.167,94.6667 267.833,94.6667 268.5,94C 273.89,88.5655 279.724,83.7322 286,79.5C 286.945,79.9054 287.612,80.572 288,81.5C 290.34,88.1765 292.673,94.8432 295,101.5C 299.554,98.8816 303.554,95.5482 307,91.5C 312.333,101.5 317.667,111.5 323,121.5C 326.981,118.353 330.814,115.02 334.5,111.5C 338.333,118.5 342.167,125.5 346,132.5C 353.667,140.833 361.333,149.167 369,157.5C 369.49,158.793 369.657,160.127 369.5,161.5C 368.209,161.263 367.209,161.596 366.5,162.5C 362.167,162.5 357.833,162.5 353.5,162.5C 349.5,162.5 345.5,162.5 341.5,162.5C 338.5,162.5 335.5,162.5 332.5,162.5C 331.104,155.646 329.104,148.979 326.5,142.5C 322.833,145 319.167,147.5 315.5,150C 314.668,150.688 314.002,150.521 313.5,149.5C 310.416,139.577 306.749,129.911 302.5,120.5C 298.167,124.5 293.833,128.5 289.5,132.5C 284.509,125.195 280.009,117.528 276,109.5C 272.333,113.833 268.667,118.167 265,122.5C 259.942,114.731 255.108,106.731 250.5,98.5C 246.918,105.246 243.918,112.246 241.5,119.5C 236.419,116.959 231.419,114.459 226.5,112C 223.733,120.296 220.567,128.463 217,136.5C 211.178,132.01 205.678,127.177 200.5,122C 199.365,121.251 198.365,121.417 197.5,122.5C 195.287,131.694 192.621,140.694 189.5,149.5C 185.803,148.234 182.303,146.568 179,144.5C 178.501,150.491 178.334,156.491 178.5,162.5C 177.833,162.5 177.167,162.5 176.5,162.5C 170.167,162.5 163.833,162.5 157.5,162.5C 153.833,162.5 150.167,162.5 146.5,162.5C 142.167,162.5 137.833,162.5 133.5,162.5C 132.329,161.655 130.995,160.989 129.5,160.5C 141.844,145.004 153.844,129.171 165.5,113C 166.167,112.333 166.833,112.333 167.5,113C 170.128,116.673 173.462,119.006 177.5,120C 184.892,112.699 189.558,103.866 191.5,93.5C 192.002,92.479 192.668,92.3123 193.5,93C 197.011,95.847 200.511,98.6804 204,101.5C 208.984,94.9171 212.651,87.5838 215,79.5C 219.305,85.4976 224.472,90.4976 230.5,94.5C 237.125,84.2263 244.459,74.5596 252.5,65.5 Z"/></g>
<g><path style="opacity:0.915" fill="#443b37" d="M 332.5,162.5 C 329.5,162.5 326.5,162.5 323.5,162.5C 318.167,162.5 312.833,162.5 307.5,162.5C 304.215,162.21 301.215,162.877 298.5,164.5C 296.586,160.004 295.253,155.337 294.5,150.5C 289.692,151.821 285.192,153.821 281,156.5C 278.619,152.032 276.619,147.365 275,142.5C 270.667,145.5 266.333,148.5 262,151.5C 258.667,146.833 255.333,142.167 252,137.5C 248.246,143.342 244.246,149.009 240,154.5C 236.686,150.019 232.852,146.019 228.5,142.5C 227.914,142.709 227.414,143.043 227,143.5C 225.732,148.637 224.066,153.637 222,158.5C 218.298,155.968 214.465,153.635 210.5,151.5C 209.528,157.806 208.861,164.139 208.5,170.5C 206.833,170.5 205.167,170.5 203.5,170.5C 203.611,169.883 203.944,169.383 204.5,169C 202.297,166.628 199.963,164.461 197.5,162.5C 191.334,161.621 185.001,161.621 178.5,162.5C 178.334,156.491 178.501,150.491 179,144.5C 182.303,146.568 185.803,148.234 189.5,149.5C 192.621,140.694 195.287,131.694 197.5,122.5C 198.365,121.417 199.365,121.251 200.5,122C 205.678,127.177 211.178,132.01 217,136.5C 220.567,128.463 223.733,120.296 226.5,112C 231.419,114.459 236.419,116.959 241.5,119.5C 243.918,112.246 246.918,105.246 250.5,98.5C 255.108,106.731 259.942,114.731 265,122.5C 268.667,118.167 272.333,113.833 276,109.5C 280.009,117.528 284.509,125.195 289.5,132.5C 293.833,128.5 298.167,124.5 302.5,120.5C 306.749,129.911 310.416,139.577 313.5,149.5C 314.002,150.521 314.668,150.688 315.5,150C 319.167,147.5 322.833,145 326.5,142.5C 329.104,148.979 331.104,155.646 332.5,162.5 Z"/></g>
<g><path style="opacity:0.961" fill="#2e2726" d="M 298.5,164.5 C 298.25,165.922 297.417,166.922 296,167.5C 295.333,168.5 295.333,169.5 296,170.5C 298.614,172.556 301.447,174.223 304.5,175.5C 304.833,176.167 305.167,176.833 305.5,177.5C 301.897,179.763 298.564,182.43 295.5,185.5C 298.833,188.167 302.167,190.833 305.5,193.5C 302.474,196.195 299.474,198.862 296.5,201.5C 298.902,203.909 301.569,205.909 304.5,207.5C 304.611,208.117 304.944,208.617 305.5,209C 303.167,210.833 300.833,212.667 298.5,214.5C 305.468,215.497 312.468,215.83 319.5,215.5C 327.167,215.5 334.833,215.5 342.5,215.5C 346.684,215.149 350.684,214.482 354.5,213.5C 360.779,212.523 366.446,210.19 371.5,206.5C 374.511,205.331 377.178,203.664 379.5,201.5C 384.167,198.167 388.833,194.833 393.5,191.5C 394.822,194.024 395.988,196.69 397,199.5C 400.585,217.475 405.918,234.808 413,251.5C 413.377,252.942 414.21,253.942 415.5,254.5C 418.14,255.794 418.14,257.127 415.5,258.5C 414.231,256.82 412.564,255.653 410.5,255C 411.647,252.915 410.98,251.415 408.5,250.5C 405.032,248.676 401.365,247.676 397.5,247.5C 398.371,244.938 398.371,242.272 397.5,239.5C 398.675,239.719 399.675,239.386 400.5,238.5C 397.241,235.952 394.074,233.286 391,230.5C 391.098,237.686 392.265,244.686 394.5,251.5C 396.288,251.215 397.955,251.548 399.5,252.5C 400.072,256.896 400.905,261.23 402,265.5C 402.701,262.673 403.701,260.006 405,257.5C 406.786,259.099 408.953,259.933 411.5,260C 410.672,260.915 409.672,261.581 408.5,262C 409.743,263.154 410.743,264.488 411.5,266C 409.591,266.448 408.424,265.615 408,263.5C 406.176,264.749 406.343,265.915 408.5,267C 411.5,266.667 414.5,266.333 417.5,266C 416.313,267.019 415.313,268.186 414.5,269.5C 416.559,270.951 417.559,272.951 417.5,275.5C 415.2,273.363 413.033,271.03 411,268.5C 409.647,275.792 409.314,283.125 410,290.5C 411.409,286.684 413.076,283.017 415,279.5C 416.441,280.26 417.941,280.926 419.5,281.5C 420.107,281.376 420.44,281.043 420.5,280.5C 421.28,277.447 423.28,275.78 426.5,275.5C 427.522,275.855 428.189,276.522 428.5,277.5C 427.948,279.331 427.948,280.997 428.5,282.5C 431.938,280.565 434.938,278.065 437.5,275C 439.473,274.505 441.473,274.338 443.5,274.5C 443.621,284.23 442.954,293.896 441.5,303.5C 440.5,303.5 439.5,303.5 438.5,303.5C 438.664,300.813 438.497,298.146 438,295.5C 432.831,304.508 427.164,313.175 421,321.5C 421.464,312.858 421.464,304.192 421,295.5C 418.966,302.985 416.632,310.318 414,317.5C 410.903,307.967 407.236,298.634 403,289.5C 401.116,302.475 399.116,315.475 397,328.5C 394.813,321.406 392.48,314.406 390,307.5C 389.203,316.685 387.537,325.685 385,334.5C 380.333,328.5 375.667,322.5 371,316.5C 370.874,323.274 370.041,329.94 368.5,336.5C 367.328,336.081 366.328,335.415 365.5,334.5C 362.984,329.469 360.484,324.469 358,319.5C 357.751,325.064 356.918,330.398 355.5,335.5C 352.442,333.757 350.442,331.09 349.5,327.5C 348.072,316.839 346.739,306.172 345.5,295.5C 348.634,296.279 351.301,297.945 353.5,300.5C 357.858,305.69 362.024,311.023 366,316.5C 364.817,299.275 359.984,283.108 351.5,268C 353.387,267.837 354.887,268.671 356,270.5C 362,277.5 368,284.5 374,291.5C 374.488,274.108 369.155,258.774 358,245.5C 353.33,239.663 348.163,234.33 342.5,229.5C 345.891,227.127 348.891,224.294 351.5,221C 334.503,220.5 317.503,220.333 300.5,220.5C 301.01,224.884 301.843,229.218 303,233.5C 306.139,235.15 309.306,236.483 312.5,237.5C 311.624,237.369 310.957,237.702 310.5,238.5C 315.345,241.421 320.011,244.588 324.5,248C 319.167,251.667 313.833,255.333 308.5,259C 312.314,263.649 316.314,268.149 320.5,272.5C 317.377,274.544 314.044,276.211 310.5,277.5C 309.702,277.957 309.369,278.624 309.5,279.5C 308.883,279.389 308.383,279.056 308,278.5C 299.242,282.795 290.409,286.962 281.5,291C 280.862,294.935 280.196,298.769 279.5,302.5C 277.143,297.428 275.81,292.095 275.5,286.5C 273.073,286.523 270.74,287.023 268.5,288C 266.309,289.919 263.976,291.253 261.5,292C 264.578,285.795 269.578,282.628 276.5,282.5C 276.5,281.5 276.5,280.5 276.5,279.5C 277.451,278.081 277.784,276.415 277.5,274.5C 277.263,273.209 277.596,272.209 278.5,271.5C 281.881,269.12 284.547,266.12 286.5,262.5C 289.86,259.806 292.86,256.806 295.5,253.5C 296.124,253.083 296.457,252.416 296.5,251.5C 294.691,245.931 293.358,240.265 292.5,234.5C 295.312,234.021 296.645,232.354 296.5,229.5C 296.134,225.728 294.801,222.394 292.5,219.5C 291.89,217.566 290.89,215.899 289.5,214.5C 289.5,214.167 289.5,213.833 289.5,213.5C 288.488,212.128 287.488,210.795 286.5,209.5C 284.224,204.598 281.224,200.265 277.5,196.5C 273.68,197.205 270.014,198.371 266.5,200C 265.58,202.841 264.58,205.674 263.5,208.5C 261.5,206.833 259.5,205.167 257.5,203.5C 255.413,206.673 253.579,210.006 252,213.5C 250.333,209.833 248.667,206.167 247,202.5C 245.357,204.977 243.524,207.31 241.5,209.5C 239.55,206.485 237.884,203.319 236.5,200C 231.548,198.235 226.548,197.735 221.5,198.5C 219.489,201.861 217.489,205.194 215.5,208.5C 213.75,209.659 212.75,211.326 212.5,213.5C 211.11,214.899 210.11,216.566 209.5,218.5C 208.094,218.973 207.427,219.973 207.5,221.5C 204.073,224.374 202.906,228.041 204,232.5C 204.708,233.381 205.542,234.047 206.5,234.5C 205.479,239.732 204.146,244.899 202.5,250C 202.57,250.765 202.903,251.265 203.5,251.5C 205.913,255.314 208.579,258.981 211.5,262.5C 213.372,265.582 215.705,268.249 218.5,270.5C 219.167,271.5 219.833,272.5 220.5,273.5C 220.927,276.01 221.593,278.343 222.5,280.5C 222.5,281.167 222.5,281.833 222.5,282.5C 222.802,285.373 223.469,288.039 224.5,290.5C 223.014,295.635 220.68,300.302 217.5,304.5C 217.5,304.167 217.5,303.833 217.5,303.5C 216.935,298.851 216.435,294.184 216,289.5C 208.272,285.605 200.439,281.939 192.5,278.5C 188.585,276.335 184.585,274.169 180.5,272C 185.007,268.324 189.341,264.49 193.5,260.5C 187.462,256.155 181.462,251.821 175.5,247.5C 178.661,244.509 181.995,241.675 185.5,239C 184.906,238.536 184.239,238.369 183.5,238.5C 188.12,236.463 192.953,234.796 198,233.5C 198.735,229.187 199.235,224.853 199.5,220.5C 182.791,220.331 166.124,220.331 149.5,220.5C 150,221.5 150.5,222.5 151,223.5C 153.688,225.364 156.188,227.364 158.5,229.5C 149.6,235.562 141.767,242.896 135,251.5C 129.151,263.567 125.817,276.233 125,289.5C 131.353,282.648 137.519,275.648 143.5,268.5C 144.167,267.167 144.833,267.167 145.5,268.5C 142.457,273.252 139.957,278.252 138,283.5C 136.377,293.984 134.877,304.484 133.5,315C 133.548,316.033 133.881,316.366 134.5,316C 140.667,309.167 146.833,302.333 153,295.5C 151.269,306.359 150.102,317.359 149.5,328.5C 147.833,331.167 146.167,333.833 144.5,336.5C 143.351,336.209 142.684,335.376 142.5,334C 141.921,330.436 141.087,326.936 140,323.5C 136.761,328.971 133.261,334.304 129.5,339.5C 128.736,331.798 127.736,324.131 126.5,316.5C 122.53,322.969 118.363,329.302 114,335.5C 111.472,324.968 109.805,314.302 109,303.5C 106.416,311.748 104.083,320.081 102,328.5C 99.5202,315.5 97.1869,302.5 95,289.5C 91.3579,298.793 87.6912,308.127 84,317.5C 82.379,311.304 80.379,305.304 78,299.5C 77.512,307.531 77.512,315.531 78,323.5C 72.3333,314.833 66.6667,306.167 61,297.5C 59.9486,302.239 59.1153,306.906 58.5,311.5C 55.8209,297.424 54.9876,283.091 56,268.5C 58.6097,273.109 61.943,277.109 66,280.5C 67,272.833 68,265.167 69,257.5C 70.3622,260.236 72.1956,262.569 74.5,264.5C 75.6077,260.184 76.6077,255.851 77.5,251.5C 79.595,250.771 81.4284,251.437 83,253.5C 89.7726,235.518 96.606,217.684 103.5,200C 105.717,198.277 108.05,196.777 110.5,195.5C 113.806,197.489 117.139,199.489 120.5,201.5C 122.531,203.522 124.865,205.189 127.5,206.5C 132.861,210.399 138.861,212.733 145.5,213.5C 151.399,214.674 157.399,215.341 163.5,215.5C 168.833,215.5 174.167,215.5 179.5,215.5C 186.175,215.666 192.842,215.5 199.5,215C 199.833,214.667 200.167,214.333 200.5,214C 198.023,212.357 195.69,210.524 193.5,208.5C 194.243,207.818 194.909,207.151 195.5,206.5C 198.166,205.158 200.499,203.325 202.5,201C 199.688,198.099 196.688,195.432 193.5,193C 196.692,190.308 200.025,187.808 203.5,185.5C 200.461,182.46 197.127,179.794 193.5,177.5C 194.167,176.5 194.833,175.5 195.5,174.5C 198.193,173.153 200.86,171.82 203.5,170.5C 205.167,170.5 206.833,170.5 208.5,170.5C 208.861,164.139 209.528,157.806 210.5,151.5C 214.465,153.635 218.298,155.968 222,158.5C 224.066,153.637 225.732,148.637 227,143.5C 227.414,143.043 227.914,142.709 228.5,142.5C 232.852,146.019 236.686,150.019 240,154.5C 244.246,149.009 248.246,143.342 252,137.5C 255.333,142.167 258.667,146.833 262,151.5C 266.333,148.5 270.667,145.5 275,142.5C 276.619,147.365 278.619,152.032 281,156.5C 285.192,153.821 289.692,151.821 294.5,150.5C 295.253,155.337 296.586,160.004 298.5,164.5 Z"/></g>
<g><path style="opacity:0.968" fill="#67604c" d="M 102.5,153.5 C 105.746,154.054 108.746,155.054 111.5,156.5C 108.704,157.307 105.87,158.307 103,159.5C 103.334,167.683 104.167,175.85 105.5,184C 105.494,186.033 105.161,187.866 104.5,189.5C 100.537,186.871 96.8706,183.871 93.5,180.5C 94.7647,179.486 95.4313,177.986 95.5,176C 95.0295,169.731 94.0295,163.565 92.5,157.5C 92.7093,156.914 93.0426,156.414 93.5,156C 96.1667,155.667 98.8333,155.333 101.5,155C 102.056,154.617 102.389,154.117 102.5,153.5 Z"/></g>
<g><path style="opacity:0.961" fill="#665f4b" d="M 394.5,154.5 C 397.909,155.903 401.575,156.57 405.5,156.5C 405.59,162.763 404.924,168.93 403.5,175C 403.566,177.255 403.899,179.422 404.5,181.5C 401.208,184.49 397.874,187.49 394.5,190.5C 393.701,180.068 394.701,169.735 397.5,159.5C 393.833,158.833 390.167,158.167 386.5,157.5C 388.792,155.733 391.458,154.733 394.5,154.5 Z"/></g>
<g><path style="opacity:0.966" fill="#67604c" d="M 78.5,153.5 C 80.8371,160.844 83.1705,168.178 85.5,175.5C 80.8154,174.496 76.1488,174.829 71.5,176.5C 73.0362,174.084 74.0362,171.417 74.5,168.5C 73.4948,164.488 72.4948,160.488 71.5,156.5C 73.7128,155.227 76.0462,154.227 78.5,153.5 Z"/></g>
<g><path style="opacity:0.973" fill="#969069" d="M 102.5,153.5 C 102.389,154.117 102.056,154.617 101.5,155C 98.8333,155.333 96.1667,155.667 93.5,156C 93.0426,156.414 92.7093,156.914 92.5,157.5C 94.0295,163.565 95.0295,169.731 95.5,176C 95.4313,177.986 94.7647,179.486 93.5,180.5C 91.1698,178.333 88.5032,176.666 85.5,175.5C 83.1705,168.178 80.8371,160.844 78.5,153.5C 81.3611,151.904 84.3611,150.57 87.5,149.5C 92.578,150.686 97.578,152.019 102.5,153.5 Z"/></g>
<g><path style="opacity:0.957" fill="#918b63" d="M 71.5,156.5 C 72.4948,160.488 73.4948,164.488 74.5,168.5C 74.0362,171.417 73.0362,174.084 71.5,176.5C 68.3223,178.009 64.9889,179.342 61.5,180.5C 65.1838,174.358 64.1838,169.358 58.5,165.5C 59.1175,163.771 60.1175,162.271 61.5,161C 64.9779,159.76 68.3113,158.26 71.5,156.5 Z"/></g>
<g><path style="opacity:0.954" fill="#928b64" d="M 420.5,153.5 C 417.883,160.682 415.883,168.015 414.5,175.5C 410.922,177.075 407.589,179.075 404.5,181.5C 403.899,179.422 403.566,177.255 403.5,175C 404.924,168.93 405.59,162.763 405.5,156.5C 401.575,156.57 397.909,155.903 394.5,154.5C 399.85,152.453 405.35,150.786 411,149.5C 414.13,150.984 417.297,152.317 420.5,153.5 Z"/></g>
<g><path style="opacity:0.969" fill="#67614c" d="M 121.5,158.5 C 124.067,159.475 126.733,160.142 129.5,160.5C 130.995,160.989 132.329,161.655 133.5,162.5C 132.566,163.568 132.232,164.901 132.5,166.5C 128.652,166.24 124.985,166.906 121.5,168.5C 127.694,180.583 129.694,193.25 127.5,206.5C 124.865,205.189 122.531,203.522 120.5,201.5C 121.527,197.554 121.694,193.554 121,189.5C 118.494,180.65 115.994,171.817 113.5,163C 115.833,162.667 118.167,162.333 120.5,162C 121.337,160.989 121.67,159.822 121.5,158.5 Z"/></g>
<g><path style="opacity:0.984" fill="#68624d" d="M 197.5,162.5 C 195.473,162.338 193.473,162.505 191.5,163C 192.761,166.952 194.094,170.786 195.5,174.5C 194.833,175.5 194.167,176.5 193.5,177.5C 187.775,178.242 182.441,180.075 177.5,183C 183,188.5 188.5,194 194,199.5C 194.186,202.036 194.686,204.369 195.5,206.5C 194.909,207.151 194.243,207.818 193.5,208.5C 195.69,210.524 198.023,212.357 200.5,214C 200.167,214.333 199.833,214.667 199.5,215C 192.842,215.5 186.175,215.666 179.5,215.5C 180.658,210.881 181.158,206.215 181,201.5C 174.688,193.687 168.188,186.02 161.5,178.5C 167.894,175.468 174.227,172.134 180.5,168.5C 178.722,166.736 177.389,164.736 176.5,162.5C 177.167,162.5 177.833,162.5 178.5,162.5C 185.001,161.621 191.334,161.621 197.5,162.5 Z"/></g>
<g><path style="opacity:0.991" fill="#928c65" d="M 307.5,162.5 C 306.293,166.786 305.293,171.12 304.5,175.5C 301.447,174.223 298.614,172.556 296,170.5C 295.333,169.5 295.333,168.5 296,167.5C 297.417,166.922 298.25,165.922 298.5,164.5C 301.215,162.877 304.215,162.21 307.5,162.5 Z"/></g>
<g><path style="opacity:0.98" fill="#67614c" d="M 146.5,162.5 C 150.167,162.5 153.833,162.5 157.5,162.5C 159.587,165.341 161.087,168.341 162,171.5C 156.974,173.264 152.141,175.43 147.5,178C 151.125,183.415 154.625,188.915 158,194.5C 158.163,201.202 157.663,207.868 156.5,214.5C 159.059,214.198 161.393,214.532 163.5,215.5C 157.399,215.341 151.399,214.674 145.5,213.5C 146.444,207.846 146.944,202.18 147,196.5C 142.953,188.904 138.786,181.404 134.5,174C 138.143,171.174 142.143,168.841 146.5,167C 147.413,165.586 147.413,164.086 146.5,162.5 Z"/></g>
<g><path style="opacity:0.985" fill="#68624d" d="M 307.5,162.5 C 312.833,162.5 318.167,162.5 323.5,162.5C 322.206,164.907 320.539,167.074 318.5,169C 324.764,172.258 331.098,175.425 337.5,178.5C 331.229,186.941 324.395,194.941 317,202.5C 317.341,206.876 318.174,211.209 319.5,215.5C 312.468,215.83 305.468,215.497 298.5,214.5C 300.833,212.667 303.167,210.833 305.5,209C 304.944,208.617 304.611,208.117 304.5,207.5C 305.326,204.986 305.492,202.319 305,199.5C 310.375,193.958 315.875,188.624 321.5,183.5C 316.373,180.903 311.04,178.903 305.5,177.5C 305.167,176.833 304.833,176.167 304.5,175.5C 305.293,171.12 306.293,166.786 307.5,162.5 Z"/></g>
<g><path style="opacity:0.971" fill="#67614c" d="M 341.5,162.5 C 345.5,162.5 349.5,162.5 353.5,162.5C 351.681,163.936 351.348,165.603 352.5,167.5C 356.303,169.738 360.303,171.404 364.5,172.5C 361.145,180.876 356.978,188.876 352,196.5C 351.55,202.458 352.384,208.125 354.5,213.5C 350.684,214.482 346.684,215.149 342.5,215.5C 341.197,208.882 340.697,202.216 341,195.5C 344.123,189.418 347.623,183.585 351.5,178C 346.552,175.94 341.718,173.773 337,171.5C 337.926,168.314 339.426,165.314 341.5,162.5 Z"/></g>
<g><path style="opacity:0.967" fill="#67604c" d="M 377.5,159.5 C 377.414,160.496 377.748,161.329 378.5,162C 380.9,162.186 383.234,162.686 385.5,163.5C 382.504,174.157 379.504,184.823 376.5,195.5C 377.512,197.563 378.512,199.563 379.5,201.5C 377.178,203.664 374.511,205.331 371.5,206.5C 369.47,193.238 371.47,180.571 377.5,168.5C 373.973,167.079 370.306,166.412 366.5,166.5C 366.5,165.167 366.5,163.833 366.5,162.5C 367.209,161.596 368.209,161.263 369.5,161.5C 371.993,160.226 374.659,159.56 377.5,159.5 Z"/></g>
<g><path style="opacity:0.909" fill="#655d49" d="M 420.5,153.5 C 423.232,154.866 425.899,156.199 428.5,157.5C 423.549,164.215 423.549,170.881 428.5,177.5C 423.993,175.887 419.327,175.221 414.5,175.5C 415.883,168.015 417.883,160.682 420.5,153.5 Z"/></g>
<g><path style="opacity:0.955" fill="#675f4a" d="M 58.5,165.5 C 64.1838,169.358 65.1838,174.358 61.5,180.5C 58.8717,182.488 56.205,184.488 53.5,186.5C 53.9321,183.123 53.2655,180.123 51.5,177.5C 53.8483,173.465 56.1816,169.465 58.5,165.5 Z"/></g>
<g><path style="opacity:0.976" fill="#928b64" d="M 197.5,162.5 C 199.963,164.461 202.297,166.628 204.5,169C 203.944,169.383 203.611,169.883 203.5,170.5C 200.86,171.82 198.193,173.153 195.5,174.5C 194.094,170.786 192.761,166.952 191.5,163C 193.473,162.505 195.473,162.338 197.5,162.5 Z"/></g>
<g><path style="opacity:0.945" fill="#8d8660" d="M 428.5,157.5 C 433.618,158.709 437.618,161.376 440.5,165.5C 438.188,167.146 436.188,169.146 434.5,171.5C 436.248,174.592 436.914,177.592 436.5,180.5C 433.828,179.499 431.162,178.499 428.5,177.5C 423.549,170.881 423.549,164.215 428.5,157.5 Z"/></g>
<g><path style="opacity:0.954" fill="#969069" d="M 111.5,156.5 C 114.789,157.374 118.123,158.041 121.5,158.5C 121.67,159.822 121.337,160.989 120.5,162C 118.167,162.333 115.833,162.667 113.5,163C 115.994,171.817 118.494,180.65 121,189.5C 121.694,193.554 121.527,197.554 120.5,201.5C 117.139,199.489 113.806,197.489 110.5,195.5C 108.5,193.5 106.5,191.5 104.5,189.5C 105.161,187.866 105.494,186.033 105.5,184C 104.167,175.85 103.334,167.683 103,159.5C 105.87,158.307 108.704,157.307 111.5,156.5 Z"/></g>
<g><path style="opacity:0.98" fill="#959068" d="M 386.5,157.5 C 390.167,158.167 393.833,158.833 397.5,159.5C 394.701,169.735 393.701,180.068 394.5,190.5C 393.833,190.5 393.5,190.833 393.5,191.5C 388.833,194.833 384.167,198.167 379.5,201.5C 378.512,199.563 377.512,197.563 376.5,195.5C 379.504,184.823 382.504,174.157 385.5,163.5C 383.234,162.686 380.9,162.186 378.5,162C 377.748,161.329 377.414,160.496 377.5,159.5C 380.219,158.087 383.219,157.42 386.5,157.5 Z"/></g>
<g><path style="opacity:0.955" fill="#665e4a" d="M 440.5,165.5 C 442.833,169.5 445.167,173.5 447.5,177.5C 445.735,180.123 445.068,183.123 445.5,186.5C 442.477,184.467 439.477,182.467 436.5,180.5C 436.914,177.592 436.248,174.592 434.5,171.5C 436.188,169.146 438.188,167.146 440.5,165.5 Z"/></g>
<g><path style="opacity:0.99" fill="#a19c77" d="M 193.5,177.5 C 197.127,179.794 200.461,182.46 203.5,185.5C 200.025,187.808 196.692,190.308 193.5,193C 196.688,195.432 199.688,198.099 202.5,201C 200.499,203.325 198.166,205.158 195.5,206.5C 194.686,204.369 194.186,202.036 194,199.5C 188.5,194 183,188.5 177.5,183C 182.441,180.075 187.775,178.242 193.5,177.5 Z"/></g>
<g><path style="opacity:0.986" fill="#a19c77" d="M 305.5,177.5 C 311.04,178.903 316.373,180.903 321.5,183.5C 315.875,188.624 310.375,193.958 305,199.5C 305.492,202.319 305.326,204.986 304.5,207.5C 301.569,205.909 298.902,203.909 296.5,201.5C 299.474,198.862 302.474,196.195 305.5,193.5C 302.167,190.833 298.833,188.167 295.5,185.5C 298.564,182.43 301.897,179.763 305.5,177.5 Z"/></g>
<g><path style="opacity:0.946" fill="#8e8861" d="M 51.5,177.5 C 53.2655,180.123 53.9321,183.123 53.5,186.5C 52.1851,187.476 50.8518,188.476 49.5,189.5C 48.3279,189.081 47.3279,188.415 46.5,187.5C 47.4565,185.925 48.1231,184.258 48.5,182.5C 49.7368,181.035 50.7368,179.368 51.5,177.5 Z"/></g>
<g><path style="opacity:0.976" fill="#8e8760" d="M 447.5,177.5 C 448.471,179.483 449.471,181.483 450.5,183.5C 451.153,184.807 451.82,186.14 452.5,187.5C 451.995,188.919 450.995,189.585 449.5,189.5C 447.77,188.974 446.436,187.974 445.5,186.5C 445.068,183.123 445.735,180.123 447.5,177.5 Z"/></g>
<g><path style="opacity:0.987" fill="#98936b" d="M 157.5,162.5 C 163.833,162.5 170.167,162.5 176.5,162.5C 177.389,164.736 178.722,166.736 180.5,168.5C 174.227,172.134 167.894,175.468 161.5,178.5C 168.188,186.02 174.688,193.687 181,201.5C 181.158,206.215 180.658,210.881 179.5,215.5C 174.167,215.5 168.833,215.5 163.5,215.5C 161.393,214.532 159.059,214.198 156.5,214.5C 157.663,207.868 158.163,201.202 158,194.5C 154.625,188.915 151.125,183.415 147.5,178C 152.141,175.43 156.974,173.264 162,171.5C 161.087,168.341 159.587,165.341 157.5,162.5 Z"/></g>
<g><path style="opacity:0.984" fill="#979169" d="M 353.5,162.5 C 357.833,162.5 362.167,162.5 366.5,162.5C 366.5,163.833 366.5,165.167 366.5,166.5C 370.306,166.412 373.973,167.079 377.5,168.5C 371.47,180.571 369.47,193.238 371.5,206.5C 366.446,210.19 360.779,212.523 354.5,213.5C 352.384,208.125 351.55,202.458 352,196.5C 356.978,188.876 361.145,180.876 364.5,172.5C 360.303,171.404 356.303,169.738 352.5,167.5C 351.348,165.603 351.681,163.936 353.5,162.5 Z"/></g>
<g><path style="opacity:0.988" fill="#98926a" d="M 323.5,162.5 C 326.5,162.5 329.5,162.5 332.5,162.5C 335.5,162.5 338.5,162.5 341.5,162.5C 339.426,165.314 337.926,168.314 337,171.5C 341.718,173.773 346.552,175.94 351.5,178C 347.623,183.585 344.123,189.418 341,195.5C 340.697,202.216 341.197,208.882 342.5,215.5C 334.833,215.5 327.167,215.5 319.5,215.5C 318.174,211.209 317.341,206.876 317,202.5C 324.395,194.941 331.229,186.941 337.5,178.5C 331.098,175.425 324.764,172.258 318.5,169C 320.539,167.074 322.206,164.907 323.5,162.5 Z"/></g>
<g><path style="opacity:0.341" fill="#432e21" d="M 414.5,175.5 C 419.327,175.221 423.993,175.887 428.5,177.5C 431.162,178.499 433.828,179.499 436.5,180.5C 439.477,182.467 442.477,184.467 445.5,186.5C 446.436,187.974 447.77,188.974 449.5,189.5C 449.38,190.586 448.713,191.253 447.5,191.5C 445.049,190.603 442.882,190.603 441,191.5C 434.312,188.382 427.312,186.049 420,184.5C 417.144,184.871 414.311,185.371 411.5,186C 409.707,188.795 407.54,191.295 405,193.5C 404.694,197.336 404.528,201.003 404.5,204.5C 407.554,214.708 411.22,224.708 415.5,234.5C 415.291,235.086 414.957,235.586 414.5,236C 418.512,240.857 421.346,246.357 423,252.5C 426.399,252.698 428.566,254.364 429.5,257.5C 427.087,261.314 424.421,264.981 421.5,268.5C 419.888,267.451 418.888,265.951 418.5,264C 420.586,259.64 420.919,255.14 419.5,250.5C 417.812,251.521 416.479,252.855 415.5,254.5C 414.21,253.942 413.377,252.942 413,251.5C 405.918,234.808 400.585,217.475 397,199.5C 395.988,196.69 394.822,194.024 393.5,191.5C 393.5,190.833 393.833,190.5 394.5,190.5C 397.874,187.49 401.208,184.49 404.5,181.5C 407.589,179.075 410.922,177.075 414.5,175.5 Z"/></g>
<g><path style="opacity:0.984" fill="#959068" d="M 133.5,162.5 C 137.833,162.5 142.167,162.5 146.5,162.5C 147.413,164.086 147.413,165.586 146.5,167C 142.143,168.841 138.143,171.174 134.5,174C 138.786,181.404 142.953,188.904 147,196.5C 146.944,202.18 146.444,207.846 145.5,213.5C 138.861,212.733 132.861,210.399 127.5,206.5C 129.694,193.25 127.694,180.583 121.5,168.5C 124.985,166.906 128.652,166.24 132.5,166.5C 132.232,164.901 132.566,163.568 133.5,162.5 Z"/></g>
<g><path style="opacity:0.983" fill="#8b7576" d="M 286.5,209.5 C 280.052,213.473 273.219,216.807 266,219.5C 262.487,218.553 259.154,217.219 256,215.5C 251.632,219.346 247.132,219.346 242.5,215.5C 239.499,217.844 236.165,218.677 232.5,218C 226.093,215.806 220.427,212.639 215.5,208.5C 217.489,205.194 219.489,201.861 221.5,198.5C 226.548,197.735 231.548,198.235 236.5,200C 237.884,203.319 239.55,206.485 241.5,209.5C 243.524,207.31 245.357,204.977 247,202.5C 248.667,206.167 250.333,209.833 252,213.5C 253.579,210.006 255.413,206.673 257.5,203.5C 259.5,205.167 261.5,206.833 263.5,208.5C 264.58,205.674 265.58,202.841 266.5,200C 270.014,198.371 273.68,197.205 277.5,196.5C 281.224,200.265 284.224,204.598 286.5,209.5 Z"/></g>
<g><path style="opacity:0.989" fill="#5a4546" d="M 215.5,208.5 C 220.427,212.639 226.093,215.806 232.5,218C 236.165,218.677 239.499,217.844 242.5,215.5C 247.132,219.346 251.632,219.346 256,215.5C 259.154,217.219 262.487,218.553 266,219.5C 273.219,216.807 280.052,213.473 286.5,209.5C 287.488,210.795 288.488,212.128 289.5,213.5C 280.635,216.597 271.968,220.263 263.5,224.5C 261.42,222.411 259.087,220.744 256.5,219.5C 254.5,220.5 252.5,221.5 250.5,222.5C 247.934,221.632 245.434,220.632 243,219.5C 241.023,220.905 238.857,221.905 236.5,222.5C 228.484,219.49 220.484,216.49 212.5,213.5C 212.75,211.326 213.75,209.659 215.5,208.5 Z"/></g>
<g><path style="opacity:0.984" fill="#897374" d="M 212.5,213.5 C 220.484,216.49 228.484,219.49 236.5,222.5C 238.857,221.905 241.023,220.905 243,219.5C 245.434,220.632 247.934,221.632 250.5,222.5C 252.5,221.5 254.5,220.5 256.5,219.5C 259.087,220.744 261.42,222.411 263.5,224.5C 271.968,220.263 280.635,216.597 289.5,213.5C 289.5,213.833 289.5,214.167 289.5,214.5C 280.269,218.811 270.936,223.145 261.5,227.5C 259.5,225.833 257.5,224.167 255.5,222.5C 253.833,223.833 252.167,225.167 250.5,226.5C 248.833,225.167 247.167,223.833 245.5,222.5C 242.737,224.798 239.57,226.132 236,226.5C 226.841,224.508 218.007,221.841 209.5,218.5C 210.11,216.566 211.11,214.899 212.5,213.5 Z"/></g>
<g><path style="opacity:0.981" fill="#806768" d="M 183.5,238.5 C 180.211,239.548 176.878,240.048 173.5,240C 168.62,236.28 163.62,232.78 158.5,229.5C 156.188,227.364 153.688,225.364 151,223.5C 150.5,222.5 150,221.5 149.5,220.5C 166.124,220.331 182.791,220.331 199.5,220.5C 199.235,224.853 198.735,229.187 198,233.5C 192.953,234.796 188.12,236.463 183.5,238.5 Z"/></g>
<g><path style="opacity:0.984" fill="#8c7676" d="M 292.5,219.5 C 294.801,222.394 296.134,225.728 296.5,229.5C 296.645,232.354 295.312,234.021 292.5,234.5C 288.889,235.653 285.223,236.653 281.5,237.5C 278.505,237.294 275.838,237.96 273.5,239.5C 271.5,239.5 269.5,239.5 267.5,239.5C 266.209,239.263 265.209,239.596 264.5,240.5C 255.191,241.317 245.857,241.65 236.5,241.5C 235.167,241.5 233.833,241.5 232.5,241.5C 230.283,240.631 227.95,240.298 225.5,240.5C 224.081,239.549 222.415,239.216 220.5,239.5C 215.737,238.336 211.07,236.669 206.5,234.5C 205.542,234.047 204.708,233.381 204,232.5C 202.906,228.041 204.073,224.374 207.5,221.5C 218.495,225.891 229.828,228.724 241.5,230C 245.045,225.396 248.045,225.896 250.5,231.5C 252.504,229.995 254.337,228.328 256,226.5C 258,227.833 260,229.167 262,230.5C 271.952,226.128 282.119,222.461 292.5,219.5 Z"/></g>
<g><path style="opacity:0.983" fill="#806868" d="M 342.5,229.5 C 337.38,232.78 332.38,236.28 327.5,240C 322.414,239.884 317.414,239.051 312.5,237.5C 309.306,236.483 306.139,235.15 303,233.5C 301.843,229.218 301.01,224.884 300.5,220.5C 317.503,220.333 334.503,220.5 351.5,221C 348.891,224.294 345.891,227.127 342.5,229.5 Z"/></g>
<g><path style="opacity:0.982" fill="#5a4546" d="M 289.5,214.5 C 290.89,215.899 291.89,217.566 292.5,219.5C 282.119,222.461 271.952,226.128 262,230.5C 260,229.167 258,227.833 256,226.5C 254.337,228.328 252.504,229.995 250.5,231.5C 248.045,225.896 245.045,225.396 241.5,230C 229.828,228.724 218.495,225.891 207.5,221.5C 207.427,219.973 208.094,218.973 209.5,218.5C 218.007,221.841 226.841,224.508 236,226.5C 239.57,226.132 242.737,224.798 245.5,222.5C 247.167,223.833 248.833,225.167 250.5,226.5C 252.167,225.167 253.833,223.833 255.5,222.5C 257.5,224.167 259.5,225.833 261.5,227.5C 270.936,223.145 280.269,218.811 289.5,214.5 Z"/></g>
<g><path style="opacity:0.964" fill="#231b1a" d="M 158.5,229.5 C 163.62,232.78 168.62,236.28 173.5,240C 176.878,240.048 180.211,239.548 183.5,238.5C 184.239,238.369 184.906,238.536 185.5,239C 181.995,241.675 178.661,244.509 175.5,247.5C 181.462,251.821 187.462,256.155 193.5,260.5C 189.341,264.49 185.007,268.324 180.5,272C 184.585,274.169 188.585,276.335 192.5,278.5C 185.796,285.87 179.463,293.536 173.5,301.5C 169.562,304.935 165.729,308.602 162,312.5C 157.97,318.02 153.803,323.353 149.5,328.5C 150.102,317.359 151.269,306.359 153,295.5C 146.833,302.333 140.667,309.167 134.5,316C 133.881,316.366 133.548,316.033 133.5,315C 134.877,304.484 136.377,293.984 138,283.5C 139.957,278.252 142.457,273.252 145.5,268.5C 144.833,267.167 144.167,267.167 143.5,268.5C 137.519,275.648 131.353,282.648 125,289.5C 125.817,276.233 129.151,263.567 135,251.5C 141.767,242.896 149.6,235.562 158.5,229.5 Z"/></g>
<g><path style="opacity:0.962" fill="#231b1a" d="M 342.5,229.5 C 348.163,234.33 353.33,239.663 358,245.5C 369.155,258.774 374.488,274.108 374,291.5C 368,284.5 362,277.5 356,270.5C 354.887,268.671 353.387,267.837 351.5,268C 359.984,283.108 364.817,299.275 366,316.5C 362.024,311.023 357.858,305.69 353.5,300.5C 351.301,297.945 348.634,296.279 345.5,295.5C 346.739,306.172 348.072,316.839 349.5,327.5C 342.179,318.181 334.512,309.181 326.5,300.5C 321.073,293.317 315.406,286.317 309.5,279.5C 309.369,278.624 309.702,277.957 310.5,277.5C 314.044,276.211 317.377,274.544 320.5,272.5C 316.314,268.149 312.314,263.649 308.5,259C 313.833,255.333 319.167,251.667 324.5,248C 320.011,244.588 315.345,241.421 310.5,238.5C 310.957,237.702 311.624,237.369 312.5,237.5C 317.414,239.051 322.414,239.884 327.5,240C 332.38,236.28 337.38,232.78 342.5,229.5 Z"/></g>
<g><path style="opacity:0.956" fill="#574242" d="M 206.5,234.5 C 211.07,236.669 215.737,238.336 220.5,239.5C 216.929,239.408 215.762,241.074 217,244.5C 222.158,253.562 228.492,254.562 236,247.5C 236.495,245.527 236.662,243.527 236.5,241.5C 245.857,241.65 255.191,241.317 264.5,240.5C 262.282,248.936 265.615,252.436 274.5,251C 277.603,249.561 280.436,247.727 283,245.5C 283.428,242.678 282.928,240.012 281.5,237.5C 285.223,236.653 288.889,235.653 292.5,234.5C 293.358,240.265 294.691,245.931 296.5,251.5C 296.457,252.416 296.124,253.083 295.5,253.5C 295.265,252.903 294.765,252.57 294,252.5C 282.508,255.608 271.341,259.608 260.5,264.5C 257.048,261.299 253.382,258.299 249.5,255.5C 246.113,258.592 242.946,261.925 240,265.5C 227.659,261.111 215.492,256.445 203.5,251.5C 202.903,251.265 202.57,250.765 202.5,250C 204.146,244.899 205.479,239.732 206.5,234.5 Z"/></g>
<g><path style="opacity:0.977" fill="#261c1c" d="M 281.5,237.5 C 282.928,240.012 283.428,242.678 283,245.5C 280.436,247.727 277.603,249.561 274.5,251C 265.615,252.436 262.282,248.936 264.5,240.5C 265.209,239.596 266.209,239.263 267.5,239.5C 266.679,245.158 268.846,246.825 274,244.5C 274.64,242.735 274.473,241.068 273.5,239.5C 275.838,237.96 278.505,237.294 281.5,237.5 Z"/></g>
<g><path style="opacity:0.964" fill="#281c1b" d="M 220.5,239.5 C 222.415,239.216 224.081,239.549 225.5,240.5C 224.842,244.677 226.508,246.177 230.5,245C 231.823,244.184 232.489,243.017 232.5,241.5C 233.833,241.5 235.167,241.5 236.5,241.5C 236.662,243.527 236.495,245.527 236,247.5C 228.492,254.562 222.158,253.562 217,244.5C 215.762,241.074 216.929,239.408 220.5,239.5 Z"/></g>
<g><path style="opacity:0.98" fill="#e20f05" d="M 267.5,239.5 C 269.5,239.5 271.5,239.5 273.5,239.5C 274.473,241.068 274.64,242.735 274,244.5C 268.846,246.825 266.679,245.158 267.5,239.5 Z"/></g>
<g><path style="opacity:0.984" fill="#e91002" d="M 225.5,240.5 C 227.95,240.298 230.283,240.631 232.5,241.5C 232.489,243.017 231.823,244.184 230.5,245C 226.508,246.177 224.842,244.677 225.5,240.5 Z"/></g>
<g><path style="opacity:0.861" fill="#514844" d="M 97.5,246.5 C 98.1239,246.917 98.4573,247.584 98.5,248.5C 97.5033,254.473 96.6699,260.473 96,266.5C 95.2057,263.529 94.539,260.529 94,257.5C 92.6012,256.773 91.1012,256.273 89.5,256C 92.0017,252.667 94.6684,249.501 97.5,246.5 Z"/></g>
<g><path style="opacity:0.974" fill="#8a7474" d="M 203.5,251.5 C 215.492,256.445 227.659,261.111 240,265.5C 242.946,261.925 246.113,258.592 249.5,255.5C 253.382,258.299 257.048,261.299 260.5,264.5C 271.341,259.608 282.508,255.608 294,252.5C 294.765,252.57 295.265,252.903 295.5,253.5C 292.86,256.806 289.86,259.806 286.5,262.5C 278.535,264.431 271.035,267.431 264,271.5C 263.365,272.966 262.531,274.3 261.5,275.5C 261.833,275.833 262.167,276.167 262.5,276.5C 266.686,273.046 271.519,271.046 277,270.5C 277.765,270.57 278.265,270.903 278.5,271.5C 277.596,272.209 277.263,273.209 277.5,274.5C 269.978,275.257 263.978,278.591 259.5,284.5C 259.833,284.833 260.167,285.167 260.5,285.5C 265.304,281.327 270.637,279.327 276.5,279.5C 276.5,280.5 276.5,281.5 276.5,282.5C 269.578,282.628 264.578,285.795 261.5,292C 263.976,291.253 266.309,289.919 268.5,288C 270.74,287.023 273.073,286.523 275.5,286.5C 275.81,292.095 277.143,297.428 279.5,302.5C 279.833,303.5 280.5,304.167 281.5,304.5C 278.225,310.731 274.225,316.397 269.5,321.5C 269.92,319.906 270.586,318.406 271.5,317C 269.728,312.289 268.394,307.455 267.5,302.5C 266.287,306.829 266.287,311.162 267.5,315.5C 265.999,319.835 263.999,323.835 261.5,327.5C 260.833,327.5 260.167,327.5 259.5,327.5C 260.022,322.933 261.355,318.6 263.5,314.5C 262.619,310.624 261.286,306.958 259.5,303.5C 258.672,308.132 258.172,312.798 258,317.5C 256.787,319.925 255.621,322.259 254.5,324.5C 253.391,324.443 252.391,324.11 251.5,323.5C 252.036,320.154 252.703,316.82 253.5,313.5C 251.573,300.243 249.573,300.243 247.5,313.5C 248.26,316.821 248.926,320.154 249.5,323.5C 249.167,323.5 248.833,323.5 248.5,323.5C 247.624,323.631 246.957,323.298 246.5,322.5C 245.764,320.459 244.931,318.459 244,316.5C 243.723,310.74 243.556,305.073 243.5,299.5C 239.914,308.369 239.58,317.369 242.5,326.5C 242.5,327.167 242.167,327.5 241.5,327.5C 236.283,320.444 234.117,312.444 235,303.5C 233.081,307.09 231.914,310.923 231.5,315C 233.033,319.895 234.7,324.729 236.5,329.5C 235.833,329.833 235.167,330.167 234.5,330.5C 228.844,321.862 223.177,313.195 217.5,304.5C 220.68,300.302 223.014,295.635 224.5,290.5C 225.152,289.275 226.319,288.608 228,288.5C 231.124,289.101 233.957,290.435 236.5,292.5C 236.833,292.167 237.167,291.833 237.5,291.5C 233.896,286.197 228.896,283.197 222.5,282.5C 222.5,281.833 222.5,281.167 222.5,280.5C 227.97,279.659 232.97,281.159 237.5,285C 238.5,285.667 239.5,285.667 240.5,285C 235.297,278.652 228.63,274.818 220.5,273.5C 219.833,272.5 219.167,271.5 218.5,270.5C 225.073,271.349 231.24,273.349 237,276.5C 237.5,276.333 238,276.167 238.5,276C 235.652,271.564 231.652,268.564 226.5,267C 221.479,265.485 216.479,263.985 211.5,262.5C 208.579,258.981 205.913,255.314 203.5,251.5 Z"/></g>
<g><path style="opacity:0.966" fill="#2e2525" d="M 244.5,263.5 C 246.045,264.23 246.878,265.563 247,267.5C 247.667,269.5 247.667,271.5 247,273.5C 245.542,271.04 243.709,268.873 241.5,267C 242.71,265.961 243.71,264.794 244.5,263.5 Z"/></g>
<g><path style="opacity:0.71" fill="#3a2f29" d="M 415.5,254.5 C 416.479,252.855 417.812,251.521 419.5,250.5C 420.919,255.14 420.586,259.64 418.5,264C 418.888,265.951 419.888,267.451 421.5,268.5C 424.421,264.981 427.087,261.314 429.5,257.5C 430.479,260.625 430.813,263.958 430.5,267.5C 430.678,271.122 430.011,274.456 428.5,277.5C 428.189,276.522 427.522,275.855 426.5,275.5C 423.28,275.78 421.28,277.447 420.5,280.5C 419.11,279.101 418.11,277.434 417.5,275.5C 417.559,272.951 416.559,270.951 414.5,269.5C 415.313,268.186 416.313,267.019 417.5,266C 414.5,266.333 411.5,266.667 408.5,267C 406.343,265.915 406.176,264.749 408,263.5C 408.424,265.615 409.591,266.448 411.5,266C 410.743,264.488 409.743,263.154 408.5,262C 409.672,261.581 410.672,260.915 411.5,260C 408.953,259.933 406.786,259.099 405,257.5C 403.701,260.006 402.701,262.673 402,265.5C 400.905,261.23 400.072,256.896 399.5,252.5C 397.955,251.548 396.288,251.215 394.5,251.5C 392.265,244.686 391.098,237.686 391,230.5C 394.074,233.286 397.241,235.952 400.5,238.5C 399.675,239.386 398.675,239.719 397.5,239.5C 398.371,242.272 398.371,244.938 397.5,247.5C 401.365,247.676 405.032,248.676 408.5,250.5C 410.98,251.415 411.647,252.915 410.5,255C 412.564,255.653 414.231,256.82 415.5,258.5C 418.14,257.127 418.14,255.794 415.5,254.5 Z"/></g>
<g><path style="opacity:0.96" fill="#5a4545" d="M 211.5,262.5 C 216.479,263.985 221.479,265.485 226.5,267C 231.652,268.564 235.652,271.564 238.5,276C 238,276.167 237.5,276.333 237,276.5C 231.24,273.349 225.073,271.349 218.5,270.5C 215.705,268.249 213.372,265.582 211.5,262.5 Z"/></g>
<g><path style="opacity:0.948" fill="#261c1c" d="M 253.5,263.5 C 255.729,264.055 257.395,265.389 258.5,267.5C 257.185,269.316 255.685,270.983 254,272.5C 253.502,269.518 253.335,266.518 253.5,263.5 Z"/></g>
<g><path style="opacity:0.977" fill="#5a4545" d="M 286.5,262.5 C 284.547,266.12 281.881,269.12 278.5,271.5C 278.265,270.903 277.765,270.57 277,270.5C 271.519,271.046 266.686,273.046 262.5,276.5C 262.167,276.167 261.833,275.833 261.5,275.5C 262.531,274.3 263.365,272.966 264,271.5C 271.035,267.431 278.535,264.431 286.5,262.5 Z"/></g>
<g><path style="opacity:0.948" fill="#514947" d="M 86.5,266.5 C 87.824,270.107 88.4907,274.107 88.5,278.5C 88.3333,282.5 88.1667,286.5 88,290.5C 86.4479,286.667 84.6146,283 82.5,279.5C 80.6687,280.929 78.6687,281.429 76.5,281C 80.7171,276.718 84.0505,271.884 86.5,266.5 Z"/></g>
<g><path style="opacity:0.2" fill="#463122" d="M 85.5,175.5 C 88.5032,176.666 91.1698,178.333 93.5,180.5C 96.8706,183.871 100.537,186.871 104.5,189.5C 106.5,191.5 108.5,193.5 110.5,195.5C 108.05,196.777 105.717,198.277 103.5,200C 96.606,217.684 89.7726,235.518 83,253.5C 81.4284,251.437 79.595,250.771 77.5,251.5C 76.6077,255.851 75.6077,260.184 74.5,264.5C 72.1956,262.569 70.3622,260.236 69,257.5C 68,265.167 67,272.833 66,280.5C 61.943,277.109 58.6097,273.109 56,268.5C 54.9876,283.091 55.8209,297.424 58.5,311.5C 60.0502,321.788 62.3836,331.788 65.5,341.5C 73.6111,370.677 81.9444,399.677 90.5,428.5C 92.2932,435.214 94.2932,441.881 96.5,448.5C 117.492,449.666 138.492,449.833 159.5,449C 160.76,446.787 161.426,444.287 161.5,441.5C 161.473,438.911 161.139,436.411 160.5,434C 155.798,433.172 151.131,433.338 146.5,434.5C 145.754,435.736 145.421,437.07 145.5,438.5C 144.167,438.5 142.833,438.5 141.5,438.5C 141.5,435.5 141.5,432.5 141.5,429.5C 149.42,429.815 157.253,429.482 165,428.5C 165.667,423.167 165.667,417.833 165,412.5C 162.901,410.203 160.401,408.536 157.5,407.5C 157.5,406.167 157.5,404.833 157.5,403.5C 154.642,402.493 152.142,400.827 150,398.5C 146.497,391.617 144.997,384.451 145.5,377C 147.02,374.404 147.853,371.571 148,368.5C 149.358,364.402 152.192,362.735 156.5,363.5C 158.306,365.089 159.639,367.089 160.5,369.5C 162.045,370.452 163.712,370.785 165.5,370.5C 169.44,374.808 170.44,379.808 168.5,385.5C 167.264,386.246 165.93,386.579 164.5,386.5C 164.636,391.946 163.969,397.28 162.5,402.5C 163.822,402.67 164.989,402.337 166,401.5C 168.03,397.991 170.196,394.658 172.5,391.5C 173.5,391.5 174.5,391.5 175.5,391.5C 174.838,394.148 174.171,396.815 173.5,399.5C 173.833,400.167 174.167,400.833 174.5,401.5C 177.164,398.175 179.831,394.842 182.5,391.5C 182.833,391.5 183.167,391.5 183.5,391.5C 182.841,394.455 182.508,397.455 182.5,400.5C 186.391,398.447 189.558,395.447 192,391.5C 192.484,389.807 191.984,388.473 190.5,387.5C 191.167,387.5 191.833,387.5 192.5,387.5C 193.558,386.4 194.392,385.066 195,383.5C 196.289,375.717 197.956,368.05 200,360.5C 203.883,357.235 208.383,355.568 213.5,355.5C 213.461,356.583 213.127,357.583 212.5,358.5C 215.333,359.117 218,358.45 220.5,356.5C 221.186,357.848 222.186,359.015 223.5,360C 233.082,361.45 242.582,363.283 252,365.5C 261.529,363.243 271.029,360.909 280.5,358.5C 282.258,358.877 283.925,359.544 285.5,360.5C 286.298,360.043 286.631,359.376 286.5,358.5C 288.638,355.387 291.638,353.387 295.5,352.5C 297.149,353.648 298.649,354.981 300,356.5C 302.303,365.381 304.47,374.381 306.5,383.5C 307.182,384.243 307.849,384.909 308.5,385.5C 308.5,386.167 308.5,386.833 308.5,387.5C 309.28,391.127 310.78,394.46 313,397.5C 313.908,399.439 315.408,400.439 317.5,400.5C 317.5,397.5 317.5,394.5 317.5,391.5C 317.833,391.5 318.167,391.5 318.5,391.5C 320.776,394.792 323.109,398.125 325.5,401.5C 326.72,401.113 327.387,400.28 327.5,399C 326.767,397.234 326.433,395.401 326.5,393.5C 327.978,393.238 329.311,393.571 330.5,394.5C 331.667,396.833 332.833,399.167 334,401.5C 335.011,402.337 336.178,402.67 337.5,402.5C 337.754,397.03 337.087,391.696 335.5,386.5C 333.379,386.675 331.379,386.341 329.5,385.5C 326.32,378.975 322.987,372.475 319.5,366C 325.014,366.548 330.348,368.048 335.5,370.5C 336.795,369.902 338.128,369.402 339.5,369C 340.733,366.686 342.067,364.519 343.5,362.5C 345.715,364.529 348.215,366.196 351,367.5C 352.474,373.007 353.307,378.341 353.5,383.5C 353.5,390.167 353.5,396.833 353.5,403.5C 346.417,405.292 339.917,408.292 334,412.5C 333.333,417.5 333.333,422.5 334,427.5C 334.5,428.667 335.333,429.5 336.5,430C 343.158,430.5 349.825,430.666 356.5,430.5C 356.5,433.167 356.5,435.833 356.5,438.5C 353.459,438.594 351.793,437.094 351.5,434C 346.713,433.121 342.047,433.455 337.5,435C 336.371,439.079 336.204,443.245 337,447.5C 337.5,448 338,448.5 338.5,449C 359.833,449.667 381.167,449.667 402.5,449C 405.537,441.722 407.87,434.222 409.5,426.5C 417.274,399.076 424.608,371.409 431.5,343.5C 434.061,333.867 436.561,324.201 439,314.5C 439.755,310.745 439.589,307.078 438.5,303.5C 439.5,303.5 440.5,303.5 441.5,303.5C 442.954,293.896 443.621,284.23 443.5,274.5C 441.473,274.338 439.473,274.505 437.5,275C 434.938,278.065 431.938,280.565 428.5,282.5C 427.948,280.997 427.948,279.331 428.5,277.5C 430.011,274.456 430.678,271.122 430.5,267.5C 431.978,267.238 433.311,267.571 434.5,268.5C 434.291,269.086 433.957,269.586 433.5,270C 435.307,270.928 436.974,272.094 438.5,273.5C 440.232,271.717 441.732,269.717 443,267.5C 444.128,271.096 446.294,272.762 449.5,272.5C 450.645,273.776 450.645,275.109 449.5,276.5C 450.687,277.519 451.687,278.686 452.5,280C 451.833,280.333 451.167,280.667 450.5,281C 451.718,282.438 452.385,284.105 452.5,286C 451.531,290.273 451.531,294.439 452.5,298.5C 451.5,299.333 450.5,300.167 449.5,301C 450.097,302.062 450.43,303.228 450.5,304.5C 448.591,310.246 446.924,316.413 445.5,323C 445.957,323.414 446.291,323.914 446.5,324.5C 444.726,330.607 442.392,336.774 439.5,343C 441.308,346.823 440.308,350.156 436.5,353C 437.167,353.333 437.833,353.667 438.5,354C 437.809,355.067 437.309,356.234 437,357.5C 436.08,357.93 435.247,358.264 434.5,358.5C 435.311,359.216 435.978,360.05 436.5,361C 433.997,363.013 431.997,365.513 430.5,368.5C 431.377,372.877 431.71,377.377 431.5,382C 430.12,383.324 429.786,384.657 430.5,386C 426.716,386.138 425.383,387.804 426.5,391C 426.097,392.473 425.43,393.806 424.5,395C 425.458,396.147 425.125,397.147 423.5,398C 424.313,400.852 424.313,403.852 423.5,407C 422.874,407.75 422.374,408.584 422,409.5C 421.667,409.167 421.333,408.833 421,408.5C 420.29,416.863 418.457,425.196 415.5,433.5C 414.99,435.088 413.99,436.255 412.5,437C 412.957,437.414 413.291,437.914 413.5,438.5C 411.721,441.115 411.055,443.782 411.5,446.5C 408.752,448.954 406.085,451.454 403.5,454C 401.782,454.346 400.115,454.846 398.5,455.5C 397.914,455.291 397.414,454.957 397,454.5C 396.481,455.516 395.647,456.182 394.5,456.5C 392.432,456.033 390.432,455.366 388.5,454.5C 384.167,455.167 379.833,455.833 375.5,456.5C 369.516,456.524 363.516,456.19 357.5,455.5C 352.966,457.65 348.299,457.983 343.5,456.5C 341.107,454.637 338.44,453.304 335.5,452.5C 334.585,451.672 333.919,450.672 333.5,449.5C 334.228,447.845 334.395,446.179 334,444.5C 332.901,447.044 331.735,447.044 330.5,444.5C 330.833,443.833 331.167,443.167 331.5,442.5C 329.524,437.26 327.857,431.927 326.5,426.5C 327.238,422.092 327.405,417.092 327,411.5C 326.417,409.998 325.584,408.665 324.5,407.5C 317.226,404.479 310.392,400.812 304,396.5C 301.879,388.909 299.879,381.242 298,373.5C 297.074,369.151 295.241,365.318 292.5,362C 287.849,363.478 283.182,365.311 278.5,367.5C 276.411,366.197 274.744,366.697 273.5,369C 268.551,370.157 263.551,370.99 258.5,371.5C 254.154,370.327 249.821,370.327 245.5,371.5C 239.834,370.667 234.167,369.833 228.5,369C 221.718,367.016 215.051,364.85 208.5,362.5C 205.327,365.503 203.161,369.17 202,373.5C 201.271,380.418 199.604,387.084 197,393.5C 194.234,395.02 192.567,397.353 192,400.5C 189.042,402.697 185.875,403.53 182.5,403C 179.795,404.741 176.962,406.241 174,407.5C 173.667,407.167 173.333,406.833 173,406.5C 172.753,412.266 171.92,418.099 170.5,424C 170.735,424.873 171.069,425.707 171.5,426.5C 169.394,430.191 169.061,434.024 170.5,438C 170.507,439.812 169.84,441.312 168.5,442.5C 169.42,444.972 168.42,446.638 165.5,447.5C 166.167,447.833 166.833,448.167 167.5,448.5C 164.593,451.117 161.927,453.951 159.5,457C 156.424,457.346 153.424,458.012 150.5,459C 135.5,459.667 120.5,459.667 105.5,459C 98.3187,458.326 92.4854,455.159 88,449.5C 86.3112,444.938 84.1446,440.604 81.5,436.5C 81.9312,435.707 82.2645,434.873 82.5,434C 79.1904,425.639 76.1904,417.139 73.5,408.5C 74.3153,405.586 73.6486,402.919 71.5,400.5C 63.2845,372.137 55.6178,343.637 48.5,315C 49.5353,312.525 49.202,310.525 47.5,309C 48.0813,305.98 48.4147,302.98 48.5,300C 46.9278,297.962 45.9278,295.629 45.5,293C 46.3567,292.311 47.0233,291.478 47.5,290.5C 45.7751,288.043 45.2751,285.377 46,282.5C 47.5744,279.678 49.0744,276.844 50.5,274C 50.1667,273.667 49.8333,273.333 49.5,273C 52.4985,271.953 53.9985,269.787 54,266.5C 55.3754,264.023 57.2088,263.189 59.5,264C 62.8868,260.389 65.3868,256.556 67,252.5C 68.0113,251.663 69.1779,251.33 70.5,251.5C 70.281,250.325 70.6143,249.325 71.5,248.5C 72.6086,249.59 73.6086,249.59 74.5,248.5C 77.8164,244.523 80.8164,240.357 83.5,236C 83.1667,235.667 82.8333,235.333 82.5,235C 87.1236,223.751 91.2902,212.251 95,200.5C 96.2748,192.764 92.7748,188.264 84.5,187C 80.8333,186.333 77.1667,186.333 73.5,187C 69.7143,188.733 65.881,189.9 62,190.5C 59.2809,189.556 56.4475,189.223 53.5,189.5C 53.5,188.5 53.5,187.5 53.5,186.5C 56.205,184.488 58.8717,182.488 61.5,180.5C 64.9889,179.342 68.3223,178.009 71.5,176.5C 76.1488,174.829 80.8154,174.496 85.5,175.5 Z"/></g>
<g><path style="opacity:0.956" fill="#251c1b" d="M 182.5,391.5 C 179.831,394.842 177.164,398.175 174.5,401.5C 174.167,400.833 173.833,400.167 173.5,399.5C 174.171,396.815 174.838,394.148 175.5,391.5C 176.112,388.303 178.112,386.969 181.5,387.5C 181.433,388.959 181.766,390.292 182.5,391.5 Z"/></g>
<g><path style="opacity:0.906" fill="#271d1c" d="M 329.5,385.5 C 331.379,386.341 333.379,386.675 335.5,386.5C 337.087,391.696 337.754,397.03 337.5,402.5C 336.178,402.67 335.011,402.337 334,401.5C 332.833,399.167 331.667,396.833 330.5,394.5C 329.311,393.571 327.978,393.238 326.5,393.5C 326.433,395.401 326.767,397.234 327.5,399C 327.387,400.28 326.72,401.113 325.5,401.5C 323.109,398.125 320.776,394.792 318.5,391.5C 319.234,390.292 319.567,388.959 319.5,387.5C 321.722,387.178 323.556,387.845 325,389.5C 326.667,388.267 328.167,386.933 329.5,385.5 Z"/></g>
<g><path style="opacity:0.936" fill="#261d1c" d="M 308.5,387.5 C 310.711,387.898 313.044,388.064 315.5,388C 316.305,389.113 316.972,390.279 317.5,391.5C 317.5,394.5 317.5,397.5 317.5,400.5C 315.408,400.439 313.908,399.439 313,397.5C 310.78,394.46 309.28,391.127 308.5,387.5 Z"/></g>
<g><path style="opacity:0.967" fill="#251c1b" d="M 190.5,387.5 C 191.984,388.473 192.484,389.807 192,391.5C 189.558,395.447 186.391,398.447 182.5,400.5C 182.508,397.455 182.841,394.455 183.5,391.5C 183.918,386.929 186.251,385.595 190.5,387.5 Z"/></g>
<g><path style="opacity:0.486" fill="#36241d" d="M 172.5,391.5 C 170.196,394.658 168.03,397.991 166,401.5C 164.989,402.337 163.822,402.67 162.5,402.5C 163.969,397.28 164.636,391.946 164.5,386.5C 165.93,386.579 167.264,386.246 168.5,385.5C 170.44,379.808 169.44,374.808 165.5,370.5C 170.551,368.07 175.884,366.57 181.5,366C 178.087,372.827 174.421,379.494 170.5,386C 171.5,386.833 172.5,387.667 173.5,388.5C 172.873,389.417 172.539,390.417 172.5,391.5 Z"/></g>
<g><path style="opacity:0.728" fill="#534942" d="M 431.5,343.5 C 424.608,371.409 417.274,399.076 409.5,426.5C 408.305,426.678 407.138,427.011 406,427.5C 403.644,425.312 401.477,422.979 399.5,420.5C 395.373,422.265 391.207,423.931 387,425.5C 384.049,422.968 381.549,419.968 379.5,416.5C 376.239,418.047 373.072,419.713 370,421.5C 369.228,421.355 368.561,421.022 368,420.5C 366.596,417.456 365.096,414.456 363.5,411.5C 360.249,413.375 357.082,415.375 354,417.5C 353.501,412.845 353.334,408.179 353.5,403.5C 353.5,396.833 353.5,390.167 353.5,383.5C 354.272,379.548 354.605,375.548 354.5,371.5C 356.463,370.04 358.296,368.373 360,366.5C 361.814,362.047 363.814,357.714 366,353.5C 368.029,356.029 369.862,358.696 371.5,361.5C 372.723,362.614 374.056,362.781 375.5,362C 378.395,357.71 380.895,353.21 383,348.5C 385.95,353.118 389.284,357.452 393,361.5C 397.606,353.961 402.939,346.961 409,340.5C 408.657,347.914 408.657,355.58 409,363.5C 413.688,358.313 418.188,352.98 422.5,347.5C 425.148,345.342 428.148,344.008 431.5,343.5 Z"/></g>
<g><path style="opacity:0.937" fill="#433a37" d="M 343.5,362.5 C 342.067,364.519 340.733,366.686 339.5,369C 338.128,369.402 336.795,369.902 335.5,370.5C 330.348,368.048 325.014,366.548 319.5,366C 322.987,372.475 326.32,378.975 329.5,385.5C 328.167,386.933 326.667,388.267 325,389.5C 323.556,387.845 321.722,387.178 319.5,387.5C 319.567,388.959 319.234,390.292 318.5,391.5C 318.167,391.5 317.833,391.5 317.5,391.5C 316.972,390.279 316.305,389.113 315.5,388C 313.044,388.064 310.711,387.898 308.5,387.5C 308.5,386.833 308.5,386.167 308.5,385.5C 305.407,371.21 302.907,356.877 301,342.5C 301.414,342.043 301.914,341.709 302.5,341.5C 309.964,343.932 317.464,346.266 325,348.5C 328.003,343.151 330.503,337.485 332.5,331.5C 330.102,328.596 327.435,325.763 324.5,323C 322.633,322.289 321.133,322.789 320,324.5C 318.955,328.344 317.455,332.01 315.5,335.5C 317.49,336.498 319.49,337.498 321.5,338.5C 323.333,337.032 323.666,335.365 322.5,333.5C 321.109,334.645 319.776,334.645 318.5,333.5C 319.648,330.711 320.981,328.044 322.5,325.5C 325.005,327.506 327.338,329.672 329.5,332C 327.75,336.08 325.583,339.913 323,343.5C 316.527,341.342 310.027,339.176 303.5,337C 301.637,335.582 301.137,333.749 302,331.5C 309.167,323.667 316.333,315.833 323.5,308C 326.099,307.231 328.599,307.398 331,308.5C 337.667,318.5 344.333,328.5 351,338.5C 351.667,341.833 351.667,345.167 351,348.5C 348.742,353.353 346.242,358.019 343.5,362.5 Z"/></g>
<g><path style="opacity:0.942" fill="#413534" d="M 235.5,342.5 C 244.36,344.825 253.36,345.158 262.5,343.5C 266.558,347.053 270.558,350.886 274.5,355C 276.727,355.941 278.727,357.108 280.5,358.5C 271.029,360.909 261.529,363.243 252,365.5C 242.582,363.283 233.082,361.45 223.5,360C 222.186,359.015 221.186,357.848 220.5,356.5C 225.474,351.861 230.474,347.195 235.5,342.5 Z"/></g>
<g><path style="opacity:0.949" fill="#433a38" d="M 144.5,336.5 C 143.526,346.418 143.193,356.418 143.5,366.5C 140.193,362.574 137.36,358.24 135,353.5C 132.71,356.58 130.543,359.747 128.5,363C 127.365,363.749 126.365,363.583 125.5,362.5C 122.731,357.961 120.231,353.294 118,348.5C 115.394,353.435 112.394,358.102 109,362.5C 105.109,354.739 99.7754,348.072 93,342.5C 93.5142,349.794 93.5142,357.128 93,364.5C 85.7961,355.629 77.6295,347.795 68.5,341C 67.2506,340.26 66.2506,340.427 65.5,341.5C 62.3836,331.788 60.0502,321.788 58.5,311.5C 59.1153,306.906 59.9486,302.239 61,297.5C 66.6667,306.167 72.3333,314.833 78,323.5C 77.512,315.531 77.512,307.531 78,299.5C 80.379,305.304 82.379,311.304 84,317.5C 87.6912,308.127 91.3579,298.793 95,289.5C 97.1869,302.5 99.5202,315.5 102,328.5C 104.083,320.081 106.416,311.748 109,303.5C 109.805,314.302 111.472,324.968 114,335.5C 118.363,329.302 122.53,322.969 126.5,316.5C 127.736,324.131 128.736,331.798 129.5,339.5C 133.261,334.304 136.761,328.971 140,323.5C 141.087,326.936 141.921,330.436 142.5,334C 142.684,335.376 143.351,336.209 144.5,336.5 Z"/></g>
<g><path style="opacity:0.959" fill="#534c49" d="M 143.5,366.5 C 144.479,378.42 144.812,390.42 144.5,402.5C 144.827,407.214 144.493,411.88 143.5,416.5C 140.42,415.211 137.586,413.545 135,411.5C 133.491,415.194 131.491,418.527 129,421.5C 125.612,420.223 122.445,418.556 119.5,416.5C 117.518,420.146 114.851,423.146 111.5,425.5C 107.5,424.167 103.5,422.833 99.5,421.5C 96.9572,423.022 94.9572,425.188 93.5,428C 92.552,428.483 91.552,428.649 90.5,428.5C 81.9444,399.677 73.6111,370.677 65.5,341.5C 66.2506,340.427 67.2506,340.26 68.5,341C 77.6295,347.795 85.7961,355.629 93,364.5C 93.5142,357.128 93.5142,349.794 93,342.5C 99.7754,348.072 105.109,354.739 109,362.5C 112.394,358.102 115.394,353.435 118,348.5C 120.231,353.294 122.731,357.961 125.5,362.5C 126.365,363.583 127.365,363.749 128.5,363C 130.543,359.747 132.71,356.58 135,353.5C 137.36,358.24 140.193,362.574 143.5,366.5 Z"/></g>
<g><path style="opacity:0.935" fill="#877271" d="M 222.5,326.5 C 223.492,326.328 224.158,326.662 224.5,327.5C 228.998,330.919 233.998,333.585 239.5,335.5C 239.919,336.672 240.585,337.672 241.5,338.5C 241.92,336.674 241.92,334.674 241.5,332.5C 242.552,332.351 243.552,332.517 244.5,333C 245.218,334.987 246.218,336.821 247.5,338.5C 248.321,335.554 248.321,332.554 247.5,329.5C 252.287,328.97 256.62,330.137 260.5,333C 261.227,334.399 261.727,335.899 262,337.5C 266.492,334.404 270.992,331.404 275.5,328.5C 277.048,328.821 277.715,329.821 277.5,331.5C 274.275,337.725 269.275,341.725 262.5,343.5C 253.36,345.158 244.36,344.825 235.5,342.5C 233.047,341.783 230.713,340.616 228.5,339C 226.267,336.004 223.934,333.171 221.5,330.5C 221.461,329.417 221.127,328.417 220.5,327.5C 220.957,326.702 221.624,326.369 222.5,326.5 Z"/></g>
<g><path style="opacity:0.974" fill="#776365" d="M 277.5,331.5 C 277.859,340.23 280.526,348.23 285.5,355.5C 285.263,356.791 285.596,357.791 286.5,358.5C 286.631,359.376 286.298,360.043 285.5,360.5C 283.925,359.544 282.258,358.877 280.5,358.5C 278.727,357.108 276.727,355.941 274.5,355C 270.558,350.886 266.558,347.053 262.5,343.5C 269.275,341.725 274.275,337.725 277.5,331.5 Z"/></g>
<g><path style="opacity:0.964" fill="#766264" d="M 221.5,330.5 C 223.934,333.171 226.267,336.004 228.5,339C 230.713,340.616 233.047,341.783 235.5,342.5C 230.474,347.195 225.474,351.861 220.5,356.5C 218,358.45 215.333,359.117 212.5,358.5C 213.127,357.583 213.461,356.583 213.5,355.5C 214.338,355.158 214.672,354.492 214.5,353.5C 219.049,346.519 221.382,338.852 221.5,330.5 Z"/></g>
<g><path style="opacity:0.964" fill="#2d2222" d="M 248.5,323.5 C 248.833,323.5 249.167,323.5 249.5,323.5C 250.167,323.5 250.833,323.5 251.5,323.5C 252.391,324.11 253.391,324.443 254.5,324.5C 255.965,325.737 257.632,326.737 259.5,327.5C 260.167,327.5 260.833,327.5 261.5,327.5C 262.209,328.404 263.209,328.737 264.5,328.5C 264.5,329.5 264.5,330.5 264.5,331.5C 268.412,331.376 272.079,330.376 275.5,328.5C 270.992,331.404 266.492,334.404 262,337.5C 261.727,335.899 261.227,334.399 260.5,333C 256.62,330.137 252.287,328.97 247.5,329.5C 248.321,332.554 248.321,335.554 247.5,338.5C 246.218,336.821 245.218,334.987 244.5,333C 243.552,332.517 242.552,332.351 241.5,332.5C 241.92,334.674 241.92,336.674 241.5,338.5C 240.585,337.672 239.919,336.672 239.5,335.5C 233.998,333.585 228.998,330.919 224.5,327.5C 227.659,329.08 230.993,330.08 234.5,330.5C 235.167,330.167 235.833,329.833 236.5,329.5C 238.403,329.204 240.07,328.537 241.5,327.5C 242.167,327.5 242.5,327.167 242.5,326.5C 244.574,325.486 246.574,324.486 248.5,323.5 Z"/></g>
<g><path style="opacity:0.483" fill="#3d281e" d="M 326.5,300.5 C 334.512,309.181 342.179,318.181 349.5,327.5C 350.442,331.09 352.442,333.757 355.5,335.5C 354.584,347.469 354.251,359.469 354.5,371.5C 354.605,375.548 354.272,379.548 353.5,383.5C 353.307,378.341 352.474,373.007 351,367.5C 348.215,366.196 345.715,364.529 343.5,362.5C 346.242,358.019 348.742,353.353 351,348.5C 351.667,345.167 351.667,341.833 351,338.5C 344.333,328.5 337.667,318.5 331,308.5C 328.599,307.398 326.099,307.231 323.5,308C 316.333,315.833 309.167,323.667 302,331.5C 301.137,333.749 301.637,335.582 303.5,337C 310.027,339.176 316.527,341.342 323,343.5C 325.583,339.913 327.75,336.08 329.5,332C 327.338,329.672 325.005,327.506 322.5,325.5C 320.981,328.044 319.648,330.711 318.5,333.5C 319.776,334.645 321.109,334.645 322.5,333.5C 323.666,335.365 323.333,337.032 321.5,338.5C 319.49,337.498 317.49,336.498 315.5,335.5C 317.455,332.01 318.955,328.344 320,324.5C 321.133,322.789 322.633,322.289 324.5,323C 327.435,325.763 330.102,328.596 332.5,331.5C 330.503,337.485 328.003,343.151 325,348.5C 317.464,346.266 309.964,343.932 302.5,341.5C 301.914,341.709 301.414,342.043 301,342.5C 302.907,356.877 305.407,371.21 308.5,385.5C 307.849,384.909 307.182,384.243 306.5,383.5C 304.47,374.381 302.303,365.381 300,356.5C 298.649,354.981 297.149,353.648 295.5,352.5C 291.638,353.387 288.638,355.387 286.5,358.5C 285.596,357.791 285.263,356.791 285.5,355.5C 285.281,354.325 285.614,353.325 286.5,352.5C 289.472,350.694 292.305,348.694 295,346.5C 296.174,342.954 296.84,339.287 297,335.5C 307.443,324.234 317.276,312.567 326.5,300.5 Z"/></g>
<g><path style="opacity:0.978" fill="#5a4645" d="M 269.5,321.5 C 268.557,324.4 266.89,326.733 264.5,328.5C 263.209,328.737 262.209,328.404 261.5,327.5C 263.999,323.835 265.999,319.835 267.5,315.5C 266.287,311.162 266.287,306.829 267.5,302.5C 268.394,307.455 269.728,312.289 271.5,317C 270.586,318.406 269.92,319.906 269.5,321.5 Z"/></g>
<g><path style="opacity:0.944" fill="#584444" d="M 259.5,327.5 C 257.632,326.737 255.965,325.737 254.5,324.5C 255.621,322.259 256.787,319.925 258,317.5C 258.172,312.798 258.672,308.132 259.5,303.5C 261.286,306.958 262.619,310.624 263.5,314.5C 261.355,318.6 260.022,322.933 259.5,327.5 Z"/></g>
<g><path style="opacity:0.961" fill="#594444" d="M 241.5,327.5 C 240.07,328.537 238.403,329.204 236.5,329.5C 234.7,324.729 233.033,319.895 231.5,315C 231.914,310.923 233.081,307.09 235,303.5C 234.117,312.444 236.283,320.444 241.5,327.5 Z"/></g>
<g><path style="opacity:0.937" fill="#443a36" d="M 438.5,303.5 C 439.589,307.078 439.755,310.745 439,314.5C 436.561,324.201 434.061,333.867 431.5,343.5C 428.148,344.008 425.148,345.342 422.5,347.5C 418.188,352.98 413.688,358.313 409,363.5C 408.657,355.58 408.657,347.914 409,340.5C 402.939,346.961 397.606,353.961 393,361.5C 389.284,357.452 385.95,353.118 383,348.5C 380.895,353.21 378.395,357.71 375.5,362C 374.056,362.781 372.723,362.614 371.5,361.5C 369.862,358.696 368.029,356.029 366,353.5C 363.814,357.714 361.814,362.047 360,366.5C 358.296,368.373 356.463,370.04 354.5,371.5C 354.251,359.469 354.584,347.469 355.5,335.5C 356.918,330.398 357.751,325.064 358,319.5C 360.484,324.469 362.984,329.469 365.5,334.5C 366.328,335.415 367.328,336.081 368.5,336.5C 370.041,329.94 370.874,323.274 371,316.5C 375.667,322.5 380.333,328.5 385,334.5C 387.537,325.685 389.203,316.685 390,307.5C 392.48,314.406 394.813,321.406 397,328.5C 399.116,315.475 401.116,302.475 403,289.5C 407.236,298.634 410.903,307.967 414,317.5C 416.632,310.318 418.966,302.985 421,295.5C 421.464,304.192 421.464,312.858 421,321.5C 427.164,313.175 432.831,304.508 438,295.5C 438.497,298.146 438.664,300.813 438.5,303.5 Z"/></g>
<g><path style="opacity:0.954" fill="#5a4545" d="M 248.5,323.5 C 246.574,324.486 244.574,325.486 242.5,326.5C 239.58,317.369 239.914,308.369 243.5,299.5C 243.556,305.073 243.723,310.74 244,316.5C 244.931,318.459 245.764,320.459 246.5,322.5C 246.957,323.298 247.624,323.631 248.5,323.5 Z"/></g>
<g><path style="opacity:0.486" fill="#3d281e" d="M 173.5,301.5 C 183.794,312.963 194.294,324.297 205,335.5C 204.637,339.53 204.804,343.53 205.5,347.5C 208.385,349.769 211.385,351.769 214.5,353.5C 214.672,354.492 214.338,355.158 213.5,355.5C 208.383,355.568 203.883,357.235 200,360.5C 197.956,368.05 196.289,375.717 195,383.5C 194.392,385.066 193.558,386.4 192.5,387.5C 195.112,372.546 197.446,357.546 199.5,342.5C 191.361,344.036 183.361,345.869 175.5,348C 174.636,345.929 173.303,344.262 171.5,343C 171.957,342.586 172.291,342.086 172.5,341.5C 170.391,337.682 169.224,333.682 169,329.5C 171.167,327.333 173.333,325.167 175.5,323C 177.695,322.288 179.362,322.955 180.5,325C 182.14,328.756 183.474,332.589 184.5,336.5C 182.323,336.586 180.323,337.253 178.5,338.5C 177.264,336.966 176.764,335.3 177,333.5C 178.612,336.079 180.112,336.079 181.5,333.5C 180.617,330.675 179.45,328.008 178,325.5C 175.331,327.34 172.831,329.34 170.5,331.5C 172.372,335.412 174.372,339.245 176.5,343C 184.385,341.881 191.885,339.381 199,335.5C 199.667,334.5 199.667,333.5 199,332.5C 191.5,324.333 184,316.167 176.5,308C 173.773,307.182 171.106,307.348 168.5,308.5C 162,318.167 155.5,327.833 149,337.5C 148.333,341.167 148.333,344.833 149,348.5C 152.038,353.243 154.538,358.243 156.5,363.5C 152.192,362.735 149.358,364.402 148,368.5C 147.853,371.571 147.02,374.404 145.5,377C 144.997,384.451 146.497,391.617 150,398.5C 152.142,400.827 154.642,402.493 157.5,403.5C 157.5,404.833 157.5,406.167 157.5,407.5C 153.088,406.03 148.755,404.363 144.5,402.5C 144.812,390.42 144.479,378.42 143.5,366.5C 143.193,356.418 143.526,346.418 144.5,336.5C 146.167,333.833 147.833,331.167 149.5,328.5C 153.803,323.353 157.97,318.02 162,312.5C 165.729,308.602 169.562,304.935 173.5,301.5 Z"/></g>
<g><path style="opacity:0.939" fill="#5b4544" d="M 251.5,323.5 C 250.833,323.5 250.167,323.5 249.5,323.5C 248.926,320.154 248.26,316.821 247.5,313.5C 249.573,300.243 251.573,300.243 253.5,313.5C 252.703,316.82 252.036,320.154 251.5,323.5 Z"/></g>
<g><path style="opacity:0.979" fill="#afac9f" d="M 217.5,303.5 C 217.5,303.833 217.5,304.167 217.5,304.5C 223.177,313.195 228.844,321.862 234.5,330.5C 230.993,330.08 227.659,329.08 224.5,327.5C 224.158,326.662 223.492,326.328 222.5,326.5C 220.645,324.967 218.812,323.3 217,321.5C 215.343,314.57 214.677,307.57 215,300.5C 215.852,301.571 216.685,302.571 217.5,303.5 Z"/></g>
<g><path style="opacity:0.983" fill="#433a38" d="M 192.5,387.5 C 191.833,387.5 191.167,387.5 190.5,387.5C 186.251,385.595 183.918,386.929 183.5,391.5C 183.167,391.5 182.833,391.5 182.5,391.5C 181.766,390.292 181.433,388.959 181.5,387.5C 178.112,386.969 176.112,388.303 175.5,391.5C 174.5,391.5 173.5,391.5 172.5,391.5C 172.539,390.417 172.873,389.417 173.5,388.5C 172.5,387.667 171.5,386.833 170.5,386C 174.421,379.494 178.087,372.827 181.5,366C 175.884,366.57 170.551,368.07 165.5,370.5C 163.712,370.785 162.045,370.452 160.5,369.5C 159.639,367.089 158.306,365.089 156.5,363.5C 154.538,358.243 152.038,353.243 149,348.5C 148.333,344.833 148.333,341.167 149,337.5C 155.5,327.833 162,318.167 168.5,308.5C 171.106,307.348 173.773,307.182 176.5,308C 184,316.167 191.5,324.333 199,332.5C 199.667,333.5 199.667,334.5 199,335.5C 191.885,339.381 184.385,341.881 176.5,343C 174.372,339.245 172.372,335.412 170.5,331.5C 172.831,329.34 175.331,327.34 178,325.5C 179.45,328.008 180.617,330.675 181.5,333.5C 180.112,336.079 178.612,336.079 177,333.5C 176.764,335.3 177.264,336.966 178.5,338.5C 180.323,337.253 182.323,336.586 184.5,336.5C 183.474,332.589 182.14,328.756 180.5,325C 179.362,322.955 177.695,322.288 175.5,323C 173.333,325.167 171.167,327.333 169,329.5C 169.224,333.682 170.391,337.682 172.5,341.5C 172.291,342.086 171.957,342.586 171.5,343C 173.303,344.262 174.636,345.929 175.5,348C 183.361,345.869 191.361,344.036 199.5,342.5C 197.446,357.546 195.112,372.546 192.5,387.5 Z"/></g>
<g><path style="opacity:0.985" fill="#b0aca0" d="M 275.5,328.5 C 272.079,330.376 268.412,331.376 264.5,331.5C 264.5,330.5 264.5,329.5 264.5,328.5C 266.89,326.733 268.557,324.4 269.5,321.5C 274.225,316.397 278.225,310.731 281.5,304.5C 282.79,300.385 283.79,300.052 284.5,303.5C 283.63,310.161 282.797,316.828 282,323.5C 279.674,325.066 277.508,326.732 275.5,328.5 Z"/></g>
<g><path style="opacity:0.955" fill="#594444" d="M 222.5,282.5 C 228.896,283.197 233.896,286.197 237.5,291.5C 237.167,291.833 236.833,292.167 236.5,292.5C 233.957,290.435 231.124,289.101 228,288.5C 226.319,288.608 225.152,289.275 224.5,290.5C 223.469,288.039 222.802,285.373 222.5,282.5 Z"/></g>
<g><path style="opacity:0.982" fill="#403534" d="M 309.5,279.5 C 315.406,286.317 321.073,293.317 326.5,300.5C 317.276,312.567 307.443,324.234 297,335.5C 296.84,339.287 296.174,342.954 295,346.5C 292.305,348.694 289.472,350.694 286.5,352.5C 285.614,353.325 285.281,354.325 285.5,355.5C 280.526,348.23 277.859,340.23 277.5,331.5C 277.715,329.821 277.048,328.821 275.5,328.5C 277.508,326.732 279.674,325.066 282,323.5C 282.797,316.828 283.63,310.161 284.5,303.5C 283.79,300.052 282.79,300.385 281.5,304.5C 280.5,304.167 279.833,303.5 279.5,302.5C 280.196,298.769 280.862,294.935 281.5,291C 290.409,286.962 299.242,282.795 308,278.5C 308.383,279.056 308.883,279.389 309.5,279.5 Z"/></g>
<g><path style="opacity:0.978" fill="#403534" d="M 192.5,278.5 C 200.439,281.939 208.272,285.605 216,289.5C 216.435,294.184 216.935,298.851 217.5,303.5C 216.685,302.571 215.852,301.571 215,300.5C 214.677,307.57 215.343,314.57 217,321.5C 218.812,323.3 220.645,324.967 222.5,326.5C 221.624,326.369 220.957,326.702 220.5,327.5C 221.127,328.417 221.461,329.417 221.5,330.5C 221.382,338.852 219.049,346.519 214.5,353.5C 211.385,351.769 208.385,349.769 205.5,347.5C 204.804,343.53 204.637,339.53 205,335.5C 194.294,324.297 183.794,312.963 173.5,301.5C 179.463,293.536 185.796,285.87 192.5,278.5 Z"/></g>
<g><path style="opacity:0.926" fill="#5c4646" d="M 277.5,274.5 C 277.784,276.415 277.451,278.081 276.5,279.5C 270.637,279.327 265.304,281.327 260.5,285.5C 260.167,285.167 259.833,284.833 259.5,284.5C 263.978,278.591 269.978,275.257 277.5,274.5 Z"/></g>
<g><path style="opacity:0.968" fill="#5a4444" d="M 220.5,273.5 C 228.63,274.818 235.297,278.652 240.5,285C 239.5,285.667 238.5,285.667 237.5,285C 232.97,281.159 227.97,279.659 222.5,280.5C 221.593,278.343 220.927,276.01 220.5,273.5 Z"/></g>
<g><path style="opacity:0.901" fill="#524a45" d="M 417.5,275.5 C 418.11,277.434 419.11,279.101 420.5,280.5C 420.44,281.043 420.107,281.376 419.5,281.5C 417.941,280.926 416.441,280.26 415,279.5C 413.076,283.017 411.409,286.684 410,290.5C 409.314,283.125 409.647,275.792 411,268.5C 413.033,271.03 415.2,273.363 417.5,275.5 Z"/></g>
<g><path style="opacity:0.974" fill="#8a7474" d="M 144.5,402.5 C 148.755,404.363 153.088,406.03 157.5,407.5C 160.401,408.536 162.901,410.203 165,412.5C 165.667,417.833 165.667,423.167 165,428.5C 157.253,429.482 149.42,429.815 141.5,429.5C 141.5,432.5 141.5,435.5 141.5,438.5C 142.833,438.5 144.167,438.5 145.5,438.5C 145.421,437.07 145.754,435.736 146.5,434.5C 151.131,433.338 155.798,433.172 160.5,434C 161.139,436.411 161.473,438.911 161.5,441.5C 161.426,444.287 160.76,446.787 159.5,449C 138.492,449.833 117.492,449.666 96.5,448.5C 94.2932,441.881 92.2932,435.214 90.5,428.5C 91.552,428.649 92.552,428.483 93.5,428C 94.9572,425.188 96.9572,423.022 99.5,421.5C 103.5,422.833 107.5,424.167 111.5,425.5C 114.851,423.146 117.518,420.146 119.5,416.5C 122.445,418.556 125.612,420.223 129,421.5C 131.491,418.527 133.491,415.194 135,411.5C 137.586,413.545 140.42,415.211 143.5,416.5C 144.493,411.88 144.827,407.214 144.5,402.5 Z"/></g>
<g><path style="opacity:0.896" fill="#86706e" d="M 353.5,403.5 C 353.334,408.179 353.501,412.845 354,417.5C 357.082,415.375 360.249,413.375 363.5,411.5C 365.096,414.456 366.596,417.456 368,420.5C 368.561,421.022 369.228,421.355 370,421.5C 373.072,419.713 376.239,418.047 379.5,416.5C 381.549,419.968 384.049,422.968 387,425.5C 391.207,423.931 395.373,422.265 399.5,420.5C 401.477,422.979 403.644,425.312 406,427.5C 407.138,427.011 408.305,426.678 409.5,426.5C 407.87,434.222 405.537,441.722 402.5,449C 381.167,449.667 359.833,449.667 338.5,449C 338,448.5 337.5,448 337,447.5C 336.204,443.245 336.371,439.079 337.5,435C 342.047,433.455 346.713,433.121 351.5,434C 351.793,437.094 353.459,438.594 356.5,438.5C 356.5,435.833 356.5,433.167 356.5,430.5C 349.825,430.666 343.158,430.5 336.5,430C 335.333,429.5 334.5,428.667 334,427.5C 333.333,422.5 333.333,417.5 334,412.5C 339.917,408.292 346.417,405.292 353.5,403.5 Z"/></g>
</svg>
