<?xml version="1.0" encoding="UTF-8"?>
<!DOCTYPE svg PUBLIC "-//W3C//DTD SVG 1.1//EN" "http://www.w3.org/Graphics/SVG/1.1/DTD/svg11.dtd">
<svg xmlns="http://www.w3.org/2000/svg" version="1.1" width="500px" height="500px" style="shape-rendering:geometricPrecision; text-rendering:geometricPrecision; image-rendering:optimizeQuality; fill-rule:evenodd; clip-rule:evenodd" xmlns:xlink="http://www.w3.org/1999/xlink">
<g><path style="opacity:0.039" fill="#4e3a27" d="M 441.5,318.5 C 441.167,317.167 440.833,317.167 440.5,318.5C 439.167,318.833 439.167,319.167 440.5,319.5C 440.426,321.411 439.426,322.578 437.5,323C 437.975,326.273 438.309,329.44 438.5,332.5C 438.519,334.06 438.852,335.56 439.5,337C 438.271,343.52 436.938,350.02 435.5,356.5C 435.867,363.774 436.201,370.941 436.5,378C 435.64,380.543 433.974,382.376 431.5,383.5C 431.855,384.522 432.522,385.189 433.5,385.5C 430.303,387.934 427.303,390.601 424.5,393.5C 424.667,404.317 424.334,414.984 423.5,425.5C 422.167,425.833 422.167,426.167 423.5,426.5C 419.848,432.463 416.181,438.463 412.5,444.5C 411.914,444.291 411.414,443.957 411,443.5C 408.328,445.748 406.828,448.248 406.5,451C 405.268,454.798 403.268,458.131 400.5,461C 396.568,462.507 392.568,463.841 388.5,465C 377.998,465.455 367.498,465.955 357,466.5C 351.461,466.419 345.961,465.919 340.5,465C 335.153,462.985 331.986,459.151 331,453.5C 328.422,451.318 326.588,449.151 325.5,447C 323.564,446.187 321.564,445.687 319.5,445.5C 319.5,444.167 319.5,442.833 319.5,441.5C 318.178,441.67 317.011,441.337 316,440.5C 314.313,433.103 311.646,426.103 308,419.5C 307.171,410.424 307.671,401.424 309.5,392.5C 309.485,390.366 308.985,388.366 308,386.5C 306.942,391.564 305.609,396.564 304,401.5C 303.667,408.5 303.333,415.5 303,422.5C 302.64,424.608 301.973,426.608 301,428.5C 298.415,428.963 296.248,430.13 294.5,432C 290.83,432.548 287.163,433.048 283.5,433.5C 283.657,434.873 283.49,436.207 283,437.5C 280.079,442.341 277.412,447.341 275,452.5C 273.989,453.337 272.822,453.67 271.5,453.5C 268.848,456.849 266.514,460.515 264.5,464.5C 263.019,465.48 261.685,466.647 260.5,468C 261.833,468.667 261.833,469.333 260.5,470C 259.451,470.492 258.451,470.326 257.5,469.5C 256.183,471.159 254.517,472.326 252.5,473C 241.567,474.625 230.567,474.458 219.5,472.5C 218.5,471.167 217.5,469.833 216.5,468.5C 215.808,469.025 215.308,469.692 215,470.5C 211.981,467.934 208.481,466.601 204.5,466.5C 199.116,466.643 193.783,467.143 188.5,468C 185.296,471.517 181.296,473.517 176.5,474C 162.553,474.835 149.219,473.002 136.5,468.5C 133.481,465.44 131.814,461.773 131.5,457.5C 124.73,456.951 118.063,455.785 111.5,454C 109.167,452.333 106.833,450.667 104.5,449C 99.9167,448.438 95.5834,447.105 91.5,445C 88.204,440.985 87.204,436.485 88.5,431.5C 87.7082,425.551 87.2082,419.551 87,413.5C 84.9108,412.009 82.9108,410.342 81,408.5C 79.7369,404.256 78.9036,399.922 78.5,395.5C 78.917,386.516 80.5836,377.849 83.5,369.5C 81.0656,364.861 80.0656,359.861 80.5,354.5C 80.5969,347.354 81.5969,340.354 83.5,333.5C 79.3987,333.57 76.8987,331.57 76,327.5C 74.7342,319.211 73.9008,310.878 73.5,302.5C 70.8806,302.232 68.3806,302.565 66,303.5C 62.8998,301.601 59.7331,300.768 56.5,301C 55.1667,300.333 55.1667,299.667 56.5,299C 55.1763,297.128 53.6763,296.295 52,296.5C 51.0943,294.256 50.5943,291.923 50.5,289.5C 51.1515,272.785 54.8182,256.619 61.5,241C 58.2417,238.07 55.7417,234.57 54,230.5C 52.4374,222.661 53.1041,214.994 56,207.5C 61.1904,201.826 65.6904,195.659 69.5,189C 69.2196,187.605 68.5529,186.438 67.5,185.5C 59.9963,179.719 52.1629,174.386 44,169.5C 41.566,166.205 39.8993,162.538 39,158.5C 35.7993,138.281 34.7993,117.948 36,97.5C 36.1486,91.675 37.1486,86.0083 39,80.5C 39.6667,79.1667 40.6667,78.1667 42,77.5C 42.3333,76.1667 42.6667,74.8333 43,73.5C 48.9228,67.2626 54.5895,60.9293 60,54.5C 61.0113,53.6634 62.1779,53.33 63.5,53.5C 72.1153,42.0874 83.1153,33.2541 96.5,27C 99.3106,26.089 102.144,25.2557 105,24.5C 111.51,24.135 118.01,24.635 124.5,26C 127.346,28.8456 130.179,31.679 133,34.5C 149.622,29.2831 166.955,26.2831 185,25.5C 189.596,26.6611 194.096,27.3278 198.5,27.5C 203.165,29.1477 205.665,32.481 206,37.5C 207.067,38.1905 208.234,38.6905 209.5,39C 219.833,39.3333 230.167,39.6667 240.5,40C 250.014,41.3913 259.347,42.3913 268.5,43C 271.698,44.6793 275.032,46.0126 278.5,47C 282.692,50.5868 287.025,53.9202 291.5,57C 295.773,58.0305 300.106,58.6972 304.5,59C 307.082,60.3332 309.749,61.4998 312.5,62.5C 313.806,63.9122 314.64,65.5789 315,67.5C 316.242,75.1961 317.575,82.8628 319,90.5C 323.107,91.607 325.44,94.2737 326,98.5C 328.535,119.568 322.369,137.401 307.5,152C 307.625,153.627 308.125,155.127 309,156.5C 314.013,162.522 318.679,168.856 323,175.5C 323.754,180.017 324.588,184.517 325.5,189C 324.784,194.815 323.45,200.482 321.5,206C 323.798,213.228 326.298,220.395 329,227.5C 330.313,228.573 331.813,229.24 333.5,229.5C 344.746,224.727 356.079,224.393 367.5,228.5C 367.833,228 368.167,227.5 368.5,227C 363.324,216.093 362.491,204.927 366,193.5C 367.319,191.513 369.152,190.346 371.5,190C 381.322,187.784 390.656,189.117 399.5,194C 405.048,198.922 411.048,203.255 417.5,207C 421.686,207.573 425.853,207.406 430,206.5C 434.754,206.914 439.254,208.081 443.5,210C 446.575,214.665 448.408,219.832 449,225.5C 450.472,232.374 450.972,239.207 450.5,246C 451.293,247.085 451.96,248.252 452.5,249.5C 455.742,250.52 458.575,252.187 461,254.5C 461.617,255.449 461.451,256.282 460.5,257C 461.333,257.833 462.167,258.667 463,259.5C 464.032,267.331 463.365,274.998 461,282.5C 454.49,294.962 447.99,306.962 441.5,318.5 Z M 241.5,77.5 C 243.527,77.3379 245.527,77.5045 247.5,78C 248.627,79.7533 249.627,81.5866 250.5,83.5C 250.563,89.6603 250.396,95.9936 250,102.5C 249.692,103.308 249.192,103.975 248.5,104.5C 246.901,101.373 245.734,98.0397 245,94.5C 243.363,92.1898 241.196,90.6898 238.5,90C 225.218,87.5876 212.718,89.7542 201,96.5C 200.833,96.1667 200.667,95.8333 200.5,95.5C 213.301,87.5389 226.968,81.5389 241.5,77.5 Z M 367.5,229.5 C 368.833,229.5 370.167,229.5 371.5,229.5C 373.471,240.669 376.471,251.169 380.5,261C 380.5,262.667 380.5,264.333 380.5,266C 382.155,268.247 382.488,270.58 381.5,273C 375.5,273.667 369.5,273.667 363.5,273C 361.714,272.804 360.381,271.971 359.5,270.5C 363.909,264.349 367.242,257.682 369.5,250.5C 370.498,245.524 370.665,240.524 370,235.5C 368.331,233.831 367.498,231.831 367.5,229.5 Z"/></g>
<g><path style="opacity:0.336" fill="#442e21" d="M 190.5,45.5 C 193.093,47.7225 196.093,49.2225 199.5,50C 204.553,50.2174 209.553,50.7174 214.5,51.5C 215.967,51.277 217.467,50.9437 219,50.5C 224.597,50.8377 230.097,52.0043 235.5,54C 227.989,54.1712 220.655,54.6712 213.5,55.5C 201.751,55.6166 190.084,55.6166 178.5,55.5C 182.202,51.7966 186.202,48.4633 190.5,45.5 Z"/></g>
<g><path style="opacity:0.97" fill="#b9b26e" d="M 191.5,41.5 C 192.376,41.3691 193.043,41.7025 193.5,42.5C 192.23,43.2876 191.23,44.2876 190.5,45.5C 186.202,48.4633 182.202,51.7966 178.5,55.5C 190.084,55.6166 201.751,55.6166 213.5,55.5C 223.539,55.2423 233.539,55.5756 243.5,56.5C 243.5,57.5 243.5,58.5 243.5,59.5C 233.156,62.1765 222.823,65.3431 212.5,69C 198.251,76.1013 183.917,82.9346 169.5,89.5C 168.587,87.9139 168.587,86.4139 169.5,85C 164.676,83.5935 160.676,84.7602 157.5,88.5C 156.5,87.8333 155.5,87.1667 154.5,86.5C 153.948,88.0026 153.948,89.6693 154.5,91.5C 152.61,91.7035 151.11,91.0368 150,89.5C 148.387,90.6223 147.22,90.1223 146.5,88C 151.312,86.4295 155.645,84.0962 159.5,81C 158.874,80.2496 158.374,79.4162 158,78.5C 157.667,78.8333 157.333,79.1667 157,79.5C 156.395,77.5188 155.395,77.1854 154,78.5C 152.667,77.8333 151.333,77.1667 150,76.5C 150,77.8333 150,79.1667 150,80.5C 145.234,79.2135 141.401,77.2135 138.5,74.5C 142.195,73.4948 145.862,73.3281 149.5,74C 147.388,73.0943 146.555,71.5943 147,69.5C 148.789,71.229 150.956,71.8957 153.5,71.5C 153.082,72.2216 152.416,72.7216 151.5,73C 154.634,74.5888 157.634,76.4221 160.5,78.5C 161.532,76.9604 162.865,76.4604 164.5,77C 163.04,77.8113 162.707,78.6446 163.5,79.5C 166.59,77.6415 169.756,77.3081 173,78.5C 173.483,77.552 173.649,76.552 173.5,75.5C 172.167,75.5 170.833,75.5 169.5,75.5C 169.561,72.9505 170.894,71.4505 173.5,71C 172.251,69.1759 171.085,69.3426 170,71.5C 169.005,70.9341 168.172,70.2674 167.5,69.5C 169.256,68.4479 169.923,66.7812 169.5,64.5C 171.861,64.6741 174.194,65.0074 176.5,65.5C 176.628,63.3453 176.128,61.3453 175,59.5C 174.282,60.4506 173.449,60.6172 172.5,60C 172.665,58.8831 172.998,57.7164 173.5,56.5C 171.347,53.7705 169.68,50.7705 168.5,47.5C 168.623,46.0755 168.957,44.7421 169.5,43.5C 176.777,42.3213 184.11,41.6546 191.5,41.5 Z"/></g>
<g><path style="opacity:0.933" fill="#5b4930" d="M 100.5,65.5 C 101.756,65.4614 102.756,65.9614 103.5,67C 98.5099,71.1436 94.5099,75.9769 91.5,81.5C 89.8214,82.9997 88.4881,84.833 87.5,87C 87.1667,87.1667 86.8333,87.3333 86.5,87.5C 83.8334,80.8337 83.8334,74.167 86.5,67.5C 91.0196,65.8864 95.6863,65.2197 100.5,65.5 Z"/></g>
<g><path style="opacity:0.878" fill="#a79e62" d="M 78.5,61.5 C 79.3629,62.9403 79.3629,64.2736 78.5,65.5C 79.1667,66.1667 79.8333,66.8333 80.5,67.5C 77.4356,68.8514 74.4356,70.3514 71.5,72C 73.0846,72.0848 74.4179,72.2514 75.5,72.5C 74.9747,73.1924 74.3081,73.6924 73.5,74C 75.2137,77.4685 74.2137,79.8018 70.5,81C 70.8333,81.3333 71.1667,81.6667 71.5,82C 67.4358,82.4587 66.7691,81.292 69.5,78.5C 69.3333,77.8333 69.1667,77.1667 69,76.5C 67.5557,78.1554 65.7224,78.822 63.5,78.5C 68.1858,72.4855 73.1858,66.8188 78.5,61.5 Z"/></g>
<g><path style="opacity:0.796" fill="#a9a064" d="M 167.5,69.5 C 168.172,70.2674 169.005,70.9341 170,71.5C 171.085,69.3426 172.251,69.1759 173.5,71C 170.894,71.4505 169.561,72.9505 169.5,75.5C 170.833,75.5 172.167,75.5 173.5,75.5C 173.649,76.552 173.483,77.552 173,78.5C 169.756,77.3081 166.59,77.6415 163.5,79.5C 162.707,78.6446 163.04,77.8113 164.5,77C 162.865,76.4604 161.532,76.9604 160.5,78.5C 157.634,76.4221 154.634,74.5888 151.5,73C 152.416,72.7216 153.082,72.2216 153.5,71.5C 153.735,70.9033 154.235,70.5699 155,70.5C 158.262,72.9592 161.429,72.9592 164.5,70.5C 165.086,70.7093 165.586,71.0426 166,71.5C 165.923,70.2624 166.089,69.2624 166.5,68.5C 167.107,68.6236 167.44,68.9569 167.5,69.5 Z"/></g>
<g><path style="opacity:0.97" fill="#402a0f" d="M 179.5,104.5 C 184.87,109.516 190.037,114.849 195,120.5C 205.528,114.112 216.361,108.445 227.5,103.5C 229.167,103.5 230.833,103.5 232.5,103.5C 232.167,105.5 231.833,107.5 231.5,109.5C 229.171,113.155 227.837,117.155 227.5,121.5C 232.179,121.334 236.845,121.501 241.5,122C 246.058,124.389 250.725,126.556 255.5,128.5C 254.68,130.14 253.847,131.807 253,133.5C 250.886,136.07 248.553,138.403 246,140.5C 244.192,143.438 242.692,146.438 241.5,149.5C 247.857,150.459 254.19,150.459 260.5,149.5C 260.5,155.5 260.5,161.5 260.5,167.5C 261.552,167.649 262.552,167.483 263.5,167C 268.706,162.289 274.039,157.789 279.5,153.5C 283.981,155.459 287.815,158.459 291,162.5C 298.239,170.66 304.739,179.326 310.5,188.5C 312.129,190.196 311.796,191.196 309.5,191.5C 303.994,190.378 299.66,192.044 296.5,196.5C 298.333,198.833 300.167,201.167 302,203.5C 307.903,217.43 312.736,231.763 316.5,246.5C 316.182,247.647 315.516,248.481 314.5,249C 311.242,249.212 308.076,249.712 305,250.5C 304.667,259.5 304.333,268.5 304,277.5C 303.964,282.512 302.797,287.179 300.5,291.5C 296.728,287.774 292.728,284.274 288.5,281C 287.365,280.251 286.365,280.417 285.5,281.5C 293.731,299.972 297.064,319.306 295.5,339.5C 295.799,341.604 295.466,343.604 294.5,345.5C 289.71,339.523 283.876,334.856 277,331.5C 279.039,338.94 281.706,346.274 285,353.5C 288.521,366.629 290.521,379.962 291,393.5C 288.261,390.882 285.427,388.382 282.5,386C 281.365,385.251 280.365,385.417 279.5,386.5C 282.621,397.033 285.954,407.367 289.5,417.5C 289.5,418.167 289.167,418.5 288.5,418.5C 283.933,416.805 279.433,414.805 275,412.5C 271.29,420.334 267.457,428.001 263.5,435.5C 263.918,415.759 260.418,396.759 253,378.5C 249.362,384.303 245.529,389.97 241.5,395.5C 240.265,394.66 239.265,393.66 238.5,392.5C 233.84,385.185 229.174,377.852 224.5,370.5C 220.262,375.309 216.262,380.309 212.5,385.5C 210.745,387.988 208.745,390.322 206.5,392.5C 203.476,387.769 200.476,383.102 197.5,378.5C 195.029,372.893 192.029,367.56 188.5,362.5C 183.197,371.239 178.363,380.239 174,389.5C 173.221,390.728 172.221,391.728 171,392.5C 164.889,388.724 159.722,383.89 155.5,378C 154.056,377.219 152.723,377.386 151.5,378.5C 141.621,391.146 136.121,405.479 135,421.5C 134.501,425.152 134.335,428.818 134.5,432.5C 130.475,435.981 126.475,439.648 122.5,443.5C 120.9,436.307 118.734,429.307 116,422.5C 111.575,426.755 107.408,431.089 103.5,435.5C 103.5,435.167 103.5,434.833 103.5,434.5C 102.518,419.231 104.518,404.398 109.5,390C 107.212,389.582 105.212,390.249 103.5,392C 100.629,394.703 97.9619,397.536 95.5,400.5C 94.5206,397.375 94.1872,394.042 94.5,390.5C 98.1552,379.713 102.322,369.046 107,358.5C 108.54,354.581 110.707,351.081 113.5,348C 108.048,348.933 103.382,351.433 99.5,355.5C 97.8546,356.479 96.5213,357.812 95.5,359.5C 95.721,353.443 97.0544,347.443 99.5,341.5C 102.813,330.534 106.98,319.868 112,309.5C 112.673,306.479 113.007,303.479 113,300.5C 107.297,306.035 101.797,311.702 96.5,317.5C 95.2206,319.123 93.8872,320.79 92.5,322.5C 92.1667,322.333 91.8333,322.167 91.5,322C 90.8648,318.397 90.1982,314.897 89.5,311.5C 90.3343,299.501 90.8343,287.501 91,275.5C 84.4933,279.269 77.9933,282.935 71.5,286.5C 69.2433,286.962 67.2433,287.962 65.5,289.5C 65.1667,289.167 64.8333,288.833 64.5,288.5C 66.0553,286.057 66.722,283.39 66.5,280.5C 71.3523,258.8 80.019,238.8 92.5,220.5C 92,220.167 91.5,219.833 91,219.5C 85.7602,220.975 80.5935,222.308 75.5,223.5C 72.4816,223.665 69.4816,223.498 66.5,223C 67.965,221.226 69.2983,219.392 70.5,217.5C 80.2308,205.707 89.2308,193.374 97.5,180.5C 105.284,183.59 113.284,185.923 121.5,187.5C 121.222,179.83 120.889,172.164 120.5,164.5C 130.506,164.666 140.506,164.5 150.5,164C 152.698,162.33 153.032,160.33 151.5,158C 141.993,152.582 133.66,145.749 126.5,137.5C 130.215,133.62 134.381,130.287 139,127.5C 139.192,124.405 138.359,121.571 136.5,119C 136.905,118.055 137.572,117.388 138.5,117C 150.57,116.34 162.237,118.173 173.5,122.5C 174.586,118.088 174.253,113.755 172.5,109.5C 172.5,106.833 172.5,104.167 172.5,101.5C 175.206,101.688 177.539,102.688 179.5,104.5 Z"/></g>
<g><path style="opacity:0.916" fill="#aea566" d="M 266.5,83.5 C 268.424,85.1497 269.424,86.9831 269.5,89C 270.784,89.6838 271.951,89.5171 273,88.5C 273.862,90.087 274.529,91.7536 275,93.5C 278.075,89.9483 281.575,89.6149 285.5,92.5C 284.359,93.4255 284.359,94.2588 285.5,95C 284.584,95.2784 283.918,95.7784 283.5,96.5C 281.801,96.3398 280.134,96.5065 278.5,97C 279.667,97.5 280.5,98.3333 281,99.5C 283.093,104.345 284.593,109.345 285.5,114.5C 282.296,115.96 278.962,116.46 275.5,116C 277.5,115 279.5,114 281.5,113C 280.5,112.5 279.5,112 278.5,111.5C 276.235,112.979 273.901,114.313 271.5,115.5C 270.614,116.325 270.281,117.325 270.5,118.5C 269.5,118.5 268.5,118.5 267.5,118.5C 267.33,119.822 267.663,120.989 268.5,122C 270.519,122.45 272.352,123.283 274,124.5C 275.113,123.289 276.28,123.289 277.5,124.5C 278.192,123.975 278.692,123.308 279,122.5C 280.644,124.064 282.144,125.73 283.5,127.5C 283.253,128.713 282.586,129.38 281.5,129.5C 281.719,128.325 281.386,127.325 280.5,126.5C 276.692,128.998 272.692,130.998 268.5,132.5C 266.535,125.24 265.868,117.573 266.5,109.5C 266.5,100.833 266.5,92.1667 266.5,83.5 Z"/></g>
<g><path style="opacity:0.976" fill="#bcb670" d="M 302.5,101.5 C 302.104,108.456 304.438,109.289 309.5,104C 310.5,103.333 311.5,103.333 312.5,104C 311.225,110.265 309.559,116.432 307.5,122.5C 305.916,125.426 303.916,128.092 301.5,130.5C 293.827,134.088 286.327,138.088 279,142.5C 278.12,137.821 278.953,133.488 281.5,129.5C 282.586,129.38 283.253,128.713 283.5,127.5C 282.144,125.73 280.644,124.064 279,122.5C 278.692,123.308 278.192,123.975 277.5,124.5C 276.28,123.289 275.113,123.289 274,124.5C 272.352,123.283 270.519,122.45 268.5,122C 267.663,120.989 267.33,119.822 267.5,118.5C 268.5,118.5 269.5,118.5 270.5,118.5C 270.281,117.325 270.614,116.325 271.5,115.5C 273.901,114.313 276.235,112.979 278.5,111.5C 279.5,112 280.5,112.5 281.5,113C 279.5,114 277.5,115 275.5,116C 278.962,116.46 282.296,115.96 285.5,114.5C 287.029,118.255 288.696,118.255 290.5,114.5C 291.458,114.047 292.292,113.381 293,112.5C 293.833,115 295,115.167 296.5,113C 296.193,111.318 295.86,109.652 295.5,108C 295.667,107.5 295.833,107 296,106.5C 296.893,107.711 297.726,107.711 298.5,106.5C 297.311,105.571 295.978,105.238 294.5,105.5C 294.5,104.5 294.5,103.5 294.5,102.5C 295.822,102.33 296.989,102.663 298,103.5C 299.192,101.35 300.692,100.683 302.5,101.5 Z"/></g>
<g><path style="opacity:0.202" fill="#483424" d="M 353.5,239.5 C 343.067,244.757 333.9,251.757 326,260.5C 326.042,254.459 325.875,248.459 325.5,242.5C 323.784,243.549 322.451,244.882 321.5,246.5C 320.032,245.221 319.365,243.554 319.5,241.5C 320.552,241.649 321.552,241.483 322.5,241C 315.217,226.985 310.217,212.151 307.5,196.5C 308.174,194.805 308.841,193.138 309.5,191.5C 311.796,191.196 312.129,190.196 310.5,188.5C 311.152,187.551 311.486,186.385 311.5,185C 308.181,176.186 303.015,168.686 296,162.5C 294.85,159.342 293.683,156.175 292.5,153C 292.934,150.366 293.767,147.866 295,145.5C 302.469,138.839 308.302,130.839 312.5,121.5C 314.553,117.175 313.553,115.842 309.5,117.5C 309.88,119.698 309.213,121.365 307.5,122.5C 309.559,116.432 311.225,110.265 312.5,104C 311.5,103.333 310.5,103.333 309.5,104C 304.438,109.289 302.104,108.456 302.5,101.5C 302.101,91.4394 301.101,81.4394 299.5,71.5C 296.125,73.891 292.792,76.2244 289.5,78.5C 288.448,78.6495 287.448,78.4828 286.5,78C 284.63,75.9604 282.63,74.1271 280.5,72.5C 279.306,71.7281 278.306,70.7281 277.5,69.5C 271.931,64.37 265.931,59.7033 259.5,55.5C 258.692,55.8076 258.025,56.3076 257.5,57C 260.07,62.637 262.736,68.137 265.5,73.5C 266.096,75.398 266.096,77.0646 265.5,78.5C 264.313,77.4664 263.48,76.133 263,74.5C 261.18,77.4036 261.346,80.237 263.5,83C 262.07,84.9074 261.404,87.0741 261.5,89.5C 262.613,96.3979 262.613,103.231 261.5,110C 252.459,123.376 243.459,123.543 234.5,110.5C 233.675,109.614 232.675,109.281 231.5,109.5C 231.833,107.5 232.167,105.5 232.5,103.5C 230.833,103.5 229.167,103.5 227.5,103.5C 222.134,103.042 216.967,103.709 212,105.5C 211.517,106.448 211.351,107.448 211.5,108.5C 208.39,106.855 205.724,107.355 203.5,110C 200.833,110.667 198.167,110.667 195.5,110C 191.757,108.449 188.09,106.616 184.5,104.5C 182.872,105.535 181.205,105.535 179.5,104.5C 177.539,102.688 175.206,101.688 172.5,101.5C 172.5,104.167 172.5,106.833 172.5,109.5C 171.751,110.531 171.085,111.698 170.5,113C 166.878,113.902 163.545,115.402 160.5,117.5C 155.195,116.897 149.862,115.564 144.5,113.5C 144.5,112.167 144.5,110.833 144.5,109.5C 141.018,109.828 137.685,109.828 134.5,109.5C 145.643,102.09 157.31,95.4232 169.5,89.5C 183.917,82.9346 198.251,76.1013 212.5,69C 222.823,65.3431 233.156,62.1765 243.5,59.5C 245.179,56.9005 247.013,56.9005 249,59.5C 250.416,58.4267 251.75,58.4267 253,59.5C 255.016,58.0448 255.849,56.0448 255.5,53.5C 259.902,53.7719 264.235,53.4386 268.5,52.5C 269.696,52.8457 269.696,53.3457 268.5,54C 271.363,55.3989 274.363,56.3989 277.5,57C 277.167,57.3333 276.833,57.6667 276.5,58C 284.036,63.3122 292.37,66.9788 301.5,69C 303.455,69.9533 305.122,71.2866 306.5,73C 306.167,73.3333 305.833,73.6667 305.5,74C 307.211,75.4352 308.378,77.2686 309,79.5C 311.898,90.5269 315.398,101.36 319.5,112C 318.279,117.999 316.445,123.832 314,129.5C 310.918,132.659 308.584,136.325 307,140.5C 298.896,144.649 296.563,150.649 300,158.5C 303.887,165.258 308.053,171.925 312.5,178.5C 314.841,184.9 314.341,191.233 311,197.5C 310.333,199.833 310.333,202.167 311,204.5C 314.339,215.509 318.506,226.175 323.5,236.5C 328.058,241.126 333.224,241.793 339,238.5C 339.333,238.833 339.667,239.167 340,239.5C 344.949,236.415 350.116,235.915 355.5,238C 354.584,238.278 353.918,238.778 353.5,239.5 Z M 241.5,77.5 C 226.968,81.5389 213.301,87.5389 200.5,95.5C 200.667,95.8333 200.833,96.1667 201,96.5C 212.718,89.7542 225.218,87.5876 238.5,90C 241.196,90.6898 243.363,92.1898 245,94.5C 245.734,98.0397 246.901,101.373 248.5,104.5C 249.192,103.975 249.692,103.308 250,102.5C 250.396,95.9936 250.563,89.6603 250.5,83.5C 249.627,81.5866 248.627,79.7533 247.5,78C 245.527,77.5045 243.527,77.3379 241.5,77.5 Z"/></g>
<g><path style="opacity:0.935" fill="#5c4b31" d="M 283.5,96.5 C 285.631,97.3138 287.964,97.8138 290.5,98C 292.215,98.7771 293.215,100.11 293.5,102C 292.569,106.221 291.569,110.388 290.5,114.5C 288.696,118.255 287.029,118.255 285.5,114.5C 284.593,109.345 283.093,104.345 281,99.5C 280.5,98.3333 279.667,97.5 278.5,97C 280.134,96.5065 281.801,96.3398 283.5,96.5 Z"/></g>
<g><path style="opacity:0.918" fill="#b6ae6c" d="M 302.5,101.5 C 300.692,100.683 299.192,101.35 298,103.5C 296.989,102.663 295.822,102.33 294.5,102.5C 294.5,103.5 294.5,104.5 294.5,105.5C 295.978,105.238 297.311,105.571 298.5,106.5C 297.726,107.711 296.893,107.711 296,106.5C 295.833,107 295.667,107.5 295.5,108C 295.86,109.652 296.193,111.318 296.5,113C 295,115.167 293.833,115 293,112.5C 292.292,113.381 291.458,114.047 290.5,114.5C 291.569,110.388 292.569,106.221 293.5,102C 293.215,100.11 292.215,98.7771 290.5,98C 287.964,97.8138 285.631,97.3138 283.5,96.5C 283.918,95.7784 284.584,95.2784 285.5,95C 284.359,94.2588 284.359,93.4255 285.5,92.5C 281.575,89.6149 278.075,89.9483 275,93.5C 274.529,91.7536 273.862,90.087 273,88.5C 271.951,89.5171 270.784,89.6838 269.5,89C 269.424,86.9831 268.424,85.1497 266.5,83.5C 266.5,83.1667 266.5,82.8333 266.5,82.5C 271.502,78.744 277.169,77.5773 283.5,79C 284.56,80.298 285.726,81.4647 287,82.5C 289.02,81.9681 289.853,80.6348 289.5,78.5C 292.792,76.2244 296.125,73.891 299.5,71.5C 301.101,81.4394 302.101,91.4394 302.5,101.5 Z"/></g>
<g><path style="opacity:0.788" fill="#a0965d" d="M 280.5,72.5 C 282.63,74.1271 284.63,75.9604 286.5,78C 287.448,78.4828 288.448,78.6495 289.5,78.5C 289.853,80.6348 289.02,81.9681 287,82.5C 285.726,81.4647 284.56,80.298 283.5,79C 277.169,77.5773 271.502,78.744 266.5,82.5C 266.5,81.8333 266.5,81.1667 266.5,80.5C 270.43,76.7447 274.93,75.078 280,75.5C 280.483,74.552 280.649,73.552 280.5,72.5 Z"/></g>
<g><path style="opacity:0.883" fill="#b3ac6a" d="M 277.5,69.5 C 278.306,70.7281 279.306,71.7281 280.5,72.5C 280.649,73.552 280.483,74.552 280,75.5C 274.93,75.078 270.43,76.7447 266.5,80.5C 266.167,79.8333 265.833,79.1667 265.5,78.5C 266.096,77.0646 266.096,75.398 265.5,73.5C 265.926,72.4721 265.926,71.1388 265.5,69.5C 267.827,69.7529 269.827,69.0863 271.5,67.5C 273.179,69.1045 275.179,69.7711 277.5,69.5 Z"/></g>
<g><path style="opacity:0.749" fill="#a2995f" d="M 277.5,69.5 C 275.179,69.7711 273.179,69.1045 271.5,67.5C 269.827,69.0863 267.827,69.7529 265.5,69.5C 265.926,71.1388 265.926,72.4721 265.5,73.5C 262.736,68.137 260.07,62.637 257.5,57C 258.025,56.3076 258.692,55.8076 259.5,55.5C 265.931,59.7033 271.931,64.37 277.5,69.5 Z"/></g>
<g><path style="opacity:0.044" fill="#4f3b27" d="M 247.5,60.5 C 248.222,60.9175 248.722,61.5842 249,62.5C 249.333,62.1667 249.667,61.8333 250,61.5C 251.529,66.0601 253.696,70.2268 256.5,74C 255.601,76.5378 255.934,79.0378 257.5,81.5C 256.905,83.4404 256.572,85.4404 256.5,87.5C 258.438,92.8078 259.105,97.9745 258.5,103C 256.84,107.833 253.84,111.666 249.5,114.5C 244.934,112.891 240.934,110.557 237.5,107.5C 236.926,104.033 235.092,101.366 232,99.5C 231.667,100.167 231.333,100.833 231,101.5C 229.723,99.2689 227.889,97.6022 225.5,96.5C 221.819,97.2696 218.152,98.1029 214.5,99C 209.362,102.155 203.862,104.321 198,105.5C 196.033,105.458 194.199,104.958 192.5,104C 189.355,102.022 186.688,99.5218 184.5,96.5C 185.04,95.2519 185.707,94.0852 186.5,93C 202.147,83.9996 218.48,76.9996 235.5,72C 240.637,69.3631 244.637,65.5297 247.5,60.5 Z M 241.5,77.5 C 226.968,81.5389 213.301,87.5389 200.5,95.5C 200.667,95.8333 200.833,96.1667 201,96.5C 212.718,89.7542 225.218,87.5876 238.5,90C 241.196,90.6898 243.363,92.1898 245,94.5C 245.734,98.0397 246.901,101.373 248.5,104.5C 249.192,103.975 249.692,103.308 250,102.5C 250.396,95.9936 250.563,89.6603 250.5,83.5C 249.627,81.5866 248.627,79.7533 247.5,78C 245.527,77.5045 243.527,77.3379 241.5,77.5 Z"/></g>
<g><path style="opacity:0.931" fill="#5a4930" d="M 60.5,113.5 C 61.7489,111.864 63.4156,110.697 65.5,110C 68.0356,109.814 70.369,109.314 72.5,108.5C 75.897,107.808 79.2303,107.808 82.5,108.5C 75.7865,117.956 70.7865,128.29 67.5,139.5C 65.5152,137.543 64.0152,135.21 63,132.5C 61.2962,126.278 60.4629,119.945 60.5,113.5 Z"/></g>
<g><path style="opacity:0.363" fill="#422d1f" d="M 265.5,78.5 C 265.833,79.1667 266.167,79.8333 266.5,80.5C 266.5,81.1667 266.5,81.8333 266.5,82.5C 266.5,82.8333 266.5,83.1667 266.5,83.5C 266.5,92.1667 266.5,100.833 266.5,109.5C 265.596,110.209 265.263,111.209 265.5,112.5C 262.68,118.137 259.347,123.47 255.5,128.5C 250.725,126.556 246.058,124.389 241.5,122C 236.845,121.501 232.179,121.334 227.5,121.5C 227.837,117.155 229.171,113.155 231.5,109.5C 232.675,109.281 233.675,109.614 234.5,110.5C 243.459,123.543 252.459,123.376 261.5,110C 262.613,103.231 262.613,96.3979 261.5,89.5C 261.404,87.0741 262.07,84.9074 263.5,83C 261.346,80.237 261.18,77.4036 263,74.5C 263.48,76.133 264.313,77.4664 265.5,78.5 Z"/></g>
<g><path style="opacity:0.894" fill="#aba265" d="M 72.5,108.5 C 70.369,109.314 68.0356,109.814 65.5,110C 63.4156,110.697 61.7489,111.864 60.5,113.5C 58.5842,111.884 57.0842,112.218 56,114.5C 54.8173,113.269 53.6507,113.269 52.5,114.5C 54.7476,115.324 54.9142,116.324 53,117.5C 51.9121,120.492 52.5787,121.492 55,120.5C 56.2247,120.862 57.3914,121.362 58.5,122C 55.7951,122.478 53.7951,123.311 52.5,124.5C 52.5,126.833 52.5,129.167 52.5,131.5C 51.5073,123.35 51.1739,115.017 51.5,106.5C 55.1492,104.822 58.4825,105.322 61.5,108C 65.1516,108.499 68.8183,108.665 72.5,108.5 Z"/></g>
<g><path style="opacity:0.968" fill="#bbb570" d="M 114.5,51.5 C 113.2,54.0241 113.2,56.6908 114.5,59.5C 115.107,59.3764 115.44,59.0431 115.5,58.5C 129.032,52.6601 143.032,48.3267 157.5,45.5C 160.428,45.4349 163.095,44.7682 165.5,43.5C 166.833,43.5 168.167,43.5 169.5,43.5C 168.957,44.7421 168.623,46.0755 168.5,47.5C 169.68,50.7705 171.347,53.7705 173.5,56.5C 172.998,57.7164 172.665,58.8831 172.5,60C 173.449,60.6172 174.282,60.4506 175,59.5C 176.128,61.3453 176.628,63.3453 176.5,65.5C 174.194,65.0074 171.861,64.6741 169.5,64.5C 169.923,66.7812 169.256,68.4479 167.5,69.5C 167.44,68.9569 167.107,68.6236 166.5,68.5C 166.089,69.2624 165.923,70.2624 166,71.5C 165.586,71.0426 165.086,70.7093 164.5,70.5C 161.429,72.9592 158.262,72.9592 155,70.5C 154.235,70.5699 153.735,70.9033 153.5,71.5C 150.956,71.8957 148.789,71.229 147,69.5C 146.555,71.5943 147.388,73.0943 149.5,74C 145.862,73.3281 142.195,73.4948 138.5,74.5C 141.401,77.2135 145.234,79.2135 150,80.5C 150,79.1667 150,77.8333 150,76.5C 151.333,77.1667 152.667,77.8333 154,78.5C 155.395,77.1854 156.395,77.5188 157,79.5C 157.333,79.1667 157.667,78.8333 158,78.5C 158.374,79.4162 158.874,80.2496 159.5,81C 155.645,84.0962 151.312,86.4295 146.5,88C 147.22,90.1223 148.387,90.6223 150,89.5C 151.11,91.0368 152.61,91.7035 154.5,91.5C 153.948,89.6693 153.948,88.0026 154.5,86.5C 155.5,87.1667 156.5,87.8333 157.5,88.5C 160.676,84.7602 164.676,83.5935 169.5,85C 168.587,86.4139 168.587,87.9139 169.5,89.5C 157.31,95.4232 145.643,102.09 134.5,109.5C 128.299,112.765 122.632,116.765 117.5,121.5C 115.286,123.576 113.786,126.242 113,129.5C 112.501,134.823 112.334,140.156 112.5,145.5C 103.157,143.387 94.4904,139.72 86.5,134.5C 86.5858,133.504 86.2524,132.671 85.5,132C 86.1667,131.667 86.8333,131.333 87.5,131C 85.1029,129.282 82.4362,128.115 79.5,127.5C 81.0064,126.253 82.5064,126.253 84,127.5C 84.5,127 85,126.5 85.5,126C 83.5,125.667 81.5,125.333 79.5,125C 80.5,124.167 81.5,123.333 82.5,122.5C 80.3689,122.662 79.3689,121.329 79.5,118.5C 80.5,118.5 81.5,118.5 82.5,118.5C 82.3642,115.476 83.6975,113.976 86.5,114C 83.5315,116.178 83.8649,117.344 87.5,117.5C 87.1723,112.599 88.5056,111.765 91.5,115C 90.8333,115.667 90.1667,116.333 89.5,117C 91.4475,116.265 93.2808,115.765 95,115.5C 96.3139,116.313 97.4805,117.313 98.5,118.5C 99.3081,118.192 99.9747,117.692 100.5,117C 98.7123,114.094 96.379,111.928 93.5,110.5C 95.0745,109.369 96.7412,109.202 98.5,110C 98.1667,110.333 97.8333,110.667 97.5,111C 99.676,111.163 101.509,111.996 103,113.5C 103.492,112.451 103.326,111.451 102.5,110.5C 103.376,109.749 104.376,109.249 105.5,109C 103.598,107.349 101.598,107.016 99.5,108C 101.884,106.59 103.55,104.59 104.5,102C 101.978,98.8409 99.3109,98.8409 96.5,102C 99.1468,102.315 99.8135,103.482 98.5,105.5C 96.314,106.221 94.1474,106.887 92,107.5C 92.3063,104.337 91.8063,101.17 90.5,98C 91.1905,96.9326 91.6905,95.7659 92,94.5C 92.5831,96.0016 93.4164,97.3349 94.5,98.5C 95.7202,97.2889 96.8869,97.2889 98,98.5C 98.6924,97.9747 99.1924,97.3081 99.5,96.5C 97.7045,95.8586 96.2045,94.8586 95,93.5C 94.6667,93.8333 94.3333,94.1667 94,94.5C 92.9326,93.8095 91.7659,93.3095 90.5,93C 93.4262,90.0146 96.7596,89.348 100.5,91C 99.3044,91.6543 99.3044,92.1543 100.5,92.5C 101.646,91.8551 102.646,91.0217 103.5,90C 100.568,89.0467 97.5682,88.5467 94.5,88.5C 94.719,87.325 94.3857,86.325 93.5,85.5C 92.2322,86.4279 90.8989,86.5946 89.5,86C 91.1066,84.951 91.7733,83.451 91.5,81.5C 94.5099,75.9769 98.5099,71.1436 103.5,67C 102.756,65.9614 101.756,65.4614 100.5,65.5C 99.0813,64.5489 97.4147,64.2155 95.5,64.5C 95.1667,62.5 94.8333,60.5 94.5,58.5C 88.2677,58.9727 87.6011,58.1393 92.5,56C 90.9632,54.8904 90.2965,53.3904 90.5,51.5C 98.0809,45.0429 106.748,40.7095 116.5,38.5C 115.575,42.7902 114.909,47.1235 114.5,51.5 Z"/></g>
<g><path style="opacity:0.957" fill="#5b4a30" d="M 122.5,77.5 C 129.792,79.8335 135.792,84.1669 140.5,90.5C 129.888,91.9866 119.888,95.3199 110.5,100.5C 109.386,99.277 109.219,97.9437 110,96.5C 113.69,89.7671 117.857,83.4338 122.5,77.5 Z"/></g>
<g><path style="opacity:0.647" fill="#726340" d="M 114.5,51.5 C 114.198,54.0593 114.532,56.3926 115.5,58.5C 115.44,59.0431 115.107,59.3764 114.5,59.5C 113.2,56.6908 113.2,54.0241 114.5,51.5 Z"/></g>
<g><path style="opacity:0.871" fill="#8e8251" d="M 165.5,43.5 C 163.095,44.7682 160.428,45.4349 157.5,45.5C 159.838,43.9605 162.505,43.2938 165.5,43.5 Z"/></g>
<g><path style="opacity:0.438" fill="#412b1e" d="M 227.5,103.5 C 216.361,108.445 205.528,114.112 195,120.5C 190.037,114.849 184.87,109.516 179.5,104.5C 181.205,105.535 182.872,105.535 184.5,104.5C 188.09,106.616 191.757,108.449 195.5,110C 198.167,110.667 200.833,110.667 203.5,110C 205.724,107.355 208.39,106.855 211.5,108.5C 211.351,107.448 211.517,106.448 212,105.5C 216.967,103.709 222.134,103.042 227.5,103.5 Z"/></g>
<g><path style="opacity:0.479" fill="#3f2a1d" d="M 134.5,109.5 C 137.685,109.828 141.018,109.828 144.5,109.5C 144.5,110.833 144.5,112.167 144.5,113.5C 149.862,115.564 155.195,116.897 160.5,117.5C 163.545,115.402 166.878,113.902 170.5,113C 171.085,111.698 171.751,110.531 172.5,109.5C 174.253,113.755 174.586,118.088 173.5,122.5C 162.237,118.173 150.57,116.34 138.5,117C 137.572,117.388 136.905,118.055 136.5,119C 138.359,121.571 139.192,124.405 139,127.5C 134.381,130.287 130.215,133.62 126.5,137.5C 120.802,133.416 117.802,128.082 117.5,121.5C 122.632,116.765 128.299,112.765 134.5,109.5 Z"/></g>
<g><path style="opacity:0.892" fill="#58462e" d="M 265.5,112.5 C 265.5,119.5 265.5,126.5 265.5,133.5C 266.791,133.737 267.791,133.404 268.5,132.5C 272.692,130.998 276.692,128.998 280.5,126.5C 281.386,127.325 281.719,128.325 281.5,129.5C 278.953,133.488 278.12,137.821 279,142.5C 286.327,138.088 293.827,134.088 301.5,130.5C 294.832,138.868 287.498,146.535 279.5,153.5C 274.039,157.789 268.706,162.289 263.5,167C 262.552,167.483 261.552,167.649 260.5,167.5C 260.5,161.5 260.5,155.5 260.5,149.5C 254.19,150.459 247.857,150.459 241.5,149.5C 242.692,146.438 244.192,143.438 246,140.5C 248.553,138.403 250.886,136.07 253,133.5C 253.847,131.807 254.68,130.14 255.5,128.5C 259.347,123.47 262.68,118.137 265.5,112.5 Z"/></g>
<g><path style="opacity:0.964" fill="#b8b16d" d="M 90.5,51.5 C 90.2965,53.3904 90.9632,54.8904 92.5,56C 87.6011,58.1393 88.2677,58.9727 94.5,58.5C 94.8333,60.5 95.1667,62.5 95.5,64.5C 97.4147,64.2155 99.0813,64.5489 100.5,65.5C 95.6863,65.2197 91.0196,65.8864 86.5,67.5C 83.8334,74.167 83.8334,80.8337 86.5,87.5C 86.8333,87.3333 87.1667,87.1667 87.5,87C 88.4881,84.833 89.8214,82.9997 91.5,81.5C 91.7733,83.451 91.1066,84.951 89.5,86C 90.8989,86.5946 92.2322,86.4279 93.5,85.5C 94.3857,86.325 94.719,87.325 94.5,88.5C 97.5682,88.5467 100.568,89.0467 103.5,90C 102.646,91.0217 101.646,91.8551 100.5,92.5C 99.3044,92.1543 99.3044,91.6543 100.5,91C 96.7596,89.348 93.4262,90.0146 90.5,93C 91.7659,93.3095 92.9326,93.8095 94,94.5C 94.3333,94.1667 94.6667,93.8333 95,93.5C 96.2045,94.8586 97.7045,95.8586 99.5,96.5C 99.1924,97.3081 98.6924,97.9747 98,98.5C 96.8869,97.2889 95.7202,97.2889 94.5,98.5C 93.4164,97.3349 92.5831,96.0016 92,94.5C 91.6905,95.7659 91.1905,96.9326 90.5,98C 91.8063,101.17 92.3063,104.337 92,107.5C 94.1474,106.887 96.314,106.221 98.5,105.5C 99.8135,103.482 99.1468,102.315 96.5,102C 99.3109,98.8409 101.978,98.8409 104.5,102C 103.55,104.59 101.884,106.59 99.5,108C 101.598,107.016 103.598,107.349 105.5,109C 104.376,109.249 103.376,109.749 102.5,110.5C 103.326,111.451 103.492,112.451 103,113.5C 101.509,111.996 99.676,111.163 97.5,111C 97.8333,110.667 98.1667,110.333 98.5,110C 96.7412,109.202 95.0745,109.369 93.5,110.5C 96.379,111.928 98.7123,114.094 100.5,117C 99.9747,117.692 99.3081,118.192 98.5,118.5C 97.4805,117.313 96.3139,116.313 95,115.5C 93.2808,115.765 91.4475,116.265 89.5,117C 90.1667,116.333 90.8333,115.667 91.5,115C 88.5056,111.765 87.1723,112.599 87.5,117.5C 83.8649,117.344 83.5315,116.178 86.5,114C 83.6975,113.976 82.3642,115.476 82.5,118.5C 81.5,118.5 80.5,118.5 79.5,118.5C 79.3689,121.329 80.3689,122.662 82.5,122.5C 81.5,123.333 80.5,124.167 79.5,125C 81.5,125.333 83.5,125.667 85.5,126C 85,126.5 84.5,127 84,127.5C 82.5064,126.253 81.0064,126.253 79.5,127.5C 82.4362,128.115 85.1029,129.282 87.5,131C 86.8333,131.333 86.1667,131.667 85.5,132C 86.2524,132.671 86.5858,133.504 86.5,134.5C 85.5416,134.047 84.7083,133.381 84,132.5C 83.3333,134.833 83.3333,137.167 84,139.5C 85.7844,146.445 88.2844,153.112 91.5,159.5C 90.6667,159.833 89.8333,160.167 89,160.5C 77.5112,157.969 66.0112,155.636 54.5,153.5C 53.8505,151.565 53.5172,149.565 53.5,147.5C 53.0199,142.178 52.6865,136.845 52.5,131.5C 52.5,129.167 52.5,126.833 52.5,124.5C 53.7951,123.311 55.7951,122.478 58.5,122C 57.3914,121.362 56.2247,120.862 55,120.5C 52.5787,121.492 51.9121,120.492 53,117.5C 54.9142,116.324 54.7476,115.324 52.5,114.5C 53.6507,113.269 54.8173,113.269 56,114.5C 57.0842,112.218 58.5842,111.884 60.5,113.5C 60.4629,119.945 61.2962,126.278 63,132.5C 64.0152,135.21 65.5152,137.543 67.5,139.5C 70.7865,128.29 75.7865,117.956 82.5,108.5C 79.2303,107.808 75.897,107.808 72.5,108.5C 68.8183,108.665 65.1516,108.499 61.5,108C 58.4825,105.322 55.1492,104.822 51.5,106.5C 51.471,100.79 51.971,95.1231 53,89.5C 56.5159,85.7588 60.0159,82.0921 63.5,78.5C 65.7224,78.822 67.5557,78.1554 69,76.5C 69.1667,77.1667 69.3333,77.8333 69.5,78.5C 66.7691,81.292 67.4358,82.4587 71.5,82C 71.1667,81.6667 70.8333,81.3333 70.5,81C 74.2137,79.8018 75.2137,77.4685 73.5,74C 74.3081,73.6924 74.9747,73.1924 75.5,72.5C 74.4179,72.2514 73.0846,72.0848 71.5,72C 74.4356,70.3514 77.4356,68.8514 80.5,67.5C 79.8333,66.8333 79.1667,66.1667 78.5,65.5C 79.3629,64.2736 79.3629,62.9403 78.5,61.5C 82.2079,57.7899 86.2079,54.4566 90.5,51.5 Z"/></g>
<g><path style="opacity:0.958" fill="#59472e" d="M 117.5,121.5 C 117.802,128.082 120.802,133.416 126.5,137.5C 133.66,145.749 141.993,152.582 151.5,158C 153.032,160.33 152.698,162.33 150.5,164C 140.506,164.5 130.506,164.666 120.5,164.5C 120.889,172.164 121.222,179.83 121.5,187.5C 113.284,185.923 105.284,183.59 97.5,180.5C 94.5214,179.683 91.5214,178.849 88.5,178C 78.3273,171.081 67.9939,164.414 57.5,158C 55.8588,156.871 54.8588,155.371 54.5,153.5C 66.0112,155.636 77.5112,157.969 89,160.5C 89.8333,160.167 90.6667,159.833 91.5,159.5C 88.2844,153.112 85.7844,146.445 84,139.5C 83.3333,137.167 83.3333,134.833 84,132.5C 84.7083,133.381 85.5416,134.047 86.5,134.5C 94.4904,139.72 103.157,143.387 112.5,145.5C 112.334,140.156 112.501,134.823 113,129.5C 113.786,126.242 115.286,123.576 117.5,121.5 Z"/></g>
<g><path style="opacity:0.859" fill="#82764a" d="M 266.5,109.5 C 265.868,117.573 266.535,125.24 268.5,132.5C 267.791,133.404 266.791,133.737 265.5,133.5C 265.5,126.5 265.5,119.5 265.5,112.5C 265.263,111.209 265.596,110.209 266.5,109.5 Z"/></g>
<g><path style="opacity:0.307" fill="#422d20" d="M 310.5,188.5 C 304.739,179.326 298.239,170.66 291,162.5C 287.815,158.459 283.981,155.459 279.5,153.5C 287.498,146.535 294.832,138.868 301.5,130.5C 303.916,128.092 305.916,125.426 307.5,122.5C 309.213,121.365 309.88,119.698 309.5,117.5C 313.553,115.842 314.553,117.175 312.5,121.5C 308.302,130.839 302.469,138.839 295,145.5C 293.767,147.866 292.934,150.366 292.5,153C 293.683,156.175 294.85,159.342 296,162.5C 303.015,168.686 308.181,176.186 311.5,185C 311.486,186.385 311.152,187.551 310.5,188.5 Z"/></g>
<g><path style="opacity:0.337" fill="#422c1f" d="M 53.5,147.5 C 53.5172,149.565 53.8505,151.565 54.5,153.5C 54.8588,155.371 55.8588,156.871 57.5,158C 67.9939,164.414 78.3273,171.081 88.5,178C 91.5214,178.849 94.5214,179.683 97.5,180.5C 89.2308,193.374 80.2308,205.707 70.5,217.5C 68.6558,216.796 68.1558,215.463 69,213.5C 73.0762,207.788 77.2428,202.122 81.5,196.5C 83.5775,193.133 84.9108,189.466 85.5,185.5C 81.4069,178.815 76.5736,174.482 71,172.5C 65.0191,168.706 59.8524,164.706 55.5,160.5C 54.3598,157.077 53.0265,153.744 51.5,150.5C 51.6399,148.97 52.3065,147.97 53.5,147.5 Z"/></g>
<g><path style="opacity:0.983" fill="#281908" d="M 212.5,203.5 C 215.073,203.148 217.406,203.648 219.5,205C 213.088,211.648 208.588,219.482 206,228.5C 205.311,229.357 204.478,230.023 203.5,230.5C 199.085,225.585 195.252,220.252 192,214.5C 190.293,212.091 189.46,209.425 189.5,206.5C 194.179,206.666 198.845,206.499 203.5,206C 206.797,205.796 209.797,204.963 212.5,203.5 Z"/></g>
<g><path style="opacity:0.981" fill="#bdb771" d="M 159.5,204.5 C 164.119,209.785 169.119,214.785 174.5,219.5C 175.664,225.807 175.831,232.141 175,238.5C 171.736,241.484 168.57,244.651 165.5,248C 162.131,250.684 158.464,252.851 154.5,254.5C 149.008,251.921 143.675,249.088 138.5,246C 135.312,243.646 132.645,240.812 130.5,237.5C 133.126,228.451 136.626,219.784 141,211.5C 147.143,208.845 153.31,206.512 159.5,204.5 Z"/></g>
<g><path style="opacity:0.977" fill="#281a08" d="M 276.5,206.5 C 280.167,206.5 283.833,206.5 287.5,206.5C 285.327,216.843 281.494,226.51 276,235.5C 270.77,226.614 265.27,217.947 259.5,209.5C 260.025,208.808 260.692,208.308 261.5,208C 266.684,207.826 271.684,207.326 276.5,206.5 Z"/></g>
<g><path style="opacity:0.444" fill="#412b1e" d="M 309.5,191.5 C 308.841,193.138 308.174,194.805 307.5,196.5C 310.217,212.151 315.217,226.985 322.5,241C 321.552,241.483 320.552,241.649 319.5,241.5C 319.365,243.554 320.032,245.221 321.5,246.5C 316.751,253.998 313.085,261.998 310.5,270.5C 308.048,275.249 307.048,280.416 307.5,286C 307.054,291.502 308.054,296.669 310.5,301.5C 310.5,302.833 310.5,304.167 310.5,305.5C 307.561,305.082 305.228,303.582 303.5,301C 302.5,300.333 301.5,300.333 300.5,301C 301.458,302.147 301.125,303.147 299.5,304C 300.833,305.333 300.833,306.667 299.5,308C 301.548,317.834 301.548,327.668 299.5,337.5C 297.801,337.527 296.467,338.194 295.5,339.5C 297.064,319.306 293.731,299.972 285.5,281.5C 286.365,280.417 287.365,280.251 288.5,281C 292.728,284.274 296.728,287.774 300.5,291.5C 302.797,287.179 303.964,282.512 304,277.5C 304.333,268.5 304.667,259.5 305,250.5C 308.076,249.712 311.242,249.212 314.5,249C 315.516,248.481 316.182,247.647 316.5,246.5C 312.736,231.763 307.903,217.43 302,203.5C 300.167,201.167 298.333,198.833 296.5,196.5C 299.66,192.044 303.994,190.378 309.5,191.5 Z"/></g>
<g><path style="opacity:0.116" fill="#493424" d="M 446.5,264.5 C 443.026,265.525 439.36,266.192 435.5,266.5C 435.5,264.5 435.5,262.5 435.5,260.5C 435.5,256.167 435.5,251.833 435.5,247.5C 435.784,245.585 435.451,243.919 434.5,242.5C 433.971,237.178 433.471,231.844 433,226.5C 432.751,223.823 431.751,221.49 430,219.5C 427.342,226.316 423.842,232.649 419.5,238.5C 418.057,235.923 416.39,233.59 414.5,231.5C 411.414,226.908 407.747,222.742 403.5,219C 396.148,212.812 388.148,207.646 379.5,203.5C 378.833,203.833 378.167,204.167 377.5,204.5C 383.941,215.825 388.608,227.825 391.5,240.5C 392.627,244.139 393.627,247.806 394.5,251.5C 396.136,259.384 398.136,267.051 400.5,274.5C 401.91,278.704 402.577,283.037 402.5,287.5C 402.665,290.518 402.498,293.518 402,296.5C 401.623,297.942 400.79,298.942 399.5,299.5C 397.962,296.563 395.628,295.563 392.5,296.5C 389.49,295.731 386.49,294.897 383.5,294C 385.156,292.171 387.156,290.837 389.5,290C 382.436,288.255 376.269,289.755 371,294.5C 366.335,290.874 361.168,288.207 355.5,286.5C 353.708,285.691 351.708,285.191 349.5,285C 348.299,284.097 347.465,282.931 347,281.5C 346.744,278.443 346.244,275.443 345.5,272.5C 347.28,268.639 348.113,264.639 348,260.5C 346.989,261.337 345.822,261.67 344.5,261.5C 347.751,254.657 351.751,248.324 356.5,242.5C 357.708,241.766 359.041,241.433 360.5,241.5C 360.665,245.182 360.499,248.848 360,252.5C 356.681,258.97 353.515,265.47 350.5,272C 350.801,275.272 352.135,277.939 354.5,280C 365.384,280.912 376.384,281.246 387.5,281C 389.152,279.53 390.152,277.697 390.5,275.5C 389.797,271.008 389.13,266.508 388.5,262C 382.386,244.985 377.052,227.652 372.5,210C 373.133,203.432 376.633,199.265 383,197.5C 386.842,198.77 390.675,200.103 394.5,201.5C 402.275,207.432 409.608,212.932 416.5,218C 421.843,218.146 427.176,218.146 432.5,218C 434.754,219.377 436.92,220.877 439,222.5C 440.834,228.196 442.667,233.863 444.5,239.5C 443.03,243.507 443.363,247.34 445.5,251C 444.707,252.085 444.04,253.252 443.5,254.5C 446.876,257.221 447.876,260.555 446.5,264.5 Z"/></g>
<g><path style="opacity:0.921" fill="#b8b26d" d="M 414.5,231.5 C 413.307,233.754 411.64,234.42 409.5,233.5C 406.574,235.785 403.407,236.451 400,235.5C 398.005,237.495 396.005,239.495 394,241.5C 393.098,241.257 392.265,240.923 391.5,240.5C 388.608,227.825 383.941,215.825 377.5,204.5C 378.167,204.167 378.833,203.833 379.5,203.5C 388.148,207.646 396.148,212.812 403.5,219C 407.747,222.742 411.414,226.908 414.5,231.5 Z"/></g>
<g><path style="opacity:0.981" fill="#bcb56f" d="M 235.5,230.5 C 240.633,230.489 245.133,232.155 249,235.5C 252.254,240.858 253.754,246.525 253.5,252.5C 247.992,255.755 242.325,258.755 236.5,261.5C 230.473,257.473 225.473,252.473 221.5,246.5C 221.719,245.062 222.219,243.729 223,242.5C 227.062,238.269 231.229,234.269 235.5,230.5 Z"/></g>
<g><path style="opacity:0.886" fill="#b0a868" d="M 434.5,242.5 C 434.585,243.995 433.919,244.995 432.5,245.5C 431.177,243.318 429.51,242.651 427.5,243.5C 425.172,241.2 423.005,241.2 421,243.5C 420.667,242.833 420.333,242.167 420,241.5C 418.667,242.833 417.333,244.167 416,245.5C 412.779,242.272 411.279,242.938 411.5,247.5C 410.167,247.5 408.833,247.5 407.5,247.5C 407.5,248.5 407.5,249.5 407.5,250.5C 409.109,250.094 410.443,250.094 411.5,250.5C 410.73,252.272 409.397,253.272 407.5,253.5C 405.833,252.5 404.167,251.5 402.5,250.5C 401.719,251.737 400.719,252.737 399.5,253.5C 398.158,251.995 396.492,251.328 394.5,251.5C 393.627,247.806 392.627,244.139 391.5,240.5C 392.265,240.923 393.098,241.257 394,241.5C 396.005,239.495 398.005,237.495 400,235.5C 403.407,236.451 406.574,235.785 409.5,233.5C 411.64,234.42 413.307,233.754 414.5,231.5C 416.39,233.59 418.057,235.923 419.5,238.5C 423.842,232.649 427.342,226.316 430,219.5C 431.751,221.49 432.751,223.823 433,226.5C 433.471,231.844 433.971,237.178 434.5,242.5 Z"/></g>
<g><path style="opacity:0.882" fill="#aca365" d="M 435.5,247.5 C 435.5,251.833 435.5,256.167 435.5,260.5C 432.167,260.163 431.167,258.496 432.5,255.5C 430.133,254.382 427.966,253.716 426,253.5C 425.689,252.258 426.189,251.258 427.5,250.5C 426.754,249.264 426.421,247.93 426.5,246.5C 429.044,246.104 431.211,246.771 433,248.5C 433.671,247.748 434.504,247.414 435.5,247.5 Z"/></g>
<g><path style="opacity:0.922" fill="#b6ae6c" d="M 353.5,239.5 C 355.5,239.5 356.5,240.5 356.5,242.5C 351.751,248.324 347.751,254.657 344.5,261.5C 341.975,265.542 340.309,269.875 339.5,274.5C 339.5,272.5 339.5,270.5 339.5,268.5C 336.458,269.541 333.458,269.541 330.5,268.5C 330.649,269.552 330.483,270.552 330,271.5C 328.013,272.218 326.179,273.218 324.5,274.5C 322.077,273.288 321.077,271.288 321.5,268.5C 318.762,269.237 316.095,269.237 313.5,268.5C 312.524,269.195 311.524,269.862 310.5,270.5C 313.085,261.998 316.751,253.998 321.5,246.5C 322.451,244.882 323.784,243.549 325.5,242.5C 325.875,248.459 326.042,254.459 326,260.5C 333.9,251.757 343.067,244.757 353.5,239.5 Z"/></g>
<g><path style="opacity:0.939" fill="#2a1c0a" d="M 121.5,254.5 C 123.5,254.5 125.5,254.5 127.5,254.5C 127.165,259.177 126.665,263.844 126,268.5C 123.441,274.583 121.941,280.916 121.5,287.5C 116.578,287.101 112.745,284.767 110,280.5C 106.295,275.358 102.961,270.025 100,264.5C 99.5045,262.527 99.3379,260.527 99.5,258.5C 107.043,257.618 114.377,256.284 121.5,254.5 Z"/></g>
<g><path style="opacity:0.326" fill="#422c1f" d="M 66.5,280.5 C 65.4675,279.088 64.8008,277.422 64.5,275.5C 65.5522,273.777 65.5522,272.11 64.5,270.5C 66.1812,268.008 66.8479,265.508 66.5,263C 67.5505,261.615 68.8839,260.615 70.5,260C 69.8333,259 69.1667,258 68.5,257C 70.5244,252.597 72.3577,248.097 74,243.5C 75.4095,242.213 76.9095,241.046 78.5,240C 77.1337,237.618 77.467,235.452 79.5,233.5C 77.0087,232.459 77.0087,231.626 79.5,231C 77.311,230.323 76.9776,229.156 78.5,227.5C 76.7118,226.717 75.7118,225.384 75.5,223.5C 80.5935,222.308 85.7602,220.975 91,219.5C 91.5,219.833 92,220.167 92.5,220.5C 80.019,238.8 71.3523,258.8 66.5,280.5 Z"/></g>
<g><path style="opacity:0.116" fill="#493424" d="M 191.5,41.5 C 184.11,41.6546 176.777,42.3213 169.5,43.5C 168.167,43.5 166.833,43.5 165.5,43.5C 162.505,43.2938 159.838,43.9605 157.5,45.5C 143.032,48.3267 129.032,52.6601 115.5,58.5C 114.532,56.3926 114.198,54.0593 114.5,51.5C 114.909,47.1235 115.575,42.7902 116.5,38.5C 106.748,40.7095 98.0809,45.0429 90.5,51.5C 86.2079,54.4566 82.2079,57.7899 78.5,61.5C 73.1858,66.8188 68.1858,72.4855 63.5,78.5C 60.0159,82.0921 56.5159,85.7588 53,89.5C 51.971,95.1231 51.471,100.79 51.5,106.5C 51.1739,115.017 51.5073,123.35 52.5,131.5C 52.6865,136.845 53.0199,142.178 53.5,147.5C 52.3065,147.97 51.6399,148.97 51.5,150.5C 53.0265,153.744 54.3598,157.077 55.5,160.5C 59.8524,164.706 65.0191,168.706 71,172.5C 76.5736,174.482 81.4069,178.815 85.5,185.5C 84.9108,189.466 83.5775,193.133 81.5,196.5C 77.2428,202.122 73.0762,207.788 69,213.5C 68.1558,215.463 68.6558,216.796 70.5,217.5C 69.2983,219.392 67.965,221.226 66.5,223C 69.4816,223.498 72.4816,223.665 75.5,223.5C 75.7118,225.384 76.7118,226.717 78.5,227.5C 76.9776,229.156 77.311,230.323 79.5,231C 77.0087,231.626 77.0087,232.459 79.5,233.5C 77.467,235.452 77.1337,237.618 78.5,240C 76.9095,241.046 75.4095,242.213 74,243.5C 72.3577,248.097 70.5244,252.597 68.5,257C 69.1667,258 69.8333,259 70.5,260C 68.8839,260.615 67.5505,261.615 66.5,263C 66.8479,265.508 66.1812,268.008 64.5,270.5C 65.5522,272.11 65.5522,273.777 64.5,275.5C 64.8008,277.422 65.4675,279.088 66.5,280.5C 66.722,283.39 66.0553,286.057 64.5,288.5C 64.8333,288.833 65.1667,289.167 65.5,289.5C 67.2433,287.962 69.2433,286.962 71.5,286.5C 75.325,287.137 79.1583,288.137 83,289.5C 83.4186,290.672 84.0853,291.672 85,292.5C 85.6293,298.331 85.9627,303.998 86,309.5C 86.3095,310.766 86.8095,311.933 87.5,313C 88.816,313.528 89.4827,313.028 89.5,311.5C 90.1982,314.897 90.8648,318.397 91.5,322C 91.8333,322.167 92.1667,322.333 92.5,322.5C 93.8872,320.79 95.2206,319.123 96.5,317.5C 97.5,317.5 98.5,317.5 99.5,317.5C 100.306,320.285 100.972,323.119 101.5,326C 99.9852,330.044 98.9852,334.211 98.5,338.5C 98.5195,339.726 98.8529,340.726 99.5,341.5C 97.0544,347.443 95.721,353.443 95.5,359.5C 96.5213,357.812 97.8546,356.479 99.5,355.5C 98.0273,364.111 96.3607,372.778 94.5,381.5C 95.0893,384.359 95.0893,387.359 94.5,390.5C 94.1872,394.042 94.5206,397.375 95.5,400.5C 97.3092,401.481 98.6426,402.981 99.5,405C 98.42,411.773 98.42,418.607 99.5,425.5C 100.5,425.5 101.5,425.5 102.5,425.5C 102.19,428.713 102.523,431.713 103.5,434.5C 103.5,434.833 103.5,435.167 103.5,435.5C 103.5,435.833 103.5,436.167 103.5,436.5C 102.206,435.71 101.039,434.71 100,433.5C 99.6667,434.167 99.3333,434.833 99,435.5C 95.6771,432.018 93.8437,427.851 93.5,423C 94.162,418.727 94.3286,414.227 94,409.5C 91.6202,403.247 89.1202,397.08 86.5,391C 87.2308,382.151 89.5642,373.817 93.5,366C 91.2721,360.532 89.6054,354.865 88.5,349C 89.8658,342.188 90.6992,335.354 91,328.5C 87.9813,324.497 84.9813,320.497 82,316.5C 80.8987,309.53 79.8987,302.53 79,295.5C 78.5,295 78,294.5 77.5,294C 69.1638,295.553 62.9971,292.719 59,285.5C 58.3372,279.452 58.6705,273.452 60,267.5C 63.8797,257.356 68.0464,247.356 72.5,237.5C 70.7188,234.726 69.3855,231.726 68.5,228.5C 62.9881,225.139 61.6548,220.639 64.5,215C 64.3552,214.228 64.0219,213.561 63.5,213C 69.6246,205.896 74.7913,198.062 79,189.5C 79.782,186.743 79.282,184.243 77.5,182C 66.614,176.25 56.9474,169.083 48.5,160.5C 44.4139,149.919 42.0806,138.919 41.5,127.5C 42.1332,119.6 42.1332,111.934 41.5,104.5C 43.6832,96.434 46.1832,88.434 49,80.5C 57.265,70.3698 66.4317,60.3698 76.5,50.5C 79.5797,47.3914 83.2464,45.7247 87.5,45.5C 87.2865,43.8561 87.6198,42.3561 88.5,41C 93.0393,38.2308 97.7059,35.7308 102.5,33.5C 106.123,35.0313 109.789,35.3647 113.5,34.5C 119.257,36.345 124.591,39.0117 129.5,42.5C 140.608,39.2649 151.774,36.2649 163,33.5C 163.414,33.9574 163.914,34.2907 164.5,34.5C 173.426,31.433 182.092,31.933 190.5,36C 191.406,37.6995 191.739,39.5328 191.5,41.5 Z"/></g>
<g><path style="opacity:0.977" fill="#181617" d="M 242.5,305.5 C 241.981,310.722 240.648,315.722 238.5,320.5C 237.481,322.507 235.815,323.84 233.5,324.5C 229.167,321.167 224.833,317.833 220.5,314.5C 214.867,318.963 209.367,323.63 204,328.5C 197.667,324.5 191.333,320.5 185,316.5C 180.946,320.715 177.113,325.049 173.5,329.5C 164.474,321.641 156.307,312.974 149,303.5C 149.274,299.932 150.44,296.599 152.5,293.5C 160.27,297.488 168.437,299.154 177,298.5C 177.667,297.833 177.667,297.167 177,296.5C 170.513,291.2 166.346,284.534 164.5,276.5C 167.098,272.562 170.098,268.895 173.5,265.5C 178.227,270.608 182.727,275.941 187,281.5C 192.667,275.167 198.333,268.833 204,262.5C 207.845,269.004 211.512,275.67 215,282.5C 218.617,277.885 223.117,274.385 228.5,272C 230.167,271.333 231.833,271.333 233.5,272C 236.605,283.146 239.605,294.313 242.5,305.5 Z"/></g>
<g><path style="opacity:0.976" fill="#bcb570" d="M 339.5,274.5 C 339.647,280.233 340.314,285.9 341.5,291.5C 338.467,296.903 335.8,302.57 333.5,308.5C 330.01,306.317 326.343,304.65 322.5,303.5C 322.5,307.5 322.5,311.5 322.5,315.5C 318.026,311.206 314.026,306.539 310.5,301.5C 308.054,296.669 307.054,291.502 307.5,286C 307.048,280.416 308.048,275.249 310.5,270.5C 311.524,269.862 312.524,269.195 313.5,268.5C 316.095,269.237 318.762,269.237 321.5,268.5C 321.077,271.288 322.077,273.288 324.5,274.5C 326.179,273.218 328.013,272.218 330,271.5C 330.483,270.552 330.649,269.552 330.5,268.5C 333.458,269.541 336.458,269.541 339.5,268.5C 339.5,270.5 339.5,272.5 339.5,274.5 Z"/></g>
<g><path style="opacity:0.207" fill="#483323" d="M 422.5,373.5 C 421.512,360.747 418.179,348.58 412.5,337C 416.744,337.95 420.744,339.783 424.5,342.5C 424.833,342 425.167,341.5 425.5,341C 421.998,333.978 418.998,326.812 416.5,319.5C 420.104,316.398 423.604,313.065 427,309.5C 427.533,306.495 428.7,303.828 430.5,301.5C 434.311,295.889 437.644,289.889 440.5,283.5C 443.1,279.299 445.434,274.966 447.5,270.5C 448.901,270.029 450.234,269.362 451.5,268.5C 450.674,267.549 450.508,266.549 451,265.5C 452.107,268.211 453.607,270.711 455.5,273C 454.41,278.847 451.743,283.847 447.5,288C 447.833,288.333 448.167,288.667 448.5,289C 447.264,291.354 445.597,293.354 443.5,295C 443.957,295.414 444.291,295.914 444.5,296.5C 441.752,299.761 439.919,303.427 439,307.5C 434.534,311.379 431.367,315.713 429.5,320.5C 430.167,323.833 430.833,327.167 431.5,330.5C 429.286,338.576 427.62,346.576 426.5,354.5C 427.025,355.192 427.692,355.692 428.5,356C 427.289,357.113 427.289,358.28 428.5,359.5C 427.975,360.192 427.308,360.692 426.5,361C 427.99,365.716 426.657,369.882 422.5,373.5 Z"/></g>
<g><path style="opacity:0.741" fill="#9f945c" d="M 434.5,242.5 C 435.451,243.919 435.784,245.585 435.5,247.5C 434.504,247.414 433.671,247.748 433,248.5C 431.211,246.771 429.044,246.104 426.5,246.5C 426.421,247.93 426.754,249.264 427.5,250.5C 426.189,251.258 425.689,252.258 426,253.5C 427.966,253.716 430.133,254.382 432.5,255.5C 431.167,258.496 432.167,260.163 435.5,260.5C 435.5,262.5 435.5,264.5 435.5,266.5C 439.36,266.192 443.026,265.525 446.5,264.5C 447.5,264.5 448.5,264.5 449.5,264.5C 449.296,266.685 448.63,268.685 447.5,270.5C 445.434,274.966 443.1,279.299 440.5,283.5C 437.463,285.265 435.13,284.598 433.5,281.5C 434.376,280.749 435.376,280.249 436.5,280C 435.167,279.333 435.167,278.667 436.5,278C 433.635,277.817 430.969,277.317 428.5,276.5C 432.224,277.227 434.891,275.894 436.5,272.5C 435.18,270.73 433.68,270.397 432,271.5C 431.333,270.167 430.667,268.833 430,267.5C 428.506,268.747 427.006,268.747 425.5,267.5C 424.167,266.5 424.167,265.5 425.5,264.5C 425.043,263.702 424.376,263.369 423.5,263.5C 423.936,261.254 424.603,259.087 425.5,257C 425.167,256.667 424.833,256.333 424.5,256C 419.845,255.501 415.179,255.334 410.5,255.5C 413.017,261.711 415.35,268.045 417.5,274.5C 415.958,273.699 414.292,273.366 412.5,273.5C 413.167,275.167 413.833,276.833 414.5,278.5C 412.606,279.048 410.94,280.048 409.5,281.5C 408.355,280.224 408.355,278.891 409.5,277.5C 407.795,274.879 405.628,274.212 403,275.5C 402.658,273.381 401.825,273.047 400.5,274.5C 398.136,267.051 396.136,259.384 394.5,251.5C 396.492,251.328 398.158,251.995 399.5,253.5C 400.719,252.737 401.719,251.737 402.5,250.5C 404.167,251.5 405.833,252.5 407.5,253.5C 409.397,253.272 410.73,252.272 411.5,250.5C 410.443,250.094 409.109,250.094 407.5,250.5C 407.5,249.5 407.5,248.5 407.5,247.5C 408.833,247.5 410.167,247.5 411.5,247.5C 411.279,242.938 412.779,242.272 416,245.5C 417.333,244.167 418.667,242.833 420,241.5C 420.333,242.167 420.667,242.833 421,243.5C 423.005,241.2 425.172,241.2 427.5,243.5C 429.51,242.651 431.177,243.318 432.5,245.5C 433.919,244.995 434.585,243.995 434.5,242.5 Z"/></g>
<g><path style="opacity:0.596" fill="#8f8352" d="M 423.5,263.5 C 424.376,263.369 425.043,263.702 425.5,264.5C 424.167,265.5 424.167,266.5 425.5,267.5C 427.006,268.747 428.506,268.747 430,267.5C 430.667,268.833 431.333,270.167 432,271.5C 433.68,270.397 435.18,270.73 436.5,272.5C 434.891,275.894 432.224,277.227 428.5,276.5C 426.709,275.213 425.043,273.713 423.5,272C 423.645,271.228 423.978,270.561 424.5,270C 423.181,269.805 421.847,269.972 420.5,270.5C 421.088,267.937 422.088,265.604 423.5,263.5 Z"/></g>
<g><path style="opacity:0.693" fill="#58452d" d="M 423.5,263.5 C 422.088,265.604 421.088,267.937 420.5,270.5C 419.974,272.23 418.974,273.564 417.5,274.5C 415.35,268.045 413.017,261.711 410.5,255.5C 415.179,255.334 419.845,255.501 424.5,256C 424.833,256.333 425.167,256.667 425.5,257C 424.603,259.087 423.936,261.254 423.5,263.5 Z"/></g>
<g><path style="opacity:0.966" fill="#5e4d32" d="M 321.5,280.5 C 322.675,280.281 323.675,280.614 324.5,281.5C 323.884,286.151 323.218,290.818 322.5,295.5C 319.632,292.468 316.965,289.302 314.5,286C 316.508,283.673 318.842,281.84 321.5,280.5 Z"/></g>
<g><path style="opacity:0.485" fill="#402a1e" d="M 355.5,286.5 C 354.5,286.5 353.5,286.5 352.5,286.5C 353.812,290.098 355.146,293.765 356.5,297.5C 352.348,297.654 348.015,297.654 343.5,297.5C 343.747,295.142 343.081,293.142 341.5,291.5C 340.314,285.9 339.647,280.233 339.5,274.5C 340.309,269.875 341.975,265.542 344.5,261.5C 345.822,261.67 346.989,261.337 348,260.5C 348.113,264.639 347.28,268.639 345.5,272.5C 346.244,275.443 346.744,278.443 347,281.5C 347.465,282.931 348.299,284.097 349.5,285C 351.708,285.191 353.708,285.691 355.5,286.5 Z"/></g>
<g><path style="opacity:0.337" fill="#422c1f" d="M 89.5,311.5 C 89.4827,313.028 88.816,313.528 87.5,313C 86.8095,311.933 86.3095,310.766 86,309.5C 85.9627,303.998 85.6293,298.331 85,292.5C 84.0853,291.672 83.4186,290.672 83,289.5C 79.1583,288.137 75.325,287.137 71.5,286.5C 77.9933,282.935 84.4933,279.269 91,275.5C 90.8343,287.501 90.3343,299.501 89.5,311.5 Z"/></g>
<g><path style="opacity:0.882" fill="#aca365" d="M 428.5,276.5 C 430.969,277.317 433.635,277.817 436.5,278C 435.167,278.667 435.167,279.333 436.5,280C 435.376,280.249 434.376,280.749 433.5,281.5C 435.13,284.598 437.463,285.265 440.5,283.5C 437.644,289.889 434.311,295.889 430.5,301.5C 427.407,303.538 424.074,305.205 420.5,306.5C 420.167,306 419.833,305.5 419.5,305C 420.276,300.511 420.943,296.011 421.5,291.5C 420.5,291.5 419.5,291.5 418.5,291.5C 418.055,288.72 418.055,286.053 418.5,283.5C 415.922,283.323 415.922,282.157 418.5,280C 417.255,279.209 415.922,278.709 414.5,278.5C 413.833,276.833 413.167,275.167 412.5,273.5C 414.292,273.366 415.958,273.699 417.5,274.5C 418.974,273.564 419.974,272.23 420.5,270.5C 421.847,269.972 423.181,269.805 424.5,270C 423.978,270.561 423.645,271.228 423.5,272C 425.043,273.713 426.709,275.213 428.5,276.5 Z"/></g>
<g><path style="opacity:0.874" fill="#615135" d="M 425.5,283.5 C 428.877,283.69 431.544,285.19 433.5,288C 430.651,291.016 427.651,293.85 424.5,296.5C 424.167,296 423.833,295.5 423.5,295C 425.049,291.32 425.716,287.487 425.5,283.5 Z"/></g>
<g><path style="opacity:0.973" fill="#979392" d="M 164.5,276.5 C 166.346,284.534 170.513,291.2 177,296.5C 177.667,297.167 177.667,297.833 177,298.5C 168.437,299.154 160.27,297.488 152.5,293.5C 150.205,290.703 147.705,288.036 145,285.5C 144.333,284.5 144.333,283.5 145,282.5C 148.716,278.452 152.05,274.118 155,269.5C 156.693,267.973 158.527,266.64 160.5,265.5C 161.988,269.125 163.321,272.791 164.5,276.5 Z"/></g>
<g><path style="opacity:0.973" fill="#9a9695" d="M 238.5,320.5 C 240.648,315.722 241.981,310.722 242.5,305.5C 243.068,298.125 244.402,290.792 246.5,283.5C 252.85,284.47 259.184,285.636 265.5,287C 260.67,301.475 251.67,312.642 238.5,320.5 Z"/></g>
<g><path style="opacity:0.957" fill="#412b10" d="M 355.5,286.5 C 361.168,288.207 366.335,290.874 371,294.5C 376.269,289.755 382.436,288.255 389.5,290C 387.156,290.837 385.156,292.171 383.5,294C 386.49,294.897 389.49,295.731 392.5,296.5C 395.628,295.563 397.962,296.563 399.5,299.5C 395.872,305.576 391.206,310.743 385.5,315C 386.772,316.046 388.272,316.546 390,316.5C 394.333,315.833 398.667,315.167 403,314.5C 404.167,314.833 405.333,315.167 406.5,315.5C 405.915,318.848 404.582,321.848 402.5,324.5C 403.689,325.429 405.022,325.762 406.5,325.5C 408.379,325.393 408.712,325.893 407.5,327C 410.492,327.519 411.492,329.019 410.5,331.5C 409.146,329.816 407.479,329.316 405.5,330C 406.711,331.113 406.711,332.28 405.5,333.5C 407.335,334.428 407.668,335.594 406.5,337C 403.001,338.12 400.167,337.287 398,334.5C 396.826,336.671 394.993,337.671 392.5,337.5C 390.739,329.2 385.906,326.2 378,328.5C 370.489,338.931 372.989,344.764 385.5,346C 388.106,345.208 390.106,343.708 391.5,341.5C 392.645,342.733 394.312,344.233 396.5,346C 395.269,347.183 395.269,348.349 396.5,349.5C 398.5,348.167 400.5,346.833 402.5,345.5C 403.59,346.727 404.924,347.56 406.5,348C 403.769,350.327 400.769,352.16 397.5,353.5C 389.197,349.452 386.197,352.119 388.5,361.5C 386.5,365.5 384.5,365.5 382.5,361.5C 381.581,358.911 379.914,356.911 377.5,355.5C 374.189,357.729 371.022,360.062 368,362.5C 365.657,361.321 363.824,359.654 362.5,357.5C 363.072,353.537 364.405,349.87 366.5,346.5C 362.167,345.167 357.833,345.167 353.5,346.5C 354.374,348.747 354.708,351.08 354.5,353.5C 350.036,357.156 345.869,361.156 342,365.5C 341.333,366.833 341.333,368.167 342,369.5C 345.985,375.148 350.318,380.481 355,385.5C 357.998,383.332 360.831,380.999 363.5,378.5C 363.611,379.117 363.944,379.617 364.5,380C 362.973,381.693 361.64,383.527 360.5,385.5C 361.242,386.287 362.075,386.953 363,387.5C 363.965,385.74 365.132,385.406 366.5,386.5C 363.792,388.266 361.792,390.599 360.5,393.5C 355.456,393.173 350.456,393.506 345.5,394.5C 347.605,396.592 349.272,398.925 350.5,401.5C 348.362,401.297 346.695,400.297 345.5,398.5C 344.522,398.977 343.689,399.643 343,400.5C 341.334,399.66 341.167,400.16 342.5,402C 341.376,402.249 340.376,402.749 339.5,403.5C 341.307,404.111 342.973,403.444 344.5,401.5C 345.105,402.587 344.772,403.754 343.5,405C 340.833,405.667 338.167,405.667 335.5,405C 334.333,404.5 333.5,403.667 333,402.5C 332.5,403 332,403.5 331.5,404C 335.91,406.242 339.91,409.075 343.5,412.5C 342.311,413.429 340.978,413.762 339.5,413.5C 339.5,414.833 339.5,416.167 339.5,417.5C 340.5,417.5 341.5,417.5 342.5,417.5C 341.89,418.391 341.557,419.391 341.5,420.5C 340.675,424.647 340.175,428.981 340,433.5C 339.71,435.044 339.044,436.377 338,437.5C 337.483,434.08 336.65,430.747 335.5,427.5C 332.987,428.848 331.153,430.848 330,433.5C 328.241,427.65 328.074,421.65 329.5,415.5C 329.167,414.5 328.833,413.5 328.5,412.5C 326.668,413.248 325.001,414.248 323.5,415.5C 323.167,414.5 322.833,413.5 322.5,412.5C 324.41,405.034 326.577,397.701 329,390.5C 330.833,388.667 332.667,386.833 334.5,385C 332.069,384.748 329.735,385.248 327.5,386.5C 327.878,381.018 329.544,375.685 332.5,370.5C 332.333,370.167 332.167,369.833 332,369.5C 329.38,372.576 326.88,375.742 324.5,379C 323.552,379.483 322.552,379.649 321.5,379.5C 321.334,373.491 321.501,367.491 322,361.5C 322.038,357.437 322.872,353.603 324.5,350C 323.092,349.685 321.759,350.018 320.5,351C 317.745,352.711 315.411,354.878 313.5,357.5C 312.604,350.78 313.104,344.113 315,337.5C 317.054,330.404 319.887,323.737 323.5,317.5C 327.168,320.843 330.835,324.177 334.5,327.5C 335.317,323.423 336.317,319.423 337.5,315.5C 341.898,315.795 346.231,316.462 350.5,317.5C 350.833,317.167 351.167,316.833 351.5,316.5C 348.456,310.38 345.789,304.047 343.5,297.5C 348.015,297.654 352.348,297.654 356.5,297.5C 355.146,293.765 353.812,290.098 352.5,286.5C 353.5,286.5 354.5,286.5 355.5,286.5 Z"/></g>
<g><path style="opacity:0.884" fill="#58452e" d="M 402.5,287.5 C 403.956,292.934 404.79,298.6 405,304.5C 410.003,300.664 414.503,296.33 418.5,291.5C 419.5,291.5 420.5,291.5 421.5,291.5C 420.943,296.011 420.276,300.511 419.5,305C 419.833,305.5 420.167,306 420.5,306.5C 424.074,305.205 427.407,303.538 430.5,301.5C 428.7,303.828 427.533,306.495 427,309.5C 423.604,313.065 420.104,316.398 416.5,319.5C 413.026,321.318 409.693,323.318 406.5,325.5C 405.022,325.762 403.689,325.429 402.5,324.5C 404.582,321.848 405.915,318.848 406.5,315.5C 405.333,315.167 404.167,314.833 403,314.5C 398.667,315.167 394.333,315.833 390,316.5C 388.272,316.546 386.772,316.046 385.5,315C 391.206,310.743 395.872,305.576 399.5,299.5C 400.79,298.942 401.623,297.942 402,296.5C 402.498,293.518 402.665,290.518 402.5,287.5 Z"/></g>
<g><path style="opacity:0.972" fill="#59482f" d="M 341.5,291.5 C 343.081,293.142 343.747,295.142 343.5,297.5C 345.789,304.047 348.456,310.38 351.5,316.5C 351.167,316.833 350.833,317.167 350.5,317.5C 346.231,316.462 341.898,315.795 337.5,315.5C 336.317,319.423 335.317,323.423 334.5,327.5C 330.835,324.177 327.168,320.843 323.5,317.5C 322.662,317.158 322.328,316.492 322.5,315.5C 322.5,311.5 322.5,307.5 322.5,303.5C 326.343,304.65 330.01,306.317 333.5,308.5C 335.8,302.57 338.467,296.903 341.5,291.5 Z"/></g>
<g><path style="opacity:0.937" fill="#b4ad6a" d="M 414.5,278.5 C 415.922,278.709 417.255,279.209 418.5,280C 415.922,282.157 415.922,283.323 418.5,283.5C 418.055,286.053 418.055,288.72 418.5,291.5C 414.503,296.33 410.003,300.664 405,304.5C 404.79,298.6 403.956,292.934 402.5,287.5C 402.577,283.037 401.91,278.704 400.5,274.5C 401.825,273.047 402.658,273.381 403,275.5C 405.628,274.212 407.795,274.879 409.5,277.5C 408.355,278.891 408.355,280.224 409.5,281.5C 410.94,280.048 412.606,279.048 414.5,278.5 Z"/></g>
<g><path style="opacity:0.97" fill="#3084b3" d="M 208.5,297.5 C 211.532,297.178 213.199,298.511 213.5,301.5C 212.633,305.261 210.466,306.261 207,304.5C 206.167,301.829 206.667,299.496 208.5,297.5 Z"/></g>
<g><path style="opacity:0.5" fill="#3d271c" d="M 99.5,341.5 C 98.8529,340.726 98.5195,339.726 98.5,338.5C 98.9852,334.211 99.9852,330.044 101.5,326C 100.972,323.119 100.306,320.285 99.5,317.5C 98.5,317.5 97.5,317.5 96.5,317.5C 101.797,311.702 107.297,306.035 113,300.5C 113.007,303.479 112.673,306.479 112,309.5C 106.98,319.868 102.813,330.534 99.5,341.5 Z"/></g>
<g><path style="opacity:0.202" fill="#453022" d="M 310.5,301.5 C 314.026,306.539 318.026,311.206 322.5,315.5C 322.328,316.492 322.662,317.158 323.5,317.5C 319.887,323.737 317.054,330.404 315,337.5C 313.104,344.113 312.604,350.78 313.5,357.5C 315.411,354.878 317.745,352.711 320.5,351C 321.759,350.018 323.092,349.685 324.5,350C 322.872,353.603 322.038,357.437 322,361.5C 321.501,367.491 321.334,373.491 321.5,379.5C 322.552,379.649 323.552,379.483 324.5,379C 326.88,375.742 329.38,372.576 332,369.5C 332.167,369.833 332.333,370.167 332.5,370.5C 329.544,375.685 327.878,381.018 327.5,386.5C 329.735,385.248 332.069,384.748 334.5,385C 332.667,386.833 330.833,388.667 329,390.5C 326.577,397.701 324.41,405.034 322.5,412.5C 322.833,413.5 323.167,414.5 323.5,415.5C 325.001,414.248 326.668,413.248 328.5,412.5C 328.833,413.5 329.167,414.5 329.5,415.5C 328.074,421.65 328.241,427.65 330,433.5C 331.153,430.848 332.987,428.848 335.5,427.5C 336.65,430.747 337.483,434.08 338,437.5C 339.044,436.377 339.71,435.044 340,433.5C 340.175,428.981 340.675,424.647 341.5,420.5C 341.5,421.167 341.5,421.833 341.5,422.5C 341.334,427.179 341.501,431.845 342,436.5C 343.851,440.157 346.684,442.49 350.5,443.5C 347.054,444.612 345.054,446.945 344.5,450.5C 345.552,450.649 346.552,450.483 347.5,450C 350.326,445.114 351.659,445.614 351.5,451.5C 352.833,451.5 354.167,451.5 355.5,451.5C 355.5,450.167 355.5,448.833 355.5,447.5C 356.5,447.5 357.5,447.5 358.5,447.5C 358.5,448.833 358.5,450.167 358.5,451.5C 359.5,451.5 360.5,451.5 361.5,451.5C 361.5,449.5 361.5,447.5 361.5,445.5C 365.833,445.5 370.167,445.5 374.5,445.5C 373.848,449.56 375.515,451.56 379.5,451.5C 379.215,449.712 379.548,448.045 380.5,446.5C 381.421,448.756 383.088,449.756 385.5,449.5C 385.5,448.167 385.5,446.833 385.5,445.5C 387.638,445.703 389.305,446.703 390.5,448.5C 392.17,445.193 391.17,443.193 387.5,442.5C 388.172,441.733 389.005,441.066 390,440.5C 390.499,436.848 390.665,433.182 390.5,429.5C 391.314,431.631 391.814,433.964 392,436.5C 393.852,433.289 395.519,429.956 397,426.5C 399.023,428.769 399.856,431.436 399.5,434.5C 395.62,439.592 392.787,445.259 391,451.5C 387.774,453.973 384.274,454.64 380.5,453.5C 378.705,454.265 376.872,454.932 375,455.5C 368.131,455.419 361.298,455.419 354.5,455.5C 346.288,454.296 340.288,449.963 336.5,442.5C 324.272,433.036 317.605,420.703 316.5,405.5C 318.687,400.368 320.021,395.035 320.5,389.5C 317.259,381.869 315.259,373.869 314.5,365.5C 312.134,360.439 309.467,355.439 306.5,350.5C 307.615,349.402 307.615,348.235 306.5,347C 303.861,341.772 300.528,341.272 296.5,345.5C 295.207,348.416 294.207,351.416 293.5,354.5C 294.975,362.594 296.309,370.927 297.5,379.5C 297.009,384.194 295.675,388.694 293.5,393C 293.957,393.414 294.291,393.914 294.5,394.5C 292.4,397.495 292.066,400.662 293.5,404C 292.741,407.644 292.074,411.311 291.5,415C 291.316,416.376 290.649,417.209 289.5,417.5C 285.954,407.367 282.621,397.033 279.5,386.5C 280.365,385.417 281.365,385.251 282.5,386C 285.427,388.382 288.261,390.882 291,393.5C 290.521,379.962 288.521,366.629 285,353.5C 281.706,346.274 279.039,338.94 277,331.5C 283.876,334.856 289.71,339.523 294.5,345.5C 295.466,343.604 295.799,341.604 295.5,339.5C 296.467,338.194 297.801,337.527 299.5,337.5C 301.548,327.668 301.548,317.834 299.5,308C 300.833,306.667 300.833,305.333 299.5,304C 301.125,303.147 301.458,302.147 300.5,301C 301.5,300.333 302.5,300.333 303.5,301C 305.228,303.582 307.561,305.082 310.5,305.5C 310.5,304.167 310.5,302.833 310.5,301.5 Z"/></g>
<g><path style="opacity:0.992" fill="#3088bb" d="M 180.5,299.5 C 186.016,299.473 187.349,301.64 184.5,306C 178.683,306.371 177.35,304.205 180.5,299.5 Z"/></g>
<g><path style="opacity:0.008" fill="#503d28" d="M 440.5,318.5 C 440.833,318.5 441.167,318.5 441.5,318.5C 441.315,319.17 440.981,319.17 440.5,318.5 Z"/></g>
<g><path style="opacity:0.012" fill="#503d28" d="M 438.5,331.5 C 439.833,332.167 439.833,332.167 438.5,331.5 Z"/></g>
<g><path style="opacity:0.972" fill="#b7b06c" d="M 337.5,335.5 C 346.157,333.679 350.323,337.012 350,345.5C 346.408,350.142 341.741,351.809 336,350.5C 335.436,347.845 334.936,345.179 334.5,342.5C 335.057,339.954 336.057,337.621 337.5,335.5 Z"/></g>
<g><path style="opacity:0.973" fill="#281a09" d="M 145.5,341.5 C 149.555,341.176 153.555,341.509 157.5,342.5C 153.251,350 148.751,357.334 144,364.5C 139.252,358.006 134.752,351.339 130.5,344.5C 135.701,343.826 140.701,342.826 145.5,341.5 Z"/></g>
<g><path style="opacity:0.953" fill="#b0a868" d="M 392.5,337.5 C 392.567,338.959 392.234,340.292 391.5,341.5C 390.106,343.708 388.106,345.208 385.5,346C 372.989,344.764 370.489,338.931 378,328.5C 385.906,326.2 390.739,329.2 392.5,337.5 Z"/></g>
<g><path style="opacity:0.946" fill="#291b0a" d="M 225.5,345.5 C 233.86,345.169 242.193,345.502 250.5,346.5C 247.092,354.321 242.926,361.654 238,368.5C 234.401,360.81 229.901,353.643 224.5,347C 225.056,346.617 225.389,346.117 225.5,345.5 Z"/></g>
<g><path style="opacity:0.922" fill="#989493" d="M 362.5,357.5 C 362.435,359.696 361.768,361.696 360.5,363.5C 357.471,360.774 355.471,357.441 354.5,353.5C 354.708,351.08 354.374,348.747 353.5,346.5C 357.833,345.167 362.167,345.167 366.5,346.5C 364.405,349.87 363.072,353.537 362.5,357.5 Z"/></g>
<g><path style="opacity:0.008" fill="#503c28" d="M 437.5,349.5 C 438.833,350.167 438.833,350.167 437.5,349.5 Z"/></g>
<g><path style="opacity:0.459" fill="#402a1d" d="M 94.5,390.5 C 95.0893,387.359 95.0893,384.359 94.5,381.5C 96.3607,372.778 98.0273,364.111 99.5,355.5C 103.382,351.433 108.048,348.933 113.5,348C 110.707,351.081 108.54,354.581 107,358.5C 102.322,369.046 98.1552,379.713 94.5,390.5 Z"/></g>
<g><path style="opacity:0.8" fill="#8a837e" d="M 397.5,353.5 C 398.808,354.232 400.142,355.066 401.5,356C 399.003,359.989 396.336,363.823 393.5,367.5C 391.372,369.403 389.039,371.069 386.5,372.5C 386.167,372 385.833,371.5 385.5,371C 386.828,367.876 387.828,364.71 388.5,361.5C 386.197,352.119 389.197,349.452 397.5,353.5 Z"/></g>
<g><path style="opacity:0.83" fill="#357497" d="M 379.5,367.5 C 379.747,369.858 379.081,371.858 377.5,373.5C 375.833,373.5 374.167,373.5 372.5,373.5C 371.248,367.079 373.581,365.079 379.5,367.5 Z"/></g>
<g><path style="opacity:0.934" fill="#1d1a19" d="M 354.5,353.5 C 355.471,357.441 357.471,360.774 360.5,363.5C 361.768,361.696 362.435,359.696 362.5,357.5C 363.824,359.654 365.657,361.321 368,362.5C 371.022,360.062 374.189,357.729 377.5,355.5C 379.914,356.911 381.581,358.911 382.5,361.5C 382.063,363.074 381.063,364.241 379.5,365C 380.938,365.219 382.271,365.719 383.5,366.5C 382.214,366.476 380.88,366.81 379.5,367.5C 373.581,365.079 371.248,367.079 372.5,373.5C 374.167,373.5 375.833,373.5 377.5,373.5C 378.376,373.369 379.043,373.702 379.5,374.5C 377.518,375.216 375.851,376.383 374.5,378C 377.097,378.779 377.097,379.279 374.5,379.5C 371.868,378.127 369.034,377.127 366,376.5C 364.699,376.639 363.866,377.305 363.5,378.5C 360.831,380.999 357.998,383.332 355,385.5C 350.318,380.481 345.985,375.148 342,369.5C 341.333,368.167 341.333,366.833 342,365.5C 345.869,361.156 350.036,357.156 354.5,353.5 Z"/></g>
<g><path style="opacity:0.805" fill="#26201c" d="M 382.5,361.5 C 384.5,365.5 386.5,365.5 388.5,361.5C 387.828,364.71 386.828,367.876 385.5,371C 385.833,371.5 386.167,372 386.5,372.5C 389.039,371.069 391.372,369.403 393.5,367.5C 393.665,370.518 393.498,373.518 393,376.5C 390.5,379 388,381.5 385.5,384C 381.628,383.066 377.961,381.566 374.5,379.5C 377.097,379.279 377.097,378.779 374.5,378C 375.851,376.383 377.518,375.216 379.5,374.5C 379.043,373.702 378.376,373.369 377.5,373.5C 379.081,371.858 379.747,369.858 379.5,367.5C 380.88,366.81 382.214,366.476 383.5,366.5C 382.271,365.719 380.938,365.219 379.5,365C 381.063,364.241 382.063,363.074 382.5,361.5 Z"/></g>
<g><path style="opacity:0.933" fill="#3284b4" d="M 355.5,368.5 C 360.839,369.351 361.672,371.684 358,375.5C 354.568,374.107 353.734,371.774 355.5,368.5 Z"/></g>
<g><path style="opacity:0.962" fill="#291a09" d="M 126.5,379.5 C 129.167,379.5 131.833,379.5 134.5,379.5C 131.702,387.347 129.202,395.347 127,403.5C 126.586,403.957 126.086,404.291 125.5,404.5C 119.427,398.432 113.76,392.099 108.5,385.5C 110.275,384.043 112.275,382.876 114.5,382C 118.699,381.472 122.699,380.639 126.5,379.5 Z"/></g>
<g><path style="opacity:0.008" fill="#503d28" d="M 433.5,384.5 C 434.833,385.167 434.833,385.167 433.5,384.5 Z"/></g>
<g><path style="opacity:0.205" fill="#453021" d="M 419.5,377.5 C 418.056,381.148 415.889,384.482 413,387.5C 412.788,390.252 411.955,392.752 410.5,395C 412.3,400.15 413.633,405.15 414.5,410C 414.128,418.388 411.128,425.554 405.5,431.5C 404.199,429.556 403.199,427.556 402.5,425.5C 401.982,420.788 401.482,416.121 401,411.5C 403.535,414.331 406.035,417.664 408.5,421.5C 408.833,419.667 409.167,417.833 409.5,416C 408.658,411.143 407.658,406.31 406.5,401.5C 403.724,401.911 403.057,401.078 404.5,399C 403.705,395.745 402.372,392.745 400.5,390C 402.256,389.86 403.922,390.36 405.5,391.5C 406.319,388.596 405.653,385.929 403.5,383.5C 403.808,382.692 404.308,382.025 405,381.5C 406.706,382.308 407.539,383.641 407.5,385.5C 408.833,385.5 410.167,385.5 411.5,385.5C 411.5,381.5 411.5,377.5 411.5,373.5C 410.127,373.657 408.793,373.49 407.5,373C 408.308,372.692 408.975,372.192 409.5,371.5C 408.515,369.902 408.349,368.235 409,366.5C 413.378,369.377 416.878,373.044 419.5,377.5 Z"/></g>
<g><path style="opacity:0.77" fill="#442e14" d="M 416.5,319.5 C 418.998,326.812 421.998,333.978 425.5,341C 425.167,341.5 424.833,342 424.5,342.5C 420.744,339.783 416.744,337.95 412.5,337C 418.179,348.58 421.512,360.747 422.5,373.5C 422.657,374.873 422.49,376.207 422,377.5C 421.23,378.598 420.397,378.598 419.5,377.5C 416.878,373.044 413.378,369.377 409,366.5C 408.349,368.235 408.515,369.902 409.5,371.5C 408.975,372.192 408.308,372.692 407.5,373C 408.793,373.49 410.127,373.657 411.5,373.5C 411.5,377.5 411.5,381.5 411.5,385.5C 410.167,385.5 408.833,385.5 407.5,385.5C 407.539,383.641 406.706,382.308 405,381.5C 404.308,382.025 403.808,382.692 403.5,383.5C 405.653,385.929 406.319,388.596 405.5,391.5C 403.922,390.36 402.256,389.86 400.5,390C 402.372,392.745 403.705,395.745 404.5,399C 403.057,401.078 403.724,401.911 406.5,401.5C 407.658,406.31 408.658,411.143 409.5,416C 409.167,417.833 408.833,419.667 408.5,421.5C 406.035,417.664 403.535,414.331 401,411.5C 401.482,416.121 401.982,420.788 402.5,425.5C 402.663,427.857 402.497,430.19 402,432.5C 401.583,433.756 400.75,434.423 399.5,434.5C 399.856,431.436 399.023,428.769 397,426.5C 395.519,429.956 393.852,433.289 392,436.5C 391.814,433.964 391.314,431.631 390.5,429.5C 390.672,428.508 390.338,427.842 389.5,427.5C 388.983,424.418 388.15,421.418 387,418.5C 386.439,417.978 385.772,417.645 385,417.5C 383.374,418.289 381.874,419.289 380.5,420.5C 378.861,417.533 376.861,414.866 374.5,412.5C 372.747,415.005 371.247,417.671 370,420.5C 368.855,421.684 367.688,421.684 366.5,420.5C 365.564,417.329 363.897,414.662 361.5,412.5C 358.705,414.751 356.372,417.418 354.5,420.5C 352.492,417 349.992,414 347,411.5C 344.924,413.075 343.424,415.075 342.5,417.5C 341.5,417.5 340.5,417.5 339.5,417.5C 339.5,416.167 339.5,414.833 339.5,413.5C 340.978,413.762 342.311,413.429 343.5,412.5C 339.91,409.075 335.91,406.242 331.5,404C 332,403.5 332.5,403 333,402.5C 333.5,403.667 334.333,404.5 335.5,405C 338.167,405.667 340.833,405.667 343.5,405C 344.772,403.754 345.105,402.587 344.5,401.5C 342.973,403.444 341.307,404.111 339.5,403.5C 340.376,402.749 341.376,402.249 342.5,402C 341.167,400.16 341.334,399.66 343,400.5C 343.689,399.643 344.522,398.977 345.5,398.5C 346.695,400.297 348.362,401.297 350.5,401.5C 352.934,402.771 354.434,404.771 355,407.5C 356.049,405.893 357.549,405.227 359.5,405.5C 359.878,400.92 361.878,397.087 365.5,394C 363.866,393.506 362.199,393.34 360.5,393.5C 361.792,390.599 363.792,388.266 366.5,386.5C 365.132,385.406 363.965,385.74 363,387.5C 362.075,386.953 361.242,386.287 360.5,385.5C 361.64,383.527 362.973,381.693 364.5,380C 363.944,379.617 363.611,379.117 363.5,378.5C 363.866,377.305 364.699,376.639 366,376.5C 369.034,377.127 371.868,378.127 374.5,379.5C 377.961,381.566 381.628,383.066 385.5,384C 388,381.5 390.5,379 393,376.5C 393.498,373.518 393.665,370.518 393.5,367.5C 396.336,363.823 399.003,359.989 401.5,356C 400.142,355.066 398.808,354.232 397.5,353.5C 400.769,352.16 403.769,350.327 406.5,348C 404.924,347.56 403.59,346.727 402.5,345.5C 400.5,346.833 398.5,348.167 396.5,349.5C 395.269,348.349 395.269,347.183 396.5,346C 394.312,344.233 392.645,342.733 391.5,341.5C 392.234,340.292 392.567,338.959 392.5,337.5C 394.993,337.671 396.826,336.671 398,334.5C 400.167,337.287 403.001,338.12 406.5,337C 407.668,335.594 407.335,334.428 405.5,333.5C 406.711,332.28 406.711,331.113 405.5,330C 407.479,329.316 409.146,329.816 410.5,331.5C 411.492,329.019 410.492,327.519 407.5,327C 408.712,325.893 408.379,325.393 406.5,325.5C 409.693,323.318 413.026,321.318 416.5,319.5 Z"/></g>
<g><path style="opacity:0.331" fill="#412c1f" d="M 103.5,434.5 C 102.523,431.713 102.19,428.713 102.5,425.5C 101.5,425.5 100.5,425.5 99.5,425.5C 98.42,418.607 98.42,411.773 99.5,405C 98.6426,402.981 97.3092,401.481 95.5,400.5C 97.9619,397.536 100.629,394.703 103.5,392C 105.212,390.249 107.212,389.582 109.5,390C 104.518,404.398 102.518,419.231 103.5,434.5 Z"/></g>
<g><path style="opacity:0.849" fill="#2f200e" d="M 360.5,393.5 C 362.199,393.34 363.866,393.506 365.5,394C 361.878,397.087 359.878,400.92 359.5,405.5C 357.549,405.227 356.049,405.893 355,407.5C 354.434,404.771 352.934,402.771 350.5,401.5C 349.272,398.925 347.605,396.592 345.5,394.5C 350.456,393.506 355.456,393.173 360.5,393.5 Z"/></g>
<g><path style="opacity:0.949" fill="#bfbebb" d="M 197.5,378.5 C 196.71,379.794 195.71,380.961 194.5,382C 196.405,382.826 196.739,383.993 195.5,385.5C 193.234,387.629 190.901,389.796 188.5,392C 189.772,393.307 190.772,394.807 191.5,396.5C 194.028,395.502 194.028,394.669 191.5,394C 195.096,392.59 198.596,393.09 202,395.5C 204.405,394.755 206.572,395.422 208.5,397.5C 207.253,399.042 207.253,400.542 208.5,402C 206.744,402.202 205.078,402.702 203.5,403.5C 206.028,404.517 206.028,405.684 203.5,407C 205.167,407.833 206.833,408.667 208.5,409.5C 210.725,404.22 214.059,403.387 218.5,407C 215.35,408.218 212.35,410.385 209.5,413.5C 207.77,412.974 206.436,411.974 205.5,410.5C 203.314,409.779 201.147,409.113 199,408.5C 197.984,409.634 197.317,409.301 197,407.5C 196.601,407.728 196.435,408.062 196.5,408.5C 195.577,409.303 194.577,409.47 193.5,409C 195.31,406.356 197.31,403.856 199.5,401.5C 189.522,400.501 179.522,400.168 169.5,400.5C 169.724,402.787 170.391,404.953 171.5,407C 175.373,412.706 179.04,418.539 182.5,424.5C 184.592,422.395 186.925,420.728 189.5,419.5C 196.478,419.339 203.478,419.505 210.5,420C 209.359,420.741 209.359,421.575 210.5,422.5C 209.167,423.167 207.833,423.833 206.5,424.5C 207.376,425.251 208.376,425.751 209.5,426C 208.058,426.377 207.058,427.21 206.5,428.5C 202.5,428.5 198.5,428.5 194.5,428.5C 198.246,435.445 203.08,441.779 209,447.5C 210.039,446.29 211.206,445.29 212.5,444.5C 213.822,444.33 214.989,444.663 216,445.5C 217.11,443.963 218.61,443.297 220.5,443.5C 221.992,443.287 223.658,443.287 225.5,443.5C 224.336,447.495 221.669,449.328 217.5,449C 218.737,449.232 219.737,449.732 220.5,450.5C 208.653,450.346 196.82,450.679 185,451.5C 178.282,450.086 171.449,449.419 164.5,449.5C 159.675,449.126 155.008,448.126 150.5,446.5C 149.833,446.167 149.167,445.833 148.5,445.5C 150.216,444.029 152.216,443.029 154.5,442.5C 154.781,440.037 155.781,437.87 157.5,436C 158.742,435.689 159.742,436.189 160.5,437.5C 161.5,436.5 162.5,435.5 163.5,434.5C 162.174,434.795 160.841,434.295 159.5,433C 161.959,429.25 164.292,425.417 166.5,421.5C 157.781,419.479 149.114,419.479 140.5,421.5C 142.427,425.022 144.093,428.689 145.5,432.5C 147.727,434.607 149.727,436.94 151.5,439.5C 148.09,441.24 144.423,442.24 140.5,442.5C 139.521,440.855 138.188,439.521 136.5,438.5C 135.253,436.677 134.586,434.677 134.5,432.5C 134.335,428.818 134.501,425.152 135,421.5C 136.121,405.479 141.621,391.146 151.5,378.5C 152.723,377.386 154.056,377.219 155.5,378C 159.722,383.89 164.889,388.724 171,392.5C 172.221,391.728 173.221,390.728 174,389.5C 178.363,380.239 183.197,371.239 188.5,362.5C 192.029,367.56 195.029,372.893 197.5,378.5 Z"/></g>
<g><path style="opacity:0.569" fill="#352513" d="M 387.5,396.5 C 388.833,396.5 390.167,396.5 391.5,396.5C 391.785,398.288 391.452,399.955 390.5,401.5C 388.253,403.687 386.253,406.021 384.5,408.5C 383.614,407.675 383.281,406.675 383.5,405.5C 380.291,404.818 377.625,403.152 375.5,400.5C 375.709,399.914 376.043,399.414 376.5,399C 380.28,398.082 383.946,397.249 387.5,396.5 Z"/></g>
<g><path style="opacity:0.907" fill="#96918e" d="M 196.5,408.5 C 195.966,412.074 194.133,413.407 191,412.5C 189.879,414.797 189.379,417.13 189.5,419.5C 186.925,420.728 184.592,422.395 182.5,424.5C 179.04,418.539 175.373,412.706 171.5,407C 170.391,404.953 169.724,402.787 169.5,400.5C 179.522,400.168 189.522,400.501 199.5,401.5C 197.31,403.856 195.31,406.356 193.5,409C 194.577,409.47 195.577,409.303 196.5,408.5 Z"/></g>
<g><path style="opacity:0.865" fill="#b8b5b1" d="M 238.5,392.5 C 237.2,391.892 235.867,391.225 234.5,390.5C 230.43,392.21 230.764,393.376 235.5,394C 234.833,394.667 234.167,395.333 233.5,396C 234.938,396.219 236.271,396.719 237.5,397.5C 237.167,398.167 236.833,398.833 236.5,399.5C 237.834,399.529 239.167,400.363 240.5,402C 240.043,402.414 239.709,402.914 239.5,403.5C 241.291,404.17 242.958,404.837 244.5,405.5C 236.772,405.189 229.105,405.689 221.5,407C 220.748,407.671 220.414,408.504 220.5,409.5C 219.282,410.731 217.949,411.898 216.5,413C 217.793,413.49 219.127,413.657 220.5,413.5C 220.543,416.088 221.543,418.254 223.5,420C 221.281,421.763 219.281,423.763 217.5,426C 219.301,426.317 219.634,426.984 218.5,428C 220.137,428.601 221.803,429.101 223.5,429.5C 225.577,428.063 227.91,427.396 230.5,427.5C 230.33,428.822 230.663,429.989 231.5,431C 230,432.5 228.5,434 227,435.5C 226.383,436.449 226.549,437.282 227.5,438C 222.876,438.604 222.376,437.438 226,434.5C 226.667,433.5 226.667,432.5 226,431.5C 222.684,433.61 221.518,436.444 222.5,440C 218.795,440.422 218.128,441.588 220.5,443.5C 218.61,443.297 217.11,443.963 216,445.5C 214.989,444.663 213.822,444.33 212.5,444.5C 214.84,439.989 217.507,435.655 220.5,431.5C 216.004,429.852 211.337,428.852 206.5,428.5C 207.058,427.21 208.058,426.377 209.5,426C 208.376,425.751 207.376,425.251 206.5,424.5C 207.833,423.833 209.167,423.167 210.5,422.5C 209.359,421.575 209.359,420.741 210.5,420C 203.478,419.505 196.478,419.339 189.5,419.5C 189.379,417.13 189.879,414.797 191,412.5C 194.133,413.407 195.966,412.074 196.5,408.5C 196.435,408.062 196.601,407.728 197,407.5C 197.317,409.301 197.984,409.634 199,408.5C 201.147,409.113 203.314,409.779 205.5,410.5C 206.436,411.974 207.77,412.974 209.5,413.5C 212.35,410.385 215.35,408.218 218.5,407C 214.059,403.387 210.725,404.22 208.5,409.5C 206.833,408.667 205.167,407.833 203.5,407C 206.028,405.684 206.028,404.517 203.5,403.5C 205.078,402.702 206.744,402.202 208.5,402C 207.253,400.542 207.253,399.042 208.5,397.5C 206.572,395.422 204.405,394.755 202,395.5C 198.596,393.09 195.096,392.59 191.5,394C 194.028,394.669 194.028,395.502 191.5,396.5C 190.772,394.807 189.772,393.307 188.5,392C 190.901,389.796 193.234,387.629 195.5,385.5C 196.739,383.993 196.405,382.826 194.5,382C 195.71,380.961 196.71,379.794 197.5,378.5C 200.476,383.102 203.476,387.769 206.5,392.5C 208.745,390.322 210.745,387.988 212.5,385.5C 216.262,380.309 220.262,375.309 224.5,370.5C 229.174,377.852 233.84,385.185 238.5,392.5 Z"/></g>
<g><path style="opacity:0.942" fill="#c3c2c0" d="M 212.5,385.5 C 215.263,385.256 217.429,383.923 219,381.5C 220.507,383.008 222.173,384.341 224,385.5C 224.494,383.866 224.66,382.199 224.5,380.5C 227.462,380.117 228.462,381.117 227.5,383.5C 229.292,385.422 231.292,386.922 233.5,388C 231.895,389.36 230.395,390.86 229,392.5C 229.592,388.893 228.759,388.726 226.5,392C 224.913,392.862 223.246,393.529 221.5,394C 222.993,395.368 224.493,395.535 226,394.5C 225.689,395.935 225.855,397.268 226.5,398.5C 223.972,399.816 223.972,400.983 226.5,402C 223.571,402.777 220.737,402.61 218,401.5C 217.837,399.613 218.671,398.113 220.5,397C 218.22,396.788 216.22,395.955 214.5,394.5C 213.914,394.709 213.414,395.043 213,395.5C 212.837,393.324 212.004,391.491 210.5,390C 212.107,388.951 212.773,387.451 212.5,385.5 Z"/></g>
<g><path style="opacity:0.956" fill="#c1c0bd" d="M 263.5,435.5 C 263.768,437.099 263.434,438.432 262.5,439.5C 260.393,437.15 258.059,437.15 255.5,439.5C 254.749,438.624 254.249,437.624 254,436.5C 253.439,437.022 252.772,437.355 252,437.5C 248.934,436.287 245.767,435.453 242.5,435C 243.967,432.814 245.967,432.148 248.5,433C 248.167,433.333 247.833,433.667 247.5,434C 256.765,435.335 257.432,434.169 249.5,430.5C 250.326,429.549 250.492,428.549 250,427.5C 248.5,426.333 247,425.167 245.5,424C 247.329,422.887 248.163,421.387 248,419.5C 245.504,423.002 242.671,423.335 239.5,420.5C 240.833,420.167 242.167,419.833 243.5,419.5C 242.266,417.602 242.599,415.935 244.5,414.5C 243.645,413.707 242.811,414.04 242,415.5C 241.283,414.956 240.783,414.289 240.5,413.5C 241.833,410.833 243.167,408.167 244.5,405.5C 242.958,404.837 241.291,404.17 239.5,403.5C 239.709,402.914 240.043,402.414 240.5,402C 239.167,400.363 237.834,399.529 236.5,399.5C 236.833,398.833 237.167,398.167 237.5,397.5C 236.271,396.719 234.938,396.219 233.5,396C 234.167,395.333 234.833,394.667 235.5,394C 230.764,393.376 230.43,392.21 234.5,390.5C 235.867,391.225 237.2,391.892 238.5,392.5C 239.265,393.66 240.265,394.66 241.5,395.5C 245.529,389.97 249.362,384.303 253,378.5C 260.418,396.759 263.918,415.759 263.5,435.5 Z"/></g>
<g><path style="opacity:0.814" fill="#928b87" d="M 244.5,405.5 C 243.167,408.167 241.833,410.833 240.5,413.5C 238.125,416.953 236.125,420.62 234.5,424.5C 233.778,424.918 233.278,425.584 233,426.5C 231.352,425.283 229.519,424.45 227.5,424C 227.957,423.586 228.291,423.086 228.5,422.5C 225.571,418.306 222.905,413.973 220.5,409.5C 220.414,408.504 220.748,407.671 221.5,407C 229.105,405.689 236.772,405.189 244.5,405.5 Z"/></g>
<g><path style="opacity:0.859" fill="#b2aea9" d="M 366.5,420.5 C 366.423,421.75 365.756,422.583 364.5,423C 365.737,423.232 366.737,423.732 367.5,424.5C 363.728,426.583 359.561,427.916 355,428.5C 354.5,428.167 354,427.833 353.5,427.5C 354.167,426.833 354.833,426.167 355.5,425.5C 352.846,422.73 349.846,420.397 346.5,418.5C 347.609,416.786 346.942,416.119 344.5,416.5C 344.703,418.39 344.037,419.89 342.5,421C 343.712,422.107 343.379,422.607 341.5,422.5C 341.5,421.833 341.5,421.167 341.5,420.5C 341.557,419.391 341.89,418.391 342.5,417.5C 343.424,415.075 344.924,413.075 347,411.5C 349.992,414 352.492,417 354.5,420.5C 356.372,417.418 358.705,414.751 361.5,412.5C 363.897,414.662 365.564,417.329 366.5,420.5 Z"/></g>
<g><path style="opacity:0.966" fill="#9c9897" d="M 148.5,445.5 C 145.743,444.488 143.076,443.488 140.5,442.5C 144.423,442.24 148.09,441.24 151.5,439.5C 149.727,436.94 147.727,434.607 145.5,432.5C 144.093,428.689 142.427,425.022 140.5,421.5C 149.114,419.479 157.781,419.479 166.5,421.5C 164.292,425.417 161.959,429.25 159.5,433C 160.841,434.295 162.174,434.795 163.5,434.5C 162.5,435.5 161.5,436.5 160.5,437.5C 159.742,436.189 158.742,435.689 157.5,436C 155.781,437.87 154.781,440.037 154.5,442.5C 152.216,443.029 150.216,444.029 148.5,445.5 Z"/></g>
<g><path style="opacity:0.792" fill="#a8a39d" d="M 389.5,427.5 C 388.448,427.351 387.448,427.517 386.5,428C 384.951,430.711 382.951,432.877 380.5,434.5C 380.933,431.715 382.266,429.381 384.5,427.5C 381.572,426.516 378.572,426.183 375.5,426.5C 373.365,424.631 370.698,423.964 367.5,424.5C 366.737,423.732 365.737,423.232 364.5,423C 365.756,422.583 366.423,421.75 366.5,420.5C 367.688,421.684 368.855,421.684 370,420.5C 371.247,417.671 372.747,415.005 374.5,412.5C 376.861,414.866 378.861,417.533 380.5,420.5C 381.874,419.289 383.374,418.289 385,417.5C 385.772,417.645 386.439,417.978 387,418.5C 388.15,421.418 388.983,424.418 389.5,427.5 Z"/></g>
<g><path style="opacity:0.008" fill="#503d28" d="M 423.5,425.5 C 424.833,426.167 424.833,426.167 423.5,425.5 Z"/></g>
<g><path style="opacity:0.907" fill="#989290" d="M 375.5,426.5 C 378.572,426.183 381.572,426.516 384.5,427.5C 382.266,429.381 380.933,431.715 380.5,434.5C 379.15,435.483 378.15,436.816 377.5,438.5C 373.58,435.41 370.58,431.577 368.5,427C 370.81,426.503 373.143,426.337 375.5,426.5 Z"/></g>
<g><path style="opacity:0.203" fill="#473223" d="M 288.5,418.5 C 284.783,421.023 281.116,423.857 277.5,427C 276.552,427.483 275.552,427.649 274.5,427.5C 274.477,429.927 273.977,432.26 273,434.5C 272.552,436.224 271.718,436.891 270.5,436.5C 270.709,437.086 271.043,437.586 271.5,438C 268.535,443.289 264.868,447.956 260.5,452C 258.404,453.766 256.071,455.099 253.5,456C 252.167,456.667 252.167,457.333 253.5,458C 251.709,458.415 250.376,459.415 249.5,461C 245.989,460.957 242.489,461.79 239,463.5C 238.228,463.355 237.561,463.022 237,462.5C 235.312,466.026 233.145,466.359 230.5,463.5C 226.641,464.962 223.141,464.295 220,461.5C 219.586,461.957 219.086,462.291 218.5,462.5C 215.973,460.427 213.307,458.594 210.5,457C 209.101,456.405 207.768,456.572 206.5,457.5C 205.252,456.96 204.085,456.293 203,455.5C 202.161,456.624 200.994,457.291 199.5,457.5C 196.949,457.038 194.449,457.038 192,457.5C 189.912,458.308 187.912,459.308 186,460.5C 185.439,459.978 184.772,459.645 184,459.5C 176.328,461.711 168.995,463.044 162,463.5C 159.403,462.571 157.403,460.904 156,458.5C 155.333,459.167 154.667,459.833 154,460.5C 152.192,460.112 150.525,460.112 149,460.5C 144.042,457.277 139.209,453.944 134.5,450.5C 122.997,448.246 112.664,443.579 103.5,436.5C 103.5,436.167 103.5,435.833 103.5,435.5C 107.408,431.089 111.575,426.755 116,422.5C 118.734,429.307 120.9,436.307 122.5,443.5C 126.475,439.648 130.475,435.981 134.5,432.5C 134.586,434.677 135.253,436.677 136.5,438.5C 138.188,439.521 139.521,440.855 140.5,442.5C 143.076,443.488 145.743,444.488 148.5,445.5C 149.167,445.833 149.833,446.167 150.5,446.5C 149.006,448.85 147.673,451.35 146.5,454C 147.063,456.251 148.397,457.251 150.5,457C 151.985,453.335 154.651,451.502 158.5,451.5C 158.5,453.833 158.5,456.167 158.5,458.5C 162.5,459.167 164.167,457.5 163.5,453.5C 165.5,453.5 167.5,453.5 169.5,453.5C 169.34,455.199 169.506,456.866 170,458.5C 170.837,460.007 172.004,460.507 173.5,460C 174.451,456.943 174.784,453.777 174.5,450.5C 170.958,450.813 167.625,450.479 164.5,449.5C 171.449,449.419 178.282,450.086 185,451.5C 196.82,450.679 208.653,450.346 220.5,450.5C 224.167,450.5 227.833,450.5 231.5,450.5C 229.052,451.473 226.385,451.806 223.5,451.5C 223.337,453.857 223.503,456.19 224,458.5C 225.356,459.38 226.856,459.714 228.5,459.5C 228.764,456.243 230.43,454.243 233.5,453.5C 233.337,455.857 233.503,458.19 234,460.5C 235.796,461.767 237.629,461.767 239.5,460.5C 240.474,458.257 240.808,455.924 240.5,453.5C 241.822,453.67 242.989,453.337 244,452.5C 244.333,453.833 244.667,455.167 245,456.5C 245.561,457.022 246.228,457.355 247,457.5C 248.44,456.852 249.94,456.519 251.5,456.5C 251.468,453.006 250.135,450.339 247.5,448.5C 248.5,447.833 249.5,447.167 250.5,446.5C 255.496,445.83 259.496,443.496 262.5,439.5C 263.434,438.432 263.768,437.099 263.5,435.5C 267.457,428.001 271.29,420.334 275,412.5C 279.433,414.805 283.933,416.805 288.5,418.5 Z"/></g>
<g><path style="opacity:0.827" fill="#b5b2ae" d="M 240.5,413.5 C 240.783,414.289 241.283,414.956 242,415.5C 242.811,414.04 243.645,413.707 244.5,414.5C 242.599,415.935 242.266,417.602 243.5,419.5C 242.167,419.833 240.833,420.167 239.5,420.5C 242.671,423.335 245.504,423.002 248,419.5C 248.163,421.387 247.329,422.887 245.5,424C 247,425.167 248.5,426.333 250,427.5C 250.492,428.549 250.326,429.549 249.5,430.5C 257.432,434.169 256.765,435.335 247.5,434C 247.833,433.667 248.167,433.333 248.5,433C 245.967,432.148 243.967,432.814 242.5,435C 245.767,435.453 248.934,436.287 252,437.5C 252.772,437.355 253.439,437.022 254,436.5C 254.249,437.624 254.749,438.624 255.5,439.5C 258.059,437.15 260.393,437.15 262.5,439.5C 259.496,443.496 255.496,445.83 250.5,446.5C 248.473,446.662 246.473,446.495 244.5,446C 243.244,445.583 242.577,444.75 242.5,443.5C 245.279,442.383 245.612,441.217 243.5,440C 246.742,439.717 247.076,438.883 244.5,437.5C 236.432,439.924 234.265,437.257 238,429.5C 238.483,430.448 238.649,431.448 238.5,432.5C 243.328,431.319 243.161,429.652 238,427.5C 237.167,428.5 236.333,429.5 235.5,430.5C 234.534,428.604 234.201,426.604 234.5,424.5C 236.125,420.62 238.125,416.953 240.5,413.5 Z"/></g>
<g><path style="opacity:0.875" fill="#958f8c" d="M 206.5,428.5 C 211.337,428.852 216.004,429.852 220.5,431.5C 217.507,435.655 214.84,439.989 212.5,444.5C 211.206,445.29 210.039,446.29 209,447.5C 203.08,441.779 198.246,435.445 194.5,428.5C 198.5,428.5 202.5,428.5 206.5,428.5 Z"/></g>
<g><path style="opacity:0.765" fill="#ada8a3" d="M 220.5,409.5 C 222.905,413.973 225.571,418.306 228.5,422.5C 228.291,423.086 227.957,423.586 227.5,424C 229.519,424.45 231.352,425.283 233,426.5C 233.278,425.584 233.778,424.918 234.5,424.5C 234.201,426.604 234.534,428.604 235.5,430.5C 236.333,429.5 237.167,428.5 238,427.5C 243.161,429.652 243.328,431.319 238.5,432.5C 238.649,431.448 238.483,430.448 238,429.5C 234.265,437.257 236.432,439.924 244.5,437.5C 247.076,438.883 246.742,439.717 243.5,440C 245.612,441.217 245.279,442.383 242.5,443.5C 241.504,443.586 240.671,443.252 240,442.5C 238.221,445.276 237.221,444.943 237,441.5C 236.333,442.167 235.667,442.833 235,443.5C 233.817,442.269 232.651,442.269 231.5,443.5C 233.542,444.503 233.875,445.837 232.5,447.5C 233.167,447.833 233.833,448.167 234.5,448.5C 236.972,447.008 239.639,446.342 242.5,446.5C 242.5,447.5 242.5,448.5 242.5,449.5C 238.821,449.724 235.154,450.058 231.5,450.5C 227.833,450.5 224.167,450.5 220.5,450.5C 219.737,449.732 218.737,449.232 217.5,449C 221.669,449.328 224.336,447.495 225.5,443.5C 223.658,443.287 221.992,443.287 220.5,443.5C 218.128,441.588 218.795,440.422 222.5,440C 221.518,436.444 222.684,433.61 226,431.5C 226.667,432.5 226.667,433.5 226,434.5C 222.376,437.438 222.876,438.604 227.5,438C 226.549,437.282 226.383,436.449 227,435.5C 228.5,434 230,432.5 231.5,431C 230.663,429.989 230.33,428.822 230.5,427.5C 227.91,427.396 225.577,428.063 223.5,429.5C 221.803,429.101 220.137,428.601 218.5,428C 219.634,426.984 219.301,426.317 217.5,426C 219.281,423.763 221.281,421.763 223.5,420C 221.543,418.254 220.543,416.088 220.5,413.5C 219.127,413.657 217.793,413.49 216.5,413C 217.949,411.898 219.282,410.731 220.5,409.5 Z"/></g>
<g><path style="opacity:0.893" fill="#b9b7b3" d="M 367.5,424.5 C 370.698,423.964 373.365,424.631 375.5,426.5C 373.143,426.337 370.81,426.503 368.5,427C 370.58,431.577 373.58,435.41 377.5,438.5C 378.15,436.816 379.15,435.483 380.5,434.5C 382.951,432.877 384.951,430.711 386.5,428C 387.448,427.517 388.448,427.351 389.5,427.5C 390.338,427.842 390.672,428.508 390.5,429.5C 390.665,433.182 390.499,436.848 390,440.5C 389.005,441.066 388.172,441.733 387.5,442.5C 383.014,442.968 378.681,443.968 374.5,445.5C 370.167,445.5 365.833,445.5 361.5,445.5C 357.833,444.833 354.167,444.167 350.5,443.5C 346.684,442.49 343.851,440.157 342,436.5C 341.501,431.845 341.334,427.179 341.5,422.5C 343.379,422.607 343.712,422.107 342.5,421C 344.037,419.89 344.703,418.39 344.5,416.5C 346.942,416.119 347.609,416.786 346.5,418.5C 349.846,420.397 352.846,422.73 355.5,425.5C 354.833,426.167 354.167,426.833 353.5,427.5C 354,427.833 354.5,428.167 355,428.5C 359.561,427.916 363.728,426.583 367.5,424.5 Z"/></g>
<g><path style="opacity:0.913" fill="#989492" d="M 355.5,431.5 C 357.96,431.699 360.293,432.365 362.5,433.5C 359.5,435.833 356.833,438.5 354.5,441.5C 352.025,439.23 350.025,436.563 348.5,433.5C 350.969,432.832 353.302,432.165 355.5,431.5 Z"/></g>
<g><path style="opacity:0.588" fill="#979087" d="M 242.5,443.5 C 242.577,444.75 243.244,445.583 244.5,446C 246.473,446.495 248.473,446.662 250.5,446.5C 249.5,447.167 248.5,447.833 247.5,448.5C 245.784,448.629 244.117,448.962 242.5,449.5C 242.5,448.5 242.5,447.5 242.5,446.5C 239.639,446.342 236.972,447.008 234.5,448.5C 233.833,448.167 233.167,447.833 232.5,447.5C 233.875,445.837 233.542,444.503 231.5,443.5C 232.651,442.269 233.817,442.269 235,443.5C 235.667,442.833 236.333,442.167 237,441.5C 237.221,444.943 238.221,445.276 240,442.5C 240.671,443.252 241.504,443.586 242.5,443.5 Z"/></g>
<g><path style="opacity:0.873" fill="#201b1a" d="M 350.5,443.5 C 354.167,444.167 357.833,444.833 361.5,445.5C 361.5,447.5 361.5,449.5 361.5,451.5C 360.5,451.5 359.5,451.5 358.5,451.5C 358.5,450.167 358.5,448.833 358.5,447.5C 357.5,447.5 356.5,447.5 355.5,447.5C 355.5,448.833 355.5,450.167 355.5,451.5C 354.167,451.5 352.833,451.5 351.5,451.5C 351.659,445.614 350.326,445.114 347.5,450C 346.552,450.483 345.552,450.649 344.5,450.5C 345.054,446.945 347.054,444.612 350.5,443.5 Z"/></g>
<g><path style="opacity:0.795" fill="#231e1c" d="M 387.5,442.5 C 391.17,443.193 392.17,445.193 390.5,448.5C 389.305,446.703 387.638,445.703 385.5,445.5C 385.5,446.833 385.5,448.167 385.5,449.5C 383.088,449.756 381.421,448.756 380.5,446.5C 379.548,448.045 379.215,449.712 379.5,451.5C 375.515,451.56 373.848,449.56 374.5,445.5C 378.681,443.968 383.014,442.968 387.5,442.5 Z"/></g>
<g><path style="opacity:0.795" fill="#27201c" d="M 247.5,448.5 C 250.135,450.339 251.468,453.006 251.5,456.5C 249.94,456.519 248.44,456.852 247,457.5C 246.228,457.355 245.561,457.022 245,456.5C 244.667,455.167 244.333,453.833 244,452.5C 242.989,453.337 241.822,453.67 240.5,453.5C 240.808,455.924 240.474,458.257 239.5,460.5C 237.629,461.767 235.796,461.767 234,460.5C 233.503,458.19 233.337,455.857 233.5,453.5C 230.43,454.243 228.764,456.243 228.5,459.5C 226.856,459.714 225.356,459.38 224,458.5C 223.503,456.19 223.337,453.857 223.5,451.5C 226.385,451.806 229.052,451.473 231.5,450.5C 235.154,450.058 238.821,449.724 242.5,449.5C 244.117,448.962 245.784,448.629 247.5,448.5 Z"/></g>
<g><path style="opacity:0.91" fill="#211c1a" d="M 150.5,446.5 C 155.008,448.126 159.675,449.126 164.5,449.5C 167.625,450.479 170.958,450.813 174.5,450.5C 174.784,453.777 174.451,456.943 173.5,460C 172.004,460.507 170.837,460.007 170,458.5C 169.506,456.866 169.34,455.199 169.5,453.5C 167.5,453.5 165.5,453.5 163.5,453.5C 164.167,457.5 162.5,459.167 158.5,458.5C 158.5,456.167 158.5,453.833 158.5,451.5C 154.651,451.502 151.985,453.335 150.5,457C 148.397,457.251 147.063,456.251 146.5,454C 147.673,451.35 149.006,448.85 150.5,446.5 Z"/></g>
</svg>
