<?xml version="1.0" encoding="UTF-8"?>
<!DOCTYPE svg PUBLIC "-//W3C//DTD SVG 1.1//EN" "http://www.w3.org/Graphics/SVG/1.1/DTD/svg11.dtd">
<svg xmlns="http://www.w3.org/2000/svg" version="1.1" width="64px" height="64px" style="shape-rendering:geometricPrecision; text-rendering:geometricPrecision; image-rendering:optimizeQuality; fill-rule:evenodd; clip-rule:evenodd" xmlns:xlink="http://www.w3.org/1999/xlink">
<g><path style="opacity:0.01" fill="#000000" d="M 27.5,13.5 C 27.3505,12.448 27.5172,11.448 28,10.5C 28.7401,11.7494 28.5735,12.7494 27.5,13.5 Z"/></g>
<g><path style="opacity:0.71" fill="#050502" d="M 27.5,13.5 C 27.3505,14.552 27.5172,15.552 28,16.5C 30.0413,15.2478 32.3746,14.5812 35,14.5C 37.1667,14.6667 39.3333,14.8333 41.5,15C 25.5,15.6667 25.5,16.3333 41.5,17C 42.056,17.3826 42.3893,17.8826 42.5,18.5C 41.8333,18.5 41.5,18.8333 41.5,19.5C 40.1667,19.8333 40.1667,20.1667 41.5,20.5C 42.6567,23.984 43.99,27.3173 45.5,30.5C 45.3505,31.552 45.5172,32.552 46,33.5C 48.0413,32.2478 50.3746,31.5812 53,31.5C 55.1667,31.6667 57.3333,31.8333 59.5,32C 43.5,32.6667 43.5,33.3333 59.5,34C 60.056,34.3826 60.3893,34.8826 60.5,35.5C 59.8333,35.5 59.5,35.8333 59.5,36.5C 58.8333,36.5 58.5,36.8333 58.5,37.5C 57.8333,37.5 57.5,37.8333 57.5,38.5C 56.8333,38.5 56.5,38.8333 56.5,39.5C 55.8333,39.5 55.5,39.8333 55.5,40.5C 54.8333,40.5 54.5,40.8333 54.5,41.5C 53.8333,41.5 53.5,41.8333 53.5,42.5C 52.8333,42.5 52.5,42.8333 52.5,43.5C 51.8333,43.5 51.5,43.8333 51.5,44.5C 50.8333,44.5 50.5,44.8333 50.5,45.5C 49.1667,45.8333 49.1667,46.1667 50.5,46.5C 50.4021,48.5529 51.0687,50.2196 52.5,51.5C 52.2627,52.791 52.596,53.791 53.5,54.5C 53.2627,55.791 53.596,56.791 54.5,57.5C 53.7659,58.7079 53.4326,60.0413 53.5,61.5C 52.448,61.6495 51.448,61.4828 50.5,61C 51.6039,59.8687 51.2705,59.0354 49.5,58.5C 46.1748,59.0298 43.1748,58.0298 40.5,55.5C 38.0901,57.3716 35.4234,58.705 32.5,59.5C 31.8333,58.1667 31.1667,58.1667 30.5,59.5C 29.1667,59.8333 29.1667,60.1667 30.5,60.5C 29.791,61.404 28.791,61.7373 27.5,61.5C 27.5674,60.0413 27.2341,58.7079 26.5,57.5C 27.404,56.791 27.7373,55.791 27.5,54.5C 28.404,53.791 28.7373,52.791 28.5,51.5C 29.7709,49.8914 30.7709,48.0581 31.5,46C 29,43.5 26.5,41 24,38.5C 21.5501,39.6422 19.0501,40.6422 16.5,41.5C 15.8333,40.1667 15.1667,40.1667 14.5,41.5C 13.1667,41.8333 13.1667,42.1667 14.5,42.5C 14.1583,43.3382 13.4916,43.6716 12.5,43.5C 12.1667,42.1667 11.8333,42.1667 11.5,43.5C 10.8333,43.5 10.5,43.8333 10.5,44.5C 9.32627,43.4863 8.6596,42.153 8.5,40.5C 9.40397,39.791 9.73731,38.791 9.5,37.5C 10.9313,36.2196 11.5979,34.5529 11.5,32.5C 12.404,31.791 12.7373,30.791 12.5,29.5C 13.8333,29.1667 13.8333,28.8333 12.5,28.5C 12.5,27.8333 12.1667,27.5 11.5,27.5C 8.70436,24.2026 5.70436,21.0359 2.5,18C 6.64907,16.7313 10.9824,16.0646 15.5,16C 11.5,15.6667 7.5,15.3333 3.5,15C 5.66667,14.8333 7.83333,14.6667 10,14.5C 12.6254,14.5812 14.9587,15.2478 17,16.5C 18.5411,11.3753 20.3744,6.37527 22.5,1.5C 24.1898,5.59063 25.8564,9.59063 27.5,13.5 Z M 37.5,23.5 C 37.7678,25.099 37.4345,26.4324 36.5,27.5C 36.6716,26.5084 36.3382,25.8417 35.5,25.5C 35.8333,24.5 36.5,23.8333 37.5,23.5 Z M 35.5,30.5 C 35.719,31.675 35.3857,32.675 34.5,33.5C 33.8933,33.3764 33.56,33.0431 33.5,32.5C 34.1667,31.8333 34.8333,31.1667 35.5,30.5 Z"/></g>
<g><path style="opacity:0.004" fill="#000000" d="M 43.5,17.5 C 44.8333,18.1667 44.8333,18.1667 43.5,17.5 Z"/></g>
<g><path style="opacity:0.984" fill="#797434" d="M 19.5,18.5 C 15.8333,19.1667 12.1667,19.8333 8.5,20.5C 7.95691,20.44 7.62358,20.1067 7.5,19.5C 11.4454,18.5091 15.4454,18.1758 19.5,18.5 Z"/></g>
<g><path style="opacity:1" fill="#e7dd63" d="M 25.5,18.5 C 29.1667,19.1667 32.8333,19.8333 36.5,20.5C 34.5389,22.9635 32.3722,25.2968 30,27.5C 29.9822,29.7972 30.1489,32.1305 30.5,34.5C 23.832,33.4095 17.9986,35.0762 13,39.5C 13.1843,35.9255 14.0177,32.4255 15.5,29C 13.3459,26.0132 11.0125,23.1798 8.5,20.5C 12.1667,19.8333 15.8333,19.1667 19.5,18.5C 21.5,5.16667 23.5,5.16667 25.5,18.5 Z"/></g>
<g><path style="opacity:0.984" fill="#797434" d="M 25.5,18.5 C 29.5546,18.1758 33.5546,18.5091 37.5,19.5C 37.3764,20.1067 37.0431,20.44 36.5,20.5C 32.8333,19.8333 29.1667,19.1667 25.5,18.5 Z"/></g>
<g><path style="opacity:0.008" fill="#000000" d="M 42.5,18.5 C 42.8333,18.5 43.1667,18.5 43.5,18.5C 43.3147,19.1701 42.9813,19.1701 42.5,18.5 Z"/></g>
<g><path style="opacity:0.004" fill="#000000" d="M 41.5,19.5 C 41.8333,19.5 42.1667,19.5 42.5,19.5C 42.3147,20.1701 41.9813,20.1701 41.5,19.5 Z"/></g>
<g><path style="opacity:0.012" fill="#000000" d="M 43.5,21.5 C 44.525,21.8966 44.6917,22.5632 44,23.5C 43.5357,22.9056 43.369,22.2389 43.5,21.5 Z"/></g>
<g><path style="opacity:0.012" fill="#000000" d="M 35.5,25.5 C 36.3382,25.8417 36.6716,26.5084 36.5,27.5C 35.596,28.209 35.2627,29.209 35.5,30.5C 34.8333,31.1667 34.1667,31.8333 33.5,32.5C 33.7373,31.209 33.404,30.209 32.5,29.5C 32.5,29.1667 32.5,28.8333 32.5,28.5C 33.1667,28.5 33.5,28.1667 33.5,27.5C 34.1667,27.5 34.5,27.1667 34.5,26.5C 35.1667,26.5 35.5,26.1667 35.5,25.5 Z"/></g>
<g><path style="opacity:0.008" fill="#000000" d="M 11.5,27.5 C 12.1667,27.5 12.5,27.8333 12.5,28.5C 12.5,28.8333 12.5,29.1667 12.5,29.5C 11.596,30.209 11.2627,31.209 11.5,32.5C 11.1667,32.5 10.8333,32.5 10.5,32.5C 10.2155,30.5853 10.5489,28.9187 11.5,27.5 Z"/></g>
<g><path style="opacity:0.009" fill="#000000" d="M 45.5,30.5 C 45.3505,29.448 45.5172,28.448 46,27.5C 46.7401,28.7494 46.5735,29.7494 45.5,30.5 Z"/></g>
<g><path style="opacity:0.01" fill="#000000" d="M 10.5,32.5 C 10.631,33.2389 10.4643,33.9056 10,34.5C 9.30831,33.5632 9.47498,32.8966 10.5,32.5 Z"/></g>
<g><path style="opacity:0.004" fill="#000000" d="M 61.5,34.5 C 62.8333,35.1667 62.8333,35.1667 61.5,34.5 Z"/></g>
<g><path style="opacity:0.012" fill="#000000" d="M 9.5,37.5 C 8.47498,37.1034 8.30831,36.4368 9,35.5C 9.46434,36.0944 9.63101,36.7611 9.5,37.5 Z"/></g>
<g><path style="opacity:1" fill="#87813a" d="M 37.5,35.5 C 33.8333,36.1667 30.1667,36.8333 26.5,37.5C 25.9569,37.44 25.6236,37.1067 25.5,36.5C 29.4454,35.5091 33.4454,35.1758 37.5,35.5 Z"/></g>
<g><path style="opacity:1" fill="#e8df64" d="M 43.5,35.5 C 47.1667,36.1667 50.8333,36.8333 54.5,37.5C 51.9875,40.1798 49.6541,43.0132 47.5,46C 48.9823,49.4255 49.8157,52.9255 50,56.5C 43.6667,49.8333 37.3333,49.8333 31,56.5C 31.1843,52.9255 32.0177,49.4255 33.5,46C 31.3459,43.0132 29.0125,40.1798 26.5,37.5C 30.1667,36.8333 33.8333,36.1667 37.5,35.5C 39.5,22.1667 41.5,22.1667 43.5,35.5 Z"/></g>
<g><path style="opacity:0.984" fill="#857f39" d="M 43.5,35.5 C 47.5546,35.1758 51.5546,35.5091 55.5,36.5C 55.3764,37.1067 55.0431,37.44 54.5,37.5C 50.8333,36.8333 47.1667,36.1667 43.5,35.5 Z"/></g>
<g><path style="opacity:0.008" fill="#000000" d="M 60.5,35.5 C 60.8333,35.5 61.1667,35.5 61.5,35.5C 61.3147,36.1701 60.9813,36.1701 60.5,35.5 Z"/></g>
<g><path style="opacity:0.008" fill="#000000" d="M 59.5,36.5 C 59.8333,36.5 60.1667,36.5 60.5,36.5C 60.3147,37.1701 59.9813,37.1701 59.5,36.5 Z"/></g>
<g><path style="opacity:0.016" fill="#000000" d="M 58.5,37.5 C 58.8333,37.5 59.1667,37.5 59.5,37.5C 59.3147,38.1701 58.9813,38.1701 58.5,37.5 Z"/></g>
<g><path style="opacity:0.012" fill="#000000" d="M 8.5,40.5 C 7.47498,40.1034 7.30831,39.4368 8,38.5C 8.46434,39.0944 8.63101,39.7611 8.5,40.5 Z"/></g>
<g><path style="opacity:0.016" fill="#000100" d="M 57.5,38.5 C 57.8333,38.5 58.1667,38.5 58.5,38.5C 58.3147,39.1701 57.9813,39.1701 57.5,38.5 Z"/></g>
<g><path style="opacity:0.016" fill="#000100" d="M 56.5,39.5 C 56.8333,39.5 57.1667,39.5 57.5,39.5C 57.3147,40.1701 56.9813,40.1701 56.5,39.5 Z"/></g>
<g><path style="opacity:0.016" fill="#000100" d="M 55.5,40.5 C 55.8333,40.5 56.1667,40.5 56.5,40.5C 56.3147,41.1701 55.9813,41.1701 55.5,40.5 Z"/></g>
<g><path style="opacity:0.008" fill="#000000" d="M 14.5,42.5 C 14.5,42.1667 14.5,41.8333 14.5,41.5C 15.1667,41.5 15.8333,41.5 16.5,41.5C 16.1583,42.3382 15.4916,42.6716 14.5,42.5 Z"/></g>
<g><path style="opacity:0.016" fill="#000100" d="M 54.5,41.5 C 54.8333,41.5 55.1667,41.5 55.5,41.5C 55.3147,42.1701 54.9813,42.1701 54.5,41.5 Z"/></g>
<g><path style="opacity:0.016" fill="#000100" d="M 53.5,42.5 C 53.8333,42.5 54.1667,42.5 54.5,42.5C 54.3147,43.1701 53.9813,43.1701 53.5,42.5 Z"/></g>
<g><path style="opacity:0.012" fill="#000000" d="M 11.5,43.5 C 11.8333,43.5 12.1667,43.5 12.5,43.5C 12.3147,44.1701 11.9813,44.1701 11.5,43.5 Z"/></g>
<g><path style="opacity:0.016" fill="#000100" d="M 52.5,43.5 C 52.8333,43.5 53.1667,43.5 53.5,43.5C 53.3147,44.1701 52.9813,44.1701 52.5,43.5 Z"/></g>
<g><path style="opacity:0.004" fill="#000000" d="M 10.5,44.5 C 10.8333,44.5 11.1667,44.5 11.5,44.5C 11.3147,45.1701 10.9813,45.1701 10.5,44.5 Z"/></g>
<g><path style="opacity:0.009" fill="#000000" d="M 51.5,44.5 C 51.8333,44.5 52.1667,44.5 52.5,44.5C 52.6567,45.8734 52.49,47.2068 52,48.5C 51.7216,47.5842 51.2216,46.9175 50.5,46.5C 50.5,46.1667 50.5,45.8333 50.5,45.5C 51.1667,45.5 51.5,45.1667 51.5,44.5 Z"/></g>
<g><path style="opacity:0.01" fill="#000000" d="M 28.5,46.5 C 29.525,46.8966 29.6917,47.5632 29,48.5C 28.5357,47.9056 28.369,47.2389 28.5,46.5 Z"/></g>
<g><path style="opacity:0.012" fill="#000000" d="M 28.5,51.5 C 27.475,51.1034 27.3083,50.4368 28,49.5C 28.4643,50.0944 28.631,50.7611 28.5,51.5 Z"/></g>
<g><path style="opacity:0.012" fill="#000000" d="M 52.5,51.5 C 52.369,50.7611 52.5357,50.0944 53,49.5C 53.6917,50.4368 53.525,51.1034 52.5,51.5 Z"/></g>
<g><path style="opacity:0.012" fill="#000000" d="M 27.5,54.5 C 26.475,54.1034 26.3083,53.4368 27,52.5C 27.4643,53.0944 27.631,53.7611 27.5,54.5 Z"/></g>
<g><path style="opacity:0.012" fill="#000000" d="M 53.5,54.5 C 53.369,53.7611 53.5357,53.0944 54,52.5C 54.6917,53.4368 54.525,54.1034 53.5,54.5 Z"/></g>
<g><path style="opacity:0.012" fill="#000000" d="M 26.5,57.5 C 26.1667,57.5 25.8333,57.5 25.5,57.5C 25.8333,54.8333 26.1667,54.8333 26.5,57.5 Z"/></g>
<g><path style="opacity:0.012" fill="#000000" d="M 55.5,57.5 C 55.1667,57.5 54.8333,57.5 54.5,57.5C 54.8333,54.8333 55.1667,54.8333 55.5,57.5 Z"/></g>
<g><path style="opacity:0.004" fill="#000000" d="M 25.5,57.5 C 24.8333,58.1667 24.8333,58.1667 25.5,57.5 Z"/></g>
<g><path style="opacity:0.004" fill="#000000" d="M 55.5,57.5 C 56.8333,58.1667 56.8333,58.1667 55.5,57.5 Z"/></g>
<g><path style="opacity:0.008" fill="#000000" d="M 30.5,60.5 C 30.5,60.1667 30.5,59.8333 30.5,59.5C 31.1667,59.5 31.8333,59.5 32.5,59.5C 32.1583,60.3382 31.4916,60.6716 30.5,60.5 Z"/></g>
</svg>
