<?xml version="1.0" encoding="UTF-8"?>
<!DOCTYPE svg PUBLIC "-//W3C//DTD SVG 1.1//EN" "http://www.w3.org/Graphics/SVG/1.1/DTD/svg11.dtd">
<svg xmlns="http://www.w3.org/2000/svg" version="1.1" width="200px" height="200px" style="shape-rendering:geometricPrecision; text-rendering:geometricPrecision; image-rendering:optimizeQuality; fill-rule:evenodd; clip-rule:evenodd" xmlns:xlink="http://www.w3.org/1999/xlink">
<g><path style="opacity:1" fill="#0f0e0b" d="M 81.5,128.5 C 82.2891,128.217 82.9558,127.717 83.5,127C 65.1697,126.5 46.8364,126.333 28.5,126.5C 27.4017,125.399 27.235,124.066 28,122.5C 51.222,100.423 74.0553,77.7568 96.5,54.5C 97.2891,54.2172 97.9558,53.7172 98.5,53C 90.5069,52.5003 82.5069,52.3336 74.5,52.5C 64.2439,44.252 54.2439,35.5853 44.5,26.5C 43.2404,24.6471 43.2404,22.8138 44.5,21C 88.1654,20.5 131.832,20.3333 175.5,20.5C 175.667,53.835 175.5,87.1683 175,120.5C 173.951,121.517 172.784,121.684 171.5,121C 166.667,116.833 161.833,112.667 157,108.5C 132.5,134.333 108,160.167 83.5,186C 65.8333,186.667 48.1667,186.667 30.5,186C 29.6433,185.311 28.9767,184.478 28.5,183.5C 45.8517,164.816 63.5184,146.483 81.5,128.5 Z M 138.5,64.5 C 140.167,64.5 141.833,64.5 143.5,64.5C 143.176,71.3543 143.509,78.021 144.5,84.5C 144.5,86.8333 144.5,89.1667 144.5,91.5C 134.652,91.8271 124.986,91.4938 115.5,90.5C 123.167,81.8333 130.833,73.1667 138.5,64.5 Z"/></g>
<g><path style="opacity:1" fill="#fbfb0f" d="M 162.5,100.5 C 159.25,98.7567 156.416,96.4234 154,93.5C 153.5,80.5043 153.333,67.5043 153.5,54.5C 147.158,54.3338 140.825,54.5005 134.5,55C 118.6,70.398 103.267,86.2313 88.5,102.5C 107.023,102.837 125.356,103.837 143.5,105.5C 121.007,128.16 98.6733,150.994 76.5,174C 68.1667,174.667 59.8333,174.667 51.5,174C 70.395,154.938 89.395,136.104 108.5,117.5C 109.043,117.44 109.376,117.107 109.5,116.5C 90.1782,115.5 70.8448,115.167 51.5,115.5C 72.8878,93.7797 94.2212,72.113 115.5,50.5C 117.928,48.9565 120.594,47.9565 123.5,47.5C 123.5,45.5 123.5,43.5 123.5,41.5C 108.833,41.5 94.1667,41.5 79.5,41.5C 75.8333,38.8333 72.1667,36.1667 68.5,33.5C 100.149,31.5073 132.149,30.8406 164.5,31.5C 165.156,54.8576 164.49,77.8576 162.5,100.5 Z M 138.5,64.5 C 140.167,64.5 141.833,64.5 143.5,64.5C 143.176,71.3543 143.509,78.021 144.5,84.5C 144.5,86.8333 144.5,89.1667 144.5,91.5C 134.652,91.8271 124.986,91.4938 115.5,90.5C 123.167,81.8333 130.833,73.1667 138.5,64.5 Z"/></g>
<g><path style="opacity:1" fill="#f5f53a" d="M 162.5,100.5 C 164.49,77.8576 165.156,54.8576 164.5,31.5C 132.149,30.8406 100.149,31.5073 68.5,33.5C 67.3734,32.8783 66.3734,32.045 65.5,31C 98.8317,30.5 132.165,30.3333 165.5,30.5C 165.667,54.8356 165.5,79.1689 165,103.5C 163.955,102.627 163.122,101.627 162.5,100.5 Z"/></g>
<g><path style="opacity:1" fill="#eff040" d="M 79.5,41.5 C 94.1667,41.5 108.833,41.5 123.5,41.5C 123.5,43.5 123.5,45.5 123.5,47.5C 120.594,47.9565 117.928,48.9565 115.5,50.5C 117.167,48.1667 119.167,46.1667 121.5,44.5C 122.043,44.44 122.376,44.1067 122.5,43.5C 108.85,42.5008 95.1829,42.1675 81.5,42.5C 80.5084,42.6716 79.8417,42.3382 79.5,41.5 Z"/></g>
<g><path style="opacity:1" fill="#393b00" d="M 81.5,42.5 C 95.1829,42.1675 108.85,42.5008 122.5,43.5C 122.376,44.1067 122.043,44.44 121.5,44.5C 108.167,43.8333 94.8333,43.1667 81.5,42.5 Z"/></g>
<g><path style="opacity:1" fill="#cbcbcb" d="M 74.5,52.5 C 82.5069,52.3336 90.5069,52.5003 98.5,53C 97.9558,53.7172 97.2891,54.2172 96.5,54.5C 89.1667,53.8333 81.8333,53.1667 74.5,52.5 Z"/></g>
<g><path style="opacity:1" fill="#b5b5b5" d="M 138.5,64.5 C 140.265,63.5386 142.265,63.2053 144.5,63.5C 144.5,70.5 144.5,77.5 144.5,84.5C 143.509,78.021 143.176,71.3543 143.5,64.5C 141.833,64.5 140.167,64.5 138.5,64.5 Z"/></g>
<g><path style="opacity:1" fill="#9a9a9a" d="M 115.5,90.5 C 124.986,91.4938 134.652,91.8271 144.5,91.5C 134.342,92.6585 124.008,92.8252 113.5,92C 114.044,91.2828 114.711,90.7828 115.5,90.5 Z"/></g>
<g><path style="opacity:1" fill="#ebed62" d="M 88.5,102.5 C 107.512,102.167 126.512,102.5 145.5,103.5C 145.145,104.522 144.478,105.189 143.5,105.5C 125.356,103.837 107.023,102.837 88.5,102.5 Z"/></g>
<g><path style="opacity:1" fill="#666308" d="M 51.5,115.5 C 70.8448,115.167 90.1782,115.5 109.5,116.5C 109.376,117.107 109.043,117.44 108.5,117.5C 89.5,116.833 70.5,116.167 51.5,115.5 Z"/></g>
<g><path style="opacity:1" fill="#999999" d="M 28.5,126.5 C 46.8364,126.333 65.1697,126.5 83.5,127C 82.9558,127.717 82.2891,128.217 81.5,128.5C 63.8333,127.833 46.1667,127.167 28.5,126.5 Z"/></g>
</svg>
