<?xml version="1.0" encoding="UTF-8"?>
<!DOCTYPE svg PUBLIC "-//W3C//DTD SVG 1.1//EN" "http://www.w3.org/Graphics/SVG/1.1/DTD/svg11.dtd">
<svg xmlns="http://www.w3.org/2000/svg" version="1.1" width="200px" height="200px" style="shape-rendering:geometricPrecision; text-rendering:geometricPrecision; image-rendering:optimizeQuality; fill-rule:evenodd; clip-rule:evenodd" xmlns:xlink="http://www.w3.org/1999/xlink">
<g><path style="opacity:1" fill="#0f0b0a" d="M 116.5,30.5 C 124.174,30.3336 131.841,30.5003 139.5,31C 144.495,31.6239 149.328,32.7906 154,34.5C 154.552,37.4192 153.885,40.0859 152,42.5C 142.244,52.532 133.077,63.032 124.5,74C 136.599,79.021 144.433,87.8543 148,100.5C 154.227,123.437 148.727,142.937 131.5,159C 126.058,163.054 120.058,166.054 113.5,168C 101.558,169.581 89.5578,169.915 77.5,169C 43.551,162.394 27.7177,141.894 30,107.5C 36.491,73.6676 55.991,50.8342 88.5,39C 97.7657,35.5231 107.099,32.6898 116.5,30.5 Z"/></g>
<g><path style="opacity:1" fill="#a23c16" d="M 137.5,41.5 C 132.156,41.334 126.823,41.5006 121.5,42C 114.826,43.2787 108.16,44.4454 101.5,45.5C 113.16,40.783 125.16,39.4497 137.5,41.5 Z"/></g>
<g><path style="opacity:1" fill="#fb4803" d="M 137.5,41.5 C 139.028,41.5173 139.528,42.184 139,43.5C 135.034,46.464 131.367,49.7974 128,53.5C 122.279,59.0521 117.112,65.0521 112.5,71.5C 111.25,71.5774 110.417,72.244 110,73.5C 109.667,73.1667 109.333,72.8333 109,72.5C 108.333,75.5 108.333,78.5 109,81.5C 111.041,82.4231 113.208,82.7564 115.5,82.5C 122.616,84.6138 127.949,88.9471 131.5,95.5C 131.562,98.753 132.396,101.753 134,104.5C 134.968,114.942 134.468,125.275 132.5,135.5C 131.306,139.363 128.973,142.363 125.5,144.5C 124.5,144.5 123.5,144.5 122.5,144.5C 122.832,133.48 122.499,122.48 121.5,111.5C 120.097,109.43 118.43,107.763 116.5,106.5C 111.252,102.211 105.252,99.5441 98.5,98.5C 92.6812,97.3475 86.6812,97.1808 80.5,98C 79.944,98.3826 79.6107,98.8826 79.5,99.5C 64.438,103.614 59.2714,113.28 64,128.5C 68.4205,138.988 76.2538,142.821 87.5,140C 90.079,138.924 91.7457,137.091 92.5,134.5C 93.4345,133.432 93.7678,132.099 93.5,130.5C 89.8333,130.5 86.1667,130.5 82.5,130.5C 79.9879,128.763 78.9879,126.263 79.5,123C 78.7906,119.065 80.124,116.065 83.5,114C 88.8333,113.333 94.1667,113.333 99.5,114C 101.196,115.176 102.862,116.343 104.5,117.5C 105.404,121.955 106.071,126.455 106.5,131C 105.145,139.448 104.478,147.948 104.5,156.5C 97.6215,158.156 90.6215,158.656 83.5,158C 78.258,157.295 73.758,155.128 70,151.5C 68.6124,152.554 67.1124,152.72 65.5,152C 63.0273,149.453 60.0273,147.953 56.5,147.5C 55.1667,146.833 54.1667,145.833 53.5,144.5C 53.0046,142.518 52.5046,140.518 52,138.5C 48.4343,135.65 46.101,131.984 45,127.5C 44.5002,118.84 44.3336,110.173 44.5,101.5C 44.5,101.167 44.5,100.833 44.5,100.5C 46.554,97.9924 47.554,94.9924 47.5,91.5C 47.5,91.1667 47.5,90.8333 47.5,90.5C 48.5,90.5 49.5,90.5 50.5,90.5C 50.448,88.0971 50.7814,85.7638 51.5,83.5C 51.3284,82.5084 51.6618,81.8417 52.5,81.5C 58.0739,74.2557 64.4072,67.589 71.5,61.5C 73.1475,59.6736 75.1475,58.3403 77.5,57.5C 79.8477,57.4077 81.5144,56.4077 82.5,54.5C 88.4007,50.7176 94.734,47.7176 101.5,45.5C 108.16,44.4454 114.826,43.2787 121.5,42C 126.823,41.5006 132.156,41.334 137.5,41.5 Z"/></g>
<g><path style="opacity:1" fill="#b03e19" d="M 82.5,54.5 C 81.5144,56.4077 79.8477,57.4077 77.5,57.5C 78.6594,55.7497 80.326,54.7497 82.5,54.5 Z"/></g>
<g><path style="opacity:1" fill="#ae4018" d="M 71.5,61.5 C 64.4072,67.589 58.0739,74.2557 52.5,81.5C 56.7806,72.886 63.1139,66.2194 71.5,61.5 Z"/></g>
<g><path style="opacity:1" fill="#d54913" d="M 112.5,71.5 C 110.904,74.3137 110.404,77.3137 111,80.5C 112.622,81.0989 114.122,81.7656 115.5,82.5C 113.208,82.7564 111.041,82.4231 109,81.5C 108.333,78.5 108.333,75.5 109,72.5C 109.333,72.8333 109.667,73.1667 110,73.5C 110.417,72.244 111.25,71.5774 112.5,71.5 Z"/></g>
<g><path style="opacity:1" fill="#c54416" d="M 51.5,83.5 C 50.7814,85.7638 50.448,88.0971 50.5,90.5C 49.5,90.5 48.5,90.5 47.5,90.5C 48.0787,87.6689 49.412,85.3356 51.5,83.5 Z"/></g>
<g><path style="opacity:1" fill="#952b04" d="M 98.5,98.5 C 92.1308,98.347 85.7974,98.6803 79.5,99.5C 79.6107,98.8826 79.944,98.3826 80.5,98C 86.6812,97.1808 92.6812,97.3475 98.5,98.5 Z"/></g>
<g><path style="opacity:1" fill="#b54017" d="M 47.5,91.5 C 47.554,94.9924 46.554,97.9924 44.5,100.5C 44.5275,97.0836 45.5275,94.0836 47.5,91.5 Z"/></g>
<g><path style="opacity:1" fill="#561700" d="M 98.5,98.5 C 105.252,99.5441 111.252,102.211 116.5,106.5C 117.491,109.145 118.991,111.478 121,113.5C 121.97,124.248 121.47,134.914 119.5,145.5C 119.511,147.045 119.844,148.378 120.5,149.5C 116.428,153.701 111.428,156.035 105.5,156.5C 106.557,148.542 107.224,140.542 107.5,132.5C 107.333,128.833 107.167,125.167 107,121.5C 106.392,119.934 105.558,118.6 104.5,117.5C 102.862,116.343 101.196,115.176 99.5,114C 94.1667,113.333 88.8333,113.333 83.5,114C 80.124,116.065 78.7906,119.065 79.5,123C 78.9879,126.263 79.9879,128.763 82.5,130.5C 85.6248,131.479 88.9581,131.813 92.5,131.5C 92.5,132.5 92.5,133.5 92.5,134.5C 91.7457,137.091 90.079,138.924 87.5,140C 76.2538,142.821 68.4205,138.988 64,128.5C 59.2714,113.28 64.438,103.614 79.5,99.5C 85.7974,98.6803 92.1308,98.347 98.5,98.5 Z"/></g>
<g><path style="opacity:1" fill="#c84919" d="M 131.5,95.5 C 135.18,101.536 136.846,108.203 136.5,115.5C 136.373,120.538 135.873,125.538 135,130.5C 134.901,132.653 134.067,134.319 132.5,135.5C 134.468,125.275 134.968,114.942 134,104.5C 132.396,101.753 131.562,98.753 131.5,95.5 Z"/></g>
<g><path style="opacity:1" fill="#c44616" d="M 44.5,101.5 C 44.3336,110.173 44.5002,118.84 45,127.5C 46.101,131.984 48.4343,135.65 52,138.5C 52.5046,140.518 53.0046,142.518 53.5,144.5C 45.7423,136.583 42.0757,126.916 42.5,115.5C 42.421,110.588 43.0877,105.921 44.5,101.5 Z"/></g>
<g><path style="opacity:1" fill="#9d2801" d="M 82.5,130.5 C 86.1667,130.5 89.8333,130.5 93.5,130.5C 93.7678,132.099 93.4345,133.432 92.5,134.5C 92.5,133.5 92.5,132.5 92.5,131.5C 88.9581,131.813 85.6248,131.479 82.5,130.5 Z"/></g>
<g><path style="opacity:1" fill="#e04c14" d="M 116.5,106.5 C 118.43,107.763 120.097,109.43 121.5,111.5C 122.499,122.48 122.832,133.48 122.5,144.5C 123.5,144.5 124.5,144.5 125.5,144.5C 124.167,146.5 122.5,148.167 120.5,149.5C 119.844,148.378 119.511,147.045 119.5,145.5C 121.47,134.914 121.97,124.248 121,113.5C 118.991,111.478 117.491,109.145 116.5,106.5 Z"/></g>
<g><path style="opacity:1" fill="#d34812" d="M 104.5,117.5 C 105.558,118.6 106.392,119.934 107,121.5C 107.167,125.167 107.333,128.833 107.5,132.5C 107.224,140.542 106.557,148.542 105.5,156.5C 89.4587,161.841 74.1254,160.008 59.5,151C 58.2899,149.961 57.2899,148.794 56.5,147.5C 60.0273,147.953 63.0273,149.453 65.5,152C 67.1124,152.72 68.6124,152.554 70,151.5C 73.758,155.128 78.258,157.295 83.5,158C 90.6215,158.656 97.6215,158.156 104.5,156.5C 104.478,147.948 105.145,139.448 106.5,131C 106.071,126.455 105.404,121.955 104.5,117.5 Z"/></g>
</svg>
