<?xml version="1.0" encoding="UTF-8"?>
<!DOCTYPE svg PUBLIC "-//W3C//DTD SVG 1.1//EN" "http://www.w3.org/Graphics/SVG/1.1/DTD/svg11.dtd">
<svg xmlns="http://www.w3.org/2000/svg" version="1.1" width="51px" height="59px" style="shape-rendering:geometricPrecision; text-rendering:geometricPrecision; image-rendering:optimizeQuality; fill-rule:evenodd; clip-rule:evenodd" xmlns:xlink="http://www.w3.org/1999/xlink">
<g><path style="opacity:1" fill="#031103" d="M -0.5,-0.5 C 16.5,-0.5 33.5,-0.5 50.5,-0.5C 50.5,0.166667 50.5,0.833333 50.5,1.5C 46.8333,1.5 43.1667,1.5 39.5,1.5C 39.5,2.83333 39.5,4.16667 39.5,5.5C 27.8143,5.16775 16.1477,5.50109 4.5,6.5C 4.62358,7.10667 4.95691,7.44001 5.5,7.5C 5.5,8.16667 5.5,8.83333 5.5,9.5C 4.57683,8.69708 3.57683,8.53042 2.5,9C 3.81597,17.7737 3.81597,26.6071 2.5,35.5C 1.71237,36.7701 0.712371,37.7701 -0.5,38.5C -0.5,25.5 -0.5,12.5 -0.5,-0.5 Z"/></g>
<g><path style="opacity:1" fill="#011101" d="M 50.5,1.5 C 50.5,18.5 50.5,35.5 50.5,52.5C 48.9826,52.4894 47.8159,51.8228 47,50.5C 45.5341,52.3249 43.7008,52.8249 41.5,52C 44.8271,50.2092 45.1604,48.0425 42.5,45.5C 43.0253,44.8076 43.6919,44.3076 44.5,44C 43.6634,42.9887 43.33,41.8221 43.5,40.5C 43.5,39.1667 43.5,37.8333 43.5,36.5C 44.8229,26.6589 44.8229,16.6589 43.5,6.5C 42.8076,5.97473 42.3076,5.30806 42,4.5C 41.3292,5.25244 40.4959,5.58577 39.5,5.5C 39.5,4.16667 39.5,2.83333 39.5,1.5C 43.1667,1.5 46.8333,1.5 50.5,1.5 Z"/></g>
<g><path style="opacity:1" fill="#020700" d="M 43.5,36.5 C 43.8271,26.6522 43.4938,16.9856 42.5,7.5C 30.1667,7.5 17.8333,7.5 5.5,7.5C 4.95691,7.44001 4.62358,7.10667 4.5,6.5C 16.1477,5.50109 27.8143,5.16775 39.5,5.5C 40.4959,5.58577 41.3292,5.25244 42,4.5C 42.3076,5.30806 42.8076,5.97473 43.5,6.5C 44.8229,16.6589 44.8229,26.6589 43.5,36.5 Z"/></g>
<g><path style="opacity:1" fill="#535243" d="M 5.5,7.5 C 17.8333,7.5 30.1667,7.5 42.5,7.5C 42.5,7.83333 42.5,8.16667 42.5,8.5C 30.3217,8.17159 18.3217,8.50492 6.5,9.5C 6.5,19.1667 6.5,28.8333 6.5,38.5C 5.5062,29.0144 5.17287,19.3478 5.5,9.5C 5.5,8.83333 5.5,8.16667 5.5,7.5 Z"/></g>
<g><path style="opacity:1" fill="#624f3c" d="M 26.5,14.5 C 26.5,18.1667 26.5,21.8333 26.5,25.5C 29.5,25.5 32.5,25.5 35.5,25.5C 35.7845,27.4147 35.4511,29.0813 34.5,30.5C 31.8333,30.5 29.1667,30.5 26.5,30.5C 26.5,34.8333 26.5,39.1667 26.5,43.5C 25.1667,43.5 23.8333,43.5 22.5,43.5C 22.5,39.1667 22.5,34.8333 22.5,30.5C 19.5,30.5 16.5,30.5 13.5,30.5C 13.5,28.8333 13.5,27.1667 13.5,25.5C 16.5,25.5 19.5,25.5 22.5,25.5C 22.5,21.8333 22.5,18.1667 22.5,14.5C 23.8333,14.5 25.1667,14.5 26.5,14.5 Z"/></g>
<g><path style="opacity:1" fill="#98846c" d="M 10.5,11.5 C 19.8333,11.5 29.1667,11.5 38.5,11.5C 38.8264,20.3494 38.493,29.0161 37.5,37.5C 37.5,33.5 37.5,29.5 37.5,25.5C 37.797,21.2325 37.4637,17.0659 36.5,13C 28.1733,12.5003 19.84,12.3336 11.5,12.5C 11.6893,16.6404 12.3559,20.6404 13.5,24.5C 16.1667,24.5 18.8333,24.5 21.5,24.5C 21.5,20.8333 21.5,17.1667 21.5,13.5C 23.4147,13.2155 25.0813,13.5489 26.5,14.5C 25.1667,14.5 23.8333,14.5 22.5,14.5C 22.5,18.1667 22.5,21.8333 22.5,25.5C 19.5,25.5 16.5,25.5 13.5,25.5C 13.5,27.1667 13.5,28.8333 13.5,30.5C 16.5,30.5 19.5,30.5 22.5,30.5C 22.5,34.8333 22.5,39.1667 22.5,43.5C 22.172,39.3568 20.172,36.1902 16.5,34C 14.8988,33.7266 13.3988,33.2266 12,32.5C 11.5045,34.4727 11.3379,36.4727 11.5,38.5C 10.5067,29.6822 10.1734,20.6822 10.5,11.5 Z"/></g>
<g><path style="opacity:1" fill="#a08a6f" d="M 37.5,25.5 C 36.6909,27.2922 36.1909,29.2922 36,31.5C 34.3845,32.8009 32.8845,32.8009 31.5,31.5C 32.791,31.7373 33.791,31.404 34.5,30.5C 35.4511,29.0813 35.7845,27.4147 35.5,25.5C 32.5,25.5 29.5,25.5 26.5,25.5C 26.5,21.8333 26.5,18.1667 26.5,14.5C 25.0813,13.5489 23.4147,13.2155 21.5,13.5C 21.5,17.1667 21.5,20.8333 21.5,24.5C 18.8333,24.5 16.1667,24.5 13.5,24.5C 12.3559,20.6404 11.6893,16.6404 11.5,12.5C 19.84,12.3336 28.1733,12.5003 36.5,13C 37.4637,17.0659 37.797,21.2325 37.5,25.5 Z"/></g>
<g><path style="opacity:1" fill="#8c7862" d="M 34.5,30.5 C 33.791,31.404 32.791,31.7373 31.5,31.5C 30.1667,31.5 28.8333,31.5 27.5,31.5C 27.5,35.8333 27.5,40.1667 27.5,44.5C 25.5853,44.7845 23.9187,44.4511 22.5,43.5C 23.8333,43.5 25.1667,43.5 26.5,43.5C 26.5,39.1667 26.5,34.8333 26.5,30.5C 29.1667,30.5 31.8333,30.5 34.5,30.5 Z"/></g>
<g><path style="opacity:1" fill="#2c2d21" d="M 42.5,7.5 C 43.4938,16.9856 43.8271,26.6522 43.5,36.5C 43.5,37.8333 43.5,39.1667 43.5,40.5C 42.8333,40.5 42.1667,40.5 41.5,40.5C 42.4758,29.915 42.8091,19.2483 42.5,8.5C 42.5,8.16667 42.5,7.83333 42.5,7.5 Z"/></g>
<g><path style="opacity:1" fill="#7a6e5b" d="M 6.5,9.5 C 8.48324,9.15684 9.81658,9.82351 10.5,11.5C 10.1734,20.6822 10.5067,29.6822 11.5,38.5C 13.8062,41.4729 16.4728,44.1395 19.5,46.5C 23.0208,47.1663 26.6875,47.8329 30.5,48.5C 26.2044,49.3275 21.8711,49.8275 17.5,50C 22.4889,50.4993 27.4889,50.6659 32.5,50.5C 27.3197,51.8147 21.9864,51.8147 16.5,50.5C 16.1445,49.4777 15.4778,48.811 14.5,48.5C 11.8333,45.1667 9.16667,41.8333 6.5,38.5C 6.5,28.8333 6.5,19.1667 6.5,9.5 Z"/></g>
<g><path style="opacity:1" fill="#a08b70" d="M 37.5,25.5 C 37.5,29.5 37.5,33.5 37.5,37.5C 35.0011,40.1686 32.6677,43.0019 30.5,46C 26.8484,46.4986 23.1817,46.6653 19.5,46.5C 16.4728,44.1395 13.8062,41.4729 11.5,38.5C 11.3379,36.4727 11.5045,34.4727 12,32.5C 13.3988,33.2266 14.8988,33.7266 16.5,34C 20.172,36.1902 22.172,39.3568 22.5,43.5C 23.9187,44.4511 25.5853,44.7845 27.5,44.5C 27.5,40.1667 27.5,35.8333 27.5,31.5C 28.8333,31.5 30.1667,31.5 31.5,31.5C 32.8845,32.8009 34.3845,32.8009 36,31.5C 36.1909,29.2922 36.6909,27.2922 37.5,25.5 Z"/></g>
<g><path style="opacity:1" fill="#050f02" d="M 5.5,9.5 C 5.17287,19.3478 5.5062,29.0144 6.5,38.5C 9.16667,41.8333 11.8333,45.1667 14.5,48.5C 12.2779,49.6876 9.94459,50.6876 7.5,51.5C 6.80762,50.9747 6.30762,50.3081 6,49.5C 5.61211,50.428 4.94544,51.0946 4,51.5C 2.43699,50.2779 0.93699,50.2779 -0.5,51.5C -0.5,47.1667 -0.5,42.8333 -0.5,38.5C 0.712371,37.7701 1.71237,36.7701 2.5,35.5C 3.81597,26.6071 3.81597,17.7737 2.5,9C 3.57683,8.53042 4.57683,8.69708 5.5,9.5 Z"/></g>
<g><path style="opacity:1" fill="#847762" d="M 6.5,9.5 C 18.3217,8.50492 30.3217,8.17159 42.5,8.5C 42.8091,19.2483 42.4758,29.915 41.5,40.5C 38.5285,43.8076 35.5285,47.141 32.5,50.5C 27.4889,50.6659 22.4889,50.4993 17.5,50C 21.8711,49.8275 26.2044,49.3275 30.5,48.5C 26.6875,47.8329 23.0208,47.1663 19.5,46.5C 23.1817,46.6653 26.8484,46.4986 30.5,46C 32.6677,43.0019 35.0011,40.1686 37.5,37.5C 38.493,29.0161 38.8264,20.3494 38.5,11.5C 29.1667,11.5 19.8333,11.5 10.5,11.5C 9.81658,9.82351 8.48324,9.15684 6.5,9.5 Z"/></g>
<g><path style="opacity:1" fill="#031103" d="M 41.5,40.5 C 42.1667,40.5 42.8333,40.5 43.5,40.5C 43.33,41.8221 43.6634,42.9887 44.5,44C 43.6919,44.3076 43.0253,44.8076 42.5,45.5C 45.1604,48.0425 44.8271,50.2092 41.5,52C 43.7008,52.8249 45.5341,52.3249 47,50.5C 47.8159,51.8228 48.9826,52.4894 50.5,52.5C 50.5,54.5 50.5,56.5 50.5,58.5C 33.5,58.5 16.5,58.5 -0.5,58.5C -0.5,56.1667 -0.5,53.8333 -0.5,51.5C 0.93699,50.2779 2.43699,50.2779 4,51.5C 4.94544,51.0946 5.61211,50.428 6,49.5C 6.30762,50.3081 6.80762,50.9747 7.5,51.5C 9.94459,50.6876 12.2779,49.6876 14.5,48.5C 15.4778,48.811 16.1445,49.4777 16.5,50.5C 21.9864,51.8147 27.3197,51.8147 32.5,50.5C 35.5285,47.141 38.5285,43.8076 41.5,40.5 Z"/></g>
</svg>
