<?xml version="1.0" encoding="UTF-8"?>
<!DOCTYPE svg PUBLIC "-//W3C//DTD SVG 1.1//EN" "http://www.w3.org/Graphics/SVG/1.1/DTD/svg11.dtd">
<svg xmlns="http://www.w3.org/2000/svg" version="1.1" width="290px" height="290px" style="shape-rendering:geometricPrecision; text-rendering:geometricPrecision; image-rendering:optimizeQuality; fill-rule:evenodd; clip-rule:evenodd" xmlns:xlink="http://www.w3.org/1999/xlink">
<g><path style="opacity:0.944" fill="#020201" d="M 5.5,-0.5 C 28.8333,-0.5 52.1667,-0.5 75.5,-0.5C 108.801,31.9663 142.301,64.2996 176,96.5C 179.521,100.771 180.188,105.437 178,110.5C 159.5,127 141,143.5 122.5,160C 137.425,172.047 152.259,184.214 167,196.5C 169,200.5 169,204.5 167,208.5C 164.617,211.273 161.783,213.439 158.5,215C 128.674,230.746 99.0073,246.746 69.5,263C 58.6667,264.167 53.8333,259.333 55,248.5C 56.6667,246.167 58.3333,243.833 60,241.5C 71.1667,229.833 82.3333,218.167 93.5,206.5C 78.3472,194.425 63.0139,182.591 47.5,171C 41.9592,167.178 40.1259,162.011 42,155.5C 59.6536,137.68 77.4869,120.013 95.5,102.5C 63.1541,73.485 31.1541,44.1516 -0.5,14.5C -0.5,11.5 -0.5,8.5 -0.5,5.5C 1.16667,3.16667 3.16667,1.16667 5.5,-0.5 Z"/></g>
<g><path style="opacity:1" fill="#615937" d="M 70.5,10.5 C 50.6596,10.1696 30.9929,10.5029 11.5,11.5C 10.9569,11.44 10.6236,11.1067 10.5,10.5C 30.6627,9.17206 50.6627,9.17206 70.5,10.5 Z"/></g>
<g><path style="opacity:1" fill="#cfbe76" d="M 11.5,11.5 C 30.9929,10.5029 50.6596,10.1696 70.5,10.5C 103.289,41.5557 135.623,73.0557 167.5,105C 146.977,123.691 126.311,142.191 105.5,160.5C 122.724,174.272 139.724,188.272 156.5,202.5C 126.994,219.087 97.3273,235.421 67.5,251.5C 67.1667,251.333 66.8333,251.167 66.5,251C 81.0162,235.984 95.3495,220.818 109.5,205.5C 90.6686,190.174 71.6686,175.007 52.5,160C 72.3749,140.623 92.3749,121.457 112.5,102.5C 79.1376,71.803 45.4709,41.4697 11.5,11.5 Z"/></g>
<g><path style="opacity:0.941" fill="#030201" d="M 289.5,97.5 C 289.5,100.833 289.5,104.167 289.5,107.5C 270.906,124.15 252.239,140.816 233.5,157.5C 250.719,171.704 267.886,186.037 285,200.5C 288.943,207.337 287.777,213.17 281.5,218C 241.663,241.697 201.996,265.53 162.5,289.5C 159.167,289.5 155.833,289.5 152.5,289.5C 146.109,284.628 144.943,278.628 149,271.5C 168.349,251.652 187.516,231.652 206.5,211.5C 189.903,197.53 172.903,184.03 155.5,171C 147.881,164.374 147.548,157.374 154.5,150C 171.465,135.37 188.132,120.37 204.5,105C 181.301,82.7994 157.801,60.966 134,39.5C 128.624,32.0501 129.79,25.8834 137.5,21C 160.833,20.3333 184.167,20.3333 207.5,21C 235.057,46.3943 262.39,71.8943 289.5,97.5 Z"/></g>
<g><path style="opacity:1" fill="#cfbe76" d="M 142.5,32.5 C 162.663,31.3374 182.996,31.1708 203.5,32C 228.923,55.0459 253.923,78.5459 278.5,102.5C 257.833,120.833 237.167,139.167 216.5,157.5C 235.329,173.492 254.329,189.325 273.5,205C 275.007,205.837 275.507,207.004 275,208.5C 236.646,231.913 198.146,254.747 159.5,277C 181.015,254.985 202.349,232.818 223.5,210.5C 202.356,193.857 181.356,177.023 160.5,160C 180.8,142.035 200.8,123.702 220.5,105C 194.931,80.2606 168.931,56.094 142.5,32.5 Z"/></g>
</svg>
