<?xml version="1.0" encoding="UTF-8"?>
<!DOCTYPE svg PUBLIC "-//W3C//DTD SVG 1.1//EN" "http://www.w3.org/Graphics/SVG/1.1/DTD/svg11.dtd">
<svg xmlns="http://www.w3.org/2000/svg" version="1.1" width="200px" height="200px" style="shape-rendering:geometricPrecision; text-rendering:geometricPrecision; image-rendering:optimizeQuality; fill-rule:evenodd; clip-rule:evenodd" xmlns:xlink="http://www.w3.org/1999/xlink">
<g><path style="opacity:1" fill="#101112" d="M 96.5,29.5 C 101.503,29.0851 105.67,30.7518 109,34.5C 112.524,48.9266 116.524,63.2599 121,77.5C 122.746,81.3267 124.746,84.9934 127,88.5C 135.751,95.2489 143.084,103.249 149,112.5C 154.526,126.792 153.192,140.459 145,153.5C 139.736,160.89 132.569,165.39 123.5,167C 106.109,169.108 88.7758,168.775 71.5,166C 57.4347,160.599 49.2681,150.432 47,135.5C 45.2026,124.697 47.2026,114.697 53,105.5C 60.3333,98.1667 67.6667,90.8333 75,83.5C 77.2187,79.7293 78.8854,75.7293 80,71.5C 82.6675,60.1617 85.3342,48.8284 88,37.5C 90.0738,33.9231 92.9072,31.2565 96.5,29.5 Z"/></g>
<g><path style="opacity:1" fill="#92e9fb" d="M 98.5,38.5 C 101.595,38.6263 103.428,40.293 104,43.5C 105.032,59.2946 109.032,74.2946 116,88.5C 122.635,96.1363 129.635,103.47 137,110.5C 143.55,121.755 144.216,133.422 139,145.5C 134.905,152.262 129.072,156.762 121.5,159C 106.5,159.667 91.5,159.667 76.5,159C 62.1831,153.565 55.5165,143.065 56.5,127.5C 56.2255,120.586 58.3922,114.586 63,109.5C 70.4053,102.765 77.072,95.4317 83,87.5C 89.8069,73.6064 93.8069,58.9397 95,43.5C 95.9973,41.6769 97.1639,40.0103 98.5,38.5 Z"/></g>
<g><path style="opacity:1" fill="#4a96a7" d="M 73.5,122.5 C 77.1463,130.307 83.1463,135.474 91.5,138C 100.124,139.204 108.458,138.204 116.5,135C 120.194,132.313 122.694,128.813 124,124.5C 125.011,123.663 126.178,123.33 127.5,123.5C 125.169,139.997 115.669,147.997 99,147.5C 83.9026,148.07 75.0692,140.904 72.5,126C 72.6483,124.744 72.9816,123.577 73.5,122.5 Z"/></g>
</svg>
