<?xml version="1.0" encoding="UTF-8"?>
<!DOCTYPE svg PUBLIC "-//W3C//DTD SVG 1.1//EN" "http://www.w3.org/Graphics/SVG/1.1/DTD/svg11.dtd">
<svg xmlns="http://www.w3.org/2000/svg" version="1.1" width="128px" height="128px" style="shape-rendering:geometricPrecision; text-rendering:geometricPrecision; image-rendering:optimizeQuality; fill-rule:evenodd; clip-rule:evenodd" xmlns:xlink="http://www.w3.org/1999/xlink">
<g><path style="opacity:0.926" fill="#020103" d="M 44.5,14.5 C 46.8268,14.6646 48.9935,15.3313 51,16.5C 52.6079,19.3821 53.9413,22.3821 55,25.5C 55.6276,36.5024 56.2943,47.5024 57,58.5C 56.9078,63.5749 59.4078,66.2416 64.5,66.5C 66.9486,66.02 69.1153,65.02 71,63.5C 72.0737,50.8406 73.0737,38.1739 74,25.5C 74.9749,22.2397 76.1416,19.073 77.5,16C 79,15.5 80.5,15 82,14.5C 95.0559,21.5931 102.389,32.5931 104,47.5C 104.952,56.4903 105.285,65.4903 105,74.5C 99.4099,85.0912 91.4099,93.4245 81,99.5C 80.501,103.821 80.3343,108.154 80.5,112.5C 69.5,112.5 58.5,112.5 47.5,112.5C 47.6657,108.154 47.499,103.821 47,99.5C 38,93.1667 30.3333,85.5 24,76.5C 21.6807,62.3395 22.3473,48.3395 26,34.5C 30.6469,26.3559 36.8135,19.6893 44.5,14.5 Z"/></g>
<g><path style="opacity:1" fill="#da4869" d="M 47.5,25.5 C 47.5,32.8333 47.5,40.1667 47.5,47.5C 42.5,47.5 37.5,47.5 32.5,47.5C 32.5,46.5 32.5,45.5 32.5,44.5C 33.8064,36.3953 37.8064,29.8953 44.5,25C 45.5768,24.5304 46.5768,24.6971 47.5,25.5 Z"/></g>
<g><path style="opacity:1" fill="#da4869" d="M 96.5,47.5 C 91.1667,47.5 85.8333,47.5 80.5,47.5C 80.5,43.8333 80.5,40.1667 80.5,36.5C 80.3347,32.8183 80.5014,29.1516 81,25.5C 81.7175,24.5494 82.5509,24.3828 83.5,25C 91.3347,30.5058 95.668,38.0058 96.5,47.5 Z"/></g>
<g><path style="opacity:1" fill="#642130" d="M 47.5,25.5 C 48.492,32.9818 48.8254,40.6484 48.5,48.5C 42.8333,48.5 37.1667,48.5 31.5,48.5C 31.2322,46.901 31.5655,45.5676 32.5,44.5C 32.5,45.5 32.5,46.5 32.5,47.5C 37.5,47.5 42.5,47.5 47.5,47.5C 47.5,40.1667 47.5,32.8333 47.5,25.5 Z"/></g>
<g><path style="opacity:1" fill="#551c29" d="M 80.5,36.5 C 80.5,40.1667 80.5,43.8333 80.5,47.5C 85.8333,47.5 91.1667,47.5 96.5,47.5C 91.0247,48.4889 85.358,48.8222 79.5,48.5C 79.1832,44.2984 79.5166,40.2984 80.5,36.5 Z"/></g>
<g><path style="opacity:1" fill="#6971b3" d="M 32.5,55.5 C 37.8333,55.5 43.1667,55.5 48.5,55.5C 48.176,72.3352 56.176,78.5019 72.5,74C 76.9162,68.9988 79.5828,63.1655 80.5,56.5C 85.456,55.5059 90.456,55.1725 95.5,55.5C 95.6659,60.5111 95.4993,65.5111 95,70.5C 89.2613,79.406 81.7613,86.406 72.5,91.5C 71.5091,95.4454 71.1758,99.4454 71.5,103.5C 66.5,103.5 61.5,103.5 56.5,103.5C 56.8242,99.4454 56.4909,95.4454 55.5,91.5C 39.528,84.5763 31.8614,72.5763 32.5,55.5 Z"/></g>
</svg>
