<?xml version="1.0" encoding="UTF-8"?>
<!DOCTYPE svg PUBLIC "-//W3C//DTD SVG 1.1//EN" "http://www.w3.org/Graphics/SVG/1.1/DTD/svg11.dtd">
<svg xmlns="http://www.w3.org/2000/svg" version="1.1" width="249px" height="254px" style="shape-rendering:geometricPrecision; text-rendering:geometricPrecision; image-rendering:optimizeQuality; fill-rule:evenodd; clip-rule:evenodd" xmlns:xlink="http://www.w3.org/1999/xlink">
<g><path style="opacity:0.947" fill="#020103" d="M 62.5,-0.5 C 70.8333,-0.5 79.1667,-0.5 87.5,-0.5C 126.102,9.4549 147.102,34.4549 150.5,74.5C 150.23,86.7476 147.23,98.2476 141.5,109C 179.307,95.7176 210.807,104.551 236,135.5C 241.853,144.917 246.019,154.917 248.5,165.5C 248.5,173.833 248.5,182.167 248.5,190.5C 240.5,224.5 219.5,245.5 185.5,253.5C 177.167,253.5 168.833,253.5 160.5,253.5C 121.898,243.545 100.898,218.545 97.5,178.5C 97.7699,166.252 100.77,154.752 106.5,144C 68.6929,157.282 37.1929,148.449 12,117.5C 6.14723,108.083 1.98056,98.0835 -0.5,87.5C -0.5,78.8333 -0.5,70.1667 -0.5,61.5C 7.93572,28.0643 28.9357,7.3976 62.5,-0.5 Z"/></g>
<g><path style="opacity:1" fill="#986f94" d="M 96.5,14.5 C 91.1875,13.1516 85.6875,12.485 80,12.5C 75.1065,12.0422 70.6065,13.0422 66.5,15.5C 63.2577,15.2167 62.9244,14.3834 65.5,13C 64.3333,12.8333 63.1667,12.6667 62,12.5C 57.0555,13.7401 52.2221,15.0734 47.5,16.5C 55.4011,11.6933 64.0678,9.69331 73.5,10.5C 81.646,9.80961 89.3127,11.1429 96.5,14.5 Z"/></g>
<g><path style="opacity:1" fill="#9f6f9b" d="M 96.5,14.5 C 106.765,17.7729 115.432,23.4396 122.5,31.5C 122.523,33.9267 123.023,36.26 124,38.5C 125.566,37.9394 126.899,38.6061 128,40.5C 128.374,42.898 128.374,45.2313 128,47.5C 128.667,46.8333 129.333,46.1667 130,45.5C 133.374,51.2266 135.54,57.3932 136.5,64C 136.518,66.3788 135.851,68.5455 134.5,70.5C 137.792,73.382 138.126,76.7153 135.5,80.5C 136.585,83.773 136.752,87.1064 136,90.5C 134.14,93.6232 132.807,96.9566 132,100.5C 130.86,98.9222 130.36,97.2555 130.5,95.5C 128.124,97.6268 127.124,100.293 127.5,103.5C 124.833,103.5 122.167,103.5 119.5,103.5C 119.18,106.898 119.513,110.232 120.5,113.5C 121.532,111.96 122.865,111.46 124.5,112C 123.663,113.011 123.33,114.178 123.5,115.5C 119.814,115.13 118.814,116.463 120.5,119.5C 112.106,128.533 101.773,134.2 89.5,136.5C 77.2207,138.408 65.2207,137.575 53.5,134C 51.9632,132.89 51.2965,131.39 51.5,129.5C 53.604,129.799 55.604,129.466 57.5,128.5C 53.7643,126.895 50.5977,127.561 48,130.5C 46.5861,129.587 45.0861,129.587 43.5,130.5C 21.4719,118.136 10.4719,99.1364 10.5,73.5C 11.2339,46.8011 23.5672,27.8011 47.5,16.5C 52.2221,15.0734 57.0555,13.7401 62,12.5C 63.1667,12.6667 64.3333,12.8333 65.5,13C 62.9244,14.3834 63.2577,15.2167 66.5,15.5C 70.6065,13.0422 75.1065,12.0422 80,12.5C 85.6875,12.485 91.1875,13.1516 96.5,14.5 Z"/></g>
<g><path style="opacity:1" fill="#5a2b6b" d="M 67.5,49.5 C 71.9819,50.3255 76.6486,50.8255 81.5,51C 96.6709,56.8409 102.171,67.6743 98,83.5C 96.0934,87.4103 93.4267,90.7436 90,93.5C 89.7811,92.062 89.2811,90.7287 88.5,89.5C 87.7792,91.686 87.1125,93.8526 86.5,96C 62.2879,100.826 51.1212,90.993 53,66.5C 54.9053,64.5759 56.072,62.2426 56.5,59.5C 58.7098,58.2339 60.7098,56.7339 62.5,55C 62.1639,53.9701 61.4972,53.4701 60.5,53.5C 62.3356,51.412 64.6689,50.0787 67.5,49.5 Z"/></g>
<g><path style="opacity:1" fill="#542562" d="M 60.5,53.5 C 61.4972,53.4701 62.1639,53.9701 62.5,55C 60.7098,56.7339 58.7098,58.2339 56.5,59.5C 56.072,62.2426 54.9053,64.5759 53,66.5C 51.1212,90.993 62.2879,100.826 86.5,96C 87.1125,93.8526 87.7792,91.686 88.5,89.5C 89.2811,90.7287 89.7811,92.062 90,93.5C 93.4267,90.7436 96.0934,87.4103 98,83.5C 102.171,67.6743 96.6709,56.8409 81.5,51C 76.6486,50.8255 71.9819,50.3255 67.5,49.5C 90.3306,46.4984 101.831,56.4984 102,79.5C 97.0689,95.5548 86.2356,102.388 69.5,100C 54.8325,94.6467 48.3325,84.1467 50,68.5C 51.5421,62.0668 55.0421,57.0668 60.5,53.5 Z"/></g>
<g><path style="opacity:1" fill="#956d91" d="M 122.5,31.5 C 143.461,57.2092 144.961,84.2092 127,112.5C 125.281,115.288 123.115,117.621 120.5,119.5C 118.814,116.463 119.814,115.13 123.5,115.5C 123.33,114.178 123.663,113.011 124.5,112C 122.865,111.46 121.532,111.96 120.5,113.5C 119.513,110.232 119.18,106.898 119.5,103.5C 122.167,103.5 124.833,103.5 127.5,103.5C 127.124,100.293 128.124,97.6268 130.5,95.5C 130.36,97.2555 130.86,98.9222 132,100.5C 132.807,96.9566 134.14,93.6232 136,90.5C 136.752,87.1064 136.585,83.773 135.5,80.5C 138.126,76.7153 137.792,73.382 134.5,70.5C 135.851,68.5455 136.518,66.3788 136.5,64C 135.54,57.3932 133.374,51.2266 130,45.5C 129.333,46.1667 128.667,46.8333 128,47.5C 128.374,45.2313 128.374,42.898 128,40.5C 126.899,38.6061 125.566,37.9394 124,38.5C 123.023,36.26 122.523,33.9267 122.5,31.5 Z"/></g>
<g><path style="opacity:1" fill="#8d669c" d="M 188.5,116.5 C 188.833,116.5 189.167,116.5 189.5,116.5C 192.228,118.362 195.228,119.862 198.5,121C 199.833,121.667 199.833,122.333 198.5,123C 203.827,124.347 208.827,126.181 213.5,128.5C 222.45,134.791 228.783,143.124 232.5,153.5C 235.63,165.254 236.963,177.254 236.5,189.5C 235.875,196.043 233.875,202.043 230.5,207.5C 229.778,207.082 229.278,206.416 229,205.5C 227.713,211.349 224.546,215.849 219.5,219C 219.833,219.333 220.167,219.667 220.5,220C 219.23,220.9 218.23,222.066 217.5,223.5C 216.575,224.641 215.741,224.641 215,223.5C 214.392,225.154 213.892,226.821 213.5,228.5C 198.767,240.89 181.767,245.39 162.5,242C 134.49,236.156 117.156,219.323 110.5,191.5C 110.067,182.039 110.733,172.706 112.5,163.5C 113.5,163.5 114.5,163.5 115.5,163.5C 115.126,160.126 114.793,156.46 114.5,152.5C 116.888,146.727 120.055,141.393 124,136.5C 126.766,133.223 129.933,130.557 133.5,128.5C 136.324,127.274 139.158,125.941 142,124.5C 144.478,125.332 146.978,125.499 149.5,125C 148.051,123.883 146.384,123.216 144.5,123C 153.081,117.345 162.581,114.845 173,115.5C 178.187,115.66 183.354,115.993 188.5,116.5 Z"/></g>
<g><path style="opacity:1" fill="#83658f" d="M 188.5,116.5 C 183.354,115.993 178.187,115.66 173,115.5C 162.581,114.845 153.081,117.345 144.5,123C 146.384,123.216 148.051,123.883 149.5,125C 146.978,125.499 144.478,125.332 142,124.5C 139.158,125.941 136.324,127.274 133.5,128.5C 149.715,114.863 168.048,110.863 188.5,116.5 Z"/></g>
<g><path style="opacity:1" fill="#846590" d="M 189.5,116.5 C 198.644,118.405 206.644,122.405 213.5,128.5C 208.827,126.181 203.827,124.347 198.5,123C 199.833,122.333 199.833,121.667 198.5,121C 195.228,119.862 192.228,118.362 189.5,116.5 Z"/></g>
<g><path style="opacity:1" fill="#986f93" d="M 89.5,136.5 C 88.3915,137.29 87.0581,137.79 85.5,138C 73.9148,139.38 62.5815,138.38 51.5,135C 48.6089,133.726 45.9422,132.226 43.5,130.5C 45.0861,129.587 46.5861,129.587 48,130.5C 50.5977,127.561 53.7643,126.895 57.5,128.5C 55.604,129.466 53.604,129.799 51.5,129.5C 51.2965,131.39 51.9632,132.89 53.5,134C 65.2207,137.575 77.2207,138.408 89.5,136.5 Z"/></g>
<g><path style="opacity:1" fill="#522565" d="M 167.5,152.5 C 192.85,151.676 203.35,163.676 199,188.5C 190.88,203.654 178.713,208.154 162.5,202C 146.947,190.572 144.447,176.739 155,160.5C 159.01,157.422 163.177,154.755 167.5,152.5 Z"/></g>
<g><path style="opacity:1" fill="#5a2b6b" d="M 168.5,155.5 C 179.825,154.016 188.825,157.849 195.5,167C 200.275,179.045 197.608,189.712 187.5,199C 177.252,202.824 167.585,201.824 158.5,196C 151.952,188.727 149.785,180.227 152,170.5C 155.796,163.534 161.296,158.534 168.5,155.5 Z"/></g>
<g><path style="opacity:1" fill="#7a5e86" d="M 232.5,153.5 C 234.662,157.14 236.162,161.14 237,165.5C 237.823,173.677 237.656,181.677 236.5,189.5C 236.963,177.254 235.63,165.254 232.5,153.5 Z"/></g>
<g><path style="opacity:1" fill="#795c84" d="M 114.5,152.5 C 114.793,156.46 115.126,160.126 115.5,163.5C 114.5,163.5 113.5,163.5 112.5,163.5C 110.733,172.706 110.067,182.039 110.5,191.5C 107.065,178.038 108.398,165.038 114.5,152.5 Z"/></g>
<g><path style="opacity:1" fill="#846590" d="M 230.5,207.5 C 226.661,216.003 220.994,223.003 213.5,228.5C 213.892,226.821 214.392,225.154 215,223.5C 215.741,224.641 216.575,224.641 217.5,223.5C 218.23,222.066 219.23,220.9 220.5,220C 220.167,219.667 219.833,219.333 219.5,219C 224.546,215.849 227.713,211.349 229,205.5C 229.278,206.416 229.778,207.082 230.5,207.5 Z"/></g>
</svg>
