<?xml version="1.0" encoding="UTF-8"?>
<!DOCTYPE svg PUBLIC "-//W3C//DTD SVG 1.1//EN" "http://www.w3.org/Graphics/SVG/1.1/DTD/svg11.dtd">
<svg xmlns="http://www.w3.org/2000/svg" version="1.1" width="200px" height="200px" style="shape-rendering:geometricPrecision; text-rendering:geometricPrecision; image-rendering:optimizeQuality; fill-rule:evenodd; clip-rule:evenodd" xmlns:xlink="http://www.w3.org/1999/xlink">
<g><path style="opacity:0.995" fill="#0d0d0f" d="M 80.5,9.5 C 95.0649,20.5538 109.232,32.2204 123,44.5C 123.667,63.1667 123.667,81.8333 123,100.5C 109.78,112.521 96.28,124.188 82.5,135.5C 67.8967,124.4 53.73,112.733 40,100.5C 39.3333,81.8333 39.3333,63.1667 40,44.5C 53.6924,32.9684 67.1924,21.3017 80.5,9.5 Z"/></g>
<g><path style="opacity:1" fill="#accbf4" d="M 80.5,23.5 C 81.552,23.3505 82.552,23.5172 83.5,24C 93.3333,32.5 103.167,41 113,49.5C 113.667,64.8333 113.667,80.1667 113,95.5C 102.948,104.556 92.6147,113.223 82,121.5C 80.7753,121.138 79.6086,120.638 78.5,120C 69.051,112.185 59.8843,104.019 51,95.5C 50.3333,80.1667 50.3333,64.8333 51,49.5C 61.0269,40.9681 70.8603,32.3014 80.5,23.5 Z"/></g>
<g><path style="opacity:1" fill="#3d629e" d="M 80.5,45.5 C 86.8893,48.4757 92.3893,52.809 97,58.5C 97.6667,68.8333 97.6667,79.1667 97,89.5C 92.3552,94.3103 87.3552,98.6436 82,102.5C 76.7225,98.8938 71.7225,94.8938 67,90.5C 66.3333,79.5 66.3333,68.5 67,57.5C 71.6941,53.6346 76.1941,49.6346 80.5,45.5 Z"/></g>
<g><path style="opacity:1" fill="#abcbf7" d="M 80.5,57.5 C 83.2626,57.7438 85.4293,59.0771 87,61.5C 87.6667,69.8333 87.6667,78.1667 87,86.5C 85.2552,87.9557 83.4219,89.289 81.5,90.5C 75.9918,86.4923 73.9918,80.9923 75.5,74C 75.6667,70.1667 75.8333,66.3333 76,62.5C 77.7073,60.9625 79.2073,59.2959 80.5,57.5 Z"/></g>
<g><path style="opacity:1" fill="#0c0d0e" d="M 132.5,104.5 C 143.71,113.202 154.21,122.869 164,133.5C 165.548,142.438 165.881,151.438 165,160.5C 154.625,171.209 143.959,181.543 133,191.5C 125.675,185.341 118.841,178.675 112.5,171.5C 109.204,167.702 105.704,164.036 102,160.5C 101.5,152.173 101.334,143.84 101.5,135.5C 112.167,125.5 122.5,115.167 132.5,104.5 Z"/></g>
<g><path style="opacity:0.765" fill="#868686" d="M 132.5,104.5 C 122.5,115.167 112.167,125.5 101.5,135.5C 101.5,135.167 101.5,134.833 101.5,134.5C 111.5,123.489 121.834,113.489 132.5,104.5 Z"/></g>
<g><path style="opacity:1" fill="#adccf5" d="M 131.5,119.5 C 132.552,119.351 133.552,119.517 134.5,120C 140.333,126.5 146.167,133 152,139.5C 152.667,145.167 152.667,150.833 152,156.5C 146.321,163.512 139.988,169.846 133,175.5C 126.012,169.846 119.679,163.512 114,156.5C 113.333,150.833 113.333,145.167 114,139.5C 120.065,132.942 125.898,126.275 131.5,119.5 Z"/></g>
<g><path style="opacity:0.235" fill="#cecece" d="M 101.5,134.5 C 101.5,134.833 101.5,135.167 101.5,135.5C 101.334,143.84 101.5,152.173 102,160.5C 105.704,164.036 109.204,167.702 112.5,171.5C 108.263,168.772 104.429,165.439 101,161.5C 100.176,152.324 100.343,143.324 101.5,134.5 Z"/></g>
</svg>
